
<svg version="1.1" id="圖層_1" xmlns="http://www.w3.org/2000/svg" xmlns:xlink="http://www.w3.org/1999/xlink" x="0px" y="0px"
	 viewBox="0 0 425.2 425.2" style="enable-background:new 0 0 425.2 425.2;" xml:space="preserve">
<style type="text/css">
	.st0{fill:#FFFFFF;}
	.st1{fill:#232020;}
</style>
<g>
	<path class="st0" d="M241.2,200.9c1.7-0.1,3.4-0.3,5-0.5c0.1-4.2-0.1-8.4-0.7-12.6c-2.9,0.9-5.8,1.9-8.7,2.7
		c-1.1,0.3-1.5-1.3-0.5-1.6c3-0.9,5.9-2,8.8-3c-0.6-3.8-1.5-7.5-2.7-11.1c-1.4,0.7-2.9,1.3-4.4,1.7c-1.4,0.4-1.8-1.6-0.6-2.1
		c1.5-0.6,2.9-1.2,4.3-1.9c-0.9-2.4-1.9-4.8-3-7c-0.9,0.6-1.9,1.2-2.9,1.7c-1.2,0.6-2.2-1.1-1-1.8c1-0.6,2-1.3,3-1.9
		c-1-1.9-2.1-3.7-3.3-5.4c-0.8,0.8-1.6,1.6-2.3,2.4c-1,1.1-2.6-0.5-1.6-1.6c0.8-1,1.7-1.8,2.6-2.7c-0.2-0.2-0.3-0.4-0.4-0.6
		c-2.6-3.6-5.6-6.8-8.9-9.8c-0.8,0.7-2,0-1.5-1.1c0,0,0-0.1,0.1-0.1c-2.2-1.9-4.5-3.6-6.9-5.1c-0.2,0.5-0.4,1-0.6,1.5
		c-0.6,1.3-2.8,0.3-2.3-1c0.3-0.6,0.5-1.2,0.8-1.8c-3.1-1.8-6.3-3.3-9.7-4.6c-0.2,0.9-0.3,1.9-0.5,2.8c-0.2,1.2-2.2,0.9-2.1-0.3
		c0.1-1.1,0.3-2.2,0.5-3.3c-3.5-1.2-7.2-2-10.9-2.6c-0.1,0.7-0.1,1.4-0.2,2.2c-0.1,1.4-2.2,1.4-2.2,0c0-0.8,0-1.6,0.1-2.5
		c-1.6-0.2-3.2-0.2-4.8-0.3c0,0.5,0.1,1,0.1,1.5c0.1,1-1.4,1.4-1.8,0.5c-0.3-0.6-0.5-1.3-0.6-1.9c-2.8,0.1-5.5,0.4-8.3,0.9
		c0,0-0.1,0-0.1,0c-0.8,0.2-1.6,0.3-2.4,0.5c-1.9,0.4-3.7,1-5.5,1.6c0.2,1.1-1.4,2-2,0.8c0,0,0,0,0-0.1c-4.8,1.8-9.4,4.3-13.7,7.2
		c0.8,1.5,1.6,3,2.2,4.5c0.5,1.2-1.1,2.3-1.9,1.1c-0.8-1.4-1.5-2.8-2.3-4.3c-3.4,2.5-6.6,5.4-9.6,8.5c0.5,0.6,1,1.1,1.5,1.7
		c1.1,1.1-0.6,2.7-1.6,1.6c-0.5-0.5-0.9-1.1-1.4-1.7c-2.5,2.8-4.9,5.9-7,9.1c1.6,0.6,3.1,1.3,4.5,2.1c1.2,0.7,0.2,2.4-1.1,1.8
		c-1.6-0.7-3.1-1.3-4.7-1.9c-1.5,2.5-2.9,5.1-4.2,7.7c1.4,0.4,2.7,1,3.8,1.9c1.1,0.9-0.3,2.5-1.4,1.8c-1.1-0.6-2.3-1-3.5-1.3
		c-1.4,3.2-2.5,6.6-3.4,9.9c2.1-0.5,4.2-0.9,6.3-1.1c1.2-0.1,1.5,1.9,0.3,2.1c-2.5,0.4-4.9,1-7.3,1.6c-0.5,2-0.9,4-1.1,6
		c-0.1,1-0.2,1.9-0.3,2.9c1.5-0.6,3-1.1,4.6-1.5c1.4-0.4,2,1.8,0.6,2.2c-1.8,0.5-3.6,1.1-5.3,1.8c-0.2,3.1-0.1,6.3,0.1,9.5
		c1.5-0.5,3.1-0.9,4.6-1.2c1.3-0.3,1.9,1.6,0.6,2.1c-1.7,0.5-3.3,1.1-4.9,1.7c0.4,3.5,1.1,7.1,2,10.5c1.8-0.3,3.6-0.6,5.4-0.8
		c1.3-0.1,1.6,2.1,0.3,2.3c-1.7,0.3-3.4,0.5-5.1,0.8c1.2,4.1,2.8,8.1,4.7,11.9c1.8-1.6,3.5-3.4,5.4-4.9c0.9-0.7,2.5,0.3,1.7,1.3
		c-1.6,2.2-3.7,4.1-5.9,5.8c2.3,4.2,5.1,8,8.2,11.3c2.2-2.1,4.5-4.1,6.9-6.1c1.1-0.9,2.7,0.6,1.6,1.6c-2.3,2-4.6,4-6.9,6.1
		c3.8,3.6,8,6.6,12.9,8.6c2.5-3.5,5.1-6.9,7.7-10.1c0.8-0.9,2,0.3,1.5,1.2c-1.7,3.5-4.2,6.8-6.7,9.9c1.1,0.4,2.1,0.7,3.2,1
		c0.2-0.6,0.8-1,1.6-0.7c1.1,0.5,2.3,0.9,3.5,1.2c2.2-3.7,5-7.2,8.2-9.8c0.9-0.7,2.2,0.5,1.3,1.3c-3.1,2.6-5,5.9-7,9.1
		c0.1,0,0.3,0.1,0.4,0.1c0.6,0,1.2,0.1,1.9,0.1c0.2,0,0.4,0.1,0.4,0.3c1.7,0.3,3.4,0.4,5.1,0.5c0.5-1.6,0.9-3.2,1.4-4.7
		c0.5-1.3,2.6-0.8,2.1,0.6c-0.4,1.4-0.9,2.8-1.3,4.2c4.4,0,8.7-0.4,13-1.1c0.8-0.1,1.7-0.3,2.5-0.4c0-1.9,0.1-3.9,0.1-5.7
		c0-1.4,2.2-1.4,2.2,0c0,1.7,0,3.5,0.1,5.3c2.1-0.4,4.3-0.7,6.4-1.2c-1.2-3.7-2.1-7.6-2.6-11.4c-0.2-1.3,2-1.5,2.2-0.3
		c0.8,3.8,1.7,7.5,2.8,11.2c2.9-0.7,5.7-1.4,8.4-2.5c2.8-1,5.4-2.3,8-3.6c-1.4-2.5-2.6-5-3.6-7.6c-0.4-1,1.2-1.6,1.7-0.7
		c1.4,2.3,2.6,4.8,3.8,7.3c5.3-3,10-6.7,14.1-11.2c-2.1-1.3-4.1-2.6-6.2-4c-1-0.7-0.1-2.2,0.9-1.6c2.2,1.3,4.5,2.6,6.8,3.9
		c2.5-3,4.8-6.2,6.6-9.8c0.9-1.7,1.7-3.5,2.4-5.4c-2.3-1-4.7-2.1-7-3.1c-1.1-0.5-0.3-2.4,0.8-2c2.3,1,4.7,1.9,7,2.9
		c1-2.8,1.8-5.7,2.4-8.6c-3.4-0.9-6.8-1.9-9.9-3.2c-1.2-0.5-0.7-2.5,0.6-2c3.1,1.2,6.6,1.5,9.9,2.4c0.4-2.5,0.7-5,0.8-7.5
		c-1.6,0.2-3.3,0.3-4.9,0.4C240,202.8,240.1,201,241.2,200.9z M222.9,181.3c2.1-1.6,4.1-3.1,6-4.9c1.1-1,2.7,0.7,1.6,1.6
		c-2.2,1.7-4.4,3.3-6.7,4.8C222.8,183.5,222,182,222.9,181.3z M211.9,155.5c1.8-3.1,3.9-6.2,6.4-8.8c1-1.1,2.6,0.5,1.6,1.6
		c-2.2,2.7-4.5,5.2-6.4,8.2C212.9,157.5,211.2,156.6,211.9,155.5z M205,169c2.9-3.8,5.9-7.7,9.8-10.5c1.2-0.8,2.7,1.1,1.5,2
		c-3.5,2.9-6.5,6.1-9.3,9.7C206.1,171.5,204,170.3,205,169z M208.3,183.2c-0.9,1-2.5-0.3-1.8-1.4c2.9-4.6,5.5-9,7.3-14.3
		c0.4-1.3,2.4-0.7,2,0.6C214.3,173.4,212.1,179,208.3,183.2z M211.4,199.4c-0.5-1.4-1-2.8-1.5-4.3c-0.5-1.2,1.5-1.7,2-0.5
		c0.5,1.4,1,2.8,1.5,4.2C213.9,200,211.9,200.6,211.4,199.4z M202.4,142c1.2-0.8,2.2,1.1,1.1,1.9c-2.6,1.8-2.8,5.8-4,8.4
		c-0.2,0.5-1,0.2-1-0.3C198.4,148.9,199.6,143.7,202.4,142z M187.8,152.1c1.6,5,3.8,9.7,6.3,14.3c0.6,1.1-1,2.1-1.7,1
		c-2.9-4.6-4.9-9.6-6.4-14.8C185.7,151.4,187.4,151,187.8,152.1z M186.8,190.7c0.3,1.9,0.9,3.7,1.5,5.5c0.4,1.1-1.3,1.5-1.7,0.5
		c-0.6-1.8-1.2-3.6-1.5-5.5C185,190,186.6,189.6,186.8,190.7z M178.1,137.8c0.2-1.2,2.1-0.7,1.8,0.5c-0.6,3.1-0.9,6.3-1.5,9.4
		c-0.2,1.2-2.1,0.7-1.9-0.5C177.1,144.1,177.5,140.9,178.1,137.8z M175.7,198.4c-1.4-2.1-2.5-4.3-3.4-6.6c-0.4-1.1,1.4-1.6,1.8-0.5
		c0.9,2.2,2,4.2,3.3,6.1C178.2,198.5,176.4,199.5,175.7,198.4z M166.4,148.5c0.7,3.5,1.7,6.9,2.8,10.3c0.3,1.1-1.2,1.4-1.6,0.4
		c-1.4-3.3-2.1-6.8-2.7-10.3C164.7,147.9,166.2,147.4,166.4,148.5z M156.3,151.2c2.1-4.8,4.6-9.4,7-13.9c0.6-1.1,2.2-0.1,1.6,0.9
		c-2.4,4.6-4.8,9.2-6.9,14C157.5,153.4,155.8,152.4,156.3,151.2z M161.9,175.4c0.1,1.4-2.1,1.4-2.2,0c-0.2-3.9-0.5-7.7-1-11.5
		c-0.1-1,1.6-1.2,1.7-0.2C161.1,167.5,161.5,171.5,161.9,175.4z M148.4,151.3c2.1,4.5,3.4,9.4,5.8,13.8c0.7,1.3-1.3,2.4-1.9,1.1
		c-2.3-4.6-3.7-9.5-5.3-14.3C146.7,151.1,148,150.5,148.4,151.3z M146.4,187.4c2.8-2.5,6-5.8,9.8-6.7c1.1-0.3,1.9,1.4,0.8,1.9
		c-1.6,0.8-3.3,1.5-4.8,2.6c-1.6,1.1-3,2.3-4.4,3.6C146.9,189.7,145.4,188.3,146.4,187.4z M140.7,165.1c0,2.7,0.1,5.3,0.6,8
		c0.2,1.1-1.5,1.6-1.7,0.5c-0.6-2.8-0.6-5.6-0.6-8.4C139,164,140.7,164,140.7,165.1z M128.2,185.5c4.2,2.5,8.6,4.8,12.6,7.7
		c1.2,0.9,0.2,2.7-1.2,2c-4.3-2.4-8.3-5.3-12.3-8.1C126.3,186.5,127.1,184.9,128.2,185.5z M131,208.3c-1.3,0.3-1.8-1.6-0.5-2
		c3.2-0.9,6.4-1.8,9.7-2.2c1.4-0.2,2.1,1.9,0.6,2.2C137.5,207,134.2,207.5,131,208.3z M132.2,219.7c-1.2,0.2-1.7-1.5-0.5-1.8
		c4.6-0.9,9.8-2.3,14.5-2.3c1.2,0,1.4,1.7,0.3,2C141.9,218.9,136.9,218.9,132.2,219.7z M149.4,226.5c-2.2,1.9-4.6,3.8-6.9,5.6
		c-1,0.8-2-0.9-1-1.7c2.2-1.7,4.3-3.5,6.4-5.4C148.9,224.2,150.4,225.7,149.4,226.5z M152.5,205.3c3.2-4.1,7-9,11.7-11.4
		c1-0.5,2.2,0.8,1.3,1.6c-2.1,1.9-4.4,3.5-6.4,5.5c-1.8,1.8-3.5,3.7-5.1,5.7C153.1,207.8,151.7,206.4,152.5,205.3z M161.8,231.8
		c-1.1,3.7-1.4,7.2-1.2,11c0.1,1.6-2.3,1.6-2.5,0c-0.3-3.9,0.5-7.8,1.8-11.5C160.2,230.1,162.1,230.6,161.8,231.8z M159.8,227.6
		c-1.4-2.1-3-4-4.6-5.9c-0.8-1,0.6-2.4,1.4-1.4c1.8,2,3.5,4,5.2,6.2C162.7,227.6,160.6,228.9,159.8,227.6z M170.4,211.6
		c-2.2,1.6-4.3,3.3-6.3,5.2c-0.9,0.8-2.1-0.4-1.3-1.3c2-2.1,4.2-4,6.5-5.7C170.5,208.9,171.5,210.7,170.4,211.6z M170.1,177.2
		c0.8-3.7,2.1-7.3,3-10.9c0.4-1.4,2.5-0.8,2.1,0.6c-0.9,3.7-2,7.3-3.1,10.9C171.7,179.2,169.8,178.6,170.1,177.2z M178.5,217.9
		c-1.2,5.1-2.8,10.1-4.7,14.9c-0.6,1.4-2.9,0.8-2.3-0.6c1.8-4.9,3.7-9.7,5-14.8C176.8,216,178.8,216.6,178.5,217.9z M187.2,237.2
		c-2,3.8-4,7.6-5.8,11.5c-0.5,1.1-2.2,0.1-1.7-1c1.8-3.9,3.7-7.8,5.7-11.6C186,235.1,187.8,236.1,187.2,237.2z M188.6,223.1
		c-0.2,1.2-2.4,1-2.2-0.3c0.5-3.8,1-7.7,1.6-11.5c0.2-1.4,2.2-0.8,2,0.6C189.5,215.6,189.3,219.4,188.6,223.1z M193.9,185.7
		c-2.6-2.7-5.4-5.4-7-8.8c-0.6-1.2,1.2-2.3,1.8-1.1c1.6,3.3,4.3,5.7,6.9,8.2C196.8,185,195,186.8,193.9,185.7z M197.6,198.2
		c0.2-1.5,1.5-2.5,2.6-3.4c1.5-1.1,3.1-2,4.6-2.9c1.4-0.9,2.7,1.4,1.3,2.2c-2.3,1.3-5.4,2.4-6.8,4.8
		C198.7,199.9,197.4,199.2,197.6,198.2z M207.3,227.3c-1,2.8-2.2,5.4-3.8,7.8c-0.7,1.1-2.5,0.1-1.8-1c1.4-2.3,2.6-4.8,3.5-7.3
		C205.7,225.5,207.8,226,207.3,227.3z M208.5,218.6c-3.7-2.7-7.1-5.8-9.7-9.6c-0.7-1.1,1-2.1,1.8-1c2.5,3.5,5.7,6.1,9.1,8.6
		C210.9,217.5,209.7,219.5,208.5,218.6z M213,225.5c-0.8-3.7-1.7-7.4-2.7-11c-0.3-1.1,1.3-1.5,1.7-0.5c1.3,3.6,2.4,7.2,3.4,10.8
		C215.8,226.4,213.4,227.1,213,225.5z M216.8,246.5c-1.4-3.1-2.2-6.5-3.4-9.7c-0.5-1.4,1.7-2,2.3-0.6c1.3,3.1,2.4,6.2,3.4,9.4
		C219.5,246.8,217.4,247.8,216.8,246.5z M226.7,222.6c-2.7-1.8-5.1-4.2-7.4-6.3c-1-0.9,0.5-2.4,1.5-1.5c2.4,2,5,3.9,7.4,6
		C229.1,221.6,227.8,223.3,226.7,222.6z M233,197.9c-3.1-0.7-6.2-1.4-9.3-2.1c-1.2-0.3-0.7-2.1,0.5-1.9c3.2,0.5,6.3,1,9.5,1.6
		C235.2,195.7,234.6,198.2,233,197.9z"/>
	<g>
		<path class="st1" d="M259.5,198.3c-3.6,0.4-7.1,1.1-10.6,1.6c0.1-4.1-0.2-8.2-0.7-12.3c0-0.2-0.1-0.4-0.1-0.7
			c2.1-0.7,4.2-1.4,6.2-2c1.4-0.4,0.8-2.6-0.6-2.2c-2,0.7-4,1.4-6,2.1c-0.7-3.9-1.6-7.7-2.8-11.5c3.5-2,6.7-4.5,9.9-6.7
			c1-0.7,0.1-2.3-0.9-1.6c-3.2,2.1-6.4,4.2-9.7,6c-0.9-2.5-2-5-3.1-7.3c3.2-2.4,6.1-5.2,9.4-7.3c0.8-0.5,0.1-1.7-0.7-1.2
			c-3.4,1.9-6.5,4.4-9.7,6.7c-1.1-2-2.2-4-3.5-5.8c3.5-3.4,7-6.7,9.9-10.4c0.8-1-0.6-2.4-1.4-1.4c-3,3.6-6.5,6.7-9.9,9.9
			c-0.6-0.8-1.2-1.6-1.8-2.4c1.9-1.6,3.4-3.6,4.9-5.6c0.8-1.1-1.1-2.3-1.9-1.1c-1.3,1.8-2.5,3.7-4.1,5.2c-2-2.4-4.2-4.7-6.6-6.9
			c1.5-2.3,2.7-4.7,4-7c0.6-1.1-1-2-1.7-1c-1.3,2.1-2.8,4.3-4.1,6.5c-2.2-1.9-4.6-3.6-7.1-5.2c1.3-3.1,2.7-6.2,4-9.3
			c0.5-1.2-1.5-2-2.1-0.9c-1.3,3-2.7,5.9-4,8.9c-0.6-0.4-1.2-0.7-1.9-1.1c-2.8-1.5-5.6-2.7-8.5-3.7c0.5-3.2,1-6.3,1.3-9.6
			c0.1-0.8-1.3-1-1.5-0.2c-0.5,3-1.2,6-1.8,9.1c-3.6-1.1-7.4-1.9-11.1-2.4c0.3-2.1,0.6-4.1,0.9-6.2c0.2-1.3-1.8-1.9-2-0.6
			c-0.4,2.2-0.9,4.4-1.2,6.6c-1.8-0.1-3.5-0.2-5.3-0.2c-0.1-2-0.2-4-0.2-6.1c0-1.4-2.1-1.4-2.1,0c0,2-0.2,4.1-0.1,6.2
			c-2.3,0.1-4.5,0.3-6.8,0.7c0.7-2.7,1.7-5.3,2.5-8c0.5-1.5-2-2.2-2.4-0.7c-0.8,3-1.7,6-2.3,9.1c-2.7,0.5-5.4,1.2-8,2.1
			c-1.9-4.8-2.8-9.9-3.7-15c-0.2-1.2-2.1-0.7-1.9,0.5c0.8,5.1,1.5,10.4,3.5,15.2c-3.1,1.1-6.1,2.5-8.9,4c-1.7,0.9-3.4,2-5,3.1
			c-1.3-2.4-2.7-4.8-3.8-7.3c-0.5-1.2-2.2-0.1-1.7,1c1.1,2.6,2.3,5.2,3.6,7.7c-3.6,2.6-7,5.6-10,8.8c-2.3-3-4.3-6.3-6.3-9.5
			c-0.6-0.9-2-0.1-1.4,0.8c2.1,3.4,4,7,6.3,10.3c-2.8,3.2-5.4,6.7-7.7,10.3c-4-1.3-8.2-2.2-12.3-3.3c-1-0.3-1.4,1.3-0.4,1.6
			c3.9,1.2,7.7,2.4,11.5,3.7c-1.5,2.6-3,5.3-4.2,8.1c-4.7-0.4-10,1-14,1.5c-1.2,0.2-0.9,2.2,0.3,2.1c4-0.5,8.5-1.4,12.7-1
			c-1.5,3.6-2.7,7.2-3.6,11c-3.8,1.2-7.6,2.7-11.2,4.1c-1.2,0.5-0.7,2.4,0.5,1.9c3.4-1.3,6.7-2.4,10-3.4c-0.7,3.1-1.1,6.2-1.4,9.3
			c-3.4,1.4-6.7,3.1-9.9,4.8c-1,0.6-0.1,2.1,0.9,1.6c2.9-1.5,5.8-2.8,8.8-4c-0.2,3-0.2,6-0.1,9c0,0.2,0,0.3,0,0.5
			c-4,1.6-7.9,3.7-11.6,5.6c-1.1,0.6-0.1,2.3,1,1.7c3.6-1.9,7.2-3.4,10.8-4.8c0.4,3.4,1,6.7,1.9,10.1c-2.7,0.6-5.4,1.5-8,2.6
			c-1.2,0.5-0.7,2.4,0.5,2c2.7-1,5.4-1.7,8.2-2.2c1.4,4.5,3.2,8.9,5.5,13c-1.9,1.6-3.9,3.2-5.9,4.8c-0.9,0.7,0.3,2.2,1.2,1.5
			c1.9-1.4,3.9-2.9,5.9-4.4c2.5,4.1,5.4,7.9,8.7,11.2c-2.6,2.5-5.2,5.2-7.6,7.9c-0.6,0.7,0.3,1.6,1,1c2.7-2.4,5.5-4.9,8.2-7.4
			c4,3.7,8.4,6.6,13.3,8.7c-1.6,2.4-3.2,4.7-4.6,7.1c-0.6,1,0.9,1.9,1.6,0.9c1.6-2.4,3.5-4.7,5.4-7.1c1.4,0.5,2.8,0.9,4.3,1.2
			c0.2,0.3,0.4,0.5,0.7,0.7c0.9,0.4,1.8,0.7,2.8,1c0,0,0,0.1-0.1,0.1c-0.7,1.3,1.1,2.3,1.9,1.1c0.1-0.2,0.3-0.4,0.4-0.6
			c2.8,0.7,5.7,1.1,8.6,1.3c-0.5,2-1.1,4.1-1.5,6.1c-0.3,1.2,1.6,1.8,1.9,0.5c0.6-2.2,1.2-4.4,1.9-6.6c5.4,0.1,11-0.6,16.4-1.5
			c0,3.1,0.2,6.2,0.8,9.1c0.1,0.4,0.6,0.4,0.7,0c0.6-3,0.8-6.3,0.8-9.5c2-0.4,3.9-0.7,5.8-1.1c0.5-0.1,1-0.2,1.5-0.3
			c1.2,3.4,2.7,6.7,4.3,9.9c0.6,1.2,2.4,0.1,1.8-1c-1.5-3.1-2.7-6.2-3.8-9.3c6-1.5,11.7-3.5,17.1-6.3c1,1.7,2.1,3.4,3.2,5
			c0.5,0.7,1.6,0.1,1.2-0.7c-0.9-1.7-1.8-3.5-2.6-5.2c3.1-1.7,6-3.6,8.9-5.9c2.4-1.9,4.6-4,6.5-6.2c2.8,1.7,5.6,3.4,8.5,5
			c1.4,0.8,2.6-1.3,1.2-2.1c-2.7-1.6-5.4-3.2-8.2-4.7c3.8-4.7,6.8-9.9,9-15.5c1.8,0.8,3.6,1.5,5.5,2.2c1.6,0.6,2.3-2,0.7-2.5
			c-1.8-0.6-3.6-1.3-5.4-2c1-2.9,1.8-5.9,2.4-8.9c0.3,0.1,0.5,0.1,0.8,0.2c1.3,0.4,2-1.5,0.9-2.2c-0.4-0.2-0.8-0.4-1.3-0.6
			c0.5-2.9,0.8-5.8,0.9-8.7c3.7-0.4,7.4-1,11-1.6C260.9,200.2,260.7,198.2,259.5,198.3z M241.2,202.8c1.6-0.1,3.3-0.2,4.9-0.4
			c-0.1,2.5-0.4,5-0.8,7.5c-3.2-0.9-6.8-1.2-9.9-2.4c-1.3-0.5-1.8,1.5-0.6,2c3.1,1.3,6.6,2.3,9.9,3.2c-0.6,2.9-1.4,5.8-2.4,8.6
			c-2.3-0.9-4.7-1.9-7-2.9c-1.1-0.5-1.9,1.5-0.8,2c2.3,1.1,4.7,2.1,7,3.1c-0.7,1.8-1.5,3.6-2.4,5.4c-1.8,3.6-4.1,6.8-6.6,9.8
			c-2.3-1.3-4.5-2.6-6.8-3.9c-1-0.6-1.9,0.9-0.9,1.6c2,1.3,4.1,2.7,6.2,4c-4.1,4.4-8.9,8.2-14.1,11.2c-1.2-2.5-2.4-4.9-3.8-7.3
			c-0.5-0.9-2.1-0.3-1.7,0.7c1,2.5,2.3,5.1,3.6,7.6c-2.6,1.4-5.3,2.6-8,3.6c-2.7,1-5.6,1.8-8.4,2.5c-1.1-3.6-2-7.4-2.8-11.2
			c-0.3-1.2-2.4-1-2.2,0.3c0.5,3.9,1.4,7.7,2.6,11.4c-2.1,0.5-4.3,0.8-6.4,1.2c0-1.8-0.1-3.6-0.1-5.3c0-1.4-2.2-1.4-2.2,0
			c0,1.9,0,3.8-0.1,5.7c-0.8,0.1-1.7,0.3-2.5,0.4c-4.3,0.7-8.6,1.1-13,1.1c0.4-1.4,0.9-2.8,1.3-4.2c0.4-1.4-1.7-1.9-2.1-0.6
			c-0.5,1.6-1,3.1-1.4,4.7c-1.7-0.1-3.4-0.2-5.1-0.5c-0.1-0.2-0.2-0.3-0.4-0.3c-0.6,0-1.3-0.1-1.9-0.1c-0.1,0-0.3-0.1-0.4-0.1
			c2-3.3,3.9-6.5,7-9.1c0.9-0.8-0.4-2-1.3-1.3c-3.2,2.6-6,6.1-8.2,9.8c-1.2-0.3-2.3-0.7-3.5-1.2c-0.8-0.3-1.4,0.1-1.6,0.7
			c-1.1-0.3-2.2-0.6-3.2-1c2.6-3.2,5-6.4,6.7-9.9c0.5-0.9-0.8-2.1-1.5-1.2c-2.6,3.2-5.2,6.6-7.7,10.1c-4.8-2.1-9.1-5-12.9-8.6
			c2.3-2,4.6-4.1,6.9-6.1c1.1-1-0.5-2.5-1.6-1.6c-2.3,1.9-4.6,4-6.9,6.1c-3.2-3.4-5.9-7.2-8.2-11.3c2.2-1.8,4.3-3.6,5.9-5.8
			c0.8-1.1-0.8-2.1-1.7-1.3c-1.9,1.6-3.6,3.3-5.4,4.9c-1.9-3.8-3.5-7.8-4.7-11.9c1.7-0.3,3.4-0.5,5.1-0.8c1.3-0.2,1-2.4-0.3-2.3
			c-1.8,0.2-3.6,0.4-5.4,0.8c-0.9-3.5-1.6-7-2-10.5c1.6-0.6,3.3-1.1,4.9-1.7c1.3-0.4,0.8-2.3-0.6-2.1c-1.6,0.3-3.1,0.7-4.6,1.2
			c-0.3-3.2-0.3-6.4-0.1-9.5c1.8-0.6,3.5-1.2,5.3-1.8c1.4-0.4,0.8-2.5-0.6-2.2c-1.5,0.4-3.1,0.9-4.6,1.5c0.1-1,0.2-2,0.3-2.9
			c0.3-2,0.7-4,1.1-6c2.4-0.6,4.8-1.2,7.3-1.6c1.2-0.2,0.9-2.2-0.3-2.1c-2.1,0.1-4.2,0.5-6.3,1.1c0.9-3.4,2.1-6.7,3.4-9.9
			c1.2,0.3,2.4,0.7,3.5,1.3c1.1,0.6,2.5-1,1.4-1.8c-1.1-0.9-2.4-1.5-3.8-1.9c1.2-2.6,2.6-5.2,4.2-7.7c1.6,0.6,3.1,1.2,4.7,1.9
			c1.2,0.6,2.3-1.2,1.1-1.8c-1.5-0.8-3-1.5-4.5-2.1c2.1-3.2,4.4-6.2,7-9.1c0.4,0.6,0.9,1.1,1.4,1.7c1,1.1,2.7-0.6,1.6-1.6
			c-0.5-0.5-1-1.1-1.5-1.7c3-3.1,6.2-6,9.6-8.5c0.8,1.4,1.5,2.9,2.3,4.3c0.7,1.2,2.4,0.2,1.9-1.1c-0.7-1.5-1.4-3-2.2-4.5
			c4.3-2.9,8.8-5.4,13.7-7.2c0,0,0,0,0,0.1c0.6,1.2,2.2,0.3,2-0.8c1.8-0.6,3.7-1.2,5.5-1.6c0.8-0.2,1.6-0.3,2.4-0.5c0,0,0.1,0,0.1,0
			c2.8-0.5,5.5-0.8,8.3-0.9c0.1,0.7,0.3,1.3,0.6,1.9c0.4,0.9,1.9,0.5,1.8-0.5c-0.1-0.5-0.1-1-0.1-1.5c1.6,0,3.2,0.1,4.8,0.3
			c-0.1,0.8-0.1,1.6-0.1,2.5c0,1.4,2.1,1.4,2.2,0c0-0.7,0.1-1.4,0.2-2.2c3.7,0.5,7.4,1.4,10.9,2.6c-0.2,1.1-0.3,2.2-0.5,3.3
			c-0.1,1.2,1.9,1.4,2.1,0.3c0.1-0.9,0.3-1.9,0.5-2.8c3.3,1.3,6.6,2.8,9.7,4.6c-0.3,0.6-0.6,1.2-0.8,1.8c-0.5,1.3,1.7,2.3,2.3,1
			c0.2-0.5,0.4-1,0.6-1.5c2.4,1.5,4.7,3.3,6.9,5.1c0,0,0,0.1-0.1,0.1c-0.5,1.1,0.7,1.8,1.5,1.1c3.3,2.9,6.3,6.2,8.9,9.8
			c0.2,0.2,0.3,0.4,0.4,0.6c-0.9,0.9-1.8,1.8-2.6,2.7c-0.9,1.1,0.6,2.7,1.6,1.6c0.8-0.8,1.6-1.6,2.3-2.4c1.2,1.8,2.3,3.5,3.3,5.4
			c-1,0.7-1.9,1.3-3,1.9c-1.1,0.7-0.1,2.4,1,1.8c1-0.5,1.9-1.1,2.9-1.7c1.1,2.3,2.1,4.6,3,7c-1.4,0.7-2.8,1.3-4.3,1.9
			c-1.3,0.5-0.8,2.5,0.6,2.1c1.5-0.4,3-1,4.4-1.7c1.2,3.6,2.1,7.3,2.7,11.1c-2.9,1.1-5.9,2.1-8.8,3c-1,0.3-0.6,2,0.5,1.6
			c2.9-0.9,5.8-1.8,8.7-2.7c0.6,4.2,0.8,8.4,0.7,12.6c-1.7,0.2-3.3,0.4-5,0.5C240.1,201,240,202.8,241.2,202.8z"/>
		<path class="st1" d="M192.4,167.4c0.7,1.1,2.3,0.1,1.7-1c-2.5-4.6-4.7-9.3-6.3-14.3c-0.4-1.1-2.1-0.7-1.8,0.5
			C187.5,157.8,189.5,162.9,192.4,167.4z"/>
		<path class="st1" d="M147.8,188.9c1.4-1.3,2.9-2.5,4.4-3.6c1.5-1.1,3.2-1.7,4.8-2.6c1.1-0.6,0.3-2.2-0.8-1.9
			c-3.8,0.8-7.1,4.2-9.8,6.7C145.4,188.3,146.9,189.7,147.8,188.9z"/>
		<path class="st1" d="M165.5,195.6c0.9-0.8-0.3-2.2-1.3-1.6c-4.8,2.4-8.5,7.3-11.7,11.4c-0.8,1,0.6,2.5,1.4,1.4
			c1.6-2,3.3-3.9,5.1-5.7C161,199,163.4,197.5,165.5,195.6z"/>
		<path class="st1" d="M169.4,209.7c-2.3,1.7-4.5,3.7-6.5,5.7c-0.8,0.8,0.4,2.1,1.3,1.3c2-1.9,4.1-3.5,6.3-5.2
			C171.5,210.7,170.5,208.9,169.4,209.7z"/>
		<path class="st1" d="M213.8,167.5c-1.7,5.2-4.3,9.7-7.3,14.3c-0.7,1.1,0.9,2.3,1.8,1.4c3.8-4.2,6-9.8,7.5-15.1
			C216.2,166.8,214.2,166.3,213.8,167.5z"/>
		<path class="st1" d="M158.7,163.9c0.5,3.8,0.7,7.7,1,11.5c0.1,1.4,2.4,1.4,2.2,0c-0.4-3.9-0.8-7.9-1.5-11.8
			C160.3,162.7,158.6,162.9,158.7,163.9z"/>
		<path class="st1" d="M164.8,148.9c0.6,3.5,1.3,7,2.7,10.3c0.4,1,1.9,0.6,1.6-0.4c-1-3.4-2-6.8-2.8-10.3
			C166.2,147.4,164.7,147.9,164.8,148.9z"/>
		<path class="st1" d="M140.7,193.2c-3.9-2.9-8.4-5.2-12.6-7.7c-1-0.6-1.9,0.9-0.9,1.6c4,2.8,8.1,5.7,12.3,8.1
			C140.9,196,141.9,194.1,140.7,193.2z"/>
		<path class="st1" d="M140.1,204.1c-3.3,0.5-6.5,1.3-9.7,2.2c-1.3,0.4-0.7,2.3,0.5,2c3.2-0.8,6.5-1.3,9.7-2
			C142.2,205.9,141.6,203.9,140.1,204.1z"/>
		<path class="st1" d="M147.9,225.1c-2.1,1.8-4.2,3.7-6.4,5.4c-1,0.8,0,2.5,1,1.7c2.4-1.8,4.7-3.6,6.9-5.6
			C150.4,225.7,148.9,224.2,147.9,225.1z"/>
		<path class="st1" d="M188.3,196.1c-0.6-1.8-1.2-3.6-1.5-5.5c-0.2-1.1-1.9-0.6-1.7,0.5c0.3,1.9,0.9,3.7,1.5,5.5
			C187,197.7,188.7,197.2,188.3,196.1z"/>
		<path class="st1" d="M141.3,173.1c-0.6-2.6-0.6-5.3-0.6-8c0-1.1-1.7-1.1-1.7,0c0,2.8,0,5.6,0.6,8.4
			C139.8,174.6,141.5,174.2,141.3,173.1z"/>
		<path class="st1" d="M158,152.2c2.1-4.8,4.5-9.4,6.9-14c0.6-1.1-1-2-1.6-0.9c-2.5,4.6-4.9,9.2-7,13.9
			C155.8,152.4,157.5,153.4,158,152.2z"/>
		<path class="st1" d="M178.4,147.7c0.6-3.1,0.9-6.3,1.5-9.4c0.2-1.2-1.6-1.7-1.8-0.5c-0.6,3.1-1,6.3-1.5,9.4
			C176.3,148.4,178.2,149,178.4,147.7z"/>
		<path class="st1" d="M172.2,177.8c1.1-3.6,2.1-7.3,3.1-10.9c0.3-1.4-1.8-2-2.1-0.6c-0.9,3.7-2.2,7.2-3,10.9
			C169.8,178.6,171.7,179.2,172.2,177.8z"/>
		<path class="st1" d="M188.7,175.8c-0.6-1.2-2.4-0.2-1.8,1.1c1.6,3.4,4.4,6.1,7,8.8c1.1,1.1,2.8-0.6,1.7-1.7
			C193,181.5,190.3,179.1,188.7,175.8z"/>
		<path class="st1" d="M209.9,195.1c0.5,1.4,1,2.8,1.5,4.3c0.5,1.2,2.5,0.7,2-0.5c-0.5-1.4-1-2.8-1.5-4.2
			C211.4,193.4,209.4,193.9,209.9,195.1z"/>
		<path class="st1" d="M188,211.3c-0.7,3.8-1.1,7.7-1.6,11.5c-0.2,1.3,2,1.5,2.2,0.3c0.7-3.7,0.9-7.5,1.5-11.2
			C190.2,210.5,188.2,209.9,188,211.3z"/>
		<path class="st1" d="M176.5,217.3c-1.3,5.1-3.3,9.9-5,14.8c-0.5,1.5,1.8,2.1,2.3,0.6c1.9-4.8,3.5-9.8,4.7-14.9
			C178.8,216.6,176.8,216,176.5,217.3z"/>
		<path class="st1" d="M159.8,231.3c-1.3,3.7-2.1,7.6-1.8,11.5c0.1,1.6,2.5,1.6,2.5,0c-0.1-3.8,0.2-7.3,1.2-11
			C162.1,230.6,160.2,230.1,159.8,231.3z"/>
		<path class="st1" d="M185.4,236.2c-2.1,3.8-3.9,7.7-5.7,11.6c-0.5,1.1,1.1,2.1,1.7,1c1.8-3.9,3.8-7.7,5.8-11.5
			C187.8,236.1,186,235.1,185.4,236.2z"/>
		<path class="st1" d="M205.3,226.7c-0.9,2.6-2.1,5-3.5,7.3c-0.7,1.1,1.1,2.2,1.8,1c1.5-2.5,2.8-5.1,3.8-7.8
			C207.8,226,205.7,225.5,205.3,226.7z"/>
		<path class="st1" d="M200.5,208c-0.8-1.1-2.5-0.1-1.8,1c2.6,3.8,6,6.9,9.7,9.6c1.3,0.9,2.4-1.1,1.2-2
			C206.3,214.1,203,211.5,200.5,208z"/>
		<path class="st1" d="M220.7,214.7c-1-0.9-2.6,0.6-1.5,1.5c2.4,2.2,4.7,4.6,7.4,6.3c1.1,0.7,2.5-1,1.4-1.9
			C225.7,218.6,223.2,216.8,220.7,214.7z"/>
		<path class="st1" d="M172.3,191.7c0.9,2.3,2,4.6,3.4,6.6c0.7,1.1,2.5,0.1,1.8-1c-1.3-1.9-2.5-3.9-3.3-6.1
			C173.7,190.2,171.9,190.6,172.3,191.7z"/>
		<path class="st1" d="M199.2,198.9c1.4-2.4,4.6-3.5,6.8-4.8c1.4-0.8,0.1-3.1-1.3-2.2c-1.5,1-3.1,1.9-4.6,2.9
			c-1.1,0.8-2.4,1.9-2.6,3.4C197.4,199.2,198.7,199.9,199.2,198.9z"/>
		<path class="st1" d="M223.8,182.9c2.3-1.5,4.6-3.1,6.7-4.8c1.1-0.9-0.5-2.6-1.6-1.6c-1.9,1.7-4,3.3-6,4.9
			C222,182,222.8,183.5,223.8,182.9z"/>
		<path class="st1" d="M233.7,195.5c-3.2-0.6-6.3-1-9.5-1.6c-1.2-0.2-1.7,1.6-0.5,1.9c3.1,0.7,6.2,1.4,9.3,2.1
			C234.6,198.2,235.2,195.7,233.7,195.5z"/>
		<path class="st1" d="M213.5,156.5c1.9-2.9,4.1-5.5,6.4-8.2c0.9-1.1-0.6-2.7-1.6-1.6c-2.5,2.6-4.6,5.7-6.4,8.8
			C211.2,156.6,212.9,157.5,213.5,156.5z"/>
		<path class="st1" d="M199.5,152.3c1.2-2.7,1.4-6.6,4-8.4c1.1-0.8,0.1-2.6-1.1-1.9c-2.8,1.8-4,6.9-4,10.1
			C198.5,152.5,199.3,152.8,199.5,152.3z"/>
		<path class="st1" d="M215.4,224.9c-1-3.7-2.1-7.3-3.4-10.8c-0.4-1.1-2-0.6-1.7,0.5c1.1,3.6,1.9,7.3,2.7,11
			C213.4,227.1,215.8,226.4,215.4,224.9z"/>
		<path class="st1" d="M215.6,236.1c-0.6-1.4-2.8-0.8-2.3,0.6c1.2,3.2,2,6.6,3.4,9.7c0.6,1.3,2.7,0.4,2.3-1
			C218,242.4,216.9,239.2,215.6,236.1z"/>
		<path class="st1" d="M146.2,215.7c-4.8-0.1-9.9,1.3-14.5,2.3c-1.2,0.2-0.7,2,0.5,1.8c4.7-0.8,9.7-0.8,14.3-2
			C147.6,217.4,147.4,215.7,146.2,215.7z"/>
		<path class="st1" d="M156.7,220.2c-0.9-1-2.3,0.4-1.4,1.4c1.6,1.9,3.1,3.9,4.6,5.9c0.9,1.3,3,0,2-1.2
			C160.2,224.3,158.4,222.2,156.7,220.2z"/>
		<path class="st1" d="M152.2,166.3c0.6,1.3,2.6,0.1,1.9-1.1c-2.4-4.4-3.7-9.3-5.8-13.8c-0.4-0.8-1.7-0.2-1.4,0.6
			C148.6,156.8,150,161.7,152.2,166.3z"/>
		<path class="st1" d="M207.1,170.2c2.8-3.7,5.7-6.8,9.3-9.7c1.1-0.9-0.4-2.8-1.5-2c-3.9,2.8-7,6.7-9.8,10.5
			C204,170.3,206.1,171.5,207.1,170.2z"/>
	</g>
</g>
<g>
	<path class="st0" d="M187.4,229.8c1.7-0.1,3.4-0.3,5-0.5c0.1-4.2-0.1-8.4-0.7-12.6c-2.9,0.9-5.8,1.9-8.7,2.7
		c-1.1,0.3-1.5-1.3-0.5-1.6c3-0.9,5.9-2,8.8-3c-0.6-3.8-1.5-7.5-2.7-11.1c-1.4,0.7-2.9,1.3-4.4,1.7c-1.4,0.4-1.8-1.6-0.6-2.1
		c1.5-0.6,2.9-1.2,4.3-1.9c-0.9-2.4-1.9-4.8-3-7c-0.9,0.6-1.9,1.2-2.9,1.7c-1.2,0.6-2.2-1.1-1-1.8c1-0.6,2-1.3,3-1.9
		c-1-1.9-2.1-3.7-3.3-5.4c-0.8,0.8-1.6,1.6-2.3,2.4c-1,1.1-2.6-0.5-1.6-1.6c0.8-1,1.7-1.8,2.6-2.7c-0.2-0.2-0.3-0.4-0.4-0.6
		c-2.6-3.6-5.6-6.8-8.9-9.8c-0.8,0.7-2,0-1.5-1.1c0,0,0-0.1,0.1-0.1c-2.2-1.9-4.5-3.6-6.9-5.1c-0.2,0.5-0.4,1-0.6,1.5
		c-0.6,1.3-2.8,0.3-2.3-1c0.3-0.6,0.5-1.2,0.8-1.8c-3.1-1.8-6.3-3.3-9.7-4.6c-0.2,0.9-0.3,1.9-0.5,2.8c-0.2,1.2-2.2,0.9-2.1-0.3
		c0.1-1.1,0.3-2.2,0.5-3.3c-3.5-1.2-7.2-2-10.9-2.6c-0.1,0.7-0.1,1.4-0.2,2.2c-0.1,1.4-2.2,1.4-2.2,0c0-0.8,0-1.6,0.1-2.5
		c-1.6-0.2-3.2-0.2-4.8-0.3c0,0.5,0.1,1,0.1,1.5c0.1,1-1.4,1.4-1.8,0.5c-0.3-0.6-0.5-1.3-0.6-1.9c-2.8,0.1-5.5,0.4-8.3,0.9
		c0,0-0.1,0-0.1,0c-0.8,0.2-1.6,0.3-2.4,0.5c-1.9,0.4-3.7,1-5.5,1.6c0.2,1.1-1.4,2-2,0.8c0,0,0,0,0-0.1c-4.8,1.8-9.4,4.3-13.7,7.2
		c0.8,1.5,1.6,3,2.2,4.5c0.5,1.2-1.1,2.3-1.9,1.1c-0.8-1.4-1.5-2.8-2.3-4.3c-3.4,2.5-6.6,5.4-9.6,8.5c0.5,0.6,1,1.1,1.5,1.7
		c1.1,1.1-0.6,2.7-1.6,1.6c-0.5-0.5-0.9-1.1-1.4-1.7c-2.5,2.8-4.9,5.9-7,9.1c1.6,0.6,3.1,1.3,4.5,2.1c1.2,0.7,0.2,2.4-1.1,1.8
		c-1.6-0.7-3.1-1.3-4.7-1.9c-1.5,2.5-2.9,5.1-4.2,7.7c1.4,0.4,2.7,1,3.8,1.9c1.1,0.9-0.3,2.5-1.4,1.8c-1.1-0.6-2.3-1-3.5-1.3
		c-1.4,3.2-2.5,6.6-3.4,9.9c2.1-0.5,4.2-0.9,6.3-1.1c1.2-0.1,1.5,1.9,0.3,2.1c-2.5,0.4-4.9,1-7.3,1.6c-0.5,2-0.9,4-1.1,6
		c-0.1,1-0.2,1.9-0.3,2.9c1.5-0.6,3-1.1,4.6-1.5c1.4-0.4,2,1.8,0.6,2.2c-1.8,0.5-3.6,1.1-5.3,1.8c-0.2,3.1-0.1,6.3,0.1,9.5
		c1.5-0.5,3.1-0.9,4.6-1.2c1.3-0.3,1.9,1.6,0.6,2.1c-1.7,0.5-3.3,1.1-4.9,1.7c0.4,3.5,1.1,7.1,2,10.5c1.8-0.3,3.6-0.6,5.4-0.8
		c1.3-0.1,1.6,2.1,0.3,2.3c-1.7,0.3-3.4,0.5-5.1,0.8c1.2,4.1,2.8,8.1,4.7,11.9c1.8-1.6,3.5-3.4,5.4-4.9c0.9-0.7,2.5,0.3,1.7,1.3
		c-1.6,2.2-3.7,4.1-5.9,5.8c2.3,4.2,5.1,8,8.2,11.3c2.2-2.1,4.5-4.1,6.9-6.1c1.1-0.9,2.7,0.6,1.6,1.6c-2.3,2-4.6,4-6.9,6.1
		c3.8,3.6,8,6.6,12.9,8.6c2.5-3.5,5.1-6.9,7.7-10.1c0.8-0.9,2,0.3,1.5,1.2c-1.7,3.5-4.2,6.8-6.7,9.9c1.1,0.4,2.1,0.7,3.2,1
		c0.2-0.6,0.8-1,1.6-0.7c1.1,0.5,2.3,0.9,3.5,1.2c2.2-3.7,5-7.2,8.2-9.8c0.9-0.7,2.2,0.5,1.3,1.3c-3.1,2.6-5,5.9-7,9.1
		c0.1,0,0.3,0.1,0.4,0.1c0.6,0,1.2,0.1,1.9,0.1c0.2,0,0.4,0.1,0.4,0.3c1.7,0.3,3.4,0.4,5.1,0.5c0.5-1.6,0.9-3.2,1.4-4.7
		c0.5-1.3,2.6-0.8,2.1,0.6c-0.4,1.4-0.9,2.8-1.3,4.2c4.4,0,8.7-0.4,13-1.1c0.8-0.1,1.7-0.3,2.5-0.4c0-1.9,0.1-3.9,0.1-5.7
		c0-1.4,2.2-1.4,2.2,0c0,1.7,0,3.5,0.1,5.3c2.1-0.4,4.3-0.7,6.4-1.2c-1.2-3.7-2.1-7.6-2.6-11.4c-0.2-1.3,2-1.5,2.2-0.3
		c0.8,3.8,1.7,7.5,2.8,11.2c2.9-0.7,5.7-1.4,8.4-2.5c2.8-1,5.4-2.3,8-3.6c-1.4-2.5-2.6-5-3.6-7.6c-0.4-1,1.2-1.6,1.7-0.7
		c1.4,2.3,2.6,4.8,3.8,7.3c5.3-3,10-6.7,14.1-11.2c-2.1-1.3-4.1-2.6-6.2-4c-1-0.7-0.1-2.2,0.9-1.6c2.2,1.3,4.5,2.6,6.8,3.9
		c2.5-3,4.8-6.2,6.6-9.8c0.9-1.7,1.7-3.5,2.4-5.4c-2.3-1-4.7-2.1-7-3.1c-1.1-0.5-0.3-2.4,0.8-2c2.3,1,4.7,1.9,7,2.9
		c1-2.8,1.8-5.7,2.4-8.6c-3.4-0.9-6.8-1.9-9.9-3.2c-1.2-0.5-0.7-2.5,0.6-2c3.1,1.2,6.6,1.5,9.9,2.4c0.4-2.5,0.7-5,0.8-7.5
		c-1.6,0.2-3.3,0.3-4.9,0.4C186.2,231.8,186.2,229.9,187.4,229.8z M169.1,210.2c2.1-1.6,4.1-3.1,6-4.9c1.1-1,2.7,0.7,1.6,1.6
		c-2.2,1.7-4.4,3.3-6.7,4.8C169,212.5,168.2,210.9,169.1,210.2z M158.1,184.4c1.8-3.1,3.9-6.2,6.4-8.8c1-1.1,2.6,0.5,1.6,1.6
		c-2.2,2.7-4.5,5.2-6.4,8.2C159.1,186.4,157.4,185.5,158.1,184.4z M151.2,198c2.9-3.8,5.9-7.7,9.8-10.5c1.2-0.8,2.7,1.1,1.5,2
		c-3.5,2.9-6.5,6.1-9.3,9.7C152.3,200.4,150.2,199.2,151.2,198z M154.5,212.1c-0.9,1-2.5-0.3-1.8-1.4c2.9-4.6,5.5-9,7.3-14.3
		c0.4-1.3,2.4-0.7,2,0.6C160.5,202.4,158.3,208,154.5,212.1z M157.6,228.3c-0.5-1.4-1-2.8-1.5-4.3c-0.5-1.2,1.5-1.7,2-0.5
		c0.5,1.4,1,2.8,1.5,4.2C160.1,229,158.1,229.5,157.6,228.3z M148.6,170.9c1.2-0.8,2.2,1.1,1.1,1.9c-2.6,1.8-2.8,5.8-4,8.4
		c-0.2,0.5-1,0.2-1-0.3C144.6,177.9,145.8,172.7,148.6,170.9z M134,181c1.6,5,3.8,9.7,6.3,14.3c0.6,1.1-1,2.1-1.7,1
		c-2.9-4.6-4.9-9.6-6.4-14.8C131.9,180.4,133.6,179.9,134,181z M133,219.6c0.3,1.9,0.9,3.7,1.5,5.5c0.4,1.1-1.3,1.5-1.7,0.5
		c-0.6-1.8-1.2-3.6-1.5-5.5C131.2,219,132.8,218.5,133,219.6z M124.3,166.7c0.2-1.2,2.1-0.7,1.8,0.5c-0.6,3.1-0.9,6.3-1.5,9.4
		c-0.2,1.2-2.1,0.7-1.9-0.5C123.3,173,123.7,169.9,124.3,166.7z M121.9,227.3c-1.4-2.1-2.5-4.3-3.4-6.6c-0.4-1.1,1.4-1.6,1.8-0.5
		c0.9,2.2,2,4.2,3.3,6.1C124.4,227.4,122.6,228.4,121.9,227.3z M112.6,177.4c0.7,3.5,1.7,6.9,2.8,10.3c0.3,1.1-1.2,1.4-1.6,0.4
		c-1.4-3.3-2.1-6.8-2.7-10.3C110.9,176.8,112.4,176.4,112.6,177.4z M102.5,180.2c2.1-4.8,4.6-9.4,7-13.9c0.6-1.1,2.2-0.1,1.6,0.9
		c-2.4,4.6-4.8,9.2-6.9,14C103.7,182.3,102,181.3,102.5,180.2z M108.1,204.3c0.1,1.4-2.1,1.4-2.2,0c-0.2-3.9-0.5-7.7-1-11.5
		c-0.1-1,1.6-1.2,1.7-0.2C107.3,196.5,107.7,200.4,108.1,204.3z M94.6,180.3c2.1,4.5,3.4,9.4,5.8,13.8c0.7,1.3-1.3,2.4-1.9,1.1
		c-2.3-4.6-3.7-9.5-5.3-14.3C92.9,180,94.2,179.5,94.6,180.3z M92.6,216.4c2.8-2.5,6-5.8,9.8-6.7c1.1-0.3,1.9,1.4,0.8,1.9
		c-1.6,0.8-3.3,1.5-4.8,2.6c-1.6,1.1-3,2.3-4.4,3.6C93.1,218.6,91.6,217.3,92.6,216.4z M86.9,194c0,2.7,0.1,5.3,0.6,8
		c0.2,1.1-1.5,1.6-1.7,0.5c-0.6-2.8-0.6-5.6-0.6-8.4C85.2,192.9,86.9,192.9,86.9,194z M74.4,214.5c4.2,2.5,8.6,4.8,12.6,7.7
		c1.2,0.9,0.2,2.7-1.2,2c-4.3-2.4-8.3-5.3-12.3-8.1C72.5,215.4,73.3,213.9,74.4,214.5z M77.2,237.2c-1.3,0.3-1.8-1.6-0.5-2
		c3.2-0.9,6.4-1.8,9.7-2.2c1.4-0.2,2.1,1.9,0.6,2.2C83.7,235.9,80.4,236.4,77.2,237.2z M78.4,248.6c-1.2,0.2-1.7-1.5-0.5-1.8
		c4.6-0.9,9.8-2.3,14.5-2.3c1.2,0,1.4,1.7,0.3,2C88.1,247.9,83.1,247.9,78.4,248.6z M95.6,255.5c-2.2,1.9-4.6,3.8-6.9,5.6
		c-1,0.8-2-0.9-1-1.7c2.2-1.7,4.3-3.5,6.4-5.4C95.1,253.1,96.6,254.6,95.6,255.5z M98.7,234.3c3.2-4.1,7-9,11.7-11.4
		c1-0.5,2.2,0.8,1.3,1.6c-2.1,1.9-4.4,3.5-6.4,5.5c-1.8,1.8-3.5,3.7-5.1,5.7C99.3,236.8,97.9,235.3,98.7,234.3z M108,260.8
		c-1.1,3.7-1.4,7.2-1.2,11c0.1,1.6-2.3,1.6-2.5,0c-0.3-3.9,0.5-7.8,1.8-11.5C106.4,259,108.3,259.5,108,260.8z M106,256.6
		c-1.4-2.1-3-4-4.6-5.9c-0.8-1,0.6-2.4,1.4-1.4c1.8,2,3.5,4,5.2,6.2C108.9,256.6,106.8,257.8,106,256.6z M116.6,240.5
		c-2.2,1.6-4.3,3.3-6.3,5.2c-0.9,0.8-2.1-0.4-1.3-1.3c2-2.1,4.2-4,6.5-5.7C116.7,237.8,117.7,239.7,116.6,240.5z M116.3,206.2
		c0.8-3.7,2.1-7.3,3-10.9c0.4-1.4,2.5-0.8,2.1,0.6c-0.9,3.7-2,7.3-3.1,10.9C117.9,208.1,116,207.5,116.3,206.2z M124.7,246.8
		c-1.2,5.1-2.8,10.1-4.7,14.9c-0.6,1.4-2.9,0.8-2.3-0.6c1.8-4.9,3.7-9.7,5-14.8C123,245,125,245.5,124.7,246.8z M133.4,266.2
		c-2,3.8-4,7.6-5.8,11.5c-0.5,1.1-2.2,0.1-1.7-1c1.8-3.9,3.7-7.8,5.7-11.6C132.2,264,134,265,133.4,266.2z M134.8,252
		c-0.2,1.2-2.4,1-2.2-0.3c0.5-3.8,1-7.7,1.6-11.5c0.2-1.4,2.2-0.8,2,0.6C135.7,244.5,135.5,248.3,134.8,252z M140.1,214.6
		c-2.6-2.7-5.4-5.4-7-8.8c-0.6-1.2,1.2-2.3,1.8-1.1c1.6,3.3,4.3,5.7,6.9,8.2C143,214,141.2,215.7,140.1,214.6z M143.7,227.2
		c0.2-1.5,1.5-2.5,2.6-3.4c1.5-1.1,3.1-2,4.6-2.9c1.4-0.9,2.7,1.4,1.3,2.2c-2.3,1.3-5.4,2.4-6.8,4.8
		C144.8,228.8,143.6,228.1,143.7,227.2z M153.5,256.2c-1,2.8-2.2,5.4-3.8,7.8c-0.7,1.1-2.5,0.1-1.8-1c1.4-2.3,2.6-4.8,3.5-7.3
		C151.9,254.4,154,254.9,153.5,256.2z M154.7,247.6c-3.7-2.7-7.1-5.8-9.7-9.6c-0.7-1.1,1-2.1,1.8-1c2.5,3.5,5.7,6.1,9.1,8.6
		C157.1,246.4,155.9,248.5,154.7,247.6z M159.2,254.5c-0.8-3.7-1.7-7.4-2.7-11c-0.3-1.1,1.3-1.5,1.7-0.5c1.3,3.6,2.4,7.2,3.4,10.8
		C162,255.3,159.6,256,159.2,254.5z M163,275.4c-1.4-3.1-2.2-6.5-3.4-9.7c-0.5-1.4,1.7-2,2.3-0.6c1.3,3.1,2.4,6.2,3.4,9.4
		C165.7,275.8,163.6,276.7,163,275.4z M172.9,251.5c-2.7-1.8-5.1-4.2-7.4-6.3c-1-0.9,0.5-2.4,1.5-1.5c2.4,2,5,3.9,7.4,6
		C175.3,250.5,174,252.3,172.9,251.5z M179.2,226.8c-3.1-0.7-6.2-1.4-9.3-2.1c-1.2-0.3-0.7-2.1,0.5-1.9c3.2,0.5,6.3,1,9.5,1.6
		C181.4,224.7,180.8,227.1,179.2,226.8z"/>
	<g>
		<path class="st1" d="M205.7,227.2c-3.6,0.4-7.1,1.1-10.6,1.6c0.1-4.1-0.2-8.2-0.7-12.3c0-0.2-0.1-0.4-0.1-0.7
			c2.1-0.7,4.2-1.4,6.2-2c1.4-0.4,0.8-2.6-0.6-2.2c-2,0.7-4,1.4-6,2.1c-0.7-3.9-1.6-7.7-2.8-11.5c3.5-2,6.7-4.5,9.9-6.7
			c1-0.7,0.1-2.3-0.9-1.6c-3.2,2.1-6.4,4.2-9.7,6c-0.9-2.5-2-5-3.1-7.3c3.2-2.4,6.1-5.2,9.4-7.3c0.8-0.5,0.1-1.7-0.7-1.2
			c-3.4,1.9-6.5,4.4-9.7,6.7c-1.1-2-2.2-4-3.5-5.8c3.5-3.4,7-6.7,9.9-10.4c0.8-1-0.6-2.4-1.4-1.4c-3,3.6-6.5,6.7-9.9,9.9
			c-0.6-0.8-1.2-1.6-1.8-2.4c1.9-1.6,3.4-3.6,4.9-5.6c0.8-1.1-1.1-2.3-1.9-1.1c-1.3,1.8-2.5,3.7-4.1,5.2c-2-2.4-4.2-4.7-6.6-6.9
			c1.5-2.3,2.7-4.7,4-7c0.6-1.1-1-2-1.7-1c-1.3,2.1-2.8,4.3-4.1,6.5c-2.2-1.9-4.6-3.6-7.1-5.2c1.3-3.1,2.7-6.2,4-9.3
			c0.5-1.2-1.5-2-2.1-0.9c-1.3,3-2.7,5.9-4,8.9c-0.6-0.4-1.2-0.7-1.9-1.1c-2.8-1.5-5.6-2.7-8.5-3.7c0.5-3.2,1-6.3,1.3-9.6
			c0.1-0.8-1.3-1-1.5-0.2c-0.5,3-1.2,6-1.8,9.1c-3.6-1.1-7.4-1.9-11.1-2.4c0.3-2.1,0.6-4.1,0.9-6.2c0.2-1.3-1.8-1.9-2-0.6
			c-0.4,2.2-0.9,4.4-1.2,6.6c-1.8-0.1-3.5-0.2-5.3-0.2c-0.1-2-0.2-4-0.2-6.1c0-1.4-2.1-1.4-2.1,0c0,2-0.2,4.1-0.1,6.2
			c-2.3,0.1-4.5,0.3-6.8,0.7c0.7-2.7,1.7-5.3,2.5-8c0.5-1.5-2-2.2-2.4-0.7c-0.8,3-1.7,6-2.3,9.1c-2.7,0.5-5.4,1.2-8,2.1
			c-1.9-4.8-2.8-9.9-3.7-15c-0.2-1.2-2.1-0.7-1.9,0.5c0.8,5.1,1.5,10.4,3.5,15.2c-3.1,1.1-6.1,2.5-8.9,4c-1.7,0.9-3.4,2-5,3.1
			c-1.3-2.4-2.7-4.8-3.8-7.3c-0.5-1.2-2.2-0.1-1.7,1c1.1,2.6,2.3,5.2,3.6,7.7c-3.6,2.6-7,5.6-10,8.8c-2.3-3-4.3-6.3-6.3-9.5
			c-0.6-0.9-2-0.1-1.4,0.8c2.1,3.4,4,7,6.3,10.3c-2.8,3.2-5.4,6.7-7.7,10.3c-4-1.3-8.2-2.2-12.3-3.3c-1-0.3-1.4,1.3-0.4,1.6
			c3.9,1.2,7.7,2.4,11.5,3.7c-1.5,2.6-3,5.3-4.2,8.1c-4.7-0.4-10,1-14,1.5c-1.2,0.2-0.9,2.2,0.3,2.1c4-0.5,8.5-1.4,12.7-1
			c-1.5,3.6-2.7,7.2-3.6,11c-3.8,1.2-7.6,2.7-11.2,4.1c-1.2,0.5-0.7,2.4,0.5,1.9c3.4-1.3,6.7-2.4,10-3.4c-0.7,3.1-1.1,6.2-1.4,9.3
			c-3.4,1.4-6.7,3.1-9.9,4.8c-1,0.6-0.1,2.1,0.9,1.6c2.9-1.5,5.8-2.8,8.8-4c-0.2,3-0.2,6-0.1,9c0,0.2,0,0.3,0,0.5
			c-4,1.6-7.9,3.7-11.6,5.6c-1.1,0.6-0.1,2.3,1,1.7c3.6-1.9,7.2-3.4,10.8-4.8c0.4,3.4,1,6.7,1.9,10.1c-2.7,0.6-5.4,1.5-8,2.6
			c-1.2,0.5-0.7,2.4,0.5,2c2.7-1,5.4-1.7,8.2-2.2c1.4,4.5,3.2,8.9,5.5,13c-1.9,1.6-3.9,3.2-5.9,4.8c-0.9,0.7,0.3,2.2,1.2,1.5
			c1.9-1.4,3.9-2.9,5.9-4.4c2.5,4.1,5.4,7.9,8.7,11.2c-2.6,2.5-5.2,5.2-7.6,7.9c-0.6,0.7,0.3,1.6,1,1c2.7-2.4,5.5-4.9,8.2-7.4
			c4,3.7,8.4,6.6,13.3,8.7c-1.6,2.4-3.2,4.7-4.6,7.1c-0.6,1,0.9,1.9,1.6,0.9c1.6-2.4,3.5-4.7,5.4-7.1c1.4,0.5,2.8,0.9,4.3,1.2
			c0.2,0.3,0.4,0.5,0.7,0.7c0.9,0.4,1.8,0.7,2.8,1c0,0,0,0.1-0.1,0.1c-0.7,1.3,1.1,2.3,1.9,1.1c0.1-0.2,0.3-0.4,0.4-0.6
			c2.8,0.7,5.7,1.1,8.6,1.3c-0.5,2-1.1,4.1-1.5,6.1c-0.3,1.2,1.6,1.8,1.9,0.5c0.6-2.2,1.2-4.4,1.9-6.6c5.4,0.1,11-0.6,16.4-1.5
			c0,3.1,0.2,6.2,0.8,9.1c0.1,0.4,0.6,0.4,0.7,0c0.6-3,0.8-6.3,0.8-9.5c2-0.4,3.9-0.7,5.8-1.1c0.5-0.1,1-0.2,1.5-0.3
			c1.2,3.4,2.7,6.7,4.3,9.9c0.6,1.2,2.4,0.1,1.8-1c-1.5-3.1-2.7-6.2-3.8-9.3c6-1.5,11.7-3.5,17.1-6.3c1,1.7,2.1,3.4,3.2,5
			c0.5,0.7,1.6,0.1,1.2-0.7c-0.9-1.7-1.8-3.5-2.6-5.2c3.1-1.7,6-3.6,8.9-5.9c2.4-1.9,4.6-4,6.5-6.2c2.8,1.7,5.6,3.4,8.5,5
			c1.4,0.8,2.6-1.3,1.2-2.1c-2.7-1.6-5.4-3.2-8.2-4.7c3.8-4.7,6.8-9.9,9-15.5c1.8,0.8,3.6,1.5,5.5,2.2c1.6,0.6,2.3-2,0.7-2.5
			c-1.8-0.6-3.6-1.3-5.4-2c1-2.9,1.8-5.9,2.4-8.9c0.3,0.1,0.5,0.1,0.8,0.2c1.3,0.4,2-1.5,0.9-2.2c-0.4-0.2-0.8-0.4-1.3-0.6
			c0.5-2.9,0.8-5.8,0.9-8.7c3.7-0.4,7.4-1,11-1.6C207.1,229.1,206.9,227.1,205.7,227.2z M187.4,231.7c1.6-0.1,3.3-0.2,4.9-0.4
			c-0.1,2.5-0.4,5-0.8,7.5c-3.2-0.9-6.8-1.2-9.9-2.4c-1.3-0.5-1.8,1.5-0.6,2c3.1,1.3,6.6,2.3,9.9,3.2c-0.6,2.9-1.4,5.8-2.4,8.6
			c-2.3-0.9-4.7-1.9-7-2.9c-1.1-0.5-1.9,1.5-0.8,2c2.3,1.1,4.7,2.1,7,3.1c-0.7,1.8-1.5,3.6-2.4,5.4c-1.8,3.6-4.1,6.8-6.6,9.8
			c-2.3-1.3-4.5-2.6-6.8-3.9c-1-0.6-1.9,0.9-0.9,1.6c2,1.3,4.1,2.7,6.2,4c-4.1,4.4-8.9,8.2-14.1,11.2c-1.2-2.5-2.4-4.9-3.8-7.3
			c-0.5-0.9-2.1-0.3-1.7,0.7c1,2.5,2.3,5.1,3.6,7.6c-2.6,1.4-5.3,2.6-8,3.6c-2.7,1-5.6,1.8-8.4,2.5c-1.1-3.6-2-7.4-2.8-11.2
			c-0.3-1.2-2.4-1-2.2,0.3c0.5,3.9,1.4,7.7,2.6,11.4c-2.1,0.5-4.3,0.8-6.4,1.2c0-1.8-0.1-3.6-0.1-5.3c0-1.4-2.2-1.4-2.2,0
			c0,1.9,0,3.8-0.1,5.7c-0.8,0.1-1.7,0.3-2.5,0.4c-4.3,0.7-8.6,1.1-13,1.1c0.4-1.4,0.9-2.8,1.3-4.2c0.4-1.4-1.7-1.9-2.1-0.6
			c-0.5,1.6-1,3.1-1.4,4.7c-1.7-0.1-3.4-0.2-5.1-0.5c-0.1-0.2-0.2-0.3-0.4-0.3c-0.6,0-1.3-0.1-1.9-0.1c-0.1,0-0.3-0.1-0.4-0.1
			c2-3.3,3.9-6.5,7-9.1c0.9-0.8-0.4-2-1.3-1.3c-3.2,2.6-6,6.1-8.2,9.8c-1.2-0.3-2.3-0.7-3.5-1.2c-0.8-0.3-1.4,0.1-1.6,0.7
			c-1.1-0.3-2.2-0.6-3.2-1c2.6-3.2,5-6.4,6.7-9.9c0.5-0.9-0.8-2.1-1.5-1.2c-2.6,3.2-5.2,6.6-7.7,10.1c-4.8-2.1-9.1-5-12.9-8.6
			c2.3-2,4.6-4.1,6.9-6.1c1.1-1-0.5-2.5-1.6-1.6c-2.3,1.9-4.6,4-6.9,6.1c-3.2-3.4-5.9-7.2-8.2-11.3c2.2-1.8,4.3-3.6,5.9-5.8
			c0.8-1.1-0.8-2.1-1.7-1.3c-1.9,1.6-3.6,3.3-5.4,4.9c-1.9-3.8-3.5-7.8-4.7-11.9c1.7-0.3,3.4-0.5,5.1-0.8c1.3-0.2,1-2.4-0.3-2.3
			c-1.8,0.2-3.6,0.4-5.4,0.8c-0.9-3.5-1.6-7-2-10.5c1.6-0.6,3.3-1.1,4.9-1.7c1.3-0.4,0.8-2.3-0.6-2.1c-1.6,0.3-3.1,0.7-4.6,1.2
			c-0.3-3.2-0.3-6.4-0.1-9.5c1.8-0.6,3.5-1.2,5.3-1.8c1.4-0.4,0.8-2.5-0.6-2.2c-1.5,0.4-3.1,0.9-4.6,1.5c0.1-1,0.2-2,0.3-2.9
			c0.3-2,0.7-4,1.1-6c2.4-0.6,4.8-1.2,7.3-1.6c1.2-0.2,0.9-2.2-0.3-2.1c-2.1,0.1-4.2,0.5-6.3,1.1c0.9-3.4,2.1-6.7,3.4-9.9
			c1.2,0.3,2.4,0.7,3.5,1.3c1.1,0.6,2.5-1,1.4-1.8c-1.1-0.9-2.4-1.5-3.8-1.9c1.2-2.6,2.6-5.2,4.2-7.7c1.6,0.6,3.1,1.2,4.7,1.9
			c1.2,0.6,2.3-1.2,1.1-1.8c-1.5-0.8-3-1.5-4.5-2.1c2.1-3.2,4.4-6.2,7-9.1c0.4,0.6,0.9,1.1,1.4,1.7c1,1.1,2.7-0.6,1.6-1.6
			c-0.5-0.5-1-1.1-1.5-1.7c3-3.1,6.2-6,9.6-8.5c0.8,1.4,1.5,2.9,2.3,4.3c0.7,1.2,2.4,0.2,1.9-1.1c-0.7-1.5-1.4-3-2.2-4.5
			c4.3-2.9,8.8-5.4,13.7-7.2c0,0,0,0,0,0.1c0.6,1.2,2.2,0.3,2-0.8c1.8-0.6,3.7-1.2,5.5-1.6c0.8-0.2,1.6-0.3,2.4-0.5c0,0,0.1,0,0.1,0
			c2.8-0.5,5.5-0.8,8.3-0.9c0.1,0.7,0.3,1.3,0.6,1.9c0.4,0.9,1.9,0.5,1.8-0.5c-0.1-0.5-0.1-1-0.1-1.5c1.6,0,3.2,0.1,4.8,0.3
			c-0.1,0.8-0.1,1.6-0.1,2.5c0,1.4,2.1,1.4,2.2,0c0-0.7,0.1-1.4,0.2-2.2c3.7,0.5,7.4,1.4,10.9,2.6c-0.2,1.1-0.3,2.2-0.5,3.3
			c-0.1,1.2,1.9,1.4,2.1,0.3c0.1-0.9,0.3-1.9,0.5-2.8c3.3,1.3,6.6,2.8,9.7,4.6c-0.3,0.6-0.6,1.2-0.8,1.8c-0.5,1.3,1.7,2.3,2.3,1
			c0.2-0.5,0.4-1,0.6-1.5c2.4,1.5,4.7,3.3,6.9,5.1c0,0,0,0.1-0.1,0.1c-0.5,1.1,0.7,1.8,1.5,1.1c3.3,2.9,6.3,6.2,8.9,9.8
			c0.2,0.2,0.3,0.4,0.4,0.6c-0.9,0.9-1.8,1.8-2.6,2.7c-0.9,1.1,0.6,2.7,1.6,1.6c0.8-0.8,1.6-1.6,2.3-2.4c1.2,1.8,2.3,3.5,3.3,5.4
			c-1,0.7-1.9,1.3-3,1.9c-1.1,0.7-0.1,2.4,1,1.8c1-0.5,1.9-1.1,2.9-1.7c1.1,2.3,2.1,4.6,3,7c-1.4,0.7-2.8,1.3-4.3,1.9
			c-1.3,0.5-0.8,2.5,0.6,2.1c1.5-0.4,3-1,4.4-1.7c1.2,3.6,2.1,7.3,2.7,11.1c-2.9,1.1-5.9,2.1-8.8,3c-1,0.3-0.6,2,0.5,1.6
			c2.9-0.9,5.8-1.8,8.7-2.7c0.6,4.2,0.8,8.4,0.7,12.6c-1.7,0.2-3.3,0.4-5,0.5C186.2,229.9,186.2,231.8,187.4,231.7z"/>
		<path class="st1" d="M138.6,196.3c0.7,1.1,2.3,0.1,1.7-1c-2.5-4.6-4.7-9.3-6.3-14.3c-0.4-1.1-2.1-0.7-1.8,0.5
			C133.7,186.7,135.7,191.8,138.6,196.3z"/>
		<path class="st1" d="M94,217.8c1.4-1.3,2.9-2.5,4.4-3.6c1.5-1.1,3.2-1.7,4.8-2.6c1.1-0.6,0.3-2.2-0.8-1.9
			c-3.8,0.8-7.1,4.2-9.8,6.7C91.6,217.3,93.1,218.6,94,217.8z"/>
		<path class="st1" d="M111.7,224.5c0.9-0.8-0.3-2.2-1.3-1.6c-4.8,2.4-8.5,7.3-11.7,11.4c-0.8,1,0.6,2.5,1.4,1.4
			c1.6-2,3.3-3.9,5.1-5.7C107.2,228,109.5,226.4,111.7,224.5z"/>
		<path class="st1" d="M115.5,238.6c-2.3,1.7-4.5,3.7-6.5,5.7c-0.8,0.8,0.4,2.1,1.3,1.3c2-1.9,4.1-3.5,6.3-5.2
			C117.7,239.7,116.7,237.8,115.5,238.6z"/>
		<path class="st1" d="M160,196.5c-1.7,5.2-4.3,9.7-7.3,14.3c-0.7,1.1,0.9,2.3,1.8,1.4c3.8-4.2,6-9.8,7.5-15.1
			C162.4,195.7,160.4,195.2,160,196.5z"/>
		<path class="st1" d="M104.9,192.8c0.5,3.8,0.7,7.7,1,11.5c0.1,1.4,2.4,1.4,2.2,0c-0.4-3.9-0.8-7.9-1.5-11.8
			C106.5,191.6,104.8,191.8,104.9,192.8z"/>
		<path class="st1" d="M111,177.8c0.6,3.5,1.3,7,2.7,10.3c0.4,1,1.9,0.6,1.6-0.4c-1-3.4-2-6.8-2.8-10.3
			C112.4,176.4,110.9,176.8,111,177.8z"/>
		<path class="st1" d="M86.9,222.2c-3.9-2.9-8.4-5.2-12.6-7.7c-1-0.6-1.9,0.9-0.9,1.6c4,2.8,8.1,5.7,12.3,8.1
			C87.1,224.9,88.1,223,86.9,222.2z"/>
		<path class="st1" d="M86.3,233c-3.3,0.5-6.5,1.3-9.7,2.2c-1.3,0.4-0.7,2.3,0.5,2c3.2-0.8,6.5-1.3,9.7-2
			C88.4,234.9,87.7,232.8,86.3,233z"/>
		<path class="st1" d="M94.1,254c-2.1,1.8-4.2,3.7-6.4,5.4c-1,0.8,0,2.5,1,1.7c2.4-1.8,4.7-3.6,6.9-5.6
			C96.6,254.6,95.1,253.1,94.1,254z"/>
		<path class="st1" d="M134.5,225.1c-0.6-1.8-1.2-3.6-1.5-5.5c-0.2-1.1-1.9-0.6-1.7,0.5c0.3,1.9,0.9,3.7,1.5,5.5
			C133.2,226.6,134.9,226.1,134.5,225.1z"/>
		<path class="st1" d="M87.5,202c-0.6-2.6-0.6-5.3-0.6-8c0-1.1-1.7-1.1-1.7,0c0,2.8,0,5.6,0.6,8.4C86,203.5,87.7,203.1,87.5,202z"/>
		<path class="st1" d="M104.2,181.2c2.1-4.8,4.5-9.4,6.9-14c0.6-1.1-1-2-1.6-0.9c-2.5,4.6-4.9,9.2-7,13.9
			C102,181.3,103.7,182.3,104.2,181.2z"/>
		<path class="st1" d="M124.6,176.7c0.6-3.1,0.9-6.3,1.5-9.4c0.2-1.2-1.6-1.7-1.8-0.5c-0.6,3.1-1,6.3-1.5,9.4
			C122.5,177.4,124.4,177.9,124.6,176.7z"/>
		<path class="st1" d="M118.3,206.8c1.1-3.6,2.1-7.3,3.1-10.9c0.3-1.4-1.8-2-2.1-0.6c-0.9,3.7-2.2,7.2-3,10.9
			C116,207.5,117.9,208.1,118.3,206.8z"/>
		<path class="st1" d="M134.9,204.7c-0.6-1.2-2.4-0.2-1.8,1.1c1.6,3.4,4.4,6.1,7,8.8c1.1,1.1,2.8-0.6,1.7-1.7
			C139.2,210.4,136.5,208,134.9,204.7z"/>
		<path class="st1" d="M156.1,224c0.5,1.4,1,2.8,1.5,4.3c0.5,1.2,2.5,0.7,2-0.5c-0.5-1.4-1-2.8-1.5-4.2
			C157.6,222.3,155.6,222.8,156.1,224z"/>
		<path class="st1" d="M134.2,240.2c-0.7,3.8-1.1,7.7-1.6,11.5c-0.2,1.3,2,1.5,2.2,0.3c0.7-3.7,0.9-7.5,1.5-11.2
			C136.4,239.4,134.4,238.8,134.2,240.2z"/>
		<path class="st1" d="M122.7,246.3c-1.3,5.1-3.3,9.9-5,14.8c-0.5,1.5,1.8,2.1,2.3,0.6c1.9-4.8,3.5-9.8,4.7-14.9
			C125,245.5,123,245,122.7,246.3z"/>
		<path class="st1" d="M106,260.2c-1.3,3.7-2.1,7.6-1.8,11.5c0.1,1.6,2.5,1.6,2.5,0c-0.1-3.8,0.2-7.3,1.2-11
			C108.3,259.5,106.4,259,106,260.2z"/>
		<path class="st1" d="M131.6,265.2c-2.1,3.8-3.9,7.7-5.7,11.6c-0.5,1.1,1.1,2.1,1.7,1c1.8-3.9,3.8-7.7,5.8-11.5
			C134,265,132.2,264,131.6,265.2z"/>
		<path class="st1" d="M151.5,255.7c-0.9,2.6-2.1,5-3.5,7.3c-0.7,1.1,1.1,2.2,1.8,1c1.5-2.5,2.8-5.1,3.8-7.8
			C154,254.9,151.9,254.4,151.5,255.7z"/>
		<path class="st1" d="M146.7,236.9c-0.8-1.1-2.5-0.1-1.8,1c2.6,3.8,6,6.9,9.7,9.6c1.3,0.9,2.4-1.1,1.2-2
			C152.5,243,149.2,240.4,146.7,236.9z"/>
		<path class="st1" d="M166.9,243.7c-1-0.9-2.6,0.6-1.5,1.5c2.4,2.2,4.7,4.6,7.4,6.3c1.1,0.7,2.5-1,1.4-1.9
			C171.9,247.6,169.4,245.7,166.9,243.7z"/>
		<path class="st1" d="M118.5,220.7c0.9,2.3,2,4.6,3.4,6.6c0.7,1.1,2.5,0.1,1.8-1c-1.3-1.9-2.5-3.9-3.3-6.1
			C119.9,219.1,118.1,219.5,118.5,220.7z"/>
		<path class="st1" d="M145.4,227.9c1.4-2.4,4.6-3.5,6.8-4.8c1.4-0.8,0.1-3.1-1.3-2.2c-1.5,1-3.1,1.9-4.6,2.9
			c-1.1,0.8-2.4,1.9-2.6,3.4C143.6,228.1,144.8,228.8,145.4,227.9z"/>
		<path class="st1" d="M170,211.8c2.3-1.5,4.6-3.1,6.7-4.8c1.1-0.9-0.5-2.6-1.6-1.6c-1.9,1.7-4,3.3-6,4.9
			C168.2,210.9,169,212.5,170,211.8z"/>
		<path class="st1" d="M179.9,224.4c-3.2-0.6-6.3-1-9.5-1.6c-1.2-0.2-1.7,1.6-0.5,1.9c3.1,0.7,6.2,1.4,9.3,2.1
			C180.8,227.1,181.4,224.7,179.9,224.4z"/>
		<path class="st1" d="M159.7,185.4c1.9-2.9,4.1-5.5,6.4-8.2c0.9-1.1-0.6-2.7-1.6-1.6c-2.5,2.6-4.6,5.7-6.4,8.8
			C157.4,185.5,159.1,186.4,159.7,185.4z"/>
		<path class="st1" d="M145.7,181.2c1.2-2.7,1.4-6.6,4-8.4c1.1-0.8,0.1-2.6-1.1-1.9c-2.8,1.8-4,6.9-4,10.1
			C144.7,181.5,145.5,181.8,145.7,181.2z"/>
		<path class="st1" d="M161.6,253.8c-1-3.7-2.1-7.3-3.4-10.8c-0.4-1.1-2-0.6-1.7,0.5c1.1,3.6,1.9,7.3,2.7,11
			C159.6,256,162,255.3,161.6,253.8z"/>
		<path class="st1" d="M161.8,265.1c-0.6-1.4-2.8-0.8-2.3,0.6c1.2,3.2,2,6.6,3.4,9.7c0.6,1.3,2.7,0.4,2.3-1
			C164.2,271.3,163.1,268.1,161.8,265.1z"/>
		<path class="st1" d="M92.4,244.6c-4.8-0.1-9.9,1.3-14.5,2.3c-1.2,0.2-0.7,2,0.5,1.8c4.7-0.8,9.7-0.8,14.3-2
			C93.8,246.3,93.6,244.6,92.4,244.6z"/>
		<path class="st1" d="M102.8,249.2c-0.9-1-2.3,0.4-1.4,1.4c1.6,1.9,3.1,3.9,4.6,5.9c0.9,1.3,3,0,2-1.2
			C106.4,253.2,104.6,251.2,102.8,249.2z"/>
		<path class="st1" d="M98.4,195.2c0.6,1.3,2.6,0.1,1.9-1.1c-2.4-4.4-3.7-9.3-5.8-13.8c-0.4-0.8-1.7-0.2-1.4,0.6
			C94.8,185.7,96.2,190.6,98.4,195.2z"/>
		<path class="st1" d="M153.3,199.2c2.8-3.7,5.7-6.8,9.3-9.7c1.1-0.9-0.4-2.8-1.5-2c-3.9,2.8-7,6.7-9.8,10.5
			C150.2,199.2,152.3,200.4,153.3,199.2z"/>
	</g>
</g>
<g>
	<path class="st0" d="M372.7,230c1.7-0.1,3.4-0.3,5-0.5c0.1-4.2-0.1-8.4-0.7-12.6c-2.9,0.9-5.8,1.9-8.7,2.7
		c-1.1,0.3-1.5-1.3-0.5-1.6c3-0.9,5.9-2,8.8-3c-0.6-3.8-1.5-7.5-2.7-11.1c-1.4,0.7-2.9,1.3-4.4,1.7c-1.4,0.4-1.8-1.6-0.6-2.1
		c1.5-0.6,2.9-1.2,4.3-1.9c-0.9-2.4-1.9-4.8-3-7c-0.9,0.6-1.9,1.2-2.9,1.7c-1.2,0.6-2.2-1.1-1-1.8c1-0.6,2-1.3,3-1.9
		c-1-1.9-2.1-3.7-3.3-5.4c-0.8,0.8-1.6,1.6-2.3,2.4c-1,1.1-2.6-0.5-1.6-1.6c0.8-1,1.7-1.8,2.6-2.7c-0.2-0.2-0.3-0.4-0.4-0.6
		c-2.6-3.6-5.6-6.8-8.9-9.8c-0.8,0.7-2,0-1.5-1.1c0,0,0-0.1,0.1-0.1c-2.2-1.9-4.5-3.6-6.9-5.1c-0.2,0.5-0.4,1-0.6,1.5
		c-0.6,1.3-2.8,0.3-2.3-1c0.3-0.6,0.5-1.2,0.8-1.8c-3.1-1.8-6.3-3.3-9.7-4.6c-0.2,0.9-0.3,1.9-0.5,2.8c-0.2,1.2-2.2,0.9-2.1-0.3
		c0.1-1.1,0.3-2.2,0.5-3.3c-3.5-1.2-7.2-2-10.9-2.6c-0.1,0.7-0.1,1.4-0.2,2.2c-0.1,1.4-2.2,1.4-2.2,0c0-0.8,0-1.6,0.1-2.5
		c-1.6-0.2-3.2-0.2-4.8-0.3c0,0.5,0.1,1,0.1,1.5c0.1,1-1.4,1.4-1.8,0.5c-0.3-0.6-0.5-1.3-0.6-1.9c-2.8,0.1-5.5,0.4-8.3,0.9
		c0,0-0.1,0-0.1,0c-0.8,0.2-1.6,0.3-2.4,0.5c-1.9,0.4-3.7,1-5.5,1.6c0.2,1.1-1.4,2-2,0.8c0,0,0,0,0-0.1c-4.8,1.8-9.4,4.3-13.7,7.2
		c0.8,1.5,1.6,3,2.2,4.5c0.5,1.2-1.1,2.3-1.9,1.1c-0.8-1.4-1.5-2.8-2.3-4.3c-3.4,2.5-6.6,5.4-9.6,8.5c0.5,0.6,1,1.1,1.5,1.7
		c1.1,1.1-0.6,2.7-1.6,1.6c-0.5-0.5-0.9-1.1-1.4-1.7c-2.5,2.8-4.9,5.9-7,9.1c1.6,0.6,3.1,1.3,4.5,2.1c1.2,0.7,0.2,2.4-1.1,1.8
		c-1.6-0.7-3.1-1.3-4.7-1.9c-1.5,2.5-2.9,5.1-4.2,7.7c1.4,0.4,2.7,1,3.8,1.9c1.1,0.9-0.3,2.5-1.4,1.8c-1.1-0.6-2.3-1-3.5-1.3
		c-1.4,3.2-2.5,6.6-3.4,9.9c2.1-0.5,4.2-0.9,6.3-1.1c1.2-0.1,1.5,1.9,0.3,2.1c-2.5,0.4-4.9,1-7.3,1.6c-0.5,2-0.9,4-1.1,6
		c-0.1,1-0.2,1.9-0.3,2.9c1.5-0.6,3-1.1,4.6-1.5c1.4-0.4,2,1.8,0.6,2.2c-1.8,0.5-3.6,1.1-5.3,1.8c-0.2,3.1-0.1,6.3,0.1,9.5
		c1.5-0.5,3.1-0.9,4.6-1.2c1.3-0.3,1.9,1.6,0.6,2.1c-1.7,0.5-3.3,1.1-4.9,1.7c0.4,3.5,1.1,7.1,2,10.5c1.8-0.3,3.6-0.6,5.4-0.8
		c1.3-0.1,1.6,2.1,0.3,2.3c-1.7,0.3-3.4,0.5-5.1,0.8c1.2,4.1,2.8,8.1,4.7,11.9c1.8-1.6,3.5-3.4,5.4-4.9c0.9-0.7,2.5,0.3,1.7,1.3
		c-1.6,2.2-3.7,4.1-5.9,5.8c2.3,4.2,5.1,8,8.2,11.3c2.2-2.1,4.5-4.1,6.9-6.1c1.1-0.9,2.7,0.6,1.6,1.6c-2.3,2-4.6,4-6.9,6.1
		c3.8,3.6,8,6.6,12.9,8.6c2.5-3.5,5.1-6.9,7.7-10.1c0.8-0.9,2,0.3,1.5,1.2c-1.7,3.5-4.2,6.8-6.7,9.9c1.1,0.4,2.1,0.7,3.2,1
		c0.2-0.6,0.8-1,1.6-0.7c1.1,0.5,2.3,0.9,3.5,1.2c2.2-3.7,5-7.2,8.2-9.8c0.9-0.7,2.2,0.5,1.3,1.3c-3.1,2.6-5,5.9-7,9.1
		c0.1,0,0.3,0.1,0.4,0.1c0.6,0,1.2,0.1,1.9,0.1c0.2,0,0.4,0.1,0.4,0.3c1.7,0.3,3.4,0.4,5.1,0.5c0.5-1.6,0.9-3.2,1.4-4.7
		c0.5-1.3,2.6-0.8,2.1,0.6c-0.4,1.4-0.9,2.8-1.3,4.2c4.4,0,8.7-0.4,13-1.1c0.8-0.1,1.7-0.3,2.5-0.4c0-1.9,0.1-3.9,0.1-5.7
		c0-1.4,2.2-1.4,2.2,0c0,1.7,0,3.5,0.1,5.3c2.1-0.4,4.3-0.7,6.4-1.2c-1.2-3.7-2.1-7.6-2.6-11.4c-0.2-1.3,2-1.5,2.2-0.3
		c0.8,3.8,1.7,7.5,2.8,11.2c2.9-0.7,5.7-1.4,8.4-2.5c2.8-1,5.4-2.3,8-3.6c-1.4-2.5-2.6-5-3.6-7.6c-0.4-1,1.2-1.6,1.7-0.7
		c1.4,2.3,2.6,4.8,3.8,7.3c5.3-3,10-6.7,14.1-11.2c-2.1-1.3-4.1-2.6-6.2-4c-1-0.7-0.1-2.2,0.9-1.6c2.2,1.3,4.5,2.6,6.8,3.9
		c2.5-3,4.8-6.2,6.6-9.8c0.9-1.7,1.7-3.5,2.4-5.4c-2.3-1-4.7-2.1-7-3.1c-1.1-0.5-0.3-2.4,0.8-2c2.3,1,4.7,1.9,7,2.9
		c1-2.8,1.8-5.7,2.4-8.6c-3.4-0.9-6.8-1.9-9.9-3.2c-1.2-0.5-0.7-2.5,0.6-2c3.1,1.2,6.6,1.5,9.9,2.4c0.4-2.5,0.7-5,0.8-7.5
		c-1.6,0.2-3.3,0.3-4.9,0.4C371.5,232,371.5,230.1,372.7,230z M354.3,210.5c2.1-1.6,4.1-3.1,6-4.9c1.1-1,2.7,0.7,1.6,1.6
		c-2.2,1.7-4.4,3.3-6.7,4.8C354.2,212.7,353.4,211.1,354.3,210.5z M343.3,184.6c1.8-3.1,3.9-6.2,6.4-8.8c1-1.1,2.6,0.5,1.6,1.6
		c-2.2,2.7-4.5,5.2-6.4,8.2C344.3,186.7,342.7,185.7,343.3,184.6z M336.4,198.2c2.9-3.8,5.9-7.7,9.8-10.5c1.2-0.8,2.7,1.1,1.5,2
		c-3.5,2.9-6.5,6.1-9.3,9.7C337.6,200.6,335.5,199.4,336.4,198.2z M339.8,212.3c-0.9,1-2.5-0.3-1.8-1.4c2.9-4.6,5.5-9,7.3-14.3
		c0.4-1.3,2.4-0.7,2,0.6C345.8,202.6,343.6,208.2,339.8,212.3z M342.9,228.5c-0.5-1.4-1-2.8-1.5-4.3c-0.5-1.2,1.5-1.7,2-0.5
		c0.5,1.4,1,2.8,1.5,4.2C345.3,229.2,343.3,229.7,342.9,228.5z M333.9,171.1c1.2-0.8,2.2,1.1,1.1,1.9c-2.6,1.8-2.8,5.8-4,8.4
		c-0.2,0.5-1,0.2-1-0.3C329.8,178.1,331.1,172.9,333.9,171.1z M319.2,181.2c1.6,5,3.8,9.7,6.3,14.3c0.6,1.1-1,2.1-1.7,1
		c-2.9-4.6-4.9-9.6-6.4-14.8C317.1,180.6,318.9,180.1,319.2,181.2z M318.3,219.8c0.3,1.9,0.9,3.7,1.5,5.5c0.4,1.1-1.3,1.5-1.7,0.5
		c-0.6-1.8-1.2-3.6-1.5-5.5C316.4,219.2,318.1,218.7,318.3,219.8z M309.5,167c0.2-1.2,2.1-0.7,1.8,0.5c-0.6,3.1-0.9,6.3-1.5,9.4
		c-0.2,1.2-2.1,0.7-1.9-0.5C308.6,173.2,308.9,170.1,309.5,167z M307.1,227.5c-1.4-2.1-2.5-4.3-3.4-6.6c-0.4-1.1,1.4-1.6,1.8-0.5
		c0.9,2.2,2,4.2,3.3,6.1C309.6,227.6,307.8,228.7,307.1,227.5z M297.9,177.6c0.7,3.5,1.7,6.9,2.8,10.3c0.3,1.1-1.2,1.4-1.6,0.4
		c-1.4-3.3-2.1-6.8-2.7-10.3C296.1,177,297.7,176.6,297.9,177.6z M287.7,180.4c2.1-4.8,4.6-9.4,7-13.9c0.6-1.1,2.2-0.1,1.6,0.9
		c-2.4,4.6-4.8,9.2-6.9,14C288.9,182.6,287.2,181.5,287.7,180.4z M293.3,204.6c0.1,1.4-2.1,1.4-2.2,0c-0.2-3.9-0.5-7.7-1-11.5
		c-0.1-1,1.6-1.2,1.7-0.2C292.5,196.7,292.9,200.6,293.3,204.6z M279.8,180.5c2.1,4.5,3.4,9.4,5.8,13.8c0.7,1.3-1.3,2.4-1.9,1.1
		c-2.3-4.6-3.7-9.5-5.3-14.3C278.2,180.3,279.5,179.7,279.8,180.5z M277.9,216.6c2.8-2.5,6-5.8,9.8-6.7c1.1-0.3,1.9,1.4,0.8,1.9
		c-1.6,0.8-3.3,1.5-4.8,2.6c-1.6,1.1-3,2.3-4.4,3.6C278.3,218.9,276.9,217.5,277.9,216.6z M272.1,194.2c0,2.7,0.1,5.3,0.6,8
		c0.2,1.1-1.5,1.6-1.7,0.5c-0.6-2.8-0.6-5.6-0.6-8.4C270.4,193.1,272.1,193.1,272.1,194.2z M259.6,214.7c4.2,2.5,8.6,4.8,12.6,7.7
		c1.2,0.9,0.2,2.7-1.2,2c-4.3-2.4-8.3-5.3-12.3-8.1C257.7,215.6,258.6,214.1,259.6,214.7z M262.4,237.4c-1.3,0.3-1.8-1.6-0.5-2
		c3.2-0.9,6.4-1.8,9.7-2.2c1.4-0.2,2.1,1.9,0.6,2.2C269,236.1,265.7,236.6,262.4,237.4z M263.6,248.9c-1.2,0.2-1.7-1.5-0.5-1.8
		c4.6-0.9,9.8-2.3,14.5-2.3c1.2,0,1.4,1.7,0.3,2C273.4,248.1,268.3,248.1,263.6,248.9z M280.8,255.7c-2.2,1.9-4.6,3.8-6.9,5.6
		c-1,0.8-2-0.9-1-1.7c2.2-1.7,4.3-3.5,6.4-5.4C280.4,253.4,281.8,254.8,280.8,255.7z M283.9,234.5c3.2-4.1,7-9,11.7-11.4
		c1-0.5,2.2,0.8,1.3,1.6c-2.1,1.9-4.4,3.5-6.4,5.5c-1.8,1.8-3.5,3.7-5.1,5.7C284.5,237,283.1,235.5,283.9,234.5z M293.2,261
		c-1.1,3.7-1.4,7.2-1.2,11c0.1,1.6-2.3,1.6-2.5,0c-0.3-3.9,0.5-7.8,1.8-11.5C291.7,259.2,293.6,259.7,293.2,261z M291.2,256.8
		c-1.4-2.1-3-4-4.6-5.9c-0.8-1,0.6-2.4,1.4-1.4c1.8,2,3.5,4,5.2,6.2C294.2,256.8,292.1,258,291.2,256.8z M301.9,240.7
		c-2.2,1.6-4.3,3.3-6.3,5.2c-0.9,0.8-2.1-0.4-1.3-1.3c2-2.1,4.2-4,6.5-5.7C301.9,238,303,239.9,301.9,240.7z M301.5,206.4
		c0.8-3.7,2.1-7.3,3-10.9c0.4-1.4,2.5-0.8,2.1,0.6c-0.9,3.7-2,7.3-3.1,10.9C303.2,208.3,301.2,207.8,301.5,206.4z M309.9,247
		c-1.2,5.1-2.8,10.1-4.7,14.9c-0.6,1.4-2.9,0.8-2.3-0.6c1.8-4.9,3.7-9.7,5-14.8C308.3,245.2,310.2,245.7,309.9,247z M318.6,266.4
		c-2,3.8-4,7.6-5.8,11.5c-0.5,1.1-2.2,0.1-1.7-1c1.8-3.9,3.7-7.8,5.7-11.6C317.5,264.2,319.2,265.2,318.6,266.4z M320,252.2
		c-0.2,1.2-2.4,1-2.2-0.3c0.5-3.8,1-7.7,1.6-11.5c0.2-1.4,2.2-0.8,2,0.6C320.9,244.7,320.8,248.5,320,252.2z M325.4,214.8
		c-2.6-2.7-5.4-5.4-7-8.8c-0.6-1.2,1.2-2.3,1.8-1.1c1.6,3.3,4.3,5.7,6.9,8.2C328.2,214.2,326.5,215.9,325.4,214.8z M329,227.4
		c0.2-1.5,1.5-2.5,2.6-3.4c1.5-1.1,3.1-2,4.6-2.9c1.4-0.9,2.7,1.4,1.3,2.2c-2.3,1.3-5.4,2.4-6.8,4.8
		C330.1,229,328.9,228.4,329,227.4z M338.8,256.5c-1,2.8-2.2,5.4-3.8,7.8c-0.7,1.1-2.5,0.1-1.8-1c1.4-2.3,2.6-4.8,3.5-7.3
		C337.2,254.6,339.2,255.2,338.8,256.5z M339.9,247.8c-3.7-2.7-7.1-5.8-9.7-9.6c-0.7-1.1,1-2.1,1.8-1c2.5,3.5,5.7,6.1,9.1,8.6
		C342.3,246.6,341.2,248.7,339.9,247.8z M344.5,254.7c-0.8-3.7-1.7-7.4-2.7-11c-0.3-1.1,1.3-1.5,1.7-0.5c1.3,3.6,2.4,7.2,3.4,10.8
		C347.3,255.6,344.8,256.2,344.5,254.7z M348.2,275.6c-1.4-3.1-2.2-6.5-3.4-9.7c-0.5-1.4,1.7-2,2.3-0.6c1.3,3.1,2.4,6.2,3.4,9.4
		C351,276,348.8,276.9,348.2,275.6z M358.1,251.7c-2.7-1.8-5.1-4.2-7.4-6.3c-1-0.9,0.5-2.4,1.5-1.5c2.4,2,5,3.9,7.4,6
		C360.6,250.8,359.2,252.5,358.1,251.7z M364.5,227c-3.1-0.7-6.2-1.4-9.3-2.1c-1.2-0.3-0.7-2.1,0.5-1.9c3.2,0.5,6.3,1,9.5,1.6
		C366.7,224.9,366,227.3,364.5,227z"/>
	<g>
		<path class="st1" d="M390.9,227.5c-3.6,0.4-7.1,1.1-10.6,1.6c0.1-4.1-0.2-8.2-0.7-12.3c0-0.2-0.1-0.4-0.1-0.7
			c2.1-0.7,4.2-1.4,6.2-2c1.4-0.4,0.8-2.6-0.6-2.2c-2,0.7-4,1.4-6,2.1c-0.7-3.9-1.6-7.7-2.8-11.5c3.5-2,6.7-4.5,9.9-6.7
			c1-0.7,0.1-2.3-0.9-1.6c-3.2,2.1-6.4,4.2-9.7,6c-0.9-2.5-2-5-3.1-7.3c3.2-2.4,6.1-5.2,9.4-7.3c0.8-0.5,0.1-1.7-0.7-1.2
			c-3.4,1.9-6.5,4.4-9.7,6.7c-1.1-2-2.2-4-3.5-5.8c3.5-3.4,7-6.7,9.9-10.4c0.8-1-0.6-2.4-1.4-1.4c-3,3.6-6.5,6.7-9.9,9.9
			c-0.6-0.8-1.2-1.6-1.8-2.4c1.9-1.6,3.4-3.6,4.9-5.6c0.8-1.1-1.1-2.3-1.9-1.1c-1.3,1.8-2.5,3.7-4.1,5.2c-2-2.4-4.2-4.7-6.6-6.9
			c1.5-2.3,2.7-4.7,4-7c0.6-1.1-1-2-1.7-1c-1.3,2.1-2.8,4.3-4.1,6.5c-2.2-1.9-4.6-3.6-7.1-5.2c1.3-3.1,2.7-6.2,4-9.3
			c0.5-1.2-1.5-2-2.1-0.9c-1.3,3-2.7,5.9-4,8.9c-0.6-0.4-1.2-0.7-1.9-1.1c-2.8-1.5-5.6-2.7-8.5-3.7c0.5-3.2,1-6.3,1.3-9.6
			c0.1-0.8-1.3-1-1.5-0.2c-0.5,3-1.2,6-1.8,9.1c-3.6-1.1-7.4-1.9-11.1-2.4c0.3-2.1,0.6-4.1,0.9-6.2c0.2-1.3-1.8-1.9-2-0.6
			c-0.4,2.2-0.9,4.4-1.2,6.6c-1.8-0.1-3.5-0.2-5.3-0.2c-0.1-2-0.2-4-0.2-6.1c0-1.4-2.1-1.4-2.1,0c0,2-0.2,4.1-0.1,6.2
			c-2.3,0.1-4.5,0.3-6.8,0.7c0.7-2.7,1.7-5.3,2.5-8c0.5-1.5-2-2.2-2.4-0.7c-0.8,3-1.7,6-2.3,9.1c-2.7,0.5-5.4,1.2-8,2.1
			c-1.9-4.8-2.8-9.9-3.7-15c-0.2-1.2-2.1-0.7-1.9,0.5c0.8,5.1,1.5,10.4,3.5,15.2c-3.1,1.1-6.1,2.5-8.9,4c-1.7,0.9-3.4,2-5,3.1
			c-1.3-2.4-2.7-4.8-3.8-7.3c-0.5-1.2-2.2-0.1-1.7,1c1.1,2.6,2.3,5.2,3.6,7.7c-3.6,2.6-7,5.6-10,8.8c-2.3-3-4.3-6.3-6.3-9.5
			c-0.6-0.9-2-0.1-1.4,0.8c2.1,3.4,4,7,6.3,10.3c-2.8,3.2-5.4,6.7-7.7,10.3c-4-1.3-8.2-2.2-12.3-3.3c-1-0.3-1.4,1.3-0.4,1.6
			c3.9,1.2,7.7,2.4,11.5,3.7c-1.5,2.6-3,5.3-4.2,8.1c-4.7-0.4-10,1-14,1.5c-1.2,0.2-0.9,2.2,0.3,2.1c4-0.5,8.5-1.4,12.7-1
			c-1.5,3.6-2.7,7.2-3.6,11c-3.8,1.2-7.6,2.7-11.2,4.1c-1.2,0.5-0.7,2.4,0.5,1.9c3.4-1.3,6.7-2.4,10-3.4c-0.7,3.1-1.1,6.2-1.4,9.3
			c-3.4,1.4-6.7,3.1-9.9,4.8c-1,0.6-0.1,2.1,0.9,1.6c2.9-1.5,5.8-2.8,8.8-4c-0.2,3-0.2,6-0.1,9c0,0.2,0,0.3,0,0.5
			c-4,1.6-7.9,3.7-11.6,5.6c-1.1,0.6-0.1,2.3,1,1.7c3.6-1.9,7.2-3.4,10.8-4.8c0.4,3.4,1,6.7,1.9,10.1c-2.7,0.6-5.4,1.5-8,2.6
			c-1.2,0.5-0.7,2.4,0.5,2c2.7-1,5.4-1.7,8.2-2.2c1.4,4.5,3.2,8.9,5.5,13c-1.9,1.6-3.9,3.2-5.9,4.8c-0.9,0.7,0.3,2.2,1.2,1.5
			c1.9-1.4,3.9-2.9,5.9-4.4c2.5,4.1,5.4,7.9,8.7,11.2c-2.6,2.5-5.2,5.2-7.6,7.9c-0.6,0.7,0.3,1.6,1,1c2.7-2.4,5.5-4.9,8.2-7.4
			c4,3.7,8.4,6.6,13.3,8.7c-1.6,2.4-3.2,4.7-4.6,7.1c-0.6,1,0.9,1.9,1.6,0.9c1.6-2.4,3.5-4.7,5.4-7.1c1.4,0.5,2.8,0.9,4.3,1.2
			c0.2,0.3,0.4,0.5,0.7,0.7c0.9,0.4,1.8,0.7,2.8,1c0,0,0,0.1-0.1,0.1c-0.7,1.3,1.1,2.3,1.9,1.1c0.1-0.2,0.3-0.4,0.4-0.6
			c2.8,0.7,5.7,1.1,8.6,1.3c-0.5,2-1.1,4.1-1.5,6.1c-0.3,1.2,1.6,1.8,1.9,0.5c0.6-2.2,1.2-4.4,1.9-6.6c5.4,0.1,11-0.6,16.4-1.5
			c0,3.1,0.2,6.2,0.8,9.1c0.1,0.4,0.6,0.4,0.7,0c0.6-3,0.8-6.3,0.8-9.5c2-0.4,3.9-0.7,5.8-1.1c0.5-0.1,1-0.2,1.5-0.3
			c1.2,3.4,2.7,6.7,4.3,9.9c0.6,1.2,2.4,0.1,1.8-1c-1.5-3.1-2.7-6.2-3.8-9.3c6-1.5,11.7-3.5,17.1-6.3c1,1.7,2.1,3.4,3.2,5
			c0.5,0.7,1.6,0.1,1.2-0.7c-0.9-1.7-1.8-3.5-2.6-5.2c3.1-1.7,6-3.6,8.9-5.9c2.4-1.9,4.6-4,6.5-6.2c2.8,1.7,5.6,3.4,8.5,5
			c1.4,0.8,2.6-1.3,1.2-2.1c-2.7-1.6-5.4-3.2-8.2-4.7c3.8-4.7,6.8-9.9,9-15.5c1.8,0.8,3.6,1.5,5.5,2.2c1.6,0.6,2.3-2,0.7-2.5
			c-1.8-0.6-3.6-1.3-5.4-2c1-2.9,1.8-5.9,2.4-8.9c0.3,0.1,0.5,0.1,0.8,0.2c1.3,0.4,2-1.5,0.9-2.2c-0.4-0.2-0.8-0.4-1.3-0.6
			c0.5-2.9,0.8-5.8,0.9-8.7c3.7-0.4,7.4-1,11-1.6C392.4,229.4,392.1,227.3,390.9,227.5z M372.7,231.9c1.6-0.1,3.3-0.2,4.9-0.4
			c-0.1,2.5-0.4,5-0.8,7.5c-3.2-0.9-6.8-1.2-9.9-2.4c-1.3-0.5-1.8,1.5-0.6,2c3.1,1.3,6.6,2.3,9.9,3.2c-0.6,2.9-1.4,5.8-2.4,8.6
			c-2.3-0.9-4.7-1.9-7-2.9c-1.1-0.5-1.9,1.5-0.8,2c2.3,1.1,4.7,2.1,7,3.1c-0.7,1.8-1.5,3.6-2.4,5.4c-1.8,3.6-4.1,6.8-6.6,9.8
			c-2.3-1.3-4.5-2.6-6.8-3.9c-1-0.6-1.9,0.9-0.9,1.6c2,1.3,4.1,2.7,6.2,4c-4.1,4.4-8.9,8.2-14.1,11.2c-1.2-2.5-2.4-4.9-3.8-7.3
			c-0.5-0.9-2.1-0.3-1.7,0.7c1,2.5,2.3,5.1,3.6,7.6c-2.6,1.4-5.3,2.6-8,3.6c-2.7,1-5.6,1.8-8.4,2.5c-1.1-3.6-2-7.4-2.8-11.2
			c-0.3-1.2-2.4-1-2.2,0.3c0.5,3.9,1.4,7.7,2.6,11.4c-2.1,0.5-4.3,0.8-6.4,1.2c0-1.8-0.1-3.6-0.1-5.3c0-1.4-2.2-1.4-2.2,0
			c0,1.9,0,3.8-0.1,5.7c-0.8,0.1-1.7,0.3-2.5,0.4c-4.3,0.7-8.6,1.1-13,1.1c0.4-1.4,0.9-2.8,1.3-4.2c0.4-1.4-1.7-1.9-2.1-0.6
			c-0.5,1.6-1,3.1-1.4,4.7c-1.7-0.1-3.4-0.2-5.1-0.5c-0.1-0.2-0.2-0.3-0.4-0.3c-0.6,0-1.3-0.1-1.9-0.1c-0.1,0-0.3-0.1-0.4-0.1
			c2-3.3,3.9-6.5,7-9.1c0.9-0.8-0.4-2-1.3-1.3c-3.2,2.6-6,6.1-8.2,9.8c-1.2-0.3-2.3-0.7-3.5-1.2c-0.8-0.3-1.4,0.1-1.6,0.7
			c-1.1-0.3-2.2-0.6-3.2-1c2.6-3.2,5-6.4,6.7-9.9c0.5-0.9-0.8-2.1-1.5-1.2c-2.6,3.2-5.2,6.6-7.7,10.1c-4.8-2.1-9.1-5-12.9-8.6
			c2.3-2,4.6-4.1,6.9-6.1c1.1-1-0.5-2.5-1.6-1.6c-2.3,1.9-4.6,4-6.9,6.1c-3.2-3.4-5.9-7.2-8.2-11.3c2.2-1.8,4.3-3.6,5.9-5.8
			c0.8-1.1-0.8-2.1-1.7-1.3c-1.9,1.6-3.6,3.3-5.4,4.9c-1.9-3.8-3.5-7.8-4.7-11.9c1.7-0.3,3.4-0.5,5.1-0.8c1.3-0.2,1-2.4-0.3-2.3
			c-1.8,0.2-3.6,0.4-5.4,0.8c-0.9-3.5-1.6-7-2-10.5c1.6-0.6,3.3-1.1,4.9-1.7c1.3-0.4,0.8-2.3-0.6-2.1c-1.6,0.3-3.1,0.7-4.6,1.2
			c-0.3-3.2-0.3-6.4-0.1-9.5c1.8-0.6,3.5-1.2,5.3-1.8c1.4-0.4,0.8-2.5-0.6-2.2c-1.5,0.4-3.1,0.9-4.6,1.5c0.1-1,0.2-2,0.3-2.9
			c0.3-2,0.7-4,1.1-6c2.4-0.6,4.8-1.2,7.3-1.6c1.2-0.2,0.9-2.2-0.3-2.1c-2.1,0.1-4.2,0.5-6.3,1.1c0.9-3.4,2.1-6.7,3.4-9.9
			c1.2,0.3,2.4,0.7,3.5,1.3c1.1,0.6,2.5-1,1.4-1.8c-1.1-0.9-2.4-1.5-3.8-1.9c1.2-2.6,2.6-5.2,4.2-7.7c1.6,0.6,3.1,1.2,4.7,1.9
			c1.2,0.6,2.3-1.2,1.1-1.8c-1.5-0.8-3-1.5-4.5-2.1c2.1-3.2,4.4-6.2,7-9.1c0.4,0.6,0.9,1.1,1.4,1.7c1,1.1,2.7-0.6,1.6-1.6
			c-0.5-0.5-1-1.1-1.5-1.7c3-3.1,6.2-6,9.6-8.5c0.8,1.4,1.5,2.9,2.3,4.3c0.7,1.2,2.4,0.2,1.9-1.1c-0.7-1.5-1.4-3-2.2-4.5
			c4.3-2.9,8.8-5.4,13.7-7.2c0,0,0,0,0,0.1c0.6,1.2,2.2,0.3,2-0.8c1.8-0.6,3.7-1.2,5.5-1.6c0.8-0.2,1.6-0.3,2.4-0.5c0,0,0.1,0,0.1,0
			c2.8-0.5,5.5-0.8,8.3-0.9c0.1,0.7,0.3,1.3,0.6,1.9c0.4,0.9,1.9,0.5,1.8-0.5c-0.1-0.5-0.1-1-0.1-1.5c1.6,0,3.2,0.1,4.8,0.3
			c-0.1,0.8-0.1,1.6-0.1,2.5c0,1.4,2.1,1.4,2.2,0c0-0.7,0.1-1.4,0.2-2.2c3.7,0.5,7.4,1.4,10.9,2.6c-0.2,1.1-0.3,2.2-0.5,3.3
			c-0.1,1.2,1.9,1.4,2.1,0.3c0.1-0.9,0.3-1.9,0.5-2.8c3.3,1.3,6.6,2.8,9.7,4.6c-0.3,0.6-0.6,1.2-0.8,1.8c-0.5,1.3,1.7,2.3,2.3,1
			c0.2-0.5,0.4-1,0.6-1.5c2.4,1.5,4.7,3.3,6.9,5.1c0,0,0,0.1-0.1,0.1c-0.5,1.1,0.7,1.8,1.5,1.1c3.3,2.9,6.3,6.2,8.9,9.8
			c0.2,0.2,0.3,0.4,0.4,0.6c-0.9,0.9-1.8,1.8-2.6,2.7c-0.9,1.1,0.6,2.7,1.6,1.6c0.8-0.8,1.6-1.6,2.3-2.4c1.2,1.8,2.3,3.5,3.3,5.4
			c-1,0.7-1.9,1.3-3,1.9c-1.1,0.7-0.1,2.4,1,1.8c1-0.5,1.9-1.1,2.9-1.7c1.1,2.3,2.1,4.6,3,7c-1.4,0.7-2.8,1.3-4.3,1.9
			c-1.3,0.5-0.8,2.5,0.6,2.1c1.5-0.4,3-1,4.4-1.7c1.2,3.6,2.1,7.3,2.7,11.1c-2.9,1.1-5.9,2.1-8.8,3c-1,0.3-0.6,2,0.5,1.6
			c2.9-0.9,5.8-1.8,8.7-2.7c0.6,4.2,0.8,8.4,0.7,12.6c-1.7,0.2-3.3,0.4-5,0.5C371.5,230.1,371.5,232,372.7,231.9z"/>
		<path class="st1" d="M323.9,196.6c0.7,1.1,2.3,0.1,1.7-1c-2.5-4.6-4.7-9.3-6.3-14.3c-0.4-1.1-2.1-0.7-1.8,0.5
			C318.9,186.9,320.9,192,323.9,196.6z"/>
		<path class="st1" d="M279.3,218c1.4-1.3,2.9-2.5,4.4-3.6c1.5-1.1,3.2-1.7,4.8-2.6c1.1-0.6,0.3-2.2-0.8-1.9
			c-3.8,0.8-7.1,4.2-9.8,6.7C276.9,217.5,278.3,218.9,279.3,218z"/>
		<path class="st1" d="M296.9,224.7c0.9-0.8-0.3-2.2-1.3-1.6c-4.8,2.4-8.5,7.3-11.7,11.4c-0.8,1,0.6,2.5,1.4,1.4
			c1.6-2,3.3-3.9,5.1-5.7C292.5,228.2,294.8,226.6,296.9,224.7z"/>
		<path class="st1" d="M300.8,238.9c-2.3,1.7-4.5,3.7-6.5,5.7c-0.8,0.8,0.4,2.1,1.3,1.3c2-1.9,4.1-3.5,6.3-5.2
			C303,239.9,301.9,238,300.8,238.9z"/>
		<path class="st1" d="M345.3,196.7c-1.7,5.2-4.3,9.7-7.3,14.3c-0.7,1.1,0.9,2.3,1.8,1.4c3.8-4.2,6-9.8,7.5-15.1
			C347.6,195.9,345.7,195.4,345.3,196.7z"/>
		<path class="st1" d="M290.1,193c0.5,3.8,0.7,7.7,1,11.5c0.1,1.4,2.4,1.4,2.2,0c-0.4-3.9-0.8-7.9-1.5-11.8
			C291.7,191.8,290,192,290.1,193z"/>
		<path class="st1" d="M296.3,178.1c0.6,3.5,1.3,7,2.7,10.3c0.4,1,1.9,0.6,1.6-0.4c-1-3.4-2-6.8-2.8-10.3
			C297.7,176.6,296.1,177,296.3,178.1z"/>
		<path class="st1" d="M272.2,222.4c-3.9-2.9-8.4-5.2-12.6-7.7c-1-0.6-1.9,0.9-0.9,1.6c4,2.8,8.1,5.7,12.3,8.1
			C272.3,225.1,273.3,223.3,272.2,222.4z"/>
		<path class="st1" d="M271.6,233.2c-3.3,0.5-6.5,1.3-9.7,2.2c-1.3,0.4-0.7,2.3,0.5,2c3.2-0.8,6.5-1.3,9.7-2
			C273.7,235.1,273,233,271.6,233.2z"/>
		<path class="st1" d="M279.3,254.2c-2.1,1.8-4.2,3.7-6.4,5.4c-1,0.8,0,2.5,1,1.7c2.4-1.8,4.7-3.6,6.9-5.6
			C281.8,254.8,280.4,253.4,279.3,254.2z"/>
		<path class="st1" d="M319.8,225.3c-0.6-1.8-1.2-3.6-1.5-5.5c-0.2-1.1-1.9-0.6-1.7,0.5c0.3,1.9,0.9,3.7,1.5,5.5
			C318.5,226.8,320.1,226.3,319.8,225.3z"/>
		<path class="st1" d="M272.7,202.2c-0.6-2.6-0.6-5.3-0.6-8c0-1.1-1.7-1.1-1.7,0c0,2.8,0,5.6,0.6,8.4
			C271.3,203.8,273,203.3,272.7,202.2z"/>
		<path class="st1" d="M289.4,181.4c2.1-4.8,4.5-9.4,6.9-14c0.6-1.1-1-2-1.6-0.9c-2.5,4.6-4.9,9.2-7,13.9
			C287.2,181.5,288.9,182.6,289.4,181.4z"/>
		<path class="st1" d="M309.9,176.9c0.6-3.1,0.9-6.3,1.5-9.4c0.2-1.2-1.6-1.7-1.8-0.5c-0.6,3.1-1,6.3-1.5,9.4
			C307.8,177.6,309.6,178.1,309.9,176.9z"/>
		<path class="st1" d="M303.6,207c1.1-3.6,2.1-7.3,3.1-10.9c0.3-1.4-1.8-2-2.1-0.6c-0.9,3.7-2.2,7.2-3,10.9
			C301.2,207.8,303.2,208.3,303.6,207z"/>
		<path class="st1" d="M320.2,204.9c-0.6-1.2-2.4-0.2-1.8,1.1c1.6,3.4,4.4,6.1,7,8.8c1.1,1.1,2.8-0.6,1.7-1.7
			C324.5,210.6,321.8,208.2,320.2,204.9z"/>
		<path class="st1" d="M341.3,224.3c0.5,1.4,1,2.8,1.5,4.3c0.5,1.2,2.5,0.7,2-0.5c-0.5-1.4-1-2.8-1.5-4.2
			C342.8,222.5,340.9,223,341.3,224.3z"/>
		<path class="st1" d="M319.4,240.4c-0.7,3.8-1.1,7.7-1.6,11.5c-0.2,1.3,2,1.5,2.2,0.3c0.7-3.7,0.9-7.5,1.5-11.2
			C321.7,239.6,319.7,239,319.4,240.4z"/>
		<path class="st1" d="M307.9,246.5c-1.3,5.1-3.3,9.9-5,14.8c-0.5,1.5,1.8,2.1,2.3,0.6c1.9-4.8,3.5-9.8,4.7-14.9
			C310.2,245.7,308.3,245.2,307.9,246.5z"/>
		<path class="st1" d="M291.3,260.5c-1.3,3.7-2.1,7.6-1.8,11.5c0.1,1.6,2.5,1.6,2.5,0c-0.1-3.8,0.2-7.3,1.2-11
			C293.6,259.7,291.7,259.2,291.3,260.5z"/>
		<path class="st1" d="M316.9,265.4c-2.1,3.8-3.9,7.7-5.7,11.6c-0.5,1.1,1.1,2.1,1.7,1c1.8-3.9,3.8-7.7,5.8-11.5
			C319.2,265.2,317.5,264.2,316.9,265.4z"/>
		<path class="st1" d="M336.8,255.9c-0.9,2.6-2.1,5-3.5,7.3c-0.7,1.1,1.1,2.2,1.8,1c1.5-2.5,2.8-5.1,3.8-7.8
			C339.2,255.2,337.2,254.6,336.8,255.9z"/>
		<path class="st1" d="M332,237.1c-0.8-1.1-2.5-0.1-1.8,1c2.6,3.8,6,6.9,9.7,9.6c1.3,0.9,2.4-1.1,1.2-2
			C337.7,243.2,334.4,240.6,332,237.1z"/>
		<path class="st1" d="M352.2,243.9c-1-0.9-2.6,0.6-1.5,1.5c2.4,2.2,4.7,4.6,7.4,6.3c1.1,0.7,2.5-1,1.4-1.9
			C357.2,247.8,354.6,245.9,352.2,243.9z"/>
		<path class="st1" d="M303.8,220.9c0.9,2.3,2,4.6,3.4,6.6c0.7,1.1,2.5,0.1,1.8-1c-1.3-1.9-2.5-3.9-3.3-6.1
			C305.1,219.3,303.4,219.8,303.8,220.9z"/>
		<path class="st1" d="M330.7,228.1c1.4-2.4,4.6-3.5,6.8-4.8c1.4-0.8,0.1-3.1-1.3-2.2c-1.5,1-3.1,1.9-4.6,2.9
			c-1.1,0.8-2.4,1.9-2.6,3.4C328.9,228.4,330.1,229,330.7,228.1z"/>
		<path class="st1" d="M355.2,212c2.3-1.5,4.6-3.1,6.7-4.8c1.1-0.9-0.5-2.6-1.6-1.6c-1.9,1.7-4,3.3-6,4.9
			C353.4,211.1,354.2,212.7,355.2,212z"/>
		<path class="st1" d="M365.1,224.6c-3.2-0.6-6.3-1-9.5-1.6c-1.2-0.2-1.7,1.6-0.5,1.9c3.1,0.7,6.2,1.4,9.3,2.1
			C366,227.3,366.7,224.9,365.1,224.6z"/>
		<path class="st1" d="M345,185.6c1.9-2.9,4.1-5.5,6.4-8.2c0.9-1.1-0.6-2.7-1.6-1.6c-2.5,2.6-4.6,5.7-6.4,8.8
			C342.7,185.7,344.3,186.7,345,185.6z"/>
		<path class="st1" d="M331,181.5c1.2-2.7,1.4-6.6,4-8.4c1.1-0.8,0.1-2.6-1.1-1.9c-2.8,1.8-4,6.9-4,10.1
			C329.9,181.7,330.7,182,331,181.5z"/>
		<path class="st1" d="M346.8,254c-1-3.7-2.1-7.3-3.4-10.8c-0.4-1.1-2-0.6-1.7,0.5c1.1,3.6,1.9,7.3,2.7,11
			C344.8,256.2,347.3,255.6,346.8,254z"/>
		<path class="st1" d="M347.1,265.3c-0.6-1.4-2.8-0.8-2.3,0.6c1.2,3.2,2,6.6,3.4,9.7c0.6,1.3,2.7,0.4,2.3-1
			C349.5,271.5,348.3,268.3,347.1,265.3z"/>
		<path class="st1" d="M277.7,244.8c-4.8-0.1-9.9,1.3-14.5,2.3c-1.2,0.2-0.7,2,0.5,1.8c4.7-0.8,9.7-0.8,14.3-2
			C279.1,246.5,278.8,244.8,277.7,244.8z"/>
		<path class="st1" d="M288.1,249.4c-0.9-1-2.3,0.4-1.4,1.4c1.6,1.9,3.1,3.9,4.6,5.9c0.9,1.3,3,0,2-1.2
			C291.6,253.4,289.9,251.4,288.1,249.4z"/>
		<path class="st1" d="M283.7,195.4c0.6,1.3,2.6,0.1,1.9-1.1c-2.4-4.4-3.7-9.3-5.8-13.8c-0.4-0.8-1.7-0.2-1.4,0.6
			C280,185.9,281.4,190.8,283.7,195.4z"/>
		<path class="st1" d="M338.5,199.4c2.8-3.7,5.7-6.8,9.3-9.7c1.1-0.9-0.4-2.8-1.5-2c-3.9,2.8-7,6.7-9.8,10.5
			C335.5,199.4,337.6,200.6,338.5,199.4z"/>
	</g>
</g>
</svg>
