<?xml version="1.0" encoding="utf-8"?>
<!-- Generator: Adobe Illustrator 22.0.1, SVG Export Plug-In . SVG Version: 6.00 Build 0)  -->
<svg version="1.1" xmlns="http://www.w3.org/2000/svg" xmlns:xlink="http://www.w3.org/1999/xlink" x="0px" y="0px"
	 viewBox="0 0 51.1 49.6" style="enable-background:new 0 0 51.1 49.6;" xml:space="preserve">
<style type="text/css">
	.st0{display:none;}
	.st1{fill:#FFE5C2;}
	.st2{fill:#FFFFFF;}
	.st3{fill:#333333;}
	.st4{fill:#616161;}
	.st5{fill:#4D4D4D;}
	.st6{fill:#373737;}
	.st7{fill:#575757;}
	.st8{fill:#EF8F8F;}
	.st9{fill:#ABABAB;}
	.st10{fill:#9A9A9A;}
	.st11{fill:#4B4B4B;}
	.st12{fill:#515151;}
	.st13{fill:#989898;}
	.st14{fill:#585858;}
	.st15{fill:#797979;}
	.st16{fill:#6E6E6E;}
	.st17{fill:#8E8E8E;}
	.st18{fill:#BABABA;}
	.st19{fill:#7F7F7F;}
	.st20{fill:#949494;}
	.st21{fill:#AEAEAE;}
	.st22{fill:#C5C5C5;}
	.st23{fill:#7C7C7C;}
	.st24{fill:#919191;}
	.st25{fill:#A2A2A2;}
	.st26{fill:#A7A7A7;}
	.st27{fill:#8C8C8C;}
	.st28{fill:#8D8D8D;}
	.st29{fill:#6C6C6C;}
	.st30{fill:#5F5F5F;}
	.st31{fill:#9B9B9B;}
	.st32{fill:#D1D1D1;}
	.st33{fill:#A9A9A9;}
	.st34{fill:#848484;}
	.st35{fill:#5E5E5E;}
	.st36{fill:#7B7B7B;}
	.st37{fill:#262626;}
	.st38{fill:#5D5D5D;}
	.st39{fill:#FBFBFB;}
	.st40{fill:#696969;}
	.st41{fill:#6B6B6B;}
	.st42{fill:#0F0F0F;}
	.st43{fill:#5B5B5B;}
	.st44{fill:#353535;}
	.st45{fill:#272727;}
	.st46{fill:#383838;}
	.st47{fill:#A0A0A0;}
	.st48{fill:#CFCFCF;}
	.st49{fill:#B3B3B3;}
	.st50{fill:#D0D0D0;}
	.st51{fill:#636363;}
	.st52{fill:#E5E5E5;}
	.st53{fill:#343434;}
	.st54{fill:#545454;}
	.st55{fill:#525252;}
	.st56{fill:#B4B4B4;}
	.st57{fill:#D5D5D5;}
	.st58{fill:#707070;}
	.st59{fill:#F1F1F1;}
	.st60{fill:#767676;}
	.st61{fill:#E2E2E2;}
	.st62{fill:#AAAAAA;}
	.st63{fill:#4C4C4C;}
	.st64{fill:#7A7A7A;}
	.st65{fill:#A3A3A3;}
	.st66{fill:#C2C2C2;}
	.st67{fill:#808080;}
	.st68{fill:#9E9E9E;}
	.st69{fill:#2D2D2D;}
	.st70{fill:#787878;}
	.st71{fill:#8F8F8F;}
	.st72{fill:#5C5C5C;}
	.st73{fill:#303030;}
	.st74{fill:#8A8A8A;}
	.st75{fill:#E3E3E3;}
	.st76{fill:#9F9F9F;}
	.st77{fill:#898989;}
	.st78{fill:#B7B7B7;}
	.st79{fill:#6F6F6F;}
	.st80{fill:#999999;}
	.st81{fill:#6D6D6D;}
	.st82{fill:#909090;}
	.st83{fill:#BFBFBF;}
	.st84{fill:#B2B2B2;}
	.st85{fill:#3D3D3D;}
	.st86{fill:#1D1D1D;}
	.st87{fill:#777777;}
	.st88{fill:#606060;}
	.st89{fill:#6A6A6A;}
	.st90{fill:#AFAFAF;}
	.st91{fill:#727272;}
	.st92{fill:#717171;}
	.st93{fill:#737373;}
	.st94{fill:#F9F9F9;}
	.st95{fill:#ADADAD;}
	.st96{fill:#7E7E7E;}
	.st97{fill:#555555;}
	.st98{fill:#818181;}
	.st99{fill:#8B8B8B;}
	.st100{fill:#A8A8A8;}
	.st101{fill:#B9B9B9;}
	.st102{fill:#EBEBEB;}
	.st103{fill:#B6B6B6;}
	.st104{fill:#646464;}
	.st105{fill:#D6D6D6;}
	.st106{fill:#171717;}
	.st107{fill:#202020;}
	.st108{fill:#464646;}
	.st109{fill:#888888;}
	.st110{fill:#A6A6A6;}
	.st111{fill:#BEBEBE;}
	.st112{fill:#0C0C0C;}
	.st113{fill:#1A1A1A;}
	.st114{fill:#2E2E2E;}
	.st115{fill:#676767;}
	.st116{fill:#878787;}
	.st117{fill:#DBDBDB;}
	.st118{fill:#4F4F4F;}
	.st119{fill:#9C9C9C;}
	.st120{fill:#3B3B3B;}
	.st121{fill:#565656;}
	.st122{fill:#404040;}
	.st123{fill:#E6E6E6;}
	.st124{fill:#DFDFDF;}
	.st125{fill:#0E0E0E;}
	.st126{fill:#232323;}
	.st127{fill:#747474;}
	.st128{fill:#393939;}
	.st129{fill:#444444;}
	.st130{fill:#242424;}
	.st131{fill:#E7E7E7;}
	.st132{fill:#2B2B2B;}
	.st133{fill:#1E1E1E;}
	.st134{fill:#232020;stroke:#232020;stroke-miterlimit:10;}
</style>
<g id="圖層_2" class="st0">
</g>
<g id="圖層_1">
	<g>
		<path class="st2" d="M46.7,25.1c-1.4-1.1-3-2.1-4.3-3.3c-0.6-0.6-1-1.3-1.4-2c-0.4-0.8-0.9-1.5-1.4-2.2c-0.5-0.7-1.8-4.3-1.8-4.8
			c0-1.2,0.6-4.8,0.8-5.3c0.3-0.9,0.7-1.8,0.9-2.8C39.7,3.9,40,2.9,40,2.1c0-0.3,0.1-0.7-0.2-0.9c-0.3-0.1-0.5-0.3-0.9-0.3
			c-0.5,0-1,0.2-1.4,0.5c-0.7,0.5-1.4,1.1-2.1,1.7c-0.3,0.2-1,0.7-1,0.7c-1.3,0.9-2.6,1.7-4,2.5c-0.8,0.4-1.6,0.9-2.5,1.3
			c-0.7,0.3-1.4,0.4-2.1,0.4c-0.9,0.1-1.8,0-2.7-0.1c-0.8-0.1-1.6-0.1-2.4-0.4C19.9,7,19,6.8,18.1,6.5c-0.8-0.4-1.6-0.8-2.4-1.2
			c-0.8-0.4-1.6-1-2.4-1.5c-0.7-0.5-1.5-0.8-2.1-1.3c-0.3-0.3-0.5-0.7-0.9-1C10.1,1.3,9.1,1,9,1.5C8.8,2.3,9.5,4.7,9.7,5.2
			C9.9,6,10,6.8,10.3,7.6c0.2,0.6,0.4,2.5,0.4,2.8c0.2,0.9,0.3,1.8,0.5,2.8c0.1,0.5,0.2,2.9,0.1,3.3c0,0,0,0.1,0,0.1c0,0,0,0,0,0
			c-0.1,0.6-1,3.3-1.3,4c-0.4,0.8-0.9,1.6-1.4,2.3c-0.9,1.5-4,5.6-4.6,6c-0.8,0.5-1.5,0.9-2.2,1.6c-0.3,0.3-0.7,0.7-0.8,1.1
			c-0.3,0.6,0.1,1.3,0.7,1.5c0.7,0.4,1.6,0.4,2.4,0.4c1.8,0.1,3.6-0.1,5.4,0.2c0.2,0,4.8,1.4,5.2,1.5c0.3,0.1,2.4,1.2,2.6,1.3
			c0.7,0.4,1.3,1,1.8,1.6c0.3,0.3,2.8,3.5,3.2,4.2c0.5,0.9,1,1.8,1.4,2.7c0.3,0.6,0.4,1.2,0.6,1.8c0.2,0.6,0.6,1.7,1.4,1.7
			c0.6,0,1.2-0.1,1.5-0.6c0.3-0.4,0.6-0.9,0.7-1.4c0.2-0.9,0.5-1.6,0.8-2.4c0.3-0.6,3.7-6.7,3.9-7.3c0.2-0.5,2.2-2.9,3.1-3.3
			c1.5-0.7,3.1-1,4.8-1.2c2-0.3,4-0.6,6-0.9c0.9-0.1,1.8-0.2,2.8-0.4c0.5-0.1,1.1-0.2,1.3-0.8c0.1-0.4,0.1-0.8,0.1-1.3
			C50.7,27.7,47.3,25.6,46.7,25.1z M18.1,25c-0.6,0.2-1.1,0.6-1.7,0.9c-0.6,0.3-1.2,0.6-1.9,0.8c-1.2,0.5-2.5,1-3.8,1.4
			c-1.3,0.5-2.5,1.1-3.8,1.5c-0.6,0.2-1.3,0.4-1.9,0.6c-0.3,0.1,0.3-0.3,0.4-0.3c0.6-0.2,1.3-0.5,1.9-0.7c1.2-0.5,2.4-1.1,3.6-1.5
			c1.4-0.5,2.7-1,4.1-1.6c0.6-0.3,1.3-0.5,1.9-0.9c0.4-0.2,0.7-0.4,1.1-0.6C18.2,24.6,18.3,24.9,18.1,25z M19.4,17.3
			c-0.4-0.3-0.8-0.8-1.1-1.2c-0.5-0.5-0.9-1.1-1.4-1.6c-0.9-0.9-1.4-2.1-2.1-3.2c-0.3-0.6-0.8-1.1-1.2-1.7c-0.4-0.6-0.8-1.3-1.1-1.9
			c-0.5-1.1-1.1-2.3-1.5-3.5c0-0.1,0.1-0.1,0.2,0c0.4,1.2,1.1,2.5,1.7,3.6c0.3,0.6,0.7,1.2,1,1.7c0.4,0.5,0.8,1,1.1,1.5
			c0.7,1.2,1.2,2.3,2.1,3.3c0.4,0.5,0.9,0.9,1.3,1.4c0.4,0.4,0.8,1,1.2,1.3C19.8,17.1,19.6,17.4,19.4,17.3z M22.9,23.5
			c-0.2,0.2-0.6,0.1-0.7-0.1c-0.1-0.2,0-0.6,0.1-0.7c0-0.1,0.1-0.1,0.2-0.1c0,0,0.1,0,0.1-0.1c0.2-0.1,0.5,0,0.6,0.2
			C23.3,22.9,23.2,23.4,22.9,23.5z M25.8,44c0,0.1-0.2,0.1-0.2,0c0-1.3,0-2.7-0.3-3.9c-0.4-1.3-0.7-2.6-0.9-4
			c-0.2-1.3-0.3-2.7-0.4-4.1c0-0.8-0.1-1.5-0.2-2.3c-0.1-0.4-0.1-1.1-0.3-1.5c-0.1-0.2,0.2-0.4,0.3-0.2c0.2,0.5,0.3,1.2,0.4,1.8
			c0.1,0.6,0.1,1.3,0.2,1.9c0.1,1.3,0.2,2.7,0.3,4.1c0.1,0.8,0.2,1.7,0.5,2.5c0.2,0.7,0.4,1.4,0.5,2C25.9,41.6,25.8,42.8,25.8,44z
			 M26.7,16.9c-0.1,0.2-0.4,0-0.3-0.2c0.7-1.4,1.5-2.6,2.5-3.7c1-1.2,2.1-2.4,3.1-3.7C33,8,34.2,6.8,35.3,5.6
			C35.9,5,36.4,4.4,37,3.8c0.3-0.3,0.5-0.5,0.8-0.8c0.2-0.2,0.3-0.4,0.5-0.5c0.1,0,0.2,0.1,0.1,0.1c-0.3,0.2-0.5,0.6-0.7,0.8
			c-0.3,0.3-0.5,0.6-0.8,0.9c-0.5,0.5-1,1.1-1.5,1.6c-1,1.2-2.2,2.3-3.2,3.6c-1,1.2-2,2.5-3.1,3.7C28.1,14.3,27.4,15.5,26.7,16.9z
			 M46.9,28.9c-0.1-0.2-0.8-0.2-0.9-0.3c-0.4-0.1-0.8-0.3-1.1-0.4c-0.8-0.3-1.6-0.5-2.4-0.7c-1.5-0.4-3-0.9-4.5-1.4
			c-0.8-0.2-1.5-0.5-2.3-0.8c-0.7-0.2-1.5-0.4-2.2-0.5c-1.5-0.3-2.9-0.5-4.4-0.5c-0.1,0-0.2-0.1-0.2-0.2c0-0.1,0.1-0.2,0.2-0.2
			c0,0,0.1,0,0.1,0c0,0,0,0,0,0c1.5,0,2.9,0.1,4.4,0.5c0.8,0.2,1.6,0.3,2.4,0.6c0.8,0.3,1.7,0.6,2.5,0.8c1.7,0.5,3.3,1.1,5,1.5
			c0.9,0.3,1.7,0.6,2.5,0.8c0.3,0.1,0.9,0.1,1,0.4C47.2,28.9,47,29,46.9,28.9z"/>
		<g>
			<path class="st133" d="M46.5,25.4c-1.3-1-2.7-1.8-4-2.8c-0.3-0.3-0.7-0.5-0.9-0.9c-0.3-0.3-0.5-0.7-0.7-1c-0.4-0.7-0.8-1.3-1.3-2
				c-0.2-0.3-0.5-0.6-0.7-1.1c-0.2-0.4-0.4-0.8-0.5-1.1c-0.3-0.8-0.6-1.5-0.9-2.3l-0.2-0.6l-0.1-0.3c0-0.1-0.1-0.4-0.1-0.5
				c0-0.5,0-0.9,0.1-1.3c0.1-0.8,0.2-1.6,0.3-2.5c0.1-0.4,0.1-0.8,0.2-1.2l0.1-0.3c0-0.2,0.1-0.3,0.1-0.3L38,6.5
				c0.3-0.8,0.5-1.5,0.7-2.3c0.2-0.8,0.4-1.5,0.4-2.2c0-0.2,0-0.4,0-0.4c0,0,0,0.1,0.1,0.2c0,0,0.1,0.1,0.1,0.1l-0.1-0.1
				c-0.3-0.1-0.3-0.1-0.6-0.1c-0.2,0.1-0.5,0.2-0.7,0.4c-0.3,0.2-0.6,0.5-0.9,0.7c-0.6,0.5-1.3,1.1-2,1.5c-1.4,0.9-2.8,1.8-4.2,2.6
				c-0.7,0.4-1.4,0.8-2.2,1.1c-0.2,0.1-0.4,0.2-0.6,0.3c-0.2,0.1-0.5,0.1-0.7,0.2c-0.5,0.1-0.9,0.1-1.3,0.1c-0.9,0-1.7,0-2.6-0.1
				c-0.5-0.1-0.8-0.1-1.2-0.2c-0.4-0.1-0.8-0.1-1.3-0.3c-0.2-0.1-0.4-0.2-0.6-0.2l-0.5-0.2c-0.4-0.1-0.8-0.2-1.2-0.4
				C17.7,7,17,6.6,16.3,6.2c-0.7-0.4-1.4-0.8-2.1-1.3l-1-0.7c-0.3-0.2-0.6-0.4-1-0.6c-0.3-0.2-0.7-0.4-1-0.7
				c-0.4-0.3-0.6-0.7-0.8-0.9c-0.2-0.2-0.6-0.3-0.8-0.3c-0.1,0-0.1,0-0.1,0c0,0.1,0,0.3,0,0.5c0.1,1.5,0.7,3.1,1,4.7
				c0.1,0.4,0.2,0.8,0.3,1.2c0.1,0.4,0.1,0.8,0.2,1.2c0.1,0.8,0.3,1.6,0.4,2.4l0.2,1.2l0.1,0.3c0,0.1,0,0.2,0.1,0.3l0.1,0.6
				c0,0.8,0.1,1.6,0.1,2.5l0-0.2c0.1,0.1,0.1,0.4-0.1,0.6l0,0l0.1-0.2c-0.2,1.1-0.5,1.9-0.8,2.9c-0.2,0.5-0.3,0.9-0.5,1.4
				c-0.2,0.5-0.5,0.9-0.7,1.3L9,23.5c-0.3,0.4-0.5,0.8-0.8,1.3c-0.5,0.8-1.1,1.6-1.7,2.4c-0.3,0.4-0.6,0.8-0.9,1.2l-0.5,0.6
				l-0.3,0.3c-0.1,0.1-0.2,0.2-0.4,0.3c-0.9,0.6-1.6,1-2.2,1.6C2,31.5,1.7,31.8,1.7,32c0,0.1,0,0.2,0.2,0.3c0.5,0.3,1.4,0.4,2.4,0.4
				l2.9,0c0.5,0,1,0,1.5,0.1c0.3,0,0.5,0,0.8,0.1c0.4,0.1,0.6,0.1,0.8,0.2l2.8,0.8l1.4,0.4l0.4,0.1c0.2,0.1,0.3,0.1,0.4,0.2l0.7,0.3
				l1.3,0.7c0.4,0.2,1,0.5,1.4,0.9c0.4,0.4,0.8,0.7,1.1,1.1c0.4,0.5,0.7,0.8,1,1.2c0.6,0.8,1.2,1.5,1.8,2.3c0.1,0.2,0.3,0.4,0.4,0.6
				c0.1,0.1,0.2,0.3,0.2,0.4l0.2,0.3l0.7,1.3c0.2,0.4,0.5,0.9,0.7,1.4c0.2,0.5,0.4,1,0.5,1.4c0.1,0.4,0.3,0.8,0.5,1
				c0.1,0.1,0.1,0.1,0.1,0.1c0,0,0,0,0,0c0,0,0,0,0,0c0.1,0,0.2,0,0.3,0c0.2,0,0.3-0.1,0.3-0.1c0,0,0,0,0.1,0c0,0,0,0,0,0l0.1-0.1
				c0.2-0.3,0.4-0.6,0.5-1c0.3-1,0.6-1.9,1.1-2.9l2.8-5.1l0.7-1.3l0.4-0.7c0.2-0.3,0.3-0.4,0.5-0.7c0.6-0.8,1.3-1.5,2.1-2.2
				c0.2-0.2,0.4-0.3,0.7-0.5c0.2-0.1,0.3-0.1,0.4-0.2l0.4-0.1c0.5-0.2,1-0.3,1.5-0.5c1-0.2,2-0.4,2.9-0.5l5.7-0.7
				c1-0.1,1.9-0.2,2.8-0.4c0.5-0.1,0.9-0.2,1.1-0.4c0,0,0.1-0.1,0.1-0.2c0-0.1,0-0.2,0.1-0.3c0-0.2,0-0.4,0-0.7l0-0.2
				c0-0.1,0-0.1,0-0.1c0-0.1,0-0.2-0.1-0.2c-0.1-0.2-0.2-0.4-0.4-0.5c-0.3-0.3-0.6-0.7-1-1C48.1,26.4,47.3,26,46.5,25.4z M47,24.8
				c0.7,0.6,1.5,1.2,2.3,1.8c0.4,0.3,0.8,0.6,1.1,1c0.2,0.2,0.3,0.4,0.5,0.6c0.1,0.1,0.1,0.3,0.2,0.4c0,0.1,0,0.2,0,0.3l0,0.2
				c0,0.2,0,0.5,0,0.8c0,0.1,0,0.3-0.1,0.4c0,0.2-0.1,0.3-0.2,0.5c-0.2,0.3-0.5,0.4-0.8,0.5c-0.3,0.1-0.5,0.1-0.7,0.2
				c-1,0.2-1.9,0.3-2.9,0.5l-5.7,1c-0.9,0.2-1.9,0.3-2.7,0.6c-0.4,0.1-0.9,0.3-1.3,0.5c-0.5,0.2-0.7,0.3-1,0.6
				c-0.6,0.6-1.2,1.3-1.8,2.1c-0.3,0.4-0.4,0.6-0.7,1.1l-0.7,1.3l-2.7,5.1c-0.4,0.8-0.7,1.6-0.9,2.5c-0.1,0.6-0.4,1.2-0.8,1.6
				l-0.1,0.2c-0.1,0.1-0.1,0.2-0.2,0.2c-0.2,0.2-0.3,0.3-0.5,0.4c-0.4,0.2-0.7,0.3-1,0.3c-0.2,0-0.3,0-0.5,0c0,0-0.2,0-0.3,0
				c-0.1,0-0.3,0-0.4-0.1c-0.5-0.2-0.8-0.5-1-0.8c-0.4-0.6-0.6-1.1-0.7-1.6c-0.3-1-0.6-1.7-1.1-2.5l-0.7-1.3l-0.2-0.3
				c-0.1-0.1-0.1-0.1-0.1-0.2c-0.1-0.2-0.2-0.4-0.4-0.5c-0.5-0.8-1.1-1.5-1.7-2.3c-0.3-0.3-0.6-0.8-0.9-1c-0.3-0.3-0.6-0.7-1-0.9
				c-0.5-0.5-1.5-0.9-2.3-1.3l-0.6-0.3c-0.1,0-0.2-0.1-0.3-0.1l-0.3-0.1l-1.4-0.4l-2.8-0.8c-0.2-0.1-0.5-0.2-0.6-0.2
				c-0.2,0-0.4-0.1-0.7-0.1c-0.5,0-0.9-0.1-1.4-0.1l-2.9-0.1c-1-0.1-2.1,0-3.3-0.7c-0.3-0.2-0.6-0.5-0.8-0.9C0,32.5-0.1,32,0.1,31.6
				c0.2-0.8,0.7-1.2,1-1.6c0.7-0.8,1.7-1.3,2.5-1.8c0,0,0.1-0.1,0.1-0.1l0.2-0.2l0.5-0.5C4.7,27,5,26.6,5.3,26.2
				c0.6-0.7,1.2-1.5,1.7-2.3c0.3-0.4,0.6-0.8,0.8-1.2c0.2-0.4,0.5-0.8,0.8-1.2c0.6-0.8,0.9-1.5,1.3-2.5c0.3-0.9,0.7-1.8,0.9-2.6
				l0-0.2l0,0l0,0c-0.1,0.1-0.1,0.3,0,0.3l0-0.2c0.1-0.7,0-1.6,0-2.3l0-0.6l0-0.3l-0.1-0.3l-0.2-1.2c-0.1-0.8-0.2-1.6-0.3-2.4
				c-0.1-0.4-0.1-0.8-0.2-1.2C10,7.7,9.9,7.3,9.8,6.9c-0.3-1.6-0.9-3-1.2-4.8c0-0.2,0-0.4,0-0.7C8.7,1.3,8.8,1.1,9,1
				c0.2-0.1,0.3-0.1,0.5-0.1c0.6,0,1,0.1,1.4,0.5c0.4,0.4,0.5,0.7,0.8,0.8c0.3,0.2,0.6,0.4,1,0.6C13,3,13.3,3.2,13.7,3.4l1,0.6
				c0.7,0.4,1.4,0.8,2.1,1.1c0.7,0.3,1.5,0.7,2.1,0.9c0.4,0.1,0.7,0.2,1.1,0.3c0.4,0.1,0.9,0.3,1.2,0.3c0.3,0.1,0.7,0.1,1.1,0.2
				c0.4,0,0.9,0.1,1.2,0.1c0.8,0.1,1.5,0.1,2.3,0c0.8-0.1,1.4-0.2,2-0.5c0.7-0.3,1.4-0.7,2.1-1.1c1.4-0.8,2.7-1.6,4-2.5
				c0.7-0.5,1.3-0.9,1.9-1.4c0.3-0.3,0.6-0.5,1-0.8c0.4-0.3,0.9-0.6,1.4-0.7C38.4,0,38.5,0,38.7,0l0.2,0c0.1,0,0.2,0,0.3,0
				c0.4,0,0.6,0.2,0.9,0.3l0.2,0.1c0.1,0.1,0.2,0.1,0.3,0.3c0.2,0.2,0.3,0.5,0.4,0.7c0.1,0.4,0,0.6,0,0.8c-0.1,1-0.3,1.8-0.5,2.6
				c-0.2,0.8-0.5,1.6-0.8,2.4l-0.2,0.6l-0.1,0.2l-0.1,0.2c-0.1,0.4-0.2,0.8-0.2,1.1c-0.1,0.8-0.3,1.6-0.4,2.3c0,0.4-0.1,0.8-0.1,1.1
				c0,0.1,0,0,0,0.1l0.1,0.3l0.2,0.6c0.2,0.8,0.5,1.5,0.8,2.3c0.1,0.4,0.3,0.7,0.4,1.1c0.1,0.3,0.4,0.6,0.6,1
				c0.4,0.7,0.9,1.4,1.3,2.1c0.4,0.7,0.8,1.2,1.4,1.8C44.3,22.9,45.7,23.7,47,24.8z"/>
			<path class="st133" d="M18.3,25.3c-0.5,0.3-0.9,0.7-1.5,1c-0.5,0.3-1.1,0.6-1.6,0.9c-1.1,0.6-2.2,1-3.4,1.4
				c-0.6,0.2-1.2,0.3-1.7,0.5c-0.6,0.1-1.2,0.3-1.8,0.5c-0.3,0.1-0.6,0.2-0.9,0.3l-0.8,0.4l-0.8,0.4l-0.4,0.2c0,0,0,0-0.2,0.1
				c0,0-0.1,0-0.2,0c0,0,0,0-0.1,0c-0.1,0-0.3-0.2-0.3-0.3c-0.1-0.2,0-0.2,0-0.2c0,0,0-0.1,0-0.1c0.1-0.2,0.1-0.2,0.2-0.2
				c0.1-0.1,0.1-0.1,0.2-0.2C5,29.7,5,29.6,5.1,29.5l0.3-0.2l0.4-0.2l0.8-0.4c0.5-0.3,1.1-0.6,1.6-0.8c1.1-0.5,2.2-1.1,3.3-1.5
				c1.1-0.4,2.3-0.8,3.4-1.1l1.7-0.5l0.9-0.3l0.2-0.1c0.1,0,0.1-0.1,0.4-0.1C18.7,24.5,18.7,25.1,18.3,25.3z M18,24.7
				c-0.1,0-0.1,0.1-0.1,0.2c0,0,0,0.1,0.2,0.1c0.1,0,0,0,0,0.1l-0.2,0.1l-0.7,0.5c-0.5,0.3-1,0.7-1.6,1c-1,0.7-2.2,1.1-3.3,1.6
				c-1.1,0.5-2.2,0.9-3.4,1.3c-0.6,0.2-1.1,0.4-1.7,0.6l-0.9,0.2l-0.5,0.1l-0.1,0c0,0-0.1,0,0,0c0,0-0.1,0-0.2,0.1
				c-0.1,0-0.1,0.1-0.1,0.1c0,0,0,0,0.1-0.1c0,0,0-0.1,0-0.1c0,0,0-0.1,0-0.2c0-0.1-0.2-0.3-0.3-0.3c-0.1,0-0.1,0-0.1,0
				c-0.1,0-0.2,0-0.1,0c0,0,0,0,0.1,0l0.4-0.1l0.9-0.2c0.3-0.1,0.6-0.1,0.9-0.2c0.3-0.1,0.5-0.3,0.8-0.4c0.5-0.3,1-0.6,1.6-0.9
				c0.5-0.3,1.1-0.6,1.6-0.9c1.1-0.5,2.2-0.9,3.3-1.3l1.7-0.5C16.8,25.2,17.4,24.9,18,24.7z"/>
			<path class="st133" d="M19.2,17.6c-0.4-0.2-0.6-0.5-0.9-0.7c-0.2-0.3-0.5-0.4-0.7-0.7c-0.5-0.4-1-0.8-1.5-1.3
				c-1.1-1-1.7-2.4-2.2-3.5c-0.3-0.5-0.7-1.1-1-1.8L12,7.7c-0.1-0.3-0.2-0.6-0.4-0.9c-0.2-0.3-0.3-0.6-0.5-0.9
				C11,5.6,10.9,5.3,10.7,5l-0.2-0.5l-0.1-0.1l0-0.1c0,0-0.1-0.2,0-0.4c0.1-0.4,0.5-0.5,0.7-0.4c0.1,0,0.3,0.1,0.4,0.3L11.6,4
				c0.6,1.1,1.3,2.2,2,3.3l1.1,1.6c0.3,0.4,0.9,1,1.2,1.7c0.6,1.2,1.2,2.3,1.9,3.4c0.4,0.6,0.7,1.1,1.1,1.7c0.2,0.3,0.3,0.6,0.5,0.8
				l0.1,0.2c0.1,0.1,0.1,0,0.2,0.3c0.1,0.2,0.1,0.4,0,0.6C19.8,17.7,19.4,17.7,19.2,17.6z M19.6,17c0,0-0.2,0-0.2,0.1
				c0,0,0,0.1,0,0.1c0.1,0.1-0.1,0-0.1-0.1c-0.1-0.1-0.2-0.1-0.2-0.2c-0.3-0.2-0.5-0.5-0.8-0.7L16.7,15c-1.1-0.9-1.9-2.2-2.6-3.3
				c-0.2-0.5-0.6-0.9-1.1-1.5c-0.4-0.6-0.7-1.2-1-1.8c-0.7-1.2-1.1-2.5-1.4-3.9c0,0,0-0.1,0,0c0.1,0.1,0.2,0.2,0.3,0.2
				c0.2,0,0.4,0,0.5-0.3c0-0.1,0-0.3,0-0.2l0,0.1l0,0.1c0,0.2,0.1,0.3,0.1,0.5c0.1,0.3,0.2,0.6,0.3,0.9c0.1,0.3,0.2,0.6,0.4,0.9
				c0.2,0.3,0.3,0.6,0.5,0.9c0.4,0.5,0.8,1.1,1.2,1.6c0.4,0.5,0.9,0.9,1.3,1.5c0.9,1.2,1.3,2.4,2,3.3l1.2,1.6
				C18.9,16,19.2,16.6,19.6,17z"/>
			<path class="st133" d="M23.2,23.8c-0.2,0.3-0.5,0.5-0.8,0.6c-0.3,0-0.9-0.2-0.9-0.8c0-0.5,0.3-0.6,0.5-0.8
				c0.1-0.1,0.1-0.2,0.1-0.3c0-0.2,0.1-0.3,0.3-0.5l-0.1,0.1c0.1-0.2,0.2-0.4,0.4-0.5c0.2-0.1,0.5-0.1,0.7-0.1
				c0.5,0.1,0.8,0.4,1,0.8c0.2,0.5,0,0.8-0.2,1c-0.1,0.1-0.3,0.2-0.4,0.2c-0.1,0-0.1,0-0.2,0.1l-0.1,0
				C23.2,23.7,23.2,23.8,23.2,23.8z M22.7,23.2C22.8,23.2,22.8,23.3,22.7,23.2C22.8,23.3,22.8,23.2,22.7,23.2c0,0,0-0.1-0.1-0.1
				C22.6,23,22.5,23,22.4,23c-0.2-0.1-0.3,0-0.2,0.2c0,0.2,0.2,0.2,0.4,0.2C22.7,23.3,22.8,23.3,22.7,23.2c0.1-0.1,0.1-0.2,0.1-0.3
				l-0.1,0.1c0-0.1,0-0.2-0.1-0.2c0,0-0.2,0-0.1,0.1c0.1,0.1,0.4,0.3,0.4,0.1c0-0.3-0.2-0.4-0.3-0.3C22.6,22.9,22.6,23.1,22.7,23.2z
				"/>
			<path class="st133" d="M26.1,44c0,0.2-0.2,0.5-0.4,0.5c-0.2,0-0.5-0.1-0.5-0.4l0-0.3l-0.1-0.5c0-0.3-0.1-0.7-0.1-1
				c-0.1-0.7-0.2-1.3-0.4-1.9c-0.4-1.2-0.9-2.6-1-4.1c0-1.4,0.1-2.8,0.1-4.2c0-0.3,0-0.7,0-1l-0.2-1c0-0.3-0.1-0.7-0.2-1
				c0-0.2-0.1-0.3-0.1-0.4c0-0.1-0.1-0.1-0.1-0.2c0,0-0.1-0.2-0.1-0.4c0-0.2,0.1-0.4,0.2-0.5c0.1-0.1,0.2-0.2,0.4-0.2
				c0.2,0,0.5,0,0.6,0.2c0.1,0.1,0.1,0.2,0.2,0.2l0,0.1l0.1,0.1c0.1,0.2,0.2,0.4,0.2,0.6c0.1,0.4,0.2,0.7,0.3,1
				c0.1,0.7,0.2,1.4,0.3,2.1c0.2,1.3,0.4,2.7,0.5,4c0,0.7,0.1,1.3,0.3,1.9c0.1,0.6,0.3,1.4,0.3,2.1c0.1,0.7,0,1.5,0,2.2l-0.1,1
				l-0.1,0.5C26.1,43.7,26.1,43.9,26.1,44z M25.4,44c0-0.2,0.1-0.3,0.1-0.5l0-0.5l-0.1-1c-0.1-0.7-0.2-1.3-0.5-1.9
				c-0.3-0.6-0.5-1.2-0.7-1.9c-0.2-0.7-0.3-1.4-0.5-2.1c-0.1-1.4-0.2-2.8-0.2-4.2c0-0.7,0-1.3,0-2l0-1c0-0.1,0-0.3,0-0.4l0-0.1l0,0
				c0,0,0,0.1,0.1,0.1c0.1,0.1,0.3,0.1,0.4,0.1c0.1,0,0.2-0.1,0.2-0.1c0-0.1,0.1-0.1,0.1-0.2c0-0.1-0.1-0.2,0-0.1
				c0,0.1,0.1,0.2,0.1,0.3c0,0.2,0,0.4,0.1,0.6l0.1,1l0,1c0,0.3,0.1,0.7,0.2,1c0.3,1.3,0.6,2.7,0.8,4c0.3,1.3,0.6,2.5,0.9,3.9
				c0.1,0.8,0.1,1.5,0,2.2l-0.1,1l0,0.5l0,0.1l0,0.1c0,0,0,0.1,0,0C25.9,43.6,25.4,43.7,25.4,44z"/>
			<path class="st133" d="M27,17c0,0.1-0.2,0.3-0.4,0.3c-0.2,0-0.3,0-0.4-0.1C26.1,17.2,26,17,26,16.9c0-0.1,0-0.2,0-0.3
				c0,0,0-0.1,0-0.1l0,0l0.2-0.6c0.2-0.4,0.3-0.7,0.5-1.1c0.4-0.7,0.8-1.4,1.2-2.1c0.9-1.3,1.9-2.5,3-3.6c1.1-1.1,2.4-2.2,3.5-3.2
				L35.4,5l0.8-0.9c0.5-0.6,1-1.1,1.5-1.9c0.1-0.1,0.1-0.1,0.2-0.2C38,2.1,38,2,38,2c0.1-0.1,0.4-0.1,0.6,0c0.2,0.1,0.3,0.3,0.4,0.5
				c0,0.3-0.1,0.5-0.3,0.6c0,0,0,0,0,0c0,0.1-0.1,0.2-0.2,0.4c-0.2,0.4-0.5,0.7-0.8,1c-0.5,0.6-1,1.2-1.5,1.8c-1,1.2-2,2.4-3,3.6
				c-1.1,1.2-2.1,2.4-3.3,3.5c-0.6,0.5-1.1,1-1.6,1.6c-0.2,0.3-0.5,0.6-0.7,0.9l-0.3,0.5C27.1,16.7,27.1,16.9,27,17z M26.4,16.7
				c0.1-0.2,0.2-0.3,0.3-0.5l0.2-0.6c0.2-0.4,0.3-0.7,0.5-1.1c0.4-0.7,0.8-1.5,1.3-2.1c0.9-1.3,1.8-2.5,2.8-3.8
				c1-1.2,2.1-2.4,3.2-3.5c0.6-0.6,1.1-1.2,1.7-1.7c0.3-0.3,0.6-0.5,0.8-0.7c0.1-0.1,0.3-0.3,0.5-0.5c0.1,0,0.2-0.1,0.2-0.1
				c-0.1,0.1-0.3,0.3-0.2,0.5c0,0.2,0.1,0.3,0.3,0.4c0.1,0.1,0.4,0.1,0.4,0l0,0c0,0,0,0,0,0c-0.1,0-0.3,0.3-0.4,0.4l-0.5,0.4
				l-0.9,0.8l-0.9,0.8c-0.3,0.3-0.5,0.6-0.7,0.9l-2.8,3.8c-0.9,1.3-2,2.5-3.1,3.6c-0.5,0.5-1,1.1-1.5,1.7c-0.2,0.3-0.5,0.6-0.7,0.9
				l-0.3,0.5c0,0.1,0-0.1,0-0.1c0-0.1-0.1-0.1-0.1-0.1c0,0-0.1,0-0.2,0C26.4,16.6,26.4,16.7,26.4,16.7z"/>
			<path class="st133" d="M46.6,29.1C46.7,29.3,46.6,29.2,46.6,29.1l-0.3,0l-0.3,0c-0.2,0-0.2,0-0.3-0.1c-0.4-0.1-0.8-0.2-1.2-0.3
				c-0.8-0.1-1.5-0.3-2.3-0.4c-1.6-0.4-3.1-0.8-4.6-1.4L35.4,26c-0.7-0.3-1.5-0.5-2.2-0.8C32.8,25.2,32.4,25,32,25
				c-0.4,0-0.8-0.1-1.2-0.1c-0.4,0-0.8,0-1.2,0l-0.6,0c-0.1,0-0.3,0-0.5-0.2c-0.2-0.2-0.2-0.3-0.2-0.5c0-0.2,0.1-0.4,0.2-0.5
				c0.1-0.1,0.2-0.1,0.3-0.1c0,0,0.1,0,0.1,0l0,0c1.6-0.2,3.3-0.2,4.9,0.2c0.8,0.2,1.6,0.3,2.4,0.5c0.8,0.2,1.5,0.5,2.2,0.7
				c1.5,0.5,3,1,4.5,1.7c0.7,0.3,1.4,0.7,2.2,1c0.4,0.1,0.7,0.4,1.1,0.5c0.2,0.1,0.4,0.1,0.6,0.3c0.1,0.1,0.3,0.1,0.4,0.4
				c0,0.2-0.1,0.4-0.3,0.5C47,29.4,46.7,29.3,46.6,29.1z M47.2,28.7c0-0.1-0.2-0.1-0.3-0.1c-0.1,0-0.1,0.1-0.1,0.2c0.1,0.1,0,0,0,0
				c-0.1,0-0.3-0.1-0.5-0.1c-0.5,0-0.8-0.2-1.2-0.2l-2.3-0.5c-1.6-0.3-3.1-0.7-4.6-1.1c-0.8-0.2-1.5-0.5-2.3-0.8l-2.2-0.6
				c-1.4-0.4-2.9-0.7-4.5-0.9c0,0,0,0,0,0c0,0,0,0,0.1,0c0.1,0,0.1,0,0.2-0.1c0.1-0.1,0.1-0.2,0.1-0.3c0-0.1,0-0.2-0.1-0.2
				C29.3,24,29.1,24,29.1,24l0.6,0.1l1.2,0.1c0.4,0,0.8,0.1,1.2,0.2l1.2,0.1l2.4,0.3c0.8,0.1,1.6,0.3,2.3,0.5c1.5,0.4,3,0.8,4.5,1.4
				l2.2,0.9l1.1,0.5l0.2,0.1l0.3,0.1c0.1,0,0.2,0.1,0.3,0.1c0.1,0,0.1,0,0.2,0.1C47,28.5,47.1,28.5,47.2,28.7z"/>
		</g>
	</g>
</g>
<g id="圖層_3">
</g>
</svg>
