<?xml version="1.0" encoding="utf-8"?>
<!-- Generator: Adobe Illustrator 21.0.0, SVG Export Plug-In . SVG Version: 6.00 Build 0)  -->
<svg version="1.1" id="圖層_1" xmlns="http://www.w3.org/2000/svg" xmlns:xlink="http://www.w3.org/1999/xlink" x="0px" y="0px"
	 viewBox="0 0 98.2 47" style="enable-background:new 0 0 98.2 47;" xml:space="preserve">
<style type="text/css">
	.st0{fill:#333333;}
	.st1{fill:#0071BC;}
	.st2{clip-path:url(#SVGID_2_);}
	.st3{fill:#FFFFFF;}
	.st4{fill:#232020;}
	.st5{clip-path:url(#SVGID_4_);}
	.st6{clip-path:url(#SVGID_6_);}
</style>
<g>
	<g>
		<path class="st0" d="M35.9,9.2c2.3,0,3.4,1.1,3.4,3.4v0.9c0,1.1-1.2,3.1-3.7,6.2c2.4,0,4.1,1.4,5.2,4.3l0.3,3.1v2.2
			c0,2.5-2,4.8-6.2,6.8c-3.3,1-6.9,1.5-10.8,1.5h-3.4l-1.5-0.3v-0.3c0-0.5,0.1-0.9,0.3-1.2c-0.2-0.4-0.3-0.7-0.3-0.9h1.5
			c0.5,0.4,1.7,0.8,3.7,1.2c6,0,8.9-0.9,8.9-2.8c0.5,0,1.1-1.2,1.8-3.7v-2.8c0-2.1-0.8-3.8-2.5-4.9c-3.5,1-5.9,1.5-7.1,1.5L23.9,23
			v-0.3c0.8-0.9,3.2-2,7.1-3.4c2-2.7,3.1-4.8,3.1-6.2v-0.3c-0.2-1.2-0.5-1.8-0.9-1.8c-1.3,0-3.3,0.9-5.9,2.8c-0.2,0-0.5,0.1-0.9,0.3
			c-0.3-0.2-0.8-0.3-1.5-0.3v-0.9C27.8,10.4,31.5,9.2,35.9,9.2z"/>
		<path class="st0" d="M48.5,10.7c2.1,0,3.7,0.4,4.9,1.2l7.4-1.2c0.6,0,2,0.3,4.3,0.9c0,0.3-0.8,1.1-2.5,2.5c-0.4,0-2-0.2-4.6-0.6
			c-0.5,0-1.2,0.3-2.2,0.9l-3.1-0.3c0,0.8-0.2,3.4-0.6,7.7l8.9-0.6c0-0.6,0.1-0.9,0.3-0.9c2.1,0,4.2,0.4,6.2,1.2v0.6
			c-1.7,0.6-6.5,1.2-14.5,1.8c-0.8,0.4-1.2,0.7-1.2,0.9c-0.4,5.6-0.6,9.4-0.6,11.4c0,1-0.2,1.5-0.6,1.5c-1.6,0-3.2-0.3-4.9-0.9
			c1-13.2,1.9-22,2.5-26.1H48.5z"/>
	</g>
	<path class="st0" d="M98,26C93.3,16.6,84.6,8.1,78.6,1.1c-0.1-0.4-0.4-0.8-0.7-0.9c0,0,0,0,0,0c-0.2-0.2-0.4-0.2-0.6,0
		c-0.7,0-1.5-0.1-2.2,0c-0.1,0-0.2,0-0.3,0.1C51,1.2,27.3,0.1,3.5,0.6c-0.6,0-0.6,1.5,0,1.6c25.7,1.5,74,0.2,74.1,0.1
		c5.1,7.2,14.1,15.9,18.3,24.5c-5,5.6-13.7,10.9-18.9,16c-5.6,1.5-74.1,1.1-74.2,1.5C3,38,2.3,31.8,2.2,25.6
		C2.1,22.7,1.1,6.2,2.8,4.8C3.7,4.1,3.1,1.5,2.1,2c-3,1.8-1.9,10.1-1.9,14.4c0,9.4,0,20.3,1.9,29.1c0.1,0.6,0.6,0.5,0.7-0.2
		c0-0.1,0-0.2,0-0.3c0.1,0.4,0.3,0.7,0.6,0.8c23.8,1.3,48,0.9,71.8-0.8c-0.1,1.1,0.7,2.3,1.4,1.6c6-5.6,15.4-11.8,21.1-18.3
		C98.3,27.8,98.4,26.8,98,26z"/>
</g>
</svg>
