<?xml version="1.0" encoding="utf-8"?>
<!-- Generator: Adobe Illustrator 22.0.1, SVG Export Plug-In . SVG Version: 6.00 Build 0)  -->
<svg version="1.1" xmlns="http://www.w3.org/2000/svg" xmlns:xlink="http://www.w3.org/1999/xlink" x="0px" y="0px"
	 viewBox="0 0 198.2 33.4" style="enable-background:new 0 0 198.2 33.4;" xml:space="preserve">
<style type="text/css">
	.st0{display:none;}
	.st1{fill:#FFE5C2;}
	.st2{fill:#FFFFFF;}
	.st3{fill:#333333;}
	.st4{fill:#616161;}
	.st5{fill:#4D4D4D;}
	.st6{fill:#373737;}
	.st7{fill:#575757;}
	.st8{fill:#EF8F8F;}
	.st9{fill:#ABABAB;}
	.st10{fill:#9A9A9A;}
	.st11{fill:#4B4B4B;}
	.st12{fill:#515151;}
	.st13{fill:#989898;}
	.st14{fill:#585858;}
	.st15{fill:#797979;}
	.st16{fill:#6E6E6E;}
	.st17{fill:#8E8E8E;}
	.st18{fill:#BABABA;}
	.st19{fill:#7F7F7F;}
	.st20{fill:#949494;}
	.st21{fill:#AEAEAE;}
	.st22{fill:#C5C5C5;}
	.st23{fill:#7C7C7C;}
	.st24{fill:#919191;}
	.st25{fill:#A2A2A2;}
	.st26{fill:#A7A7A7;}
	.st27{fill:#8C8C8C;}
	.st28{fill:#8D8D8D;}
	.st29{fill:#6C6C6C;}
	.st30{fill:#5F5F5F;}
	.st31{fill:#9B9B9B;}
	.st32{fill:#D1D1D1;}
	.st33{fill:#A9A9A9;}
	.st34{fill:#848484;}
	.st35{fill:#5E5E5E;}
	.st36{fill:#7B7B7B;}
	.st37{fill:#262626;}
	.st38{fill:#5D5D5D;}
	.st39{fill:#FBFBFB;}
	.st40{fill:#696969;}
	.st41{fill:#6B6B6B;}
	.st42{fill:#0F0F0F;}
	.st43{fill:#5B5B5B;}
	.st44{fill:#353535;}
	.st45{fill:#272727;}
	.st46{fill:#383838;}
	.st47{fill:#A0A0A0;}
	.st48{fill:#CFCFCF;}
	.st49{fill:#B3B3B3;}
	.st50{fill:#D0D0D0;}
	.st51{fill:#636363;}
	.st52{fill:#E5E5E5;}
	.st53{fill:#343434;}
	.st54{fill:#545454;}
	.st55{fill:#525252;}
	.st56{fill:#B4B4B4;}
	.st57{fill:#D5D5D5;}
	.st58{fill:#707070;}
	.st59{fill:#F1F1F1;}
	.st60{fill:#767676;}
	.st61{fill:#E2E2E2;}
	.st62{fill:#AAAAAA;}
	.st63{fill:#4C4C4C;}
	.st64{fill:#7A7A7A;}
	.st65{fill:#A3A3A3;}
	.st66{fill:#C2C2C2;}
	.st67{fill:#808080;}
	.st68{fill:#9E9E9E;}
	.st69{fill:#2D2D2D;}
	.st70{fill:#787878;}
	.st71{fill:#8F8F8F;}
	.st72{fill:#5C5C5C;}
	.st73{fill:#303030;}
	.st74{fill:#8A8A8A;}
	.st75{fill:#E3E3E3;}
	.st76{fill:#9F9F9F;}
	.st77{fill:#898989;}
	.st78{fill:#B7B7B7;}
	.st79{fill:#6F6F6F;}
	.st80{fill:#999999;}
	.st81{fill:#6D6D6D;}
	.st82{fill:#909090;}
	.st83{fill:#BFBFBF;}
	.st84{fill:#B2B2B2;}
	.st85{fill:#3D3D3D;}
	.st86{fill:#1D1D1D;}
	.st87{fill:#777777;}
	.st88{fill:#606060;}
	.st89{fill:#6A6A6A;}
	.st90{fill:#AFAFAF;}
	.st91{fill:#727272;}
	.st92{fill:#717171;}
	.st93{fill:#737373;}
	.st94{fill:#F9F9F9;}
	.st95{fill:#ADADAD;}
	.st96{fill:#7E7E7E;}
	.st97{fill:#555555;}
	.st98{fill:#818181;}
	.st99{fill:#8B8B8B;}
	.st100{fill:#A8A8A8;}
	.st101{fill:#B9B9B9;}
	.st102{fill:#EBEBEB;}
	.st103{fill:#B6B6B6;}
	.st104{fill:#646464;}
	.st105{fill:#D6D6D6;}
	.st106{fill:#171717;}
	.st107{fill:#202020;}
	.st108{fill:#464646;}
	.st109{fill:#888888;}
	.st110{fill:#A6A6A6;}
	.st111{fill:#BEBEBE;}
	.st112{fill:#0C0C0C;}
	.st113{fill:#1A1A1A;}
	.st114{fill:#2E2E2E;}
	.st115{fill:#676767;}
	.st116{fill:#878787;}
	.st117{fill:#DBDBDB;}
	.st118{fill:#4F4F4F;}
	.st119{fill:#9C9C9C;}
	.st120{fill:#3B3B3B;}
	.st121{fill:#565656;}
	.st122{fill:#404040;}
	.st123{fill:#E6E6E6;}
	.st124{fill:#DFDFDF;}
	.st125{fill:#0E0E0E;}
	.st126{fill:#232323;}
	.st127{fill:#747474;}
	.st128{fill:#393939;}
	.st129{fill:#444444;}
	.st130{fill:#242424;}
	.st131{fill:#E7E7E7;}
	.st132{fill:#2B2B2B;}
</style>
<g id="圖層_2" class="st0">
</g>
<g id="圖層_1">
	<g>
		<path class="st1" d="M10.5,2.9c-1.6-1.3-6.3-0.5-7.4,1c-0.5,2.3-4.7,8.9-0.5,14.9c4.2,6.1,4.4,5.7,7.9,3.9
			c1.2,1.6,2.1,7.1,7.1,3.9c0.5-0.3,1.2-1,1.2-1l1.6,3.6c0,0,1.5,2.8,4.3,2s2.4-3.4,2.3-4.3c-0.3,2.5,5.4,5.4,6.9,2.3
			c0.9-2.2,0.2-5.9,0.2-5.9s0.4-5.4,1.1-5.4s15.1,0.4,15.1,0.4s2-11.1-0.6-11.9c-2.6-0.8-6.6,1.3-7.7,3c-0.6-1.2-1.9-7.4-7-7.7
			c-4.4-0.3-6,0.7-6,0.7c-1.2-1.2-4.2-4.6-9.7-0.3C17.2,0.5,12.2-0.2,10.5,2.9z"/>
		<path class="st1" d="M188.4,4.8c1.7-1.2,7-0.4,8,1.2c0.4,2.3,3.1,8.5-0.4,14.9c-3.5,6.5-4.9,6-7.7,2.5c-1.9,5.8-3.3,8.7-7.7,4.4
			c-0.4-0.4-1.2-0.1-1.2-0.1l-1.8,3.1c0,0-1.7,2.6-4.4,1.6s-2.3-3.3-2.2-4.1c0,8.1-5.6,4.2-6.9,1c-0.7-2.3-0.8-6.1-0.8-6.1
			s0.9-5.1,0.1-5.2c-0.7,0-15.1-0.5-15.1-0.5s-2-11.3,0.6-12s7.1,1.8,8.1,3.6c0.7-1.1,3.9-6.9,7.4-7.3c4.4-0.1,5.3,1,5.3,1
			c1.3-1.1,4.7-3.9,10,0.7C182.1,2.2,186.9,1.5,188.4,4.8z"/>
		<g>
			<path class="st2" d="M30.8,28.9h0.1l0.1-0.1C31,28.9,31,28.9,30.8,28.9C30.9,28.9,30.8,28.9,30.8,28.9z"/>
			<path class="st2" d="M27.2,23.3c-0.5,1.6-0.6,3.1,0.2,4.5c0.8,1.3,2.1,1.8,3.4,1.1C27.2,28.8,27.1,26.1,27.2,23.3z"/>
			<path class="st2" d="M31.1,28.8c0.8-0.4,1.6-0.8,2.4-1.2l0,0c-0.3-1.1-0.5-2.2-0.8-3.3C32.7,26.1,32.3,27.6,31.1,28.8z"/>
			<path class="st2" d="M187.8,23.8c0.8,0.5,1.7,0.9,2.5,1.5c1.2,0.9,2.4,0.8,3-0.6c-0.4,0.2-0.7,0.3-1,0.4
				c-1.1,0.4-2.2-0.1-2.4-1.3c-0.6-2.5,1.2-4.6,3.8-4.4c0.2,0,0.3,0,0.5,0c0-0.2,0-0.3,0-0.5c-0.9,0.1-1.8-0.1-2.6,0.2
				c-2.1,0.8-1.8,3-2.3,4.8c-1-0.8-0.6-1.6-0.3-2.4c0.3-1.2,0.5-2.5,0.8-3.7c0.2-0.3,0.6-0.7,0.6-1c0.4-3.9,0.6-7.8-1.1-11.6
				c-1.2-2.8-5.6-4.3-8.4-2.9c5.8-0.4,8.1,0.8,9,7.5c0.4,2.6-0.1,5.3-0.2,8C189.1,20,188.5,21.9,187.8,23.8
				c-0.8,1.4-1.5,2.9-2.3,4.3C187.1,27.1,187.6,25.6,187.8,23.8z"/>
			<path class="st2" d="M183.6,29.9c0-0.1,0-0.2,0-0.3c-0.8-0.6-1.5-1.1-2.3-1.7c-0.1-0.1-0.3-0.4-0.4-0.4c-1.2,0.3-1-0.6-0.9-1.1
				c0.1-0.7,0.4-1.4,0.6-2.1c0.6-2.2,1.7-4.3,1.8-6.5c0-3.6-0.6-7.3-1.1-10.9c-0.5-3.8-2.8-5.8-6.6-6.1c-1.8-0.2-3.3,0.4-4.3,1.5
				c1.9-1.1,3.9-1.2,5.9-0.7c1.8,0.4,3.2,1.2,3.7,3.1c0.4,1.5,0.7,3,1.2,4.4c2,6.7,0.2,12.9-2.1,19.1c0,0.1-0.2,0.2-0.3,0.3
				c-0.1-0.5,0.1-0.9,0.1-1.3c0.1-0.4,0-0.7,0-1.4c-0.9,2.3-0.7,4.7-2.9,6c0.1,0.1,0.3,0.2,0.4,0.3c1.2-1.3,2.4-2.7,3.6-4
				C181,28.6,182.3,29.2,183.6,29.9z"/>
			<path class="st2" d="M159.5,5.2c0.1,0,0.1,0.1,0.2,0.1c0.4-0.4,0.9-0.8,1.3-1.3c3.7-3.7,9.3-2.3,10.6,2.7
				c0.6,2.6,0.7,5.3,1.3,7.9c0.6,3.1,0,6.2-0.7,9.2c-0.4,1.6-1,3.2-1.4,4.8c0.5-0.4,0.7-1,0.9-1.5c1-3.1,2-6.2,1.9-9.4
				c-0.1-3.9-0.2-7.9-1.6-11.6c-1.8-5-8.3-6.1-11.8-2C159.9,4.4,159.7,4.8,159.5,5.2z"/>
			<path class="st2" d="M17.5,26.3c-1.8,1.5-3.1,1.6-4,0.4c-0.5-0.7-0.8-1.5-1.2-2.3c-0.2-0.6-0.4-1.1-0.6-1.7
				c-0.1,0-0.2,0.1-0.3,0.1c0.1,0.5,0.1,1,0.2,1.5c-2.8-7-5.1-14.1-1-21.5C10.2,3,10,3.2,9.9,3.4C9.1,6,8.3,8.7,7.6,11.3
				c-0.1,0.5-0.1,1.2,0,1.7C8,14.9,8.4,16.9,9,18.8c0.6,1.7,0.5,3.6,1.4,5.3s1.6,3.2,3.7,3.7C15.9,28.3,17.2,27.9,17.5,26.3z"/>
			<path class="st2" d="M20.2,1.1c-0.5,0.8-1.3,1.5-1.5,2.4c-1.5,6.5-3.4,13.1-0.8,19.8c0.8,2,1.3,4.2,2,6.2c0.2,0,0.5-0.1,0.7-0.1
				C16.4,20.1,15.8,10.7,20.2,1.1z"/>
			<path class="st2" d="M26.3,23.7c-0.2-3.7-0.9-7.3-0.5-10.7c0.4-3.5,1.8-6.8,2.9-10.6C25,9.3,23.9,16.2,26.3,23.7z"/>
			<path class="st2" d="M148.1,14.4c2.4-2.7,0.6-5.7,1.4-8.3c-0.2,0-0.4,0-0.6,0c0,2.4,0,4.7,0,7.1c-0.2,0-0.4,0-0.6,0
				c-0.5-2.4-0.8-4.8,0.1-7.2C146.8,8.6,147.7,11.4,148.1,14.4z"/>
			<path class="st2" d="M29.9,2.2c2.2-0.9,4.3-0.4,6.5-0.1c2.5,0.4,3.4,2.6,4.6,4.5c-0.2-1.8-1.1-3.5-2.7-4.2
				C35.6,1.1,32.7,0.6,29.9,2.2z"/>
			<path class="st2" d="M20.3,24.4c1.1,0.2,2.9,0.1,3.8,0.9c1,0.8,1.2,2.6,1.7,3.7c0.5-1.4,0.1-3.3-1.2-4.3
				C23.4,23.7,21.5,23.7,20.3,24.4z"/>
			<path class="st2" d="M3.3,18.9c0.8,3.2,2.4,5.2,4.2,5.2c0.6,0,1.1-0.4,1.7-0.5c-0.1-0.1-0.1-0.2-0.2-0.4
				C6.7,24.2,6.2,23.9,3.3,18.9z"/>
			<path class="st2" d="M50.3,13.9c0.2,0,0.3,0,0.5,0c0.4-2.4,0.4-4.7-0.5-7.4C50.3,9.2,50.3,11.6,50.3,13.9z"/>
			<path class="st2" d="M19,1.8c-2.5-1.7-6.3-1.7-7.6,0.4C14,0.3,16.5,0.8,19,1.8z"/>
			<path class="st2" d="M174,31.7c-2.1-2.1-1.3-4.3-0.1-6.8C171.6,27.5,171.7,30.7,174,31.7z"/>
			<path class="st2" d="M28.8,1.9c-1.5-1.8-4.1-2.3-6.5-1.2C24.5-0.1,26.6,0.7,28.8,1.9z"/>
			<path class="st2" d="M32.1,23.3c0.1-0.2,0.1-0.3,0.2-0.5c-1.2-0.2-2.4-0.5-3.7-0.7c0,0.1-0.1,0.3-0.1,0.4
				C29.7,22.8,30.9,23.1,32.1,23.3z"/>
			<path class="st2" d="M7.7,18.4c-0.9-1.1-1.7-1.2-3.2-0.3C5.4,18.2,6.6,18.3,7.7,18.4z"/>
			<path class="st2" d="M22.1,30.4c1.6,1,2.3,1,3,0C24.2,30.4,23.2,30.4,22.1,30.4z"/>
			<path d="M0.3,14.9c-1-3.6,0.8-6.7,2-9.8C3,3.1,4.8,2.2,6.9,2c0.9-0.1,1.8,0.1,2.7,0.2C8.3,2.4,7,2.5,5.8,2.9
				C4.2,3.4,3.1,4.4,2.5,6.1C1.6,9,0.2,11.7,1,14.8c0.3,1.3,1,2.5,1.6,3.9c-0.5-0.6-1.1-1.1-1.3-1.6C0.8,16.2,0.5,15.5,0.3,14.9z"/>
			<path d="M166,25.9c-0.1,0-0.3-0.1-0.4-0.1c-0.3,1.4-0.6,2.8-0.9,4.3c-1.3-2.2-1.3-4.5-1-6.8c0.4-3,0.5-5.9-1.2-8.9
				c0.2,1.2,0.4,2.1,0.6,3.1c-1.4,0-2.6,0-4,0c0.2-2.6-0.2-5-1.2-7.3c-1.3-2.8-4.8-4.5-7.2-3.5c5.5-0.2,9.3,5.3,7.4,10.8
				c-13.2,0-99.5,0.1-107.5,0.1c-0.4,0-1-0.5-1-0.9c-0.2-1.8-0.2-3.5-0.3-5.3c0-0.8,0-1.6,0-2.5c-0.7,2.9-1.5,5.7-0.1,8.7
				c-1.8,0-3.3,0-4.9,0c-1.5,0-3.1,0-4.6,0c-0.8-4.1,1.7-8.2,6.3-11c-5.1,1.8-7,5.8-7.2,11c-1.1,0-2.2,0-3.4,0
				c0.5-1.3,0.9-2.6,1.4-3.8c-0.6,0.5-0.9,1.2-1.2,1.8c-1.3,2.9-1.8,5.9-1.7,9c0,1.9-0.6,3.9-0.9,5.8c1.3-1.1,1.7-2.5,1.5-4.1
				c-0.1-1.1-0.1-2.2,0-3.3c0.1-1.4,0.2-2.8,0.4-4.1c36.5,0,92,0,128.3,0c0,1.5,0.1,3,0,4.4c-0.3,3.4-0.3,6.7,2.8,9.1
				c1.2,0.9,2.1,1.3,3.1,0.6C166.1,33.1,164.5,30.6,166,25.9z"/>
			<path d="M194.8,23c-0.1-0.1-0.3-0.2-0.4-0.2c0.4-0.7,0.9-1.4,1.3-2.1c0.6-1.3,1.5-2.7,1.7-4.1c0.5-3.2,0.4-6.4-0.6-9.5
				c-0.7-2-3.4-3.4-6-3.1c-0.4,0-0.7,0.1-1.1,0.1c0-0.1,0-0.3,0-0.4c1,0,1.9-0.2,2.9-0.1c2.7,0.3,4.8,1.8,5.1,3.8s0.3,3.8,0.5,5.8
				c0,0.5,0,1.1,0,1.7C197.7,18.5,196,20.8,194.8,23z"/>
			<path d="M183.6,29.9c-1.3-0.6-2.6-1.2-3.6-1.7c-1.2,1.3-2.4,2.7-3.6,4c-0.1-0.1-0.3-0.2-0.4-0.3c2.2-1.3,2-3.7,2.9-6
				c0,0.6,0,1,0,1.4c-0.1,0.4-0.2,0.8-0.1,1.3c0.1-0.1,0.2-0.2,0.3-0.3c2.3-6.2,4.1-12.4,2.1-19.1c-0.4-1.5-0.8-3-1.2-4.4
				c-0.5-1.9-1.9-2.7-3.7-3.1c-2-0.5-3.9-0.4-5.9,0.7c1-1.2,2.5-1.7,4.3-1.5c3.8,0.3,6.1,2.3,6.6,6.1c0.5,3.6,1.1,7.3,1.1,10.9
				c0,2.2-1.1,4.3-1.8,6.5c-0.2,0.7-0.5,1.4-0.6,2.1c-0.1,0.5-0.3,1.4,0.9,1.1c0.1,0,0.2,0.3,0.4,0.4c0.8,0.6,1.5,1.1,2.3,1.7
				C183.6,29.7,183.6,29.8,183.6,29.9z"/>
			<path d="M159.5,5.2c0.2-0.4,0.5-0.8,0.8-1.1c3.4-4.1,10-3,11.8,2c1.3,3.7,1.4,7.7,1.6,11.6c0.1,3.3-0.9,6.4-1.9,9.4
				c-0.2,0.5-0.4,1.1-0.9,1.5c0.5-1.6,1.1-3.1,1.4-4.8c0.7-3,1.3-6,0.7-9.2c-0.5-2.6-0.6-5.3-1.3-7.9c-1.3-5-6.8-6.4-10.6-2.7
				c-0.4,0.4-0.9,0.8-1.3,1.3C159.6,5.3,159.5,5.2,159.5,5.2z"/>
			<path d="M17.5,26.3c-0.2,1.6-1.6,2-3.2,1.5c-2.1-0.5-2.8-2-3.7-3.7c-0.9-1.7-0.9-3.5-1.4-5.3c-0.6-1.9-1-3.8-1.4-5.8
				c-0.1-0.6-0.2-1.2,0-1.7C8.5,8.6,9.3,6,10.1,3.4c0.1-0.2,0.3-0.4,0.7-0.6c-4.1,7.4-1.8,14.5,1,21.5c-0.1-0.5-0.1-1-0.2-1.5
				c0.1,0,0.2-0.1,0.3-0.1c0.2,0.6,0.4,1.2,0.6,1.7c0.4,0.8,0.7,1.6,1.2,2.3C14.4,27.9,15.7,27.8,17.5,26.3z"/>
			<path d="M20.2,1.1c-4.4,9.6-3.8,18.9,0.4,28.3c-0.2,0-0.5,0.1-0.7,0.1c-0.7-2.1-1.2-4.2-2-6.2c-2.6-6.7-0.7-13.2,0.8-19.8
				C18.9,2.7,19.7,1.9,20.2,1.1z"/>
			<path d="M26.3,23.7C23.9,16.2,25,9.4,28.7,2.4c-1.1,3.8-2.5,7.1-2.9,10.6C25.4,16.4,26.1,20,26.3,23.7z"/>
			<path d="M189.8,18c0.1-2.7,0.6-5.4,0.2-8c-1-6.7-3.2-8-9-7.5c2.8-1.4,7.2,0.1,8.4,2.9c1.6,3.7,1.5,7.7,1.1,11.6
				C190.3,17.3,190,17.6,189.8,18L189.8,18z"/>
			<path d="M189.7,18c-0.3,1.2-0.5,2.5-0.8,3.7c-0.2,0.8-0.7,1.6,0.3,2.4c0.5-1.8,0.2-4,2.3-4.8c0.8-0.3,1.7-0.2,2.6-0.2
				c0,0.2,0,0.3,0,0.5c-0.2,0-0.3,0-0.5,0c-2.6-0.2-4.4,1.8-3.8,4.4c0.3,1.1,1.3,1.7,2.4,1.3c0.3-0.1,0.6-0.2,1-0.4
				c-0.6,1.4-1.8,1.6-3,0.6c-0.8-0.6-1.7-1-2.5-1.5l0,0C188.5,21.9,189.1,20,189.7,18C189.8,18,189.7,18,189.7,18z"/>
			<path d="M148.1,14.4c-0.4-3-1.3-5.8,0.4-8.5c-0.9,2.4-0.7,4.8-0.1,7.2c0.2,0,0.4,0,0.6,0c0-2.4,0-4.7,0-7.1c0.2,0,0.4,0,0.6,0
				C148.7,8.8,150.5,11.8,148.1,14.4z"/>
			<path d="M29.9,2.2c2.8-1.6,5.7-1.1,8.4,0.2c1.6,0.7,2.4,2.4,2.7,4.2c-1.2-1.8-2.1-4-4.6-4.5C34.3,1.8,32.1,1.3,29.9,2.2z"/>
			<path d="M20.3,24.4c1.2-0.7,3.1-0.6,4.3,0.3c1.2,1,1.7,2.9,1.2,4.3c-0.5-1.1-0.7-2.9-1.7-3.7C23.2,24.5,21.4,24.6,20.3,24.4z"/>
			<path d="M3.3,18.9c2.9,5,3.4,5.3,5.7,4.3c0.1,0.1,0.1,0.2,0.2,0.4c-0.6,0.2-1.1,0.6-1.7,0.5C5.7,24.1,4.1,22.2,3.3,18.9z"/>
			<path d="M30.9,28.9c-1.4,0.7-2.7,0.3-3.5-1.1c-0.8-1.4-0.8-2.9-0.2-4.5C27.1,26.2,27.2,28.8,30.9,28.9L30.9,28.9z"/>
			<path d="M50.3,13.9c0-2.3,0-4.7,0-7.4c0.9,2.7,0.9,5,0.5,7.4C50.6,13.9,50.5,13.9,50.3,13.9z"/>
			<path d="M19,1.8c-2.5-1-5-1.4-7.6,0.4C12.8,0.1,16.6,0,19,1.8z"/>
			<path d="M174,31.7c-2.3-1-2.4-4.1-0.1-6.8C172.7,27.4,171.9,29.6,174,31.7z"/>
			<path d="M28.8,1.9c-2.2-1.2-4.2-2-6.5-1.2C24.7-0.4,27.3,0,28.8,1.9z"/>
			<path d="M30.9,29c1.4-1.2,1.7-2.8,1.7-4.6c0.3,1.1,0.5,2.2,0.8,3.3l0,0C32.6,28.1,31.8,28.5,30.9,29C30.9,28.9,30.9,29,30.9,29z"
				/>
			<path d="M32.1,23.3c-1.2-0.3-2.4-0.5-3.6-0.8c0-0.1,0.1-0.3,0.1-0.4c1.2,0.2,2.4,0.5,3.7,0.7C32.2,23,32.2,23.2,32.1,23.3z"/>
			<path d="M187.8,23.8c-0.2,1.7-0.7,3.3-2.3,4.3C186.2,26.7,187,25.3,187.8,23.8C187.8,23.9,187.8,23.8,187.8,23.8z"/>
			<path d="M7.7,18.4c-1.1-0.1-2.3-0.2-3.2-0.3C6,17.3,6.8,17.3,7.7,18.4z"/>
			<path d="M22.1,30.4c1.1,0,2,0,3,0C24.4,31.3,23.7,31.4,22.1,30.4z"/>
			<path d="M182.4,27.8c-1.7-1-1.5-3.5,0.5-5.5C181.7,24.3,180.9,26,182.4,27.8z"/>
		</g>
	</g>
</g>
<g id="圖層_3">
</g>
</svg>
