<?xml version="1.0" encoding="utf-8"?>
<!-- Generator: Adobe Illustrator 22.0.1, SVG Export Plug-In . SVG Version: 6.00 Build 0)  -->
<svg version="1.1" id="圖層_1" xmlns="http://www.w3.org/2000/svg" xmlns:xlink="http://www.w3.org/1999/xlink" x="0px" y="0px"
	 viewBox="0 0 1920 193.2" style="enable-background:new 0 0 1920 193.2;" xml:space="preserve">
<style type="text/css">
	.st0{fill:#FFE5C2;}
	.st1{fill:#FFFFFF;}
	.st2{fill:#333333;}
	.st3{fill:#ABABAB;}
	.st4{fill:#9A9A9A;}
	.st5{fill:#4B4B4B;}
	.st6{fill:#515151;}
	.st7{fill:#989898;}
	.st8{fill:#585858;}
	.st9{fill:#797979;}
	.st10{fill:#6E6E6E;}
	.st11{fill:#8E8E8E;}
	.st12{fill:#BABABA;}
	.st13{fill:#7F7F7F;}
	.st14{fill:#949494;}
	.st15{fill:#AEAEAE;}
	.st16{fill:#C5C5C5;}
	.st17{fill:#7C7C7C;}
	.st18{fill:#919191;}
	.st19{fill:#A2A2A2;}
	.st20{fill:#A7A7A7;}
	.st21{fill:#8C8C8C;}
	.st22{fill:#8D8D8D;}
	.st23{fill:#6C6C6C;}
	.st24{fill:#5F5F5F;}
	.st25{fill:#616161;}
	.st26{fill:#9B9B9B;}
	.st27{fill:#D1D1D1;}
	.st28{fill:#A9A9A9;}
	.st29{fill:#848484;}
	.st30{fill:#5E5E5E;}
	.st31{fill:#4D4D4D;}
	.st32{fill:#7B7B7B;}
	.st33{fill:#262626;}
	.st34{fill:#5D5D5D;}
	.st35{fill:#FBFBFB;}
	.st36{fill:#696969;}
	.st37{fill:#6B6B6B;}
	.st38{fill:#0F0F0F;}
	.st39{fill:#5B5B5B;}
	.st40{fill:#353535;}
	.st41{fill:#272727;}
	.st42{fill:#383838;}
	.st43{fill:#A0A0A0;}
	.st44{fill:#CFCFCF;}
	.st45{fill:#B3B3B3;}
	.st46{fill:#D0D0D0;}
	.st47{fill:#636363;}
	.st48{fill:#E5E5E5;}
	.st49{fill:#343434;}
	.st50{fill:#545454;}
	.st51{fill:#525252;}
	.st52{fill:#B4B4B4;}
	.st53{fill:#D5D5D5;}
	.st54{fill:#707070;}
	.st55{fill:#F1F1F1;}
	.st56{fill:#767676;}
	.st57{fill:#E2E2E2;}
	.st58{fill:#AAAAAA;}
	.st59{fill:#4C4C4C;}
	.st60{fill:#7A7A7A;}
	.st61{fill:#A3A3A3;}
	.st62{fill:#C2C2C2;}
	.st63{fill:#808080;}
	.st64{fill:#9E9E9E;}
	.st65{fill:#2D2D2D;}
	.st66{fill:#787878;}
	.st67{fill:#8F8F8F;}
	.st68{fill:#5C5C5C;}
	.st69{fill:#303030;}
	.st70{fill:#8A8A8A;}
	.st71{fill:#E3E3E3;}
	.st72{fill:#9F9F9F;}
	.st73{fill:#898989;}
	.st74{fill:#B7B7B7;}
	.st75{fill:#6F6F6F;}
	.st76{fill:#999999;}
	.st77{fill:#6D6D6D;}
	.st78{fill:#909090;}
	.st79{fill:#BFBFBF;}
	.st80{fill:#B2B2B2;}
	.st81{fill:#3D3D3D;}
	.st82{fill:#1D1D1D;}
	.st83{fill:#777777;}
	.st84{fill:#606060;}
	.st85{fill:#6A6A6A;}
	.st86{fill:#373737;}
	.st87{fill:#AFAFAF;}
	.st88{fill:#575757;}
	.st89{fill:#727272;}
	.st90{fill:#717171;}
	.st91{fill:#737373;}
	.st92{fill:#F9F9F9;}
	.st93{fill:#ADADAD;}
	.st94{fill:#7E7E7E;}
	.st95{fill:#555555;}
	.st96{fill:#818181;}
	.st97{fill:#8B8B8B;}
	.st98{fill:#A8A8A8;}
	.st99{fill:#B9B9B9;}
	.st100{fill:#EBEBEB;}
	.st101{fill:#B6B6B6;}
	.st102{fill:#646464;}
	.st103{fill:#D6D6D6;}
	.st104{fill:#171717;}
	.st105{fill:#202020;}
	.st106{fill:#464646;}
	.st107{fill:#888888;}
	.st108{fill:#A6A6A6;}
	.st109{fill:#BEBEBE;}
	.st110{fill:#0C0C0C;}
	.st111{fill:#1A1A1A;}
	.st112{fill:#2E2E2E;}
	.st113{fill:#676767;}
	.st114{fill:#878787;}
	.st115{fill:#DBDBDB;}
	.st116{fill:#4F4F4F;}
	.st117{fill:#9C9C9C;}
	.st118{fill:#3B3B3B;}
	.st119{fill:#565656;}
	.st120{fill:#404040;}
	.st121{fill:#E6E6E6;}
	.st122{fill:#DFDFDF;}
	.st123{fill:#0E0E0E;}
	.st124{fill:#232323;}
	.st125{fill:#747474;}
	.st126{fill:#393939;}
	.st127{fill:#444444;}
	.st128{fill:#242424;}
	.st129{fill:#E7E7E7;}
	.st130{fill:#2B2B2B;}
	.st131{fill:#EF8F8F;}
</style>
<g>
	<rect y="177.4" width="1920" height="1.3"/>
	<g id="圖層_1_1_">
		<g>
			<path class="st0" d="M438,162.7c-1.6-1.3-6.3-0.5-7.4,1c-0.5,2.3-4.7,8.9-0.5,14.9c4.2,6.1,4.4,5.7,7.9,3.9
				c1.2,1.6,2.1,7.1,7.1,3.9c0.5-0.3,1.2-1,1.2-1l1.6,3.6c0,0,1.5,2.8,4.3,2c2.8-0.8,2.4-3.4,2.3-4.3c-0.3,2.5,5.4,5.4,6.9,2.3
				c0.9-2.2,0.2-5.9,0.2-5.9s0.4-5.4,1.1-5.4c0.7,0,15.1,0.4,15.1,0.4s2-11.1-0.6-11.9c-2.6-0.8-6.6,1.3-7.7,3
				c-0.6-1.2-1.9-7.4-7-7.7c-4.4-0.3-6,0.7-6,0.7c-1.2-1.2-4.2-4.6-9.7-0.3C444.7,160.3,439.7,159.6,438,162.7z"/>
			<path class="st0" d="M615.9,164.6c1.7-1.2,7-0.4,8,1.2c0.4,2.3,3.1,8.5-0.4,14.9c-3.5,6.5-4.9,6-7.7,2.5
				c-1.9,5.8-3.3,8.7-7.7,4.4c-0.4-0.4-1.2-0.1-1.2-0.1l-1.8,3.1c0,0-1.7,2.6-4.4,1.6c-2.7-1-2.3-3.3-2.2-4.1c0,8.1-5.6,4.2-6.9,1
				c-0.7-2.3-0.8-6.1-0.8-6.1s0.9-5.1,0.1-5.2c-0.7,0-15.1-0.5-15.1-0.5s-2-11.3,0.6-12c2.6-0.7,7.1,1.8,8.1,3.6
				c0.7-1.1,3.9-6.9,7.4-7.3c4.4-0.1,5.3,1,5.3,1c1.3-1.1,4.7-3.9,10,0.7C609.6,162,614.4,161.3,615.9,164.6z"/>
			<g>
				<path class="st0" d="M509.6,177.5l-0.3-13.2c0,0-29.7-9.4-35-14.6c-5.2-5.2-17-53.5-17-53.5l5.3-40.1L490,39.5l67,1.1l32,13.7
					l3,35.7l-1.4,38.3l-8.5,17.6c0,0-8.8,7.4-11.7,8.3c-2.9,1-2.5,3.5-11.9,6.7c-3.7,0.7-18.5,1-18.5,1l-1,15.8L509.6,177.5z"/>
				<path class="st1" d="M479.4,93.9c0,0-5.9,5.1-5.3,14.6c0.5,8.1,4.7,17,20.5,17c5.8-1.2,16.4-3.6,13.2-23.1
					c-1.6-6.4-8.5-12.4-13.9-12.3S480.8,92.4,479.4,93.9z"/>
				<path class="st1" d="M555.3,92.6c-6.5,0.3-15.2,8.4-15.2,11.6s-4.3,5.9,0,15.9c2.8,3.9,8.3,9.8,16,7.5c5.9-1.5,12.3-3,14.8-8.3
					c0.8-1.4,3.2-6.6,2.7-10.9s0.1-4.8-1.6-7.8S568.1,92,555.3,92.6z"/>
				<path class="st1" d="M509.2,164.3c0-0.1,0.2-0.1,0.3-0.2c3.9,0.4,7.7,0.8,11.6,1.2c0-0.2,0-0.4,0.1-0.6
					c-3.9-0.2-7.8-0.4-11.6-0.5c-0.3-0.2-0.5-0.4-0.7-0.5c0.3,3.5,0.5,10.2,0.8,13.8h0.9C510.1,174.1,509.6,167.5,509.2,164.3z"/>
				<path d="M509.2,164.3c0-0.1,0.2-0.1,0.3-0.2l0,0c-0.3-0.2-0.5-0.4-0.7-0.5c0.3,3.5,0.5,10.2,0.8,13.8h0.9
					C510.1,174.1,509.6,167.5,509.2,164.3z"/>
				<path d="M509.5,164.1c3.9,0.2,7.8,0.4,11.6,0.5c0,0.2,0,0.4-0.1,0.6C517.2,164.9,513.4,164.5,509.5,164.1L509.5,164.1z"/>
				<path class="st1" d="M540.5,163.4c0-0.4,0.9-0.9,1.3-1c3-0.2,5.9-0.2,8.9-0.4c6.8-0.4,13.4-1.7,18.6-6.6
					c2.8-2.6,5.6-5.3,7.6-8.4c3.7-6.1,3.3-12.8,1.9-19.5c-1.1-5.1-2-10.2-3-14.9c0.2,2.4,0.4,5.2,0.8,8c0.8,5.3,2.2,10.5,2,16
					c-0.2,4.9-1.3,9.5-4.5,13.3c-4.3,5.4-9.6,9.4-16.6,10.5c-4.7,0.7-9.4,0.9-14.1,1.2c-4.5,0.4-9.1,0.7-13.6,1c0,0.2,0,0.4,0,0.6
					c3.3-0.3,6.7-0.6,9.8-0.8c-0.2,4-0.4,11.2-0.6,15c0.2,0,0.4,0,0.6,0C539.9,173.8,540.2,166.9,540.5,163.4z"/>
				<path class="st1" d="M574,153.2c4.5-1.9,9-1.8,13.6-0.7c4.4,1.1,6.8,0.6,9.9-2.4c-2,0.5-4.3,1.4-6.6,1.6
					c-2.1,0.2-4.3-0.4-6.5-0.7C580.7,150.5,577.2,151,574,153.2z"/>
				<path d="M540.5,163.4c0-0.4,0.9-0.9,1.3-1c3-0.2,5.9-0.2,8.9-0.4c6.8-0.4,13.4-1.7,18.6-6.6c2.8-2.6,5.6-5.3,7.6-8.4
					c3.7-6.1,3.3-12.8,1.9-19.5c-1.1-5.1-2-10.2-3-14.9c0.2,2.4,0.4,5.2,0.8,8c0.8,5.3,2.2,10.5,2,16c-0.2,4.9-1.3,9.5-4.5,13.3
					c-4.3,5.4-9.6,9.4-16.6,10.5c-4.7,0.7-9.4,0.9-14.1,1.2c-4.5,0.4-9.1,0.7-13.6,1c0,0.2,0,0.4,0,0.6c3.3-0.3,6.7-0.6,9.8-0.8
					c-0.2,4-0.4,11.2-0.6,15c0.2,0,0.4,0,0.6,0C539.9,173.8,540.2,166.9,540.5,163.4z"/>
				<path d="M574,153.2c3.2-2.2,6.7-2.7,10.5-2.2c2.1,0.3,4.3,0.9,6.5,0.7c2.3-0.2,4.6-1.1,6.6-1.6c-3.1,3-5.5,3.5-9.9,2.4
					C583.1,151.4,578.5,151.3,574,153.2z"/>
				<g>
					<path d="M525,148c-0.4,0.3-1,0.4-1.5,0.4c-0.5-0.1-1.1-0.3-1.4-0.8c-0.4-0.4-0.6-1-0.7-1.5s-0.1-1.1,0-1.6l0,0l0,0
						c0.1-0.4,0.3-0.9,0.5-1.3c0.3-0.4,0.7-0.8,1.1-1c0.9-0.5,2-0.5,3,0c0.5,0.2,0.8,0.7,1.1,1.1c0.3,0.4,0.4,0.9,0.5,1.4
						c0.1,0.9-0.2,1.8-0.7,2.5l-0.1-0.1c0-0.8-0.1-1.6-0.3-2.2c-0.3-0.6-0.7-1.1-1.1-1.3c-0.5-0.3-1.1-0.4-1.6-0.2
						c-0.6,0.2-1,0.7-1.2,1.3l0,0c-0.1,0.4-0.2,0.9-0.2,1.3c0,0.4,0.1,0.9,0.3,1.2c0.2,0.4,0.6,0.6,1,0.8c0.4,0.1,0.9,0.1,1.3-0.1
						L525,148z"/>
					<path d="M521.5,150.8c0,0,3.4,1.5,5.4,0.9C525.4,152.9,522.5,152.7,521.5,150.8z"/>
				</g>
				<g>
					<g>
						<path class="st2" d="M540.4,103.6c0.7-2.2,2.2-4,3.8-6.1c-2.9,1-4.5,3.4-6.8,4.6c4.1-5,9.3-8.2,15.7-9.4
							c0.4-0.1,0.8-0.3,0.8,0.4c-6.5,1.1-10.2,5.6-13.1,10.9C540.4,104.1,540.2,104,540.4,103.6z"/>
						<path class="st2" d="M542.5,123.5c-5.5-3.2-5.5-12.2-3.2-16.7C538.1,112.7,538,118.5,542.5,123.5z"/>
						<path class="st3" d="M551.7,118.6c-1.2-0.5-1.5-1.8-1.5-2.7c0.1-1.5-0.8-3-0.1-4.4c0.4-0.7-1.1-1.7,0.4-2.2c0.1,0,0.1,0,0.2,0
							c0.1,0.3,0.2,0.7,0.5,0.9c0.3,0.2,0.5,0.3,0.7,0.6c0.2,0.3,0.3,0.6,0.4,0.9c-0.1,1,0.1,2,0,3
							C551.6,116,552.3,117.4,551.7,118.6z"/>
						<path class="st4" d="M551.7,118.6c-0.2-1.3-0.4-2.6,0.4-3.7c1.2,1,1.7,2.4,2.4,3.7c-0.3,1,0,2.3-1.3,2.8
							C551.9,120.9,551.4,119.9,551.7,118.6z"/>
						<path class="st2" d="M570.9,118.8c0.9-2.6,1.8-5.2,2.3-7.9c0.3-1.2,0-2.5,0.1-3.7c0-0.4-0.2-0.9,0.4-1c0.6,4.6,0,9-2.5,13.1
							C570.9,119.3,570.7,119.2,570.9,118.8z"/>
						<path class="st2" d="M553.9,93.1c-0.3-0.1-0.5-0.2-0.8-0.4c3.2-1.1,6.6-0.6,9.8-0.3c1.4,0.1,3-0.3,4.8,0.5
							C562.8,93.5,558.3,92.2,553.9,93.1z"/>
						<path class="st5" d="M562.9,109.1c0.2,0,0.5,0,0.7,0.1c0.3,0.5,0.8,0.5,1.4,0.4c0.7,0,1.5-0.1,2.1,0.6c0.2,0.3,0.2,0.7,0.1,1
							c-0.2,0.6-0.5,1.3-0.9,1.9c-0.9,0.4-1.8-0.1-2.7-0.2c-0.3-0.2-0.5-0.5-0.6-0.8c0.3-0.9,0.2-1.7-0.2-2.5
							C562.8,109.4,562.8,109.3,562.9,109.1z"/>
						<path class="st6" d="M561.5,101.9c0,0.4,0,0.9-0.7,0.7c-0.3,0.2-0.6,0.3-0.9,0.3c-0.8-0.1-1.4-0.7-2.2-0.8
							c-0.2-0.1-0.3-0.2-0.4-0.3c-0.1-0.3-0.1-0.6,0-1c0.6-0.7,1.8,0.1,2.3-1c0.4-0.4,0.8-0.7,1.3-0.8c0.4,0,0.9,0,1.3,0.2
							c0.2,0.2,0.2,0.5,0.1,0.7C561.8,100.4,561.9,101.3,561.5,101.9z"/>
						<path class="st7" d="M566.5,121.1c-1,0.8-1.9,1.8-3.2,2.2c-0.3-0.3-0.6-0.6-0.8-0.9c-0.7-1.3,0-1.5,1-1.5
							c0.2,0,0.4,0.2,0.7,0.2c-0.2-0.3-0.5-0.3-0.8-0.5c-0.4-0.3-0.6-0.8-0.7-1.3c0.1-0.5,0.3-0.8,0.8-0.8c0.4,0.2,0.5,0.6,0.8,0.8
							c0.2,0.2,0.5,0.2,0.8,0.2c0.4,0,0.8,0,0.9,0.5C566.3,120.4,566.3,120.8,566.5,121.1z"/>
						<path class="st8" d="M560.7,103.3c0.2,0.7,0,1.2-0.3,1.8c-0.6,0.5-0.3,1.2-0.4,1.8c0,0.2-0.1,0.3-0.2,0.5
							c-0.2,0.2-0.4,0.3-0.6,0.4c-0.7-0.3-1-0.9-1.2-1.5c0-0.6,0.1-1.1,0-1.7c0-0.2,0.1-0.5,0.2-0.7c0.2-0.1,0.4-0.2,0.7-0.1
							c0.8,0.5,0.1-0.4,0.4-0.4c0.1-0.2,0.3-0.4,0.6-0.4C560.2,102.9,560.5,103,560.7,103.3z"/>
						<path class="st9" d="M561.5,101.9c0.5-0.5-1.3-1.9,0.7-1.8c0.4-0.1,0.8-0.2,0.7-0.7c1.2-0.4,1.8,0.8,2.8,1.1
							C564,100.1,562.9,101.3,561.5,101.9z"/>
						<path class="st10" d="M559.7,100.1c0.3,0.5,0.3,0.9-0.5,0.8c-0.6-0.1-1.1-0.1-1.7-0.1c-0.6,0.2-1.3,0.5-1.9,0
							c-0.1-0.2-0.1-0.3,0-0.5l0,0c0.2-0.5,0.2-1.1,0.7-1.5c0.2,0,0.5,0.1,0.7,0.1c0.3,0.2,0.7,0.5,1.1,0.4c0.3-0.1,0.6-0.2,0.9-0.2
							C559.6,99.3,559.9,99.5,559.7,100.1z"/>
						<path class="st11" d="M561.9,123.3c-0.8,1.4-1.9,0.1-2.9,0.3c-0.2-0.4,0-0.8,0.3-1.1c0.3-0.1,0.8,0,0.9-0.5
							c0.3-0.2,0.7-0.3,1.1-0.4c0.5,0,1,0.3,1.4,0.6C563,123,562.2,123,561.9,123.3z"/>
						<path class="st4" d="M568.9,106.5c1,2.1,1.1,4.4,0.6,6.6c-0.4-0.2-0.1-1-0.7-1.1c-0.5-0.8-0.2-1.7-0.3-2.5
							c0.1-0.5,0.1-0.9-0.1-1.4c-0.1-0.2-0.1-0.5-0.1-0.8C568.4,107,568.5,106.6,568.9,106.5z"/>
						<path class="st12" d="M555.3,123.2c-0.4-0.1-0.7-0.4-0.7-0.9c-0.1-0.1-0.1-0.3-0.1-0.5c0.2-0.2,0.4-0.3,0.6-0.3
							c0.4,0.1,0.9,0.2,1.3-0.1c0.2-0.1,0.4-0.2,0.7-0.3c0.6-0.1,1.1,0,1.4,0.6c0.1,0.9,0,1.7-1.2,1.6
							C556.6,123.4,555.9,122.8,555.3,123.2z"/>
						<path class="st2" d="M547.2,127c-1.4-0.7-3.1-1.2-3.8-2.9c1.5,0.9,3.1,1.7,4.6,2.6C548,127.3,547.6,127.1,547.2,127z"/>
						<path class="st13" d="M558.3,99.7c-0.9,0.6-1-0.1-1.2-0.7c0.6-1,1.6-0.8,2.6-0.7c0.4,0.4,1,0,1.5,0.3l0,0
							c0.2,0.4-0.2,0.6-0.4,0.8c-0.4,0.2-0.7,0.5-1.1,0.7c-0.1-0.4-0.4-0.6-0.7-0.8C558.6,99.2,558.4,99.4,558.3,99.7z"/>
						<path class="st2" d="M559.7,107.3c0.1-0.8-0.7-1.8,0.7-2.2c-0.1,1.9,1.4,2.9,2.5,4c0,0.1,0,0.2,0,0.4
							C561.3,109.6,560.8,108.1,559.7,107.3z"/>
						<path class="st14" d="M551.7,110.9c-0.3,0-0.6,0-0.8-0.4c-0.4-0.3-0.2-0.7-0.3-1c-0.1,0-0.1-0.1-0.2-0.1
							c-0.2-0.9-0.6-1.9,0.4-2.6c0.1,0,0.1,0.1,0.2,0.1C553.6,107.9,551.7,109.6,551.7,110.9z"/>
						<path class="st13" d="M568.7,107.6c0,0.3,0,0.5,0,0.8c-0.1,0.8-0.5,0.6-0.9,0.2c-0.4-0.5-1.1,0.2-1.5-0.2
							c-0.1-0.8,0.5-1.1,1-1.5c0.6-0.3-0.1-2.1,1.4-1.4c0,0.1,0,0.2,0,0.4C568.5,106.4,568.5,107,568.7,107.6z"/>
						<path class="st15" d="M554.6,121.8c0,0.2,0,0.3,0,0.5c-0.6-0.1-1-0.4-1.4-0.9c0.7-0.8,0.5-2,1-2.8c0.6-0.2,0.7,0.3,1,0.7
							c0.1,0.3,0.1,0.5,0,0.8C555,120.7,555.1,121.4,554.6,121.8z"/>
						<path class="st16" d="M569.5,114.2c0.2,1.3-0.2,2.5-0.6,3.7c-0.5,0-0.9-0.2-1.1-0.7c-0.1-0.4-0.1-0.7,0-1.1
							c0.4-0.6,0.5-1.4,0.9-1.9C569,114,569.2,114,569.5,114.2z"/>
						<path class="st17" d="M567,110.2c-0.8-0.1-1.6-0.3-2.4-0.2c-0.7,0-0.8-0.2-0.9-0.8c1,0.6,1.7-0.3,2.5-0.5
							c0.4,0.1,0.7,0.3,0.9,0.7c0.1,0.1,0.1,0.3,0.1,0.4C567.1,110,567.1,110.1,567,110.2z"/>
						<path class="st18" d="M557.2,122.9c1.2,0.5,0.8-0.6,1.1-1.1c0.2-0.3,0.6-0.4,0.9-0.3s0.5,0.2,0.6,0.4c0.1,0.4-0.5,0.3-0.5,0.7
							c-0.1,0.3-0.2,0.7-0.4,1c-0.6,0-1.2,0-1.8,0C556.9,123.4,556.9,123.2,557.2,122.9z"/>
						<path class="st19" d="M568.7,105.5c-1.1-0.2-0.6,1.3-1.4,1.4c0-1-0.1-2.1,0.5-3.1C568.5,104.2,568.7,104.8,568.7,105.5z"/>
						<path class="st20" d="M566.5,121.1c-0.8-0.1-0.7-0.6-0.6-1.2c0.1-0.3,0.1-0.6,0.3-0.9c0.2-0.2,0.5-0.4,0.9-0.4
							c0.4,0.1,0.6,0.3,0.7,0.6C567.7,120.2,567.1,120.6,566.5,121.1z"/>
						<path class="st2" d="M573.8,106.2c-0.8,1.5,0.2,3.2-0.6,4.7c0-2.1-0.1-4.1-0.1-6.2c0.1-0.2,0.2-0.2,0.4,0
							C573.6,105.2,573.7,105.7,573.8,106.2z"/>
						<path class="st21" d="M567.7,119.3c-0.3-0.1-0.6-0.3-0.8-0.4c-0.4-0.8,0.1-1.3,0.6-1.8c0.2-0.1,0.3-0.1,0.5,0
							c0.3,0.3,0.6,0.5,0.8,0.8C568.5,118.4,568.1,118.8,567.7,119.3z"/>
						<path class="st18" d="M569.5,114.2c-0.2,0-0.4,0-0.6,0c-0.2,0.2-0.5,0.2-0.7,0.2c-1.2-1.4,0.4-1.7,1-2.3
							c0.4,0.1,0.4,0.1,0.4,1.1C569.5,113.5,569.5,113.8,569.5,114.2z"/>
						<path class="st22" d="M551.3,105.4c-0.2-0.9,0.2-1.5,0.8-2.1c0.5,0.2,1.3-0.3,1.5,0.6c-0.2,0.5-0.6,0.6-1,0.7
							c-0.3,0-0.3,0-0.1,0.8c-0.1,0.1-0.2,0.3-0.4,0.3C551.7,105.9,551.2,106.2,551.3,105.4z"/>
						<path class="st23" d="M566.9,109.5c-0.2-0.3-0.5-0.5-0.7-0.8c0-0.1,0-0.2,0.1-0.3c0.7,0.6,0.9-1.6,1.7-0.3
							c-0.3,0.3,0,0.7-0.1,1.1C567.7,109.7,567.3,109.6,566.9,109.5z"/>
						<path class="st24" d="M553.5,104c-0.3-0.6-1.1-0.1-1.4-0.7c0.2-0.1,0.4-0.3,0.6-0.4c0.4-0.3,0.7-0.7,1.2-0.4
							c0.5,0.5,0.9,1.1,0.1,1.7C553.8,104.2,553.6,104.1,553.5,104z"/>
						<path class="st25" d="M570.2,120.7c-0.7,0.9-1.4,1.9-2.7,2.2c0.8-0.8,1.6-1.7,2.3-2.5C570,120.5,570.2,120.6,570.2,120.7z"/>
						<path class="st2" d="M540.4,103.6c0.1,0.1,0.3,0.3,0.4,0.4c-0.3,0.7-0.6,1.5-1,2.2c-0.2-0.1-0.3-0.1-0.5-0.2
							C539.3,105.1,539.8,104.3,540.4,103.6z"/>
						<path class="st26" d="M551.3,105.4c0.2,0.4,0.5,0.2,0.8,0.1c0.2,0.2,0.4,0.2,0.5,0.5c-0.1,1-0.9,0.9-1.6,1l-0.1-0.1
							C550.9,106.3,550.3,105.6,551.3,105.4z"/>
						<path class="st27" d="M557.2,122.9c0,0.2,0,0.5,0,0.7c-0.7,0.1-1.3,0-1.8-0.4C555.7,121.9,556.5,123.1,557.2,122.9z"/>
						<path class="st28" d="M555.7,100.4c0,0.1,0,0.3,0,0.4c-0.1,0.2-0.3,0.3-0.5,0.4c-0.3,0.1-0.5,0.3-0.8,0.4
							c-0.1,0-0.3,0.1-0.5,0s-0.4-0.3-0.4-0.5C553.9,100,554.7,99.9,555.7,100.4z"/>
						<path class="st29" d="M556.4,98.9c0,0.6,0,1.2-0.7,1.5C555.1,99.5,555.3,99,556.4,98.9z"/>
						<path class="st2" d="M547.2,127c0.3-0.1,0.5-0.2,0.8-0.3c0.5,0.3,1.2,0.2,1.5,0.9C548.6,127.7,547.9,127.4,547.2,127z"/>
						<path class="st30" d="M553.5,101.1c0.1,0.1,0.3,0.2,0.4,0.4c0.2,0.4,0.3,0.8-0.1,1.1c-0.4,0.1-0.8,0.2-1.2,0.3
							C552.8,102.2,553,101.6,553.5,101.1z"/>
						<path class="st2" d="M570.2,120.7c-0.1-0.1-0.2-0.2-0.3-0.3c0.3-0.5,0.7-1.1,1-1.6c0.1,0.2,0.3,0.3,0.4,0.5
							C571.1,119.9,570.8,120.4,570.2,120.7z"/>
						<path class="st31" d="M562.9,99.3c0.2,0.3,0.4,0.5,0.6,0.8c-0.5,0-0.9,0.6-1.4,0c0-0.2,0-0.5,0-0.7c0.1-0.2,0.2-0.2,0.4-0.1
							C562.8,99.2,562.9,99.3,562.9,99.3z"/>
						<path class="st22" d="M561.2,98.5c-0.5,0-1.3,1.3-1.5-0.3C560.2,98,560.7,98,561.2,98.5z"/>
						<path class="st22" d="M562.6,99.2c-0.1,0-0.3,0.1-0.4,0.1c-0.5,0-1,0-1.5,0c0.1-0.3,0.3-0.5,0.4-0.8
							C561.6,99,562.5,98.3,562.6,99.2z"/>
						<path class="st2" d="M572.7,103.3c-0.2-0.5-0.4-1-0.8-1.8c1,0.4,0.9,1,1.1,1.5C573,103.1,572.9,103.2,572.7,103.3z"/>
						<path class="st2" d="M572.7,103.3c0.1-0.1,0.2-0.2,0.3-0.3c0.2,0.6,0.5,1.1,0.4,1.8c-0.1,0-0.2,0-0.4,0
							C573,104.3,572.9,103.8,572.7,103.3z"/>
						<path class="st32" d="M561.9,123.3c0.2-0.4,0.8-0.5,0.7-1c0.1-0.2,0.2-0.2,0.3-0.1c0.1,0.4,0.3,0.8,0.4,1.1
							C562.8,123.3,562.3,123.3,561.9,123.3z"/>
						<path class="st2" d="M565.4,124.5c-0.3,0.8-0.8,1.1-1.7,0.8C564.3,125,564.8,124.8,565.4,124.5z"/>
						<path class="st33" d="M560.7,103.3c-0.4,0-0.7,0-1.1,0c-0.2-0.2-0.2-0.5,0-0.7c0.4,0,0.8,0,1.2,0
							C560.8,102.8,560.8,103,560.7,103.3z"/>
						<path class="st34" d="M568.7,107.6c-0.5-0.6-0.5-1.2,0-1.8c0,0.2,0.1,0.4,0.1,0.6C568.8,106.9,568.8,107.2,568.7,107.6z"/>
						<path class="st2" d="M551.9,128.1c0.1,0.3-0.2,0.3-0.3,0.3c-0.2,0-0.4-0.1-0.6-0.1c0.1-0.1,0.2-0.2,0.4-0.3
							C551.5,127.8,551.7,127.9,551.9,128.1z"/>
						<path class="st35" d="M562.9,122.1c-0.1,0-0.2,0-0.3,0.1c-0.5,0-1-0.1-1.5-0.4c-0.7,0.1-0.4-0.6-0.7-0.8
							c-0.5-0.3-0.4,0.3-0.6,0.4c-0.1,0.2-0.4,0.3-0.5,0.4c-0.4,0-0.7,0-1.1,0c-0.3-0.6-0.9-0.3-1.4-0.5c-0.4,0-0.5-0.3-0.6-0.5
							c-0.1-0.3-0.4-0.5-0.6-0.6c-0.3-0.2-0.4-0.7-0.7-0.9c-0.2-0.2-0.5-0.5-0.7-0.7c-1-1.1-1.5-2.4-2.1-3.7
							c-0.1-1.1-0.7-2.2-0.1-3.2c-0.4-0.7,0.1-1,0.6-1.3c2.2-0.7,2.4-0.5,2.9,2.7c0.1,0.3,0.1,0.5,0,0.8c-0.5,0.4-0.3,0.6,0.2,0.8
							c0.2,0.3,0.3,0.6,0.4,0.9c0.1,0.5,0.5,0.8,0.7,1.2c0.1,0.1,0.2,0.2,0.3,0.4c0.2,0.3,0.6,0.5,0.9,0.6c0.5,0.3,1,0.5,1.4,0.9
							c0.3,0.6,0.8,0.7,1.4,0.5c0.3-0.1,0.5-0.1,0.8-0.1c0.5,0,0.9,0,1.3,0.4c0.2,0.4,0.5,0.8,0.7,1.2c0.3,0.2,0.3,0.5,0.1,0.8
							c-0.5-0.2-1-0.2-1.3,0.3C562.4,121.6,562.8,121.9,562.9,122.1z"/>
						<path class="st36" d="M552.8,110.6c-0.4,0.3-0.7,0.6-0.7,1.1c-0.1-0.2-0.2-0.5-0.3-0.7c-0.2-1-0.6-2,0.9-2.9
							c-1.6,0.7-1.7,0-1.6-1c0.2-0.7,1.4-0.2,1.4-1.1c0.7-0.3,0.9,0.2,1.2,0.7c0.1,0.7,0.1,1.4,0.1,2.1c-0.2,0.4-0.4,0.8-0.4,1.2
							C553.3,110.2,553,110.4,552.8,110.6z"/>
						<path class="st37" d="M550.7,109.5c0.4,0.3,0.2,0.7,0.3,1C549.9,110.5,550.3,110,550.7,109.5z"/>
						<path class="st38" d="M559.7,107.3c1.1-0.4,1,0.9,1.7,1.1c0.6,0.2,0.9,1,1.6,1.1c0.9,0.7,1,1.6,0.3,2.5
							c-0.2,0.5,0.1,0.8,0.2,1.2c0,0.2,0,0.3-0.1,0.5c-0.4,0.5-0.6,1.2-1.5,1c-0.3-0.1-0.2-0.4-0.3-0.6c-0.1,0.3-0.1,0.7-0.5,0.9
							c-0.3,0-0.5-0.1-0.7-0.2c-0.4-1.6-1.2-2.8-2.7-3.7c-0.5-0.3-0.7-1-0.4-1.6c0.4-0.5,0.9-0.7,1.4-1
							C559.4,108.3,559.4,107.7,559.7,107.3L559.7,107.3z"/>
						<path class="st39" d="M569.1,112c0.1,0.9-1.5,1-1,2.1c-0.3,0.9-0.3,0.9-1.6,0.5c-0.3-0.2-0.4-0.5-0.5-0.9
							c0-0.2,0.1-0.3,0.2-0.4c0.6-0.6,0.3-1.4,0.7-2c0-0.4,0-0.7,0-1.1c0-0.1,0-0.2,0-0.3c0.2-0.4,0.7-0.1,1-0.3
							c0.3-0.1,0.5-0.3,0.8-0.1C569.3,110.3,568.5,111.3,569.1,112z"/>
						<path class="st40" d="M566.2,113.4c0,0.1,0,0.2,0,0.4c0,1-1,0.5-1.4,0.9c-0.2,0-0.3,0-0.5,0c-0.5-0.3-0.9-0.7-1.1-1.3
							c0-0.1,0-0.2,0-0.2c0.1-0.2,0.2-0.4,0.4-0.4c0.9-0.3,1.7,0,2.5,0.4C566.2,113.3,566.2,113.4,566.2,113.4
							C566.3,113.4,566.2,113.4,566.2,113.4z"/>
						<path class="st2" d="M566.2,113.4c0-0.1,0-0.2,0-0.3c0-0.7,0.1-1.3,0.7-1.8C566.7,112,567.6,113.1,566.2,113.4z"/>
						<path class="st41" d="M563.7,112.7c-0.1,0.1-0.3,0.3-0.4,0.4c-1.1-0.4-0.1-0.7,0-1.1C563.4,112.2,563.6,112.5,563.7,112.7z"/>
						<path class="st42" d="M559.7,102.6c0,0.2,0,0.5,0,0.7c-0.1,0.1-0.2,0.2-0.4,0.4c-0.1,0.2-0.2,0.3-0.4,0.4c-0.2,0-0.5,0-0.7,0
							c-0.2,0.3-0.4,0.5-0.8,0.5c-0.3-0.1-0.6-0.2-0.8-0.5c0-0.6,0.4-1,0.6-1.5c0.1-0.3,0.4-0.5,0.6-0.7
							C558.7,101.6,559.1,102.3,559.7,102.6z"/>
						<path class="st43" d="M554.9,100.8c0.3,0,0.5,0,0.8,0c0.6,0.3,1.3-0.7,1.9,0c-0.1,0.3-0.1,0.7-0.2,1c-0.6,0.2-1.1,0.4-1.7,0.3
							C555.2,101.7,554.8,101.4,554.9,100.8z"/>
						<path class="st25" d="M555.7,101.8c0.6,0.4,1.1-1.1,1.7,0c0.2,0,0.4,0.1,0.5,0.1c0,0.3-0.1,0.6-0.4,0.7
							c-0.5,0.4-1.1,0.2-1.6,0.2c-0.2,0-0.3-0.1-0.4-0.3C555.5,102.2,555.5,101.9,555.7,101.8z"/>
						<path class="st6" d="M562.9,119.2c-0.5,0-1,0-1.4,0c-1.1-0.6-1.8-1.4-0.6-2.6c0.5,0.1,0.9,0.6,1.4,0c0.6,0.1,0.8,0.7,1.2,1
							c0.2,0.2,0.3,0.4,0.3,0.6c0,0.1-0.1,0.2-0.1,0.2C563.4,118.8,563.2,119,562.9,119.2z"/>
						<path class="st44" d="M563.7,121.2c0-0.3-0.1-0.5-0.1-0.8c0.2,0,0.3,0.1,0.5,0.1c0.4,0,0.8,0,1.1,0.4c0.1,0.1-0.2,0.4-0.3,0.6
							C564.4,121.9,564.1,121.5,563.7,121.2z"/>
						<path class="st45" d="M565.2,120c-0.3,0-0.6,0-0.8-0.4c-0.2-0.3-0.3-0.6,0-1c0.6-0.3,0.7,0.2,1,0.6
							C565.4,119.5,565.3,119.7,565.2,120z"/>
						<path class="st46" d="M565.2,120c0-0.2,0-0.4,0-0.7c0.4-1,0.7-0.3,1.1,0c0,0.3,0,0.5-0.3,0.6C565.6,119.5,565.4,120,565.2,120
							z"/>
						<path class="st47" d="M564.4,118.6c0,0.4,0,0.7,0,1.1c-0.8,0-0.7-0.6-0.7-1.1l0,0c0.2-0.2,0.4-0.2,0.6-0.2
							C564.3,118.5,564.4,118.5,564.4,118.6z"/>
						<path class="st48" d="M559,108.8c-0.5,0.3-0.9,0.7-1.5,0.7c-0.2,0-0.5,0-0.7-0.1c-0.6-0.3-1-0.8-1.4-1.2
							c-0.4-0.8-0.5-1.6,0.6-2c0.6,0,1.2,0,1.9-0.1c0.2,0,0.3,0.1,0.4,0.3c0.4,0.5,0.7,1,1.1,1.4C559.8,108.2,559.3,108.5,559,108.8
							z"/>
						<path class="st42" d="M558.2,106.2c-0.1,0-0.2,0-0.4-0.1c-0.5-0.2-0.7-0.6-0.5-1.1c0.2-0.3,0.4-0.6,0.8-0.3
							C558.6,105.3,558.1,105.8,558.2,106.2z"/>
						<path class="st2" d="M559,108.8c0.1-0.4,0.2-0.7,0.3-1.1c0.1-0.1,0.3-0.2,0.4-0.4C559.7,107.9,560.5,108.9,559,108.8z"/>
						<path class="st49" d="M558.9,104c0.1-0.1,0.2-0.2,0.4-0.4c0.3,0.5,0.1,0.8-0.2,1.2C559,104.6,559,104.3,558.9,104z"/>
						<path class="st36" d="M558.2,104.8c-0.2,0.1-0.5,0.2-0.7,0.3c-0.1,0-0.2-0.1-0.2-0.1c-0.1-0.3-0.5-0.6,0.2-0.6
							c0.2-0.1,0.5-0.2,0.7-0.4C558.2,104.3,558.2,104.6,558.2,104.8z"/>
						<path class="st32" d="M558.3,99.7c-0.1-0.3-0.5-0.6,0-0.9c0.4-0.2,0.6,0.2,0.7,0.5C558.8,99.6,558.6,99.6,558.3,99.7z"/>
						<path class="st29" d="M559.3,121.8c0.1-0.1,0.2-0.3,0.3-0.4c0.4-0.2,0.3-1.3,1.1-0.7c0.1,0.4,0.3,0.7,0.4,1.1
							c-0.2,0.4-0.7,0.4-1.1,0.4c-0.2,0.1-0.3,0.1-0.4,0C559.6,122,559.5,121.9,559.3,121.8z"/>
						<path class="st50" d="M559.7,122.2c0.1,0,0.3,0,0.4,0c0.1,0.2,0.2,0.4,0.4,0.6c-0.4,0.2-0.8-0.1-1.1-0.2
							C558.9,122,559.6,122.3,559.7,122.2z"/>
						<path class="st51" d="M568.7,109.5c-0.2,0.1-0.4,0.2-0.6,0.3c-0.4-0.1-0.2-0.5-0.4-0.8c0-0.4-0.1-0.8,0.3-1
							c0.1,0.5,0.2,0.9,0.8,0.3C569.4,108.7,568.8,109.1,568.7,109.5z"/>
						<path class="st52" d="M554.6,121.8c0.1-0.6-0.2-1.3,0.3-1.8c0.9,0.1,0.4,0.8,0.6,1.2c0,0.2-0.1,0.5-0.3,0.6
							C555.1,121.8,554.8,121.8,554.6,121.8z"/>
						<path class="st3" d="M556.5,120.7c0.1,0.2,0.2,0.4,0.4,0.7c-0.1,0.1-0.3,0.3-0.4,0.4c-0.6,0.4-0.8,0-0.9-0.5
							c0-0.3,0.2-0.5,0.5-0.7C556.2,120.6,556.3,120.6,556.5,120.7z"/>
						<path class="st22" d="M555.7,121.1c0,0.5,0.3,0.7,0.7,0.7c-0.4,0.5-0.7,0.5-1.1,0c0-0.2,0-0.5,0.1-0.7
							C555.4,121,555.6,121,555.7,121.1z"/>
						<path class="st53" d="M555.7,121.1h-0.2h-0.2c-0.6-0.2,0.1-0.9-0.4-1.1c0-0.2,0-0.5,0-0.7c0.3,0.2,0.5,0.4,0.8,0.7
							c0.2,0.2,0.4,0.5,0.3,0.8C555.9,120.9,555.8,121,555.7,121.1z"/>
						<path class="st32" d="M564.8,114.5c-0.1-1.3,1.2,0,1.4-0.7c0.3,0.2,0.4,0.5,0.4,0.8c0.3,0.6,1.6,0.4,1.5,1.5
							c0,0.3,0,0.7-0.1,1c-0.1,0-0.3,0-0.4,0C566.6,116.3,565.5,115.6,564.8,114.5z"/>
						<path class="st54" d="M568.1,116c-0.3-0.7-1.5-0.5-1.5-1.5c0.4-0.5,1.2,0.6,1.5-0.4c0.3,0,0.5,0,0.8,0
							C568.8,114.9,568.8,115.6,568.1,116z"/>
						<path class="st18" d="M567.7,109.1c0.3,0.1,0.4,0.5,0.4,0.8c-0.4,0.4-0.8-0.2-1.1,0.1c0-0.1,0-0.3,0-0.4
							C567.1,109.1,567.6,109.5,567.7,109.1z"/>
						<path class="st55" d="M564.8,114.5c1.2,0.6,2.4,1.2,2.8,2.6c-0.2,0.6-0.5,1.2-0.7,1.8c-0.2,0.1-0.4,0.2-0.7,0.4
							c-0.4,0.1-0.7-0.4-1.1,0c-0.2-0.3-0.5-0.5-0.7-0.8l0,0c-0.4-0.4-0.9-0.7-1.3-1.1c-0.5-0.6-0.3-1.3-0.2-2
							c0.2-0.7,0.7-1.1,1.5-0.9C564.5,114.5,564.6,114.5,564.8,114.5z"/>
						<path class="st42" d="M553.5,106.6c-0.4-0.2-0.7-0.5-1.1-0.7c-0.1-0.1-0.2-0.2-0.3-0.4c0.1,0,0.2,0,0.3,0
							c0.4-0.3-0.2-0.7,0.1-1c0.3-0.1,0.7-0.3,1-0.4c0.1,0,0.2,0,0.3,0c0.4,0.3,0.6,0.6,0.5,1.1C554.1,105.6,554,106.2,553.5,106.6z
							"/>
						<path class="st50" d="M552.4,104.4c0.1,0.3,0.6,0.7-0.1,1C552.7,105.1,551,104.7,552.4,104.4z"/>
						<path class="st56" d="M554.3,105.1c-0.1-0.3-0.3-0.7-0.4-1c0.7-0.5-0.2-1,0-1.5c0-0.4,0-0.8,0.1-1.1c0.1,0,0.2,0,0.3,0
							c0.9-0.2,0.8,1,1.5,1.1l0,0c0.4,0.8,0.4,1.5-0.1,2.3c-0.3,0.3-0.6,0.5-1.1,0.4C554.4,105.2,554.3,105.1,554.3,105.1z"/>
						<path class="st30" d="M555.7,102.5c-1,0.3-0.8-1-1.5-1.1c0.1-0.3,0.4-0.5,0.7-0.7c0.3,0.3,0.5,0.6,0.8,1
							C555.7,102,555.7,102.3,555.7,102.5z"/>
						<path class="st57" d="M555.7,114.6c-0.7,0-0.5-0.4-0.3-0.8c0.5-0.2,0.7-0.6,1-1s0.6-0.7,1-0.9c0.9-0.4,1.9-0.4,2.4,0.4
							c0.5,0.9,0.3,1.9-0.6,2.7c-0.8,0.3-1.6,0.6-2.5,0.5C556.1,115.4,556,114.9,555.7,114.6z"/>
						<path class="st58" d="M556.5,115.2c0.8-0.1,1.7-0.2,2.5-0.3c0.2-0.2,0.5-0.2,0.8,0c0.4,0.7,0.2,1.2-0.2,1.8
							c-0.1,0.1-0.3,0.2-0.4,0.2c-0.2,0.1-0.3-0.7-0.6-0.1c-0.2,0.3-0.3,0.8-0.6,1c-0.5,0-1-0.1-1.1-0.7c0.1-0.1,0.3-0.3,0.2-0.5
							c-0.1,0.1-0.1,0.2-0.2,0.2c-0.4-0.3-0.9-0.6-1-1.2C555.9,115.3,556.1,115,556.5,115.2z"/>
						<path class="st59" d="M561.1,116.7c-1.1,1,0.1,1.7,0.4,2.5c-0.2,0-0.4,0.1-0.7,0.1c-0.9,0-1.1-0.7-1.3-1.3c0.3-0.3,0-0.7,0-1
							c0.4-0.7,0.7-1.3,0.4-2.1c0.2-0.3,0.4-0.5,0.8-0.3c0.1,0.1,0.3,0.2,0.4,0.3c0.1-0.1,0.2-0.2,0.4-0.1c0.3,0.2,0.6,0.4,0.9,0.7
							c0.6,0.7-0.1,0.9-0.5,1.3C561.7,117,561.4,116.8,561.1,116.7z"/>
						<path class="st58" d="M552.8,110.6c0.1-0.2,0.3-0.5,0.4-0.7c0.6-0.8,1.2-0.8,1.9-0.2c0.3,0.3,0.5,0.8,0.6,1.2
							c0.1,0.6,0.1,1.3-0.1,1.9c-0.1,0.2-0.2,0.3-0.4,0.4c-0.3-0.3-0.3-0.6-0.3-1C555.1,110.5,554.3,110,552.8,110.6z"/>
						<path class="st60" d="M559.7,117.1c0,0.2,0.4,0.5,0,0.7c-0.2,0.3,0,0.7-0.4,0.9c-0.5-0.3-0.9-0.7-1.4-1c0-0.5-0.2-1,0.3-1.4
							c0.2,0.2,0.5,0.4,0.8,0.3c0.1,0,0.1,0,0.2,0C559.5,116.7,559.6,116.9,559.7,117.1z"/>
						<path class="st18" d="M559.2,118.8c0.1-0.3,0.1-0.7,0.4-0.9c0.4,0.5,0.8,1,1.2,1.5C560.1,119.7,559.4,119.9,559.2,118.8z"/>
						<path class="st61" d="M560.7,120.8c-0.6-0.1-0.7,0.6-1.1,0.7c0.1-0.5-0.3-1.1,0.4-1.3C560.5,119.9,560.8,120.2,560.7,120.8z"
							/>
						<path class="st58" d="M556.4,113.1c-0.1,0.7-0.2,1.2-1.1,0.7c0-0.2-0.1-0.4-0.1-0.6l0.1-0.1c0.2-0.2,0.4-0.2,0.7-0.2
							C556.2,112.9,556.3,113,556.4,113.1z"/>
						<path class="st62" d="M556,120.7c-0.3-0.2-0.4-0.5-0.3-0.8c0.4,0.1,1,0,0.8,0.8C556.3,120.7,556.2,120.7,556,120.7z"/>
						<path class="st63" d="M556.7,116.8c0.1-0.3,0.1-0.5,0.2-0.8c0,0.4,1.1,0.9-0.1,1.1C556.7,117,556.7,116.9,556.7,116.8z"/>
						<path class="st64" d="M556.5,115.2c-0.3,0.1-0.5,0.3-0.8,0.4c0-0.4,0-0.7,0-1.1C556.1,114.6,556.4,114.8,556.5,115.2z"/>
						<path class="st31" d="M553.5,106.6c0-0.6,0.1-1.2,0.8-1.5l0,0c0.4,0.7,1.1,0.3,1.6,0.6c0.2,0.2,0.4,0.3,0.2,0.6
							c-0.8,0.4-0.6,1.1-0.4,1.7c0.3,0.4,0.1,0.7-0.2,1c-0.7,0.3-1.4,0.7-2-0.2C553.4,108,552.9,107.3,553.5,106.6z"/>
						<path class="st31" d="M553.5,108.7c0.6,0.5,1.2,0,1.8,0c0.3,0.5,0.1,0.9-0.4,1.1c-0.6-0.4-1.2-0.1-1.8,0
							C552.6,109.3,552.7,108.9,553.5,108.7z"/>
						<path class="st65" d="M556,113c-0.2,0-0.4,0-0.6,0c0-0.7,0-1.4,0-2.1c1.2,0,1.2-1.1,1.8-1.8c0.2-0.1,0.3,0.1,0.3,0.3
							c0.2,1,0.6,1.8,1.6,2.2c0.9,0.4,1.9,0.8,1.1,2.1c-0.1,0.1,0.3,0.6,0.5,0.9c-0.2,0.1-0.5,0.2-0.7,0.4c-0.1,0.2-0.3,0.1-0.4,0
							c-0.2,0-0.4,0-0.6,0c0.6-0.8,1-1.7,0.4-2.6c-0.6-0.9-1.5-0.1-2.2,0C556.8,112.6,556.3,112.8,556,113z"/>
						<path class="st66" d="M562.2,115.6c-0.5,0-0.7-0.1-0.7-0.7c0-0.2,0.1-0.4,0.3-0.4c0.9,0.1,0.7-1,1.4-1.2
							c0.7,0.1,0.9,0.6,1.1,1.2c-0.5,0.3-1,0.4-1.1,1.1C562.9,115.9,562.6,115.3,562.2,115.6z"/>
						<path class="st41" d="M561.9,114.6c-0.1,0.1-0.2,0.3-0.3,0.4c-0.1,0-0.3-0.1-0.4-0.1c0.1-0.4,0.1-0.9,0.6-1.1
							C561.8,114,561.8,114.3,561.9,114.6z"/>
						<path class="st36" d="M556.1,106.3c-0.1-0.1-0.3-0.3-0.4-0.4c-0.3-0.3-0.7-0.5-0.4-1c0.6-0.7,0-1.5,0.4-2.3
							c0.6-0.5,1.2-0.1,1.8,0c0.2,0.7-0.3,1-0.7,1.4c0.1,0.1,0.2,0.2,0.1,0.3c-0.1,0.5-0.2,1,0.6,0.8l0,0c0.1,0.4,0.2,0.7,0.4,1.1
							C557.3,106.7,556.7,106.5,556.1,106.3z"/>
						<path class="st59" d="M557.5,105.1c-0.3,0.1-0.9,0.5-0.9,0.4c-0.4-0.5,0.3-1,0.2-1.5c0.3,0,0.6,0.1,0.7,0.4
							C557.1,104.6,557.5,104.9,557.5,105.1z"/>
						<path class="st64" d="M562.2,115.6c0.3-1.5,0.7-0.1,1.1,0c0.1,0.6-0.4,1.2,0,1.8c0.2,0.2,0.1,0.3,0,0.5
							c-0.9,0.1-0.4-1.2-1.2-1.2l0,0C562,116.4,562.7,116.1,562.2,115.6z"/>
						<path class="st67" d="M562,116.7C562,116.7,562.1,116.7,562,116.7c0.1,0.2,0.3,0.5-0.2,0.5c-0.4,0-0.8,0.1-0.7-0.5
							C561.4,116.4,561.7,116.8,562,116.7z"/>
						<path class="st7" d="M563.3,117.9c0-0.2,0-0.3,0-0.5c0.6,0.2,1,0.5,1.1,1.1c-0.2,0-0.5,0-0.7,0
							C563.5,118.4,563.4,118.2,563.3,117.9z"/>
						<path class="st68" d="M557.2,109.2c0,0.3,0,0.6,0,0.9c-0.1,1.3-0.6,1.6-1.8,0.9c-0.1-0.4-0.3-0.7-0.4-1.1
							c0.1-0.4,0.3-0.7,0.4-1.1c0.1-0.3,0.2-0.5,0.4-0.8C556.2,108.4,556.7,108.8,557.2,109.2z"/>
						<path class="st69" d="M555.3,104.8c0.1,0.3,0.2,0.7,0.4,1c-0.7,0.1-1.6,0.7-1.4-0.8C554.6,105,554.9,104.9,555.3,104.8z"/>
						<path class="st70" d="M556,113c0.1-0.7,0.7-0.7,1.2-0.7c-0.2,0.2-0.5,0.5-0.7,0.7C556.3,113.1,556.1,113.1,556,113z"/>
						<path class="st25" d="M559.7,114.9c0.1,0,0.2,0,0.4,0c1.2,1,0.4,1.5-0.4,2.1c-0.1-0.1-0.3-0.3-0.4-0.4
							C559.4,116.1,559.9,115.6,559.7,114.9z"/>
						<path class="st68" d="M559,116.7c-0.6,0.7-0.7,0.2-0.8-0.3C558.8,115.6,558.9,116.1,559,116.7z"/>
						<path class="st65" d="M554.8,107.4c-0.1,0.3-0.3,0.5-0.5,0.4c-0.2-0.1-0.3-0.4-0.3-0.6s0.2-0.5,0.5-0.3
							C554.6,107,554.7,107.2,554.8,107.4z"/>
					</g>
					<g>
						<path class="st2" d="M504.4,96c-1.2-0.3-1.7-1.5-2.5-2.2c-2.2-2-4.8-2.8-7.7-3c-0.8,0-1.5-0.2-2.3-0.2c-1,0.4-2.1-0.2-3.1,0.3
							c-1.2,0.3-2.3,0.5-3.5,0.8c-0.4,0.1-0.9,0.3-0.9-0.5c7.2-2.5,14-2.1,20,2.9c0.4,0.3,0.7,0.7,0.8,1.2
							C505,95.6,504.8,95.9,504.4,96z"/>
						<path class="st2" d="M476,117.1c-2.5-3.9-2.9-8.2-2.3-12.6c0.2-1.4,0.4-2.9,1.1-4.4c-1.3,0.2-2.3,0.6-3.9,0
							c2.1-0.3,3.6-1,5.1-2c0,1.5-0.5,2.6-0.9,3.8c-1.5,4.8-1.1,9.4,0.9,13.9c0.1,0.3,0.1,0.6,0.1,0.9
							C476.2,116.8,476.2,117,476,117.1z"/>
						<path class="st2" d="M484.4,91.2c0.2,0.4,0.6,0.4,0.9,0.5c-2.5,1.2-5.1,2.5-8,2.6c-1.8,0.1-3.4-0.2-4.8-1.5
							C476.7,93.8,480.6,93.1,484.4,91.2z"/>
						<path class="st71" d="M506.9,105.1c-0.6-1.2,0.9-1.7,0.9-2.7c0.8,0.3,0.5,1.1,0.8,1.6c0.2,0.3,0.2,0.7,0.2,1.1
							c0.2,1,0.3,1.9,0.3,2.9c0,0.7,0,1.4,0,2.1c-0.2,1.2,0,2.5-1,3.3c-0.2-0.1,0-0.8-0.4-0.3c-0.3,0.4-0.3,1-0.8,1.2
							c-0.6-0.7-0.4-1.5-0.1-2.2c0.6-0.8,0.2-1.7,0.4-2.6c1-1.7-0.2-3.4,0.2-5.1v0.1C507.3,104.9,507.1,105.1,506.9,105.1z"/>
						<path class="st72" d="M487.6,111.7c-0.6-1.7-0.2-3.4-0.2-5.1c0.5-0.2,0.7,0.2,1,0.5c0.1,0.2,0.2,0.4,0.4,0.6
							c0.2,0.3,0.3,0.6,0.4,0.9c0.1,0.8-0.1,1.6,1,1.8c0.3,0.8,0.3,1.6,0.1,2.4c-1.2,1.8-1.2,0.1-1.6-0.5
							C488.3,111.9,488,111.9,487.6,111.7z"/>
						<path class="st73" d="M487.4,106.2c0.3-0.8-0.1-1.8,1.1-2.2c0.5-0.7,1.3-0.3,2-0.5c0.2,0,0.3,0.1,0.4,0.3c0.3,1,0.8,2,1.2,2.9
							c0.3,0.6-0.1,1-0.6,1.2c-0.2,0-0.3,0.1-0.5,0.1c-0.5,0-0.8-0.3-1-0.7c-0.1-0.4-0.3-0.9-0.6-1.2c-0.2-0.2-0.4-0.3-0.7-0.2
							C488.3,106.1,487.9,106.4,487.4,106.2z"/>
						<path class="st67" d="M492.4,96.8c0.8-1.1,2.4-0.9,3.3-1.8c0.4,0.4,0.4,1,0.4,1.5c0,0.2,0,0.4,0,0.5c0,0.3-0.1,0.5-0.2,0.8
							c-0.3,0.5-0.8,0.9-1.3,1.2c-0.5,0.1-1,0-1.4-0.3c-0.3-0.2-0.4-0.5-0.6-0.8C492.4,97.6,492.3,97.3,492.4,96.8z"/>
						<path class="st74" d="M506.2,116.7c-0.7,1-1,2.3-2.4,2.6c-0.4-0.1-0.6-0.3-0.7-0.7c-0.1-0.5,0.6-1,0-1.6c0-0.2,0-0.3,0.1-0.5
							c0.5-1,1.4-1.3,2.4-1.4C506.4,115.4,505.8,116.3,506.2,116.7z"/>
						<path class="st75" d="M501.9,97.8c-1.1,0-1.6,1.1-2.4,1.6c-0.1,0.1-0.3,0.1-0.4,0.1c-0.1-0.1-0.3-0.2-0.4-0.3
							c-0.4-0.4-0.8-0.8-0.9-1.4c0-0.2,0-0.3,0.1-0.5c0.3-0.5,0.6-1,1.1-1.3c0.6-0.6,1-0.2,1.3,0.3c0.3,0.5,1,0.3,1.4,0.7
							C501.8,97.2,502,97.4,501.9,97.8z"/>
						<path class="st31" d="M504.4,96c-0.3-0.8,0.3-0.8,0.8-0.7c0.3,0.2,0.7,0.5,1,0.7c0.2,0.7,0.6,1.3,1.3,1.8
							c0.5,0.7,1.4,1.4,0.2,2.2c-0.4,0.1-0.7-0.2-1-0.4c-0.5-0.5-0.3-1.5-1.1-1.8C505.3,97.1,504.9,96.6,504.4,96L504.4,96z"/>
						<path class="st76" d="M503.3,118.6c0.1,0.3,0.3,0.5,0.4,0.8c-0.9,1.2-2,2.2-3.7,2.2c-0.3,0.1-0.5-0.1-0.6-0.4
							c-0.1-0.5,0.1-0.9,0.4-1.2c0.5-0.5,1.2,0,1.7-0.5c0.1-0.2,0.1-0.4,0.3-0.6c0.3-0.2,0.7-0.3,1.1-0.4
							C503,118.4,503.2,118.4,503.3,118.6z"/>
						<path class="st32" d="M497.9,97.5c0,0.1,0,0.2,0,0.3c0.2,0.4-0.1,0.5-0.3,0.6c-0.5,0.1-0.9-0.1-1-0.6c0.1-0.7-0.5-0.7-0.9-1
							c0-0.6,0-1.1,0-1.7c0.7,0,1.4,0,2.1-0.1C498.7,95.8,498.3,96.6,497.9,97.5z"/>
						<path class="st44" d="M499.7,121.2c0.1,0.1,0.3,0.3,0.4,0.4c-1.3,1.1-2.2-0.8-3.4-0.5c-0.4-0.3-1.2,0-1.3-0.8
							c-0.1-0.6,0-1.1,0.8-1.2c0.5,0,0.9,0.2,1.3,0.4c0.4,0.3,0.8,0.5,1.3,0.6C499.4,120.1,499.5,120.7,499.7,121.2z"/>
						<path class="st23" d="M501.5,106.6c1,0.9,2.4,1.1,3.3,2.2c1.1,1.1,1,1.7-0.5,2.7c-0.3,0-0.5-0.2-0.6-0.4
							c-0.2-0.4-0.1-0.7-0.1-1.1c0-0.3-0.3-0.5-0.5-0.6c-0.1-0.1-0.2-0.2-0.3-0.3c-0.2-0.4-0.4-0.7-0.8-1c-0.2-0.2-0.3-0.3-0.4-0.5
							C501.5,107.2,501.3,106.9,501.5,106.6z"/>
						<path class="st73" d="M506.2,116.7c-0.6-0.3-0.1-1.1-0.6-1.5c-0.4-0.3-0.1-0.6,0-0.8c0.1-0.3,0.2-0.6-0.1-0.8
							c-0.5-0.4-1.1-0.7-1-1.4c0.1-0.8,0.8-0.5,1.2-0.6c0.2-0.1,0.4-0.1,0.7-0.1c0.4,0.1,1,0.1,0.9,0.8c-0.6,0.7-0.2,1.5-0.4,2.2
							C506.1,115.1,506.2,115.9,506.2,116.7z"/>
						<path class="st77" d="M505.9,112c-0.4,0.5-0.7-0.2-1.1,0c-0.4,0.3-0.8,0.3-1.2-0.1c-0.1-0.3,0.1-0.5,0.4-0.6
							c1.2-0.5,1.2-1.5,0.8-2.5c0.2-0.1,0.5-0.3,0.7-0.4c0.2-0.2,0.5-0.2,0.7-0.1c0.3,0.4,0.2,1,0.2,1.5
							C506.3,110.5,506.3,111.3,505.9,112z"/>
						<path class="st78" d="M506.9,105.1c0.2-0.2,0.3-0.5,0.8-1.2c-0.3,2.3,1.2,4.1-0.3,6c-0.4-0.1-0.6-0.3-0.7-0.7
							c0-0.2,0-0.3,0-0.5c0.3-0.6,0.3-1.3-0.2-1.8C506.7,106.3,507.1,105.8,506.9,105.1z"/>
						<path class="st21" d="M488.5,102.6c-0.2-1.1,0.6-1.7,1-2.5c0.4-0.2,0.7,0,1,0.3c0.2,0.2,0.3,0.5,0.4,0.7
							c0.1,0.7,0.1,1.4-0.7,1.8C489.6,103.1,489,103.1,488.5,102.6z"/>
						<path class="st79" d="M493.9,120.7c-1.1-0.3-2.1-0.6-2.6-1.8c-0.2-0.3,0-0.4,0.3-0.5c0.5,0.1,0.8,0.4,1.3,0.5
							c0.8,0,1.7,0.1,2.4-0.4c0.5,0.6,0.1,1.2,0.1,1.8C495.1,120.9,494.4,120.4,493.9,120.7z"/>
						<path class="st20" d="M497.9,97.5c0-0.8,0-1.7,0-2.5c1.1-0.1,2.1,0,3,0.6c0,0.2-0.1,0.4-0.2,0.6c-0.2,0.2-0.3,0.4-0.6,0.6
							c-0.4-0.2-0.5-1.4-1.2-0.3C498.6,96.9,498.4,97.3,497.9,97.5z"/>
						<path class="st80" d="M487.6,111.7c0.5-0.3,0.9-0.3,1.2,0.3c0.4,0.7-0.4,1.7,0.8,2.1c0.2,0.2,0.4,0.5,0.5,0.9
							c0.1,0.3,0.1,0.7,0,1c-0.1,0.2-0.3,0.4-0.6,0.3C488.1,115.1,488,113.3,487.6,111.7z"/>
						<path class="st56" d="M492.4,96.8c0.1,0.3,0.2,0.6,0.3,0.9c-0.7,0.2-0.3,0.5,0,0.8c0.2,0.6,0.4,1.1-0.3,1.5
							c-0.5,0-0.8-0.6-1.3-0.3c-0.3-0.2-0.7-0.3-0.5-0.8c0.1-0.3,1.2-0.2,0.2-0.8C491.2,97.5,491.9,97.2,492.4,96.8z"/>
						<path class="st31" d="M508.1,113.5c0.5-1,0.5-2.2,0.7-3.3c0.9,0.3,0.4,1,0.4,1.6c0.1,1.1-0.1,2.2-0.7,3.1
							c-0.1,0.1-0.3,0.1-0.4,0C508.1,114.5,508.1,114,508.1,113.5z"/>
						<path class="st81" d="M501.5,106.6c0.1,0.3,0.2,0.5,0.3,0.8c-0.2,0.9-0.6,1.1-1.3,0.4c-0.4-0.5-0.8-1-0.8-1.7
							c0-0.4,0.1-0.8,0.4-1.1C501.1,105.1,500.9,106.2,501.5,106.6z"/>
						<path class="st31" d="M508.1,114.9c0.1,0,0.3,0,0.4,0c-0.2,1.3-0.6,2.6-1.6,3.6c-0.3,0-0.5,0-0.3-0.4
							C507.1,117.1,507.6,116,508.1,114.9z"/>
						<path class="st31" d="M509.2,111.8c-0.2-0.5,0.1-1.2-0.4-1.6c0-0.7,0-1.5,0-2.2c0.3-0.5-0.1-1.1,0.4-1.5
							C509.6,108.2,509.6,110,509.2,111.8z"/>
						<path class="st82" d="M500.1,105c0,0.4-0.1,0.8-0.1,1.2c-0.2,0.1-0.3,0.1-0.5,0.1c-1.2-0.7-1.5-1.6-0.5-2.7
							c0.3-0.1,0.5-0.1,0.8,0.1C500.2,104,500,104.6,500.1,105z"/>
						<path class="st22" d="M489.5,116.4c0.2-0.1,0.3-0.2,0.5-0.4c0.5-0.2,0.9,0,1.3,0.2c0.4,0.3,0.5,0.8,0.4,1.2
							c-0.1,0.5-0.3,0.8-0.7,1.1C490.5,117.8,489.6,117.4,489.5,116.4z"/>
						<path class="st83" d="M506.5,106.9c2,0.2,1,1.1,0.4,1.8c-0.4,0.2-0.6-0.1-0.7-0.4c-0.3,0-0.5,0-0.8,0
							C506.2,108.1,506.2,107.4,506.5,106.9z"/>
						<path class="st2" d="M476,117.1c0-0.2,0-0.3,0.1-0.5c1.1,0.6,1.5,1.7,2.1,2.6c0,0.2-0.2,0.4-0.4,0.5
							C477,119,476.5,118.1,476,117.1z"/>
						<path class="st80" d="M490.9,98.1c0.7,0.3-0.2,1.2,0.5,1.5c-0.2,0.6-0.6,0.7-1.1,0.7c-0.2-0.1-0.4-0.2-0.7-0.3
							C489.9,99.4,490.2,98.6,490.9,98.1z"/>
						<path class="st13" d="M487.4,106.2c0.5-0.2,0.9-0.5,1.4-0.7c0.5,0.9,1.1,1.8-0.7,1.8c-0.2-0.2-0.5-0.5-0.7-0.7
							C487.4,106.4,487.4,106.3,487.4,106.2z"/>
						<path class="st84" d="M499,99.3c0.2,0,0.3,0,0.5,0c0,0.8,0,1.6,0,2.5c-0.1,0.3-0.3,0.5-0.6,0.5c-0.2,0-0.4-0.1-0.5-0.3
							C498,101,498,100,499,99.3z"/>
						<path class="st85" d="M500.4,96c0.1-0.1,0.3-0.3,0.4-0.4c0.7,0.2,1.3,0.5,1.8,1.1c0,0.2,0,0.5-0.1,0.7
							c-0.1,0.1-0.2,0.2-0.3,0.3c-0.1,0-0.2,0-0.3,0.1c-0.1-0.2-0.2-0.4-0.3-0.5C501.5,96.5,500.5,96.7,500.4,96z"/>
						<path class="st86" d="M509.2,106.5c-0.2,0.5,0.1,1.1-0.4,1.5c-0.1-1-0.2-1.9-0.3-2.9c0.2-0.3-0.1-0.8,0.3-1.1
							C509.2,104.8,509.3,105.6,509.2,106.5z"/>
						<path class="st76" d="M493.9,120.7c0.4-0.5,0.9-0.2,1.4-0.3c0.1-0.1,0.2-0.1,0.3,0c0.3,0.2,0.7,0.5,1,0.7
							C495.7,121.2,494.8,121.2,493.9,120.7z"/>
						<path class="st2" d="M505.9,120c-0.3,0.7-0.8,1.2-1.4,1.6c-0.2-0.2-0.2-0.4-0.1-0.7c0.4-0.4,0.8-0.9,1.1-1.3
							C505.8,119.5,506,119.6,505.9,120z"/>
						<path class="st31" d="M507.5,97.8c-0.8-0.4-1.7-0.6-1.3-1.8C507,96.4,507.1,97.2,507.5,97.8z"/>
						<path class="st25" d="M490.2,103.7c-0.4,1.1-1.3-0.4-1.8,0.4c0-0.1,0-0.2,0-0.4c0.4-0.8,1-0.8,1.8-0.5
							C490.3,103.3,490.4,103.5,490.2,103.7z"/>
						<path class="st2" d="M505.9,120c-0.1-0.1-0.3-0.3-0.4-0.4c0.2-0.6,0.6-1.1,1.1-1.5c0.1,0.1,0.2,0.3,0.3,0.4
							C506.6,119.1,506.4,119.7,505.9,120z"/>
						<path class="st87" d="M490.2,103.3c-0.6,0-1.3,0.1-1.8,0.4c-0.5-0.2-0.3-0.5,0-0.7c0.5-0.3,1.1-0.1,1.7-0.1
							C490.3,102.9,490.3,103.1,490.2,103.3z"/>
						<path class="st2" d="M499.4,124.8c-0.6,0.4-1.2,0.6-1.9,0.6c-0.1-0.1-0.2-0.2-0.1-0.3c0-0.1,0.1-0.1,0.1-0.1
							c0.5-0.2,1-0.4,1.5-0.6C499.2,124.5,499.4,124.5,499.4,124.8z"/>
						<path class="st2" d="M488.8,90.9c1-0.7,2.1-0.2,3.1-0.3C490.9,90.9,489.8,90.9,488.8,90.9z"/>
						<path class="st2" d="M504.4,121c0,0.2,0.1,0.4,0.1,0.7c-0.4,0.5-0.8,0.9-1.7,1.3C503.1,121.8,503.8,121.5,504.4,121z"/>
						<path class="st31" d="M507.8,102.2c-0.2-0.4-0.4-0.8-0.6-1.3c-0.1-0.4,0-0.6,0.4-0.5c0.3,0.4,0.5,0.8,0.5,1.3
							C508.2,102,508.2,102.2,507.8,102.2z"/>
						<path class="st2" d="M477.8,119.8c0.1-0.2,0.3-0.3,0.4-0.5c0.4,0.4,0.8,0.8,1,1.5C478.4,120.9,478.2,120.2,477.8,119.8z"/>
						<path class="st34" d="M499,102.1c0.2-0.1,0.3-0.2,0.5-0.4c0.7,0.5,0.3,1.2,0.3,1.8c-0.3,0-0.5,0-0.8,0c0-0.1-0.1-0.1-0.1-0.2
							s0-0.3,0-0.4C498.8,102.7,498.9,102.4,499,102.1z"/>
						<path class="st88" d="M507.8,102.2c0.1-0.2,0.2-0.3,0.3-0.5c0.2,0.5,0.4,1.1,0.6,1.6c-0.2,0.2,0,0.6-0.3,0.8
							c-0.2-0.5-0.4-1.1-0.6-1.6C507.8,102.4,507.8,102.3,507.8,102.2z"/>
						<path class="st2" d="M494.6,125.8c-0.7,0.3-1.5,0.1-2.2-0.3c0.7,0,1.5,0,2.2,0c0.1,0.1,0.1,0.1,0.1,0.2
							C494.7,125.8,494.6,125.8,494.6,125.8z"/>
						<path class="st88" d="M504.4,96c0.7,0.4,1.3,0.9,1.1,1.8C504.9,97.4,504.5,96.8,504.4,96z"/>
						<path class="st2" d="M500.4,123.9c0.4-0.1,0.9-1,1.2-0.2c0.2,0.5-0.7,0.5-1.2,0.7C500.2,124.2,500.2,124.1,500.4,123.9z"/>
						<path class="st2" d="M500.4,123.9c0,0.2,0,0.3,0,0.5c-0.3,0.2-0.7,0.3-1,0.5c-0.1-0.1-0.3-0.3-0.4-0.4
							C499.4,124.2,499.9,124.1,500.4,123.9z"/>
						<path class="st29" d="M502.2,97.7c0-0.1,0-0.2,0-0.3c0.3-0.3,0.7-0.1,1.1-0.2c0.3,0.1,0.6,0.2,0.6,0.5
							c-0.1,0.3-0.4,0.2-0.6,0.1C502.9,97.8,502.6,97.8,502.2,97.7z"/>
						<path class="st89" d="M490.9,118.6c0.1-0.4,0.3-0.8,0.4-1.1c0.3-0.1,0.5,0.1,0.6,0.4c0,0.3,0,0.5-0.2,0.7
							c-0.1,0.1-0.2,0.3-0.4,0.4C491.2,118.8,491.1,118.7,490.9,118.6z"/>
						<path class="st2" d="M494.6,125.8c0-0.1,0-0.2,0-0.3c0.5,0,0.9-0.1,1.4-0.1c0.4-0.2,0.4,0,0.4,0.3
							C495.8,125.8,495.2,125.8,494.6,125.8z"/>
						<path class="st2" d="M481.1,122.5c-0.7,0.2-1.1-0.1-1-0.5c0.1-0.7,0.5-0.1,0.7,0C480.9,122.1,480.9,122.3,481.1,122.5z"/>
						<path class="st88" d="M503.3,97.1c-0.3,0.4-0.7,0.2-1.1,0.2c0-0.3,0.1-0.5,0.4-0.7C502.9,96.9,503.1,97,503.3,97.1z"/>
						<path class="st31" d="M507.7,100.4c-0.1,0.2-0.3,0.4-0.4,0.5c-0.2-0.4-0.4-0.8-0.6-1.3c0.5-0.2,0.7,0.2,1,0.4
							C507.7,100.2,507.7,100.3,507.7,100.4z"/>
						<path class="st2" d="M496.4,125.7c-0.1-0.1-0.3-0.2-0.4-0.3c0.5-0.3,1-0.4,1.5-0.4c0,0.1,0,0.3,0,0.4
							C497.1,125.5,496.8,125.6,496.4,125.7z"/>
						<path class="st90" d="M490.2,103c-0.6,0-1.2,0-1.8-0.1c0-0.1,0-0.2,0.1-0.3c0.6,0,1.2,0,1.8,0
							C490.3,102.7,490.3,102.9,490.2,103z"/>
						<path class="st31" d="M508.4,104.1c0.1-0.3,0.2-0.5,0.3-0.8c0,0.2,0.1,0.4,0.1,0.7c-0.1,0.4,0,0.8-0.3,1.1
							C508.5,104.7,508.4,104.4,508.4,104.1z"/>
						<path class="st91" d="M506.9,109.1c0.2,0.3,0.3,0.5,0.5,0.8c0.4,0.8,0.5,1.6-0.1,2.4c-0.3-0.2-0.7-0.4-1-0.6
							c-0.6-0.6,0-1.2-0.2-1.8C506.4,109.7,506.3,108.9,506.9,109.1z"/>
						<path class="st92" d="M489.9,113.1c0-1,0-1.9,0-2.9c-0.1-1.1,0.7-1.5,1.5-2c0.7,0,1.2,0.4,1.6,0.9c0.3,0.6,0.2,1.2,0.3,1.8
							c0,0.4,0.1,0.8,0.3,1.2c0.5,0.9,1,1.9,2,2.5c0.2,0.2,0.3,0.5,0.5,0.8c0.2,0.3,0.4,0.4,0.7,0.3c0.7-0.4,1-0.1,1.2,0.6
							c0.1,0.6,0.2,1.1,0.1,1.7c-0.2,0.4-0.5,0.7-0.8,0.9c-0.3,0.1-0.6,0-1-0.1c-0.5-0.1-0.8-0.6-1.4-0.5c-0.7,0.2-1.3-0.3-1.8-0.6
							c-0.3-0.3-0.7-0.5-0.8-0.9c-0.3-1.4-1.6-2.1-2.5-3C489.6,113.6,489.7,113.3,489.9,113.1z"/>
						<path class="st63" d="M491.3,108.5c-0.5,0.6-1,1.2-1.5,1.7c-0.6,0-0.9,0.4-1.8,0.9c0.6-1.1,0.7-1.9,0.7-2.7
							c0.4-0.2,0.8-0.1,1.1-0.3c0.4,0,0.8-0.1,1.1-0.5c0.1,0,0.3,0,0.4,0C491.6,107.9,491.5,108.2,491.3,108.5z"/>
						<path class="st70" d="M489.9,113.1c0,0.2,0,0.5,0.1,0.7c0.1,0.4-0.1,0.5-0.4,0.4c-0.8,0.3-1.1,0-1.1-0.8c0-0.5,0.2-1,0.3-1.4
							c0.5,0,0.5,0.2,0.4,0.7C489,113.4,489.4,113.3,489.9,113.1z"/>
						<path class="st93" d="M488.1,107.3c1.2-0.2,0.6-1.1,0.7-1.8c0.5-0.5,0.6,0.1,0.7,0.3c0,0.5,0.2,0.9,0.3,1.4
							c0,0.3-0.1,0.5-0.3,0.6c-0.4,0.1-0.7,0.1-1-0.2C488.3,107.5,488.2,107.4,488.1,107.3z"/>
						<path class="st39" d="M488.4,107.7c0.4,0,0.7,0,1.1,0c0.7,0,0.6,0.3,0.4,0.7c-0.4,0.2-0.7,0.2-1.1,0
							C488.5,108.2,488.4,108,488.4,107.7z"/>
						<path class="st85" d="M490.2,103c0-0.1,0-0.3,0-0.4c0.6-0.5,0.3-1.2,0.3-1.8c0.5-0.9,1-0.1,1.4,0.1c0.6,0.3,0.7-0.4,1.1-0.6
							c0.7-0.1,1.4,0.1,1.9,0.7c0.2,0.6-0.2,1-0.6,1.3c-0.2,0.1-0.3,0.1-0.5,0.2c-0.9,0-1.7,0.2-2.4,0.9c-0.3,0.2-0.6,0.3-0.9,0.3
							c-0.1,0-0.2,0-0.4,0c0-0.1,0-0.3,0-0.4C490.2,103.2,490.2,103.1,490.2,103z"/>
						<path class="st94" d="M490.6,103.6c0.2-0.3,0.4-0.4,0.8-0.4c0.1,0,0.2,0,0.3,0c0.2,0.1,0.4,0.1,0.4,0.3
							c0.2,0.8,1.4,0.7,1.4,1.4c0,0.8-1.1,0.8-1.4,1.5c-0.1,0.1-0.2,0.2-0.4,0.3C491.2,105.9,490.4,104.9,490.6,103.6z"/>
						<path class="st54" d="M491.7,106.9c0-0.1,0-0.2,0-0.3c0.7-0.5,1.1,0.2,1.7,0.3c0.6,0.9,0.4,1.7-0.3,2.4c-0.2,0-0.3,0-0.5-0.1
							c-0.4-0.2-0.9-0.4-1.3-0.7c0-0.3,0-0.5,0-0.8C491.6,107.5,492.2,107.4,491.7,106.9z"/>
						<path class="st95" d="M489.9,108.4c0-0.3-0.1-0.6-0.4-0.7c0-0.2,0-0.5,0-0.7c0.2-0.2,0.5-0.2,0.7,0c0,0.5,0.3,0.7,0.7,0.7
							C490.9,108.4,490.7,108.8,489.9,108.4z"/>
						<path class="st96" d="M490.2,107c-0.2,0-0.4,0-0.7,0c-0.6-0.3-0.5-0.7-0.1-1.1C490,106,490.2,106.4,490.2,107z"/>
						<path class="st32" d="M494.9,101.1c-0.6-0.2-1.2-0.5-1.8-0.7c-0.2,0-0.4,0-0.6-0.2c0-0.1-0.1-0.1-0.1-0.2c0.4-0.5,0-1,0-1.5
							c0.2-0.2,0.5-0.2,0.7,0c0.5,0,1,0.1,1.5,0.4c0.1,0.1,0.2,0.2,0.3,0.3c0.1,0.3,0.3,0.6,0.4,0.9
							C495.2,100.5,495.9,101.1,494.9,101.1z"/>
						<path class="st9" d="M496.8,97.5c0,0.5,0.2,0.7,0.7,0.7c0.1,0.2,0.1,0.3,0,0.5c-0.3,0.3-0.7,0.5-1.2,0.4
							c-0.6-0.2-0.8-0.7-0.6-1.3c0-0.2,0-0.4,0-0.6C496.2,96.9,496.6,96.6,496.8,97.5z"/>
						<path class="st97" d="M495.7,97.8c0.2,0.4,0.4,0.7,0.6,1.1c0.2,0.1,0.3,0.2,0.3,0.4c0,0.4,0,0.7-0.4,0.8
							c-0.4,0-0.6-0.4-0.9-0.6c-0.2-0.1-0.5-0.1-0.7-0.3c0-0.1,0-0.2,0-0.3C494.6,98.2,495.2,98.1,495.7,97.8z"/>
						<path class="st98" d="M496.8,97.5c-0.3-0.4-0.7-0.3-1.1-0.3c0-0.1,0-0.3,0-0.4c0.5,0,1-0.1,1.4,0
							C497.3,96.8,497.1,97.3,496.8,97.5z"/>
						<path class="st99" d="M493.1,98.5c-0.2,0-0.5,0-0.7,0c-0.2-0.4-0.2-0.7,0.3-0.8C493.1,97.9,493.1,98.2,493.1,98.5z"/>
						<path class="st100" d="M503.7,111.6c0.2,0.5,0.7,0.3,1.1,0.4c0,0.7,0.6,1,1,1.4c0,0.4,0.1,0.6,0.5,0.8c-0.2,0.3-0.4,0.7-0.6,1
							c-0.7,0.6-1.8,0.5-2.3,1.5c-0.6-0.6-1.4-1.2-1.8-2c-0.2-0.5-0.6-1-0.7-1.6c-0.1-0.7,0.2-1.2,0.8-1.6c0.2-0.1,0.3-0.2,0.5-0.2
							C502.7,111.2,503.3,111.2,503.7,111.6z"/>
						<path class="st101" d="M501.9,114.5c0.3,0.9,1.7,1,1.5,2.2c0,0.1,0,0.3,0,0.4c-0.6,0.6-1.1-0.2-1.7-0.1
							c-0.6-0.1-1.2-0.2-1.2-1C501.1,115.8,501,114.7,501.9,114.5z"/>
						<path class="st78" d="M501.8,116.8c0.7-1,1,0.6,1.6,0.3c0.9,0.5-0.1,1,0,1.5c-0.1,0-0.2,0-0.2,0c-0.4-0.8-0.7,0.3-1,0.1
							c-0.6-0.3-0.3-0.8-0.4-1.2C501.6,117.2,501.6,117,501.8,116.8z"/>
						<path class="st34" d="M496.1,100c0.4-0.1,0.4-0.4,0.4-0.7c0.6-0.3,0.8,0,0.9,0.5c0.1,0.2,0.3,0.3,0.1,0.1l0.1-0.1
							c0.4-0.3,0.6-1,1.3-0.8c0,0.1,0,0.2,0,0.3c-0.3,0.9-0.5,1.9-0.4,2.8c-0.1,0.1-0.2,0.2-0.4,0.2c-0.3,0.1-0.5-0.8-0.9-0.1
							C495.9,102,495.9,101,496.1,100z"/>
						<path class="st84" d="M498.9,98.9c-0.6,0.2-0.6,1.1-1.4,1.1c-0.2-0.5-0.4-1,0-1.5c0-0.1,0-0.2,0-0.4c0.1-0.1,0.2-0.3,0.4-0.4
							C498.2,98.2,498.6,98.6,498.9,98.9z"/>
						<path class="st97" d="M500.4,96c0.3,0.5,1.7-0.1,1.1,1.2c-0.5-0.2-1-0.3-1.5-0.5C500.1,96.4,500.1,96.2,500.4,96z"/>
						<path class="st14" d="M501.9,117.5c0.4,0.4-0.2,0.7,0,1.1c0.1,0.1,0.2,0.2,0.1,0.3c0,0.1-0.1,0.1-0.1,0.1c0,0.2,0,0.4,0,0.6
							c-0.2,0.3-0.4,0.3-0.7,0.2c-0.5-0.2-1.1,0-1.5-0.4c-0.2-0.3-0.2-0.6,0.1-0.9C500.6,118.5,500.9,117.2,501.9,117.5z"/>
						<path class="st78" d="M499.7,121.2c-0.4-0.2-0.5-0.8-1.1-0.8c-0.1-0.1-0.2-0.3-0.2-0.4c0-0.4,0.1-0.7,0.5-0.8
							c0.2,0,0.3,0,0.5,0c0.2,0.2,0.5,0.3,0.8,0.5c0.1,0.2,0.1,0.3-0.1,0.4C499.9,120.4,499.8,120.8,499.7,121.2z"/>
						<path class="st102" d="M500,120c0-0.1,0-0.2,0-0.3c0.3-0.3,0.7-0.2,1-0.1c0.3,0,0.5,0,0.8,0c0.2,0.3,0.4,0.7-0.2,0.6
							C501.1,120.2,500.6,120.1,500,120z"/>
						<path class="st95" d="M501.9,118.9c0-0.1,0-0.2,0-0.4c0.4,0.5,0.8-2,1.2,0C502.7,119,502.3,118.9,501.9,118.9z"/>
						<path class="st103" d="M494.9,118.2c0.6-0.1,1.1,0.1,1.5,0.4c0.1,0.2,0.2,0.4-0.1,0.6c-0.7,0-0.7,0.6-0.7,1.1h-0.2h-0.2
							c-0.1-0.6,0.2-1.3-0.4-1.8c-0.1-0.1-0.1-0.1-0.1-0.2C494.9,118.3,494.9,118.2,494.9,118.2z"/>
						<path class="st12" d="M496.4,119.3c0-0.2,0-0.4,0.1-0.6c0.2,0.1,0.4,0.2,0.6,0.3c0.2-0.2,0.4,0,0.6,0.1c0.1,0.1,0.1,0.3,0,0.5
							c0,0.1-0.1,0.1-0.1,0.2C497.1,119.6,496.7,119.7,496.4,119.3z"/>
						<path class="st66" d="M498.6,120.1c0,0.1,0,0.2,0,0.3c-0.5,0.1-1.1,0.2-1-0.7l0,0C498.1,119.2,498.3,119.7,498.6,120.1z"/>
						<path class="st104" d="M499.7,106.2c0.1,0,0.2,0,0.3,0c0.6,0.3,0.2,2.2,1.8,1.2c0.1,0.1,0.3,0.2,0.4,0.4
							c0.1,0.5,0.2,1.1,0.8,1.4l0,0c0.6,1.2-0.3,1.9-1.1,2.6l0,0c-0.4,0.1-0.7-0.1-0.9-0.3c-0.3-0.5-0.5-1,0-1.6
							c-0.8,0.7-1.5,1.4-2.4,0.3c-0.1-0.1-0.1-0.3-0.1-0.5c0.1-0.4,0.3-0.7,0.5-1.1c0.1-0.4,1.1-0.5,0.4-1.2
							C499,106.9,499.3,106.4,499.7,106.2z"/>
						<path class="st81" d="M501.9,111.7c0.4-0.9,0.7-1.7,1.1-2.6c0.5,0,1.1,0,1.1,0.7c-0.1,0.4-0.7,0.6-0.3,1.1
							c0.1,0.1,0.2,0.2,0.3,0.4c-0.1,0.1-0.2,0.2-0.3,0.3C503.1,111.7,502.5,111.7,501.9,111.7z"/>
						<path class="st81" d="M503,109.1c-1.7,0.4-1-0.7-0.8-1.4C502.6,108.1,503.4,108.2,503,109.1z"/>
						<path class="st105" d="M503.7,110.9c-0.2-0.1-0.6-0.2-0.6-0.2c0-0.6,0.6-0.6,0.9-0.8C503.9,110.2,503.8,110.6,503.7,110.9z"/>
						<path class="st106" d="M506.3,109.8c0,0.6,0,1.3,0,1.9c-0.1,0.1-0.3,0.2-0.4,0.3c0.1-0.8-0.4-1.8,0.4-2.5
							c0.1,0.1,0.2,0.1,0.1,0.2S506.3,109.8,506.3,109.8z"/>
						<path class="st91" d="M506.2,114.2c-0.3,0.1-0.6,0.3-0.8-0.2c-0.1-0.4,0-0.5,0.3-0.6C506.4,113.4,506.4,113.7,506.2,114.2z"/>
						<path class="st107" d="M506.3,109.8c0-0.1-0.1-0.2,0-0.3c-0.2-0.4-0.2-0.7,0-1.1c0.2,0.1,0.5,0.2,0.7,0.4c0,0.1,0,0.3,0,0.4
							C506.7,109.4,506.5,109.6,506.3,109.8z"/>
						<path class="st94" d="M492,101.1c-0.6,0.3-0.8-0.8-1.4-0.3c-0.1-0.1-0.3-0.3-0.4-0.4c0.4-0.2,0.8-0.5,1.1-0.7
							c0.5-0.4,0.7,0.2,1.1,0.4v0.1C492.6,100.5,492.4,100.9,492,101.1z"/>
						<path class="st108" d="M494.9,118.2c0,0.1,0,0.2,0,0.3c-0.3,0.4,0.1,2-1.2,0.6c-0.3-0.3-0.6,0.7-1,0.1
							c-0.6-0.4-0.8-0.8-0.3-1.4c0.2-0.2,0.4-0.3,0.6-0.3C493.7,117.8,494.3,118,494.9,118.2z"/>
						<path class="st91" d="M492.7,117.9c-0.3,0.5-0.3,1,0,1.4c-0.5,0-0.9-0.3-1.1-0.8c0-0.2,0-0.4,0-0.6
							C492,117.3,492.3,117.1,492.7,117.9z"/>
						<path class="st109" d="M489.5,114.2c0.1-0.1,0.3-0.3,0.4-0.4c1.2,0.7,2.6,1.2,2.5,2.9c-0.8-0.1-1.3-0.9-2-1.1
							c-0.2-0.2-0.3-0.4-0.4-0.6C489.6,114.8,489.5,114.6,489.5,114.2z"/>
						<path class="st60" d="M489.9,115c0.1,0.1,0.2,0.2,0.3,0.3c0.3,0.3,1,0.4,0.7,1.1c-0.3-0.1-0.6-0.2-1-0.4
							C490,115.7,489.9,115.3,489.9,115z"/>
						<path class="st110" d="M499.7,106.2c0,0.3-0.2,0.8-0.1,0.8c1.6,0.9,0.4,1.2-0.3,1.7c-0.1,0.1-0.2,0.2-0.4,0.1
							c-0.3-0.2-0.6-0.3-0.9,0c-0.1,0.1-0.3,0.1-0.4,0.2c-0.5,0-0.9-0.2-1.4,0c-0.8,0.2-1.3-0.2-1.8-0.7c-0.6-0.8-0.7-1.4,0.5-1.6
							c2.2-0.4,2.4-1,1.4-3.1c0-0.2,0-0.3,0.1-0.5c0.3-0.2,0.6-0.2,1-0.1c0.7,0.3,0.6,1,0.6,1.8c0,0.1,0.3-0.3,0-0.2
							c-0.1-0.5,0.1-0.8,0.4-1.1c0.2-0.1,0.3,0,0.5,0.1l0,0C498.7,104.7,498.8,105.5,499.7,106.2z"/>
						<path class="st80" d="M490.9,116.4c-0.2-0.4-0.5-0.7-0.7-1.1c1,0.1,1.6,0.7,2.1,1.4c0.2,0.3,0.5,0.5,0.7,0.8
							c-0.1,0.1-0.3,0.2-0.4,0.3c-0.4-0.4-0.7-0.3-1.1,0.1c-0.1-0.2-0.2-0.3-0.3-0.5C491.4,117,491.3,116.6,490.9,116.4z"/>
						<path class="st111" d="M498.3,102.2c0.1,0,0.2-0.1,0.3-0.1c0.1,0,0.2,0,0.4,0c0.4,0.4,0.4,0.8,0,1.1c-0.4,0.2-0.7,0-0.9-0.3
							C498,102.7,498,102.4,498.3,102.2z"/>
						<path class="st112" d="M498.2,102.9c0.3,0.1,0.5,0.2,0.8,0.4c0,0.1,0,0.2,0,0.4c-0.1,0-0.2,0-0.4,0c-0.5,0.2-0.7-0.2-1.1-0.4
							c-0.4,0-0.7,0-1.1,0c-0.1-0.1-0.1-0.2-0.1-0.3c0-0.1,0-0.2,0-0.2c0.3-0.3,0.7-0.4,1.1-0.5C497.8,102.4,498,102.7,498.2,102.9z
							"/>
						<path class="st113" d="M495.4,114.9c-1.3-0.3-1.6-1.5-2.1-2.5c0.2-0.5,0.2-1.1,0.9-1.3c0.4,0,0.6,0.2,0.9,0.4
							c0.2,0.3,0.4,0.5,0.4,0.9c-0.6,1.1,1,1.1,0.9,1.9C496.4,114.9,496,115.1,495.4,114.9z"/>
						<path class="st29" d="M495.4,114.9c0.4-0.2,0.7-0.5,1.1-0.7c0.1,0,0.1-0.1,0.2-0.1c0.4,0,0.7,0.1,1,0.3c0.3,0.1,0.7,0.2,1,0.4
							c0.1,0.1,0.2,0.2,0.2,0.4c0,0.1,0,0.3-0.1,0.4c-0.2,0.3-0.5,0.5-0.8,0.8c-0.1,0.1-0.3,0.1-0.4,0c-0.2-0.9-0.5-0.2-0.7-0.1
							c-0.4-0.3-0.9-0.3-1.1-0.7C495.6,115.4,495.5,115.1,495.4,114.9z"/>
						<path class="st13" d="M497.6,116.4c0.1,0,0.2,0,0.3,0c0.1,0.1,0.3,0.2,0.4,0.3c0.3,0.6,0.9,1,1,1.7c0,0.3-0.1,0.5-0.4,0.7
							c-0.4,0.1-0.8,0.2-1.1-0.2c-0.2-0.3-0.1-0.6,0-0.8C497.3,117.6,497.5,117,497.6,116.4z"/>
						<path class="st84" d="M492.6,109.1c0.2,0,0.4,0,0.5,0c0.2-0.2,0.4-0.2,0.6-0.1c0.1,0.1,0.2,0.2,0.3,0.4
							c0.1,0.5-0.1,0.9-0.3,1.4c-0.2,0.3-0.4,0.7-0.9,0.5C492.8,110.5,492.7,109.8,492.6,109.1z"/>
						<path class="st114" d="M492.8,111.3c0.2-0.2,0.5-0.5,0.7-0.7c0.6-0.1,0.8,0.2,0.8,0.7c-0.6,0.2-0.3,1.1-1,1.1
							C492.9,112.1,492.7,111.7,492.8,111.3z"/>
						<path class="st115" d="M495.7,115.6c0.5,0.1,1.1-0.1,1.1,0.7C496.3,116.4,495.7,116.5,495.7,115.6z"/>
						<path class="st4" d="M497.8,118.1c0,0.3,0.1,0.6,0.1,0.9c0.1,0.3,0,0.5-0.4,0.3c-0.1-0.1-0.3-0.3-0.4-0.4
							C497.1,118.5,497.3,118.1,497.8,118.1z"/>
						<path class="st116" d="M497.4,102.6c-0.3,0.1-0.7,0.2-1,0.3c-0.2,0.2-0.4,0.2-0.6,0.2c-0.3-0.1-0.6-0.2-0.9-0.4
							c-0.3-0.2-0.5-0.3-0.7-0.6c0.2-0.4,0.5-0.7,0.7-1.1c0.5-0.3-0.1-0.7,0.1-1c0.1-0.4,0.1-0.8,0.4-1.1c0.4,0.3,0.7,0.6,0.7,1.1
							c0.6,0.5-0.1,2.1,1.4,1.8C497.7,102.1,497.7,102.4,497.4,102.6z"/>
						<path class="st117" d="M491.3,103.3c0.5-1.3,1.4-1.4,2.6-1.1c0.2,0.5,0,0.8-0.3,1.1C492.9,103.8,492.1,103.7,491.3,103.3
							L491.3,103.3z"/>
						<path class="st116" d="M492,101.1c0.2-0.3,0.3-0.7,0.5-1c0.3,0,0.5,0,0.7,0.3c0,0.5,0,1-0.7,1.2
							C492.1,101.7,492.1,101.3,492,101.1z"/>
						<path class="st118" d="M493.5,103c0.3-0.2,0.4-0.5,0.4-0.8c0.1,0,0.2,0,0.3,0c0.3,0,0.6,0.1,0.7,0.4c0.1,0.1,0.1,0.2,0.1,0.3
							c0,0.1,0,0.1-0.1,0.1c-0.5,0-0.9,0.7-1.5,0.4C493.4,103.2,493.4,103.1,493.5,103z"/>
						<path class="st119" d="M493.5,103c0,0.1,0,0.2,0,0.3c0.4,0.3,0.7,0.1,1.1,0c0.4,0,0.7-0.2,1.1-0.4c0.2,0,0.5,0,0.7,0
							c0,0.1,0,0.3,0,0.4s0,0.2,0,0.3c0.1,0.4-0.1,0.6-0.4,0.9c-0.9,0.1-2,0.1-1.1,1.5c0.2,0.3,0.2,0.6-0.1,0.8
							c-0.5,0.2-1.2-0.1-1.7,0.3c-0.6,0.2-0.8-0.7-1.4-0.5c0-1.1,0.9-1.1,1.7-1.6c-1.6,0.4-1.3-1.3-2.1-1.7
							C492.1,103.3,492.8,103.3,493.5,103z"/>
						<path class="st82" d="M493.1,107.1c0.4-0.9,1.3-0.3,1.9-0.6c1-0.4,1.3-1.2,1-2.2c0.1-0.2,0.3-0.4,0.4-0.7
							c1.6,0.4,0.8,1.7,0.7,2.5c0,0.7-0.8,1.2-1.7,1c-0.1,0.5-1.9-0.7-0.9,0.9c0.2,0.6-0.3,0.8-0.7,1c-0.2,0-0.5,0.1-0.7,0.1
							C493,108.4,493.8,107.7,493.1,107.1z"/>
						<path class="st72" d="M495.4,98.9c-0.2,0.4,0.5,1-0.4,1.1c-0.3-0.2-0.4-0.4-0.4-0.8C494.8,99.2,495.1,99,495.4,98.9z"/>
						<path class="st59" d="M497.5,98.6c0,0.5,0,1,0,1.5c-0.1,0.1,0,0.6-0.3,0.2c-0.2-0.4-0.1-0.9-0.8-1c0-0.1-0.1-0.2-0.1-0.3
							C496.7,98.8,497.1,98.7,497.5,98.6z"/>
						<path class="st120" d="M498.7,115.2c0-0.1,0-0.2-0.1-0.3c-0.7-0.7-0.8-1.5-0.6-2.5c0.1-0.3,0.2-1,0.4-0.9
							c1,0.6,1.8-0.6,2.7-0.3c0.3,0.1,0.5,0.3,0.8,0.4c-0.5,0.4-0.9,0.7-0.8,1.4C500.7,114.3,499.7,114.7,498.7,115.2z"/>
						<path class="st37" d="M498.7,115.2c0.6-1,1.5-1.5,2.4-2.1c0.2,0.5,0.8,0.8,0.8,1.5c-0.2,0.8-0.2,1.8-1.5,1.6
							c0-0.1-0.1-0.1-0.1-0.2s0-0.2,0.1-0.3c-0.3,0-0.2,0.3-0.2,0.4c-0.3,0.4-0.6,0.5-1,0.2c-0.2-0.2-0.5-0.4-0.6-0.7
							C498.6,115.5,498.6,115.3,498.7,115.2z"/>
						<path class="st121" d="M499.3,116.1c0.3,0.3,0.5-0.1,0.8-0.2c0.1-0.1,0.2-0.1,0.3,0l-0.1,0.1v0.1c0.5,0.2,0.9,0.4,1.4,0.7
							c0,0.2,0.1,0.4,0.1,0.7c-0.8,0-0.6,1.7-1.9,1.1c-0.3-0.2-0.8,0.1-1.1-0.3c-0.4-0.5-1-0.8-1.1-1.5
							C498.2,116.1,498.4,115.3,499.3,116.1z"/>
						<path class="st90" d="M497.4,102.6c0-0.3,0-0.5,0.1-0.8c0.5-0.4,0.6,0.1,0.8,0.4c0,0.2,0,0.5,0,0.7
							C498,102.8,497.7,102.7,497.4,102.6z"/>
						<path class="st122" d="M498.9,118.2c0.4,0,0.8-0.1,1.1,0.3c-0.4,0.1-0.4,0.4-0.4,0.7c-0.1,0.1-0.2,0.1-0.4,0
							c-0.1,0-0.2-0.1-0.3-0.1c-0.1-0.1-0.2-0.1-0.2-0.2s0.1-0.1,0.1-0.1C498.9,118.7,498.9,118.4,498.9,118.2z"/>
						<path class="st79" d="M499.3,119.3c0.1,0,0.2,0,0.4,0c0.5,0.1,1-0.2,1.4,0.3c-0.3,0-0.7,0-1,0.1
							C499.8,119.5,499.6,119.4,499.3,119.3z"/>
						<path class="st12" d="M498.9,118.9c0,0.1,0,0.2,0,0.3c-0.3,0.2-0.4,0.5-0.4,0.8c-0.4-0.1-0.7-0.2-1-0.4c0-0.1,0-0.3,0-0.4
							c0.1-0.1,0.2-0.2,0.4-0.3C498.2,118.9,498.6,118.9,498.9,118.9z"/>
						<path class="st123" d="M501.1,111.3c-0.8,0.4-1.6,1.3-2.6,0.5c0,0.2,0.1,0.3,0.1,0.5c-0.2,0.3-0.5,0.3-0.8,0.3
							c-1-0.1-1.2-0.9-1-1.7c0.2-0.8,0.6-1.6,1.7-1.1c1.2,1,1.7-0.1,2.3-0.8C502.4,109.6,500.6,110.6,501.1,111.3z"/>
						<path class="st124" d="M498.6,109.8c-1.7,0.8-1.9,1.6-0.7,2.6c0.3,0.3,0.2,0.6-0.1,0.8c-0.5-0.4-0.6,0.5-1.1,0.4
							s-0.7-0.4-0.9-0.8c-0.1-0.5,0-1,0.2-1.5c0.4-0.6,0.5-1.3,0.3-2c0-0.2,0.1-0.3,0.3-0.3c0.4-0.2,0.8,0.1,1.2,0
							c0.4,0,0.6,0.2,0.8,0.5C498.6,109.6,498.6,109.7,498.6,109.8z"/>
						<path class="st123" d="M498.6,109.5c-0.3,0-0.6-0.1-0.7-0.4c-0.1-0.1-0.2-0.2-0.1-0.2c0-0.1,0.1-0.1,0.1-0.1l0,0
							c0.4-0.3,0.7-0.3,1.1,0c0.1,0,0.2,0,0.4,0C499.2,109.1,498.9,109.3,498.6,109.5z"/>
						<path class="st124" d="M493.9,109c0-0.5,0.6-0.6,0.7-1c0.6,0.3,1.1,0.9,1.8,0.7c0.1,0.1,0.2,0.2,0.1,0.3l-0.1,0.1
							C495.6,109.7,494.7,109.7,493.9,109L493.9,109z"/>
						<path class="st82" d="M497.5,103.3c0.4,0.1,0.7,0.2,1.1,0.4c-0.7,0.5,0.2,1.5-0.8,2.3C497.8,104.9,498.1,104,497.5,103.3z"/>
						<path class="st104" d="M496.5,109c0-0.1-0.1-0.2-0.1-0.3c0.5-1.5,1,0.5,1.5,0c0,0.1,0,0.2,0,0.4
							C497.4,109.1,496.9,109.1,496.5,109z"/>
						<path class="st104" d="M499,108.7c-0.4,0-0.7,0-1.1,0c0-0.5,0.3-0.8,0.7-0.8C499.2,107.9,498.9,108.4,499,108.7z"/>
						<path class="st55" d="M493.9,109.1c0.8,0,1.7,0,2.5,0c0.6,0.7,0.6,1.4,0,2.1c-0.4,0.3-0.8,0.9-1.4,0.4
							c-0.2-0.1-0.5-0.3-0.7-0.4c-0.3-0.2-0.5-0.5-0.8-0.7C493.6,110.1,493.8,109.6,493.9,109.1z"/>
						<path class="st5" d="M496,112.7c0.3,0.3,0.5,0.5,0.8,0.8c0.2,0.4,0,0.6-0.4,0.7v0.1c-0.9-0.3-1.9-0.6-1.1-1.9
							C495.7,112.2,495.8,112.4,496,112.7z"/>
						<path class="st125" d="M496,112.7c-0.2-0.1-0.4-0.2-0.7-0.3c-0.1-0.2-0.2-0.4-0.4-0.7c0.5-0.1,0.9-0.3,1.4-0.4
							C496.2,111.7,496.1,112.2,496,112.7z"/>
						<path class="st31" d="M497.5,113.1c0.3-0.2,0.3-0.4,0.4-0.7c0.2,0,0.5,0,0.7-0.1c-0.7,0.9,0,1.7,0,2.6c-0.4,0-0.8,0.1-1.2-0.3
							C497.4,114.1,497,113.6,497.5,113.1z"/>
						<path class="st126" d="M497.5,113.1c-0.1,0.5,0.7,1-0.1,1.5c-0.3-0.2-0.7-0.3-1-0.5c0.1-0.2,0.2-0.5,0.4-0.7
							C497,113.2,497,112.6,497.5,113.1z"/>
						<path class="st127" d="M499.3,116.1c-0.7-0.3-1,0.4-1.4,0.6c0-0.1,0-0.2,0-0.4c0-0.5,0.2-0.8,0.7-0.7
							C498.9,115.7,499.2,115.8,499.3,116.1z"/>
						<path class="st126" d="M495.7,102.9c-0.1,0.7-0.6,0.7-1.1,0.6c0-0.3,0.1-0.5,0.4-0.6c0-0.1,0-0.2,0-0.4
							C495.3,102.6,495.5,102.6,495.7,102.9z"/>
						<path class="st128" d="M495,102.9c-0.1,0.2-0.3,0.4-0.4,0.6c-0.4,0-0.8,0.2-1.1-0.3C494.1,103.4,494.3,102.4,495,102.9z"/>
						<path class="st129" d="M496.1,104.3c0.6,0.4,1,0.9,0.6,1.6c-0.3,0.8-1.1,0.6-1.7,0.6l-0.1-0.1c-0.4-0.6-1.5-0.9-0.9-1.8
							C494.5,103.6,495.4,104.2,496.1,104.3z"/>
						<path class="st130" d="M500.4,116c-0.1,0-0.2,0-0.3,0c-0.4-0.6,0.1-0.8,0.4-1.1c0.2-0.2,0.3,0,0.4,0.1
							C501.1,115.5,500.4,115.6,500.4,116z"/>
					</g>
				</g>
				<path class="st1" d="M466.5,64.7c1.4-3.2,2.7-6.4,4-9.3c0.1,1.3,0.2,3,0.5,4.6c0.3,1.5,0.7,2.9,1.1,4.4c0.2,0,0.3-0.1,0.5-0.1
					c0-0.3,0-0.6-0.1-0.9c-1.5-5.7-1.4-11.5-0.3-17.3c0.5-2.6,0.7-5.3,1-8h-0.1C470.9,47,468.7,55.8,466.5,64.7
					c-0.2-0.7-0.6-1.5-0.7-2.2c-0.3-5.6,0.5-11.1,1.8-16.5c0.4-1.8,0.7-3.6,1.1-5.4c-3,6-4.8,22.4-2.6,26
					C466.2,65.8,466.4,65.3,466.5,64.7z"/>
				<path class="st1" d="M542.9,124c1.3,1.9,3.4,2.5,5.5,3C546.5,125.9,544.7,125,542.9,124c-0.4-0.5-0.7-1.1-1.1-1.6
					c-2.8-3-3.5-6.7-3.2-10.6c0.3-4.8,2.2-8.9,5.2-12.5c1.6-1.9,3.6-3.7,5.8-4.8c3.5-1.9,7.5-2.1,11.5-1.7c3.1,0.3,6.3,0.8,8.5-0.8
					c-1.9,0.1-4.4,0.7-6.8,0.4c-8.4-1.1-15.8,1.1-22.4,6.4c-1.1,0.9-2,2-3,3c0.1,0.1,0.2,0.2,0.3,0.3c2-1.6,4-3.2,6-4.8
					c0.2,0.5,0.2,0.6,0.1,0.7c-0.3,0.4-0.7,0.9-1,1.3c-3.3,4.7-5.3,9.8-5,15.6C538.1,118.7,539.5,121.9,542.9,124z"/>
				<path class="st1" d="M434.7,79.5c0.1,0.1,0.2,0.1,0.3,0.2c0.9-1.4,2-2.7,2.8-4.2c4-7.3,7-15.1,9.8-23c2.2-6.3,4.8-12.3,8.2-18.1
					c5.1-8.8,11.7-16.3,20.1-22c8.3-5.6,17.5-9.1,27.7-9.2c4.8-0.1,9.5,0.3,14.3,0.8c2.8,0.3,5.6,1.3,8.4,2
					c-0.9-0.8-1.8-1.3-2.9-1.6c-8.7-3.2-17.6-3.3-26.6-2.1c-5.3,0.7-10,3.2-14.8,5.4c-12,5.4-20.6,14.5-27,25.7
					c-4.5,7.8-7,16.5-10.3,24.7c-2.3,5.7-4.9,11.3-7.4,16.9C436.6,76.6,435.5,78,434.7,79.5z"/>
				<path class="st1" d="M426.8,90.3c-0.1-0.1-0.2-0.2-0.3-0.2c-1,1.3-2.1,2.6-3,4c-4.7,6.5-8.8,13.2-9.1,21.5
					c-0.4,11,2.4,20.8,10.9,28.4c1.8,1.6,3.8,2.7,6.3,2.9c-0.2-0.4-0.4-0.6-0.7-0.7c-5.2-2-8.7-5.9-11.1-10.7
					c-6.2-12.5-6.1-24.7,1.4-36.6C423,96,425,93.2,426.8,90.3z"/>
				<path class="st1" d="M527.8,6.2c0.1,0.2,0.2,0.3,0.3,0.5c0.5-0.3,1-0.5,1.5-0.8c4.1-2.5,8.6-4.1,13.5-4.4
					c11.6-0.8,22.4,1.6,32.2,7.7c1.1,0.7,2.3,1.3,3.4,2c1.1,0.6,2.1,1.2,3.2,1.8c0-0.5-0.2-0.6-0.4-0.8c-9-7.2-19.2-11.4-30.7-12.1
					c-7.2-0.4-14.1,0.3-20.5,4C529.5,4.7,528.7,5.5,527.8,6.2z"/>
				<path class="st1" d="M576.8,63.7c-0.2,0-0.3,0-0.5,0c-1.7-3.7-2-7.6-2.4-11.6c-0.3-4-0.5-7.9-0.7-12.2c-1,4.8-0.6,9.3,0.1,13.8
					c0.5,3.3,1.2,6.5,2,9.7c0.2,1,1,1.9,1.7,3.1c0.4-2.9,0.7-5.2,1.1-7.5c0.7,2,1,4,1.5,5.9c0.5,1.8,1.1,3.6,1.7,5.4l0.1-0.1
					c-1.3-7.9-2.5-15.7-3.8-23.7C577.3,52.4,577.1,58,576.8,63.7z"/>
				<path class="st1" d="M476.2,57.9c0.4-1,0.9-2.4,1.5-3.8c1.1,2.7,2.2,5.3,3.2,7.9c0.2-0.1,0.4-0.2,0.6-0.3
					c-0.3-0.8-0.7-1.7-1-2.5c-1.6-3.6-2.5-7.3-1.9-11.3c0.4-2.8,0.7-5.6,0.9-8.5c0.1-1.9,0-3.8,0-5.7c-0.2,0-0.4,0-0.6,0
					c-3.2,8.6-4.9,17.4-4.4,26.6c0.5-7.1,1.3-14.2,4-20.9C477.7,45.6,476.9,51.9,476.2,57.9z"/>
				<path class="st1" d="M503.7,163.2c0.1-0.2,0.1-0.4,0.2-0.6c-0.5-0.1-0.9-0.3-1.4-0.4c-8.6-2.6-16.8-5.9-23.6-11.9
					c-7.1-6.3-10.3-14-8.5-23.5c0.3-1.7,0.6-3.4,0.9-5c-0.5,0.2-0.6,0.5-0.8,0.9c-3.6,9.7-1.2,20.2,6.4,27.3
					c4.1,3.9,8.9,6.6,14.1,8.8C495.2,160.3,499.5,161.7,503.7,163.2z"/>
				<path class="st1" d="M571,57.9c-2.4-6.9-1.6-13.9-1.4-20.9c-1.9,8.6-1.6,17.1,1.7,25.4c0.2,0,0.4,0,0.6,0c0-8.2,0-16.3,0-24.2
					C570.6,44.5,571,51.2,571,57.9z"/>
				<path class="st1" d="M600.5,149c3.5,0,7.1,0,10.6,0c1.2,0,2.5,0,3.6-0.5c2.7-1.1,5.4-2.1,7.8-3.6c3.2-2,5.7-4.8,7.5-8.3
					c-0.4,0.2-0.7,0.6-1,0.9c-3.5,4.1-7.8,7.3-12.9,9.1c-1.8,0.6-3.8,1.1-5.7,0.8C606.9,146.9,603.8,147.9,600.5,149z"/>
				<path class="st1" d="M495.4,31.9c-1.3,6.6-2.5,13.3-5,19.6c-0.5-6.9,1-13.5,2.1-20.3c-0.9,3.2-1.9,6.4-2.2,9.7
					c-0.6,5.4-0.8,10.8-1.2,15.7c0.1-0.1,0.7-0.4,1-0.6C492.7,48.3,495.4,40.4,495.4,31.9z"/>
				<path class="st1" d="M562.9,61.4c-0.1-1.3-0.7-2.8-0.2-3.8c1.4-2.7,1.7-5.5,1.8-8.4c0.1-3.4,0-6.7,0-10.1c-0.1,0-0.2,0-0.3,0
					c-0.5,5.7-1,11.4-1.5,17c-0.3,0-0.5,0-0.8,0c-0.1-2-0.4-3.9-0.4-5.9c0-1.9,0.2-3.9,0.2-5.8c0-1.9,0-3.8,0-5.7
					C560.4,46.3,559.6,53.9,562.9,61.4z"/>
				<path class="st1" d="M551.8,34.1c-0.6,6-1.4,11.9-3.6,17.6c-0.5-3.4-0.7-6.7-0.7-10.1c-0.1-3.3,0-6.6,0-8.7
					c-1.7,7.2-1.1,20.3,1.2,22.6c0.1-1,0-2.3,0.5-3.3C551.7,46.3,552.2,40.3,551.8,34.1z"/>
				<path class="st1" d="M531.5,54.4c3.2-7,4.8-14.1,5.4-21.5c-1.6,6.3-3.2,12.5-4.8,18.8c-0.2,0-0.4-0.1-0.6-0.1
					c-1.6-6.8-0.3-13.5,0.2-20.2C530.1,38.9,528.9,46.5,531.5,54.4z"/>
				<path class="st1" d="M472,113.6c0.2,0,0.4-0.1,0.7-0.1c-0.9-4-1.5-8-2.7-12c-1.9-6.7-3.6-13.4-3.7-20.4c-0.1-4-0.3-7.9-0.5-11.9
					c-0.7,8.9-0.9,17.8,1.7,26.6c1.3,4.2,2.5,8.5,3.6,12.7C471.5,110.2,471.7,111.9,472,113.6z"/>
				<path class="st1" d="M529.1,31.7c-1.7,8.3-2.4,16.8-7.3,24c3.7-2.9,4.1-7.3,5.9-11.5c0.2,2.6,0.2,4.9,0.5,7.2
					c0.7,4.4,1.1,5.2,2.5,6C526.9,49.1,528.9,40.3,529.1,31.7z"/>
				<path class="st1" d="M472.9,92.9c2.3,1.7,4.9,1.6,7.5,0.6c3.5-1.3,6.9-2.9,10.8-2.9c4.1-0.1,8.2,0.3,11.2,3.6
					c0.8,0.9,1.5,1.9,3,1c-0.4-0.4-0.8-0.8-1.2-1.1c-6.2-5.1-13.1-5.4-20.3-2.6C480.3,92.9,476.8,93.8,472.9,92.9z"/>
				<path class="st1" d="M497.8,56.6c-2.7-8.8,1.1-17.5,0.1-26.2c-0.7,9-2.2,17.9-6.3,26.1c0.2,0.1,0.5,0.2,0.7,0.3
					c1.3-3,2.5-6.1,3.9-9.3C496.6,50.7,496.2,53.9,497.8,56.6z"/>
				<path class="st1" d="M464.6,74.6c-4.3-10.8-4.5-21.6-0.3-32.5C459.5,49.5,459.1,67.1,464.6,74.6z"/>
				<path class="st1" d="M576.5,108.1c2.6-10,7.3-19.6,6.7-30.4C582.8,88.3,578.1,97.9,576.5,108.1z"/>
				<path class="st1" d="M539.8,25.9c-2.5,5.7-2.2,26.1,1.1,29c-0.6-4.4-1.7-9.2-1.9-14C538.8,36,539.5,31,539.8,25.9z"/>
				<path class="st1" d="M557.7,39.3c-0.9,6.8-3.1,13.1-6.5,19c0.9-1,1.8-1.9,2.5-3s1.3-2.3,2.1-3.7c0.9,7,0.9,7,2.5,8.5
					C555.1,53,557.4,46.2,557.7,39.3z"/>
				<path class="st1" d="M519.7,55.7c3.9-7.7,4.8-15.8,4-24.3c-0.4,4-0.6,8.2-1.2,12.2C521.9,47.6,520.7,51.6,519.7,55.7z"/>
				<path class="st1" d="M485.9,158.2c-2.4-1-5.3-2-8.1-3.4c-3.6-1.8-7-2.7-11.1-1.1c-2,0.8-4.5,0.3-6.7,0.4
					c2.6,1.2,5.4,1.2,8.1,0.1c2.6-1.1,5-1,7.4,0.4c1,0.6,2.1,1.1,3.2,1.7C481.2,157.5,483.6,158.6,485.9,158.2z"/>
				<path class="st1" d="M550.7,56.2c3.8-4,6.5-15.7,4.6-19.6C555.1,43.5,553.5,49.9,550.7,56.2z"/>
				<path class="st1" d="M545.8,27.9c-0.4,7.8-0.8,15.7-3.4,23.2C546.3,43.8,546.3,35.9,545.8,27.9z"/>
				<path class="st1" d="M474.6,100c-3,9.9,0.3,17.6,4.9,21.2c-6.2-6.9-6.8-14.7-3.3-23c-1.6,0.7-3.1,1.4-4.6,2c0,0.1,0,0.2,0.1,0.3
					C472.7,100.3,473.6,100.1,474.6,100z"/>
				<path class="st1" d="M480.8,58.1c-1.6-8.6,0.1-16.8,2.4-25.2C480.1,36.3,478.3,53.3,480.8,58.1z"/>
				<path class="st1" d="M567.6,36.4c-2.6,5.3-2.5,22.5-0.1,25.4C566,53.4,566.5,45,567.6,36.4z"/>
				<path class="st1" d="M502.3,52.7c2.7-7,3-14.7,2.9-22.4C504.2,37.9,503.2,45.4,502.3,52.7z"/>
				<path class="st1" d="M560,39.6c-0.2,0.3-0.4,0.4-0.4,0.6c-1.2,5.8-2.2,11.7-0.4,17.5c0.3,0.9,0.8,1.6,1.2,2.4
					c0.2-0.1,0.3-0.1,0.5-0.2C557.7,53.3,559.7,46.5,560,39.6z"/>
				<path class="st1" d="M456.7,153.9c-3.4,0.4-6.6-0.2-9.4-2.2c-2.6-1.8-5.2-3.8-7.9-5.8C443,151,452.7,157.1,456.7,153.9z"/>
				<path class="st1" d="M485.2,60.6c2.2-7.3,2.8-15.1,2.5-23.1C486.9,45.3,486,53.1,485.2,60.6z"/>
				<path class="st1" d="M503.2,122.3c6.2-3.8,8.5-19,3.7-22.5C510,107.9,509.8,115.5,503.2,122.3z"/>
				<path class="st1" d="M520.9,34.1c-0.8,6.3-1.6,12.6-2.4,19.1C520.9,46.9,520.8,40.5,520.9,34.1z"/>
				<path class="st1" d="M573.2,104.2c-0.2,10.4-0.9,12.9-5.2,18.4C572.7,119.2,575,111.4,573.2,104.2z"/>
				<path class="st1" d="M501.3,70.8c-4.3-2.5-13.6-0.8-14.5,2.5C492.6,70.4,496,69.8,501.3,70.8z"/>
				<path class="st1" d="M487,35.3c-0.2,0-0.4,0-0.6-0.1c-0.6,6.2-1.2,12.3-1.8,18.5c0.2,0,0.4,0,0.6,0.1
					C485.8,47.6,486.4,41.4,487,35.3z"/>
				<path class="st1" d="M581.3,58.9c-0.2,0-0.4,0-0.5,0c0.7,4.5,1.3,9.1,2,13.6c0.3,0,0.5-0.1,0.8-0.1
					C582.8,68,582.1,63.4,581.3,58.9z"/>
				<path class="st1" d="M430.2,144.2c3,3,6.2,5.2,10.2,5.5C437.1,147.9,433.8,146.1,430.2,144.2z"/>
				<path class="st1" d="M551,72.7c4.1-1.4,8.1-1.2,12.1,0.4C559.2,70.4,555.1,70.7,551,72.7z"/>
				<path class="st1" d="M523.1,118.7c-0.6,1-1.3,1.6-1.4,2.3c-0.1,0.6,0.3,1.2,0.5,1.9c0.1-0.1,0.2-0.1,0.3-0.2
					C522.7,121.6,522.9,120.4,523.1,118.7z"/>
				<path d="M434.7,79.5c0.9-1.5,1.9-2.9,2.6-4.4c2.5-5.6,5.1-11.2,7.4-16.9c3.4-8.3,5.9-16.9,10.3-24.7c6.4-11.2,15-20.3,27-25.7
					c4.8-2.1,9.5-4.6,14.8-5.4c9-1.2,17.9-1.2,26.5,2.1c1,0.4,2,0.9,2.9,1.6c-2.8-0.7-5.5-1.7-8.4-2c-4.7-0.5-9.5-0.8-14.3-0.8
					c-10.2,0.1-19.3,3.5-27.7,9.2s-15,13.2-20.1,22c-3.4,5.8-6,11.9-8.2,18.1c-2.8,7.9-5.7,15.6-9.8,23c-0.8,1.5-1.8,2.8-2.8,4.2
					C434.9,79.6,434.8,79.6,434.7,79.5z"/>
				<path d="M502.2,55.6c0.7-2.4,1.7-4.8,2.1-7.3c1-5.8,1.8-11.6,2.5-16.6c0,0.9,0,2.7,0,4.5c0.1,0,0.2,0,0.2,0.1
					c0.2-0.6,0.4-1.1,0.8-2.1c-0.2,2.5-0.3,4.5-0.4,6.6c-0.1,2.2-0.3,4.3-0.3,6.5c0,2.1,0.3,4.2,0.5,6.4c2.2-2.2,3-6.7,4.4-20.1
					c0.4,5.7,0.7,11.5,1.1,17.7c2.2-6.2,2.7-12.3,2.8-18.4c0.1,0.7,0.2,1.4,0.3,2.1c0.1,0.7,0.1,1.4,0.3,2.2
					c0.3-1.1,0.5-2.3,0.8-3.4c0.1,0,0.2,0,0.3,0c-0.2,2.4-0.5,4.9-0.5,7.3c-0.1,2.5-0.1,5.1,0.1,7.6c0.1,2.5,0.4,5.1,0.7,7.6
					c-0.2,0-0.4,0.1-0.6,0.1c-0.4-3.5-0.8-7-1.3-10.4c-1.3,3.1-2.6,6.2-3.8,9.3c-0.1,0-0.2-0.1-0.3-0.1c0-3.6,0-7.1,0-9.6
					c-1,2.4-2.4,5.8-3.6,9.3c-0.3,1-0.2,2.1-0.3,3c-1.6-1.5-1.8-2-2.6-8.5C504.2,51.6,503.2,53.6,502.2,55.6L502.2,55.6z
					 M506.3,43.6c0.1,0,0.2,0,0.2,0c0,4,0,8,0,12c0.2,0,0.3,0,0.5,0C506.8,51.6,506.6,47.6,506.3,43.6z"/>
				<path d="M426.8,90.3c-1.9,2.8-3.8,5.6-5.7,8.5c-7.4,12-7.5,24.2-1.3,36.6c2.4,4.8,5.9,8.7,11.1,10.7c0.3,0.1,0.6,0.4,0.7,0.7
					c-2.5-0.2-4.5-1.3-6.3-2.9c-8.5-7.6-11.3-17.4-10.9-28.4c0.3-8.4,4.5-15,9.1-21.5c1-1.3,2-2.6,3-4
					C426.6,90.2,426.7,90.2,426.8,90.3z"/>
				<path d="M527.8,6.2c0.9-0.7,1.7-1.4,2.6-2c6.4-3.7,13.3-4.5,20.5-4c11.5,0.7,21.7,4.8,30.7,12.1c0.2,0.2,0.4,0.3,0.4,0.8
					c-1.1-0.6-2.1-1.2-3.2-1.8c-1.2-0.7-2.3-1.3-3.4-2c-9.9-6.2-20.7-8.5-32.2-7.7c-4.9,0.3-9.3,1.9-13.5,4.4
					c-0.5,0.3-1,0.5-1.5,0.8C528,6.5,527.9,6.3,527.8,6.2z"/>
				<path d="M576.8,63.7c0.3-5.7,0.5-11.3,0.8-17.2c1.3,8,2.5,15.9,3.8,23.7l-0.1,0.1c-0.6-1.8-1.2-3.6-1.7-5.4
					c-0.5-1.9-0.8-3.9-1.5-5.9c-0.3,2.3-0.7,4.7-1.1,7.5c-0.7-1.2-1.5-2.1-1.7-3.1c-0.8-3.2-1.6-6.4-2-9.7c-0.6-4.5-1.1-9-0.1-13.8
					c0.2,4.2,0.4,8.2,0.7,12.2c0.3,3.9,0.6,7.9,2.4,11.6C576.5,63.7,576.7,63.7,576.8,63.7z"/>
				<path d="M476.2,57.9c0.7-6,1.4-12.2,2.1-18.5c-2.8,6.7-3.5,13.8-4,20.9c-0.5-9.2,1.2-18,4.4-26.6c0.2,0,0.4,0,0.6,0
					c0,1.9,0.1,3.8,0,5.7c-0.2,2.8-0.5,5.7-0.9,8.5c-0.6,4,0.4,7.7,1.9,11.3c0.4,0.8,0.7,1.7,1,2.5c-0.2,0.1-0.4,0.2-0.6,0.3
					c-1.1-2.6-2.1-5.3-3.2-7.9C477.2,55.5,476.6,56.8,476.2,57.9z"/>
				<path d="M503.7,163.2c-4.2-1.5-8.5-2.9-12.7-4.6c-5.2-2.1-10-4.9-14.1-8.8c-7.5-7.1-10-17.6-6.4-27.3c0.1-0.3,0.3-0.6,0.8-0.9
					c-0.3,1.7-0.6,3.4-0.9,5c-1.7,9.5,1.5,17.2,8.5,23.5c6.8,6.1,15,9.3,23.6,11.9c0.5,0.1,0.9,0.3,1.4,0.4
					C503.8,162.8,503.8,163,503.7,163.2z"/>
				<path d="M542.9,124c-3.4-2.1-4.8-5.3-5-9.1c-0.4-5.8,1.7-10.9,5-15.6c0.3-0.4,0.7-0.9,1-1.3c0.1-0.1,0.1-0.2-0.1-0.7
					c-2,1.6-4,3.2-6,4.8c-0.1-0.1-0.2-0.2-0.3-0.3c1-1,1.9-2.1,3-3c6.6-5.2,14-7.4,22.4-6.4c2.4,0.3,4.9-0.2,6.8-0.4
					c-2.2,1.6-5.4,1.1-8.5,0.8c-4-0.4-8-0.2-11.5,1.7c-2.2,1.1-4.1,2.9-5.8,4.8c-3.1,3.5-5,7.7-5.2,12.5c-0.2,3.9,0.5,7.6,3.2,10.6
					C542.2,122.8,542.5,123.4,542.9,124L542.9,124z"/>
				<path d="M571,57.9c-0.1-6.7-0.5-13.5,0.9-19.8c0,7.9,0,16,0,24.2c-0.2,0-0.4,0-0.6,0c-3.4-8.2-3.6-16.7-1.7-25.4
					C569.5,44,568.6,51.1,571,57.9z"/>
				<path d="M600.5,149c3.2-1.1,6.4-2.1,9.9-1.6c1.8,0.3,3.9-0.2,5.7-0.8c5.1-1.8,9.4-4.9,12.9-9.1c0.3-0.4,0.6-0.7,1-0.9
					c-1.7,3.4-4.2,6.3-7.5,8.3c-2.4,1.5-5.2,2.6-7.8,3.6c-1.1,0.4-2.4,0.5-3.6,0.5C607.6,149,604.1,149,600.5,149z"/>
				<path d="M495.4,31.9c0,8.5-2.7,16.4-5.4,24.2c-0.3,0.2-0.9,0.5-1,0.6c0.4-5,0.6-10.4,1.2-15.7c0.4-3.3,1.3-6.5,2.2-9.7
					c-1.1,6.7-2.6,13.4-2.1,20.3C493,45.2,494.1,38.5,495.4,31.9z"/>
				<path d="M562.9,61.4c-3.3-7.5-2.4-15.1-1.1-22.8c0,1.9,0,3.8,0,5.7s-0.2,3.9-0.2,5.8c0,2,0.3,3.9,0.4,5.9c0.3,0,0.5,0,0.8,0
					c0.5-5.7,1-11.4,1.5-17c0.1,0,0.2,0,0.3,0c0,3.4,0.1,6.7,0,10.1c-0.1,2.9-0.4,5.7-1.8,8.4C562.2,58.6,562.8,60.1,562.9,61.4z"/>
				<path d="M551.8,34.1c0.4,6.2-0.1,12.3-2.7,18.1c-0.5,1-0.3,2.3-0.5,3.3c-2.3-2.3-2.9-15.4-1.2-22.6c0,2.1-0.1,5.4,0,8.7
					c0.1,3.4,0.2,6.7,0.7,10.1C550.3,45.9,551.2,40,551.8,34.1z"/>
				<path d="M531.5,54.4c-2.7-7.9-1.5-15.4,0.2-23c-0.6,6.7-1.8,13.5-0.2,20.2c0.2,0,0.4,0.1,0.6,0.1c1.6-6.3,3.2-12.5,4.8-18.8
					C536.3,40.3,534.7,47.3,531.5,54.4z"/>
				<path d="M472,113.6c-0.3-1.7-0.5-3.5-0.9-5.1c-1.1-4.3-2.3-8.5-3.6-12.7c-2.6-8.7-2.4-17.6-1.7-26.6c0.2,4,0.5,7.9,0.5,11.9
					c0.1,7,1.8,13.7,3.7,20.4c1.1,3.9,1.8,8,2.7,12C472.5,113.5,472.3,113.6,472,113.6z"/>
				<path d="M466.5,64.7c2.2-8.9,4.4-17.8,6.6-26.7h0.1c-0.3,2.7-0.5,5.4-1,8c-1.1,5.8-1.2,11.5,0.3,17.3c0.1,0.3,0.1,0.6,0.1,0.9
					c-0.2,0-0.3,0.1-0.5,0.1c-0.4-1.5-0.9-2.9-1.1-4.4c-0.3-1.6-0.4-3.2-0.5-4.6C469.2,58.3,467.9,61.5,466.5,64.7L466.5,64.7z"/>
				<path d="M529.1,31.7c-0.2,8.7-2.2,17.4,1.6,25.8c-1.4-0.8-1.8-1.6-2.5-6c-0.4-2.3-0.4-4.6-0.5-7.2c-1.7,4.1-2.2,8.6-5.9,11.5
					C526.8,48.4,527.4,39.9,529.1,31.7z"/>
				<path d="M472.9,92.9c3.9,0.9,7.4,0,11-1.5c7.2-2.8,14.1-2.5,20.3,2.6c0.4,0.3,0.8,0.7,1.2,1.1c-1.5,1-2.1-0.1-3-1
					c-3.1-3.3-7.1-3.6-11.2-3.6c-3.9,0.1-7.3,1.7-10.8,2.9C477.8,94.5,475.3,94.6,472.9,92.9z"/>
				<path d="M497.8,56.6c-1.6-2.8-1.3-5.9-1.6-9.2c-1.4,3.3-2.6,6.3-3.9,9.3c-0.2-0.1-0.5-0.2-0.7-0.3c4.1-8.2,5.5-17.1,6.3-26.1
					C498.9,39.2,495.2,47.9,497.8,56.6z"/>
				<path d="M464.6,74.6c-5.5-7.5-5.2-25.1-0.3-32.5C460.2,53,460.4,63.8,464.6,74.6z"/>
				<path d="M576.5,108.1c1.6-10.3,6.3-19.8,6.7-30.4C583.8,88.5,579.1,98.1,576.5,108.1z"/>
				<path d="M539.8,25.9c-0.3,5.1-1,10-0.8,15c0.2,4.8,1.2,9.6,1.9,14C537.6,52,537.2,31.6,539.8,25.9z"/>
				<path d="M557.7,39.3c-0.3,6.8-2.6,13.7,0.5,20.8c-1.6-1.5-1.6-1.5-2.5-8.5c-0.8,1.4-1.4,2.6-2.1,3.7c-0.7,1.1-1.5,2.1-2.5,3
					C554.7,52.4,556.8,46.1,557.7,39.3z"/>
				<path d="M502.2,55.6c-0.3,0.7-0.6,1.3-1,2.3c-3.3-8.8-3-17.6-1.7-26.3c0,4.7-0.2,9.5,0.1,14.2c0.2,3.2,1,6.4,1.6,9.5
					C501.2,55.5,501.9,55.5,502.2,55.6L502.2,55.6z"/>
				<path d="M519.7,55.7c1-4,2.1-8,2.8-12.1c0.7-4,0.8-8.1,1.2-12.2C524.5,39.8,523.6,48,519.7,55.7z"/>
				<path d="M485.9,158.2c-2.2,0.4-4.7-0.7-7.1-1.9c-1.1-0.5-2.2-1.1-3.2-1.7c-2.4-1.4-4.8-1.5-7.4-0.4c-2.7,1.1-5.5,1.1-8.1-0.1
					c2.2-0.1,4.7,0.4,6.7-0.4c4-1.6,7.5-0.7,11.1,1.1C480.5,156.2,483.5,157.2,485.9,158.2z"/>
				<path d="M466.5,64.7c-0.1,0.6-0.3,1.1-0.4,1.8c-2.2-3.6-0.4-20,2.6-26c-0.4,1.8-0.7,3.6-1.1,5.4c-1.2,5.4-2.1,10.9-1.8,16.5
					C465.9,63.2,466.3,64,466.5,64.7L466.5,64.7z"/>
				<path d="M550.7,56.2c2.7-6.2,4.4-12.7,4.6-19.6C557.2,40.4,554.5,52.2,550.7,56.2z"/>
				<path d="M545.8,27.9c0.6,8,0.5,15.9-3.4,23.2C545,43.6,545.3,35.7,545.8,27.9z"/>
				<path d="M474.6,100c-1.1,0.2-2,0.3-2.9,0.4c0-0.1,0-0.2-0.1-0.3c1.5-0.6,2.9-1.3,4.6-2c-3.5,8.3-2.9,16.1,3.3,23
					C474.9,117.6,471.7,109.9,474.6,100z"/>
				<path d="M480.8,58.1c-2.6-4.8-0.7-21.8,2.4-25.2C481,41.3,479.3,49.5,480.8,58.1z"/>
				<path d="M567.6,36.4c-1.1,8.6-1.6,17-0.1,25.4C565.1,58.9,565,41.7,567.6,36.4z"/>
				<path d="M502.3,52.7c0.9-7.3,1.9-14.8,2.9-22.4C505.2,38,505,45.7,502.3,52.7z"/>
				<path d="M560,39.6c-0.2,6.9-2.2,13.8,0.8,20.4c-0.2,0.1-0.3,0.1-0.5,0.2c-0.4-0.8-0.9-1.6-1.2-2.4c-1.8-5.9-0.8-11.7,0.4-17.5
					C559.6,40,559.7,39.9,560,39.6z"/>
				<path d="M456.7,153.9c-4,3.2-13.7-2.8-17.3-8c2.7,2,5.2,4,7.9,5.8C450.1,153.6,453.3,154.3,456.7,153.9z"/>
				<path d="M485.2,60.6c0.8-7.5,1.7-15.3,2.5-23.1C488.1,45.4,487.4,53.3,485.2,60.6z"/>
				<path d="M503.2,122.3c6.6-6.7,6.8-14.4,3.7-22.5C511.7,103.3,509.4,118.4,503.2,122.3z"/>
				<path d="M520.9,34.1c-0.1,6.4,0,12.8-2.4,19.1C519.3,46.7,520.1,40.4,520.9,34.1z"/>
				<path d="M573.2,104.2c1.9,7.2-0.5,15-5.2,18.4C572.3,117.1,573,114.6,573.2,104.2z"/>
				<path d="M501.3,70.8c-5.2-1-8.7-0.4-14.5,2.5C487.7,70.1,497,68.4,501.3,70.8z"/>
				<path d="M487,35.3c-0.6,6.2-1.1,12.3-1.7,18.5c-0.2,0-0.4,0-0.6-0.1c0.6-6.2,1.2-12.3,1.8-18.5C486.6,35.2,486.8,35.2,487,35.3z
					"/>
				<path d="M581.3,58.9c0.7,4.5,1.5,9,2.2,13.6c-0.3,0-0.5,0.1-0.8,0.1c-0.7-4.5-1.3-9.1-2-13.6C581,58.9,581.2,58.9,581.3,58.9z"
					/>
				<path d="M430.2,144.2c3.6,1.9,6.9,3.7,10.2,5.5C436.3,149.4,433.2,147.2,430.2,144.2z"/>
				<path d="M551,72.7c4.1-1.9,8.1-2.2,12.1,0.4C559.1,71.4,555.1,71.3,551,72.7z"/>
				<path d="M523.1,118.7c-0.3,1.7-0.4,2.9-0.6,4c-0.1,0.1-0.2,0.1-0.3,0.2c-0.2-0.6-0.7-1.3-0.5-1.9
					C521.9,120.3,522.5,119.7,523.1,118.7z"/>
				<path d="M542.9,124c1.8,1,3.7,1.9,5.5,2.9C546.3,126.4,544.2,125.8,542.9,124L542.9,124z"/>
				<path class="st131" d="M491,132.8c-1.4,1.3-2.8,2.5-4.1,3.8c-0.6,0.7-1.3,1.3-1.8,2.1c-0.6,0.7-1.1,1.5-1.6,2.3
					c0.2-0.9,0.6-1.8,1.1-2.6s1.1-1.5,1.8-2.2s1.4-1.3,2.2-1.8C489.3,133.7,490.1,133.2,491,132.8z"/>
				<path class="st131" d="M494.2,132.8c-0.8,0.6-1.5,1.1-2.2,1.8c-0.7,0.6-1.4,1.3-2,1.9c-0.6,0.7-1.1,1.4-1.7,2.1
					c-0.6,0.7-1.1,1.5-1.6,2.2h-0.1c0.2-0.9,0.6-1.8,1.1-2.6s1.2-1.5,1.9-2.1c0.7-0.6,1.4-1.3,2.2-1.8
					C492.5,133.8,493.3,133.2,494.2,132.8L494.2,132.8z"/>
				<path class="st131" d="M495.9,134.1c-0.6,0.4-1.1,0.9-1.6,1.3c-0.5,0.5-1,0.9-1.4,1.4s-0.9,1-1.3,1.6c-0.4,0.6-0.8,1.1-1.2,1.7
					c0.1-0.7,0.4-1.4,0.7-2c0.3-0.6,0.7-1.2,1.2-1.8c0.5-0.5,1-1,1.6-1.4C494.5,134.5,495.2,134.2,495.9,134.1z"/>
				<path class="st131" d="M486.8,134.3c-0.5,0.5-1,0.9-1.5,1.4s-0.9,1-1.3,1.6c-0.4,0.5-0.8,1.1-1.1,1.7c-0.4,0.6-0.7,1.2-1,1.8
					c0.1-0.7,0.2-1.4,0.5-2.1c0.3-0.7,0.6-1.3,1.1-1.9c0.4-0.6,1-1.1,1.5-1.5C485.5,134.9,486.1,134.5,486.8,134.3z"/>
				<path class="st131" d="M560.6,132.8c-0.7,0.6-1.3,1.3-2,2c-0.6,0.7-1.2,1.4-1.8,2.2c-0.5,0.8-1,1.6-1.5,2.3
					c-0.5,0.8-0.9,1.6-1.4,2.4h-0.1c0.1-1,0.4-1.9,0.8-2.8c0.4-0.9,1-1.6,1.6-2.3c0.6-0.7,1.3-1.4,2-2.1
					C559.1,133.9,559.8,133.3,560.6,132.8L560.6,132.8z"/>
				<path class="st131" d="M564,133.2c-0.8,0.6-1.5,1.1-2.2,1.8c-0.7,0.6-1.4,1.3-2,1.9c-0.6,0.7-1.1,1.4-1.7,2.1
					c-0.6,0.7-1.1,1.5-1.6,2.2h-0.1c0.2-0.9,0.6-1.8,1.1-2.6s1.2-1.5,1.9-2.1s1.4-1.3,2.2-1.8C562.4,134.1,563.2,133.6,564,133.2
					L564,133.2z"/>
				<path class="st131" d="M564.1,134.8c-0.3,0.5-0.7,0.9-1,1.3c-0.4,0.4-0.7,0.8-1.1,1.2l-1.1,1.2c-0.3,0.4-0.7,0.8-0.9,1.3
					c0-0.6,0.2-1.1,0.5-1.6s0.6-0.9,1-1.3c0.4-0.4,0.8-0.8,1.2-1.1C563.1,135.4,563.6,135.1,564.1,134.8z"/>
				<g>
					<path class="st1" d="M589,19.7c3.7,5.5,7.9,10.7,10.9,16.5c3.9,7.4,7.1,15.1,10,22.9c3.9,10.3,9.2,19.7,15,28.9
						c4.2,6.7,8,13.5,10.1,21.2c1.9,6.7,1.5,13-1.1,19.3c-0.4,1-0.9,2-1.3,3.1c2.1-1.5,3.2-3.5,3.8-5.8c2.2-8.9,1-17.5-3.2-25.5
						c-2.6-5-5.7-9.7-8.7-14.4c-5.2-8.3-10.1-16.8-13.4-26.1c-3.1-8.7-6.2-17.4-11-25.4C596.9,29.1,593.3,24.2,589,19.7z"/>
					<path d="M589,19.7c4.3,4.5,7.9,9.4,11.1,14.7c4.8,8,7.9,16.7,11,25.4c3.3,9.3,8.2,17.8,13.4,26.1c3,4.8,6.1,9.5,8.7,14.4
						c4.2,8,5.4,16.6,3.2,25.5c-0.6,2.3-1.7,4.4-3.8,5.8c0.4-1,0.9-2,1.3-3.1c2.6-6.3,2.9-12.7,1.1-19.3
						c-2.1-7.7-5.9-14.5-10.1-21.2c-5.8-9.2-11.2-18.6-15-28.9c-2.9-7.8-6.2-15.5-10-22.9C596.9,30.4,592.8,25.2,589,19.7z"/>
					<path d="M491.2,159.1c0,0-12.5-3-17.3-5.3s-12.8,1.7-16.7,1c-3.8-0.7-15.7-4-17.8-8.2c0.2,2.7-5.7-0.5-8.8-2.2
						c1.5,4-11.2-1.3-14.5-11.7c-3.4-10.3-6.4-24.4,15.7-50.3c2.8-3.3,20.9-45.2,26.5-53.3s26.8-41.2,69-23c7.5-4,39.5-17,63.7,15
						c14.5,22.8,15.7,23.7,17.7,30.7s12.2,25.7,19.2,36.3s21.4,38.8,1.3,54.2c-17.2,9.7-21.5,7.8-26.6,6.2c-6.5,2.2-9.3,4.5-18.8,3
						c-7.8,1.5-13.2,2.8-13.2,2.8c6.4-7.3,10.7-10.8,6.8-30.2c-1.8-14.5,1-23.3,5-37.2c1.8-11.5-0.3-23.5-1.7-28.5
						c0.2,7.5,0.5,11.5,0.5,11.5s-2.8-10.2-2.8-13.2s-1.7,8.2-1.7,8.8c0,0.7-2.8-10.7-3.5-15.3s-1.8,11.3-1.5,12.2
						c0.3,0.8-3.8-7.3-4-12.7s-1.2,12.2-0.5,13s-3.3-8.3-3.3-12.7s-0.2,9.8,0,11s-5.2-1.7-5.3-5.5c-0.2-3.8-0.7,4-0.5,4.5
						c0.2,0.5-3.5-5.2-3-8.2s-1.2,5.3-3.7,6.2c0.3-2.2,1.5-5.7,0.7-8.5c-2.3,1.3-3.7,3.7-3.5,5.5c0.2,1.8-3-7-3-10.7s-1.8,6.5-4.8,9
						s-2.7-5.8-3.7-8.5c-4.8,8.7-6.2,11.2-6.2,12.5s-3.8-6.2-4-9.5s-2,7.2-7.2,9.5c-2-2-2.3-12-2.8-11.5c-3,8-5.2,11.5-5.2,11.5
						s0.8-7.7-0.3-9.5c-1.2-1.8-3.3,5.7-3.3,8.8c-1.5-2.8-2-4.3-2.3-7.5c-3.5,8.3-4.5,8.2-4.5,9.7c-2.2-5.8-2.8-6-3.2-9.5
						c0.5,8.2-0.2,8.7-0.2,8.7c-1.3-4.2-1.3-5.7-2.2-6.3c-4,4.8-7.2,7.3-7.2,7.3s0.8-0.7,0.2-6.2c-1.8,5.7-2.8,9-2.8,9
						s-2.3,0.3-4.7-5.2c-1.3,6.5-1.3,6.5-1.3,6.5s-2.7-8-3.2-10.5c-4.8,15.2-5,13.5-5,13.5s-0.2-5.8-1-8.8c-2,3.3-5,8.3-5.2,11.3
						c-0.2,3-1.8,10.6,2.7,27.7s3.2,17.5,1.3,30.3c-1.8,12.8,3.2,23.5,21.3,31.8"/>
				</g>
			</g>
			<g>
				<path class="st1" d="M458.3,188.7h0.1l0.1-0.1C458.5,188.7,458.5,188.7,458.3,188.7C458.4,188.7,458.3,188.7,458.3,188.7z"/>
				<path class="st1" d="M454.7,183.1c-0.5,1.6-0.6,3.1,0.2,4.5c0.8,1.3,2.1,1.8,3.4,1.1C454.7,188.6,454.6,185.9,454.7,183.1z"/>
				<path class="st1" d="M458.6,188.6c0.8-0.4,1.6-0.8,2.4-1.2l0,0c-0.3-1.1-0.5-2.2-0.8-3.3C460.2,185.9,459.8,187.4,458.6,188.6z"
					/>
				<path class="st1" d="M615.3,183.6c0.8,0.5,1.7,0.9,2.5,1.5c1.2,0.9,2.4,0.8,3-0.6c-0.4,0.2-0.7,0.3-1,0.4
					c-1.1,0.4-2.2-0.1-2.4-1.3c-0.6-2.5,1.2-4.6,3.8-4.4c0.2,0,0.3,0,0.5,0c0-0.2,0-0.3,0-0.5c-0.9,0.1-1.8-0.1-2.6,0.2
					c-2.1,0.8-1.8,3-2.3,4.8c-1-0.8-0.6-1.6-0.3-2.4c0.3-1.2,0.5-2.5,0.8-3.7c0.2-0.3,0.6-0.7,0.6-1c0.4-3.9,0.6-7.8-1.1-11.6
					c-1.2-2.8-5.6-4.3-8.4-2.9c5.8-0.4,8.1,0.8,9,7.5c0.4,2.6-0.1,5.3-0.2,8C616.6,179.8,616,181.7,615.3,183.6
					c-0.8,1.4-1.5,2.9-2.3,4.3C614.6,186.9,615.1,185.4,615.3,183.6z"/>
				<path class="st1" d="M611.1,189.7c0-0.1,0-0.2,0-0.3c-0.8-0.6-1.5-1.1-2.3-1.7c-0.1-0.1-0.3-0.4-0.4-0.4c-1.2,0.3-1-0.6-0.9-1.1
					c0.1-0.7,0.4-1.4,0.6-2.1c0.6-2.2,1.7-4.3,1.8-6.5c0-3.6-0.6-7.3-1.1-10.9c-0.5-3.8-2.8-5.8-6.6-6.1c-1.8-0.2-3.3,0.4-4.3,1.5
					c1.9-1.1,3.9-1.2,5.9-0.7c1.8,0.4,3.2,1.2,3.7,3.1c0.4,1.5,0.7,3,1.2,4.4c2,6.7,0.2,12.9-2.1,19.1c0,0.1-0.2,0.2-0.3,0.3
					c-0.1-0.5,0.1-0.9,0.1-1.3c0.1-0.4,0-0.7,0-1.4c-0.9,2.3-0.7,4.7-2.9,6c0.1,0.1,0.3,0.2,0.4,0.3c1.2-1.3,2.4-2.7,3.6-4
					C608.5,188.4,609.8,189,611.1,189.7z"/>
				<path class="st1" d="M587,165c0.1,0,0.1,0.1,0.2,0.1c0.4-0.4,0.9-0.8,1.3-1.3c3.7-3.7,9.3-2.3,10.6,2.7c0.6,2.6,0.7,5.3,1.3,7.9
					c0.6,3.1,0,6.2-0.7,9.2c-0.4,1.6-1,3.2-1.4,4.8c0.5-0.4,0.7-1,0.9-1.5c1-3.1,2-6.2,1.9-9.4c-0.1-3.9-0.2-7.9-1.6-11.6
					c-1.8-5-8.3-6.1-11.8-2C587.4,164.2,587.2,164.6,587,165z"/>
				<path class="st1" d="M445,186.1c-1.8,1.5-3.1,1.6-4,0.4c-0.5-0.7-0.8-1.5-1.2-2.3c-0.2-0.6-0.4-1.1-0.6-1.7
					c-0.1,0-0.2,0.1-0.3,0.1c0.1,0.5,0.1,1,0.2,1.5c-2.8-7-5.1-14.1-1-21.5c-0.4,0.2-0.6,0.4-0.7,0.6c-0.8,2.6-1.6,5.3-2.3,7.9
					c-0.1,0.5-0.1,1.2,0,1.7c0.4,1.9,0.8,3.9,1.4,5.8c0.6,1.7,0.5,3.6,1.4,5.3s1.6,3.2,3.7,3.7C443.4,188.1,444.7,187.7,445,186.1z"
					/>
				<path class="st1" d="M447.7,160.9c-0.5,0.8-1.3,1.5-1.5,2.4c-1.5,6.5-3.4,13.1-0.8,19.8c0.8,2,1.3,4.2,2,6.2
					c0.2,0,0.5-0.1,0.7-0.1C443.9,179.9,443.3,170.5,447.7,160.9z"/>
				<path class="st1" d="M453.8,183.5c-0.2-3.7-0.9-7.3-0.5-10.7c0.4-3.5,1.8-6.8,2.9-10.6C452.5,169.1,451.4,176,453.8,183.5z"/>
				<path class="st1" d="M575.6,174.2c2.4-2.7,0.6-5.7,1.4-8.3c-0.2,0-0.4,0-0.6,0c0,2.4,0,4.7,0,7.1c-0.2,0-0.4,0-0.6,0
					c-0.5-2.4-0.8-4.8,0.1-7.2C574.3,168.4,575.2,171.2,575.6,174.2z"/>
				<path class="st1" d="M457.4,162c2.2-0.9,4.3-0.4,6.5-0.1c2.5,0.4,3.4,2.6,4.6,4.5c-0.2-1.8-1.1-3.5-2.7-4.2
					C463.1,160.9,460.2,160.4,457.4,162z"/>
				<path class="st1" d="M447.8,184.2c1.1,0.2,2.9,0.1,3.8,0.9c1,0.8,1.2,2.6,1.7,3.7c0.5-1.4,0.1-3.3-1.2-4.3
					C450.9,183.5,449,183.5,447.8,184.2z"/>
				<path class="st1" d="M430.8,178.7c0.8,3.2,2.4,5.2,4.2,5.2c0.6,0,1.1-0.4,1.7-0.5c-0.1-0.1-0.1-0.2-0.2-0.4
					C434.2,184,433.7,183.7,430.8,178.7z"/>
				<path class="st1" d="M477.8,173.7c0.2,0,0.3,0,0.5,0c0.4-2.4,0.4-4.7-0.5-7.4C477.8,169,477.8,171.4,477.8,173.7z"/>
				<path class="st1" d="M446.5,161.6c-2.5-1.7-6.3-1.7-7.6,0.4C441.5,160.1,444,160.6,446.5,161.6z"/>
				<path class="st1" d="M601.5,191.5c-2.1-2.1-1.3-4.3-0.1-6.8C599.1,187.3,599.2,190.5,601.5,191.5z"/>
				<path class="st1" d="M456.3,161.7c-1.5-1.8-4.1-2.3-6.5-1.2C452,159.7,454.1,160.5,456.3,161.7z"/>
				<path class="st1" d="M459.6,183.1c0.1-0.2,0.1-0.3,0.2-0.5c-1.2-0.2-2.4-0.5-3.7-0.7c0,0.1-0.1,0.3-0.1,0.4
					C457.2,182.6,458.4,182.9,459.6,183.1z"/>
				<path class="st1" d="M435.2,178.2c-0.9-1.1-1.7-1.2-3.2-0.3C432.9,178,434.1,178.1,435.2,178.2z"/>
				<path class="st1" d="M449.6,190.2c1.6,1,2.3,1,3,0C451.7,190.2,450.7,190.2,449.6,190.2z"/>
				<path d="M427.8,174.7c-1-3.6,0.8-6.7,2-9.8c0.7-2,2.5-2.9,4.6-3.1c0.9-0.1,1.8,0.1,2.7,0.2c-1.3,0.2-2.6,0.3-3.8,0.7
					c-1.6,0.5-2.7,1.5-3.3,3.2c-0.9,2.9-2.3,5.6-1.5,8.7c0.3,1.3,1,2.5,1.6,3.9c-0.5-0.6-1.1-1.1-1.3-1.6
					C428.3,176,428,175.3,427.8,174.7z"/>
				<path d="M593.5,185.7c-0.1,0-0.3-0.1-0.4-0.1c-0.3,1.4-0.6,2.8-0.9,4.3c-1.3-2.2-1.3-4.5-1-6.8c0.4-3,0.5-5.9-1.2-8.9
					c0.2,1.2,0.4,2.1,0.6,3.1c-1.4,0-2.6,0-4,0c0.2-2.6-0.2-5-1.2-7.3c-1.3-2.8-4.8-4.5-7.2-3.5c5.5-0.2,9.3,5.3,7.4,10.8
					c-13.2,0-99.5,0.1-107.5,0.1c-0.4,0-1-0.5-1-0.9c-0.2-1.8-0.2-3.5-0.3-5.3c0-0.8,0-1.6,0-2.5c-0.7,2.9-1.5,5.7-0.1,8.7
					c-1.8,0-3.3,0-4.9,0c-1.5,0-3.1,0-4.6,0c-0.8-4.1,1.7-8.2,6.3-11c-5.1,1.8-7,5.8-7.2,11c-1.1,0-2.2,0-3.4,0
					c0.5-1.3,0.9-2.6,1.4-3.8c-0.6,0.5-0.9,1.2-1.2,1.8c-1.3,2.9-1.8,5.9-1.7,9c0,1.9-0.6,3.9-0.9,5.8c1.3-1.1,1.7-2.5,1.5-4.1
					c-0.1-1.1-0.1-2.2,0-3.3c0.1-1.4,0.2-2.8,0.4-4.1c36.5,0,92,0,128.3,0c0,1.5,0.1,3,0,4.4c-0.3,3.4-0.3,6.7,2.8,9.1
					c1.2,0.9,2.1,1.3,3.1,0.6C593.6,192.9,592,190.4,593.5,185.7z"/>
				<path d="M622.3,182.8c-0.1-0.1-0.3-0.2-0.4-0.2c0.4-0.7,0.9-1.4,1.3-2.1c0.6-1.3,1.5-2.7,1.7-4.1c0.5-3.2,0.4-6.4-0.6-9.5
					c-0.7-2-3.4-3.4-6-3.1c-0.4,0-0.7,0.1-1.1,0.1c0-0.1,0-0.3,0-0.4c1,0,1.9-0.2,2.9-0.1c2.7,0.3,4.8,1.8,5.1,3.8s0.3,3.8,0.5,5.8
					c0,0.5,0,1.1,0,1.7C625.2,178.3,623.5,180.6,622.3,182.8z"/>
				<path d="M611.1,189.7c-1.3-0.6-2.6-1.2-3.6-1.7c-1.2,1.3-2.4,2.7-3.6,4c-0.1-0.1-0.3-0.2-0.4-0.3c2.2-1.3,2-3.7,2.9-6
					c0,0.6,0,1,0,1.4c-0.1,0.4-0.2,0.8-0.1,1.3c0.1-0.1,0.2-0.2,0.3-0.3c2.3-6.2,4.1-12.4,2.1-19.1c-0.4-1.5-0.8-3-1.2-4.4
					c-0.5-1.9-1.9-2.7-3.7-3.1c-2-0.5-3.9-0.4-5.9,0.7c1-1.2,2.5-1.7,4.3-1.5c3.8,0.3,6.1,2.3,6.6,6.1c0.5,3.6,1.1,7.3,1.1,10.9
					c0,2.2-1.1,4.3-1.8,6.5c-0.2,0.7-0.5,1.4-0.6,2.1c-0.1,0.5-0.3,1.4,0.9,1.1c0.1,0,0.2,0.3,0.4,0.4c0.8,0.6,1.5,1.1,2.3,1.7
					C611.1,189.5,611.1,189.6,611.1,189.7z"/>
				<path d="M587,165c0.2-0.4,0.5-0.8,0.8-1.1c3.4-4.1,10-3,11.8,2c1.3,3.7,1.4,7.7,1.6,11.6c0.1,3.3-0.9,6.4-1.9,9.4
					c-0.2,0.5-0.4,1.1-0.9,1.5c0.5-1.6,1.1-3.1,1.4-4.8c0.7-3,1.3-6,0.7-9.2c-0.5-2.6-0.6-5.3-1.3-7.9c-1.3-5-6.8-6.4-10.6-2.7
					c-0.4,0.4-0.9,0.8-1.3,1.3C587.1,165.1,587,165,587,165z"/>
				<path d="M445,186.1c-0.2,1.6-1.6,2-3.2,1.5c-2.1-0.5-2.8-2-3.7-3.7c-0.9-1.7-0.9-3.5-1.4-5.3c-0.6-1.9-1-3.8-1.4-5.8
					c-0.1-0.6-0.2-1.2,0-1.7c0.7-2.7,1.5-5.3,2.3-7.9c0.1-0.2,0.3-0.4,0.7-0.6c-4.1,7.4-1.8,14.5,1,21.5c-0.1-0.5-0.1-1-0.2-1.5
					c0.1,0,0.2-0.1,0.3-0.1c0.2,0.6,0.4,1.2,0.6,1.7c0.4,0.8,0.7,1.6,1.2,2.3C441.9,187.7,443.2,187.6,445,186.1z"/>
				<path d="M447.7,160.9c-4.4,9.6-3.8,18.9,0.4,28.3c-0.2,0-0.5,0.1-0.7,0.1c-0.7-2.1-1.2-4.2-2-6.2c-2.6-6.7-0.7-13.2,0.8-19.8
					C446.4,162.5,447.2,161.7,447.7,160.9z"/>
				<path d="M453.8,183.5c-2.4-7.5-1.3-14.3,2.4-21.3c-1.1,3.8-2.5,7.1-2.9,10.6C452.9,176.2,453.6,179.8,453.8,183.5z"/>
				<path d="M617.3,177.8c0.1-2.7,0.6-5.4,0.2-8c-1-6.7-3.2-8-9-7.5c2.8-1.4,7.2,0.1,8.4,2.9c1.6,3.7,1.5,7.7,1.1,11.6
					C617.8,177.1,617.5,177.4,617.3,177.8L617.3,177.8z"/>
				<path d="M617.2,177.8c-0.3,1.2-0.5,2.5-0.8,3.7c-0.2,0.8-0.7,1.6,0.3,2.4c0.5-1.8,0.2-4,2.3-4.8c0.8-0.3,1.7-0.2,2.6-0.2
					c0,0.2,0,0.3,0,0.5c-0.2,0-0.3,0-0.5,0c-2.6-0.2-4.4,1.8-3.8,4.4c0.3,1.1,1.3,1.7,2.4,1.3c0.3-0.1,0.6-0.2,1-0.4
					c-0.6,1.4-1.8,1.6-3,0.6c-0.8-0.6-1.7-1-2.5-1.5l0,0C616,181.7,616.6,179.8,617.2,177.8C617.3,177.8,617.2,177.8,617.2,177.8z"
					/>
				<path d="M575.6,174.2c-0.4-3-1.3-5.8,0.4-8.5c-0.9,2.4-0.7,4.8-0.1,7.2c0.2,0,0.4,0,0.6,0c0-2.4,0-4.7,0-7.1c0.2,0,0.4,0,0.6,0
					C576.2,168.6,578,171.6,575.6,174.2z"/>
				<path d="M457.4,162c2.8-1.6,5.7-1.1,8.4,0.2c1.6,0.7,2.4,2.4,2.7,4.2c-1.2-1.8-2.1-4-4.6-4.5C461.8,161.6,459.6,161.1,457.4,162
					z"/>
				<path d="M447.8,184.2c1.2-0.7,3.1-0.6,4.3,0.3c1.2,1,1.7,2.9,1.2,4.3c-0.5-1.1-0.7-2.9-1.7-3.7
					C450.7,184.3,448.9,184.4,447.8,184.2z"/>
				<path d="M430.8,178.7c2.9,5,3.4,5.3,5.7,4.3c0.1,0.1,0.1,0.2,0.2,0.4c-0.6,0.2-1.1,0.6-1.7,0.5
					C433.2,183.9,431.6,182,430.8,178.7z"/>
				<path d="M458.4,188.7c-1.4,0.7-2.7,0.3-3.5-1.1c-0.8-1.4-0.8-2.9-0.2-4.5C454.6,186,454.7,188.6,458.4,188.7L458.4,188.7z"/>
				<path d="M477.8,173.7c0-2.3,0-4.7,0-7.4c0.9,2.7,0.9,5,0.5,7.4C478.1,173.7,478,173.7,477.8,173.7z"/>
				<path d="M446.5,161.6c-2.5-1-5-1.4-7.6,0.4C440.3,159.9,444.1,159.8,446.5,161.6z"/>
				<path d="M601.5,191.5c-2.3-1-2.4-4.1-0.1-6.8C600.2,187.2,599.4,189.4,601.5,191.5z"/>
				<path d="M456.3,161.7c-2.2-1.2-4.2-2-6.5-1.2C452.2,159.4,454.8,159.8,456.3,161.7z"/>
				<path d="M458.4,188.8c1.4-1.2,1.7-2.8,1.7-4.6c0.3,1.1,0.5,2.2,0.8,3.3l0,0C460.1,187.9,459.3,188.3,458.4,188.8
					C458.4,188.7,458.4,188.8,458.4,188.8z"/>
				<path d="M459.6,183.1c-1.2-0.3-2.4-0.5-3.6-0.8c0-0.1,0.1-0.3,0.1-0.4c1.2,0.2,2.4,0.5,3.7,0.7
					C459.7,182.8,459.7,183,459.6,183.1z"/>
				<path d="M615.3,183.6c-0.2,1.7-0.7,3.3-2.3,4.3C613.7,186.5,614.5,185.1,615.3,183.6C615.3,183.7,615.3,183.6,615.3,183.6z"/>
				<path d="M435.2,178.2c-1.1-0.1-2.3-0.2-3.2-0.3C433.5,177.1,434.3,177.1,435.2,178.2z"/>
				<path d="M449.6,190.2c1.1,0,2,0,3,0C451.9,191.1,451.2,191.2,449.6,190.2z"/>
				<path d="M609.9,187.6c-1.7-1-1.5-3.5,0.5-5.5C609.2,184.1,608.4,185.8,609.9,187.6z"/>
			</g>
		</g>
	</g>
</g>
</svg>
