<?xml version="1.0" encoding="utf-8"?>
<!-- Generator: Adobe Illustrator 21.0.0, SVG Export Plug-In . SVG Version: 6.00 Build 0)  -->
<svg version="1.1" xmlns="http://www.w3.org/2000/svg" xmlns:xlink="http://www.w3.org/1999/xlink" x="0px" y="0px"
	 viewBox="0 0 225.8 193" style="enable-background:new 0 0 225.8 193;" xml:space="preserve">
<style type="text/css">
	.st0{fill:#333333;}
	.st1{fill:#0071BC;}
	.st2{clip-path:url(#SVGID_2_);}
	.st3{fill:#FFFFFF;}
	.st4{fill:#232020;}
	.st5{clip-path:url(#SVGID_4_);}
	.st6{clip-path:url(#SVGID_6_);}
	.st7{fill:#FFE5C2;}
	.st8{fill:#ABABAB;}
	.st9{fill:#9A9A9A;}
	.st10{fill:#4B4B4B;}
	.st11{fill:#515151;}
	.st12{fill:#989898;}
	.st13{fill:#585858;}
	.st14{fill:#797979;}
	.st15{fill:#6E6E6E;}
	.st16{fill:#8E8E8E;}
	.st17{fill:#BABABA;}
	.st18{fill:#7F7F7F;}
	.st19{fill:#949494;}
	.st20{fill:#AEAEAE;}
	.st21{fill:#C5C5C5;}
	.st22{fill:#7C7C7C;}
	.st23{fill:#919191;}
	.st24{fill:#A2A2A2;}
	.st25{fill:#A7A7A7;}
	.st26{fill:#8C8C8C;}
	.st27{fill:#8D8D8D;}
	.st28{fill:#6C6C6C;}
	.st29{fill:#5F5F5F;}
	.st30{fill:#616161;}
	.st31{fill:#9B9B9B;}
	.st32{fill:#D1D1D1;}
	.st33{fill:#A9A9A9;}
	.st34{fill:#848484;}
	.st35{fill:#5E5E5E;}
	.st36{fill:#4D4D4D;}
	.st37{fill:#7B7B7B;}
	.st38{fill:#262626;}
	.st39{fill:#5D5D5D;}
	.st40{fill:#FBFBFB;}
	.st41{fill:#696969;}
	.st42{fill:#6B6B6B;}
	.st43{fill:#0F0F0F;}
	.st44{fill:#5B5B5B;}
	.st45{fill:#353535;}
	.st46{fill:#272727;}
	.st47{fill:#383838;}
	.st48{fill:#A0A0A0;}
	.st49{fill:#CFCFCF;}
	.st50{fill:#B3B3B3;}
	.st51{fill:#D0D0D0;}
	.st52{fill:#636363;}
	.st53{fill:#E5E5E5;}
	.st54{fill:#343434;}
	.st55{fill:#545454;}
	.st56{fill:#525252;}
	.st57{fill:#B4B4B4;}
	.st58{fill:#D5D5D5;}
	.st59{fill:#707070;}
	.st60{fill:#F1F1F1;}
	.st61{fill:#767676;}
	.st62{fill:#E2E2E2;}
	.st63{fill:#AAAAAA;}
	.st64{fill:#4C4C4C;}
	.st65{fill:#7A7A7A;}
	.st66{fill:#A3A3A3;}
	.st67{fill:#C2C2C2;}
	.st68{fill:#808080;}
	.st69{fill:#9E9E9E;}
	.st70{fill:#2D2D2D;}
	.st71{fill:#787878;}
	.st72{fill:#8F8F8F;}
	.st73{fill:#5C5C5C;}
	.st74{fill:#303030;}
	.st75{fill:#8A8A8A;}
	.st76{fill:#E3E3E3;}
	.st77{fill:#9F9F9F;}
	.st78{fill:#898989;}
	.st79{fill:#B7B7B7;}
	.st80{fill:#6F6F6F;}
	.st81{fill:#999999;}
	.st82{fill:#6D6D6D;}
	.st83{fill:#909090;}
	.st84{fill:#BFBFBF;}
	.st85{fill:#B2B2B2;}
	.st86{fill:#3D3D3D;}
	.st87{fill:#1D1D1D;}
	.st88{fill:#777777;}
	.st89{fill:#606060;}
	.st90{fill:#6A6A6A;}
	.st91{fill:#373737;}
	.st92{fill:#AFAFAF;}
	.st93{fill:#575757;}
	.st94{fill:#727272;}
	.st95{fill:#717171;}
	.st96{fill:#737373;}
	.st97{fill:#F9F9F9;}
	.st98{fill:#ADADAD;}
	.st99{fill:#7E7E7E;}
	.st100{fill:#555555;}
	.st101{fill:#818181;}
	.st102{fill:#8B8B8B;}
	.st103{fill:#A8A8A8;}
	.st104{fill:#B9B9B9;}
	.st105{fill:#EBEBEB;}
	.st106{fill:#B6B6B6;}
	.st107{fill:#646464;}
	.st108{fill:#D6D6D6;}
	.st109{fill:#171717;}
	.st110{fill:#202020;}
	.st111{fill:#464646;}
	.st112{fill:#888888;}
	.st113{fill:#A6A6A6;}
	.st114{fill:#BEBEBE;}
	.st115{fill:#0C0C0C;}
	.st116{fill:#1A1A1A;}
	.st117{fill:#2E2E2E;}
	.st118{fill:#676767;}
	.st119{fill:#878787;}
	.st120{fill:#DBDBDB;}
	.st121{fill:#4F4F4F;}
	.st122{fill:#9C9C9C;}
	.st123{fill:#3B3B3B;}
	.st124{fill:#565656;}
	.st125{fill:#404040;}
	.st126{fill:#E6E6E6;}
	.st127{fill:#DFDFDF;}
	.st128{fill:#0E0E0E;}
	.st129{fill:#232323;}
	.st130{fill:#747474;}
	.st131{fill:#393939;}
	.st132{fill:#444444;}
	.st133{fill:#242424;}
	.st134{fill:#E7E7E7;}
	.st135{fill:#2B2B2B;}
	.st136{fill:#EF8F8F;}
</style>
<g id="圖層_2">
</g>
<g id="圖層_1">
	<g>
		<path class="st7" d="M24.3,162.7c-1.6-1.3-6.3-0.5-7.4,1c-0.5,2.3-4.7,8.9-0.5,14.9c4.2,6.1,4.4,5.7,7.9,3.9
			c1.2,1.6,2.1,7.1,7.1,3.9c0.5-0.3,1.2-1,1.2-1l1.6,3.6c0,0,1.5,2.8,4.3,2s2.4-3.4,2.3-4.3c-0.3,2.5,5.4,5.4,6.9,2.3
			c0.9-2.2,0.2-5.9,0.2-5.9s0.4-5.4,1.1-5.4s15.1,0.4,15.1,0.4s2-11.1-0.6-11.9c-2.6-0.8-6.6,1.3-7.7,3c-0.6-1.2-1.9-7.4-7-7.7
			c-4.4-0.3-6,0.7-6,0.7c-1.2-1.2-4.2-4.6-9.7-0.3C31,160.3,26,159.6,24.3,162.7z"/>
		<path class="st7" d="M202.2,164.6c1.7-1.2,7-0.4,8,1.2c0.4,2.3,3.1,8.5-0.4,14.9c-3.5,6.5-4.9,6-7.7,2.5c-1.9,5.8-3.3,8.7-7.7,4.4
			c-0.4-0.4-1.2-0.1-1.2-0.1l-1.8,3.1c0,0-1.7,2.6-4.4,1.6c-2.7-1-2.3-3.3-2.2-4.1c0,8.1-5.6,4.2-6.9,1c-0.7-2.3-0.8-6.1-0.8-6.1
			s0.9-5.1,0.1-5.2c-0.7,0-15.1-0.5-15.1-0.5s-2-11.3,0.6-12c2.6-0.7,7.1,1.8,8.1,3.6c0.7-1.1,3.9-6.9,7.4-7.3c4.4-0.1,5.3,1,5.3,1
			c1.3-1.1,4.7-3.9,10,0.7C195.9,162,200.7,161.3,202.2,164.6z"/>
		<g>
			<path class="st7" d="M95.9,177.5l-0.3-13.2c0,0-29.7-9.4-35-14.6c-5.2-5.2-17-53.5-17-53.5l5.3-40.1l27.4-16.6l67,1.1l32,13.7
				l3,35.7l-1.4,38.3l-8.5,17.6c0,0-8.8,7.4-11.7,8.3c-2.9,1-2.5,3.5-11.9,6.7c-3.7,0.7-18.5,1-18.5,1l-1,15.8L95.9,177.5z"/>
			<path class="st3" d="M65.7,93.9c0,0-5.9,5.1-5.3,14.6c0.5,8.1,4.7,17,20.5,17c5.8-1.2,16.4-3.6,13.2-23.1
				C92.5,96,85.6,90,80.2,90.1S67.1,92.4,65.7,93.9z"/>
			<path class="st3" d="M141.6,92.6c-6.5,0.3-15.2,8.4-15.2,11.6s-4.3,5.9,0,15.9c2.8,3.9,8.3,9.8,16,7.5c5.9-1.5,12.3-3,14.8-8.3
				c0.8-1.4,3.2-6.6,2.7-10.9s0.1-4.8-1.6-7.8S154.4,92,141.6,92.6z"/>
			<path class="st3" d="M95.5,164.3c0-0.1,0.2-0.1,0.3-0.2c3.9,0.4,7.7,0.8,11.6,1.2c0-0.2,0-0.4,0.1-0.6c-3.9-0.2-7.8-0.4-11.6-0.5
				c-0.3-0.2-0.5-0.4-0.7-0.5c0.3,3.5,0.5,10.2,0.8,13.8h0.9C96.4,174.1,95.9,167.5,95.5,164.3z"/>
			<path d="M95.5,164.3c0-0.1,0.2-0.1,0.3-0.2l0,0c-0.3-0.2-0.5-0.4-0.7-0.5c0.3,3.5,0.5,10.2,0.8,13.8h0.9
				C96.4,174.1,95.9,167.5,95.5,164.3z"/>
			<path d="M95.8,164.1c3.9,0.2,7.8,0.4,11.6,0.5c0,0.2,0,0.4-0.1,0.6C103.5,164.9,99.7,164.5,95.8,164.1L95.8,164.1z"/>
			<path class="st3" d="M126.8,163.4c0-0.4,0.9-0.9,1.3-1c3-0.2,5.9-0.2,8.9-0.4c6.8-0.4,13.4-1.7,18.6-6.6c2.8-2.6,5.6-5.3,7.6-8.4
				c3.7-6.1,3.3-12.8,1.9-19.5c-1.1-5.1-2-10.2-3-14.9c0.2,2.4,0.4,5.2,0.8,8c0.8,5.3,2.2,10.5,2,16c-0.2,4.9-1.3,9.5-4.5,13.3
				c-4.3,5.4-9.6,9.4-16.6,10.5c-4.7,0.7-9.4,0.9-14.1,1.2c-4.5,0.4-9.1,0.7-13.6,1c0,0.2,0,0.4,0,0.6c3.3-0.3,6.7-0.6,9.8-0.8
				c-0.2,4-0.4,11.2-0.6,15c0.2,0,0.4,0,0.6,0C126.2,173.8,126.5,166.9,126.8,163.4z"/>
			<path class="st3" d="M160.3,153.2c4.5-1.9,9-1.8,13.6-0.7c4.4,1.1,6.8,0.6,9.9-2.4c-2,0.5-4.3,1.4-6.6,1.6
				c-2.1,0.2-4.3-0.4-6.5-0.7C167,150.5,163.5,151,160.3,153.2z"/>
			<path d="M126.8,163.4c0-0.4,0.9-0.9,1.3-1c3-0.2,5.9-0.2,8.9-0.4c6.8-0.4,13.4-1.7,18.6-6.6c2.8-2.6,5.6-5.3,7.6-8.4
				c3.7-6.1,3.3-12.8,1.9-19.5c-1.1-5.1-2-10.2-3-14.9c0.2,2.4,0.4,5.2,0.8,8c0.8,5.3,2.2,10.5,2,16c-0.2,4.9-1.3,9.5-4.5,13.3
				c-4.3,5.4-9.6,9.4-16.6,10.5c-4.7,0.7-9.4,0.9-14.1,1.2c-4.5,0.4-9.1,0.7-13.6,1c0,0.2,0,0.4,0,0.6c3.3-0.3,6.7-0.6,9.8-0.8
				c-0.2,4-0.4,11.2-0.6,15c0.2,0,0.4,0,0.6,0C126.2,173.8,126.5,166.9,126.8,163.4z"/>
			<path d="M160.3,153.2c3.2-2.2,6.7-2.7,10.5-2.2c2.1,0.3,4.3,0.9,6.5,0.7c2.3-0.2,4.6-1.1,6.6-1.6c-3.1,3-5.5,3.5-9.9,2.4
				C169.4,151.4,164.8,151.3,160.3,153.2z"/>
			<g>
				<path d="M111.3,148c-0.4,0.3-1,0.4-1.5,0.4c-0.5-0.1-1.1-0.3-1.4-0.8c-0.4-0.4-0.6-1-0.7-1.5c-0.1-0.5-0.1-1.1,0-1.6l0,0l0,0
					c0.1-0.4,0.3-0.9,0.5-1.3c0.3-0.4,0.7-0.8,1.1-1c0.9-0.5,2-0.5,3,0c0.5,0.2,0.8,0.7,1.1,1.1c0.3,0.4,0.4,0.9,0.5,1.4
					c0.1,0.9-0.2,1.8-0.7,2.5l-0.1-0.1c0-0.8-0.1-1.6-0.3-2.2c-0.3-0.6-0.7-1.1-1.1-1.3c-0.5-0.3-1.1-0.4-1.6-0.2
					c-0.6,0.2-1,0.7-1.2,1.3l0,0c-0.1,0.4-0.2,0.9-0.2,1.3c0,0.4,0.1,0.9,0.3,1.2c0.2,0.4,0.6,0.6,1,0.8c0.4,0.1,0.9,0.1,1.3-0.1
					L111.3,148z"/>
				<path d="M107.8,150.8c0,0,3.4,1.5,5.4,0.9C111.7,152.9,108.8,152.7,107.8,150.8z"/>
			</g>
			<g>
				<g>
					<path class="st0" d="M126.7,103.6c0.7-2.2,2.2-4,3.8-6.1c-2.9,1-4.5,3.4-6.8,4.6c4.1-5,9.3-8.2,15.7-9.4
						c0.4-0.1,0.8-0.3,0.8,0.4c-6.5,1.1-10.2,5.6-13.1,10.9C126.7,104.1,126.5,104,126.7,103.6z"/>
					<path class="st0" d="M128.8,123.5c-5.5-3.2-5.5-12.2-3.2-16.7C124.4,112.7,124.3,118.5,128.8,123.5z"/>
					<path class="st8" d="M138,118.6c-1.2-0.5-1.5-1.8-1.5-2.7c0.1-1.5-0.8-3-0.1-4.4c0.4-0.7-1.1-1.7,0.4-2.2c0.1,0,0.1,0,0.2,0
						c0.1,0.3,0.2,0.7,0.5,0.9c0.3,0.2,0.5,0.3,0.7,0.6c0.2,0.3,0.3,0.6,0.4,0.9c-0.1,1,0.1,2,0,3C137.9,116,138.6,117.4,138,118.6z
						"/>
					<path class="st9" d="M138,118.6c-0.2-1.3-0.4-2.6,0.4-3.7c1.2,1,1.7,2.4,2.4,3.7c-0.3,1,0,2.3-1.3,2.8
						C138.2,120.9,137.7,119.9,138,118.6z"/>
					<path class="st0" d="M157.2,118.8c0.9-2.6,1.8-5.2,2.3-7.9c0.3-1.2,0-2.5,0.1-3.7c0-0.4-0.2-0.9,0.4-1c0.6,4.6,0,9-2.5,13.1
						C157.2,119.3,157,119.2,157.2,118.8z"/>
					<path class="st0" d="M140.2,93.1c-0.3-0.1-0.5-0.2-0.8-0.4c3.2-1.1,6.6-0.6,9.8-0.3c1.4,0.1,3-0.3,4.8,0.5
						C149.1,93.5,144.6,92.2,140.2,93.1z"/>
					<path class="st10" d="M149.2,109.1c0.2,0,0.5,0,0.7,0.1c0.3,0.5,0.8,0.5,1.4,0.4c0.7,0,1.5-0.1,2.1,0.6c0.2,0.3,0.2,0.7,0.1,1
						c-0.2,0.6-0.5,1.3-0.9,1.9c-0.9,0.4-1.8-0.1-2.7-0.2c-0.3-0.2-0.5-0.5-0.6-0.8c0.3-0.9,0.2-1.7-0.2-2.5
						C149.1,109.4,149.1,109.3,149.2,109.1z"/>
					<path class="st11" d="M147.8,101.9c0,0.4,0,0.9-0.7,0.7c-0.3,0.2-0.6,0.3-0.9,0.3c-0.8-0.1-1.4-0.7-2.2-0.8
						c-0.2-0.1-0.3-0.2-0.4-0.3c-0.1-0.3-0.1-0.6,0-1c0.6-0.7,1.8,0.1,2.3-1c0.4-0.4,0.8-0.7,1.3-0.8c0.4,0,0.9,0,1.3,0.2
						c0.2,0.2,0.2,0.5,0.1,0.7C148.1,100.4,148.2,101.3,147.8,101.9z"/>
					<path class="st12" d="M152.8,121.1c-1,0.8-1.9,1.8-3.2,2.2c-0.3-0.3-0.6-0.6-0.8-0.9c-0.7-1.3,0-1.5,1-1.5
						c0.2,0,0.4,0.2,0.7,0.2c-0.2-0.3-0.5-0.3-0.8-0.5c-0.4-0.3-0.6-0.8-0.7-1.3c0.1-0.5,0.3-0.8,0.8-0.8c0.4,0.2,0.5,0.6,0.8,0.8
						c0.2,0.2,0.5,0.2,0.8,0.2c0.4,0,0.8,0,0.9,0.5C152.6,120.4,152.6,120.8,152.8,121.1z"/>
					<path class="st13" d="M147,103.3c0.2,0.7,0,1.2-0.3,1.8c-0.6,0.5-0.3,1.2-0.4,1.8c0,0.2-0.1,0.3-0.2,0.5
						c-0.2,0.2-0.4,0.3-0.6,0.4c-0.7-0.3-1-0.9-1.2-1.5c0-0.6,0.1-1.1,0-1.7c0-0.2,0.1-0.5,0.2-0.7c0.2-0.1,0.4-0.2,0.7-0.1
						c0.8,0.5,0.1-0.4,0.4-0.4c0.1-0.2,0.3-0.4,0.6-0.4C146.5,102.9,146.8,103,147,103.3z"/>
					<path class="st14" d="M147.8,101.9c0.5-0.5-1.3-1.9,0.7-1.8c0.4-0.1,0.8-0.2,0.7-0.7c1.2-0.4,1.8,0.8,2.8,1.1
						C150.3,100.1,149.2,101.3,147.8,101.9z"/>
					<path class="st15" d="M146,100.1c0.3,0.5,0.3,0.9-0.5,0.8c-0.6-0.1-1.1-0.1-1.7-0.1c-0.6,0.2-1.3,0.5-1.9,0
						c-0.1-0.2-0.1-0.3,0-0.5l0,0c0.2-0.5,0.2-1.1,0.7-1.5c0.2,0,0.5,0.1,0.7,0.1c0.3,0.2,0.7,0.5,1.1,0.4c0.3-0.1,0.6-0.2,0.9-0.2
						C145.9,99.3,146.2,99.5,146,100.1z"/>
					<path class="st16" d="M148.2,123.3c-0.8,1.4-1.9,0.1-2.9,0.3c-0.2-0.4,0-0.8,0.3-1.1c0.3-0.1,0.8,0,0.9-0.5
						c0.3-0.2,0.7-0.3,1.1-0.4c0.5,0,1,0.3,1.4,0.6C149.3,123,148.5,123,148.2,123.3z"/>
					<path class="st9" d="M155.2,106.5c1,2.1,1.1,4.4,0.6,6.6c-0.4-0.2-0.1-1-0.7-1.1c-0.5-0.8-0.2-1.7-0.3-2.5
						c0.1-0.5,0.1-0.9-0.1-1.4c-0.1-0.2-0.1-0.5-0.1-0.8C154.7,107,154.8,106.6,155.2,106.5z"/>
					<path class="st17" d="M141.6,123.2c-0.4-0.1-0.7-0.4-0.7-0.9c-0.1-0.1-0.1-0.3-0.1-0.5c0.2-0.2,0.4-0.3,0.6-0.3
						c0.4,0.1,0.9,0.2,1.3-0.1c0.2-0.1,0.4-0.2,0.7-0.3c0.6-0.1,1.1,0,1.4,0.6c0.1,0.9,0,1.7-1.2,1.6
						C142.9,123.4,142.2,122.8,141.6,123.2z"/>
					<path class="st0" d="M133.5,127c-1.4-0.7-3.1-1.2-3.8-2.9c1.5,0.9,3.1,1.7,4.6,2.6C134.3,127.3,133.9,127.1,133.5,127z"/>
					<path class="st18" d="M144.6,99.7c-0.9,0.6-1-0.1-1.2-0.7c0.6-1,1.6-0.8,2.6-0.7c0.4,0.4,1,0,1.5,0.3l0,0
						c0.2,0.4-0.2,0.6-0.4,0.8c-0.4,0.2-0.7,0.5-1.1,0.7c-0.1-0.4-0.4-0.6-0.7-0.8C144.9,99.2,144.7,99.4,144.6,99.7z"/>
					<path class="st0" d="M146,107.3c0.1-0.8-0.7-1.8,0.7-2.2c-0.1,1.9,1.4,2.9,2.5,4c0,0.1,0,0.2,0,0.4
						C147.6,109.6,147.1,108.1,146,107.3z"/>
					<path class="st19" d="M138,110.9c-0.3,0-0.6,0-0.8-0.4c-0.4-0.3-0.2-0.7-0.3-1c-0.1,0-0.1-0.1-0.2-0.1
						c-0.2-0.9-0.6-1.9,0.4-2.6c0.1,0,0.1,0.1,0.2,0.1C139.9,107.9,138,109.6,138,110.9z"/>
					<path class="st18" d="M155,107.6c0,0.3,0,0.5,0,0.8c-0.1,0.8-0.5,0.6-0.9,0.2c-0.4-0.5-1.1,0.2-1.5-0.2c-0.1-0.8,0.5-1.1,1-1.5
						c0.6-0.3-0.1-2.1,1.4-1.4c0,0.1,0,0.2,0,0.4C154.8,106.4,154.8,107,155,107.6z"/>
					<path class="st20" d="M140.9,121.8c0,0.2,0,0.3,0,0.5c-0.6-0.1-1-0.4-1.4-0.9c0.7-0.8,0.5-2,1-2.8c0.6-0.2,0.7,0.3,1,0.7
						c0.1,0.3,0.1,0.5,0,0.8C141.3,120.7,141.4,121.4,140.9,121.8z"/>
					<path class="st21" d="M155.8,114.2c0.2,1.3-0.2,2.5-0.6,3.7c-0.5,0-0.9-0.2-1.1-0.7c-0.1-0.4-0.1-0.7,0-1.1
						c0.4-0.6,0.5-1.4,0.9-1.9C155.3,114,155.5,114,155.8,114.2z"/>
					<path class="st22" d="M153.3,110.2c-0.8-0.1-1.6-0.3-2.4-0.2c-0.7,0-0.8-0.2-0.9-0.8c1,0.6,1.7-0.3,2.5-0.5
						c0.4,0.1,0.7,0.3,0.9,0.7c0.1,0.1,0.1,0.3,0.1,0.4C153.4,110,153.4,110.1,153.3,110.2z"/>
					<path class="st23" d="M143.5,122.9c1.2,0.5,0.8-0.6,1.1-1.1c0.2-0.3,0.6-0.4,0.9-0.3c0.3,0.1,0.5,0.2,0.6,0.4
						c0.1,0.4-0.5,0.3-0.5,0.7c-0.1,0.3-0.2,0.7-0.4,1c-0.6,0-1.2,0-1.8,0C143.2,123.4,143.2,123.2,143.5,122.9z"/>
					<path class="st24" d="M155,105.5c-1.1-0.2-0.6,1.3-1.4,1.4c0-1-0.1-2.1,0.5-3.1C154.8,104.2,155,104.8,155,105.5z"/>
					<path class="st25" d="M152.8,121.1c-0.8-0.1-0.7-0.6-0.6-1.2c0.1-0.3,0.1-0.6,0.3-0.9c0.2-0.2,0.5-0.4,0.9-0.4
						c0.4,0.1,0.6,0.3,0.7,0.6C154,120.2,153.4,120.6,152.8,121.1z"/>
					<path class="st0" d="M160.1,106.2c-0.8,1.5,0.2,3.2-0.6,4.7c0-2.1-0.1-4.1-0.1-6.2c0.1-0.2,0.2-0.2,0.4,0
						C159.9,105.2,160,105.7,160.1,106.2z"/>
					<path class="st26" d="M154,119.3c-0.3-0.1-0.6-0.3-0.8-0.4c-0.4-0.8,0.1-1.3,0.6-1.8c0.2-0.1,0.3-0.1,0.5,0
						c0.3,0.3,0.6,0.5,0.8,0.8C154.8,118.4,154.4,118.8,154,119.3z"/>
					<path class="st23" d="M155.8,114.2c-0.2,0-0.4,0-0.6,0c-0.2,0.2-0.5,0.2-0.7,0.2c-1.2-1.4,0.4-1.7,1-2.3
						c0.4,0.1,0.4,0.1,0.4,1.1C155.8,113.5,155.8,113.8,155.8,114.2z"/>
					<path class="st27" d="M137.6,105.4c-0.2-0.9,0.2-1.5,0.8-2.1c0.5,0.2,1.3-0.3,1.5,0.6c-0.2,0.5-0.6,0.6-1,0.7
						c-0.3,0-0.3,0-0.1,0.8c-0.1,0.1-0.2,0.3-0.4,0.3C138,105.9,137.5,106.2,137.6,105.4z"/>
					<path class="st28" d="M153.2,109.5c-0.2-0.3-0.5-0.5-0.7-0.8c0-0.1,0-0.2,0.1-0.3c0.7,0.6,0.9-1.6,1.7-0.3
						c-0.3,0.3,0,0.7-0.1,1.1C154,109.7,153.6,109.6,153.2,109.5z"/>
					<path class="st29" d="M139.8,104c-0.3-0.6-1.1-0.1-1.4-0.7c0.2-0.1,0.4-0.3,0.6-0.4c0.4-0.3,0.7-0.7,1.2-0.4
						c0.5,0.5,0.9,1.1,0.1,1.7C140.1,104.2,139.9,104.1,139.8,104z"/>
					<path class="st30" d="M156.5,120.7c-0.7,0.9-1.4,1.9-2.7,2.2c0.8-0.8,1.6-1.7,2.3-2.5C156.3,120.5,156.5,120.6,156.5,120.7z"/>
					<path class="st0" d="M126.7,103.6c0.1,0.1,0.3,0.3,0.4,0.4c-0.3,0.7-0.6,1.5-1,2.2c-0.2-0.1-0.3-0.1-0.5-0.2
						C125.6,105.1,126.1,104.3,126.7,103.6z"/>
					<path class="st31" d="M137.6,105.4c0.2,0.4,0.5,0.2,0.8,0.1c0.2,0.2,0.4,0.2,0.5,0.5c-0.1,1-0.9,0.9-1.6,1c0,0-0.1-0.1-0.1-0.1
						C137.2,106.3,136.6,105.6,137.6,105.4z"/>
					<path class="st32" d="M143.5,122.9c0,0.2,0,0.5,0,0.7c-0.7,0.1-1.3,0-1.8-0.4C142,121.9,142.8,123.1,143.5,122.9z"/>
					<path class="st33" d="M142,100.4c0,0.1,0,0.3,0,0.4c-0.1,0.2-0.3,0.3-0.5,0.4c-0.3,0.1-0.5,0.3-0.8,0.4c-0.1,0-0.3,0.1-0.5,0
						c-0.2-0.1-0.4-0.3-0.4-0.5C140.2,100,141,99.9,142,100.4z"/>
					<path class="st34" d="M142.7,98.9c0,0.6,0,1.2-0.7,1.5C141.4,99.5,141.6,99,142.7,98.9z"/>
					<path class="st0" d="M133.5,127c0.3-0.1,0.5-0.2,0.8-0.3c0.5,0.3,1.2,0.2,1.5,0.9C134.9,127.7,134.2,127.4,133.5,127z"/>
					<path class="st35" d="M139.8,101.1c0.1,0.1,0.3,0.2,0.4,0.4c0.2,0.4,0.3,0.8-0.1,1.1c-0.4,0.1-0.8,0.2-1.2,0.3
						C139.1,102.2,139.3,101.6,139.8,101.1z"/>
					<path class="st0" d="M156.5,120.7c-0.1-0.1-0.2-0.2-0.3-0.3c0.3-0.5,0.7-1.1,1-1.6c0.1,0.2,0.3,0.3,0.4,0.5
						C157.4,119.9,157.1,120.4,156.5,120.7z"/>
					<path class="st36" d="M149.2,99.3c0.2,0.3,0.4,0.5,0.6,0.8c-0.5,0-0.9,0.6-1.4,0c0-0.2,0-0.5,0-0.7c0.1-0.2,0.2-0.2,0.4-0.1
						C149.1,99.2,149.2,99.3,149.2,99.3z"/>
					<path class="st27" d="M147.5,98.5c-0.5,0-1.3,1.3-1.5-0.3C146.5,98,147,98,147.5,98.5z"/>
					<path class="st27" d="M148.9,99.2c-0.1,0-0.3,0.1-0.4,0.1c-0.5,0-1,0-1.5,0c0.1-0.3,0.3-0.5,0.4-0.8
						C147.9,99,148.8,98.3,148.9,99.2z"/>
					<path class="st0" d="M159,103.3c-0.2-0.5-0.4-1-0.8-1.8c1,0.4,0.9,1,1.1,1.5C159.3,103.1,159.2,103.2,159,103.3z"/>
					<path class="st0" d="M159,103.3c0.1-0.1,0.2-0.2,0.3-0.3c0.2,0.6,0.5,1.1,0.4,1.8c-0.1,0-0.2,0-0.4,0
						C159.3,104.3,159.2,103.8,159,103.3z"/>
					<path class="st37" d="M148.2,123.3c0.2-0.4,0.8-0.5,0.7-1c0.1-0.2,0.2-0.2,0.3-0.1c0.1,0.4,0.3,0.8,0.4,1.1
						C149.1,123.3,148.6,123.3,148.2,123.3z"/>
					<path class="st0" d="M151.7,124.5c-0.3,0.8-0.8,1.1-1.7,0.8C150.6,125,151.1,124.8,151.7,124.5z"/>
					<path class="st38" d="M147,103.3c-0.4,0-0.7,0-1.1,0c-0.2-0.2-0.2-0.5,0-0.7c0.4,0,0.8,0,1.2,0
						C147.1,102.8,147.1,103,147,103.3z"/>
					<path class="st39" d="M155,107.6c-0.5-0.6-0.5-1.2,0-1.8c0,0.2,0.1,0.4,0.1,0.6C155.1,106.9,155.1,107.2,155,107.6z"/>
					<path class="st0" d="M138.2,128.1c0.1,0.3-0.2,0.3-0.3,0.3c-0.2,0-0.4-0.1-0.6-0.1c0.1-0.1,0.2-0.2,0.4-0.3
						C137.8,127.8,138,127.9,138.2,128.1z"/>
					<path class="st40" d="M149.2,122.1c-0.1,0-0.2,0-0.3,0.1c-0.5,0-1-0.1-1.5-0.4c-0.7,0.1-0.4-0.6-0.7-0.8
						c-0.5-0.3-0.4,0.3-0.6,0.4c-0.1,0.2-0.4,0.3-0.5,0.4c-0.4,0-0.7,0-1.1,0c-0.3-0.6-0.9-0.3-1.4-0.5c-0.4,0-0.5-0.3-0.6-0.5
						c-0.1-0.3-0.4-0.5-0.6-0.6c-0.3-0.2-0.4-0.7-0.7-0.9c-0.2-0.2-0.5-0.5-0.7-0.7c-1-1.1-1.5-2.4-2.1-3.7
						c-0.1-1.1-0.7-2.2-0.1-3.2c-0.4-0.7,0.1-1,0.6-1.3c2.2-0.7,2.4-0.5,2.9,2.7c0.1,0.3,0.1,0.5,0,0.8c-0.5,0.4-0.3,0.6,0.2,0.8
						c0.2,0.3,0.3,0.6,0.4,0.9c0.1,0.5,0.5,0.8,0.7,1.2c0.1,0.1,0.2,0.2,0.3,0.4c0.2,0.3,0.6,0.5,0.9,0.6c0.5,0.3,1,0.5,1.4,0.9
						c0.3,0.6,0.8,0.7,1.4,0.5c0.3-0.1,0.5-0.1,0.8-0.1c0.5,0,0.9,0,1.3,0.4c0.2,0.4,0.5,0.8,0.7,1.2c0.3,0.2,0.3,0.5,0.1,0.8
						c-0.5-0.2-1-0.2-1.3,0.3C148.7,121.6,149.1,121.9,149.2,122.1z"/>
					<path class="st41" d="M139.1,110.6c-0.4,0.3-0.7,0.6-0.7,1.1c-0.1-0.2-0.2-0.5-0.3-0.7c-0.2-1-0.6-2,0.9-2.9
						c-1.6,0.7-1.7,0-1.6-1c0.2-0.7,1.4-0.2,1.4-1.1c0.7-0.3,0.9,0.2,1.2,0.7c0.1,0.7,0.1,1.4,0.1,2.1c-0.2,0.4-0.4,0.8-0.4,1.2
						C139.6,110.2,139.3,110.4,139.1,110.6z"/>
					<path class="st42" d="M137,109.5c0.4,0.3,0.2,0.7,0.3,1C136.2,110.5,136.6,110,137,109.5z"/>
					<path class="st43" d="M146,107.3c1.1-0.4,1,0.9,1.7,1.1c0.6,0.2,0.9,1,1.6,1.1c0.9,0.7,1,1.6,0.3,2.5c-0.2,0.5,0.1,0.8,0.2,1.2
						c0,0.2,0,0.3-0.1,0.5c-0.4,0.5-0.6,1.2-1.5,1c-0.3-0.1-0.2-0.4-0.3-0.6c-0.1,0.3-0.1,0.7-0.5,0.9c-0.3,0-0.5-0.1-0.7-0.2
						c-0.4-1.6-1.2-2.8-2.7-3.7c-0.5-0.3-0.7-1-0.4-1.6c0.4-0.5,0.9-0.7,1.4-1C145.7,108.3,145.7,107.7,146,107.3L146,107.3z"/>
					<path class="st44" d="M155.4,112c0.1,0.9-1.5,1-1,2.1c-0.3,0.9-0.3,0.9-1.6,0.5c-0.3-0.2-0.4-0.5-0.5-0.9
						c0-0.2,0.1-0.3,0.2-0.4c0.6-0.6,0.3-1.4,0.7-2c0-0.4,0-0.7,0-1.1c0-0.1,0-0.2,0-0.3c0.2-0.4,0.7-0.1,1-0.3
						c0.3-0.1,0.5-0.3,0.8-0.1C155.6,110.3,154.8,111.3,155.4,112z"/>
					<path class="st45" d="M152.5,113.4c0,0.1,0,0.2,0,0.4c0,1-1,0.5-1.4,0.9c-0.2,0-0.3,0-0.5,0c-0.5-0.3-0.9-0.7-1.1-1.3
						c0-0.1,0-0.2,0-0.2c0.1-0.2,0.2-0.4,0.4-0.4c0.9-0.3,1.7,0,2.5,0.4c0.1,0.1,0.1,0.2,0.1,0.2
						C152.6,113.4,152.5,113.4,152.5,113.4z"/>
					<path class="st0" d="M152.5,113.4c0-0.1,0-0.2,0-0.3c0-0.7,0.1-1.3,0.7-1.8C153,112,153.9,113.1,152.5,113.4z"/>
					<path class="st46" d="M150,112.7c-0.1,0.1-0.3,0.3-0.4,0.4c-1.1-0.4-0.1-0.7,0-1.1C149.7,112.2,149.9,112.5,150,112.7z"/>
					<path class="st47" d="M146,102.6c0,0.2,0,0.5,0,0.7c-0.1,0.1-0.2,0.2-0.4,0.4c-0.1,0.2-0.2,0.3-0.4,0.4c-0.2,0-0.5,0-0.7,0
						c-0.2,0.3-0.4,0.5-0.8,0.5c-0.3-0.1-0.6-0.2-0.8-0.5c0-0.6,0.4-1,0.6-1.5c0.1-0.3,0.4-0.5,0.6-0.7
						C145,101.6,145.4,102.3,146,102.6z"/>
					<path class="st48" d="M141.2,100.8c0.3,0,0.5,0,0.8,0c0.6,0.3,1.3-0.7,1.9,0c-0.1,0.3-0.1,0.7-0.2,1c-0.6,0.2-1.1,0.4-1.7,0.3
						C141.5,101.7,141.1,101.4,141.2,100.8z"/>
					<path class="st30" d="M142,101.8c0.6,0.4,1.1-1.1,1.7,0c0.2,0,0.4,0.1,0.5,0.1c0,0.3-0.1,0.6-0.4,0.7c-0.5,0.4-1.1,0.2-1.6,0.2
						c-0.2,0-0.3-0.1-0.4-0.3C141.8,102.2,141.8,101.9,142,101.8z"/>
					<path class="st11" d="M149.2,119.2c-0.5,0-1,0-1.4,0c-1.1-0.6-1.8-1.4-0.6-2.6c0.5,0.1,0.9,0.6,1.4,0c0.6,0.1,0.8,0.7,1.2,1
						c0.2,0.2,0.3,0.4,0.3,0.6c0,0.1-0.1,0.2-0.1,0.2C149.7,118.8,149.5,119,149.2,119.2z"/>
					<path class="st49" d="M150,121.2c0-0.3-0.1-0.5-0.1-0.8c0.2,0,0.3,0.1,0.5,0.1c0.4,0,0.8,0,1.1,0.4c0.1,0.1-0.2,0.4-0.3,0.6
						C150.7,121.9,150.4,121.5,150,121.2z"/>
					<path class="st50" d="M151.5,120c-0.3,0-0.6,0-0.8-0.4c-0.2-0.3-0.3-0.6,0-1c0.6-0.3,0.7,0.2,1,0.6
						C151.7,119.5,151.6,119.7,151.5,120z"/>
					<path class="st51" d="M151.5,120c0-0.2,0-0.4,0-0.7c0.4-1,0.7-0.3,1.1,0c0,0.3,0,0.5-0.3,0.6C151.9,119.5,151.7,120,151.5,120z
						"/>
					<path class="st52" d="M150.7,118.6c0,0.4,0,0.7,0,1.1c-0.8,0-0.7-0.6-0.7-1.1l0,0c0.2-0.2,0.4-0.2,0.6-0.2
						C150.6,118.5,150.7,118.5,150.7,118.6z"/>
					<path class="st53" d="M145.3,108.8c-0.5,0.3-0.9,0.7-1.5,0.7c-0.2,0-0.5,0-0.7-0.1c-0.6-0.3-1-0.8-1.4-1.2
						c-0.4-0.8-0.5-1.6,0.6-2c0.6,0,1.2,0,1.9-0.1c0.2,0,0.3,0.1,0.4,0.3c0.4,0.5,0.7,1,1.1,1.4
						C146.1,108.2,145.6,108.5,145.3,108.8z"/>
					<path class="st47" d="M144.5,106.2c-0.1,0-0.2,0-0.4-0.1c-0.5-0.2-0.7-0.6-0.5-1.1c0.2-0.3,0.4-0.6,0.8-0.3
						C144.9,105.3,144.4,105.8,144.5,106.2z"/>
					<path class="st0" d="M145.3,108.8c0.1-0.4,0.2-0.7,0.3-1.1c0.1-0.1,0.3-0.2,0.4-0.4C146,107.9,146.8,108.9,145.3,108.8z"/>
					<path class="st54" d="M145.2,104c0.1-0.1,0.2-0.2,0.4-0.4c0.3,0.5,0.1,0.8-0.2,1.2C145.3,104.6,145.3,104.3,145.2,104z"/>
					<path class="st41" d="M144.5,104.8c-0.2,0.1-0.5,0.2-0.7,0.3c-0.1,0-0.2-0.1-0.2-0.1c-0.1-0.3-0.5-0.6,0.2-0.6
						c0.2-0.1,0.5-0.2,0.7-0.4C144.5,104.3,144.5,104.6,144.5,104.8z"/>
					<path class="st37" d="M144.6,99.7c-0.1-0.3-0.5-0.6,0-0.9c0.4-0.2,0.6,0.2,0.7,0.5C145.1,99.6,144.9,99.6,144.6,99.7z"/>
					<path class="st34" d="M145.6,121.8c0.1-0.1,0.2-0.3,0.3-0.4c0.4-0.2,0.3-1.3,1.1-0.7c0.1,0.4,0.3,0.7,0.4,1.1
						c-0.2,0.4-0.7,0.4-1.1,0.4c-0.2,0.1-0.3,0.1-0.4,0C145.9,122,145.8,121.9,145.6,121.8z"/>
					<path class="st55" d="M146,122.2c0.1,0,0.3,0,0.4,0c0.1,0.2,0.2,0.4,0.4,0.6c-0.4,0.2-0.8-0.1-1.1-0.2
						C145.2,122,145.9,122.3,146,122.2z"/>
					<path class="st56" d="M155,109.5c-0.2,0.1-0.4,0.2-0.6,0.3c-0.4-0.1-0.2-0.5-0.4-0.8c0-0.4-0.1-0.8,0.3-1
						c0.1,0.5,0.2,0.9,0.8,0.3C155.7,108.7,155.1,109.1,155,109.5z"/>
					<path class="st57" d="M140.9,121.8c0.1-0.6-0.2-1.3,0.3-1.8c0.9,0.1,0.4,0.8,0.6,1.2c0,0.2-0.1,0.5-0.3,0.6
						C141.4,121.8,141.1,121.8,140.9,121.8z"/>
					<path class="st8" d="M142.8,120.7c0.1,0.2,0.2,0.4,0.4,0.7c-0.1,0.1-0.3,0.3-0.4,0.4c-0.6,0.4-0.8,0-0.9-0.5
						c0-0.3,0.2-0.5,0.5-0.7C142.5,120.6,142.6,120.6,142.8,120.7z"/>
					<path class="st27" d="M142,121.1c0,0.5,0.3,0.7,0.7,0.7c-0.4,0.5-0.7,0.5-1.1,0c0-0.2,0-0.5,0.1-0.7
						C141.7,121,141.9,121,142,121.1z"/>
					<path class="st58" d="M142,121.1l-0.2,0l-0.2,0c-0.6-0.2,0.1-0.9-0.4-1.1c0-0.2,0-0.5,0-0.7c0.3,0.2,0.5,0.4,0.8,0.7
						c0.2,0.2,0.4,0.5,0.3,0.8C142.2,120.9,142.1,121,142,121.1z"/>
					<path class="st37" d="M151.1,114.5c-0.1-1.3,1.2,0,1.4-0.7c0.3,0.2,0.4,0.5,0.4,0.8c0.3,0.6,1.6,0.4,1.5,1.5c0,0.3,0,0.7-0.1,1
						c-0.1,0-0.3,0-0.4,0C152.9,116.3,151.8,115.6,151.1,114.5z"/>
					<path class="st59" d="M154.4,116c-0.3-0.7-1.5-0.5-1.5-1.5c0.4-0.5,1.2,0.6,1.5-0.4c0.3,0,0.5,0,0.8,0
						C155.1,114.9,155.1,115.6,154.4,116z"/>
					<path class="st23" d="M154,109.1c0.3,0.1,0.4,0.5,0.4,0.8c-0.4,0.4-0.8-0.2-1.1,0.1c0-0.1,0-0.3,0-0.4
						C153.4,109.1,153.9,109.5,154,109.1z"/>
					<path class="st60" d="M151.1,114.5c1.2,0.6,2.4,1.2,2.8,2.6c-0.2,0.6-0.5,1.2-0.7,1.8c-0.2,0.1-0.4,0.2-0.7,0.4
						c-0.4,0.1-0.7-0.4-1.1,0c-0.2-0.3-0.5-0.5-0.7-0.8l0,0c-0.4-0.4-0.9-0.7-1.3-1.1c-0.5-0.6-0.3-1.3-0.2-2
						c0.2-0.7,0.7-1.1,1.5-0.9C150.8,114.5,150.9,114.5,151.1,114.5z"/>
					<path class="st47" d="M139.8,106.6c-0.4-0.2-0.7-0.5-1.1-0.7c-0.1-0.1-0.2-0.2-0.3-0.4c0.1,0,0.2,0,0.3,0
						c0.4-0.3-0.2-0.7,0.1-1c0.3-0.1,0.7-0.3,1-0.4c0.1,0,0.2,0,0.3,0c0.4,0.3,0.6,0.6,0.5,1.1C140.4,105.6,140.3,106.2,139.8,106.6
						z"/>
					<path class="st55" d="M138.7,104.4c0.1,0.3,0.6,0.7-0.1,1C139,105.1,137.3,104.7,138.7,104.4z"/>
					<path class="st61" d="M140.6,105.1c-0.1-0.3-0.3-0.7-0.4-1c0.7-0.5-0.2-1,0-1.5c0-0.4,0-0.8,0.1-1.1c0.1,0,0.2,0,0.3,0
						c0.9-0.2,0.8,1,1.5,1.1l0,0c0.4,0.8,0.4,1.5-0.1,2.3c-0.3,0.3-0.6,0.5-1.1,0.4C140.7,105.2,140.6,105.1,140.6,105.1z"/>
					<path class="st35" d="M142,102.5c-1,0.3-0.8-1-1.5-1.1c0.1-0.3,0.4-0.5,0.7-0.7c0.3,0.3,0.5,0.6,0.8,1
						C142,102,142,102.3,142,102.5z"/>
					<path class="st62" d="M142,114.6c-0.7,0-0.5-0.4-0.3-0.8c0.5-0.2,0.7-0.6,1-1c0.3-0.4,0.6-0.7,1-0.9c0.9-0.4,1.9-0.4,2.4,0.4
						c0.5,0.9,0.3,1.9-0.6,2.7c-0.8,0.3-1.6,0.6-2.5,0.5C142.4,115.4,142.3,114.9,142,114.6z"/>
					<path class="st63" d="M142.8,115.2c0.8-0.1,1.7-0.2,2.5-0.3c0.2-0.2,0.5-0.2,0.8,0c0.4,0.7,0.2,1.2-0.2,1.8
						c-0.1,0.1-0.3,0.2-0.4,0.2c-0.2,0.1-0.3-0.7-0.6-0.1c-0.2,0.3-0.3,0.8-0.6,1c-0.5,0-1-0.1-1.1-0.7c0.1-0.1,0.3-0.3,0.2-0.5
						c-0.1,0.1-0.1,0.2-0.2,0.2c-0.4-0.3-0.9-0.6-1-1.2C142.2,115.3,142.4,115,142.8,115.2z"/>
					<path class="st64" d="M147.4,116.7c-1.1,1,0.1,1.7,0.4,2.5c-0.2,0-0.4,0.1-0.7,0.1c-0.9,0-1.1-0.7-1.3-1.3c0.3-0.3,0-0.7,0-1
						c0.4-0.7,0.7-1.3,0.4-2.1c0.2-0.3,0.4-0.5,0.8-0.3c0.1,0.1,0.3,0.2,0.4,0.3c0.1-0.1,0.2-0.2,0.4-0.1c0.3,0.2,0.6,0.4,0.9,0.7
						c0.6,0.7-0.1,0.9-0.5,1.3C148,117,147.7,116.8,147.4,116.7z"/>
					<path class="st63" d="M139.1,110.6c0.1-0.2,0.3-0.5,0.4-0.7c0.6-0.8,1.2-0.8,1.9-0.2c0.3,0.3,0.5,0.8,0.6,1.2
						c0.1,0.6,0.1,1.3-0.1,1.9c-0.1,0.2-0.2,0.3-0.4,0.4c-0.3-0.3-0.3-0.6-0.3-1C141.4,110.5,140.6,110,139.1,110.6z"/>
					<path class="st65" d="M146,117.1c0,0.2,0.4,0.5,0,0.7c-0.2,0.3,0,0.7-0.4,0.9c-0.5-0.3-0.9-0.7-1.4-1c0-0.5-0.2-1,0.3-1.4
						c0.2,0.2,0.5,0.4,0.8,0.3c0.1,0,0.1,0,0.2,0C145.8,116.7,145.9,116.9,146,117.1z"/>
					<path class="st23" d="M145.5,118.8c0.1-0.3,0.1-0.7,0.4-0.9c0.4,0.5,0.8,1,1.2,1.5C146.4,119.7,145.7,119.9,145.5,118.8z"/>
					<path class="st66" d="M147,120.8c-0.6-0.1-0.7,0.6-1.1,0.7c0.1-0.5-0.3-1.1,0.4-1.3C146.8,119.9,147.1,120.2,147,120.8z"/>
					<path class="st63" d="M142.7,113.1c-0.1,0.7-0.2,1.2-1.1,0.7c0-0.2-0.1-0.4-0.1-0.6c0,0,0.1-0.1,0.1-0.1
						c0.2-0.2,0.4-0.2,0.7-0.2C142.5,112.9,142.6,113,142.7,113.1z"/>
					<path class="st67" d="M142.3,120.7c-0.3-0.2-0.4-0.5-0.3-0.8c0.4,0.1,1,0,0.8,0.8C142.6,120.7,142.5,120.7,142.3,120.7z"/>
					<path class="st68" d="M143,116.8c0.1-0.3,0.1-0.5,0.2-0.8c0,0.4,1.1,0.9-0.1,1.1C143,117,143,116.9,143,116.8z"/>
					<path class="st69" d="M142.8,115.2c-0.3,0.1-0.5,0.3-0.8,0.4c0-0.4,0-0.7,0-1.1C142.4,114.6,142.7,114.8,142.8,115.2z"/>
					<path class="st36" d="M139.8,106.6c0-0.6,0.1-1.2,0.8-1.5l0,0c0.4,0.7,1.1,0.3,1.6,0.6c0.2,0.2,0.4,0.3,0.2,0.6
						c-0.8,0.4-0.6,1.1-0.4,1.7c0.3,0.4,0.1,0.7-0.2,1c-0.7,0.3-1.4,0.7-2-0.2C139.7,108,139.2,107.3,139.8,106.6z"/>
					<path class="st36" d="M139.8,108.7c0.6,0.5,1.2,0,1.8,0c0.3,0.5,0.1,0.9-0.4,1.1c-0.6-0.4-1.2-0.1-1.8,0
						C138.9,109.3,139,108.9,139.8,108.7z"/>
					<path class="st70" d="M142.3,113c-0.2,0-0.4,0-0.6,0c0-0.7,0-1.4,0-2.1c1.2,0,1.2-1.1,1.8-1.8c0.2-0.1,0.3,0.1,0.3,0.3
						c0.2,1,0.6,1.8,1.6,2.2c0.9,0.4,1.9,0.8,1.1,2.1c-0.1,0.1,0.3,0.6,0.5,0.9c-0.2,0.1-0.5,0.2-0.7,0.4c-0.1,0.2-0.3,0.1-0.4,0
						c-0.2,0-0.4,0-0.6,0c0.6-0.8,1-1.7,0.4-2.6c-0.6-0.9-1.5-0.1-2.2,0C143.1,112.6,142.6,112.8,142.3,113z"/>
					<path class="st71" d="M148.5,115.6c-0.5,0-0.7-0.1-0.7-0.7c0-0.2,0.1-0.4,0.3-0.4c0.9,0.1,0.7-1,1.4-1.2
						c0.7,0.1,0.9,0.6,1.1,1.2c-0.5,0.3-1,0.4-1.1,1.1C149.2,115.9,148.9,115.3,148.5,115.6z"/>
					<path class="st46" d="M148.2,114.6c-0.1,0.1-0.2,0.3-0.3,0.4c-0.1,0-0.3-0.1-0.4-0.1c0.1-0.4,0.1-0.9,0.6-1.1
						C148.1,114,148.1,114.3,148.2,114.6z"/>
					<path class="st41" d="M142.4,106.3c-0.1-0.1-0.3-0.3-0.4-0.4c-0.3-0.3-0.7-0.5-0.4-1c0.6-0.7,0-1.5,0.4-2.3
						c0.6-0.5,1.2-0.1,1.8,0c0.2,0.7-0.3,1-0.7,1.4c0.1,0.1,0.2,0.2,0.1,0.3c-0.1,0.5-0.2,1,0.6,0.8l0,0c0.1,0.4,0.2,0.7,0.4,1.1
						C143.6,106.7,143,106.5,142.4,106.3z"/>
					<path class="st64" d="M143.8,105.1c-0.3,0.1-0.9,0.5-0.9,0.4c-0.4-0.5,0.3-1,0.2-1.5c0.3,0,0.6,0.1,0.7,0.4
						C143.4,104.6,143.8,104.9,143.8,105.1z"/>
					<path class="st69" d="M148.5,115.6c0.3-1.5,0.7-0.1,1.1,0c0.1,0.6-0.4,1.2,0,1.8c0.2,0.2,0.1,0.3,0,0.5
						c-0.9,0.1-0.4-1.2-1.2-1.2l0,0C148.3,116.4,149,116.1,148.5,115.6z"/>
					<path class="st72" d="M148.3,116.7C148.3,116.7,148.4,116.7,148.3,116.7c0.1,0.2,0.3,0.5-0.2,0.5c-0.4,0-0.8,0.1-0.7-0.5
						C147.7,116.4,148,116.8,148.3,116.7z"/>
					<path class="st12" d="M149.6,117.9c0-0.2,0-0.3,0-0.5c0.6,0.2,1,0.5,1.1,1.1c-0.2,0-0.5,0-0.7,0
						C149.8,118.4,149.7,118.2,149.6,117.9z"/>
					<path class="st73" d="M143.5,109.2c0,0.3,0,0.6,0,0.9c-0.1,1.3-0.6,1.6-1.8,0.9c-0.1-0.4-0.3-0.7-0.4-1.1
						c0.1-0.4,0.3-0.7,0.4-1.1c0.1-0.3,0.2-0.5,0.4-0.8C142.5,108.4,143,108.8,143.5,109.2z"/>
					<path class="st74" d="M141.6,104.8c0.1,0.3,0.2,0.7,0.4,1c-0.7,0.1-1.6,0.7-1.4-0.8C140.9,105,141.2,104.9,141.6,104.8z"/>
					<path class="st75" d="M142.3,113c0.1-0.7,0.7-0.7,1.2-0.7c-0.2,0.2-0.5,0.5-0.7,0.7C142.6,113.1,142.4,113.1,142.3,113z"/>
					<path class="st30" d="M146,114.9c0.1,0,0.2,0,0.4,0c1.2,1,0.4,1.5-0.4,2.1c-0.1-0.1-0.3-0.3-0.4-0.4
						C145.7,116.1,146.2,115.6,146,114.9z"/>
					<path class="st73" d="M145.3,116.7c-0.6,0.7-0.7,0.2-0.8-0.3C145.1,115.6,145.2,116.1,145.3,116.7z"/>
					<path class="st70" d="M141.1,107.4c-0.1,0.3-0.3,0.5-0.5,0.4c-0.2-0.1-0.3-0.4-0.3-0.6c0-0.2,0.2-0.5,0.5-0.3
						C140.9,107,141,107.2,141.1,107.4z"/>
				</g>
				<g>
					<path class="st0" d="M90.7,96c-1.2-0.3-1.7-1.5-2.5-2.2c-2.2-2-4.8-2.8-7.7-3c-0.8,0-1.5-0.2-2.3-0.2c-1,0.4-2.1-0.2-3.1,0.3
						c-1.2,0.3-2.3,0.5-3.5,0.8c-0.4,0.1-0.9,0.3-0.9-0.5c7.2-2.5,14-2.1,20,2.9c0.4,0.3,0.7,0.7,0.8,1.2
						C91.3,95.6,91.1,95.9,90.7,96z"/>
					<path class="st0" d="M62.3,117.1c-2.5-3.9-2.9-8.2-2.3-12.6c0.2-1.4,0.4-2.9,1.1-4.4c-1.3,0.2-2.3,0.6-3.9,0
						c2.1-0.3,3.6-1,5.1-2c0,1.5-0.5,2.6-0.9,3.8c-1.5,4.8-1.1,9.4,0.9,13.9c0.1,0.3,0.1,0.6,0.1,0.9
						C62.5,116.8,62.5,117,62.3,117.1z"/>
					<path class="st0" d="M70.7,91.2c0.2,0.4,0.6,0.4,0.9,0.5c-2.5,1.2-5.1,2.5-8,2.6c-1.8,0.1-3.4-0.2-4.8-1.5
						C63,93.8,66.9,93.1,70.7,91.2z"/>
					<path class="st76" d="M93.2,105.1c-0.6-1.2,0.9-1.7,0.9-2.7c0.8,0.3,0.5,1.1,0.8,1.6c0.2,0.3,0.2,0.7,0.2,1.1
						c0.2,1,0.3,1.9,0.3,2.9c0,0.7,0,1.4,0,2.1c-0.2,1.2,0,2.5-1,3.3c-0.2-0.1,0-0.8-0.4-0.3c-0.3,0.4-0.3,1-0.8,1.2
						c-0.6-0.7-0.4-1.5-0.1-2.2c0.6-0.8,0.2-1.7,0.4-2.6c1-1.7-0.2-3.4,0.2-5.1c0,0,0,0.1,0,0.1C93.6,104.9,93.4,105.1,93.2,105.1z"
						/>
					<path class="st77" d="M73.9,111.7c-0.6-1.7-0.2-3.4-0.2-5.1c0.5-0.2,0.7,0.2,1,0.5c0.1,0.2,0.2,0.4,0.4,0.6
						c0.2,0.3,0.3,0.6,0.4,0.9c0.1,0.8-0.1,1.6,1,1.8c0.3,0.8,0.3,1.6,0.1,2.4c-1.2,1.8-1.2,0.1-1.6-0.5
						C74.6,111.9,74.3,111.9,73.9,111.7z"/>
					<path class="st78" d="M73.7,106.2c0.3-0.8-0.1-1.8,1.1-2.2c0.5-0.7,1.3-0.3,2-0.5c0.2,0,0.3,0.1,0.4,0.3c0.3,1,0.8,2,1.2,2.9
						c0.3,0.6-0.1,1-0.6,1.2c-0.2,0-0.3,0.1-0.5,0.1c-0.5,0-0.8-0.3-1-0.7c-0.1-0.4-0.3-0.9-0.6-1.2c-0.2-0.2-0.4-0.3-0.7-0.2
						C74.6,106.1,74.2,106.4,73.7,106.2z"/>
					<path class="st72" d="M78.7,96.8c0.8-1.1,2.4-0.9,3.3-1.8c0.4,0.4,0.4,1,0.4,1.5c0,0.2,0,0.4,0,0.5c0,0.3-0.1,0.5-0.2,0.8
						c-0.3,0.5-0.8,0.9-1.3,1.2c-0.5,0.1-1,0-1.4-0.3c-0.3-0.2-0.4-0.5-0.6-0.8C78.7,97.6,78.6,97.3,78.7,96.8z"/>
					<path class="st79" d="M92.5,116.7c-0.7,1-1,2.3-2.4,2.6c-0.4-0.1-0.6-0.3-0.7-0.7c-0.1-0.5,0.6-1,0-1.6c0-0.2,0-0.3,0.1-0.5
						c0.5-1,1.4-1.3,2.4-1.4C92.7,115.4,92.1,116.3,92.5,116.7z"/>
					<path class="st80" d="M88.2,97.8c-1.1,0-1.6,1.1-2.4,1.6c-0.1,0.1-0.3,0.1-0.4,0.1c-0.1-0.1-0.3-0.2-0.4-0.3
						c-0.4-0.4-0.8-0.8-0.9-1.4c0-0.2,0-0.3,0.1-0.5c0.3-0.5,0.6-1,1.1-1.3c0.6-0.6,1-0.2,1.3,0.3c0.3,0.5,1,0.3,1.4,0.7
						C88.1,97.2,88.3,97.4,88.2,97.8z"/>
					<path class="st36" d="M90.7,96c-0.3-0.8,0.3-0.8,0.8-0.7c0.3,0.2,0.7,0.5,1,0.7c0.2,0.7,0.6,1.3,1.3,1.8
						c0.5,0.7,1.4,1.4,0.2,2.2c-0.4,0.1-0.7-0.2-1-0.4c-0.5-0.5-0.3-1.5-1.1-1.8C91.6,97.1,91.2,96.6,90.7,96L90.7,96z"/>
					<path class="st81" d="M89.6,118.6c0.1,0.3,0.3,0.5,0.4,0.8c-0.9,1.2-2,2.2-3.7,2.2c-0.3,0.1-0.5-0.1-0.6-0.4
						c-0.1-0.5,0.1-0.9,0.4-1.2c0.5-0.5,1.2,0,1.7-0.5c0.1-0.2,0.1-0.4,0.3-0.6c0.3-0.2,0.7-0.3,1.1-0.4
						C89.3,118.4,89.5,118.4,89.6,118.6z"/>
					<path class="st37" d="M84.2,97.5c0,0.1,0,0.2,0,0.3c0.2,0.4-0.1,0.5-0.3,0.6c-0.5,0.1-0.9-0.1-1-0.6c0.1-0.7-0.5-0.7-0.9-1
						c0-0.6,0-1.1,0-1.7c0.7,0,1.4,0,2.1-0.1C85,95.8,84.6,96.6,84.2,97.5z"/>
					<path class="st49" d="M86,121.2c0.1,0.1,0.3,0.3,0.4,0.4c-1.3,1.1-2.2-0.8-3.4-0.5c-0.4-0.3-1.2,0-1.3-0.8
						c-0.1-0.6,0-1.1,0.8-1.2c0.5,0,0.9,0.2,1.3,0.4c0.4,0.3,0.8,0.5,1.3,0.6C85.7,120.1,85.8,120.7,86,121.2z"/>
					<path class="st28" d="M87.8,106.6c1,0.9,2.4,1.1,3.3,2.2c1.1,1.1,1,1.7-0.5,2.7c-0.3,0-0.5-0.2-0.6-0.4
						c-0.2-0.4-0.1-0.7-0.1-1.1c0-0.3-0.3-0.5-0.5-0.6c-0.1-0.1-0.2-0.2-0.3-0.3c-0.2-0.4-0.4-0.7-0.8-1c-0.2-0.2-0.3-0.3-0.4-0.5
						C87.8,107.2,87.6,106.9,87.8,106.6z"/>
					<path class="st78" d="M92.5,116.7c-0.6-0.3-0.1-1.1-0.6-1.5c-0.4-0.3-0.1-0.6,0-0.8c0.1-0.3,0.2-0.6-0.1-0.8
						c-0.5-0.4-1.1-0.7-1-1.4c0.1-0.8,0.8-0.5,1.2-0.6c0.2-0.1,0.4-0.1,0.7-0.1c0.4,0.1,1,0.1,0.9,0.8c-0.6,0.7-0.2,1.5-0.4,2.2
						C92.4,115.1,92.5,115.9,92.5,116.7z"/>
					<path class="st82" d="M92.2,112c-0.4,0.5-0.7-0.2-1.1,0c-0.4,0.3-0.8,0.3-1.2-0.1c-0.1-0.3,0.1-0.5,0.4-0.6
						c1.2-0.5,1.2-1.5,0.8-2.5c0.2-0.1,0.5-0.3,0.7-0.4c0.2-0.2,0.5-0.2,0.7-0.1c0.3,0.4,0.2,1,0.2,1.5
						C92.6,110.5,92.6,111.3,92.2,112z"/>
					<path class="st83" d="M93.2,105.1c0.2-0.2,0.3-0.5,0.8-1.2c-0.3,2.3,1.2,4.1-0.3,6c-0.4-0.1-0.6-0.3-0.7-0.7c0-0.2,0-0.3,0-0.5
						c0.3-0.6,0.3-1.3-0.2-1.8C93,106.3,93.4,105.8,93.2,105.1z"/>
					<path class="st26" d="M74.8,102.6c-0.2-1.1,0.6-1.7,1-2.5c0.4-0.2,0.7,0,1,0.3c0.2,0.2,0.3,0.5,0.4,0.7
						c0.1,0.7,0.1,1.4-0.7,1.8C75.9,103.1,75.3,103.1,74.8,102.6z"/>
					<path class="st84" d="M80.2,120.7c-1.1-0.3-2.1-0.6-2.6-1.8c-0.2-0.3,0-0.4,0.3-0.5c0.5,0.1,0.8,0.4,1.3,0.5
						c0.8,0,1.7,0.1,2.4-0.4c0.5,0.6,0.1,1.2,0.1,1.8C81.4,120.9,80.7,120.4,80.2,120.7z"/>
					<path class="st25" d="M84.2,97.5c0-0.8,0-1.7,0-2.5c1.1-0.1,2.1,0,3,0.6c0,0.2-0.1,0.4-0.2,0.6c-0.2,0.2-0.3,0.4-0.6,0.6
						c-0.4-0.2-0.5-1.4-1.2-0.3C84.9,96.9,84.7,97.3,84.2,97.5z"/>
					<path class="st85" d="M73.9,111.7c0.5-0.3,0.9-0.3,1.2,0.3c0.4,0.7-0.4,1.7,0.8,2.1c0.2,0.2,0.4,0.5,0.5,0.9
						c0.1,0.3,0.1,0.7,0,1c-0.1,0.2-0.3,0.4-0.6,0.3C74.4,115.1,74.3,113.3,73.9,111.7z"/>
					<path class="st61" d="M78.7,96.8c0.1,0.3,0.2,0.6,0.3,0.9c-0.7,0.2-0.3,0.5,0,0.8c0.2,0.6,0.4,1.1-0.3,1.5
						c-0.5,0-0.8-0.6-1.3-0.3c-0.3-0.2-0.7-0.3-0.5-0.8c0.1-0.3,1.2-0.2,0.2-0.8C77.5,97.5,78.2,97.2,78.7,96.8z"/>
					<path class="st36" d="M94.4,113.5c0.5-1,0.5-2.2,0.7-3.3c0.9,0.3,0.4,1,0.4,1.6c0.1,1.1-0.1,2.2-0.7,3.1
						c-0.1,0.1-0.3,0.1-0.4,0C94.4,114.5,94.4,114,94.4,113.5z"/>
					<path class="st86" d="M87.8,106.6c0.1,0.3,0.2,0.5,0.3,0.8c-0.2,0.9-0.6,1.1-1.3,0.4c-0.4-0.5-0.8-1-0.8-1.7
						c0-0.4,0.1-0.8,0.4-1.1C87.4,105.1,87.2,106.2,87.8,106.6z"/>
					<path class="st36" d="M94.4,114.9c0.1,0,0.3,0,0.4,0c-0.2,1.3-0.6,2.6-1.6,3.6c-0.3,0-0.5,0-0.3-0.4
						C93.4,117.1,93.9,116,94.4,114.9z"/>
					<path class="st36" d="M95.5,111.8c-0.2-0.5,0.1-1.2-0.4-1.6c0-0.7,0-1.5,0-2.2c0.3-0.5-0.1-1.1,0.4-1.5
						C95.9,108.2,95.9,110,95.5,111.8z"/>
					<path class="st87" d="M86.4,105c0,0.4-0.1,0.8-0.1,1.2c-0.2,0.1-0.3,0.1-0.5,0.1c-1.2-0.7-1.5-1.6-0.5-2.7
						c0.3-0.1,0.5-0.1,0.8,0.1C86.5,104,86.3,104.6,86.4,105z"/>
					<path class="st27" d="M75.8,116.4c0.2-0.1,0.3-0.2,0.5-0.4c0.5-0.2,0.9,0,1.3,0.2c0.4,0.3,0.5,0.8,0.4,1.2
						c-0.1,0.5-0.3,0.8-0.7,1.1C76.8,117.8,75.9,117.4,75.8,116.4z"/>
					<path class="st88" d="M92.8,106.9c2,0.2,1,1.1,0.4,1.8c-0.4,0.2-0.6-0.1-0.7-0.4c-0.3,0-0.5,0-0.8,0
						C92.5,108.1,92.5,107.4,92.8,106.9z"/>
					<path class="st0" d="M62.3,117.1c0-0.2,0-0.3,0.1-0.5c1.1,0.6,1.5,1.7,2.1,2.6c0,0.2-0.2,0.4-0.4,0.5
						C63.3,119,62.8,118.1,62.3,117.1z"/>
					<path class="st85" d="M77.2,98.1c0.7,0.3-0.2,1.2,0.5,1.5c-0.2,0.6-0.6,0.7-1.1,0.7c-0.2-0.1-0.4-0.2-0.7-0.3
						C76.2,99.4,76.5,98.6,77.2,98.1z"/>
					<path class="st18" d="M73.7,106.2c0.5-0.2,0.9-0.5,1.4-0.7c0.5,0.9,1.1,1.8-0.7,1.8c-0.2-0.2-0.5-0.5-0.7-0.7
						C73.7,106.4,73.7,106.3,73.7,106.2z"/>
					<path class="st89" d="M85.3,99.3c0.2,0,0.3,0,0.5,0c0,0.8,0,1.6,0,2.5c-0.1,0.3-0.3,0.5-0.6,0.5c-0.2,0-0.4-0.1-0.5-0.3
						C84.3,101,84.3,100,85.3,99.3z"/>
					<path class="st90" d="M86.7,96c0.1-0.1,0.3-0.3,0.4-0.4c0.7,0.2,1.3,0.5,1.8,1.1c0,0.2,0,0.5-0.1,0.7c-0.1,0.1-0.2,0.2-0.3,0.3
						c-0.1,0-0.2,0-0.3,0.1c-0.1-0.2-0.2-0.4-0.3-0.5C87.8,96.5,86.8,96.7,86.7,96z"/>
					<path class="st91" d="M95.5,106.5c-0.2,0.5,0.1,1.1-0.4,1.5c-0.1-1-0.2-1.9-0.3-2.9c0.2-0.3-0.1-0.8,0.3-1.1
						C95.5,104.8,95.6,105.6,95.5,106.5z"/>
					<path class="st81" d="M80.2,120.7c0.4-0.5,0.9-0.2,1.4-0.3c0.1-0.1,0.2-0.1,0.3,0c0.3,0.2,0.7,0.5,1,0.7
						C82,121.2,81.1,121.2,80.2,120.7z"/>
					<path class="st0" d="M92.2,120c-0.3,0.7-0.8,1.2-1.4,1.6c-0.2-0.2-0.2-0.4-0.1-0.7c0.4-0.4,0.8-0.9,1.1-1.3
						C92.1,119.5,92.3,119.6,92.2,120z"/>
					<path class="st36" d="M93.8,97.8c-0.8-0.4-1.7-0.6-1.3-1.8C93.3,96.4,93.4,97.2,93.8,97.8z"/>
					<path class="st30" d="M76.5,103.7c-0.4,1.1-1.3-0.4-1.8,0.4c0-0.1,0-0.2,0-0.4c0.4-0.8,1-0.8,1.8-0.5
						C76.6,103.3,76.7,103.5,76.5,103.7z"/>
					<path class="st0" d="M92.2,120c-0.1-0.1-0.3-0.3-0.4-0.4c0.2-0.6,0.6-1.1,1.1-1.5c0.1,0.1,0.2,0.3,0.3,0.4
						C92.9,119.1,92.7,119.7,92.2,120z"/>
					<path class="st92" d="M76.5,103.3c-0.6,0-1.3,0.1-1.8,0.4c-0.5-0.2-0.3-0.5,0-0.7c0.5-0.3,1.1-0.1,1.7-0.1
						C76.6,102.9,76.6,103.1,76.5,103.3z"/>
					<path class="st0" d="M85.7,124.8c-0.6,0.4-1.2,0.6-1.9,0.6c-0.1-0.1-0.2-0.2-0.1-0.3c0-0.1,0.1-0.1,0.1-0.1
						c0.5-0.2,1-0.4,1.5-0.6C85.5,124.5,85.7,124.5,85.7,124.8z"/>
					<path class="st0" d="M75.1,90.9c1-0.7,2.1-0.2,3.1-0.3C77.2,90.9,76.1,90.9,75.1,90.9z"/>
					<path class="st0" d="M90.7,121c0,0.2,0.1,0.4,0.1,0.7c-0.4,0.5-0.8,0.9-1.7,1.3C89.4,121.8,90.1,121.5,90.7,121z"/>
					<path class="st36" d="M94.1,102.2c-0.2-0.4-0.4-0.8-0.6-1.3c-0.1-0.4,0-0.6,0.4-0.5c0.3,0.4,0.5,0.8,0.5,1.3
						C94.5,102,94.5,102.2,94.1,102.2z"/>
					<path class="st0" d="M64.1,119.8c0.1-0.2,0.3-0.3,0.4-0.5c0.4,0.4,0.8,0.8,1,1.5C64.7,120.9,64.5,120.2,64.1,119.8z"/>
					<path class="st39" d="M85.3,102.1c0.2-0.1,0.3-0.2,0.5-0.4c0.7,0.5,0.3,1.2,0.3,1.8c-0.3,0-0.5,0-0.8,0c0-0.1-0.1-0.1-0.1-0.2
						c0-0.1,0-0.3,0-0.4C85.1,102.7,85.2,102.4,85.3,102.1z"/>
					<path class="st93" d="M94.1,102.2c0.1-0.2,0.2-0.3,0.3-0.5c0.2,0.5,0.4,1.1,0.6,1.6c-0.2,0.2,0,0.6-0.3,0.8
						c-0.2-0.5-0.4-1.1-0.6-1.6C94.1,102.4,94.1,102.3,94.1,102.2z"/>
					<path class="st0" d="M80.9,125.8c-0.7,0.3-1.5,0.1-2.2-0.3c0.7,0,1.5,0,2.2,0c0.1,0.1,0.1,0.1,0.1,0.2
						C81,125.8,80.9,125.8,80.9,125.8z"/>
					<path class="st93" d="M90.7,96c0.7,0.4,1.3,0.9,1.1,1.8C91.2,97.4,90.8,96.8,90.7,96z"/>
					<path class="st0" d="M86.7,123.9c0.4-0.1,0.9-1,1.2-0.2c0.2,0.5-0.7,0.5-1.2,0.7C86.5,124.2,86.5,124.1,86.7,123.9z"/>
					<path class="st0" d="M86.7,123.9c0,0.2,0,0.3,0,0.5c-0.3,0.2-0.7,0.3-1,0.5c-0.1-0.1-0.3-0.3-0.4-0.4
						C85.7,124.2,86.2,124.1,86.7,123.9z"/>
					<path class="st34" d="M88.5,97.7c0-0.1,0-0.2,0-0.3c0.3-0.3,0.7-0.1,1.1-0.2c0.3,0.1,0.6,0.2,0.6,0.5c-0.1,0.3-0.4,0.2-0.6,0.1
						C89.2,97.8,88.9,97.8,88.5,97.7z"/>
					<path class="st94" d="M77.2,118.6c0.1-0.4,0.3-0.8,0.4-1.1c0.3-0.1,0.5,0.1,0.6,0.4c0,0.3,0,0.5-0.2,0.7
						c-0.1,0.1-0.2,0.3-0.4,0.4C77.5,118.8,77.4,118.7,77.2,118.6z"/>
					<path class="st0" d="M80.9,125.8c0-0.1,0-0.2,0-0.3c0.5,0,0.9-0.1,1.4-0.1c0.4-0.2,0.4,0,0.4,0.3
						C82.1,125.8,81.5,125.8,80.9,125.8z"/>
					<path class="st0" d="M67.4,122.5c-0.7,0.2-1.1-0.1-1-0.5c0.1-0.7,0.5-0.1,0.7,0C67.2,122.1,67.2,122.3,67.4,122.5z"/>
					<path class="st93" d="M89.6,97.1c-0.3,0.4-0.7,0.2-1.1,0.2c0-0.3,0.1-0.5,0.4-0.7C89.2,96.9,89.4,97,89.6,97.1z"/>
					<path class="st36" d="M94,100.4c-0.1,0.2-0.3,0.4-0.4,0.5c-0.2-0.4-0.4-0.8-0.6-1.3c0.5-0.2,0.7,0.2,1,0.4
						C94,100.2,94,100.3,94,100.4z"/>
					<path class="st0" d="M82.7,125.7c-0.1-0.1-0.3-0.2-0.4-0.3c0.5-0.3,1-0.4,1.5-0.4c0,0.1,0,0.3,0,0.4
						C83.4,125.5,83.1,125.6,82.7,125.7z"/>
					<path class="st95" d="M76.5,103c-0.6,0-1.2,0-1.8-0.1c0-0.1,0-0.2,0.1-0.3c0.6,0,1.2,0,1.8,0C76.6,102.7,76.6,102.9,76.5,103z"
						/>
					<path class="st36" d="M94.7,104.1c0.1-0.3,0.2-0.5,0.3-0.8c0,0.2,0.1,0.4,0.1,0.7c-0.1,0.4,0,0.8-0.3,1.1
						C94.8,104.7,94.7,104.4,94.7,104.1z"/>
					<path class="st96" d="M93.2,109.1c0.2,0.3,0.3,0.5,0.5,0.8c0.4,0.8,0.5,1.6-0.1,2.4c-0.3-0.2-0.7-0.4-1-0.6
						c-0.6-0.6,0-1.2-0.2-1.8C92.7,109.7,92.6,108.9,93.2,109.1z"/>
					<path class="st97" d="M76.2,113.1c0-1,0-1.9,0-2.9c-0.1-1.1,0.7-1.5,1.5-2c0.7,0,1.2,0.4,1.6,0.9c0.3,0.6,0.2,1.2,0.3,1.8
						c0,0.4,0.1,0.8,0.3,1.2c0.5,0.9,1,1.9,2,2.5c0.2,0.2,0.3,0.5,0.5,0.8c0.2,0.3,0.4,0.4,0.7,0.3c0.7-0.4,1-0.1,1.2,0.6
						c0.1,0.6,0.2,1.1,0.1,1.7c-0.2,0.4-0.5,0.7-0.8,0.9c-0.3,0.1-0.6,0-1-0.1c-0.5-0.1-0.8-0.6-1.4-0.5c-0.7,0.2-1.3-0.3-1.8-0.6
						c-0.3-0.3-0.7-0.5-0.8-0.9c-0.3-1.4-1.6-2.1-2.5-3C75.9,113.6,76,113.3,76.2,113.1z"/>
					<path class="st68" d="M77.6,108.5c-0.5,0.6-1,1.2-1.5,1.7c-0.6,0-0.9,0.4-1.8,0.9c0.6-1.1,0.7-1.9,0.7-2.7
						c0.4-0.2,0.8-0.1,1.1-0.3c0.4,0,0.8-0.1,1.1-0.5c0.1,0,0.3,0,0.4,0C77.9,107.9,77.8,108.2,77.6,108.5z"/>
					<path class="st75" d="M76.2,113.1c0,0.2,0,0.5,0.1,0.7c0.1,0.4-0.1,0.5-0.4,0.4c-0.8,0.3-1.1,0-1.1-0.8c0-0.5,0.2-1,0.3-1.4
						c0.5,0,0.5,0.2,0.4,0.7C75.3,113.4,75.7,113.3,76.2,113.1z"/>
					<path class="st98" d="M74.4,107.3c1.2-0.2,0.6-1.1,0.7-1.8c0.5-0.5,0.6,0.1,0.7,0.3c0,0.5,0.2,0.9,0.3,1.4
						c0,0.3-0.1,0.5-0.3,0.6c-0.4,0.1-0.7,0.1-1-0.2C74.6,107.5,74.5,107.4,74.4,107.3z"/>
					<path class="st44" d="M74.7,107.7c0.4,0,0.7,0,1.1,0c0.7,0,0.6,0.3,0.4,0.7c-0.4,0.2-0.7,0.2-1.1,0
						C74.8,108.2,74.7,108,74.7,107.7z"/>
					<path class="st90" d="M76.5,103c0-0.1,0-0.3,0-0.4c0.6-0.5,0.3-1.2,0.3-1.8c0.5-0.9,1-0.1,1.4,0.1c0.6,0.3,0.7-0.4,1.1-0.6
						c0.7-0.1,1.4,0.1,1.9,0.7c0.2,0.6-0.2,1-0.6,1.3c-0.2,0.1-0.3,0.1-0.5,0.2c-0.9,0-1.7,0.2-2.4,0.9c-0.3,0.2-0.6,0.3-0.9,0.3
						c-0.1,0-0.2,0-0.4,0c0-0.1,0-0.3,0-0.4C76.5,103.2,76.5,103.1,76.5,103z"/>
					<path class="st99" d="M76.9,103.6c0.2-0.3,0.4-0.4,0.8-0.4c0.1,0,0.2,0,0.3,0c0.2,0.1,0.4,0.1,0.4,0.3c0.2,0.8,1.4,0.7,1.4,1.4
						c0,0.8-1.1,0.8-1.4,1.5c-0.1,0.1-0.2,0.2-0.4,0.3C77.5,105.9,76.7,104.9,76.9,103.6z"/>
					<path class="st59" d="M78,106.9c0-0.1,0-0.2,0-0.3c0.7-0.5,1.1,0.2,1.7,0.3c0.6,0.9,0.4,1.7-0.3,2.4c-0.2,0-0.3,0-0.5-0.1
						c-0.4-0.2-0.9-0.4-1.3-0.7c0-0.3,0-0.5,0-0.8C77.9,107.5,78.5,107.4,78,106.9z"/>
					<path class="st100" d="M76.2,108.4c0-0.3-0.1-0.6-0.4-0.7c0-0.2,0-0.5,0-0.7c0.2-0.2,0.5-0.2,0.7,0c0,0.5,0.3,0.7,0.7,0.7
						C77.2,108.4,77,108.8,76.2,108.4z"/>
					<path class="st101" d="M76.5,107c-0.2,0-0.4,0-0.7,0c-0.6-0.3-0.5-0.7-0.1-1.1C76.3,106,76.5,106.4,76.5,107z"/>
					<path class="st37" d="M81.2,101.1c-0.6-0.2-1.2-0.5-1.8-0.7c-0.2,0-0.4,0-0.6-0.2c0-0.1-0.1-0.1-0.1-0.2c0.4-0.5,0-1,0-1.5
						c0.2-0.2,0.5-0.2,0.7,0c0.5,0,1,0.1,1.5,0.4c0.1,0.1,0.2,0.2,0.3,0.3c0.1,0.3,0.3,0.6,0.4,0.9
						C81.5,100.5,82.2,101.1,81.2,101.1z"/>
					<path class="st14" d="M83.1,97.5c0,0.5,0.2,0.7,0.7,0.7c0.1,0.2,0.1,0.3,0,0.5c-0.3,0.3-0.7,0.5-1.2,0.4
						c-0.6-0.2-0.8-0.7-0.6-1.3c0-0.2,0-0.4,0-0.6C82.5,96.9,82.9,96.6,83.1,97.5z"/>
					<path class="st102" d="M82,97.8c0.2,0.4,0.4,0.7,0.6,1.1c0.2,0.1,0.3,0.2,0.3,0.4c0,0.4,0,0.7-0.4,0.8c-0.4,0-0.6-0.4-0.9-0.6
						c-0.2-0.1-0.5-0.1-0.7-0.3c0-0.1,0-0.2,0-0.3C80.9,98.2,81.5,98.1,82,97.8z"/>
					<path class="st103" d="M83.1,97.5c-0.3-0.4-0.7-0.3-1.1-0.3c0-0.1,0-0.3,0-0.4c0.5,0,1-0.1,1.4,0
						C83.6,96.8,83.4,97.3,83.1,97.5z"/>
					<path class="st104" d="M79.4,98.5c-0.2,0-0.5,0-0.7,0c-0.2-0.4-0.2-0.7,0.3-0.8C79.4,97.9,79.4,98.2,79.4,98.5z"/>
					<path class="st105" d="M90,111.6c0.2,0.5,0.7,0.3,1.1,0.4c0,0.7,0.6,1,1,1.4c0,0.4,0.1,0.6,0.5,0.8c-0.2,0.3-0.4,0.7-0.6,1
						c-0.7,0.6-1.8,0.5-2.3,1.5c-0.6-0.6-1.4-1.2-1.8-2c-0.2-0.5-0.6-1-0.7-1.6c-0.1-0.7,0.2-1.2,0.8-1.6c0.2-0.1,0.3-0.2,0.5-0.2
						C89,111.2,89.6,111.2,90,111.6z"/>
					<path class="st106" d="M88.2,114.5c0.3,0.9,1.7,1,1.5,2.2c0,0.1,0,0.3,0,0.4c-0.6,0.6-1.1-0.2-1.7-0.1c-0.6-0.1-1.2-0.2-1.2-1
						C87.4,115.8,87.3,114.7,88.2,114.5z"/>
					<path class="st83" d="M88.1,116.8c0.7-1,1,0.6,1.6,0.3c0.9,0.5-0.1,1,0,1.5c-0.1,0-0.2,0-0.2,0c-0.4-0.8-0.7,0.3-1,0.1
						c-0.6-0.3-0.3-0.8-0.4-1.2C87.9,117.2,87.9,117,88.1,116.8z"/>
					<path class="st39" d="M82.4,100c0.4-0.1,0.4-0.4,0.4-0.7c0.6-0.3,0.8,0,0.9,0.5c0.1,0.2,0.3,0.3,0.1,0.1c0,0,0.1-0.1,0.1-0.1
						c0.4-0.3,0.6-1,1.3-0.8c0,0.1,0,0.2,0,0.3c-0.3,0.9-0.5,1.9-0.4,2.8c-0.1,0.1-0.2,0.2-0.4,0.2c-0.3,0.1-0.5-0.8-0.9-0.1
						C82.2,102,82.2,101,82.4,100z"/>
					<path class="st89" d="M85.2,98.9c-0.6,0.2-0.6,1.1-1.4,1.1c-0.2-0.5-0.4-1,0-1.5c0-0.1,0-0.2,0-0.4c0.1-0.1,0.2-0.3,0.4-0.4
						C84.5,98.2,84.9,98.6,85.2,98.9z"/>
					<path class="st102" d="M86.7,96c0.3,0.5,1.7-0.1,1.1,1.2c-0.5-0.2-1-0.3-1.5-0.5C86.4,96.4,86.4,96.2,86.7,96z"/>
					<path class="st19" d="M88.2,117.5c0.4,0.4-0.2,0.7,0,1.1c0.1,0.1,0.2,0.2,0.1,0.3c0,0.1-0.1,0.1-0.1,0.1c0,0.2,0,0.4,0,0.6
						c-0.2,0.3-0.4,0.3-0.7,0.2c-0.5-0.2-1.1,0-1.5-0.4c-0.2-0.3-0.2-0.6,0.1-0.9C86.9,118.5,87.2,117.2,88.2,117.5z"/>
					<path class="st83" d="M86,121.2c-0.4-0.2-0.5-0.8-1.1-0.8c-0.1-0.1-0.2-0.3-0.2-0.4c0-0.4,0.1-0.7,0.5-0.8c0.2,0,0.3,0,0.5,0
						c0.2,0.2,0.5,0.3,0.8,0.5c0.1,0.2,0.1,0.3-0.1,0.4C86.2,120.4,86.1,120.8,86,121.2z"/>
					<path class="st107" d="M86.3,120c0-0.1,0-0.2,0-0.3c0.3-0.3,0.7-0.2,1-0.1c0.3,0,0.5,0,0.8,0c0.2,0.3,0.4,0.7-0.2,0.6
						C87.4,120.2,86.9,120.1,86.3,120z"/>
					<path class="st100" d="M88.2,118.9c0-0.1,0-0.2,0-0.4c0.4,0.5,0.8-2,1.2,0C89,119,88.6,118.9,88.2,118.9z"/>
					<path class="st108" d="M81.2,118.2c0.6-0.1,1.1,0.1,1.5,0.4c0.1,0.2,0.2,0.4-0.1,0.6c-0.7,0-0.7,0.6-0.7,1.1l-0.2,0
						c0,0-0.2,0-0.2,0c-0.1-0.6,0.2-1.3-0.4-1.8c-0.1-0.1-0.1-0.1-0.1-0.2C81.2,118.3,81.2,118.2,81.2,118.2z"/>
					<path class="st17" d="M82.7,119.3c0-0.2,0-0.4,0.1-0.6c0.2,0.1,0.4,0.2,0.6,0.3c0.2-0.2,0.4,0,0.6,0.1c0.1,0.1,0.1,0.3,0,0.5
						c0,0.1-0.1,0.1-0.1,0.2C83.4,119.6,83,119.7,82.7,119.3z"/>
					<path class="st71" d="M84.9,120.1c0,0.1,0,0.2,0,0.3c-0.5,0.1-1.1,0.2-1-0.7c0,0,0,0,0,0C84.4,119.2,84.6,119.7,84.9,120.1z"/>
					<path class="st109" d="M86,106.2c0.1,0,0.2,0,0.3,0c0.6,0.3,0.2,2.2,1.8,1.2c0.1,0.1,0.3,0.2,0.4,0.4c0.1,0.5,0.2,1.1,0.8,1.4
						l0,0c0.6,1.2-0.3,1.9-1.1,2.6l0,0c-0.4,0.1-0.7-0.1-0.9-0.3c-0.3-0.5-0.5-1,0-1.6c-0.8,0.7-1.5,1.4-2.4,0.3
						c-0.1-0.1-0.1-0.3-0.1-0.5c0.1-0.4,0.3-0.7,0.5-1.1c0.1-0.4,1.1-0.5,0.4-1.2C85.3,106.9,85.6,106.4,86,106.2z"/>
					<path class="st86" d="M88.2,111.7c0.4-0.9,0.7-1.7,1.1-2.6c0.5,0,1.1,0,1.1,0.7c-0.1,0.4-0.7,0.6-0.3,1.1
						c0.1,0.1,0.2,0.2,0.3,0.4c-0.1,0.1-0.2,0.2-0.3,0.3C89.4,111.7,88.8,111.7,88.2,111.7z"/>
					<path class="st86" d="M89.3,109.1c-1.7,0.4-1-0.7-0.8-1.4C88.9,108.1,89.7,108.2,89.3,109.1z"/>
					<path class="st110" d="M90,110.9c-0.2-0.1-0.6-0.2-0.6-0.2c0-0.6,0.6-0.6,0.9-0.8C90.2,110.2,90.1,110.6,90,110.9z"/>
					<path class="st111" d="M92.6,109.8c0,0.6,0,1.3,0,1.9c-0.1,0.1-0.3,0.2-0.4,0.3c0.1-0.8-0.4-1.8,0.4-2.5
						c0.1,0.1,0.2,0.1,0.1,0.2C92.6,109.8,92.6,109.8,92.6,109.8z"/>
					<path class="st96" d="M92.5,114.2c-0.3,0.1-0.6,0.3-0.8-0.2c-0.1-0.4,0-0.5,0.3-0.6C92.7,113.4,92.7,113.7,92.5,114.2z"/>
					<path class="st112" d="M92.6,109.8c0-0.1-0.1-0.2,0-0.3c-0.2-0.4-0.2-0.7,0-1.1c0.2,0.1,0.5,0.2,0.7,0.4c0,0.1,0,0.3,0,0.4
						C93,109.4,92.8,109.6,92.6,109.8z"/>
					<path class="st99" d="M78.3,101.1c-0.6,0.3-0.8-0.8-1.4-0.3c-0.1-0.1-0.3-0.3-0.4-0.4c0.4-0.2,0.8-0.5,1.1-0.7
						c0.5-0.4,0.7,0.2,1.1,0.4l0,0.1C78.9,100.5,78.7,100.9,78.3,101.1z"/>
					<path class="st113" d="M81.2,118.2c0,0.1,0,0.2,0,0.3c-0.3,0.4,0.1,2-1.2,0.6c-0.3-0.3-0.6,0.7-1,0.1c-0.6-0.4-0.8-0.8-0.3-1.4
						c0.2-0.2,0.4-0.3,0.6-0.3C80,117.8,80.6,118,81.2,118.2z"/>
					<path class="st96" d="M79,117.9c-0.3,0.5-0.3,1,0,1.4c-0.5,0-0.9-0.3-1.1-0.8c0-0.2,0-0.4,0-0.6
						C78.3,117.3,78.6,117.1,79,117.9z"/>
					<path class="st114" d="M75.8,114.2c0.1-0.1,0.3-0.3,0.4-0.4c1.2,0.7,2.6,1.2,2.5,2.9c-0.8-0.1-1.3-0.9-2-1.1
						c-0.2-0.2-0.3-0.4-0.4-0.6C75.9,114.8,75.8,114.6,75.8,114.2z"/>
					<path class="st65" d="M76.2,115c0.1,0.1,0.2,0.2,0.3,0.3c0.3,0.3,1,0.4,0.7,1.1c-0.3-0.1-0.6-0.2-1-0.4
						C76.3,115.7,76.2,115.3,76.2,115z"/>
					<path class="st115" d="M86,106.2c0,0.3-0.2,0.8-0.1,0.8c1.6,0.9,0.4,1.2-0.3,1.7c-0.1,0.1-0.2,0.2-0.4,0.1
						c-0.3-0.2-0.6-0.3-0.9,0c-0.1,0.1-0.3,0.1-0.4,0.2c-0.5,0-0.9-0.2-1.4,0c-0.8,0.2-1.3-0.2-1.8-0.7c-0.6-0.8-0.7-1.4,0.5-1.6
						c2.2-0.4,2.4-1,1.4-3.1c0-0.2,0-0.3,0.1-0.5c0.3-0.2,0.6-0.2,1-0.1c0.7,0.3,0.6,1,0.6,1.8c0,0.1,0.3-0.3,0-0.2
						c-0.1-0.5,0.1-0.8,0.4-1.1c0.2-0.1,0.3,0,0.5,0.1l0,0C85,104.7,85.1,105.5,86,106.2z"/>
					<path class="st85" d="M77.2,116.4c-0.2-0.4-0.5-0.7-0.7-1.1c1,0.1,1.6,0.7,2.1,1.4c0.2,0.3,0.5,0.5,0.7,0.8
						c-0.1,0.1-0.3,0.2-0.4,0.3c-0.4-0.4-0.7-0.3-1.1,0.1c-0.1-0.2-0.2-0.3-0.3-0.5C77.7,117,77.6,116.6,77.2,116.4z"/>
					<path class="st116" d="M84.6,102.2c0.1,0,0.2-0.1,0.3-0.1c0.1,0,0.2,0,0.4,0c0.4,0.4,0.4,0.8,0,1.1c-0.4,0.2-0.7,0-0.9-0.3
						C84.3,102.7,84.3,102.4,84.6,102.2z"/>
					<path class="st117" d="M84.5,102.9c0.3,0.1,0.5,0.2,0.8,0.4c0,0.1,0,0.2,0,0.4c-0.1,0-0.2,0-0.4,0c-0.5,0.2-0.7-0.2-1.1-0.4
						c-0.4,0-0.7,0-1.1,0c-0.1-0.1-0.1-0.2-0.1-0.3c0-0.1,0-0.2,0-0.2c0.3-0.3,0.7-0.4,1.1-0.5C84.1,102.4,84.3,102.7,84.5,102.9z"
						/>
					<path class="st118" d="M81.7,114.9c-1.3-0.3-1.6-1.5-2.1-2.5c0.2-0.5,0.2-1.1,0.9-1.3c0.4,0,0.6,0.2,0.9,0.4
						c0.2,0.3,0.4,0.5,0.4,0.9c-0.6,1.1,1,1.1,0.9,1.9C82.7,114.9,82.3,115.1,81.7,114.9z"/>
					<path class="st34" d="M81.7,114.9c0.4-0.2,0.7-0.5,1.1-0.7c0.1,0,0.1-0.1,0.2-0.1c0.4,0,0.7,0.1,1,0.3c0.3,0.1,0.7,0.2,1,0.4
						c0.1,0.1,0.2,0.2,0.2,0.4c0,0.1,0,0.3-0.1,0.4c-0.2,0.3-0.5,0.5-0.8,0.8c-0.1,0.1-0.3,0.1-0.4,0c-0.2-0.9-0.5-0.2-0.7-0.1
						c-0.4-0.3-0.9-0.3-1.1-0.7C81.9,115.4,81.8,115.1,81.7,114.9z"/>
					<path class="st18" d="M83.9,116.4c0.1,0,0.2,0,0.3,0c0.1,0.1,0.3,0.2,0.4,0.3c0.3,0.6,0.9,1,1,1.7c0,0.3-0.1,0.5-0.4,0.7
						c-0.4,0.1-0.8,0.2-1.1-0.2c-0.2-0.3-0.1-0.6,0-0.8C83.6,117.6,83.8,117,83.9,116.4z"/>
					<path class="st89" d="M78.9,109.1c0.2,0,0.4,0,0.5,0c0.2-0.2,0.4-0.2,0.6-0.1c0.1,0.1,0.2,0.2,0.3,0.4c0.1,0.5-0.1,0.9-0.3,1.4
						c-0.2,0.3-0.4,0.7-0.9,0.5C79.1,110.5,79,109.8,78.9,109.1z"/>
					<path class="st119" d="M79.1,111.3c0.2-0.2,0.5-0.5,0.7-0.7c0.6-0.1,0.8,0.2,0.8,0.7c-0.6,0.2-0.3,1.1-1,1.1
						C79.2,112.1,79,111.7,79.1,111.3z"/>
					<path class="st120" d="M82,115.6c0.5,0.1,1.1-0.1,1.1,0.7C82.6,116.4,82,116.5,82,115.6z"/>
					<path class="st9" d="M84.1,118.1c0,0.3,0.1,0.6,0.1,0.9c0.1,0.3,0,0.5-0.4,0.3c-0.1-0.1-0.3-0.3-0.4-0.4
						C83.4,118.5,83.6,118.1,84.1,118.1z"/>
					<path class="st121" d="M83.7,102.6c-0.3,0.1-0.7,0.2-1,0.3c-0.2,0.2-0.4,0.2-0.6,0.2c-0.3-0.1-0.6-0.2-0.9-0.4
						c-0.3-0.2-0.5-0.3-0.7-0.6c0.2-0.4,0.5-0.7,0.7-1.1c0.5-0.3-0.1-0.7,0.1-1c0.1-0.4,0.1-0.8,0.4-1.1c0.4,0.3,0.7,0.6,0.7,1.1
						c0.6,0.5-0.1,2.1,1.4,1.8C84,102.1,84,102.4,83.7,102.6z"/>
					<path class="st122" d="M77.6,103.3c0.5-1.3,1.4-1.4,2.6-1.1c0.2,0.5,0,0.8-0.3,1.1C79.2,103.8,78.4,103.7,77.6,103.3
						L77.6,103.3z"/>
					<path class="st121" d="M78.3,101.1c0.2-0.3,0.3-0.7,0.5-1c0.3,0,0.5,0,0.7,0.3c0,0.5,0,1-0.7,1.2
						C78.4,101.7,78.4,101.3,78.3,101.1z"/>
					<path class="st123" d="M79.8,103c0.3-0.2,0.4-0.5,0.4-0.8c0.1,0,0.2,0,0.3,0c0.3,0,0.6,0.1,0.7,0.4c0.1,0.1,0.1,0.2,0.1,0.3
						c0,0.1,0,0.1-0.1,0.1c-0.5,0-0.9,0.7-1.5,0.4C79.7,103.2,79.7,103.1,79.8,103z"/>
					<path class="st124" d="M79.8,103c0,0.1,0,0.2,0,0.3c0.4,0.3,0.7,0.1,1.1,0c0.4,0,0.7-0.2,1.1-0.4c0.2,0,0.5,0,0.7,0
						c0,0.1,0,0.3,0,0.4c0,0.1,0,0.2,0,0.3c0.1,0.4-0.1,0.6-0.4,0.9c-0.9,0.1-2,0.1-1.1,1.5c0.2,0.3,0.2,0.6-0.1,0.8
						c-0.5,0.2-1.2-0.1-1.7,0.3c-0.6,0.2-0.8-0.7-1.4-0.5c0-1.1,0.9-1.1,1.7-1.6c-1.6,0.4-1.3-1.3-2.1-1.7
						C78.4,103.3,79.1,103.3,79.8,103z"/>
					<path class="st87" d="M79.4,107.1c0.4-0.9,1.3-0.3,1.9-0.6c1-0.4,1.3-1.2,1-2.2c0.1-0.2,0.3-0.4,0.4-0.7
						c1.6,0.4,0.8,1.7,0.7,2.5c0,0.7-0.8,1.2-1.7,1c-0.1,0.5-1.9-0.7-0.9,0.9c0.2,0.6-0.3,0.8-0.7,1c-0.2,0-0.5,0.1-0.7,0.1
						C79.3,108.4,80.1,107.7,79.4,107.1z"/>
					<path class="st77" d="M81.7,98.9c-0.2,0.4,0.5,1-0.4,1.1c-0.3-0.2-0.4-0.4-0.4-0.8C81.1,99.2,81.4,99,81.7,98.9z"/>
					<path class="st64" d="M83.8,98.6c0,0.5,0,1,0,1.5c-0.1,0.1,0,0.6-0.3,0.2c-0.2-0.4-0.1-0.9-0.8-1c0-0.1-0.1-0.2-0.1-0.3
						C83,98.8,83.4,98.7,83.8,98.6z"/>
					<path class="st125" d="M85,115.2c0-0.1,0-0.2-0.1-0.3c-0.7-0.7-0.8-1.5-0.6-2.5c0.1-0.3,0.2-1,0.4-0.9c1,0.6,1.8-0.6,2.7-0.3
						c0.3,0.1,0.5,0.3,0.8,0.4c-0.5,0.4-0.9,0.7-0.8,1.4C87,114.3,86,114.7,85,115.2z"/>
					<path class="st42" d="M85,115.2c0.6-1,1.5-1.5,2.4-2.1c0.2,0.5,0.8,0.8,0.8,1.5c-0.2,0.8-0.2,1.8-1.5,1.6
						c0-0.1-0.1-0.1-0.1-0.2c0-0.1,0-0.2,0.1-0.3c-0.3,0-0.2,0.3-0.2,0.4c-0.3,0.4-0.6,0.5-1,0.2c-0.2-0.2-0.5-0.4-0.6-0.7
						C84.9,115.5,84.9,115.3,85,115.2z"/>
					<path class="st126" d="M85.6,116.1c0.3,0.3,0.5-0.1,0.8-0.2c0.1-0.1,0.2-0.1,0.3,0l-0.1,0.1l0,0.1c0.5,0.2,0.9,0.4,1.4,0.7
						c0,0.2,0.1,0.4,0.1,0.7c-0.8,0-0.6,1.7-1.9,1.1c-0.3-0.2-0.8,0.1-1.1-0.3c-0.4-0.5-1-0.8-1.1-1.5
						C84.5,116.1,84.7,115.3,85.6,116.1z"/>
					<path class="st95" d="M83.7,102.6c0-0.3,0-0.5,0.1-0.8c0.5-0.4,0.6,0.1,0.8,0.4c0,0.2,0,0.5,0,0.7
						C84.3,102.8,84,102.7,83.7,102.6z"/>
					<path class="st127" d="M85.2,118.2c0.4,0,0.8-0.1,1.1,0.3c-0.4,0.1-0.4,0.4-0.4,0.7c-0.1,0.1-0.2,0.1-0.4,0
						c-0.1,0-0.2-0.1-0.3-0.1c-0.1-0.1-0.2-0.1-0.2-0.2c0-0.1,0.1-0.1,0.1-0.1C85.2,118.7,85.2,118.4,85.2,118.2z"/>
					<path class="st84" d="M85.6,119.3c0.1,0,0.2,0,0.4,0c0.5,0.1,1-0.2,1.4,0.3c-0.3,0-0.7,0-1,0.1
						C86.1,119.5,85.9,119.4,85.6,119.3z"/>
					<path class="st17" d="M85.2,118.9c0,0.1,0,0.2,0,0.3c-0.3,0.2-0.4,0.5-0.4,0.8c-0.4-0.1-0.7-0.2-1-0.4c0-0.1,0-0.3,0-0.4
						c0.1-0.1,0.2-0.2,0.4-0.3C84.5,118.9,84.9,118.9,85.2,118.9z"/>
					<path class="st128" d="M87.4,111.3c-0.8,0.4-1.6,1.3-2.6,0.5c0,0.2,0.1,0.3,0.1,0.5c-0.2,0.3-0.5,0.3-0.8,0.3
						c-1-0.1-1.2-0.9-1-1.7c0.2-0.8,0.6-1.6,1.7-1.1c1.2,1,1.7-0.1,2.3-0.8C88.7,109.6,86.9,110.6,87.4,111.3z"/>
					<path class="st129" d="M84.9,109.8c-1.7,0.8-1.9,1.6-0.7,2.6c0.3,0.3,0.2,0.6-0.1,0.8c-0.5-0.4-0.6,0.5-1.1,0.4
						c-0.5-0.1-0.7-0.4-0.9-0.8c-0.1-0.5,0-1,0.2-1.5c0.4-0.6,0.5-1.3,0.3-2c0-0.2,0.1-0.3,0.3-0.3c0.4-0.2,0.8,0.1,1.2,0
						c0.4,0,0.6,0.2,0.8,0.5C84.9,109.6,84.9,109.7,84.9,109.8z"/>
					<path class="st128" d="M84.9,109.5c-0.3,0-0.6-0.1-0.7-0.4c-0.1-0.1-0.2-0.2-0.1-0.2c0-0.1,0.1-0.1,0.1-0.1l0,0
						c0.4-0.3,0.7-0.3,1.1,0c0.1,0,0.2,0,0.4,0C85.5,109.1,85.2,109.3,84.9,109.5z"/>
					<path class="st129" d="M80.2,109c0-0.5,0.6-0.6,0.7-1c0.6,0.3,1.1,0.9,1.8,0.7c0.1,0.1,0.2,0.2,0.1,0.3l-0.1,0.1
						c-0.8,0.6-1.7,0.6-2.5,0C80.2,109.1,80.2,109,80.2,109z"/>
					<path class="st87" d="M83.8,103.3c0.4,0.1,0.7,0.2,1.1,0.4c-0.7,0.5,0.2,1.5-0.8,2.3C84.1,104.9,84.4,104,83.8,103.3z"/>
					<path class="st109" d="M82.8,109c0-0.1-0.1-0.2-0.1-0.3c0.5-1.5,1,0.5,1.5,0c0,0.1,0,0.2,0,0.4C83.7,109.1,83.2,109.1,82.8,109
						z"/>
					<path class="st109" d="M85.3,108.7c-0.4,0-0.7,0-1.1,0c0-0.5,0.3-0.8,0.7-0.8C85.5,107.9,85.2,108.4,85.3,108.7z"/>
					<path class="st60" d="M80.2,109.1c0.8,0,1.7,0,2.5,0c0.6,0.7,0.6,1.4,0,2.1c-0.4,0.3-0.8,0.9-1.4,0.4c-0.2-0.1-0.5-0.3-0.7-0.4
						c-0.3-0.2-0.5-0.5-0.8-0.7C79.9,110.1,80.1,109.6,80.2,109.1z"/>
					<path class="st10" d="M82.3,112.7c0.3,0.3,0.5,0.5,0.8,0.8c0.2,0.4,0,0.6-0.4,0.7l0,0.1c-0.9-0.3-1.9-0.6-1.1-1.9
						C82,112.2,82.1,112.4,82.3,112.7z"/>
					<path class="st130" d="M82.3,112.7c-0.2-0.1-0.4-0.2-0.7-0.3c-0.1-0.2-0.2-0.4-0.4-0.7c0.5-0.1,0.9-0.3,1.4-0.4
						C82.5,111.7,82.4,112.2,82.3,112.7z"/>
					<path class="st36" d="M83.8,113.1c0.3-0.2,0.3-0.4,0.4-0.7c0.2,0,0.5,0,0.7-0.1c-0.7,0.9,0,1.7,0,2.6c-0.4,0-0.8,0.1-1.2-0.3
						C83.7,114.1,83.3,113.6,83.8,113.1z"/>
					<path class="st131" d="M83.8,113.1c-0.1,0.5,0.7,1-0.1,1.5c-0.3-0.2-0.7-0.3-1-0.5c0.1-0.2,0.2-0.5,0.4-0.7
						C83.3,113.2,83.3,112.6,83.8,113.1z"/>
					<path class="st132" d="M85.6,116.1c-0.7-0.3-1,0.4-1.4,0.6c0-0.1,0-0.2,0-0.4c0-0.5,0.2-0.8,0.7-0.7
						C85.2,115.7,85.5,115.8,85.6,116.1z"/>
					<path class="st131" d="M82,102.9c-0.1,0.7-0.6,0.7-1.1,0.6c0-0.3,0.1-0.5,0.4-0.6c0-0.1,0-0.2,0-0.4
						C81.6,102.6,81.8,102.6,82,102.9z"/>
					<path class="st133" d="M81.3,102.9c-0.1,0.2-0.3,0.4-0.4,0.6c-0.4,0-0.8,0.2-1.1-0.3C80.4,103.4,80.6,102.4,81.3,102.9z"/>
					<path class="st134" d="M82.4,104.3c0.6,0.4,1,0.9,0.6,1.6c-0.3,0.8-1.1,0.6-1.7,0.6c0,0-0.1-0.1-0.1-0.1
						c-0.4-0.6-1.5-0.9-0.9-1.8C80.8,103.6,81.7,104.2,82.4,104.3z"/>
					<path class="st135" d="M86.7,116c-0.1,0-0.2,0-0.3,0c-0.4-0.6,0.1-0.8,0.4-1.1c0.2-0.2,0.3,0,0.4,0.1
						C87.4,115.5,86.7,115.6,86.7,116z"/>
				</g>
			</g>
			<path class="st3" d="M52.8,64.7c1.4-3.2,2.7-6.4,4-9.3c0.1,1.3,0.2,3,0.5,4.6c0.3,1.5,0.7,2.9,1.1,4.4c0.2,0,0.3-0.1,0.5-0.1
				c0-0.3,0-0.6-0.1-0.9c-1.5-5.7-1.4-11.5-0.3-17.3c0.5-2.6,0.7-5.3,1-8c0,0-0.1,0-0.1,0C57.2,47,55,55.8,52.8,64.7
				c-0.2-0.7-0.6-1.5-0.7-2.2c-0.3-5.6,0.5-11.1,1.8-16.5c0.4-1.8,0.7-3.6,1.1-5.4c-3,6-4.8,22.4-2.6,26
				C52.5,65.8,52.7,65.3,52.8,64.7z"/>
			<path class="st3" d="M129.2,124c1.3,1.9,3.4,2.5,5.5,3C132.8,125.9,131,125,129.2,124c-0.4-0.5-0.7-1.1-1.1-1.6
				c-2.8-3-3.5-6.7-3.2-10.6c0.3-4.8,2.2-8.9,5.2-12.5c1.6-1.9,3.6-3.7,5.8-4.8c3.5-1.9,7.5-2.1,11.5-1.7c3.1,0.3,6.3,0.8,8.5-0.8
				c-1.9,0.1-4.4,0.7-6.8,0.4c-8.4-1.1-15.8,1.1-22.4,6.4c-1.1,0.9-2,2-3,3c0.1,0.1,0.2,0.2,0.3,0.3c2-1.6,4-3.2,6-4.8
				c0.2,0.5,0.2,0.6,0.1,0.7c-0.3,0.4-0.7,0.9-1,1.3c-3.3,4.7-5.3,9.8-5,15.6C124.4,118.7,125.8,121.9,129.2,124z"/>
			<path class="st3" d="M21,79.5c0.1,0.1,0.2,0.1,0.3,0.2c0.9-1.4,2-2.7,2.8-4.2c4-7.3,7-15.1,9.8-23c2.2-6.3,4.8-12.3,8.2-18.1
				c5.1-8.8,11.7-16.3,20.1-22c8.3-5.6,17.5-9.1,27.7-9.2c4.8-0.1,9.5,0.3,14.3,0.8c2.8,0.3,5.6,1.3,8.4,2c-0.9-0.8-1.8-1.3-2.9-1.6
				C101,1.2,92.1,1.1,83.1,2.3c-5.3,0.7-10,3.2-14.8,5.4c-12,5.4-20.6,14.5-27,25.7c-4.5,7.8-7,16.5-10.3,24.7
				c-2.3,5.7-4.9,11.3-7.4,16.9C22.9,76.6,21.8,78,21,79.5z"/>
			<path class="st3" d="M13.1,90.3c-0.1-0.1-0.2-0.2-0.3-0.2c-1,1.3-2.1,2.6-3,4c-4.7,6.5-8.8,13.2-9.1,21.5
				c-0.4,11,2.4,20.8,10.9,28.4c1.8,1.6,3.8,2.7,6.3,2.9c-0.2-0.4-0.4-0.6-0.7-0.7c-5.2-2-8.7-5.9-11.1-10.7
				C-0.1,123,0,110.8,7.5,98.9C9.3,96,11.3,93.2,13.1,90.3z"/>
			<path class="st3" d="M114.1,6.2c0.1,0.2,0.2,0.3,0.3,0.5c0.5-0.3,1-0.5,1.5-0.8c4.1-2.5,8.6-4.1,13.5-4.4
				c11.6-0.8,22.4,1.6,32.2,7.7c1.1,0.7,2.3,1.3,3.4,2c1.1,0.6,2.1,1.2,3.2,1.8c0-0.5-0.2-0.6-0.4-0.8c-9-7.2-19.2-11.4-30.7-12.1
				c-7.2-0.4-14.1,0.3-20.5,4C115.8,4.7,115,5.5,114.1,6.2z"/>
			<path class="st3" d="M163.1,63.7c-0.2,0-0.3,0-0.5,0c-1.7-3.7-2-7.6-2.4-11.6c-0.3-4-0.5-7.9-0.7-12.2c-1,4.8-0.6,9.3,0.1,13.8
				c0.5,3.3,1.2,6.5,2,9.7c0.2,1,1,1.9,1.7,3.1c0.4-2.9,0.7-5.2,1.1-7.5c0.7,2,1,4,1.5,5.9c0.5,1.8,1.1,3.6,1.7,5.4
				c0,0,0.1-0.1,0.1-0.1c-1.3-7.9-2.5-15.7-3.8-23.7C163.6,52.4,163.4,58,163.1,63.7z"/>
			<path class="st3" d="M62.5,57.9c0.4-1,0.9-2.4,1.5-3.8c1.1,2.7,2.2,5.3,3.2,7.9c0.2-0.1,0.4-0.2,0.6-0.3c-0.3-0.8-0.7-1.7-1-2.5
				c-1.6-3.6-2.5-7.3-1.9-11.3c0.4-2.8,0.7-5.6,0.9-8.5c0.1-1.9,0-3.8,0-5.7c-0.2,0-0.4,0-0.6,0c-3.2,8.6-4.9,17.4-4.4,26.6
				c0.5-7.1,1.3-14.2,4-20.9C64,45.6,63.2,51.9,62.5,57.9z"/>
			<path class="st3" d="M90,163.2c0.1-0.2,0.1-0.4,0.2-0.6c-0.5-0.1-0.9-0.3-1.4-0.4c-8.6-2.6-16.8-5.9-23.6-11.9
				c-7.1-6.3-10.3-14-8.5-23.5c0.3-1.7,0.6-3.4,0.9-5c-0.5,0.2-0.6,0.5-0.8,0.9c-3.6,9.7-1.2,20.2,6.4,27.3
				c4.1,3.9,8.9,6.6,14.1,8.8C81.5,160.3,85.8,161.7,90,163.2z"/>
			<path class="st3" d="M157.3,57.9c-2.4-6.9-1.6-13.9-1.4-20.9c-1.9,8.6-1.6,17.1,1.7,25.4c0.2,0,0.4,0,0.6,0c0-8.2,0-16.3,0-24.2
				C156.9,44.5,157.3,51.2,157.3,57.9z"/>
			<path class="st3" d="M186.8,149c3.5,0,7.1,0,10.6,0c1.2,0,2.5,0,3.6-0.5c2.7-1.1,5.4-2.1,7.8-3.6c3.2-2,5.7-4.8,7.5-8.3
				c-0.4,0.2-0.7,0.6-1,0.9c-3.5,4.1-7.8,7.3-12.9,9.1c-1.8,0.6-3.8,1.1-5.7,0.8C193.2,146.9,190.1,147.9,186.8,149z"/>
			<path class="st3" d="M81.7,31.9c-1.3,6.6-2.5,13.3-5,19.6c-0.5-6.9,1-13.5,2.1-20.3c-0.9,3.2-1.9,6.4-2.2,9.7
				c-0.6,5.4-0.8,10.8-1.2,15.7c0.1-0.1,0.7-0.4,1-0.6C79,48.3,81.7,40.4,81.7,31.9z"/>
			<path class="st3" d="M149.2,61.4c-0.1-1.3-0.7-2.8-0.2-3.8c1.4-2.7,1.7-5.5,1.8-8.4c0.1-3.4,0-6.7,0-10.1c-0.1,0-0.2,0-0.3,0
				c-0.5,5.7-1,11.4-1.5,17c-0.3,0-0.5,0-0.8,0c-0.1-2-0.4-3.9-0.4-5.9c0-1.9,0.2-3.9,0.2-5.8c0-1.9,0-3.8,0-5.7
				C146.7,46.3,145.9,53.9,149.2,61.4z"/>
			<path class="st3" d="M138.1,34.1c-0.6,6-1.4,11.9-3.6,17.6c-0.5-3.4-0.7-6.7-0.7-10.1c-0.1-3.3,0-6.6,0-8.7
				c-1.7,7.2-1.1,20.3,1.2,22.6c0.1-1,0-2.3,0.5-3.3C138,46.3,138.5,40.3,138.1,34.1z"/>
			<path class="st3" d="M117.8,54.4c3.2-7,4.8-14.1,5.4-21.5c-1.6,6.3-3.2,12.5-4.8,18.8c-0.2,0-0.4-0.1-0.6-0.1
				c-1.6-6.8-0.3-13.5,0.2-20.2C116.4,38.9,115.2,46.5,117.8,54.4z"/>
			<path class="st3" d="M58.3,113.6c0.2,0,0.4-0.1,0.7-0.1c-0.9-4-1.5-8-2.7-12c-1.9-6.7-3.6-13.4-3.7-20.4c-0.1-4-0.3-7.9-0.5-11.9
				c-0.7,8.9-0.9,17.8,1.7,26.6c1.3,4.2,2.5,8.5,3.6,12.7C57.8,110.2,58,111.9,58.3,113.6z"/>
			<path class="st3" d="M115.4,31.7c-1.7,8.3-2.4,16.8-7.3,24c3.7-2.9,4.1-7.3,5.9-11.5c0.2,2.6,0.2,4.9,0.5,7.2
				c0.7,4.4,1.1,5.2,2.5,6C113.2,49.1,115.2,40.3,115.4,31.7z"/>
			<path class="st3" d="M59.2,92.9c2.3,1.7,4.9,1.6,7.5,0.6c3.5-1.3,6.9-2.9,10.8-2.9c4.1-0.1,8.2,0.3,11.2,3.6c0.8,0.9,1.5,1.9,3,1
				c-0.4-0.4-0.8-0.8-1.2-1.1c-6.2-5.1-13.1-5.4-20.3-2.6C66.6,92.9,63.1,93.8,59.2,92.9z"/>
			<path class="st3" d="M84.1,56.6c-2.7-8.8,1.1-17.5,0.1-26.2c-0.7,9-2.2,17.9-6.3,26.1c0.2,0.1,0.5,0.2,0.7,0.3
				c1.3-3,2.5-6.1,3.9-9.3C82.9,50.7,82.5,53.9,84.1,56.6z"/>
			<path class="st3" d="M50.9,74.6c-4.3-10.8-4.5-21.6-0.3-32.5C45.8,49.5,45.4,67.1,50.9,74.6z"/>
			<path class="st3" d="M162.8,108.1c2.6-10,7.3-19.6,6.7-30.4C169.1,88.3,164.4,97.9,162.8,108.1z"/>
			<path class="st3" d="M126.1,25.9c-2.5,5.7-2.2,26.1,1.1,29c-0.6-4.4-1.7-9.2-1.9-14C125.1,36,125.8,31,126.1,25.9z"/>
			<path class="st3" d="M144,39.3c-0.9,6.8-3.1,13.1-6.5,19c0.9-1,1.8-1.9,2.5-3c0.7-1.1,1.3-2.3,2.1-3.7c0.9,7,0.9,7,2.5,8.5
				C141.4,53,143.7,46.2,144,39.3z"/>
			<path class="st3" d="M106,55.7c3.9-7.7,4.8-15.8,4-24.3c-0.4,4-0.6,8.2-1.2,12.2C108.2,47.6,107,51.6,106,55.7z"/>
			<path class="st3" d="M72.2,158.2c-2.4-1-5.3-2-8.1-3.4c-3.6-1.8-7-2.7-11.1-1.1c-2,0.8-4.5,0.3-6.7,0.4c2.6,1.2,5.4,1.2,8.1,0.1
				c2.6-1.1,5-1,7.4,0.4c1,0.6,2.1,1.1,3.2,1.7C67.5,157.5,69.9,158.6,72.2,158.2z"/>
			<path class="st3" d="M137,56.2c3.8-4,6.5-15.7,4.6-19.6C141.4,43.5,139.8,49.9,137,56.2z"/>
			<path class="st3" d="M132.1,27.9c-0.4,7.8-0.8,15.7-3.4,23.2C132.6,43.8,132.6,35.9,132.1,27.9z"/>
			<path class="st3" d="M60.9,100c-3,9.9,0.3,17.6,4.9,21.2c-6.2-6.9-6.8-14.7-3.3-23c-1.6,0.7-3.1,1.4-4.6,2c0,0.1,0,0.2,0.1,0.3
				C59,100.3,59.9,100.1,60.9,100z"/>
			<path class="st3" d="M67.1,58.1c-1.6-8.6,0.1-16.8,2.4-25.2C66.4,36.3,64.6,53.3,67.1,58.1z"/>
			<path class="st3" d="M153.9,36.4c-2.6,5.3-2.5,22.5-0.1,25.4C152.3,53.4,152.8,45,153.9,36.4z"/>
			<path class="st3" d="M88.6,52.7c2.7-7,3-14.7,2.9-22.4C90.5,37.9,89.5,45.4,88.6,52.7z"/>
			<path class="st3" d="M146.3,39.6c-0.2,0.3-0.4,0.4-0.4,0.6c-1.2,5.8-2.2,11.7-0.4,17.5c0.3,0.9,0.8,1.6,1.2,2.4
				c0.2-0.1,0.3-0.1,0.5-0.2C144,53.3,146,46.5,146.3,39.6z"/>
			<path class="st3" d="M43,153.9c-3.4,0.4-6.6-0.2-9.4-2.2c-2.6-1.8-5.2-3.8-7.9-5.8C29.3,151,39,157.1,43,153.9z"/>
			<path class="st3" d="M71.5,60.6c2.2-7.3,2.8-15.1,2.5-23.1C73.2,45.3,72.3,53.1,71.5,60.6z"/>
			<path class="st3" d="M89.5,122.3c6.2-3.8,8.5-19,3.7-22.5C96.3,107.9,96.1,115.5,89.5,122.3z"/>
			<path class="st3" d="M107.2,34.1c-0.8,6.3-1.6,12.6-2.4,19.1C107.2,46.9,107.1,40.5,107.2,34.1z"/>
			<path class="st3" d="M159.5,104.2c-0.2,10.4-0.9,12.9-5.2,18.4C159,119.2,161.3,111.4,159.5,104.2z"/>
			<path class="st3" d="M87.6,70.8c-4.3-2.5-13.6-0.8-14.5,2.5C78.9,70.4,82.3,69.8,87.6,70.8z"/>
			<path class="st3" d="M73.3,35.3c-0.2,0-0.4,0-0.6-0.1c-0.6,6.2-1.2,12.3-1.8,18.5c0.2,0,0.4,0,0.6,0.1
				C72.1,47.6,72.7,41.4,73.3,35.3z"/>
			<path class="st3" d="M167.6,58.9c-0.2,0-0.4,0-0.5,0c0.7,4.5,1.3,9.1,2,13.6c0.3,0,0.5-0.1,0.8-0.1
				C169.1,68,168.4,63.4,167.6,58.9z"/>
			<path class="st3" d="M16.5,144.2c3,3,6.2,5.2,10.2,5.5C23.4,147.9,20.1,146.1,16.5,144.2z"/>
			<path class="st3" d="M137.3,72.7c4.1-1.4,8.1-1.2,12.1,0.4C145.5,70.4,141.4,70.7,137.3,72.7z"/>
			<path class="st3" d="M109.4,118.7c-0.6,1-1.3,1.6-1.4,2.3c-0.1,0.6,0.3,1.2,0.5,1.9c0.1-0.1,0.2-0.1,0.3-0.2
				C109,121.6,109.2,120.4,109.4,118.7z"/>
			<path d="M21,79.5c0.9-1.5,1.9-2.9,2.6-4.4c2.5-5.6,5.1-11.2,7.4-16.9c3.4-8.3,5.9-16.9,10.3-24.7c6.4-11.2,15-20.3,27-25.7
				c4.8-2.1,9.5-4.6,14.8-5.4c9-1.2,17.9-1.2,26.5,2.1c1,0.4,2,0.9,2.9,1.6c-2.8-0.7-5.5-1.7-8.4-2c-4.7-0.5-9.5-0.8-14.3-0.8
				c-10.2,0.1-19.3,3.5-27.7,9.2c-8.4,5.7-15,13.2-20.1,22c-3.4,5.8-6,11.9-8.2,18.1c-2.8,7.9-5.7,15.6-9.8,23
				c-0.8,1.5-1.8,2.8-2.8,4.2C21.2,79.6,21.1,79.6,21,79.5z"/>
			<path d="M88.5,55.6c0.7-2.4,1.7-4.8,2.1-7.3c1-5.8,1.8-11.6,2.5-16.6c0,0.9,0,2.7,0,4.5c0.1,0,0.2,0,0.2,0.1
				c0.2-0.6,0.4-1.1,0.8-2.1c-0.2,2.5-0.3,4.5-0.4,6.6c-0.1,2.2-0.3,4.3-0.3,6.5c0,2.1,0.3,4.2,0.5,6.4c2.2-2.2,3-6.7,4.4-20.1
				c0.4,5.7,0.7,11.5,1.1,17.7c2.2-6.2,2.7-12.3,2.8-18.4c0.1,0.7,0.2,1.4,0.3,2.1c0.1,0.7,0.1,1.4,0.3,2.2c0.3-1.1,0.5-2.3,0.8-3.4
				c0.1,0,0.2,0,0.3,0c-0.2,2.4-0.5,4.9-0.5,7.3c-0.1,2.5-0.1,5.1,0.1,7.6c0.1,2.5,0.4,5.1,0.7,7.6c-0.2,0-0.4,0.1-0.6,0.1
				c-0.4-3.5-0.8-7-1.3-10.4c-1.3,3.1-2.6,6.2-3.8,9.3c-0.1,0-0.2-0.1-0.3-0.1c0-3.6,0-7.1,0-9.6c-1,2.4-2.4,5.8-3.6,9.3
				c-0.3,1-0.2,2.1-0.3,3c-1.6-1.5-1.8-2-2.6-8.5C90.5,51.6,89.5,53.6,88.5,55.6L88.5,55.6z M92.6,43.6c0.1,0,0.2,0,0.2,0
				c0,4,0,8,0,12c0.2,0,0.3,0,0.5,0C93.1,51.6,92.9,47.6,92.6,43.6z"/>
			<path d="M13.1,90.3c-1.9,2.8-3.8,5.6-5.7,8.5C0,110.8-0.1,123,6.1,135.4c2.4,4.8,5.9,8.7,11.1,10.7c0.3,0.1,0.6,0.4,0.7,0.7
				c-2.5-0.2-4.5-1.3-6.3-2.9c-8.5-7.6-11.3-17.4-10.9-28.4c0.3-8.4,4.5-15,9.1-21.5c1-1.3,2-2.6,3-4C12.9,90.2,13,90.2,13.1,90.3z"
				/>
			<path d="M114.1,6.2c0.9-0.7,1.7-1.4,2.6-2c6.4-3.7,13.3-4.5,20.5-4c11.5,0.7,21.7,4.8,30.7,12.1c0.2,0.2,0.4,0.3,0.4,0.8
				c-1.1-0.6-2.1-1.2-3.2-1.8c-1.2-0.7-2.3-1.3-3.4-2c-9.9-6.2-20.7-8.5-32.2-7.7c-4.9,0.3-9.3,1.9-13.5,4.4c-0.5,0.3-1,0.5-1.5,0.8
				C114.3,6.5,114.2,6.3,114.1,6.2z"/>
			<path d="M163.1,63.7c0.3-5.7,0.5-11.3,0.8-17.2c1.3,8,2.5,15.9,3.8,23.7c0,0-0.1,0.1-0.1,0.1c-0.6-1.8-1.2-3.6-1.7-5.4
				c-0.5-1.9-0.8-3.9-1.5-5.9c-0.3,2.3-0.7,4.7-1.1,7.5c-0.7-1.2-1.5-2.1-1.7-3.1c-0.8-3.2-1.6-6.4-2-9.7c-0.6-4.5-1.1-9-0.1-13.8
				c0.2,4.2,0.4,8.2,0.7,12.2c0.3,3.9,0.6,7.9,2.4,11.6C162.8,63.7,163,63.7,163.1,63.7z"/>
			<path d="M62.5,57.9c0.7-6,1.4-12.2,2.1-18.5c-2.8,6.7-3.5,13.8-4,20.9c-0.5-9.2,1.2-18,4.4-26.6c0.2,0,0.4,0,0.6,0
				c0,1.9,0.1,3.8,0,5.7c-0.2,2.8-0.5,5.7-0.9,8.5c-0.6,4,0.4,7.7,1.9,11.3c0.4,0.8,0.7,1.7,1,2.5c-0.2,0.1-0.4,0.2-0.6,0.3
				c-1.1-2.6-2.1-5.3-3.2-7.9C63.5,55.5,62.9,56.8,62.5,57.9z"/>
			<path d="M90,163.2c-4.2-1.5-8.5-2.9-12.7-4.6c-5.2-2.1-10-4.9-14.1-8.8c-7.5-7.1-10-17.6-6.4-27.3c0.1-0.3,0.3-0.6,0.8-0.9
				c-0.3,1.7-0.6,3.4-0.9,5c-1.7,9.5,1.5,17.2,8.5,23.5c6.8,6.1,15,9.3,23.6,11.9c0.5,0.1,0.9,0.3,1.4,0.4
				C90.1,162.8,90.1,163,90,163.2z"/>
			<path d="M129.2,124c-3.4-2.1-4.8-5.3-5-9.1c-0.4-5.8,1.7-10.9,5-15.6c0.3-0.4,0.7-0.9,1-1.3c0.1-0.1,0.1-0.2-0.1-0.7
				c-2,1.6-4,3.2-6,4.8c-0.1-0.1-0.2-0.2-0.3-0.3c1-1,1.9-2.1,3-3c6.6-5.2,14-7.4,22.4-6.4c2.4,0.3,4.9-0.2,6.8-0.4
				c-2.2,1.6-5.4,1.1-8.5,0.8c-4-0.4-8-0.2-11.5,1.7c-2.2,1.1-4.1,2.9-5.8,4.8c-3.1,3.5-5,7.7-5.2,12.5c-0.2,3.9,0.5,7.6,3.2,10.6
				C128.5,122.8,128.8,123.4,129.2,124L129.2,124z"/>
			<path d="M157.3,57.9c-0.1-6.7-0.5-13.5,0.9-19.8c0,7.9,0,16,0,24.2c-0.2,0-0.4,0-0.6,0c-3.4-8.2-3.6-16.7-1.7-25.4
				C155.8,44,154.9,51.1,157.3,57.9z"/>
			<path d="M186.8,149c3.2-1.1,6.4-2.1,9.9-1.6c1.8,0.3,3.9-0.2,5.7-0.8c5.1-1.8,9.4-4.9,12.9-9.1c0.3-0.4,0.6-0.7,1-0.9
				c-1.7,3.4-4.2,6.3-7.5,8.3c-2.4,1.5-5.2,2.6-7.8,3.6c-1.1,0.4-2.4,0.5-3.6,0.5C193.9,149,190.4,149,186.8,149z"/>
			<path d="M81.7,31.9c0,8.5-2.7,16.4-5.4,24.2c-0.3,0.2-0.9,0.5-1,0.6c0.4-5,0.6-10.4,1.2-15.7c0.4-3.3,1.3-6.5,2.2-9.7
				c-1.1,6.7-2.6,13.4-2.1,20.3C79.3,45.2,80.4,38.5,81.7,31.9z"/>
			<path d="M149.2,61.4c-3.3-7.5-2.4-15.1-1.1-22.8c0,1.9,0,3.8,0,5.7c0,1.9-0.2,3.9-0.2,5.8c0,2,0.3,3.9,0.4,5.9c0.3,0,0.5,0,0.8,0
				c0.5-5.7,1-11.4,1.5-17c0.1,0,0.2,0,0.3,0c0,3.4,0.1,6.7,0,10.1c-0.1,2.9-0.4,5.7-1.8,8.4C148.5,58.6,149.1,60.1,149.2,61.4z"/>
			<path d="M138.1,34.1c0.4,6.2-0.1,12.3-2.7,18.1c-0.5,1-0.3,2.3-0.5,3.3c-2.3-2.3-2.9-15.4-1.2-22.6c0,2.1-0.1,5.4,0,8.7
				c0.1,3.4,0.2,6.7,0.7,10.1C136.6,45.9,137.5,40,138.1,34.1z"/>
			<path d="M117.8,54.4c-2.7-7.9-1.5-15.4,0.2-23c-0.6,6.7-1.8,13.5-0.2,20.2c0.2,0,0.4,0.1,0.6,0.1c1.6-6.3,3.2-12.5,4.8-18.8
				C122.6,40.3,121,47.3,117.8,54.4z"/>
			<path d="M58.3,113.6c-0.3-1.7-0.5-3.5-0.9-5.1c-1.1-4.3-2.3-8.5-3.6-12.7c-2.6-8.7-2.4-17.6-1.7-26.6c0.2,4,0.5,7.9,0.5,11.9
				c0.1,7,1.8,13.7,3.7,20.4c1.1,3.9,1.8,8,2.7,12C58.8,113.5,58.6,113.6,58.3,113.6z"/>
			<path d="M52.8,64.7c2.2-8.9,4.4-17.8,6.6-26.7c0,0,0.1,0,0.1,0c-0.3,2.7-0.5,5.4-1,8c-1.1,5.8-1.2,11.5,0.3,17.3
				c0.1,0.3,0.1,0.6,0.1,0.9c-0.2,0-0.3,0.1-0.5,0.1c-0.4-1.5-0.9-2.9-1.1-4.4c-0.3-1.6-0.4-3.2-0.5-4.6
				C55.5,58.3,54.2,61.5,52.8,64.7L52.8,64.7z"/>
			<path d="M115.4,31.7c-0.2,8.7-2.2,17.4,1.6,25.8c-1.4-0.8-1.8-1.6-2.5-6c-0.4-2.3-0.4-4.6-0.5-7.2c-1.7,4.1-2.2,8.6-5.9,11.5
				C113.1,48.4,113.7,39.9,115.4,31.7z"/>
			<path d="M59.2,92.9c3.9,0.9,7.4,0,11-1.5c7.2-2.8,14.1-2.5,20.3,2.6c0.4,0.3,0.8,0.7,1.2,1.1c-1.5,1-2.1-0.1-3-1
				c-3.1-3.3-7.1-3.6-11.2-3.6c-3.9,0.1-7.3,1.7-10.8,2.9C64.1,94.5,61.6,94.6,59.2,92.9z"/>
			<path d="M84.1,56.6c-1.6-2.8-1.3-5.9-1.6-9.2c-1.4,3.3-2.6,6.3-3.9,9.3c-0.2-0.1-0.5-0.2-0.7-0.3c4.1-8.2,5.5-17.1,6.3-26.1
				C85.2,39.2,81.5,47.9,84.1,56.6z"/>
			<path d="M50.9,74.6c-5.5-7.5-5.2-25.1-0.3-32.5C46.5,53,46.7,63.8,50.9,74.6z"/>
			<path d="M162.8,108.1c1.6-10.3,6.3-19.8,6.7-30.4C170.1,88.5,165.4,98.1,162.8,108.1z"/>
			<path d="M126.1,25.9c-0.3,5.1-1,10-0.8,15c0.2,4.8,1.2,9.6,1.9,14C123.9,52,123.5,31.6,126.1,25.9z"/>
			<path d="M144,39.3c-0.3,6.8-2.6,13.7,0.5,20.8c-1.6-1.5-1.6-1.5-2.5-8.5c-0.8,1.4-1.4,2.6-2.1,3.7c-0.7,1.1-1.5,2.1-2.5,3
				C141,52.4,143.1,46.1,144,39.3z"/>
			<path d="M88.5,55.6c-0.3,0.7-0.6,1.3-1,2.3c-3.3-8.8-3-17.6-1.7-26.3c0,4.7-0.2,9.5,0.1,14.2c0.2,3.2,1,6.4,1.6,9.5
				C87.5,55.5,88.2,55.5,88.5,55.6C88.5,55.6,88.5,55.6,88.5,55.6z"/>
			<path d="M106,55.7c1-4,2.1-8,2.8-12.1c0.7-4,0.8-8.1,1.2-12.2C110.8,39.8,109.9,48,106,55.7z"/>
			<path d="M72.2,158.2c-2.2,0.4-4.7-0.7-7.1-1.9c-1.1-0.5-2.2-1.1-3.2-1.7c-2.4-1.4-4.8-1.5-7.4-0.4c-2.7,1.1-5.5,1.1-8.1-0.1
				c2.2-0.1,4.7,0.4,6.7-0.4c4-1.6,7.5-0.7,11.1,1.1C66.8,156.2,69.8,157.2,72.2,158.2z"/>
			<path d="M52.8,64.7c-0.1,0.6-0.3,1.1-0.4,1.8c-2.2-3.6-0.4-20,2.6-26c-0.4,1.8-0.7,3.6-1.1,5.4c-1.2,5.4-2.1,10.9-1.8,16.5
				C52.2,63.2,52.6,64,52.8,64.7L52.8,64.7z"/>
			<path d="M137,56.2c2.7-6.2,4.4-12.7,4.6-19.6C143.5,40.4,140.8,52.2,137,56.2z"/>
			<path d="M132.1,27.9c0.6,8,0.5,15.9-3.4,23.2C131.3,43.6,131.6,35.7,132.1,27.9z"/>
			<path d="M60.9,100c-1.1,0.2-2,0.3-2.9,0.4c0-0.1,0-0.2-0.1-0.3c1.5-0.6,2.9-1.3,4.6-2c-3.5,8.3-2.9,16.1,3.3,23
				C61.2,117.6,58,109.9,60.9,100z"/>
			<path d="M67.1,58.1c-2.6-4.8-0.7-21.8,2.4-25.2C67.3,41.3,65.6,49.5,67.1,58.1z"/>
			<path d="M153.9,36.4c-1.1,8.6-1.6,17-0.1,25.4C151.4,58.9,151.3,41.7,153.9,36.4z"/>
			<path d="M88.6,52.7c0.9-7.3,1.9-14.8,2.9-22.4C91.5,38,91.3,45.7,88.6,52.7z"/>
			<path d="M146.3,39.6c-0.2,6.9-2.2,13.8,0.8,20.4c-0.2,0.1-0.3,0.1-0.5,0.2c-0.4-0.8-0.9-1.6-1.2-2.4c-1.8-5.9-0.8-11.7,0.4-17.5
				C145.9,40,146,39.9,146.3,39.6z"/>
			<path d="M43,153.9c-4,3.2-13.7-2.8-17.3-8c2.7,2,5.2,4,7.9,5.8C36.4,153.6,39.6,154.3,43,153.9z"/>
			<path d="M71.5,60.6c0.8-7.5,1.7-15.3,2.5-23.1C74.4,45.4,73.7,53.3,71.5,60.6z"/>
			<path d="M89.5,122.3c6.6-6.7,6.8-14.4,3.7-22.5C98,103.3,95.7,118.4,89.5,122.3z"/>
			<path d="M107.2,34.1c-0.1,6.4,0,12.8-2.4,19.1C105.6,46.7,106.4,40.4,107.2,34.1z"/>
			<path d="M159.5,104.2c1.9,7.2-0.5,15-5.2,18.4C158.6,117.1,159.3,114.6,159.5,104.2z"/>
			<path d="M87.6,70.8c-5.2-1-8.7-0.4-14.5,2.5C74,70.1,83.3,68.4,87.6,70.8z"/>
			<path d="M73.3,35.3c-0.6,6.2-1.1,12.3-1.7,18.5c-0.2,0-0.4,0-0.6-0.1c0.6-6.2,1.2-12.3,1.8-18.5C72.9,35.2,73.1,35.2,73.3,35.3z"
				/>
			<path d="M167.6,58.9c0.7,4.5,1.5,9,2.2,13.6c-0.3,0-0.5,0.1-0.8,0.1c-0.7-4.5-1.3-9.1-2-13.6C167.3,58.9,167.5,58.9,167.6,58.9z"
				/>
			<path d="M16.5,144.2c3.6,1.9,6.9,3.7,10.2,5.5C22.6,149.4,19.5,147.2,16.5,144.2z"/>
			<path d="M137.3,72.7c4.1-1.9,8.1-2.2,12.1,0.4C145.4,71.4,141.4,71.3,137.3,72.7z"/>
			<path d="M109.4,118.7c-0.3,1.7-0.4,2.9-0.6,4c-0.1,0.1-0.2,0.1-0.3,0.2c-0.2-0.6-0.7-1.3-0.5-1.9
				C108.2,120.3,108.8,119.7,109.4,118.7z"/>
			<path d="M129.2,124c1.8,1,3.7,1.9,5.5,2.9C132.6,126.4,130.5,125.8,129.2,124L129.2,124z"/>
			<path class="st136" d="M77.3,132.8c-1.4,1.3-2.8,2.5-4.1,3.8c-0.6,0.7-1.3,1.3-1.8,2.1c-0.6,0.7-1.1,1.5-1.6,2.3
				c0.2-0.9,0.6-1.8,1.1-2.6c0.5-0.8,1.1-1.5,1.8-2.2c0.7-0.7,1.4-1.3,2.2-1.8C75.6,133.7,76.4,133.2,77.3,132.8z"/>
			<path class="st136" d="M80.5,132.8c-0.8,0.6-1.5,1.1-2.2,1.8c-0.7,0.6-1.4,1.3-2,1.9c-0.6,0.7-1.1,1.4-1.7,2.1
				c-0.6,0.7-1.1,1.5-1.6,2.2l-0.1,0c0.2-0.9,0.6-1.8,1.1-2.6c0.5-0.8,1.2-1.5,1.9-2.1c0.7-0.6,1.4-1.3,2.2-1.8
				C78.8,133.8,79.6,133.2,80.5,132.8L80.5,132.8z"/>
			<path class="st136" d="M82.2,134.1c-0.6,0.4-1.1,0.9-1.6,1.3c-0.5,0.5-1,0.9-1.4,1.4c-0.4,0.5-0.9,1-1.3,1.6
				c-0.4,0.6-0.8,1.1-1.2,1.7c0.1-0.7,0.4-1.4,0.7-2c0.3-0.6,0.7-1.2,1.2-1.8c0.5-0.5,1-1,1.6-1.4C80.8,134.5,81.5,134.2,82.2,134.1
				z"/>
			<path class="st136" d="M73.1,134.3c-0.5,0.5-1,0.9-1.5,1.4c-0.5,0.5-0.9,1-1.3,1.6c-0.4,0.5-0.8,1.1-1.1,1.7
				c-0.4,0.6-0.7,1.2-1,1.8c0.1-0.7,0.2-1.4,0.5-2.1c0.3-0.7,0.6-1.3,1.1-1.9c0.4-0.6,1-1.1,1.5-1.5
				C71.8,134.9,72.4,134.5,73.1,134.3z"/>
			<path class="st136" d="M146.9,132.8c-0.7,0.6-1.3,1.3-2,2c-0.6,0.7-1.2,1.4-1.8,2.2c-0.5,0.8-1,1.6-1.5,2.3
				c-0.5,0.8-0.9,1.6-1.4,2.4l-0.1,0c0.1-1,0.4-1.9,0.8-2.8c0.4-0.9,1-1.6,1.6-2.3c0.6-0.7,1.3-1.4,2-2.1
				C145.4,133.9,146.1,133.3,146.9,132.8L146.9,132.8z"/>
			<path class="st136" d="M150.3,133.2c-0.8,0.6-1.5,1.1-2.2,1.8c-0.7,0.6-1.4,1.3-2,1.9c-0.6,0.7-1.1,1.4-1.7,2.1
				c-0.6,0.7-1.1,1.5-1.6,2.2l-0.1,0c0.2-0.9,0.6-1.8,1.1-2.6c0.5-0.8,1.2-1.5,1.9-2.1c0.7-0.6,1.4-1.3,2.2-1.8
				C148.7,134.1,149.5,133.6,150.3,133.2L150.3,133.2z"/>
			<path class="st136" d="M150.4,134.8c-0.3,0.5-0.7,0.9-1,1.3c-0.4,0.4-0.7,0.8-1.1,1.2l-1.1,1.2c-0.3,0.4-0.7,0.8-0.9,1.3
				c0-0.6,0.2-1.1,0.5-1.6c0.3-0.5,0.6-0.9,1-1.3c0.4-0.4,0.8-0.8,1.2-1.1C149.4,135.4,149.9,135.1,150.4,134.8z"/>
			<g>
				<path class="st3" d="M175.3,19.7c3.7,5.5,7.9,10.7,10.9,16.5c3.9,7.4,7.1,15.1,10,22.9c3.9,10.3,9.2,19.7,15,28.9
					c4.2,6.7,8,13.5,10.1,21.2c1.9,6.7,1.5,13-1.1,19.3c-0.4,1-0.9,2-1.3,3.1c2.1-1.5,3.2-3.5,3.8-5.8c2.2-8.9,1-17.5-3.2-25.5
					c-2.6-5-5.7-9.7-8.7-14.4c-5.2-8.3-10.1-16.8-13.4-26.1c-3.1-8.7-6.2-17.4-11-25.4C183.2,29.1,179.6,24.2,175.3,19.7z"/>
				<path d="M175.3,19.7c4.3,4.5,7.9,9.4,11.1,14.7c4.8,8,7.9,16.7,11,25.4c3.3,9.3,8.2,17.8,13.4,26.1c3,4.8,6.1,9.5,8.7,14.4
					c4.2,8,5.4,16.6,3.2,25.5c-0.6,2.3-1.7,4.4-3.8,5.8c0.4-1,0.9-2,1.3-3.1c2.6-6.3,2.9-12.7,1.1-19.3c-2.1-7.7-5.9-14.5-10.1-21.2
					c-5.8-9.2-11.2-18.6-15-28.9c-2.9-7.8-6.2-15.5-10-22.9C183.2,30.4,179.1,25.2,175.3,19.7z"/>
				<path d="M77.5,159.1c0,0-12.5-3-17.3-5.3c-4.8-2.3-12.8,1.7-16.7,1c-3.8-0.7-15.7-4-17.8-8.2c0.2,2.7-5.7-0.5-8.8-2.2
					c1.5,4-11.2-1.3-14.5-11.7C-1,122.4-4,108.3,18.1,82.4c2.8-3.3,20.9-45.2,26.5-53.3s26.8-41.2,69-23c7.5-4,39.5-17,63.7,15
					C191.8,43.9,193,44.8,195,51.8s12.2,25.7,19.2,36.3s21.4,38.8,1.3,54.2c-17.2,9.7-21.5,7.8-26.6,6.2c-6.5,2.2-9.3,4.5-18.8,3
					c-7.8,1.5-13.2,2.8-13.2,2.8c6.4-7.3,10.7-10.8,6.8-30.2c-1.8-14.5,1-23.3,5-37.2c1.8-11.5-0.3-23.5-1.7-28.5
					c0.2,7.5,0.5,11.5,0.5,11.5s-2.8-10.2-2.8-13.2s-1.7,8.2-1.7,8.8c0,0.7-2.8-10.7-3.5-15.3s-1.8,11.3-1.5,12.2
					c0.3,0.8-3.8-7.3-4-12.7s-1.2,12.2-0.5,13c0.7,0.8-3.3-8.3-3.3-12.7s-0.2,9.8,0,11c0.2,1.2-5.2-1.7-5.3-5.5
					c-0.2-3.8-0.7,4-0.5,4.5c0.2,0.5-3.5-5.2-3-8.2s-1.2,5.3-3.7,6.2c0.3-2.2,1.5-5.7,0.7-8.5c-2.3,1.3-3.7,3.7-3.5,5.5
					c0.2,1.8-3-7-3-10.7c0-3.7-1.8,6.5-4.8,9s-2.7-5.8-3.7-8.5c-4.8,8.7-6.2,11.2-6.2,12.5c0,1.3-3.8-6.2-4-9.5
					c-0.2-3.3-2,7.2-7.2,9.5c-2-2-2.3-12-2.8-11.5c-3,8-5.2,11.5-5.2,11.5s0.8-7.7-0.3-9.5c-1.2-1.8-3.3,5.7-3.3,8.8
					c-1.5-2.8-2-4.3-2.3-7.5c-3.5,8.3-4.5,8.2-4.5,9.7c-2.2-5.8-2.8-6-3.2-9.5c0.5,8.2-0.2,8.7-0.2,8.7c-1.3-4.2-1.3-5.7-2.2-6.3
					c-4,4.8-7.2,7.3-7.2,7.3s0.8-0.7,0.2-6.2c-1.8,5.7-2.8,9-2.8,9s-2.3,0.3-4.7-5.2c-1.3,6.5-1.3,6.5-1.3,6.5s-2.7-8-3.2-10.5
					c-4.8,15.2-5,13.5-5,13.5s-0.2-5.8-1-8.8c-2,3.3-5,8.3-5.2,11.3c-0.2,3-1.8,10.6,2.7,27.7s3.2,17.5,1.3,30.3
					c-1.8,12.8,3.2,23.5,21.3,31.8"/>
			</g>
		</g>
		<g>
			<path class="st3" d="M44.6,188.7c0,0,0.1,0,0.1,0c0,0,0.1-0.1,0.1-0.1C44.8,188.7,44.8,188.7,44.6,188.7
				C44.7,188.7,44.6,188.7,44.6,188.7z"/>
			<polygon class="st3" points="47.2,187.5 47.3,187.5 47.2,187.5 			"/>
			<path class="st3" d="M41,183.1c-0.5,1.6-0.6,3.1,0.2,4.5c0.8,1.3,2.1,1.8,3.4,1.1C41,188.6,40.9,185.9,41,183.1z"/>
			<path class="st3" d="M44.9,188.6c0.8-0.4,1.6-0.8,2.4-1.2c0,0,0,0,0,0c-0.3-1.1-0.5-2.2-0.8-3.3
				C46.5,185.9,46.1,187.4,44.9,188.6z"/>
			<path class="st3" d="M201.6,183.6c0.8,0.5,1.7,0.9,2.5,1.5c1.2,0.9,2.4,0.8,3-0.6c-0.4,0.2-0.7,0.3-1,0.4
				c-1.1,0.4-2.2-0.1-2.4-1.3c-0.6-2.5,1.2-4.6,3.8-4.4c0.2,0,0.3,0,0.5,0c0-0.2,0-0.3,0-0.5c-0.9,0.1-1.8-0.1-2.6,0.2
				c-2.1,0.8-1.8,3-2.3,4.8c-1-0.8-0.6-1.6-0.3-2.4c0.3-1.2,0.5-2.5,0.8-3.7c0.2-0.3,0.6-0.7,0.6-1c0.4-3.9,0.6-7.8-1.1-11.6
				c-1.2-2.8-5.6-4.3-8.4-2.9c5.8-0.4,8.1,0.8,9,7.5c0.4,2.6-0.1,5.3-0.2,8C202.9,179.8,202.3,181.7,201.6,183.6
				c-0.8,1.4-1.5,2.9-2.3,4.3C200.9,186.9,201.4,185.4,201.6,183.6z"/>
			<path class="st3" d="M197.4,189.7c0-0.1,0-0.2,0-0.3c-0.8-0.6-1.5-1.1-2.3-1.7c-0.1-0.1-0.3-0.4-0.4-0.4c-1.2,0.3-1-0.6-0.9-1.1
				c0.1-0.7,0.4-1.4,0.6-2.1c0.6-2.2,1.7-4.3,1.8-6.5c0-3.6-0.6-7.3-1.1-10.9c-0.5-3.8-2.8-5.8-6.6-6.1c-1.8-0.2-3.3,0.4-4.3,1.5
				c1.9-1.1,3.9-1.2,5.9-0.7c1.8,0.4,3.2,1.2,3.7,3.1c0.4,1.5,0.7,3,1.2,4.4c2,6.7,0.2,12.9-2.1,19.1c0,0.1-0.2,0.2-0.3,0.3
				c-0.1-0.5,0.1-0.9,0.1-1.3c0.1-0.4,0-0.7,0-1.4c-0.9,2.3-0.7,4.7-2.9,6c0.1,0.1,0.3,0.2,0.4,0.3c1.2-1.3,2.4-2.7,3.6-4
				C194.8,188.4,196.1,189,197.4,189.7z"/>
			<path class="st3" d="M173.3,165c0.1,0,0.1,0.1,0.2,0.1c0.4-0.4,0.9-0.8,1.3-1.3c3.7-3.7,9.3-2.3,10.6,2.7
				c0.6,2.6,0.7,5.3,1.3,7.9c0.6,3.1,0,6.2-0.7,9.2c-0.4,1.6-1,3.2-1.4,4.8c0.5-0.4,0.7-1,0.9-1.5c1-3.1,2-6.2,1.9-9.4
				c-0.1-3.9-0.2-7.9-1.6-11.6c-1.8-5-8.3-6.1-11.8-2C173.7,164.2,173.5,164.6,173.3,165z"/>
			<path class="st3" d="M31.3,186.1c-1.8,1.5-3.1,1.6-4,0.4c-0.5-0.7-0.8-1.5-1.2-2.3c-0.2-0.6-0.4-1.1-0.6-1.7
				c-0.1,0-0.2,0.1-0.3,0.1c0.1,0.5,0.1,1,0.2,1.5c-2.8-7-5.1-14.1-1-21.5c-0.4,0.2-0.6,0.4-0.7,0.6c-0.8,2.6-1.6,5.3-2.3,7.9
				c-0.1,0.5-0.1,1.2,0,1.7c0.4,1.9,0.8,3.9,1.4,5.8c0.6,1.7,0.5,3.6,1.4,5.3c0.9,1.7,1.6,3.2,3.7,3.7
				C29.7,188.1,31,187.7,31.3,186.1z"/>
			<path class="st3" d="M34,160.9c-0.5,0.8-1.3,1.5-1.5,2.4c-1.5,6.5-3.4,13.1-0.8,19.8c0.8,2,1.3,4.2,2,6.2c0.2,0,0.5-0.1,0.7-0.1
				C30.2,179.9,29.6,170.5,34,160.9z"/>
			<path class="st3" d="M40.1,183.5c-0.2-3.7-0.9-7.3-0.5-10.7c0.4-3.5,1.8-6.8,2.9-10.6C38.8,169.1,37.7,176,40.1,183.5z"/>
			<path class="st3" d="M161.9,174.2c2.4-2.7,0.6-5.7,1.4-8.3c-0.2,0-0.4,0-0.6,0c0,2.4,0,4.7,0,7.1c-0.2,0-0.4,0-0.6,0
				c-0.5-2.4-0.8-4.8,0.1-7.2C160.6,168.4,161.5,171.2,161.9,174.2z"/>
			<path class="st3" d="M43.7,162c2.2-0.9,4.3-0.4,6.5-0.1c2.5,0.4,3.4,2.6,4.6,4.5c-0.2-1.8-1.1-3.5-2.7-4.2
				C49.4,160.9,46.5,160.4,43.7,162z"/>
			<path class="st3" d="M34.1,184.2c1.1,0.2,2.9,0.1,3.8,0.9c1,0.8,1.2,2.6,1.7,3.7c0.5-1.4,0.1-3.3-1.2-4.3
				C37.2,183.5,35.3,183.5,34.1,184.2z"/>
			<path class="st3" d="M17.1,178.7c0.8,3.2,2.4,5.2,4.2,5.2c0.6,0,1.1-0.4,1.7-0.5c-0.1-0.1-0.1-0.2-0.2-0.4
				C20.5,184,20,183.7,17.1,178.7z"/>
			<path class="st3" d="M64.1,173.7c0.2,0,0.3,0,0.5,0c0.4-2.4,0.4-4.7-0.5-7.4C64.1,169,64.1,171.4,64.1,173.7z"/>
			<path class="st3" d="M32.8,161.6c-2.5-1.7-6.3-1.7-7.6,0.4C27.8,160.1,30.3,160.6,32.8,161.6z"/>
			<path class="st3" d="M187.8,191.5c-2.1-2.1-1.3-4.3-0.1-6.8C185.4,187.3,185.5,190.5,187.8,191.5z"/>
			<path class="st3" d="M42.6,161.7c-1.5-1.8-4.1-2.3-6.5-1.2C38.3,159.7,40.4,160.5,42.6,161.7z"/>
			<path class="st3" d="M45.9,183.1c0.1-0.2,0.1-0.3,0.2-0.5c-1.2-0.2-2.4-0.5-3.7-0.7c0,0.1-0.1,0.3-0.1,0.4
				C43.5,182.6,44.7,182.9,45.9,183.1z"/>
			<path class="st3" d="M21.5,178.2c-0.9-1.1-1.7-1.2-3.2-0.3C19.2,178,20.4,178.1,21.5,178.2z"/>
			<path class="st3" d="M35.9,190.2c1.6,1,2.3,1,3,0C38,190.2,37,190.2,35.9,190.2z"/>
			<path d="M14.1,174.7c-1-3.6,0.8-6.7,2-9.8c0.7-2,2.5-2.9,4.6-3.1c0.9-0.1,1.8,0.1,2.7,0.2c-1.3,0.2-2.6,0.3-3.8,0.7
				c-1.6,0.5-2.7,1.5-3.3,3.2c-0.9,2.9-2.3,5.6-1.5,8.7c0.3,1.3,1,2.5,1.6,3.9c-0.5-0.6-1.1-1.1-1.3-1.6
				C14.6,176,14.3,175.3,14.1,174.7z"/>
			<polygon points="47.2,187.5 47.3,187.5 47.2,187.5 			"/>
			<path d="M179.8,185.7c-0.1,0-0.3-0.1-0.4-0.1c-0.3,1.4-0.6,2.8-0.9,4.3c-1.3-2.2-1.3-4.5-1-6.8c0.4-3,0.5-5.9-1.2-8.9
				c0.2,1.2,0.4,2.1,0.6,3.1c-1.4,0-2.6,0-4,0c0.2-2.6-0.2-5-1.2-7.3c-1.3-2.8-4.8-4.5-7.2-3.5c5.5-0.2,9.3,5.3,7.4,10.8
				c-13.2,0-99.5,0.1-107.5,0.1c-0.4,0-1-0.5-1-0.9c-0.2-1.8-0.2-3.5-0.3-5.3c0-0.8,0-1.6,0-2.5c-0.7,2.9-1.5,5.7-0.1,8.7
				c-1.8,0-3.3,0-4.9,0c-1.5,0-3.1,0-4.6,0c-0.8-4.1,1.7-8.2,6.3-11c-5.1,1.8-7,5.8-7.2,11c-1.1,0-2.2,0-3.4,0
				c0.5-1.3,0.9-2.6,1.4-3.8c-0.6,0.5-0.9,1.2-1.2,1.8c-1.3,2.9-1.8,5.9-1.7,9c0,1.9-0.6,3.9-0.9,5.8c1.3-1.1,1.7-2.5,1.5-4.1
				c-0.1-1.1-0.1-2.2,0-3.3c0.1-1.4,0.2-2.8,0.4-4.1c36.5,0,92,0,128.3,0c0,1.5,0.1,3,0,4.4c-0.3,3.4-0.3,6.7,2.8,9.1
				c1.2,0.9,2.1,1.3,3.1,0.6C179.9,192.9,178.3,190.4,179.8,185.7z"/>
			<path d="M208.6,182.8c-0.1-0.1-0.3-0.2-0.4-0.2c0.4-0.7,0.9-1.4,1.3-2.1c0.6-1.3,1.5-2.7,1.7-4.1c0.5-3.2,0.4-6.4-0.6-9.5
				c-0.7-2-3.4-3.4-6-3.1c-0.4,0-0.7,0.1-1.1,0.1c0-0.1,0-0.3,0-0.4c1,0,1.9-0.2,2.9-0.1c2.7,0.3,4.8,1.8,5.1,3.8
				c0.3,2,0.3,3.8,0.5,5.8c0,0.5,0,1.1,0,1.7C211.5,178.3,209.8,180.6,208.6,182.8z"/>
			<path d="M197.4,189.7c-1.3-0.6-2.6-1.2-3.6-1.7c-1.2,1.3-2.4,2.7-3.6,4c-0.1-0.1-0.3-0.2-0.4-0.3c2.2-1.3,2-3.7,2.9-6
				c0,0.6,0,1,0,1.4c-0.1,0.4-0.2,0.8-0.1,1.3c0.1-0.1,0.2-0.2,0.3-0.3c2.3-6.2,4.1-12.4,2.1-19.1c-0.4-1.5-0.8-3-1.2-4.4
				c-0.5-1.9-1.9-2.7-3.7-3.1c-2-0.5-3.9-0.4-5.9,0.7c1-1.2,2.5-1.7,4.3-1.5c3.8,0.3,6.1,2.3,6.6,6.1c0.5,3.6,1.1,7.3,1.1,10.9
				c0,2.2-1.1,4.3-1.8,6.5c-0.2,0.7-0.5,1.4-0.6,2.1c-0.1,0.5-0.3,1.4,0.9,1.1c0.1,0,0.2,0.3,0.4,0.4c0.8,0.6,1.5,1.1,2.3,1.7
				C197.4,189.5,197.4,189.6,197.4,189.7z"/>
			<path d="M173.3,165c0.2-0.4,0.5-0.8,0.8-1.1c3.4-4.1,10-3,11.8,2c1.3,3.7,1.4,7.7,1.6,11.6c0.1,3.3-0.9,6.4-1.9,9.4
				c-0.2,0.5-0.4,1.1-0.9,1.5c0.5-1.6,1.1-3.1,1.4-4.8c0.7-3,1.3-6,0.7-9.2c-0.5-2.6-0.6-5.3-1.3-7.9c-1.3-5-6.8-6.4-10.6-2.7
				c-0.4,0.4-0.9,0.8-1.3,1.3C173.4,165.1,173.3,165,173.3,165z"/>
			<path d="M31.3,186.1c-0.2,1.6-1.6,2-3.2,1.5c-2.1-0.5-2.8-2-3.7-3.7c-0.9-1.7-0.9-3.5-1.4-5.3c-0.6-1.9-1-3.8-1.4-5.8
				c-0.1-0.6-0.2-1.2,0-1.7c0.7-2.7,1.5-5.3,2.3-7.9c0.1-0.2,0.3-0.4,0.7-0.6c-4.1,7.4-1.8,14.5,1,21.5c-0.1-0.5-0.1-1-0.2-1.5
				c0.1,0,0.2-0.1,0.3-0.1c0.2,0.6,0.4,1.2,0.6,1.7c0.4,0.8,0.7,1.6,1.2,2.3C28.2,187.7,29.5,187.6,31.3,186.1z"/>
			<path d="M34,160.9c-4.4,9.6-3.8,18.9,0.4,28.3c-0.2,0-0.5,0.1-0.7,0.1c-0.7-2.1-1.2-4.2-2-6.2c-2.6-6.7-0.7-13.2,0.8-19.8
				C32.7,162.5,33.5,161.7,34,160.9z"/>
			<path d="M40.1,183.5c-2.4-7.5-1.3-14.3,2.4-21.3c-1.1,3.8-2.5,7.1-2.9,10.6C39.2,176.2,39.9,179.8,40.1,183.5z"/>
			<path d="M203.6,177.8c0.1-2.7,0.6-5.4,0.2-8c-1-6.7-3.2-8-9-7.5c2.8-1.4,7.2,0.1,8.4,2.9c1.6,3.7,1.5,7.7,1.1,11.6
				C204.1,177.1,203.8,177.4,203.6,177.8L203.6,177.8z"/>
			<path d="M203.5,177.8c-0.3,1.2-0.5,2.5-0.8,3.7c-0.2,0.8-0.7,1.6,0.3,2.4c0.5-1.8,0.2-4,2.3-4.8c0.8-0.3,1.7-0.2,2.6-0.2
				c0,0.2,0,0.3,0,0.5c-0.2,0-0.3,0-0.5,0c-2.6-0.2-4.4,1.8-3.8,4.4c0.3,1.1,1.3,1.7,2.4,1.3c0.3-0.1,0.6-0.2,1-0.4
				c-0.6,1.4-1.8,1.6-3,0.6c-0.8-0.6-1.7-1-2.5-1.5l0,0C202.3,181.7,202.9,179.8,203.5,177.8C203.6,177.8,203.5,177.8,203.5,177.8z"
				/>
			<path d="M161.9,174.2c-0.4-3-1.3-5.8,0.4-8.5c-0.9,2.4-0.7,4.8-0.1,7.2c0.2,0,0.4,0,0.6,0c0-2.4,0-4.7,0-7.1c0.2,0,0.4,0,0.6,0
				C162.5,168.6,164.3,171.6,161.9,174.2z"/>
			<path d="M43.7,162c2.8-1.6,5.7-1.1,8.4,0.2c1.6,0.7,2.4,2.4,2.7,4.2c-1.2-1.8-2.1-4-4.6-4.5C48.1,161.6,45.9,161.1,43.7,162z"/>
			<path d="M34.1,184.2c1.2-0.7,3.1-0.6,4.3,0.3c1.2,1,1.7,2.9,1.2,4.3c-0.5-1.1-0.7-2.9-1.7-3.7C37,184.3,35.2,184.4,34.1,184.2z"
				/>
			<path d="M17.1,178.7c2.9,5,3.4,5.3,5.7,4.3c0.1,0.1,0.1,0.2,0.2,0.4c-0.6,0.2-1.1,0.6-1.7,0.5C19.5,183.9,17.9,182,17.1,178.7z"
				/>
			<path d="M44.7,188.7c-1.4,0.7-2.7,0.3-3.5-1.1c-0.8-1.4-0.8-2.9-0.2-4.5C40.9,186,41,188.6,44.7,188.7L44.7,188.7z"/>
			<path d="M64.1,173.7c0-2.3,0-4.7,0-7.4c0.9,2.7,0.9,5,0.5,7.4C64.4,173.7,64.3,173.7,64.1,173.7z"/>
			<path d="M32.8,161.6c-2.5-1-5-1.4-7.6,0.4C26.6,159.9,30.4,159.8,32.8,161.6z"/>
			<path d="M187.8,191.5c-2.3-1-2.4-4.1-0.1-6.8C186.5,187.2,185.7,189.4,187.8,191.5z"/>
			<path d="M42.6,161.7c-2.2-1.2-4.2-2-6.5-1.2C38.5,159.4,41.1,159.8,42.6,161.7z"/>
			<path d="M44.7,188.8c1.4-1.2,1.7-2.8,1.7-4.6c0.3,1.1,0.5,2.2,0.8,3.3l0,0C46.4,187.9,45.6,188.3,44.7,188.8
				C44.7,188.7,44.7,188.8,44.7,188.8z"/>
			<path d="M45.9,183.1c-1.2-0.3-2.4-0.5-3.6-0.8c0-0.1,0.1-0.3,0.1-0.4c1.2,0.2,2.4,0.5,3.7,0.7C46,182.8,46,183,45.9,183.1z"/>
			<path d="M201.6,183.6c-0.2,1.7-0.7,3.3-2.3,4.3C200,186.5,200.8,185.1,201.6,183.6C201.6,183.7,201.6,183.6,201.6,183.6z"/>
			<path d="M21.5,178.2c-1.1-0.1-2.3-0.2-3.2-0.3C19.8,177.1,20.6,177.1,21.5,178.2z"/>
			<path d="M35.9,190.2c1.1,0,2,0,3,0C38.2,191.1,37.5,191.2,35.9,190.2z"/>
			<path d="M196.2,187.6c-1.7-1-1.5-3.5,0.5-5.5C195.5,184.1,194.7,185.8,196.2,187.6z"/>
		</g>
	</g>
</g>
</svg>
