<?xml version="1.0" encoding="utf-8"?>
<!-- Generator: Adobe Illustrator 22.0.1, SVG Export Plug-In . SVG Version: 6.00 Build 0)  -->
<svg version="1.1" xmlns="http://www.w3.org/2000/svg" xmlns:xlink="http://www.w3.org/1999/xlink" x="0px" y="0px"
	 viewBox="0 0 240.7 178.7" style="enable-background:new 0 0 240.7 178.7;" xml:space="preserve">
<style type="text/css">
	.st0{display:none;}
	.st1{fill:#FFE5C2;}
	.st2{fill:#FFFFFF;}
	.st3{fill:#333333;}
	.st4{fill:#616161;}
	.st5{fill:#4D4D4D;}
	.st6{fill:#373737;}
	.st7{fill:#575757;}
	.st8{fill:#EF8F8F;}
	.st9{fill:#ABABAB;}
	.st10{fill:#9A9A9A;}
	.st11{fill:#4B4B4B;}
	.st12{fill:#515151;}
	.st13{fill:#989898;}
	.st14{fill:#585858;}
	.st15{fill:#797979;}
	.st16{fill:#6E6E6E;}
	.st17{fill:#8E8E8E;}
	.st18{fill:#BABABA;}
	.st19{fill:#7F7F7F;}
	.st20{fill:#949494;}
	.st21{fill:#AEAEAE;}
	.st22{fill:#C5C5C5;}
	.st23{fill:#7C7C7C;}
	.st24{fill:#919191;}
	.st25{fill:#A2A2A2;}
	.st26{fill:#A7A7A7;}
	.st27{fill:#8C8C8C;}
	.st28{fill:#8D8D8D;}
	.st29{fill:#6C6C6C;}
	.st30{fill:#5F5F5F;}
	.st31{fill:#9B9B9B;}
	.st32{fill:#D1D1D1;}
	.st33{fill:#A9A9A9;}
	.st34{fill:#848484;}
	.st35{fill:#5E5E5E;}
	.st36{fill:#7B7B7B;}
	.st37{fill:#262626;}
	.st38{fill:#5D5D5D;}
	.st39{fill:#FBFBFB;}
	.st40{fill:#696969;}
	.st41{fill:#6B6B6B;}
	.st42{fill:#0F0F0F;}
	.st43{fill:#5B5B5B;}
	.st44{fill:#353535;}
	.st45{fill:#272727;}
	.st46{fill:#383838;}
	.st47{fill:#A0A0A0;}
	.st48{fill:#CFCFCF;}
	.st49{fill:#B3B3B3;}
	.st50{fill:#D0D0D0;}
	.st51{fill:#636363;}
	.st52{fill:#E5E5E5;}
	.st53{fill:#343434;}
	.st54{fill:#545454;}
	.st55{fill:#525252;}
	.st56{fill:#B4B4B4;}
	.st57{fill:#D5D5D5;}
	.st58{fill:#707070;}
	.st59{fill:#F1F1F1;}
	.st60{fill:#767676;}
	.st61{fill:#E2E2E2;}
	.st62{fill:#AAAAAA;}
	.st63{fill:#4C4C4C;}
	.st64{fill:#7A7A7A;}
	.st65{fill:#A3A3A3;}
	.st66{fill:#C2C2C2;}
	.st67{fill:#808080;}
	.st68{fill:#9E9E9E;}
	.st69{fill:#2D2D2D;}
	.st70{fill:#787878;}
	.st71{fill:#8F8F8F;}
	.st72{fill:#5C5C5C;}
	.st73{fill:#303030;}
	.st74{fill:#8A8A8A;}
	.st75{fill:#E3E3E3;}
	.st76{fill:#9F9F9F;}
	.st77{fill:#898989;}
	.st78{fill:#B7B7B7;}
	.st79{fill:#6F6F6F;}
	.st80{fill:#999999;}
	.st81{fill:#6D6D6D;}
	.st82{fill:#909090;}
	.st83{fill:#BFBFBF;}
	.st84{fill:#B2B2B2;}
	.st85{fill:#3D3D3D;}
	.st86{fill:#1D1D1D;}
	.st87{fill:#777777;}
	.st88{fill:#606060;}
	.st89{fill:#6A6A6A;}
	.st90{fill:#AFAFAF;}
	.st91{fill:#727272;}
	.st92{fill:#717171;}
	.st93{fill:#737373;}
	.st94{fill:#F9F9F9;}
	.st95{fill:#ADADAD;}
	.st96{fill:#7E7E7E;}
	.st97{fill:#555555;}
	.st98{fill:#818181;}
	.st99{fill:#8B8B8B;}
	.st100{fill:#A8A8A8;}
	.st101{fill:#B9B9B9;}
	.st102{fill:#EBEBEB;}
	.st103{fill:#B6B6B6;}
	.st104{fill:#646464;}
	.st105{fill:#D6D6D6;}
	.st106{fill:#171717;}
	.st107{fill:#202020;}
	.st108{fill:#464646;}
	.st109{fill:#888888;}
	.st110{fill:#A6A6A6;}
	.st111{fill:#BEBEBE;}
	.st112{fill:#0C0C0C;}
	.st113{fill:#1A1A1A;}
	.st114{fill:#2E2E2E;}
	.st115{fill:#676767;}
	.st116{fill:#878787;}
	.st117{fill:#DBDBDB;}
	.st118{fill:#4F4F4F;}
	.st119{fill:#9C9C9C;}
	.st120{fill:#3B3B3B;}
	.st121{fill:#565656;}
	.st122{fill:#404040;}
	.st123{fill:#E6E6E6;}
	.st124{fill:#DFDFDF;}
	.st125{fill:#0E0E0E;}
	.st126{fill:#232323;}
	.st127{fill:#747474;}
	.st128{fill:#393939;}
	.st129{fill:#444444;}
	.st130{fill:#242424;}
	.st131{fill:#E7E7E7;}
	.st132{fill:#2B2B2B;}
</style>
<g id="圖層_2" class="st0">
</g>
<g id="圖層_1">
	<g>
		<path class="st1" d="M105.8,178.5l-0.3-13.2c0,0-29.7-9.4-35-14.6c-5.2-5.2-17-53.5-17-53.5l5.3-40.1l27.4-16.6l67,1.1l32,13.7
			l3,35.7l-1.4,38.3l-8.5,17.6c0,0-8.8,7.4-11.7,8.3c-2.9,1-2.5,3.5-11.9,6.7c-3.7,0.7-18.5,1-18.5,1l-1,15.8L105.8,178.5z"/>
		<path class="st2" d="M75.6,94.9c0,0-5.9,5.1-5.3,14.6c0.5,8.1,4.7,17,20.5,17c5.8-1.2,16.4-3.6,13.2-23.1
			C102.4,97,95.5,91,90.1,91.1S77,93.4,75.6,94.9z"/>
		<path class="st2" d="M151.5,93.6c-6.5,0.3-15.2,8.4-15.2,11.6s-4.3,5.9,0,15.9c2.8,3.9,8.3,9.8,16,7.5c5.9-1.5,12.3-3,14.8-8.3
			c0.8-1.4,3.2-6.6,2.7-10.9s0.1-4.8-1.6-7.8S164.3,93,151.5,93.6z"/>
		<path class="st2" d="M105.4,165.3c0-0.1,0.2-0.1,0.3-0.2c3.9,0.4,7.7,0.8,11.6,1.2c0-0.2,0-0.4,0.1-0.6c-3.9-0.2-7.8-0.4-11.6-0.5
			c-0.3-0.2-0.5-0.4-0.7-0.5c0.3,3.5,0.5,10.2,0.8,13.8h0.9C106.3,175.1,105.8,168.5,105.4,165.3z"/>
		<path d="M105.4,165.3c0-0.1,0.2-0.1,0.3-0.2l0,0c-0.3-0.2-0.5-0.4-0.7-0.5c0.3,3.5,0.5,10.2,0.8,13.8h0.9
			C106.3,175.1,105.8,168.5,105.4,165.3z"/>
		<path d="M105.7,165.1c3.9,0.2,7.8,0.4,11.6,0.5c0,0.2,0,0.4-0.1,0.6C113.4,165.9,109.6,165.5,105.7,165.1L105.7,165.1z"/>
		<path class="st2" d="M136.7,164.4c0-0.4,0.9-0.9,1.3-1c3-0.2,5.9-0.2,8.9-0.4c6.8-0.4,13.4-1.7,18.6-6.6c2.8-2.6,5.6-5.3,7.6-8.4
			c3.7-6.1,3.3-12.8,1.9-19.5c-1.1-5.1-2-10.2-3-14.9c0.2,2.4,0.4,5.2,0.8,8c0.8,5.3,2.2,10.5,2,16c-0.2,4.9-1.3,9.5-4.5,13.3
			c-4.3,5.4-9.6,9.4-16.6,10.5c-4.7,0.7-9.4,0.9-14.1,1.2c-4.5,0.4-9.1,0.7-13.6,1c0,0.2,0,0.4,0,0.6c3.3-0.3,6.7-0.6,9.8-0.8
			c-0.2,4-0.4,11.2-0.6,15c0.2,0,0.4,0,0.6,0C136.1,174.8,136.4,167.9,136.7,164.4z"/>
		<path d="M136.7,164.4c0-0.4,0.9-0.9,1.3-1c3-0.2,5.9-0.2,8.9-0.4c6.8-0.4,13.4-1.7,18.6-6.6c2.8-2.6,5.6-5.3,7.6-8.4
			c3.7-6.1,3.3-12.8,1.9-19.5c-1.1-5.1-2-10.2-3-14.9c0.2,2.4,0.4,5.2,0.8,8c0.8,5.3,2.2,10.5,2,16c-0.2,4.9-1.3,9.5-4.5,13.3
			c-4.3,5.4-9.6,9.4-16.6,10.5c-4.7,0.7-9.4,0.9-14.1,1.2c-4.5,0.4-9.1,0.7-13.6,1c0,0.2,0,0.4,0,0.6c3.3-0.3,6.7-0.6,9.8-0.8
			c-0.2,4-0.4,11.2-0.6,15c0.2,0,0.4,0,0.6,0C136.1,174.8,136.4,167.9,136.7,164.4z"/>
		<g>
			<path d="M121.2,149c-0.4,0.3-1,0.4-1.5,0.4c-0.5-0.1-1.1-0.3-1.4-0.8c-0.4-0.4-0.6-1-0.7-1.5s-0.1-1.1,0-1.6l0,0l0,0
				c0.1-0.4,0.3-0.9,0.5-1.3c0.3-0.4,0.7-0.8,1.1-1c0.9-0.5,2-0.5,3,0c0.5,0.2,0.8,0.7,1.1,1.1c0.3,0.4,0.4,0.9,0.5,1.4
				c0.1,0.9-0.2,1.8-0.7,2.5l-0.1-0.1c0-0.8-0.1-1.6-0.3-2.2c-0.3-0.6-0.7-1.1-1.1-1.3c-0.5-0.3-1.1-0.4-1.6-0.2
				c-0.6,0.2-1,0.7-1.2,1.3l0,0c-0.1,0.4-0.2,0.9-0.2,1.3c0,0.4,0.1,0.9,0.3,1.2c0.2,0.4,0.6,0.6,1,0.8c0.4,0.1,0.9,0.1,1.3-0.1
				L121.2,149z"/>
			<path d="M117.7,151.8c0,0,3.4,1.5,5.4,0.9C121.6,153.9,118.7,153.7,117.7,151.8z"/>
		</g>
		<path class="st3" d="M136.6,104.6c0.7-2.2,2.2-4,3.8-6.1c-2.9,1-4.5,3.4-6.8,4.6c4.1-5,9.3-8.2,15.7-9.4c0.4-0.1,0.8-0.3,0.8,0.4
			c-6.5,1.1-10.2,5.6-13.1,10.9C136.6,105.1,136.4,105,136.6,104.6z"/>
		<path class="st3" d="M138.7,124.5c-5.5-3.2-5.5-12.2-3.2-16.7C134.3,113.7,134.2,119.5,138.7,124.5z"/>
		<path class="st3" d="M167.1,119.8c0.9-2.6,1.8-5.2,2.3-7.9c0.3-1.2,0-2.5,0.1-3.7c0-0.4-0.2-0.9,0.4-1c0.6,4.6,0,9-2.5,13.1
			C167.1,120.3,166.9,120.2,167.1,119.8z"/>
		<path class="st3" d="M150.1,94.1c-0.3-0.1-0.5-0.2-0.8-0.4c3.2-1.1,6.6-0.6,9.8-0.3c1.4,0.1,3-0.3,4.8,0.5
			C159,94.5,154.5,93.2,150.1,94.1z"/>
		<path class="st3" d="M143.4,128c-1.4-0.7-3.1-1.2-3.8-2.9c1.5,0.9,3.1,1.7,4.6,2.6C144.2,128.3,143.8,128.1,143.4,128z"/>
		<path class="st3" d="M170,107.2c-0.8,1.5,0.2,3.2-0.6,4.7c0-2.1-0.1-4.1-0.1-6.2c0.1-0.2,0.2-0.2,0.4,0
			C169.8,106.2,169.9,106.7,170,107.2z"/>
		<path class="st4" d="M166.4,121.7c-0.7,0.9-1.4,1.9-2.7,2.2c0.8-0.8,1.6-1.7,2.3-2.5C166.2,121.5,166.4,121.6,166.4,121.7z"/>
		<path class="st3" d="M136.6,104.6c0.1,0.1,0.3,0.3,0.4,0.4c-0.3,0.7-0.6,1.5-1,2.2c-0.2-0.1-0.3-0.1-0.5-0.2
			C135.5,106.1,136,105.3,136.6,104.6z"/>
		<path class="st3" d="M143.4,128c0.3-0.1,0.5-0.2,0.8-0.3c0.5,0.3,1.2,0.2,1.5,0.9C144.8,128.7,144.1,128.4,143.4,128z"/>
		<path class="st3" d="M166.4,121.7c-0.1-0.1-0.2-0.2-0.3-0.3c0.3-0.5,0.7-1.1,1-1.6c0.1,0.2,0.3,0.3,0.4,0.5
			C167.3,120.9,167,121.4,166.4,121.7z"/>
		<path class="st3" d="M168.9,104.3c-0.2-0.5-0.4-1-0.8-1.8c1,0.4,0.9,1,1.1,1.5C169.2,104.1,169.1,104.2,168.9,104.3z"/>
		<path class="st3" d="M168.9,104.3c0.1-0.1,0.2-0.2,0.3-0.3c0.2,0.6,0.5,1.1,0.4,1.8c-0.1,0-0.2,0-0.4,0
			C169.2,105.3,169.1,104.8,168.9,104.3z"/>
		<path class="st3" d="M161.6,125.5c-0.3,0.8-0.8,1.1-1.7,0.8C160.5,126,161,125.8,161.6,125.5z"/>
		<path class="st3" d="M148.1,129.1c0.1,0.3-0.2,0.3-0.3,0.3c-0.2,0-0.4-0.1-0.6-0.1c0.1-0.1,0.2-0.2,0.4-0.3
			C147.7,128.8,147.9,128.9,148.1,129.1z"/>
		<path class="st3" d="M100.6,97c-1.2-0.3-1.7-1.5-2.5-2.2c-2.2-2-4.8-2.8-7.7-3c-0.8,0-1.5-0.2-2.3-0.2c-1,0.4-2.1-0.2-3.1,0.3
			c-1.2,0.3-2.3,0.5-3.5,0.8c-0.4,0.1-0.9,0.3-0.9-0.5c7.2-2.5,14-2.1,20,2.9c0.4,0.3,0.7,0.7,0.8,1.2C101.2,96.6,101,96.9,100.6,97
			z"/>
		<path class="st3" d="M72.2,118.1c-2.5-3.9-2.9-8.2-2.3-12.6c0.2-1.4,0.4-2.9,1.1-4.4c-1.3,0.2-2.3,0.6-3.9,0c2.1-0.3,3.6-1,5.1-2
			c0,1.5-0.5,2.6-0.9,3.8c-1.5,4.8-1.1,9.4,0.9,13.9c0.1,0.3,0.1,0.6,0.1,0.9C72.4,117.8,72.4,118,72.2,118.1z"/>
		<path class="st3" d="M80.6,92.2c0.2,0.4,0.6,0.4,0.9,0.5c-2.5,1.2-5.1,2.5-8,2.6c-1.8,0.1-3.4-0.2-4.8-1.5
			C72.9,94.8,76.8,94.1,80.6,92.2z"/>
		<path class="st5" d="M100.6,97c-0.3-0.8,0.3-0.8,0.8-0.7c0.3,0.2,0.7,0.5,1,0.7c0.2,0.7,0.6,1.3,1.3,1.8c0.5,0.7,1.4,1.4,0.2,2.2
			c-0.4,0.1-0.7-0.2-1-0.4c-0.5-0.5-0.3-1.5-1.1-1.8C101.5,98.1,101.1,97.6,100.6,97L100.6,97z"/>
		<path class="st5" d="M104.3,114.5c0.5-1,0.5-2.2,0.7-3.3c0.9,0.3,0.4,1,0.4,1.6c0.1,1.1-0.1,2.2-0.7,3.1c-0.1,0.1-0.3,0.1-0.4,0
			C104.3,115.5,104.3,115,104.3,114.5z"/>
		<path class="st5" d="M104.3,115.9c0.1,0,0.3,0,0.4,0c-0.2,1.3-0.6,2.6-1.6,3.6c-0.3,0-0.5,0-0.3-0.4
			C103.3,118.1,103.8,117,104.3,115.9z"/>
		<path class="st5" d="M105.4,112.8c-0.2-0.5,0.1-1.2-0.4-1.6c0-0.7,0-1.5,0-2.2c0.3-0.5-0.1-1.1,0.4-1.5
			C105.8,109.2,105.8,111,105.4,112.8z"/>
		<path class="st3" d="M72.2,118.1c0-0.2,0-0.3,0.1-0.5c1.1,0.6,1.5,1.7,2.1,2.6c0,0.2-0.2,0.4-0.4,0.5
			C73.2,120,72.7,119.1,72.2,118.1z"/>
		<path class="st6" d="M105.4,107.5c-0.2,0.5,0.1,1.1-0.4,1.5c-0.1-1-0.2-1.9-0.3-2.9c0.2-0.3-0.1-0.8,0.3-1.1
			C105.4,105.8,105.5,106.6,105.4,107.5z"/>
		<path class="st3" d="M102.1,121c-0.3,0.7-0.8,1.2-1.4,1.6c-0.2-0.2-0.2-0.4-0.1-0.7c0.4-0.4,0.8-0.9,1.1-1.3
			C102,120.5,102.2,120.6,102.1,121z"/>
		<path class="st5" d="M103.7,98.8c-0.8-0.4-1.7-0.6-1.3-1.8C103.2,97.4,103.3,98.2,103.7,98.8z"/>
		<path class="st3" d="M102.1,121c-0.1-0.1-0.3-0.3-0.4-0.4c0.2-0.6,0.6-1.1,1.1-1.5c0.1,0.1,0.2,0.3,0.3,0.4
			C102.8,120.1,102.6,120.7,102.1,121z"/>
		<path class="st3" d="M95.6,125.8c-0.6,0.4-1.2,0.6-1.9,0.6c-0.1-0.1-0.2-0.2-0.1-0.3c0-0.1,0.1-0.1,0.1-0.1c0.5-0.2,1-0.4,1.5-0.6
			C95.4,125.5,95.6,125.5,95.6,125.8z"/>
		<path class="st3" d="M85,91.9c1-0.7,2.1-0.2,3.1-0.3C87.1,91.9,86,91.9,85,91.9z"/>
		<path class="st3" d="M100.6,122c0,0.2,0.1,0.4,0.1,0.7c-0.4,0.5-0.8,0.9-1.7,1.3C99.3,122.8,100,122.5,100.6,122z"/>
		<path class="st3" d="M74,120.8c0.1-0.2,0.3-0.3,0.4-0.5c0.4,0.4,0.8,0.8,1,1.5C74.6,121.9,74.4,121.2,74,120.8z"/>
		<path class="st3" d="M90.8,126.8c-0.7,0.3-1.5,0.1-2.2-0.3c0.7,0,1.5,0,2.2,0c0.1,0.1,0.1,0.1,0.1,0.2
			C90.9,126.8,90.8,126.8,90.8,126.8z"/>
		<path class="st7" d="M100.6,97c0.7,0.4,1.3,0.9,1.1,1.8C101.1,98.4,100.7,97.8,100.6,97z"/>
		<path class="st3" d="M96.6,124.9c0.4-0.1,0.9-1,1.2-0.2c0.2,0.5-0.7,0.5-1.2,0.7C96.4,125.2,96.4,125.1,96.6,124.9z"/>
		<path class="st3" d="M96.6,124.9c0,0.2,0,0.3,0,0.5c-0.3,0.2-0.7,0.3-1,0.5c-0.1-0.1-0.3-0.3-0.4-0.4
			C95.6,125.2,96.1,125.1,96.6,124.9z"/>
		<path class="st3" d="M90.8,126.8c0-0.1,0-0.2,0-0.3c0.5,0,0.9-0.1,1.4-0.1c0.4-0.2,0.4,0,0.4,0.3C92,126.8,91.4,126.8,90.8,126.8z
			"/>
		<path class="st3" d="M77.3,123.5c-0.7,0.2-1.1-0.1-1-0.5c0.1-0.7,0.5-0.1,0.7,0C77.1,123.1,77.1,123.3,77.3,123.5z"/>
		<path class="st5" d="M103.9,101.4c-0.1,0.2-0.3,0.4-0.4,0.5c-0.2-0.4-0.4-0.8-0.6-1.3c0.5-0.2,0.7,0.2,1,0.4
			C103.9,101.2,103.9,101.3,103.9,101.4z"/>
		<path class="st3" d="M92.6,126.7c-0.1-0.1-0.3-0.2-0.4-0.3c0.5-0.3,1-0.4,1.5-0.4c0,0.1,0,0.3,0,0.4
			C93.3,126.5,93,126.6,92.6,126.7z"/>
		<path class="st2" d="M62.7,64.1c1.4-3.2,2.7-6.4,4-9.3c0.1,1.3,0.2,3,0.5,4.6c0.3,1.5,0.7,2.9,1.1,4.4c0.2,0,0.3-0.1,0.5-0.1
			c0-0.3,0-0.6-0.1-0.9c-1.5-5.7-1.4-11.5-0.3-17.3c0.5-2.6,0.7-5.3,1-8h-0.1C67.1,46.4,64.9,55.2,62.7,64.1
			c-0.2-0.7-0.6-1.5-0.7-2.2c-0.3-5.6,0.5-11.1,1.8-16.5c0.4-1.8,0.7-3.6,1.1-5.4c-3,6-4.8,22.4-2.6,26
			C62.4,65.2,62.6,64.7,62.7,64.1z"/>
		<path class="st2" d="M139.1,125c1.3,1.9,3.4,2.5,5.5,3C142.7,126.9,140.9,126,139.1,125c-0.4-0.5-0.7-1.1-1.1-1.6
			c-2.8-3-3.5-6.7-3.2-10.6c0.3-4.8,2.2-8.9,5.2-12.5c1.6-1.9,3.6-3.7,5.8-4.8c3.5-1.9,7.5-2.1,11.5-1.7c3.1,0.3,6.3,0.8,8.5-0.8
			c-1.9,0.1-4.4,0.7-6.8,0.4c-8.4-1.1-15.8,1.1-22.4,6.4c-1.1,0.9-2,2-3,3c0.1,0.1,0.2,0.2,0.3,0.3c2-1.6,4-3.2,6-4.8
			c0.2,0.5,0.2,0.6,0.1,0.7c-0.3,0.4-0.7,0.9-1,1.3c-3.3,4.7-5.3,9.8-5,15.6C134.3,119.7,135.7,122.9,139.1,125z"/>
		<path class="st2" d="M173,63.1c-0.2,0-0.3,0-0.5,0c-1.7-3.7-2-7.6-2.4-11.6c-0.3-4-0.5-7.9-0.7-12.2c-1,4.8-0.6,9.3,0.1,13.8
			c0.5,3.3,1.2,6.5,2,9.7c0.2,1,1,1.9,1.7,3.1c0.4-2.9,0.7-5.2,1.1-7.5c0.7,2,1,4,1.5,5.9c0.5,1.8,1.1,3.6,1.7,5.4l0.1-0.1
			c-1.3-7.9-2.5-15.7-3.8-23.7C173.5,51.8,173.3,57.4,173,63.1z"/>
		<path class="st2" d="M72.4,57.3c0.4-1,0.9-2.4,1.5-3.8c1.1,2.7,2.2,5.3,3.2,7.9c0.2-0.1,0.4-0.2,0.6-0.3c-0.3-0.8-0.7-1.7-1-2.5
			c-1.6-3.6-2.5-7.3-1.9-11.3c0.4-2.8,0.7-5.6,0.9-8.5c0.1-1.9,0-3.8,0-5.7c-0.2,0-0.4,0-0.6,0c-3.2,8.6-4.9,17.4-4.4,26.6
			c0.5-7.1,1.3-14.2,4-20.9C73.9,45,73.1,51.3,72.4,57.3z"/>
		<path class="st2" d="M167.2,57.3c-2.4-6.9-1.6-13.9-1.4-20.9c-1.9,8.6-1.6,17.1,1.7,25.4c0.2,0,0.4,0,0.6,0c0-8.2,0-16.3,0-24.2
			C166.8,43.9,167.2,50.6,167.2,57.3z"/>
		<path class="st2" d="M91.6,31.3c-1.3,6.6-2.5,13.3-5,19.6c-0.5-6.9,1-13.5,2.1-20.3c-0.9,3.2-1.9,6.4-2.2,9.7
			c-0.6,5.4-0.8,10.8-1.2,15.7c0.1-0.1,0.7-0.4,1-0.6C88.9,47.7,91.6,39.8,91.6,31.3z"/>
		<path class="st2" d="M159.1,60.8c-0.1-1.3-0.7-2.8-0.2-3.8c1.4-2.7,1.7-5.5,1.8-8.4c0.1-3.4,0-6.7,0-10.1c-0.1,0-0.2,0-0.3,0
			c-0.5,5.7-1,11.4-1.5,17c-0.3,0-0.5,0-0.8,0c-0.1-2-0.4-3.9-0.4-5.9c0-1.9,0.2-3.9,0.2-5.8c0-1.9,0-3.8,0-5.7
			C156.6,45.7,155.8,53.3,159.1,60.8z"/>
		<path class="st2" d="M148,33.5c-0.6,6-1.4,11.9-3.6,17.6c-0.5-3.4-0.7-6.7-0.7-10.1c-0.1-3.3,0-6.6,0-8.7
			c-1.7,7.2-1.1,20.3,1.2,22.6c0.1-1,0-2.3,0.5-3.3C147.9,45.7,148.4,39.7,148,33.5z"/>
		<path class="st2" d="M127.7,53.8c3.2-7,4.8-14.1,5.4-21.5c-1.6,6.3-3.2,12.5-4.8,18.8c-0.2,0-0.4-0.1-0.6-0.1
			c-1.6-6.8-0.3-13.5,0.2-20.2C126.3,38.3,125.1,45.9,127.7,53.8z"/>
		<path class="st2" d="M68.2,114.6c0.2,0,0.4-0.1,0.7-0.1c-0.9-4-1.5-8-2.7-12c-1.9-6.7-3.6-13.4-3.7-20.4c-0.1-4-0.3-7.9-0.5-11.9
			c-0.7,8.9-0.9,17.8,1.7,26.6c1.3,4.2,2.5,8.5,3.6,12.7C67.7,111.2,67.9,112.9,68.2,114.6z"/>
		<path class="st2" d="M125.3,31.1c-1.7,8.3-2.4,16.8-7.3,24c3.7-2.9,4.1-7.3,5.9-11.5c0.2,2.6,0.2,4.9,0.5,7.2
			c0.7,4.4,1.1,5.2,2.5,6C123.1,48.5,125.1,39.7,125.3,31.1z"/>
		<path class="st2" d="M69.1,92.3c2.3,1.7,4.9,1.6,7.5,0.6c3.5-1.3,6.9-2.9,10.8-2.9c4.1-0.1,8.2,0.3,11.2,3.6c0.8,0.9,1.5,1.9,3,1
			c-0.4-0.4-0.8-0.8-1.2-1.1c-6.2-5.1-13.1-5.4-20.3-2.6C76.5,92.3,73,93.2,69.1,92.3z"/>
		<path class="st2" d="M94,56c-2.7-8.8,1.1-17.5,0.1-26.2c-0.7,9-2.2,17.9-6.3,26.1c0.2,0.1,0.5,0.2,0.7,0.3c1.3-3,2.5-6.1,3.9-9.3
			C92.8,50.1,92.4,53.3,94,56z"/>
		<path class="st2" d="M60.8,74c-4.3-10.8-4.5-21.6-0.3-32.5C55.7,48.9,55.3,66.5,60.8,74z"/>
		<path class="st2" d="M172.7,109.1c2.6-10,7.3-19.6,6.7-30.4C179,89.3,174.3,98.9,172.7,109.1z"/>
		<path class="st2" d="M136,25.3c-2.5,5.7-2.2,26.1,1.1,29c-0.6-4.4-1.7-9.2-1.9-14C135,35.4,135.7,30.4,136,25.3z"/>
		<path class="st2" d="M153.9,38.7c-0.9,6.8-3.1,13.1-6.5,19c0.9-1,1.8-1.9,2.5-3s1.3-2.3,2.1-3.7c0.9,7,0.9,7,2.5,8.5
			C151.3,52.4,153.6,45.6,153.9,38.7z"/>
		<path class="st2" d="M115.9,55.1c3.9-7.7,4.8-15.8,4-24.3c-0.4,4-0.6,8.2-1.2,12.2C118.1,47,116.9,51,115.9,55.1z"/>
		<path class="st2" d="M146.9,55.6c3.8-4,6.5-15.7,4.6-19.6C151.3,42.9,149.7,49.3,146.9,55.6z"/>
		<path class="st2" d="M142,27.3c-0.4,7.8-0.8,15.7-3.4,23.2C142.5,43.2,142.5,35.3,142,27.3z"/>
		<path class="st2" d="M70.8,101c-3,9.9,0.3,17.6,4.9,21.2c-6.2-6.9-6.8-14.7-3.3-23c-1.6,0.7-3.1,1.4-4.6,2c0,0.1,0,0.2,0.1,0.3
			C68.9,101.3,69.8,101.1,70.8,101z"/>
		<path class="st2" d="M77,57.5c-1.6-8.6,0.1-16.8,2.4-25.2C76.3,35.7,74.5,52.7,77,57.5z"/>
		<path class="st2" d="M163.8,35.8c-2.6,5.3-2.5,22.5-0.1,25.4C162.2,52.8,162.7,44.4,163.8,35.8z"/>
		<path class="st2" d="M98.5,52.1c2.7-7,3-14.7,2.9-22.4C100.4,37.3,99.4,44.8,98.5,52.1z"/>
		<path class="st2" d="M156.2,39c-0.2,0.3-0.4,0.4-0.4,0.6c-1.2,5.8-2.2,11.7-0.4,17.5c0.3,0.9,0.8,1.6,1.2,2.4
			c0.2-0.1,0.3-0.1,0.5-0.2C153.9,52.7,155.9,45.9,156.2,39z"/>
		<path class="st2" d="M81.4,60c2.2-7.3,2.8-15.1,2.5-23.1C83.1,44.7,82.2,52.5,81.4,60z"/>
		<path class="st2" d="M99.4,123.3c6.2-3.8,8.5-19,3.7-22.5C106.2,108.9,106,116.5,99.4,123.3z"/>
		<path class="st2" d="M117.1,33.5c-0.8,6.3-1.6,12.6-2.4,19.1C117.1,46.3,117,39.9,117.1,33.5z"/>
		<path class="st2" d="M169.4,105.2c-0.2,10.4-0.9,12.9-5.2,18.4C168.9,120.2,171.2,112.4,169.4,105.2z"/>
		<path class="st2" d="M97.5,70.2c-4.3-2.5-13.6-0.8-14.5,2.5C88.8,69.8,92.2,69.2,97.5,70.2z"/>
		<path class="st2" d="M83.2,34.7c-0.2,0-0.4,0-0.6-0.1c-0.6,6.2-1.2,12.3-1.8,18.5c0.2,0,0.4,0,0.6,0.1C82,47,82.6,40.8,83.2,34.7z
			"/>
		<path class="st2" d="M177.5,58.3c-0.2,0-0.4,0-0.5,0c0.7,4.5,1.3,9.1,2,13.6c0.3,0,0.5-0.1,0.8-0.1
			C179,67.4,178.3,62.8,177.5,58.3z"/>
		<path class="st2" d="M147.2,72.1c4.1-1.4,8.1-1.2,12.1,0.4C155.4,69.8,151.3,70.1,147.2,72.1z"/>
		<path class="st2" d="M119.3,119.7c-0.6,1-1.3,1.6-1.4,2.3c-0.1,0.6,0.3,1.2,0.5,1.9c0.1-0.1,0.2-0.1,0.3-0.2
			C118.9,122.6,119.1,121.4,119.3,119.7z"/>
		<path d="M98.4,55c0.7-2.4,1.7-4.8,2.1-7.3c1-5.8,1.8-11.6,2.5-16.6c0,0.9,0,2.7,0,4.5c0.1,0,0.2,0,0.2,0.1
			c0.2-0.6,0.4-1.1,0.8-2.1c-0.2,2.5-0.3,4.5-0.4,6.6c-0.1,2.2-0.3,4.3-0.3,6.5c0,2.1,0.3,4.2,0.5,6.4c2.2-2.2,3-6.7,4.4-20.1
			c0.4,5.7,0.7,11.5,1.1,17.7c2.2-6.2,2.7-12.3,2.8-18.4c0.1,0.7,0.2,1.4,0.3,2.1c0.1,0.7,0.1,1.4,0.3,2.2c0.3-1.1,0.5-2.3,0.8-3.4
			c0.1,0,0.2,0,0.3,0c-0.2,2.4-0.5,4.9-0.5,7.3c-0.1,2.5-0.1,5.1,0.1,7.6c0.1,2.5,0.4,5.1,0.7,7.6c-0.2,0-0.4,0.1-0.6,0.1
			c-0.4-3.5-0.8-7-1.3-10.4c-1.3,3.1-2.6,6.2-3.8,9.3c-0.1,0-0.2-0.1-0.3-0.1c0-3.6,0-7.1,0-9.6c-1,2.4-2.4,5.8-3.6,9.3
			c-0.3,1-0.2,2.1-0.3,3c-1.6-1.5-1.8-2-2.6-8.5C100.4,51,99.4,53,98.4,55L98.4,55z M102.5,43c0.1,0,0.2,0,0.2,0c0,4,0,8,0,12
			c0.2,0,0.3,0,0.5,0C103,51,102.8,47,102.5,43z"/>
		<path d="M173,63.1c0.3-5.7,0.5-11.3,0.8-17.2c1.3,8,2.5,15.9,3.8,23.7l-0.1,0.1c-0.6-1.8-1.2-3.6-1.7-5.4
			c-0.5-1.9-0.8-3.9-1.5-5.9c-0.3,2.3-0.7,4.7-1.1,7.5c-0.7-1.2-1.5-2.1-1.7-3.1c-0.8-3.2-1.6-6.4-2-9.7c-0.6-4.5-1.1-9-0.1-13.8
			c0.2,4.2,0.4,8.2,0.7,12.2c0.3,3.9,0.6,7.9,2.4,11.6C172.7,63.1,172.9,63.1,173,63.1z"/>
		<path d="M72.4,57.3c0.7-6,1.4-12.2,2.1-18.5c-2.8,6.7-3.5,13.8-4,20.9c-0.5-9.2,1.2-18,4.4-26.6c0.2,0,0.4,0,0.6,0
			c0,1.9,0.1,3.8,0,5.7c-0.2,2.8-0.5,5.7-0.9,8.5c-0.6,4,0.4,7.7,1.9,11.3c0.4,0.8,0.7,1.7,1,2.5c-0.2,0.1-0.4,0.2-0.6,0.3
			c-1.1-2.6-2.1-5.3-3.2-7.9C73.4,54.9,72.8,56.2,72.4,57.3z"/>
		<path d="M139.1,125c-3.4-2.1-4.8-5.3-5-9.1c-0.4-5.8,1.7-10.9,5-15.6c0.3-0.4,0.7-0.9,1-1.3c0.1-0.1,0.1-0.2-0.1-0.7
			c-2,1.6-4,3.2-6,4.8c-0.1-0.1-0.2-0.2-0.3-0.3c1-1,1.9-2.1,3-3c6.6-5.2,14-7.4,22.4-6.4c2.4,0.3,4.9-0.2,6.8-0.4
			c-2.2,1.6-5.4,1.1-8.5,0.8c-4-0.4-8-0.2-11.5,1.7c-2.2,1.1-4.1,2.9-5.8,4.8c-3.1,3.5-5,7.7-5.2,12.5c-0.2,3.9,0.5,7.6,3.2,10.6
			C138.4,123.8,138.7,124.4,139.1,125L139.1,125z"/>
		<path d="M167.2,57.3c-0.1-6.7-0.5-13.5,0.9-19.8c0,7.9,0,16,0,24.2c-0.2,0-0.4,0-0.6,0c-3.4-8.2-3.6-16.7-1.7-25.4
			C165.7,43.4,164.8,50.5,167.2,57.3z"/>
		<path d="M91.6,31.3c0,8.5-2.7,16.4-5.4,24.2c-0.3,0.2-0.9,0.5-1,0.6c0.4-5,0.6-10.4,1.2-15.7c0.4-3.3,1.3-6.5,2.2-9.7
			C87.5,37.4,86,44.1,86.5,51C89.2,44.6,90.3,37.9,91.6,31.3z"/>
		<path d="M159.1,60.8c-3.3-7.5-2.4-15.1-1.1-22.8c0,1.9,0,3.8,0,5.7s-0.2,3.9-0.2,5.8c0,2,0.3,3.9,0.4,5.9c0.3,0,0.5,0,0.8,0
			c0.5-5.7,1-11.4,1.5-17c0.1,0,0.2,0,0.3,0c0,3.4,0.1,6.7,0,10.1c-0.1,2.9-0.4,5.7-1.8,8.4C158.4,58,159,59.5,159.1,60.8z"/>
		<path d="M148,33.5c0.4,6.2-0.1,12.3-2.7,18.1c-0.5,1-0.3,2.3-0.5,3.3c-2.3-2.3-2.9-15.4-1.2-22.6c0,2.1-0.1,5.4,0,8.7
			c0.1,3.4,0.2,6.7,0.7,10.1C146.5,45.3,147.4,39.4,148,33.5z"/>
		<path d="M127.7,53.8c-2.7-7.9-1.5-15.4,0.2-23c-0.6,6.7-1.8,13.5-0.2,20.2c0.2,0,0.4,0.1,0.6,0.1c1.6-6.3,3.2-12.5,4.8-18.8
			C132.5,39.7,130.9,46.7,127.7,53.8z"/>
		<path d="M68.2,114.6c-0.3-1.7-0.5-3.5-0.9-5.1c-1.1-4.3-2.3-8.5-3.6-12.7c-2.6-8.7-2.4-17.6-1.7-26.6c0.2,4,0.5,7.9,0.5,11.9
			c0.1,7,1.8,13.7,3.7,20.4c1.1,3.9,1.8,8,2.7,12C68.7,114.5,68.5,114.6,68.2,114.6z"/>
		<path d="M62.7,64.1c2.2-8.9,4.4-17.8,6.6-26.7h0.1c-0.3,2.7-0.5,5.4-1,8c-1.1,5.8-1.2,11.5,0.3,17.3c0.1,0.3,0.1,0.6,0.1,0.9
			c-0.2,0-0.3,0.1-0.5,0.1c-0.4-1.5-0.9-2.9-1.1-4.4c-0.3-1.6-0.4-3.2-0.5-4.6C65.4,57.7,64.1,60.9,62.7,64.1L62.7,64.1z"/>
		<path d="M125.3,31.1c-0.2,8.7-2.2,17.4,1.6,25.8c-1.4-0.8-1.8-1.6-2.5-6c-0.4-2.3-0.4-4.6-0.5-7.2c-1.7,4.1-2.2,8.6-5.9,11.5
			C123,47.8,123.6,39.3,125.3,31.1z"/>
		<path d="M69.1,92.3c3.9,0.9,7.4,0,11-1.5c7.2-2.8,14.1-2.5,20.3,2.6c0.4,0.3,0.8,0.7,1.2,1.1c-1.5,1-2.1-0.1-3-1
			c-3.1-3.3-7.1-3.6-11.2-3.6c-3.9,0.1-7.3,1.7-10.8,2.9C74,93.9,71.5,94,69.1,92.3z"/>
		<path d="M94,56c-1.6-2.8-1.3-5.9-1.6-9.2c-1.4,3.3-2.6,6.3-3.9,9.3c-0.2-0.1-0.5-0.2-0.7-0.3c4.1-8.2,5.5-17.1,6.3-26.1
			C95.1,38.6,91.4,47.3,94,56z"/>
		<path d="M60.8,74c-5.5-7.5-5.2-25.1-0.3-32.5C56.4,52.4,56.6,63.2,60.8,74z"/>
		<path d="M172.7,109.1c1.6-10.3,6.3-19.8,6.7-30.4C180,89.5,175.3,99.1,172.7,109.1z"/>
		<path d="M136,25.3c-0.3,5.1-1,10-0.8,15c0.2,4.8,1.2,9.6,1.9,14C133.8,51.4,133.4,31,136,25.3z"/>
		<path d="M153.9,38.7c-0.3,6.8-2.6,13.7,0.5,20.8c-1.6-1.5-1.6-1.5-2.5-8.5c-0.8,1.4-1.4,2.6-2.1,3.7c-0.7,1.1-1.5,2.1-2.5,3
			C150.9,51.8,153,45.5,153.9,38.7z"/>
		<path d="M98.4,55c-0.3,0.7-0.6,1.3-1,2.3c-3.3-8.8-3-17.6-1.7-26.3c0,4.7-0.2,9.5,0.1,14.2c0.2,3.2,1,6.4,1.6,9.5
			C97.4,54.9,98.1,54.9,98.4,55L98.4,55z"/>
		<path d="M115.9,55.1c1-4,2.1-8,2.8-12.1c0.7-4,0.8-8.1,1.2-12.2C120.7,39.2,119.8,47.4,115.9,55.1z"/>
		<path d="M62.7,64.1c-0.1,0.6-0.3,1.1-0.4,1.8c-2.2-3.6-0.4-20,2.6-26c-0.4,1.8-0.7,3.6-1.1,5.4c-1.2,5.4-2.1,10.9-1.8,16.5
			C62.1,62.6,62.5,63.4,62.7,64.1L62.7,64.1z"/>
		<path d="M146.9,55.6c2.7-6.2,4.4-12.7,4.6-19.6C153.4,39.8,150.7,51.6,146.9,55.6z"/>
		<path d="M142,27.3c0.6,8,0.5,15.9-3.4,23.2C141.2,43,141.5,35.1,142,27.3z"/>
		<path d="M70.8,101c-1.1,0.2-2,0.3-2.9,0.4c0-0.1,0-0.2-0.1-0.3c1.5-0.6,2.9-1.3,4.6-2c-3.5,8.3-2.9,16.1,3.3,23
			C71.1,118.6,67.9,110.9,70.8,101z"/>
		<path d="M77,57.5c-2.6-4.8-0.7-21.8,2.4-25.2C77.2,40.7,75.5,48.9,77,57.5z"/>
		<path d="M163.8,35.8c-1.1,8.6-1.6,17-0.1,25.4C161.3,58.3,161.2,41.1,163.8,35.8z"/>
		<path d="M98.5,52.1c0.9-7.3,1.9-14.8,2.9-22.4C101.4,37.4,101.2,45.1,98.5,52.1z"/>
		<path d="M156.2,39c-0.2,6.9-2.2,13.8,0.8,20.4c-0.2,0.1-0.3,0.1-0.5,0.2c-0.4-0.8-0.9-1.6-1.2-2.4c-1.8-5.9-0.8-11.7,0.4-17.5
			C155.8,39.4,155.9,39.3,156.2,39z"/>
		<path d="M81.4,60c0.8-7.5,1.7-15.3,2.5-23.1C84.3,44.8,83.6,52.7,81.4,60z"/>
		<path d="M99.4,123.3c6.6-6.7,6.8-14.4,3.7-22.5C107.9,104.3,105.6,119.4,99.4,123.3z"/>
		<path d="M117.1,33.5c-0.1,6.4,0,12.8-2.4,19.1C115.5,46.1,116.3,39.8,117.1,33.5z"/>
		<path d="M169.4,105.2c1.9,7.2-0.5,15-5.2,18.4C168.5,118.1,169.2,115.6,169.4,105.2z"/>
		<path d="M97.5,70.2c-5.2-1-8.7-0.4-14.5,2.5C83.9,69.5,93.2,67.8,97.5,70.2z"/>
		<path d="M83.2,34.7c-0.6,6.2-1.1,12.3-1.7,18.5c-0.2,0-0.4,0-0.6-0.1c0.6-6.2,1.2-12.3,1.8-18.5C82.8,34.6,83,34.6,83.2,34.7z"/>
		<path d="M177.5,58.3c0.7,4.5,1.5,9,2.2,13.6c-0.3,0-0.5,0.1-0.8,0.1c-0.7-4.5-1.3-9.1-2-13.6C177.2,58.3,177.4,58.3,177.5,58.3z"
			/>
		<path d="M147.2,72.1c4.1-1.9,8.1-2.2,12.1,0.4C155.3,70.8,151.3,70.7,147.2,72.1z"/>
		<path d="M119.3,119.7c-0.3,1.7-0.4,2.9-0.6,4c-0.1,0.1-0.2,0.1-0.3,0.2c-0.2-0.6-0.7-1.3-0.5-1.9
			C118.1,121.3,118.7,120.7,119.3,119.7z"/>
		<path d="M139.1,125c1.8,1,3.7,1.9,5.5,2.9C142.5,127.4,140.4,126.8,139.1,125L139.1,125z"/>
		<path class="st8" d="M87.2,133.8c-1.4,1.3-2.8,2.5-4.1,3.8c-0.6,0.7-1.3,1.3-1.8,2.1c-0.6,0.7-1.1,1.5-1.6,2.3
			c0.2-0.9,0.6-1.8,1.1-2.6s1.1-1.5,1.8-2.2s1.4-1.3,2.2-1.8C85.5,134.7,86.3,134.2,87.2,133.8z"/>
		<path class="st8" d="M90.4,133.8c-0.8,0.6-1.5,1.1-2.2,1.8c-0.7,0.6-1.4,1.3-2,1.9c-0.6,0.7-1.1,1.4-1.7,2.1
			c-0.6,0.7-1.1,1.5-1.6,2.2h-0.1c0.2-0.9,0.6-1.8,1.1-2.6s1.2-1.5,1.9-2.1c0.7-0.6,1.4-1.3,2.2-1.8
			C88.7,134.8,89.5,134.2,90.4,133.8L90.4,133.8z"/>
		<path class="st8" d="M92.1,135.1c-0.6,0.4-1.1,0.9-1.6,1.3c-0.5,0.5-1,0.9-1.4,1.4s-0.9,1-1.3,1.6s-0.8,1.1-1.2,1.7
			c0.1-0.7,0.4-1.4,0.7-2c0.3-0.6,0.7-1.2,1.2-1.8c0.5-0.5,1-1,1.6-1.4C90.7,135.5,91.4,135.2,92.1,135.1z"/>
		<path class="st8" d="M83,135.3c-0.5,0.5-1,0.9-1.5,1.4s-0.9,1-1.3,1.6c-0.4,0.5-0.8,1.1-1.1,1.7c-0.4,0.6-0.7,1.2-1,1.8
			c0.1-0.7,0.2-1.4,0.5-2.1c0.3-0.7,0.6-1.3,1.1-1.9c0.4-0.6,1-1.1,1.5-1.5C81.7,135.9,82.3,135.5,83,135.3z"/>
		<path class="st8" d="M156.8,133.8c-0.7,0.6-1.3,1.3-2,2c-0.6,0.7-1.2,1.4-1.8,2.2c-0.5,0.8-1,1.6-1.5,2.3
			c-0.5,0.8-0.9,1.6-1.4,2.4H150c0.1-1,0.4-1.9,0.8-2.8c0.4-0.9,1-1.6,1.6-2.3s1.3-1.4,2-2.1C155.3,134.9,156,134.3,156.8,133.8
			L156.8,133.8z"/>
		<path class="st8" d="M160.2,134.2c-0.8,0.6-1.5,1.1-2.2,1.8c-0.7,0.6-1.4,1.3-2,1.9c-0.6,0.7-1.1,1.4-1.7,2.1
			c-0.6,0.7-1.1,1.5-1.6,2.2h-0.1c0.2-0.9,0.6-1.8,1.1-2.6s1.2-1.5,1.9-2.1s1.4-1.3,2.2-1.8C158.6,135.1,159.4,134.6,160.2,134.2
			L160.2,134.2z"/>
		<path class="st8" d="M160.3,135.8c-0.3,0.5-0.7,0.9-1,1.3c-0.4,0.4-0.7,0.8-1.1,1.2l-1.1,1.2c-0.3,0.4-0.7,0.8-0.9,1.3
			c0-0.6,0.2-1.1,0.5-1.6s0.6-0.9,1-1.3c0.4-0.4,0.8-0.8,1.2-1.1C159.3,136.4,159.8,136.1,160.3,135.8z"/>
		<g>
			<path d="M182.3,69c0,0,27.4-18,53.9,4.6c-6.4,0-8.6,1.4-14.6,2.8c11.4,5.5,16,14.2,19.1,21.6c-14-4.1-22.1-10-27.4-10.4
				c6,2.6,19.2,14.7,19.5,24.8c-9.6-4.1-23.3-8.3-23.3-8.3c10.5,11.8,3,31.1,0,32.4c-2-12.2-16.4-31.5-18.9-28.6
				C188,111,182.3,69,182.3,69z"/>
			<path d="M57,64.8c0,0-27.8-16.9-53.4,6.5c6.4-0.2,7.6,5.1,13.6,6.3C6,83.5,2.8,92.3,0,99.8C13.8,95.2,21.7,89,26.9,88.5
				c-5.8,2.8-18.6,15.3-18.5,25.4c9.4-4.4,22.9-9.1,22.9-9.1c-10,12.1-1.9,31.1,1.1,32.2c1.5-12.2,15.2-31.9,17.8-29.1
				S57,64.8,57,64.8z"/>
			<path d="M49.7,33.9c3.7-9.1,31.6-46.1,73.8-27.9c7.5-4,39.5-17,63.7,15c14.5,22.8,17.3,34.1,17.4,41.4
				c1.7,85.6-37.8,91.8-37.8,91.8c6.4-7.3,10.7-10.8,6.8-30.2c-1.8-14.5,1-23.3,5-37.2c1.8-11.5-0.3-23.5-1.7-28.5
				c0.2,7.5,0.5,11.5,0.5,11.5s-2.8-10.2-2.8-13.2s-1.7,8.2-1.7,8.8c0,0.7-2.8-10.7-3.5-15.3s-1.8,11.3-1.5,12.2
				c0.3,0.8-3.8-7.3-4-12.7s-1.2,12.2-0.5,13s-3.3-8.3-3.3-12.7s-0.2,9.8,0,11s-5.2-1.7-5.3-5.5c-0.2-3.8-0.7,4-0.5,4.5
				s-3.5-5.2-3-8.2s-1.2,5.3-3.7,6.2c0.3-2.2,1.5-5.7,0.7-8.5c-2.3,1.3-3.7,3.7-3.5,5.5s-3-7-3-10.7s-1.8,6.5-4.8,9
				s-2.7-5.8-3.7-8.5c-4.8,8.7-6.2,11.2-6.2,12.5s-3.8-6.2-4-9.5s-2,7.2-7.2,9.5c-2-2-2.3-12-2.8-11.5c-3,8-5.2,11.5-5.2,11.5
				s0.8-7.7-0.3-9.5c-1.2-1.8-3.3,5.7-3.3,8.8c-1.5-2.8-2-4.3-2.3-7.5c-3.5,8.3-4.5,8.2-4.5,9.7c-2.2-5.8-2.8-6-3.2-9.5
				c0.5,8.2-0.2,8.7-0.2,8.7c-1.3-4.2-1.3-5.7-2.2-6.3c-4,4.8-7.2,7.3-7.2,7.3s0.8-0.7,0.2-6.2c-1.8,5.7-2.8,9-2.8,9
				s-2.3,0.3-4.7-5.2C76.1,63,76.1,63,76.1,63s-2.7-8-3.2-10.5c-4.8,15.2-5,13.5-5,13.5s-0.2-5.8-1-8.8c-2,3.3-5,8.3-5.2,11.3
				s-1.8,10.6,2.7,27.7s3.2,17.5,1.3,30.3c-1.8,12.8,7.6,25.3,21.4,32.4C87.1,158.9,8.2,135.4,49.7,33.9z"/>
		</g>
	</g>
</g>
<g id="圖層_3">
</g>
</svg>
