<?xml version="1.0" encoding="utf-8"?>
<!-- Generator: Adobe Illustrator 22.0.1, SVG Export Plug-In . SVG Version: 6.00 Build 0)  -->
<svg version="1.1" xmlns="http://www.w3.org/2000/svg" xmlns:xlink="http://www.w3.org/1999/xlink" x="0px" y="0px"
	 viewBox="0 0 21.8 27" style="enable-background:new 0 0 21.8 27;" xml:space="preserve">
<style type="text/css">
	.st0{display:none;}
	.st1{fill:#FFE5C2;}
	.st2{fill:#FFFFFF;}
	.st3{fill:#333333;}
	.st4{fill:#616161;}
	.st5{fill:#4D4D4D;}
	.st6{fill:#373737;}
	.st7{fill:#575757;}
	.st8{fill:#EF8F8F;}
	.st9{fill:#ABABAB;}
	.st10{fill:#9A9A9A;}
	.st11{fill:#4B4B4B;}
	.st12{fill:#515151;}
	.st13{fill:#989898;}
	.st14{fill:#585858;}
	.st15{fill:#797979;}
	.st16{fill:#6E6E6E;}
	.st17{fill:#8E8E8E;}
	.st18{fill:#BABABA;}
	.st19{fill:#7F7F7F;}
	.st20{fill:#949494;}
	.st21{fill:#AEAEAE;}
	.st22{fill:#C5C5C5;}
	.st23{fill:#7C7C7C;}
	.st24{fill:#919191;}
	.st25{fill:#A2A2A2;}
	.st26{fill:#A7A7A7;}
	.st27{fill:#8C8C8C;}
	.st28{fill:#8D8D8D;}
	.st29{fill:#6C6C6C;}
	.st30{fill:#5F5F5F;}
	.st31{fill:#9B9B9B;}
	.st32{fill:#D1D1D1;}
	.st33{fill:#A9A9A9;}
	.st34{fill:#848484;}
	.st35{fill:#5E5E5E;}
	.st36{fill:#7B7B7B;}
	.st37{fill:#262626;}
	.st38{fill:#5D5D5D;}
	.st39{fill:#FBFBFB;}
	.st40{fill:#696969;}
	.st41{fill:#6B6B6B;}
	.st42{fill:#0F0F0F;}
	.st43{fill:#5B5B5B;}
	.st44{fill:#353535;}
	.st45{fill:#272727;}
	.st46{fill:#383838;}
	.st47{fill:#A0A0A0;}
	.st48{fill:#CFCFCF;}
	.st49{fill:#B3B3B3;}
	.st50{fill:#D0D0D0;}
	.st51{fill:#636363;}
	.st52{fill:#E5E5E5;}
	.st53{fill:#343434;}
	.st54{fill:#545454;}
	.st55{fill:#525252;}
	.st56{fill:#B4B4B4;}
	.st57{fill:#D5D5D5;}
	.st58{fill:#707070;}
	.st59{fill:#F1F1F1;}
	.st60{fill:#767676;}
	.st61{fill:#E2E2E2;}
	.st62{fill:#AAAAAA;}
	.st63{fill:#4C4C4C;}
	.st64{fill:#7A7A7A;}
	.st65{fill:#A3A3A3;}
	.st66{fill:#C2C2C2;}
	.st67{fill:#808080;}
	.st68{fill:#9E9E9E;}
	.st69{fill:#2D2D2D;}
	.st70{fill:#787878;}
	.st71{fill:#8F8F8F;}
	.st72{fill:#5C5C5C;}
	.st73{fill:#303030;}
	.st74{fill:#8A8A8A;}
	.st75{fill:#E3E3E3;}
	.st76{fill:#9F9F9F;}
	.st77{fill:#898989;}
	.st78{fill:#B7B7B7;}
	.st79{fill:#6F6F6F;}
	.st80{fill:#999999;}
	.st81{fill:#6D6D6D;}
	.st82{fill:#909090;}
	.st83{fill:#BFBFBF;}
	.st84{fill:#B2B2B2;}
	.st85{fill:#3D3D3D;}
	.st86{fill:#1D1D1D;}
	.st87{fill:#777777;}
	.st88{fill:#606060;}
	.st89{fill:#6A6A6A;}
	.st90{fill:#AFAFAF;}
	.st91{fill:#727272;}
	.st92{fill:#717171;}
	.st93{fill:#737373;}
	.st94{fill:#F9F9F9;}
	.st95{fill:#ADADAD;}
	.st96{fill:#7E7E7E;}
	.st97{fill:#555555;}
	.st98{fill:#818181;}
	.st99{fill:#8B8B8B;}
	.st100{fill:#A8A8A8;}
	.st101{fill:#B9B9B9;}
	.st102{fill:#EBEBEB;}
	.st103{fill:#B6B6B6;}
	.st104{fill:#646464;}
	.st105{fill:#D6D6D6;}
	.st106{fill:#171717;}
	.st107{fill:#202020;}
	.st108{fill:#464646;}
	.st109{fill:#888888;}
	.st110{fill:#A6A6A6;}
	.st111{fill:#BEBEBE;}
	.st112{fill:#0C0C0C;}
	.st113{fill:#1A1A1A;}
	.st114{fill:#2E2E2E;}
	.st115{fill:#676767;}
	.st116{fill:#878787;}
	.st117{fill:#DBDBDB;}
	.st118{fill:#4F4F4F;}
	.st119{fill:#9C9C9C;}
	.st120{fill:#3B3B3B;}
	.st121{fill:#565656;}
	.st122{fill:#404040;}
	.st123{fill:#E6E6E6;}
	.st124{fill:#DFDFDF;}
	.st125{fill:#0E0E0E;}
	.st126{fill:#232323;}
	.st127{fill:#747474;}
	.st128{fill:#393939;}
	.st129{fill:#444444;}
	.st130{fill:#242424;}
	.st131{fill:#E7E7E7;}
	.st132{fill:#2B2B2B;}
</style>
<g id="圖層_2" class="st0">
</g>
<g id="圖層_1">
</g>
<g id="圖層_3">
	<g>
		<path class="st75" d="M19.6,10.1c-0.6-1.2,0.9-1.7,0.9-2.7C21.3,7.7,21,8.5,21.3,9c0.2,0.3,0.2,0.7,0.2,1.1c0.2,1,0.3,1.9,0.3,2.9
			c0,0.7,0,1.4,0,2.1c-0.2,1.2,0,2.5-1,3.3c-0.2-0.1,0-0.8-0.4-0.3c-0.3,0.4-0.3,1-0.8,1.2c-0.6-0.7-0.4-1.5-0.1-2.2
			c0.6-0.8,0.2-1.7,0.4-2.6c1-1.7-0.2-3.4,0.2-5.1v0.1C20,9.9,19.8,10.1,19.6,10.1z"/>
		<path class="st76" d="M0.3,16.7c-0.6-1.7-0.2-3.4-0.2-5.1c0.5-0.2,0.7,0.2,1,0.5c0.1,0.2,0.2,0.4,0.4,0.6c0.2,0.3,0.3,0.6,0.4,0.9
			c0.1,0.8-0.1,1.6,1,1.8C3.2,16.2,3.2,17,3,17.8c-1.2,1.8-1.2,0.1-1.6-0.5C1,16.9,0.7,16.9,0.3,16.7z"/>
		<path class="st77" d="M0.1,11.2C0.4,10.4,0,9.4,1.2,9c0.5-0.7,1.3-0.3,2-0.5c0.2,0,0.3,0.1,0.4,0.3c0.3,1,0.8,2,1.2,2.9
			c0.3,0.6-0.1,1-0.6,1.2C4,12.9,3.9,13,3.7,13c-0.5,0-0.8-0.3-1-0.7c-0.1-0.4-0.3-0.9-0.6-1.2c-0.2-0.2-0.4-0.3-0.7-0.2
			C1,11.1,0.6,11.4,0.1,11.2z"/>
		<path class="st71" d="M5.1,1.8C5.9,0.7,7.5,0.9,8.4,0c0.4,0.4,0.4,1,0.4,1.5c0,0.2,0,0.4,0,0.5c0,0.3-0.1,0.5-0.2,0.8
			C8.3,3.3,7.8,3.7,7.3,4c-0.5,0.1-1,0-1.4-0.3C5.6,3.5,5.5,3.2,5.3,2.9C5.1,2.6,5,2.3,5.1,1.8z"/>
		<path class="st78" d="M18.9,21.7c-0.7,1-1,2.3-2.4,2.6c-0.4-0.1-0.6-0.3-0.7-0.7c-0.1-0.5,0.6-1,0-1.6c0-0.2,0-0.3,0.1-0.5
			c0.5-1,1.4-1.3,2.4-1.4C19.1,20.4,18.5,21.3,18.9,21.7z"/>
		<path class="st79" d="M14.6,2.8c-1.1,0-1.6,1.1-2.4,1.6c-0.1,0.1-0.3,0.1-0.4,0.1c-0.1-0.1-0.3-0.2-0.4-0.3
			c-0.4-0.4-0.8-0.8-0.9-1.4c0-0.2,0-0.3,0.1-0.5c0.3-0.5,0.6-1,1.1-1.3c0.6-0.6,1-0.2,1.3,0.3s1,0.3,1.4,0.7
			C14.5,2.2,14.7,2.4,14.6,2.8z"/>
		<path class="st80" d="M16,23.6c0.1,0.3,0.3,0.5,0.4,0.8c-0.9,1.2-2,2.2-3.7,2.2c-0.3,0.1-0.5-0.1-0.6-0.4
			c-0.1-0.5,0.1-0.9,0.4-1.2c0.5-0.5,1.2,0,1.7-0.5c0.1-0.2,0.1-0.4,0.3-0.6c0.3-0.2,0.7-0.3,1.1-0.4C15.7,23.4,15.9,23.4,16,23.6z"
			/>
		<path class="st36" d="M10.6,2.5c0,0.1,0,0.2,0,0.3c0.2,0.4-0.1,0.5-0.3,0.6c-0.5,0.1-0.9-0.1-1-0.6c0.1-0.7-0.5-0.7-0.9-1
			c0-0.6,0-1.1,0-1.7c0.7,0,1.4,0,2.1-0.1C11.4,0.8,11,1.6,10.6,2.5z"/>
		<path class="st48" d="M12.4,26.2c0.1,0.1,0.3,0.3,0.4,0.4c-1.3,1.1-2.2-0.8-3.4-0.5c-0.4-0.3-1.2,0-1.3-0.8
			c-0.1-0.6,0-1.1,0.8-1.2c0.5,0,0.9,0.2,1.3,0.4c0.4,0.3,0.8,0.5,1.3,0.6C12.1,25.1,12.2,25.7,12.4,26.2z"/>
		<path class="st29" d="M14.2,11.6c1,0.9,2.4,1.1,3.3,2.2c1.1,1.1,1,1.7-0.5,2.7c-0.3,0-0.5-0.2-0.6-0.4c-0.2-0.4-0.1-0.7-0.1-1.1
			c0-0.3-0.3-0.5-0.5-0.6c-0.1-0.1-0.2-0.2-0.3-0.3c-0.2-0.4-0.4-0.7-0.8-1c-0.2-0.2-0.3-0.3-0.4-0.5C14.2,12.2,14,11.9,14.2,11.6z"
			/>
		<path class="st77" d="M18.9,21.7c-0.6-0.3-0.1-1.1-0.6-1.5c-0.4-0.3-0.1-0.6,0-0.8c0.1-0.3,0.2-0.6-0.1-0.8
			c-0.5-0.4-1.1-0.7-1-1.4c0.1-0.8,0.8-0.5,1.2-0.6c0.2-0.1,0.4-0.1,0.7-0.1c0.4,0.1,1,0.1,0.9,0.8c-0.6,0.7-0.2,1.5-0.4,2.2
			C18.8,20.1,18.9,20.9,18.9,21.7z"/>
		<path class="st81" d="M18.6,17c-0.4,0.5-0.7-0.2-1.1,0c-0.4,0.3-0.8,0.3-1.2-0.1c-0.1-0.3,0.1-0.5,0.4-0.6
			c1.2-0.5,1.2-1.5,0.8-2.5c0.2-0.1,0.5-0.3,0.7-0.4c0.2-0.2,0.5-0.2,0.7-0.1c0.3,0.4,0.2,1,0.2,1.5C19,15.5,19,16.3,18.6,17z"/>
		<path class="st82" d="M19.6,10.1c0.2-0.2,0.3-0.5,0.8-1.2c-0.3,2.3,1.2,4.1-0.3,6c-0.4-0.1-0.6-0.3-0.7-0.7c0-0.2,0-0.3,0-0.5
			c0.3-0.6,0.3-1.3-0.2-1.8C19.4,11.3,19.8,10.8,19.6,10.1z"/>
		<path class="st27" d="M1.2,7.6C1,6.5,1.8,5.9,2.2,5.1c0.4-0.2,0.7,0,1,0.3c0.2,0.2,0.3,0.5,0.4,0.7c0.1,0.7,0.1,1.4-0.7,1.8
			C2.3,8.1,1.7,8.1,1.2,7.6z"/>
		<path class="st83" d="M6.6,25.7c-1.1-0.3-2.1-0.6-2.6-1.8c-0.2-0.3,0-0.4,0.3-0.5c0.5,0.1,0.8,0.4,1.3,0.5c0.8,0,1.7,0.1,2.4-0.4
			c0.5,0.6,0.1,1.2,0.1,1.8C7.8,25.9,7.1,25.4,6.6,25.7z"/>
		<path class="st26" d="M10.6,2.5c0-0.8,0-1.7,0-2.5c1.1-0.1,2.1,0,3,0.6c0,0.2-0.1,0.4-0.2,0.6c-0.2,0.2-0.3,0.4-0.6,0.6
			c-0.4-0.2-0.5-1.4-1.2-0.3C11.3,1.9,11.1,2.3,10.6,2.5z"/>
		<path class="st84" d="M0.3,16.7c0.5-0.3,0.9-0.3,1.2,0.3c0.4,0.7-0.4,1.7,0.8,2.1c0.2,0.2,0.4,0.5,0.5,0.9c0.1,0.3,0.1,0.7,0,1
			c-0.1,0.2-0.3,0.4-0.6,0.3C0.8,20.1,0.7,18.3,0.3,16.7z"/>
		<path class="st60" d="M5.1,1.8c0.1,0.3,0.2,0.6,0.3,0.9c-0.7,0.2-0.3,0.5,0,0.8C5.6,4.1,5.8,4.6,5.1,5C4.6,5,4.3,4.4,3.8,4.7
			C3.5,4.5,3.1,4.4,3.3,3.9c0.1-0.3,1.2-0.2,0.2-0.8C3.9,2.5,4.6,2.2,5.1,1.8z"/>
		<path class="st85" d="M14.2,11.6c0.1,0.3,0.2,0.5,0.3,0.8c-0.2,0.9-0.6,1.1-1.3,0.4c-0.4-0.5-0.8-1-0.8-1.7c0-0.4,0.1-0.8,0.4-1.1
			C13.8,10.1,13.6,11.2,14.2,11.6z"/>
		<path class="st86" d="M12.8,10c0,0.4-0.1,0.8-0.1,1.2c-0.2,0.1-0.3,0.1-0.5,0.1c-1.2-0.7-1.5-1.6-0.5-2.7c0.3-0.1,0.5-0.1,0.8,0.1
			C12.9,9,12.7,9.6,12.8,10z"/>
		<path class="st28" d="M2.2,21.4c0.2-0.1,0.3-0.2,0.5-0.4c0.5-0.2,0.9,0,1.3,0.2c0.4,0.3,0.5,0.8,0.4,1.2c-0.1,0.5-0.3,0.8-0.7,1.1
			C3.2,22.8,2.3,22.4,2.2,21.4z"/>
		<path class="st87" d="M19.2,11.9c2,0.2,1,1.1,0.4,1.8c-0.4,0.2-0.6-0.1-0.7-0.4c-0.3,0-0.5,0-0.8,0C18.9,13.1,18.9,12.4,19.2,11.9
			z"/>
		<path class="st84" d="M3.6,3.1c0.7,0.3-0.2,1.2,0.5,1.5C3.9,5.2,3.5,5.3,3,5.3C2.8,5.2,2.6,5.1,2.3,5C2.6,4.4,2.9,3.6,3.6,3.1z"/>
		<path class="st19" d="M0.1,11.2C0.6,11,1,10.7,1.5,10.5c0.5,0.9,1.1,1.8-0.7,1.8c-0.2-0.2-0.5-0.5-0.7-0.7
			C0.1,11.4,0.1,11.3,0.1,11.2z"/>
		<path class="st88" d="M11.7,4.3c0.2,0,0.3,0,0.5,0c0,0.8,0,1.6,0,2.5c-0.1,0.3-0.3,0.5-0.6,0.5c-0.2,0-0.4-0.1-0.5-0.3
			C10.7,6,10.7,5,11.7,4.3z"/>
		<path class="st89" d="M13.1,1c0.1-0.1,0.3-0.3,0.4-0.4c0.7,0.2,1.3,0.5,1.8,1.1c0,0.2,0,0.5-0.1,0.7c-0.1,0.1-0.2,0.2-0.3,0.3
			c-0.1,0-0.2,0-0.3,0.1c-0.1-0.2-0.2-0.4-0.3-0.5C14.2,1.5,13.2,1.7,13.1,1z"/>
		<path class="st80" d="M6.6,25.7C7,25.2,7.5,25.5,8,25.4c0.1-0.1,0.2-0.1,0.3,0c0.3,0.2,0.7,0.5,1,0.7C8.4,26.2,7.5,26.2,6.6,25.7z
			"/>
		<path class="st4" d="M2.9,8.7C2.5,9.8,1.6,8.3,1.1,9.1c0-0.1,0-0.2,0-0.4c0.4-0.8,1-0.8,1.8-0.5C3,8.3,3.1,8.5,2.9,8.7z"/>
		<path class="st90" d="M2.9,8.3c-0.6,0-1.3,0.1-1.8,0.4C0.6,8.5,0.8,8.2,1.1,8c0.5-0.3,1.1-0.1,1.7-0.1C3,7.9,3,8.1,2.9,8.3z"/>
		<path class="st5" d="M20.5,7.2c-0.2-0.4-0.4-0.8-0.6-1.3c-0.1-0.4,0-0.6,0.4-0.5c0.3,0.4,0.5,0.8,0.5,1.3
			C20.9,7,20.9,7.2,20.5,7.2z"/>
		<path class="st38" d="M11.7,7.1C11.9,7,12,6.9,12.2,6.7c0.7,0.5,0.3,1.2,0.3,1.8c-0.3,0-0.5,0-0.8,0c0-0.1-0.1-0.1-0.1-0.2
			s0-0.3,0-0.4C11.5,7.7,11.6,7.4,11.7,7.1z"/>
		<path class="st7" d="M20.5,7.2c0.1-0.2,0.2-0.3,0.3-0.5c0.2,0.5,0.4,1.1,0.6,1.6c-0.2,0.2,0,0.6-0.3,0.8c-0.2-0.5-0.4-1.1-0.6-1.6
			C20.5,7.4,20.5,7.3,20.5,7.2z"/>
		<path class="st34" d="M14.9,2.7c0-0.1,0-0.2,0-0.3c0.3-0.3,0.7-0.1,1.1-0.2c0.3,0.1,0.6,0.2,0.6,0.5C16.5,3,16.2,2.9,16,2.8
			C15.6,2.8,15.3,2.8,14.9,2.7z"/>
		<path class="st91" d="M3.6,23.6c0.1-0.4,0.3-0.8,0.4-1.1c0.3-0.1,0.5,0.1,0.6,0.4c0,0.3,0,0.5-0.2,0.7C4.3,23.7,4.2,23.9,4,24
			C3.9,23.8,3.8,23.7,3.6,23.6z"/>
		<path class="st7" d="M16,2.1c-0.3,0.4-0.7,0.2-1.1,0.2c0-0.3,0.1-0.5,0.4-0.7C15.6,1.9,15.8,2,16,2.1z"/>
		<path class="st92" d="M2.9,8C2.3,8,1.7,8,1.1,7.9c0-0.1,0-0.2,0.1-0.3c0.6,0,1.2,0,1.8,0C3,7.7,3,7.9,2.9,8z"/>
		<path class="st5" d="M21.1,9.1c0.1-0.3,0.2-0.5,0.3-0.8c0,0.2,0.1,0.4,0.1,0.7c-0.1,0.4,0,0.8-0.3,1.1C21.2,9.7,21.1,9.4,21.1,9.1
			z"/>
		<path class="st93" d="M19.6,14.1c0.2,0.3,0.3,0.5,0.5,0.8c0.4,0.8,0.5,1.6-0.1,2.4c-0.3-0.2-0.7-0.4-1-0.6c-0.6-0.6,0-1.2-0.2-1.8
			C19.1,14.7,19,13.9,19.6,14.1z"/>
		<path class="st94" d="M2.6,18.1c0-1,0-1.9,0-2.9c-0.1-1.1,0.7-1.5,1.5-2c0.7,0,1.2,0.4,1.6,0.9C6,14.7,5.9,15.3,6,15.9
			c0,0.4,0.1,0.8,0.3,1.2c0.5,0.9,1,1.9,2,2.5c0.2,0.2,0.3,0.5,0.5,0.8s0.4,0.4,0.7,0.3c0.7-0.4,1-0.1,1.2,0.6
			c0.1,0.6,0.2,1.1,0.1,1.7c-0.2,0.4-0.5,0.7-0.8,0.9c-0.3,0.1-0.6,0-1-0.1c-0.5-0.1-0.8-0.6-1.4-0.5c-0.7,0.2-1.3-0.3-1.8-0.6
			c-0.3-0.3-0.7-0.5-0.8-0.9c-0.3-1.4-1.6-2.1-2.5-3C2.3,18.6,2.4,18.3,2.6,18.1z"/>
		<path class="st67" d="M4,13.5c-0.5,0.6-1,1.2-1.5,1.7c-0.6,0-0.9,0.4-1.8,0.9c0.6-1.1,0.7-1.9,0.7-2.7c0.4-0.2,0.8-0.1,1.1-0.3
			c0.4,0,0.8-0.1,1.1-0.5c0.1,0,0.3,0,0.4,0C4.3,12.9,4.2,13.2,4,13.5z"/>
		<path class="st74" d="M2.6,18.1c0,0.2,0,0.5,0.1,0.7c0.1,0.4-0.1,0.5-0.4,0.4c-0.8,0.3-1.1,0-1.1-0.8c0-0.5,0.2-1,0.3-1.4
			C2,17,2,17.2,1.9,17.7C1.7,18.4,2.1,18.3,2.6,18.1z"/>
		<path class="st95" d="M0.8,12.3c1.2-0.2,0.6-1.1,0.7-1.8C2,10,2.1,10.6,2.2,10.8c0,0.5,0.2,0.9,0.3,1.4c0,0.3-0.1,0.5-0.3,0.6
			c-0.4,0.1-0.7,0.1-1-0.2C1,12.5,0.9,12.4,0.8,12.3z"/>
		<path class="st43" d="M1.1,12.7c0.4,0,0.7,0,1.1,0c0.7,0,0.6,0.3,0.4,0.7c-0.4,0.2-0.7,0.2-1.1,0C1.2,13.2,1.1,13,1.1,12.7z"/>
		<path class="st89" d="M2.9,8c0-0.1,0-0.3,0-0.4c0.6-0.5,0.3-1.2,0.3-1.8c0.5-0.9,1-0.1,1.4,0.1c0.6,0.3,0.7-0.4,1.1-0.6
			C6.4,5.2,7.1,5.4,7.6,6C7.8,6.6,7.4,7,7,7.3C6.8,7.4,6.7,7.4,6.5,7.5c-0.9,0-1.7,0.2-2.4,0.9C3.8,8.6,3.5,8.7,3.2,8.7
			c-0.1,0-0.2,0-0.4,0c0-0.1,0-0.3,0-0.4C2.9,8.2,2.9,8.1,2.9,8z"/>
		<path class="st96" d="M3.3,8.6c0.2-0.3,0.4-0.4,0.8-0.4c0.1,0,0.2,0,0.3,0c0.2,0.1,0.4,0.1,0.4,0.3C5,9.3,6.2,9.2,6.2,9.9
			c0,0.8-1.1,0.8-1.4,1.5c-0.1,0.1-0.2,0.2-0.4,0.3C3.9,10.9,3.1,9.9,3.3,8.6z"/>
		<path class="st58" d="M4.4,11.9c0-0.1,0-0.2,0-0.3c0.7-0.5,1.1,0.2,1.7,0.3c0.6,0.9,0.4,1.7-0.3,2.4c-0.2,0-0.3,0-0.5-0.1
			C4.9,14,4.4,13.8,4,13.5c0-0.3,0-0.5,0-0.8C4.3,12.5,4.9,12.4,4.4,11.9z"/>
		<path class="st97" d="M2.6,13.4c0-0.3-0.1-0.6-0.4-0.7c0-0.2,0-0.5,0-0.7c0.2-0.2,0.5-0.2,0.7,0c0,0.5,0.3,0.7,0.7,0.7
			C3.6,13.4,3.4,13.8,2.6,13.4z"/>
		<path class="st98" d="M2.9,12c-0.2,0-0.4,0-0.7,0c-0.6-0.3-0.5-0.7-0.1-1.1C2.7,11,2.9,11.4,2.9,12z"/>
		<path class="st36" d="M7.6,6.1C7,5.9,6.4,5.6,5.8,5.4c-0.2,0-0.4,0-0.6-0.2c0-0.1-0.1-0.1-0.1-0.2c0.4-0.5,0-1,0-1.5
			c0.2-0.2,0.5-0.2,0.7,0c0.5,0,1,0.1,1.5,0.4C7.4,4,7.5,4.1,7.6,4.2C7.7,4.5,7.9,4.8,8,5.1C7.9,5.5,8.6,6.1,7.6,6.1z"/>
		<path class="st15" d="M9.5,2.5c0,0.5,0.2,0.7,0.7,0.7c0.1,0.2,0.1,0.3,0,0.5C9.9,4,9.5,4.2,9,4.1C8.4,3.9,8.2,3.4,8.4,2.8
			c0-0.2,0-0.4,0-0.6C8.9,1.9,9.3,1.6,9.5,2.5z"/>
		<path class="st99" d="M8.4,2.8C8.6,3.2,8.8,3.5,9,3.9C9.2,4,9.3,4.1,9.3,4.3c0,0.4,0,0.7-0.4,0.8C8.5,5.1,8.3,4.7,8,4.5
			C7.8,4.4,7.5,4.4,7.3,4.2c0-0.1,0-0.2,0-0.3C7.3,3.2,7.9,3.1,8.4,2.8z"/>
		<path class="st100" d="M9.5,2.5C9.2,2.1,8.8,2.2,8.4,2.2c0-0.1,0-0.3,0-0.4c0.5,0,1-0.1,1.4,0C10,1.8,9.8,2.3,9.5,2.5z"/>
		<path class="st101" d="M5.8,3.5c-0.2,0-0.5,0-0.7,0C4.9,3.1,4.9,2.8,5.4,2.7C5.8,2.9,5.8,3.2,5.8,3.5z"/>
		<path class="st102" d="M16.4,16.6c0.2,0.5,0.7,0.3,1.1,0.4c0,0.7,0.6,1,1,1.4c0,0.4,0.1,0.6,0.5,0.8c-0.2,0.3-0.4,0.7-0.6,1
			c-0.7,0.6-1.8,0.5-2.3,1.5c-0.6-0.6-1.4-1.2-1.8-2c-0.2-0.5-0.6-1-0.7-1.6c-0.1-0.7,0.2-1.2,0.8-1.6c0.2-0.1,0.3-0.2,0.5-0.2
			C15.4,16.2,16,16.2,16.4,16.6z"/>
		<path class="st103" d="M14.6,19.5c0.3,0.9,1.7,1,1.5,2.2c0,0.1,0,0.3,0,0.4c-0.6,0.6-1.1-0.2-1.7-0.1c-0.6-0.1-1.2-0.2-1.2-1
			C13.8,20.8,13.7,19.7,14.6,19.5z"/>
		<path class="st82" d="M14.5,21.8c0.7-1,1,0.6,1.6,0.3c0.9,0.5-0.1,1,0,1.5c-0.1,0-0.2,0-0.2,0c-0.4-0.8-0.7,0.3-1,0.1
			c-0.6-0.3-0.3-0.8-0.4-1.2C14.3,22.2,14.3,22,14.5,21.8z"/>
		<path class="st38" d="M8.8,5c0.4-0.1,0.4-0.4,0.4-0.7c0.6-0.3,0.8,0,0.9,0.5c0.1,0.2,0.3,0.3,0.1,0.1l0.1-0.1
			c0.4-0.3,0.6-1,1.3-0.8c0,0.1,0,0.2,0,0.3c-0.3,0.9-0.5,1.9-0.4,2.8c-0.1,0.1-0.2,0.2-0.4,0.2c-0.3,0.1-0.5-0.8-0.9-0.1
			C8.6,7,8.6,6,8.8,5z"/>
		<path class="st88" d="M11.6,3.9C11,4.1,11,5,10.2,5c-0.2-0.5-0.4-1,0-1.5c0-0.1,0-0.2,0-0.4c0.1-0.1,0.2-0.3,0.4-0.4
			C10.9,3.2,11.3,3.6,11.6,3.9z"/>
		<path class="st99" d="M13.1,1c0.3,0.5,1.7-0.1,1.1,1.2c-0.5-0.2-1-0.3-1.5-0.5C12.8,1.4,12.8,1.2,13.1,1z"/>
		<path class="st20" d="M14.6,22.5c0.4,0.4-0.2,0.7,0,1.1c0.1,0.1,0.2,0.2,0.1,0.3c0,0.1-0.1,0.1-0.1,0.1c0,0.2,0,0.4,0,0.6
			c-0.2,0.3-0.4,0.3-0.7,0.2c-0.5-0.2-1.1,0-1.5-0.4c-0.2-0.3-0.2-0.6,0.1-0.9C13.3,23.5,13.6,22.2,14.6,22.5z"/>
		<path class="st82" d="M12.4,26.2c-0.4-0.2-0.5-0.8-1.1-0.8c-0.1-0.1-0.2-0.3-0.2-0.4c0-0.4,0.1-0.7,0.5-0.8c0.2,0,0.3,0,0.5,0
			c0.2,0.2,0.5,0.3,0.8,0.5c0.1,0.2,0.1,0.3-0.1,0.4C12.6,25.4,12.5,25.8,12.4,26.2z"/>
		<path class="st104" d="M12.7,25c0-0.1,0-0.2,0-0.3c0.3-0.3,0.7-0.2,1-0.1c0.3,0,0.5,0,0.8,0c0.2,0.3,0.4,0.7-0.2,0.6
			C13.8,25.2,13.3,25.1,12.7,25z"/>
		<path class="st97" d="M14.6,23.9c0-0.1,0-0.2,0-0.4c0.4,0.5,0.8-2,1.2,0C15.4,24,15,23.9,14.6,23.9z"/>
		<path class="st105" d="M7.6,23.2c0.6-0.1,1.1,0.1,1.5,0.4C9.2,23.8,9.3,24,9,24.2c-0.7,0-0.7,0.6-0.7,1.1H8.1H7.9
			c-0.1-0.6,0.2-1.3-0.4-1.8c-0.1-0.1-0.1-0.1-0.1-0.2C7.6,23.3,7.6,23.2,7.6,23.2z"/>
		<path class="st18" d="M9.1,24.3c0-0.2,0-0.4,0.1-0.6c0.2,0.1,0.4,0.2,0.6,0.3c0.2-0.2,0.4,0,0.6,0.1c0.1,0.1,0.1,0.3,0,0.5
			c0,0.1-0.1,0.1-0.1,0.2C9.8,24.6,9.4,24.7,9.1,24.3z"/>
		<path class="st70" d="M11.3,25.1c0,0.1,0,0.2,0,0.3c-0.5,0.1-1.1,0.2-1-0.7l0,0C10.8,24.2,11,24.7,11.3,25.1z"/>
		<path class="st106" d="M12.4,11.2c0.1,0,0.2,0,0.3,0c0.6,0.3,0.2,2.2,1.8,1.2c0.1,0.1,0.3,0.2,0.4,0.4c0.1,0.5,0.2,1.1,0.8,1.4
			l0,0c0.6,1.2-0.3,1.9-1.1,2.6l0,0c-0.4,0.1-0.7-0.1-0.9-0.3c-0.3-0.5-0.5-1,0-1.6c-0.8,0.7-1.5,1.4-2.4,0.3
			c-0.1-0.1-0.1-0.3-0.1-0.5c0.1-0.4,0.3-0.7,0.5-1.1c0.1-0.4,1.1-0.5,0.4-1.2C11.7,11.9,12,11.4,12.4,11.2z"/>
		<path class="st85" d="M14.6,16.7c0.4-0.9,0.7-1.7,1.1-2.6c0.5,0,1.1,0,1.1,0.7c-0.1,0.4-0.7,0.6-0.3,1.1c0.1,0.1,0.2,0.2,0.3,0.4
			c-0.1,0.1-0.2,0.2-0.3,0.3C15.8,16.7,15.2,16.7,14.6,16.7z"/>
		<path class="st85" d="M15.7,14.1c-1.7,0.4-1-0.7-0.8-1.4C15.3,13.1,16.1,13.2,15.7,14.1z"/>
		<path class="st107" d="M16.4,15.9c-0.2-0.1-0.6-0.2-0.6-0.2c0-0.6,0.6-0.6,0.9-0.8C16.6,15.2,16.5,15.6,16.4,15.9z"/>
		<path class="st108" d="M19,14.8c0,0.6,0,1.3,0,1.9c-0.1,0.1-0.3,0.2-0.4,0.3c0.1-0.8-0.4-1.8,0.4-2.5c0.1,0.1,0.2,0.1,0.1,0.2
			S19,14.8,19,14.8z"/>
		<path class="st93" d="M18.9,19.2c-0.3,0.1-0.6,0.3-0.8-0.2c-0.1-0.4,0-0.5,0.3-0.6C19.1,18.4,19.1,18.7,18.9,19.2z"/>
		<path class="st109" d="M19,14.8c0-0.1-0.1-0.2,0-0.3c-0.2-0.4-0.2-0.7,0-1.1c0.2,0.1,0.5,0.2,0.7,0.4c0,0.1,0,0.3,0,0.4
			C19.4,14.4,19.2,14.6,19,14.8z"/>
		<path class="st96" d="M4.7,6.1C4.1,6.4,3.9,5.3,3.3,5.8C3.2,5.7,3,5.5,2.9,5.4C3.3,5.2,3.7,4.9,4,4.7c0.5-0.4,0.7,0.2,1.1,0.4v0.1
			C5.3,5.5,5.1,5.9,4.7,6.1z"/>
		<path class="st110" d="M7.6,23.2c0,0.1,0,0.2,0,0.3c-0.3,0.4,0.1,2-1.2,0.6c-0.3-0.3-0.6,0.7-1,0.1c-0.6-0.4-0.8-0.8-0.3-1.4
			c0.2-0.2,0.4-0.3,0.6-0.3C6.4,22.8,7,23,7.6,23.2z"/>
		<path class="st93" d="M5.4,22.9c-0.3,0.5-0.3,1,0,1.4c-0.5,0-0.9-0.3-1.1-0.8c0-0.2,0-0.4,0-0.6C4.7,22.3,5,22.1,5.4,22.9z"/>
		<path class="st111" d="M2.2,19.2c0.1-0.1,0.3-0.3,0.4-0.4c1.2,0.7,2.6,1.2,2.5,2.9c-0.8-0.1-1.3-0.9-2-1.1
			c-0.2-0.2-0.3-0.4-0.4-0.6C2.3,19.8,2.2,19.6,2.2,19.2z"/>
		<path class="st64" d="M2.6,20c0.1,0.1,0.2,0.2,0.3,0.3c0.3,0.3,1,0.4,0.7,1.1c-0.3-0.1-0.6-0.2-1-0.4C2.7,20.7,2.6,20.3,2.6,20z"
			/>
		<path class="st112" d="M12.4,11.2c0,0.3-0.2,0.8-0.1,0.8c1.6,0.9,0.4,1.2-0.3,1.7c-0.1,0.1-0.2,0.2-0.4,0.1
			c-0.3-0.2-0.6-0.3-0.9,0c-0.1,0.1-0.3,0.1-0.4,0.2c-0.5,0-0.9-0.2-1.4,0c-0.8,0.2-1.3-0.2-1.8-0.7c-0.6-0.8-0.7-1.4,0.5-1.6
			c2.2-0.4,2.4-1,1.4-3.1c0-0.2,0-0.3,0.1-0.5c0.3-0.2,0.6-0.2,1-0.1c0.7,0.3,0.6,1,0.6,1.8c0,0.1,0.3-0.3,0-0.2
			c-0.1-0.5,0.1-0.8,0.4-1.1c0.2-0.1,0.3,0,0.5,0.1l0,0C11.4,9.7,11.5,10.5,12.4,11.2z"/>
		<path class="st84" d="M3.6,21.4c-0.2-0.4-0.5-0.7-0.7-1.1c1,0.1,1.6,0.7,2.1,1.4c0.2,0.3,0.5,0.5,0.7,0.8
			c-0.1,0.1-0.3,0.2-0.4,0.3c-0.4-0.4-0.7-0.3-1.1,0.1c-0.1-0.2-0.2-0.3-0.3-0.5C4.1,22,4,21.6,3.6,21.4z"/>
		<path class="st113" d="M11,7.2c0.1,0,0.2-0.1,0.3-0.1c0.1,0,0.2,0,0.4,0c0.4,0.4,0.4,0.8,0,1.1c-0.4,0.2-0.7,0-0.9-0.3
			C10.7,7.7,10.7,7.4,11,7.2z"/>
		<path class="st114" d="M10.9,7.9c0.3,0.1,0.5,0.2,0.8,0.4c0,0.1,0,0.2,0,0.4c-0.1,0-0.2,0-0.4,0c-0.5,0.2-0.7-0.2-1.1-0.4
			c-0.4,0-0.7,0-1.1,0C9,8.2,9,8.1,9,8c0-0.1,0-0.2,0-0.2c0.3-0.3,0.7-0.4,1.1-0.5C10.5,7.4,10.7,7.7,10.9,7.9z"/>
		<path class="st115" d="M8.1,19.9c-1.3-0.3-1.6-1.5-2.1-2.5c0.2-0.5,0.2-1.1,0.9-1.3c0.4,0,0.6,0.2,0.9,0.4C8,16.8,8.2,17,8.2,17.4
			c-0.6,1.1,1,1.1,0.9,1.9C9.1,19.9,8.7,20.1,8.1,19.9z"/>
		<path class="st34" d="M8.1,19.9c0.4-0.2,0.7-0.5,1.1-0.7c0.1,0,0.1-0.1,0.2-0.1c0.4,0,0.7,0.1,1,0.3c0.3,0.1,0.7,0.2,1,0.4
			c0.1,0.1,0.2,0.2,0.2,0.4c0,0.1,0,0.3-0.1,0.4c-0.2,0.3-0.5,0.5-0.8,0.8c-0.1,0.1-0.3,0.1-0.4,0c-0.2-0.9-0.5-0.2-0.7-0.1
			C9.2,21,8.7,21,8.5,20.6C8.3,20.4,8.2,20.1,8.1,19.9z"/>
		<path class="st19" d="M10.3,21.4c0.1,0,0.2,0,0.3,0c0.1,0.1,0.3,0.2,0.4,0.3c0.3,0.6,0.9,1,1,1.7c0,0.3-0.1,0.5-0.4,0.7
			c-0.4,0.1-0.8,0.2-1.1-0.2c-0.2-0.3-0.1-0.6,0-0.8C10,22.6,10.2,22,10.3,21.4z"/>
		<path class="st88" d="M5.3,14.1c0.2,0,0.4,0,0.5,0C6,13.9,6.2,13.9,6.4,14c0.1,0.1,0.2,0.2,0.3,0.4c0.1,0.5-0.1,0.9-0.3,1.4
			c-0.2,0.3-0.4,0.7-0.9,0.5C5.5,15.5,5.4,14.8,5.3,14.1z"/>
		<path class="st116" d="M5.5,16.3c0.2-0.2,0.5-0.5,0.7-0.7C6.8,15.5,7,15.8,7,16.3c-0.6,0.2-0.3,1.1-1,1.1
			C5.6,17.1,5.4,16.7,5.5,16.3z"/>
		<path class="st117" d="M8.4,20.6c0.5,0.1,1.1-0.1,1.1,0.7C9,21.4,8.4,21.5,8.4,20.6z"/>
		<path class="st10" d="M10.5,23.1c0,0.3,0.1,0.6,0.1,0.9c0.1,0.3,0,0.5-0.4,0.3c-0.1-0.1-0.3-0.3-0.4-0.4
			C9.8,23.5,10,23.1,10.5,23.1z"/>
		<path class="st118" d="M10.1,7.6c-0.3,0.1-0.7,0.2-1,0.3C8.9,8.1,8.7,8.1,8.5,8.1C8.2,8,7.9,7.9,7.6,7.7C7.3,7.5,7.1,7.4,6.9,7.1
			C7.1,6.7,7.4,6.4,7.6,6c0.5-0.3-0.1-0.7,0.1-1c0.1-0.4,0.1-0.8,0.4-1.1C8.5,4.2,8.8,4.5,8.8,5c0.6,0.5-0.1,2.1,1.4,1.8
			C10.4,7.1,10.4,7.4,10.1,7.6z"/>
		<path class="st119" d="M4,8.3C4.5,7,5.4,6.9,6.6,7.2c0.2,0.5,0,0.8-0.3,1.1C5.6,8.8,4.8,8.7,4,8.3L4,8.3z"/>
		<path class="st118" d="M4.7,6.1c0.2-0.3,0.3-0.7,0.5-1c0.3,0,0.5,0,0.7,0.3c0,0.5,0,1-0.7,1.2C4.8,6.7,4.8,6.3,4.7,6.1z"/>
		<path class="st120" d="M6.2,8c0.3-0.2,0.4-0.5,0.4-0.8c0.1,0,0.2,0,0.3,0c0.3,0,0.6,0.1,0.7,0.4c0.1,0.1,0.1,0.2,0.1,0.3
			C7.7,8,7.7,8,7.6,8C7.1,8,6.7,8.7,6.1,8.4C6.1,8.2,6.1,8.1,6.2,8z"/>
		<path class="st121" d="M6.2,8c0,0.1,0,0.2,0,0.3c0.4,0.3,0.7,0.1,1.1,0c0.4,0,0.7-0.2,1.1-0.4c0.2,0,0.5,0,0.7,0
			c0,0.1,0,0.3,0,0.4s0,0.2,0,0.3C9.2,9,9,9.2,8.7,9.5c-0.9,0.1-2,0.1-1.1,1.5c0.2,0.3,0.2,0.6-0.1,0.8C7,12,6.3,11.7,5.8,12.1
			c-0.6,0.2-0.8-0.7-1.4-0.5c0-1.1,0.9-1.1,1.7-1.6C4.5,10.4,4.8,8.7,4,8.3C4.8,8.3,5.5,8.3,6.2,8z"/>
		<path class="st86" d="M5.8,12.1c0.4-0.9,1.3-0.3,1.9-0.6c1-0.4,1.3-1.2,1-2.2C8.8,9.1,9,8.9,9.1,8.6c1.6,0.4,0.8,1.7,0.7,2.5
			c0,0.7-0.8,1.2-1.7,1C8,12.6,6.2,11.4,7.2,13c0.2,0.6-0.3,0.8-0.7,1c-0.2,0-0.5,0.1-0.7,0.1C5.7,13.4,6.5,12.7,5.8,12.1z"/>
		<path class="st76" d="M8.1,3.9C7.9,4.3,8.6,4.9,7.7,5C7.4,4.8,7.3,4.6,7.3,4.2C7.5,4.2,7.8,4,8.1,3.9z"/>
		<path class="st63" d="M10.2,3.6c0,0.5,0,1,0,1.5c-0.1,0.1,0,0.6-0.3,0.2c-0.2-0.4-0.1-0.9-0.8-1C9.1,4.2,9,4.1,9,4
			C9.4,3.8,9.8,3.7,10.2,3.6z"/>
		<path class="st122" d="M11.4,20.2c0-0.1,0-0.2-0.1-0.3c-0.7-0.7-0.8-1.5-0.6-2.5c0.1-0.3,0.2-1,0.4-0.9c1,0.6,1.8-0.6,2.7-0.3
			c0.3,0.1,0.5,0.3,0.8,0.4c-0.5,0.4-0.9,0.7-0.8,1.4C13.4,19.3,12.4,19.7,11.4,20.2z"/>
		<path class="st41" d="M11.4,20.2c0.6-1,1.5-1.5,2.4-2.1c0.2,0.5,0.8,0.8,0.8,1.5c-0.2,0.8-0.2,1.8-1.5,1.6c0-0.1-0.1-0.1-0.1-0.2
			s0-0.2,0.1-0.3c-0.3,0-0.2,0.3-0.2,0.4c-0.3,0.4-0.6,0.5-1,0.2c-0.2-0.2-0.5-0.4-0.6-0.7C11.3,20.5,11.3,20.3,11.4,20.2z"/>
		<path class="st123" d="M12,21.1c0.3,0.3,0.5-0.1,0.8-0.2c0.1-0.1,0.2-0.1,0.3,0L13,21v0.1c0.5,0.2,0.9,0.4,1.4,0.7
			c0,0.2,0.1,0.4,0.1,0.7c-0.8,0-0.6,1.7-1.9,1.1c-0.3-0.2-0.8,0.1-1.1-0.3c-0.4-0.5-1-0.8-1.1-1.5C10.9,21.1,11.1,20.3,12,21.1z"/>
		<path class="st92" d="M10.1,7.6c0-0.3,0-0.5,0.1-0.8c0.5-0.4,0.6,0.1,0.8,0.4c0,0.2,0,0.5,0,0.7C10.7,7.8,10.4,7.7,10.1,7.6z"/>
		<path class="st124" d="M11.6,23.2c0.4,0,0.8-0.1,1.1,0.3c-0.4,0.1-0.4,0.4-0.4,0.7c-0.1,0.1-0.2,0.1-0.4,0c-0.1,0-0.2-0.1-0.3-0.1
			c-0.1-0.1-0.2-0.1-0.2-0.2s0.1-0.1,0.1-0.1C11.6,23.7,11.6,23.4,11.6,23.2z"/>
		<path class="st83" d="M12,24.3c0.1,0,0.2,0,0.4,0c0.5,0.1,1-0.2,1.4,0.3c-0.3,0-0.7,0-1,0.1C12.5,24.5,12.3,24.4,12,24.3z"/>
		<path class="st18" d="M11.6,23.9c0,0.1,0,0.2,0,0.3c-0.3,0.2-0.4,0.5-0.4,0.8c-0.4-0.1-0.7-0.2-1-0.4c0-0.1,0-0.3,0-0.4
			c0.1-0.1,0.2-0.2,0.4-0.3C10.9,23.9,11.3,23.9,11.6,23.9z"/>
		<path class="st125" d="M13.8,16.3c-0.8,0.4-1.6,1.3-2.6,0.5c0,0.2,0.1,0.3,0.1,0.5c-0.2,0.3-0.5,0.3-0.8,0.3c-1-0.1-1.2-0.9-1-1.7
			c0.2-0.8,0.6-1.6,1.7-1.1c1.2,1,1.7-0.1,2.3-0.8C15.1,14.6,13.3,15.6,13.8,16.3z"/>
		<path class="st126" d="M11.3,14.8c-1.7,0.8-1.9,1.6-0.7,2.6c0.3,0.3,0.2,0.6-0.1,0.8c-0.5-0.4-0.6,0.5-1.1,0.4s-0.7-0.4-0.9-0.8
			c-0.1-0.5,0-1,0.2-1.5c0.4-0.6,0.5-1.3,0.3-2C9,14.1,9.1,14,9.3,14c0.4-0.2,0.8,0.1,1.2,0c0.4,0,0.6,0.2,0.8,0.5
			C11.3,14.6,11.3,14.7,11.3,14.8z"/>
		<path class="st125" d="M11.3,14.5c-0.3,0-0.6-0.1-0.7-0.4c-0.1-0.1-0.2-0.2-0.1-0.2c0-0.1,0.1-0.1,0.1-0.1l0,0
			c0.4-0.3,0.7-0.3,1.1,0c0.1,0,0.2,0,0.4,0C11.9,14.1,11.6,14.3,11.3,14.5z"/>
		<path class="st126" d="M6.6,14c0-0.5,0.6-0.6,0.7-1c0.6,0.3,1.1,0.9,1.8,0.7c0.1,0.1,0.2,0.2,0.1,0.3l-0.1,0.1
			C8.3,14.7,7.4,14.7,6.6,14L6.6,14z"/>
		<path class="st86" d="M10.2,8.3c0.4,0.1,0.7,0.2,1.1,0.4c-0.7,0.5,0.2,1.5-0.8,2.3C10.5,9.9,10.8,9,10.2,8.3z"/>
		<path class="st106" d="M9.2,14c0-0.1-0.1-0.2-0.1-0.3c0.5-1.5,1,0.5,1.5,0c0,0.1,0,0.2,0,0.4C10.1,14.1,9.6,14.1,9.2,14z"/>
		<path class="st106" d="M11.7,13.7c-0.4,0-0.7,0-1.1,0c0-0.5,0.3-0.8,0.7-0.8C11.9,12.9,11.6,13.4,11.7,13.7z"/>
		<path class="st59" d="M6.6,14.1c0.8,0,1.7,0,2.5,0c0.6,0.7,0.6,1.4,0,2.1c-0.4,0.3-0.8,0.9-1.4,0.4c-0.2-0.1-0.5-0.3-0.7-0.4
			c-0.3-0.2-0.5-0.5-0.8-0.7C6.3,15.1,6.5,14.6,6.6,14.1z"/>
		<path class="st11" d="M8.7,17.7C9,18,9.2,18.2,9.5,18.5c0.2,0.4,0,0.6-0.4,0.7v0.1C8.2,19,7.2,18.7,8,17.4
			C8.4,17.2,8.5,17.4,8.7,17.7z"/>
		<path class="st127" d="M8.7,17.7c-0.2-0.1-0.4-0.2-0.7-0.3c-0.1-0.2-0.2-0.4-0.4-0.7c0.5-0.1,0.9-0.3,1.4-0.4
			C8.9,16.7,8.8,17.2,8.7,17.7z"/>
		<path class="st5" d="M10.2,18.1c0.3-0.2,0.3-0.4,0.4-0.7c0.2,0,0.5,0,0.7-0.1c-0.7,0.9,0,1.7,0,2.6c-0.4,0-0.8,0.1-1.2-0.3
			C10.1,19.1,9.7,18.6,10.2,18.1z"/>
		<path class="st128" d="M10.2,18.1c-0.1,0.5,0.7,1-0.1,1.5c-0.3-0.2-0.7-0.3-1-0.5c0.1-0.2,0.2-0.5,0.4-0.7
			C9.7,18.2,9.7,17.6,10.2,18.1z"/>
		<path class="st129" d="M12,21.1c-0.7-0.3-1,0.4-1.4,0.6c0-0.1,0-0.2,0-0.4c0-0.5,0.2-0.8,0.7-0.7C11.6,20.7,11.9,20.8,12,21.1z"/>
		<path class="st128" d="M8.4,7.9C8.3,8.6,7.8,8.6,7.3,8.5c0-0.3,0.1-0.5,0.4-0.6c0-0.1,0-0.2,0-0.4C8,7.6,8.2,7.6,8.4,7.9z"/>
		<path class="st130" d="M7.7,7.9C7.6,8.1,7.4,8.3,7.3,8.5c-0.4,0-0.8,0.2-1.1-0.3C6.8,8.4,7,7.4,7.7,7.9z"/>
		<path class="st131" d="M8.8,9.3c0.6,0.4,1,0.9,0.6,1.6c-0.3,0.8-1.1,0.6-1.7,0.6l-0.1-0.1c-0.4-0.6-1.5-0.9-0.9-1.8
			C7.2,8.6,8.1,9.2,8.8,9.3z"/>
		<path class="st132" d="M13.1,21c-0.1,0-0.2,0-0.3,0c-0.4-0.6,0.1-0.8,0.4-1.1c0.2-0.2,0.3,0,0.4,0.1C13.8,20.5,13.1,20.6,13.1,21z
			"/>
	</g>
</g>
</svg>
