<?xml version="1.0" encoding="utf-8"?>
<!-- Generator: Adobe Illustrator 22.0.1, SVG Export Plug-In . SVG Version: 6.00 Build 0)  -->
<svg version="1.1" xmlns="http://www.w3.org/2000/svg" xmlns:xlink="http://www.w3.org/1999/xlink" x="0px" y="0px"
	 viewBox="0 0 21.5 25.9" style="enable-background:new 0 0 21.5 25.9;" xml:space="preserve">
<style type="text/css">
	.st0{display:none;}
	.st1{fill:#FFE5C2;}
	.st2{fill:#FFFFFF;}
	.st3{fill:#333333;}
	.st4{fill:#616161;}
	.st5{fill:#4D4D4D;}
	.st6{fill:#373737;}
	.st7{fill:#575757;}
	.st8{fill:#EF8F8F;}
	.st9{fill:#ABABAB;}
	.st10{fill:#9A9A9A;}
	.st11{fill:#4B4B4B;}
	.st12{fill:#515151;}
	.st13{fill:#989898;}
	.st14{fill:#585858;}
	.st15{fill:#797979;}
	.st16{fill:#6E6E6E;}
	.st17{fill:#8E8E8E;}
	.st18{fill:#BABABA;}
	.st19{fill:#7F7F7F;}
	.st20{fill:#949494;}
	.st21{fill:#AEAEAE;}
	.st22{fill:#C5C5C5;}
	.st23{fill:#7C7C7C;}
	.st24{fill:#919191;}
	.st25{fill:#A2A2A2;}
	.st26{fill:#A7A7A7;}
	.st27{fill:#8C8C8C;}
	.st28{fill:#8D8D8D;}
	.st29{fill:#6C6C6C;}
	.st30{fill:#5F5F5F;}
	.st31{fill:#9B9B9B;}
	.st32{fill:#D1D1D1;}
	.st33{fill:#A9A9A9;}
	.st34{fill:#848484;}
	.st35{fill:#5E5E5E;}
	.st36{fill:#7B7B7B;}
	.st37{fill:#262626;}
	.st38{fill:#5D5D5D;}
	.st39{fill:#FBFBFB;}
	.st40{fill:#696969;}
	.st41{fill:#6B6B6B;}
	.st42{fill:#0F0F0F;}
	.st43{fill:#5B5B5B;}
	.st44{fill:#353535;}
	.st45{fill:#272727;}
	.st46{fill:#383838;}
	.st47{fill:#A0A0A0;}
	.st48{fill:#CFCFCF;}
	.st49{fill:#B3B3B3;}
	.st50{fill:#D0D0D0;}
	.st51{fill:#636363;}
	.st52{fill:#E5E5E5;}
	.st53{fill:#343434;}
	.st54{fill:#545454;}
	.st55{fill:#525252;}
	.st56{fill:#B4B4B4;}
	.st57{fill:#D5D5D5;}
	.st58{fill:#707070;}
	.st59{fill:#F1F1F1;}
	.st60{fill:#767676;}
	.st61{fill:#E2E2E2;}
	.st62{fill:#AAAAAA;}
	.st63{fill:#4C4C4C;}
	.st64{fill:#7A7A7A;}
	.st65{fill:#A3A3A3;}
	.st66{fill:#C2C2C2;}
	.st67{fill:#808080;}
	.st68{fill:#9E9E9E;}
	.st69{fill:#2D2D2D;}
	.st70{fill:#787878;}
	.st71{fill:#8F8F8F;}
	.st72{fill:#5C5C5C;}
	.st73{fill:#303030;}
	.st74{fill:#8A8A8A;}
	.st75{fill:#E3E3E3;}
	.st76{fill:#9F9F9F;}
	.st77{fill:#898989;}
	.st78{fill:#B7B7B7;}
	.st79{fill:#6F6F6F;}
	.st80{fill:#999999;}
	.st81{fill:#6D6D6D;}
	.st82{fill:#909090;}
	.st83{fill:#BFBFBF;}
	.st84{fill:#B2B2B2;}
	.st85{fill:#3D3D3D;}
	.st86{fill:#1D1D1D;}
	.st87{fill:#777777;}
	.st88{fill:#606060;}
	.st89{fill:#6A6A6A;}
	.st90{fill:#AFAFAF;}
	.st91{fill:#727272;}
	.st92{fill:#717171;}
	.st93{fill:#737373;}
	.st94{fill:#F9F9F9;}
	.st95{fill:#ADADAD;}
	.st96{fill:#7E7E7E;}
	.st97{fill:#555555;}
	.st98{fill:#818181;}
	.st99{fill:#8B8B8B;}
	.st100{fill:#A8A8A8;}
	.st101{fill:#B9B9B9;}
	.st102{fill:#EBEBEB;}
	.st103{fill:#B6B6B6;}
	.st104{fill:#646464;}
	.st105{fill:#D6D6D6;}
	.st106{fill:#171717;}
	.st107{fill:#202020;}
	.st108{fill:#464646;}
	.st109{fill:#888888;}
	.st110{fill:#A6A6A6;}
	.st111{fill:#BEBEBE;}
	.st112{fill:#0C0C0C;}
	.st113{fill:#1A1A1A;}
	.st114{fill:#2E2E2E;}
	.st115{fill:#676767;}
	.st116{fill:#878787;}
	.st117{fill:#DBDBDB;}
	.st118{fill:#4F4F4F;}
	.st119{fill:#9C9C9C;}
	.st120{fill:#3B3B3B;}
	.st121{fill:#565656;}
	.st122{fill:#404040;}
	.st123{fill:#E6E6E6;}
	.st124{fill:#DFDFDF;}
	.st125{fill:#0E0E0E;}
	.st126{fill:#232323;}
	.st127{fill:#747474;}
	.st128{fill:#393939;}
	.st129{fill:#444444;}
	.st130{fill:#242424;}
	.st131{fill:#E7E7E7;}
	.st132{fill:#2B2B2B;}
</style>
<g id="圖層_2" class="st0">
</g>
<g id="圖層_1">
</g>
<g id="圖層_3">
	<g>
		<path class="st9" d="M1.5,19.7c-1.2-0.6-1.5-1.9-1.4-2.8c0.2-1.5-0.6-3.1,0.3-4.4c0.5-0.7-1-1.8,0.6-2.2c0.1,0,0.1,0,0.2,0
			c0.1,0.3,0.2,0.7,0.5,0.9C2,11.5,2.2,11.6,2.4,12c0.2,0.3,0.3,0.6,0.4,0.9c-0.2,1-0.1,2-0.2,3C1.6,17.1,2.3,18.6,1.5,19.7z"/>
		<path class="st10" d="M1.5,19.7c-0.1-1.3-0.2-2.6,0.7-3.7c1.2,1.1,1.6,2.5,2.3,3.9c-0.4,1-0.2,2.3-1.6,2.7C1.5,22,1.1,21,1.5,19.7
			z"/>
		<path class="st11" d="M14.3,11.2c0.2,0,0.5,0,0.7,0.2c0.3,0.5,0.8,0.6,1.5,0.5c0.7,0.1,1.6,0,2.2,0.8c0.2,0.3,0.2,0.7,0,1
			c-0.3,0.6-0.6,1.3-1.1,1.8c-1,0.3-1.9-0.3-2.9-0.4c-0.3-0.2-0.5-0.5-0.6-0.9c0.4-0.9,0.4-1.7,0-2.5C14.1,11.5,14.1,11.4,14.3,11.2
			z"/>
		<path class="st12" d="M13.4,3.9c0,0.4-0.1,0.9-0.8,0.6c-0.3,0.2-0.7,0.2-1,0.2c-0.8-0.2-1.4-0.8-2.3-1C9.1,3.7,9,3.6,8.9,3.5
			C8.8,3.2,8.8,2.9,9,2.5c0.7-0.6,1.9,0.3,2.5-0.8C12,1.3,12.4,1.1,13,1c0.4,0,1,0.1,1.4,0.3c0.2,0.2,0.2,0.5,0,0.7
			C13.8,2.5,13.8,3.4,13.4,3.9z"/>
		<path class="st13" d="M17.1,23.5c-1.1,0.7-2.2,1.6-3.6,1.9c-0.3-0.3-0.6-0.7-0.8-1c-0.6-1.4,0.1-1.5,1.2-1.4
			c0.2,0,0.4,0.2,0.7,0.3c-0.2-0.3-0.5-0.3-0.8-0.6c-0.4-0.3-0.6-0.9-0.6-1.4c0.1-0.5,0.4-0.8,0.9-0.7c0.4,0.2,0.5,0.6,0.8,0.9
			c0.2,0.2,0.5,0.2,0.8,0.3c0.4,0,0.9,0.1,0.9,0.6C17,22.8,16.9,23.2,17.1,23.5z"/>
		<path class="st14" d="M12.4,5.3C12.5,6,12.3,6.5,11.9,7c-0.7,0.4-0.4,1.2-0.6,1.8c0,0.2-0.1,0.3-0.3,0.5c-0.2,0.2-0.5,0.3-0.7,0.3
			c-0.7-0.4-1-1-1.2-1.6c0-0.6,0.2-1.1,0.1-1.7c0-0.2,0.1-0.5,0.3-0.7c0.2-0.1,0.4-0.2,0.8,0c0.8,0.6,0.1-0.4,0.5-0.4
			C11,5,11.2,4.9,11.6,4.9C11.9,4.8,12.2,4.9,12.4,5.3z"/>
		<path class="st15" d="M13.4,3.9c0.6-0.5-1.2-2,0.9-1.7c0.4-0.1,0.9-0.1,0.8-0.6c1.3-0.3,1.9,1,2.9,1.3C16.2,2.4,14.9,3.5,13.4,3.9
			z"/>
		<path class="st16" d="M11.6,2c0.3,0.5,0.2,0.9-0.6,0.8c-0.6-0.2-1.2-0.2-1.8-0.2c-0.7,0.1-1.4,0.4-2-0.2C7.1,2.1,7.1,2,7.2,1.8
			l0,0c0.3-0.5,0.3-1.1,0.9-1.4c0.2,0,0.5,0.1,0.7,0.2C9.1,0.8,9.5,1.1,9.9,1c0.3-0.1,0.7-0.1,1-0.1C11.5,1.2,11.8,1.4,11.6,2z"/>
		<path class="st17" d="M12,25.3c-1,1.3-2-0.1-3.1,0c-0.2-0.4,0.1-0.8,0.4-1.1c0.3-0.1,0.9,0.1,1-0.4c0.3-0.2,0.8-0.2,1.2-0.3
			c0.5,0,1,0.4,1.4,0.7C13.2,25.1,12.4,25,12,25.3z"/>
		<path class="st10" d="M20.9,9.2c0.9,2.2,0.8,4.5,0.1,6.6c-0.4-0.2,0-1-0.7-1.2c-0.5-0.8-0.1-1.7-0.1-2.5c0.1-0.5,0.2-0.9,0-1.4
			c-0.1-0.2-0.1-0.5,0-0.8C20.3,9.6,20.4,9.2,20.9,9.2z"/>
		<path class="st18" d="M5,24.6c-0.4-0.1-0.7-0.5-0.7-1c-0.1-0.1-0.1-0.3-0.1-0.5c0.2-0.2,0.5-0.3,0.7-0.2c0.4,0.1,0.9,0.3,1.4,0
			c0.2-0.1,0.4-0.2,0.8-0.2c0.6,0,1.2,0.1,1.4,0.7c0,0.9-0.1,1.7-1.4,1.5C6.4,24.9,5.7,24.3,5,24.6z"/>
		<path class="st19" d="M10.1,1.5C9.1,2,9.1,1.3,8.9,0.7c0.7-0.9,1.8-0.7,2.8-0.5c0.4,0.4,1.1,0.1,1.6,0.4l0,0
			C13.5,1,13,1.2,12.8,1.4C12.4,1.6,12,1.8,11.6,2c-0.1-0.4-0.4-0.6-0.7-0.9C10.5,1,10.3,1.2,10.1,1.5z"/>
		<path class="st3" d="M11,9.2c0.2-0.8-0.6-1.9,0.9-2.1c-0.3,1.9,1.3,3,2.3,4.2c0,0.1,0,0.2,0,0.4C12.5,11.6,12.1,10.1,11,9.2z"/>
		<path class="st20" d="M2.2,12c-0.3,0-0.6-0.1-0.8-0.5c-0.4-0.3-0.2-0.7-0.2-1c-0.1,0-0.1-0.1-0.2-0.1C0.8,9.5,0.4,8.5,1.5,7.9
			C1.6,7.9,1.6,8,1.7,8C4.4,9.2,2.3,10.7,2.2,12z"/>
		<path class="st19" d="M20.6,10.3c0,0.3,0,0.5-0.1,0.8c-0.2,0.8-0.6,0.6-1,0.1c-0.4-0.5-1.2,0.1-1.6-0.3c0-0.8,0.6-1.1,1.2-1.4
			c0.7-0.2,0.1-2.1,1.6-1.3c0,0.1,0,0.2,0,0.4C20.5,9,20.4,9.6,20.6,10.3z"/>
		<path class="st21" d="M4.4,23.2c0,0.2,0,0.3,0,0.5c-0.6-0.2-1-0.5-1.4-1c0.8-0.7,0.7-1.9,1.3-2.7c0.7-0.1,0.7,0.4,1,0.8
			c0.1,0.3,0.1,0.5-0.1,0.8C4.9,22.1,4.9,22.8,4.4,23.2z"/>
		<path class="st22" d="M20.9,16.9c0.1,1.3-0.4,2.5-0.9,3.6c-0.5,0-0.9-0.3-1.1-0.8c-0.1-0.4,0-0.7,0.1-1.1c0.5-0.6,0.6-1.4,1.1-1.8
			C20.4,16.7,20.6,16.7,20.9,16.9z"/>
		<path class="st23" d="M18.5,12.7c-0.8-0.2-1.7-0.4-2.5-0.4c-0.7-0.1-0.8-0.3-0.9-0.9c1,0.7,1.8-0.1,2.7-0.3
			c0.4,0.1,0.7,0.4,0.9,0.8c0.1,0.1,0.1,0.3,0.1,0.4C18.7,12.5,18.7,12.6,18.5,12.7z"/>
		<path class="st24" d="M7,24.5c1.2,0.6,0.9-0.5,1.3-1c0.2-0.3,0.7-0.3,1-0.2c0.3,0.1,0.5,0.2,0.6,0.5c0.1,0.4-0.6,0.3-0.6,0.7
			c-0.1,0.3-0.3,0.7-0.5,1c-0.6-0.1-1.3-0.1-1.9-0.2C6.7,25,6.7,24.8,7,24.5z"/>
		<path class="st25" d="M20.7,8.2c-1.2-0.3-0.7,1.2-1.6,1.3c0.1-1,0.1-2.1,0.8-3C20.6,6.8,20.8,7.5,20.7,8.2z"/>
		<path class="st26" d="M17.1,23.5c-0.8-0.2-0.7-0.7-0.5-1.2c0.1-0.3,0.2-0.6,0.4-0.9c0.2-0.2,0.6-0.4,1-0.3
			c0.4,0.1,0.6,0.4,0.7,0.7C18.5,22.7,17.8,23.1,17.1,23.5z"/>
		<path class="st27" d="M18.5,21.8c-0.3-0.1-0.6-0.4-0.8-0.5c-0.4-0.8,0.2-1.3,0.8-1.7c0.2-0.1,0.3-0.1,0.5,0
			c0.3,0.3,0.6,0.6,0.8,0.9C19.5,21,19,21.4,18.5,21.8z"/>
		<path class="st24" d="M20.9,16.9c-0.2,0-0.4,0-0.6-0.1C20,17,19.7,17,19.5,17c-1.2-1.5,0.6-1.7,1.3-2.2c0.4,0.1,0.4,0.1,0.3,1.1
			C20.9,16.2,20.9,16.5,20.9,16.9z"/>
		<path class="st28" d="M2.2,6.5c-0.1-0.9,0.3-1.5,1-2c0.5,0.2,1.4-0.2,1.6,0.7C4.5,5.7,4.1,5.8,3.6,5.8c-0.3,0-0.3,0-0.2,0.8
			C3.3,6.7,3.2,6.9,3,6.9C2.6,7.1,2,7.3,2.2,6.5z"/>
		<path class="st29" d="M18.5,12c-0.2-0.3-0.5-0.5-0.7-0.9c0-0.1,0-0.2,0.1-0.3c0.7,0.7,1.1-1.5,1.8-0.1c-0.3,0.3-0.1,0.7-0.2,1.1
			C19.3,12.3,18.9,12.1,18.5,12z"/>
		<path class="st30" d="M4.6,5.3C4.4,4.7,3.5,5.1,3.2,4.5c0.2-0.1,0.5-0.3,0.7-0.3c0.5-0.3,0.8-0.6,1.3-0.3c0.5,0.5,0.9,1.2,0,1.7
			C5,5.6,4.7,5.4,4.6,5.3z"/>
		<path class="st31" d="M2.2,6.5C2.4,6.9,2.7,6.8,3,6.7c0.2,0.2,0.4,0.2,0.5,0.5c-0.2,1-1,0.8-1.8,0.9L1.6,8
			C1.7,7.4,1.1,6.6,2.2,6.5z"/>
		<path class="st32" d="M7,24.5C7,24.7,7,25,7,25.2c-0.8,0-1.4-0.1-1.9-0.6C5.5,23.4,6.3,24.6,7,24.5z"/>
		<path class="st33" d="M7.3,1.9c0,0.1,0,0.3,0,0.4C7.1,2.5,6.9,2.6,6.7,2.7C6.4,2.8,6.1,2.9,5.8,3C5.7,3,5.5,3.1,5.3,3
			C5.1,2.9,4.9,2.6,4.9,2.4C5.4,1.4,6.3,1.3,7.3,1.9z"/>
		<path class="st34" d="M8.2,0.5c0,0.6-0.1,1.2-0.9,1.4C6.7,1,7,0.5,8.2,0.5z"/>
		<path class="st35" d="M4.9,2.4C5,2.5,5.2,2.7,5.3,2.9C5.5,3.3,5.5,3.7,5.1,4C4.6,4,4.2,4.1,3.8,4.2C4,3.5,4.3,2.9,4.9,2.4z"/>
		<path class="st5" d="M15.1,1.5c0.2,0.3,0.4,0.5,0.6,0.9c-0.5,0-1,0.5-1.5-0.1c0-0.2,0-0.5,0.1-0.7c0.1-0.2,0.2-0.2,0.4-0.1
			C15,1.4,15.1,1.5,15.1,1.5z"/>
		<path class="st28" d="M13.3,0.5c-0.5,0-1.5,1.2-1.6-0.4C12.3-0.1,12.8,0,13.3,0.5z"/>
		<path class="st28" d="M14.8,1.3c-0.1,0-0.3,0.1-0.4,0.1c-0.5,0-1.1-0.1-1.6-0.1c0.1-0.3,0.4-0.5,0.5-0.8
			C13.7,1.1,14.7,0.4,14.8,1.3z"/>
		<path class="st36" d="M12,25.3c0.2-0.4,0.9-0.4,0.8-0.9c0.1-0.2,0.2-0.2,0.3-0.1c0.1,0.4,0.3,0.8,0.3,1.1
			C13,25.4,12.4,25.3,12,25.3z"/>
		<path class="st37" d="M12.4,5.3c-0.4,0-0.7-0.1-1.2-0.1C11,5,11,4.7,11.3,4.5c0.4,0,0.9,0.1,1.3,0.1C12.5,4.8,12.5,5,12.4,5.3z"/>
		<path class="st38" d="M20.6,10.3c-0.5-0.6-0.4-1.2,0.1-1.8c0,0.2,0.1,0.4,0.1,0.6C20.7,9.6,20.7,9.9,20.6,10.3z"/>
		<path class="st39" d="M13.2,24.2c-0.1,0-0.2,0-0.3,0.1c-0.5,0-1.1-0.2-1.6-0.5c-0.8,0-0.4-0.6-0.7-0.9c-0.5-0.3-0.5,0.3-0.7,0.3
			c-0.1,0.2-0.5,0.3-0.6,0.4c-0.4,0-0.7-0.1-1.2-0.1c-0.3-0.6-0.9-0.4-1.5-0.6c-0.4,0-0.5-0.3-0.6-0.6c-0.1-0.3-0.4-0.5-0.6-0.7
			c-0.3-0.2-0.4-0.7-0.7-1c-0.2-0.2-0.5-0.5-0.7-0.8c-1-1.2-1.4-2.5-1.9-3.9c0-1.1-0.6-2.3,0.2-3.2c-0.4-0.7,0.2-1,0.7-1.2
			c2.4-0.5,2.6-0.3,2.9,2.9c0.1,0.3,0.1,0.5-0.1,0.8c-0.6,0.4-0.4,0.6,0.1,0.8c0.2,0.3,0.3,0.6,0.4,0.9c0.1,0.5,0.5,0.8,0.6,1.3
			c0.1,0.1,0.2,0.2,0.3,0.4c0.2,0.3,0.6,0.6,0.9,0.7c0.5,0.3,1,0.6,1.4,1c0.3,0.6,0.8,0.8,1.5,0.6c0.3-0.1,0.5-0.1,0.9,0
			c0.5,0,1,0.1,1.4,0.5c0.2,0.4,0.5,0.8,0.6,1.3c0.3,0.2,0.3,0.5,0,0.8c-0.5-0.2-1.1-0.3-1.4,0.2C12.7,23.7,13.1,24,13.2,24.2z"/>
		<path class="st40" d="M3.4,11.8c-0.5,0.3-0.8,0.5-0.8,1c-0.1-0.2-0.2-0.5-0.3-0.7c-0.1-1-0.5-2,1.2-2.8C1.7,9.9,1.6,9.2,1.8,8.2
			c0.3-0.7,1.5-0.1,1.6-1C4.2,7,4.4,7.5,4.6,8c0,0.7,0,1.4-0.1,2.1c-0.2,0.4-0.5,0.8-0.5,1.2C3.9,11.5,3.6,11.7,3.4,11.8z"/>
		<path class="st41" d="M1.2,10.6c0.4,0.3,0.2,0.7,0.2,1C0.3,11.5,0.7,11,1.2,10.6z"/>
		<path class="st42" d="M11,9.2c1.2-0.3,1,1,1.7,1.2c0.6,0.3,0.9,1.1,1.6,1.2c0.9,0.8,0.9,1.7,0.1,2.5c-0.3,0.5,0,0.8,0.1,1.2
			c0,0.2,0,0.3-0.1,0.5c-0.5,0.5-0.7,1.1-1.7,0.9c-0.3-0.1-0.2-0.4-0.3-0.6c-0.1,0.3-0.2,0.7-0.6,0.9c-0.3,0-0.5-0.1-0.7-0.3
			c-0.3-1.6-1.1-2.9-2.6-3.9c-0.5-0.3-0.7-1.1-0.3-1.6c0.5-0.5,1-0.6,1.6-0.9C10.6,10.1,10.6,9.5,11,9.2L11,9.2z"/>
		<path class="st43" d="M20.6,14.7c0,0.9-1.7,0.9-1.2,2C19,17.6,19,17.6,17.6,17c-0.3-0.2-0.4-0.5-0.5-0.9c0-0.2,0.1-0.3,0.2-0.4
			c0.7-0.5,0.4-1.4,0.9-1.9c0-0.4,0.1-0.7,0.1-1.1c0-0.1,0-0.2,0-0.3c0.2-0.4,0.8,0,1.1-0.2c0.3-0.1,0.6-0.3,0.9,0
			C21,13,20.1,13.9,20.6,14.7z"/>
		<path class="st44" d="M17.4,15.8c0,0.1,0,0.2,0,0.4c-0.1,1-1.1,0.4-1.6,0.8c-0.2,0-0.3,0-0.5,0c-0.5-0.3-0.9-0.8-1.1-1.4
			c0-0.1,0-0.2,0-0.2c0.1-0.2,0.2-0.4,0.5-0.4c1-0.2,1.8,0.2,2.6,0.6C17.4,15.7,17.4,15.8,17.4,15.8C17.5,15.8,17.4,15.8,17.4,15.8z
			"/>
		<path class="st3" d="M17.4,15.8c0-0.1,0-0.2,0-0.3c0.1-0.7,0.2-1.3,0.9-1.7C18.1,14.5,18.9,15.6,17.4,15.8z"/>
		<path class="st45" d="M14.8,14.9c-0.1,0.1-0.3,0.3-0.5,0.4c-1.1-0.5,0-0.7,0.1-1.1C14.5,14.4,14.7,14.7,14.8,14.9z"/>
		<path class="st46" d="M11.4,4.5c0,0.2,0,0.5-0.1,0.7c-0.1,0.1-0.2,0.2-0.5,0.4c-0.1,0.2-0.2,0.3-0.5,0.4c-0.2,0-0.5,0-0.7-0.1
			C9.4,6.1,9.2,6.3,8.8,6.3C8.4,6.1,8.1,6,7.9,5.7c0-0.6,0.5-1,0.8-1.4C8.8,4,9.2,3.8,9.4,3.6C10.4,3.4,10.8,4.1,11.4,4.5z"/>
		<path class="st47" d="M6.4,2.3c0.3,0,0.5,0,0.9,0.1c0.6,0.4,1.4-0.6,2,0.2C9.2,2.8,9.1,3.2,9,3.5C8.3,3.6,7.8,3.8,7.2,3.6
			C6.7,3.2,6.2,2.9,6.4,2.3z"/>
		<path class="st4" d="M7.2,3.3c0.6,0.5,1.3-1,1.8,0.2c0.2,0,0.4,0.1,0.5,0.1c0,0.3-0.2,0.6-0.5,0.7C8.5,4.6,7.8,4.4,7.3,4.3
			C7.1,4.3,7,4.2,6.9,4C6.9,3.7,7,3.4,7.2,3.3z"/>
		<path class="st12" d="M13.4,21.3c-0.5,0-1.1-0.1-1.5-0.1c-1.1-0.7-1.8-1.6-0.4-2.6c0.5,0.1,0.9,0.7,1.5,0.1
			c0.6,0.2,0.8,0.8,1.2,1.1c0.2,0.2,0.3,0.4,0.3,0.6c0,0.1-0.1,0.2-0.1,0.2C14,20.9,13.8,21.1,13.4,21.3z"/>
		<path class="st48" d="M14.1,23.4c0-0.3-0.1-0.5,0-0.8c0.2,0,0.3,0.1,0.5,0.1c0.4,0,0.9,0.1,1.1,0.5c0.1,0.1-0.2,0.4-0.4,0.6
			C14.8,24.1,14.5,23.7,14.1,23.4z"/>
		<path class="st49" d="M15.8,22.3c-0.3,0-0.6-0.1-0.8-0.5c-0.2-0.3-0.3-0.6,0.1-1c0.7-0.2,0.7,0.3,1,0.7
			C16.1,21.8,15.9,22,15.8,22.3z"/>
		<path class="st50" d="M15.8,22.3c0-0.2,0-0.4,0.1-0.7c0.5-1,0.8-0.2,1.2,0.1c0,0.3,0,0.5-0.4,0.6C16.3,21.8,16,22.3,15.8,22.3z"/>
		<path class="st51" d="M15.1,20.8c0,0.4-0.1,0.7-0.1,1.1c-0.9-0.1-0.7-0.7-0.7-1.2l0,0c0.2-0.2,0.4-0.2,0.7-0.1
			C15,20.7,15.1,20.7,15.1,20.8z"/>
		<path class="st52" d="M10.1,10.6c-0.6,0.3-1,0.6-1.7,0.6c-0.2,0-0.5,0-0.7-0.2c-0.6-0.4-1-0.9-1.4-1.3C6,8.8,5.9,8,7.1,7.7
			c0.6,0.1,1.3,0.1,2,0.1c0.2,0,0.3,0.1,0.4,0.3c0.4,0.5,0.7,1.1,1.1,1.5C11,10.1,10.5,10.3,10.1,10.6z"/>
		<path class="st46" d="M9.5,7.9c-0.1,0-0.2,0-0.4-0.1C8.5,7.6,8.4,7.1,8.6,6.7c0.2-0.3,0.5-0.6,0.9-0.2C10,7.1,9.4,7.5,9.5,7.9z"/>
		<path class="st3" d="M10.1,10.6c0.1-0.4,0.3-0.7,0.4-1.1c0.1-0.1,0.3-0.2,0.5-0.4C10.9,9.8,11.7,10.8,10.1,10.6z"/>
		<path class="st53" d="M10.4,5.8c0.1-0.1,0.2-0.2,0.5-0.4c0.3,0.5,0,0.8-0.3,1.2C10.5,6.4,10.5,6.1,10.4,5.8z"/>
		<path class="st40" d="M9.6,6.5C9.4,6.6,9,6.7,8.8,6.8c-0.1,0-0.2-0.1-0.2-0.1C8.5,6.4,8.1,6,8.9,6.1C9.1,6,9.4,5.9,9.7,5.7
			C9.6,6,9.6,6.3,9.6,6.5z"/>
		<path class="st36" d="M10.1,1.5C10,1.2,9.6,0.8,10.2,0.6c0.4-0.2,0.6,0.3,0.7,0.6C10.7,1.4,10.5,1.4,10.1,1.5z"/>
		<path class="st34" d="M9.4,23.6c0.1-0.1,0.2-0.3,0.4-0.4c0.4-0.2,0.4-1.3,1.2-0.6c0.1,0.4,0.3,0.7,0.3,1.1
			c-0.2,0.4-0.8,0.3-1.2,0.3c-0.2,0.1-0.3,0.1-0.4,0C9.7,23.8,9.6,23.7,9.4,23.6z"/>
		<path class="st54" d="M9.8,24c0.1,0,0.3,0,0.4,0c0.1,0.2,0.2,0.4,0.4,0.6c-0.4,0.2-0.8-0.2-1.2-0.3C8.9,23.7,9.6,24.1,9.8,24z"/>
		<path class="st55" d="M20.4,12.1c-0.2,0.1-0.4,0.2-0.7,0.2c-0.4-0.1-0.2-0.5-0.4-0.8c0-0.4,0-0.8,0.4-1c0.1,0.5,0.1,0.9,0.8,0.4
			C21.2,11.4,20.6,11.8,20.4,12.1z"/>
		<path class="st56" d="M4.4,23.2c0.2-0.6-0.1-1.3,0.5-1.8c1,0.2,0.4,0.8,0.5,1.2c0,0.2-0.1,0.5-0.4,0.6C4.9,23.2,4.6,23.2,4.4,23.2
			z"/>
		<path class="st9" d="M6.5,22.2c0.1,0.2,0.2,0.4,0.4,0.7c-0.1,0.1-0.3,0.3-0.5,0.4c-0.7,0.3-0.9-0.1-0.9-0.6c0-0.3,0.3-0.5,0.6-0.7
			C6.2,22.1,6.3,22.1,6.5,22.2z"/>
		<path class="st28" d="M5.6,22.6c0,0.5,0.3,0.7,0.7,0.8c-0.5,0.5-0.8,0.4-1.2-0.1c0-0.2,0-0.5,0.2-0.7C5.3,22.4,5.5,22.5,5.6,22.6z
			"/>
		<path class="st57" d="M5.6,22.6l-0.2,0l-0.2,0c-0.6-0.3,0.2-0.9-0.3-1.1c0-0.2,0-0.5,0.1-0.7c0.3,0.2,0.5,0.4,0.8,0.8
			c0.2,0.2,0.4,0.5,0.3,0.8C5.8,22.4,5.7,22.5,5.6,22.6z"/>
		<path class="st36" d="M15.8,16.8c0-1.3,1.3,0.1,1.6-0.6c0.3,0.2,0.4,0.5,0.4,0.8c0.3,0.6,1.7,0.5,1.5,1.6c0,0.3-0.1,0.7-0.2,1
			c-0.1,0-0.3,0-0.4,0C17.6,18.7,16.5,17.9,15.8,16.8z"/>
		<path class="st58" d="M19.2,18.6c-0.3-0.7-1.6-0.6-1.5-1.6c0.5-0.5,1.2,0.7,1.6-0.3c0.3,0,0.5,0,0.9,0.1
			C20.1,17.5,20,18.2,19.2,18.6z"/>
		<path class="st24" d="M19.4,11.7c0.3,0.1,0.4,0.5,0.4,0.8c-0.5,0.4-0.8-0.3-1.2,0c0-0.1,0-0.3,0-0.4
			C18.7,11.6,19.2,12.1,19.4,11.7z"/>
		<path class="st59" d="M15.8,16.8c1.2,0.7,2.5,1.4,2.8,2.8c-0.3,0.6-0.6,1.2-0.9,1.7c-0.2,0.1-0.4,0.2-0.8,0.3
			c-0.4,0.1-0.7-0.5-1.2-0.1c-0.2-0.3-0.5-0.5-0.7-0.9l0,0c-0.4-0.4-0.9-0.8-1.3-1.2c-0.5-0.6-0.2-1.3,0-2c0.3-0.7,0.8-1,1.7-0.8
			C15.5,16.8,15.6,16.8,15.8,16.8z"/>
		<path class="st46" d="M4.4,7.9C4,7.7,3.7,7.4,3.3,7.1C3.2,7,3.1,6.9,3,6.7c0.1,0,0.2,0,0.3,0c0.5-0.3-0.2-0.7,0.2-1
			c0.3-0.1,0.8-0.2,1.1-0.3c0.1,0,0.2,0,0.3,0c0.4,0.3,0.6,0.7,0.4,1.1C5.2,7,5,7.6,4.4,7.9z"/>
		<path class="st54" d="M3.4,5.6c0.1,0.3,0.6,0.8-0.2,1C3.7,6.4,1.9,5.8,3.4,5.6z"/>
		<path class="st60" d="M5.4,6.5c-0.1-0.3-0.3-0.7-0.3-1C5.9,5,4.9,4.4,5.2,4c0-0.4,0.1-0.8,0.2-1.1c0.1,0,0.2,0,0.3,0
			c1-0.1,0.8,1.1,1.5,1.2l0,0C7.6,5,7.5,5.7,6.9,6.4C6.6,6.7,6.2,6.9,5.7,6.7C5.5,6.6,5.4,6.5,5.4,6.5z"/>
		<path class="st35" d="M7.1,4C6,4.2,6.3,3,5.6,2.8c0.1-0.3,0.5-0.5,0.8-0.6c0.3,0.3,0.5,0.6,0.8,1.1C7.2,3.5,7.1,3.8,7.1,4z"/>
		<path class="st61" d="M6.1,16.1c-0.7-0.1-0.5-0.4-0.3-0.8c0.6-0.2,0.8-0.5,1.1-0.9s0.7-0.6,1.1-0.8c1-0.3,2.1-0.2,2.5,0.6
			c0.5,0.9,0.2,1.9-0.9,2.6c-0.9,0.2-1.8,0.5-2.7,0.3C6.5,16.9,6.4,16.4,6.1,16.1z"/>
		<path class="st62" d="M6.9,16.8c0.9,0,1.8,0,2.7-0.1c0.2-0.2,0.6-0.2,0.9,0.1c0.4,0.7,0.1,1.2-0.4,1.8c-0.1,0.1-0.3,0.2-0.4,0.2
			C9.4,18.8,9.4,18,9,18.5c-0.2,0.3-0.4,0.8-0.7,0.9c-0.5,0-1.1-0.2-1.1-0.8c0.1-0.1,0.3-0.3,0.3-0.5c-0.1,0.1-0.1,0.2-0.2,0.2
			c-0.4-0.3-0.9-0.7-1-1.3C6.3,16.8,6.5,16.5,6.9,16.8z"/>
		<path class="st63" d="M11.7,18.7c-1.3,0.9,0,1.7,0.2,2.5c-0.2,0-0.4,0.1-0.8,0c-1-0.1-1.1-0.8-1.3-1.4c0.3-0.3,0.1-0.7,0.1-1
			c0.5-0.7,0.9-1.2,0.6-2.1c0.2-0.3,0.5-0.5,0.9-0.2c0.1,0.1,0.3,0.2,0.4,0.3c0.1-0.1,0.2-0.2,0.4-0.1c0.3,0.2,0.6,0.5,0.9,0.8
			c0.6,0.8-0.2,0.9-0.6,1.3C12.3,19,12,18.8,11.7,18.7z"/>
		<path class="st62" d="M3.4,11.8c0.1-0.2,0.4-0.5,0.5-0.7c0.7-0.7,1.3-0.7,2,0c0.3,0.3,0.5,0.8,0.5,1.2c0.1,0.6,0,1.3-0.3,1.9
			c-0.1,0.2-0.2,0.3-0.5,0.4c-0.3-0.3-0.3-0.6-0.2-1C5.8,11.9,5,11.4,3.4,11.8z"/>
		<path class="st64" d="M10.2,18.9c0,0.2,0.4,0.5-0.1,0.7c-0.2,0.3-0.1,0.7-0.5,0.9c-0.5-0.3-0.9-0.8-1.4-1.1c0-0.5-0.1-1,0.4-1.4
			c0.2,0.2,0.5,0.4,0.8,0.4c0.1,0,0.1,0,0.2,0C10,18.5,10.1,18.7,10.2,18.9z"/>
		<path class="st24" d="M9.5,20.6c0.1-0.3,0.2-0.7,0.5-0.9c0.4,0.5,0.8,1.1,1.2,1.6C10.4,21.6,9.6,21.7,9.5,20.6z"/>
		<path class="st65" d="M10.9,22.7c-0.6-0.2-0.8,0.5-1.2,0.6c0.1-0.5-0.2-1.1,0.5-1.3C10.8,21.8,11.1,22.1,10.9,22.7z"/>
		<path class="st62" d="M7,14.7c-0.2,0.7-0.3,1.2-1.2,0.6c0-0.2-0.1-0.4-0.1-0.6l0.1-0.1c0.2-0.2,0.4-0.2,0.8-0.1
			C6.8,14.4,6.9,14.5,7,14.7z"/>
		<path class="st66" d="M5.9,22.2c-0.3-0.2-0.4-0.5-0.3-0.8c0.4,0.1,1.1,0.1,0.8,0.9C6.3,22.2,6.2,22.2,5.9,22.2z"/>
		<path class="st67" d="M7,18.4c0.1-0.3,0.1-0.5,0.3-0.8c0,0.4,1.1,1-0.2,1.1C7,18.6,7,18.5,7,18.4z"/>
		<path class="st68" d="M6.9,16.8C6.6,16.8,6.4,17,6,17.1c0-0.4,0.1-0.7,0.1-1.1C6.5,16.1,6.9,16.3,6.9,16.8z"/>
		<path class="st5" d="M4.4,7.9c0-0.6,0.2-1.2,1-1.4l0,0c0.4,0.7,1.1,0.4,1.7,0.7c0.2,0.2,0.4,0.3,0.2,0.6c-0.9,0.3-0.7,1-0.6,1.7
			c0.3,0.4,0,0.7-0.3,1c-0.8,0.2-1.6,0.6-2.1-0.4C4.2,9.3,3.7,8.6,4.4,7.9z"/>
		<path class="st5" d="M4.3,10c0.6,0.6,1.3,0.1,1.9,0.2c0.3,0.5,0,0.9-0.5,1.1c-0.6-0.5-1.3-0.2-1.9-0.2C3.2,10.5,3.4,10.1,4.3,10z"
			/>
		<path class="st69" d="M6.6,14.5c-0.2,0-0.4,0-0.6-0.1C6,13.8,6,13.1,6.1,12.4c1.3,0.1,1.4-1,2.1-1.6c0.2-0.1,0.3,0.1,0.3,0.3
			c0.1,1,0.5,1.8,1.5,2.3c0.9,0.5,2,1,1,2.2c-0.1,0.1,0.3,0.6,0.5,0.9c-0.2,0.1-0.6,0.2-0.8,0.3c-0.1,0.2-0.3,0.1-0.4,0
			c-0.2,0-0.4,0-0.6-0.1c0.7-0.7,1.2-1.6,0.6-2.6C9.7,13.3,8.7,14,7.9,14C7.5,14.2,6.9,14.3,6.6,14.5z"/>
		<path class="st70" d="M13,17.7c-0.5,0-0.7-0.2-0.7-0.8c0-0.2,0.1-0.4,0.4-0.4c1,0.2,0.8-0.9,1.6-1.1c0.7,0.2,0.9,0.7,1.1,1.3
			c-0.6,0.3-1.1,0.3-1.3,1C13.7,18,13.4,17.4,13,17.7z"/>
		<path class="st45" d="M12.7,16.6c-0.1,0.1-0.2,0.3-0.4,0.4c-0.1,0-0.3-0.1-0.4-0.1c0.1-0.4,0.2-0.9,0.7-1
			C12.7,16,12.7,16.3,12.7,16.6z"/>
		<path class="st40" d="M7.2,7.8C7.1,7.7,6.9,7.5,6.8,7.4c-0.3-0.3-0.7-0.6-0.3-1c0.7-0.6,0.1-1.5,0.6-2.3c0.7-0.4,1.3,0,1.9,0.2
			c0.2,0.7-0.4,1-0.9,1.3c0.1,0.1,0.2,0.2,0.1,0.3C8.1,6.4,8,6.9,8.8,6.8l0,0C8.9,7.2,9,7.5,9.2,7.9C8.5,8.4,7.9,8.1,7.2,7.8z"/>
		<path class="st63" d="M8.8,6.8c-0.3,0.1-1,0.4-1,0.3c-0.4-0.5,0.4-1,0.3-1.5c0.3,0,0.6,0.2,0.7,0.5C8.4,6.2,8.8,6.6,8.8,6.8z"/>
		<path class="st68" d="M13,17.7c0.4-1.5,0.8,0,1.2,0.1c0.1,0.6-0.5,1.2-0.1,1.8c0.2,0.2,0.1,0.3,0,0.5c-1,0-0.3-1.2-1.2-1.3l0,0
			C12.7,18.4,13.5,18.2,13,17.7z"/>
		<path class="st71" d="M12.7,18.7C12.7,18.7,12.8,18.7,12.7,18.7c0.1,0.2,0.3,0.5-0.3,0.5c-0.4,0-0.9,0-0.7-0.6
			C12.1,18.4,12.3,18.8,12.7,18.7z"/>
		<path class="st13" d="M14,20c0-0.2,0-0.3,0-0.5c0.6,0.3,1,0.6,1.1,1.2c-0.2,0-0.5,0-0.7-0.1C14.1,20.6,14,20.4,14,20z"/>
		<path class="st72" d="M8.2,10.8c0,0.3,0,0.6-0.1,0.9c-0.2,1.3-0.8,1.5-2,0.7c-0.1-0.4-0.3-0.7-0.3-1.1c0.1-0.4,0.4-0.7,0.5-1.1
			C6.4,10,6.5,9.8,6.8,9.5C7.2,9.9,7.7,10.4,8.2,10.8z"/>
		<path class="st73" d="M6.5,6.3c0.1,0.3,0.2,0.7,0.3,1c-0.8,0-1.8,0.6-1.4-0.9C5.7,6.4,6.1,6.3,6.5,6.3z"/>
		<path class="st74" d="M6.6,14.5c0.2-0.7,0.8-0.6,1.3-0.6c-0.2,0.2-0.6,0.5-0.8,0.6C6.9,14.6,6.7,14.6,6.6,14.5z"/>
		<path class="st4" d="M10.4,16.7c0.1,0,0.2,0,0.4,0c1.2,1.1,0.3,1.5-0.6,2.1c-0.1-0.1-0.3-0.3-0.4-0.4
			C9.9,17.9,10.5,17.5,10.4,16.7z"/>
		<path class="st72" d="M9.5,18.5c-0.7,0.6-0.8,0.1-0.8-0.4C9.3,17.4,9.4,17.9,9.5,18.5z"/>
		<path class="st69" d="M5.8,8.8C5.6,9.1,5.4,9.3,5.2,9.2C5,9.1,4.9,8.8,4.9,8.6c0-0.2,0.3-0.5,0.6-0.3C5.6,8.4,5.7,8.6,5.8,8.8z"/>
	</g>
</g>
</svg>
