<svg xmlns="http://www.w3.org/2000/svg" viewBox="0 0 412.05 261.38"><defs><style>.cls-1{fill:#fff;}.cls-2{fill:#272525;}</style></defs><title>life</title><g id="color"><path class="cls-1" d="M326.16,154.35a19.19,19.19,0,0,0,4.29.69A21.53,21.53,0,0,0,326.16,154.35Z"/><path class="cls-1" d="M376.8,159.41c-5.5-1.53-11.19-1.6-16.84-2-1.78-.12-3.54-.28-5.31-.46a129.65,129.65,0,0,1,16.84,3.12c5.83,1.57,11.89,2.71,17.52,4.89a44.77,44.77,0,0,0,4.63,1.66,13.75,13.75,0,0,0,2.55.53,6.81,6.81,0,0,0,1.19.05c1,0,.82-.47.37-.83-2.17-1.17-4.85-1-7.23-1.25C385.52,164.6,381.59,160.74,376.8,159.41Z"/><path class="cls-1" d="M379.36,154.59c-3,0-5.9-.44-8.87-.47s-6,.12-9,0c-6.2-.27-12.34-.52-18.55-.5-5.65,0-11.38,0-16.92-1.22,0,.23,0,.47,0,.69s0,.4,0,.6c2,0,3.93.89,6,.89,3,0,6.07-.1,9.11-.2a165.16,165.16,0,0,1,18.88.16c3,.24,6,.56,9,1a47.63,47.63,0,0,0,9.52.86,85.47,85.47,0,0,0,9.83-1.25c1.12-.2,2.28-.31,3.38-.6.16,0,1.49-.58,1.55-.56a3.64,3.64,0,0,0-1.35-.26C387.68,153.55,383.5,154.52,379.36,154.59Z"/><path class="cls-1" d="M325,143.28a.2.2,0,0,1,.28-.12c2.22-1.73,5.34-2.41,8-3a63.09,63.09,0,0,0,6.65-1.89,40.93,40.93,0,0,1,6.85-2c1-.17,2.79-.55,3.46.55,1.28,2.11-6.8,4.22-7.79,4.52-5.53,1.67-11.25,2.52-16.78,4.22.1.4.17.81.23,1.22a68.87,68.87,0,0,0,15.88-4.3c4.71-1.85,9.52-4.91,14.59-5.66s10.66.75,15.86,1.17c2.62.21,5.89,1.06,8.47.51,1.05-.23-.65-.61-.95-.65-.82-.13-1.64-.21-2.47-.26-1.67-.09-3.33-.27-5-.43-5.46-.54-10.93-1.08-16.41-1.25a55.82,55.82,0,0,0-16.64,1.57,90.38,90.38,0,0,0-14.77,5s-.06,0-.1,0a8.64,8.64,0,0,1,.53.95Z"/><path class="cls-1" d="M350.56,164c4.08,1,8.17,2,12.2,3.17,3.87,1.14,7.56,2.76,11.39,4,.94.3,2.57-1.23,1.3-1.58l-.8-.23-3.3-.94-6.6-1.93c-4.41-1.31-8.82-2.62-13.26-3.84s-8.6-2.21-13-3.05c-2.1-.41-4.21-.8-6.28-1.37a39.12,39.12,0,0,0-6.47-1.49s0,.1,0,.16a.14.14,0,0,1,.09,0A256,256,0,0,0,350.56,164Z"/><path class="cls-1" d="M352.66,150.81c3,.07,5.85.41,8.8.64.36,0,3.21,0,2-.56a9,9,0,0,0-2.34-.63,90.86,90.86,0,0,0-13.3-.85c-3-.06-6-.11-9,0-4.26.09-8.53.79-12.79.81,0,.19,0,.39,0,.59,4.36-.32,8.8-.07,13.17,0S348.18,150.7,352.66,150.81Z"/><path class="cls-1" d="M385,161.45c-1.14-1.25-1.7-3.14-.21-4.34a6,6,0,0,1,2.54-1.1l-.37.06a69.56,69.56,0,0,1-8.51,1c-5.91.27-11.88-1.28-17.76-1.75a165,165,0,0,0-18.87-.25h-.17c1.65.06,3.3.16,4.94.29,5.8.44,11.56,1.15,17.38,1.48,5.2.29,10.67.6,15.56,2.59,2.39,1,4.5,2.42,6.82,3.52,2.52,1.18,4.9,1.31,7.61,1.58.43,0,.87.09,1.3.15l-2.19-.37C390.46,163.88,386.83,163.51,385,161.45Z"/><path class="cls-1" d="M163.92,73.25a4.23,4.23,0,0,0-3.55-.16A46.47,46.47,0,0,0,151,77.63c-3,1.72-5.84,3.55-8.77,5.3a84.62,84.62,0,0,1-11.1,5.14C121,92.29,110.72,94.9,99.82,92.41a.44.44,0,0,1,0-.85c18.24-3.52,22-24.76,34-36.09a34.69,34.69,0,0,1,8.78-6.11c2.79-1.38,6.82-3,8.35-5.93a4.07,4.07,0,0,0-2-5.37,5.45,5.45,0,0,0-4.53.52c-4.41,2.2-8,6.17-11.17,9.82-4.17,4.75-8,9.8-11.64,14.93-3,4.16-5.85,8.4-8.75,12.61-.78,1.13-1.54,2.28-2.39,3.35-2.09,2.63-5.27,4.82-8.07,6.63C85.88,96.58,65.49,96.41,47.12,91.36c-1.13,0-2.22.72-1.52,2A3.89,3.89,0,0,0,47,94.82a5.94,5.94,0,0,0,2.14.63h.07l.46.08.76.1,0,0c7.92,1.26,15.9,2.13,23.87,3,7.54.84,15.12,1.49,22.72,1.62,15.14.24,30.6-1.47,44.6-7.62a80.25,80.25,0,0,0,14.37-8.09c2.78-2,6-3.9,8.16-6.59C165.53,76.38,166.13,74.42,163.92,73.25Z"/><path class="cls-1" d="M345.14,145.37c1.42-1,0-1.62-1.21-1.25a19.64,19.64,0,0,0-2.31.89,24,24,0,0,1-4,1.29c-3.83.91-7.79,1.24-11.6,2.24v.14c3.7-1.06,7.56-1,11.37-1.28C340.06,147.17,342.86,146.88,345.14,145.37Z"/><path class="cls-1" d="M297.66,176.44c-3.48-.95-7-1.79-10.41-3.08-2.4-.91-4.92-2-6.65-4-.39.2-.76.41-1.13.63,1.41.9,2.75,1.91,4.26,2.68a56.15,56.15,0,0,0,5.56,2.45A82.47,82.47,0,0,0,300,178.29c2.49.56,6.13,1.21,7.68,3.53a3.85,3.85,0,0,1-.6,5.4c-1.77,1.49-4.84,2.11-7.06,2.34a25.28,25.28,0,0,1-10.86-1.46c-7-2.45-13.33-7.37-20.78-8.48-.13.15-.26.3-.38.46h.22c9.23.68,15.81,9.07,25,10.11a40.93,40.93,0,0,0,8,.18c2.71-.22,6.95-.65,8.56-3.25C313.8,180.52,301.62,177.53,297.66,176.44Z"/><path class="cls-1" d="M323,140.52c5.1-2.05,10.13-4.44,15.51-5.65a66.34,66.34,0,0,1,17.73-1.31c5.24.25,10.36,1.23,15.56,1.65,2.71.22,5.42.38,8.12.74,1.81.24,5.16.4,6.45,2s-.65,2.39-1.94,2.53c-3.36.36-6.89-.15-10.25-.29-4.61-.18-9.32-1.1-13.93-.84a34.61,34.61,0,0,0-8.52,1.37c-1.09.35-2.85.85-3.42,2-.88,1.76,1.62,2.79,2.88,3.09,5.5,1.29,10.94,2.78,16.48,3.94s11.84,2.69,17.68,2.47c3.25-.13,6.86-.69,10,.39,1,.34,2.64,1.86,1.26,2.8s-3.88.86-5.57,1c-1.29.12-4.94.18-6,1.57a.33.33,0,0,1,.1-.06c2.79-.9,5.77-.75,8.66-.79s6.18,0,8.53-1.94c-2.71-2.74-7.11-3.55-10.74-4.18s-7.56-1.22-11.33-1.82c-10.17-1.62-20.84-1.57-30.57-5.26a.46.46,0,0,1-.2-.76c3.26-2.82,8-3,12.09-2.78,7.45.36,14.69,1.93,22.12.36,1.17-.24,4.12-.68,4.47-2.14s-1.83-2.3-3-2.63a53.21,53.21,0,0,0-9.4-1.41,187.59,187.59,0,0,0-27.32-1.36c-9.16.38-18.81,1.8-26.6,7a5.73,5.73,0,0,1,1,.64A.22.22,0,0,1,323,140.52Z"/><path class="cls-1" d="M389.42,155.69l1.31-.12c.53,0,6-.43,5.49-1.31-.69-1.22-2.6-1.4-4.07-1.43a2.51,2.51,0,0,1,2,1.07.36.36,0,0,1-.13.5A14,14,0,0,1,389.42,155.69Z"/><path class="cls-1" d="M345.58,139.55c.26-.09,4.8-2.11,3.8-2.56-1.53-.68-4.07.31-5.56.75-1.7.51-3.37,1.09-5,1.69-4.62,1.68-9.4,2-13.63,4.61.11.27.2.54.29.81,4.86-1.48,9.88-2.25,14.77-3.61C342,140.74,343.83,140.21,345.58,139.55Z"/><path class="cls-1" d="M298.93,184.11a162.3,162.3,0,0,1-15.88-4.53,68.6,68.6,0,0,1-6.47-2.65,6.24,6.24,0,0,1-3.19-2.53c-.78.69-1.54,1.41-2.27,2.15,2.68.24,5.25,1.57,7.69,2.62,3.66,1.57,7.23,3.41,11,4.78a23.19,23.19,0,0,0,9.42,1.67c2.24-.16,4.72-1.85,1.83-3.25-3.16-1.53-6.88-1.84-10.31-2.38a39.16,39.16,0,0,1-7.21-2,27.37,27.37,0,0,1-4.32-1.93c-1.5-.86-2.86-2.12-4.46-2.78-.38.3-.74.61-1.1.92,1.08,1.67,3.63,2.4,5.39,3.07,2.11.8,4.25,1.51,6.39,2.23,4.51,1.52,9.14,2.63,13.76,3.73C299.76,183.35,299.52,184.25,298.93,184.11Z"/><path class="cls-1" d="M339.08,157.82c4.71,1,9.46,1.62,14.17,2.54a94.67,94.67,0,0,1,13.58,3.41c3.07,1.08,6.64,2.92,10,2.8,1.92-.07-.51-1.55-1.08-1.74s-1.24-.36-1.86-.56c-2.11-.67-4.25-1.25-6.4-1.79-4.57-1.15-9.12-2.45-13.73-3.45a90,90,0,0,0-14.92-1.58l-2-.12C337.58,157.5,338.33,157.67,339.08,157.82Z"/><path class="cls-1" d="M342.08,155.87c-1.17-.05-2.35,0-3.55,0,3.59.18,7.18.3,10.77.57C346.9,156.19,344.49,156,342.08,155.87Z"/><path class="cls-1" d="M334.43,161.93c3.73,1.36,7.48,2.67,11.19,4.07s7.34,2.34,10.95,3.69a36.62,36.62,0,0,1,4.36,1.9c1.36.71,3.91,2.44,5.49,1.8,1-.39-1.94-1.86-2.06-1.9-.66-.2-1.32-.38-2-.52-1.48-.33-2.91-.74-4.36-1.19-3.77-1.19-7.57-2.3-11.31-3.59s-7.48-2.74-11.19-4.17c-3.37-1.3-6.52-2.82-10.13-3.13,0,.16-.08.32-.13.48C328.52,159.35,331.42,160.84,334.43,161.93Z"/><path class="cls-1" d="M351.83,139.84a38,38,0,0,1,8.15-1.28c4.47-.25,9,.62,13.45.8,3.45.14,7.18.71,10.62.35.37,0,2.42-.24,1.89-1.08a2.46,2.46,0,0,0-1.23-.84,18.91,18.91,0,0,0-3.79-.93c-2.9-.46-5.82-.65-8.74-.87-4.84-.38-9.61-1.34-14.47-1.62-6.3-.35-12.86-.3-19,1.19-5.36,1.29-10.43,3.46-15.59,5.37H323a7.18,7.18,0,0,1,1.14,1.25.12.12,0,0,1,.06-.08,22.72,22.72,0,0,1,2.47-1.23,81.81,81.81,0,0,1,16.24-5c5.74-1.05,11.6-.86,17.39-.49,5.45.35,10.88,1.14,16.32,1.43.88.05,5.74,0,5.26,1.73s-5.41.59-6.5.45c-2.3-.28-4.63-.38-6.93-.65-2.92-.33-5.91-1-8.84-1-5.9-.09-11,3.18-16.33,5.32A73.21,73.21,0,0,1,326,147.52a1.15,1.15,0,0,0,0,.19c5-1.27,10.44-1.29,15.24-3.39.93-.41,5.9-2.43,5.63.32-.16,1.63-3.62,2.69-4.92,3-5.22,1.09-10.63.5-15.88,1.42v.36c5,0,10.05-.83,15.09-.82q4.19,0,8.36.13c2.7.08,5.41.18,8.1.42,1.94.18,4.25.24,6,1.09.81.38,1.55,1.56.22,1.93-2.27.63-5.2-.29-7.52-.41-10.07-.5-20.28.4-30.31-.57l0,.78c6.86,1.09,13.7,1,20.63.93,6.69,0,13.38.72,20.07.56,6.5-.16,12.9.8,19.41,0,.89-.11,2.48-.48,4-.61-1.38,0-2.76.09-4.14.15-5.13.23-10.57-.85-15.57-1.86-6-1.21-11.79-3-17.73-4.22-2-.43-5.66-1-5.33-3.88C347.6,141.11,350.32,140.27,351.83,139.84Z"/><path class="cls-1" d="M268.6,179.29c6.16.5,11.35,4.31,16.89,6.69,6,2.58,12.69,4.2,19,1.71,1.67-.66,3.81-1.92,3.11-4.14-.64-2-2.35-2.93-4.26-3.56-2.79-.91-5.73-1.23-8.54-2.08a81.27,81.27,0,0,1-8.42-3,68.36,68.36,0,0,1-7.75-4.38l-.82.51c4.59,4.89,12,6.38,18.33,7.72a38.72,38.72,0,0,1,7,1.9c1.31.54,3.17,1.32,3.67,2.81.63,1.91-1.11,3.43-2.67,4.15-2.58,1.17-6,1.07-8.73.57a55.45,55.45,0,0,1-13.05-4.52c-4.24-2-8.38-4.79-13.16-5Z"/><path class="cls-1" d="M269.89,177.85c3.54.28,6.54,2,9.72,3.56a82.11,82.11,0,0,0,11.73,4.86c3.61,1.11,7.83,2,11.56.85,2.46-.78,4.57-3.13,1.7-4.86-3.3-2-7.23-2.27-10.86-3.31-5.77-1.66-12.22-2.77-16.17-7.74a0,0,0,0,1,0,0c-.71.47-1.4,1-2.07,1.48,1.46.72,2.7,1.85,4.15,2.63a32.19,32.19,0,0,0,6,2.47,48.66,48.66,0,0,0,6.82,1.63,49.72,49.72,0,0,1,6.51,1.32c1.31.39,3.37.9,4.12,2.19s-.25,2.47-1.39,3.06c-2.19,1.14-5.83.51-8.12,0-4.16-1-8-2.93-11.84-4.7-3.43-1.58-7.17-3.73-10.92-4.38C270.49,177.2,270.19,177.52,269.89,177.85Z"/><path class="cls-1" d="M408.82,170c-3-3.32-7.64-4.78-11.81-6.15s-8.46-2.58-12-5.12a.44.44,0,0,1-.2-.38,1.43,1.43,0,0,0-.08.22c-.75,3.47,5.45,4.42,7.65,4.81,3.13.55,6.84.67,9.46,2.67,2.8,2.12.08,3.3-2.23,3.43A32.32,32.32,0,0,0,408.82,170Z"/><path class="cls-1" d="M379.49,167c2.08-1.68,5.36-1.34,7.84-1a61.89,61.89,0,0,1,6.41,1.6c2.14.57,4.89,1.49,7.11.82,3.24-1-1.35-2.85-2.68-3.18-.67-.16-1.35-.3-2-.42a5.26,5.26,0,0,1,2.92,1.53c.54.6,0,1.38-.67,1.53-2.3.48-4.83-.35-7-1.14-2.67-1-5.29-2-8-2.73-5.85-1.57-11.75-3.28-17.7-4.42a145.24,145.24,0,0,0-18.79-2.54l-1.29-.07a80.08,80.08,0,0,1,12,2.14c5.26,1.32,10.61,2.54,15.78,4.18,1,.32,6.1,1.29,5.07,3.32-.8,1.59-4.48.33-5.69,0-5.17-1.49-10.1-3.45-15.38-4.62s-10.84-2-16.26-3c-5.12-1-10.14-2.52-15.27-3.45l0,.43a40.6,40.6,0,0,1,6.61,1.44c2.55.64,5.12,1.14,7.69,1.63,5.16,1,10.23,2.39,15.27,3.84,5.4,1.56,10.77,3.2,16.16,4.79.83.24,6.95,1.12,5.76,3.25a2.28,2.28,0,0,1-2.89,1.12c-2.22-.7-4.35-1.71-6.56-2.47-4.63-1.57-9.35-2.86-14.09-4.05-9.39-2.35-19.25-4.2-28.07-8.35,0,.31-.09.63-.14.94,3.85.36,7.26,2,10.86,3.4,4.41,1.7,8.82,3.43,13.33,4.83,4.08,1.28,8.17,2.81,12.35,3.73,1.47.32,5.47,1,5.47,3.18s-4.64.32-5.45-.1a80.19,80.19,0,0,0-11.87-4.68c-4.49-1.46-8.84-3.32-13.29-4.9-3.81-1.35-7.69-3.5-11.76-3.84l-.06,0a8.24,8.24,0,0,1-.4,1,121.83,121.83,0,0,1,14.87,5,26.64,26.64,0,0,1,5.29,2.83c.52.37,1.93,1.18,1.7,2-.77,2.86-7-1-8.2-1.54-4.83-2.34-9.37-5.17-14.44-7a10.82,10.82,0,0,1-.85,1c4.77,1.39,9.12,4.34,13.62,6.44a38.27,38.27,0,0,1,6.13,3.34c.91.66,2.33,1.61,2.45,2.86.34,3.5-6.2-.95-7.06-1.47-2.15-1.31-4.11-2.8-6.12-4.3a37.8,37.8,0,0,0-10.86-5.31A11.64,11.64,0,0,1,319,165.7c9.1,3.45,17.37,8.59,25.56,13.77,4.31,2.73,8.61,5.47,13.07,7.94,2.4,1.33,4.84,2.59,7.32,3.76a67.24,67.24,0,0,1,6.5,3c.83.52,1.64,1.07,2.5,1.54a6.11,6.11,0,0,0,1.24.59c1.63.39.19-1.3.1-1.38a19.62,19.62,0,0,0-3.75-2.57c-4.9-2.73-9.9-5.16-15-7.42-3.54-1.57-7.8-3.51-9.86-7-1.35-2.27-2.1-6.09,1.34-6.81,3.74-.79,8.12.57,11.5,2.1,4.16,1.88,7.58,4.74,11,7.74a60.74,60.74,0,0,0,14.26,9.53,61.32,61.32,0,0,1,5.74,3c1.32.8,2.92,2,4.54,2.18-2-3.11-5.79-4.68-8.88-6.39-3.83-2.12-7-5.32-10.9-7.31-2.3-1.17-6.3-2.52-7.15-5.3-.44-1.46-.27-2.89,1.23-3.59,1.73-.8,4-.42,5.82-.11a62.93,62.93,0,0,1,7.68,1.92c7.19,2.22,14.36,4.61,22,4.39-1-2.09-5.4-2.71-7.22-3.08-2.93-.58-5.89-.91-8.84-1.33-2.65-.36-5.95-.81-8.21-2.32C378.82,171.41,377.46,168.64,379.49,167Z"/><path class="cls-1" d="M395.21,192c-4-1.95-7.9-4.14-11.81-6.24-1.91-1-3.8-2.07-5.66-3.18.64.42,1.27.86,1.89,1.31A92.57,92.57,0,0,0,389.3,190c2.61,1.45,5.45,3.09,6.8,5.88a.41.41,0,0,1-.35.61c-3.12.11-6-2.86-8.65-4.1a67.23,67.23,0,0,1-13-7.43c-7.25-5.52-13.92-13.22-23.87-13.25-1,0-2.58,0-3.35.86-1,1.11-.6,2.89,0,4.08a12.82,12.82,0,0,0,4.84,4.88c4.15,2.53,8.84,4.08,13.17,6.27,1.84.93,3.71,1.87,5.53,2.87-2.56-1.55-5.11-3.13-7.7-4.59-3.37-1.9-6.91-3.52-10.14-5.67-2.24-1.49-5.18-3.48-5.6-6.36,0-.21.05-.48.29-.51a12.55,12.55,0,0,1,4.92.23c7.89,2,14.76,7.62,21.44,12s13.91,9.51,21.75,11.78a12.15,12.15,0,0,0,5.54.58c1-.17,3.28-.55,1.88-1.87C400.73,194.33,397.77,193.2,395.21,192Z"/><path class="cls-1" d="M341.47,175.05c.55.28,4.15,2,2.79,0-1.86-2.77-6.25-4.29-9.18-5.59-4.22-1.89-8.09-4.66-12.57-5.91a9,9,0,0,1-.92.74,35.54,35.54,0,0,1,8.61,3.38c2.29,1.4,4.28,3.21,6.57,4.63C338.31,173.28,339.86,174.23,341.47,175.05Z"/><path class="cls-1" d="M412,179.9c-.2-.58-1-1-1.5-1.19-5.18-2.54-11.33-3.42-16.88-4.79a84.65,84.65,0,0,1-8.41-2.37c-1.37-.49-3.21-1-4.07-2.32a.45.45,0,0,1,.27-.65,25.21,25.21,0,0,1,11.39-.33,37.51,37.51,0,0,0-7.09-1.53c-1.65-.13-4.37-.45-5.65.87-2,2.06.3,4.19,2.26,4.91a39.75,39.75,0,0,0,8.57,1.81,62.81,62.81,0,0,1,9.73,1.76c1.77.52,4.8,1.33,5.16,3.51a.43.43,0,0,1-.41.53c-7.28.34-14.23-1.7-21.1-3.89-4.09-1.3-9-3.21-13.35-2.68-2.89.35-2.69,3.05-.62,4.67a26.23,26.23,0,0,0,4.57,2.64c.3.15.58.31.87.47a66.91,66.91,0,0,1-6-4.2.43.43,0,0,1,.08-.67,13,13,0,0,1,6.88-1.22c4.85.43,9.3,2.4,14,3.33,2.72.54,5.42,1.19,8.16,1.63a42.6,42.6,0,0,0,10.5.82C409.83,181,412.32,180.76,412,179.9Z"/><path class="cls-1" d="M379.91,196.88a42.91,42.91,0,0,0-5.54-3.82,10.64,10.64,0,0,1,1.57,1.25c.59.6,1.28,1.4.76,2.25a1.63,1.63,0,0,1-2.07.39c-1.63-.75-3-1.89-4.67-2.61-2.71-1.19-5.4-2.41-8-3.73-4.95-2.47-9.69-5.31-14.37-8.25-9.56-6-19-12.32-29.71-16.19l-.06,0a18.5,18.5,0,0,1-2.26.49c1.87,1.07,3.73,2.13,5.59,3.21,10.5,6.13,21.06,12.08,31.85,17.68,4.22,2.2,8.32,4.61,12.58,6.71s9.2,4.41,14.15,4.83a18.17,18.17,0,0,0,1.95.08l.57,0A21.08,21.08,0,0,0,379.91,196.88Z"/><path class="cls-1" d="M342.48,170c.43.19.86.37,1.3.53.65.34,1.22.12,1.7-.67-2.71-2.45-6.34-3.69-9.73-4.85-3.77-1.3-7.54-2.57-11.37-3.66h0c-.07.13-.16.23-.24.35a43.42,43.42,0,0,1,10.13,4.36c1.91,1,3.85,2,5.84,2.9Z"/><path class="cls-1" d="M324.35,159.34c.07-.24.12-.48.18-.73a.4.4,0,0,1,.12-.5,23.65,23.65,0,0,0,.42-3.72c-.28-.12-.35-.59,0-.65h0c0-1.45,0-2.9,0-4.26,0-.31,0-.65,0-1a.41.41,0,0,1,0-.4c-.2-2.91-1-6.37-4-7.38a19.71,19.71,0,0,0-4.72-.61,27.16,27.16,0,0,1-5.56-1.13C301,136,292,130.59,282,128.21a.48.48,0,0,1-.24,0c-.47-.1-.93-.23-1.38-.36l-1.16-.23a.37.37,0,0,1-.32-.29C268,123,264.24,108.65,262,98.16c-2-9.47-4.72-18.64-7.64-27.87-1.51-4.77-2.7-9.71-4.51-14.38-1.74-4.47-4.15-7.67-5.53-12.27-2.22-5.69-7.17-10-11.78-13.81-3.7-3-7.39-6.22-11.29-9a76.7,76.7,0,0,0-13.68-7.65A175.21,175.21,0,0,0,177,3.54a134.57,134.57,0,0,0-65.05.92A136.51,136.51,0,0,0,81.75,16.51,139.18,139.18,0,0,0,68,25.09c-4.51,3.2-8.79,6.68-13.38,9.78S44.55,41.14,40.94,45.5c-1.93,2.35-4.56,7.88-8.42,7a11.83,11.83,0,0,0-5-.43,7.21,7.21,0,0,0-4,2.85c-2.89,4.58-4.06,11.19-1.74,16.2a.23.23,0,0,1,0,.25,9.43,9.43,0,0,1,1.06-.07c4.13,0,7.57,1.87,10.69,4.44.23.18-.08.58-.31.4-3.61-2.69-8-4.77-12.59-3.71a26.08,26.08,0,0,0-9.44,4.66,36.29,36.29,0,0,0-8,7.79c-1.79,2.51-3.65,5.8-3,9,.69,3.47,3.92,5.22,5.14,8.42a24,24,0,0,1,1.12,6.14c.24,2.3.46,4.61.52,6.92C7.14,125,5.48,135.25,8,144.67a.11.11,0,0,1,.07.1c0,.1,0,.2,0,.3s.11.41.17.61a.43.43,0,0,1,0,.36l.15,1.2a39,39,0,0,1,.76,4.8,130.7,130.7,0,0,0,5.72,20.73c1.65,4.55,3.41,9,5.36,13.34a.08.08,0,0,1,.06,0c1,2.1,2,4.17,3.1,6.22,9.45,17.88,22.46,33.93,38.7,46.1a109.56,109.56,0,0,0,26.07,14.72c9.81,3.8,20.11,5.69,30.53,6.91,20.77,2.43,41.95,1.58,62.16-4.05A152.24,152.24,0,0,0,210,244.55c4.8-2.49,9.49-5.18,14-8.11a82.67,82.67,0,0,0,11.91-8.6c11.4-10.57,16.81-25.6,24.6-38.69A65.23,65.23,0,0,1,274.1,172.6a.37.37,0,0,1,.39-.31c5.41-4.42,11.75-7.4,19-7.41,7.53,0,15.47,2.33,22.93.69C319.77,164.84,323.31,162.87,324.35,159.34Zm-297,4.09a1.08,1.08,0,0,1,0-2.15,1.11,1.11,0,1,1,0,2.15Zm6.86-9.37.43-.34a.61.61,0,0,1,.87.86l-.35.43C34.58,155.69,33.5,154.61,34.18,154.06Zm.47,23.1a.73.73,0,0,1,0-1.46A.73.73,0,0,1,34.65,177.16Zm.25-13.24a.93.93,0,0,1,.74-1l.28-.06c1.8-.44,1.8,2.58,0,2.15l-.28-.07A.92.92,0,0,1,34.9,163.92ZM36.61,188a1,1,0,0,1,0-2A1,1,0,0,1,36.61,188ZM73.61,52a5.19,5.19,0,0,1,1.59-2.27c4.47-3.72,13.26-2.63,12.71,4.57a8.2,8.2,0,0,1-1.18,3.72.42.42,0,0,1,0,.54,8.52,8.52,0,0,1-2.36,1.86c-.16.08-.32.14-.47.2l-.12.07a8.22,8.22,0,0,1-9-2.1A6,6,0,0,1,73.61,52ZM42.47,204.47a.67.67,0,0,1,0-1.34A.67.67,0,0,1,42.47,204.47Zm6.26-34.93h-.39a.55.55,0,0,1,0-1.1l.39,0A.54.54,0,0,1,48.73,169.54Zm5.47,13.39a1,1,0,0,1,0-2.05A1,1,0,0,1,54.2,182.93ZM56.4,193c-.06-.13-.13-.27-.2-.4l0,0,.12.13a.9.9,0,0,1,1.27-1.28l-.13-.11h0l.4.21A1.07,1.07,0,1,1,56.4,193Zm3.13,12.28-.48.25a1.11,1.11,0,0,1-1.5-1.51l.25-.47a1.27,1.27,0,1,1,1.73,1.73ZM61.24,157a.92.92,0,0,1,0-1.83A.92.92,0,0,1,61.24,157Zm1.56,18.73a.49.49,0,0,1,0-1A.49.49,0,0,1,62.8,175.75Zm7.81,43.11-.38.06a1.55,1.55,0,0,1-1.45-.38,1.5,1.5,0,0,1,.3-2.35,1.59,1.59,0,0,1,1.15-.15l.38.06A1.44,1.44,0,0,1,70.61,218.86Zm0-39.51a.6.6,0,0,1,0,1.2A.6.6,0,0,1,70.62,179.35Zm3.13,18.56a.76.76,0,0,1,0-1.52A.76.76,0,0,1,73.75,197.91Zm2.82,31.42a1,1,0,0,1-1.74,0,2.82,2.82,0,0,1-.34-1.29,1.21,1.21,0,0,1,2.42,0A2.82,2.82,0,0,1,76.57,229.33ZM76.09,168a.66.66,0,0,1,0,1.31A.66.66,0,0,1,76.09,168ZM80.78,240a.66.66,0,0,1,0-1.31A.66.66,0,0,1,80.78,240ZM82,193.56a1.1,1.1,0,0,1,0-2.2A1.1,1.1,0,0,1,82,193.56Zm2.77,29.49-.29-.18a1.27,1.27,0,0,1,0-2.18l.29-.18a1.47,1.47,0,1,1,0,2.54Zm-.9-41.15a1.29,1.29,0,0,1,.92-1.2l.35-.15c.86-.36,1.78.53,1.78,1.35s-.92,1.72-1.78,1.36l-.35-.15A1.3,1.3,0,0,1,83.83,181.9Zm2.82,44.62a.44.44,0,0,1,0-.88A.44.44,0,0,1,86.65,226.52Zm.44-20.69-.29-.18a1.26,1.26,0,0,1,0-2.14l.29-.18a1.45,1.45,0,1,1,0,2.5Zm6.2,7.43a1.26,1.26,0,0,1,0-2.51A1.26,1.26,0,0,1,93.29,213.26ZM97.2,244.2a.92.92,0,0,1,0-1.83A.92.92,0,0,1,97.2,244.2Zm0-53a.87.87,0,0,1,0,1.74A.87.87,0,0,1,97.2,191.2Zm8.21,36-.39,0a1.19,1.19,0,0,1,0-2.38l.39.05a1.17,1.17,0,0,1,1.15,1.14A1.18,1.18,0,0,1,105.41,227.23Zm6.26,23.48a1.18,1.18,0,0,1,0-2.35A1.18,1.18,0,0,1,111.67,250.71Zm1.56-42.25a1.15,1.15,0,0,1,0-2.29A1.15,1.15,0,0,1,113.23,208.46ZM113.11,187a1.29,1.29,0,0,1,.64-1.12,1.15,1.15,0,0,1,.69-.16,1.17,1.17,0,0,1,1-.23,1.19,1.19,0,0,1,.86,1.12,1.66,1.66,0,0,1-1.6,1.64A1.32,1.32,0,0,1,113.11,187Zm4,33.16a1.5,1.5,0,0,1,0-3A1.5,1.5,0,0,1,117.14,220.15ZM119.88,235a1.51,1.51,0,0,1,0-3A1.51,1.51,0,0,1,119.88,235Zm4.3-29.76a1.07,1.07,0,0,1,0-2.14A1.07,1.07,0,0,1,124.18,205.26Zm5.94-11.38-.19-.35A1.16,1.16,0,0,1,131.5,192l.35.2C133.69,193.17,131.14,195.72,130.12,193.88Zm2.27,54.44a1.13,1.13,0,0,1,0-2.26A1.13,1.13,0,0,1,132.39,248.32Zm.39-15.57a1.59,1.59,0,0,1,0-3.18A1.59,1.59,0,0,1,132.78,232.75Zm1.56-31.42a1.3,1.3,0,0,1,0,2.59A1.3,1.3,0,0,1,134.34,201.33Zm.78,18.45a.74.74,0,0,1,0-1.47A.74.74,0,0,1,135.12,219.78ZM140,218a2.3,2.3,0,0,1-.93.25,1.16,1.16,0,0,1,0-2.32,2.3,2.3,0,0,1,.93.25A1.07,1.07,0,0,1,140,218Zm-.14-48.69a.48.48,0,0,1,0,.95A.48.48,0,0,1,139.82,169.31Zm2.73,72a1.15,1.15,0,0,1,0-2.29A1.15,1.15,0,0,1,142.55,241.3ZM146.07,226a1.5,1.5,0,0,1,0-3A1.5,1.5,0,0,1,146.07,226Zm.75-19.1a2,2,0,0,1-1-.59l-.17-.21a1.36,1.36,0,0,1-.62-1.14,1.38,1.38,0,0,1,1-1.34,2.23,2.23,0,0,1,1.35.16h0a1.49,1.49,0,0,1,.91.43,1.61,1.61,0,0,1,.47,1.13A1.62,1.62,0,0,1,146.82,206.91ZM150.76,259a.84.84,0,0,1,0-1.68A.84.84,0,0,1,150.76,259Zm.39-72.4a.77.77,0,0,1,0-1.53A.77.77,0,0,1,151.15,186.58Zm.78-15.27a.35.35,0,0,1,0-.7A.35.35,0,0,1,151.93,171.31Zm1.36,57.3-.14-.3a1.31,1.31,0,1,1,2.26,0l-.14.3A1.15,1.15,0,0,1,153.29,228.61Zm2.94,16.33a1.27,1.27,0,0,1,0-2.53A1.27,1.27,0,0,1,156.23,244.94Zm5.76,2.31a1,1,0,0,1-.62.32l-.12,0c-2,.6-2-3,0-2.38l.12,0a1,1,0,0,1,.62.31,1.12,1.12,0,0,1,.34.85A1.08,1.08,0,0,1,162,247.25Zm-3.91-163a82.74,82.74,0,0,1-13.58,8.16A93.19,93.19,0,0,1,115,100.45a165.93,165.93,0,0,1-32.14,0C72,99.51,61,98.29,50.24,96.55h0c-.25,0-.49-.07-.74-.12l-.5-.08a.37.37,0,0,1-.2-.09,5.07,5.07,0,0,1-3.64-2.75c-.33-.81-.48-1.21.09-1.87a2.13,2.13,0,0,1,2.29-.51c20.69,5.39,46.07,4.31,61.88-12,2.15-2.21,3.75-5.22,5.49-7.76,3.29-4.81,6.62-9.59,10.14-14.24a121.79,121.79,0,0,1,11.53-13.61c2.71-2.66,6.13-6,10.07-6.6,3-.44,6.38,2.49,5.54,5.66-.73,2.73-3.55,4.48-5.86,5.76-2.69,1.51-5.66,2.59-8.13,4.48-8.41,6.44-12.93,15.61-18.54,24.3C115.24,84,109.87,89.75,102,92c8.83,1.52,17.45-.2,25.78-3.48a103.82,103.82,0,0,0,12.34-5.36c2-1.1,3.88-2.32,5.81-3.5,4.53-2.77,9.52-6.33,14.78-7.54a4.79,4.79,0,0,1,4.94,1.42c1.37,1.44.53,3.4-.47,4.75C163.33,80.72,160.54,82.44,158.08,84.23Zm7.75,114.31.3-.44a1.22,1.22,0,1,1,1.67,1.67l-.45.3A1.12,1.12,0,0,1,165.83,198.54ZM168,231.79a1.41,1.41,0,0,1,0-2.81A1.41,1.41,0,0,1,168,231.79Zm1.18-16.73a1.1,1.1,0,0,1,0-2.2A1.1,1.1,0,0,1,169.14,215.06Zm6.91,29.29-.05.28a1,1,0,0,1-2,0l-.05-.28A1.08,1.08,0,1,1,176.05,244.35Zm23.58-82.92a.54.54,0,0,1,0,1.07A.54.54,0,0,1,199.63,161.43Zm-18,21.34a1.48,1.48,0,0,1,0,3A1.48,1.48,0,0,1,181.65,182.77Zm-2.35-15.31a.37.37,0,0,1,0,.74A.37.37,0,0,1,179.3,167.46Zm.78,70.35a1.18,1.18,0,0,1,0-2.35A1.18,1.18,0,0,1,180.08,237.81Zm2.35-14.15a.71.71,0,0,1,0-1.41A.71.71,0,0,1,182.43,223.66Zm0-9.19a.9.9,0,0,1,0-1.8A.9.9,0,0,1,182.43,214.47Zm7.12-15.28a1.23,1.23,0,0,1-1.92-.25l-.27-.46a1.09,1.09,0,0,1,1.48-1.48l.46.27A1.23,1.23,0,0,1,189.55,199.19Zm1.87,47a1.32,1.32,0,0,1,0-2.63A1.32,1.32,0,0,1,191.42,246.16Zm3.13-27.25a1,1,0,0,1,0-2.08A1,1,0,0,1,194.55,218.91Zm-.39-8.08a1.56,1.56,0,0,1,0-3.12A1.56,1.56,0,0,1,194.16,210.83Zm6.25,19a1.44,1.44,0,0,1,0-2.87A1.44,1.44,0,0,1,200.41,229.86Zm3.91-38.06a1.3,1.3,0,0,1,0-2.59A1.3,1.3,0,0,1,204.32,191.8Zm2-3.91a1.06,1.06,0,0,1,0,2.11A1.06,1.06,0,0,1,206.27,187.89Zm1.57,14.52a1,1,0,0,1,0-1.92A1,1,0,0,1,207.84,202.41Zm3.52-33.17a1.33,1.33,0,0,1,0,2.66A1.33,1.33,0,0,1,211.36,169.24Zm1.95,62.67a1.53,1.53,0,0,1,0-3.06A1.53,1.53,0,0,1,213.31,231.91Zm2.74-15.86a.92.92,0,0,1,0-1.83A.92.92,0,0,1,216.05,216.05Zm3.52-31.21a1,1,0,0,1,0-2A1,1,0,0,1,219.57,184.84ZM225.82,205a1.21,1.21,0,0,1,0-2.41A1.21,1.21,0,0,1,225.82,205Zm0-13.26a1.24,1.24,0,0,1,0-2.47A1.24,1.24,0,0,1,225.82,191.74Zm8.6,24.59a.42.42,0,0,1,0-.83A.42.42,0,0,1,234.42,216.33Zm0-46.86H234a1.24,1.24,0,0,1,0-2.48h.39a1.25,1.25,0,0,1,0,2.5Zm3.91-9.47a.8.8,0,0,1,0,1.59A.8.8,0,0,1,238.33,160Zm0,15.37a.51.51,0,0,1,0-1A.51.51,0,0,1,238.33,175.37Zm.39,6.38a1.41,1.41,0,0,1,0-2.81A1.41,1.41,0,0,1,238.72,181.75Zm6.65-16.62c-.71,0-1.48-.79-1.16-1.53,0-.12.09-.23.14-.35a1.06,1.06,0,0,1,2,0l.15.35A1.21,1.21,0,0,1,245.37,165.13Zm4.56,29.73c-.06.1-.13.19-.19.28a1.46,1.46,0,0,1-2.48,0l-.2-.28a1.66,1.66,0,1,1,2.87,0Zm.91-22.7a.81.81,0,0,1,0-1.62A.81.81,0,0,1,250.84,172.16Zm3.52,11.6a1.07,1.07,0,0,1,0-2.14A1.07,1.07,0,0,1,254.36,183.76Zm6.26-14.71a.74.74,0,0,1,0,1.47A.74.74,0,0,1,260.62,169.05Zm1.69,10.32a1.22,1.22,0,0,1-.91.38,1.39,1.39,0,0,1-1.36-1.36,1.59,1.59,0,0,1,.43-1.35,2,2,0,0,1,1.32-.5,1.46,1.46,0,0,1,1.45,1.45A1.57,1.57,0,0,1,262.31,179.37Zm4.17-22.3h-.39a1.35,1.35,0,1,1,0-2.69l.39,0a1.36,1.36,0,1,1,0,2.72Zm4.3,11.06a.69.69,0,0,1,0-1.38A.69.69,0,0,1,270.78,168.13ZM278.21,154a1,1,0,0,1,0-2.07A1,1,0,0,1,278.21,154Zm4.3,4.27a1,1,0,0,1,0-2A1,1,0,0,1,282.51,158.28Zm9-2.4a1,1,0,0,1,0-1.9A1,1,0,0,1,291.5,155.88Zm7.43,4.06a.32.32,0,0,1,0-.64A.32.32,0,0,1,298.93,159.94Zm8.6,1.46a1,1,0,0,1,0-2A1,1,0,0,1,307.53,161.4Zm3.13-5.05a.64.64,0,0,1,0-1.28A.64.64,0,0,1,310.66,156.35Z"/></g><g id="stroke"><path class="cls-2" d="M405.79,176.13c-6.05-1.76-12.25-2.92-18.28-4.75-1.44-.43-3.94-.94-5.18-2.13,9.11-2.35,18.26,2.9,27.48,1.49.37-.06.38-.52.2-.75-5.65-7.12-16.37-6.87-23.74-11.5,5.5-1.24,12.5,1.15,17-3a.46.46,0,0,0,0-.64c-2.35-2.66-6.1-3.63-9.44-4.35-3.89-.85-7.87-1.14-11.77-1.94-10.39-2.13-21.26-1.69-31.34-5.27,3.18-2.29,7.62-2.2,11.36-2,4.28.2,8.52.91,12.8,1.11a38.44,38.44,0,0,0,8.63-.75c1.88-.34,5.39-1,5.57-3.41s-3.62-3.17-5.25-3.53a69.06,69.06,0,0,0-8.72-1.11c-9.25-.9-18.53-1.68-27.83-1.25-9.12.42-18.73,2.05-26.39,7.33l0,0a8.33,8.33,0,0,0-1.49-.34c-1.67-.21-3.36-.2-5-.48a43.41,43.41,0,0,1-7.71-2.35c-8.65-3.22-16.78-7.76-25.88-9.61-12.32-3.68-15.86-19.7-18.14-30.73A266.06,266.06,0,0,0,255,69.37c-1.45-4.55-2.62-9.23-4.32-13.69-1.49-3.87-3.43-7.55-5.05-11.36-2.76-8.46-11-14.08-17.62-19.36a99.23,99.23,0,0,0-11.47-8.3,92.88,92.88,0,0,0-13.93-6.51c-19.75-7.58-41.25-11.86-62.43-11a136.28,136.28,0,0,0-60,17.17c-9.64,5.35-18,12.35-27.11,18.49a79.14,79.14,0,0,0-12.71,10c-1.53,1.57-2.55,3.61-4.06,5.21a4.23,4.23,0,0,1-3.86,1.57c-.79-.17-2.92-.8-3.71-.62-3.35.77-4.66,1.14-6.42,4.53-2.45,4.76-3.45,10.9-.87,15.78l0,.05a22.27,22.27,0,0,0-8.87,3.66C7.07,78.6.89,84-.66,90.69a8.83,8.83,0,0,0,2.2,7.93C3,100.36,4.39,102,4.87,104.26a63.94,63.94,0,0,1,1,8.16c.79,10.69-1.56,21.92,1.22,32.41v.09c.33,1.71.78,3.4,1.18,5.1.95,7.85,3.3,15.52,5.93,22.94,3.05,8.64,6.22,18.18,11.9,25.49,0,0,0,0,0,0a135.67,135.67,0,0,0,28.06,34.59C68.57,245.89,86.21,255.5,105.3,259c20.54,3.7,41.55,4.59,62.17,1,20.38-3.55,39.63-11.68,57-22.76,7.16-4.57,13.56-9.36,18.73-16.17,4.63-6.1,8.16-13,11.7-19.74,3.74-7.13,7.64-14.58,12.73-20.85,9.16,1,15.71,9.15,24.85,10.56,5,.78,11.61,1,16.13-1.63a5.34,5.34,0,0,0,2.55-5.77c-.38-2.34-2.51-3.89-4.46-4.93-6-3.25-13.22-3.95-19.59-6.38a15.35,15.35,0,0,1-5.64-3.37c.92-.46,1.88-.89,2.87-1.28,7.39-2.91,14.84-1.46,22.52-.88a40.85,40.85,0,0,0,8,0,.22.22,0,0,0,.1.15c12.51,7.53,25.12,14.79,38.07,21.54,5.13,2.68,10.1,5.65,15.37,8,4.32,2,9.67,4.14,14.52,3.4a.41.41,0,0,0,.3-.39c.14-1.09-2.06-2.48-2.8-3.09a49.68,49.68,0,0,0-5.38-3.74c-3.64-2.26-7.36-4.36-11-6.64-2.9-1.83-6-3.26-9-5-2.5-1.47-6.38-3.59-7.16-6.69,4.6-.5,9.13,1.95,13,4.2,3.61,2.12,7.06,4.53,10.55,6.83,6.53,4.28,13.08,8.81,20.33,11.82,3,1.25,6.12,2.3,9.4,1.83,1.43-.2,4-1,2.62-2.85s-4.48-3.09-6.61-4.13c-3.5-1.71-6.92-3.6-10.37-5.42a106.71,106.71,0,0,1-15.89-9.66c4.89-2,10.36-.14,15.19,1.28,3.1.91,6.27,1.62,9.45,2.23a83,83,0,0,0,10.18,1.4c2,.13,5.09.48,6.76-1C415.07,178.68,406.59,176.37,405.79,176.13ZM397,163.82c4.17,1.37,8.78,2.83,11.81,6.15a32.32,32.32,0,0,1-9.25-.52c2.31-.13,5-1.31,2.23-3.43-2.62-2-6.33-2.12-9.46-2.67-2.2-.39-8.4-1.34-7.65-4.81a1.43,1.43,0,0,1,.08-.22.44.44,0,0,0,.2.38C388.55,161.24,392.89,162.47,397,163.82Zm-3.1.72c-2.71-.27-5.09-.4-7.61-1.58-2.32-1.1-4.43-2.55-6.82-3.52-4.89-2-10.36-2.3-15.56-2.59-5.82-.33-11.58-1-17.38-1.48-1.64-.13-3.29-.23-4.94-.29h.17a165,165,0,0,1,18.87.25c5.88.47,11.85,2,17.76,1.75a69.56,69.56,0,0,0,8.51-1l.37-.06a6,6,0,0,0-2.54,1.1c-1.49,1.2-.93,3.09.21,4.34,1.88,2.06,5.51,2.43,8.07,2.87l2.19.37C394.78,164.63,394.34,164.58,393.91,164.54Zm3.84,1.84c.45.36.67.82-.37.83a6.81,6.81,0,0,1-1.19-.05,13.75,13.75,0,0,1-2.55-.53A44.77,44.77,0,0,1,389,165c-5.63-2.18-11.69-3.32-17.52-4.89A129.65,129.65,0,0,0,354.65,157c1.77.18,3.53.34,5.31.46,5.65.39,11.34.46,16.84,2,4.79,1.33,8.72,5.19,13.72,5.72C392.9,165.39,395.58,165.21,397.75,166.38Zm-71.83-12.71c0-.2,0-.4,0-.6s0-.46,0-.69c5.54,1.22,11.27,1.24,16.92,1.22,6.21,0,12.35.23,18.55.5,3,.14,6,0,9,0s5.89.51,8.87.47c4.14-.07,8.32-1,12.45-.9a3.64,3.64,0,0,1,1.35.26c-.06,0-1.39.52-1.55.56-1.1.29-2.26.4-3.38.6a85.47,85.47,0,0,1-9.83,1.25,47.63,47.63,0,0,1-9.52-.86c-3-.42-6-.74-9-1a165.16,165.16,0,0,0-18.88-.16c-3,.1-6.07.19-9.11.2C329.85,154.56,328,153.63,325.92,153.67Zm4.53,1.37a19.19,19.19,0,0,1-4.29-.69A21.53,21.53,0,0,1,330.45,155Zm-4.81-9.48c5.53-1.7,11.25-2.55,16.78-4.22,1-.3,9.07-2.41,7.79-4.52-.67-1.1-2.43-.72-3.46-.55a40.93,40.93,0,0,0-6.85,2,63.09,63.09,0,0,1-6.65,1.89c-2.64.61-5.76,1.29-8,3a.2.2,0,0,0-.28.12l-.12.14a8.64,8.64,0,0,0-.53-.95s.07,0,.1,0a90.38,90.38,0,0,1,14.77-5,55.82,55.82,0,0,1,16.64-1.57c5.48.17,10.95.71,16.41,1.25,1.66.16,3.32.34,5,.43.83,0,1.65.13,2.47.26.3,0,2,.42.95.65-2.58.55-5.85-.3-8.47-.51-5.2-.42-10.65-1.93-15.86-1.17s-9.88,3.81-14.59,5.66a68.87,68.87,0,0,1-15.88,4.3C325.81,146.37,325.74,146,325.64,145.56Zm.11,11.12a39.12,39.12,0,0,1,6.47,1.49c2.07.57,4.18,1,6.28,1.37,4.39.84,8.69,1.87,13,3.05s8.85,2.53,13.26,3.84l6.6,1.93,3.3.94.8.23c1.27.35-.36,1.88-1.3,1.58-3.83-1.21-7.52-2.83-11.39-4-4-1.19-8.12-2.18-12.2-3.17a256,256,0,0,1-24.74-7.14.14.14,0,0,0-.09,0C325.74,156.78,325.74,156.73,325.75,156.68ZM325.16,144c4.23-2.65,9-2.93,13.63-4.61,1.66-.6,3.33-1.18,5-1.69,1.49-.44,4-1.43,5.56-.75,1,.45-3.54,2.47-3.8,2.56-1.75.66-3.56,1.19-5.36,1.69-4.89,1.36-9.91,2.13-14.77,3.61C325.36,144.58,325.27,144.31,325.16,144Zm10.35,18c3.71,1.43,7.42,2.87,11.19,4.17s7.54,2.4,11.31,3.59c1.45.45,2.88.86,4.36,1.19.67.14,1.33.32,2,.52.12,0,3.05,1.51,2.06,1.9-1.58.64-4.13-1.09-5.49-1.8a36.62,36.62,0,0,0-4.36-1.9c-3.61-1.35-7.34-2.32-10.95-3.69s-7.46-2.71-11.19-4.07c-3-1.09-5.91-2.58-9.18-2.56.05-.16.09-.32.13-.48C329,159.2,332.14,160.72,335.51,162Zm17.2-15.13c5.94,1.27,11.77,3,17.73,4.22,5,1,10.44,2.09,15.57,1.86,1.38-.06,2.76-.14,4.14-.15-1.56.13-3.15.5-4,.61-6.51.79-12.91-.17-19.41,0-6.69.16-13.38-.58-20.07-.56-6.93,0-13.77.16-20.63-.93l0-.78c10,1,20.24.07,30.31.57,2.32.12,5.25,1,7.52.41,1.33-.37.59-1.55-.22-1.93-1.79-.85-4.1-.91-6-1.09-2.69-.24-5.4-.34-8.1-.42s-5.57-.12-8.36-.13c-5,0-10.06.8-15.09.82V149c5.25-.92,10.66-.33,15.88-1.42,1.3-.27,4.76-1.33,4.92-3,.27-2.75-4.7-.73-5.63-.32-4.8,2.1-10.21,2.12-15.24,3.39a1.15,1.15,0,0,1,0-.19,73.21,73.21,0,0,0,17.34-4.86c5.31-2.14,10.43-5.41,16.33-5.32,2.93,0,5.92.67,8.84,1,2.3.27,4.63.37,6.93.65,1.09.14,6,1.2,6.5-.45s-4.38-1.68-5.26-1.73c-5.44-.29-10.87-1.08-16.32-1.43-5.79-.37-11.65-.56-17.39.49a81.81,81.81,0,0,0-16.24,5,22.72,22.72,0,0,0-2.47,1.23.12.12,0,0,0-.06.08,7.18,7.18,0,0,0-1.14-1.25h.06c5.16-1.91,10.23-4.08,15.59-5.37,6.17-1.49,12.73-1.54,19-1.19,4.86.28,9.63,1.24,14.47,1.62,2.92.22,5.84.41,8.74.87a18.91,18.91,0,0,1,3.79.93,2.46,2.46,0,0,1,1.23.84c.53.84-1.52,1-1.89,1.08-3.44.36-7.17-.21-10.62-.35-4.47-.18-9-1.05-13.45-.8a38,38,0,0,0-8.15,1.28c-1.51.43-4.23,1.27-4.45,3.17C347.05,145.86,350.74,146.46,352.71,146.89ZM326,148.54c3.81-1,7.77-1.33,11.6-2.24a24,24,0,0,0,4-1.29,19.64,19.64,0,0,1,2.31-.89c1.22-.37,2.63.3,1.21,1.25-2.28,1.51-5.08,1.8-7.73,2-3.81.31-7.67.22-11.37,1.28Zm0,2.23c0-.2,0-.4,0-.59,4.26,0,8.53-.72,12.79-.81,3-.07,6,0,9,0a90.86,90.86,0,0,1,13.3.85,9,9,0,0,1,2.34.63c1.22.58-1.63.59-2,.56-2.95-.23-5.83-.57-8.8-.64-4.48-.11-9,0-13.45-.07S330.4,150.45,326,150.77Zm68.07,3.13a2.51,2.51,0,0,0-2-1.07c1.47,0,3.38.21,4.07,1.43.51.88-5,1.26-5.49,1.31l-1.31.12A14,14,0,0,0,394,154.4.36.36,0,0,0,394.11,153.9Zm-55.27,3.55A90,90,0,0,1,353.76,159c4.61,1,9.16,2.3,13.73,3.45,2.15.54,4.29,1.12,6.4,1.79.62.2,1.24.36,1.86.56s3,1.67,1.08,1.74c-3.36.12-6.93-1.72-10-2.8a94.67,94.67,0,0,0-13.58-3.41c-4.71-.92-9.46-1.59-14.17-2.54-.75-.15-1.5-.32-2.25-.49Zm-.31-1.6c1.2,0,2.38,0,3.55,0,2.41.11,4.82.32,7.22.55C345.71,156.15,342.12,156,338.53,155.85Zm9.88-22.67a187.59,187.59,0,0,1,27.32,1.36,53.21,53.21,0,0,1,9.4,1.41c1.15.33,3.37,1,3,2.63s-3.3,1.9-4.47,2.14c-7.43,1.57-14.67,0-22.12-.36-4.1-.2-8.83,0-12.09,2.78a.46.46,0,0,0,.2.76c9.73,3.69,20.4,3.64,30.57,5.26,3.77.6,7.56,1.17,11.33,1.82s8,1.44,10.74,4.18c-2.35,1.9-5.64,1.9-8.53,1.94s-5.87-.11-8.66.79a.33.33,0,0,0-.1.06c1.11-1.39,4.76-1.45,6-1.57,1.69-.16,4.1,0,5.57-1s-.28-2.46-1.26-2.8c-3.15-1.08-6.76-.52-10-.39-5.84.22-12-1.27-17.68-2.47s-11-2.65-16.48-3.94c-1.26-.3-3.76-1.33-2.88-3.09.57-1.14,2.33-1.64,3.42-2a34.61,34.61,0,0,1,8.52-1.37c4.61-.26,9.32.66,13.93.84,3.36.14,6.89.65,10.25.29,1.29-.14,3.18-1.05,1.94-2.53s-4.64-1.72-6.45-2c-2.7-.36-5.41-.52-8.12-.74-5.2-.42-10.32-1.4-15.56-1.65a66.34,66.34,0,0,0-17.73,1.31c-5.38,1.21-10.41,3.6-15.51,5.65a.22.22,0,0,0-.14.26,5.73,5.73,0,0,0-1-.64C329.6,135,339.25,133.56,348.41,133.18Zm-61.16,40.18c3.38,1.29,6.93,2.13,10.41,3.08,4,1.09,16.14,4.08,12.07,10.68-1.61,2.6-5.85,3-8.56,3.25a40.93,40.93,0,0,1-8-.18c-9.21-1-15.79-9.43-25-10.11H268c.12-.16.25-.31.38-.46,7.45,1.11,13.74,6,20.78,8.48A25.28,25.28,0,0,0,300,189.56c2.22-.23,5.29-.85,7.06-2.34a3.85,3.85,0,0,0,.6-5.4c-1.55-2.32-5.19-3-7.68-3.53a82.47,82.47,0,0,1-10.66-3.15,56.15,56.15,0,0,1-5.56-2.45c-1.51-.77-2.85-1.78-4.26-2.68.37-.22.74-.43,1.13-.63C282.33,171.34,284.85,172.45,287.25,173.36Zm11.93,9.86c-4.62-1.1-9.25-2.21-13.76-3.73-2.14-.72-4.28-1.43-6.39-2.23-1.76-.67-4.31-1.4-5.39-3.07.36-.31.72-.62,1.1-.92,1.6.66,3,1.92,4.46,2.78a27.37,27.37,0,0,0,4.32,1.93,39.16,39.16,0,0,0,7.21,2c3.43.54,7.15.85,10.31,2.38,2.89,1.4.41,3.09-1.83,3.25a23.19,23.19,0,0,1-9.42-1.67c-3.75-1.37-7.32-3.21-11-4.78-2.44-1-5-2.38-7.69-2.62.73-.74,1.49-1.46,2.27-2.15a6.24,6.24,0,0,0,3.19,2.53,68.6,68.6,0,0,0,6.47,2.65,162.3,162.3,0,0,0,15.88,4.53C299.52,184.25,299.76,183.35,299.18,183.22Zm-17.46-2c3.86,1.77,7.68,3.73,11.84,4.7,2.29.53,5.93,1.16,8.12,0,1.14-.59,2.14-1.78,1.39-3.06s-2.81-1.8-4.12-2.19a49.72,49.72,0,0,0-6.51-1.32,48.66,48.66,0,0,1-6.82-1.63,32.19,32.19,0,0,1-6-2.47c-1.45-.78-2.69-1.91-4.15-2.63.67-.52,1.36-1,2.07-1.48a0,0,0,0,0,0,0c3.95,5,10.4,6.08,16.17,7.74,3.63,1,7.56,1.32,10.86,3.31,2.87,1.73.76,4.08-1.7,4.86-3.73,1.19-7.95.26-11.56-.85a82.11,82.11,0,0,1-11.73-4.86c-3.18-1.56-6.18-3.28-9.72-3.56.3-.33.6-.65.91-1C274.55,177.53,278.29,179.68,281.72,181.26Zm.64,2.37a55.45,55.45,0,0,0,13.05,4.52c2.71.5,6.15.6,8.73-.57,1.56-.72,3.3-2.24,2.67-4.15-.5-1.49-2.36-2.27-3.67-2.81a38.72,38.72,0,0,0-7-1.9c-6.34-1.34-13.74-2.83-18.33-7.72l.82-.51a68.36,68.36,0,0,0,7.75,4.38,81.27,81.27,0,0,0,8.42,3c2.81.85,5.75,1.17,8.54,2.08,1.91.63,3.62,1.54,4.26,3.56.7,2.22-1.44,3.48-3.11,4.14-6.35,2.49-13,.87-19-1.71-5.54-2.38-10.73-6.19-16.89-6.69l.6-.69C274,178.84,278.12,181.66,282.36,183.63Zm11.14-18.75c-7.26,0-13.6,3-19,7.41a.37.37,0,0,0-.39.31,65.23,65.23,0,0,0-13.53,16.55c-7.79,13.09-13.2,28.12-24.6,38.69a82.67,82.67,0,0,1-11.91,8.6c-4.55,2.93-9.24,5.62-14,8.11a152.24,152.24,0,0,1-29.18,11.5c-20.21,5.63-41.39,6.48-62.16,4.05C108.26,258.88,98,257,88.15,253.19a109.56,109.56,0,0,1-26.07-14.72c-16.24-12.17-29.25-28.22-38.7-46.1-1.08-2.05-2.12-4.12-3.1-6.22a.08.08,0,0,0-.06,0c-1.95-4.36-3.71-8.79-5.36-13.34A130.7,130.7,0,0,1,9.14,152a39,39,0,0,0-.76-4.8L8.23,146a.43.43,0,0,0,0-.36c-.06-.2-.11-.4-.17-.61s0-.2,0-.3a.11.11,0,0,0-.07-.1c-2.51-9.42-.85-19.63-1.08-29.25-.06-2.31-.28-4.62-.52-6.92a24,24,0,0,0-1.12-6.14c-1.22-3.2-4.45-5-5.14-8.42-.64-3.22,1.22-6.51,3-9a36.29,36.29,0,0,1,8-7.79,26.08,26.08,0,0,1,9.44-4.66c4.62-1.06,9,1,12.59,3.71.23.18.54-.22.31-.4-3.12-2.57-6.56-4.46-10.69-4.44a9.43,9.43,0,0,0-1.06.07.23.23,0,0,0,0-.25c-2.32-5-1.15-11.62,1.74-16.2a7.21,7.21,0,0,1,4-2.85,11.83,11.83,0,0,1,5,.43c3.86.84,6.49-4.69,8.42-7,3.61-4.36,9-7.5,13.68-10.63S63.49,28.29,68,25.09a139.18,139.18,0,0,1,13.75-8.58,136.51,136.51,0,0,1,30.16-12A134.57,134.57,0,0,1,177,3.54a175.21,175.21,0,0,1,30.63,9.67,76.7,76.7,0,0,1,13.68,7.65c3.9,2.75,7.59,5.95,11.29,9,4.61,3.78,9.56,8.12,11.78,13.81,1.38,4.6,3.79,7.8,5.53,12.27,1.81,4.67,3,9.61,4.51,14.38,2.92,9.23,5.64,18.4,7.64,27.87,2.22,10.49,6,24.82,16.91,29.18a.37.37,0,0,0,.32.29l1.16.23c.45.13.91.26,1.38.36a.48.48,0,0,0,.24,0c10,2.38,19,7.75,28.76,10.76a27.16,27.16,0,0,0,5.56,1.13,19.71,19.71,0,0,1,4.72.61c3,1,3.76,4.47,4,7.38a.41.41,0,0,0,0,.4c0,.34,0,.68,0,1,0,1.36.05,2.81,0,4.26h0c-.37.06-.3.53,0,.65a23.65,23.65,0,0,1-.42,3.72.4.4,0,0,0-.12.5c-.06.25-.11.49-.18.73-1,3.53-4.58,5.5-7.92,6.23C309,167.21,301,164.87,293.5,164.88Zm42.25.13c3.39,1.16,7,2.4,9.73,4.85-.48.79-1.05,1-1.7.67-.44-.16-.87-.34-1.3-.53l-2.38-1c-2-.89-3.93-1.87-5.84-2.9a43.42,43.42,0,0,0-10.13-4.36c.08-.12.17-.22.24-.35h0C328.21,162.44,332,163.71,335.75,165Zm-13.24-1.43c4.48,1.25,8.35,4,12.57,5.91,2.93,1.3,7.32,2.82,9.18,5.59,1.36,2-2.24.25-2.79,0-1.61-.82-3.16-1.77-4.7-2.72-2.29-1.42-4.28-3.23-6.57-4.63a35.54,35.54,0,0,0-8.61-3.38A9,9,0,0,0,322.51,163.58Zm57.4,33.3a21.08,21.08,0,0,1,2.3,2.23l-.57,0a18.17,18.17,0,0,1-1.95-.08c-4.95-.42-9.75-2.67-14.15-4.83s-8.36-4.51-12.58-6.71c-10.79-5.6-21.35-11.55-31.85-17.68-1.86-1.08-3.72-2.14-5.59-3.21a18.5,18.5,0,0,0,2.26-.49l.06,0c10.67,3.87,20.15,10.18,29.71,16.19,4.68,2.94,9.42,5.78,14.37,8.25,2.64,1.32,5.33,2.54,8,3.73,1.64.72,3,1.86,4.67,2.61a1.63,1.63,0,0,0,2.07-.39c.52-.85-.17-1.65-.76-2.25a10.64,10.64,0,0,0-1.57-1.25A42.91,42.91,0,0,1,379.91,196.88Zm-4.58-2c.09.08,1.53,1.77-.1,1.38a6.11,6.11,0,0,1-1.24-.59c-.86-.47-1.67-1-2.5-1.54a67.24,67.24,0,0,0-6.5-3c-2.48-1.17-4.92-2.43-7.32-3.76-4.46-2.47-8.76-5.21-13.07-7.94-8.19-5.18-16.46-10.32-25.56-13.77a11.64,11.64,0,0,0,2.22-1.14,37.8,37.8,0,0,1,10.86,5.31c2,1.5,4,3,6.12,4.3.86.52,7.4,5,7.06,1.47-.12-1.25-1.54-2.2-2.45-2.86a38.27,38.27,0,0,0-6.13-3.34c-4.5-2.1-8.85-5.05-13.62-6.44a10.82,10.82,0,0,0,.85-1c5.07,1.84,9.61,4.67,14.44,7,1.19.58,7.43,4.4,8.2,1.54.23-.84-1.18-1.65-1.7-2a26.64,26.64,0,0,0-5.29-2.83,121.83,121.83,0,0,0-14.87-5,8.24,8.24,0,0,0,.4-1l.06,0c4.07.34,7.95,2.49,11.76,3.84,4.45,1.58,8.8,3.44,13.29,4.9a80.19,80.19,0,0,1,11.87,4.68c.81.42,5.45,2.41,5.45.1s-4-2.86-5.47-3.18c-4.18-.92-8.27-2.45-12.35-3.73-4.51-1.4-8.92-3.13-13.33-4.83-3.6-1.38-7-3-10.86-3.4.05-.31.11-.63.14-.94,8.82,4.15,18.68,6,28.07,8.35,4.74,1.19,9.46,2.48,14.09,4.05,2.21.76,4.34,1.77,6.56,2.47a2.28,2.28,0,0,0,2.89-1.12c1.19-2.13-4.93-3-5.76-3.25-5.39-1.59-10.76-3.23-16.16-4.79-5-1.45-10.11-2.83-15.27-3.84-2.57-.49-5.14-1-7.69-1.63a40.6,40.6,0,0,0-6.61-1.44l0-.43C331,156.49,336,158,341.11,159c5.42,1.05,10.88,1.82,16.26,3s10.21,3.13,15.38,4.62c1.21.35,4.89,1.61,5.69,0,1-2-4.07-3-5.07-3.32-5.17-1.64-10.52-2.86-15.78-4.18a80.08,80.08,0,0,0-12-2.14l1.29.07a145.24,145.24,0,0,1,18.79,2.54c5.95,1.14,11.85,2.85,17.7,4.42,2.75.74,5.37,1.75,8,2.73,2.13.79,4.66,1.62,7,1.14.68-.15,1.21-.93.67-1.53a5.26,5.26,0,0,0-2.92-1.53c.68.12,1.36.26,2,.42,1.33.33,5.92,2.21,2.68,3.18-2.22.67-5-.25-7.11-.82a61.89,61.89,0,0,0-6.41-1.6c-2.48-.38-5.76-.72-7.84,1s-.67,4.41,1.05,5.55c2.26,1.51,5.56,2,8.21,2.32,2.95.42,5.91.75,8.84,1.33,1.82.37,6.24,1,7.22,3.08-7.61.22-14.78-2.17-22-4.39a62.93,62.93,0,0,0-7.68-1.92c-1.8-.31-4.09-.69-5.82.11-1.5.7-1.67,2.13-1.23,3.59.85,2.78,4.85,4.13,7.15,5.3,3.89,2,7.07,5.19,10.9,7.31,3.09,1.71,6.92,3.28,8.88,6.39-1.62-.22-3.22-1.38-4.54-2.18a61.32,61.32,0,0,0-5.74-3A60.74,60.74,0,0,1,370.5,181c-3.39-3-6.81-5.86-11-7.74-3.38-1.53-7.76-2.89-11.5-2.1-3.44.72-2.69,4.54-1.34,6.81,2.06,3.49,6.32,5.43,9.86,7,5.13,2.26,10.13,4.69,15,7.42A19.62,19.62,0,0,1,375.33,194.92Zm8.07-9.21c3.91,2.1,7.82,4.29,11.81,6.24,2.56,1.25,5.52,2.38,7.61,4.36,1.4,1.32-.87,1.7-1.88,1.87a12.15,12.15,0,0,1-5.54-.58c-7.84-2.27-15-7.34-21.75-11.78s-13.55-10.08-21.44-12a12.55,12.55,0,0,0-4.92-.23c-.24,0-.32.3-.29.51.42,2.88,3.36,4.87,5.6,6.36,3.23,2.15,6.77,3.77,10.14,5.67,2.59,1.46,5.14,3,7.7,4.59-1.82-1-3.69-1.94-5.53-2.87-4.33-2.19-9-3.74-13.17-6.27a12.82,12.82,0,0,1-4.84-4.88c-.62-1.19-1-3,0-4.08.77-.87,2.31-.86,3.35-.86,9.95,0,16.62,7.73,23.87,13.25a67.23,67.23,0,0,0,13,7.43c2.68,1.24,5.53,4.21,8.65,4.1a.41.41,0,0,0,.35-.61c-1.35-2.79-4.19-4.43-6.8-5.88a92.57,92.57,0,0,1-9.67-6.18c-.62-.45-1.25-.89-1.89-1.31C379.6,183.64,381.49,184.69,383.4,185.71Zm26-4.7a42.6,42.6,0,0,1-10.5-.82c-2.74-.44-5.44-1.09-8.16-1.63-4.74-.93-9.19-2.9-14-3.33a13,13,0,0,0-6.88,1.22.43.43,0,0,0-.08.67,66.91,66.91,0,0,0,6,4.2c-.29-.16-.57-.32-.87-.47a26.23,26.23,0,0,1-4.57-2.64c-2.07-1.62-2.27-4.32.62-4.67,4.36-.53,9.26,1.38,13.35,2.68,6.87,2.19,13.82,4.23,21.1,3.89a.43.43,0,0,0,.41-.53c-.36-2.18-3.39-3-5.16-3.51a62.81,62.81,0,0,0-9.73-1.76,39.75,39.75,0,0,1-8.57-1.81c-2-.72-4.23-2.85-2.26-4.91,1.28-1.32,4-1,5.65-.87a37.51,37.51,0,0,1,7.09,1.53,25.21,25.21,0,0,0-11.39.33.45.45,0,0,0-.27.65c.86,1.28,2.7,1.83,4.07,2.32a84.65,84.65,0,0,0,8.41,2.37c5.55,1.37,11.7,2.25,16.88,4.79.5.24,1.3.61,1.5,1.19C412.32,180.76,409.83,181,409.44,181Z"/><path class="cls-2" d="M83.73,60.72l.12-.07c.15-.06.31-.12.47-.2a8.52,8.52,0,0,0,2.36-1.86.42.42,0,0,0,0-.54,8.2,8.2,0,0,0,1.18-3.72c.55-7.2-8.24-8.29-12.71-4.57A5.19,5.19,0,0,0,73.61,52a6,6,0,0,0,1.1,6.59A8.22,8.22,0,0,0,83.73,60.72Z"/><path class="cls-2" d="M165.65,73.49a4.79,4.79,0,0,0-4.94-1.42c-5.26,1.21-10.25,4.77-14.78,7.54-1.93,1.18-3.83,2.4-5.81,3.5a103.82,103.82,0,0,1-12.34,5.36c-8.33,3.28-17,5-25.78,3.48,7.87-2.2,13.24-8,17.65-14.79,5.61-8.69,10.13-17.86,18.54-24.3,2.47-1.89,5.44-3,8.13-4.48,2.31-1.28,5.13-3,5.86-5.76.84-3.17-2.58-6.1-5.54-5.66-3.94.58-7.36,3.94-10.07,6.6A121.79,121.79,0,0,0,125,57.17c-3.52,4.65-6.85,9.43-10.14,14.24-1.74,2.54-3.34,5.55-5.49,7.76-15.81,16.27-41.19,17.35-61.88,12a2.13,2.13,0,0,0-2.29.51c-.57.66-.42,1.06-.09,1.87a5.07,5.07,0,0,0,3.64,2.75.37.37,0,0,0,.2.09l.5.08c.25,0,.49.09.74.12h0c10.78,1.74,21.72,3,32.6,3.89a165.93,165.93,0,0,0,32.14,0,93.19,93.19,0,0,0,29.52-8.06,82.74,82.74,0,0,0,13.58-8.16c2.46-1.79,5.25-3.51,7.1-6C166.18,76.89,167,74.93,165.65,73.49ZM164.23,78c-2.16,2.69-5.38,4.6-8.16,6.59a80.25,80.25,0,0,1-14.37,8.09c-14,6.15-29.46,7.86-44.6,7.62-7.6-.13-15.18-.78-22.72-1.62-8-.89-15.95-1.76-23.87-3l0,0-.76-.1-.46-.08h-.07A5.94,5.94,0,0,1,47,94.82a3.89,3.89,0,0,1-1.43-1.5c-.7-1.24.39-2,1.52-2,18.37,5,38.76,5.22,55.25-5.44,2.8-1.81,6-4,8.07-6.63.85-1.07,1.61-2.22,2.39-3.35,2.9-4.21,5.77-8.45,8.75-12.61,3.67-5.13,7.47-10.18,11.64-14.93,3.2-3.65,6.76-7.62,11.17-9.82a5.45,5.45,0,0,1,4.53-.52,4.07,4.07,0,0,1,2,5.37c-1.53,2.91-5.56,4.55-8.35,5.93a34.69,34.69,0,0,0-8.78,6.11c-12,11.33-15.76,32.57-34,36.09a.44.44,0,0,0,0,.85c10.9,2.49,21.2-.12,31.29-4.34a84.62,84.62,0,0,0,11.1-5.14c2.93-1.75,5.81-3.58,8.77-5.3a46.47,46.47,0,0,1,9.39-4.54,4.23,4.23,0,0,1,3.55.16C166.13,74.42,165.53,76.38,164.23,78Z"/><path class="cls-2" d="M70.61,216.1l-.38-.06a1.59,1.59,0,0,0-1.15.15,1.5,1.5,0,0,0-.3,2.35,1.55,1.55,0,0,0,1.45.38l.38-.06A1.44,1.44,0,0,0,70.61,216.1Z"/><path class="cls-2" d="M86.65,225.64a.44.44,0,0,0,0,.88A.44.44,0,0,0,86.65,225.64Z"/><path class="cls-2" d="M105.41,224.94l-.39-.05a1.19,1.19,0,0,0,0,2.38l.39,0a1.18,1.18,0,0,0,1.15-1.15A1.17,1.17,0,0,0,105.41,224.94Z"/><path class="cls-2" d="M113.23,206.17a1.15,1.15,0,0,0,0,2.29A1.15,1.15,0,0,0,113.23,206.17Z"/><path class="cls-2" d="M87.09,203.33l-.29.18a1.26,1.26,0,0,0,0,2.14l.29.18a1.45,1.45,0,1,0,0-2.5Z"/><path class="cls-2" d="M57.87,191.54l-.4-.21h0l.13.11a.9.9,0,0,0-1.27,1.28l-.12-.13,0,0c.07.13.14.27.2.4a1.07,1.07,0,1,0,1.47-1.46Z"/><path class="cls-2" d="M70.62,179.35a.6.6,0,0,0,0,1.2A.6.6,0,0,0,70.62,179.35Z"/><path class="cls-2" d="M73.75,196.39a.76.76,0,0,0,0,1.52A.76.76,0,0,0,73.75,196.39Z"/><path class="cls-2" d="M57.8,203.55l-.25.47a1.11,1.11,0,0,0,1.5,1.51l.48-.25a1.27,1.27,0,1,0-1.73-1.73Z"/><path class="cls-2" d="M42.47,203.13a.67.67,0,0,0,0,1.34A.67.67,0,0,0,42.47,203.13Z"/><path class="cls-2" d="M36.61,186a1,1,0,0,0,0,2A1,1,0,0,0,36.61,186Z"/><path class="cls-2" d="M34.65,175.7a.73.73,0,0,0,0,1.46A.73.73,0,0,0,34.65,175.7Z"/><path class="cls-2" d="M48.73,168.47l-.39,0a.55.55,0,0,0,0,1.1h.39A.54.54,0,0,0,48.73,168.47Z"/><path class="cls-2" d="M62.8,174.77a.49.49,0,0,0,0,1A.49.49,0,0,0,62.8,174.77Z"/><path class="cls-2" d="M54.2,180.88a1,1,0,0,0,0,2.05A1,1,0,0,0,54.2,180.88Z"/><path class="cls-2" d="M35.92,162.85l-.28.06a1.06,1.06,0,0,0,0,2l.28.07C37.72,165.43,37.72,162.41,35.92,162.85Z"/><path class="cls-2" d="M27.32,161.28a1.08,1.08,0,0,0,0,2.15,1.11,1.11,0,1,0,0-2.15Z"/><path class="cls-2" d="M35.13,155l.35-.43a.61.61,0,0,0-.87-.86l-.43.34C33.5,154.61,34.58,155.69,35.13,155Z"/><path class="cls-2" d="M61.24,155.19a.92.92,0,0,0,0,1.83A.92.92,0,0,0,61.24,155.19Z"/><path class="cls-2" d="M76.09,168a.66.66,0,0,0,0,1.31A.66.66,0,0,0,76.09,168Z"/><path class="cls-2" d="M85.1,183.26c.86.36,1.78-.53,1.78-1.36s-.92-1.71-1.78-1.35l-.35.15a1.25,1.25,0,0,0,0,2.41Z"/><path class="cls-2" d="M82,191.36a1.1,1.1,0,0,0,0,2.2A1.1,1.1,0,0,0,82,191.36Z"/><path class="cls-2" d="M97.2,192.94a.87.87,0,0,0,0-1.74A.87.87,0,0,0,97.2,192.94Z"/><path class="cls-2" d="M93.29,210.75a1.26,1.26,0,0,0,0,2.51A1.26,1.26,0,0,0,93.29,210.75Z"/><path class="cls-2" d="M86.94,221.78a1.49,1.49,0,0,0-2.21-1.27l-.29.18a1.27,1.27,0,0,0,0,2.18l.29.18A1.49,1.49,0,0,0,86.94,221.78Z"/><path class="cls-2" d="M75.7,226.83A1.21,1.21,0,0,0,74.49,228a2.82,2.82,0,0,0,.34,1.29,1,1,0,0,0,1.74,0,2.82,2.82,0,0,0,.34-1.29A1.21,1.21,0,0,0,75.7,226.83Z"/><path class="cls-2" d="M80.78,238.72a.66.66,0,0,0,0,1.31A.66.66,0,0,0,80.78,238.72Z"/><path class="cls-2" d="M97.2,242.37a.92.92,0,0,0,0,1.83A.92.92,0,0,0,97.2,242.37Z"/><path class="cls-2" d="M119.88,232a1.51,1.51,0,0,0,0,3A1.51,1.51,0,0,0,119.88,232Z"/><path class="cls-2" d="M135.12,218.31a.74.74,0,0,0,0,1.47A.74.74,0,0,0,135.12,218.31Z"/><path class="cls-2" d="M140,216.18a2.3,2.3,0,0,0-.93-.25,1.16,1.16,0,0,0,0,2.32A2.3,2.3,0,0,0,140,218,1.07,1.07,0,0,0,140,216.18Z"/><path class="cls-2" d="M146.07,223a1.5,1.5,0,0,0,0,3A1.5,1.5,0,0,0,146.07,223Z"/><path class="cls-2" d="M142.55,239a1.15,1.15,0,0,0,0,2.29A1.15,1.15,0,0,0,142.55,239Z"/><path class="cls-2" d="M132.39,246.06a1.13,1.13,0,0,0,0,2.26A1.13,1.13,0,0,0,132.39,246.06Z"/><path class="cls-2" d="M132.78,229.57a1.59,1.59,0,0,0,0,3.18A1.59,1.59,0,0,0,132.78,229.57Z"/><path class="cls-2" d="M117.14,217.16a1.5,1.5,0,0,0,0,3A1.5,1.5,0,0,0,117.14,217.16Z"/><path class="cls-2" d="M111.67,248.36a1.18,1.18,0,0,0,0,2.35A1.18,1.18,0,0,0,111.67,248.36Z"/><path class="cls-2" d="M161.37,245.25l-.12,0c-2-.6-2,3,0,2.38l.12,0a1,1,0,0,0,.62-.32,1.08,1.08,0,0,0,.34-.84,1.12,1.12,0,0,0-.34-.85A1,1,0,0,0,161.37,245.25Z"/><path class="cls-2" d="M168,229a1.41,1.41,0,0,0,0,2.81A1.41,1.41,0,0,0,168,229Z"/><path class="cls-2" d="M155.27,228.61l.14-.3a1.31,1.31,0,1,0-2.26,0l.14.3A1.15,1.15,0,0,0,155.27,228.61Z"/><path class="cls-2" d="M156.23,242.41a1.27,1.27,0,0,0,0,2.53A1.27,1.27,0,0,0,156.23,242.41Z"/><path class="cls-2" d="M150.76,257.3a.84.84,0,0,0,0,1.68A.84.84,0,0,0,150.76,257.3Z"/><path class="cls-2" d="M169.14,212.86a1.1,1.1,0,0,0,0,2.2A1.1,1.1,0,0,0,169.14,212.86Z"/><path class="cls-2" d="M147.47,203.8h0a2.23,2.23,0,0,0-1.35-.16,1.38,1.38,0,0,0-1,1.34,1.36,1.36,0,0,0,.62,1.14l.17.21a2,2,0,0,0,1,.59,1.62,1.62,0,0,0,2-1.55,1.61,1.61,0,0,0-.47-1.13A1.49,1.49,0,0,0,147.47,203.8Z"/><path class="cls-2" d="M131.85,192.15l-.35-.2a1.16,1.16,0,0,0-1.57,1.58l.19.35C131.14,195.72,133.69,193.17,131.85,192.15Z"/><path class="cls-2" d="M151.15,185.05a.77.77,0,0,0,0,1.53A.77.77,0,0,0,151.15,185.05Z"/><path class="cls-2" d="M167.35,200.07l.45-.3a1.22,1.22,0,1,0-1.67-1.67l-.3.44A1.12,1.12,0,0,0,167.35,200.07Z"/><path class="cls-2" d="M134.34,201.33a1.3,1.3,0,0,0,0,2.59A1.3,1.3,0,0,0,134.34,201.33Z"/><path class="cls-2" d="M124.18,203.12a1.07,1.07,0,0,0,0,2.14A1.07,1.07,0,0,0,124.18,203.12Z"/><path class="cls-2" d="M116.35,186.6a1.19,1.19,0,0,0-.86-1.12,1.17,1.17,0,0,0-1,.23,1.15,1.15,0,0,0-.69.16,1.29,1.29,0,0,0-.64,1.12,1.32,1.32,0,0,0,1.64,1.25A1.66,1.66,0,0,0,116.35,186.6Z"/><path class="cls-2" d="M181.65,185.73a1.48,1.48,0,0,0,0-3A1.48,1.48,0,0,0,181.65,185.73Z"/><path class="cls-2" d="M204.32,189.21a1.3,1.3,0,0,0,0,2.59A1.3,1.3,0,0,0,204.32,189.21Z"/><path class="cls-2" d="M207.84,200.49a1,1,0,0,0,0,1.92A1,1,0,0,0,207.84,200.49Z"/><path class="cls-2" d="M194.16,207.71a1.56,1.56,0,0,0,0,3.12A1.56,1.56,0,0,0,194.16,207.71Z"/><path class="cls-2" d="M189.3,197.27l-.46-.27a1.09,1.09,0,0,0-1.48,1.48l.27.46a1.22,1.22,0,1,0,1.67-1.67Z"/><path class="cls-2" d="M206.27,187.89a1.06,1.06,0,0,0,0,2.11A1.06,1.06,0,0,0,206.27,187.89Z"/><path class="cls-2" d="M219.57,182.88a1,1,0,0,0,0,2A1,1,0,0,0,219.57,182.88Z"/><path class="cls-2" d="M225.82,189.27a1.24,1.24,0,0,0,0,2.47A1.24,1.24,0,0,0,225.82,189.27Z"/><path class="cls-2" d="M225.82,202.59a1.21,1.21,0,0,0,0,2.41A1.21,1.21,0,0,0,225.82,202.59Z"/><path class="cls-2" d="M216.05,214.22a.92.92,0,0,0,0,1.83A.92.92,0,0,0,216.05,214.22Z"/><path class="cls-2" d="M200.41,227a1.44,1.44,0,0,0,0,2.87A1.44,1.44,0,0,0,200.41,227Z"/><path class="cls-2" d="M182.43,222.25a.71.71,0,0,0,0,1.41A.71.71,0,0,0,182.43,222.25Z"/><path class="cls-2" d="M182.43,212.67a.9.9,0,0,0,0,1.8A.9.9,0,0,0,182.43,212.67Z"/><path class="cls-2" d="M194.55,216.83a1,1,0,0,0,0,2.08A1,1,0,0,0,194.55,216.83Z"/><path class="cls-2" d="M180.08,235.46a1.18,1.18,0,0,0,0,2.35A1.18,1.18,0,0,0,180.08,235.46Z"/><path class="cls-2" d="M174,244.35l.05.28a1,1,0,0,0,2,0l.05-.28A1.08,1.08,0,1,0,174,244.35Z"/><path class="cls-2" d="M191.42,243.53a1.32,1.32,0,0,0,0,2.63A1.32,1.32,0,0,0,191.42,243.53Z"/><path class="cls-2" d="M213.31,228.85a1.53,1.53,0,0,0,0,3.06A1.53,1.53,0,0,0,213.31,228.85Z"/><path class="cls-2" d="M234.42,215.5a.42.42,0,0,0,0,.83A.42.42,0,0,0,234.42,215.5Z"/><path class="cls-2" d="M248.5,192.36a1.67,1.67,0,0,0-1.44,2.5l.2.28a1.46,1.46,0,0,0,2.48,0c.06-.09.13-.18.19-.28A1.67,1.67,0,0,0,248.5,192.36Z"/><path class="cls-2" d="M238.72,178.94a1.41,1.41,0,0,0,0,2.81A1.41,1.41,0,0,0,238.72,178.94Z"/><path class="cls-2" d="M238.33,175.37a.51.51,0,0,0,0-1A.51.51,0,0,0,238.33,175.37Z"/><path class="cls-2" d="M250.84,170.54a.81.81,0,0,0,0,1.62A.81.81,0,0,0,250.84,170.54Z"/><path class="cls-2" d="M260.62,170.52a.74.74,0,0,0,0-1.47A.74.74,0,0,0,260.62,170.52Z"/><path class="cls-2" d="M261.79,176.54a2,2,0,0,0-1.32.5,1.59,1.59,0,0,0-.43,1.35,1.39,1.39,0,0,0,1.36,1.36,1.22,1.22,0,0,0,.91-.38,1.57,1.57,0,0,0,.93-1.38A1.46,1.46,0,0,0,261.79,176.54Z"/><path class="cls-2" d="M254.36,181.62a1.07,1.07,0,0,0,0,2.14A1.07,1.07,0,0,0,254.36,181.62Z"/><path class="cls-2" d="M246.38,163.25a1.06,1.06,0,0,0-2,0c0,.12-.1.23-.14.35-.32.74.45,1.53,1.16,1.53a1.21,1.21,0,0,0,1.16-1.53Z"/><path class="cls-2" d="M238.33,161.59a.8.8,0,0,0,0-1.59A.8.8,0,0,0,238.33,161.59Z"/><path class="cls-2" d="M211.36,169.24a1.33,1.33,0,0,0,0,2.66A1.33,1.33,0,0,0,211.36,169.24Z"/><path class="cls-2" d="M199.63,162.5a.54.54,0,0,0,0-1.07A.54.54,0,0,0,199.63,162.5Z"/><path class="cls-2" d="M179.3,168.2a.37.37,0,0,0,0-.74A.37.37,0,0,0,179.3,168.2Z"/><path class="cls-2" d="M151.93,170.61a.35.35,0,0,0,0,.7A.35.35,0,0,0,151.93,170.61Z"/><path class="cls-2" d="M139.82,169.31a.48.48,0,0,0,0,.95A.48.48,0,0,0,139.82,169.31Z"/><path class="cls-2" d="M234.42,167H234a1.24,1.24,0,0,0,0,2.48h.39a1.25,1.25,0,0,0,0-2.5Z"/><path class="cls-2" d="M266.48,154.35l-.39,0a1.35,1.35,0,1,0,0,2.69h.39a1.36,1.36,0,1,0,0-2.72Z"/><path class="cls-2" d="M282.51,156.27a1,1,0,0,0,0,2A1,1,0,0,0,282.51,156.27Z"/><path class="cls-2" d="M270.78,166.75a.69.69,0,0,0,0,1.38A.69.69,0,0,0,270.78,166.75Z"/><path class="cls-2" d="M278.21,151.94a1,1,0,0,0,0,2.07A1,1,0,0,0,278.21,151.94Z"/><path class="cls-2" d="M291.5,154a1,1,0,0,0,0,1.9A1,1,0,0,0,291.5,154Z"/><path class="cls-2" d="M298.93,159.3a.32.32,0,0,0,0,.64A.32.32,0,0,0,298.93,159.3Z"/><path class="cls-2" d="M307.53,159.41a1,1,0,0,0,0,2A1,1,0,0,0,307.53,159.41Z"/><path class="cls-2" d="M310.66,155.07a.64.64,0,0,0,0,1.28A.64.64,0,0,0,310.66,155.07Z"/></g></svg>