<svg xmlns="http://www.w3.org/2000/svg" viewBox="0 0 205.87 53.5"><defs><style>.cls-1{fill:#fff;}.cls-2{fill:#272525;}</style></defs><title>life</title><g id="color"><path class="cls-1" d="M203.54,1.79c-.17-1.23-1.93,0-2.57.21a34.62,34.62,0,0,0-4.1,1.5,42.26,42.26,0,0,0-4.05,2.4c3.38-1.68,7.06-3.26,10.77-3.51C203.58,2.19,203.57,2,203.54,1.79Z"/><path class="cls-1" d="M183.63,13a25.16,25.16,0,0,0-1.56,2.16c1.05-1.31,2.12-2.64,3.27-3.88A15.42,15.42,0,0,0,183.63,13Z"/><path class="cls-1" d="M181,17l.09-.12-.12.12Z"/><path class="cls-1" d="M202.38,13.6c-3.36.24-6.71.34-10.06.67-2.82.28-6.37.6-9.13,1.89a36.77,36.77,0,0,1,8.2-1.55c3.65-.33,7.34-.17,11-.51C202.36,13.94,202.37,13.77,202.38,13.6Z"/><path class="cls-1" d="M186.61,11.79A29.73,29.73,0,0,1,190.51,9c4.06-2.34,8.13-4.42,12.78-5.29.32-.06.46.42.14.48a39.07,39.07,0,0,0-9.9,3.72,42.58,42.58,0,0,1,4.14-1.6c1.94-.62,4-.93,5.89-1.51A14.47,14.47,0,0,0,203.64,3a30.56,30.56,0,0,0-6.95,1.88,29.78,29.78,0,0,0-6.27,3,31.6,31.6,0,0,0-5.58,4.74c-.82.88-1.69,1.73-2.44,2.67l-.53.67a17.5,17.5,0,0,1,1.32-1.26A27.64,27.64,0,0,1,186.61,11.79Z"/><path class="cls-1" d="M200.19,17.33l-2.81,0c-1.73,0-3.47-.1-5.2-.12H191c3.79.49,7.57,1.22,11.37,1.58,0-.41,0-.82,0-1.24v-.19A15.56,15.56,0,0,0,200.19,17.33Z"/><path class="cls-1" d="M134.2,14.28c-15.54-1.45-31-4-46.62-4.41-15.89-.43-32.11-.6-47.8,2.22A172.88,172.88,0,0,0,18.6,17.23c-3.51,1.1-7,2.32-10.34,3.73A14.39,14.39,0,0,0,3.8,23.29c-.89.86-2.39,2-2.83,3.18a2.66,2.66,0,0,1,.71.86,12.44,12.44,0,0,0,3.27,4,37.81,37.81,0,0,0,10.91,5.63,186,186,0,0,0,23.49,6.14,240.41,240.41,0,0,0,50.47,5.27c16.81,0,34.2-.19,50.26-5.76,8.08-2.8,15.66-6.09,22.71-11a93,93,0,0,0,9.2-6.85c2.4-2.13,4.72-4.34,7.15-6.44a185.12,185.12,0,0,1-22.81-1.4C149,16,141.61,15,134.2,14.28ZM22.48,24c-1.29.13-3,.23-3.61-1.24a2.11,2.11,0,0,1-.24-1,2.35,2.35,0,0,1,.73-1.92,3.08,3.08,0,0,1,.72-.51c2.08-1.55,5.49-2.31,7.45-.39C30.25,21.53,24.19,23.81,22.48,24Zm14.85-.46a4.47,4.47,0,0,1,0-1.59c.11-.6,1-.34.91.25a3,3,0,0,0,0,1.08C38.37,23.87,37.43,24.12,37.33,23.52Zm4.36-6.43c-.06.47-.79.47-.73,0,.1-.82.2-1.64.22-2.48a.34.34,0,0,1,.67,0A20.52,20.52,0,0,1,41.69,17.09Zm6,.2a.53.53,0,0,1-1.05,0c0-.71.08-1.42,0-2.13a5.36,5.36,0,0,1,.11-1.6c.13-.5.83-.28.75.2C47.32,14.9,47.75,16.13,47.67,17.29Zm1.12,8.91c-.14.65-1.19.37-1-.27a18.2,18.2,0,0,0,.27-2.08c.07-.49.9-.38.86.11A18.57,18.57,0,0,1,48.79,26.2Zm3.73-10.35c0-1,0-2,0-3a.43.43,0,0,1,.85,0c0,1,.23,2,.21,3A.54.54,0,0,1,52.52,15.85ZM55.05,24c0,.74-1.2.72-1.12,0,.13-1.22.27-2.44.49-3.65.1-.51,1-.4.92.12C55.18,21.61,55.11,22.78,55.05,24Zm3.47-8.11c-.06-.59-.16-1.18-.24-1.77s.91-.94,1-.27.19,1.27.32,1.9A.55.55,0,1,1,58.52,15.85ZM62,24c-.27.46-1.09.16-.89-.38a7.09,7.09,0,0,0,.12-2.35.45.45,0,0,1,.89,0c0,.54,0,1.09,0,1.62A1.63,1.63,0,0,1,62,24Zm3-7.76a17.39,17.39,0,0,0,.31-2.79.48.48,0,0,1,1,0,14.79,14.79,0,0,1-.07,3.12C66,17.38,64.78,17.06,65,16.26Zm2.78,5.57a4.28,4.28,0,0,1-.45,1.46.57.57,0,0,1-1-.43c.11-.45.25-.89.36-1.34C66.8,20.79,67.91,21.1,67.74,21.83Zm4.77,6.44A4.6,4.6,0,0,1,71.93,30a.37.37,0,0,1-.63-.26,6,6,0,0,1,.47-1.63A.38.38,0,0,1,72.51,28.27Zm1-6.4a.43.43,0,0,1-.86,0c-.07-1.18.08-2.36.12-3.54a.41.41,0,0,1,.81,0C73.62,19.51,73.61,20.69,73.53,21.87Zm1.19-8.58c0,.38-.71.38-.77,0a4,4,0,0,1,.1-1.46c.12-.51.86-.28.77.22S74.78,12.88,74.72,13.29ZM79,24.47c-.09.42-.19.85-.27,1.27a10.24,10.24,0,0,1-.16,1.13c0,.07-.09.32-.07.22s0,.05,0,.07a1.57,1.57,0,0,1-.19.55.53.53,0,0,1-.59.24h0a.47.47,0,0,1-.34-.44,1.74,1.74,0,0,1,.25-.91h0a21.34,21.34,0,0,1,.53-2.37A.47.47,0,0,1,79,24.47Zm2.18-8.69c-.09.58-1,.34-.88-.24s.22-1.07.32-1.61.9-.31.82.22S81.25,15.24,81.17,15.78ZM83.71,22c-.1.32-.19.64-.3.95-.2.62-1.16.36-1-.26l.27-1C82.91,21.09,83.92,21.37,83.71,22Zm4.82-7.2a.45.45,0,0,1-.88.12,3.72,3.72,0,0,1,0-2c.09-.5,1-.39.91.13S88.57,14.23,88.53,14.8Zm.17,14.13c0-.35,0-.7,0-1.05a.4.4,0,0,1,.8,0c0,.35,0,.7,0,1.05A.43.43,0,0,1,88.7,28.93Zm1.65-8.21a.46.46,0,0,1-.92,0,9.79,9.79,0,0,1,.07-1.95c.1-.64,1.06-.36,1,.27S90.38,20.16,90.35,20.72Zm4.34,1.86a6,6,0,0,1-.59,2.19c-.24.31-.89.27-.84-.23a13,13,0,0,1,.42-2.24A.52.52,0,0,1,94.69,22.58Zm.55-8.53a.41.41,0,0,1-.78,0c-.07-.44,0-.88-.12-1.33s.72-.78.83-.22A4,4,0,0,1,95.24,14.05Zm5.17,5a4.84,4.84,0,0,1,0-1.78c.1-.61,1-.34.93.26a5.05,5.05,0,0,0,0,1.4C101.4,19.44,100.52,19.54,100.41,19Zm3.3,9.74c0,.13-.07.24-.09.38-.1.61-1,.35-.93-.26a2.66,2.66,0,0,1,.1-.38C102.94,27.91,103.86,28.17,103.71,28.77Zm.72-8.37a3.06,3.06,0,0,1-.61-2.07.48.48,0,0,1,1,0,2.66,2.66,0,0,0,.42,1.48C105.5,20.26,104.78,20.83,104.43,20.4Zm2.15,5.29a.38.38,0,0,1-.74-.21c.15-.57.31-1.15.42-1.73s1-.32.85.24A8.58,8.58,0,0,1,106.58,25.69Zm1.21-10.48a10.07,10.07,0,0,1-.29-1.43c-.09-.55.72-.8.85-.24a9.2,9.2,0,0,1,.29,1.55C108.68,15.6,107.94,15.65,107.79,15.21Zm3.6,3.6a3.94,3.94,0,0,1-.1-.47.37.37,0,1,1,.73-.1c0,.13,0,.25.08.38C112.18,19.08,111.49,19.28,111.39,18.81Zm.67,7.47a6.26,6.26,0,0,1-.18-1.36c0-.57.85-.56.87,0a6.1,6.1,0,0,0,.19,1.12C113.09,26.61,112.19,26.85,112.06,26.28Zm4.36-6.7a.48.48,0,0,1-1,0v-1a.48.48,0,0,1,1,0Zm1.65-3.91c-.12-.42-.26-.83-.37-1.25a.35.35,0,0,1,.68-.19c.12.42.28.82.39,1.24A.36.36,0,0,1,118.07,15.67Zm1.09,10.9L119,26.3c-.16-.38.41-.58.5-.21l.07.29C119.67,26.64,119.28,26.83,119.16,26.57Zm1.4-4.28-.28.57c-.16.32-.63,0-.47-.27l.28-.58C120.25,21.7,120.72,22,120.56,22.29Zm2.22,3.61c-.21.7-.4,1.39-.59,2.09a.45.45,0,0,1-.86-.23c.17-.71.36-1.41.56-2.1A.46.46,0,0,1,122.78,25.9Zm1.34-7.81c-.44-1.05-1-2.07-1.47-3.08a.41.41,0,0,1,.7-.41c.6,1,1.19,2,1.72,3.09A.52.52,0,1,1,124.12,18.09Zm1.73,4.06a.46.46,0,0,1-.92,0,16.55,16.55,0,0,1,.19-2.1c.07-.58,1-.59.92,0A18.62,18.62,0,0,0,125.85,22.15Zm3,6.87a.39.39,0,0,1-.78,0v-.76a.4.4,0,0,1,.8,0C128.84,28.51,128.83,28.77,128.83,29Zm.91-10.95a14.88,14.88,0,0,1-.09-2.31.41.41,0,0,1,.82,0c0,.73,0,1.46.12,2.19C130.64,18.43,129.82,18.54,129.74,18.07ZM130.86,22a3,3,0,0,0-.09.84.42.42,0,0,1-.84,0,4.26,4.26,0,0,1,.09-1.07A.44.44,0,0,1,130.86,22Zm2.24-2.31a.46.46,0,0,1-.92,0v-.48a.46.46,0,0,1,.92,0Zm1.63,8a.44.44,0,0,1-.8-.34,2.4,2.4,0,0,0,.16-.64c0-.58.95-.59.91,0A2.25,2.25,0,0,1,134.73,27.62Zm3.49-6.38a3.68,3.68,0,0,1-.81-1l0,0a5.34,5.34,0,0,1-1.22,1.2c-.41.27-.79-.39-.38-.66a4.73,4.73,0,0,0,1.06-1.08.31.31,0,0,1,.27-.13c-.24-.57-.42-1.18-.61-1.71-.13-.36.46-.61.62-.26.26.55.49,1.11.79,1.64a9.8,9.8,0,0,0,1,1.35A.47.47,0,0,1,138.22,21.24Zm3.91,4.26a3.27,3.27,0,0,1-.34-.95.41.41,0,0,1,.78-.22,4,4,0,0,0,.24.77A.39.39,0,0,1,142.13,25.5Zm1.18-4c-.07.58-.94.62-.93,0,0-.28.05-.57.05-.86,0-.67,1.1-.63,1,0C143.42,20.91,143.35,21.2,143.31,21.48Zm3.41-1.66a8.57,8.57,0,0,1-.6-1.55c-.17-.58.7-.8.89-.25a7.9,7.9,0,0,0,.55,1.31C147.88,19.87,147,20.37,146.72,19.82Zm2.55,1.86a6.23,6.23,0,0,1-.07-1.06.33.33,0,0,1,.65,0,2.49,2.49,0,0,0,.12.86C150.13,21.93,149.36,22.13,149.27,21.68Zm.12-2.46a7.94,7.94,0,0,0-.11-1,.36.36,0,0,1,.65-.27,2.9,2.9,0,0,1,.31,1C150.41,19.54,149.47,19.77,149.39,19.22Zm12.59.5.1.09a.34.34,0,0,1-.24.58h-.1a.31.31,0,0,1-.32-.31h0s0,0,0,0A.34.34,0,0,1,162,19.72ZM159,20a.26.26,0,0,1,.52,0v.09a.26.26,0,0,1-.52,0Zm-2.31-1.47c.18.4.29.83.45,1.25s-.64.84-.86.36-.25-.85-.41-1.26S156.48,18,156.69,18.49Z"/><path class="cls-1" d="M25.2,19a1.81,1.81,0,0,1,.75.67,1.79,1.79,0,0,1-.38,2.07,3.08,3.08,0,0,0,.81-.61C27.53,19.74,26.16,19.14,25.2,19Z"/><path class="cls-1" d="M191.72,16.46c-2.33,0-4.65.11-6.95.38h.35c2.74-.17,5.48-.21,8.22-.22,1.72,0,3.44.05,5.16,0l2.83,0c.33,0,.68,0,1,0v-.59C198.8,16.23,195.27,16.4,191.72,16.46Z"/><path class="cls-1" d="M41.82,44.85c.27.41.54.82.84,1.21a16.79,16.79,0,0,1,1.29,2,13.68,13.68,0,0,1,.82,1.73c.31.86.57,1.89,1.69,1.28,1.36-.74,2.76-1.4,4.11-2.16a30.92,30.92,0,0,0,2.92-2.1q-5.94-.9-11.77-2.11Z"/><path class="cls-1" d="M17.48,16.59q3.27-1.06,6.59-2a20.91,20.91,0,0,0-1-2.45,3.44,3.44,0,0,1-.33-1.09c-.61,1.06-1.2,2.11-1.74,3.2a.87.87,0,0,1-1.17.24,14.25,14.25,0,0,0-3.73-1.35,12.62,12.62,0,0,0,.81,2.38C17.1,15.93,17.33,16.21,17.48,16.59Z"/><path class="cls-1" d="M21.49,21.39v0a2,2,0,0,0-.61.4c-.22.24.48.28,1.11.25A1.29,1.29,0,0,1,21.49,21.39Z"/><path class="cls-1" d="M57.51,50.4a14.1,14.1,0,0,0,1.31,1.76c.49.54.44.81,1.17.21a31.63,31.63,0,0,0,2.9-2.77c.4-.43.77-.93,1.19-1.38q-4.42-.47-8.82-1.1A21.38,21.38,0,0,0,57.51,50.4Z"/><path class="cls-1" d="M192,13a31.08,31.08,0,0,0-6.12,1.78,32.72,32.72,0,0,1,5.36-1c3.72-.43,7.45-.57,11.18-.86,0-.34,0-.68.07-1C199,12.57,195.43,12.4,192,13Z"/><path class="cls-1" d="M203,26.23a12.93,12.93,0,0,0-2.49-.5c-.76-.18-1.5-.42-2.25-.64a44.64,44.64,0,0,1-5.16-1.73c-.92-.4-1.86-.8-2.8-1.22a19.8,19.8,0,0,0,3.22,1.69c3.11,1.21,6.39,2.57,9.74,3A5.1,5.1,0,0,1,203,26.23Z"/><path class="cls-1" d="M203.73,27.6a31.75,31.75,0,0,1-8.38-2.31,39.48,39.48,0,0,0,9,3.39A9.31,9.31,0,0,0,203.73,27.6Z"/><path class="cls-1" d="M199.43,24.68c1,.28,2.29.34,3.35.67a3.33,3.33,0,0,1-.05-.56c0-.13,0-.26,0-.39a37.34,37.34,0,0,1-10-2.46c-1.93-.73-3.86-1.49-5.78-2.25l-.5-.22,1.18.79c2,1,4.13,1.91,6.23,2.69C195.71,23.62,197.57,24.14,199.43,24.68Z"/><path class="cls-1" d="M191.73,18c3.54.55,7.12,1.2,10.69,1.51v-.06c-3.4-.25-6.8-1-10.17-1.52a42.92,42.92,0,0,0-5.88-.6H186c.21,0,.43.05.64.06C188.35,17.5,190,17.71,191.73,18Z"/><path class="cls-1" d="M192.36,19.37c3.35.59,6.76,1.18,10.15,1.47,0-.23,0-.45,0-.68-3.27-.29-6.54-.86-9.77-1.4-2.76-.46-5.59-1-8.41-1.28.91.23,1.82.5,2.7.73C188.76,18.68,190.55,19.05,192.36,19.37Z"/><path class="cls-1" d="M202.35,15.48v-.75c-3.44.3-6.93.11-10.39.37a48.24,48.24,0,0,0-10.06,1.79H182a38.89,38.89,0,0,1,9.73-1C195.27,15.85,198.81,15.63,202.35,15.48Z"/><path class="cls-1" d="M203.48,5.52c-1.7.46-3.46.71-5.16,1.25a43.16,43.16,0,0,0-10.81,5,41,41,0,0,1,4.23-2,49.8,49.8,0,0,1,6-2.14c1.86-.49,3.74-.86,5.59-1.38C203.41,6,203.45,5.77,203.48,5.52Z"/><path class="cls-1" d="M192.93,21.31a41.72,41.72,0,0,0,9.77,2.36c0-.27,0-.53,0-.79a60.16,60.16,0,0,1-10.31-2.16c-1.53-.44-3.07-.85-4.59-1.3C189.5,20,191.19,20.71,192.93,21.31Z"/><path class="cls-1" d="M202.94,8.59a37.9,37.9,0,0,1-4.25.8A41.05,41.05,0,0,0,193,10.86a47.87,47.87,0,0,0-6.43,2.57,30.45,30.45,0,0,1,5.17-1.89,50.32,50.32,0,0,1,5.83-1.23l2.84-.37c.58-.07,1.56-.08,2.31-.23C202.81,9.33,202.87,9,202.94,8.59Z"/><path class="cls-1" d="M203.07,7.9c.07-.31.12-.63.18-.94-1.74.52-3.55.81-5.31,1.27a50.33,50.33,0,0,0-5.59,1.89,34.6,34.6,0,0,0-7.9,4.06l-.08.07a34.73,34.73,0,0,1,7.47-3.61c3.66-1.3,7.43-1.8,11.17-2.74Z"/><path class="cls-1" d="M191.5,19.84l.5.14a64.15,64.15,0,0,0,10.61,2.23c0-.24,0-.47-.05-.71-3.29-.27-6.61-.84-9.85-1.43Z"/><path class="cls-1" d="M202.61,10.54s0-.08,0-.12c-1.08.2-2.38.19-3.3.3a55.57,55.57,0,0,0-6.4,1.1A34.2,34.2,0,0,0,182.5,16h0l.47-.24a26.23,26.23,0,0,1,8.88-3.32c3.53-.63,7.2-.55,10.7-1.26C202.55,11,202.58,10.77,202.61,10.54Z"/></g><g id="stroke"><path class="cls-2" d="M203.94,24c-.06-.38-.1-.76-.15-1.14a.34.34,0,0,0,0-.46,76.37,76.37,0,0,1-.16-8.82c.06-3.17.95-6.19,1.23-9.33.07-.78.36-4-.9-4.2-1.88-.29-4.06,1.14-5.81,1.71a27.49,27.49,0,0,0-7.3,4.18c-2.49,1.81-4.94,3.66-7.27,5.68-1.66,1.44-2.48,3.62-3.62,5.47a.6.6,0,0,0-.24,0c-16,0-31.66-2.64-47.54-4.18-16.34-1.59-32.54-4-49-4.23-16-.2-32.08,0-47.84,3.27Q30,13,24.77,14.41c-.38-1-.82-1.92-1.15-2.91-.19-.54-.17-1-.67-1.29a.36.36,0,0,0-.36,0c-1,.66-1.63,2.46-2.09,3.48-.21.45-4.2-1.26-4.81-1.24a.34.34,0,0,0-.32.42,10.37,10.37,0,0,0,.46,1.74c.31.7.92,1.4,1.24,2.11-1.24.41-2.47.82-3.69,1.25A65.48,65.48,0,0,0,5.2,21.46c-1.73.91-4,2.87-4.72,4.73l-.1-.05C0,26-.16,26.6.21,26.75c1.14.45,1.07,1.83,1.74,2.62a23.09,23.09,0,0,0,3.21,3.12,40.37,40.37,0,0,0,9.45,5c7.76,3.17,16.27,4.86,24.43,6.68l2.25.48c.56,1.45,1.68,2.78,2.37,4.17.44.89.7,3.09,1.92,3.27a2.33,2.33,0,0,0,1.24-.37c.93-.45,1.84-1,2.76-1.45a30,30,0,0,0,2.65-1.5c.81-.51,1.48-1.22,2.27-1.77l.34.05c.27,1.21,1.25,2.21,1.9,3.25.54.88,1.32,2.55,2.25,3.09.76.45,1.75-.76,2.23-1.18a28.83,28.83,0,0,0,2.16-2.12c.52-.54,1-1.27,1.58-1.79A257.1,257.1,0,0,0,90.89,49.6c17,0,34.33-.48,50.58-6.11a89,89,0,0,0,22-10.75,107.3,107.3,0,0,0,8.75-6.42c3-2.53,5.72-5.28,8.7-7.8l.09-.09c4.77,1.28,8.15,4.85,12.31,7.28a41.79,41.79,0,0,0,6,2.49,29.49,29.49,0,0,0,5.74,1.9.63.63,0,0,0,.77-.77,4,4,0,0,0-.89-1.88C204,26.18,204.14,25.42,203.94,24Zm-187-8.46a12.62,12.62,0,0,1-.81-2.38,14.25,14.25,0,0,1,3.73,1.35A.87.87,0,0,0,21,14.26c.54-1.09,1.13-2.14,1.74-3.2a3.44,3.44,0,0,0,.33,1.09,20.91,20.91,0,0,1,1,2.45q-3.32.93-6.59,2C17.33,16.21,17.1,15.93,16.92,15.53ZM50.57,49c-1.35.76-2.75,1.42-4.11,2.16-1.12.61-1.38-.42-1.69-1.28A13.68,13.68,0,0,0,44,48.11a16.79,16.79,0,0,0-1.29-2c-.3-.39-.57-.8-.84-1.21l-.1-.1Q47.54,46,53.49,46.86A30.92,30.92,0,0,1,50.57,49Zm12.32.64A31.63,31.63,0,0,1,60,52.37c-.73.6-.68.33-1.17-.21a14.1,14.1,0,0,1-1.31-1.76,21.38,21.38,0,0,1-2.25-3.28q4.4.63,8.82,1.1C63.66,48.67,63.29,49.17,62.89,49.6ZM172,24.74a93,93,0,0,1-9.2,6.85c-7,4.88-14.63,8.17-22.71,11C124,48.13,106.63,48.3,89.82,48.32a240.41,240.41,0,0,1-50.47-5.27,186,186,0,0,1-23.49-6.14A37.81,37.81,0,0,1,5,31.28a12.44,12.44,0,0,1-3.27-4A2.66,2.66,0,0,0,1,26.47c.44-1.18,1.94-2.32,2.83-3.18A14.39,14.39,0,0,1,8.26,21c3.39-1.41,6.83-2.63,10.34-3.73a172.88,172.88,0,0,1,21.18-5.14c15.69-2.82,31.91-2.65,47.8-2.22,15.63.42,31.08,3,46.62,4.41C141.61,15,149,16,156.33,16.9a185.12,185.12,0,0,0,22.81,1.4C176.71,20.4,174.39,22.61,172,24.74ZM196.87,3.5A34.62,34.62,0,0,1,201,2c.64-.22,2.4-1.44,2.57-.21,0,.2,0,.4.05.6-3.71.25-7.39,1.83-10.77,3.51A42.26,42.26,0,0,1,196.87,3.5ZM183.63,13a15.42,15.42,0,0,1,1.71-1.72c-1.15,1.24-2.22,2.57-3.27,3.88A25.16,25.16,0,0,1,183.63,13ZM181,17h0l.12-.12Zm1.43-1.77c.75-.94,1.62-1.79,2.44-2.67a31.6,31.6,0,0,1,5.58-4.74,29.78,29.78,0,0,1,6.27-3A30.56,30.56,0,0,1,203.64,3a14.47,14.47,0,0,1-.08,1.86c-1.93.58-3.95.89-5.89,1.51a42.58,42.58,0,0,0-4.14,1.6,39.07,39.07,0,0,1,9.9-3.72c.32-.06.18-.54-.14-.48-4.65.87-8.72,2.95-12.78,5.29a29.73,29.73,0,0,0-3.9,2.77,27.64,27.64,0,0,0-3.42,2.85,17.5,17.5,0,0,0-1.32,1.26Zm19.95,2.29c0,.42,0,.83,0,1.24-3.8-.36-7.58-1.09-11.37-1.58h1.17c1.73,0,3.47.09,5.2.12l2.81,0a15.56,15.56,0,0,1,2.16,0Zm-11-2.91a36.77,36.77,0,0,0-8.2,1.55c2.76-1.29,6.31-1.61,9.13-1.89,3.35-.33,6.7-.43,10.06-.67,0,.17,0,.34,0,.5C198.73,14.44,195,14.28,191.39,14.61Zm9.94,2.08-2.83,0c-1.72,0-3.44-.05-5.16,0-2.74,0-5.48.05-8.22.22h-.35c2.3-.27,4.62-.34,6.95-.38,3.55-.06,7.08-.23,10.63-.37v.59C202,16.66,201.66,16.69,201.33,16.69Zm-15,.61a42.92,42.92,0,0,1,5.88.6c3.37.49,6.77,1.27,10.17,1.52v.06c-3.57-.31-7.15-1-10.69-1.51-1.69-.26-3.38-.47-5.08-.62-.21,0-.43,0-.64-.06Zm16-4.37c-3.73.29-7.46.43-11.18.86a32.72,32.72,0,0,0-5.36,1A31.08,31.08,0,0,1,192,13c3.45-.64,7.05-.47,10.49-1.12C202.44,12.25,202.42,12.59,202.4,12.93Zm-10.57-.44A26.23,26.23,0,0,0,183,15.81l-.47.24h0a34.2,34.2,0,0,1,10.43-4.22,55.57,55.57,0,0,1,6.4-1.1c.92-.11,2.22-.1,3.3-.3,0,0,0,.08,0,.12,0,.23-.06.46-.08.69C199,11.94,195.36,11.86,191.83,12.49Zm10.73,9c0,.24,0,.47.05.71A64.15,64.15,0,0,1,192,20l-.5-.14,1.21.23C196,20.66,199.27,21.23,202.56,21.5Zm-10.21-.78a60.16,60.16,0,0,0,10.31,2.16c0,.26,0,.52,0,.79a41.72,41.72,0,0,1-9.77-2.36c-1.74-.6-3.43-1.29-5.17-1.89C189.28,19.87,190.82,20.28,192.35,20.72Zm8.08-10.78-2.84.37a50.32,50.32,0,0,0-5.83,1.23,30.45,30.45,0,0,0-5.17,1.89A47.87,47.87,0,0,1,193,10.86a41.05,41.05,0,0,1,5.67-1.47,37.9,37.9,0,0,0,4.25-.8c-.07.37-.13.74-.2,1.12C202,9.86,201,9.87,200.43,9.94Zm-8.59.7a34.73,34.73,0,0,0-7.47,3.61l.08-.07a34.6,34.6,0,0,1,7.9-4.06,50.33,50.33,0,0,1,5.59-1.89c1.76-.46,3.57-.75,5.31-1.27-.06.31-.11.63-.18.94H203C199.27,8.84,195.5,9.34,191.84,10.64Zm5.94-3a49.8,49.8,0,0,0-6,2.14,41,41,0,0,0-4.23,2,43.16,43.16,0,0,1,10.81-5c1.7-.54,3.46-.79,5.16-1.25,0,.25-.07.5-.11.75C201.52,6.79,199.64,7.16,197.78,7.65ZM181.9,16.89A48.24,48.24,0,0,1,192,15.1c3.46-.26,6.95-.07,10.39-.37v.75c-3.54.15-7.08.37-10.63.44a38.89,38.89,0,0,0-9.73,1Zm10.79,1.87c3.23.54,6.5,1.11,9.77,1.4,0,.23,0,.45,0,.68-3.39-.29-6.8-.88-10.15-1.47-1.81-.32-3.6-.69-5.38-1.16-.88-.23-1.79-.5-2.7-.73C187.1,17.79,189.93,18.3,192.69,18.76Zm-6.22.71.5.22c1.92.76,3.85,1.52,5.78,2.25a37.34,37.34,0,0,0,10,2.46c0,.13,0,.26,0,.39a3.33,3.33,0,0,0,.05.56c-1.06-.33-2.38-.39-3.35-.67-1.86-.54-3.72-1.06-5.55-1.73-2.1-.78-4.18-1.71-6.23-2.69Zm3.84,2.67c.94.42,1.88.82,2.8,1.22a44.64,44.64,0,0,0,5.16,1.73c.75.22,1.49.46,2.25.64a12.93,12.93,0,0,1,2.49.5,5.1,5.1,0,0,0,.26.58c-3.35-.41-6.63-1.77-9.74-3A19.8,19.8,0,0,1,190.31,22.14Zm5,3.15a31.75,31.75,0,0,0,8.38,2.31,9.31,9.31,0,0,1,.59,1.08A39.48,39.48,0,0,1,195.35,25.29Z"/><path class="cls-2" d="M20.08,19.26a3.08,3.08,0,0,0-.72.51,2.35,2.35,0,0,0-.73,1.92,2.11,2.11,0,0,0,.24,1c.58,1.47,2.32,1.37,3.61,1.24,1.71-.17,7.77-2.45,5.05-5.11C25.57,17,22.16,17.71,20.08,19.26Zm.8,2.51a2,2,0,0,1,.61-.4v0A1.29,1.29,0,0,0,22,22C21.36,22.05,20.66,22,20.88,21.77Zm5.5-.68a3.08,3.08,0,0,1-.81.61A1.79,1.79,0,0,0,26,19.63,1.81,1.81,0,0,0,25.2,19C26.16,19.14,27.53,19.74,26.38,21.09Z"/><path class="cls-2" d="M47.52,13.76c.08-.48-.62-.7-.75-.2a5.36,5.36,0,0,0-.11,1.6c0,.71-.09,1.42,0,2.13a.53.53,0,0,0,1.05,0C47.75,16.13,47.32,14.9,47.52,13.76Z"/><path class="cls-2" d="M52.54,12.8c0,1-.06,2,0,3a.54.54,0,0,0,1.08,0c0-1-.17-2-.21-3A.43.43,0,0,0,52.54,12.8Z"/><path class="cls-2" d="M54.42,20.31c-.22,1.21-.36,2.43-.49,3.65-.08.72,1.09.74,1.12,0,.06-1.18.13-2.35.29-3.53C55.41,19.91,54.52,19.8,54.42,20.31Z"/><path class="cls-2" d="M59.29,13.81c-.1-.67-1.1-.38-1,.27s.18,1.18.24,1.77a.55.55,0,1,0,1.09-.14C59.48,15.08,59.38,14.44,59.29,13.81Z"/><path class="cls-2" d="M66.23,13.47a.48.48,0,0,0-1,0A17.39,17.39,0,0,1,65,16.26c-.18.8,1.08,1.12,1.2.33A14.79,14.79,0,0,0,66.23,13.47Z"/><path class="cls-2" d="M66.62,21.52c-.11.45-.25.89-.36,1.34a.57.57,0,0,0,1,.43,4.28,4.28,0,0,0,.45-1.46C67.91,21.1,66.8,20.79,66.62,21.52Z"/><path class="cls-2" d="M62.09,21.29a.45.45,0,0,0-.89,0,7.09,7.09,0,0,1-.12,2.35c-.2.54.62.84.89.38a1.63,1.63,0,0,0,.15-1.11C62.07,22.38,62.09,21.83,62.09,21.29Z"/><path class="cls-2" d="M48.06,23.85a18.2,18.2,0,0,1-.27,2.08c-.19.64.86.92,1,.27A18.57,18.57,0,0,0,48.92,24C49,23.47,48.13,23.36,48.06,23.85Z"/><path class="cls-2" d="M41.18,14.61c0,.84-.12,1.66-.22,2.48-.06.47.67.47.73,0a20.52,20.52,0,0,0,.16-2.48A.34.34,0,0,0,41.18,14.61Z"/><path class="cls-2" d="M38.25,22.18c.1-.59-.8-.85-.91-.25a4.47,4.47,0,0,0,0,1.59c.1.6,1,.35.92-.26A3,3,0,0,1,38.25,22.18Z"/><path class="cls-2" d="M74.05,11.83a4,4,0,0,0-.1,1.46c.06.38.72.38.77,0s0-.83.1-1.24S74.17,11.32,74.05,11.83Z"/><path class="cls-2" d="M80.61,13.93c-.1.54-.22,1.07-.32,1.61s.79.82.88.24.17-1.08.26-1.63S80.71,13.38,80.61,13.93Z"/><path class="cls-2" d="M78.08,24.22a21.34,21.34,0,0,0-.53,2.37h0a1.74,1.74,0,0,0-.25.91.47.47,0,0,0,.34.44h0a.53.53,0,0,0,.59-.24,1.57,1.57,0,0,0,.19-.55s0-.05,0-.07.05-.15.07-.22a10.24,10.24,0,0,0,.16-1.13c.08-.42.18-.85.27-1.27A.47.47,0,0,0,78.08,24.22Z"/><path class="cls-2" d="M72.79,18.33c0,1.18-.19,2.36-.12,3.54a.43.43,0,0,0,.86,0c.08-1.18.09-2.36.07-3.54A.41.41,0,0,0,72.79,18.33Z"/><path class="cls-2" d="M71.77,28.06a6,6,0,0,0-.47,1.63.37.37,0,0,0,.63.26,4.6,4.6,0,0,0,.58-1.68A.38.38,0,0,0,71.77,28.06Z"/><path class="cls-2" d="M82.71,21.73l-.27,1c-.19.62.77.88,1,.26.11-.31.2-.63.3-.95C83.92,21.37,82.91,21.09,82.71,21.73Z"/><path class="cls-2" d="M87.63,13a3.72,3.72,0,0,0,0,2,.45.45,0,0,0,.88-.12c0-.57-.06-1.13,0-1.71S87.72,12.46,87.63,13Z"/><path class="cls-2" d="M94.34,12.72c.07.45,0,.89.12,1.33a.41.41,0,0,0,.78,0,4,4,0,0,0-.07-1.55C95.06,11.94,94.26,12.19,94.34,12.72Z"/><path class="cls-2" d="M93.68,22.3a13,13,0,0,0-.42,2.24c-.05.5.6.54.84.23a6,6,0,0,0,.59-2.19A.52.52,0,0,0,93.68,22.3Z"/><path class="cls-2" d="M89.5,18.77a9.79,9.79,0,0,0-.07,1.95.46.46,0,0,0,.92,0c0-.56,0-1.13.12-1.68S89.6,18.13,89.5,18.77Z"/><path class="cls-2" d="M88.73,27.88c0,.35,0,.7,0,1.05a.43.43,0,0,0,.85,0c0-.35,0-.7,0-1.05A.4.4,0,0,0,88.73,27.88Z"/><path class="cls-2" d="M101.33,17.51c.08-.6-.83-.87-.93-.26a4.84,4.84,0,0,0,0,1.78c.11.51,1,.41.92-.12A5.05,5.05,0,0,1,101.33,17.51Z"/><path class="cls-2" d="M107.5,13.78a10.07,10.07,0,0,0,.29,1.43c.15.44.89.39.85-.12a9.2,9.2,0,0,0-.29-1.55C108.22,13,107.41,13.23,107.5,13.78Z"/><path class="cls-2" d="M106.26,23.75c-.11.58-.27,1.16-.42,1.73a.38.38,0,0,0,.74.21,8.58,8.58,0,0,0,.53-1.7C107.22,23.43,106.36,23.19,106.26,23.75Z"/><path class="cls-2" d="M102.79,28.51a2.66,2.66,0,0,0-.1.38c-.09.61.83.87.93.26,0-.14.06-.25.09-.38C103.86,28.17,102.94,27.91,102.79,28.51Z"/><path class="cls-2" d="M104.78,18.33a.48.48,0,0,0-1,0,3.06,3.06,0,0,0,.61,2.07c.35.43,1.07-.14.77-.59A2.66,2.66,0,0,1,104.78,18.33Z"/><path class="cls-2" d="M115.46,18.62v1a.48.48,0,0,0,1,0v-1A.48.48,0,0,0,115.46,18.62Z"/><path class="cls-2" d="M125.07,17.69c-.53-1.05-1.12-2.07-1.72-3.09a.41.41,0,0,0-.7.41c.52,1,1,2,1.47,3.08A.52.52,0,1,0,125.07,17.69Z"/><path class="cls-2" d="M121.89,25.66c-.2.69-.39,1.39-.56,2.1a.45.45,0,0,0,.86.23c.19-.7.38-1.39.59-2.09A.46.46,0,0,0,121.89,25.66Z"/><path class="cls-2" d="M112.75,24.92c0-.56-.89-.57-.87,0a6.26,6.26,0,0,0,.18,1.36c.13.57,1,.33.88-.24A6.1,6.1,0,0,1,112.75,24.92Z"/><path class="cls-2" d="M112.1,18.62c0-.13,0-.25-.08-.38a.37.37,0,1,0-.73.1,3.94,3.94,0,0,0,.1.47C111.49,19.28,112.18,19.08,112.1,18.62Z"/><path class="cls-2" d="M118.38,14.23a.35.35,0,0,0-.68.19c.11.42.25.83.37,1.25a.36.36,0,0,0,.7-.2C118.66,15.05,118.5,14.65,118.38,14.23Z"/><path class="cls-2" d="M120.09,22l-.28.58c-.16.31.31.59.47.27l.28-.57C120.72,22,120.25,21.7,120.09,22Z"/><path class="cls-2" d="M119,26.3l.12.27c.12.26.51.07.45-.19l-.07-.29C119.45,25.72,118.88,25.92,119,26.3Z"/><path class="cls-2" d="M130,21.75a4.26,4.26,0,0,0-.09,1.07.42.42,0,0,0,.84,0,3,3,0,0,1,.09-.84A.44.44,0,0,0,130,21.75Z"/><path class="cls-2" d="M137.92,19.23c-.3-.53-.53-1.09-.79-1.64-.16-.35-.75-.1-.62.26.19.53.37,1.14.61,1.71a.31.31,0,0,0-.27.13,4.73,4.73,0,0,1-1.06,1.08c-.41.27,0,.93.38.66a5.34,5.34,0,0,0,1.22-1.2l0,0a3.68,3.68,0,0,0,.81,1,.47.47,0,0,0,.67-.66A9.8,9.8,0,0,1,137.92,19.23Z"/><path class="cls-2" d="M130.59,18c-.08-.73-.11-1.46-.12-2.19a.41.41,0,0,0-.82,0,14.88,14.88,0,0,0,.09,2.31C129.82,18.54,130.64,18.43,130.59,18Z"/><path class="cls-2" d="M125.12,20.05a16.55,16.55,0,0,0-.19,2.1.46.46,0,0,0,.92,0,18.62,18.62,0,0,1,.19-2.1C126.11,19.46,125.19,19.47,125.12,20.05Z"/><path class="cls-2" d="M128,28.26V29a.39.39,0,0,0,.78,0c0-.25,0-.51,0-.76A.4.4,0,0,0,128,28.26Z"/><path class="cls-2" d="M132.18,19.19v.48a.46.46,0,0,0,.92,0v-.48A.46.46,0,0,0,132.18,19.19Z"/><path class="cls-2" d="M134.09,26.64a2.4,2.4,0,0,1-.16.64.44.44,0,0,0,.8.34,2.25,2.25,0,0,0,.27-1C135,26.05,134.14,26.06,134.09,26.64Z"/><path class="cls-2" d="M142.43,20.62c0,.29,0,.58-.05.86,0,.62.86.58.93,0,0-.28.11-.57.14-.86C143.53,20,142.44,20,142.43,20.62Z"/><path class="cls-2" d="M147,18c-.19-.55-1.06-.33-.89.25a8.57,8.57,0,0,0,.6,1.55c.3.55,1.16.05.84-.49A7.9,7.9,0,0,1,147,18Z"/><path class="cls-2" d="M149.85,20.62a.33.33,0,0,0-.65,0,6.23,6.23,0,0,0,.07,1.06c.09.45.86.25.7-.2A2.49,2.49,0,0,1,149.85,20.62Z"/><path class="cls-2" d="M142.57,24.33a.41.41,0,0,0-.78.22,3.27,3.27,0,0,0,.34.95.39.39,0,0,0,.68-.4A4,4,0,0,1,142.57,24.33Z"/><path class="cls-2" d="M149.93,18a.36.36,0,0,0-.65.27,7.94,7.94,0,0,1,.11,1c.08.55,1,.32.85-.24A2.9,2.9,0,0,0,149.93,18Z"/><path class="cls-2" d="M155.87,18.84c.16.41.22.85.41,1.26s1.05.13.86-.36-.27-.85-.45-1.25S155.69,18.36,155.87,18.84Z"/><path class="cls-2" d="M159.52,20.05V20a.26.26,0,0,0-.52,0v.09A.26.26,0,0,0,159.52,20.05Z"/><path class="cls-2" d="M161.42,20.08a.31.31,0,0,0,.32.31h.1a.34.34,0,0,0,.24-.58l-.1-.09a.34.34,0,0,0-.57.32s0,0,0,0Z"/></g></svg>