<svg xmlns="http://www.w3.org/2000/svg" viewBox="0 0 181.09 75.74"><defs><style>.cls-1{fill:#fff;}.cls-2{fill:#272525;}</style></defs><title>life</title><g id="color"><path class="cls-1" d="M14.3,40.66a23.05,23.05,0,0,1,.43-3.91c.25-1.32.58-2.63.86-4a4.72,4.72,0,0,0-6.53-3.26,2.93,2.93,0,0,0-1.68,3.15,8.1,8.1,0,0,0,1.14,2.65c.6,1.05,1.2,2.12,1.72,3.22.25.54.49,1.09.71,1.64A3.09,3.09,0,0,0,14.3,40.66Z"/><path class="cls-1" d="M19.25,32.53A6.31,6.31,0,0,1,19,31.6a12.32,12.32,0,0,0,1.5,4c-.16-.37-.3-.75-.44-1.14A9.37,9.37,0,0,1,19.25,32.53Z"/><path class="cls-1" d="M158.46,57.74c-1.44-1.17-3.27-.26-4.92-.66a15.48,15.48,0,0,1-2.25-.89c-.77-.33-1.55-.63-2.3-1a7.63,7.63,0,0,1-3.39-2.83,43,43,0,0,1-8.66,4.71,15.85,15.85,0,0,0,4.71,2.47,17.33,17.33,0,0,0,6,.93,33.69,33.69,0,0,0,6.22-1,13.09,13.09,0,0,1,3.48-.18,4.15,4.15,0,0,0,1.49-.09C159.58,58.91,158.81,58,158.46,57.74Zm-9,.29c-.29.29-1,.14-1.34.06a12.15,12.15,0,0,1-4.28-2.48c-.06.07-.15.1-.22,0a1.54,1.54,0,0,1-.21-.31l-.09-.07a.07.07,0,0,1,0-.13c-.07-.52.7-.67,1.35-.55A9.51,9.51,0,0,1,149.06,57C149.33,57.23,149.83,57.67,149.46,58Z"/><path class="cls-1" d="M149.41,53.53a15.67,15.67,0,0,1-3-1.76l0,0-.24.19-.46.35a7.83,7.83,0,0,0,2.35,2.09,22.36,22.36,0,0,0,2.58,1.2c.8.33,1.59.75,2.41,1a4.75,4.75,0,0,0,.81.19,9,9,0,0,1-2.33-1.64A12.16,12.16,0,0,0,149.41,53.53Z"/><path class="cls-1" d="M146.07,55.39a5.23,5.23,0,0,0-1.45-.52c-.36,0-1.22-.09-.81.47.88.51,1.66,1.2,2.55,1.71a6,6,0,0,0,1.68.69c.29.07,1.67.28,1-.36A11.94,11.94,0,0,0,146.07,55.39Z"/><path class="cls-1" d="M21.18,35.46l1.1,1.77c.13.21.25.42.37.63l-.27-.5C22,36.72,21.61,36.09,21.18,35.46Z"/><path class="cls-1" d="M18.81,31.17a22.79,22.79,0,0,0-2,5.42,12.05,12.05,0,0,0,.31,6.55c.59,1.6,1.54,3,2.15,4.62a5.15,5.15,0,0,1,.47,2.07C21.14,49.48,21.7,48,22,46.74a16,16,0,0,0,.25-4.15h0a.11.11,0,0,1,0-.08v0a17.63,17.63,0,0,0-1.78-6.35A12.15,12.15,0,0,1,18.81,31.17Z"/><path class="cls-1" d="M21.82,53a15.55,15.55,0,0,0,1.3-2.91,30.23,30.23,0,0,1-1.35,2.82A.41.41,0,0,1,21.82,53Z"/><path class="cls-1" d="M20.8,35.74c.19.46.39.91.6,1.36a24.17,24.17,0,0,1,2.15,5.34,16.58,16.58,0,0,1,.31,4.1,14.17,14.17,0,0,0-.44-5.16A24.74,24.74,0,0,0,20.92,36Z"/><path class="cls-1" d="M37.28,24.13l0,0,.8-.36c3.15-1.36,7.36-2.37,10.68-1a4.24,4.24,0,0,1,.82.43,3.54,3.54,0,0,0-2-1.2L47,21.89a20.33,20.33,0,0,0-3.8.36A18.67,18.67,0,0,0,37.28,24.13Z"/><path class="cls-1" d="M43.42,26a.68.68,0,0,0-.63-.9,1.06,1.06,0,0,1,.39.46,1.4,1.4,0,0,1,.12.87A1.62,1.62,0,0,0,43.42,26Z"/><path class="cls-1" d="M155.68,55.67a2.72,2.72,0,0,0-1.06-1.12,18.3,18.3,0,0,1-1.87-1.41c-1.35-1.2-2.61-2.45-4.41-2.93-.56.43-1.12.88-1.67,1.33,1.32,1.13,3.05,1.6,4.37,2.75.57.49,1.12,1,1.73,1.43a3.74,3.74,0,0,0,1.87.89C155.09,56.63,155.91,56.28,155.68,55.67Z"/><path class="cls-1" d="M35.59,29.45a1.32,1.32,0,0,0,.58.73l0,0a.71.71,0,0,1-.27-.45c-.2-1.08,1-2.28,1.74-2.87a10.8,10.8,0,0,1,2.34-1.48,16.2,16.2,0,0,0-1.89.77,11.15,11.15,0,0,0-1.13.9C36.35,27.55,35.28,28.56,35.59,29.45Z"/><path class="cls-1" d="M40.92,28.93a15.63,15.63,0,0,1-1.69.85,5.17,5.17,0,0,1-2.41.68,4.8,4.8,0,0,0,1,.14,7,7,0,0,0,5-2.36c.64-.62,2.66-2.85.82-3.26l-.47-.07a.81.81,0,0,1,.57.74c.1,1.27-1.1,2.26-2.08,2.85C41.45,28.65,41.19,28.79,40.92,28.93Z"/><path class="cls-1" d="M39.37,31c-1.22.34-3,.77-4-.35a2.29,2.29,0,0,1-.1-2.4c-.46.73-1,1.91-.4,2.72,1,1.46,3.59.88,5,.4a9.87,9.87,0,0,0,5.23-3.87c.41-.66,1.41-2.35.69-3.08a2.69,2.69,0,0,0-1.91-.55,11,11,0,0,0-3,.44s0,.07,0,.07a8.63,8.63,0,0,0-2.59,1.21c-.32.2-.64.41-1,.63q.36-.19.72-.36a10.94,10.94,0,0,1,3.12-1.4c1-.27,3.27-.7,3.83.59s-.62,2.57-1.38,3.37A9.49,9.49,0,0,1,39.37,31Z"/><path class="cls-1" d="M23.5,47.52a14.86,14.86,0,0,0-.36-5.75,23.79,23.79,0,0,0-1.41-3.47,16.63,16.63,0,0,1,.66,2.61,9.88,9.88,0,0,1,1.1,4.28,13,13,0,0,1-.18,2.93,7.73,7.73,0,0,1-.37,1.49,6.58,6.58,0,0,0-.31,1A10.52,10.52,0,0,0,23.5,47.52Z"/><path class="cls-1" d="M35.48,30.34c.58.94,1.84.84,2.79.67a9.1,9.1,0,0,0,5-2.59,5.73,5.73,0,0,0,1.54-2.37c.29-1.35-1.2-1.7-2.25-1.6a9.59,9.59,0,0,0-2.92.78,17.08,17.08,0,0,1,1.74-.44c.77-.14,3.08-.5,3.26.75.14,1-.72,1.95-1.35,2.6a8.31,8.31,0,0,1-4,2.58c-1,.21-2.77.3-3.56-.59s0-2.29.81-3.07l.26-.24c-.21.14-.41.29-.61.45C35.54,28.07,34.89,29.39,35.48,30.34Z"/><path class="cls-1" d="M35.49,27.62l.43-.42.13-.15C35.85,27.23,35.67,27.43,35.49,27.62Z"/><path class="cls-1" d="M8.48,64.56l-.21,0a2.49,2.49,0,0,0,.09.37l.23-.11C8.55,64.75,8.51,64.66,8.48,64.56Z"/><path class="cls-1" d="M9.9,66.39a2.55,2.55,0,0,0,.91.14s0-.08,0-.13a3,3,0,0,1-.81-.25Z"/><path class="cls-1" d="M12.41,63.54l-.12-.16-.19-.19,0,.05a2.5,2.5,0,0,1,.34.31Z"/><path class="cls-1" d="M11.9,63.12a.43.43,0,0,0,0-.07l-.14-.11a2.6,2.6,0,0,0-.88-.23l.27.08A3.5,3.5,0,0,1,11.9,63.12Z"/><path class="cls-1" d="M9,65.83a2.8,2.8,0,0,0,.74.49c0-.09.09-.17.13-.26a3.46,3.46,0,0,1-.67-.46Z"/><path class="cls-1" d="M8.68,65l-.24.13,0,.06a2.47,2.47,0,0,0,.35.48L9,65.46A3.73,3.73,0,0,1,8.68,65Z"/><path class="cls-1" d="M8.4,64.13H8.28s0,0,0,0a1.62,1.62,0,0,0,0,.22l.18,0A1,1,0,0,1,8.4,64.13Z"/><path class="cls-1" d="M12.44,64.58l.06,0a1.63,1.63,0,0,0-.27-.65h0c-.09.06-.19-.07-.11-.13h0a3.83,3.83,0,0,0-.29-.28,1.21,1.21,0,0,1-.16.16c-.07.07-.18,0-.11-.12l.12-.14a2.4,2.4,0,0,0-.87-.36h0c0,.09-.16.1-.15,0v0a2.42,2.42,0,0,0-.93,0l-.08,0,0,.05c.09.11-.06.27-.16.16l-.13-.12a1.93,1.93,0,0,0-.38.19l.23.08c.15.06.09.28-.06.24l-.34-.11a.91.91,0,0,0-.09.31h0c.18,0,.17.26,0,.28h0a1.85,1.85,0,0,0,0,.23.09.09,0,0,1,0,.15,1.93,1.93,0,0,0,.46.7l.09-.09c.08-.09.21,0,.13.13l-.09.1a3,3,0,0,0,.59.41c0-.06.07-.13.1-.2s.2,0,.16.07a1.47,1.47,0,0,1-.1.22,3.23,3.23,0,0,0,.7.24c0-.14,0-.27,0-.41a.1.1,0,0,1,.19,0c0,.15,0,.29,0,.44l.29,0a.1.1,0,0,1,.18,0A1.15,1.15,0,0,0,12,66s0,0,0,0,.05-.24.15-.14l.05.06a1,1,0,0,0,.28-.39l-.07,0c-.11-.06,0-.25.08-.2l.05,0a2.2,2.2,0,0,0,.06-.5h0C12.36,64.83,12.31,64.63,12.44,64.58Z"/><path class="cls-1" d="M34.7,31.9a2.8,2.8,0,0,0,1.55.68,9.65,9.65,0,0,0,1.86-.07,13.15,13.15,0,0,0,1.63-.35,16.16,16.16,0,0,0,6-3.39,8.57,8.57,0,0,0,.64-.7c1-1.14,2.63-3.59.35-4.37a11.49,11.49,0,0,0-6.18.15,13.37,13.37,0,0,0-4.43,2,5.85,5.85,0,0,0-2.73,4.15,2.17,2.17,0,0,0,1.49,2.23,2.48,2.48,0,0,1-.65-3,8.1,8.1,0,0,1,3.17-3.49,12.14,12.14,0,0,1,5-2,5.43,5.43,0,0,1,3.22.19c1.18.65.6,2.09.11,3a9.2,9.2,0,0,1-3.93,3.81,10.06,10.06,0,0,1-4.58,1.27c-1.12,0-2.59-.35-2.68-1.73a3.61,3.61,0,0,1,.9-2.58,6.08,6.08,0,0,0-.71,1C34.15,29.73,33.8,31.05,34.7,31.9Z"/><path class="cls-1" d="M23,48.41a12.51,12.51,0,0,0,.26-2.73,12.91,12.91,0,0,0-.79-4.25c.05.39.09.78.11,1.17a11.44,11.44,0,0,1,.61,4.18C23.15,47.32,23.08,47.86,23,48.41Z"/><path class="cls-1" d="M21.83,37.08A16.18,16.18,0,0,1,24,42.51,16.85,16.85,0,0,1,22,53.14h.11a.14.14,0,0,1,0-.1c2.83-2.79,3.07-7.4,2-11a21.88,21.88,0,0,0-2.61-5.37C21.68,36.8,21.76,36.94,21.83,37.08Z"/><path class="cls-1" d="M5.12,48.89A40.69,40.69,0,0,1,1.81,37.57,25,25,0,0,1,7.9,18.06,33.12,33.12,0,0,1,23.2,8.17a31.64,31.64,0,0,1,9.05-1.44,34.37,34.37,0,0,1,9,1.41.32.32,0,0,1,.14.08l1.42-.61A57.7,57.7,0,0,0,30.28,6.32,31.1,31.1,0,0,0,19.31,9,32.22,32.22,0,0,0,4.54,21.55,27.78,27.78,0,0,0,1.41,42.88,34.56,34.56,0,0,0,6.28,53.77,34.15,34.15,0,0,1,9.55,59C8.57,55.47,6.56,52.27,5.12,48.89Z"/><path class="cls-1" d="M20.77,18.5a23.66,23.66,0,0,0-3.66,2.42,4.65,4.65,0,0,0-1.89,2.44,5.06,5.06,0,0,0,.67,2.49,7.44,7.44,0,0,1,.49,2.29A18,18,0,0,1,16,32.77a.19.19,0,0,0,0,.08.17.17,0,0,1-.08.19,55.16,55.16,0,0,0-1.21,6.33c-.29,3.45.3,6.92,3,9.35.09.08-.05.21-.14.14A8.2,8.2,0,0,1,15,45.33a9.37,9.37,0,0,0,.29,2c.3,1.15.78,2.67,1.88,3.31.54.32,1.51.51,2-.06a2.11,2.11,0,0,0,.1-1.87,33.11,33.11,0,0,0-2-4.29,11.82,11.82,0,0,1-1.08-5.62c.25-3.91,2-7.27,3.74-10.7C21.32,25.29,23.09,21.26,20.77,18.5Z"/><path class="cls-1" d="M22.66,53a4.44,4.44,0,0,0,1.21-1.31A9.45,9.45,0,0,0,25.49,47a14.25,14.25,0,0,0-1.87-7.35,14.9,14.9,0,0,1,1.09,3.22C25.43,46.4,25,50.18,22.66,53Z"/><path class="cls-1" d="M131.13,15.34a.17.17,0,0,1,.17.13,10.62,10.62,0,0,1,2.93.75c.38-.49.6-1.09,1-1.57a3.86,3.86,0,0,1,1.34-1,9.05,9.05,0,0,1,3.49-.73c1.16,0,2.54.07,3.54-.63a2.24,2.24,0,0,0,.73-.74c.29-.51-.2-.58-.6-.48s-.81.35-1.24.46c-1,.25-1.9-.52-2.83-.78a4.8,4.8,0,0,0-3.76.93c-1.74,1.13-3.09,2.78-5,3.64Z"/><path class="cls-1" d="M142,14.54a18,18,0,0,0-2.63,1A29,29,0,0,1,136,17.06c1.16.65,2.27,1.4,3.4,2.1.76-1.56,2.54-1.06,4-1.09a1.68,1.68,0,0,0,1.85-1.63c.07-.72,0-1.64-.76-2A3.71,3.71,0,0,0,142,14.54Z"/><path class="cls-1" d="M128.76,14.82c2.51-.59,5-5.76,1.61-6.8a9.75,9.75,0,0,0-4.65,0,21.08,21.08,0,0,0-2.89.82,10,10,0,0,1-2.12.6c1.55,1.14,3,2.38,4.64,3.45A18.9,18.9,0,0,0,128.76,14.82Z"/><path class="cls-1" d="M145,24.12a31.64,31.64,0,0,0,2.51,2.78c1.17-.88,3.07-.45,4.44-.63a10.73,10.73,0,0,0,2.31-.52c.67-.24,1.67-.64,1.87-1.42.6-2.31-2.65-.91-3.6-.65a16.33,16.33,0,0,1-3.42.42,15.28,15.28,0,0,1-2,0,8.35,8.35,0,0,0-2.06,0Z"/><path class="cls-1" d="M11,66.5l.25,0-.24,0Z"/><path class="cls-1" d="M50.15,24.07a2,2,0,0,1,0,.55,4.76,4.76,0,0,1-1,2.11,16.24,16.24,0,0,1-1.66,2l-.51.47a19.22,19.22,0,0,0,2.29-1.84l.24-.33C50,26.23,50.65,25,50.15,24.07Z"/><path class="cls-1" d="M48.51,22.11A2.88,2.88,0,0,1,50,23.63a1.84,1.84,0,0,1,.39,1.81,6.08,6.08,0,0,1-.43,1c1.24-1.51,1.57-3.08-.75-4.12A5.88,5.88,0,0,0,48.51,22.11Z"/><path class="cls-1" d="M48,22.77l-.22-.05a11.51,11.51,0,0,0-1.43-.23,10.85,10.85,0,0,0-1.59.07A19.88,19.88,0,0,0,37.05,25a14.24,14.24,0,0,1,1.36-.67,14.52,14.52,0,0,1,5.12-1.16c1.25,0,3.39-.21,4.22,1s0,2.36-.66,3.25l-.13.17a7.15,7.15,0,0,0,2-2.93A1.4,1.4,0,0,0,48,22.77Z"/><path class="cls-1" d="M146.38,51.31c2.34-1.88,4.8-4,7.89-4.49,2.51-.37,5.7.72,7.55-1.64a9.07,9.07,0,0,0,1.53-3.93,19.71,19.71,0,0,0,.35-4.06,7.9,7.9,0,0,0-1-4.1,3.28,3.28,0,0,0-1.81-1.42,11.82,11.82,0,0,0-3-.23A18.71,18.71,0,0,1,152,30a13.83,13.83,0,0,1-4.21-2.27c-2.5-2.18-4.14-5.23-6.87-7.16-1.5-1.06-3.13-2-4.73-3a14.94,14.94,0,0,0-5-1.9l-.09,0a10.84,10.84,0,0,1-5.36-2.09c-1.73-1.11-3.31-2.41-5-3.63a23,23,0,0,0-5.06-2.92C113.91,6.3,112,5.66,110.1,5.1a112,112,0,0,0-12-2.69C89.4.9,80.51-.17,71.67.57A87.36,87.36,0,0,0,58.24,2.91a104.25,104.25,0,0,0-12.56,3.9L44,7.46a.33.33,0,0,1-.4.28l-.2,0-1.94.8a.31.31,0,0,1-.4.27l-.13,0c-5.69,2.45-11.23,5.27-16.78,8-1.08.53-2.17,1.07-3.25,1.65,2,2.16,1.23,5.4.21,7.86-.61,1.47-1.34,2.88-2,4.3.14,1.71,1.25,3.18,2.21,4.54a35.35,35.35,0,0,1,2.56,4.26c1.57,3.05,2.7,6.55,1.55,9.94a8.25,8.25,0,0,1-2.3,3.76c-.31.25-.78.58-1.21.4s-.63-.32-.56-.7a2.09,2.09,0,0,1,.29-.71,5.07,5.07,0,0,0,.5-1.33c.23-.9.38-1.81.54-2.73a10.15,10.15,0,0,0-.08-3.85c-.05,2.23-.39,5.62-2.88,6.07a1.42,1.42,0,0,1-.25.49,2,2,0,0,1-2.57.14c-1.69-1.23-2.3-3.93-2.27-5.92a.17.17,0,0,1,.18-.17A12.88,12.88,0,0,1,14.3,41a3.19,3.19,0,0,1-3.21-.5,19.39,19.39,0,0,1,.89,3c.44,2,.52,4.13,1,6.17.88,4.16,2.57,8.06,3.7,12.14a18,18,0,0,0,2,5.47,8.51,8.51,0,0,0,4.59,3.25c.88.29,1.78.53,2.64.88a23,23,0,0,1,2.23,1.09,13.5,13.5,0,0,0,5.16,1.94.19.19,0,0,1,.22-.18,87.45,87.45,0,0,0,20.64.78c2.28-4,3-8.87,3.75-13.36.64-3.88,1.38-7.73,1.77-11.65a98.78,98.78,0,0,0,.44-12.64,88.73,88.73,0,0,0-4.26-25c0-.09.12-.13.15,0a79.69,79.69,0,0,1,3.92,17.66,95.64,95.64,0,0,1-.56,25c-.56,3.6-1.16,7.23-1.87,10.81A32.38,32.38,0,0,1,54.56,75c1.68-.13,3.35-.31,5-.52,4.46-.57,8.92-1.25,13.33-2.1C75,72,77.18,71.53,79.31,71s4.18-1.14,6.3-1.57c8.59-1.77,17.42-1.86,25.94-4,4.22-1.06,8.33-2.43,12.44-3.85s8.23-2.87,12.24-4.6l.15-.07a.18.18,0,0,1,.23-.1c1.84-.8,3.65-1.64,5.42-2.57A27.67,27.67,0,0,0,146.38,51.31ZM51,25.32a7.85,7.85,0,0,1-1.91,2.45,13.58,13.58,0,0,1-1.84,1.8,20.06,20.06,0,0,1-6.35,3.56,10.77,10.77,0,0,1-2.76,1,11,11,0,0,1-2.91.21,5.83,5.83,0,0,1-3.61-.19,2.92,2.92,0,0,1-1.44-3.59,8.93,8.93,0,0,1,3.6-4.51,16.61,16.61,0,0,1,3.81-2.74C40.42,21.9,44,21,47.16,21.67a5.05,5.05,0,0,1,2.41.59C50.71,22.91,51.67,24,51,25.32ZM68.71,66.05c1.65-4.39,3.52-8.69,5-13.15,0-.08.16,0,.13,0-1.47,4.44-3.17,8.84-4.94,13.17C68.87,66.24,68.66,66.18,68.71,66.05Zm2.74-1c-.06.14-.26,0-.2-.11A100.17,100.17,0,0,0,75.9,53.28c0-.07.14,0,.12,0A108.61,108.61,0,0,1,71.45,65Zm2.06-.49c1.47-3.37,3-6.71,4.14-10.21a.1.1,0,0,1,.19,0,86.83,86.83,0,0,1-4.13,10.28C73.64,64.77,73.45,64.65,73.51,64.52Zm3-.19c-.05.13-.26.08-.22-.06.9-3.13,2.06-6.17,2.93-9.3a.09.09,0,0,1,.18,0C78.58,58.15,77.53,61.23,76.54,64.33Zm3.06-1.1c.73-2.6,1.69-5.14,2.56-7.7,0-.13.24-.07.2,0-.85,2.57-1.71,5.13-2.52,7.71C79.79,63.44,79.56,63.38,79.6,63.23Zm2.54.19a74.54,74.54,0,0,1,3.6-9.68c0-.11.23-.06.18,0a76.42,76.42,0,0,0-3.54,9.69C82.34,63.64,82.09,63.57,82.14,63.42Zm3.39-1.32c1.33-3.65,3-7.15,4.36-10.8,0-.08.18,0,.15,0-1.31,3.66-3,7.17-4.29,10.82C85.7,62.31,85.48,62.24,85.53,62.1Zm3.12-.27c1.17-3.53,3-6.79,4.21-10.32,0,0,0,0,0,0-1.09,3.54-2.75,6.9-4.06,10.36C88.79,62,88.6,62,88.65,61.83Zm3-.51c1.43-3.33,3-6.6,4.28-10a.05.05,0,0,1,.1,0c-1.23,3.42-2.8,6.71-4.17,10.07C91.8,61.57,91.59,61.48,91.65,61.32ZM94.85,60c1.36-3,3.06-5.82,3.63-9.07,0,0,.08,0,.07,0-.46,3.28-2.17,6.19-3.51,9.16C95,60.26,94.79,60.14,94.85,60Zm2.9.31c1.36-3.29,3.12-6.39,4.29-9.76,0-.07.13,0,.1,0A104.45,104.45,0,0,1,98,60.41C97.91,60.52,97.7,60.44,97.75,60.32Zm3.29-.69c1.35-3.12,2.76-6.2,4-9.36,0-.07.15,0,.12,0-1.2,3.18-2.58,6.28-3.89,9.41A.12.12,0,1,1,101,59.63Zm2.92-.72c1-2.69,2.26-5.25,3.14-8,0-.08.16,0,.13,0a85.44,85.44,0,0,1-3.07,8C104.11,59.11,103.91,59,104,58.91Zm2.43.37c1-3,2.35-5.76,3-8.81a.05.05,0,0,1,.1,0c-.53,3.08-1.9,5.9-2.85,8.86C106.58,59.49,106.34,59.43,106.39,59.28Zm3-1.07c0,.12-.23.07-.19-.05.79-2.36,1.71-4.67,2.49-7,0-.06.12,0,.1,0C111.08,53.52,110.32,55.9,109.42,58.21Zm3.31-1c0,.14-.27.08-.22-.06.68-1.9,1.44-3.78,2-5.72,0-.07.14,0,.12,0C114.1,53.38,113.39,55.27,112.73,57.18Zm3.46-1.79a.1.1,0,1,1-.19,0,51.34,51.34,0,0,0,1.46-5.44c0-.06.1,0,.09,0C117.25,51.79,116.66,53.57,116.19,55.39Zm2.17-1.12c0,.14-.24.08-.21-.06.3-1.43.84-2.8,1.18-4.22,0-.07.13,0,.11,0C119.17,51.46,118.67,52.84,118.36,54.27Zm2.33-1.61c0,.12-.19.07-.17,0,.19-1,.4-1.94.61-2.91,0-.05.09,0,.08,0C121,50.71,120.89,51.69,120.69,52.66ZM123,51.43a.06.06,0,1,1-.12,0c.09-.38.18-.75.28-1.13,0-.08.14,0,.12,0C123.21,50.68,123.12,51.06,123,51.43Zm3.21-.84a.08.08,0,0,1-.15,0,8.6,8.6,0,0,0,.3-1.95.06.06,0,0,1,.11,0A7.4,7.4,0,0,1,126.23,50.59Zm2.82-1.88a.08.08,0,0,1-.15,0c.09-.37.11-.75.2-1.12,0-.08.13,0,.12,0C129.14,48,129.13,48.34,129.05,48.71Zm1.33-.7c-.45,0-.27-.61-.15-.85,0-.08.15,0,.11.06s-.25.63,0,.65A.07.07,0,0,1,130.38,48Zm2.07-1.13a.26.26,0,0,1-.26-.26c0-.09.13-.09.15,0s.07.11.13.13S132.53,46.88,132.45,46.88Zm1.06-.35v-.38c0-.07.12-.07.12,0s0,.25,0,.38A.07.07,0,0,1,133.51,46.53Z"/><path class="cls-1" d="M178.18,28.74a.18.18,0,0,1-.1-.25,5,5,0,0,1,1.08-.92c.5-.36,1.35-.85,1.52-1.51.29-1.14-.87-.27-1.21.05a10.56,10.56,0,0,1-1,.91,47.41,47.41,0,0,1-5.06,2.74c-1.7,1-3.27,2.15-5,3a17.2,17.2,0,0,1-2.07.89,2.5,2.5,0,0,1-1.59.2c-1.15-.41-.84-1.83-.46-2.66a12,12,0,0,0,.81-1.79c.12-.43.24-1.09.64-1.37a1.21,1.21,0,0,1,1.42.16c.44.29,1.75.8,2-.07s-.62-1.85-.56-2.81a3.14,3.14,0,0,1,.84-1.57c.48-.59,1-1.13,1.49-1.73a30.46,30.46,0,0,1,4-4.55,21.79,21.79,0,0,1,4.48-3c-1.89-.08-3.46,1.38-4.92,2.44-1.9,1.37-3.82,2.69-5.68,4.11a25.93,25.93,0,0,0-5.11,4.58,21,21,0,0,0-3.06,5.65,3.53,3.53,0,0,1,1.4.59c2.06,1.51,2.18,4.6,2,6.91s-.49,5.29-2.2,7a4.72,4.72,0,0,1-2.75,1.32,7.75,7.75,0,0,1-1.36.07,25,25,0,0,0,2.93,4.55c1.15,1.51,2.64,2.71,3.82,4.18a10,10,0,0,0,2,2c.64.46,1.31.87,1.95,1.34a9.76,9.76,0,0,1,.87.69,3.82,3.82,0,0,0,.85.71c.42.18.66-1,.63-1.25a1.27,1.27,0,0,0-.68-.91,26.21,26.21,0,0,1-6.35-5.07,26.49,26.49,0,0,1-1.94-2.53c-.32-.49-.94-1.3-.8-1.94s.89-.43,1.26-.16a11.68,11.68,0,0,1,2.35,2.7c2.11,2.87,5.22,4.63,7.82,7A6.05,6.05,0,0,0,174.94,60c.55.14,2.29.13,1.67-.91-.85-1.43-2.94-1.53-4.14-2.56a26.48,26.48,0,0,1-2.14-2.23,19.47,19.47,0,0,0-2.18-2c-1.52-1.25-3.09-2.39-4.69-3.52-.87-.62-1.64-1.8-.88-2.84.57-.79,1.79.6,2.18.95.63.56,1.39.92,2,1.46a7.15,7.15,0,0,1,1.53,2,7.29,7.29,0,0,0,4.61,3.52,3.52,3.52,0,0,0,2.86-.21,1.48,1.48,0,0,0,.45-2.08c-1.14-1.56-3.44-1.54-5-2.46s-3-2.17-4.67-3c-.94-.49-2.57-1.08-2.57-2.35,0-.89,1.22-1.42,2-1.28a11.82,11.82,0,0,1,2,.64,66,66,0,0,0,6.39,2.2,8.31,8.31,0,0,0,2.75.38c.78-.08,1.44-.73.88-1.54-.67-1-2.31-1.06-3.38-1.17a30.27,30.27,0,0,1-5-1c-1.09-.3-2.17-.61-3.26-.88-.52-.12-1.28-.17-1.66-.58a1.25,1.25,0,0,1,.55-2.11c1.43-.33,3.22.15,4.66.35,1.2.16,11.12,1.61,10.1-1.2-.47-1.32-2.59-1.29-3.74-1.25a59,59,0,0,0-6.06.74c-1,.14-2,.23-3.07.28a5.37,5.37,0,0,1-1.92-.08c-1.22-.39-.85-2,.09-2.5a.17.17,0,0,1,.12,0c3.33-2.25,7.43-2.86,10.89-4.85a3.75,3.75,0,0,1,2.07-.65c.61,0,1.83.31,2.29-.22.21-.24-1.23-.26-1.41-.26A5,5,0,0,1,178.18,28.74Z"/><path class="cls-1" d="M32.3,31.91c-.95-2.88,1.77-5.24,3.94-6.62A18.36,18.36,0,0,1,41.12,23c.51-.15,1.05-.29,1.59-.41a20.82,20.82,0,0,0-6.78,2.47c-.48.28-1,.56-1.42.86a10.38,10.38,0,0,0-1.82,1.87c-1.1,1.51-2.15,4.28-.13,5.57l.23.13.23.11a7,7,0,0,0,1,.35,6.83,6.83,0,0,0,1.75.14l.55-.14C34.67,34,32.86,33.62,32.3,31.91Z"/><path class="cls-1" d="M43.19,31.39c.29-.22.57-.45.85-.68.1-.08.25.06.16.15l.31-.17.8-.47a16.88,16.88,0,0,0,3.6-3.61c.55-.77,1.33-1.91.94-2.9a3.34,3.34,0,0,0-1-.64,1.28,1.28,0,0,1,.36,1.05,5.81,5.81,0,0,1-1.58,3,18.19,18.19,0,0,1-2.57,2.46,11.93,11.93,0,0,1-1.47,1.06,12.25,12.25,0,0,1-1.33.72,13.33,13.33,0,0,1-3.86,1.3l-.49.07a5.45,5.45,0,0,1-1.93,0c-1.48-.13-2.88-.71-2.89-2.36a5.35,5.35,0,0,1,2-4c-.29.23-.59.45-.86.71-1.19,1.13-2.31,2.74-1.85,4.48a3.23,3.23,0,0,0,3.17,2.22,11.16,11.16,0,0,0,1.53,0c.43-.12.84-.26,1.24-.4A40.27,40.27,0,0,0,43.19,31.39Z"/><path class="cls-1" d="M33,33.91A2.81,2.81,0,0,1,31,31.05a6.17,6.17,0,0,1,1.46-3.53A7.69,7.69,0,0,0,31.27,29a4.61,4.61,0,0,0-1,2.89,2.59,2.59,0,0,0,2,2.32,6.46,6.46,0,0,0,2.28.13l-.36-.05A4.27,4.27,0,0,1,33,33.91Z"/><path class="cls-1" d="M45.65,30.25A21.18,21.18,0,0,1,42,32.54a21.23,21.23,0,0,0,2.89-1.49,18,18,0,0,0,3.2-2.47l-.49.36C47,29.39,46.33,29.83,45.65,30.25Z"/><path class="cls-1" d="M44.56,21.83l1-.1a15.17,15.17,0,0,0-8.73,2.32,19.56,19.56,0,0,1,2-.94A21,21,0,0,1,44.56,21.83Z"/><path class="cls-1" d="M38.18,33.65c.32,0,.63-.1.94-.17a16.52,16.52,0,0,0,2.06-.79c.31-.17.61-.35.9-.53A31.27,31.27,0,0,1,38.18,33.65Z"/></g><g id="stroke"><path class="cls-2" d="M149.06,57a9.51,9.51,0,0,0-4.35-2.43c-.65-.12-1.42,0-1.35.55a.07.07,0,0,0,0,.13l.09.07a1.54,1.54,0,0,0,.21.31c.07.09.16.06.22,0a12.15,12.15,0,0,0,4.28,2.48c.35.08,1,.23,1.34-.06S149.33,57.23,149.06,57Zm-1,.75a6,6,0,0,1-1.68-.69c-.89-.51-1.67-1.2-2.55-1.71-.41-.56.45-.52.81-.47a5.23,5.23,0,0,1,1.45.52,11.94,11.94,0,0,1,2.93,2C149.71,58,148.33,57.81,148,57.74Z"/><path class="cls-2" d="M179.91,28.45c-.43,0-.92.05-1.36,0,.74-.77,2-1.14,2.4-2.19.29-.76-.17-1.44-.95-1a5.85,5.85,0,0,0-1.16,1,8.75,8.75,0,0,1-1.92,1.38c-1.76,1-3.62,1.76-5.34,2.84a32.28,32.28,0,0,1-5,2.72c-.72.3-1.7.71-2.22-.12-.42-.66.18-1.73.48-2.32a7.33,7.33,0,0,0,.61-1.44c.11-.4.21-1,.67-1.13s.93.32,1.26.52c.71.43,2,.22,2.08-.7s-.49-1.69-.58-2.55c-.06-.64.63-1.36,1-1.8.51-.61,1.05-1.18,1.53-1.8a28.36,28.36,0,0,1,3.72-4.17,20.61,20.61,0,0,1,4.92-3.23.17.17,0,0,0,0-.31c-2-.39-3.71.91-5.23,2.06-2,1.54-4.15,2.94-6.18,4.48a26.76,26.76,0,0,0-5.32,4.81,20.54,20.54,0,0,0-3,5.63c-1.16-.16-2.41,0-3.52-.18a29.57,29.57,0,0,1-6-1.9,9.73,9.73,0,0,1-3-1.95c.85-.61,2.24-.4,3.22-.43a12.62,12.62,0,0,0,2.22-.3c1.26-.27,3.33-.87,3.31-2.48,0-1.89-2.34-1.12-3.38-.75a14.37,14.37,0,0,1-3.74.64,16.08,16.08,0,0,1-2.3.08,6.36,6.36,0,0,0-2.09.12.05.05,0,0,0,0,.05c-.34-.4-.68-.81-1-1.2a13.91,13.91,0,0,1,5-1.26,23,23,0,0,0,3.32-.11c.69-.11,1.42-.43,1.31-1.24a2.38,2.38,0,0,0-1.27-1.81c-1.71-.94-4.1-.52-5.9-.14a12.31,12.31,0,0,0-5.15,2,.06.06,0,0,0,.07.1,15.55,15.55,0,0,1,4.59-1.64,10.92,10.92,0,0,1,5.78-.19,2.17,2.17,0,0,1,1.52,1.59c.25,1.12-1.38,1.1-2.12,1.13-.92,0-1.86-.06-2.78,0a16.15,16.15,0,0,0-4.62,1.3,1.29,1.29,0,0,0-.16-.17,16.87,16.87,0,0,0-3.85-3.09c.9-1.87,3.31-.41,4.81-1.15a2.49,2.49,0,0,0,.33-3.86c-1.26-.92-3.49.08-4.71.58-1.46.61-2.81,1.49-4.27,2.08-.31-.18-.63-.34-1-.5l-.29-.13c.31-.42.55-.88.83-1.33a4.16,4.16,0,0,1,2.42-1.47,30.54,30.54,0,0,1,4.27-.4,3.48,3.48,0,0,0,2.56-1.43c.46-.67-.09-1.11-.77-1a7.91,7.91,0,0,0-1.44.5c-.7.25-1.55-.32-2.17-.58a3.91,3.91,0,0,0-3.21.13c-2.44,1-4,3.33-6.36,4.5l0,0a6.89,6.89,0,0,1-1.4-.31c2.17-.92,4.46-5,2.24-6.71-1.2-.9-2.88-.85-4.3-.72a16.77,16.77,0,0,0-3.22.68,25,25,0,0,1-3.44,1.09,33.23,33.23,0,0,0-10.33-4.56,109.62,109.62,0,0,0-12-2.69C94,1.35,89.76.75,85.51.37A82,82,0,0,0,72.21.19a84.63,84.63,0,0,0-13,2.14,106.74,106.74,0,0,0-12.6,3.79c-.89.33-1.77.68-2.65,1a.22.22,0,0,0-.12,0A75,75,0,0,0,31.31,5.67a30.12,30.12,0,0,0-10.4,2A33.42,33.42,0,0,0,6.05,18.41a28.55,28.55,0,0,0-6,18.4A32,32,0,0,0,2.63,48c1.44,3.41,3.58,6.2,5.54,9.29A12.39,12.39,0,0,1,10,61.49c0,.23,0,.45,0,.68a2.11,2.11,0,0,0-1,.31c-.2-.14-.4-.28-.59-.44s-.23.06-.14.14l.55.43a2.19,2.19,0,0,0-.47.49l-.94-.27c-.12,0-.17.14,0,.19l.86.3a2.28,2.28,0,0,0-.18.52l-.76,0a.1.1,0,0,0,0,.19l.68.09a1.37,1.37,0,0,0-.08.35,6.55,6.55,0,0,0-.77.15c-.17,0-.1.3.07.26l.68-.18a2,2,0,0,0,.07.49l-.75.4c-.14.08,0,.29.13.22s.47-.26.7-.4a1.89,1.89,0,0,0,.31.5l.15.16-.4.42c-.12.12.07.32.19.19l.39-.45a3.19,3.19,0,0,0,.86.49l-.33.54c-.08.14.15.27.22.13s.21-.41.32-.61a3.07,3.07,0,0,0,1,.13l-.12.8a.14.14,0,1,0,.27,0c0-.28.06-.57.09-.85a3,3,0,0,0,.5-.11,5.66,5.66,0,0,0,.28.72c.08.15.32,0,.24-.14a4.22,4.22,0,0,1-.3-.65,2.87,2.87,0,0,0,.49-.26,11,11,0,0,0,.5,1,.13.13,0,0,0,.23-.1,4.65,4.65,0,0,0-.52-1.11,1.34,1.34,0,0,0,.21-.2,2.33,2.33,0,0,0,.27-.35,3.3,3.3,0,0,1,.73.42c.14.11.32-.06.2-.19a1.85,1.85,0,0,0-.8-.47,2,2,0,0,0,.07-.23.49.49,0,0,0,0-.11,1.79,1.79,0,0,0,.07-.51,2,2,0,0,1,.6,0,.12.12,0,0,0,.09-.22,1,1,0,0,0-.71-.1,2.32,2.32,0,0,0-.31-.88,2,2,0,0,0,.32-.26c.06-.07,0-.2-.09-.16a1.38,1.38,0,0,0-.36.23,1.84,1.84,0,0,0-.17-.22,2.09,2.09,0,0,0-.22-.2,2.77,2.77,0,0,0,.22-.37.1.1,0,1,0-.17-.1l-.23.34a2,2,0,0,0-.29-.15A2.43,2.43,0,0,0,11,62.2v0c.09-.24.22-.47.29-.72,0-.09-.09-.12-.14-.06a2.4,2.4,0,0,0-.35.76,3,3,0,0,0-.42,0A8.41,8.41,0,0,0,10.22,61a23.27,23.27,0,0,0-2.69-7.94A61.46,61.46,0,0,1,3,41.46,25,25,0,0,1,7.56,19.32,32.21,32.21,0,0,1,22.64,9a31.21,31.21,0,0,1,9.24-1.62,30.73,30.73,0,0,1,8.6,1.24c-1.94.86-3.87,1.75-5.8,2.64-3.37,1.54-6.64,3.25-10,4.87A50.65,50.65,0,0,0,17.78,20a9.75,9.75,0,0,0-2.4,2.22,2.84,2.84,0,0,0-.12,3,10.09,10.09,0,0,1,.71,2.2,12.28,12.28,0,0,1-.07,3.73c-.05.32-.11.64-.17,1A5.06,5.06,0,0,0,12,28.87a4.39,4.39,0,0,0-4.46,1.5c-1.49,2.08.39,4.57,1.38,6.37a28.52,28.52,0,0,1,2.28,5.15,35.59,35.59,0,0,1,1.05,5.87,56.8,56.8,0,0,0,2.81,10.29c.56,1.66,1.09,3.31,1.56,5a16.36,16.36,0,0,0,1.64,4.23c1.57,2.6,4.26,3.38,7,4.25s5.17,3.17,8.2,3.09h0a87,87,0,0,0,20.52.81l0,.06a.17.17,0,0,0,.29.17l.15-.26c1.75-.13,3.49-.31,5.22-.52,4.4-.55,8.8-1.24,13.16-2.07q3.36-.63,6.67-1.46c2.19-.54,4.35-1.17,6.57-1.62,4.34-.9,8.75-1.35,13.15-1.84a96.6,96.6,0,0,0,12.78-2.16c4.21-1.06,8.32-2.45,12.42-3.86s8-2.81,11.85-4.46l.43-.18a15.34,15.34,0,0,0,4.26,2.37,17.28,17.28,0,0,0,5.81,1.21,20.91,20.91,0,0,0,6-.77,14.52,14.52,0,0,1,2.75-.53,12.47,12.47,0,0,1,1.62.07c.58,0,2,.24,2.35-.41.45-.8-.8-1.86-1.42-2.12a4.7,4.7,0,0,0-2.1-.28l-.6,0,.06,0c2.08-1-1.08-2.82-1.78-3.36-1.65-1.29-3-2.85-5.07-3.36a13,13,0,0,1,6.18-3,18.83,18.83,0,0,1,2.81,0,25.19,25.19,0,0,0,2.86,4.71c1.12,1.56,2.64,2.79,3.86,4.26a10.55,10.55,0,0,0,1.7,1.77c.74.57,1.53,1,2.29,1.59.6.43,1.09,1,1.72,1.4.36.22.64,0,.81-.33A1.89,1.89,0,0,0,171,59a3.2,3.2,0,0,0-1.35-1.17,21,21,0,0,1-8-7.93,1.66,1.66,0,0,1-.29-1c.11-.48,1,.26,1.13.37a20.68,20.68,0,0,1,2.48,3.1,21.16,21.16,0,0,0,3.67,3.4c.76.62,1.58,1.14,2.35,1.75s1.31,1.23,2,1.79c.88.71,2.37,1.51,3.53,1s.37-1.69-.37-2.22A12.72,12.72,0,0,0,174,57a7.08,7.08,0,0,1-2.27-1.72c-.65-.7-1.26-1.44-2-2.1s-1.69-1.43-2.54-2.11-1.5-1.18-2.27-1.75A13.82,13.82,0,0,1,163.05,48c-.52-.53-.61-2.4.45-1.73.54.34,1,.86,1.48,1.25a16.44,16.44,0,0,1,2.19,1.7c.67.71,1,1.69,1.6,2.45a7.87,7.87,0,0,0,4.28,2.6,3.24,3.24,0,0,0,3.52-.89c.76-1.07,0-2.18-.92-2.8a8.43,8.43,0,0,0-2.22-1,9.29,9.29,0,0,1-2.79-1.32,37.08,37.08,0,0,0-4.52-2.82c-.63-.33-1.5-.72-1.74-1.43s.91-1.34,1.54-1.22a11.79,11.79,0,0,1,2.06.67c2.11.78,4.21,1.62,6.4,2.19,1,.26,3.35.94,4-.33a1.56,1.56,0,0,0-.65-1.93,6.52,6.52,0,0,0-3.13-.79,32.26,32.26,0,0,1-5.39-1.12c-1-.27-2-.55-3-.8a5.26,5.26,0,0,1-1-.29A1,1,0,0,1,164.9,39c.6-.63,2.11-.23,2.86-.15s1.45.2,2.17.3a46.35,46.35,0,0,0,6.44.53c1.1,0,3.46.06,4-1.23a1.6,1.6,0,0,0-.68-1.82A6.08,6.08,0,0,0,176,36c-2.14.1-4.24.52-6.36.81-1,.13-2,.17-3,.23a2.93,2.93,0,0,1-1.44-.15c-.85-.38-.32-1.52.27-1.81a.15.15,0,0,0,.08-.19,39.25,39.25,0,0,1,6.51-2.76c1.07-.38,2.12-.79,3.15-1.26s2-1.31,3.17-1.27a4.71,4.71,0,0,0,2.21-.08c.25-.13.64-.44.44-.77S180.21,28.46,179.91,28.45ZM8.26,64.17s0,0,0,0H8.4a1,1,0,0,0,0,.24l-.18,0A1.62,1.62,0,0,1,8.26,64.17Zm0,.42.21,0c0,.1.07.19.11.29L8.36,65A2.49,2.49,0,0,1,8.27,64.59Zm.2.6,0-.06L8.68,65a3.73,3.73,0,0,0,.35.46l-.21.21A2.47,2.47,0,0,1,8.47,65.19Zm1.25,1.13A2.8,2.8,0,0,1,9,65.83l.2-.23a3.46,3.46,0,0,0,.67.46C9.81,66.15,9.76,66.23,9.72,66.32Zm1.09.21a2.55,2.55,0,0,1-.91-.14l.12-.24a3,3,0,0,0,.81.25S10.82,66.49,10.81,66.53Zm.22,0v-.07l.24,0Zm1.07-3.31.19.19.12.16h0a2.5,2.5,0,0,0-.34-.31Zm-.3-.25.14.11a.43.43,0,0,1,0,.07,3.5,3.5,0,0,0-.71-.33l-.27-.08A2.6,2.6,0,0,1,11.8,62.94ZM10.66,63v0c0,.1.14.09.15,0h0a2.4,2.4,0,0,1,.87.36l-.12.14c-.07.08,0,.19.11.12a1.21,1.21,0,0,0,.16-.16,3.83,3.83,0,0,1,.29.28h0c-.08.06,0,.19.11.13h0a1.63,1.63,0,0,1,.27.65l-.06,0c-.13,0-.08.25.05.2h0a2.2,2.2,0,0,1-.06.5l-.05,0c-.11,0-.19.14-.08.2l.07,0a1,1,0,0,1-.28.39l-.05-.06c-.1-.1-.22,0-.15.14s0,0,0,0a1.15,1.15,0,0,1-.42.13.1.1,0,0,0-.18,0l-.29,0c0-.15,0-.29,0-.44a.1.1,0,0,0-.19,0c0,.14,0,.27,0,.41a3.23,3.23,0,0,1-.7-.24,1.47,1.47,0,0,0,.1-.22c0-.09-.12-.16-.16-.07s-.07.14-.1.2a3,3,0,0,1-.59-.41l.09-.1c.08-.09-.05-.22-.13-.13l-.09.09a1.93,1.93,0,0,1-.46-.7.09.09,0,0,0,0-.15,1.85,1.85,0,0,1,0-.23h0c.17,0,.18-.28,0-.28h0a.91.91,0,0,1,.09-.31l.34.11c.15,0,.21-.18.06-.24L9,63.32a1.93,1.93,0,0,1,.38-.19l.13.12c.1.11.25,0,.16-.16l0-.05.08,0A2.42,2.42,0,0,1,10.66,63ZM145,24.13a8.35,8.35,0,0,1,2.06,0,15.28,15.28,0,0,0,2,0,16.33,16.33,0,0,0,3.42-.42c1-.26,4.2-1.66,3.6.65-.2.78-1.2,1.18-1.87,1.42a10.73,10.73,0,0,1-2.31.52c-1.37.18-3.27-.25-4.44.63A31.64,31.64,0,0,1,145,24.12Zm-5.56-8.63a18,18,0,0,1,2.63-1,3.71,3.71,0,0,1,2.35-.07c.78.33.83,1.25.76,2a1.68,1.68,0,0,1-1.85,1.63c-1.41,0-3.19-.47-4,1.09-1.13-.7-2.24-1.45-3.4-2.1A29,29,0,0,0,139.41,15.5Zm-3.51-3.82a4.8,4.8,0,0,1,3.76-.93c.93.26,1.82,1,2.83.78.43-.11.8-.37,1.24-.46s.89,0,.6.48a2.24,2.24,0,0,1-.73.74c-1,.7-2.38.59-3.54.63a9.05,9.05,0,0,0-3.49.73,3.86,3.86,0,0,0-1.34,1c-.4.48-.62,1.08-1,1.57a10.62,10.62,0,0,0-2.93-.75.17.17,0,0,0-.17-.13l-.24,0C132.81,14.46,134.16,12.81,135.9,11.68ZM122.83,8.86A21.08,21.08,0,0,1,125.72,8a9.75,9.75,0,0,1,4.65,0c3.39,1,.9,6.21-1.61,6.8a18.9,18.9,0,0,1-3.41-1.91c-1.6-1.07-3.09-2.31-4.64-3.45A10,10,0,0,0,122.83,8.86ZM32.25,6.73a31.64,31.64,0,0,0-9,1.44A33.12,33.12,0,0,0,7.9,18.06,25,25,0,0,0,1.81,37.57,40.69,40.69,0,0,0,5.12,48.89C6.56,52.27,8.57,55.47,9.55,59a34.15,34.15,0,0,0-3.27-5.27A34.56,34.56,0,0,1,1.41,42.88,27.78,27.78,0,0,1,4.54,21.55,32.22,32.22,0,0,1,19.31,9a31.1,31.1,0,0,1,11-2.63A57.7,57.7,0,0,1,42.83,7.61l-1.42.61a.32.32,0,0,0-.14-.08A34.37,34.37,0,0,0,32.25,6.73ZM15.89,33a.17.17,0,0,0,.08-.19.19.19,0,0,1,0-.08,18,18,0,0,0,.43-4.63,7.44,7.44,0,0,0-.49-2.29,5.06,5.06,0,0,1-.67-2.49,4.65,4.65,0,0,1,1.89-2.44,23.66,23.66,0,0,1,3.66-2.42c2.32,2.76.55,6.79-.82,9.57-1.7,3.43-3.49,6.79-3.74,10.7a11.82,11.82,0,0,0,1.08,5.62,33.11,33.11,0,0,1,2,4.29,2.11,2.11,0,0,1-.1,1.87c-.46.57-1.43.38-2,.06-1.1-.64-1.58-2.16-1.88-3.31a9.37,9.37,0,0,1-.29-2,8.2,8.2,0,0,0,2.51,3.53c.09.07.23-.06.14-.14-2.68-2.43-3.27-5.9-3-9.35A55.16,55.16,0,0,1,15.89,33Zm8.32,9c1.05,3.62.81,8.23-2,11a.14.14,0,0,0,0,.1H22A16.85,16.85,0,0,0,24,42.51a16.18,16.18,0,0,0-2.12-5.43c-.07-.14-.15-.28-.23-.42A21.88,21.88,0,0,1,24.21,42Zm-.59-2.34A14.25,14.25,0,0,1,25.49,47a9.45,9.45,0,0,1-1.62,4.61A4.44,4.44,0,0,1,22.66,53c2.35-2.78,2.77-6.56,2.05-10.05A14.9,14.9,0,0,0,23.62,39.69Zm-1,2.91c0-.39-.06-.78-.11-1.17a12.91,12.91,0,0,1,.79,4.25A12.51,12.51,0,0,1,23,48.41c.08-.55.15-1.09.19-1.63A11.44,11.44,0,0,0,22.58,42.6Zm.73,5.52a13,13,0,0,0,.18-2.93,9.88,9.88,0,0,0-1.1-4.28,16.63,16.63,0,0,0-.66-2.61,23.79,23.79,0,0,1,1.41,3.47,14.86,14.86,0,0,1,.36,5.75,10.52,10.52,0,0,1-.87,3,6.58,6.58,0,0,1,.31-1A7.73,7.73,0,0,0,23.31,48.12Zm-.19,2A15.55,15.55,0,0,1,21.82,53a.41.41,0,0,0-.05-.09A30.23,30.23,0,0,0,23.12,50.07Zm-.84-12.84-1.1-1.77c.43.63.85,1.26,1.2,1.9l.27.5C22.53,37.65,22.41,37.44,22.28,37.23Zm1.14,4.15a14.17,14.17,0,0,1,.44,5.16,16.58,16.58,0,0,0-.31-4.1A24.17,24.17,0,0,0,21.4,37.1c-.21-.45-.41-.9-.6-1.36l.12.21A24.74,24.74,0,0,1,23.42,41.38ZM22.2,42.45v0a.11.11,0,0,0,0,.08h0A16,16,0,0,1,22,46.74c-.26,1.27-.82,2.74-2.18,3.09a5.15,5.15,0,0,0-.47-2.07c-.61-1.59-1.56-3-2.15-4.62a12.05,12.05,0,0,1-.31-6.55,22.79,22.79,0,0,1,2-5.42,12.15,12.15,0,0,0,1.61,4.93A17.63,17.63,0,0,1,22.2,42.45ZM19,31.6a6.31,6.31,0,0,0,.23.93,9.37,9.37,0,0,0,.83,1.93c.14.39.28.77.44,1.14A12.32,12.32,0,0,1,19,31.6Zm-8.78,6.95c-.52-1.1-1.12-2.17-1.72-3.22a8.1,8.1,0,0,1-1.14-2.65,2.93,2.93,0,0,1,1.68-3.15,4.72,4.72,0,0,1,6.53,3.26c-.28,1.33-.61,2.64-.86,4a23.05,23.05,0,0,0-.43,3.91A3.09,3.09,0,0,1,11,40.19C10.73,39.64,10.49,39.09,10.24,38.55ZM158.46,57.74c.35.28,1.12,1.17.39,1.42a4.15,4.15,0,0,1-1.49.09,13.09,13.09,0,0,0-3.48.18,33.69,33.69,0,0,1-6.22,1,17.33,17.33,0,0,1-6-.93,15.85,15.85,0,0,1-4.71-2.47,43,43,0,0,0,8.66-4.71A7.63,7.63,0,0,0,149,55.2c.75.36,1.53.66,2.3,1a15.48,15.48,0,0,0,2.25.89C155.19,57.48,157,56.57,158.46,57.74Zm-12.75-5.46.46-.35.24-.19,0,0a15.67,15.67,0,0,0,3,1.76,12.16,12.16,0,0,1,2.12,1.6,9,9,0,0,0,2.33,1.64,4.75,4.75,0,0,1-.81-.19c-.82-.26-1.61-.68-2.41-1a22.36,22.36,0,0,1-2.58-1.2A7.83,7.83,0,0,1,145.71,52.28Zm7,.86a18.3,18.3,0,0,0,1.87,1.41,2.72,2.72,0,0,1,1.06,1.12c.23.61-.59,1-1,.94a3.74,3.74,0,0,1-1.87-.89c-.61-.44-1.16-.94-1.73-1.43-1.32-1.15-3-1.62-4.37-2.75.55-.45,1.11-.9,1.67-1.33C150.14,50.69,151.4,51.94,152.75,53.14Zm1.52-6.32c-3.09.45-5.55,2.61-7.89,4.49A27.67,27.67,0,0,1,142,54.25c-1.77.93-3.58,1.77-5.42,2.57a.18.18,0,0,0-.23.1l-.15.07c-4,1.73-8.12,3.19-12.24,4.6s-8.22,2.79-12.44,3.85c-8.52,2.13-17.35,2.22-25.94,4-2.12.43-4.2,1-6.3,1.57S75,72,72.9,72.41c-4.41.85-8.87,1.53-13.33,2.1-1.66.21-3.33.39-5,.52a32.38,32.38,0,0,0,2.94-9.16c.71-3.58,1.31-7.21,1.87-10.81a95.64,95.64,0,0,0,.56-25A79.69,79.69,0,0,0,56,12.39c0-.09-.18-.05-.15,0a88.73,88.73,0,0,1,4.26,25,98.78,98.78,0,0,1-.44,12.64c-.39,3.92-1.13,7.77-1.77,11.65-.75,4.49-1.47,9.33-3.75,13.36a87.45,87.45,0,0,1-20.64-.78.19.19,0,0,0-.22.18,13.5,13.5,0,0,1-5.16-1.94,23,23,0,0,0-2.23-1.09c-.86-.35-1.76-.59-2.64-.88a8.51,8.51,0,0,1-4.59-3.25,18,18,0,0,1-2-5.47c-1.13-4.08-2.82-8-3.7-12.14-.44-2-.52-4.13-1-6.17a19.39,19.39,0,0,0-.89-3,3.19,3.19,0,0,0,3.21.5,12.88,12.88,0,0,0,.51,3.73.17.17,0,0,0-.18.17c0,2,.58,4.69,2.27,5.92a2,2,0,0,0,2.57-.14,1.42,1.42,0,0,0,.25-.49c2.49-.45,2.83-3.84,2.88-6.07A10.15,10.15,0,0,1,22.68,48c-.16.92-.31,1.83-.54,2.73a5.07,5.07,0,0,1-.5,1.33,2.09,2.09,0,0,0-.29.71c-.07.38.26.58.56.7s.9-.15,1.21-.4a8.25,8.25,0,0,0,2.3-3.76c1.15-3.39,0-6.89-1.55-9.94a35.35,35.35,0,0,0-2.56-4.26c-1-1.36-2.07-2.83-2.21-4.54.7-1.42,1.43-2.83,2-4.3,1-2.46,1.81-5.7-.21-7.86,1.08-.58,2.17-1.12,3.25-1.65C29.73,14,35.27,11.2,41,8.75l.13,0a.31.31,0,0,0,.4-.27l1.94-.8.2,0a.33.33,0,0,0,.4-.28l1.65-.65a104.25,104.25,0,0,1,12.56-3.9A87.36,87.36,0,0,1,71.67.57C80.51-.17,89.4.9,98.09,2.41a112,112,0,0,1,12,2.69c1.91.56,3.81,1.2,5.66,2A23,23,0,0,1,120.82,10c1.64,1.22,3.22,2.52,5,3.63a10.84,10.84,0,0,0,5.36,2.09l.09,0a14.94,14.94,0,0,1,5,1.9c1.6.92,3.23,1.9,4.73,3,2.73,1.93,4.37,5,6.87,7.16A13.83,13.83,0,0,0,152,30a18.71,18.71,0,0,0,5.87,1.48,11.82,11.82,0,0,1,3,.23,3.28,3.28,0,0,1,1.81,1.42,7.9,7.9,0,0,1,1,4.1,19.71,19.71,0,0,1-.35,4.06,9.07,9.07,0,0,1-1.53,3.93C160,47.54,156.78,46.45,154.27,46.82ZM180.68,29c-.46.53-1.68.25-2.29.22a3.75,3.75,0,0,0-2.07.65c-3.46,2-7.56,2.6-10.89,4.85a.17.17,0,0,0-.12,0c-.94.46-1.31,2.11-.09,2.5a5.37,5.37,0,0,0,1.92.08c1-.05,2-.14,3.07-.28a59,59,0,0,1,6.06-.74c1.15,0,3.27-.07,3.74,1.25,1,2.81-8.9,1.36-10.1,1.2-1.44-.2-3.23-.68-4.66-.35a1.25,1.25,0,0,0-.55,2.11c.38.41,1.14.46,1.66.58,1.09.27,2.17.58,3.26.88a30.27,30.27,0,0,0,5,1c1.07.11,2.71.17,3.38,1.17.56.81-.1,1.46-.88,1.54a8.31,8.31,0,0,1-2.75-.38,66,66,0,0,1-6.39-2.2,11.82,11.82,0,0,0-2-.64c-.75-.14-2,.39-2,1.28,0,1.27,1.63,1.86,2.57,2.35,1.65.85,3.08,2.08,4.67,3s3.86.9,5,2.46a1.48,1.48,0,0,1-.45,2.08,3.52,3.52,0,0,1-2.86.21,7.29,7.29,0,0,1-4.61-3.52,7.15,7.15,0,0,0-1.53-2c-.64-.54-1.4-.9-2-1.46-.39-.35-1.61-1.74-2.18-.95-.76,1,0,2.22.88,2.84,1.6,1.13,3.17,2.27,4.69,3.52a19.47,19.47,0,0,1,2.18,2,26.48,26.48,0,0,0,2.14,2.23c1.2,1,3.29,1.13,4.14,2.56.62,1-1.12,1.05-1.67.91a6.05,6.05,0,0,1-2.54-1.59c-2.6-2.37-5.71-4.13-7.82-7a11.68,11.68,0,0,0-2.35-2.7c-.37-.27-1.13-.46-1.26.16s.48,1.45.8,1.94a26.49,26.49,0,0,0,1.94,2.53,26.21,26.21,0,0,0,6.35,5.07,1.27,1.27,0,0,1,.68.91c0,.27-.21,1.43-.63,1.25a3.82,3.82,0,0,1-.85-.71,9.76,9.76,0,0,0-.87-.69c-.64-.47-1.31-.88-1.95-1.34a10,10,0,0,1-2-2c-1.18-1.47-2.67-2.67-3.82-4.18a25,25,0,0,1-2.93-4.55,7.75,7.75,0,0,0,1.36-.07,4.72,4.72,0,0,0,2.75-1.32c1.71-1.72,2-4.7,2.2-7s0-5.4-2-6.91a3.53,3.53,0,0,0-1.4-.59,21,21,0,0,1,3.06-5.65A25.93,25.93,0,0,1,168.77,21c1.86-1.42,3.78-2.74,5.68-4.11,1.46-1.06,3-2.52,4.92-2.44a21.79,21.79,0,0,0-4.48,3,30.46,30.46,0,0,0-4,4.55c-.47.6-1,1.14-1.49,1.73a3.14,3.14,0,0,0-.84,1.57c-.06,1,.79,1.85.56,2.81s-1.52.36-2,.07a1.21,1.21,0,0,0-1.42-.16c-.4.28-.52.94-.64,1.37a12,12,0,0,1-.81,1.79c-.38.83-.69,2.25.46,2.66a2.5,2.5,0,0,0,1.59-.2,17.2,17.2,0,0,0,2.07-.89c1.76-.86,3.33-2.05,5-3A47.41,47.41,0,0,0,178.49,27a10.56,10.56,0,0,0,1-.91c.34-.32,1.5-1.19,1.21-.05-.17.66-1,1.15-1.52,1.51a5,5,0,0,0-1.08.92.18.18,0,0,0,.1.25,5,5,0,0,0,1.09,0C179.45,28.78,180.89,28.8,180.68,29Z"/><path class="cls-2" d="M49.57,22.26a5.05,5.05,0,0,0-2.41-.59c-3.17-.72-6.74.23-9.53,1.68a16.61,16.61,0,0,0-3.81,2.74,8.93,8.93,0,0,0-3.6,4.51,2.92,2.92,0,0,0,1.44,3.59,5.83,5.83,0,0,0,3.61.19,11,11,0,0,0,2.91-.21,10.77,10.77,0,0,0,2.76-1,20.06,20.06,0,0,0,6.35-3.56,13.58,13.58,0,0,0,1.84-1.8A7.85,7.85,0,0,0,51,25.32C51.67,24,50.71,22.91,49.57,22.26Zm-2-.25a3.54,3.54,0,0,1,2,1.2,4.24,4.24,0,0,0-.82-.43c-3.32-1.36-7.53-.35-10.68,1l-.8.36,0,0a18.67,18.67,0,0,1,5.87-1.88,20.33,20.33,0,0,1,3.8-.36ZM36.17,27.27c.2-.16.4-.31.61-.45l-.26.24c-.8.78-1.73,2.05-.81,3.07s2.52.8,3.56.59a8.31,8.31,0,0,0,4-2.58c.63-.65,1.49-1.62,1.35-2.6-.18-1.25-2.49-.89-3.26-.75a17.08,17.08,0,0,0-1.74.44,9.59,9.59,0,0,1,2.92-.78c1-.1,2.54.25,2.25,1.6a5.73,5.73,0,0,1-1.54,2.37,9.1,9.1,0,0,1-5,2.59c-1,.17-2.21.27-2.79-.67S35.54,28.07,36.17,27.27Zm-.68.35c.18-.19.36-.39.56-.57l-.13.15ZM45,25.06c-.56-1.29-2.82-.86-3.83-.59A10.94,10.94,0,0,0,38,25.87q-.36.16-.72.36c.31-.22.63-.43,1-.63a8.63,8.63,0,0,1,2.59-1.21s0,0,0-.07a11,11,0,0,1,3-.44,2.69,2.69,0,0,1,1.91.55c.72.73-.28,2.42-.69,3.08a9.87,9.87,0,0,1-5.23,3.87c-1.41.48-4,1.06-5-.4-.56-.81-.06-2,.4-2.72a2.29,2.29,0,0,0,.1,2.4c.94,1.12,2.76.69,4,.35a9.49,9.49,0,0,0,4.22-2.58C44.35,27.63,45.49,26.23,45,25.06Zm-6.92,1.05a16.2,16.2,0,0,1,1.89-.77,10.8,10.8,0,0,0-2.34,1.48c-.74.59-1.94,1.79-1.74,2.87a.71.71,0,0,0,.27.45l0,0a1.32,1.32,0,0,1-.58-.73c-.31-.89.76-1.9,1.33-2.44A11.15,11.15,0,0,1,38.05,26.11Zm5.13-.53a1.06,1.06,0,0,0-.39-.46.68.68,0,0,1,.63.9,1.62,1.62,0,0,1-.12.43A1.4,1.4,0,0,0,43.18,25.58Zm.6.07a.81.81,0,0,0-.57-.74l.47.07c1.84.41-.18,2.64-.82,3.26a7,7,0,0,1-5,2.36,4.8,4.8,0,0,1-1-.14,5.17,5.17,0,0,0,2.41-.68,15.63,15.63,0,0,0,1.69-.85c.27-.14.53-.28.78-.43C42.68,27.91,43.88,26.92,43.78,25.65Zm-9.31,4.69c.09,1.38,1.56,1.73,2.68,1.73a10.06,10.06,0,0,0,4.58-1.27A9.2,9.2,0,0,0,45.66,27c.49-.94,1.07-2.38-.11-3a5.43,5.43,0,0,0-3.22-.19,12.14,12.14,0,0,0-5,2,8.1,8.1,0,0,0-3.17,3.49,2.48,2.48,0,0,0,.65,3,2.17,2.17,0,0,1-1.49-2.23,5.85,5.85,0,0,1,2.73-4.15,13.37,13.37,0,0,1,4.43-2,11.49,11.49,0,0,1,6.18-.15c2.28.78.61,3.23-.35,4.37a8.57,8.57,0,0,1-.64.7,16.16,16.16,0,0,1-6,3.39,13.15,13.15,0,0,1-1.63.35,9.65,9.65,0,0,1-1.86.07,2.8,2.8,0,0,1-1.55-.68c-.9-.85-.55-2.17,0-3.11a6.08,6.08,0,0,1,.71-1A3.61,3.61,0,0,0,34.47,30.34Zm12.62-2.93c.66-.89,1.4-2.2.66-3.25s-3-1-4.22-1a14.52,14.52,0,0,0-5.12,1.16,14.24,14.24,0,0,0-1.36.67,19.88,19.88,0,0,1,7.68-2.45,10.85,10.85,0,0,1,1.59-.07,11.51,11.51,0,0,1,1.43.23l.22.05a1.4,1.4,0,0,1,1,1.88,7.15,7.15,0,0,1-2,2.93Zm-1.48-5.68-1,.1a21,21,0,0,0-5.63,1.28,19.56,19.56,0,0,0-2,.94A15.17,15.17,0,0,1,45.61,21.73ZM32.28,34.18a2.59,2.59,0,0,1-2-2.32,4.61,4.61,0,0,1,1-2.89,7.69,7.69,0,0,1,1.22-1.45A6.17,6.17,0,0,0,31,31.05,2.81,2.81,0,0,0,33,33.91a4.27,4.27,0,0,0,1.22.35l.36.05A6.46,6.46,0,0,1,32.28,34.18Zm3.52-.06A6.83,6.83,0,0,1,34.05,34a7,7,0,0,1-1-.35l-.23-.11-.23-.13c-2-1.29-1-4.06.13-5.57A10.38,10.38,0,0,1,34.51,26c.47-.3.94-.58,1.42-.86a20.82,20.82,0,0,1,6.78-2.47c-.54.12-1.08.26-1.59.41a18.36,18.36,0,0,0-4.88,2.26c-2.17,1.38-4.89,3.74-3.94,6.62.56,1.71,2.37,2.1,4.05,2.07Zm1.33-.36a11.16,11.16,0,0,1-1.53,0,3.23,3.23,0,0,1-3.17-2.22c-.46-1.74.66-3.35,1.85-4.48.27-.26.57-.48.86-.71a5.35,5.35,0,0,0-2,4c0,1.65,1.41,2.23,2.89,2.36a5.45,5.45,0,0,0,1.93,0l.49-.07a13.33,13.33,0,0,0,3.86-1.3,12.25,12.25,0,0,0,1.33-.72,11.93,11.93,0,0,0,1.47-1.06,18.19,18.19,0,0,0,2.57-2.46,5.81,5.81,0,0,0,1.58-3,1.28,1.28,0,0,0-.36-1.05,3.34,3.34,0,0,1,1,.64c.39,1-.39,2.13-.94,2.9a16.88,16.88,0,0,1-3.6,3.61l-.8.47-.31.17c.09-.09-.06-.23-.16-.15-.28.23-.56.46-.85.68a40.27,40.27,0,0,1-4.82,2C38,33.5,37.56,33.64,37.13,33.76Zm2-.28c-.31.07-.62.12-.94.17a31.27,31.27,0,0,0,3.9-1.49c-.29.18-.59.36-.9.53A16.52,16.52,0,0,1,39.12,33.48Zm5.81-2.43A21.23,21.23,0,0,1,42,32.54a21.18,21.18,0,0,0,3.61-2.29c.68-.42,1.35-.86,2-1.31l.49-.36A18,18,0,0,1,44.93,31.05ZM49.46,27l-.24.33a19.22,19.22,0,0,1-2.29,1.84l.51-.47a16.24,16.24,0,0,0,1.66-2,4.76,4.76,0,0,0,1-2.11,2,2,0,0,0,0-.55C50.65,25,50,26.23,49.46,27Zm.54-.5a6.08,6.08,0,0,0,.43-1A1.84,1.84,0,0,0,50,23.63a2.88,2.88,0,0,0-1.53-1.52,5.88,5.88,0,0,1,.74.26C51.57,23.41,51.24,25,50,26.49Z"/><path class="cls-2" d="M73.73,52.9c-1.5,4.46-3.37,8.76-5,13.15,0,.13.16.19.21.06,1.77-4.33,3.47-8.73,4.94-13.17C73.89,52.86,73.76,52.82,73.73,52.9Z"/><path class="cls-2" d="M75.9,53.28A100.17,100.17,0,0,1,71.25,64.9c-.06.13.14.25.2.11A108.61,108.61,0,0,0,76,53.31C76,53.24,75.92,53.21,75.9,53.28Z"/><path class="cls-2" d="M77.65,54.31c-1.15,3.5-2.67,6.84-4.14,10.21-.06.13.13.25.2.12a86.83,86.83,0,0,0,4.13-10.28A.1.1,0,0,0,77.65,54.31Z"/><path class="cls-2" d="M79.25,55c-.87,3.13-2,6.17-2.93,9.3,0,.14.17.19.22.06,1-3.1,2-6.18,2.89-9.32A.09.09,0,0,0,79.25,55Z"/><path class="cls-2" d="M82.16,55.53c-.87,2.56-1.83,5.1-2.56,7.7,0,.15.19.21.24.06.81-2.58,1.67-5.14,2.52-7.71C82.4,55.46,82.2,55.4,82.16,55.53Z"/><path class="cls-2" d="M85.74,53.74a74.54,74.54,0,0,0-3.6,9.68c0,.15.2.22.24.06a76.42,76.42,0,0,1,3.54-9.69C86,53.68,85.78,53.63,85.74,53.74Z"/><path class="cls-2" d="M89.89,51.3c-1.33,3.65-3,7.15-4.36,10.8,0,.14.17.21.22.06,1.31-3.65,3-7.16,4.29-10.82C90.07,51.25,89.93,51.22,89.89,51.3Z"/><path class="cls-2" d="M92.86,51.51c-1.19,3.53-3,6.79-4.21,10.32-.05.12.14.17.19.05,1.31-3.46,3-6.82,4.06-10.36C92.91,51.49,92.86,51.48,92.86,51.51Z"/><path class="cls-2" d="M95.93,51.31c-1.26,3.41-2.85,6.68-4.28,10-.06.16.15.25.21.09,1.37-3.36,2.94-6.65,4.17-10.07A.05.05,0,0,0,95.93,51.31Z"/><path class="cls-2" d="M98.48,50.94c-.57,3.25-2.27,6.11-3.63,9.07-.06.13.13.25.19.11,1.34-3,3-5.88,3.51-9.16C98.56,50.91,98.49,50.89,98.48,50.94Z"/><path class="cls-2" d="M102,50.56c-1.17,3.37-2.93,6.47-4.29,9.76,0,.12.16.2.21.09a104.45,104.45,0,0,0,4.18-9.82C102.17,50.52,102.06,50.49,102,50.56Z"/><path class="cls-2" d="M105,50.27c-1.24,3.16-2.65,6.24-4,9.36a.12.12,0,1,0,.23.09c1.31-3.13,2.69-6.23,3.89-9.41C105.19,50.23,105.07,50.2,105,50.27Z"/><path class="cls-2" d="M107.1,50.93c-.88,2.73-2.15,5.29-3.14,8,0,.12.15.2.2.08a85.44,85.44,0,0,0,3.07-8C107.26,50.88,107.13,50.85,107.1,50.93Z"/><path class="cls-2" d="M109.37,50.47c-.63,3.05-2,5.86-3,8.81,0,.15.19.21.23.07.95-3,2.32-5.78,2.85-8.86A.05.05,0,0,0,109.37,50.47Z"/><path class="cls-2" d="M111.72,51.12c-.78,2.37-1.7,4.68-2.49,7,0,.12.15.17.19.05.9-2.31,1.66-4.69,2.4-7.06C111.84,51.09,111.74,51.06,111.72,51.12Z"/><path class="cls-2" d="M114.53,51.4c-.58,1.94-1.34,3.82-2,5.72-.05.14.17.2.22.06.66-1.91,1.37-3.8,1.92-5.75C114.67,51.36,114.56,51.33,114.53,51.4Z"/><path class="cls-2" d="M117.46,49.9A51.34,51.34,0,0,1,116,55.34a.1.1,0,1,0,.19,0c.47-1.82,1.06-3.6,1.36-5.46C117.56,49.87,117.47,49.84,117.46,49.9Z"/><path class="cls-2" d="M119.33,50c-.34,1.42-.88,2.79-1.18,4.22,0,.14.18.2.21.06.31-1.43.81-2.81,1.08-4.25C119.46,50,119.34,49.92,119.33,50Z"/><path class="cls-2" d="M121.13,49.71c-.21,1-.42,1.94-.61,2.91,0,.11.15.16.17,0,.2-1,.35-1.95.52-2.92C121.22,49.68,121.14,49.66,121.13,49.71Z"/><path class="cls-2" d="M123.18,50.27c-.1.38-.19.75-.28,1.13a.06.06,0,0,0,.12,0c.1-.37.19-.75.28-1.12C123.32,50.23,123.2,50.19,123.18,50.27Z"/><path class="cls-2" d="M126.38,48.6a8.6,8.6,0,0,1-.3,1.95.08.08,0,0,0,.15,0,7.4,7.4,0,0,0,.26-2A.06.06,0,0,0,126.38,48.6Z"/><path class="cls-2" d="M129.1,47.55c-.09.37-.11.75-.2,1.12a.08.08,0,0,0,.15,0c.08-.37.09-.76.17-1.13C129.23,47.51,129.12,47.47,129.1,47.55Z"/><path class="cls-2" d="M130.34,47.22c0-.07-.07-.14-.11-.06-.12.24-.3.83.15.85a.07.07,0,0,0,0-.14C130.09,47.85,130.28,47.36,130.34,47.22Z"/><path class="cls-2" d="M132.34,46.62c0-.09-.16-.09-.15,0a.26.26,0,0,0,.26.26c.08,0,.09-.12,0-.13S132.35,46.7,132.34,46.62Z"/><path class="cls-2" d="M133.52,46.15v.38a.07.07,0,0,0,.14,0c0-.13,0-.25,0-.38S133.52,46.08,133.52,46.15Z"/></g></svg>