<svg xmlns="http://www.w3.org/2000/svg" viewBox="0 0 138.01 51.98"><defs><style>.cls-1{fill:#fff;}.cls-2{fill:#272525;}</style></defs><title>life</title><g id="stroke"><path class="cls-1" d="M31.09,10.18l-2.9.91A31.11,31.11,0,0,1,27,16.37,32.87,32.87,0,0,0,26,23.49c-.15,3.85-.19,8.73,1.37,12.31a.53.53,0,0,1,0,.16c1.22.74,2.46,1.44,3.71,2.13a51.08,51.08,0,0,1-2.51-13.71C28.57,19.56,29.81,14.79,31.09,10.18Z"/><path class="cls-1" d="M38.26,36.38A67.69,67.69,0,0,1,37.18,26a84.43,84.43,0,0,1,.3-10.31,22.65,22.65,0,0,1,1.86-8Q35.41,8.81,31.53,10c-.93,4.53-2,9-2.08,13.69-.07,5,1.33,10.17,2.79,15,2.4,1.28,4.83,2.48,7.29,3.62-.05-.24-.09-.47-.13-.66Q38.77,39,38.26,36.38Z"/><path class="cls-1" d="M42,27a78.38,78.38,0,0,1,.14-11.77c.3-3.17,1.48-6,2.36-9-1.48.4-3,.81-4.43,1.23-2.3,5.46-2.12,12-2,17.76a70.17,70.17,0,0,0,1,10.23c.27,1.55.61,3.09.95,4.62a16.73,16.73,0,0,0,.55,2.67l.66.3c1.21.55,2.45,1.1,3.69,1.63a28.11,28.11,0,0,1-1.66-7C42.7,34.11,42.16,30.6,42,27Z"/><path class="cls-1" d="M19.61,20.85c.2-2.35.49-5.61,2.1-7.57l-3.05,1.08a37,37,0,0,0-1.83,7.19c-.29,2.74.7,5.06,1.25,7.68a.42.42,0,0,1,0,.25c.76.6,1.52,1.19,2.28,1.75A31.52,31.52,0,0,1,19.61,20.85Z"/><path class="cls-1" d="M53.08,4.09c-1.13.26-2.26.52-3.39.8-1.57.4-3.13.81-4.69,1.23-.66,3.08-1.83,5.93-2.16,9.12a74.62,74.62,0,0,0-.09,10.36,95.82,95.82,0,0,0,1.18,10.68c.47,3,.77,6.18,2.21,9,2.69,1.12,5.44,2.15,8.22,3a90.67,90.67,0,0,1-4.22-22.08C49.7,18.9,50.21,10.89,53.08,4.09Z"/><path class="cls-1" d="M7.7,18.5h0a37.22,37.22,0,0,0-4.55,11c-.46,1.82-.82,3.65-1.2,5.48S.88,38.64.91,40.5c3-2.57,4.53-6.45,5.71-10.11,1-3.26,2.35-7.28,1.59-10.79C8,19.24,7.86,18.87,7.7,18.5Z"/><path class="cls-1" d="M7.27,17.37c-.14-.42-.28-.85-.39-1.29a.33.33,0,0,1,0-.14c-.75-1.67-1.31-3.43-1.94-5.15C4.08,8.47,3.05,6.26,2.26,3.92,1.39,9,2.27,14.88,7.27,17.37Z"/><path class="cls-1" d="M16,21.55a22.92,22.92,0,0,1,2-7q-4.69,1.69-9.35,3.54a8.84,8.84,0,0,1,.39,1.4,30.76,30.76,0,0,0,7.94,9.17C16.5,26.25,15.82,24.15,16,21.55Z"/><path class="cls-1" d="M25.13,24.83a35.41,35.41,0,0,1,.67-6.74c.45-2.33,1.38-4.52,1.88-6.83-1.81.6-3.62,1.2-5.42,1.83-2.76,5.34-2.44,12.7-1,18.33a.39.39,0,0,1-.12.42c1.64,1.19,3.33,2.31,5.05,3.38C25.11,32,25.12,28.18,25.13,24.83Z"/><path class="cls-1" d="M111.78,4A104.12,104.12,0,0,0,98.24,1.62a.19.19,0,0,1,0,.16c-4.67,6.85-5.13,15.59-4.61,23.61A92,92,0,0,0,95.16,37c.77,3.87,1.91,7.85,4.35,11l0,0q2.93-.75,5.79-1.71c-3.9-4.75-5.61-10.82-6.22-16.86a42.46,42.46,0,0,1,2.6-19.78c.08-.21.42-.13.34.09a46,46,0,0,0-2.26,18.15c.4,6.4,2.2,13.15,6.43,18.11a80.82,80.82,0,0,0,8-3.23c9.47-4.47,18.22-11.39,22.41-21.21-6.35,2-13.05,3.27-19.56,4.69-.57.12-.8-.74-.24-.86,6.66-1.43,13.32-3.21,20-4.37h0v0l0,0C133.05,11,121.53,6.38,111.78,4Z"/><path class="cls-1" d="M92.78,25.92c-.63-8.24-.11-17.49,5-24.34-.83-.09-1.67-.17-2.5-.24-11.07,14-2.74,32.24-.17,47.68v0c1.16-.24,2.31-.5,3.46-.78-2.3-3.07-3.41-6.83-4.2-10.53A86.82,86.82,0,0,1,92.78,25.92Z"/><path class="cls-1" d="M53.43,25.93A107.47,107.47,0,0,1,54.79,13a30.59,30.59,0,0,1,1.3-5.34c.55-1.6,1.56-3.07,2.12-4.66-1.59.29-3.17.62-4.76,1A68.47,68.47,0,0,0,51,26.17a88.15,88.15,0,0,0,4.39,22.39l1.23.34C53.74,41.69,53.15,33.61,53.43,25.93Z"/><path class="cls-1" d="M94.88,1.3C93,1.15,91.17,1,89.31,1a.23.23,0,0,1-.07.07c-6.31,4.3-6.88,14.63-6.89,21.49,0,9.21,1.78,19.63,7.16,27.3a.53.53,0,0,1,.07.2q2.36-.35,4.71-.81C91.83,34.41,82.84,14.2,94.88,1.3Z"/><path class="cls-1" d="M81.52,21.14A45.37,45.37,0,0,1,83.41,8.62c.89-2.89,2.41-6,5.08-7.67C86.6.89,84.72.87,82.84.88c-1.26,3.67-3.26,6.92-4,10.8a75.63,75.63,0,0,0-1.14,13.93c0,8.5,1.4,17.49,5.24,25.15,1.91-.15,3.81-.36,5.71-.61C83,42,81.36,30.92,81.52,21.14Z"/><path class="cls-1" d="M74.7,1.12c-1,.06-2.1.12-3.14.2-.87.06-1.73.13-2.59.21A73.1,73.1,0,0,0,63,26.14a77.45,77.45,0,0,0,.09,12.56c.4,4.1,2.06,8,3.09,11.94q3,.3,6,.39C66.81,35.17,68.05,16.42,74.7,1.12Z"/><path class="cls-1" d="M62.15,26.14C62.67,17.77,64.39,9,68.54,1.57c-3.3.32-6.55.78-9.78,1.36-.38,1.31-1.14,2.51-1.64,3.77A26.77,26.77,0,0,0,55.69,12a101.29,101.29,0,0,0-1.4,13.23c-.38,8,.25,16.56,3.41,24,.7.18,1.41.34,2.11.49,1.8.37,3.61.65,5.43.87-1-3.73-2.46-7.36-2.95-11.2A70.13,70.13,0,0,1,62.15,26.14Z"/><path class="cls-1" d="M78,12.17C78.75,8,80.75,4.68,82.41.88c-2.4,0-4.79.1-7.18.22-6.17,15.49-7.54,34.07-2.07,50,2.58,0,5.16,0,7.73-.16L82,50.82c-3.67-7.54-5-16.19-5.12-24.5A73.75,73.75,0,0,1,78,12.17Z"/><path class="cls-2" d="M99.23,1a146.44,146.44,0,0,0-38.05.59c-.8.12-1.59.25-2.38.39a.2.2,0,0,0-.27,0,192.23,192.23,0,0,0-19,4.7Q23.69,11.24,8.29,17.29a.31.31,0,0,0-.13,0,13.56,13.56,0,0,1-.44-1.41.38.38,0,0,0-.45-.3C6.7,13.69,6.18,11.81,5.46,10a73,73,0,0,1-2.9-7.84.41.41,0,0,0-.78,0C.35,8,1,15.26,6.88,18.17a.45.45,0,0,0,.16.38c-2.64,3.16-3.95,7.38-4.9,11.31C1.63,32,1.23,34.09.7,36.18a13.86,13.86,0,0,0-.62,5.38.46.46,0,0,0,.68.28c3.59-2.7,5.43-7,6.75-11.21.89-2.79,1.89-6,1.84-9a34.42,34.42,0,0,0,6.32,7,85.3,85.3,0,0,0,16,10.74h0l0,0c2.67,1.43,5.4,2.83,8.19,4.14a1.48,1.48,0,0,0,.25.35.44.44,0,0,0,.56,0c1.58.73,3.18,1.44,4.79,2.1a.43.43,0,0,0,.47.19,89.53,89.53,0,0,0,8.7,3,.93.93,0,0,0,0,.13.47.47,0,0,0,.81.12l1.5.39s0,0,0,0a.38.38,0,0,0,.63.11,60.92,60.92,0,0,0,6.11,1.17c.56.08,1.12.14,1.69.21a.83.83,0,0,0,0,.15.46.46,0,0,0,.89,0c2.08.22,4.19.36,6.3.42a.49.49,0,0,0,.24,0,94.48,94.48,0,0,0,33-5,.4.4,0,0,0,.53-.18l.56-.19c12.51-4.44,24.89-12.2,30.09-25,.19.55.36,1.12.5,1.7.06.28.48.16.42-.11C134.37,6.94,113.18,2.56,99.23,1Zm-97,3c.79,2.34,1.82,4.55,2.68,6.87.63,1.72,1.19,3.48,1.94,5.15a.33.33,0,0,0,0,.14c.11.44.25.87.39,1.29C2.27,14.88,1.39,9,2.26,3.92ZM6.62,30.39C5.44,34.05,3.88,37.93.91,40.5c0-1.86.66-3.66,1-5.48s.74-3.66,1.2-5.48a37.22,37.22,0,0,1,4.55-11h0c.16.37.33.74.51,1.1C9,23.11,7.67,27.13,6.62,30.39ZM9.12,19.5a8.84,8.84,0,0,0-.39-1.4q4.65-1.84,9.35-3.54a22.92,22.92,0,0,0-2,7c-.22,2.6.46,4.7,1,7.12A30.76,30.76,0,0,1,9.12,19.5Zm8.93,10a.42.42,0,0,0,0-.25c-.55-2.62-1.54-4.94-1.25-7.68a37,37,0,0,1,1.83-7.19l3.05-1.08c-1.61,2-1.9,5.22-2.1,7.57a31.52,31.52,0,0,0,.72,10.38C19.57,30.67,18.81,30.08,18.05,29.48Zm3.13,2.36a.39.39,0,0,0,.12-.42c-1.48-5.63-1.8-13,1-18.33,1.8-.63,3.61-1.23,5.42-1.83-.5,2.31-1.43,4.5-1.88,6.83a35.41,35.41,0,0,0-.67,6.74c0,3.35,0,7.14,1.1,10.39C24.51,34.15,22.82,33,21.18,31.84ZM27.43,36a.53.53,0,0,0,0-.16c-1.56-3.58-1.52-8.46-1.37-12.31A32.87,32.87,0,0,1,27,16.37a31.11,31.11,0,0,0,1.23-5.28l2.9-.91c-1.28,4.61-2.52,9.38-2.46,14.2a51.08,51.08,0,0,0,2.51,13.71C29.89,37.4,28.65,36.7,27.43,36Zm4.81,2.73c-1.46-4.79-2.86-9.92-2.79-15,.07-4.65,1.15-9.16,2.08-13.69q3.88-1.23,7.81-2.36a22.65,22.65,0,0,0-1.86,8A84.43,84.43,0,0,0,37.18,26a67.69,67.69,0,0,0,1.08,10.43q.51,2.64,1.14,5.27c0,.19.08.42.13.66C37.07,41.17,34.64,40,32.24,38.69Zm8.94,4.38-.66-.3A16.73,16.73,0,0,1,40,40.1c-.34-1.53-.68-3.07-.95-4.62a70.17,70.17,0,0,1-1-10.23c-.13-5.81-.31-12.3,2-17.76,1.48-.42,2.95-.83,4.43-1.23-.88,3-2.06,5.81-2.36,9A78.38,78.38,0,0,0,42,27c.21,3.59.75,7.1,1.26,10.65a28.11,28.11,0,0,0,1.66,7C43.63,44.17,42.39,43.62,41.18,43.07Zm5,2.17c-1.44-2.78-1.74-5.91-2.21-9A95.82,95.82,0,0,1,42.75,25.6a74.62,74.62,0,0,1,.09-10.36c.33-3.19,1.5-6,2.16-9.12,1.56-.42,3.12-.83,4.69-1.23,1.13-.28,2.26-.54,3.39-.8-2.87,6.8-3.38,14.81-2.94,22.08a90.67,90.67,0,0,0,4.22,22.08C51.58,47.39,48.83,46.36,46.14,45.24Zm9.25,3.32A88.15,88.15,0,0,1,51,26.17,68.47,68.47,0,0,1,53.45,4c1.59-.36,3.17-.69,4.76-1-.56,1.59-1.57,3.06-2.12,4.66A30.59,30.59,0,0,0,54.79,13a107.47,107.47,0,0,0-1.36,12.9c-.28,7.68.31,15.76,3.19,23Zm4.42,1.11c-.7-.15-1.41-.31-2.11-.49-3.16-7.41-3.79-16-3.41-24A101.29,101.29,0,0,1,55.69,12,26.77,26.77,0,0,1,57.12,6.7c.5-1.26,1.26-2.46,1.64-3.77,3.23-.58,6.48-1,9.78-1.36C64.39,9,62.67,17.77,62.15,26.14a70.13,70.13,0,0,0,.14,13.2c.49,3.84,2,7.47,2.95,11.2C63.42,50.32,61.61,50,59.81,49.67Zm6.41,1c-1-4-2.69-7.84-3.09-11.94A77.45,77.45,0,0,1,63,26.14,73.1,73.1,0,0,1,69,1.53c.86-.08,1.72-.15,2.59-.21,1-.08,2.09-.14,3.14-.2C68.05,16.42,66.81,35.17,72.18,51Q69.19,50.94,66.22,50.64Zm14.67.26c-2.57.15-5.15.21-7.73.16-5.47-15.89-4.1-34.47,2.07-50C77.62,1,80,.9,82.41.88,80.75,4.68,78.75,8,78,12.17A73.75,73.75,0,0,0,76.9,26.32c.15,8.31,1.45,17,5.12,24.5ZM83,50.76c-3.84-7.66-5.2-16.65-5.24-25.15a75.63,75.63,0,0,1,1.14-13.93c.71-3.88,2.71-7.13,4-10.8,1.88,0,3.76,0,5.65.07-2.67,1.63-4.19,4.78-5.08,7.67a45.37,45.37,0,0,0-1.89,12.52c-.16,9.78,1.46,20.81,7.16,29C86.78,50.4,84.88,50.61,83,50.76ZM89.58,50a.53.53,0,0,0-.07-.2c-5.38-7.67-7.17-18.09-7.16-27.3,0-6.86.58-17.19,6.89-21.49A.23.23,0,0,0,89.31,1c1.86.07,3.71.18,5.57.33-12,12.9-3,33.11-.59,47.92Q91.94,49.69,89.58,50Zm5.57-1v0c-2.57-15.44-10.9-33.71.17-47.68.83.07,1.67.15,2.5.24-5.15,6.85-5.67,16.1-5,24.34a86.82,86.82,0,0,0,1.63,11.82c.79,3.7,1.9,7.46,4.2,10.53C97.46,48.55,96.31,48.81,95.15,49.05Zm41.7-28,0,0v0h0c-6.71,1.16-13.37,2.94-20,4.37-.56.12-.33,1,.24.86,6.51-1.42,13.21-2.64,19.56-4.69-4.19,9.82-12.94,16.74-22.41,21.21a80.82,80.82,0,0,1-8,3.23c-4.23-5-6-11.71-6.43-18.11A46,46,0,0,1,102,9.78c.08-.22-.26-.3-.34-.09a42.46,42.46,0,0,0-2.6,19.78c.61,6,2.32,12.11,6.22,16.86q-2.86,1-5.79,1.71l0,0c-2.44-3.17-3.58-7.15-4.35-11A92,92,0,0,1,93.6,25.39c-.52-8-.06-16.76,4.61-23.61a.19.19,0,0,0,0-.16A104.12,104.12,0,0,1,111.78,4C121.53,6.38,133.05,11,136.85,21Z"/></g></svg>