<svg xmlns="http://www.w3.org/2000/svg" viewBox="0 0 213.29 95.3"><defs><style>.cls-1{fill:#fff;}.cls-2{fill:#272525;}</style></defs><title>life</title><g id="stroke"><path class="cls-1" d="M16.42,63.39c.36.72.83,1.34,1.17.81a1.83,1.83,0,0,0,.24-.58C17.41,64.06,16.83,63.85,16.42,63.39Z"/><path class="cls-1" d="M16.7,61.37a1,1,0,0,1,.45.36,1.62,1.62,0,0,0-.51-.79c-.68-.49-.85.57-.78,1l.06.22a1.38,1.38,0,0,1,.11-.57A.51.51,0,0,1,16.7,61.37Z"/><path class="cls-1" d="M15.67,26c.4.14.52-.35.52-.92a1.27,1.27,0,0,1-.32.49.45.45,0,0,1-.71-.2A.79.79,0,0,0,15.67,26Z"/><path class="cls-1" d="M6,38.32l0,.23a1.27,1.27,0,0,0,.28.57c.25.35.33.15.39-.15A1.52,1.52,0,0,1,6,38.32Z"/><path class="cls-1" d="M64.49,44.26a8.55,8.55,0,0,0-2.62,3.87,9.58,9.58,0,0,0-.33,1.76v0a9,9,0,0,0,1.71,5.8c1.6,1.94,5.18,2.7,6.8.25a10.32,10.32,0,0,0,1.6-4.5c.2-2,.14-4.77-1.24-6.35C68.86,43.32,66.34,42.31,64.49,44.26Zm3.21,8a1.41,1.41,0,0,1-2.13.43c-.32-.21-.42-.84-.43-1.19v-.15a2.19,2.19,0,0,1,.08-.76c0-.07,0-.15,0-.22a.37.37,0,0,1,.1-.16.64.64,0,0,0,0-.07,1.19,1.19,0,0,1,2,0A2.18,2.18,0,0,1,67.7,52.23Z"/><path class="cls-1" d="M210.8,40.48a8.69,8.69,0,0,0-5.1.05,24.43,24.43,0,0,1-8.4.47c-7.25-.61-14.49-1.2-21.72-1.92-7.41-.74-14.76-1.86-22.19-2.36s-15-.78-22.56-1.36c-7.19-.55-14.48-.79-21.57-2.26-2.33-.48-5.29-1.26-6.75-3.34-.85-1.21-1.43-3.16,0-4.2a7.1,7.1,0,0,1,3.25-.73c1.54-.2,3.09-.54,4.64-.66,3.37-.26,6.74-.33,10.13-.35,6.57,0,13,.11,19.45,1.66,7.3,1.77,14.61,2.13,22.09,2.46,14.62.65,29.21,1,43.85.86a6.32,6.32,0,0,0,3.68-.8c1.68-1.28-.86-3.12-1.71-3.4a14.67,14.67,0,0,0-4.8-.57c-3.61,0-7.22.1-10.82.3-3.92.23-7.84.59-11.76.82a33.13,33.13,0,0,1-9.15-.85c-6.8-1.43-13.64-2.55-20.53-3.44-3.81-.49-7.62-1.15-11.47-1.29-3.18-.13-6.34.08-9.53-.13-7.65-.5-15.18,1.21-22.82.86-3.52-.16-11.53-.41-12.15-5.2-.27-2,1.13-2.18,2.89-2.23,2.94-.09,5.94-.21,8.88-.49a25.53,25.53,0,0,1,9.17.67c3.48.91,6.49.16,10-.13a166.75,166.75,0,0,1,22.13-.2c3.21.17,6.42,1.12,9.63,1.53,3.39.44,6.78.91,10.18,1.26,3.87.4,7.71.48,11.59.65,3,.14,6-.05,9,.17a10,10,0,0,0,5.24-1c2.14-1.07.79-4-1.17-4.26a60.65,60.65,0,0,0-9.34-.05c-6.65.19-13.19-1-19.77-1.83-7.34-.93-14.65-2.33-22-3.12-7.15-.77-14.3-.4-21.44-1.44s-14.37-2.58-21.63-3C82.92.61,67.6,1.7,52.38,3.26,44.94,4,37.61,6.57,30.73,9.41,24.41,12,17.37,14.35,12,18.72c-5.72,4.67-10,10.76-10.48,18.33-.28,4-.68,8.81,1,12.6A82.75,82.75,0,0,0,7.58,59C15.11,71.44,25.65,81.73,39.07,87.7c13.65,6.08,28.36,6.65,43.05,6.38,7.63-.13,15.24-.59,22.86-.86,3.84-.13,7.76-.46,11.61-.32,3.57.12,7.16.27,10.74.17,14.42-.42,29-1.85,43.31-3.45a.51.51,0,0,1,.35-.42,7.29,7.29,0,0,0,1.18-.52c-.21-.55-.42-1.11-.64-1.67-.31,0-.63-.06-.94-.07-.89-.06-1.77-.18-2.66-.16a52.93,52.93,0,0,0-6.3.26c-2.13.31-4.24,1-6.38,1.12s-4.54.28-6.81.45a86.66,86.66,0,0,1-13-.15c-4.67-.35-9.42,0-14.09,0-2.1,0-4.21,0-6.31-.07-1.14,0-2.27.2-3.41.06-1.94-.22-3.44-1.07-3.18-3.21.3-2.5,4.21-2.66,6-2.77,4.63-.29,9.29.13,13.92-.19,7.3-.51,14.66-.31,22-.45,4-.08,8.05-.13,12.07-.22,3.47-.08,6.92-.68,10.38-.77,1.8,0,4.18.22,5.88-.47.6-.24,4.08-1.57,2.42-2.77s-3.84-.85-5.75-.91c-1.7-.06-3.38-.09-5.08-.09-3.68,0-7.4-.22-11.08.14-3.5.34-7,.86-10.51,1.13-7.43.58-14.74-.16-22.17-.43-3.85-.14-8-.51-11.8,0a31.43,31.43,0,0,1-8.16.28c-3.64-.51-7.49-4.28-5-8.15,3.09-4.82,10.31-2.36,14.67-1.21a76.91,76.91,0,0,0,10.64,2.07c3.3.38,6.62.37,9.91.68,7.18.67,14.42.09,21.59.65,7.34.58,14.76.38,22.06,1.38,3.47.47,7.81,1.31,11.29.75a7.69,7.69,0,0,0,4-1.43c1.78-1.63-2-3.69-3-4.06-3.33-1.3-7-1.63-10.48-2-3.71-.44-7.44-.59-11.17-.7-7.38-.22-14.75-1-22.13-1a206.07,206.07,0,0,1-21-1.53c-3.86-.41-7.73-.7-11.6-.93A33.23,33.23,0,0,1,107.55,61c-2-.68-3.86-1.63-4.12-3.92-.2-1.77,1.17-2.71,2.72-2.82a191.45,191.45,0,0,1,19.17-.89c3.36.09,6.68-.11,10,.31s6.75,1.09,10.08,1.84c3.63.82,7.24,1.74,10.92,2.36a78.3,78.3,0,0,0,10.82.78c3.56.11,7.08,0,10.63.26s7.1.81,10.66,1c1.76.09,3.73.51,5.43-.17.89-.35,2-.7,2.39-1.69.45-1.15-1.21-2.4-1.92-2.74-2.91-1.41-6.82-1.67-10-2-7.53-.88-15-2-22.56-2.9s-15.25-.7-22.84-.41a124.13,124.13,0,0,1-20.76-.71c-3.34-.44-8.79-1.83-8.5-6.16.25-3.87,8.48-2.33,10.65-2.33,7.1,0,14.27.6,21.36,1.12C156.76,43,171.62,46,186.77,46.47c3.95.13,7.9,0,11.86.06,3.16,0,7.07.41,10-1A11.06,11.06,0,0,0,211,44.17C212.07,43.23,212.57,41.1,210.8,40.48ZM14.86,23.15a.86.86,0,0,1,1.14.17.24.24,0,0,1,.44,0c.31.84.82,3.14-.47,3.43C14.21,27.16,13.53,23.94,14.86,23.15Zm-8.22,17c-1,0-1.45-1.15-1.52-2s0-2.26,1.11-2.23a1.16,1.16,0,0,1,.84.51c0-.17,0-.34.06-.51s.5-.25.49,0c0,.47,0,.94-.09,1.41a2.15,2.15,0,0,1,0,1.45.65.65,0,0,1-.16.17C7.29,39.44,7.13,40.15,6.64,40.15Zm3.42,12.16c-.13.61-.55,1.34-1.28,1.16s-1.06-1.34-1.23-1.92A2.56,2.56,0,0,1,8,49.26c.56-.56,1.38-.08,1.62.54,0,0,0,0,0,.05s.05,0,.06.06A4.27,4.27,0,0,1,10.06,52.31Zm.15-25.41c0,.53-.36,2.19-1.24,1.78-.56-.26-.49-1-.34-1.69A1.39,1.39,0,0,1,9,25.55a.63.63,0,0,1,1,.1A2.23,2.23,0,0,1,10.21,26.9ZM12,35.83c-.23-.68-.15-1.62.34-1.9a1,1,0,0,1,1.3.13,1.71,1.71,0,0,1,.23,1.31c-.06.4-.15.81-.22,1.21s-.32,1-.87,1C11.92,37.69,11.85,36.7,12,35.83Zm1.32,13.46c-.51-.94-.81-2.53,0-3.43s1.79-.21,2.07.75a3.2,3.2,0,0,1,0,2,1.31,1.31,0,0,1-.1.75.51.51,0,0,1-.67.25s0,0-.08-.06c.86,1.09,1.25-1.73,1.1-2.34-.08-.3.36-.47.46-.16a3.57,3.57,0,0,1-.67,3.47C14.49,51.35,13.69,50,13.31,49.29Zm5,14.83a1.17,1.17,0,0,1-1.78.74,4.11,4.11,0,0,1-1.47-2.49A2.16,2.16,0,0,1,15.74,60c.67-.48,1.64.19,2,.76.09.15.17.32.25.49a.22.22,0,0,1,.12.13A4.37,4.37,0,0,1,18.33,64.12Zm1.09-26.73c-.64-.11-.68-1-.8-1.46a3.64,3.64,0,0,1-.08-1.13,2,2,0,0,1-.05-.42c0-.48,0-1.1.45-1.32l0-.1c.08-.24.41-.15.47,0,.71.23.89,1.81.92,2.31S20.45,37.57,19.42,37.39Zm19.33-5c-.09.91-.18,1.81-.26,2.71-.05.66-1,.55-1.1-.05,0-.12,0-.24,0-.35a4.79,4.79,0,0,1-.22,1.09c-.12.33-.68.15-.59-.19.41-1.64-.15-4-.26-5.64a16.26,16.26,0,0,1-.18-3.26.58.58,0,0,1,1-.23,8.69,8.69,0,0,1,.72,3.67c.12-1.15.25-2.3.36-3.44,0-.54,1-.64,1.08-.09.65,2.92.47,6.07.83,9,.09.75-1.08.84-1.16.09C38.84,34.63,38.8,33.51,38.75,32.38Zm2.87,37.38c-.06-.3-.1-.6-.14-.9a7.86,7.86,0,0,1-.26,1.6.58.58,0,0,1-1.14-.06,11.57,11.57,0,0,1-.15-1.2c0,.35-.08.69-.15,1s-.61.26-.57-.1A29.82,29.82,0,0,0,39,63.4c-.07-.69.85-.8,1.12-.24a7,7,0,0,1,.55,1.63,8.6,8.6,0,0,0,.11-1.61c0-.62.91-.88,1.11-.24.66,2.2.48,4.5.9,6.73C42.9,70.4,41.75,70.49,41.62,69.76ZM72.15,53.2c-.51,1.73-1.23,3.89-3.09,4.61s-4,.85-5.48-.54a9.9,9.9,0,0,1-2.82-7.48s0,0,0,0,0-.06,0-.09a7.37,7.37,0,0,1,1.33-4,5.89,5.89,0,0,1,5-3.35C72.31,42.3,73.23,49.54,72.15,53.2Z"/><path class="cls-2" d="M210.82,39.28c-2-.7-4.23-.16-6.21.34-4,1-8.25.14-12.27-.26-7.24-.7-14.47-1.07-21.7-1.94-7.49-.91-14.92-1.73-22.46-2.14s-15-.89-22.53-1.43c-3.51-.25-7-.48-10.48-1-3.65-.5-7.9-.71-10.92-3-1.46-1.12-1.66-3.46.32-3.78.67-.11,1.36-.15,2-.24,1.59-.2,3.17-.51,4.77-.63,3.65-.28,7.31-.28,11-.29a88.93,88.93,0,0,1,10.32.38c3.51.39,6.9,1.27,10.35,2,6.9,1.46,14,1.5,21,1.81,7.43.33,14.82.76,22.25.79,3.41,0,6.81-.1,10.22-.09,1.73,0,3.45,0,5.18-.05a49.35,49.35,0,0,0,5.83.08c1.08-.14,4-.83,4-2.34,0-2-1.81-3.68-3.71-4.14a31,31,0,0,0-8.11-.4c-4,.11-8,.27-12.06.54-3.52.24-7.05.67-10.58.62s-7.51-1.2-11-2a174.37,174.37,0,0,0-41.44-3.82c-7.52.14-14.92,1.67-22.43.39a12.19,12.19,0,0,1-5-1.81,2.79,2.79,0,0,1-1.11-1.52c-.53-1.7,1.07-1.46,1.82-1.47,3.2,0,6.48-.26,9.67-.56a26.72,26.72,0,0,1,9.53,1.1c3.09.81,6.61-.31,9.73-.57a93.37,93.37,0,0,1,10.58-.23c4,.11,8.27-.36,12.25.36a211,211,0,0,0,40.28,3.55,9.27,9.27,0,0,0,5.33-1.88c1.3-1.1.68-2.79,0-4-.76-1.42-2.34-1.8-3.82-1.86-3.32-.14-6.76-.06-10.08.08a67.94,67.94,0,0,1-10.44-.78c-3.61-.43-7.18-1.11-10.8-1.46-7.38-.73-14.6-2.54-22-3.07-3.21-.23-6.46-.19-9.67-.25A90.18,90.18,0,0,1,116.63,2.9c-7-1.08-13.94-2.34-21-2.68-15.1-.73-30.12.47-45.11,2-6.88.7-13.82,3.49-20.17,6-6,2.43-12.32,4.79-17.7,8.49A28.36,28.36,0,0,0,1.52,31.25C-.29,36.88-.69,44.47,1.47,50c2.37,6.12,6.5,12.1,10.4,17.34A64.7,64.7,0,0,0,26.56,81.53,73.8,73.8,0,0,0,57.88,94.09C70,96,82.77,95.19,95,94.62c6.33-.29,12.66-.59,19-.77,6.55-.19,13,.14,19.59-.32,12.41-.89,24.82-2,37.18-3.41a.51.51,0,0,0,.6.15c.25-.09.49-.19.73-.3h.09a.22.22,0,0,0,.18-.12,2.08,2.08,0,0,0,1.35-2.22c-.19-1.88-2.53-1.74-3.86-1.89a48.17,48.17,0,0,0-8.32.18,40,40,0,0,0-4.84.91,50.09,50.09,0,0,1-5.74.47,83.12,83.12,0,0,1-11,.42c-3.43-.22-6.73-.39-10.16-.37s-6.78.09-10.13,0c-2.73-.11-5.57.3-8.27,0-1-.11-3.32-1-1.15-2.82a4.44,4.44,0,0,1,2.32-.63,32.49,32.49,0,0,1,4.3-.32c3.88,0,7.77.07,11.65-.13,7.32-.38,14.66-.3,22-.45,7.51-.16,15-.2,22.44-1,2.67-.28,5.09,0,7.56-1.15.94-.46,2.55-1.46,2.22-2.75-.47-1.83-2.61-2.29-4.23-2.45-3.25-.32-6.66-.11-9.94-.13a97.18,97.18,0,0,0-10.24.26c-3.81.38-7.59.92-11.41,1.2-7.4.53-14.82-.36-22.22-.58a70.36,70.36,0,0,0-10.67.09c-3.23.39-7.63,1-10.41-1a4.34,4.34,0,0,1-.87-5.66c1-1.65,3.33-2,5.1-2,3.43-.08,7.23,1.33,10.51,2.24,6.42,1.78,13.4,2,20,2.26,14.8.49,29.7.47,44.42,2.23,4.17.5,11.35,1.89,14.41-2,2.62-3.37-6.45-6-8.19-6.32-6.76-1.36-13.74-1.5-20.61-1.7-7.39-.21-14.73-.94-22.13-.91-7.56,0-15.15-1.29-22.66-2-3.47-.31-7-.43-10.44-.68a21.29,21.29,0,0,1-4.69-.78,16.15,16.15,0,0,1-2.17-.82c-2.35-1.11-2.18-3.79.61-4,3-.21,5.92-.58,8.88-.85a88.18,88.18,0,0,1,10.41,0,95.33,95.33,0,0,1,10.68.5c3.66.51,7.28,1.35,10.88,2.18,3.36.78,6.71,1.54,10.12,2.07,3.66.56,7.26.39,10.94.59,3.5.19,7,0,10.51.3s7,.7,10.51,1a10.24,10.24,0,0,0,6.29-1.2c1.76-1,1.66-2.75.58-4.16a8.24,8.24,0,0,0-5.9-2.66c-1.79,0-3.67-.63-5.46-.86-2.07-.27-4.14-.5-6.21-.76-7.44-.94-14.9-2.24-22.38-2.75-7.11-.49-14.32,0-21.44.19-3.39.07-6.77-.16-10.15-.3s-7.1-.23-10.42-1.31a6.83,6.83,0,0,1-3.53-2.37c-1.67-2.3,1.06-3,2.65-3.16,3.05-.22,6.12.2,9.18,0,3.4-.18,7,.57,10.38.72,4.2.19,8.39.43,12.57.84,7.38.72,14.75,1.87,22.11,2.83a181.18,181.18,0,0,0,21.46,1.49c3.67,0,7.35-.06,11,0,3,.08,6.21,0,9-1.33,1.32-.63,3.15-1.64,3.62-3.14A3.3,3.3,0,0,0,210.82,39.28Zm.15,4.89a11.06,11.06,0,0,1-2.35,1.38c-2.92,1.39-6.83,1-10,1-4-.05-7.91.07-11.86-.06-15.15-.47-30-3.5-45.09-4.63-7.09-.52-14.26-1.13-21.36-1.12-2.17,0-10.4-1.54-10.65,2.33-.29,4.33,5.16,5.72,8.5,6.16a124.13,124.13,0,0,0,20.76.71c7.59-.29,15.29-.51,22.84.41s15,2,22.56,2.9c3.22.37,7.13.63,10,2,.71.34,2.37,1.59,1.92,2.74-.39,1-1.5,1.34-2.39,1.69-1.7.68-3.67.26-5.43.17-3.56-.17-7.1-.73-10.66-1s-7.07-.15-10.63-.26a78.3,78.3,0,0,1-10.82-.78c-3.68-.62-7.29-1.54-10.92-2.36-3.33-.75-6.69-1.42-10.08-1.84s-6.68-.22-10-.31a191.45,191.45,0,0,0-19.17.89c-1.55.11-2.92,1.05-2.72,2.82.26,2.29,2.1,3.24,4.12,3.92a33.23,33.23,0,0,0,8.77,1.18c3.87.23,7.74.52,11.6.93a206.07,206.07,0,0,0,21,1.53c7.38,0,14.75.78,22.13,1,3.73.11,7.46.26,11.17.7,3.52.41,7.15.74,10.48,2,1,.37,4.74,2.43,3,4.06a7.69,7.69,0,0,1-4,1.43c-3.48.56-7.82-.28-11.29-.75-7.3-1-14.72-.8-22.06-1.38-7.17-.56-14.41,0-21.59-.65-3.29-.31-6.61-.3-9.91-.68a76.91,76.91,0,0,1-10.64-2.07c-4.36-1.15-11.58-3.61-14.67,1.21-2.47,3.87,1.38,7.64,5,8.15a31.43,31.43,0,0,0,8.16-.28c3.83-.48,8-.11,11.8,0,7.43.27,14.74,1,22.17.43,3.52-.27,7-.79,10.51-1.13,3.68-.36,7.4-.14,11.08-.14,1.7,0,3.38,0,5.08.09,1.91.06,4.09-.29,5.75.91s-1.82,2.53-2.42,2.77c-1.7.69-4.08.43-5.88.47-3.46.09-6.91.69-10.38.77-4,.09-8,.14-12.07.22-7.31.14-14.67-.06-22,.45-4.63.32-9.29-.1-13.92.19-1.82.11-5.73.27-6,2.77-.26,2.14,1.24,3,3.18,3.21,1.14.14,2.27-.1,3.41-.06,2.1.07,4.21.06,6.31.07,4.67,0,9.42-.33,14.09,0a86.66,86.66,0,0,0,13,.15c2.27-.17,4.54-.27,6.81-.45s4.25-.81,6.38-1.12a52.93,52.93,0,0,1,6.3-.26c.89,0,1.77.1,2.66.16.31,0,.63,0,.94.07.22.56.43,1.12.64,1.67a7.29,7.29,0,0,1-1.18.52.51.51,0,0,0-.35.42c-14.34,1.6-28.89,3-43.31,3.45-3.58.1-7.17,0-10.74-.17-3.85-.14-7.77.19-11.61.32-7.62.27-15.23.73-22.86.86-14.69.27-29.4-.3-43.05-6.38-13.42-6-24-16.26-31.49-28.69a82.75,82.75,0,0,1-5.06-9.36c-1.67-3.79-1.27-8.57-1-12.6C2.05,29.48,6.29,23.39,12,18.72c5.36-4.37,12.4-6.7,18.72-9.31C37.61,6.57,44.94,4,52.38,3.26,67.6,1.7,82.92.61,98.23,1.59c7.26.47,14.44,2,21.63,3.05s14.29.67,21.44,1.44c7.35.79,14.66,2.19,22,3.12,6.58.83,13.12,2,19.77,1.83a60.65,60.65,0,0,1,9.34.05c2,.26,3.31,3.19,1.17,4.26a10,10,0,0,1-5.24,1c-3-.22-6,0-9-.17-3.88-.17-7.72-.25-11.59-.65-3.4-.35-6.79-.82-10.18-1.26-3.21-.41-6.42-1.36-9.63-1.53a166.75,166.75,0,0,0-22.13.2c-3.5.29-6.51,1-10,.13a25.53,25.53,0,0,0-9.17-.67c-2.94.28-5.94.4-8.88.49-1.76.05-3.16.2-2.89,2.23.62,4.79,8.63,5,12.15,5.2,7.64.35,15.17-1.36,22.82-.86,3.19.21,6.35,0,9.53.13,3.85.14,7.66.8,11.47,1.29,6.89.89,13.73,2,20.53,3.44a33.13,33.13,0,0,0,9.15.85c3.92-.23,7.84-.59,11.76-.82,3.6-.2,7.21-.26,10.82-.3a14.67,14.67,0,0,1,4.8.57c.85.28,3.39,2.12,1.71,3.4a6.32,6.32,0,0,1-3.68.8c-14.64.1-29.23-.21-43.85-.86-7.48-.33-14.79-.69-22.09-2.46-6.44-1.55-12.88-1.7-19.45-1.66-3.39,0-6.76.09-10.13.35-1.55.12-3.1.46-4.64.66a7.1,7.1,0,0,0-3.25.73c-1.47,1-.89,3,0,4.2,1.46,2.08,4.42,2.86,6.75,3.34,7.09,1.47,14.38,1.71,21.57,2.26,7.52.58,15,.86,22.56,1.36s14.78,1.62,22.19,2.36c7.23.72,14.47,1.31,21.72,1.92a24.43,24.43,0,0,0,8.4-.47,8.69,8.69,0,0,1,5.1-.05C212.57,41.1,212.07,43.23,211,44.17Z"/><path class="cls-2" d="M65.38,50.11a.64.64,0,0,1,0,.07.37.37,0,0,0-.1.16c0,.07,0,.15,0,.22a2.19,2.19,0,0,0-.08.76v.15c0,.35.11,1,.43,1.19a1.41,1.41,0,0,0,2.13-.43,2.18,2.18,0,0,0-.29-2.16A1.19,1.19,0,0,0,65.38,50.11Z"/><path class="cls-2" d="M40.75,63.18a8.6,8.6,0,0,1-.11,1.61,7,7,0,0,0-.55-1.63c-.27-.56-1.19-.45-1.12.24a29.82,29.82,0,0,1,.24,6.74c0,.36.51.47.57.1s.1-.69.15-1a11.57,11.57,0,0,0,.15,1.2.58.58,0,0,0,1.14.06,7.86,7.86,0,0,0,.26-1.6c0,.3.08.6.14.9.13.73,1.28.64,1.14-.09-.42-2.23-.24-4.53-.9-6.73C41.66,62.3,40.73,62.56,40.75,63.18Z"/><path class="cls-2" d="M40.12,35.63c-.36-3-.18-6.11-.83-9-.12-.55-1-.45-1.08.09-.11,1.14-.24,2.29-.36,3.44a8.69,8.69,0,0,0-.72-3.67.58.58,0,0,0-1,.23A16.26,16.26,0,0,0,36.27,30c.11,1.68.67,4,.26,5.64-.09.34.47.52.59.19a4.79,4.79,0,0,0,.22-1.09c0,.11,0,.23,0,.35.07.6,1,.71,1.1.05.08-.9.17-1.8.26-2.71,0,1.13.09,2.25.21,3.34C39,36.47,40.21,36.38,40.12,35.63Z"/><path class="cls-2" d="M67.09,42.33a5.89,5.89,0,0,0-5,3.35,7.37,7.37,0,0,0-1.33,4s0,.06,0,.09,0,0,0,0a9.9,9.9,0,0,0,2.82,7.48c1.5,1.39,3.73,1.21,5.48.54s2.58-2.88,3.09-4.61C73.23,49.54,72.31,42.3,67.09,42.33Zm4.56,9.13a10.32,10.32,0,0,1-1.6,4.5c-1.62,2.45-5.2,1.69-6.8-.25a9,9,0,0,1-1.71-5.8v0a9.58,9.58,0,0,1,.33-1.76,8.55,8.55,0,0,1,2.62-3.87c1.85-1.95,4.37-.94,5.92.85C71.79,46.69,71.85,49.51,71.65,51.46Z"/><path class="cls-2" d="M9.58,49.85s0,0,0-.05c-.24-.62-1.06-1.1-1.62-.54a2.56,2.56,0,0,0-.4,2.29c.17.58.54,1.76,1.23,1.92s1.15-.55,1.28-1.16a4.27,4.27,0,0,0-.42-2.4S9.6,49.87,9.58,49.85Z"/><path class="cls-2" d="M13.64,36.58c.07-.4.16-.81.22-1.21a1.71,1.71,0,0,0-.23-1.31,1,1,0,0,0-1.3-.13c-.49.28-.57,1.22-.34,1.9-.14.87-.07,1.86.78,1.77C13.32,37.54,13.55,37.07,13.64,36.58Z"/><path class="cls-2" d="M16.08,47.08c-.1-.31-.54-.14-.46.16.15.61-.24,3.43-1.1,2.34,0,0,.05,0,.08.06a.51.51,0,0,0,.67-.25,1.31,1.31,0,0,0,.1-.75,3.2,3.2,0,0,0,0-2c-.28-1-1.31-1.64-2.07-.75s-.47,2.49,0,3.43c.38.69,1.18,2.06,2.1,1.26A3.57,3.57,0,0,0,16.08,47.08Z"/><path class="cls-2" d="M18,61.23c-.08-.17-.16-.34-.25-.49-.35-.57-1.32-1.24-2-.76a2.16,2.16,0,0,0-.66,2.39,4.11,4.11,0,0,0,1.47,2.49,1.17,1.17,0,0,0,1.78-.74,4.37,4.37,0,0,0-.23-2.76A.22.22,0,0,0,18,61.23ZM16,61.61a1.38,1.38,0,0,0-.11.57L15.86,62c-.07-.45.1-1.51.78-1a1.62,1.62,0,0,1,.51.79,1,1,0,0,0-.45-.36A.51.51,0,0,0,16,61.61Zm1.56,2.59c-.34.53-.81-.09-1.17-.81.41.46,1,.67,1.41.23A1.83,1.83,0,0,1,17.59,64.2Z"/><path class="cls-2" d="M7.53,37.36c0-.47.08-.94.09-1.41,0-.28-.46-.31-.49,0s0,.34-.06.51a1.16,1.16,0,0,0-.84-.51c-1.15,0-1.19,1.41-1.11,2.23s.5,2,1.52,2c.49,0,.65-.71.71-1.17a.65.65,0,0,0,.16-.17A2.15,2.15,0,0,0,7.53,37.36ZM6.29,39.12A1.27,1.27,0,0,1,6,38.55l0-.23a1.52,1.52,0,0,0,.7.65C6.62,39.27,6.54,39.47,6.29,39.12Z"/><path class="cls-2" d="M16,26.77c1.29-.29.78-2.59.47-3.43a.24.24,0,0,0-.44,0,.86.86,0,0,0-1.14-.17C13.53,23.94,14.21,27.16,16,26.77Zm-.1-1.2a1.27,1.27,0,0,0,.32-.49c0,.57-.12,1.06-.52.92a.79.79,0,0,1-.51-.63A.45.45,0,0,0,15.87,25.57Z"/><path class="cls-2" d="M9,25.55A1.39,1.39,0,0,0,8.63,27c-.15.65-.22,1.43.34,1.69.88.41,1.22-1.25,1.24-1.78a2.23,2.23,0,0,0-.2-1.25A.63.63,0,0,0,9,25.55Z"/><path class="cls-2" d="M19.44,33c-.06-.2-.39-.29-.47,0l0,.1c-.45.22-.46.84-.45,1.32a2,2,0,0,0,.05.42,3.64,3.64,0,0,0,.08,1.13c.12.49.16,1.35.8,1.46,1,.18,1-1.45.94-2.07S20.15,33.24,19.44,33Z"/></g></svg>