<svg xmlns="http://www.w3.org/2000/svg" viewBox="0 0 341.38 178.93"><defs><style>.cls-1{fill:#fff;}.cls-2{fill:#272525;}</style></defs><title>life</title><g id="stroke"><path class="cls-1" d="M116.43,117.86a2.68,2.68,0,0,0-1.75,1.11,11.85,11.85,0,0,0,1.7-.48C117.08,118.24,117.8,118,116.43,117.86Z"/><path class="cls-1" d="M117.6,117a10,10,0,0,0-4.36.12,4.58,4.58,0,0,0-1.82.76c-1.2.93.88,1.25,1.43,1.27a7,7,0,0,0,1,0c0-1.18,2.57-3,4-1.22a.35.35,0,0,1,0,.49,3.92,3.92,0,0,1-1.85,1.1c.37-.07.73-.16,1.09-.26C118.62,118.77,119.74,117.52,117.6,117Z"/><path class="cls-1" d="M80.13,112.17c-.39.3-.49.54-.44.73,1.19-1.69,4.25-2.22,6-2.43.92-.1,4.36.06,3.32,1.88a2.15,2.15,0,0,1-.56.61c.44-.09.87-.2,1.3-.33l.16-.12c1.19-1.08-1.08-2-1.61-2.24a7,7,0,0,0-1.65-.44c-1.15.24-2.23.55-3.06.78A10.13,10.13,0,0,0,80.13,112.17Z"/><path class="cls-1" d="M122.54,93.36a4.07,4.07,0,0,1-.15.51c-.89,2.4-4.54,3.63-6.77,4.26a26.82,26.82,0,0,1-6.6,1l-1.6.24c-1.83.25-5.27,1-6.4-1a2.08,2.08,0,0,1-.22-.65,3.83,3.83,0,0,1-1.08-1.24c-1.29-2.43,2.57-4.61,4.21-5.46A33.75,33.75,0,0,1,118,87.7a9.42,9.42,0,0,1,2.77.3c-3.66-1.47-8.13-.69-11.74.39a33.4,33.4,0,0,0-5.86,2.44c-1.78.93-4,2-4.78,4-1,2.58,2.64,4.22,4.47,4.89a17.62,17.62,0,0,0,5.2.94,24.81,24.81,0,0,0,6.64-.5,41.22,41.22,0,0,0,4.68-1.94c.45-.22.9-.46,1.34-.72a7.17,7.17,0,0,0,2.3-3.27,2.65,2.65,0,0,0,0-1.82A6.2,6.2,0,0,1,122.54,93.36Z"/><path class="cls-1" d="M120.75,91.35a1.87,1.87,0,0,0-.28-.16,9.84,9.84,0,0,0-4.74-.8c2,.89,3.36,2.59,1.78,4.75a7.54,7.54,0,0,1-2.43,2.08,14.79,14.79,0,0,0,3.89-1.9C120.36,94.35,121.21,92.75,120.75,91.35Z"/><path class="cls-1" d="M198.26,84.74A8.53,8.53,0,0,1,192,86a3.62,3.62,0,0,1-.47-.13c-.41,0-.84.1-1.29.13a15.82,15.82,0,0,0,6.78-.2c1-.27,3.82-1.49,3.73-3A6,6,0,0,1,198.26,84.74Z"/><path class="cls-1" d="M194.3,83.05c-1-.52-3.1-.18-3.53.66A5.27,5.27,0,0,0,194.3,83.05Z"/><path class="cls-1" d="M189.36,81,189,81a9.66,9.66,0,0,0-2.81,1c-.73.29-.87.93-.4,1.92a2.79,2.79,0,0,0,1.13.36c0-.07,0-.13,0-.2a1.85,1.85,0,0,1,.63-1.49A4.16,4.16,0,0,1,189.36,81Z"/><path class="cls-1" d="M195.17,82.75a.38.38,0,0,1,0,.53,5.29,5.29,0,0,1-4.31,1.23h0a11.42,11.42,0,0,0,2.8.14h0A9.89,9.89,0,0,0,196,83.8a1.89,1.89,0,0,0,.28-.17c.23-.32.18-.71-.43-1.13-1.54-1-4.11-1-5.8-.44a2.16,2.16,0,0,0-1.08.72c-.49.65.57.71,1,.81a1.63,1.63,0,0,1,.43-.74A3.8,3.8,0,0,1,195.17,82.75Z"/><path class="cls-1" d="M187.64,83.85l0,.07a.69.69,0,0,0,0,.46h0c.22,0,.44,0,.66.05a3.7,3.7,0,0,1-.55-.49Z"/><path class="cls-1" d="M117.05,112.35a18.11,18.11,0,0,0-9.9,2c-2.06,1.08-3.23,2.82-2.1,5.06,1.3,2.57,4.6,3.76,7.29,3.86a.32.32,0,0,1,.31.42c4.65.2,9.94-.44,12.42-4.64S119.7,112.69,117.05,112.35Zm-2.23,10.26c-.14,0-.18-.23,0-.25,2-.32,6.59-.9,7.5-3.19a1.74,1.74,0,0,1-.11.18c-1.09,1.39-3.29,1.79-4.91,2.1a14.93,14.93,0,0,1-5.33.16c-1.54-.26-4.35-.9-4.71-2.76s2.4-2.87,3.67-3.31c3.17-1.08,9.5-2.23,11.66,1.23C125.24,121,117.24,122.3,114.82,122.61Z"/><path class="cls-1" d="M117.51,115.13c.41,0,.8.09,1.17.16,1,.18,3.18,1.23,3.73,2.52,0-.11,0-.22-.08-.33C121.78,115.63,119.66,115.14,117.51,115.13Z"/><path class="cls-1" d="M218.66,96.51a10.18,10.18,0,0,0-4.44-.82,9.46,9.46,0,0,1,.91.26c1.67.57,2.29,2.43.85,3.56a3.93,3.93,0,0,1-1.6,1,10.44,10.44,0,0,1-3.08.59c-.87.12-1.74.19-2.56.25-1.57.1-4.93.36-6.37-1-.72-.4-1.45-1.08-1.24-1.83.4-1.39,2.06-2.07,3.66-2.45a6.16,6.16,0,0,1,.61-.2,25.14,25.14,0,0,1,7.06-1,20.51,20.51,0,0,1,4.38.29,14.78,14.78,0,0,0-3.8-.81,27.49,27.49,0,0,0-6.15.08c-2.59.28-6.28,1.06-7.85,3.35-1.23,1.82,1.78,3.17,2.93,3.58a13.22,13.22,0,0,0,3.35.63,34.65,34.65,0,0,0,6.44-.18,33.07,33.07,0,0,0,4.17-.65,13.25,13.25,0,0,0,1.38-.63C218.85,99.77,219.8,98,218.66,96.51Z"/><path class="cls-1" d="M198.19,77.08a16.91,16.91,0,0,0-7.48-.69c-3.51.36-8.75,1.47-10.7,4.73-1.45,2.41,1,4.59,3,5.44a16.69,16.69,0,0,0,5.64,1.06.37.37,0,0,1,.18.69c4.67.58,10.25.39,13.8-2.89S201.14,78.17,198.19,77.08ZM193.62,87c-2.82.07-7.61-.41-9.52-2.8-1.31-1.63.2-3.27,1.63-4a19.73,19.73,0,0,1,7.67-1.6c2.26-.14,4.84,0,6.76,1.32a2,2,0,0,1,1,1.65,2.83,2.83,0,0,1,.23.57C202.4,85.8,196.06,86.9,193.62,87Z"/><path class="cls-1" d="M121.12,94a4.91,4.91,0,0,0,.74-1,1.28,1.28,0,0,0-.16-.82,4.51,4.51,0,0,1-.69,1.91Z"/><path class="cls-1" d="M170.82,97A14.23,14.23,0,0,0,165,99.66c-1.43,1.18-2.91,3.56-1.56,5.3,1.83,2.33,6.47,2.15,9.12,2.08a.34.34,0,0,1,.37.27,19.27,19.27,0,0,0,5.83-1.22c2.66-1,7.62-3.87,4.83-7.13S174.7,96.08,170.82,97Zm11.93,4.18a3.16,3.16,0,0,1-2.16,2c-2,1.36-4.45,1.73-6.81,2s-5.37.52-7.28-1.06-.14-4,1.62-4.69a20.41,20.41,0,0,1,8.92-.89C178.28,98.69,183.31,98.89,182.75,101.16Z"/><path class="cls-1" d="M194.31,79.9h.25a9.87,9.87,0,0,1,5.29.4,4.88,4.88,0,0,0-.58-.37,9.64,9.64,0,0,0-4.31-.86,23.84,23.84,0,0,0-8.12,1.32c-1.13.41-2.72,1.21-2.49,2.65,0,0,0,.1,0,.15-.07-1.71,2.5-2.46,3.87-2.76A25.62,25.62,0,0,1,194.31,79.9Z"/><path class="cls-1" d="M181.82,100.34a1.39,1.39,0,0,1,.13,1.37A.8.8,0,0,0,181.82,100.34Z"/><path class="cls-1" d="M181,100.49c.3.76-.21,1.6-1.17,2.12a9.66,9.66,0,0,1-4,1,.41.41,0,0,1,.13.28,19.73,19.73,0,0,0,2.83-.58l.16,0a6.8,6.8,0,0,0,2-1.3C181.63,101.28,181.49,100.81,181,100.49Z"/><path class="cls-1" d="M210.32,96.63c1.32.08,4.63.14,5.64,1.46a1.11,1.11,0,0,0-.65-1.2,6.61,6.61,0,0,0-2.88-.63,28,28,0,0,0-5.92.36,13.94,13.94,0,0,0-1.81.41l-.44.16c-.3.14-.58.29-.86.45-1.73,1-.76,2,.48,2.5a18.63,18.63,0,0,0,4,.2c1.13,0,2.26.06,3.38,0a13.27,13.27,0,0,0,3.36-.92c.69-.42.93-.92-.25-1.34a13.09,13.09,0,0,0-3-.58c-2-.22-4.42-.4-6.23.54-.91.46-.45.6.25.85l.29.08a.38.38,0,0,1,0-.55,5.88,5.88,0,0,1,6.31-.12.41.41,0,0,1,.08.63c-1.88,1.87-6.1,1.46-8.18.12a.39.39,0,0,1-.18-.45C204.51,96.23,208.32,96.52,210.32,96.63Z"/><path class="cls-1" d="M106.92,90.81l-.07,0a13.52,13.52,0,0,1,2.52-.29c.63-.18,1.23-.31,1.75-.41A13,13,0,0,0,106.92,90.81Z"/><path class="cls-1" d="M193.73,85.41l-.18,0a11.55,11.55,0,0,0,2.23-.36c1.32-.33,3.05-1.07,3.1-2.64,0-1.1-1.51-1.46-2.36-1.64a3.08,3.08,0,0,1,1.07,1.37,1.52,1.52,0,0,1-.56,1.87c-.61.91-2.47,1.27-3.27,1.35Z"/><path class="cls-1" d="M198.26,80.66a3.16,3.16,0,0,1,.87.67,1.94,1.94,0,0,1,.1,2.32,3.61,3.61,0,0,0,1.35-1.55,2.79,2.79,0,0,0-.74-.78A3.65,3.65,0,0,0,198.26,80.66Z"/><path class="cls-1" d="M120.34,88.73a8.49,8.49,0,0,0-2.09-.26,6.24,6.24,0,0,1,2.2,1.1,7.23,7.23,0,0,1,1.89.93A2.55,2.55,0,0,0,120.34,88.73Z"/><path class="cls-1" d="M94.74,108.05c-2.68-1-5.89-.77-8.68-.55a43.1,43.1,0,0,0-6.41,1,22,22,0,0,0-5.76,2c.44-.15.84-.26,1.15-.36a42.86,42.86,0,0,1,7-1.44,21.77,21.77,0,0,1,4.45-.63c2.7-.13,6.12,0,8.34,1.73,2.66,2,0,4.56-2,5.59a13.55,13.55,0,0,0,1.63-.66C97.54,113.17,98.31,109.39,94.74,108.05Z"/><path class="cls-1" d="M222.47,42.77A3.36,3.36,0,0,0,220.93,46a5.24,5.24,0,0,1,1.51-3.14Z"/><path class="cls-1" d="M220.84,42.6c-1.94.8-3.28,2.12-1.91,4.39a6.66,6.66,0,0,0,3.15,2.47,6.67,6.67,0,0,1-.9-.94A3.62,3.62,0,0,1,219.7,45,4.61,4.61,0,0,1,220.84,42.6Z"/><path class="cls-1" d="M209.81,99a.41.41,0,0,1,.37-.36,2.3,2.3,0,0,1,.45-.05,5.58,5.58,0,0,0-4,.13A5,5,0,0,0,209.81,99Z"/><path class="cls-1" d="M227.07,49.59h0a6.56,6.56,0,0,1-2-1A6.69,6.69,0,0,1,223,47.33a3.17,3.17,0,0,1-1.11-2.49,3.45,3.45,0,0,0,.13,2.78,4.18,4.18,0,0,0,.71,1.12A10.68,10.68,0,0,0,227.07,49.59Z"/><path class="cls-1" d="M228,61.29a21.2,21.2,0,0,0-14.57,2.88.34.34,0,0,1-.23.39c-3.62,1.21-4.71,4.64-1.89,7.41,1.69,1.65,4.17,2.3,6.44,2.6a27.52,27.52,0,0,0,13-1.82c2.91-1.11,5.6-3.28,4.52-6.7C234.34,63.05,230.78,61.76,228,61.29Zm4.86,6.63c-.78,3-5.89,4.43-8.48,4.68-.1,0-.09-.13,0-.15,2.34-.29,9.6-2.61,7.9-6.11-1.09-2.23-4.71-2.86-6.87-3a18.19,18.19,0,0,0-6.85,1.08,9.7,9.7,0,0,0-4.79,3c-1.92,2.57,1.67,3.82,3.53,4.06A20.62,20.62,0,0,0,227.7,70c1.37-.59,4.92-3,2.65-4.59a6.45,6.45,0,0,0-3.49-.78,4,4,0,0,1,1,.65c4,3.5-3.08,5.63-5.56,5.92a10.37,10.37,0,0,1-6.15-.8c-1.45-.83-1.36-2.46-.36-3.61a8,8,0,0,1,4.45-2.17,12.73,12.73,0,0,1,3.92-.54c2-.22,5.18-.47,6.81,1,2.19,1.91-.89,4.46-2.55,5.33a20.36,20.36,0,0,1-9.21,1.89c-2.26,0-8.08-.82-6.36-4.53s7.36-4.69,10.82-4.93C226.36,62.61,233.94,63.7,232.85,67.92Z"/><path class="cls-1" d="M241.94,42.36a10.21,10.21,0,0,0-1.6-.87,10.38,10.38,0,0,0-1-.33,17.88,17.88,0,0,0-2.17-.48,7.71,7.71,0,0,1,.75.52c.37,0,.73.09,1.1.15A9.77,9.77,0,0,1,241.94,42.36Z"/><path class="cls-1" d="M235.71,42.23c1.46,1.25,2.17,3,.16,4.54a6,6,0,0,1-4.45.8,27.06,27.06,0,0,1-4.91,0,9.56,9.56,0,0,1-1.44-.18,4.55,4.55,0,0,0,.75.59l.14,0a21,21,0,0,0,9.71.23,11.14,11.14,0,0,0,1.18-.28,6.6,6.6,0,0,0,1.14-.75,3,3,0,0,0,.63-4.1,8.73,8.73,0,0,0-1.89-.71Q236.22,42.34,235.71,42.23Z"/><path class="cls-1" d="M82,105.06a47.39,47.39,0,0,0-7.44,1.78c-2.22.74-4.94,1.84-6.09,4-1.63,3.09,2.27,5.76,4.65,6.69a24.62,24.62,0,0,0,8.81,1.4.35.35,0,0,1,.35.38c3.18-.44,6.41-.47,9.57-1.08,4.46-.86,10.64-4.12,7.82-9.54C96.5,102.69,87.53,104.18,82,105.06Zm15.65,7.07c-.89,3.29-5.21,4.28-8.95,4.61a35.32,35.32,0,0,1-9,.41c-2.22-.11-5.43-.34-7.39-1.87-1.22-.42-1.93-1.14-1.74-2.3a1.82,1.82,0,0,1,.42-.9c.52-1.18,2.11-2.06,3.12-2.55C78.28,107.53,100.13,102.91,97.63,112.13Z"/><path class="cls-1" d="M222.27,94.31a23.17,23.17,0,0,0-9.05-2.39,28.09,28.09,0,0,0-11.11,1.3c-2.87.91-6.43,2.47-7.37,5.61-1.16,3.86,3.69,5.29,7.47,5.68h.06a20.21,20.21,0,0,0,3,.09.37.37,0,0,1,.4.37,39,39,0,0,0,7.56-.2A26.44,26.44,0,0,0,223.1,102a4,4,0,0,0,2.25-4.6C225,96,223.48,95,222.27,94.31Zm-3.92,6.92c-2.68,1.27-6,1.43-8.92,1.61-3.5.21-8.08.2-10.67-2.56s2.82-5.18,4.78-5.77A24.48,24.48,0,0,1,214,94c1.42.21,3.85.72,5,2a6,6,0,0,1,.86.55C222,98.16,220,100.43,218.35,101.23Z"/><path class="cls-1" d="M219.7,97.45a3.35,3.35,0,0,1-.94,2.76c1.06-.62,1.61-1.47,1-2.62Z"/><path class="cls-1" d="M221.2,65.08a8.94,8.94,0,0,0-2.61.93,4.34,4.34,0,0,0-1.52,1.43c-1,1.57,1.59,2,2.35,2.08a10.64,10.64,0,0,0,2.49-.2,10.43,10.43,0,0,1-1.92-.16c-1.29-.25-2-1.33-.75-2.24a9.51,9.51,0,0,1,6.81-1.66,1.48,1.48,0,0,1,1.16,1.63c0,1.08-1.19,1.75-2,2.15-2.24,1.09-5.72,1.77-8,.56-1.43-.74-1.17-1.81-.38-2.76a4.72,4.72,0,0,0-.48.41c-2.55,2.44,2.53,3.31,3.93,3.36a12.38,12.38,0,0,0,7.15-1.69,1.82,1.82,0,0,0,.29-3C226.2,64.34,223.07,64.71,221.2,65.08Z"/><path class="cls-1" d="M114.7,115.92a9.35,9.35,0,0,0-4.77,1.61c-1.14.93-.23,1.5.87,1.82-.85-.69,0-2,1-2.52a9.14,9.14,0,0,1,6.78-.24c1.71.81.94,2.3-.43,3a12.17,12.17,0,0,1-7.35.62c-1.82-.4-2.82-2-1.14-3.34a1.92,1.92,0,0,0,.17-.13l-.09,0c-.9.47-2.48,1.53-1.5,2.65a5.75,5.75,0,0,0,2.71,1.29,14.68,14.68,0,0,0,8.07-.36c.9-.26,3.25-1,2.66-2.32C120.64,115.56,116.83,115.68,114.7,115.92Z"/><path class="cls-1" d="M224.27,67.9c.64-.51-.17-.55-.73-.61s-.95,0-1,.48a2.32,2.32,0,0,0,1.16-.25c.32-.13.5.22.39.48A.78.78,0,0,0,224.27,67.9Z"/><path class="cls-1" d="M225.15,46.68a12.35,12.35,0,0,0,2,.23,3,3,0,0,1-2.19-1.68,1.4,1.4,0,0,0-.45,1.26A4.58,4.58,0,0,0,225.15,46.68Z"/><path class="cls-1" d="M224.62,68.51l.21-.08c.78-.33,2.78-1.88,1-2.48a5.46,5.46,0,0,0-2.72.14c-.57.12-4.25,1.15-3.88,2s2.74.54,3.41.45l.13,0a2.26,2.26,0,0,1-1.58-.48c-.17-.13-.28-.41-.08-.57a3.38,3.38,0,0,1,3.5-.62.86.86,0,0,1,.26,1.49A2.69,2.69,0,0,1,224.62,68.51Z"/><path class="cls-1" d="M134,108.62a23.13,23.13,0,0,0,8.82,1.16c2.39-.09,6-.47,7.32-2.82a2.14,2.14,0,0,0,.16-2.2,2.11,2.11,0,0,1-.3,1.13c-.91,1.57-3.35,2.18-5,2.6a17.55,17.55,0,0,1-6.24.68.09.09,0,0,1-.07-.13,7,7,0,0,1-5.25-1.63,1.85,1.85,0,0,1-.08-2.84,2.4,2.4,0,0,1,.09-.5c.63-2.09,4.32-2.26,6-2.37.28,0,.56,0,.85,0a16.29,16.29,0,0,1,6.39.17l-.14-.06c-3.56-1.34-8.17-.62-11.65.65-1.47.53-3.94,1.54-4,3.38C130.87,107.33,132.9,108.2,134,108.62Z"/><path class="cls-1" d="M138,103.31a11.61,11.61,0,0,1,3.82-.82c-.29,0-.57,0-.86,0a19.33,19.33,0,0,0-4.81,1.23,6.64,6.64,0,0,0-1.91,1,1.47,1.47,0,0,0,.83,1.31c2,1.21,5.18.8,7.36.5a9.82,9.82,0,0,0,2.72-.65q1.11-.35.78-1.74a4.84,4.84,0,0,0-1.32-.57,6.82,6.82,0,0,0-2-.34,12.22,12.22,0,0,0-2.55.34c-.44.09-3.52.75-2.49,1.53.83.62,2.49.36,3.44.23.22,0,.44-.08.65-.13l.3-.09c.61-.1.63-.42,0-1a2.49,2.49,0,0,0-.88.1l.2,0a.41.41,0,0,1,.1.74,2,2,0,0,1-.88.26.33.33,0,0,1-.42-.06,2.34,2.34,0,0,1-.63-.26.42.42,0,0,1-.08-.64c.89-1,4.75-1.65,4,.65-.53,1.7-4.51,1.45-5.77,1.11C135.57,105.5,136.69,103.85,138,103.31Z"/><path class="cls-1" d="M133.61,105.62v0c-.6,1.69,2.71,2.4,3.73,2.51a15.12,15.12,0,0,0,5-.43,12.52,12.52,0,0,0,2.35-.8,17.77,17.77,0,0,1-7.45.52C136,107.27,134.2,106.77,133.61,105.62Z"/><path class="cls-1" d="M177.11,101.37l.08-.13a1.38,1.38,0,0,1-.31,0,4.92,4.92,0,0,0-1.43-.12,7.34,7.34,0,0,0-2.22.38c-.7.22-.84.54-.66.81a13.43,13.43,0,0,0,2.46-.15,4.82,4.82,0,0,0,1.83-.6Z"/><path class="cls-1" d="M111,94.55a3.39,3.39,0,0,0,1.56-.32,2.32,2.32,0,0,0-1.42-.4A1.31,1.31,0,0,1,111,94.55Z"/><path class="cls-1" d="M150.18,85.77a2.88,2.88,0,0,1,.27-.34,1.94,1.94,0,0,1-.69-1.75A1.84,1.84,0,0,1,150,83c-1.09.7-1.7,1.67-.09,2.66A2,2,0,0,0,150.18,85.77Z"/><path class="cls-1" d="M106.66,97.44a3.86,3.86,0,0,0,1.23.46l.27,0a.28.28,0,0,1,.19,0,14.5,14.5,0,0,0,6.59-2,2.16,2.16,0,0,0,1-2.7c-.55-1-2.1-1.44-3.15-1.67a13,13,0,0,0-2.3-.3,38.61,38.61,0,0,0-6.23,3.15l-.25.16a2.85,2.85,0,0,0-.14.5l.15.12a3.44,3.44,0,0,0,.91.42c.44-1.35,2.4-1.92,3.62-2.2.25-.06.58-.12.93-.18a2.33,2.33,0,0,1,.71-.25,5.91,5.91,0,0,1,5.15,0,.4.4,0,0,1,.18.45c-.67,1.9-3.35,2.51-5.08,2.86a13.85,13.85,0,0,1-4.66.27A1.9,1.9,0,0,0,106.66,97.44Z"/><path class="cls-1" d="M148.47,87.56a3.27,3.27,0,0,1-1.38-2.21,3,3,0,0,1-.44-.78c-.59-1.56.66-2.83,2-3.65a8.73,8.73,0,0,1,3.09-1.45c2.24-.59,5.83-.34,7.51,1.29a4.52,4.52,0,0,1,2.08,1.85,4.05,4.05,0,0,0-.75-2.15c-1.39-2-4.43-2.38-6.65-2.38a14.15,14.15,0,0,0-7.3,1.93,4.38,4.38,0,0,0-.42.28,6.06,6.06,0,0,0-1.67,2.35,3.4,3.4,0,0,0,.81,3A6,6,0,0,0,148.47,87.56Z"/><path class="cls-1" d="M117.16,94.38c1-1.44-.27-2.57-1.46-3.2a8.65,8.65,0,0,0-1.76-.67c-.54,0-1.06.11-1.55.18a6.61,6.61,0,0,1,4,1.77,2.28,2.28,0,0,1,.39,2.42C116.89,94.72,117,94.55,117.16,94.38Z"/><path class="cls-1" d="M117.65,89.07a13.73,13.73,0,0,0-3.66-.13l-.33,0-.18,0c-.75.13-1.49.3-2.23.48a15,15,0,0,1,2,.19,18.69,18.69,0,0,1,3.93-.61Z"/><path class="cls-1" d="M149.51,87.24l.36.13a2.18,2.18,0,0,1,0-.52,6,6,0,0,1-1.45-.47A2.8,2.8,0,0,0,149.51,87.24Z"/><path class="cls-1" d="M122.53,88.92c-.09-.06-.18-.1-.26-.16a3.72,3.72,0,0,1,.61.64,2.74,2.74,0,0,1,.42,2,3.07,3.07,0,0,1,.54,2.55,7.35,7.35,0,0,1-.59,1.71c.23-.21.47-.41.69-.64C126.15,92.77,124.81,90.47,122.53,88.92Z"/><path class="cls-1" d="M101.56,93.55c-1.31,1.1-1.3,2.2-.6,3,.05-.11.12-.23.18-.34a3.69,3.69,0,0,1,.88-3Z"/><path class="cls-1" d="M103.09,98.8a8.45,8.45,0,0,0,2.57.09l-.16,0a10.62,10.62,0,0,1-3.36-.44A2.66,2.66,0,0,0,103.09,98.8Z"/><path class="cls-1" d="M125,87.76c-3.16-2.22-7.37-2.42-11.07-2.09a42.37,42.37,0,0,0-9.61,2.25,20.17,20.17,0,0,0-8,4.3c-3.53,3.5,1.16,7.8,4.27,9.41A16.36,16.36,0,0,0,110.84,103a.38.38,0,0,1,.38.14c5.16-1.74,11.15-1.77,15.24-5.74C129.77,94.22,128.38,90.14,125,87.76Zm-2.82,9.53c-2.06,2.34-5.58,3.46-9,3.9a26.31,26.31,0,0,1-8.75.76c-.26,0-.26-.42,0-.4a22.61,22.61,0,0,0,4.87-.12c-.73,0-1.41,0-2-.07-3.08-.22-6.48-1.1-8.72-3.34-2.46-2.45,0-5.23,2.17-6.65a31.88,31.88,0,0,1,12.88-4.71c4.14-.55,9.49.26,11.83,4.17C127,93.42,124.45,95.78,122.16,97.29Z"/><path class="cls-1" d="M147,103.88c2.14,2.43-2.88,4.2-4.44,4.61a19.15,19.15,0,0,1-3.22.53,19.49,19.49,0,0,0,7-1.29,6.54,6.54,0,0,0,3.33-2.09,1.47,1.47,0,0,0,0-1.64,10.33,10.33,0,0,0-4.67-1.52A5.67,5.67,0,0,1,147,103.88Z"/><path class="cls-1" d="M165.52,77.89c-1.87-1.67-4.74-2.08-7.13-2.37-.92-.11-1.84-.18-2.77-.24a.35.35,0,0,1-.18,0c-4.36,0-8.58.62-12.1,3.39C140,81.35,140,85.4,142.6,88.5c4.28,5,12.21,4.94,17.8,2.51C164.86,89.08,170.45,82.28,165.52,77.89ZM162.06,87a11.5,11.5,0,0,1-3.42,2c-3,2.17-7.41,2.06-10.91.42a7.09,7.09,0,0,1-4.17-4.64,4.1,4.1,0,0,1,.12-2,3.55,3.55,0,0,1,.23-.92,5.5,5.5,0,0,1,2.32-2.5l.31-.22c4.26-3,12.51-4,16.32.24C165.05,81.81,164.37,85.05,162.06,87Z"/><path class="cls-1" d="M108.5,94.39a.47.47,0,0,1,0-.16,11.5,11.5,0,0,0-1.63.57,2.05,2.05,0,0,0-1.06,1,13.22,13.22,0,0,0,2.17,0,15.2,15.2,0,0,0,3.3-.48,4.66,4.66,0,0,1-1.12-.08,2.38,2.38,0,0,1-1.64.09.39.39,0,0,1-.28-.49A2.88,2.88,0,0,1,108.5,94.39Z"/><path class="cls-1" d="M177.53,102a2.58,2.58,0,0,1-.78.59c-.14.08-.31.15-.48.23a18.26,18.26,0,0,0,2.06-.45c.67-.19,1.74-.53,2-1.25s-.52-.92-1.33-1.1a7.83,7.83,0,0,0-1.29,0l-.17,0a1.24,1.24,0,0,1,.41,1,.28.28,0,0,1,0,.09A1.46,1.46,0,0,1,177.53,102Z"/><path class="cls-1" d="M113.92,94.23a2.6,2.6,0,0,0,.78-.77,11.65,11.65,0,0,0-1.73-.2c-.19,0-.39,0-.6,0a1.8,1.8,0,0,1,1.1.85.43.43,0,0,1,0,.31Z"/><path class="cls-1" d="M158.85,77.73a12.56,12.56,0,0,0-3.49-.43,8.8,8.8,0,0,1,5.38,2.17,4.75,4.75,0,0,1,1,5.16c-.09.18-.18.35-.28.52a6.15,6.15,0,0,1-.33.85,8.3,8.3,0,0,1-1.3,1.92,10.84,10.84,0,0,0,2.36-1.74C165.56,82.92,162.47,78.76,158.85,77.73Z"/><path class="cls-1" d="M170.58,103a1.2,1.2,0,0,1-.37-.48,2.3,2.3,0,0,1-.91-.78.38.38,0,0,1,.06-.47,4.23,4.23,0,0,1,.67-.58c-1.55.51-2.66,1.3-2.47,2.51.24,1.57,5.3.85,7.25.5a11,11,0,0,1-1.43-.12A3.75,3.75,0,0,1,170.58,103Z"/><path class="cls-1" d="M171.13,102a3.59,3.59,0,0,0,.47.12.87.87,0,0,1,.09-.54A2.08,2.08,0,0,0,171.13,102Z"/><path class="cls-1" d="M174.48,99.1c-.93,0-1.86.1-2.76.2a9,9,0,0,0-4.56,1.49,1.62,1.62,0,0,0-.38,2.43,2.09,2.09,0,0,1,0-.65c.52-2.48,4.36-3,6.32-3.28Z"/><path class="cls-1" d="M155.11,81c1.53,0,4.83.67,4.09,3l-.1.27a2.4,2.4,0,0,0-.19-2.77,10.52,10.52,0,0,0-4.62-1.23A13.24,13.24,0,0,0,149,81.71a3.74,3.74,0,0,0-1.09,1.82A3.67,3.67,0,0,0,147.8,85l.19.2a3.34,3.34,0,0,0,1,.64,2.22,2.22,0,0,1,.26-3.38,8.59,8.59,0,0,1,5-1.39Z"/><path class="cls-1" d="M151.16,88.81a9.78,9.78,0,0,1-5.63-1.9l-.25-.23c1.55,2,4.41,2.92,6.75,3.19.26,0,.52,0,.78,0a.13.13,0,0,1,.09,0,15.42,15.42,0,0,0,3.73-.6,7.37,7.37,0,0,0,2.53-1.73,11.47,11.47,0,0,1-4.57,1.74A6.46,6.46,0,0,1,151.16,88.81Z"/><path class="cls-1" d="M154.24,84.82l.14-.12.08-.08a4.84,4.84,0,0,0-1.5.2l.44.15A2.55,2.55,0,0,0,154.24,84.82Z"/><path class="cls-1" d="M151.72,85.36a6,6,0,0,0,1.09.27h0l.17-.07a2.89,2.89,0,0,1-1-.36A2.69,2.69,0,0,0,151.72,85.36Z"/><path class="cls-1" d="M151,85a4.27,4.27,0,0,1,.51-.3.41.41,0,0,1,0-.19,3.14,3.14,0,0,1,.32-.49.31.31,0,0,1,.16-.25l.16-.11c1.16-1.12,3.31-1.94,4.42-.7a1.65,1.65,0,0,1,.11,2.4,4.18,4.18,0,0,0,1-.61,1.69,1.69,0,0,0-.1-1.73c-.66-1-2-1.24-3.33-1.19l-.81.12c-1.09.18-2.84.69-3,2A1.12,1.12,0,0,0,151,85Z"/><path class="cls-1" d="M152.58,84.23a6.76,6.76,0,0,1,2.27-.25C154.75,83.56,153.36,83.84,152.58,84.23Z"/><path class="cls-1" d="M160.73,84.85a2.72,2.72,0,0,0-.56-2.31,4.24,4.24,0,0,1-.32,2c-.88,2.3-3.23,3.6-5.86,4.06a10,10,0,0,0,2.42-.54A8.21,8.21,0,0,0,160.73,84.85Z"/><path class="cls-1" d="M155.12,83.1h-.26a3.82,3.82,0,0,1,.64.27.37.37,0,0,1,.17.41c0,.11-.06.22-.1.33a.33.33,0,0,1,.11.54,3.51,3.51,0,0,1-.79.57,3.75,3.75,0,0,1-.61.51,2.9,2.9,0,0,0,1.78-.58C157,84.35,156.05,83.17,155.12,83.1Z"/><path class="cls-1" d="M155.62,86.54a22.86,22.86,0,0,1-2.36.4,11.66,11.66,0,0,1-2.78,0,.82.82,0,0,0,.11.58A8.42,8.42,0,0,0,155.62,86.54Z"/><path class="cls-1" d="M194.18,80.81l-.38,0-.44.09a4.94,4.94,0,0,1,3.56,1.64C196.72,81.64,195.1,80.9,194.18,80.81Z"/><path class="cls-1" d="M183.31,51.65a7.14,7.14,0,0,1,2.8-2.55,24.53,24.53,0,0,1,8.74-2.46,26.9,26.9,0,0,0-6.82,1,10.51,10.51,0,0,0-3.75,2.34A3.77,3.77,0,0,0,183.31,51.65Z"/><path class="cls-1" d="M184.73,46.46a11.89,11.89,0,0,0-2.81,1.85c.43-.25.87-.49,1.33-.71A10.39,10.39,0,0,1,184.73,46.46Z"/><path class="cls-1" d="M184.69,58.44a10.63,10.63,0,0,0,1.83.7,37.28,37.28,0,0,0,6.65.06,21.09,21.09,0,0,0,7.89-2.36,10.29,10.29,0,0,0,.87-1.28c.08-.13.15-.27.22-.41A15.57,15.57,0,0,1,195,58.56c-3.43.79-7.17.61-10.1-1.5-2.68-1.92-3.37-5.44-1-7.92.09-.1.2-.18.29-.27-.5.21-1,.42-1.47.65-1.26,2-1.07,4.47.21,6.77A8.13,8.13,0,0,0,184.69,58.44Z"/><path class="cls-1" d="M196.16,44.91a10.1,10.1,0,0,1,5.08.83l.33.19.48.18c-1.87-1.17-4.6-1.49-6.52-1.64h0c-.72.05-1.44.12-2.14.2s-1.6.23-2.4.4A27,27,0,0,1,196.16,44.91Z"/><path class="cls-1" d="M203.83,48.08a3.7,3.7,0,0,0-.4-.17,3.49,3.49,0,0,1,.2.44l.4.28A4.05,4.05,0,0,0,203.83,48.08Z"/><path class="cls-1" d="M186.61,57.17c3.74,2.06,9,.85,12.57-1A10.85,10.85,0,0,0,203,52.83a7,7,0,0,0-.14-4,10.32,10.32,0,0,0-1-.6,5.66,5.66,0,0,1,.9,1.33c1.77,3.69-2.41,6-5.32,6.94-3.37,1.05-8.48,1.7-11.61-.38a2.74,2.74,0,0,1-1.17-1.47,2.26,2.26,0,0,1-1-.35A7.4,7.4,0,0,0,186.61,57.17Z"/><path class="cls-1" d="M183.4,58.57a6.9,6.9,0,0,1-2.42-3,5.94,5.94,0,0,1,.05-5.18l-.14.08a8.77,8.77,0,0,0-.81.54c-.09.12-.18.23-.26.35a6.3,6.3,0,0,0-.32,1.53,8,8,0,0,0,.81,4.18A8.26,8.26,0,0,0,183.4,58.57Z"/><path class="cls-1" d="M202.19,45.28l-.18-.06a6.8,6.8,0,0,1,2.07,1.66l.17.24c.31.17.61.36.9.55s.48.35.7.53A7.59,7.59,0,0,0,202.19,45.28Z"/><path class="cls-1" d="M124.38,74.22a3.32,3.32,0,0,0,1.39-.42A1.46,1.46,0,0,0,124.38,74.22Z"/><path class="cls-1" d="M147.92,67.12a.35.35,0,0,1,.36.43c5.4.65,11.58.48,16.31-2.24a6.92,6.92,0,0,0,3.13-3.41c.68-1.79-.5-3.78-1.64-5.08-1.8-2.07-4.61-3.16-7.19-3.84a16.53,16.53,0,0,0-12.75,1.8,8.22,8.22,0,0,0-3.63,6C142.09,64.22,144.39,67.21,147.92,67.12Zm-2.56-8.52C148,54.17,155.2,54,159.59,55c2.16.5,4.34,1.6,5.11,3.81.65,1.88-.65,3.69-2,4.79-3.09,2.44-8.82,3.77-12.62,2.51a0,0,0,0,1,0-.06l-.82-.09a6,6,0,0,1-4.26-2.14C143.85,62.28,144.51,60,145.36,58.6Z"/><path class="cls-1" d="M195.5,63.44c4.37-.66,8.83-2.86,11.29-6.64a5.49,5.49,0,0,0,.45-5.57c-.86,3.72-4.29,7.52-6.92,9.11-4.49,2.72-11.07,3.52-16,1.44a9.51,9.51,0,0,1-4.7-4.33,4.65,4.65,0,0,1-1.52-3.87c0-.12,0-.23.05-.34a5.8,5.8,0,0,0-.69,2.54c-.09,2.53,1.89,4.45,3.91,5.61C185.56,63.77,190.86,64.15,195.5,63.44Z"/><path class="cls-1" d="M120.53,78.1a4.82,4.82,0,0,1-1.3-.86,2.19,2.19,0,0,1-1.62-1.67,1.4,1.4,0,0,1,0-.54,2.57,2.57,0,0,0-.21,2.54A2.87,2.87,0,0,0,119,79a20.34,20.34,0,0,0,3.23.33,14.42,14.42,0,0,0,1.47,0,14.64,14.64,0,0,0,3.66-1A10.17,10.17,0,0,1,120.53,78.1Z"/><path class="cls-1" d="M122.22,74.44a1.22,1.22,0,0,0-.16.26c-.74,1.81,3.63.7,4.19.39s.71-.74.5-1A3.85,3.85,0,0,1,122.22,74.44Z"/><path class="cls-1" d="M148.72,62.23c.69.84,2.3.89,3.73.74-1.32-.2-2.52-.86-2.14-2.37a2.72,2.72,0,0,1,1.05-1.53C149.45,59.79,147.65,60.91,148.72,62.23Z"/><path class="cls-1" d="M193,66.24c6.71-.51,13.92-3.46,16.92-9.87a11,11,0,0,0-.1-9.83,8.19,8.19,0,0,0-5.72-4,.4.4,0,0,1-.42.63c-9.05-2.59-30.06.5-27,14C178.38,64.79,186.15,66.76,193,66.24Zm-15.78-13a8.31,8.31,0,0,1,1.88-2.45l.09-.13a8,8,0,0,1,1.11-1.9,13.36,13.36,0,0,1,7.51-4.46,22.71,22.71,0,0,1,8.41-1.66c3.4-.1,7.37.57,9.77,3.2a5.43,5.43,0,0,1,1.41,4.09,6.35,6.35,0,0,1,.9,5.35c-.92,3.34-4.23,5.79-7.17,7.27-5.2,2.61-11.86,2.58-17.3.8C179.75,62,174.88,58.1,177.25,53.23Z"/><path class="cls-1" d="M156.82,62c1.33-.47,2.56-1.22,2-2.3-1-1.91-4.67-1-6.2-.4-.93.4-2.27,1.64-1,2.55.94.68,2.55.36,3.56.09a4.74,4.74,0,0,0,1.56-.77c.93-.73.35-1.63-.68-1.65a4.55,4.55,0,0,0-1.66.32,3.28,3.28,0,0,1,1.09.37.4.4,0,0,1,.08.63,2.78,2.78,0,0,1-3.21.31.42.42,0,0,1-.15-.56c.7-1.38,4.18-2.82,5.42-1.43C158.64,60.35,157.89,61.35,156.82,62Z"/><path class="cls-1" d="M152.93,65.21a16.05,16.05,0,0,0,7.68-2.37c1-.65,2-1.63,1.81-3a3.43,3.43,0,0,0-2-2.14,11.38,11.38,0,0,0-5.94-.85,12.49,12.49,0,0,0-5.06,1.28c-1.12.58-2.49,1.76-1.88,3.18,0-2.07,3.92-3.28,5.34-3.65,2-.54,4.91-.65,6.73.56,2.27,1.51-.59,4.24-2,5A9.81,9.81,0,0,1,148,63c-3.11-2-.43-4.87,1.89-5.9a15.51,15.51,0,0,1,9-.7c2,.41,5.5,2.43,4.16,5-2,3.91-8.46,5-12.73,4.64,2.85.74,6.22-.1,8.88-1.13,3-1.15,7.17-4.44,3.75-7.66-2.6-2.44-7.6-2.37-10.85-1.73s-8.61,3.6-6.62,7.68C146.63,65.6,150.76,65.37,152.93,65.21Z"/><path class="cls-1" d="M204.93,48.88a5,5,0,0,1,0,.67.3.3,0,0,1,0,.13A8,8,0,0,1,203.81,53s0,.06,0,.09a11.38,11.38,0,0,1-1.11,2.78l.33-.22a10,10,0,0,0,.85-.87C205.18,53.29,206.48,50.55,204.93,48.88Z"/><path class="cls-1" d="M331.24,13.5c-1.75-2.78-5.45-3.36-8.36-2.45-4,1.27-4.6,5-5.36,8.6a.42.42,0,0,1-.51.29,43.63,43.63,0,0,0-28.26,1.36c-9.09,3.54-14.42,11.38-18.89,19.62l1.22.61c0-.27.07-.53.12-.8s.39-.14.36.1a4.9,4.9,0,0,0-.05.77.17.17,0,0,1-.05.12c.68.35,1.33.72,2,1.1.1-.5.21-1,.34-1.46-.18-1.16-.4-2.29-.69-3.44a.21.21,0,0,1,.4-.11c.22.73.5,1.49.67,2.26.08-.23.17-.46.26-.69a17.64,17.64,0,0,0-.3-1.91.22.22,0,0,1,.43-.12,9.26,9.26,0,0,1,.25,1c.07-.17.16-.35.24-.52a9.25,9.25,0,0,0-.08-1.82c0-.17.27-.21.3,0,.05.35.11.7.15,1.05l.16-.3a11,11,0,0,0-.1-1.52c0-.25.34-.36.38-.11s.08.62.11.93l.17-.31c0-.51,0-1,0-1.52a.22.22,0,0,1,.43,0c0,.27,0,.55,0,.82a28.59,28.59,0,0,1,10.3-9.45c-.15-.11-.29-.22-.45-.32s0-.53.22-.38a3.77,3.77,0,0,1,.64.47,40,40,0,0,1,8.94-3.5,10,10,0,0,0-.8-.66c-.13-.11,0-.34.14-.23l1.07.77h0c.77-.19,1.55-.36,2.33-.51-.26-.23-.5-.47-.76-.68-.09-.07,0-.22.11-.15a10.14,10.14,0,0,1,.91.71s0,0,0,.06L300.3,21A15.35,15.35,0,0,0,299,19.85c-.09-.09,0-.21.13-.17a5.26,5.26,0,0,1,1.62,1.15.24.24,0,0,1,.06.09l.87-.12c-.36-.27-.71-.53-1.09-.78s0-.57.24-.41a8.85,8.85,0,0,1,1.48,1l.06.09.79-.08a8.12,8.12,0,0,0-1.17-.85.18.18,0,0,1,.18-.31,13.52,13.52,0,0,1,1.3.82.23.23,0,0,1,.07.3l.75-.05h0c-.39-.34-.77-.69-1.17-1-.21-.17.07-.52.28-.37a8.69,8.69,0,0,1,1.24,1,.25.25,0,0,1,0,.34l1-.05,0,0c-.32-.31-.66-.58-1-.86-.13-.1,0-.32.17-.23l1.08.77a.21.21,0,0,1,0,.33c.75,0,1.49,0,2.23,0-.28-.25-.56-.52-.86-.75s0-.48.19-.33c.39.29.79.59,1.16.92a.17.17,0,0,1,.06.17l1,.06c-.27-.26-.53-.53-.81-.78s.11-.52.33-.32a6.16,6.16,0,0,1,1.05,1,.28.28,0,0,1,0,.15c.33,0,.66.06,1,.09l0,0A15.37,15.37,0,0,0,310,19.54c-.17-.13.05-.41.23-.3a8.2,8.2,0,0,1,1.31,1,.24.24,0,0,1-.11.4c.87.1,1.74.22,2.58.38a5.56,5.56,0,0,0-.42-.57,8.65,8.65,0,0,0-.89-.82c-.15-.13,0-.38.2-.27a4.64,4.64,0,0,1,1.75,1.71.25.25,0,0,1,0,.08c.74.15,1.47.32,2.18.51a.41.41,0,0,1,.27.5c-.62,3.31,0,7,4.06,7,3.41,0,6.76-2.27,8.9-4.76A9.13,9.13,0,0,0,331.24,13.5ZM271.83,41.64c0-.52-.09-1-.12-1.54,0-.19.31-.24.33-.05.08.51.18,1,.25,1.53A.23.23,0,1,1,271.83,41.64Zm1.45.09c0,.33-.49.33-.52,0,0-.57-.11-1.15-.14-1.73,0-.28.41-.27.44,0C273.12,40.58,273.21,41.16,273.28,41.73ZM287.46,25l-.37-.31c-.14-.1,0-.34.14-.24a3.72,3.72,0,0,1,.45.33C287.83,24.93,287.6,25.16,287.46,25Zm1.19-.54-.95-.59c-.22-.12,0-.45.19-.33a8.51,8.51,0,0,1,1,.59C289,24.3,288.87,24.62,288.65,24.48Zm.36-.6a5.77,5.77,0,0,0-.77-.52.2.2,0,0,1,.2-.35,4.17,4.17,0,0,1,.87.56C289.53,23.76,289.22,24.05,289,23.88Zm1.14-.35c-.35-.21-.68-.45-1-.64s0-.43.19-.32a5.28,5.28,0,0,1,1.09.66C290.57,23.36,290.34,23.65,290.15,23.53Zm.86-.29a3.79,3.79,0,0,0-.58-.48.19.19,0,0,1,.19-.34,3.9,3.9,0,0,1,.69.52C291.51,23.13,291.2,23.43,291,23.24Zm.85-.39a9.85,9.85,0,0,1-.78-.67c-.11-.09,0-.26.14-.19a2.59,2.59,0,0,1,.84.66A.15.15,0,0,1,291.86,22.85Zm1.21-.19c-.32-.18-.62-.41-.92-.62s0-.5.2-.35a5.37,5.37,0,0,1,.94.68A.18.18,0,0,1,293.07,22.66Zm1-.31a4.55,4.55,0,0,0-.82-.82s0-.09,0-.07a6.37,6.37,0,0,1,1,.71C294.41,22.31,294.16,22.52,294,22.35Zm.71-.44a5.3,5.3,0,0,0-.54-.39.18.18,0,0,1,.18-.31c.2.12.4.26.6.4S295,22.09,294.75,21.91Zm2.5-.45a6.38,6.38,0,0,0-1-.91c-.11-.09,0-.3.17-.21a6.63,6.63,0,0,1,1,.93C297.56,21.4,297.36,21.59,297.25,21.46Zm9.33-1.17c-.25-.14-.41-.44-.62-.63s.05-.37.2-.26a2.27,2.27,0,0,1,.66.65A.18.18,0,0,1,306.58,20.29Zm12-.86a.21.21,0,0,1,0,.41A.21.21,0,0,1,318.58,19.43Zm-.72,4.49v0a.05.05,0,0,0,0,0,0,0,0,0,0,0,0l0,0a.18.18,0,0,1-.33-.14v0a.14.14,0,0,1,.15-.13c.12-.08.25.05.22.18Zm.76,1.82a.24.24,0,0,1,0-.48A.24.24,0,0,1,318.62,25.74Zm.21-2.85a.73.73,0,0,1-.19.2c-.17.11-.34-.07-.31-.24a.7.7,0,0,1,.08-.2C318.59,22.39,319,22.63,318.83,22.89Zm0-5.1v0c.1-.25.51-.24.5.07v0C319.41,18.27,318.72,18.14,318.87,17.79Zm.67,6.41c0,.05,0,.09,0,.13s0,0,0,0v0h0a.22.22,0,0,1-.42-.11.43.43,0,0,1,.1-.29A.22.22,0,0,1,319.54,24.2Zm0-3.25,0-.12c-.07-.13.13-.24.19-.11a.46.46,0,0,1,.06.23A.11.11,0,1,1,319.52,21Zm.38,6.44a.21.21,0,0,1,0-.41A.21.21,0,0,1,319.9,27.39Zm.65-6.69a.18.18,0,0,0,.06-.16c0-.09.15-.14.19-.05a.36.36,0,0,1,0,.32C320.72,21,320.45,20.86,320.55,20.7Zm0,3.43a1.58,1.58,0,0,1,0-.75.12.12,0,0,1,.23,0,3.87,3.87,0,0,0,0,.68C320.88,24.26,320.61,24.3,320.57,24.13Zm1.59-.89a.2.2,0,0,1,.39-.11.67.67,0,0,1-.24.76c-.16.11-.34-.11-.26-.26S322.21,23.43,322.16,23.24Zm-.39-.69A4.1,4.1,0,0,1,322,23c.14.25-.22.56-.41.32a4.73,4.73,0,0,1-.32-.46C321.11,22.52,321.57,22.26,321.77,22.55Zm.08,3.28a.24.24,0,0,1-.43.06c0-.09-.07-.18-.1-.27-.08-.34.46-.47.51-.14A1,1,0,0,1,321.85,25.83Zm.38,2.79a3.09,3.09,0,0,1-.31-.69c-.11-.27.36-.47.47-.2a3.65,3.65,0,0,1,.29.71A.25.25,0,0,1,322.23,28.62Zm.64-7.5c-.15.11-.33-.08-.3-.23v0c0-.07.06-.1.12-.12s.44.18.21.35Zm.39,2.47a.27.27,0,0,1,0,.54A.27.27,0,0,1,323.26,23.59Zm-.12,2.93s0-.09-.05-.13c-.1-.33.41-.47.52-.14l0,.13A.26.26,0,0,1,323.14,26.52ZM324,23.7a.12.12,0,0,1,0,.23A.12.12,0,0,1,324,23.7Zm.09,2.31-.07-.07c-.36-.39.41-.74.5-.29v.1C324.61,26,324.31,26.22,324.12,26Zm.3-3.38a2.55,2.55,0,0,1,.13-.39c.13-.29.55,0,.42.25a1.78,1.78,0,0,1-.17.3A.21.21,0,0,1,324.42,22.63Zm.7,4.87a.23.23,0,0,1,0-.45A.23.23,0,0,1,325.12,27.5Zm.11-1.94a.53.53,0,0,1-.08-.24c0-.34.48-.38.57-.08l0,0C326,25.58,325.44,25.88,325.23,25.56Zm1.26-4.15c0-.09.05-.16.07-.24,0-.27.46-.16.41.11a.56.56,0,0,1-.17.3A.18.18,0,0,1,326.49,21.41Zm.32,2.67c-.05-.1,0-.13,0-.08a.28.28,0,0,1,.15-.54.5.5,0,0,1,.39.54C327.36,24.31,326.87,24.39,326.81,24.08Zm1.06.45a.74.74,0,0,1-.17-.25.28.28,0,1,1,.51-.22c0,.09,0,.16.05.24A.24.24,0,0,1,327.87,24.53Zm.52-4.12a.24.24,0,0,0,0-.15c-.14-.34.44-.51.55-.16a1.12,1.12,0,0,1,.05.31A.28.28,0,0,1,328.39,20.41Zm.83,2a.26.26,0,0,1,0-.52A.26.26,0,0,1,329.22,22.44Zm.68-1,0,0a.16.16,0,0,1,0-.27l0,0C330.23,20.92,330.23,21.62,329.9,21.43Zm.83.38c-.07.12-.14.23-.2.36a.15.15,0,0,1-.27-.12,1.65,1.65,0,0,1,.18-.41C330.54,21.45,330.83,21.62,330.73,21.81Zm1-1.91a.08.08,0,1,1,0-.16A.08.08,0,0,1,331.72,19.9Z"/><path class="cls-1" d="M193.66,60.21a20.8,20.8,0,0,1-6.1,0,13.28,13.28,0,0,0,5.07.93,10.6,10.6,0,0,0,6.44-2.26A23.58,23.58,0,0,1,193.66,60.21Z"/><path class="cls-1" d="M203.48,56.56l.45-.56a15.39,15.39,0,0,1-1.88,1.31l-.6.38a11.88,11.88,0,0,1-6.29,3.8c.72-.18,1.42-.38,2.08-.61A14,14,0,0,0,203.48,56.56Z"/><path class="cls-1" d="M189.26,61.56a10.76,10.76,0,0,1-3.95-1.78,13.94,13.94,0,0,1-4.08-1.24,9,9,0,0,0,1.32,1.3c3.4,2.61,8.31,2.67,12.47,1.68A13.16,13.16,0,0,1,189.26,61.56Z"/><path class="cls-1" d="M195.58,43.67l1.3,0c2.79,0,5.94.48,8.12,2.35a6.46,6.46,0,0,1,1.12,1.23c-1.58-3.42-6.63-3.93-9.87-4a23.13,23.13,0,0,0-5,.49A26.29,26.29,0,0,1,195.58,43.67Z"/><path class="cls-1" d="M104.9,96.37a6,6,0,0,1-1-.37,2.41,2.41,0,0,0,.47,1,2.92,2.92,0,0,0,1.33.87A2,2,0,0,1,104.9,96.37Z"/><path class="cls-1" d="M187.91,56.11c.19.06.41.09.61.14a3.1,3.1,0,0,1-2.12-1.7,5.18,5.18,0,0,1-.75.11A3.85,3.85,0,0,0,187.91,56.11Z"/><path class="cls-1" d="M103.76,97.4a.75.75,0,0,1-.13-.18,3.56,3.56,0,0,1-.59-1.81,7.45,7.45,0,0,0-.61.65,1.77,1.77,0,0,0,.78,1.07A4.68,4.68,0,0,0,103.76,97.4Z"/><path class="cls-1" d="M195.62,52.46s1.22-.87,1.06-1a2.26,2.26,0,0,0-.35-.17.37.37,0,0,1-.11.29,6,6,0,0,1-3.44,1.56A6.28,6.28,0,0,0,195.62,52.46Z"/><path class="cls-1" d="M183.72,53.14a.87.87,0,0,0,.85.74c.07-2,2.38-4.1,4-4.79a19.93,19.93,0,0,1,6.24-1.5,9.16,9.16,0,0,1,2.22,0c1.53.14,3.45.72,3.66,2.44.27,2.23-1.66,3.45-3.4,4.38a15.17,15.17,0,0,1-8.08,2l-.33-.05a16.3,16.3,0,0,0,11.76-2.26,3.38,3.38,0,0,0,.78-5.14,6,6,0,0,0-2.39-1.73h-1.24a32.88,32.88,0,0,0-8.06,1.26C187.82,49,183.34,50.4,183.72,53.14Z"/><path class="cls-1" d="M199.29,51.42c.82-1.27-.17-2.54-1.38-2.94a8.36,8.36,0,0,0-4.41.12c-1.68.38-4.25,1.32-5.61,2.89a7.94,7.94,0,0,1,5-1.64,3.05,3.05,0,0,1,2.57.3,6.42,6.42,0,0,1,1.9.82.39.39,0,0,1,.18.45c-1.12,2.78-5.46,3.2-7.77,1.74l-1.19.58c1,.21,2.26.39,2.47.4C193.6,54.24,197.74,53.8,199.29,51.42Z"/><path class="cls-1" d="M185.69,52.8a2.1,2.1,0,0,0-.27,1.05,7.37,7.37,0,0,0,.81-.17,3,3,0,0,1,.07-.65,5.21,5.21,0,0,1,2.09-2.93A6.34,6.34,0,0,0,185.69,52.8Z"/><path class="cls-1" d="M193.13,51.82a11.11,11.11,0,0,0-1.6.53,8.75,8.75,0,0,0,.89,0c.34,0,3.42-.64,2.84-1.38a.46.46,0,0,0-.07-.07,8.38,8.38,0,0,0-2.5-.2l-.09,0a3.81,3.81,0,0,1,.63.33A.4.4,0,0,1,193.13,51.82Z"/><path class="cls-1" d="M199.6,46.51c.22,0,.45,0,.67,0l.8.09-.38-.2A22.89,22.89,0,0,0,197,45.7a11.48,11.48,0,0,1,2.59.8Z"/><path class="cls-1" d="M194.68,54.77c.27-.09.62-.22,1-.38a18.73,18.73,0,0,1-2.18.39c-1.8.22-4.32.4-6-.57l-.38.14C187.82,56.8,193.16,55.29,194.68,54.77Z"/><path class="cls-1" d="M187.45,53.25a.06.06,0,0,0,0,.06c.66-.24,1.34-.51,2-.79a4.73,4.73,0,0,1-.46-.32.36.36,0,0,1-.08-.43A4.37,4.37,0,0,0,187.45,53.25Z"/><path class="cls-1" d="M227,41.29a10.92,10.92,0,0,0-4,2,2.81,2.81,0,0,0-.39,1.15l0,0c.76-1.46,3-2.1,5-2.47a12.68,12.68,0,0,1,3.51-.75A16.73,16.73,0,0,0,227,41.29Z"/><path class="cls-1" d="M237.08,38.2a24.65,24.65,0,0,1,2.54.53c-1-.34-2-.6-2.86-.82a27.87,27.87,0,0,0-8.54-.72,17.76,17.76,0,0,0-9.13,2.93,21,21,0,0,1,6.06-2A34.89,34.89,0,0,1,237.08,38.2Z"/><path class="cls-1" d="M243.54,45.39a2.36,2.36,0,0,0-.2-.68,5,5,0,0,0-2.87-2.16,11.23,11.23,0,0,0-1.43-.42,5.37,5.37,0,0,1,2.65,4.71,3.11,3.11,0,0,1-.07.44A9.75,9.75,0,0,0,243,46.1,3.74,3.74,0,0,0,243.54,45.39Z"/><path class="cls-1" d="M218.25,47.39c-2.21-2.86,1-5.24,3.48-5.93l.67-.18a16.75,16.75,0,0,1,6.26-2.17,24.92,24.92,0,0,1,11.51,1.4A14.21,14.21,0,0,1,243.34,42a5.29,5.29,0,0,0-1.77-1.57,16,16,0,0,0-5.43-1.5,30.24,30.24,0,0,0-14,.82c-2.3.77-5.17,2.3-5.67,4.89a6.36,6.36,0,0,0,.25,2,6,6,0,0,0,3.29,2.46A7.83,7.83,0,0,1,218.25,47.39Z"/><path class="cls-1" d="M243.59,40.76a4.06,4.06,0,0,1,1,1.57,5.29,5.29,0,0,1,.16.63,4.18,4.18,0,0,1,1.39,2,6.06,6.06,0,0,0-.85-2.33A7.13,7.13,0,0,0,243.59,40.76Z"/><path class="cls-1" d="M243,47.21a10.19,10.19,0,0,1-2.06,1.42l-.23.27c.42-.23.84-.48,1.24-.75A4.55,4.55,0,0,0,243,47.21Z"/><path class="cls-1" d="M244.71,44.43a5.57,5.57,0,0,1,.41,2.62,1.67,1.67,0,0,0,.12-.16,2.13,2.13,0,0,0-.47-2.87A2.7,2.7,0,0,1,244.71,44.43Z"/><path class="cls-1" d="M239.69,51.28a21.6,21.6,0,0,1-10.6.71,15.3,15.3,0,0,1-2.54-.42c-.61-.13-1.23-.27-1.86-.44-1.16-.21-2.32-.47-3.46-.78A10.77,10.77,0,0,1,218,48.91a6.7,6.7,0,0,0,1.38,1.33c2.83,2.07,6.78,2.48,10.17,2.6a30.58,30.58,0,0,0,8.47-.92,13.28,13.28,0,0,0,4-1.61,14.85,14.85,0,0,1-2,.72A.41.41,0,0,1,239.69,51.28Z"/><path class="cls-1" d="M239.44,50.36a11.29,11.29,0,0,0,4.42-2,4.05,4.05,0,0,0,.48-2l0,.15C243.87,48.45,241.45,49.66,239.44,50.36Z"/><path class="cls-1" d="M240.68,45.68a3.61,3.61,0,0,1-1.35,2,7.49,7.49,0,0,1-2.53,1.2l-.1,0a15.06,15.06,0,0,1-1.76.57,14.88,14.88,0,0,0,5.27-1.43A3,3,0,0,0,240.68,45.68Z"/><path class="cls-1" d="M229.09,43.88a3.76,3.76,0,0,1,.85-.43c-.24,0-.49,0-.73,0A.59.59,0,0,0,229.09,43.88Z"/><path class="cls-1" d="M229.37,44.53a1.7,1.7,0,0,0,.24.22,3,3,0,0,1,.54-.65,4.38,4.38,0,0,0-.54.23A.5.5,0,0,0,229.37,44.53Z"/><path class="cls-1" d="M235.32,45.26a.79.79,0,0,0-.46-1,.57.57,0,0,1,0,.18,1.25,1.25,0,0,1-.08,1.5A1.35,1.35,0,0,0,235.32,45.26Z"/><path class="cls-1" d="M228.24,43.62a7.94,7.94,0,0,0-2.41.92l-.2.13c-.08.4.12.81.82,1.22a5,5,0,0,0,3,.37,1.87,1.87,0,0,1-.13-.4l-.18-.12a2.07,2.07,0,0,1-.59-.62,1.55,1.55,0,0,1-.36-1.48Z"/><path class="cls-1" d="M235.73,50.47a14.86,14.86,0,0,0,1.64-.51,20.53,20.53,0,0,1-7.17.3,35.76,35.76,0,0,1-3.59,0,12.45,12.45,0,0,1-2.24-.32,16.28,16.28,0,0,0,4.85.93A27.38,27.38,0,0,0,235.73,50.47Z"/><path class="cls-1" d="M225.33,43.51a6,6,0,0,0-1.76,1c-.82.69-.41,1.27.25,1.67a3.41,3.41,0,0,1,.88-1.75l.27-.27A2.62,2.62,0,0,1,225.33,43.51Z"/><path class="cls-1" d="M230.37,45.13a1.11,1.11,0,0,0,.25,0,4.62,4.62,0,0,0,1.77-.19c1.2-.34.53-.82-.22-1.13l-.37,0h-.14A2.55,2.55,0,0,0,230.37,45.13Z"/><path class="cls-1" d="M234.5,42.29A5.45,5.45,0,0,0,234,42a14.06,14.06,0,0,0-1.59,0c-.29,0-.57.08-.85.12a5.08,5.08,0,0,1,2.86,1.1c1.11.48,2.08,1.38,1.6,2.46C236.87,44.51,235.43,42.91,234.5,42.29Z"/><path class="cls-1" d="M79,112.14c.64-1.14,2.75-1.78,3.83-2.12a12.84,12.84,0,0,0-2.27.73C80.19,110.93,79.11,111.46,79,112.14Z"/><path class="cls-1" d="M117,78.4a3.71,3.71,0,0,1-.62-1.38c-.48-2.11,1.56-3.82,3.24-4.9a7.85,7.85,0,0,1,3-1.6,15.51,15.51,0,0,1,5-1.26,13,13,0,0,1,5,.56,9.87,9.87,0,0,0-2.51-1.31,14,14,0,0,0-7.87-.05c-3,.75-10.64,4.89-6.89,8.88A4.94,4.94,0,0,0,117,78.4Z"/><path class="cls-1" d="M77.87,114.88c-1.29-.48-2.08-1.29-1.3-2.61A6.66,6.66,0,0,1,78.89,110l-.92.18c-2,.43-4.39.91-6,2.21l-.26.23a1.83,1.83,0,0,0,.83,1.74,14.28,14.28,0,0,0,3.43.57C76.58,114.9,77.22,114.9,77.87,114.88Z"/><path class="cls-1" d="M119.37,81.43a.38.38,0,0,1,.3.58c5.7.13,11.83-.13,16.2-4.16,4.79-4.43-2-8.92-5.91-10.29-4.3-1.53-9.1-.41-13,1.65-2.38,1.24-4.38,3.2-4.46,6C112.36,78.86,116.12,81.3,119.37,81.43Zm-4.44-9.31c2-2.87,6.08-4.42,9.45-4.77S134.55,68,135,72a4,4,0,0,1,.14.62c.31,2.82-2.14,4.68-4.68,5.83-.37.22-.73.44-1.09.63a17.65,17.65,0,0,1-9.24,2,.14.14,0,0,1,0-.27,19.24,19.24,0,0,0,7.11-1.28,18.59,18.59,0,0,1-4,.6c-.49.06-1,.11-1.45.13a7,7,0,0,1-3.3-.63,13,13,0,0,1-2.44-.91C113.28,77.34,113.34,74.37,114.93,72.12Z"/><path class="cls-1" d="M90.31,113.41a8.12,8.12,0,0,1-3,1.4A18,18,0,0,0,93,113.54c1.76-.8,2.36-2.55.46-3.59a4.9,4.9,0,0,0-.52-.24c.5.41.61,1,.07,2A4.39,4.39,0,0,1,90.31,113.41Z"/><path class="cls-1" d="M87.49,111.27a9.13,9.13,0,0,0-4.53.59,7.33,7.33,0,0,0-2.59,1.44,11,11,0,0,0,1.39.16c.48,0,1,0,1.45,0a18.64,18.64,0,0,0,2.86-.51C86.86,112.78,89.66,111.76,87.49,111.27Z"/><path class="cls-1" d="M118.9,75.42a2,2,0,0,0,.39.89,7.28,7.28,0,0,0,1.95.42c2,.08,8.22-.52,8.49-3.3a.77.77,0,0,0-.27-.71,4.82,4.82,0,0,0-1.63-.36,9.76,9.76,0,0,0-1.83.27,1.8,1.8,0,0,1,1.49.77c1.22,2-2.14,3-3.47,3.14-1.7.19-3.72-1-2.32-2.75a3.76,3.76,0,0,1,.56-.57l-.33.08a7.82,7.82,0,0,0-3.05,1.3A2.84,2.84,0,0,0,118.9,75.42Z"/><path class="cls-1" d="M130.53,73.57a1.88,1.88,0,0,1-.52,1.17c-1.69,2-4.89,2.5-7.32,2.73a12.57,12.57,0,0,1-1.45.07,9.86,9.86,0,0,0,3.17.32,12.11,12.11,0,0,0,3.31-.68C129,76.75,131.44,75,130.53,73.57Z"/><path class="cls-1" d="M132.61,72c1.14,2-.6,4.22-2.12,5.39-.28.21-.58.41-.88.6a12.72,12.72,0,0,0,2.48-1.37,10.73,10.73,0,0,0,1.75-2.11,3.39,3.39,0,0,0,.58-1.72,3.07,3.07,0,0,0-.91-1.54c-1-1-2.7-1.22-4.26-1.22A4.4,4.4,0,0,1,132.61,72Z"/><path class="cls-1" d="M80.26,114.22a1.63,1.63,0,0,0,.36.3,3,3,0,0,0,.41.17c1-.09,1.93-.22,2.89-.37-.54,0-1.08,0-1.61,0A7.91,7.91,0,0,1,80.26,114.22Z"/><path class="cls-1" d="M128.4,71.6a3.16,3.16,0,0,1,.88.22c2.28.5,2.68,2.63,1.37,4.36a7.64,7.64,0,0,0,.58-.55,2.85,2.85,0,0,0,.16-4c-1.08-1-3-1-4.38-1a16.77,16.77,0,0,0-4.57.75,18.76,18.76,0,0,0-3,1.75l-.11.16a15.71,15.71,0,0,1,2-.71,24.4,24.4,0,0,1,4.44-.86A10.61,10.61,0,0,1,128.4,71.6Z"/><path class="cls-1" d="M244,38.16c-6.81-3.78-15.39-3-22.49-.7-4.08,1.34-9,4.24-7.74,9.31,1,4.23,5.45,6.7,9.34,7.59a56.71,56.71,0,0,0,10.16,1.1c2.85.13,7.14.41,9.37-1.71a.16.16,0,0,1,.22.22,3.47,3.47,0,0,1-.29.25c3.11-1.18,5.73-3.44,6.46-6.84C249.88,43.43,247.24,40,244,38.16Zm2.27,10c-2,5.32-9.94,6.14-14.74,5.94-.11,0-.11-.18,0-.18a21.79,21.79,0,0,0,10.61-2.19,7.42,7.42,0,0,0,4-5.29,4.71,4.71,0,0,1-1.34,2.06c-1.71,4.1-9,4.85-12.64,5.07-5.26.33-13.13-.29-15.8-5.66s2.58-9.4,7.25-10.7a27.39,27.39,0,0,1,15.58.66C243.73,39.38,248.25,42.88,246.26,48.19Z"/><path class="cls-1" d="M90.36,115.13a32,32,0,0,1-7.81.56,7.62,7.62,0,0,1-1.15-.17l-.4,0a36.3,36.3,0,0,1-5.67.27,25.94,25.94,0,0,0,6.21.69,28.47,28.47,0,0,0,7.7-.67,16.15,16.15,0,0,0,3.86-1.44A13.13,13.13,0,0,1,90.36,115.13Z"/><path class="cls-1" d="M78.11,112a2.49,2.49,0,0,1,.51-.86,6,6,0,0,0-.5.38c-2.08,1.76-.14,2.69,1.4,3a1.08,1.08,0,0,1-.21-.77C78.65,113.48,77.85,112.75,78.11,112Z"/><path class="cls-1" d="M289.13,57.6a49.7,49.7,0,0,0-15.65-13.88.19.19,0,0,1-.15-.09c-.92-.53-1.85-1-2.79-1.51-.35-.18-.7-.34-1.06-.51l0,.06,0,0a4.61,4.61,0,0,0,1.43,1.55,5.13,5.13,0,0,0,2.38.72.16.16,0,1,1,0,.32c-1.42.18-3.86-.58-4.34-2.14a.45.45,0,0,1-.4-.65l.15-.28c-15.31-7.22-33.16-8.49-49.83-8.11a182.06,182.06,0,0,0-60,12,204.86,204.86,0,0,0-54,30.72c-11.24,8.83-21,20.21-34.46,25.85-5.76,2.41-12.79,3.61-17.89-.88-2.55-2.25-3.92-5.59-5.27-8.62A29.75,29.75,0,0,0,41.59,83c-9.72-9.87-30.5-13.33-38.07.75A20,20,0,0,0,4,104.38c3.7,5.87,9.84,10,16,13a.45.45,0,0,1,.09.7c-5,4.61-11.25,9.13-11.57,16.55a27.16,27.16,0,0,0,3.26,13.08,24.61,24.61,0,0,0,8.71,9.35c7.76,4.91,17.14,4.43,25,.1,3.12-1.72,5.94-3.92,9.28-5.21,4.24-1.65,8.92-1.26,13.33-.8,21.24,2.23,40.61,12.4,60.73,18.78,21.41,6.79,44.55,8.3,66.89,8.08,11.4-.11,22.79-.82,34.13-1.88,5.63-.53,11.25-1.16,16.85-1.85,5.24-.65,10.38-1.24,15.33-3.17,14.12-5.5,25.5-19.36,28.46-34.23.39-2,.84-5.29-1.4-6.37a.34.34,0,0,1-.21-.34c-.51.76-1,1.52-1.56,2.25-.16.22-.53,0-.37-.22.05-.06.09-.13.14-.2-6.08,4.12-13.64,5.11-20.85,5.36-8.2.29-16.38-.65-24.57-.65a.4.4,0,0,1,0-.79c7.67,0,15.31.86,23,.79,7.87-.07,16.53-.92,23.11-5.66h0c4.69-6.81,7.59-14.73,9.41-22.77A76.16,76.16,0,0,0,298.44,81,53.38,53.38,0,0,0,289.13,57.6Zm-22.4-16.23c.4,3.08,5.16,3.91,7.65,3.72a.14.14,0,0,1,0,.28c-2.73.78-8.21-.52-8.39-4C266,40.91,266.67,40.94,266.73,41.37Zm-2.22-.92c.86,4.44,6.73,8.09,11.15,6.72.17-.05.28.22.12.29-2.46,1.12-5,.12-7.33-1a8,8,0,0,1-4.65-5.85C263.72,40.19,264.42,40,264.51,40.45Zm-2.1,0c1.54,2.89,3,5.75,6,7.46,2.62,1.53,6.1,2.08,8.76.42.22-.13.48.19.28.35-2.39,2-5.82,1.38-8.46.28-3.62-1.5-5.48-4.81-7.24-8.1C261.47,40.43,262.16,40,262.41,40.48Zm-86.76,13c.59-5.62,6.11-8.78,11-10.35a32.13,32.13,0,0,1,14.79-1.26c5.21,0,9.59,3,10.21,8.53.67,6-3.48,11.17-8.49,13.82a26,26,0,0,1-18.6,2A12,12,0,0,1,175.65,53.48Zm-32.2,2.86c3.36-4.35,9.72-5.17,14.81-4.25a15.73,15.73,0,0,1,8.34,4.21c2,2.05,2.86,5.34.78,7.63-4.66,5.16-13.33,4.89-19.76,3.94C141.72,67.78,140.23,60.51,143.45,56.34ZM113.74,70.62c3.63-3.78,10.68-5.34,15.64-4,3.58,1,10.67,4.8,8.41,9.61-1.42,3-4.88,4.68-7.93,5.5-4,1.07-8.21.53-12.31.48-.19,0-.19-.31,0-.3h.17C112.65,80.77,109.63,74.89,113.74,70.62ZM39.31,154.93c-6.78,1.4-13.65-.37-18.42-5.53a18.93,18.93,0,0,1-3.18-20c3.77-8.49,13.44-9.89,21.4-12a.44.44,0,0,1,.24.85c-7.49,2-15.84,3.09-20.24,10.3-3.71,6.07-2.36,14.55,2,19.89s11.08,6.94,17.55,5.83c5.59-.95,12.47-3.79,14.33-9.68a.23.23,0,0,1,.45.12C51.73,150.79,45,153.76,39.31,154.93ZM22,140.44c1.54,6.05,8.45,8.67,14.07,8.86,6.38.21,13.62-3.9,17-9.28a.2.2,0,0,1,.35.2,21,21,0,0,1-16.89,9.87c-5.81.1-12.32-2.5-14.83-8.05S22,131,26.22,127.43c4.54-3.79,10.65-6,16.44-6.91.55-.09.78.75.23.83C33.89,122.77,19.06,128.86,22,140.44Zm20.42,2.29a12.52,12.52,0,0,1-12.49-2.91c-3.49-3.58-2.53-9.12.75-12.42a15.24,15.24,0,0,1,6.52-3.6c2.58-.77,5.48-1.42,8-.32.51.21.07,1-.43.74-2.34-1-5.06-.27-7.4.4a15.39,15.39,0,0,0-5.8,3,8.12,8.12,0,0,0-.84,11.88c2.75,2.84,7.38,3.49,11.07,2.59,4-1,9.09-4.43,9.07-8.92a.21.21,0,0,1,.42,0C51.5,138,46.45,141.39,42.43,142.73Zm-4.69-6.5c3.6,1.17,8.27-1.77,8.17-5.66,0-.29.44-.29.46,0,.26,4.78-5.63,7.87-9.73,6-2.22-1-3-3.91-2.33-6.09.87-2.78,4.71-3.11,7.1-3.26.55,0,.55.82,0,.85-2.16.13-5,.3-6.22,2.38S35.58,135.53,37.74,136.23Zm11.72-30.78c-6.85-2.39-9.88-8.84-13.91-14.31-3.85-5.21-10.22-9.74-17-9.21-8.68.66-8.7,11.84-6,17.79a14.91,14.91,0,0,0,8.44,8c4.88,1.8,10.38.61,15.33-.2.52-.09.74.7.22.79-4.82.82-9.72,1.69-14.56.55a14.78,14.78,0,0,1-8.74-6.3c-3.72-5.39-5-14.47.33-19.33C18.28,78.91,26,82,30.42,85.09c6.41,4.48,8.65,12.46,14.5,17.42a15.3,15.3,0,0,0,4.63,2.63C49.74,105.21,49.66,105.52,49.46,105.45ZM22.19,99.23c2.6,1.19,5.54,1.57,8.32,2.13.51.1.3.88-.21.77-3.36-.69-6.84-1.19-9.86-2.93-2.55-1.48-4.54-4.91-3.2-7.87,1.23-2.74,4.76-1.86,6.93-.9,4.61,2,6.52,6.34,9.72,9.93.13.16-.08.38-.23.23-2.77-2.82-4.51-6.61-8-8.7-2-1.21-6.85-3.27-7.88.06S19.42,98,22.19,99.23Zm8.64-7.16a13.87,13.87,0,0,0-7.62-5.38,7.63,7.63,0,0,0-8.29,3.15c-1.61,2.58-1.31,6.39,0,9,1.23,2.43,3.67,3.93,6.15,4.85,4.76,1.78,10.24,1.71,15.23,1.18.53,0,.52.77,0,.83-5.41.57-11.51.62-16.57-1.65-5.24-2.34-8.08-7.82-6.09-13.43,2.1-5.95,9.68-5.79,14-2.63,6.15,4.47,7.94,13.22,15.5,16,.2.08.12.39-.09.33C37.18,102.41,34.45,96.65,30.83,92.07Zm24.09,13.35C48.08,104.1,44.65,97.55,41.5,92c-1.77-3.1-3.57-6.25-6.19-8.72a20.51,20.51,0,0,0-9.89-4.76C17.78,77,9.8,80.22,7.38,88c-2.48,8,1.1,17.81,8.23,22.23,6.63,4.09,14.85,2.52,22,1.36.54-.09.77.74.23.83-9.13,1.47-19.32,2.88-26.4-4.46A21.35,21.35,0,0,1,6.74,87.36c2-6.44,8.16-9.86,14.63-10a21.09,21.09,0,0,1,16.87,8.13C43.3,92.17,45.84,103,55,105.17,55.16,105.21,55.09,105.46,54.92,105.42ZM64,146.52a10.45,10.45,0,0,1-7-5.82c-1.14-2.49.32-3.81,2.43-4-3-2.54-3.11-6.89.64-8.79-3.68-2.9-5.36-8.53-1-11.43-2.91-2.57-3.81-7.89.18-9.93a.19.19,0,0,1,.19.32c-3.45,2.26-2.65,7.14.46,9.34a.38.38,0,0,1,0,.64c-4.6,2.73-2.64,8.28,1.1,10.79a.4.4,0,0,1-.09.73c-4.25,1.65-3.59,6.3-.09,8.36a.41.41,0,0,1-.2.76c-1-.08-2.71-.19-3.19,1-.38.95.34,2.16.82,2.94a9.47,9.47,0,0,0,5.93,4.35C64.77,145.83,64.55,146.61,64,146.52Zm36.67-33.25C99.08,117,94.65,118.4,91,119c-3.26.55-6.6.61-9.89,1-.17,0-.25-.17-.21-.31-4.83-.15-13-1.33-13.41-7-.39-5.12,7.6-6.82,11.24-7.62,5.49-1.21,12.36-2.44,17.65-.12C99.27,106.16,102.15,110,100.71,113.27Zm25.34,5.15c-.47,2.65-3.77,4.38-6,5.15-3.27,1.12-6.94.81-10.29.3-.12,0-.14-.16-.1-.26a9.27,9.27,0,0,1-4.67-2.93,4,4,0,0,1-.34-5.28c2.69-3.1,8.5-4.18,12.42-3.76C120.34,112,126.82,114,126.05,118.42ZM129,94.61c-.69,3.27-4.34,5.33-7.19,6.38-3.39,1.25-7,1.55-10.48,2.59a.32.32,0,0,1-.24.17l-.54.08-.3.1a.15.15,0,0,1-.16,0,18.06,18.06,0,0,1-9.37-1.36c-3.05-1.3-6.43-4.33-6.43-7.88,0-3.27,4.55-5.36,7-6.4a43.28,43.28,0,0,1,11.47-3.18c4.17-.53,8.44-.32,12.17,1.79C127.64,88.42,129.64,91.38,129,94.61Zm25.68,12.07c-.6,2.85-4.51,4.41-6.95,5.09-4.72,1.33-11.26,1.8-15.46-1.22a5.91,5.91,0,0,1-2.4-5.46,5.55,5.55,0,0,1,5.67-4.75.38.38,0,0,1,0,.75,4.85,4.85,0,0,0-4.65,3.1c1.82-1.94,6.4-3.2,8.05-3.41,3.15-.41,6.76-.51,9.55,1.26a4.77,4.77,0,0,1,1.13,1l.27.16a3.29,3.29,0,0,1,.56,4.83c-1.5,1.72-4,2.2-6.14,2.45-3.91.46-9.81.27-13-2.47a6.11,6.11,0,0,1-.51-.51,6.38,6.38,0,0,0,4,3.65c3.78,1.47,8.31,1,12.17.14,2.66-.58,6-2,7-4.76,1.2-3.27-3.16-5.78-5.61-6.64a21.73,21.73,0,0,0-15.58,1c-.18.09-.34-.18-.16-.27,5.47-2.65,12.7-3.15,18.19-.29C153.22,101.5,155.21,103.94,154.64,106.68Zm-12.84-18a7.09,7.09,0,0,1-.77-8.42c2.19-3.6,6.9-5,10.82-5.5a35.8,35.8,0,0,1,3.59-.16.34.34,0,0,1,.36.31c4.06,0,8.48.4,11,3.41,1.63,2,1.41,5,.46,7.19a12.5,12.5,0,0,1-6.86,6.35C154.31,94.51,146.28,94,141.8,88.66Zm38.81,17.26a16.48,16.48,0,0,1-7.8,1.82.4.4,0,0,1-.27.12c-3.14.15-9,.13-10.31-3.47-.7-1.92.88-4.08,2.22-5.26a15.31,15.31,0,0,1,7-3c4.23-.88,11.52-1,13.5,3.87C186.09,102.7,182.53,104.91,180.61,105.92Zm7-17.61h0c-3.85-.29-9.55-1.92-8.6-6.62.44-2.16,2.92-3.45,4.74-4.23a24.88,24.88,0,0,1,7-1.75,17,17,0,0,1,9.2,1.4c2.54,1.2,5,3.79,4.38,6.78-.57,2.79-4.49,4.09-6.85,4.6A24.84,24.84,0,0,1,187.61,88.31ZM225.28,101c-2,2.72-6.58,3.45-9.62,4a37.52,37.52,0,0,1-10.37.44h0c-3.77.24-11.74-.74-11.42-6,.2-3.08,3.36-5,5.9-6.09a29.14,29.14,0,0,1,13.47-2.12C217.17,91.52,230.05,94.43,225.28,101Zm6.2-27.83c-5,2.27-11.64,3-16.9,1.41-2.51-.77-4.92-2.53-5.61-5.17s1.75-4.77,4-5.53a.33.33,0,0,1,.24,0,20.33,20.33,0,0,1,17.29-2.66c2.59.82,5.35,2.84,5.69,5.75C236.58,70.13,234.06,72,231.48,73.18Zm10.89,12.19a1.45,1.45,0,0,1,0-2.89,1.45,1.45,0,1,1,0,2.89Zm4.26-32.66a12.51,12.51,0,0,1-4.94,2.6.35.35,0,0,1-.45-.26c-2.16,1-5,.92-7.17.91a55,55,0,0,1-11.66-1.18c-3.68-.83-7.38-3.23-8.87-6.84s.34-7.07,3.5-9.21c3.85-2.61,9.38-3.54,13.93-3.86a27,27,0,0,1,11.56,1.85c3.31,1.29,5.85,3.43,6.95,6.87A8.78,8.78,0,0,1,246.63,52.71ZM279,50.63c-4.4.83-8.88,1.07-12.74-1.52-3.06-2-4.65-5.44-5.8-8.8-.05-.15.18-.21.23-.07a17.12,17.12,0,0,0,5.9,8.3c3.68,2.64,8,2,12.21,1.39C279.28,49.87,279.49,50.54,279,50.63Z"/><path class="cls-1" d="M85.83,109a10.16,10.16,0,0,1,1.25.15l.24,0a21,21,0,0,1,2.22-.15l-.43,0A21.13,21.13,0,0,0,85.83,109Z"/><path class="cls-1" d="M92,110.08a5.8,5.8,0,0,0-3.37-.53A3.37,3.37,0,0,1,91,111.47a1.75,1.75,0,0,1,0,.71C92,111.72,93.21,110.79,92,110.08Z"/><path class="cls-2" d="M330.28,11.38a8.4,8.4,0,0,0-8.51-.74A7.84,7.84,0,0,0,318.14,14,21.37,21.37,0,0,0,316.81,19a44.13,44.13,0,0,0-29.32,1.87c-8.76,3.69-14.08,11.53-18.42,19.64-15.52-7.17-33.31-8.65-50.2-8.2-40.56,1.06-79.92,16.38-112,41C95.11,82.32,85,94.14,71.33,100.4c-6.5,3-15.24,4.62-20-2.24-2.05-3-3.19-6.4-4.83-9.59a23.57,23.57,0,0,0-6.11-7.73c-9.56-7.76-27-11.4-35.76-.42-4.81,6.07-6.18,14.93-2.73,21.94s10.17,12,17.07,15.5c-3,2.72-6.3,5.36-8.63,8.7a15.2,15.2,0,0,0-2.63,10.66c.92,7.95,4.71,15.58,11.5,20.08A24.74,24.74,0,0,0,41.47,160c3.68-1.4,6.82-3.67,10.22-5.61a21.56,21.56,0,0,1,12.62-2.69c10.81.7,21.3,3.64,31.49,7.2s20.12,7.73,30.36,11.09a169,169,0,0,0,31.47,6.83c22.59,2.86,45.48,2.5,68.13.54q8.46-.73,16.9-1.74c5.08-.6,10.4-.9,15.35-2.27a46.8,46.8,0,0,0,22.49-14.73A50,50,0,0,0,289.58,143c1.16-3.12,4.34-11.13-.06-13.26a.39.39,0,0,0-.38,0,67.65,67.65,0,0,0,9.29-24.5c1.75-9.58,2.1-19.73-.19-29.26a51.78,51.78,0,0,0-24.45-33c.11-.43.22-.85.34-1.27a.26.26,0,0,0,.19-.23c0-.11,0-.22,0-.33,5.27-16.12,26.61-22.91,42-18.79-.56,3.52.34,7.57,4.67,7.58,4,0,8-2.6,10.28-5.78C333.93,20.45,334.46,14.38,330.28,11.38ZM289.13,57.6A53.38,53.38,0,0,1,298.44,81a76.16,76.16,0,0,1-1.27,27.25c-1.82,8-4.72,16-9.41,22.77h0c-6.58,4.74-15.24,5.59-23.11,5.66-7.67.07-15.31-.75-23-.79a.4.4,0,0,0,0,.79c8.19,0,16.37.94,24.57.65,7.21-.25,14.77-1.24,20.85-5.36-.05.07-.09.14-.14.2-.16.23.21.44.37.22.54-.73,1.05-1.49,1.56-2.25a.34.34,0,0,0,.21.34c2.24,1.08,1.79,4.38,1.4,6.37-3,14.87-14.34,28.73-28.46,34.23-4.95,1.93-10.09,2.52-15.33,3.17-5.6.69-11.22,1.32-16.85,1.85-11.34,1.06-22.73,1.77-34.13,1.88-22.34.22-45.48-1.29-66.89-8.08-20.12-6.38-39.49-16.55-60.73-18.78-4.41-.46-9.09-.85-13.33.8-3.34,1.29-6.16,3.49-9.28,5.21-7.85,4.33-17.23,4.81-25-.1a24.61,24.61,0,0,1-8.71-9.35,27.16,27.16,0,0,1-3.26-13.08c.32-7.42,6.54-11.94,11.57-16.55a.45.45,0,0,0-.09-.7c-6.11-3-12.25-7.12-15.95-13a20,20,0,0,1-.52-20.59C11.09,69.71,31.87,73.17,41.59,83a29.75,29.75,0,0,1,5.71,9.14c1.35,3,2.72,6.37,5.27,8.62,5.1,4.49,12.13,3.29,17.89.88,13.46-5.64,23.22-17,34.46-25.85a204.86,204.86,0,0,1,54-30.72,182.06,182.06,0,0,1,60-12c16.67-.38,34.52.89,49.83,8.11l-.15.28a.45.45,0,0,0,.4.65c.48,1.56,2.92,2.32,4.34,2.14a.16.16,0,1,0,0-.32,5.13,5.13,0,0,1-2.38-.72,4.61,4.61,0,0,1-1.43-1.55l0,0,0-.06c.36.17.71.33,1.06.51.94.48,1.87,1,2.79,1.51a.19.19,0,0,0,.15.09A49.7,49.7,0,0,1,289.13,57.6Zm41-33.2c-2.14,2.49-5.49,4.77-8.9,4.76-4,0-4.68-3.65-4.06-7a.41.41,0,0,0-.27-.5c-.71-.19-1.44-.36-2.18-.51a.25.25,0,0,0,0-.08,4.64,4.64,0,0,0-1.75-1.71c-.15-.11-.35.14-.2.27a8.65,8.65,0,0,1,.89.82,5.56,5.56,0,0,1,.42.57c-.84-.16-1.71-.28-2.58-.38a.24.24,0,0,0,.11-.4,8.2,8.2,0,0,0-1.31-1c-.18-.11-.4.17-.23.3a15.37,15.37,0,0,1,1.19,1.09l0,0c-.33,0-.66-.07-1-.09a.28.28,0,0,0,0-.15,6.16,6.16,0,0,0-1.05-1c-.22-.2-.55.12-.33.32s.54.52.81.78l-1-.06a.17.17,0,0,0-.06-.17c-.37-.33-.77-.63-1.16-.92-.19-.15-.38.18-.19.33s.58.5.86.75c-.74,0-1.48,0-2.23,0a.21.21,0,0,0,0-.33l-1.08-.77c-.13-.09-.3.13-.17.23.34.28.68.55,1,.86l0,0-1,.05a.25.25,0,0,0,0-.34,8.69,8.69,0,0,0-1.24-1c-.21-.15-.49.2-.28.37.4.32.78.67,1.17,1h0l-.75.05a.23.23,0,0,0-.07-.3,13.52,13.52,0,0,0-1.3-.82.18.18,0,0,0-.18.31,8.12,8.12,0,0,1,1.17.85l-.79.08-.06-.09a8.85,8.85,0,0,0-1.48-1c-.26-.16-.49.25-.24.41s.73.51,1.09.78l-.87.12a.24.24,0,0,0-.06-.09,5.26,5.26,0,0,0-1.62-1.15c-.1,0-.22.08-.13.17A15.35,15.35,0,0,1,300.3,21l-1.06.19s0,0,0-.06a10.14,10.14,0,0,0-.91-.71c-.09-.07-.2.08-.11.15.26.21.5.45.76.68-.78.15-1.56.32-2.33.51h0L295.55,21c-.14-.11-.27.12-.14.23a10,10,0,0,1,.8.66,40,40,0,0,0-8.94,3.5,3.77,3.77,0,0,0-.64-.47c-.24-.15-.46.23-.22.38s.3.21.45.32a28.59,28.59,0,0,0-10.3,9.45c0-.27,0-.55,0-.82a.22.22,0,0,0-.43,0c0,.51,0,1,0,1.52l-.17.31c0-.31-.07-.62-.11-.93s-.42-.14-.38.11a11,11,0,0,1,.1,1.52l-.16.3c0-.35-.1-.7-.15-1.05,0-.17-.32-.13-.3,0a9.25,9.25,0,0,1,.08,1.82c-.08.17-.17.35-.24.52a9.26,9.26,0,0,0-.25-1,.22.22,0,0,0-.43.12,17.64,17.64,0,0,1,.3,1.91c-.09.23-.18.46-.26.69-.17-.77-.45-1.53-.67-2.26a.21.21,0,0,0-.4.11c.29,1.15.51,2.28.69,3.44-.13.48-.24,1-.34,1.46-.65-.38-1.3-.75-2-1.1a.17.17,0,0,0,.05-.12,4.9,4.9,0,0,1,.05-.77c0-.24-.31-.34-.36-.1s-.09.53-.12.8l-1.22-.61c4.47-8.24,9.8-16.08,18.89-19.62A43.63,43.63,0,0,1,317,19.94a.42.42,0,0,0,.51-.29c.76-3.58,1.33-7.33,5.36-8.6,2.91-.91,6.61-.33,8.36,2.45A9.13,9.13,0,0,1,330.1,24.4Z"/><path class="cls-2" d="M242.37,82.48a1.45,1.45,0,1,0,1.45,1.45A1.46,1.46,0,0,0,242.37,82.48Z"/><path class="cls-2" d="M184.52,66.26a26,26,0,0,0,18.6-2c5-2.65,9.16-7.86,8.49-13.82-.62-5.54-5-8.57-10.21-8.53a32.13,32.13,0,0,0-14.79,1.26c-4.85,1.57-10.37,4.73-11,10.35A12,12,0,0,0,184.52,66.26Zm19.19-23.05a.4.4,0,0,0,.42-.63,8.19,8.19,0,0,1,5.72,4,11,11,0,0,1,.1,9.83c-3,6.41-10.21,9.36-16.92,9.87-6.88.52-14.65-1.45-16.36-9.07C173.65,43.71,194.66,40.62,203.71,43.21Z"/><path class="cls-2" d="M146.54,79.14l-.31.22a5.5,5.5,0,0,0-2.32,2.5,3.55,3.55,0,0,0-.23.92,4.1,4.1,0,0,0-.12,2,7.09,7.09,0,0,0,4.17,4.64c3.5,1.64,7.88,1.75,10.91-.42a11.5,11.5,0,0,0,3.42-2c2.31-2,3-5.23.8-7.66C159.05,75.17,150.8,76.19,146.54,79.14Zm-2,3.5a6.06,6.06,0,0,1,1.67-2.35,4.38,4.38,0,0,1,.42-.28,14.15,14.15,0,0,1,7.3-1.93c2.22,0,5.26.37,6.65,2.38a4.05,4.05,0,0,1,.75,2.15,4.52,4.52,0,0,0-2.08-1.85c-1.68-1.63-5.27-1.88-7.51-1.29a8.73,8.73,0,0,0-3.09,1.45c-1.36.82-2.61,2.09-2,3.65a3,3,0,0,0,.44.78,3.27,3.27,0,0,0,1.38,2.21,6,6,0,0,1-3.1-1.91A3.4,3.4,0,0,1,144.56,82.64ZM150,83a1.84,1.84,0,0,0-.21.71,1.94,1.94,0,0,0,.69,1.75,2.88,2.88,0,0,0-.27.34,2,2,0,0,1-.3-.14C148.27,84.64,148.88,83.67,150,83Zm-.1,4.4-.36-.13a2.8,2.8,0,0,1-1.12-.86,6,6,0,0,0,1.45.47A2.18,2.18,0,0,0,149.87,87.37Zm-.65-4.91a2.22,2.22,0,0,0-.26,3.38,3.34,3.34,0,0,1-1-.64l-.19-.2a3.67,3.67,0,0,1,.06-1.47A3.74,3.74,0,0,1,149,81.71a13.24,13.24,0,0,1,5.34-1.43,10.52,10.52,0,0,1,4.62,1.23,2.4,2.4,0,0,1,.19,2.77l.1-.27c.74-2.33-2.56-3-4.09-3l-.93.06A8.59,8.59,0,0,0,149.22,82.46Zm4.23-.54.81-.12c1.29,0,2.67.15,3.33,1.19a1.69,1.69,0,0,1,.1,1.73,4.18,4.18,0,0,1-1,.61,1.65,1.65,0,0,0-.11-2.4c-1.11-1.24-3.26-.42-4.42.7l-.16.11a.31.31,0,0,0-.16.25,3.14,3.14,0,0,0-.32.49.41.41,0,0,0,0,.19,4.27,4.27,0,0,0-.51.3,1.12,1.12,0,0,1-.5-1C150.61,82.61,152.36,82.1,153.45,81.92Zm-.49,2.9a4.84,4.84,0,0,1,1.5-.2l-.08.08-.14.12a2.55,2.55,0,0,1-.84.15Zm0,.74-.17.07h0a6,6,0,0,1-1.09-.27,2.69,2.69,0,0,1,.29-.16A2.89,2.89,0,0,0,153,85.56Zm-.42-1.33c.78-.39,2.17-.67,2.27-.25A6.76,6.76,0,0,0,152.58,84.23Zm2.31,1a3.51,3.51,0,0,0,.79-.57.33.33,0,0,0-.11-.54c0-.11.07-.22.1-.33a.37.37,0,0,0-.17-.41,3.82,3.82,0,0,0-.64-.27h.26c.93.07,1.87,1.25.94,2.05a2.9,2.9,0,0,1-1.78.58A3.75,3.75,0,0,0,154.89,85.22ZM150.48,87a11.66,11.66,0,0,0,2.78,0,22.86,22.86,0,0,0,2.36-.4,8.42,8.42,0,0,1-5,1A.82.82,0,0,1,150.48,87Zm9.37-2.38a4.24,4.24,0,0,0,.32-2,2.72,2.72,0,0,1,.56,2.31,8.21,8.21,0,0,1-4.32,3.25,10,10,0,0,1-2.42.54C156.62,88.18,159,86.88,159.85,84.58Zm-3.22,4.69a15.42,15.42,0,0,1-3.73.6.13.13,0,0,0-.09,0c-.26,0-.52,0-.78,0-2.34-.27-5.2-1.23-6.75-3.19l.25.23a9.78,9.78,0,0,0,5.63,1.9,6.46,6.46,0,0,0,3.43.47,11.47,11.47,0,0,0,4.57-1.74A7.37,7.37,0,0,1,156.63,89.27Zm5.6-3.09a10.84,10.84,0,0,1-2.36,1.74,8.3,8.3,0,0,0,1.3-1.92,6.15,6.15,0,0,0,.33-.85c.1-.17.19-.34.28-.52a4.75,4.75,0,0,0-1-5.16,8.8,8.8,0,0,0-5.38-2.17,12.56,12.56,0,0,1,3.49.43C162.47,78.76,165.56,82.92,162.23,86.18Z"/><path class="cls-2" d="M167.25,85.49c.95-2.21,1.17-5.23-.46-7.19-2.51-3-6.93-3.45-11-3.41a.34.34,0,0,0-.36-.31,35.8,35.8,0,0,0-3.59.16c-3.92.45-8.63,1.9-10.82,5.5a7.09,7.09,0,0,0,.77,8.42c4.48,5.35,12.51,5.85,18.59,3.18A12.5,12.5,0,0,0,167.25,85.49ZM160.4,91c-5.59,2.43-13.52,2.53-17.8-2.51-2.63-3.1-2.59-7.15.74-9.78,3.52-2.77,7.74-3.37,12.1-3.39a.35.35,0,0,0,.18,0c.93.06,1.85.13,2.77.24,2.39.29,5.26.7,7.13,2.37C170.45,82.28,164.86,89.08,160.4,91Z"/><path class="cls-2" d="M201.16,62.54c2.94-1.48,6.25-3.93,7.17-7.27a6.35,6.35,0,0,0-.9-5.35A5.43,5.43,0,0,0,206,45.83c-2.4-2.63-6.37-3.3-9.77-3.2a22.71,22.71,0,0,0-8.41,1.66,13.36,13.36,0,0,0-7.51,4.46,8,8,0,0,0-1.11,1.9l-.09.13a8.31,8.31,0,0,0-1.88,2.45c-2.37,4.87,2.5,8.76,6.61,10.11C189.3,65.12,196,65.15,201.16,62.54Zm-4.91-19.31c3.24.05,8.29.56,9.87,4A6.46,6.46,0,0,0,205,46c-2.18-1.87-5.33-2.37-8.12-2.35l-1.3,0a26.29,26.29,0,0,0-4.34,0A23.13,23.13,0,0,1,196.25,43.23Zm-3.62,17.88a13.28,13.28,0,0,1-5.07-.93,20.8,20.8,0,0,0,6.1,0,23.58,23.58,0,0,0,5.41-1.36A10.6,10.6,0,0,1,192.63,61.11Zm2.39.41c-4.16,1-9.07.93-12.47-1.68a9,9,0,0,1-1.32-1.3,13.94,13.94,0,0,0,4.08,1.24,10.76,10.76,0,0,0,3.95,1.78A13.16,13.16,0,0,0,195,61.52Zm6.43-3.83.6-.38A15.39,15.39,0,0,0,203.93,56l-.45.56a14,14,0,0,1-6.24,4.32c-.66.23-1.36.43-2.08.61A11.88,11.88,0,0,0,201.45,57.69Zm-3.62-10.48h1.24a6,6,0,0,1,2.39,1.73,3.38,3.38,0,0,1-.78,5.14,16.3,16.3,0,0,1-11.76,2.26l.33.05a15.17,15.17,0,0,0,8.08-2c1.74-.93,3.67-2.15,3.4-4.38-.21-1.72-2.13-2.3-3.66-2.44a9.16,9.16,0,0,0-2.22,0,19.93,19.93,0,0,0-6.24,1.5c-1.66.69-4,2.83-4,4.79a.87.87,0,0,1-.85-.74c-.38-2.74,4.1-4.13,6.05-4.67A32.88,32.88,0,0,1,197.83,47.21ZM197,45.7a22.89,22.89,0,0,1,3.72.73l.38.2-.8-.09c-.22,0-.45,0-.67,0h0A11.48,11.48,0,0,0,197,45.7Zm-8,6.5a4.73,4.73,0,0,0,.46.32c-.65.28-1.33.55-2,.79a.06.06,0,0,1,0-.06,4.37,4.37,0,0,1,1.45-1.48A.36.36,0,0,0,189,52.2Zm-1.52,2c1.73,1,4.25.79,6,.57a18.73,18.73,0,0,0,2.18-.39c-.39.16-.74.29-1,.38-1.52.52-6.86,2-7.6-.42Zm3.58-.07c-.21,0-1.5-.19-2.47-.4l1.19-.58c2.31,1.46,6.65,1,7.77-1.74a.39.39,0,0,0-.18-.45,6.42,6.42,0,0,0-1.9-.82,3.05,3.05,0,0,0-2.57-.3,7.94,7.94,0,0,0-5,1.64c1.36-1.57,3.93-2.51,5.61-2.89a8.36,8.36,0,0,1,4.41-.12c1.21.4,2.2,1.67,1.38,2.94C197.74,53.8,193.6,54.24,191,54.14Zm2.19-3a3.81,3.81,0,0,0-.63-.33l.09,0a8.38,8.38,0,0,1,2.5.2.46.46,0,0,1,.07.07c.58.74-2.5,1.36-2.84,1.38a8.75,8.75,0,0,1-.89,0,11.11,11.11,0,0,1,1.6-.53A.4.4,0,0,0,193.23,51.09Zm3,.51a.37.37,0,0,0,.11-.29,2.26,2.26,0,0,1,.35.17c.16.11-1.09,1-1.06,1a6.28,6.28,0,0,1-2.84.7A6,6,0,0,0,196.22,51.6ZM186.3,53a3,3,0,0,0-.07.65,7.37,7.37,0,0,1-.81.17,2.1,2.1,0,0,1,.27-1.05,6.34,6.34,0,0,1,2.7-2.7A5.21,5.21,0,0,0,186.3,53Zm.1,1.52a3.1,3.1,0,0,0,2.12,1.7c-.2,0-.42-.08-.61-.14a3.85,3.85,0,0,1-2.26-1.45A5.18,5.18,0,0,0,186.4,54.55Zm-1.73.07a2.74,2.74,0,0,0,1.17,1.47c3.13,2.08,8.24,1.43,11.61.38,2.91-.91,7.09-3.25,5.32-6.94a5.66,5.66,0,0,0-.9-1.33,10.32,10.32,0,0,1,1,.6,7,7,0,0,1,.14,4,10.85,10.85,0,0,1-3.84,3.38c-3.57,1.81-8.83,3-12.57,1a7.4,7.4,0,0,1-2.92-2.9A2.26,2.26,0,0,0,184.67,54.62Zm19.2.2a10,10,0,0,1-.85.87l-.33.22a11.38,11.38,0,0,0,1.11-2.78s0-.06,0-.09a8,8,0,0,0,1.13-3.36.3.3,0,0,0,0-.13,5,5,0,0,0,0-.67C206.48,50.55,205.18,53.29,203.87,54.82Zm-.44-6.91a3.7,3.7,0,0,1,.4.17,4.05,4.05,0,0,1,.2.55l-.4-.28A3.49,3.49,0,0,0,203.43,47.91Zm1.72-.24c-.29-.19-.59-.38-.9-.55l-.17-.24A6.8,6.8,0,0,0,202,45.22l.18.06a7.59,7.59,0,0,1,3.66,2.92C205.63,48,205.39,47.84,205.15,47.67Zm-11.77-3c.7-.08,1.42-.15,2.14-.2h0c1.92.15,4.65.47,6.52,1.64l-.48-.18-.33-.19a10.1,10.1,0,0,0-5.08-.83,27,27,0,0,0-5.18.16C191.78,44.9,192.58,44.77,193.38,44.67ZM188,47.59a26.9,26.9,0,0,1,6.82-1,24.53,24.53,0,0,0-8.74,2.46,7.14,7.14,0,0,0-2.8,2.55,3.77,3.77,0,0,1,1-1.72A10.51,10.51,0,0,1,188,47.59Zm-3.3-1.13a10.39,10.39,0,0,0-1.48,1.14c-.46.22-.9.46-1.33.71A11.89,11.89,0,0,1,184.73,46.46Zm-2,3.06c.48-.23,1-.44,1.47-.65-.09.09-.2.17-.29.27-2.36,2.48-1.67,6,1,7.92,2.93,2.11,6.67,2.29,10.1,1.5a15.57,15.57,0,0,0,7.13-3.41c-.07.14-.14.28-.22.41a10.29,10.29,0,0,1-.87,1.28,21.09,21.09,0,0,1-7.89,2.36,37.28,37.28,0,0,1-6.65-.06,10.63,10.63,0,0,1-1.83-.7,8.13,8.13,0,0,1-1.75-2.15C181.66,54,181.47,51.51,182.73,49.52Zm-3.23,3.37a6.3,6.3,0,0,1,.32-1.53c.08-.12.17-.23.26-.35a8.77,8.77,0,0,1,.81-.54l.14-.08a5.94,5.94,0,0,0-.05,5.18,6.9,6.9,0,0,0,2.42,3,8.26,8.26,0,0,1-3.09-1.5A8,8,0,0,1,179.5,52.89Zm-2,2.89a5.8,5.8,0,0,1,.69-2.54c0,.11,0,.22-.05.34a4.65,4.65,0,0,0,1.52,3.87,9.51,9.51,0,0,0,4.7,4.33c4.89,2.08,11.47,1.28,16-1.44,2.63-1.59,6.06-5.39,6.92-9.11a5.49,5.49,0,0,1-.45,5.57c-2.46,3.78-6.92,6-11.29,6.64-4.64.71-9.94.33-14.09-2C179.39,60.23,177.41,58.31,177.5,55.78Z"/><path class="cls-2" d="M320.38,35.55a25,25,0,0,0-.8-2.94.1.1,0,0,0-.19,0,16.52,16.52,0,0,0,.52,3,10.24,10.24,0,0,0,.75,3c.18.31.72.1.6-.26C321,37.43,320.63,36.51,320.38,35.55Z"/><path class="cls-2" d="M326,32.35c-.12-.24-.48,0-.36.21a21.59,21.59,0,0,0,3.39,5.6c.31.32.81-.17.49-.49A21.57,21.57,0,0,1,326,32.35Z"/><path class="cls-2" d="M339.94,32.32a38.55,38.55,0,0,1-3.79-1.3,24.59,24.59,0,0,1-3.26-1.88c-.27-.19-.52.26-.26.45a23.3,23.3,0,0,0,4,2.35,7.3,7.3,0,0,0,3.26,1A.33.33,0,0,0,339.94,32.32Z"/><path class="cls-2" d="M341.13,23.29A37.54,37.54,0,0,1,335,23c-.49-.06-.51.74,0,.77a38.64,38.64,0,0,0,6.18.05C341.45,23.77,341.47,23.27,341.13,23.29Z"/><path class="cls-2" d="M336,15.88a11.75,11.75,0,0,0,4.76-2.12.25.25,0,0,0-.25-.43,31.08,31.08,0,0,1-4.7,1.87A.35.35,0,0,0,336,15.88Z"/><path class="cls-2" d="M333.75,9.07a15.9,15.9,0,0,0,3.06-3.58c.2-.29-.26-.53-.46-.27a24.64,24.64,0,0,1-3.12,3.34C332.88,8.88,333.39,9.35,333.75,9.07Z"/><path class="cls-2" d="M328.33,7.17A26.22,26.22,0,0,0,330.46.88c.07-.31-.4-.45-.48-.13a45.69,45.69,0,0,1-2.24,6.08C327.57,7.21,328.11,7.56,328.33,7.17Z"/><path class="cls-2" d="M322,6.54a28,28,0,0,0,.14-6.27.28.28,0,0,0-.55,0,58.05,58.05,0,0,1-.25,6.18C321.29,6.83,321.91,6.91,322,6.54Z"/><path class="cls-2" d="M317.66,6.63c0-1.27,0-2.54-.05-3.82a.31.31,0,0,0-.61,0c0,1.28,0,2.55-.06,3.82A.36.36,0,0,0,317.66,6.63Z"/><path class="cls-2" d="M319.9,27a.21.21,0,0,0,0,.41A.21.21,0,0,0,319.9,27Z"/><path class="cls-2" d="M318.62,25.26a.24.24,0,0,0,0,.48A.24.24,0,0,0,318.62,25.26Z"/><path class="cls-2" d="M321.32,25.62c0,.09.06.18.1.27a.24.24,0,0,0,.43-.06,1,1,0,0,0,0-.35C321.78,25.15,321.24,25.28,321.32,25.62Z"/><path class="cls-2" d="M323.09,26.39s0,.09.05.13a.26.26,0,0,0,.51-.14l0-.13C323.5,25.92,323,26.06,323.09,26.39Z"/><path class="cls-2" d="M325.72,25.24c-.09-.3-.6-.26-.57.08a.53.53,0,0,0,.08.24c.21.32.72,0,.51-.3Z"/><path class="cls-2" d="M327,23.46a.28.28,0,0,0-.15.54c-.05-.05-.06,0,0,.08.06.31.55.23.55-.08A.5.5,0,0,0,327,23.46Z"/><path class="cls-2" d="M323.26,23.59a.27.27,0,0,0,0,.54A.27.27,0,0,0,323.26,23.59Z"/><path class="cls-2" d="M324.05,25.94l.07.07c.19.21.49,0,.44-.26v-.1C324.46,25.2,323.69,25.55,324.05,25.94Z"/><path class="cls-2" d="M325.12,27.05a.23.23,0,0,0,0,.45A.23.23,0,0,0,325.12,27.05Z"/><path class="cls-2" d="M327.7,24.28a.74.74,0,0,0,.17.25.24.24,0,0,0,.39-.23c0-.08,0-.15-.05-.24A.28.28,0,1,0,327.7,24.28Z"/><path class="cls-2" d="M329.22,21.92a.26.26,0,0,0,0,.52A.26.26,0,0,0,329.22,21.92Z"/><path class="cls-2" d="M329.9,21.12l0,0a.16.16,0,0,0,0,.27l0,0C330.23,21.62,330.23,20.92,329.9,21.12Z"/><path class="cls-2" d="M330.44,21.64a1.65,1.65,0,0,0-.18.41.15.15,0,0,0,.27.12c.06-.13.13-.24.2-.36S330.54,21.45,330.44,21.64Z"/><path class="cls-2" d="M326.8,21.58a.56.56,0,0,0,.17-.3c0-.27-.37-.38-.41-.11,0,.08-.05.15-.07.24A.18.18,0,0,0,326.8,21.58Z"/><path class="cls-2" d="M324.55,22.24a2.55,2.55,0,0,0-.13.39.21.21,0,0,0,.38.16,1.78,1.78,0,0,0,.17-.3C325.1,22.2,324.68,22,324.55,22.24Z"/><path class="cls-2" d="M324,23.7a.12.12,0,0,0,0,.23A.12.12,0,0,0,324,23.7Z"/><path class="cls-2" d="M328.35,20.26a.24.24,0,0,1,0,.15.28.28,0,0,0,.56,0,1.12,1.12,0,0,0-.05-.31C328.79,19.75,328.21,19.92,328.35,20.26Z"/><path class="cls-2" d="M331.72,19.74a.08.08,0,1,0,0,.16A.08.08,0,0,0,331.72,19.74Z"/><path class="cls-2" d="M322.7,20.74c-.06,0-.11.05-.12.12v0c0,.15.15.34.3.23l0,0C323.14,20.92,322.9,20.6,322.7,20.74Z"/><path class="cls-2" d="M320.8,20.81a.36.36,0,0,0,0-.32c0-.09-.19,0-.19.05a.18.18,0,0,1-.06.16C320.45,20.86,320.72,21,320.8,20.81Z"/><path class="cls-2" d="M319.67,20.72c-.06-.13-.26,0-.19.11l0,.12a.11.11,0,1,0,.21,0A.46.46,0,0,0,319.67,20.72Z"/><path class="cls-2" d="M322,23a4.1,4.1,0,0,0-.26-.41c-.2-.29-.66,0-.47.27a4.73,4.73,0,0,0,.32.46C321.81,23.52,322.17,23.21,322,23Z"/><path class="cls-2" d="M322.31,23.89a.67.67,0,0,0,.24-.76.2.2,0,0,0-.39.11c0,.19,0,.25-.11.39S322.15,24,322.31,23.89Z"/><path class="cls-2" d="M320.6,23.38a1.58,1.58,0,0,0,0,.75c0,.17.31.13.29,0a3.87,3.87,0,0,1,0-.68A.12.12,0,0,0,320.6,23.38Z"/><path class="cls-2" d="M321.92,27.93a3.09,3.09,0,0,0,.31.69.25.25,0,0,0,.45-.18,3.65,3.65,0,0,0-.29-.71C322.28,27.46,321.81,27.66,321.92,27.93Z"/><path class="cls-2" d="M319.16,24a.43.43,0,0,0-.1.29.22.22,0,0,0,.42.11h0v0s0,0,0,0,0-.08,0-.13A.22.22,0,0,0,319.16,24Z"/><path class="cls-2" d="M318.41,22.65a.7.7,0,0,0-.08.2c0,.17.14.35.31.24a.73.73,0,0,0,.19-.2C319,22.63,318.59,22.39,318.41,22.65Z"/><path class="cls-2" d="M318.58,19.84a.21.21,0,0,0,0-.41A.21.21,0,0,0,318.58,19.84Z"/><path class="cls-2" d="M319.39,17.86v0c0-.31-.4-.32-.5-.07v0C318.72,18.14,319.41,18.27,319.39,17.86Z"/><path class="cls-2" d="M317.64,23.73a.14.14,0,0,0-.15.13v0a.18.18,0,0,0,.33.14l0,0a0,0,0,0,1,0,0,.05.05,0,0,1,0,0v0h0C317.89,23.78,317.76,23.65,317.64,23.73Z"/><path class="cls-2" d="M306.16,19.4c-.15-.11-.35.14-.2.26s.37.49.62.63a.18.18,0,0,0,.24-.24A2.27,2.27,0,0,0,306.16,19.4Z"/><path class="cls-2" d="M296.46,20.34c-.12-.09-.28.12-.17.21a6.38,6.38,0,0,1,1,.91c.11.13.31-.06.19-.19A6.63,6.63,0,0,0,296.46,20.34Z"/><path class="cls-2" d="M294.39,21.21a.18.18,0,0,0-.18.31,5.3,5.3,0,0,1,.54.39c.22.18.47-.15.24-.3S294.59,21.33,294.39,21.21Z"/><path class="cls-2" d="M293.27,21.46s-.09,0,0,.07a4.55,4.55,0,0,1,.82.82c.12.17.37,0,.22-.18A6.37,6.37,0,0,0,293.27,21.46Z"/><path class="cls-2" d="M292.35,21.69c-.21-.15-.41.2-.2.35s.6.44.92.62a.18.18,0,0,0,.22-.29A5.37,5.37,0,0,0,292.35,21.69Z"/><path class="cls-2" d="M291.22,22c-.11-.07-.25.1-.14.19a9.85,9.85,0,0,0,.78.67.15.15,0,0,0,.2-.2A2.59,2.59,0,0,0,291.22,22Z"/><path class="cls-2" d="M290.62,22.42a.19.19,0,0,0-.19.34,3.79,3.79,0,0,1,.58.48c.19.19.5-.11.3-.3A3.9,3.9,0,0,0,290.62,22.42Z"/><path class="cls-2" d="M289.3,22.57c-.21-.11-.4.2-.19.32s.69.43,1,.64c.19.12.42-.17.24-.3A5.28,5.28,0,0,0,289.3,22.57Z"/><path class="cls-2" d="M288.44,23a.2.2,0,0,0-.2.35,5.77,5.77,0,0,1,.77.52c.21.17.52-.12.3-.31A4.17,4.17,0,0,0,288.44,23Z"/><path class="cls-2" d="M287.89,23.56c-.21-.12-.41.21-.19.33l.95.59c.22.14.39-.18.2-.33A8.51,8.51,0,0,0,287.89,23.56Z"/><path class="cls-2" d="M287.23,24.47c-.15-.1-.28.14-.14.24l.37.31c.14.14.37-.09.22-.22A3.72,3.72,0,0,0,287.23,24.47Z"/><path class="cls-2" d="M272.62,40c0,.58.1,1.16.14,1.73,0,.33.55.33.52,0-.07-.57-.16-1.15-.22-1.73C273,39.73,272.6,39.72,272.62,40Z"/><path class="cls-2" d="M271.71,40.1c0,.51.1,1,.12,1.54a.23.23,0,1,0,.46-.06c-.07-.51-.17-1-.25-1.53C272,39.86,271.7,39.91,271.71,40.1Z"/><path class="cls-2" d="M266.73,41.37c-.06-.43-.72-.46-.7,0,.18,3.48,5.66,4.78,8.39,4a.14.14,0,0,0,0-.28C271.89,45.28,267.13,44.45,266.73,41.37Z"/><path class="cls-2" d="M264.51,40.45c-.09-.47-.79-.26-.71.2a8,8,0,0,0,4.65,5.85c2.3,1.08,4.87,2.08,7.33,1,.16-.07.05-.34-.12-.29C271.24,48.54,265.37,44.89,264.51,40.45Z"/><path class="cls-2" d="M268.37,47.94c-2.93-1.71-4.42-4.57-6-7.46-.25-.46-.94,0-.7.41,1.76,3.29,3.62,6.6,7.24,8.1,2.64,1.1,6.07,1.68,8.46-.28.2-.16-.06-.48-.28-.35C274.47,50,271,49.47,268.37,47.94Z"/><path class="cls-2" d="M266.62,48.54a17.12,17.12,0,0,1-5.9-8.3c-.05-.14-.28-.08-.23.07,1.15,3.36,2.74,6.75,5.8,8.8,3.86,2.59,8.34,2.35,12.74,1.52.46-.09.25-.76-.2-.7C274.65,50.54,270.3,51.18,266.62,48.54Z"/><path class="cls-2" d="M64.25,145.73a9.47,9.47,0,0,1-5.93-4.35c-.48-.78-1.2-2-.82-2.94.48-1.19,2.15-1.08,3.19-1a.41.41,0,0,0,.2-.76c-3.5-2.06-4.16-6.71.09-8.36a.4.4,0,0,0,.09-.73c-3.74-2.51-5.7-8.06-1.1-10.79a.38.38,0,0,0,0-.64c-3.11-2.2-3.91-7.08-.46-9.34a.19.19,0,0,0-.19-.32c-4,2-3.09,7.36-.18,9.93-4.4,2.9-2.72,8.53,1,11.43-3.75,1.9-3.65,6.25-.64,8.79-2.11.24-3.57,1.56-2.43,4a10.45,10.45,0,0,0,7,5.82C64.55,146.61,64.77,145.83,64.25,145.73Z"/><path class="cls-2" d="M55,105.17c-9.16-2.19-11.7-13-16.76-19.63a21.09,21.09,0,0,0-16.87-8.13c-6.47.09-12.61,3.51-14.63,10A21.35,21.35,0,0,0,11.49,108c7.08,7.34,17.27,5.93,26.4,4.46.54-.09.31-.92-.23-.83-7.2,1.16-15.42,2.73-22-1.36C8.48,105.83,4.9,96,7.38,88c2.42-7.8,10.4-11,18-9.49a20.51,20.51,0,0,1,9.89,4.76c2.62,2.47,4.42,5.62,6.19,8.72,3.15,5.54,6.58,12.09,13.42,13.41C55.09,105.46,55.16,105.21,55,105.17Z"/><path class="cls-2" d="M49.55,105.14a15.3,15.3,0,0,1-4.63-2.63c-5.85-5-8.09-12.94-14.5-17.42C26,82,18.28,78.91,13.55,83.25c-5.28,4.86-4.05,13.94-.33,19.33a14.78,14.78,0,0,0,8.74,6.3c4.84,1.14,9.74.27,14.56-.55.52-.09.3-.88-.22-.79-4.95.81-10.45,2-15.33.2a14.91,14.91,0,0,1-8.44-8c-2.68-6-2.66-17.13,6-17.79,6.78-.53,13.15,4,17,9.21,4,5.47,7.06,11.92,13.91,14.31C49.66,105.52,49.74,105.21,49.55,105.14Z"/><path class="cls-2" d="M43.09,104.37c.21.06.29-.25.09-.33-7.56-2.82-9.35-11.57-15.5-16-4.34-3.16-11.92-3.32-14,2.63-2,5.61.85,11.09,6.09,13.43,5.06,2.27,11.16,2.22,16.57,1.65.52-.06.53-.88,0-.83-5,.53-10.47.6-15.23-1.18-2.48-.92-4.92-2.42-6.15-4.85-1.33-2.62-1.63-6.43,0-9a7.63,7.63,0,0,1,8.29-3.15,13.87,13.87,0,0,1,7.62,5.38C34.45,96.65,37.18,102.41,43.09,104.37Z"/><path class="cls-2" d="M25.68,91.89c3.47,2.09,5.21,5.88,8,8.7.15.15.36-.07.23-.23-3.2-3.59-5.11-7.88-9.72-9.93-2.17-1-5.7-1.84-6.93.9-1.34,3,.65,6.39,3.2,7.87,3,1.74,6.5,2.24,9.86,2.93.51.11.72-.67.21-.77-2.78-.56-5.72-.94-8.32-2.13C19.42,98,16.75,95.32,17.8,92S23.68,90.68,25.68,91.89Z"/><path class="cls-2" d="M53,144.61c-1.86,5.89-8.74,8.73-14.33,9.68-6.47,1.11-13.25-.6-17.55-5.83s-5.73-13.82-2-19.89c4.4-7.21,12.75-8.31,20.24-10.3a.44.44,0,0,0-.24-.85c-8,2.14-17.63,3.54-21.4,12a18.93,18.93,0,0,0,3.18,20c4.77,5.16,11.64,6.93,18.42,5.53,5.66-1.17,12.42-4.14,14.15-10.2A.23.23,0,0,0,53,144.61Z"/><path class="cls-2" d="M42.89,121.35c.55-.08.32-.92-.23-.83-5.79.92-11.9,3.12-16.44,6.91-4.26,3.55-7,9.16-4.53,14.61s9,8.15,14.83,8.05a21,21,0,0,0,16.89-9.87.2.2,0,0,0-.35-.2c-3.36,5.38-10.6,9.49-17,9.28-5.62-.19-12.53-2.81-14.07-8.86C19.06,128.86,33.89,122.77,42.89,121.35Z"/><path class="cls-2" d="M50.93,133.21c0,4.49-5.12,8-9.07,8.92-3.69.9-8.32.25-11.07-2.59a8.12,8.12,0,0,1,.84-11.88,15.39,15.39,0,0,1,5.8-3c2.34-.67,5.06-1.41,7.4-.4.5.21.94-.53.43-.74-2.57-1.1-5.47-.45-8,.32a15.24,15.24,0,0,0-6.52,3.6c-3.28,3.3-4.24,8.84-.75,12.42a12.52,12.52,0,0,0,12.49,2.91c4-1.34,9.07-4.75,8.92-9.52A.21.21,0,0,0,50.93,133.21Z"/><path class="cls-2" d="M41.41,128.09c.55,0,.55-.89,0-.85-2.39.15-6.23.48-7.1,3.26-.68,2.18.11,5.09,2.33,6.09,4.1,1.85,10-1.24,9.73-6,0-.29-.47-.29-.46,0,.1,3.89-4.57,6.83-8.17,5.66-2.16-.7-3.85-3.58-2.55-5.76S39.25,128.22,41.41,128.09Z"/><path class="cls-2" d="M149.19,65.94,150,66a0,0,0,0,0,0,.06c3.8,1.26,9.53-.07,12.62-2.51,1.4-1.1,2.7-2.91,2-4.79-.77-2.21-2.95-3.31-5.11-3.81-4.39-1-11.61-.81-14.23,3.62-.85,1.44-1.51,3.68-.43,5.2A6,6,0,0,0,149.19,65.94Zm2.89-10.41c3.25-.64,8.25-.71,10.85,1.73,3.42,3.22-.74,6.51-3.75,7.66-2.66,1-6,1.87-8.88,1.13,4.27.31,10.72-.73,12.73-4.64,1.34-2.61-2.11-4.63-4.16-5a15.51,15.51,0,0,0-9,.7c-2.32,1-5,3.91-1.89,5.9a9.81,9.81,0,0,0,9.63.34c1.41-.8,4.27-3.53,2-5-1.82-1.21-4.69-1.1-6.73-.56-1.42.37-5.31,1.58-5.34,3.65-.61-1.42.76-2.6,1.88-3.18a12.49,12.49,0,0,1,5.06-1.28,11.38,11.38,0,0,1,5.94.85,3.43,3.43,0,0,1,2,2.14c.22,1.32-.81,2.3-1.81,3a16.05,16.05,0,0,1-7.68,2.37c-2.17.16-6.3.39-7.47-2C143.47,59.13,148.91,56.15,152.08,55.53Zm5.52,3.66c-1.24-1.39-4.72.05-5.42,1.43a.42.42,0,0,0,.15.56,2.78,2.78,0,0,0,3.21-.31.4.4,0,0,0-.08-.63,3.28,3.28,0,0,0-1.09-.37,4.55,4.55,0,0,1,1.66-.32c1,0,1.61.92.68,1.65a4.74,4.74,0,0,1-1.56.77c-1,.27-2.62.59-3.56-.09-1.26-.91.08-2.15,1-2.55,1.53-.65,5.17-1.51,6.2.4.58,1.08-.65,1.83-2,2.3C157.89,61.35,158.64,60.35,157.6,59.19Zm-7.29,1.41c-.38,1.51.82,2.17,2.14,2.37-1.43.15-3,.1-3.73-.74-1.07-1.32.73-2.44,2.64-3.16A2.72,2.72,0,0,0,150.31,60.6Z"/><path class="cls-2" d="M147.62,67.87c6.43.95,15.1,1.22,19.76-3.94,2.08-2.29,1.2-5.58-.78-7.63a15.73,15.73,0,0,0-8.34-4.21c-5.09-.92-11.45-.1-14.81,4.25C140.23,60.51,141.72,67.78,147.62,67.87Zm-5.11-7.08a8.22,8.22,0,0,1,3.63-6A16.53,16.53,0,0,1,158.89,53c2.58.68,5.39,1.77,7.19,3.84,1.14,1.3,2.32,3.29,1.64,5.08a6.92,6.92,0,0,1-3.13,3.41c-4.73,2.72-10.91,2.89-16.31,2.24a.35.35,0,0,0-.36-.43C144.39,67.21,142.09,64.22,142.51,60.79Z"/><path class="cls-2" d="M201.18,81.52a2,2,0,0,0-1-1.65c-1.92-1.3-4.5-1.46-6.76-1.32a19.73,19.73,0,0,0-7.67,1.6c-1.43.74-2.94,2.38-1.63,4,1.91,2.39,6.7,2.87,9.52,2.8,2.44-.06,8.78-1.16,7.79-4.87A2.83,2.83,0,0,0,201.18,81.52Zm-.6.58a3.61,3.61,0,0,1-1.35,1.55,1.94,1.94,0,0,0-.1-2.32,3.16,3.16,0,0,0-.87-.67,3.65,3.65,0,0,1,1.58.66A2.79,2.79,0,0,1,200.58,82.1Zm-3.55,2a1.52,1.52,0,0,0,.56-1.87,3.08,3.08,0,0,0-1.07-1.37c.85.18,2.39.54,2.36,1.64,0,1.57-1.78,2.31-3.1,2.64a11.55,11.55,0,0,1-2.23.36l.18,0h0C194.56,85.33,196.42,85,197,84.06Zm-3.67-3.18.44-.09.38,0c.92.09,2.54.83,2.74,1.71A4.94,4.94,0,0,0,193.36,80.88Zm-9,2.32s0-.1,0-.15c-.23-1.44,1.36-2.24,2.49-2.65A23.84,23.84,0,0,1,195,79.08a9.64,9.64,0,0,1,4.31.86,4.88,4.88,0,0,1,.58.37,9.87,9.87,0,0,0-5.29-.4h-.25a25.62,25.62,0,0,0-6.05.54C186.89,80.74,184.32,81.49,184.39,83.2Zm2.48,1.09a2.79,2.79,0,0,1-1.13-.36c-.47-1-.33-1.63.4-1.92A9.66,9.66,0,0,1,189,81l.41-.07a4.16,4.16,0,0,0-1.9,1.63,1.85,1.85,0,0,0-.63,1.49C186.84,84.16,186.86,84.22,186.87,84.29Zm.73.09h0a.69.69,0,0,1,0-.46l0-.07.07.09a3.7,3.7,0,0,0,.55.49C188,84.42,187.82,84.41,187.6,84.38Zm1.38-1.6a2.16,2.16,0,0,1,1.08-.72c1.69-.55,4.26-.6,5.8.44.61.42.66.81.43,1.13a1.89,1.89,0,0,1-.28.17,9.89,9.89,0,0,1-2.35.86h0a11.42,11.42,0,0,1-2.8-.14h0a5.29,5.29,0,0,0,4.31-1.23.38.38,0,0,0,0-.53,3.8,3.8,0,0,0-4.74.1,1.63,1.63,0,0,0-.43.74C189.55,83.49,188.49,83.43,189,82.78Zm1.79.93c.43-.84,2.51-1.18,3.53-.66A5.27,5.27,0,0,1,190.77,83.71ZM197,85.76a15.82,15.82,0,0,1-6.78.2c.45,0,.88-.08,1.29-.13A3.62,3.62,0,0,0,192,86a8.53,8.53,0,0,0,6.24-1.22,6,6,0,0,0,2.51-2C200.86,84.27,198,85.49,197,85.76Z"/><path class="cls-2" d="M204.29,83.89c.62-3-1.84-5.58-4.38-6.78a17,17,0,0,0-9.2-1.4,24.88,24.88,0,0,0-7,1.75c-1.82.78-4.3,2.07-4.74,4.23-.95,4.7,4.75,6.33,8.6,6.62h0a24.84,24.84,0,0,0,9.83.18C199.8,88,203.72,86.68,204.29,83.89Zm-15.45,4.42a.37.37,0,0,0-.18-.69A16.69,16.69,0,0,1,183,86.56c-2-.85-4.46-3-3-5.44,2-3.26,7.19-4.37,10.7-4.73a16.91,16.91,0,0,1,7.48.69c2.95,1.09,8.07,5,4.45,8.34S193.51,88.89,188.84,88.31Z"/><path class="cls-2" d="M223.69,62.79c-3.46.24-9.16,1.36-10.82,4.93s4.1,4.53,6.36,4.53a20.36,20.36,0,0,0,9.21-1.89c1.66-.87,4.74-3.42,2.55-5.33-1.63-1.44-4.77-1.19-6.81-1a12.73,12.73,0,0,0-3.92.54,8,8,0,0,0-4.45,2.17c-1,1.15-1.09,2.78.36,3.61a10.37,10.37,0,0,0,6.15.8c2.48-.29,9.56-2.42,5.56-5.92a4,4,0,0,0-1-.65,6.45,6.45,0,0,1,3.49.78c2.27,1.55-1.28,4-2.65,4.59a20.62,20.62,0,0,1-10.41,1.5c-1.86-.24-5.45-1.49-3.53-4.06a9.7,9.7,0,0,1,4.79-3,18.19,18.19,0,0,1,6.85-1.08c2.16.14,5.78.77,6.87,3,1.7,3.5-5.56,5.82-7.9,6.11-.09,0-.1.16,0,.15,2.59-.25,7.7-1.7,8.48-4.68C233.94,63.7,226.36,62.61,223.69,62.79Zm4,3.16a1.82,1.82,0,0,1-.29,3,12.38,12.38,0,0,1-7.15,1.69c-1.4,0-6.48-.92-3.93-3.36a4.72,4.72,0,0,1,.48-.41c-.79,1-1.05,2,.38,2.76,2.31,1.21,5.79.53,8-.56.84-.4,2-1.07,2-2.15a1.48,1.48,0,0,0-1.16-1.63,9.51,9.51,0,0,0-6.81,1.66c-1.28.91-.54,2,.75,2.24a10.43,10.43,0,0,0,1.92.16,10.64,10.64,0,0,1-2.49.2c-.76,0-3.38-.51-2.35-2.08A4.34,4.34,0,0,1,218.59,66a8.94,8.94,0,0,1,2.61-.93C223.07,64.71,226.2,64.34,227.66,66Zm-3,.85a3.38,3.38,0,0,0-3.5.62c-.2.16-.09.44.08.57a2.26,2.26,0,0,0,1.58.48l-.13,0c-.67.09-3,.37-3.41-.45s3.31-1.84,3.88-2a5.46,5.46,0,0,1,2.72-.14c1.75.6-.25,2.15-1,2.48l-.21.08a2.69,2.69,0,0,0,.28-.22A.86.86,0,0,0,224.64,66.8Zm-.91.72a2.32,2.32,0,0,1-1.16.25c0-.51.35-.68,1-.48s1.37.1.73.61a.78.78,0,0,1-.15.1C224.23,67.74,224.05,67.39,223.73,67.52Z"/><path class="cls-2" d="M230.53,61.24a20.33,20.33,0,0,0-17.29,2.66.33.33,0,0,0-.24,0c-2.28.76-4.75,2.81-4,5.53s3.1,4.4,5.61,5.17c5.26,1.63,11.91.86,16.9-1.41,2.58-1.18,5.1-3.05,4.74-6.19C235.88,64.08,233.12,62.06,230.53,61.24Zm.24,11.51a27.52,27.52,0,0,1-13,1.82c-2.27-.3-4.75-.95-6.44-2.6-2.82-2.77-1.73-6.2,1.89-7.41a.34.34,0,0,0,.23-.39A21.2,21.2,0,0,1,228,61.29c2.79.47,6.35,1.76,7.3,4.76C236.37,69.47,233.68,71.64,230.77,72.75Z"/><path class="cls-2" d="M239.17,37.9a27.39,27.39,0,0,0-15.58-.66c-4.67,1.3-10,5.18-7.25,10.7s10.54,6,15.8,5.66c3.6-.22,10.93-1,12.64-5.07a4.71,4.71,0,0,0,1.34-2.06,7.42,7.42,0,0,1-4,5.29A21.79,21.79,0,0,1,231.52,54c-.11,0-.11.17,0,.18,4.8.2,12.75-.62,14.74-5.94S243.73,39.38,239.17,37.9Zm-18,10.62a6.67,6.67,0,0,0,.9.94A6.66,6.66,0,0,1,218.93,47c-1.37-2.27,0-3.59,1.91-4.39A4.61,4.61,0,0,0,219.7,45,3.62,3.62,0,0,0,221.18,48.52Zm1.29-5.75,0,0A5.24,5.24,0,0,0,220.93,46,3.36,3.36,0,0,1,222.47,42.77Zm-.5,4.85a3.45,3.45,0,0,1-.13-2.78A3.17,3.17,0,0,0,223,47.33,6.69,6.69,0,0,0,225,48.59a6.56,6.56,0,0,0,2,1h0a10.68,10.68,0,0,1-4.39-.85A4.18,4.18,0,0,1,222,47.62Zm16.65-4.44a3,3,0,0,1-.63,4.1,6.6,6.6,0,0,1-1.14.75,11.14,11.14,0,0,1-1.18.28,21,21,0,0,1-9.71-.23l-.14,0a4.55,4.55,0,0,1-.75-.59,9.56,9.56,0,0,0,1.44.18,27.06,27.06,0,0,0,4.91,0,6,6,0,0,0,4.45-.8c2-1.52,1.3-3.29-.16-4.54q.51.1,1,.24A8.73,8.73,0,0,1,238.62,43.18Zm-1.45-2.5a17.88,17.88,0,0,1,2.17.48,10.38,10.38,0,0,1,1,.33,10.21,10.21,0,0,1,1.6.87,9.77,9.77,0,0,0-2.92-1c-.37-.06-.73-.11-1.1-.15A7.71,7.71,0,0,0,237.17,40.68Zm-12.23,4.55a3,3,0,0,0,2.19,1.68,12.35,12.35,0,0,1-2-.23,4.58,4.58,0,0,1-.66-.19A1.4,1.4,0,0,1,224.94,45.23Zm-1.12.94c-.66-.4-1.07-1-.25-1.67a6,6,0,0,1,1.76-1,2.62,2.62,0,0,0-.36.64l-.27.27A3.41,3.41,0,0,0,223.82,46.17Zm4.77-1.05a2.07,2.07,0,0,0,.59.62l.18.12a1.87,1.87,0,0,0,.13.4,5,5,0,0,1-3-.37c-.7-.41-.9-.82-.82-1.22l.2-.13a7.94,7.94,0,0,1,2.41-.92v0A1.55,1.55,0,0,0,228.59,45.12Zm.5-1.24a.59.59,0,0,1,.12-.4c.24,0,.49,0,.73,0A3.76,3.76,0,0,0,229.09,43.88Zm1.06.22a3,3,0,0,0-.54.65,1.7,1.7,0,0,1-.24-.22.5.5,0,0,1,.24-.2A4.38,4.38,0,0,1,230.15,44.1Zm4.68.31a.57.57,0,0,0,0-.18.79.79,0,0,1,.46,1,1.35,1.35,0,0,1-.57.65A1.25,1.25,0,0,0,234.83,44.41ZM236,45.65c.48-1.08-.49-2-1.6-2.46a5.08,5.08,0,0,0-2.86-1.1c.28,0,.56-.09.85-.12A14.06,14.06,0,0,1,234,42a5.45,5.45,0,0,1,.53.29C235.43,42.91,236.87,44.51,236,45.65Zm-4.33-1.8h.14l.37,0c.75.31,1.42.79.22,1.13a4.62,4.62,0,0,1-1.77.19,1.11,1.11,0,0,1-.25,0A2.55,2.55,0,0,1,231.66,43.85ZM227.55,42c-1.94.37-4.19,1-5,2.47l0,0a2.81,2.81,0,0,1,.39-1.15,10.92,10.92,0,0,1,4-2,16.73,16.73,0,0,1,4.06-.08A12.68,12.68,0,0,0,227.55,42Zm-.94,8.29a35.76,35.76,0,0,0,3.59,0,20.53,20.53,0,0,0,7.17-.3,14.86,14.86,0,0,1-1.64.51,27.38,27.38,0,0,1-6.51.39,16.28,16.28,0,0,1-4.85-.93A12.45,12.45,0,0,0,226.61,50.25Zm8.33-.7A15.06,15.06,0,0,0,236.7,49l.1,0a7.49,7.49,0,0,0,2.53-1.2,3.61,3.61,0,0,0,1.35-2,3,3,0,0,1-.47,2.44A14.88,14.88,0,0,1,234.94,49.55Zm6-.92A10.19,10.19,0,0,0,243,47.21a4.55,4.55,0,0,1-1.05.94c-.4.27-.82.52-1.24.75Zm.68-1.35a3.11,3.11,0,0,0,.07-.44A5.37,5.37,0,0,0,239,42.13a11.23,11.23,0,0,1,1.43.42,5,5,0,0,1,2.87,2.16,2.36,2.36,0,0,1,.2.68,3.74,3.74,0,0,1-.53.71A9.75,9.75,0,0,1,241.62,47.28Zm-13.4-10.09a27.87,27.87,0,0,1,8.54.72c.91.22,1.89.48,2.86.82a24.65,24.65,0,0,0-2.54-.53,34.89,34.89,0,0,0-11.93-.12,21,21,0,0,0-6.06,2A17.76,17.76,0,0,1,228.22,37.19Zm-11.46,9.43a6.36,6.36,0,0,1-.25-2c.5-2.59,3.37-4.12,5.67-4.89a30.24,30.24,0,0,1,14-.82,16,16,0,0,1,5.43,1.5A5.29,5.29,0,0,1,243.34,42a14.21,14.21,0,0,0-3.17-1.44,24.92,24.92,0,0,0-11.51-1.4,16.75,16.75,0,0,0-6.26,2.17l-.67.18c-2.47.69-5.69,3.07-3.48,5.93a7.83,7.83,0,0,0,1.8,1.69A6,6,0,0,1,216.76,46.62ZM238,51.92a30.58,30.58,0,0,1-8.47.92c-3.39-.12-7.34-.53-10.17-2.6A6.7,6.7,0,0,1,218,48.91a10.77,10.77,0,0,0,3.27,1.44c1.14.31,2.3.57,3.46.78.63.17,1.25.31,1.86.44a15.3,15.3,0,0,0,2.54.42,21.6,21.6,0,0,0,10.6-.71.41.41,0,0,0,.25-.25,14.85,14.85,0,0,0,2-.72A13.28,13.28,0,0,1,238,51.92Zm5.88-3.55a11.29,11.29,0,0,1-4.42,2c2-.7,4.43-1.91,4.87-3.86l0-.15A4.05,4.05,0,0,1,243.86,48.37Zm1.38-1.48a1.67,1.67,0,0,1-.12.16,5.57,5.57,0,0,0-.41-2.62,2.7,2.7,0,0,0,.06-.41A2.13,2.13,0,0,1,245.24,46.89Zm.88-2a4.18,4.18,0,0,0-1.39-2,5.29,5.29,0,0,0-.16-.63,4.06,4.06,0,0,0-1-1.57,7.13,7.13,0,0,1,1.68,1.83A6.06,6.06,0,0,1,246.12,44.92Z"/><path class="cls-2" d="M242.53,36.72A27,27,0,0,0,231,34.87c-4.55.32-10.08,1.25-13.93,3.86-3.16,2.14-5,5.45-3.5,9.21s5.19,6,8.87,6.84A55,55,0,0,0,234.07,56c2.15,0,5,.08,7.17-.91a.35.35,0,0,0,.45.26,12.51,12.51,0,0,0,4.94-2.6,8.78,8.78,0,0,0,2.85-9.12C248.38,40.15,245.84,38,242.53,36.72ZM249,47.38c-.73,3.4-3.35,5.66-6.46,6.84a3.47,3.47,0,0,0,.29-.25.16.16,0,0,0-.22-.22c-2.23,2.12-6.52,1.84-9.37,1.71a56.71,56.71,0,0,1-10.16-1.1c-3.89-.89-8.32-3.36-9.34-7.59-1.23-5.07,3.66-8,7.74-9.31,7.1-2.34,15.68-3.08,22.49.7C247.24,40,249.88,43.43,249,47.38Z"/><path class="cls-2" d="M113.56,86.66a31.88,31.88,0,0,0-12.88,4.71c-2.19,1.42-4.63,4.2-2.17,6.65,2.24,2.24,5.64,3.12,8.72,3.34.63,0,1.31.07,2,.07a22.61,22.61,0,0,1-4.87.12c-.26,0-.26.37,0,.4a26.31,26.31,0,0,0,8.75-.76c3.43-.44,6.95-1.56,9-3.9,2.29-1.51,4.79-3.87,3.23-6.46C123.05,86.92,117.7,86.11,113.56,86.66Zm6.89,2.91a6.24,6.24,0,0,0-2.2-1.1,8.49,8.49,0,0,1,2.09.26,2.55,2.55,0,0,1,2,1.77A7.23,7.23,0,0,0,120.45,89.57ZM121.86,93a4.91,4.91,0,0,1-.74,1l-.11.1a4.51,4.51,0,0,0,.69-1.91A1.28,1.28,0,0,1,121.86,93Zm-13.32,2.3a2.38,2.38,0,0,0,1.64-.09,4.66,4.66,0,0,0,1.12.08,15.2,15.2,0,0,1-3.3.48,13.22,13.22,0,0,1-2.17,0,2.05,2.05,0,0,1,1.06-1,11.5,11.5,0,0,1,1.63-.57.47.47,0,0,0,0,.16,2.88,2.88,0,0,0-.24.46A.39.39,0,0,0,108.54,95.34Zm4.93-1.19a1.8,1.8,0,0,0-1.1-.85c.21,0,.41,0,.6,0a11.65,11.65,0,0,1,1.73.2,2.6,2.6,0,0,1-.78.77l-.42.23A.43.43,0,0,0,113.47,94.15Zm-.94.08a3.39,3.39,0,0,1-1.56.32,1.31,1.31,0,0,0,.14-.72A2.32,2.32,0,0,1,112.53,94.23Zm-2,2.06c1.73-.35,4.41-1,5.08-2.86a.4.4,0,0,0-.18-.45,5.91,5.91,0,0,0-5.15,0,2.33,2.33,0,0,0-.71.25c-.35.06-.68.12-.93.18-1.22.28-3.18.85-3.62,2.2a3.44,3.44,0,0,1-.91-.42l-.15-.12a2.85,2.85,0,0,1,.14-.5l.25-.16a38.61,38.61,0,0,1,6.23-3.15,13,13,0,0,1,2.3.3c1,.23,2.6.62,3.15,1.67a2.16,2.16,0,0,1-1,2.7,14.5,14.5,0,0,1-6.59,2,.28.28,0,0,0-.19,0l-.27,0a3.86,3.86,0,0,1-1.23-.46,1.9,1.9,0,0,1-.83-.88A13.85,13.85,0,0,0,110.49,96.29Zm-5,2.56.16,0a8.45,8.45,0,0,1-2.57-.09,2.66,2.66,0,0,1-1-.39A10.62,10.62,0,0,0,105.5,98.85Zm-3.07-2.79a7.45,7.45,0,0,1,.61-.65,3.56,3.56,0,0,0,.59,1.81.75.75,0,0,0,.13.18,4.68,4.68,0,0,1-.55-.27A1.77,1.77,0,0,1,102.43,96.06Zm2,.94a2.41,2.41,0,0,1-.47-1,6,6,0,0,0,1,.37,2,2,0,0,0,.85,1.5A2.92,2.92,0,0,1,104.42,97Zm2.43-6.16.07,0a13,13,0,0,1,4.2-.67c-.52.1-1.12.23-1.75.41A13.52,13.52,0,0,0,106.85,90.84Zm9.5,1.62a6.61,6.61,0,0,0-4-1.77c.49-.07,1-.13,1.55-.18a8.65,8.65,0,0,1,1.76.67c1.19.63,2.51,1.76,1.46,3.2-.13.17-.27.34-.42.5A2.28,2.28,0,0,0,116.35,92.46Zm-3.07-2.78a15,15,0,0,0-2-.19c.74-.18,1.48-.35,2.23-.48l.18,0,.33,0a13.73,13.73,0,0,1,3.66.13h-.44A18.69,18.69,0,0,0,113.28,89.68Zm4.23,5.46c1.58-2.16.18-3.86-1.78-4.75a9.84,9.84,0,0,1,4.74.8,1.87,1.87,0,0,1,.28.16c.46,1.4-.39,3-1.78,4a14.79,14.79,0,0,1-3.89,1.9A7.54,7.54,0,0,0,117.51,95.14Zm5.5-.92a7.17,7.17,0,0,1-2.3,3.27c-.44.26-.89.5-1.34.72a41.22,41.22,0,0,1-4.68,1.94,24.81,24.81,0,0,1-6.64.5,17.62,17.62,0,0,1-5.2-.94C101,99,97.37,97.4,98.38,94.82c.78-2,3-3.06,4.78-4A33.4,33.4,0,0,1,109,88.39c3.61-1.08,8.08-1.86,11.74-.39a9.42,9.42,0,0,0-2.77-.3A33.75,33.75,0,0,0,103.93,91c-1.64.85-5.5,3-4.21,5.46a3.83,3.83,0,0,0,1.08,1.24,2.08,2.08,0,0,0,.22.65c1.13,2,4.57,1.26,6.4,1l1.6-.24a26.82,26.82,0,0,0,6.6-1c2.23-.63,5.88-1.86,6.77-4.26a4.07,4.07,0,0,0,.15-.51,6.2,6.2,0,0,0,.49-1A2.65,2.65,0,0,1,123,94.22Zm-21.87,2c-.06.11-.13.23-.18.34-.7-.82-.71-1.92.6-3l.46-.36A3.69,3.69,0,0,0,101.14,96.23Zm22.8-1.18c-.22.23-.46.43-.69.64a7.35,7.35,0,0,0,.59-1.71,3.07,3.07,0,0,0-.54-2.55,2.74,2.74,0,0,0-.42-2,3.72,3.72,0,0,0-.61-.64c.08.06.17.1.26.16C124.81,90.47,126.15,92.77,123.94,95.05Z"/><path class="cls-2" d="M124.88,86.86c-3.73-2.11-8-2.32-12.17-1.79a43.28,43.28,0,0,0-11.47,3.18c-2.44,1-7,3.13-7,6.4,0,3.55,3.38,6.58,6.43,7.88a18.06,18.06,0,0,0,9.37,1.36.15.15,0,0,0,.16,0l.3-.1.54-.08a.32.32,0,0,0,.24-.17c3.44-1,7.09-1.34,10.48-2.59,2.85-1,6.5-3.11,7.19-6.38S127.64,88.42,124.88,86.86Zm1.58,10.56c-4.09,4-10.08,4-15.24,5.74a.38.38,0,0,0-.38-.14,16.36,16.36,0,0,1-10.23-1.39c-3.11-1.61-7.8-5.91-4.27-9.41a20.17,20.17,0,0,1,8-4.3,42.37,42.37,0,0,1,9.61-2.25c3.7-.33,7.91-.13,11.07,2.09C128.38,90.14,129.77,94.22,126.46,97.42Z"/><path class="cls-2" d="M116,78.73a13,13,0,0,0,2.44.91,7,7,0,0,0,3.3.63c.48,0,1-.07,1.45-.13a18.59,18.59,0,0,0,4-.6,19.24,19.24,0,0,1-7.11,1.28.14.14,0,0,0,0,.27,17.65,17.65,0,0,0,9.24-2c.36-.19.72-.41,1.09-.63,2.54-1.15,5-3,4.68-5.83A4,4,0,0,0,135,72c-.48-4-7.43-5-10.65-4.62s-7.41,1.9-9.45,4.77C113.34,74.37,113.28,77.34,116,78.73Zm7.62.58a14.42,14.42,0,0,1-1.47,0A20.34,20.34,0,0,1,119,79a2.87,2.87,0,0,1-1.56-1.43,2.57,2.57,0,0,1,.21-2.54,1.4,1.4,0,0,0,0,.54,2.19,2.19,0,0,0,1.62,1.67,4.82,4.82,0,0,0,1.3.86,10.17,10.17,0,0,0,6.79.17A14.64,14.64,0,0,1,123.66,79.31Zm3.09-5.26c.21.3.14.69-.5,1s-4.93,1.42-4.19-.39a1.22,1.22,0,0,1,.16-.26A3.85,3.85,0,0,0,126.75,74.05Zm-2.37.17a1.46,1.46,0,0,1,1.39-.42A3.32,3.32,0,0,1,124.38,74.22Zm-3-1.6a15.71,15.71,0,0,0-2,.71l.11-.16a18.76,18.76,0,0,1,3-1.75,16.77,16.77,0,0,1,4.57-.75c1.37,0,3.3,0,4.38,1a2.85,2.85,0,0,1-.16,4,7.64,7.64,0,0,1-.58.55c1.31-1.73.91-3.86-1.37-4.36a3.16,3.16,0,0,0-.88-.22,10.61,10.61,0,0,0-2.57.16A24.4,24.4,0,0,0,121.39,72.62Zm.54.68.33-.08a3.76,3.76,0,0,0-.56.57c-1.4,1.8.62,2.94,2.32,2.75,1.33-.14,4.69-1.11,3.47-3.14a1.8,1.8,0,0,0-1.49-.77,9.76,9.76,0,0,1,1.83-.27,4.82,4.82,0,0,1,1.63.36.77.77,0,0,1,.27.71c-.27,2.78-6.47,3.38-8.49,3.3a7.28,7.28,0,0,1-1.95-.42,2,2,0,0,1-.39-.89,2.84,2.84,0,0,1,0-.82A7.82,7.82,0,0,1,121.93,73.3Zm5.79,3.88a12.11,12.11,0,0,1-3.31.68,9.86,9.86,0,0,1-3.17-.32,12.57,12.57,0,0,0,1.45-.07c2.43-.23,5.63-.77,7.32-2.73a1.88,1.88,0,0,0,.52-1.17C131.44,75,129,76.75,127.72,77.18Zm6.7-4.42a3.39,3.39,0,0,1-.58,1.72,10.73,10.73,0,0,1-1.75,2.11A12.72,12.72,0,0,1,129.61,78c.3-.19.6-.39.88-.6C132,76.19,133.75,74,132.61,72a4.4,4.4,0,0,0-3.36-2c1.56,0,3.25.23,4.26,1.22A3.07,3.07,0,0,1,134.42,72.76Zm-12.1-4.3a14,14,0,0,1,7.87.05,9.87,9.87,0,0,1,2.51,1.31,13,13,0,0,0-5-.56,15.51,15.51,0,0,0-5,1.26,7.85,7.85,0,0,0-3,1.6c-1.68,1.08-3.72,2.79-3.24,4.9A3.71,3.71,0,0,0,117,78.4a4.94,4.94,0,0,1-1.57-1.06C111.68,73.35,119.29,69.21,122.32,68.46Z"/><path class="cls-2" d="M117.72,82h-.17c-.19,0-.19.29,0,.3,4.1,0,8.29.59,12.31-.48,3-.82,6.51-2.49,7.93-5.5,2.26-4.81-4.83-8.61-8.41-9.61-5-1.39-12,.17-15.64,4C109.63,74.89,112.65,80.77,117.72,82Zm-.8-12.75c3.94-2.06,8.74-3.18,13-1.65,3.87,1.37,10.7,5.86,5.91,10.29-4.37,4-10.5,4.29-16.2,4.16a.38.38,0,0,0-.3-.58c-3.25-.13-7-2.57-6.91-6.2C112.54,72.41,114.54,70.45,116.92,69.21Z"/><path class="cls-2" d="M150.88,100.29c-5.49-2.86-12.72-2.36-18.19.29-.18.09,0,.36.16.27a21.73,21.73,0,0,1,15.58-1c2.45.86,6.81,3.37,5.61,6.64-1,2.76-4.39,4.18-7,4.76-3.86.85-8.39,1.33-12.17-.14a6.38,6.38,0,0,1-4-3.65,6.11,6.11,0,0,0,.51.51c3.15,2.74,9.05,2.93,13,2.47,2.16-.25,4.64-.73,6.14-2.45a3.29,3.29,0,0,0-.56-4.83l-.27-.16a4.77,4.77,0,0,0-1.13-1c-2.79-1.77-6.4-1.67-9.55-1.26-1.65.21-6.23,1.47-8.05,3.41a4.85,4.85,0,0,1,4.65-3.1.38.38,0,0,0,0-.75,5.55,5.55,0,0,0-5.67,4.75,5.91,5.91,0,0,0,2.4,5.46c4.2,3,10.74,2.55,15.46,1.22,2.44-.68,6.35-2.24,6.95-5.09S153.22,101.5,150.88,100.29ZM149.65,104a1.47,1.47,0,0,1,0,1.64,6.54,6.54,0,0,1-3.33,2.09,19.49,19.49,0,0,1-7,1.29,19.15,19.15,0,0,0,3.22-.53c1.56-.41,6.58-2.18,4.44-4.61a5.67,5.67,0,0,0-2-1.4A10.33,10.33,0,0,1,149.65,104Zm-12,2.07c1.26.34,5.24.59,5.77-1.11.73-2.3-3.13-1.65-4-.65a.42.42,0,0,0,.08.64,2.34,2.34,0,0,0,.63.26.33.33,0,0,0,.42.06,2,2,0,0,0,.88-.26.41.41,0,0,0-.1-.74l-.2,0a2.49,2.49,0,0,1,.88-.1c.58.56.56.88,0,1l-.3.09c-.21.05-.43.1-.65.13-.95.13-2.61.39-3.44-.23-1-.78,2.05-1.44,2.49-1.53a12.22,12.22,0,0,1,2.55-.34,6.82,6.82,0,0,1,2,.34,4.84,4.84,0,0,1,1.32.57q.33,1.39-.78,1.74a9.82,9.82,0,0,1-2.72.65c-2.18.3-5.39.71-7.36-.5a1.47,1.47,0,0,1-.83-1.31,6.64,6.64,0,0,1,1.91-1,19.33,19.33,0,0,1,4.81-1.23c.29,0,.57,0,.86,0a11.61,11.61,0,0,0-3.82.82C136.69,103.85,135.57,105.5,137.7,106.07Zm-.49,1.37a17.77,17.77,0,0,0,7.45-.52,12.52,12.52,0,0,1-2.35.8,15.12,15.12,0,0,1-5,.43c-1-.11-4.33-.82-3.73-2.51v0C134.2,106.77,136,107.27,137.21,107.44Zm-2.21-5c3.48-1.27,8.09-2,11.65-.65l.14.06a16.29,16.29,0,0,0-6.39-.17c-.29,0-.57,0-.85,0-1.71.11-5.4.28-6,2.37a2.4,2.4,0,0,0-.09.5,1.85,1.85,0,0,0,.08,2.84,7,7,0,0,0,5.25,1.63.09.09,0,0,0,.07.13,17.55,17.55,0,0,0,6.24-.68c1.61-.42,4.05-1,5-2.6a2.11,2.11,0,0,0,.3-1.13,2.14,2.14,0,0,1-.16,2.2c-1.31,2.35-4.93,2.73-7.32,2.82a23.13,23.13,0,0,1-8.82-1.16c-1.13-.42-3.16-1.29-3.07-2.81C131.06,104,133.53,103,135,102.43Z"/><path class="cls-2" d="M74.14,109.53c-1,.49-2.6,1.37-3.12,2.55a1.82,1.82,0,0,0-.42.9c-.19,1.16.52,1.88,1.74,2.3,2,1.53,5.17,1.76,7.39,1.87a35.32,35.32,0,0,0,9-.41c3.74-.33,8.06-1.32,8.95-4.61C100.13,102.91,78.28,107.53,74.14,109.53Zm-2.46,3,.26-.23c1.64-1.3,4-1.78,6-2.21l.92-.18a6.66,6.66,0,0,0-2.32,2.31c-.78,1.32,0,2.13,1.3,2.61-.65,0-1.29,0-1.93,0a14.28,14.28,0,0,1-3.43-.57A1.83,1.83,0,0,1,71.68,112.58Zm21.25-2.87a4.9,4.9,0,0,1,.52.24c1.9,1,1.3,2.79-.46,3.59a18,18,0,0,1-5.71,1.27,8.12,8.12,0,0,0,3-1.4A4.39,4.39,0,0,0,93,111.67C93.54,110.74,93.43,110.12,92.93,109.71Zm-9.72,3.78c-.49,0-1,0-1.45,0a11,11,0,0,1-1.39-.16A7.33,7.33,0,0,1,83,111.86a9.13,9.13,0,0,1,4.53-.59c2.17.49-.63,1.51-1.42,1.71A18.64,18.64,0,0,1,83.21,113.49Zm.71.83c-1,.15-1.93.28-2.89.37a3,3,0,0,1-.41-.17,1.63,1.63,0,0,1-.36-.3,7.91,7.91,0,0,0,2,.12C82.84,114.36,83.38,114.34,83.92,114.32Zm7.13-2.14a1.75,1.75,0,0,0,0-.71,3.37,3.37,0,0,0-2.36-1.92,5.8,5.8,0,0,1,3.37.53C93.21,110.79,92,111.72,91.05,112.18Zm-3.73-3-.24,0a10.16,10.16,0,0,0-1.25-.15,21.13,21.13,0,0,1,3.28,0l.43,0A21,21,0,0,0,87.32,109.2Zm-.63.63a7,7,0,0,1,1.65.44c.53.22,2.8,1.16,1.61,2.24l-.16.12c-.43.13-.86.24-1.3.33a2.15,2.15,0,0,0,.56-.61c1-1.82-2.4-2-3.32-1.88-1.79.21-4.85.74-6,2.43,0-.19,0-.43.44-.73a10.13,10.13,0,0,1,3.5-1.56C84.46,110.38,85.54,110.07,86.69,109.83ZM79,112.14c.08-.68,1.16-1.21,1.56-1.39a12.84,12.84,0,0,1,2.27-.73C81.78,110.36,79.67,111,79,112.14Zm.28,1.66a1.08,1.08,0,0,0,.21.77c-1.54-.34-3.48-1.27-1.4-3a6,6,0,0,1,.5-.38,2.49,2.49,0,0,0-.51.86C77.85,112.75,78.65,113.48,79.31,113.8Zm2.23,2.65a25.94,25.94,0,0,1-6.21-.69,36.3,36.3,0,0,0,5.67-.27l.4,0a7.62,7.62,0,0,0,1.15.17,32,32,0,0,0,7.81-.56,13.13,13.13,0,0,0,2.74-.79,16.15,16.15,0,0,1-3.86,1.44A28.47,28.47,0,0,1,81.54,116.45Zm12.89-1.76a13.55,13.55,0,0,1-1.63.66c2-1,4.71-3.57,2-5.59-2.22-1.69-5.64-1.86-8.34-1.73a21.77,21.77,0,0,0-4.45.63,42.86,42.86,0,0,0-7,1.44c-.31.1-.71.21-1.15.36a22,22,0,0,1,5.76-2,43.1,43.1,0,0,1,6.41-1c2.79-.22,6-.45,8.68.55C98.31,109.39,97.54,113.17,94.43,114.69Z"/><path class="cls-2" d="M96.33,104.88c-5.29-2.32-12.16-1.09-17.65.12-3.64.8-11.63,2.5-11.24,7.62.45,5.72,8.58,6.9,13.41,7,0,.14,0,.33.21.31,3.29-.34,6.63-.4,9.89-1,3.7-.63,8.13-2,9.76-5.76C102.15,110,99.27,106.16,96.33,104.88Zm-4.5,13.38c-3.16.61-6.39.64-9.57,1.08a.35.35,0,0,0-.35-.38,24.62,24.62,0,0,1-8.81-1.4c-2.38-.93-6.28-3.6-4.65-6.69,1.15-2.19,3.87-3.29,6.09-4A47.39,47.39,0,0,1,82,105.06c5.55-.88,14.52-2.37,17.67,3.66C102.47,114.14,96.29,117.4,91.83,118.26Z"/><path class="cls-2" d="M110.9,115.54c-1.27.44-4,1.56-3.67,3.31s3.17,2.5,4.71,2.76a14.93,14.93,0,0,0,5.33-.16c1.62-.31,3.82-.71,4.91-2.1a1.74,1.74,0,0,0,.11-.18c-.91,2.29-5.45,2.87-7.5,3.19-.15,0-.11.27,0,.25,2.42-.31,10.42-1.57,7.74-5.84C120.4,113.31,114.07,114.46,110.9,115.54Zm8.15,4.78a14.68,14.68,0,0,1-8.07.36,5.75,5.75,0,0,1-2.71-1.29c-1-1.12.6-2.18,1.5-2.65l.09,0a1.92,1.92,0,0,1-.17.13c-1.68,1.37-.68,2.94,1.14,3.34a12.17,12.17,0,0,0,7.35-.62c1.37-.65,2.14-2.14.43-3a9.14,9.14,0,0,0-6.78.24c-1.06.49-1.88,1.83-1,2.52-1.1-.32-2-.89-.87-1.82a9.35,9.35,0,0,1,4.77-1.61c2.13-.24,5.94-.36,7,2.08C122.3,119.35,120,120.06,119.05,120.32Zm-1.19-2a.35.35,0,0,0,0-.49c-1.42-1.75-4,0-4,1.22a7,7,0,0,1-1,0c-.55,0-2.63-.34-1.43-1.27a4.58,4.58,0,0,1,1.82-.76,10,10,0,0,1,4.36-.12c2.14.53,1,1.78-.5,2.21-.36.1-.72.19-1.09.26A3.92,3.92,0,0,0,117.86,118.36Zm-3.18.61a2.68,2.68,0,0,1,1.75-1.11c1.37.1.65.38-.05.63A11.85,11.85,0,0,1,114.68,119Zm4-3.68c-.37-.07-.76-.12-1.17-.16,2.15,0,4.27.5,4.82,2.35,0,.11.06.22.08.33C121.86,116.52,119.67,115.47,118.68,115.29Z"/><path class="cls-2" d="M117.05,111.64c-3.92-.42-9.73.66-12.42,3.76a4,4,0,0,0,.34,5.28,9.27,9.27,0,0,0,4.67,2.93c0,.1,0,.24.1.26,3.35.51,7,.82,10.29-.3,2.25-.77,5.55-2.5,6-5.15C126.82,114,120.34,112,117.05,111.64Zm8,7.44c-2.48,4.2-7.77,4.84-12.42,4.64a.32.32,0,0,0-.31-.42c-2.69-.1-6-1.29-7.29-3.86-1.13-2.24,0-4,2.1-5.06a18.11,18.11,0,0,1,9.9-2C119.7,112.69,127.49,115,125.07,119.08Z"/><path class="cls-2" d="M177,98.57a20.41,20.41,0,0,0-8.92.89c-1.76.68-3.59,3.07-1.62,4.69s5,1.33,7.28,1.06,4.82-.65,6.81-2a3.16,3.16,0,0,0,2.16-2C183.31,98.89,178.28,98.69,177,98.57Zm.5,1.47.17,0a7.83,7.83,0,0,1,1.29,0c.81.18,1.55.5,1.33,1.1s-1.33,1.06-2,1.25a18.26,18.26,0,0,1-2.06.45c.17-.08.34-.15.48-.23a2.58,2.58,0,0,0,.78-.59,1.46,1.46,0,0,0,.41-.81.28.28,0,0,0,0-.09A1.24,1.24,0,0,0,177.54,100Zm-10.73,2.53a2.09,2.09,0,0,0,0,.65,1.62,1.62,0,0,1,.38-2.43,9,9,0,0,1,4.56-1.49c.9-.1,1.83-.17,2.76-.2l-1.35.19C171.17,99.57,167.33,100.09,166.81,102.57Zm4.79-.42a3.59,3.59,0,0,1-.47-.12,2.08,2.08,0,0,1,.56-.42A.87.87,0,0,0,171.6,102.15Zm-4,1c-.19-1.21.92-2,2.47-2.51a4.23,4.23,0,0,0-.67.58.38.38,0,0,0-.06.47,2.3,2.3,0,0,0,.91.78,1.2,1.2,0,0,0,.37.48,3.75,3.75,0,0,0,2.8.58,11,11,0,0,0,1.43.12C172.86,104,167.8,104.73,167.56,103.16Zm5-.89c-.18-.27,0-.59.66-.81a7.34,7.34,0,0,1,2.22-.38,4.92,4.92,0,0,1,1.43.12,1.38,1.38,0,0,0,.31,0l-.08.13-.25.15a4.82,4.82,0,0,1-1.83.6A13.43,13.43,0,0,1,172.57,102.27Zm8.32-.27a6.8,6.8,0,0,1-2,1.3l-.16,0a19.73,19.73,0,0,1-2.83.58.41.41,0,0,0-.13-.28,9.66,9.66,0,0,0,4-1c1-.52,1.47-1.36,1.17-2.12C181.49,100.81,181.63,101.28,180.89,102Zm1.06-.29a1.39,1.39,0,0,0-.13-1.37A.8.8,0,0,1,182,101.71Z"/><path class="cls-2" d="M171.48,96.09a15.31,15.31,0,0,0-7,3c-1.34,1.18-2.92,3.34-2.22,5.26,1.31,3.6,7.17,3.62,10.31,3.47a.4.4,0,0,0,.27-.12,16.48,16.48,0,0,0,7.8-1.82c1.92-1,5.48-3.22,4.37-6C183,95.13,175.71,95.21,171.48,96.09Zm7.26,10a19.27,19.27,0,0,1-5.83,1.22.34.34,0,0,0-.37-.27c-2.65.07-7.29.25-9.12-2.08-1.35-1.74.13-4.12,1.56-5.3A14.23,14.23,0,0,1,170.82,97c3.88-.9,9.84-1.42,12.75,2S181.4,105.09,178.74,106.09Z"/><path class="cls-2" d="M219.91,96.54a6,6,0,0,0-.86-.55c-1.16-1.29-3.59-1.8-5-2a24.48,24.48,0,0,0-10.5.53c-2,.59-7.48,2.89-4.78,5.77s7.17,2.77,10.67,2.56c2.93-.18,6.24-.34,8.92-1.61C220,100.43,222,98.16,219.91,96.54Zm-2.6,4.08a13.25,13.25,0,0,1-1.38.63,33.07,33.07,0,0,1-4.17.65,34.65,34.65,0,0,1-6.44.18,13.22,13.22,0,0,1-3.35-.63c-1.15-.41-4.16-1.76-2.93-3.58,1.57-2.29,5.26-3.07,7.85-3.35a27.49,27.49,0,0,1,6.15-.08,14.78,14.78,0,0,1,3.8.81,20.51,20.51,0,0,0-4.38-.29,25.14,25.14,0,0,0-7.06,1,6.16,6.16,0,0,0-.61.2c-1.6.38-3.26,1.06-3.66,2.45-.21.75.52,1.43,1.24,1.83,1.44,1.33,4.8,1.07,6.37,1,.82-.06,1.69-.13,2.56-.25a10.44,10.44,0,0,0,3.08-.59,3.93,3.93,0,0,0,1.6-1c1.44-1.13.82-3-.85-3.56a9.46,9.46,0,0,0-.91-.26,10.18,10.18,0,0,1,4.44.82C219.8,98,218.85,99.77,217.31,100.62ZM203.8,99.06c2.08,1.34,6.3,1.75,8.18-.12a.41.41,0,0,0-.08-.63,5.88,5.88,0,0,0-6.31.12.38.38,0,0,0,0,.55l-.29-.08c-.7-.25-1.16-.39-.25-.85,1.81-.94,4.25-.76,6.23-.54a13.09,13.09,0,0,1,3,.58c1.18.42.94.92.25,1.34a13.27,13.27,0,0,1-3.36.92c-1.12.05-2.25,0-3.38,0a18.63,18.63,0,0,1-4-.2c-1.24-.53-2.21-1.46-.48-2.5.28-.16.56-.31.86-.45l.44-.16a13.94,13.94,0,0,1,1.81-.41,28,28,0,0,1,5.92-.36,6.61,6.61,0,0,1,2.88.63,1.11,1.11,0,0,1,.65,1.2c-1-1.32-4.32-1.38-5.64-1.46-2-.11-5.81-.4-6.7,2A.39.39,0,0,0,203.8,99.06Zm2.84-.36a5.58,5.58,0,0,1,4-.13,2.3,2.3,0,0,0-.45.05.41.41,0,0,0-.37.36A5,5,0,0,1,206.64,98.7Zm12.12,1.51a3.35,3.35,0,0,0,.94-2.76l.1.14C220.37,98.74,219.82,99.59,218.76,100.21Z"/><path class="cls-2" d="M213.22,91.22a29.14,29.14,0,0,0-13.47,2.12c-2.54,1.06-5.7,3-5.9,6.09-.32,5.26,7.65,6.24,11.42,6h0a37.52,37.52,0,0,0,10.37-.44c3-.53,7.64-1.26,9.62-4C230.05,94.43,217.17,91.52,213.22,91.22ZM223.1,102a26.44,26.44,0,0,1-9.87,2.77,39,39,0,0,1-7.56.2.37.37,0,0,0-.4-.37,20.21,20.21,0,0,1-3-.09h-.06c-3.78-.39-8.63-1.82-7.47-5.68.94-3.14,4.5-4.7,7.37-5.61a28.09,28.09,0,0,1,11.11-1.3,23.17,23.17,0,0,1,9.05,2.39c1.21.69,2.7,1.66,3.08,3.1A4,4,0,0,1,223.1,102Z"/></g></svg>