<svg xmlns="http://www.w3.org/2000/svg" viewBox="0 0 177.06 24.3"><defs><style>.cls-1{fill:#fff;}.cls-2{fill:#272525;}</style></defs><title>life</title><g id="stroke"><path class="cls-1" d="M6.25,10.15a.63.63,0,0,1,.32-1A10.87,10.87,0,0,1,9,9a.52.52,0,0,1,.45.22l.39-.05C7.33,6.63,4.7,4.27,2.33,1.67,1.07,6.58.63,12.34,2,17.26c2-1.84,3.83-3.85,5.83-5.69A12,12,0,0,1,6.25,10.15Z"/><path class="cls-1" d="M117,13.73c-.65.14-1.2.26-1.52.91a2.75,2.75,0,0,0-.27,1.67c.19,1.19.8,1.83,2,1.56l-.09-1.07a28.86,28.86,0,0,1,0-3.08Z"/><path class="cls-1" d="M174,10.17s0,0-.05.09h0a2.55,2.55,0,0,0,0,.62.43.43,0,0,1,0,.12c.22-.06.55-.18.46-.45S174.15,10.17,174,10.17Z"/><path class="cls-1" d="M173.83,8.07c-1.15.25-2.28.6-3.41.93a15.17,15.17,0,0,1-8,0q-5.43-1.25-10.9-2.35a246.62,246.62,0,0,0-24.6-4c-5.22-.51-10.45-.67-15.69-.76,0,1.46.07,2.93,0,4.39a.5.5,0,0,1-1,0c0-1.46.14-2.91.14-4.36l-2.67-.05c0,1.72.06,3.44.08,5.15a.5.5,0,0,1-1,0c.13-1.71.21-3.42.3-5.13l-4.26-.07c.11,1.9,0,3.82,0,5.72a.5.5,0,0,1-1,0,49.55,49.55,0,0,0,.35-5.7L97.4,1.64c0,2.15-.06,4.31-.07,6.46a.5.5,0,0,1-1,0c.16-2.14.36-4.28.39-6.44l-5-.07A24.34,24.34,0,0,0,92,7.2a.45.45,0,0,1-.88.21,14.35,14.35,0,0,1,.07-5.87l-4.9-.05a34.77,34.77,0,0,1-.2,6.45c-.07.62-1,.56-1,0a30,30,0,0,0,.53-6.41H81.78a4.69,4.69,0,0,1,.34,3.05c-.18,1.47-.48,2.92-.78,4.37-.12.62-1,.31-.93-.29.38-2,2-5.12,1-7.13-1.37,0-2.75,0-4.12,0A61,61,0,0,1,77.2,9c0,.64-1.06.6-1,0,.23-2.5.4-5,.52-7.49q-2.49,0-5,.09c.59,1.71,0,4.09-.42,5.69-.14.61-1.14.31-.95-.3a14.14,14.14,0,0,0,.73-5.37c-1.29,0-2.58.07-3.86.12,0,.76,0,1.53-.06,2.29,0,1.07,0,2.15,0,3.22a.47.47,0,0,1-.93,0,20.7,20.7,0,0,1,.54-5.47c-1.85.07-3.71.16-5.57.27a15.55,15.55,0,0,1-.63,6.8.46.46,0,0,1-.87-.27A16.7,16.7,0,0,0,60.8,2c-1.29.07-2.58.17-3.87.26A19.46,19.46,0,0,1,56.6,8c-.13.6-1.05.31-.91-.29.41-1.78.48-3.58.73-5.37-.79.05-1.58.1-2.37.17l-1.42.13a41.51,41.51,0,0,1-1,5.17c-.13.59-1,.31-.89-.28.37-1.62.95-3.18,1.22-4.82q-2.14.21-4.29.48a10,10,0,0,1-1,4.39c-.3.53-1.08,0-.8-.5A9.64,9.64,0,0,0,47,3.29c-1.57.2-3.13.43-4.69.67-.23,1-.57,2.1-.88,3.13-.15.49-.94.23-.76-.24.36-.92.65-1.86,1-2.79-2.34.37-4.68.77-7,1.18a.35.35,0,0,1,.1.17,8.19,8.19,0,0,1-.3,2.69c-.12.54-1,.28-.84-.27a11.22,11.22,0,0,0,.54-2.36.35.35,0,0,1,.07-.15L30.48,6c0,.26-.12.51-.16.75A9.27,9.27,0,0,1,30.11,8a.42.42,0,0,1-.82-.14A5.51,5.51,0,0,1,29.6,6.5c0-.12.07-.26.11-.39l-.3.06-2.78.46a17.07,17.07,0,0,1-.29,1.92.42.42,0,0,1-.82-.14A5,5,0,0,1,26,6.74c-2.85.46-5.72.9-8.52,1.54A49.79,49.79,0,0,1,9.53,9.7a.55.55,0,0,1-.58.47,8.42,8.42,0,0,0-.87,0c.24.21.49.4.74.59a.61.61,0,0,1,.64.45c4.5,3,10.91,3.67,15.93,4.67Q36.1,18,46.94,19.43A399.78,399.78,0,0,0,88.56,23a245.15,245.15,0,0,0,29.69-.85,10.44,10.44,0,0,1-1-3.65c-1.35.71-2.67-.52-2.86-2s.58-3.83,2.55-3.62l.13,0a33.62,33.62,0,0,1,.58-4.53c0-.14.25-.1.24,0a37.67,37.67,0,0,0,.08,8.29c.24,1.76.36,3.77,1.31,5.32q5.68-.55,11.32-1.48a158.6,158.6,0,0,0,19.73-4.48c3.05-.92,6.05-2,9.1-2.93,2.43-.73,5.54-1.93,8.13-1.59,2.18.27,6.2,3,7.74.68C176.22,10.81,176.64,7.48,173.83,8.07Zm-36.27-.94c-.59,0-1.18,0-1.77-.08A4.34,4.34,0,0,1,135,7a3.71,3.71,0,0,0-.47,0c-.64.07-.88-.91-.24-1a10.15,10.15,0,0,1,3.3.12h0l.13,0C138.26,6.29,138.1,7.17,137.56,7.13Zm37.61,3.57a1.23,1.23,0,0,1-1.68.93.52.52,0,0,1-.28-.53.51.51,0,0,1-.1-.25c-.05-.67.18-1.65,1.07-1.45A1.31,1.31,0,0,1,175.17,10.7Z"/><path class="cls-2" d="M175.05,7.05c-1.54-.5-4,.69-5.45,1.09-3.76,1-7.6-.44-11.29-1.19-7.58-1.54-15.15-3.11-22.8-4.27a180.29,180.29,0,0,0-24-1.77C95.27.63,79,.14,62.82,1A204.9,204.9,0,0,0,39.63,3.48C31.9,4.77,24,5.89,16.37,7.77c-2,.48-3.89,1-5.86,1.26a.31.31,0,0,0-.06-.13C8.06,5.74,5,3.17,2.44.17a.56.56,0,0,0-.93.21C-.11,6-.69,12.83,1.1,18.43a.58.58,0,0,0,.93.28c2.34-2,4.38-4.38,6.69-6.46,4.14,2.77,9.72,3.46,14.43,4.45,7.54,1.57,15.16,2.79,22.79,3.84a393.83,393.83,0,0,0,46.27,3.72,208.6,208.6,0,0,0,45-3.74,186.85,186.85,0,0,0,21.65-6.06c3.2-1.06,7-2.47,10.39-1.6,1.42.37,3.82,2,5.31,1.23C176.94,12.83,178.52,8.15,175.05,7.05ZM2,17.26C.63,12.34,1.07,6.58,2.33,1.67c2.37,2.6,5,5,7.5,7.45l-.39.05A.52.52,0,0,0,9,9a10.87,10.87,0,0,0-2.42.16.63.63,0,0,0-.32,1,12,12,0,0,0,1.53,1.42C5.78,13.41,4,15.42,2,17.26Zm173.33-5c-1.54,2.35-5.56-.41-7.74-.68-2.59-.34-5.7.86-8.13,1.59-3,.93-6,2-9.1,2.93a158.6,158.6,0,0,1-19.73,4.48q-5.64.93-11.32,1.48c-1-1.55-1.07-3.56-1.31-5.32a37.67,37.67,0,0,1-.08-8.29c0-.14-.22-.18-.24,0a33.62,33.62,0,0,0-.58,4.53l-.13,0c-2-.21-2.75,2.06-2.55,3.62s1.51,2.69,2.86,2a10.44,10.44,0,0,0,1,3.65A245.15,245.15,0,0,1,88.56,23a399.78,399.78,0,0,1-41.62-3.55Q36.11,18,25.39,15.88c-5-1-11.43-1.67-15.93-4.67a.61.61,0,0,0-.64-.45c-.25-.19-.5-.38-.74-.59a8.42,8.42,0,0,1,.87,0,.55.55,0,0,0,.58-.47,49.79,49.79,0,0,0,7.9-1.42C20.23,7.64,23.1,7.2,26,6.74a5,5,0,0,0-.43,1.67.42.42,0,0,0,.82.14,17.07,17.07,0,0,0,.29-1.92l2.78-.46.3-.06c0,.13-.07.27-.11.39a5.51,5.51,0,0,0-.31,1.38.42.42,0,0,0,.82.14,9.27,9.27,0,0,0,.21-1.3c0-.24.13-.49.16-.75l3.67-.65a.35.35,0,0,0-.07.15,11.22,11.22,0,0,1-.54,2.36c-.15.55.72.81.84.27a8.19,8.19,0,0,0,.3-2.69.35.35,0,0,0-.1-.17c2.34-.41,4.68-.81,7-1.18-.33.93-.62,1.87-1,2.79-.18.47.61.73.76.24.31-1,.65-2.08.88-3.13,1.56-.24,3.12-.47,4.69-.67a9.64,9.64,0,0,1-1.11,3.79c-.28.52.5,1,.8.5a10,10,0,0,0,1-4.39q2.15-.27,4.29-.48c-.27,1.64-.85,3.2-1.22,4.82-.13.59.76.87.89.28a41.51,41.51,0,0,0,1-5.17l1.42-.13c.79-.07,1.58-.12,2.37-.17-.25,1.79-.32,3.59-.73,5.37-.14.6.78.89.91.29a19.46,19.46,0,0,0,.33-5.7c1.29-.09,2.58-.19,3.87-.26a16.7,16.7,0,0,1-1.12,6.51.46.46,0,0,0,.87.27A15.55,15.55,0,0,0,61.18,2c1.86-.11,3.72-.2,5.57-.27a20.7,20.7,0,0,0-.54,5.47.47.47,0,0,0,.93,0c.07-1.07,0-2.15,0-3.22,0-.76.09-1.53.06-2.29,1.28-.05,2.57-.09,3.86-.12A14.14,14.14,0,0,1,70.37,7c-.19.61.81.91.95.3.37-1.6,1-4,.42-5.69q2.49-.06,5-.09C76.6,4,76.43,6.5,76.2,9c-.06.64,1,.68,1,0a61,61,0,0,0,0-7.53c1.37,0,2.75,0,4.12,0,1.07,2-.57,5.09-1,7.13-.11.6.81.91.93.29.3-1.45.6-2.9.78-4.37a4.69,4.69,0,0,0-.34-3.05h3.85A30,30,0,0,1,85.1,7.9c-.1.6.88.66,1,0a34.77,34.77,0,0,0,.2-6.45l4.9.05a14.35,14.35,0,0,0-.07,5.87A.45.45,0,0,0,92,7.2a24.34,24.34,0,0,1-.22-5.65l5,.07c0,2.16-.23,4.3-.39,6.44a.5.5,0,0,0,1,0c0-2.15.09-4.31.07-6.46l4.72.09a49.55,49.55,0,0,1-.35,5.7.5.5,0,0,0,1,0c0-1.9.09-3.82,0-5.72l4.26.07c-.09,1.71-.17,3.42-.3,5.13a.5.5,0,0,0,1,0c0-1.71-.08-3.43-.08-5.15l2.67.05c0,1.45-.13,2.9-.14,4.36a.5.5,0,0,0,1,0c.1-1.46,0-2.93,0-4.39,5.24.09,10.47.25,15.69.76a246.62,246.62,0,0,1,24.6,4q5.46,1.11,10.9,2.35a15.17,15.17,0,0,0,8,0c1.13-.33,2.26-.68,3.41-.93C176.64,7.48,176.22,10.81,175.28,12.24ZM117.07,16.8l.09,1.07c-1.15.27-1.76-.37-2-1.56a2.75,2.75,0,0,1,.27-1.67c.32-.65.87-.77,1.52-.91h0A28.86,28.86,0,0,0,117.07,16.8Z"/><path class="cls-2" d="M137.72,6.18l-.13,0h0a10.15,10.15,0,0,0-3.3-.12c-.64.07-.4,1,.24,1A3.71,3.71,0,0,1,135,7a4.34,4.34,0,0,0,.79.06c.59,0,1.18,0,1.77.08S138.26,6.29,137.72,6.18Z"/><path class="cls-2" d="M174.18,9.4c-.89-.2-1.12.78-1.07,1.45a.51.51,0,0,0,.1.25.52.52,0,0,0,.28.53,1.23,1.23,0,0,0,1.68-.93A1.31,1.31,0,0,0,174.18,9.4Zm-.25,1.6a.43.43,0,0,0,0-.12,2.55,2.55,0,0,1,0-.62h0s0-.09.05-.09.34.22.39.38S174.15,10.94,173.93,11Z"/></g></svg>