<svg xmlns="http://www.w3.org/2000/svg" viewBox="0 0 164.1 115.66"><defs><style>.cls-1{fill:#fff;}.cls-2{fill:#272525;}</style></defs><title>life</title><g id="color"><path class="cls-1" d="M67.92,32a.18.18,0,0,1-.3,0c-.12-.16-.18-.35-.3-.51a.17.17,0,0,1,0-.11c-.21.21-.4.5-.23.79a.73.73,0,0,0,.65.38c.67-.06.71-1.16.26-1.52a1.18,1.18,0,0,0-1.82,1.44c.72,1.27,2.59.42,2.94-.74a1.53,1.53,0,0,0-.83-1.83,1.59,1.59,0,0,0-1.72.43,3.57,3.57,0,0,0-.42.51,1.47,1.47,0,0,1,2.48.69c.12.81-.46,1.63-1.31,1.29s-.7-1.33-.09-1.84c.07,0,.19-.08.25,0,.22.28.38.39.46.63a.39.39,0,0,0,.1.08C68.18,31.78,68.08,32,67.92,32Z"/><path class="cls-1" d="M64.58,19.1a2,2,0,0,0,.2.47,3.49,3.49,0,0,1-.22-1.32A2,2,0,0,0,64.58,19.1Z"/><path class="cls-1" d="M64,16.19a4.38,4.38,0,0,0-1,3.87,4.22,4.22,0,0,0,.53,1.16A4.92,4.92,0,0,1,64,16.19Z"/><path class="cls-1" d="M65,30.61a3.7,3.7,0,0,1,.58-.84l.17-.18.13-.12,0,0a3.9,3.9,0,0,1,2.17-1,2.41,2.41,0,0,0-2.78,1.06A5.11,5.11,0,0,0,64.54,32,4.51,4.51,0,0,1,65,30.61Z"/><path class="cls-1" d="M68.69,21.35c1-.71,2-1.91,2-3.19a2.46,2.46,0,0,0-1.36-2,3.21,3.21,0,0,0-3.56.23,3.43,3.43,0,0,1,1.46-.19c.83-.24,1.7-.13,2,.82h0a2.59,2.59,0,0,1,.53.69c1,2.07-1.61,4.31-3.6,3.43a2.47,2.47,0,0,1-.68-.46,2.26,2.26,0,0,1-1.15-1.11,2.48,2.48,0,0,1,.52-2.63,2.59,2.59,0,0,1,.73-.92,3.6,3.6,0,0,1,4.29.08c1.5,1.1,1.34,2.95.27,4.29a4.43,4.43,0,0,1-3.27,2A3.71,3.71,0,0,1,64,20.9a4.3,4.3,0,0,1-.51-.87,3.21,3.21,0,0,0,1.35,2.18c2.57,1.67,5.73-.79,6.34-3.37a3.14,3.14,0,0,0-.27-2.32,1.33,1.33,0,0,0-.14-.19,4.15,4.15,0,0,0-2.36-1.28A4.59,4.59,0,0,0,64,17C62.33,19.85,65.86,23.46,68.69,21.35Z"/><path class="cls-1" d="M65.63,31.89a1.52,1.52,0,0,0,.71,1.89c1.31.69,2.8-.49,3.17-1.76A2.1,2.1,0,0,0,67,29.33a3,3,0,0,0-1.24.84,2.74,2.74,0,0,0-.63,1.26,2.81,2.81,0,0,0,.28,1.86,2.63,2.63,0,0,1,.27-2.4,2.55,2.55,0,0,1,2.28-1.44,1.94,1.94,0,0,1,1.59,2c-.27,1.78-3.38,3-3.86.72A1.63,1.63,0,0,1,65.63,31.89Z"/><path class="cls-1" d="M68,34.55l.22-.1a4.93,4.93,0,0,0,2.18-2.22,3.09,3.09,0,0,0,0-1.25A3.33,3.33,0,0,0,69,28.92a2.91,2.91,0,0,0-1,0l.26.08c2.35.89,2.11,4,0,5a2.13,2.13,0,0,1-2.57-.35,2.35,2.35,0,0,0,2,.89Z"/><path class="cls-1" d="M65.59,33.6l.1.1a3.65,3.65,0,0,1-.24-.31A1,1,0,0,0,65.59,33.6Z"/><path class="cls-1" d="M66.76,20.94a2.45,2.45,0,0,0,.39,0c1.34,0,3.11-1.54,2.38-3l-.12-.21A2.86,2.86,0,0,1,66.76,20.94Z"/><path class="cls-1" d="M66.9,19.88c-.72-.19-1.61-.55-1.78-1.37a1.81,1.81,0,0,1,.76-1.62,3,3,0,0,1,.43-.31,2.47,2.47,0,0,0-1.11.58,2.39,2.39,0,0,0-.19.57,3.1,3.1,0,0,0,.63,2.62,2.34,2.34,0,0,0,1.52.19A2.52,2.52,0,0,0,69,17.69a1.5,1.5,0,0,0-.09-.45,3.26,3.26,0,0,0-1.77-.71,2.42,2.42,0,0,0-1.64,1.4c-.57,1.68,3.52,2.62,2.94.23,0-.05,0-.11,0-.18a1,1,0,0,1-.33.58.49.49,0,0,1-.53.38,1.39,1.39,0,0,1-1,.23c-.6-.17-.46-.84-.29-1.29,0-.1.09-.22.15-.34l.06-.13,0-.05c.24-.4.6-.78,1-.74a1.41,1.41,0,0,1,1.11.93C69.23,18.93,68.54,20.33,66.9,19.88Z"/><path class="cls-1" d="M67.94,17.86a.2.2,0,0,1,.11,0c0-.1-.13-.18-.35-.23a2.29,2.29,0,0,0-.9-.08,1.19,1.19,0,0,0-.08.16,1,1,0,0,0,.25.49,1.22,1.22,0,0,0,.49.36l.09-.06C67.45,18.18,67.48,18.06,67.94,17.86Z"/><path class="cls-1" d="M67.18,17.09l-.07.07a2,2,0,0,1,1.06.29C67.94,17.07,67.59,16.79,67.18,17.09Z"/><path class="cls-1" d="M66.51,18.21c-.13.42-.06.76.52.57h0A1.73,1.73,0,0,1,66.51,18.21Z"/><path class="cls-1" d="M66.71,34.76A2.81,2.81,0,0,1,64.85,33,2.06,2.06,0,0,0,66.71,34.76Z"/><path class="cls-1" d="M65.21,29.05A5.68,5.68,0,0,0,64,30.81a4.09,4.09,0,0,0-.28,3.08,2.15,2.15,0,0,0,1.73,1.3l-.15-.13C63.89,33.67,63.94,30.65,65.21,29.05Z"/><path class="cls-1" d="M81.15,34.41a.64.64,0,0,1-.11-.16c-.14-.31-.24-.4-.62-.2s-.77,1.24-.06,1.43a1.17,1.17,0,0,0,.93-.15c.6-.38.9-1.47-.05-1.65h-.11c.15.17.2.5.39.61a.17.17,0,0,1-.08.31c-.2,0-.31.58-.63.55s-.47-.44-.56-.74.16-.26.28-.17a.79.79,0,0,0,.29.18.18.18,0,0,1,.09.26C81,34.61,81.06,34.5,81.15,34.41Z"/><path class="cls-1" d="M85.05,25.43a2.37,2.37,0,0,0-.09-.36,2.34,2.34,0,0,0-1.75-1.68,2.22,2.22,0,0,0-2.43,1.41c-.53,2.11,3.34,3.08,3.8,1a1.33,1.33,0,0,0-1-1.62c-.69-.12-2.08.39-2.05,1.27a1.19,1.19,0,0,0,1.46,1c.36-.11.88-.54.73-1a.73.73,0,0,0-.05-.12,1.36,1.36,0,0,1-1.1.41.19.19,0,0,1-.17-.23c.18-.63.6-.82,1-.75a.37.37,0,0,1,.32-.19.19.19,0,0,1,.22.23,1.72,1.72,0,0,1-.07.21A.86.86,0,0,1,84,26.21c-.67.94-2.51.84-2.71-.47s1.91-2.46,3-1.66A1.72,1.72,0,0,1,84.87,26,5.4,5.4,0,0,0,85.05,25.43Z"/><path class="cls-1" d="M81,32.81a2.53,2.53,0,0,0-2.17,1.71c-.29.84,0,1.48.76,1.55-.91-.48-.62-1.93.35-2.44.73-.38,1.79-.49,2.2.38s-.46,1.69-1.26,1.82c-1.06.18-1.49-.92-1-1.71A1,1,0,0,1,80,33.9a1.39,1.39,0,0,0-.44.36c-.4.5-.51,1.46.28,1.62a3.07,3.07,0,0,0,1.85-.35c.47-.24,1.21-.7,1.21-1.32C82.93,33.37,81.67,32.78,81,32.81Z"/><path class="cls-1" d="M84.71,23.62a2.85,2.85,0,0,0-2-.79c-1.33,0-3.5.64-3.4,2.33A3.43,3.43,0,0,0,81.55,28a2.79,2.79,0,0,0,1.22.08,2.94,2.94,0,0,0,2-1.72,1.78,1.78,0,0,1-.85.77,2.63,2.63,0,0,1-3.28-1,2.12,2.12,0,0,1,1.28-2.91,2.49,2.49,0,0,1,3.21,1.4A1.58,1.58,0,0,0,84.71,23.62Z"/><path class="cls-1" d="M84.39,22.12a4.9,4.9,0,0,0-3-.39.09.09,0,0,1-.06.13,4.64,4.64,0,0,0-.65.11l-.26.15a3.14,3.14,0,0,0-1.49,3.62A3.41,3.41,0,0,0,79.62,27a3.64,3.64,0,0,1-.59-1.2,2.52,2.52,0,0,1,2-3c1.23-.41,3.06-.45,4,.63a2.57,2.57,0,0,1,.42,2.29,2.46,2.46,0,0,1-.84,2,2.93,2.93,0,0,1-2,.78,4,4,0,0,1-3.91-2.3,3.27,3.27,0,0,1,.67-3.57,3.59,3.59,0,0,0-1.43,4.3c.95,2.5,4.18,3.18,6.45,2.13a3.72,3.72,0,0,0,2.38-3.53A3.92,3.92,0,0,0,84.39,22.12Z"/><path class="cls-1" d="M78.47,17.35a2.54,2.54,0,0,1,.88-3.93,4.86,4.86,0,0,0-.51.23,2.49,2.49,0,0,0-1.45,1.56A2.38,2.38,0,0,0,78.47,17.35Z"/><path class="cls-1" d="M70.05,28a4,4,0,0,0-3.55.13A2.7,2.7,0,0,1,68,28.07a3.52,3.52,0,0,1,1.21.5A2.45,2.45,0,0,1,71,30.48a3.19,3.19,0,0,1-.23,1.83,3.59,3.59,0,0,1-.62,1.39,3,3,0,0,1-1.91,1.17,3.08,3.08,0,0,1-1.3.29,2.53,2.53,0,0,1-1.66-.65l.14.16a3.06,3.06,0,0,0,.73.58l.42,0c.1,0,.09.14,0,.15h-.14a4,4,0,0,0,4.7-1.68C72.12,32,72.19,29,70.05,28Z"/><path class="cls-1" d="M81.55,16.37c.07,0,.12-.09.18-.13,1.63-1.48-.7-3.39-2.31-2.5s-1.79,3.11-.06,3.87a3.24,3.24,0,0,0,3.9-1.09,2.49,2.49,0,0,0,0-2.69,3.27,3.27,0,0,0-3.18-.64,2.49,2.49,0,0,1,1.1.12c.94.32,1.82,1.46,1.3,2.46a2.55,2.55,0,0,1-2.66,1.32c-.85-.2-1.79-1.11-1.3-2a1.89,1.89,0,0,1,2.26-.89c.71.31,1.42,1.43.82,2.14Z"/><path class="cls-1" d="M81.21,14.9a1.07,1.07,0,0,0-.44-.31,1,1,0,0,1,.16,1.4.18.18,0,0,1-.2.08,1.45,1.45,0,0,1-.59-.48c-.14-.18.11-.43.25-.25s.34.55.42.06-.2-.68-.58-.55a.82.82,0,0,0-.18,1.44A.91.91,0,0,0,81.21,14.9Z"/><path class="cls-1" d="M80.13,14.51a1,1,0,0,1,.54,0c-.8-.28-2,.08-1.91,1s.79,1.21,1.56,1.17a1,1,0,0,1-.64-.3C79.15,15.91,79.27,14.67,80.13,14.51Z"/><path class="cls-1" d="M82.91,25.4a.86.86,0,0,0,.43-.16.16.16,0,0,1-.09-.11A.68.68,0,0,0,82.91,25.4Z"/><path class="cls-1" d="M69.29,22.2A4.09,4.09,0,0,0,70.69,21a4.71,4.71,0,0,0,.64-1.42A5.94,5.94,0,0,1,69.29,22.2Z"/><path class="cls-1" d="M36.25,88a.45.45,0,0,0-.53.39.61.61,0,0,0,.2.64.48.48,0,0,0,.71-.42C36.6,88.32,36.68,88.1,36.25,88Z"/><path class="cls-1" d="M39.41,80.41a27.84,27.84,0,0,0-.92,6.91c0,2,.35,3.93.51,5.91a18.27,18.27,0,0,0,.42,3.83c.08.26.2.75.52.82s.34-.61.32-.8A11.22,11.22,0,0,0,40,95.44a28.78,28.78,0,0,1-.45-6.22,58.86,58.86,0,0,1,1.72-13.6L40.74,75a7.35,7.35,0,0,0-.32.83c-.12.48-.2,1-.31,1.47C39.89,78.32,39.66,79.37,39.41,80.41Z"/><path class="cls-1" d="M34.8,70.73c-1.28,2.51-.39,5.45-.12,8.1.22,2.1-.24,4.34.45,6.38a2.91,2.91,0,0,0,1,1.55c.3.19.24-1.21.21-1.31-.08-.27-.17-.52-.27-.78a9.39,9.39,0,0,1-.55-4.11,34.55,34.55,0,0,0,.1-4.88,32.65,32.65,0,0,1-.23-4.74Z"/><path class="cls-1" d="M25,88.71a32.33,32.33,0,0,1,2.48-10.43c1.19-2.77,2.18-6,4.58-8a.27.27,0,0,0,.07-.08v0c-.37,0-.75,0-1.13,0a.18.18,0,0,1-.07,0l-.24.1s0,0,0,0c-.66.41-.83,1.34-1.14,2s-.73,1.53-1.1,2.3a48,48,0,0,0-2.17,5,50.23,50.23,0,0,0-2.32,9.89c-.41,3.05-1,6.41.09,9.37,1,2.62,3.42,5.8,6.51,5.54-.65-.4-1.4-.49-2.09-.85a6.28,6.28,0,0,1-1.87-1.49,7.52,7.52,0,0,1-1.73-3.9,23.3,23.3,0,0,1,0-4.65C24.89,92,24.87,90.34,25,88.71Z"/><path class="cls-1" d="M22.12,77.57c.32-.37.65-.73,1-1.08v0a.07.07,0,0,1,.07-.06c1-1.09,2-2.16,3.1-3.2a16.66,16.66,0,0,1,3.16-2.71,3.67,3.67,0,0,1-2.78-2.07,8.81,8.81,0,0,1-1-4.62c.09-2.43,1.05-6.84,4.3-6.58a22.71,22.71,0,0,0-6.59-4.53c-3.89-2-7.82-4.19-12-5.42-2.72-.8-7.28-2-9,1.21C.46,52.15,1.6,56.65.52,60.55A12.59,12.59,0,0,0,.33,67a43.77,43.77,0,0,0,2.09,5.74,44,44,0,0,1,2,6.65c.27,1.17.54,2.34.86,3.5a6,6,0,0,0,1.11,2.38c2,2.27,5.41.74,7.56-.52A35.29,35.29,0,0,0,22.12,77.57Z"/><path class="cls-1" d="M32.69,39.38s0,0,0,0a.45.45,0,0,0,.15-.55c-.07-.17-.3-.36-.48-.19a.45.45,0,0,0,0,.54A.4.4,0,0,0,32.69,39.38Z"/><path class="cls-1" d="M17.71,22.27a35.38,35.38,0,0,0,.42,7.27c.42,2.21,1,4.38,1.47,6.59s.47,4.46.68,6.7a13.13,13.13,0,0,0,1.62,5.83c1,1.55,2.45,2.73,3.1,4.48v0a17.5,17.5,0,0,1,5.12,4,.07.07,0,0,1,0,.06h.59c-1-1.47-2.19-2.85-3.21-4.33a14.33,14.33,0,0,1-2.11-4.8c-.95-3.87-.89-7.86-1.27-11.8-.22-2.32-.12-4.63-.16-7A45.83,45.83,0,0,0,23,22.13c-.69-3.82-1.5-8.29.15-12a9.7,9.7,0,0,1,3.08-3.76,7.19,7.19,0,0,1,4.31-1.72h0l.11-.11s.09,0,.06.06l-.13.15h0C29.24,6.45,27.26,7.44,25.8,9c-3,3.25-2.27,7.91-1.39,11.86a51.12,51.12,0,0,1,1.19,5.86,53.31,53.31,0,0,1,.17,7,68.53,68.53,0,0,0,.67,13,16.47,16.47,0,0,0,1.76,5.58,20.37,20.37,0,0,0,4.21,4.72,11.28,11.28,0,0,0,3.05-.91,13.73,13.73,0,0,0-.92-1.62A7.49,7.49,0,0,1,34,53a33.15,33.15,0,0,0-1.38-4c-1.07-2.86-.74-5.71-.17-8.64,0,0,0,0,0,0a.07.07,0,0,1,0-.12c.74-.09.76,1,.76,1.51,0,1.17-.14,2.33-.11,3.5a12.31,12.31,0,0,0,.35,3c.22.83.53,1.62.8,2.43a30.43,30.43,0,0,0,2,5l.12-.07a11.59,11.59,0,0,0,3.35-3.19A34.29,34.29,0,0,1,38.91,47c-.07-1,0-2-.19-2.91s-.37-1.59-.58-2.38c-.48-1.86-.29-3.77-1.11-5.55a8,8,0,0,0-1.36-2.29,11.56,11.56,0,0,1-1.3-1.5.06.06,0,0,1,0-.07c-.1-.18-.17-.42.09-.49a2.34,2.34,0,0,1,1.4.36,3.67,3.67,0,0,1,1.49,1.67,22.15,22.15,0,0,1,1.5,2.64,7,7,0,0,1,.4,2.87,20.25,20.25,0,0,0,.34,4.26c.42,2.34,1,4.63,1.3,7a29.74,29.74,0,0,0,2.74-11.26c.31-4,.29-8.28,1.71-12.13A25.11,25.11,0,0,1,52,17.74a28.26,28.26,0,0,1,9.76-6.08A37.67,37.67,0,0,1,73.23,9.72a74,74,0,0,1,12.08.76c3.91.54,7.84,1.21,11.68,2.09a38,38,0,0,1,11.64,5.08,69.56,69.56,0,0,1,9.79,7.27l.31.28c-4.14-5-8.89-10.23-15.14-12.29A38.27,38.27,0,0,1,94.1,8.4c-3.24-2.18-6.55-4.67-10.6-4.9h0c-1.56-.2-3.09.1-4.65-.22s-3.06-.87-4.61-1.19c-4.71-1-9.56-.7-14.33-.92S50.56,0,45.84,0,36.28,1.15,31.57,2.14c-2,.42-4,.73-6,1.17a14.43,14.43,0,0,0-4.43,1.6,7.82,7.82,0,0,0-3.18,3.55,12.66,12.66,0,0,0-.63,6.79A48.45,48.45,0,0,1,17.71,22.27ZM32.28,38.36c.76-.43,1.3.9.59,1.27a.16.16,0,0,1-.22-.07C32.16,39.63,31.71,38.68,32.28,38.36Z"/><path class="cls-1" d="M38.93,38.88a5.55,5.55,0,0,0-.54-2.66c-.41-.76-.88-1.49-1.3-2.24a3.52,3.52,0,0,0-1.37-1.58c-.24-.12-1.47-.73-1.15,0,.49.67,1.2,1.16,1.72,1.81a9.37,9.37,0,0,1,1.13,2.06c.74,1.66.53,3.4,1,5.13A23.48,23.48,0,0,1,39,44c.12.81.12,1.62.17,2.44A37.66,37.66,0,0,0,40,52.12q.34-.52.66-1.08c-.21-2.12-.75-4.19-1.17-6.28A29.73,29.73,0,0,1,38.93,38.88Z"/><path class="cls-1" d="M24.33,34.41c.1,2,.31,4.08.44,6.12a45.69,45.69,0,0,0,.69,6.28,15.27,15.27,0,0,0,2.2,5.69c1.1,1.6,2.36,3.07,3.43,4.69l.9-.08a21,21,0,0,1-3.47-3.65,13.82,13.82,0,0,1-1.93-4.35,35.57,35.57,0,0,1-.88-5.53,61.83,61.83,0,0,1-.34-6.38c0-4.69.34-9.29-.71-13.9-.82-3.6-2-7.72-.85-11.37,1.09-3.39,4.28-4.78,6.64-7.12-2.23.08-4.38,1.7-5.76,3.35-2.88,3.45-2.26,8.4-1.58,12.52.36,2.21.94,4.41,1.1,6.65S24.23,32.05,24.33,34.41Z"/><path class="cls-1" d="M33.13,49.66c.26.61.53,1.22.73,1.85s.3,1.22.49,1.83c.3,1,1,1.74,1.33,2.69a3,3,0,0,0,.4-.21,23.61,23.61,0,0,1-1.83-4.37A23.94,23.94,0,0,1,33,47a18.63,18.63,0,0,1-.06-4c.05-.5.4-2.53-.37-2.61a.08.08,0,0,1,0,0,22.69,22.69,0,0,0-.46,4.93A12.48,12.48,0,0,0,33.13,49.66Z"/><path class="cls-1" d="M74,94.3C68,94.44,62,93.85,56.58,91.49a22.84,22.84,0,0,1-8-5.53,53.33,53.33,0,0,1-4.76-6.69c-.77-1.19-1.57-2.4-2.44-3.53-.43,2.14-.81,4.29-1.08,6.45a57,57,0,0,0-.48,7,32.27,32.27,0,0,0,.46,6.36c.11.51.58,2.09,0,2.46s-1.06-.93-1.14-1.34c-.23-1.18-.23-2.38-.36-3.57a56,56,0,0,1-.54-6.08,27.58,27.58,0,0,1,.86-6.45c.26-1.13.53-2.27.76-3.41.1-.49.18-1,.31-1.47a6,6,0,0,1,.22-.72s.08-.18.13-.31a16.62,16.62,0,0,0-1.78-1.78,11.53,11.53,0,0,0-3-1.85,34,34,0,0,0,.22,4.62,32.23,32.23,0,0,1-.09,4.61,10,10,0,0,0,.52,4.31c.33.84.64,1.74-.05,2.48a.17.17,0,0,1-.18,0c-2.16-1.4-1.61-4.86-1.63-7,0-3-1.51-6.6.18-9.38a11.52,11.52,0,0,0-2.28-.46.51.51,0,0,1-.15.14h0a11.47,11.47,0,0,0-2.67,3.82c-.67,1.46-1.31,3-1.91,4.44A32.16,32.16,0,0,0,25.3,88.71c-.11,1.56-.1,3.12-.2,4.68a22.65,22.65,0,0,0,0,4.8,7.14,7.14,0,0,0,2.14,4.28,6.21,6.21,0,0,0,2.34,1.27,4.1,4.1,0,0,1,1.41.76.15.15,0,0,1-.1.25c-3,.39-5.62-2.18-6.8-4.78-1.4-3.07-1-6.36-.58-9.61a50.4,50.4,0,0,1,2.51-11A57.38,57.38,0,0,1,28.38,74c.44-.91.88-1.82,1.25-2.76a3.3,3.3,0,0,1,.32-.62,11,11,0,0,0-2.82,2.22c-.88.87-1.78,1.7-2.63,2.6-.44.47-.87.95-1.3,1.43C23,79.62,22,82.11,21.31,84.78a37.69,37.69,0,0,0-.68,4.47c-.15,1.21-.57,2.33-.82,3.51a4.39,4.39,0,0,0,0,2.13,7.58,7.58,0,0,1,.32,1.41c.12,1.35-.33,2.62-.31,4,.05,2.65,2.24,4.84,4.63,5.69a19.77,19.77,0,0,0,6.32.74c2.27,0,4.54-.1,6.81-.18a65.85,65.85,0,0,0,7-.48,57.37,57.37,0,0,0,6.72-1.43c2.12-.57,4.24-1.17,6.35-1.78a27.09,27.09,0,0,0,6.22-2.59c1.89-1.1,3.7-2.34,5.61-3.41A45.77,45.77,0,0,1,74,94.3Zm-37-5.59a.78.78,0,0,1-1.07.55.85.85,0,0,1-.35-1c.09-.25.1-.38.32-.43.06-.1.36-.06.52,0A.74.74,0,0,1,36.92,88.71Z"/><path class="cls-1" d="M55.91,26.54a.38.38,0,0,1,.23.11c.24.1.65.2.51.05l-.23-.24a1.56,1.56,0,0,0-.7-.46c-.49-.07-.62.94-.41,1.22a1,1,0,0,0,.91.37c.85-.06,1.71-1.09.87-1.82a1.73,1.73,0,0,0-2.2,0c-.15.13-.36.32-.56.53A3.46,3.46,0,0,0,54,27.44l0,.07a2.21,2.21,0,0,0,1.64.57,5,5,0,0,0,2.71-.69,1.46,1.46,0,0,0,.15-1.22,2.44,2.44,0,0,0-.19-.44,2.52,2.52,0,0,0-1.82-1.09,2.06,2.06,0,0,0-1.28.5h0c.86-.28,2.31,0,2.48,1.05A1.5,1.5,0,0,1,56.08,28a1.21,1.21,0,0,1-1-1.87c.48-.91,1.4-.15,1.86.37s0,.67-.49.63a.18.18,0,0,1-.31.12C56,27.14,56,27,55.93,27a.7.7,0,0,1-.19-.13C55.6,26.71,55.74,26.5,55.91,26.54Z"/><path class="cls-1" d="M57.52,28.2a5.55,5.55,0,0,1-1.7.23A3.66,3.66,0,0,1,54,28a1.12,1.12,0,0,0,.08.26c.4,1,1.71.72,2.49.44A4.55,4.55,0,0,0,57.52,28.2Z"/><path class="cls-1" d="M58.48,25.31A1.69,1.69,0,0,1,59,27a1.53,1.53,0,0,1-.34.56A3.24,3.24,0,0,1,57,28.88a5.28,5.28,0,0,1-1.51.33c1.94.3,4.14-.6,4.72-2.56.76-2.54-2.31-3.23-4.41-2.86a3.39,3.39,0,0,1,2.32,1.06A3.92,3.92,0,0,1,58.48,25.31Z"/><path class="cls-1" d="M59.26,39.13A1.3,1.3,0,0,0,59,36.74a1.93,1.93,0,0,0-1.86.58.94.94,0,0,0,0,1.44,1.06,1.06,0,0,1-.07-.62A1.38,1.38,0,0,1,59,37,1.2,1.2,0,0,1,59,39.11a.78.78,0,0,1-1-.22,1.08,1.08,0,0,1,0-1.17.17.17,0,0,1,.26,0,1.82,1.82,0,0,0,.34.34.16.16,0,0,1,.07.19c-.12.3-.35.32-.51.12,0,.24.05.47.33.51a.61.61,0,0,0,.67-.5.82.82,0,0,0-.51-1.07c-.8-.22-1.82.61-1.29,1.47A1.4,1.4,0,0,0,59.26,39.13Z"/><path class="cls-1" d="M53.86,28.61a1.61,1.61,0,0,1-.24-1,.9.9,0,0,1,0-.71,2.71,2.71,0,0,1,.48-.85,2.92,2.92,0,0,1,2.17-1.7,1.75,1.75,0,0,1,.55,0,2.06,2.06,0,0,0-.35-.12,2.49,2.49,0,0,0-2.91,1.18C52.9,26.48,52.69,27.84,53.86,28.61Z"/><path class="cls-1" d="M47.81,43c.38.16,1.59.1,1.21-.57a.84.84,0,0,1-.23.28l-.06.09a.17.17,0,0,1-.22.06l-.35.15c-.11,0-.26,0-.25-.14,0-.35.09-1,.55-1.09a.77.77,0,0,1,.75.36c.94,1.35-2,1.82-2,.45a1.7,1.7,0,0,1,1.08-1.53h0a1.67,1.67,0,0,0-1.6,1.66,1.07,1.07,0,0,0,1.1,1.1c.87,0,2.56-.91,1.74-2C48.39,40.31,47.06,42.68,47.81,43Z"/><path class="cls-1" d="M48.25,42.63a1.68,1.68,0,0,0,.3-.15,1.86,1.86,0,0,1,.23-.32.28.28,0,0,0-.24-.07C48.34,42.16,48.28,42.4,48.25,42.63Z"/><path class="cls-1" d="M88.91,92.8l-4.85.65c-3.46,1.67-5.33,5.34-6.61,8.79-.62,1.68-1.17,3.4-1.82,5.07a24.39,24.39,0,0,1-3.12,5.57c-.37.5-.83.93-1.21,1.42a2.54,2.54,0,0,0-.55.9c-.12.56.48.49.8.39a13.39,13.39,0,0,0,1.9-.84c.88-.42,1.79-.79,2.69-1.18a61.7,61.7,0,0,1,6.21-2.32c2-.6,4.06-1,6.06-1.61a15.4,15.4,0,0,0,5.68-3,29.77,29.77,0,0,0,4.4-4.85c1.29-1.76,2.45-3.6,3.7-5.39s2.54-3.64,3.75-5.5c-2.37.38-4.73.66-7,.9C95.58,92.11,92.24,92.38,88.91,92.8Z"/><path class="cls-1" d="M34.82,63.68a4.5,4.5,0,0,0-2.19-4.84s0,0-.06-.05c-1.66.25-1.82,2.44-1.9,3.9,0,.71-.07,1.43,0,2.14s0,1.53.54,2c.72.63,1.94-.22,2.45-.76A4.57,4.57,0,0,0,34.82,63.68Z"/><path class="cls-1" d="M77.83,100.42l0-.07A17.33,17.33,0,0,1,80.36,96a10.82,10.82,0,0,1,2.78-2.47c-1.62.2-3.24.39-4.87.51l-.39,0A28.19,28.19,0,0,1,74.19,97c-2,1.5-3.93,3-5.79,4.58a14.36,14.36,0,0,0-1.9,1.84,1.4,1.4,0,0,0-.35.6c-.09.61,1.44-.21,1.6-.32A19.41,19.41,0,0,1,72,101.39,16.81,16.81,0,0,1,77.83,100.42Z"/><path class="cls-1" d="M33.24,58.83a4.91,4.91,0,0,1,1.82,5.26,4.69,4.69,0,0,1-1.61,2.52,4.35,4.35,0,0,1-1.25.67c.94,2.49,3.59-.91,4-2.25a7.13,7.13,0,0,0-.2-4.31,4.88,4.88,0,0,0-1.1-2C34.32,58.22,33.62,57.93,33.24,58.83Z"/><path class="cls-1" d="M115.94,38.08a1.07,1.07,0,0,0,.13.19,1.24,1.24,0,0,1,.8-1.05,1.59,1.59,0,0,1,.43-.06.3.3,0,0,0-.43-.07,1.51,1.51,0,0,0-.43.32A2.07,2.07,0,0,0,115.94,38.08Z"/><path class="cls-1" d="M106.11,24.15c1-2-1.28-3.37-3.09-3.22a2.85,2.85,0,0,0-1.9,1l.12-.05a2.19,2.19,0,0,1,2.39-.34,2.91,2.91,0,0,1,.54.34,3.2,3.2,0,0,1,1.08.8,1.92,1.92,0,0,1-.43,2.85,3.11,3.11,0,0,1-3.66.09,2.33,2.33,0,0,1-.93-1.86,3.75,3.75,0,0,0,0,1.25,2.79,2.79,0,0,0,1,1.88,2.25,2.25,0,0,0,.69.05A5.61,5.61,0,0,0,106.11,24.15Z"/><path class="cls-1" d="M102,23.2c-.16.36-.11.91.4.89a1.18,1.18,0,0,0,1.14-.9c.11-.66-.42-.76-.89-.55a.82.82,0,0,1,.68.83.18.18,0,0,1-.27.16c-.18-.12-.19-.26-.33-.4a.15.15,0,0,1,0-.2A.46.46,0,0,0,102,23.2Z"/><path class="cls-1" d="M112.44,27.51c-.13.08-.74.77-.43.91a1.61,1.61,0,0,0,.36.1.14.14,0,0,1,0-.09,1.19,1.19,0,0,1,.81-.95,1.15,1.15,0,0,0-.25-.12A.78.78,0,0,0,112.44,27.51Z"/><path class="cls-1" d="M99.82,21.61A4.41,4.41,0,0,0,98.72,25a2.54,2.54,0,0,0,1.55,1.88,1.66,1.66,0,0,1-.33-.32,3,3,0,0,1,.42-4.07,3.19,3.19,0,0,1,2.77-1.85c1.41,0,3.73.84,3.6,2.6-.1,1.52-1.53,2.77-2.8,3.42a5.56,5.56,0,0,1-2.14.63,4.14,4.14,0,0,0,3.47-.1,4,4,0,0,0,1.29-6.09C104.68,18.91,101.46,19.53,99.82,21.61Z"/><path class="cls-1" d="M113.05,26.45a5.61,5.61,0,0,0-.63-.09,3.88,3.88,0,0,0-1.68.58,1.81,1.81,0,0,0-.21,1.53,1.58,1.58,0,0,1,.91-1.46,2.16,2.16,0,0,1,1.79.1,1.27,1.27,0,0,1,.61.34.92.92,0,0,1,.27.57,1.69,1.69,0,0,1-.34,2c-1.65,1.44-4-.72-3.6-2.6a1.61,1.61,0,0,0-.3,2.22,3.36,3.36,0,0,0,4.49.3c.6-.59,1.16-1.47.63-2.29A3.06,3.06,0,0,0,113.05,26.45Z"/><path class="cls-1" d="M104.39,24.25a1.76,1.76,0,0,0-.39-2.11,3.31,3.31,0,0,0-2.53,0,2,2,0,0,0-.69,2.51,2.56,2.56,0,0,0,3.54.82,1.69,1.69,0,0,0,.45-2.81,2,2,0,0,1,0,1.59,2,2,0,0,1-2.47,1.13,1.57,1.57,0,0,1-.6-2.36c.38-.58,1.47-1.16,2.06-.56s-.26,1.78-.94,1.95a1.17,1.17,0,0,1-1.06-.28C101.93,25.5,103.85,25.31,104.39,24.25Z"/><path class="cls-1" d="M100,26a1.9,1.9,0,0,0,.31.42A4,4,0,0,1,100,23.5,2.62,2.62,0,0,0,100,26Z"/><path class="cls-1" d="M105.35,35.67a1.72,1.72,0,0,1-.58.59,1.88,1.88,0,0,0,.58-.13c.49-.23.4-.65.14-1A.94.94,0,0,1,105.35,35.67Z"/><path class="cls-1" d="M105.11,35.31l-.17.09c-.24.45-.66.8-1.15.56a1.55,1.55,0,0,1-.3-.21,2.77,2.77,0,0,1-.42,0,1.06,1.06,0,0,0,.17.2A1.18,1.18,0,0,0,105.11,35.31Z"/><path class="cls-1" d="M104.17,33.31a1.17,1.17,0,0,0-.36.16,1.24,1.24,0,0,1,.51,0c.11,0,.09.21,0,.19a1.22,1.22,0,0,0-.33,0,2.35,2.35,0,0,1,1,.42,1,1,0,0,1,.38.29.44.44,0,0,1,.08.11,2.53,2.53,0,0,1,.47.7s0,.09,0,.13a1.48,1.48,0,0,0,0-.65C105.7,34,105,33.12,104.17,33.31Z"/><path class="cls-1" d="M117,39.33a.77.77,0,0,1-.91-.7l-.17-.19,0,0a1.08,1.08,0,0,0,.76,1,1.61,1.61,0,0,0,.87.06,4.52,4.52,0,0,1-.47-.18Z"/><path class="cls-1" d="M118.33,37.92a1.06,1.06,0,0,0-.66-.41h-.1a0,0,0,0,1-.09,0,1.13,1.13,0,0,0-1,1,.43.43,0,0,0,.06.24l.19.13a.63.63,0,0,0,.23,0h0a.17.17,0,0,1,0-.12.15.15,0,0,1,0-.07s0,0,0,0h0a.17.17,0,0,1-.06-.23,1.43,1.43,0,0,0,.2-.58.16.16,0,0,1,.3-.08.36.36,0,0,1,.07.1h0c.16-.1.32.13.2.26l-.06.06,0,0s0,0,0,0a.14.14,0,0,1,0,.21.79.79,0,0,1-.31.76,2.09,2.09,0,0,0,.53.11.49.49,0,0,0,.13-.12A1.07,1.07,0,0,0,118.33,37.92Z"/><path class="cls-1" d="M116.47,37.15c-.31.15-.55.35-.58.61a2.1,2.1,0,0,1,.42-.48Z"/><path class="cls-1" d="M103.77,36.49h0Z"/><path class="cls-1" d="M127.9,54.48a4.19,4.19,0,0,0-1.35.14,4.51,4.51,0,0,0-.79.32l-.1.06,0,0A4,4,0,0,0,124,59.67a3.53,3.53,0,0,0,.88,1.23c1.51,1.36,4.2,1.81,5.75.25a4.43,4.43,0,0,0,1.11-4.42A4.23,4.23,0,0,0,127.9,54.48Zm2.94,4.4a3.16,3.16,0,0,1-2.21,1.48l-.3,0c-1.44.28-3.17-.06-3.23-1.78a2.83,2.83,0,0,1,3.18-2.84C129.65,55.9,131.71,57.24,130.84,58.88Z"/><path class="cls-1" d="M118.73,38.55a.68.68,0,0,1-.07.23,1.92,1.92,0,0,1-.27.46A.66.66,0,0,0,118.73,38.55Z"/><path class="cls-1" d="M110.88,28.1c-.37,1.75,2.58,1.75,2.86.33a1,1,0,0,0,0-.54c0-.06-.11-.11-.17-.17.16,1-1,1.4-1.81.89a.16.16,0,0,1-.08-.14,1.66,1.66,0,0,1,.25-.87,1.06,1.06,0,0,1,.44-.4A1.2,1.2,0,0,0,110.88,28.1Z"/><path class="cls-1" d="M113.14,29.53a2.34,2.34,0,0,1-1.89.07,1.86,1.86,0,0,0,2.1.31,1.49,1.49,0,0,0,.61-1.2A2,2,0,0,1,113.14,29.53Z"/><path class="cls-1" d="M112.88,28.13a.34.34,0,0,1,.31-.11h0a.67.67,0,0,0,0-.2.77.77,0,0,0-.39.34Z"/><path class="cls-1" d="M162.08,68c-1-.18-2.1-.28-3.15-.43a6.53,6.53,0,0,1-2.1-.46.17.17,0,0,1,0-.27,4.9,4.9,0,0,1,3.59-1.17,15.33,15.33,0,0,0,2.24.15c.84-.06,1.74-.76,1.4-1.72S162,62.8,161,62.59a33.25,33.25,0,0,0-6.91-.48,30.34,30.34,0,0,1-6.66-.5,22.31,22.31,0,0,1-5.36-2,21.55,21.55,0,0,1-4.56-3.18A25.74,25.74,0,0,1,134,52.26c-2.07-2.93-4.75-5.73-5.85-9.21a.13.13,0,0,1,0-.09,15.83,15.83,0,0,0-.65-4.43C125.07,31,119,25.4,112.79,20.92a53.12,53.12,0,0,0-11.5-6.63,60.32,60.32,0,0,0-11.73-2.78C81.54,10.14,73,9.17,65,11.1a27.35,27.35,0,0,0-10.85,5.29,28,28,0,0,0-7.84,9.37c-1.87,3.92-2,8.34-2.26,12.59a38,38,0,0,1-1.68,9.4,21.91,21.91,0,0,1-1.43,3.35h0a.11.11,0,0,1-.07.12,14,14,0,0,1-.8,1.29v.06a.13.13,0,0,1-.16.16,11.57,11.57,0,0,1-1.85,2,10.85,10.85,0,0,1-2.36,1.51.11.11,0,0,1-.09,0,11.57,11.57,0,0,1-3.11.9.17.17,0,0,1-.28.09l0,0c-.33,0-.66.06-1,.08a.16.16,0,0,1-.29.08l-.05-.07h-.66s0,0-.07,0a3.68,3.68,0,0,0-3.19,2.19,10.09,10.09,0,0,0-.9,4,9.19,9.19,0,0,0,.53,3.79c.66,1.61,2,3.13,3.78,2.64l.06,0h0a2.67,2.67,0,0,0,.33-.12.18.18,0,0,1,.2,0,11.58,11.58,0,0,1,4.58.74.14.14,0,0,1,.15.06A13,13,0,0,1,40.5,74.2a2,2,0,0,0,.19.22.14.14,0,0,1,.15.14h0v0c2.34,2.73,4,5.93,6.14,8.84a22,22,0,0,0,6.84,6.28,31,31,0,0,0,10.52,3.63c6.56,1.08,13.27.63,19.85-.24l.08,0a.11.11,0,0,1,.08,0L87,92.71c6.72-1,13.54-1.22,20.23-2.46s13.28-3.39,18-8.31a6.65,6.65,0,0,1-3.2-.93s-.23-.53.18-.31c3.45,1.79,6.89.37,9.85-1.62s5.77-4.68,9.09-6.31a13.17,13.17,0,0,1,4.61-1.39,32.5,32.5,0,0,1,5.22,0c3.37.2,7.26.78,10.48-.57.46-.2,2.82-1.18,2.58-2C163.88,68.25,162.59,68.11,162.08,68ZM36.6,64.92c-.46,1.71-3.64,5.52-4.74,2.42h-.15c.19,1.25-1.55.57-2,0-.92-1.2-.57-2.82-.43-4.22.17-1.57.58-5.84,3.17-4.76a.08.08,0,0,1,0,.15c-2.23-.53-2.59,2.34-2.77,3.94-.09.82-.2,1.67-.22,2.5a3.46,3.46,0,0,0,.35,1.93,1.83,1.83,0,0,0,.81.75c.21.09,1,.42.81-.28v0a.91.91,0,0,1-.26-.13,2.59,2.59,0,0,1-.8-2.06,20.3,20.3,0,0,1,.08-2.81c.12-1.53.5-3.58,2.19-3.69a.15.15,0,0,1,.21,0l.07,0,.26,0c.38-1.45,2.07-.21,2.57.62A7.76,7.76,0,0,1,36.6,64.92Zm10.56-21c-1.68-.91.11-3.75,1.6-2.91A1.41,1.41,0,0,1,50,42.09C50.33,43.47,48.29,44.54,47.16,43.93Zm4.92-16.62c-.33,1.77,1,2.7,2.61,2.78.08,0,.09.14,0,.14-1.56,0-3.11-.89-2.88-2.67a5,5,0,0,1,2.92-3.73,5.28,5.28,0,0,1,4.59.1,2.38,2.38,0,0,1,1,3.27,4.65,4.65,0,0,1-5.56,2.19,2.85,2.85,0,0,1-2-1.57,3,3,0,0,1,.48-2.66A4.27,4.27,0,0,0,52.08,27.31Zm8.23,12.53a3.26,3.26,0,0,1-3-.46c-1.19-.84-1-2.05.21-2.75a1.87,1.87,0,0,1,2.7.84,1.69,1.69,0,0,1-1.5,2.16h0a3.8,3.8,0,0,0,.53.08c.62,0,1.36-.15,1.46-.88A2.93,2.93,0,0,0,59.11,36c-2.1-.61-4.56,2.88-2.25,4.13.08,0,0,.17-.08.13-3.07-1.61,1.41-6.57,3.45-3.75C60.81,37.29,61.63,39.23,60.31,39.84Zm6.8-25.31a.05.05,0,0,1,0,.1,4.46,4.46,0,0,0-.51.07,5.3,5.3,0,0,1,1.54,0,3.81,3.81,0,0,1,2.15.65,3.25,3.25,0,0,1,1.18,1.49.93.93,0,0,0,0,.1c1.15,2.51-.77,5.38-3.21,6.08s-5.4-.54-5.63-3.38A4.69,4.69,0,0,1,67.11,14.53ZM70.46,35a4.14,4.14,0,0,1-4.79.43,2.36,2.36,0,0,1-2.29-1.73,5.05,5.05,0,0,1,1.05-4.11,5,5,0,0,1,4.11-2.19,3.49,3.49,0,0,1,3.31,2.26A5,5,0,0,1,70.46,35ZM77.91,14c1.88-1.64,6.91-1.82,5.91,1.85-.54,2-3.54,3.17-5.17,1.65a.08.08,0,0,1-.13.05C77.35,16.66,76.59,15.18,77.91,14Zm5.23,20.59a3.27,3.27,0,0,1-3.1,1.6l-.14,0c-.67.08-1.39-.11-1.44-.91a2.78,2.78,0,0,1,1.14-2.21A2.33,2.33,0,0,1,82.37,33C82.94,33.36,83.41,33.91,83.14,34.61Zm-.48-4.86c-2.34.19-5-1.09-5.19-3.66a3.89,3.89,0,0,1,2.44-4,3.75,3.75,0,0,1,1.76-.72c2.26-.27,5,1.13,5.35,3.56C87.41,27.59,85.24,29.54,82.66,29.75Zm11.79,1.49c0,.07,0,.16-.11.17a1.41,1.41,0,0,1-.46,0,1.69,1.69,0,0,1-.92-.06c-1.66-.64-.91-3.31.84-2.88a.06.06,0,0,1,0,.11,1.39,1.39,0,0,1,1.27.31C96,29.78,95.35,30.8,94.45,31.24ZM97.3,19.77a4,4,0,0,1-3.18.76s0,0,0,0A1.63,1.63,0,0,1,92.27,20a2.33,2.33,0,0,1,0-1.95,2.63,2.63,0,0,1,3.9-1.49C97.18,17.21,98.59,18.7,97.3,19.77Zm8.62,16.4a2.32,2.32,0,0,1-2.73.39c-1.59-.93-1.83-3.55.37-3.76.1,0,.1.15,0,.16a1.46,1.46,0,0,0-1.25,2.13.51.51,0,0,1,0-.13A2.47,2.47,0,0,1,103.86,33a1.83,1.83,0,0,1,2.08.87A1.9,1.9,0,0,1,105.92,36.17Zm1.4-10.55a4.66,4.66,0,0,1-5.57,2,2.86,2.86,0,0,1-.82-.48A3.28,3.28,0,0,1,99,26.08c-1.24-1.56-.13-3.94,1.1-5.14a4.63,4.63,0,0,1,6-.63A4.36,4.36,0,0,1,107.32,25.62Zm8,3.47a3.49,3.49,0,0,1-5.38,1,1.82,1.82,0,0,1-.2-2.65,3.46,3.46,0,0,1,.57-.51C111.52,24.85,116.52,26.57,115.36,29.09Zm2.93,10.48H118a1.51,1.51,0,0,1-.81.24,1.61,1.61,0,0,1-1.45-.81,1.2,1.2,0,0,1,0-.89c-.3-.76.58-1.21,1.34-1.36a.09.09,0,0,1,.08.16.45.45,0,0,1,.32.24l.19,0a1.12,1.12,0,0,1,.76.18C119.09,37.85,119.4,39.43,118.29,39.57Zm16.25,20.74a6.61,6.61,0,0,1-5.57,3.9,3.18,3.18,0,0,1-1.19.16,6.77,6.77,0,0,1-1.65-.36,6.63,6.63,0,0,1-2.45-1.32,7.16,7.16,0,0,1-1.43-1.85,5.54,5.54,0,0,1-.77-2.33c0-.25,0-.51-.06-.77A6.47,6.47,0,0,1,124,52.52a4.61,4.61,0,0,1,2.89-1.1,7,7,0,0,1,3.2.91,9,9,0,0,1,3.74,3.39A5.4,5.4,0,0,1,134.54,60.31Z"/><path class="cls-1" d="M129.75,52.52a7.44,7.44,0,0,0-2-.68,6,6,0,0,0-5.92,6.62,6.83,6.83,0,0,0,.92,2.58,4.68,4.68,0,0,0,.48.62,7,7,0,0,0,5.81,2.19,3.37,3.37,0,0,1,.55-.12.12.12,0,0,1,.1,0A6.27,6.27,0,0,0,133,62a4.61,4.61,0,0,0,.85-5.5A8.68,8.68,0,0,0,129.75,52.52Zm2.45,6a4.67,4.67,0,0,1-2,3.37,4.87,4.87,0,0,1-6.13-1.27,4.05,4.05,0,0,1,2.38-6.3.14.14,0,0,1,.13,0,5.13,5.13,0,0,1,3.51.38A3.51,3.51,0,0,1,132.2,58.51Z"/><path class="cls-1" d="M94,30.19a.73.73,0,0,0,.22-.16L94.1,30A1.14,1.14,0,0,0,94,30.19Z"/><path class="cls-1" d="M93.71,16.65c-1.52,1-2.31,4.12.3,3.85l-.32-.09c-1.4-.49-1.18-2-.22-2.89a2.05,2.05,0,0,1,2.59-.19,1.39,1.39,0,0,1-.14,2.21,1.92,1.92,0,0,1-2.41,0,1.31,1.31,0,0,1-.06-1.48l-.11.16c-.35.56-.6,1.33.1,1.73a3.44,3.44,0,0,0,3.85-.58c.54-.67,0-1.47-.48-2C96,16.58,94.82,16,93.71,16.65Z"/><path class="cls-1" d="M94.48,29.42a1.18,1.18,0,0,1,.08.31l.1-.16Z"/><path class="cls-1" d="M92.79,30.48a1.12,1.12,0,0,0,.19.24,1.13,1.13,0,0,1,0-.18Z"/><path class="cls-1" d="M93.85,29.08h0L93.67,29a1.47,1.47,0,0,0-.94.75.87.87,0,0,0,0,.45l.19.12.07,0a1.46,1.46,0,0,1,.12-.5A1.2,1.2,0,0,1,93.85,29.08Z"/><path class="cls-1" d="M93.26,30.62a1.11,1.11,0,0,0,.07.16.77.77,0,0,0,.12.13h.06a1,1,0,0,0,.61-.24,1.33,1.33,0,0,1-.39,0Z"/><path class="cls-1" d="M126.44,51.79a4.2,4.2,0,0,0-1.29.4,5.83,5.83,0,0,1,1.37-.4Z"/><path class="cls-1" d="M94.09,29.26a.73.73,0,0,0-.25,0,1,1,0,0,0-.54.65,1.38,1.38,0,0,0-.08.45l.25.05v0A2.32,2.32,0,0,1,94,29.6a.17.17,0,0,1,.2,0l.13.11a.67.67,0,0,0-.16-.36Z"/><path class="cls-1" d="M94.09,28.9a1.1,1.1,0,0,1,.21.22,1.05,1.05,0,0,1,.47.37.17.17,0,0,1,.22.16.51.51,0,0,0,0,.13.16.16,0,0,1,.14.25.44.44,0,0,1-.29.2.71.71,0,0,1-.19.23.66.66,0,0,1-.28.49c.64-.28,1.11-.84.73-1.54A1,1,0,0,0,94.09,28.9Z"/><path class="cls-1" d="M93.76,28.61a1.09,1.09,0,0,0-.57,0,.86.86,0,0,1,.42,0Z"/><path class="cls-1" d="M103.28,35.4a1,1,0,0,1,.43-1,1.77,1.77,0,0,1,.64-.36,1.2,1.2,0,0,0-.82-.15.76.76,0,0,0-.16.06,1.6,1.6,0,0,0-.32.45,2.36,2.36,0,0,0-.09.73,0,0,0,0,1-.07.05s0,.06,0,.09A.93.93,0,0,0,103.28,35.4Z"/><path class="cls-1" d="M103.59,35.13a.78.78,0,0,0,0,.28,4.14,4.14,0,0,0,.45-.06l.2-.05h0a2.16,2.16,0,0,1,.41-.72,1.84,1.84,0,0,0-.3-.08.08.08,0,0,1-.07,0,1.06,1.06,0,0,0-.3.16A1.12,1.12,0,0,0,103.59,35.13Z"/><path class="cls-1" d="M102.87,34.24c-.23.29-.35.59-.21.84A1.9,1.9,0,0,1,102.87,34.24Z"/><path class="cls-1" d="M92.42,30.46a1.05,1.05,0,0,1-.08-.34.77.77,0,0,1-.1-.25,1.11,1.11,0,0,0,.68,1.2A1.22,1.22,0,0,1,92.42,30.46Z"/><path class="cls-1" d="M102.5,35.49a2.4,2.4,0,0,0,.55.64,1.25,1.25,0,0,1-.3-.49A.87.87,0,0,1,102.5,35.49Z"/><path class="cls-1" d="M94.49,18.16c.34.13.38.31.51.6l.1-.08a1,1,0,0,0,0-.38.75.75,0,0,0-.7-.54,1,1,0,0,0-.63,1.48c.52.73,2,.37,2.37-.37A1.11,1.11,0,0,0,95,17.29a1.91,1.91,0,0,0-.74.14c.85-.17,1.47.93,1.15,1.65a.56.56,0,0,1-.83.26c-.39-.19-.38-.71-.27-1.06A.18.18,0,0,1,94.49,18.16Z"/></g><g id="stroke"><path class="cls-2" d="M161.25,66.11c1,.1,2.48.29,3-.87,1.07-2.58-3.14-3-4.75-3.26-4.58-.61-9.19.27-13.68-1.15A21.5,21.5,0,0,1,136,54.39c-.75-.89-1.36-1.87-2-2.81s-1.37-1.84-2.06-2.76a25.82,25.82,0,0,1-3.18-5c-.11-6.8-3.88-12.64-8.58-17.32a.2.2,0,0,0,0-.21c-4.38-5.36-9.29-11.1-16-13.56-1.79-.66-3.58-1.24-5.31-2.05a35.59,35.59,0,0,1-4.94-2.85c-3-2.06-6.36-4.48-10.2-4.5a.18.18,0,0,0-.15-.16,21.74,21.74,0,0,0-3,0,13.14,13.14,0,0,1-3.6-.71,36.78,36.78,0,0,0-6.49-1.23C65.68.8,60.94,1.06,56.22.56S46.88-.61,42.16-.12,33,1.59,28.43,2.45c-3,.56-6.21,1-8.64,3a8.35,8.35,0,0,0-2.45,3.65,13.58,13.58,0,0,0-.3,6.4,50.17,50.17,0,0,1,.36,7,35.2,35.2,0,0,0,.4,6.8c.38,2.21,1,4.38,1.46,6.58A66.19,66.19,0,0,1,20,43.12a13.89,13.89,0,0,0,1.38,5.17c.92,1.74,2.6,2.94,3.38,4.76-1.48-.82-3-1.54-4.44-2.27A45.89,45.89,0,0,0,9.13,46.37c-2.66-.57-5.88-.49-7.2,2.31a15.08,15.08,0,0,0-1,5.49,33.18,33.18,0,0,1-.68,6.29,13.72,13.72,0,0,0-.37,5.7A25.8,25.8,0,0,0,1.7,71.81a44.74,44.74,0,0,1,2.11,6.56,30.84,30.84,0,0,0,1.64,6.08c2.68,5.73,10.79-.58,13.49-3.07C20.4,80,21.71,78.52,23,77a32.22,32.22,0,0,1-1.52,6.1,31.23,31.23,0,0,0-.83,3.16c-.24,1.13-.25,2.27-.43,3.4-.28,1.79-1.19,3.43-.74,5.27a8,8,0,0,1,.3,2.84,14,14,0,0,0-.24,3.23c.42,3.32,4,5.3,7,5.7,4.44.58,9,.1,13.41,0a44.33,44.33,0,0,0,9.31-1.29c3.09-.72,6.16-1.62,9.2-2.53a33.31,33.31,0,0,0,8.28-4.05c1.33-.83,2.68-1.59,4-2.38a19.39,19.39,0,0,1,4.1-2.17.15.15,0,0,0,.09-.06c.91,0,1.83-.09,2.73-.15-1.24,1.07-2.67,2-4,2.94-1.95,1.45-3.9,2.9-5.74,4.49-.36.31-2.7,2.09-2.06,2.78s2-.34,2.63-.77a15.81,15.81,0,0,1,5.79-2.46,15.21,15.21,0,0,1,3.36-.34c-1.38,3.31-2.2,6.8-4.06,9.9A16.44,16.44,0,0,1,72.08,113c-.44.51-.9,1-1.29,1.55s-.48,1.56.54,1.44a5,5,0,0,0,1.52-.56c.73-.35,1.46-.69,2.2-1,2.16-.94,4.35-1.84,6.59-2.58,2.63-.86,5.37-1.31,8-2.24a16.84,16.84,0,0,0,6.54-4.51,44.92,44.92,0,0,0,4.89-6.5c1.68-2.59,3.55-5,5.09-7.73,7.27-1.2,14.51-3.43,19.6-8.88l0,0a11.28,11.28,0,0,0,5-1.62c3.22-1.81,5.9-4.44,9-6.39a14.88,14.88,0,0,1,5.07-2.07,22.31,22.31,0,0,1,5.23-.16c3.43.17,7,.69,10.39-.19,1-.24,5.74-2.32,3-3.44a13.46,13.46,0,0,0-3.4-.65,11.36,11.36,0,0,1-2.93-.48A5.46,5.46,0,0,1,161.25,66.11ZM21.9,48.66a13.13,13.13,0,0,1-1.62-5.83c-.21-2.24-.25-4.48-.68-6.7s-1.05-4.38-1.47-6.59a35.38,35.38,0,0,1-.42-7.27,48.45,48.45,0,0,0-.4-7,12.66,12.66,0,0,1,.63-6.79,7.82,7.82,0,0,1,3.18-3.55,14.43,14.43,0,0,1,4.43-1.6c2-.44,4-.75,6-1.17C36.28,1.15,41,0,45.84,0s9.37,1,14.07,1.17,9.62,0,14.33.92c1.55.32,3.05.87,4.61,1.19s3.09,0,4.65.22h0c4,.23,7.36,2.72,10.6,4.9a38.27,38.27,0,0,0,9.49,4.51c6.25,2.06,11,7.29,15.14,12.29l-.31-.28a69.56,69.56,0,0,0-9.79-7.27A38,38,0,0,0,97,12.57c-3.84-.88-7.77-1.55-11.68-2.09a74,74,0,0,0-12.08-.76,37.67,37.67,0,0,0-11.44,1.94A28.26,28.26,0,0,0,52,17.74a25.11,25.11,0,0,0-6.7,9.47c-1.42,3.85-1.4,8.09-1.71,12.13A29.74,29.74,0,0,1,40.88,50.6c-.26-2.36-.88-4.65-1.3-7a20.25,20.25,0,0,1-.34-4.26,7,7,0,0,0-.4-2.87,22.15,22.15,0,0,0-1.5-2.64,3.67,3.67,0,0,0-1.49-1.67,2.34,2.34,0,0,0-1.4-.36c-.26.07-.19.31-.09.49a.06.06,0,0,0,0,.07,11.56,11.56,0,0,0,1.3,1.5A8,8,0,0,1,37,36.16c.82,1.78.63,3.69,1.11,5.55.21.79.44,1.57.58,2.38s.12,1.95.19,2.91a34.29,34.29,0,0,0,.86,5.43,11.59,11.59,0,0,1-3.35,3.19l-.12.07a30.43,30.43,0,0,1-2-5c-.27-.81-.58-1.6-.8-2.43a12.31,12.31,0,0,1-.35-3c0-1.17.09-2.33.11-3.5,0-.49,0-1.6-.76-1.51a.07.07,0,0,0,0,.12s0,0,0,0c-.57,2.93-.9,5.78.17,8.64A33.15,33.15,0,0,1,34,53a7.49,7.49,0,0,0,.56,1.52,13.73,13.73,0,0,1,.92,1.62,11.28,11.28,0,0,1-3.05.91,20.37,20.37,0,0,1-4.21-4.72,16.47,16.47,0,0,1-1.76-5.58,68.53,68.53,0,0,1-.67-13,53.31,53.31,0,0,0-.17-7,51.12,51.12,0,0,0-1.19-5.86c-.88-3.95-1.6-8.61,1.39-11.86,1.46-1.59,3.44-2.58,4.82-4.25h0l.13-.15s0-.1-.06-.06l-.11.11h0a7.19,7.19,0,0,0-4.31,1.72,9.7,9.7,0,0,0-3.08,3.76c-1.65,3.69-.84,8.16-.15,12A45.83,45.83,0,0,1,24,29.31c0,2.33-.06,4.64.16,7,.38,3.94.32,7.93,1.27,11.8a14.33,14.33,0,0,0,2.11,4.8c1,1.48,2.18,2.86,3.21,4.33h-.59a.07.07,0,0,0,0-.06,17.5,17.5,0,0,0-5.12-4v0C24.35,51.39,22.88,50.21,21.9,48.66ZM40.65,51q-.32.55-.66,1.08a37.66,37.66,0,0,1-.78-5.68c-.05-.82-.05-1.63-.17-2.44a23.48,23.48,0,0,0-.65-2.63c-.44-1.73-.23-3.47-1-5.13a9.37,9.37,0,0,0-1.13-2.06c-.52-.65-1.23-1.14-1.72-1.81-.32-.7.91-.09,1.15,0A3.52,3.52,0,0,1,37.09,34c.42.75.89,1.48,1.3,2.24a5.55,5.55,0,0,1,.54,2.66,29.73,29.73,0,0,0,.55,5.88C39.9,46.85,40.44,48.92,40.65,51ZM32.54,40.38c.77.08.42,2.11.37,2.61A18.63,18.63,0,0,0,33,47a23.94,23.94,0,0,0,1.28,4.44,23.61,23.61,0,0,0,1.83,4.37,3,3,0,0,1-.4.21c-.32-1-1-1.71-1.33-2.69-.19-.61-.3-1.23-.49-1.83s-.47-1.24-.73-1.85a12.48,12.48,0,0,1-1-4.3,22.69,22.69,0,0,1,.46-4.93A.08.08,0,0,0,32.54,40.38ZM24.21,27.33c-.16-2.24-.74-4.44-1.1-6.65-.68-4.12-1.3-9.07,1.58-12.52,1.38-1.65,3.53-3.27,5.76-3.35-2.36,2.34-5.55,3.73-6.64,7.12-1.18,3.65,0,7.77.85,11.37,1.05,4.61.75,9.21.71,13.9a61.83,61.83,0,0,0,.34,6.38,35.57,35.57,0,0,0,.88,5.53,13.82,13.82,0,0,0,1.93,4.35A21,21,0,0,0,32,57.11l-.9.08C30,55.57,28.76,54.1,27.66,52.5a15.27,15.27,0,0,1-2.2-5.69,45.69,45.69,0,0,1-.69-6.28c-.13-2-.34-4.08-.44-6.12C24.23,32.05,24.39,29.69,24.21,27.33ZM22.12,77.57a35.29,35.29,0,0,1-8.22,7.15c-2.15,1.26-5.53,2.79-7.56.52a6,6,0,0,1-1.11-2.38c-.32-1.16-.59-2.33-.86-3.5a44,44,0,0,0-1.95-6.65A43.77,43.77,0,0,1,.33,67a12.59,12.59,0,0,1,.19-6.42c1.08-3.9-.06-8.4,1.86-12.07,1.68-3.22,6.24-2,9-1.21,4.23,1.23,8.16,3.38,12.05,5.42A22.71,22.71,0,0,1,30,57.22c-3.25-.26-4.21,4.15-4.3,6.58a8.81,8.81,0,0,0,1,4.62,3.67,3.67,0,0,0,2.78,2.07,16.66,16.66,0,0,0-3.16,2.71c-1.07,1-2.09,2.11-3.1,3.2a.07.07,0,0,0-.07.06v0C22.77,76.84,22.44,77.2,22.12,77.57ZM69.49,96.83c-1.91,1.07-3.72,2.31-5.61,3.41a27.09,27.09,0,0,1-6.22,2.59c-2.11.61-4.23,1.21-6.35,1.78A57.37,57.37,0,0,1,44.59,106a65.85,65.85,0,0,1-7,.48c-2.27.08-4.54.2-6.81.18a19.77,19.77,0,0,1-6.32-.74c-2.39-.85-4.58-3-4.63-5.69,0-1.35.43-2.62.31-4a7.58,7.58,0,0,0-.32-1.41,4.39,4.39,0,0,1,0-2.13c.25-1.18.67-2.3.82-3.51a37.69,37.69,0,0,1,.68-4.47C22,82.11,23,79.62,23.2,76.86c.43-.48.86-1,1.3-1.43.85-.9,1.75-1.73,2.63-2.6A11,11,0,0,1,30,70.61a3.3,3.3,0,0,0-.32.62c-.37.94-.81,1.85-1.25,2.76A57.38,57.38,0,0,0,26,79.38a50.4,50.4,0,0,0-2.51,11c-.39,3.25-.82,6.54.58,9.61,1.18,2.6,3.75,5.17,6.8,4.78a.15.15,0,0,0,.1-.25,4.1,4.1,0,0,0-1.41-.76,6.21,6.21,0,0,1-2.34-1.27,7.14,7.14,0,0,1-2.14-4.28,22.65,22.65,0,0,1,0-4.8c.1-1.56.09-3.12.2-4.68a32.16,32.16,0,0,1,2.36-10.08c.6-1.48,1.24-3,1.91-4.44a11.47,11.47,0,0,1,2.67-3.82h0a.51.51,0,0,0,.15-.14,11.52,11.52,0,0,1,2.28.46c-1.69,2.78-.2,6.38-.18,9.38,0,2.17-.53,5.63,1.63,7a.17.17,0,0,0,.18,0c.69-.74.38-1.64.05-2.48a10,10,0,0,1-.52-4.31,32.23,32.23,0,0,0,.09-4.61,34,34,0,0,1-.22-4.62,11.53,11.53,0,0,1,3,1.85,16.62,16.62,0,0,1,1.78,1.78c-.05.13-.12.29-.13.31a6,6,0,0,0-.22.72c-.13.48-.21,1-.31,1.47-.23,1.14-.5,2.28-.76,3.41a27.58,27.58,0,0,0-.86,6.45,56,56,0,0,0,.54,6.08c.13,1.19.13,2.39.36,3.57.08.41.44,1.78,1.14,1.34s.12-2,0-2.46a32.27,32.27,0,0,1-.46-6.36,57,57,0,0,1,.48-7c.27-2.16.65-4.31,1.08-6.45.87,1.13,1.67,2.34,2.44,3.53A53.33,53.33,0,0,0,48.56,86a22.84,22.84,0,0,0,8,5.53C62,93.85,68,94.44,74,94.3A45.77,45.77,0,0,0,69.49,96.83ZM24.82,98.27a7.52,7.52,0,0,0,1.73,3.9,6.28,6.28,0,0,0,1.87,1.49c.69.36,1.44.45,2.09.85C27.42,104.77,25,101.59,24,99c-1.09-3-.5-6.32-.09-9.37a50.23,50.23,0,0,1,2.32-9.89,48,48,0,0,1,2.17-5c.37-.77.74-1.53,1.1-2.3s.48-1.6,1.14-2c0,0,0,0,0,0l.24-.1a.18.18,0,0,0,.07,0c.38,0,.76,0,1.13,0v0a.27.27,0,0,1-.07.08c-2.4,2-3.39,5.21-4.58,8A32.33,32.33,0,0,0,25,88.71c-.12,1.63-.1,3.28-.21,4.91A23.3,23.3,0,0,0,24.82,98.27ZM35.63,75.68a34.55,34.55,0,0,1-.1,4.88,9.39,9.39,0,0,0,.55,4.11c.1.26.19.51.27.78,0,.1.09,1.5-.21,1.31a2.91,2.91,0,0,1-1-1.55c-.69-2-.23-4.28-.45-6.38-.27-2.65-1.16-5.59.12-8.1l.6.21A32.65,32.65,0,0,0,35.63,75.68ZM40.74,75l.52.65a58.86,58.86,0,0,0-1.72,13.6A28.78,28.78,0,0,0,40,95.44a11.22,11.22,0,0,1,.27,1.64c0,.19.08.89-.32.8s-.44-.56-.52-.82A18.27,18.27,0,0,1,39,93.23c-.16-2-.49-3.91-.51-5.91a27.84,27.84,0,0,1,.92-6.91c.25-1,.48-2.09.7-3.14.11-.49.19-1,.31-1.47A7.35,7.35,0,0,1,40.74,75ZM72,101.39a19.41,19.41,0,0,0-4.29,2.34c-.16.11-1.69.93-1.6.32a1.4,1.4,0,0,1,.35-.6,14.36,14.36,0,0,1,1.9-1.84c1.86-1.61,3.84-3.08,5.79-4.58a28.19,28.19,0,0,0,3.69-2.92l.39,0c1.63-.12,3.25-.31,4.87-.51A10.82,10.82,0,0,0,80.36,96a17.33,17.33,0,0,0-2.5,4.31l0,.07A16.81,16.81,0,0,0,72,101.39Zm30.15-5c-1.25,1.79-2.41,3.63-3.7,5.39a29.77,29.77,0,0,1-4.4,4.85,15.4,15.4,0,0,1-5.68,3c-2,.62-4.06,1-6.06,1.61a61.7,61.7,0,0,0-6.21,2.32c-.9.39-1.81.76-2.69,1.18a13.39,13.39,0,0,1-1.9.84c-.32.1-.92.17-.8-.39a2.54,2.54,0,0,1,.55-.9c.38-.49.84-.92,1.21-1.42a24.39,24.39,0,0,0,3.12-5.57c.65-1.67,1.2-3.39,1.82-5.07,1.28-3.45,3.15-7.12,6.61-8.79l4.85-.65c3.33-.42,6.67-.69,10-1,2.29-.24,4.65-.52,7-.9C104.73,92.72,103.46,94.54,102.19,96.36Zm54.64-29.23a6.53,6.53,0,0,0,2.1.46c1,.15,2.11.25,3.15.43.51.09,1.8.23,2,.84.24.79-2.12,1.77-2.58,2-3.22,1.35-7.11.77-10.48.57a32.5,32.5,0,0,0-5.22,0,13.17,13.17,0,0,0-4.61,1.39c-3.32,1.63-6,4.26-9.09,6.31s-6.4,3.41-9.85,1.62c-.41-.22-.18.31-.18.31a6.65,6.65,0,0,0,3.2.93c-4.75,4.92-11.45,7.09-18,8.31S93.71,91.71,87,92.71l-2.64.37a.11.11,0,0,0-.08,0l-.08,0c-6.58.87-13.29,1.32-19.85.24a31,31,0,0,1-10.52-3.63A22,22,0,0,1,47,83.43c-2.1-2.91-3.8-6.11-6.14-8.84v0h0a.14.14,0,0,0-.15-.14,2,2,0,0,1-.19-.22,13,13,0,0,0-4.81-3.43.14.14,0,0,0-.15-.06A11.58,11.58,0,0,0,31,70a.18.18,0,0,0-.2,0,2.67,2.67,0,0,1-.33.12h0l-.06,0c-1.79.49-3.12-1-3.78-2.64A9.19,9.19,0,0,1,26,63.64a10.09,10.09,0,0,1,.9-4,3.68,3.68,0,0,1,3.19-2.19s.05,0,.07,0h.66l.05.07a.16.16,0,0,0,.29-.08c.34,0,.67,0,1-.08l0,0a.17.17,0,0,0,.28-.09,11.57,11.57,0,0,0,3.11-.9.11.11,0,0,0,.09,0,10.85,10.85,0,0,0,2.36-1.51,11.57,11.57,0,0,0,1.85-2,.13.13,0,0,0,.16-.16v-.06a14,14,0,0,0,.8-1.29.11.11,0,0,0,.07-.12h0a21.91,21.91,0,0,0,1.43-3.35,38,38,0,0,0,1.68-9.4c.29-4.25.39-8.67,2.26-12.59a28,28,0,0,1,7.84-9.37A27.35,27.35,0,0,1,65,11.1c8-1.93,16.54-1,24.56.41a60.32,60.32,0,0,1,11.73,2.78,53.12,53.12,0,0,1,11.5,6.63C119,25.4,125.07,31,127.52,38.53a15.83,15.83,0,0,1,.65,4.43.13.13,0,0,0,0,.09c1.1,3.48,3.78,6.28,5.85,9.21a25.74,25.74,0,0,0,3.48,4.18,21.55,21.55,0,0,0,4.56,3.18,22.31,22.31,0,0,0,5.36,2,30.34,30.34,0,0,0,6.66.5,33.25,33.25,0,0,1,6.91.48c1,.21,2.65.44,3.05,1.53s-.56,1.66-1.4,1.72a15.33,15.33,0,0,1-2.24-.15,4.9,4.9,0,0,0-3.59,1.17A.17.17,0,0,0,156.83,67.13Z"/><path class="cls-2" d="M130.13,52.33a7,7,0,0,0-3.2-.91,4.61,4.61,0,0,0-2.89,1.1,6.47,6.47,0,0,0-2.62,5.22c0,.26,0,.52.06.77a5.54,5.54,0,0,0,.77,2.33,7.16,7.16,0,0,0,1.43,1.85A6.63,6.63,0,0,0,126.13,64a6.77,6.77,0,0,0,1.65.36,3.18,3.18,0,0,0,1.19-.16,6.61,6.61,0,0,0,5.57-3.9,5.4,5.4,0,0,0-.67-4.59A9,9,0,0,0,130.13,52.33Zm-3.69-.54h.08a5.83,5.83,0,0,0-1.37.4A4.2,4.2,0,0,1,126.44,51.79ZM133,62a6.27,6.27,0,0,1-3.33,1.78.12.12,0,0,0-.1,0,3.37,3.37,0,0,0-.55.12,7,7,0,0,1-5.81-2.19,4.68,4.68,0,0,1-.48-.62,6.83,6.83,0,0,1-.92-2.58,6,6,0,0,1,5.92-6.62,7.44,7.44,0,0,1,2,.68,8.68,8.68,0,0,1,4.13,4A4.61,4.61,0,0,1,133,62Z"/><path class="cls-2" d="M128.28,55.79a2.83,2.83,0,0,0-3.18,2.84c.06,1.72,1.79,2.06,3.23,1.78l.3,0a3.16,3.16,0,0,0,2.21-1.48C131.71,57.24,129.65,55.9,128.28,55.79Z"/><path class="cls-2" d="M130.11,54.71a5.13,5.13,0,0,0-3.51-.38.14.14,0,0,0-.13,0,4.05,4.05,0,0,0-2.38,6.3,4.87,4.87,0,0,0,6.13,1.27,4.67,4.67,0,0,0,2-3.37A3.51,3.51,0,0,0,130.11,54.71Zm.47,6.44c-1.55,1.56-4.24,1.11-5.75-.25a3.53,3.53,0,0,1-.88-1.23A4,4,0,0,1,125.62,55l0,0,.1-.06a4.51,4.51,0,0,1,.79-.32,4.19,4.19,0,0,1,1.35-.14,4.23,4.23,0,0,1,3.79,2.25A4.43,4.43,0,0,1,130.58,61.15Z"/><path class="cls-2" d="M36.34,87.79c-.16,0-.46-.08-.52,0-.22,0-.23.18-.32.43a.85.85,0,0,0,.35,1,.78.78,0,0,0,1.07-.55A.74.74,0,0,0,36.34,87.79ZM35.92,89a.61.61,0,0,1-.2-.64.45.45,0,0,1,.53-.39c.43.14.35.36.38.61A.48.48,0,0,1,35.92,89Z"/><path class="cls-2" d="M33.13,58.63l-.26,0-.07,0a.15.15,0,0,0-.21,0c-1.69.11-2.07,2.16-2.19,3.69a20.3,20.3,0,0,0-.08,2.81,2.59,2.59,0,0,0,.8,2.06.91.91,0,0,0,.26.13v0c.16.7-.6.37-.81.28a1.83,1.83,0,0,1-.81-.75,3.46,3.46,0,0,1-.35-1.93c0-.83.13-1.68.22-2.5.18-1.6.54-4.47,2.77-3.94a.08.08,0,0,0,0-.15c-2.59-1.08-3,3.19-3.17,4.76-.14,1.4-.49,3,.43,4.22.46.61,2.2,1.29,2,0h.15c1.1,3.1,4.28-.71,4.74-2.42a7.76,7.76,0,0,0-.9-5.67C35.2,58.42,33.51,57.18,33.13,58.63Zm-2,8.16c-.5-.43-.52-1.36-.54-2s0-1.43,0-2.14c.08-1.46.24-3.65,1.9-3.9,0,0,0,0,.06.05a4.5,4.5,0,0,1,2.19,4.84A4.57,4.57,0,0,1,33.62,66C33.11,66.57,31.89,67.42,31.17,66.79Zm5-1.76c-.42,1.34-3.07,4.74-4,2.25a4.35,4.35,0,0,0,1.25-.67,4.69,4.69,0,0,0,1.61-2.52,4.91,4.91,0,0,0-1.82-5.26c.38-.9,1.08-.61,1.67-.07a4.88,4.88,0,0,1,1.1,2A7.13,7.13,0,0,1,36.21,65Z"/><path class="cls-2" d="M32.65,39.56a.16.16,0,0,0,.22.07c.71-.37.17-1.7-.59-1.27C31.71,38.68,32.16,39.63,32.65,39.56Zm-.27-.94c.18-.17.41,0,.48.19a.45.45,0,0,1-.15.55s0,0,0,0a.4.4,0,0,1-.34-.22A.45.45,0,0,1,32.38,38.62Z"/><path class="cls-2" d="M68.31,23c2.44-.7,4.36-3.57,3.21-6.08a.93.93,0,0,1,0-.1,3.25,3.25,0,0,0-1.18-1.49,3.81,3.81,0,0,0-2.15-.65,5.3,5.3,0,0,0-1.54,0,4.46,4.46,0,0,1,.51-.07.05.05,0,0,0,0-.1,4.69,4.69,0,0,0-4.43,5.07C62.91,22.44,65.82,23.68,68.31,23Zm2.38-2a4.09,4.09,0,0,1-1.4,1.25,5.94,5.94,0,0,0,2-2.67A4.71,4.71,0,0,1,70.69,21Zm-2.28-5.9a4.15,4.15,0,0,1,2.36,1.28,1.33,1.33,0,0,1,.14.19,3.14,3.14,0,0,1,.27,2.32c-.61,2.58-3.77,5-6.34,3.37A3.21,3.21,0,0,1,63.49,20a4.3,4.3,0,0,0,.51.87,3.71,3.71,0,0,0,2.9,1.44,4.43,4.43,0,0,0,3.27-2c1.07-1.34,1.23-3.19-.27-4.29A3.6,3.6,0,0,0,65.61,16a2.59,2.59,0,0,0-.73.92,2.48,2.48,0,0,0-.52,2.63,2.26,2.26,0,0,0,1.15,1.11,2.47,2.47,0,0,0,.68.46c2,.88,4.63-1.36,3.6-3.43a2.59,2.59,0,0,0-.53-.69h0c-.33-.95-1.2-1.06-2-.82a3.43,3.43,0,0,0-1.46.19,3.21,3.21,0,0,1,3.56-.23,2.46,2.46,0,0,1,1.36,2c.06,1.28-1,2.48-2,3.19C65.86,23.46,62.33,19.85,64,17A4.59,4.59,0,0,1,68.41,15.05Zm.23,2.5a1.41,1.41,0,0,0-1.11-.93c-.45,0-.81.34-1,.74l0,.05-.06.13c-.06.12-.11.24-.15.34-.17.45-.31,1.12.29,1.29a1.39,1.39,0,0,0,1-.23.49.49,0,0,0,.53-.38,1,1,0,0,0,.33-.58c0,.07,0,.13,0,.18.58,2.39-3.51,1.45-2.94-.23a2.42,2.42,0,0,1,1.64-1.4,3.26,3.26,0,0,1,1.77.71,1.5,1.5,0,0,1,.09.45,2.52,2.52,0,0,1-1.87,2.85,2.34,2.34,0,0,1-1.52-.19A3.1,3.1,0,0,1,65,17.73a2.39,2.39,0,0,1,.19-.57,2.47,2.47,0,0,1,1.11-.58,3,3,0,0,0-.43.31,1.81,1.81,0,0,0-.76,1.62c.17.82,1.06,1.18,1.78,1.37C68.54,20.33,69.23,18.93,68.64,17.55Zm-1.09,1-.09.06a1.22,1.22,0,0,1-.49-.36,1,1,0,0,1-.25-.49,1.19,1.19,0,0,1,.08-.16,2.29,2.29,0,0,1,.9.08c.22.05.32.13.35.23a.2.2,0,0,0-.11,0C67.48,18.06,67.45,18.18,67.55,18.51Zm-.49.26h0c-.58.19-.65-.15-.52-.57A1.73,1.73,0,0,0,67.06,18.77Zm0-1.61.07-.07c.41-.3.76,0,1,.36A2,2,0,0,0,67.11,17.16Zm2.3.61.12.21c.73,1.46-1,3-2.38,3a2.45,2.45,0,0,1-.39,0A2.86,2.86,0,0,0,69.41,17.77Zm-4.63,1.8a2,2,0,0,1-.2-.47,2,2,0,0,1,0-.85A3.49,3.49,0,0,0,64.78,19.57ZM63,20.06a4.38,4.38,0,0,1,1-3.87,4.92,4.92,0,0,0-.47,5A4.22,4.22,0,0,1,63,20.06Z"/><path class="cls-2" d="M81.67,21.33a3.75,3.75,0,0,0-1.76.72,3.89,3.89,0,0,0-2.44,4c.23,2.57,2.85,3.85,5.19,3.66,2.58-.21,4.75-2.16,4.36-4.86C86.67,22.46,83.93,21.06,81.67,21.33ZM84.35,29c-2.27,1.05-5.5.37-6.45-2.13a3.59,3.59,0,0,1,1.43-4.3,3.27,3.27,0,0,0-.67,3.57,4,4,0,0,0,3.91,2.3,2.93,2.93,0,0,0,2-.78,2.46,2.46,0,0,0,.84-2A2.57,2.57,0,0,0,85,23.37c-.92-1.08-2.75-1-4-.63a2.52,2.52,0,0,0-2,3,3.64,3.64,0,0,0,.59,1.2,3.41,3.41,0,0,1-.73-1.21,3.14,3.14,0,0,1,1.49-3.62l.26-.15a4.64,4.64,0,0,1,.65-.11.09.09,0,0,0,.06-.13,4.9,4.9,0,0,1,3,.39,3.92,3.92,0,0,1,2.34,3.34A3.72,3.72,0,0,1,84.35,29Zm-.12-4.91c-1.08-.8-3.21.27-3,1.66s2,1.41,2.71.47a.86.86,0,0,0-.06-1.15,1.72,1.72,0,0,0,.07-.21.19.19,0,0,0-.22-.23.37.37,0,0,0-.32.19c-.38-.07-.8.12-1,.75a.19.19,0,0,0,.17.23,1.36,1.36,0,0,0,1.1-.41.73.73,0,0,1,.05.12c.15.44-.37.87-.73,1a1.19,1.19,0,0,1-1.46-1c0-.88,1.36-1.39,2.05-1.27a1.33,1.33,0,0,1,1,1.62c-.46,2.06-4.33,1.09-3.8-1a2.22,2.22,0,0,1,2.43-1.41A2.34,2.34,0,0,1,85,25.07a2.37,2.37,0,0,1,.09.36,5.4,5.4,0,0,1-.18.57A1.72,1.72,0,0,0,84.23,24.08Zm-.89,1.16a.86.86,0,0,1-.43.16.68.68,0,0,1,.34-.27A.16.16,0,0,0,83.34,25.24Zm-1.44-2a2.12,2.12,0,0,0-1.28,2.91,2.63,2.63,0,0,0,3.28,1,1.78,1.78,0,0,0,.85-.77,2.94,2.94,0,0,1-2,1.72A2.79,2.79,0,0,1,81.55,28a3.43,3.43,0,0,1-2.27-2.79c-.1-1.69,2.07-2.35,3.4-2.33a2.85,2.85,0,0,1,2,.79,1.58,1.58,0,0,1,.4,1A2.49,2.49,0,0,0,81.9,23.19Z"/><path class="cls-2" d="M68.54,27.36a5,5,0,0,0-4.11,2.19,5.05,5.05,0,0,0-1.05,4.11,2.36,2.36,0,0,0,2.29,1.73A4.14,4.14,0,0,0,70.46,35a5,5,0,0,0,1.39-5.34A3.49,3.49,0,0,0,68.54,27.36Zm-.44,1.13a3.9,3.9,0,0,0-2.17,1l0,0-.13.12-.17.18a3.7,3.7,0,0,0-.58.84A4.51,4.51,0,0,0,64.54,32a5.11,5.11,0,0,1,.78-2.45A2.41,2.41,0,0,1,68.1,28.49ZM68,31.7a.39.39,0,0,1-.1-.08c-.08-.24-.24-.35-.46-.63-.06-.08-.18,0-.25,0-.61.51-.81,1.48.09,1.84s1.43-.48,1.31-1.29a1.47,1.47,0,0,0-2.48-.69,3.57,3.57,0,0,1,.42-.51,1.59,1.59,0,0,1,1.72-.43,1.53,1.53,0,0,1,.83,1.83c-.35,1.16-2.22,2-2.94.74A1.18,1.18,0,0,1,68,31c.45.36.41,1.46-.26,1.52a.73.73,0,0,1-.65-.38c-.17-.29,0-.58.23-.79a.17.17,0,0,0,0,.11c.12.16.18.35.3.51a.18.18,0,0,0,.3,0C68.08,32,68.18,31.78,68,31.7Zm1.51-.22a1.94,1.94,0,0,0-1.59-2,2.55,2.55,0,0,0-2.28,1.44,2.63,2.63,0,0,0-.27,2.4,2.81,2.81,0,0,1-.28-1.86,2.74,2.74,0,0,1,.63-1.26A3,3,0,0,1,67,29.33,2.1,2.1,0,0,1,69.51,32c-.37,1.27-1.86,2.45-3.17,1.76a1.52,1.52,0,0,1-.71-1.89,1.63,1.63,0,0,0,0,.31C66.14,34.52,69.25,33.26,69.52,31.48Zm-4.07,1.91a1,1,0,0,0,.14.21,2.13,2.13,0,0,0,2.67.45c2.11-1.06,2.35-4.16,0-5L68,28.92a2.91,2.91,0,0,1,1,0A3.33,3.33,0,0,1,70.42,31a3.09,3.09,0,0,1,0,1.25,4.93,4.93,0,0,1-2.18,2.22l-.22.1-.28,0A2.39,2.39,0,0,1,65.45,33.39Zm1.26,1.37A2.06,2.06,0,0,1,64.85,33,2.81,2.81,0,0,0,66.71,34.76Zm-3-.87A4.09,4.09,0,0,1,64,30.81a5.68,5.68,0,0,1,1.24-1.76c-1.27,1.6-1.32,4.62.06,6l.15.13A2.15,2.15,0,0,1,63.69,33.89Zm7.39-.18a4,4,0,0,1-4.7,1.68h.14c.09,0,.1-.16,0-.15l-.42,0a3.06,3.06,0,0,1-.73-.58l-.14-.16a2.53,2.53,0,0,0,1.66.65,3.08,3.08,0,0,0,1.3-.29A3,3,0,0,0,70.1,33.7a3.59,3.59,0,0,0,.62-1.39A3.19,3.19,0,0,0,71,30.48a2.45,2.45,0,0,0-1.79-1.91,3.52,3.52,0,0,0-1.21-.5,2.7,2.7,0,0,0-1.45.05A4,4,0,0,1,70.05,28C72.19,29,72.12,32,71.08,33.71Z"/><path class="cls-2" d="M52.79,27.82a2.85,2.85,0,0,0,2,1.57,4.65,4.65,0,0,0,5.56-2.19,2.38,2.38,0,0,0-1-3.27,5.28,5.28,0,0,0-4.59-.1,5,5,0,0,0-2.92,3.73c-.23,1.78,1.32,2.63,2.88,2.67.09,0,.08-.13,0-.14-1.65-.08-2.94-1-2.61-2.78a4.27,4.27,0,0,1,1.19-2.15A3,3,0,0,0,52.79,27.82Zm3-1a.7.7,0,0,0,.19.13c.06.07.11.18.17.24a.18.18,0,0,0,.31-.12c.48,0,.92-.14.49-.63s-1.38-1.28-1.86-.37a1.21,1.21,0,0,0,1,1.87,1.5,1.5,0,0,0,1.64-1.77c-.17-1.09-1.62-1.33-2.48-1.05h0a2.06,2.06,0,0,1,1.28-.5,2.52,2.52,0,0,1,1.82,1.09,2.44,2.44,0,0,1,.19.44,1.46,1.46,0,0,1-.15,1.22,5,5,0,0,1-2.71.69A2.21,2.21,0,0,1,54,27.51l0-.07a3.46,3.46,0,0,1,.37-1.18c.2-.21.41-.4.56-.53a1.73,1.73,0,0,1,2.2,0c.84.73,0,1.76-.87,1.82a1,1,0,0,1-.91-.37c-.21-.28-.08-1.29.41-1.22a1.56,1.56,0,0,1,.7.46l.23.24c.14.15-.27.05-.51-.05a.38.38,0,0,0-.23-.11C55.74,26.5,55.6,26.71,55.74,26.83Zm-1.68,1.4A1.12,1.12,0,0,1,54,28a3.66,3.66,0,0,0,1.84.46,5.55,5.55,0,0,0,1.7-.23,4.55,4.55,0,0,1-1,.47C55.77,29,54.46,29.22,54.06,28.23Zm6.14-1.58c-.58,2-2.78,2.86-4.72,2.56A5.28,5.28,0,0,0,57,28.88a3.24,3.24,0,0,0,1.68-1.34A1.53,1.53,0,0,0,59,27a1.69,1.69,0,0,0-.53-1.67,3.92,3.92,0,0,0-.37-.46,3.39,3.39,0,0,0-2.32-1.06C57.89,23.42,61,24.11,60.2,26.65Zm-6.68-1.24a2.49,2.49,0,0,1,2.91-1.18,2.06,2.06,0,0,1,.35.12,1.75,1.75,0,0,0-.55,0A2.92,2.92,0,0,0,54.06,26a2.71,2.71,0,0,0-.48.85.9.9,0,0,0,0,.71,1.61,1.61,0,0,0,.24,1C52.69,27.84,52.9,26.48,53.52,25.41Z"/><path class="cls-2" d="M56.78,40.22c.09,0,.16-.08.08-.13-2.31-1.25.15-4.74,2.25-4.13a2.93,2.93,0,0,1,1.59,2.87c-.1.73-.84.91-1.46.88a3.8,3.8,0,0,1-.53-.08h0a1.69,1.69,0,0,0,1.5-2.16,1.87,1.87,0,0,0-2.7-.84c-1.24.7-1.4,1.91-.21,2.75a3.26,3.26,0,0,0,3,.46c1.32-.61.5-2.55-.08-3.37C58.19,33.65,53.71,38.61,56.78,40.22Zm1.94-2.94a.82.82,0,0,1,.51,1.07.61.61,0,0,1-.67.5c-.28,0-.35-.27-.33-.51.16.2.39.18.51-.12a.16.16,0,0,0-.07-.19,1.82,1.82,0,0,1-.34-.34.17.17,0,0,0-.26,0,1.08,1.08,0,0,0,0,1.17.78.78,0,0,0,1,.22A1.2,1.2,0,0,0,59,37,1.38,1.38,0,0,0,57,38.14a1.06,1.06,0,0,0,.07.62.94.94,0,0,1,0-1.44A1.93,1.93,0,0,1,59,36.74a1.3,1.3,0,0,1,.29,2.39,1.4,1.4,0,0,1-1.83-.38C56.9,37.89,57.92,37.06,58.72,37.28Z"/><path class="cls-2" d="M82.37,33a2.33,2.33,0,0,0-2.77.08,2.78,2.78,0,0,0-1.14,2.21c.05.8.77,1,1.44.91l.14,0a3.27,3.27,0,0,0,3.1-1.6C83.41,33.91,82.94,33.36,82.37,33Zm-.64,2.54a3.07,3.07,0,0,1-1.85.35c-.79-.16-.68-1.12-.28-1.62A1.39,1.39,0,0,1,80,33.9a1,1,0,0,0-.19.22c-.51.79-.08,1.89,1,1.71.8-.13,1.68-.94,1.26-1.82s-1.47-.76-2.2-.38c-1,.51-1.26,2-.35,2.44-.77-.07-1.05-.71-.76-1.55A2.53,2.53,0,0,1,81,32.81c.72,0,2,.56,2,1.4C82.94,34.83,82.2,35.29,81.73,35.53Zm-.91-1.12a.79.79,0,0,1-.29-.18c-.12-.09-.33,0-.28.17s.19.7.56.74.43-.54.63-.55a.17.17,0,0,0,.08-.31c-.19-.11-.24-.44-.39-.61h.11c1,.18.65,1.27.05,1.65a1.17,1.17,0,0,1-.93.15c-.71-.19-.43-1.16.06-1.43s.48-.11.62.2a.64.64,0,0,0,.11.16c-.09.09-.17.2-.24.26A.18.18,0,0,0,80.82,34.41Z"/><path class="cls-2" d="M78.52,17.57a.08.08,0,0,0,.13-.05c1.63,1.52,4.63.34,5.17-1.65,1-3.67-4-3.49-5.91-1.85C76.59,15.18,77.35,16.66,78.52,17.57Zm2.29-3.41a1.89,1.89,0,0,0-2.26.89c-.49.93.45,1.84,1.3,2a2.55,2.55,0,0,0,2.66-1.32c.52-1-.36-2.14-1.3-2.46a2.49,2.49,0,0,0-1.1-.12,3.27,3.27,0,0,1,3.18.64,2.49,2.49,0,0,1,0,2.69,3.24,3.24,0,0,1-3.9,1.09c-1.73-.76-1.4-3.06.06-3.87s3.94,1,2.31,2.5c-.06,0-.11.09-.18.13l.08-.07C82.23,15.59,81.52,14.47,80.81,14.16Zm-1.13,2.29a1,1,0,0,0,.64.3c-.77,0-1.51-.29-1.56-1.17s1.11-1.32,1.91-1a1,1,0,0,0-.54,0C79.27,14.67,79.15,15.91,79.68,16.45Zm.37-.16a.82.82,0,0,1,.18-1.44c.38-.13.64.2.58.55s-.27.13-.42-.06-.39.07-.25.25a1.45,1.45,0,0,0,.59.48.18.18,0,0,0,.2-.08,1,1,0,0,0-.16-1.4,1.07,1.07,0,0,1,.44.31A.91.91,0,0,1,80.05,16.29Zm-2.66-1.08a2.49,2.49,0,0,1,1.45-1.56,4.86,4.86,0,0,1,.51-.23,2.54,2.54,0,0,0-.88,3.93A2.38,2.38,0,0,1,77.39,15.21Z"/><path class="cls-2" d="M106.14,20.31a4.63,4.63,0,0,0-6,.63c-1.23,1.2-2.34,3.58-1.1,5.14a3.28,3.28,0,0,0,1.89,1.09,2.86,2.86,0,0,0,.82.48,4.66,4.66,0,0,0,5.57-2A4.36,4.36,0,0,0,106.14,20.31Zm-5.87,6.06A1.9,1.9,0,0,1,100,26a2.62,2.62,0,0,1,0-2.45A4,4,0,0,0,100.27,26.37Zm.91.5a2.79,2.79,0,0,1-1-1.88,3.75,3.75,0,0,1,0-1.25,2.33,2.33,0,0,0,.93,1.86,3.11,3.11,0,0,0,3.66-.09,1.92,1.92,0,0,0,.43-2.85,3.2,3.2,0,0,0-1.08-.8,2.91,2.91,0,0,0-.54-.34,2.19,2.19,0,0,0-2.39.34l-.12.05a2.85,2.85,0,0,1,1.9-1c1.81-.15,4.11,1.24,3.09,3.22a5.61,5.61,0,0,1-4.24,2.77A2.25,2.25,0,0,1,101.18,26.87Zm1.59-3.64c.14.14.15.28.33.4a.18.18,0,0,0,.27-.16.82.82,0,0,0-.68-.83c.47-.21,1-.11.89.55a1.18,1.18,0,0,1-1.14.9c-.51,0-.56-.53-.4-.89a.46.46,0,0,1,.71-.17A.15.15,0,0,0,102.77,23.23Zm.07,1.15c.68-.17,1.6-1.29.94-1.95s-1.68,0-2.06.56a1.57,1.57,0,0,0,.6,2.36,2,2,0,0,0,2.47-1.13,2,2,0,0,0,0-1.59,1.69,1.69,0,0,1-.45,2.81,2.56,2.56,0,0,1-3.54-.82,2,2,0,0,1,.69-2.51,3.31,3.31,0,0,1,2.53,0,1.76,1.76,0,0,1,.39,2.11c-.54,1.06-2.46,1.25-2.61-.15A1.17,1.17,0,0,0,102.84,24.38Zm2.42,2.77a4.14,4.14,0,0,1-3.47.1,5.56,5.56,0,0,0,2.14-.63c1.27-.65,2.7-1.9,2.8-3.42.13-1.76-2.19-2.62-3.6-2.6a3.19,3.19,0,0,0-2.77,1.85,3,3,0,0,0-.42,4.07,1.66,1.66,0,0,0,.33.32A2.54,2.54,0,0,1,98.72,25a4.41,4.41,0,0,1,1.1-3.35c1.64-2.08,4.86-2.7,6.73-.55A4,4,0,0,1,105.26,27.15Z"/><path class="cls-2" d="M96.2,16.55A2.63,2.63,0,0,0,92.3,18a2.33,2.33,0,0,0,0,1.95,1.63,1.63,0,0,0,1.82.59s0,0,0,0a4,4,0,0,0,3.18-.76C98.59,18.7,97.18,17.21,96.2,16.55Zm1.09,2.82a3.44,3.44,0,0,1-3.85.58c-.7-.4-.45-1.17-.1-1.73l.11-.16a1.31,1.31,0,0,0,.06,1.48,1.92,1.92,0,0,0,2.41,0,1.39,1.39,0,0,0,.14-2.21,2.05,2.05,0,0,0-2.59.19c-1,.9-1.18,2.4.22,2.89l.32.09c-2.61.27-1.82-2.9-.3-3.85,1.11-.69,2.27-.07,3.1.74C97.34,17.9,97.83,18.7,97.29,19.37Zm-2.74,0a.56.56,0,0,0,.83-.26c.32-.72-.3-1.82-1.15-1.65a1.91,1.91,0,0,1,.74-.14,1.11,1.11,0,0,1,1.12,1.58c-.35.74-1.85,1.1-2.37.37a1,1,0,0,1,.63-1.48.75.75,0,0,1,.7.54,1,1,0,0,1,0,.38l-.1.08c-.13-.29-.17-.47-.51-.6a.18.18,0,0,0-.21.12C94.17,18.63,94.16,19.15,94.55,19.34Z"/><path class="cls-2" d="M93.82,28.59a.06.06,0,0,0,0-.11c-1.75-.43-2.5,2.24-.84,2.88a1.69,1.69,0,0,0,.92.06,1.41,1.41,0,0,0,.46,0c.1,0,.12-.1.11-.17.9-.44,1.51-1.46.64-2.34A1.39,1.39,0,0,0,93.82,28.59Zm-.06,0-.15,0a.86.86,0,0,0-.42,0A1.09,1.09,0,0,1,93.76,28.61Zm-1.52,1.26a.77.77,0,0,0,.1.25,1.05,1.05,0,0,0,.08.34,1.22,1.22,0,0,0,.5.61A1.11,1.11,0,0,1,92.24,29.87Zm.55.61.16.06a1.13,1.13,0,0,0,0,.18A1.12,1.12,0,0,1,92.79,30.48Zm.15-.17-.07,0-.19-.12a.87.87,0,0,1,0-.45,1.47,1.47,0,0,1,.94-.75l.21.11h0a1.2,1.2,0,0,0-.79.73A1.46,1.46,0,0,0,92.94,30.31Zm.57.61h-.06a.77.77,0,0,1-.12-.13,1.11,1.11,0,0,1-.07-.16l.47,0a1.33,1.33,0,0,0,.39,0A1,1,0,0,1,93.51,30.92Zm.44-.73A1.14,1.14,0,0,1,94.1,30l.07.07A.73.73,0,0,1,94,30.19Zm.21-.62a.17.17,0,0,0-.2,0,2.32,2.32,0,0,0-.49.81v0l-.25-.05A1.38,1.38,0,0,1,93.3,30a1,1,0,0,1,.54-.65.73.73,0,0,1,.25,0l0,.06a.67.67,0,0,1,.16.36ZM94.35,31a.66.66,0,0,0,.28-.49.71.71,0,0,0,.19-.23.44.44,0,0,0,.29-.2.16.16,0,0,0-.14-.25.51.51,0,0,1,0-.13.17.17,0,0,0-.22-.16,1.05,1.05,0,0,0-.47-.37,1.1,1.1,0,0,0-.21-.22,1,1,0,0,1,1,.51C95.46,30.11,95,30.67,94.35,31Zm.13-1.53.18.15-.1.16A1.18,1.18,0,0,0,94.48,29.42Z"/><path class="cls-2" d="M103.86,33A2.47,2.47,0,0,0,102.29,35a.51.51,0,0,0,0,.13A1.46,1.46,0,0,1,103.56,33c.1,0,.1-.17,0-.16-2.2.21-2,2.83-.37,3.76a2.32,2.32,0,0,0,2.73-.39,1.9,1.9,0,0,0,0-2.26A1.83,1.83,0,0,0,103.86,33Zm-.9,2.12a2.36,2.36,0,0,1,.09-.73,1.6,1.6,0,0,1,.32-.45.76.76,0,0,1,.16-.06,1.2,1.2,0,0,1,.82.15,1.77,1.77,0,0,0-.64.36,1,1,0,0,0-.43,1,.93.93,0,0,1-.38-.1s0-.06,0-.09A0,0,0,0,0,103,35.16Zm1.44-.67a1.84,1.84,0,0,1,.3.08,2.16,2.16,0,0,0-.41.72h0l-.2.05a4.14,4.14,0,0,1-.45.06.78.78,0,0,1,0-.28,1.12,1.12,0,0,1,.44-.52,1.06,1.06,0,0,1,.3-.16A.08.08,0,0,0,104.4,34.49Zm-1.53-.25a1.9,1.9,0,0,0-.21.84C102.52,34.83,102.64,34.53,102.87,34.24Zm-.37,1.25a.87.87,0,0,0,.25.15,1.25,1.25,0,0,0,.3.49A2.4,2.4,0,0,1,102.5,35.49Zm1.27,1h0Zm-.53-.57a1.06,1.06,0,0,1-.17-.2,2.77,2.77,0,0,0,.42,0,1.55,1.55,0,0,0,.3.21c.49.24.91-.11,1.15-.56l.17-.09A1.18,1.18,0,0,1,103.24,35.92Zm2.11.21a1.88,1.88,0,0,1-.58.13,1.72,1.72,0,0,0,.58-.59.94.94,0,0,0,.14-.58C105.75,35.48,105.84,35.9,105.35,36.13Zm.62-.82s0-.09,0-.13a2.53,2.53,0,0,0-.47-.7.44.44,0,0,0-.08-.11,1,1,0,0,0-.38-.29,2.35,2.35,0,0,0-1-.42,1.22,1.22,0,0,1,.33,0c.12,0,.14-.18,0-.19a1.24,1.24,0,0,0-.51,0,1.17,1.17,0,0,1,.36-.16c.84-.19,1.53.65,1.75,1.35A1.48,1.48,0,0,1,106,35.31Z"/><path class="cls-2" d="M110.35,26.93a3.46,3.46,0,0,0-.57.51,1.82,1.82,0,0,0,.2,2.65,3.49,3.49,0,0,0,5.38-1C116.52,26.57,111.52,24.85,110.35,26.93Zm4,3a3.36,3.36,0,0,1-4.49-.3,1.61,1.61,0,0,1,.3-2.22c-.44,1.88,2,4,3.6,2.6a1.69,1.69,0,0,0,.34-2,.92.92,0,0,0-.27-.57,1.27,1.27,0,0,0-.61-.34,2.16,2.16,0,0,0-1.79-.1,1.58,1.58,0,0,0-.91,1.46,1.81,1.81,0,0,1,.21-1.53,3.88,3.88,0,0,1,1.68-.58,5.61,5.61,0,0,1,.63.09A3.06,3.06,0,0,1,115,27.62C115.52,28.44,115,29.32,114.36,29.91Zm-2-1.48a.14.14,0,0,0,0,.09,1.61,1.61,0,0,1-.36-.1c-.31-.14.3-.83.43-.91a.78.78,0,0,1,.49-.15,1.15,1.15,0,0,1,.25.12A1.19,1.19,0,0,0,112.37,28.43Zm.84-.61a.67.67,0,0,1,0,.2h0a.34.34,0,0,0-.31.11l-.06,0A.77.77,0,0,1,113.21,27.82Zm-1.33-.22a1.66,1.66,0,0,0-.25.87.16.16,0,0,0,.08.14c.84.51,2,.15,1.81-.89.06.06.12.11.17.17a1,1,0,0,1,0,.54c-.28,1.42-3.23,1.42-2.86-.33a1.2,1.2,0,0,1,1.44-.9A1.06,1.06,0,0,0,111.88,27.6ZM114,28.71a1.49,1.49,0,0,1-.61,1.2,1.86,1.86,0,0,1-2.1-.31,2.34,2.34,0,0,0,1.89-.07A2,2,0,0,0,114,28.71Z"/><path class="cls-2" d="M48.76,41c-1.49-.84-3.28,2-1.6,2.91,1.13.61,3.17-.46,2.84-1.84A1.41,1.41,0,0,0,48.76,41Zm-.94,2.81a1.07,1.07,0,0,1-1.1-1.1,1.67,1.67,0,0,1,1.6-1.66h0a1.7,1.7,0,0,0-1.08,1.53c0,1.37,2.91.9,2-.45a.77.77,0,0,0-.75-.36c-.46.06-.53.74-.55,1.09,0,.13.14.18.25.14l.35-.15a.17.17,0,0,0,.22-.06l.06-.09a.84.84,0,0,0,.23-.28c.38.67-.83.73-1.21.57-.75-.33.58-2.7,1.75-1.16C50.38,42.92,48.69,43.82,47.82,43.83Zm1-1.67a1.86,1.86,0,0,0-.23.32,1.68,1.68,0,0,1-.3.15c0-.23.09-.47.29-.54A.28.28,0,0,1,48.78,42.16Z"/><path class="cls-2" d="M118.41,37.37a1.12,1.12,0,0,0-.76-.18l-.19,0a.45.45,0,0,0-.32-.24.09.09,0,0,0-.08-.16c-.76.15-1.64.6-1.34,1.36a1.2,1.2,0,0,0,0,.89,1.61,1.61,0,0,0,1.45.81,1.51,1.51,0,0,0,.81-.24h.27C119.4,39.43,119.09,37.85,118.41,37.37Zm-1.11-.21a1.59,1.59,0,0,0-.43.06,1.24,1.24,0,0,0-.8,1.05,1.07,1.07,0,0,1-.13-.19,2.07,2.07,0,0,1,.5-.67,1.51,1.51,0,0,1,.43-.32A.3.3,0,0,1,117.3,37.16Zm-.83,0-.16.13a2.1,2.1,0,0,0-.42.48C115.92,37.5,116.16,37.3,116.47,37.15Zm.16,2.29a1.08,1.08,0,0,1-.76-1l0,0,.17.19a.77.77,0,0,0,.91.7h0a4.52,4.52,0,0,0,.47.18A1.61,1.61,0,0,1,116.63,39.44Zm1.44-.27a.49.49,0,0,1-.13.12,2.09,2.09,0,0,1-.53-.11.79.79,0,0,0,.31-.76.14.14,0,0,0,0-.21s0,0,0,0l0,0,.06-.06c.12-.13,0-.36-.2-.26h0a.36.36,0,0,0-.07-.1.16.16,0,0,0-.3.08,1.43,1.43,0,0,1-.2.58.17.17,0,0,0,.06.23h0s0,0,0,0a.15.15,0,0,0,0,.07.17.17,0,0,0,0,.12h0a.63.63,0,0,1-.23,0l-.19-.13a.43.43,0,0,1-.06-.24,1.13,1.13,0,0,1,1-1,0,0,0,0,0,.09,0h.1a.91.91,0,0,1,.4,1.66Zm.66-.62a.66.66,0,0,1-.34.69,1.92,1.92,0,0,0,.27-.46A.68.68,0,0,0,118.73,38.55Z"/></g></svg>