<svg xmlns="http://www.w3.org/2000/svg" viewBox="0 0 219.78 198.93"><defs><style>.cls-1{fill:#fff;}.cls-2{fill:#272525;}</style></defs><title>life</title><g id="color"><path class="cls-1" d="M33.69,120.35c.76,0,1.5-.16,2.25-.13-.19-.69-.38-1.39-.55-2.08a21.5,21.5,0,0,1-11.23.21l.52,1.38h.11a21.15,21.15,0,0,0,5.84.63C31.65,120.41,32.68,120.41,33.69,120.35Z"/><path class="cls-1" d="M35.32,117.89c-.16-.65-.32-1.3-.47-2A27.86,27.86,0,0,1,23,115.13c.34.92.67,1.83,1,2.74h.08A32.7,32.7,0,0,0,35.32,117.89Z"/><path class="cls-1" d="M38,126.71c-.23-.63-.45-1.27-.66-1.91a25.87,25.87,0,0,1-10.87-.4c.16.41.33.82.5,1.24h.08C30.64,126.94,34.31,126.65,38,126.71Z"/><path class="cls-1" d="M36.6,122.44c-.21-.67-.41-1.35-.6-2-1.8.12-3.55.39-5.37.36a18.85,18.85,0,0,1-5.75-.53c.21.57.43,1.13.65,1.7,1.86.23,3.71.46,5.58.57S34.76,122.49,36.6,122.44Z"/><path class="cls-1" d="M34.78,115.64l-.42-1.76a11.41,11.41,0,0,1-5.43.79,23.68,23.68,0,0,1-6.52-1c.12.31.23.63.35.94C26.72,115.88,30.68,115.69,34.78,115.64Z"/><path class="cls-1" d="M37.28,124.57c-.22-.66-.43-1.32-.64-2-3.43.9-7.42.38-10.91-.12l.54,1.39A31.88,31.88,0,0,0,37.28,124.57Z"/><path class="cls-1" d="M32.2,106.61c-.05-.14-.09-.27-.15-.41-.2-.52-.41-1-.62-1.56-3.84,1.1-8,.26-11.84-.51q.14.69.3,1.38C23.9,107.16,28.09,105.81,32.2,106.61Z"/><path class="cls-1" d="M34.31,113.68c-.12-.47-.23-.94-.36-1.42a18.74,18.74,0,0,1-6,.35,29.61,29.61,0,0,1-6.28-1c.17.49.34,1,.52,1.48a25,25,0,0,0,6.37,1.13A14,14,0,0,0,34.31,113.68Z"/><path class="cls-1" d="M29.9,108.71a5.25,5.25,0,0,0,2.82-.63c-.14-.41-.28-.82-.43-1.24h0c-4-.1-8.47.73-12.26-.8.16.66.34,1.32.53,2h.05a44.1,44.1,0,0,0,6.27.72C27.88,108.79,28.89,108.77,29.9,108.71Z"/><path class="cls-1" d="M33.88,112c-.16-.6-.33-1.2-.5-1.8-1.68.72-3.9.5-5.68.48a24.85,24.85,0,0,1-6.5-.54c.1.31.2.63.31.94h0C25.4,112.13,29.9,112.81,33.88,112Z"/><path class="cls-1" d="M33.34,110.05c-.17-.57-.35-1.15-.54-1.72-1.16,1.09-3.64.9-5.06.91a25.3,25.3,0,0,1-7-.7c.11.36.22.73.34,1.09h.12a26.24,26.24,0,0,0,6.07.63C29.16,110.34,31.47,110.61,33.34,110.05Z"/><path class="cls-1" d="M36.76,135.77a41.09,41.09,0,0,1-5.51-.7l.75,1.46c1.52.71,3.58.63,5.22.69s3.56,0,5.35,0c-.31-.61-.62-1.21-.91-1.82A12.09,12.09,0,0,1,36.76,135.77Z"/><path class="cls-1" d="M36,144c.32.59.66,1.18,1,1.76,3.39-.33,6.81-.28,10.15-1-.25-.35-.51-.68-.75-1C43.05,143.88,39.38,144.84,36,144Z"/><path class="cls-1" d="M40,141.86a36.45,36.45,0,0,1-5.12,0l.31.56.54,1h.13c3.45.93,6.91-.1,10.4,0-.48-.7-.93-1.42-1.38-2.15A13.89,13.89,0,0,1,40,141.86Z"/><path class="cls-1" d="M33.72,139.77l.85,1.55a.22.22,0,0,1,.14,0,31.53,31.53,0,0,0,4.86.1,21.23,21.23,0,0,0,5.16-.37c-.35-.57-.68-1.14-1-1.72A53.93,53.93,0,0,1,33.72,139.77Z"/><path class="cls-1" d="M37.34,146.2a15.25,15.25,0,0,0,1.38,1.89c1.64-.29,3.31-.09,5-.31s3.37-.88,5.11-1c-.5-.62-1-1.25-1.46-1.89A59.09,59.09,0,0,1,37.34,146.2Z"/><path class="cls-1" d="M51.83,150.06c-.41-.39-.82-.78-1.21-1.19a34,34,0,0,1-9.13,1.51C44.66,152,48.54,151,51.83,150.06Z"/><path class="cls-1" d="M49,147.1a52,52,0,0,0-5.21,1.12c-1.54.29-3.12.1-4.67.33a11.65,11.65,0,0,0,1.27,1.16c.12.09.24.16.36.24a41.83,41.83,0,0,0,9.64-1.3c-.46-.49-.91-1-1.34-1.49Z"/><path class="cls-1" d="M40.61,133.11c-.15-.34-.31-.67-.46-1l-.34-.82a13.51,13.51,0,0,1-5.11.29,42,42,0,0,1-5.46-.69c.25.56.51,1.1.77,1.65A56.09,56.09,0,0,0,40.61,133.11Z"/><path class="cls-1" d="M36.78,137.64a15.63,15.63,0,0,1-4.45-.49l1.11,2.1h0a70.18,70.18,0,0,0,10.15-.18c-.31-.55-.62-1.11-.91-1.67A36.36,36.36,0,0,1,36.78,137.64Z"/><path class="cls-1" d="M39.71,131c-.28-.66-.55-1.32-.81-2a21.69,21.69,0,0,1-10.73-.57c.27.63.55,1.25.82,1.87a45.21,45.21,0,0,0,5.31.74A18.16,18.16,0,0,0,39.71,131Z"/><path class="cls-1" d="M38.8,128.8c-.23-.6-.46-1.21-.68-1.82a24.1,24.1,0,0,1-10.91-.78l.72,1.7a.22.22,0,0,1,.11,0C31.56,129.1,35.15,129,38.8,128.8Z"/><path class="cls-1" d="M31,134.51c1.78.37,3.59.59,5.39.78a14.9,14.9,0,0,0,5.16-.17c-.28-.58-.55-1.16-.81-1.75a28.26,28.26,0,0,1-10.45-.27c.22.47.46.94.69,1.41Z"/><path class="cls-1" d="M31.34,104.41l-.66-1.63c-3.57,1.13-7.75.49-11.36-.16l.18,1C23.47,104.37,27.33,105.11,31.34,104.41Z"/><path class="cls-1" d="M19,96.1c3.15,0,6.11,1.37,9.29.75-.06-.18-.14-.35-.2-.53s-.23-.66-.33-1c-1.54,0-3.09.09-4.63.07a32.24,32.24,0,0,1-4-.42C19.07,95.35,19,95.72,19,96.1Z"/><path class="cls-1" d="M30.58,102.54c-.49-1.18-1-2.37-1.46-3.55-3.35-.08-7,.22-10.18-1.18,0,.71,0,1.41.07,2.1h.07a48.76,48.76,0,0,0,5.51.68c.94.08,1.88.14,2.82.16.59,0,1.6.12,2.08-.28,0,0,.1,0,.08,0-.3,1-3.27.59-3.94.56a28.39,28.39,0,0,1-6.58-.68c.05.59.12,1.18.2,1.76h.05C23.14,102.41,26.73,103.27,30.58,102.54Z"/><path class="cls-1" d="M94.86,8.33c2.71,1.41,5.43,2.81,8.09,4.32,2.5,1.43,4.9,3,7.26,4.64a13.71,13.71,0,0,1,4.53,4.4l1.54.13a47.78,47.78,0,0,0-12.46-9.47A133.63,133.63,0,0,0,86.93,3.92,9.4,9.4,0,0,0,87,5.11,35.79,35.79,0,0,1,94.86,8.33Z"/><path class="cls-1" d="M112.66,21.54a15.18,15.18,0,0,0-4.61-4c-2-1.31-4.08-2.55-6.19-3.7a62.15,62.15,0,0,0-14.14-6c.13.4.27.8.42,1.19h.11c8.07,3,16.32,6.1,22.45,12.38C111.35,21.49,112,21.51,112.66,21.54Z"/><path class="cls-1" d="M116.61,21.86,118,22a19.43,19.43,0,0,0-5.52-5.58,76.59,76.59,0,0,0-8-5.11C98.82,8.12,92.78,5.66,87,2.59a4.6,4.6,0,0,0-.11.83A128.87,128.87,0,0,1,104.05,12C108.61,14.54,113.49,17.53,116.61,21.86Z"/><path class="cls-1" d="M108.17,21.48a36.92,36.92,0,0,0-8.92-5.76C96,14.18,92.52,13,89.2,11.54c.18.38.37.77.56,1.14a47.49,47.49,0,0,1,8.76,3.53,26,26,0,0,1,7.75,5.36C106.9,21.53,107.54,21.5,108.17,21.48Z"/><path class="cls-1" d="M110.37,21.47c-6.19-5.87-14.14-9-22-11.87.19.48.39,1,.61,1.42a.15.15,0,0,1,.13,0c3.47,1.42,7,2.74,10.39,4.32a26.45,26.45,0,0,1,9,6.14C109.07,21.46,109.72,21.46,110.37,21.47Z"/><path class="cls-1" d="M106.05,21.59a31.91,31.91,0,0,0-7.36-4.85A47.35,47.35,0,0,0,90,13.21c.12.22.23.44.34.66s.09.17.14.26A31.35,31.35,0,0,1,97.91,17a21.32,21.32,0,0,1,6.35,4.75C104.85,21.68,105.45,21.63,106.05,21.59Z"/><path class="cls-1" d="M109.59,9.7a46.66,46.66,0,0,1,8.67,6.44c1.36,1.28,2.63,2.62,3.89,4a9.47,9.47,0,0,1,2.19,3.14l.76.19c-2.75-5.89-8.56-10.46-13.93-13.81-3.07-1.91-6.34-3.53-9.55-5.18Q99.15,3.2,96.63,2A18.61,18.61,0,0,0,91.77.16.16.16,0,0,1,91.62,0a7.35,7.35,0,0,0-1.93.11C93,1.36,96.12,3,99.29,4.42,102.79,6.05,106.24,7.77,109.59,9.7Z"/><path class="cls-1" d="M101.41,3.9c3.48,1.78,7,3.57,10.32,5.64A48.75,48.75,0,0,1,120,16.09a22.77,22.77,0,0,1,5.39,7.44l.71.2L126,23.4l-.15-.06c-.16-.07-.1-.24,0-.31a.06.06,0,0,1,0-.07.68.68,0,0,1-.09-.14l-.43-.72a18.35,18.35,0,0,0-1.27-2,46.21,46.21,0,0,0-3.39-4,48.06,48.06,0,0,0-7-6A71.77,71.77,0,0,0,98.17,1.68,27.86,27.86,0,0,0,94.07.39c.65.26,1.29.56,1.94.86C97.83,2.09,99.63,3,101.41,3.9Z"/><path class="cls-1" d="M108.84,11.05A93.25,93.25,0,0,1,117,16.74c2,1.62,4.26,3.55,5.25,6,.61.13,1.21.27,1.82.42a15.54,15.54,0,0,0-2.86-3.57c-1.22-1.33-2.55-2.58-3.88-3.82a45.88,45.88,0,0,0-8.66-6.17c-3.11-1.77-6.33-3.34-9.57-4.85S92.44,1.59,89,.33a3.36,3.36,0,0,0-.54.26c3.46,1.54,6.85,3.21,10.22,4.93S105.57,9,108.84,11.05Z"/><path class="cls-1" d="M113.22,16.55c2,1.5,4,3.23,5,5.52l1.64.27c-3.39-5-8.48-8.39-13.69-11.28-6.14-3.39-12.54-6.31-18.86-9.35a2,2,0,0,0-.19.42c5.9,3.18,12.1,5.73,17.92,9.07A74.49,74.49,0,0,1,113.22,16.55Z"/><path class="cls-1" d="M120.28,22.4l1.61.32c-1.26-2.52-3.52-4.41-5.73-6.08-2.66-2-5.43-3.91-8.27-5.66-3.17-2-6.52-3.6-9.82-5.29s-6.63-3.32-10-4.81l-.22.17-.23.27C94.14,4.47,100.75,7.5,107.09,11,112.19,13.89,117.19,17.34,120.28,22.4Z"/><path class="cls-1" d="M113.77,21.6l.66.06a17.52,17.52,0,0,0-5-4.42c-2.32-1.55-4.68-3-7.11-4.4S97.44,10.24,95,9a37.73,37.73,0,0,0-7.87-3.31l.06.27c.1.51.24,1,.39,1.51h0a63.61,63.61,0,0,1,14.87,6.3c2.18,1.2,4.29,2.52,6.35,3.91a12.15,12.15,0,0,1,4,3.92Z"/><path class="cls-1" d="M20.44,89.83h.08c2.12.34,4.21,1.23,6.37.83-.06-.55-.11-1.09-.16-1.64a7.74,7.74,0,0,1-5.56-.84C20.9,88.71,20.66,89.27,20.44,89.83Z"/><path class="cls-1" d="M22.3,86.14c-.33.53-.63,1.07-.92,1.61a12,12,0,0,0,5.33,1l-.15-2a10.31,10.31,0,0,1-4.13-.55A.24.24,0,0,1,22.3,86.14Z"/><path class="cls-1" d="M20.27,90.26a19.36,19.36,0,0,0-.59,1.87.22.22,0,0,1,.25-.07,26.12,26.12,0,0,0,7.22.52q-.15-.84-.24-1.71c-2.09.69-4.45-.16-6.52-.55A.23.23,0,0,1,20.27,90.26Z"/><path class="cls-1" d="M18.94,97.29c3.23,1.43,6.69.83,10.07,1.42-.22-.55-.43-1.1-.64-1.65-3,1.07-6.3-.35-9.4-.46C19,96.83,18.94,97.06,18.94,97.29Z"/><path class="cls-1" d="M19.61,92.38c-.17.68-.31,1.37-.42,2.08,1.32.16,2.62.39,3.94.47,1.52.08,3.05,0,4.56.15a22.5,22.5,0,0,1-.51-2.27,16,16,0,0,1-7.39-.25A.24.24,0,0,1,19.61,92.38Z"/><path class="cls-1" d="M102.59,22l1.41-.19c-3.64-3.61-8.41-5.47-13.19-7.09.12.21.25.42.37.64a.21.21,0,0,1,.19,0c4.27,1,7.51,4.07,10.84,6.75Z"/><path class="cls-1" d="M28.64,63.78a5.92,5.92,0,0,0,.9-.38,7.3,7.3,0,0,0,.95-.61c.12-.08.14.07,0-.22l-.21-.49c-1.94-4.7.18-9.27,3.42-12.78,4.61-5,10.94-8.38,17-11.28A191.87,191.87,0,0,1,87.27,25.23a.34.34,0,0,1-.09-.14c-.06-.14.14-.21.23-.13l.2.19.58-.14-.39-.27a.15.15,0,1,1,.15-.25,2.51,2.51,0,0,1,.62.42l1-.24-.27-.17a7,7,0,0,1-.9-.48c-.13-.09-.06-.32.11-.27a6.48,6.48,0,0,1,1.43.83l1.1-.26c-.6-.33-1.2-.67-1.82-1-.2-.11,0-.4.18-.3a13.45,13.45,0,0,1,2,1.21L93,23.87c-.79-.42-1.58-.85-2.33-1.32-.18-.11,0-.35.16-.27a14.32,14.32,0,0,1,2.55,1.5l1.67-.37.07,0c-1.07-.71-2.28-1.15-3.38-1.82-.2-.12,0-.4.18-.31a16.23,16.23,0,0,1,3.46,2.08L97,23a21.39,21.39,0,0,0-4.37-2.54c-.26-.11,0-.5.23-.38A17.61,17.61,0,0,1,97.23,23l1-.22a17,17,0,0,0-2.6-1.84c-1.13-.67-2.44-1.12-3.51-1.86-.17-.12-.07-.42.15-.35a17.11,17.11,0,0,1,3.59,1.83,12.58,12.58,0,0,1,2.72,2.15l1.63-.3a25.57,25.57,0,0,1-3.6-2.25A22,22,0,0,0,92,17.51a2.83,2.83,0,0,1,0,.65c-.18,1.63-2.14,2.75-3.35,3.56C84,24.83,77.74,25,72.31,25.49a140,140,0,0,0-14.67,2.23,101.94,101.94,0,0,0-14.27,3.66c-6.44,2.24-12.88,5.69-16.73,11.53a20.46,20.46,0,0,0-3.3,10.93A11.82,11.82,0,0,0,28.64,63.78Z"/><path class="cls-1" d="M23.55,84.34c-.36.48-.71,1-1,1.48h0c1.35.28,2.63.61,4,.79,0-.56-.09-1.11-.15-1.67a3.24,3.24,0,0,1-2.77-.43A.2.2,0,0,1,23.55,84.34Z"/><path class="cls-1" d="M96.26,19.32c1.46,1,2.94,2,4.43,3l1.22-.2c-3.28-2.48-6.43-5.23-10.49-6.3A6.5,6.5,0,0,1,91.89,17,17.64,17.64,0,0,1,96.26,19.32Z"/><path class="cls-1" d="M25.89,81.7c-.37.36-.72.73-1.06,1.11.15,0,.31.06.46.07a2.19,2.19,0,0,0,.8-.12C26,82.4,26,82.05,25.89,81.7Z"/><path class="cls-1" d="M23.69,84.17a.21.21,0,0,1,.19,0,4.73,4.73,0,0,0,2.48.52c-.06-.58-.14-1.15-.23-1.71a1.53,1.53,0,0,1-.52.13,8.79,8.79,0,0,1-1.14.11C24.2,83.53,23.94,83.85,23.69,84.17Z"/><path class="cls-1" d="M72,165a35.93,35.93,0,0,0-2.94-2.58l0,0c-6.24,1.62-10.05,5.77-14.34,10.29a54.06,54.06,0,0,1-8.22,6.7c-3.7,2.6-7.43,5.18-10.9,8.09a28.06,28.06,0,0,0-3.82,3.73,3.6,3.6,0,0,0-1,3.28,5.65,5.65,0,0,0,.64,1.68c2.71-2.24,5.54-4.15,7.22-7.38.08-.15.31,0,.23.13a20.46,20.46,0,0,1-7.17,7.7c2.41,3.36,8.15,2.22,11.77,1.11A61.54,61.54,0,0,0,54.7,193s0,0,0-.06a34.3,34.3,0,0,0,4.48-13.54c0-.17.27-.17.26,0a31.82,31.82,0,0,1-3.92,13.14c1.89-1.05,3.74-2.16,5.56-3.31,2.12-4,2.66-8.5,2.9-13,0-.15.25-.16.24,0-.08,4-.36,8.64-2.19,12.35l2-1.31c.39-.25.77-.51,1.15-.77a.19.19,0,0,1,0-.17c3-3.92,3-9.47,3.32-14.18,0-.11.18-.11.18,0-.18,4.32,0,9.84-2.49,13.65q4-2.72,7.73-5.72a.16.16,0,0,1,0-.15A27.72,27.72,0,0,0,75.9,171a.07.07,0,0,1,.13,0,24.32,24.32,0,0,1-1.5,8.65l.27-.22c2-1.66,4.44-3.44,5.89-5.68-.69-.57-1.36-1.17-2-1.79C76.35,169.77,74.28,167.3,72,165ZM36.73,198.7c-.23.19-.56-.12-.34-.34a30.36,30.36,0,0,0,7.06-10.42c.07-.17.35-.1.28.08C42.27,191.89,40,196,36.73,198.7Zm5.61-.63c-.25.23-.62-.14-.37-.37,3.53-3.26,5.35-7.74,6.77-12.24a.14.14,0,0,1,.26.08C47.62,190,46,194.84,42.34,198.07Zm6-2.42a.23.23,0,0,1-.32-.32,28.59,28.59,0,0,0,3.84-5.59,32.1,32.1,0,0,0,2.26-6.43c0-.18.31-.1.27.07C53.41,187.61,51.79,192.69,48.39,195.65Zm21.87-12.74c-.11.25-.55.07-.45-.19a39.81,39.81,0,0,0,2.64-14.24.08.08,0,1,1,.15,0C72.63,173.35,72.25,178.39,70.26,182.91Z"/><path class="cls-1" d="M119.16,96a15.19,15.19,0,0,0-10.91-2.49,17.55,17.55,0,0,0-4.65,1.6,8,8,0,0,0-3.33,2.38c1.53-1.42,4.51-2.2,5.92-2.42,4.51-.72,9.19,1,13,3.26,3.17,1.91,6.13,4.73,7.25,8.36a5.17,5.17,0,0,1,.22,1.19,8.88,8.88,0,0,0-.69-3.38A17.64,17.64,0,0,0,119.16,96Z"/><path class="cls-1" d="M118.62,98.52a20.28,20.28,0,0,0-10.91-3.12A12.37,12.37,0,0,0,103,96.52c-1.12.51-3.42,1.59-3.11,3.12a.3.3,0,0,1,0,.23c0,.07,0,.15.07.23a4.46,4.46,0,0,1,1.26-2,7.53,7.53,0,0,1,4.41-2c3.87-.5,7.88.69,11.33,2.4a19.86,19.86,0,0,1,5,3.69,15.42,15.42,0,0,1,3.68,5.13,6.49,6.49,0,0,1,.45,2.25,6,6,0,0,0-.61-4.18A16.72,16.72,0,0,0,118.62,98.52Z"/><path class="cls-1" d="M174.07,107.21a10.24,10.24,0,0,0,7.19,5,8.19,8.19,0,0,0,4.42-1.17,8.8,8.8,0,0,0,3.69-7.47A6.41,6.41,0,0,0,185.6,98a7.3,7.3,0,0,0-6.91.27C175.6,99.91,173.29,103.74,174.07,107.21Zm9.67-6.42a3.47,3.47,0,0,1,2.18,4,3.57,3.57,0,0,1-1.53,2.3,4.89,4.89,0,0,1-1.74,1,3.58,3.58,0,0,1-4.54-2,3.75,3.75,0,0,1,1.25-4.2A4.8,4.8,0,0,1,183.74,100.79Z"/><path class="cls-1" d="M125.12,111.94a3,3,0,0,0,.28-.24,4,4,0,0,0,.75-1.12,5.29,5.29,0,0,1-.51.66A3.1,3.1,0,0,1,125.12,111.94Z"/><path class="cls-1" d="M180.09,97.05a7.81,7.81,0,0,1,1.59-.34A8.59,8.59,0,0,0,173.5,103a6,6,0,0,0-.12,1.87A9.81,9.81,0,0,1,180.09,97.05Z"/><path class="cls-1" d="M218.56,120.92c-1.83-1.73-4.79-2-7.2-1.88-3.45,2.29-7.64,3.94-11.71,3.81a8.69,8.69,0,0,1-3.83-1c-.24-.13,0-.48.21-.36,4.33,2.24,9.88.14,13.95-2.26l1.18-.73.21-.14c1.72-1.12,3.82-2.6,4.6-4.59A10.4,10.4,0,0,0,216,108c-1-4.88-3.35-9.51-5.65-13.88s-4.61-8.72-7.27-12.82c-6.81-10.5-16.51-18.51-26.56-25.76-5-3.6-10.1-7.07-15.07-10.7-5.24-3.82-10.19-8-15.66-11.52-11-7-23.61-11.36-36.77-11.27a55.53,55.53,0,0,0-10,1.12.11.11,0,0,1-.19.06l0,0c-1,.19-2,.4-2.93.61a.09.09,0,0,1-.14,0L94,24.23c.06.06,0,.18-.08.13l-.14-.08-1.15.27-.69.16a.07.07,0,0,1-.1,0h0Q81,27.29,70.51,30.8a155.55,155.55,0,0,0-22.87,9.42C40.32,44,26,52.32,31.24,62.66a.32.32,0,0,1,0,.38,7.31,7.31,0,0,1-2,1.15c.25.22,0,.68-.33.48l-.36-.25c-5,1.3-9.6-4.37-12.38-8.19C13.55,52.65,11.3,48.83,9,45.07,7.09,42,5.22,38.71,2.65,36.15c-.11-.12-.23-.22-.34-.32-1.7,4.14.29,8.9,2,12.71,2.08,4.58,4.67,9,6.33,13.72a19.29,19.29,0,0,1,1.22,6.42A15.76,15.76,0,0,1,9.52,76C8,78.86,6.06,81.57,4.58,84.51s-1.82,6.36-2.49,9.66A17.46,17.46,0,0,1,0,99.7c11-3.62,13.09-19.41,25.13-21.5a.3.3,0,0,1,.36.21,16.68,16.68,0,0,1,.74,2.16l.06,0c.27-.25.68.15.4.4l-.3.29a43.59,43.59,0,0,1,.88,6.64c.14,1.73.28,3.46.57,5.17a25.82,25.82,0,0,0,1.6,5.15c1.29,3.29,2.75,6.51,3.94,9.85a95.49,95.49,0,0,1,2.43,9.26,91.2,91.2,0,0,0,5.94,16.83A54.41,54.41,0,0,0,51.52,149c4.62,4.79,10.7,7.78,16.07,11.62s9.09,9.05,14,13.21c10.87,9.17,26.06,12.07,39.92,11.87,5.95-.08,11.81-.62,17.37-2.85a47.84,47.84,0,0,0,13-8.26c7.94-6.77,14.37-15.08,21.78-22.39a78.27,78.27,0,0,1,7.18-6.31c-7,2.79-15.26,2.07-22.33,0-8.43-2.43-17-7.41-21.52-15.2a18.22,18.22,0,0,1-2.3-11.89c.76-5,3.27-9.57,4.17-14.55,1-5.64-1.33-10.93-2.24-16.41-.85-5.12-.17-10.1,3.63-13.91.12-.12.3.07.18.19-4.76,5-3.88,11.58-2.39,17.75a47,47,0,0,1,1.67,8.37,23.74,23.74,0,0,1-1.25,8c-1.63,5.39-4.25,10.66-3.11,16.44A22,22,0,0,0,142,136c5.5,5.35,12.94,8.67,20.38,10.21,7,1.45,15,1.35,21.35-2.43a.28.28,0,0,1,.15,0c.53-.36,1.06-.7,1.6-1,5.06-3.12,10.92-4.71,16.53-6.53s11.88-4,16-8.54C219.72,125.66,220.69,122.93,218.56,120.92ZM5.15,46.7c0-.1.12-.16.16-.07,3.85,8.83,11.46,14.79,18.07,21.46a.23.23,0,0,1-.33.33C16.4,61.72,8.78,55.69,5.15,46.7Zm6.6,14.39c-.22-.16,0-.54.22-.38,3,2.06,5.24,5,8,7.23.09.07,0,.24-.13.16C17,65.93,14.66,63.21,11.75,61.09Zm8.08,9.62a.1.1,0,0,1,.05.2c-2.14.81-4.25,1.74-6.44,2.44-.28.09-.39-.35-.12-.44C15.48,72.18,17.62,71.28,19.83,70.71Zm-5.44-2.89a41.4,41.4,0,0,1,5.26,1.35c.16,0,.09.29-.07.25-1.75-.46-3.53-.8-5.29-1.22C14,68.14,14.15,67.79,14.39,67.82ZM5.4,87.7c2.5-5.83,7.65-9.62,12.06-13.93a.11.11,0,0,1,.16.15C13.4,78.48,8.48,82.16,5.86,88,5.72,88.28,5.27,88,5.4,87.7ZM23.51,72.34c-3.83,2.76-6.63,6.56-9.4,10.32-3,4.06-6,8.09-8.84,12.24-.17.25-.57,0-.4-.23,2.91-4.3,6-8.4,9.12-12.53,2.77-3.68,5.6-7.31,9.41-10C23.51,72.08,23.61,72.26,23.51,72.34Zm1.24-4.42c-4-3.57-8.1-7.21-11.37-11.49-1.69-2.21-3-4.67-4.74-6.85a17.44,17.44,0,0,1-3.33-5.84.08.08,0,0,1,.16-.05c.83,2.52,2.55,4.5,4.14,6.55s2.78,4.27,4.37,6.27A95.9,95.9,0,0,0,25,67.63C25.23,67.81,24.94,68.09,24.75,67.92Zm110.6-31.4a.77.77,0,0,1,0,1.53A.77.77,0,0,1,135.35,36.52ZM124.69,58.4a4.64,4.64,0,0,1-5.1.4,1,1,0,0,1-.37-1.42,1.37,1.37,0,0,1,.13-.2.58.58,0,0,1,.41-.9,8.26,8.26,0,0,1,4.72.49A1,1,0,0,1,124.69,58.4Zm-3.45,8.79c-1.13.17-2,.31-3-.48a.94.94,0,0,1,.19-1.46,2.61,2.61,0,0,1,2.72-.09,1,1,0,0,1,.8.74A1.05,1.05,0,0,1,121.24,67.19ZM118.92,29a1.83,1.83,0,0,1,2.12.82,1.1,1.1,0,0,1-.38,1.46,1.06,1.06,0,0,1-1.46-.41l-.13-.05-.15-.06A.92.92,0,0,1,118.92,29Zm-1.58,9.8a2.16,2.16,0,0,1,1.59-1.64,2.73,2.73,0,0,1,2.53.9,4.36,4.36,0,0,1,.56.74,3.56,3.56,0,0,1,.31.26,1.28,1.28,0,0,1-.56,2.11,4.71,4.71,0,0,1-3.35-.06A2.11,2.11,0,0,1,117.34,38.77ZM117,47.48a5.08,5.08,0,0,1,3,.19.53.53,0,0,1,.15.95.82.82,0,0,1-.56.7,2.79,2.79,0,0,1-3-.4A.87.87,0,0,1,117,47.48ZM116.73,74a1,1,0,0,1,0-.56.56.56,0,0,1,.52-.4h.06a.49.49,0,0,1,.48.48v.06a.53.53,0,0,1-.27.47s-.16.12-.11,0A.41.41,0,0,1,116.73,74Zm-1.59-17.07a.35.35,0,0,1-.07.62.64.64,0,0,1-.7.65,4.09,4.09,0,0,1-2.12-.55.64.64,0,0,1,.15-1.16A3.72,3.72,0,0,1,115.14,56.89ZM111.73,42a1,1,0,0,1,0-1.94A1,1,0,0,1,111.73,42Zm-6.34-14.42a3,3,0,0,1,2.93-1.23,4.43,4.43,0,0,1,2.86.71,1.06,1.06,0,0,1,0,1.81,6.65,6.65,0,0,1-5.05.52A1.24,1.24,0,0,1,105.39,27.55Zm1.25,23.35a1.06,1.06,0,0,1-.48-1.19,1,1,0,0,1,1-.77,2.11,2.11,0,0,1,.93.28,1.73,1.73,0,0,1,.89.52.88.88,0,0,1-.18,1.36,1.59,1.59,0,0,1-1.27.23,2,2,0,0,1-.34-.12,1.87,1.87,0,0,1-.54-.33C106.89,51.07,106.71,50.93,106.64,50.9Zm3,32.19a1.06,1.06,0,0,1,1.06,1.07v.12a1,1,0,0,1-2.1,0v-.12A1.06,1.06,0,0,1,109.69,83.09Zm-5-49.4a1,1,0,0,1,.7.35h0l0,0a1.15,1.15,0,0,1,.66.21.69.69,0,0,1,0,1.19,2,2,0,0,1-1.42.23,1.22,1.22,0,0,1-.88-1.12C103.78,34.14,104.19,33.62,104.68,33.69Zm-1.25,25.83a3.58,3.58,0,0,1,.71.27h0l.13,0a1.69,1.69,0,0,1,.31.13.49.49,0,0,1,.16.79,1,1,0,0,1-.77.34,1.69,1.69,0,0,1-.32,0h-.14s-.24,0-.09,0a.81.81,0,1,1,0-1.56Zm-1,16.23,0,0a.79.79,0,0,1,.54.37c.35.6-.18,1.24-.73,1.44a1.76,1.76,0,0,1-.88.1,1.11,1.11,0,0,1-.8-.77,1.18,1.18,0,0,1,.6-1.34A1,1,0,0,1,102.42,75.75Zm-1.24-8.62a1,1,0,0,1-1.44.83l-.09,0a.9.9,0,0,1,0-1.55l.09,0A1,1,0,0,1,101.18,67.13Zm-5-30.52a1,1,0,0,1,0,2.07A1,1,0,0,1,96.14,36.61ZM93.87,27a.62.62,0,0,1,0,1.23A.62.62,0,0,1,93.87,27Zm6.86,16.84a.87.87,0,0,1-.31,1.19,6,6,0,0,1-1.63.63s-.06.05-.09.06a6.23,6.23,0,0,1-5.64,0,1.34,1.34,0,0,1-.48-1.85C94.36,41.45,98.92,41.38,100.73,43.8ZM90.94,74.12a.89.89,0,0,1,.1-.76,1.06,1.06,0,0,1,.59-.45,1,1,0,0,1,1,.25,1.78,1.78,0,0,1,.36.49.88.88,0,0,1-1.19,1.19l-.07,0a.36.36,0,0,0,.21,0A1,1,0,0,1,90.94,74.12Zm.21-4.65a.92.92,0,0,1-.28,0c-.34,0-.67-.09-1-.16a.55.55,0,0,1-.4-.77,1.25,1.25,0,0,1,.27-1.06,2.69,2.69,0,0,1,4,.07,1,1,0,0,1-.2,1.54A4,4,0,0,1,91.15,69.47Zm-.72-13.3a1.19,1.19,0,0,1,0-2.28,5.48,5.48,0,0,1,2.87-.09,1.37,1.37,0,0,1,.32.16,4.26,4.26,0,0,1,.86.13,1,1,0,0,1,.43,1.62C93.72,56.67,91.83,56.58,90.43,56.17Zm-.6-24.78a4.15,4.15,0,0,1,.48-.11,1.51,1.51,0,0,1,.59-.15,5.43,5.43,0,0,1,.57,0,1,1,0,0,1,1,1,1,1,0,0,1-1,1c.2,0-.09,0-.11,0l-.27.08a1.46,1.46,0,0,1-1-.22.74.74,0,0,1-.21-.17h0A.77.77,0,0,1,89.83,31.39ZM78.57,36.3a6.37,6.37,0,0,1,3.91-.91,1,1,0,0,1,.55.22,6.74,6.74,0,0,1,1,.14A.72.72,0,0,1,84.3,37c-1.25,1.39-3.87,1.43-5.53.92A.87.87,0,0,1,78.57,36.3ZM78.5,46.82a.6.6,0,0,0-.08-.08.83.83,0,0,1,.36-1.38,1.44,1.44,0,0,1,.83.06l.12,0a1,1,0,0,1,.44.1c-.06,0-.1,0,0,0h0l.15.06.13.08a.76.76,0,0,1,.34.83,1.44,1.44,0,0,1-.52.7,1.17,1.17,0,0,1-.88.15,2,2,0,0,1-.48-.19,2,2,0,0,1-.34-.22C78.4,46.68,78.38,46.65,78.5,46.82Zm1.17,38.33a.89.89,0,0,1,1.53,0,1,1,0,0,1,.17.79v0s0,0,0,.07h0a.91.91,0,0,1-.23.42,1,1,0,0,1-1.49-.19A1.1,1.1,0,0,1,79.67,85.15Zm-2.4-32.36a.54.54,0,0,1,.22.15,2.1,2.1,0,0,1,1,.57A1.15,1.15,0,0,1,78,55.4a6.41,6.41,0,0,1-5.6-.38,1.25,1.25,0,0,1-.25-2C73.6,51.69,75.58,52.09,77.27,52.79Zm-.59,22a.64.64,0,0,1,.18-.27h0l0,0a.65.65,0,0,1,.15-.12,1,1,0,0,1,.72-.07.75.75,0,0,1-.4,1.45C77,75.69,76.54,75.24,76.68,74.81ZM75.1,64.36a1.19,1.19,0,1,1,1.23-2,.62.62,0,0,1,.21.15s0,0,0,0h0l.2,0a.88.88,0,0,1,.81.4l0,.06a.91.91,0,0,1-.32,1.21A2.24,2.24,0,0,1,75.1,64.36ZM68.86,34.7A2.77,2.77,0,0,1,71.77,34,.78.78,0,0,1,72,35.44a3.44,3.44,0,0,1-1.53.49,2.48,2.48,0,0,1-.65.34A1,1,0,0,1,68.86,34.7Zm-2.33,9c.42,0,.85.2,1.26.2.2-.06.41-.12.6-.16a.66.66,0,0,1,.51,1.21,2.72,2.72,0,0,1-2.58.31.81.81,0,0,1-.58-.76A.8.8,0,0,1,66.53,43.68ZM63.2,58a2.46,2.46,0,0,1,1-.42l0,0h0a.9.9,0,0,1,.88.2h.08a1.59,1.59,0,0,1,1.12.48.9.9,0,0,1-.19,1.41,4.2,4.2,0,0,1-2.67.44,1.16,1.16,0,0,1-.8-.79A1.18,1.18,0,0,1,63.2,58Zm-.36,7.12L63,65a1.38,1.38,0,0,1,.5-.52l.18-.09.21-.09a1.25,1.25,0,0,1,1.41.57,1.47,1.47,0,0,1-.22,1.77,1.35,1.35,0,0,1-1.62.21,1.24,1.24,0,0,1-.46-.48.72.72,0,0,1-.28-.27A.8.8,0,0,1,62.84,65.12ZM57.3,50.31a1,1,0,0,1,1,.73,1,1,0,0,1-.46,1.13,3.7,3.7,0,0,1-3.71.24c-.84-.36-.64-1.55,0-2,.29-.2.58-.17.88-.3a1.11,1.11,0,0,1,1.33.28C56.64,50.38,57,50.33,57.3,50.31Zm-1.62,18.9h0l0,0a.72.72,0,0,1-.24.22.55.55,0,0,1-.32.1H55a.6.6,0,0,1-.33-.1.69.69,0,0,1-.23-.22l0,0h0a.76.76,0,0,1,.19-1,.68.68,0,0,1,.94,0A.75.75,0,0,1,55.68,69.21ZM53.11,41.88a1.27,1.27,0,0,1,1.79-.05l0,0,.16,0c-.08,0-.07,0,.06,0h0a.83.83,0,0,1,.49.11.94.94,0,0,1,0,1.59,2.36,2.36,0,0,1-1,.36L53.7,44a1.09,1.09,0,0,1-1.09-1.1A1.52,1.52,0,0,1,53.11,41.88Zm-17,22.89a.15.15,0,0,1,0-.3A.15.15,0,0,1,36.08,64.77Zm4.18-11.9a1.22,1.22,0,0,1,0-.63,1.16,1.16,0,0,1,.2-.4h0a.84.84,0,0,1,.75-.43.88.88,0,0,1,.54.2h.07a.75.75,0,0,1,.51.37.91.91,0,0,1,0,.86,1.1,1.1,0,0,1-.6.56,1.29,1.29,0,0,1-.82.12A.88.88,0,0,1,40.26,52.87ZM42,67.75a1.1,1.1,0,0,1,0-2.19A1.1,1.1,0,0,1,42,67.75Zm4.45-8a1.24,1.24,0,0,1,.73-1.8,1.21,1.21,0,0,1,1,.12l.1.08h0l0,0,.1.08,0,0,0,0a1.12,1.12,0,0,1,.36.77,1.26,1.26,0,0,1-.36,1A1.24,1.24,0,0,1,46.41,59.72Zm77.2,53.71a3.34,3.34,0,0,1-.89.18,6.67,6.67,0,0,1-1.61,0l-.68-.05a79.9,79.9,0,0,1-6.55,7.91v0a.21.21,0,0,1-.11.1c-.92,1-1.87,1.91-2.84,2.83a.75.75,0,0,1-.07.12.23.23,0,0,1-.17.11A65.29,65.29,0,0,1,98,134q-.67.38-1.35.72h0a.18.18,0,0,1-.21.1c-7.91,4-16.68,5.74-25.54,6a43.3,43.3,0,0,1-14.25-1.49,12.9,12.9,0,0,1-6.84-4.45l-.08,0a.23.23,0,0,1-.13-.29,8.06,8.06,0,0,1-1.06-2.32.3.3,0,0,1,.29-.38A39.57,39.57,0,0,0,65.78,129,44.34,44.34,0,0,0,78,120.57c4.07-3.74,7.8-7.85,11.7-11.77a26.15,26.15,0,0,1,4.5-3.91A25.09,25.09,0,0,1,99,102.62c.51-.18,1-.36,1.54-.52-3.88-3.71.71-9.19,4.77-10.42,5.21-1.57,11.35.94,15.58,3.91a15.77,15.77,0,0,1,6.25,9.9C127.71,108.67,126.93,112.2,123.61,113.43Zm3.58-65.57a.51.51,0,0,1,0-1A.51.51,0,0,1,127.19,47.86ZM128,29.73a2.38,2.38,0,0,1,1.55-.46,5.05,5.05,0,0,1,3.68,1.07,1,1,0,0,1,0,1.42,3.85,3.85,0,0,1-5.45-.29A1.13,1.13,0,0,1,128,29.73ZM129.47,74a1.35,1.35,0,0,1,0-2.7A1.35,1.35,0,0,1,129.47,74Zm2.22-30.57-.09,0a1.41,1.41,0,0,1-.42-.26.77.77,0,0,1-.23-.68.58.58,0,0,1,.44-1c.37,0,.74,0,1.11.1a2.44,2.44,0,0,1,1.1.55.76.76,0,0,1,0,1.07,1.52,1.52,0,0,1-1.39.45A2.42,2.42,0,0,1,131.69,43.43Zm6.89,19.36a5.41,5.41,0,0,1-2.66-.44,1,1,0,0,1-.45-1.68,1.38,1.38,0,0,1,.66-.43,1.13,1.13,0,0,1,.36-.06l.18,0a.94.94,0,0,1,1.08.59c.36.08.72.16,1.08.22a.92.92,0,0,1,.68.9A.94.94,0,0,1,138.58,62.79Zm.72-8.15a5.29,5.29,0,0,1-1.71-.42,1.29,1.29,0,0,1-.35.35c-1.2.76-3.08.15-4.16-.61a1.42,1.42,0,0,1,.33-2.57,7,7,0,0,1,3.94.11c1.07.29,2.68,1.16,2.64,2.45A.7.7,0,0,1,139.3,54.64Zm6.48-13.45a3.59,3.59,0,0,1-5.44-2.59,1.37,1.37,0,0,1,1-1.31,4,4,0,0,1,2.38.19,1.23,1.23,0,0,1,.73.51,5.81,5.81,0,0,1,1.76,1.57A1.21,1.21,0,0,1,145.78,41.19ZM147,54.56a.84.84,0,0,1-.73-.42.81.81,0,0,1-.1-.52.73.73,0,0,1,.91-.86,1,1,0,0,1,.66.52A.86.86,0,0,1,147,54.56Zm2.65,8.78,0,0v0a.82.82,0,0,1-.23.26l.11-.08a.89.89,0,0,1-.89.24,1,1,0,0,1-.67-.88v-.06a.85.85,0,0,1,.85-.86h.07a1,1,0,0,1,.78.45A.87.87,0,0,1,149.62,63.34Zm4.6-16.49a.72.72,0,0,1-.53-.7.74.74,0,0,1,.72-.72,1.05,1.05,0,0,1,.43.07.31.31,0,0,1,.21,0,.57.57,0,0,0,.29,0l.42,0a.57.57,0,0,1,.33.83,1.16,1.16,0,0,1-1,.53,2.42,2.42,0,0,1-.47-.07h-.07Zm.76,9.89h0a.58.58,0,0,1-.2-1,1,1,0,0,1,1.57-.5,2.68,2.68,0,0,1,1.12.32,1.07,1.07,0,0,1-.25,1.94,2.1,2.1,0,0,1-2-.37A1.29,1.29,0,0,1,155,56.74Zm3.11,10.85-.42.15c-1.79.64-1.44-2.9.24-1.83l.37.23v0A.79.79,0,0,1,158.09,67.59ZM174.71,99.4A9.32,9.32,0,0,1,182,96.14a.11.11,0,0,1,.08-.19,7.5,7.5,0,0,1,7.24,4.72,8.32,8.32,0,0,1,.32,1l.06.14a8,8,0,0,1-2.09,9.17,6.3,6.3,0,0,1-1,1,7.91,7.91,0,0,1-6.51,1.24,8.89,8.89,0,0,1-6.27-4.82.23.23,0,0,1,0-.14,6.48,6.48,0,0,1-.32-1A7.41,7.41,0,0,1,174.71,99.4Zm-6.4-40.93a5.34,5.34,0,0,1-1.91-.07.89.89,0,0,1-.39-1.48,1.19,1.19,0,0,1,.81-.4.88.88,0,0,1,.32,0c.15,0,.28,0,0,.07a.83.83,0,0,1,.77.2l.41,0a.8.8,0,0,1,.81.8A.83.83,0,0,1,168.31,58.47Zm16,58c-3.63.84-7.58-.59-10.33-3a11.53,11.53,0,0,1-3.74-10c0-.4.67-.4.62,0a11.13,11.13,0,0,0,3.11,9.19,11.65,11.65,0,0,0,9.89,3.29c6.82-1.12,10.24-9.16,7.44-15.13-.06-.15.14-.28.22-.13A11,11,0,0,1,184.27,116.51Z"/><path class="cls-1" d="M124.63,106.45A19.35,19.35,0,0,0,117,99.11a21.44,21.44,0,0,0-9-2.61,10.35,10.35,0,0,0-4.92.87c-1.15.53-3.28,2.19-2.61,3.68.55-2.74,3.63-3.52,6.21-3.67a19.93,19.93,0,0,1,10,2.54c3,1.59,6.17,4.4,7.46,7.66a4.37,4.37,0,0,1-.38,4.4,4.94,4.94,0,0,0,1.56-1.28C125.89,109.38,125.25,107.6,124.63,106.45Z"/><path class="cls-1" d="M121.46,111.41c0-3.89-1.66-7.14-5.24-8.8s-7.7-1.5-11.41-.9a27.79,27.79,0,0,0-10.61,3.92,30.85,30.85,0,0,0-5.06,4.63c-2,2-4,4.08-6,6.11-4.37,4.46-9,8.83-14.47,11.85-6,3.27-12.69,4.4-19.42,4.28a7.65,7.65,0,0,0,1.12,2.14c3.29,1.09,6.75,2.12,10.19,1,.1,0,.14.12,0,.16a14.64,14.64,0,0,1-9.68-.47,12.67,12.67,0,0,0,5,3.14.17.17,0,0,1,.1,0c3.83.13,8.41.34,11.61-2.14.08-.07.2,0,.12.12-2.74,2.38-6.74,2.65-10.3,2.55a34.63,34.63,0,0,0,7.18,1.19.22.22,0,0,1,.12-.34c3.69-1,8.13-1.28,10.85-4.26.1-.11.26,0,.16.16-2.64,2.95-6.91,3.64-10.61,4.47,1.75.1,3.5.11,5.22.07.85,0,1.7-.06,2.55-.11l.06,0a35.26,35.26,0,0,0,5.73-2.53c1.83-1,3.9-2.32,4.88-4.24.06-.12.23,0,.17.1-.84,1.84-2.6,3.09-4.26,4.14A29,29,0,0,1,74.65,140a67.54,67.54,0,0,0,7.93-1.11,15.87,15.87,0,0,0,8.23-8.59c0-.13.24-.08.2,0a15.94,15.94,0,0,1-6.61,8.14c1.42-.34,2.82-.72,4.21-1.17a.22.22,0,0,1,.1-.25c3.58-2.26,7.66-5.52,8.15-10,0-.15.25-.16.24,0-.36,4.32-3.88,7.56-7.32,9.88a51.28,51.28,0,0,0,6.72-2.85c1.65-3.37,4.12-6.31,5-10,0-.11.2-.07.17,0-.75,3.52-2.88,6.49-4.54,9.62.41-.21.83-.43,1.23-.66,1-.57,2-1.18,3-1.81,2.45-3.19,3.38-7.53,3.39-11.49a.08.08,0,1,1,.15,0c.1,3.54-.49,7.81-2.56,10.85.84-.57,1.68-1.16,2.5-1.78,2.64-3.72,3.13-8.64,3.49-13.06a.1.1,0,0,1,.19,0c-.18,4-.5,8.64-2.58,12.22l1.37-1.1c2.47-3.59,3.33-8.88,2.76-13.12,0-.12.19-.15.22,0a19.17,19.17,0,0,1-.23,7,17.65,17.65,0,0,1-1.68,5.21c.76-.65,1.51-1.33,2.25-2,2.38-4.11,2.06-9.47,2-14a.11.11,0,0,1,.21,0c.12,4.26.54,9.06-1.2,13.08.67-.64,1.32-1.3,2-2,1.73-4,1.74-8.54,1.85-12.87a.09.09,0,0,1,.17,0c.1,4,.18,8.22-1.2,12a86,86,0,0,0,7.06-8.7A.16.16,0,0,1,121.46,111.41Z"/><path class="cls-1" d="M121.76,111.7l-.14.2c3-1.11.17-5.46-1.11-7a14.87,14.87,0,0,0-6.49-4.43,17.24,17.24,0,0,0-7.72-.57c-1.39.17-4.25.41-4.93,1.9a25.26,25.26,0,0,1,13-.54,10.7,10.7,0,0,1,5.65,3.37,9.76,9.76,0,0,1,2.07,6v.72A.28.28,0,0,1,121.76,111.7Z"/><path class="cls-1" d="M108.12,93a16.05,16.05,0,0,1,12.26,3.3,17.92,17.92,0,0,1,5.39,6.5,16.54,16.54,0,0,0-3.46-5.25,20.87,20.87,0,0,0-13.64-5.69,9.13,9.13,0,0,0-7,2.78,7.56,7.56,0,0,0-1.43,2A8.46,8.46,0,0,1,102.48,95,19.22,19.22,0,0,1,108.12,93Z"/><path class="cls-1" d="M120.67,113.24v0l.1,0h-.09Z"/><path class="cls-1" d="M122.24,113.09h.16l.27-.06-.34,0Z"/><path class="cls-1" d="M120.93,112.88l.08,0a.11.11,0,0,1,0-.06Z"/><path class="cls-1" d="M122.63,105.72a17.49,17.49,0,0,0-6.72-5.7,20.17,20.17,0,0,0-8.11-2.15c-2.56-.11-6.49.53-6.81,3.59.87-1.48,3.39-1.74,4.87-1.94a17.49,17.49,0,0,1,9.47,1,15.53,15.53,0,0,1,7,6.19c1,1.7,1.91,5.29-1,5.59l-.25.36h0c1.5-.05,2.7-.62,3.07-2.18S123.55,107.07,122.63,105.72Z"/></g><g id="stroke"><path class="cls-2" d="M212.28,118.41c.38-.28.76-.56,1.12-.85a8.6,8.6,0,0,0,3.25-4,11.37,11.37,0,0,0,0-5.19c-.9-4.72-3.06-9.2-5.25-13.45s-4.48-8.53-7-12.58C198,72,188.93,63.91,179.2,56.76c-4.94-3.64-10-7.09-15-10.67-5.23-3.75-10.14-7.93-15.46-11.54a77.86,77.86,0,0,0-22.19-10.68,1.64,1.64,0,0,0-.32-1.22.11.11,0,0,0-.09-.06c-.16-.28-.36-.54-.45-.69a22.25,22.25,0,0,0-2.25-3.29,45.82,45.82,0,0,0-5.59-5.81,68.37,68.37,0,0,0-13.18-8.64C101.07,2.27,97.19.37,93.14-.29,91.5-.56,89.27-.7,87.85.36a.26.26,0,0,0-.18.14,3.18,3.18,0,0,0-.74.94,6.65,6.65,0,0,0-.3,4.36,29.86,29.86,0,0,0,2.59,7,.19.19,0,0,0,.11.23c.06.11.11.21.16.32.49,1,1.06,1.94,1.52,2.94.07.15.15.31.21.47a.24.24,0,0,0-.1.46l.29.1a1.79,1.79,0,0,1,0,1.05,5.35,5.35,0,0,1-2.17,2.3,16.27,16.27,0,0,1-3.75,2.05c-5.62,2.06-11.73,1.91-17.6,2.64-4.51.56-9,1.5-13.5,2.45-9,1.92-19.1,4.65-25.66,11.56a21.48,21.48,0,0,0-5.86,12.53,13.69,13.69,0,0,0,.92,7.16A12.92,12.92,0,0,0,27.9,64l-.42.06a6.78,6.78,0,0,1-4.11-1.19c-3.28-2.09-5.71-5.47-7.87-8.63C13,50.57,10.79,46.76,8.44,43c-1.73-2.75-3.52-5.8-6-7.92a.3.3,0,0,0-.46.06,9.21,9.21,0,0,0-.86,3.72c0,4.48,2.14,8.79,4.07,12.71C7.37,56.09,10,60.67,11,65.65a12.38,12.38,0,0,1-.83,7.66C8.82,76.28,7,79,5.35,81.79A31.23,31.23,0,0,0,3.24,86a22.76,22.76,0,0,0-1.13,4.62C1.54,94,1,97.2-.94,100.07a.3.3,0,0,0,.34.44C11,97.38,13,81.12,25,78.82a18,18,0,0,1,.71,2.23,23.45,23.45,0,0,0-7.11,13.34l-.17,0c-.34,0-.32.47,0,.51l.09,0a23,23,0,0,0-.16,3.73c.22,5.8,2.05,11.39,4.09,16.78.86,2.27,1.71,4.55,2.58,6.83l0,.06c1.06,2.77,2.17,5.51,3.37,8.2a.21.21,0,0,0,.09.2c.4.88.8,1.76,1.23,2.62,1.54,3.17,3.19,6.27,4.91,9.34a34.8,34.8,0,0,0,3.5,5.66.27.27,0,0,0,.31.35,12.3,12.3,0,0,0,1,1c3.7,3.12,8.35,2.07,12.54.6a82.12,82.12,0,0,0,11.57,8.39c1.67,1.08,3.33,2.2,4.91,3.41a23.06,23.06,0,0,0-10.28,6.26c-2.44,2.4-4.59,5.17-7.31,7.27-5,3.84-10.3,7.14-15.14,11.13a32.36,32.36,0,0,0-4.05,3.8,6,6,0,0,0-1.65,2.91,5.15,5.15,0,0,0,.87,3.25.25.25,0,0,0,.25.37,5.78,5.78,0,0,0,1.66,1.55c2,1.16,4.45,1.12,6.66.78a38.39,38.39,0,0,0,9.28-2.93,97,97,0,0,0,11.84-6.25.25.25,0,0,0,.46.1c.15-.21.29-.42.42-.64q3.95-2.48,7.68-5.2a87.44,87.44,0,0,0,7.71-6.13,20.36,20.36,0,0,0,4-4.37,48.83,48.83,0,0,0,14.24,8.17,67.64,67.64,0,0,0,20.09,4.07c6.23.34,12.89.37,19-1.16,20.51-5.16,30.9-26,46.58-38.3a50.28,50.28,0,0,1,15.5-8.07c5.53-1.85,11.35-3.32,16.46-6.23a19.15,19.15,0,0,0,6.42-5.29c1.06-1.53,1.85-3.56.87-5.33C218.54,119.14,215.36,118.34,212.28,118.41ZM98.17,1.68a71.77,71.77,0,0,1,15.48,8.39,48.06,48.06,0,0,1,7,6,46.21,46.21,0,0,1,3.39,4,18.35,18.35,0,0,1,1.27,2l.43.72a.68.68,0,0,0,.09.14.06.06,0,0,0,0,.07c-.12.07-.18.24,0,.31l.15.06.12.33-.71-.2A22.77,22.77,0,0,0,120,16.09a48.75,48.75,0,0,0-8.26-6.55c-3.32-2.07-6.84-3.86-10.32-5.64C99.63,3,97.83,2.09,96,1.25c-.65-.3-1.29-.6-1.94-.86A27.86,27.86,0,0,1,98.17,1.68ZM91.62,0a.16.16,0,0,0,.15.14A18.61,18.61,0,0,1,96.63,2q2.52,1.19,5,2.46c3.21,1.65,6.48,3.27,9.55,5.18,5.37,3.35,11.18,7.92,13.93,13.81l-.76-.19a9.47,9.47,0,0,0-2.19-3.14c-1.26-1.37-2.53-2.71-3.89-4a46.66,46.66,0,0,0-8.67-6.44c-3.35-1.93-6.8-3.65-10.3-5.28C96.12,3,93,1.36,89.69.13A7.35,7.35,0,0,1,91.62,0ZM89,.33c3.43,1.26,6.76,2.92,10.06,4.46s6.46,3.08,9.57,4.85a45.88,45.88,0,0,1,8.66,6.17c1.33,1.24,2.66,2.49,3.88,3.82A15.54,15.54,0,0,1,124,23.2c-.61-.15-1.21-.29-1.82-.42-1-2.49-3.2-4.42-5.25-6a93.25,93.25,0,0,0-8.13-5.69c-3.27-2-6.71-3.78-10.15-5.53S91.93,2.13,88.47.59A3.36,3.36,0,0,1,89,.33Zm-1.17.72.22-.17c3.38,1.49,6.71,3.12,10,4.81S104.72,9,107.89,11c2.84,1.75,5.61,3.63,8.27,5.66,2.21,1.67,4.47,3.56,5.73,6.08l-1.61-.32c-3.09-5.06-8.09-8.51-13.19-11.36-6.34-3.54-13-6.57-19.48-9.72Zm-.48.66c6.32,3,12.72,6,18.86,9.35,5.21,2.89,10.3,6.28,13.69,11.28l-1.64-.27c-1-2.29-3.09-4-5-5.52a74.49,74.49,0,0,0-8.13-5.35c-5.82-3.34-12-5.89-17.92-9.07A2,2,0,0,1,87.36,1.71ZM87,2.59c5.74,3.07,11.78,5.53,17.45,8.76a76.59,76.59,0,0,1,8,5.11A19.43,19.43,0,0,1,118,22l-1.38-.18c-3.12-4.33-8-7.32-12.56-9.9A128.87,128.87,0,0,0,86.93,3.42,4.6,4.6,0,0,1,87,2.59Zm-.11,1.33a133.63,133.63,0,0,1,16.89,8.43,47.78,47.78,0,0,1,12.46,9.47l-1.54-.13a13.71,13.71,0,0,0-4.53-4.4c-2.36-1.64-4.76-3.21-7.26-4.64-2.66-1.51-5.38-2.91-8.09-4.32A35.79,35.79,0,0,0,87,5.11,9.4,9.4,0,0,1,86.93,3.92Zm.65,3.5c-.15-.5-.29-1-.39-1.51l-.06-.27A37.73,37.73,0,0,1,95,9c2.44,1.29,4.91,2.53,7.32,3.89s4.79,2.85,7.11,4.4a17.52,17.52,0,0,1,5,4.42l-.66-.06-.89-.05a12.15,12.15,0,0,0-4-3.92c-2.06-1.39-4.17-2.71-6.35-3.91a63.61,63.61,0,0,0-14.87-6.3Zm.56,1.67c-.15-.39-.29-.79-.42-1.19a62.15,62.15,0,0,1,14.14,6c2.11,1.15,4.17,2.39,6.19,3.7a15.18,15.18,0,0,1,4.61,4c-.65,0-1.31-.05-2-.06C104.57,15.2,96.32,12.07,88.25,9.1ZM89,11c-.22-.47-.42-.94-.61-1.42,7.88,2.9,15.83,6,22,11.87-.65,0-1.3,0-1.94,0a26.45,26.45,0,0,0-9-6.14c-3.4-1.58-6.92-2.9-10.39-4.32A.15.15,0,0,0,89,11Zm.24.52c3.32,1.46,6.76,2.64,10,4.18a36.92,36.92,0,0,1,8.92,5.76c-.63,0-1.27.05-1.9.09a26,26,0,0,0-7.75-5.36,47.49,47.49,0,0,0-8.76-3.53C89.57,12.31,89.38,11.92,89.2,11.54Zm1.16,2.33c-.11-.22-.22-.44-.34-.66a47.35,47.35,0,0,1,8.67,3.53,31.91,31.91,0,0,1,7.36,4.85c-.6,0-1.2.09-1.79.16A21.32,21.32,0,0,0,97.91,17a31.35,31.35,0,0,0-7.41-2.87C90.45,14,90.41,14,90.36,13.87Zm1,1.41a.21.21,0,0,0-.19,0c-.12-.22-.25-.43-.37-.64,4.78,1.62,9.55,3.48,13.19,7.09l-1.41.19-.38.07C98.88,19.35,95.64,16.29,91.37,15.28Zm0,.5c4.06,1.07,7.21,3.82,10.49,6.3l-1.22.2c-1.49-1-3-1.94-4.43-3A17.64,17.64,0,0,0,91.89,17,6.5,6.5,0,0,0,91.42,15.78ZM23.34,53.84a20.46,20.46,0,0,1,3.3-10.93c3.85-5.84,10.29-9.29,16.73-11.53a101.94,101.94,0,0,1,14.27-3.66,140,140,0,0,1,14.67-2.23C77.74,25,84,24.83,88.66,21.72c1.21-.81,3.17-1.93,3.35-3.56a2.83,2.83,0,0,0,0-.65,22,22,0,0,1,4.66,2.6,25.57,25.57,0,0,0,3.6,2.25l-1.63.3a12.58,12.58,0,0,0-2.72-2.15,17.11,17.11,0,0,0-3.59-1.83c-.22-.07-.32.23-.15.35,1.07.74,2.38,1.19,3.51,1.86a17,17,0,0,1,2.6,1.84l-1,.22a17.61,17.61,0,0,0-4.37-2.88c-.26-.12-.49.27-.23.38A21.39,21.39,0,0,1,97,23l-1.62.35a16.23,16.23,0,0,0-3.46-2.08c-.21-.09-.38.19-.18.31,1.1.67,2.31,1.11,3.38,1.82l-.07,0-1.67.37a14.32,14.32,0,0,0-2.55-1.5c-.19-.08-.34.16-.16.27.75.47,1.54.9,2.33,1.32l-1.62.37a13.45,13.45,0,0,0-2-1.21c-.2-.1-.38.19-.18.3.62.32,1.22.66,1.82,1l-1.1.26a6.48,6.48,0,0,0-1.43-.83c-.17-.05-.24.18-.11.27a7,7,0,0,0,.9.48l.27.17-1,.24a2.51,2.51,0,0,0-.62-.42.15.15,0,1,0-.15.25l.39.27-.58.14-.2-.19c-.09-.08-.29,0-.23.13a.34.34,0,0,0,.09.14A191.87,191.87,0,0,0,50.68,38c-6,2.9-12.37,6.29-17,11.28-3.24,3.51-5.36,8.08-3.42,12.78l.21.49c.14.29.12.14,0,.22a7.3,7.3,0,0,1-.95.61,5.92,5.92,0,0,1-.9.38A11.82,11.82,0,0,1,23.34,53.84ZM25.89,81.7c.07.35.14.7.2,1.06a2.19,2.19,0,0,1-.8.12c-.15,0-.31,0-.46-.07C25.17,82.43,25.52,82.06,25.89,81.7Zm-1.42,1.52a8.79,8.79,0,0,0,1.14-.11,1.53,1.53,0,0,0,.52-.13c.09.56.17,1.13.23,1.71a4.73,4.73,0,0,1-2.48-.52.21.21,0,0,0-.19,0C23.94,83.85,24.2,83.53,24.47,83.22Zm-.92,1.12a.2.2,0,0,0,.07.17,3.24,3.24,0,0,0,2.77.43c.06.56.11,1.11.15,1.67-1.36-.18-2.64-.51-4-.79h0C22.84,85.32,23.19,84.82,23.55,84.34Zm-1.25,1.8a.24.24,0,0,0,.13.11,10.31,10.31,0,0,0,4.13.55l.15,2a12,12,0,0,1-5.33-1C21.67,87.21,22,86.67,22.3,86.14Zm-1.13,2a7.74,7.74,0,0,0,5.56.84c.05.55.1,1.09.16,1.64-2.16.4-4.25-.49-6.37-.83h-.08C20.66,89.27,20.9,88.71,21.17,88.17Zm-.9,2.09a.23.23,0,0,0,.12.06c2.07.39,4.43,1.24,6.52.55q.09.87.24,1.71a26.12,26.12,0,0,1-7.22-.52.22.22,0,0,0-.25.07A19.36,19.36,0,0,1,20.27,90.26Zm-.66,2.12a.24.24,0,0,0,.18.18,16,16,0,0,0,7.39.25,22.5,22.5,0,0,0,.51,2.27c-1.51-.17-3-.07-4.56-.15-1.32-.08-2.62-.31-3.94-.47C19.3,93.75,19.44,93.06,19.61,92.38Zm-.5,2.6a32.24,32.24,0,0,0,4,.42c1.54,0,3.09,0,4.63-.07q.15.49.33,1c.06.18.14.35.2.53-3.18.62-6.14-.71-9.29-.75C19,95.72,19.07,95.35,19.11,95ZM19,96.6c3.1.11,6.37,1.53,9.4.46.21.55.42,1.1.64,1.65-3.38-.59-6.84,0-10.07-1.42C18.94,97.06,19,96.83,19,96.6Zm.28,5.55c-.08-.58-.15-1.17-.2-1.76a28.39,28.39,0,0,0,6.58.68c.67,0,3.64.4,3.94-.56,0-.05,0-.07-.08,0-.48.4-1.49.29-2.08.28-.94,0-1.88-.08-2.82-.16a48.76,48.76,0,0,1-5.51-.68H19c-.05-.69-.08-1.39-.07-2.1,3.13,1.4,6.83,1.1,10.18,1.18.48,1.18,1,2.37,1.46,3.55-3.85.73-7.44-.13-11.28-.4Zm.07.47c3.61.65,7.79,1.29,11.36.16l.66,1.63c-4,.7-7.87,0-11.84-.76Zm.27,1.51c3.84.77,8,1.61,11.84.51.21.52.42,1,.62,1.56.06.14.1.27.15.41-4.11-.8-8.3.55-12.31-1.1Q19.73,104.82,19.59,104.13Zm1,3.9c-.19-.66-.37-1.32-.53-2,3.79,1.53,8.28.7,12.26.8h0c.15.42.29.83.43,1.24a5.25,5.25,0,0,1-2.82.63c-1,.06-2,.08-3,0A44.1,44.1,0,0,1,20.6,108Zm.49,1.6c-.12-.36-.23-.73-.34-1.09a25.3,25.3,0,0,0,7,.7c1.42,0,3.9.18,5.06-.91.19.57.37,1.15.54,1.72-1.87.56-4.18.29-6.11.21a26.24,26.24,0,0,1-6.07-.63Zm.47,1.43c-.11-.31-.21-.63-.31-.94a24.85,24.85,0,0,0,6.5.54c1.78,0,4,.24,5.68-.48.17.6.34,1.2.5,1.8-4,.83-8.48.15-12.32-.91Zm.18.53a29.61,29.61,0,0,0,6.28,1,18.74,18.74,0,0,0,6-.35c.13.48.24.95.36,1.42a14,14,0,0,1-5.73.52,25,25,0,0,1-6.37-1.13C22,112.58,21.86,112.08,21.69,111.59Zm.72,2a23.68,23.68,0,0,0,6.52,1,11.41,11.41,0,0,0,5.43-.79l.42,1.76c-4.1,0-8.06.24-12-1.07C22.64,114.26,22.53,113.94,22.41,113.63ZM24,117.87c-.35-.91-.68-1.82-1-2.74a27.86,27.86,0,0,0,11.88.81c.15.65.31,1.3.47,2a32.7,32.7,0,0,1-11.25,0Zm.69,1.86-.52-1.38a21.5,21.5,0,0,0,11.23-.21c.17.69.36,1.39.55,2.08-.75,0-1.49.09-2.25.13-1,.06-2,.06-3.06,0a21.15,21.15,0,0,1-5.84-.63Zm.2.52a18.85,18.85,0,0,0,5.75.53c1.82,0,3.57-.24,5.37-.36.19.67.39,1.35.6,2-1.84,0-3.65.2-5.49.08s-3.72-.34-5.58-.57C25.31,121.38,25.09,120.82,24.88,120.25Zm.85,2.22c3.49.5,7.48,1,10.91.12.21.66.42,1.32.64,2a31.88,31.88,0,0,1-11-.71ZM27,125.64c-.17-.42-.34-.83-.5-1.24a25.87,25.87,0,0,0,10.87.4c.21.64.43,1.28.66,1.91-3.71-.06-7.38.23-11-1.06Zm.94,2.26-.72-1.7a24.1,24.1,0,0,0,10.91.78c.22.61.45,1.22.68,1.82-3.65.22-7.24.3-10.76-.89A.22.22,0,0,0,27.93,127.9Zm.24.58a21.69,21.69,0,0,0,10.73.57c.26.67.53,1.33.81,2a18.16,18.16,0,0,1-5.41.05,45.21,45.21,0,0,1-5.31-.74C28.72,129.73,28.44,129.11,28.17,128.48Zm1.07,2.4a42,42,0,0,0,5.46.69,13.51,13.51,0,0,0,5.11-.29l.34.82c.15.34.31.67.46,1a56.09,56.09,0,0,1-10.6-.58C29.75,132,29.49,131.44,29.24,130.88ZM31,134.51c-.23-.47-.47-.94-.69-1.41a28.26,28.26,0,0,0,10.45.27c.26.59.53,1.17.81,1.75a14.9,14.9,0,0,1-5.16.17c-1.8-.19-3.61-.41-5.39-.78Zm.28.56a41.09,41.09,0,0,0,5.51.7,12.09,12.09,0,0,0,4.9-.41c.29.61.6,1.21.91,1.82-1.79,0-3.56.11-5.35,0s-3.7,0-5.22-.69Zm2.19,4.18-1.11-2.1a15.63,15.63,0,0,0,4.45.49,36.36,36.36,0,0,0,5.9-.24c.29.56.6,1.12.91,1.67a70.18,70.18,0,0,1-10.15.18Zm1.13,2.07-.85-1.55a53.93,53.93,0,0,0,10-.46c.33.58.66,1.15,1,1.72a21.23,21.23,0,0,1-5.16.37,31.53,31.53,0,0,1-4.86-.1A.22.22,0,0,0,34.57,141.32Zm1.13,2.05-.54-1-.31-.56a36.45,36.45,0,0,0,5.12,0,13.89,13.89,0,0,0,4.88-.63c.45.73.9,1.45,1.38,2.15-3.49-.11-6.95.92-10.4,0ZM36,144c3.35.88,7-.08,10.41-.26.24.35.5.68.75,1-3.34.71-6.76.66-10.15,1C36.69,145.14,36.35,144.55,36,144Zm1.31,2.24a59.09,59.09,0,0,0,10-1.27c.47.64,1,1.27,1.46,1.89-1.74.08-3.38.72-5.11,1s-3.33,0-5,.31A15.25,15.25,0,0,1,37.34,146.2Zm3.07,3.51a11.65,11.65,0,0,1-1.27-1.16c1.55-.23,3.13,0,4.67-.33A52,52,0,0,1,49,147.1l0,.06c.43.51.88,1,1.34,1.49a41.83,41.83,0,0,1-9.64,1.3C40.65,149.87,40.53,149.8,40.41,149.71Zm1.08.67a34,34,0,0,0,9.13-1.51c.39.41.8.8,1.21,1.19C48.54,151,44.66,152,41.49,150.38ZM74.8,179.46l-.27.22A24.32,24.32,0,0,0,76,171a.07.07,0,0,0-.13,0,27.72,27.72,0,0,1-1.89,8.9.16.16,0,0,0,0,.15q-3.75,3-7.73,5.72c2.51-3.81,2.31-9.33,2.49-13.65,0-.11-.17-.11-.18,0-.34,4.71-.34,10.26-3.32,14.18a.19.19,0,0,0,0,.17c-.38.26-.76.52-1.15.77l-2,1.31c1.83-3.71,2.11-8.37,2.19-12.35,0-.16-.23-.15-.24,0-.24,4.45-.78,9-2.9,13-1.82,1.15-3.67,2.26-5.56,3.31a31.82,31.82,0,0,0,3.92-13.14c0-.17-.24-.17-.26,0a34.3,34.3,0,0,1-4.48,13.54s0,0,0,.06a61.54,61.54,0,0,1-11.27,4.86c-3.62,1.11-9.36,2.25-11.77-1.11a20.46,20.46,0,0,0,7.17-7.7c.08-.15-.15-.28-.23-.13-1.68,3.23-4.51,5.14-7.22,7.38a5.65,5.65,0,0,1-.64-1.68,3.6,3.6,0,0,1,1-3.28,28.06,28.06,0,0,1,3.82-3.73c3.47-2.91,7.2-5.49,10.9-8.09a54.06,54.06,0,0,0,8.22-6.7c4.29-4.52,8.1-8.67,14.34-10.29l0,0A35.93,35.93,0,0,1,72,165c2.28,2.26,4.35,4.73,6.68,7,.65.62,1.32,1.22,2,1.79C79.24,176,76.83,177.8,74.8,179.46ZM218,127.6c-4.11,4.55-10.32,6.69-16,8.54s-11.47,3.41-16.53,6.53c-.54.34-1.07.68-1.6,1a.28.28,0,0,0-.15,0c-6.31,3.78-14.33,3.88-21.35,2.43-7.44-1.54-14.88-4.86-20.38-10.21a22,22,0,0,1-6.58-11.26c-1.14-5.78,1.48-11,3.11-16.44a23.74,23.74,0,0,0,1.25-8,47,47,0,0,0-1.67-8.37c-1.49-6.17-2.37-12.74,2.39-17.75.12-.12-.06-.31-.18-.19-3.8,3.81-4.48,8.79-3.63,13.91.91,5.48,3.24,10.77,2.24,16.41-.9,5-3.41,9.54-4.17,14.55a18.22,18.22,0,0,0,2.3,11.89c4.49,7.79,13.09,12.77,21.52,15.2,7.07,2,15.34,2.76,22.33,0a78.27,78.27,0,0,0-7.18,6.31c-7.41,7.31-13.84,15.62-21.78,22.39a47.84,47.84,0,0,1-13,8.26c-5.56,2.23-11.42,2.77-17.37,2.85-13.86.2-29.05-2.7-39.92-11.87-4.94-4.16-8.76-9.43-14-13.21S56.14,153.74,51.52,149a54.41,54.41,0,0,1-9.77-14.84,91.2,91.2,0,0,1-5.94-16.83A95.49,95.49,0,0,0,33.38,108c-1.19-3.34-2.65-6.56-3.94-9.85A25.82,25.82,0,0,1,27.84,93c-.29-1.71-.43-3.44-.57-5.17a43.59,43.59,0,0,0-.88-6.64l.3-.29c.28-.25-.13-.65-.4-.4l-.06,0a16.68,16.68,0,0,0-.74-2.16.3.3,0,0,0-.36-.21C13.09,80.29,11,96.08,0,99.7a17.46,17.46,0,0,0,2.09-5.53c.67-3.3,1-6.6,2.49-9.66S8,78.86,9.52,76a15.76,15.76,0,0,0,2.37-7.29,19.29,19.29,0,0,0-1.22-6.42C9,57.49,6.42,53.12,4.34,48.54,2.6,44.73.61,40,2.31,35.83c.11.1.23.2.34.32C5.22,38.71,7.09,42,9,45.07c2.32,3.76,4.57,7.58,7.18,11.16,2.78,3.82,7.41,9.49,12.38,8.19l.36.25c.31.2.58-.26.33-.48a7.31,7.31,0,0,0,2-1.15.32.32,0,0,0,0-.38C26,52.32,40.32,44,47.64,40.22A155.55,155.55,0,0,1,70.51,30.8q10.51-3.5,21.3-6.06h0a.07.07,0,0,0,.1,0l.69-.16,1.15-.27.14.08c.08.05.14-.07.08-.13l1.73-.39a.09.09,0,0,0,.14,0c1-.21,2-.42,2.93-.61l0,0a.11.11,0,0,0,.19-.06,55.53,55.53,0,0,1,10-1.12c13.16-.09,25.74,4.23,36.77,11.27,5.47,3.5,10.42,7.7,15.66,11.52,5,3.63,10.07,7.1,15.07,10.7,10.05,7.25,19.75,15.26,26.56,25.76,2.66,4.1,5,8.49,7.27,12.82s4.66,9,5.65,13.88a10.4,10.4,0,0,1-.07,5.75c-.78,2-2.88,3.47-4.6,4.59l-.21.14-1.18.73c-4.07,2.4-9.62,4.5-13.95,2.26-.24-.12-.45.23-.21.36a8.69,8.69,0,0,0,3.83,1c4.07.13,8.26-1.52,11.71-3.81,2.41-.13,5.37.15,7.2,1.88C220.69,122.93,219.72,125.66,218,127.6Z"/><path class="cls-2" d="M120.84,95.59c-4.23-3-10.37-5.48-15.58-3.91-4.06,1.23-8.65,6.71-4.77,10.42-.52.16-1,.34-1.54.52a25.09,25.09,0,0,0-4.73,2.27,26.15,26.15,0,0,0-4.5,3.91c-3.9,3.92-7.63,8-11.7,11.77A44.34,44.34,0,0,1,65.78,129a39.57,39.57,0,0,1-16.91,2.89.3.3,0,0,0-.29.38,8.06,8.06,0,0,0,1.06,2.32.23.23,0,0,0,.13.29l.08,0a12.9,12.9,0,0,0,6.84,4.45,43.3,43.3,0,0,0,14.25,1.49c8.86-.3,17.63-2,25.54-6a.18.18,0,0,0,.21-.1h0q.68-.34,1.35-.72a65.29,65.29,0,0,0,12.64-9.3.23.23,0,0,0,.17-.11.75.75,0,0,0,.07-.12c1-.92,1.92-1.86,2.84-2.83a.21.21,0,0,0,.11-.1v0a79.9,79.9,0,0,0,6.55-7.91l.68.05a6.67,6.67,0,0,0,1.61,0,3.34,3.34,0,0,0,.89-.18c3.32-1.23,4.1-4.76,3.48-7.94A15.77,15.77,0,0,0,120.84,95.59Zm-19.21-1a9.13,9.13,0,0,1,7-2.78,20.87,20.87,0,0,1,13.64,5.69,16.54,16.54,0,0,1,3.46,5.25,17.92,17.92,0,0,0-5.39-6.5A16.05,16.05,0,0,0,108.12,93a19.22,19.22,0,0,0-5.64,2,8.46,8.46,0,0,0-2.28,1.63A7.56,7.56,0,0,1,101.63,94.63Zm12.78,25.58c1.38-3.78,1.3-8,1.2-12a.09.09,0,0,0-.17,0c-.11,4.33-.12,8.83-1.85,12.87-.64.67-1.29,1.33-2,2,1.74-4,1.32-8.82,1.2-13.08a.11.11,0,0,0-.21,0c.06,4.58.38,9.94-2,14-.74.68-1.49,1.36-2.25,2a17.65,17.65,0,0,0,1.68-5.21,19.17,19.17,0,0,0,.23-7c0-.12-.24-.09-.22,0,.57,4.24-.29,9.53-2.76,13.12l-1.37,1.1c2.08-3.58,2.4-8.23,2.58-12.22a.1.1,0,0,0-.19,0c-.36,4.42-.85,9.34-3.49,13.06-.82.62-1.66,1.21-2.5,1.78,2.07-3,2.66-7.31,2.56-10.85a.08.08,0,1,0-.15,0c0,4-.94,8.3-3.39,11.49-1,.63-1.95,1.24-3,1.81-.4.23-.82.45-1.23.66,1.66-3.13,3.79-6.1,4.54-9.62,0-.11-.14-.15-.17,0-.91,3.7-3.38,6.64-5,10A51.28,51.28,0,0,1,89.78,137c3.44-2.32,7-5.56,7.32-9.88,0-.16-.22-.15-.24,0-.49,4.5-4.57,7.76-8.15,10a.22.22,0,0,0-.1.25c-1.39.45-2.79.83-4.21,1.17A15.94,15.94,0,0,0,91,130.38c0-.13-.16-.18-.2,0a15.87,15.87,0,0,1-8.23,8.59A67.54,67.54,0,0,1,74.65,140a29,29,0,0,0,4.89-2.45c1.66-1.05,3.42-2.3,4.26-4.14.06-.12-.11-.22-.17-.1-1,1.92-3,3.23-4.88,4.24A35.26,35.26,0,0,1,73,140.11l-.06,0c-.85.05-1.7.09-2.55.11-1.72,0-3.47,0-5.22-.07,3.7-.83,8-1.52,10.61-4.47.1-.11-.06-.27-.16-.16-2.72,3-7.16,3.28-10.85,4.26a.22.22,0,0,0-.12.34A34.63,34.63,0,0,1,57.49,139c3.56.1,7.56-.17,10.3-2.55.08-.08,0-.19-.12-.12-3.2,2.48-7.78,2.27-11.61,2.14a.17.17,0,0,0-.1,0,12.67,12.67,0,0,1-5-3.14,14.64,14.64,0,0,0,9.68.47c.1,0,.06-.19,0-.16-3.44,1.13-6.9.1-10.19-1a7.65,7.65,0,0,1-1.12-2.14c6.73.12,13.46-1,19.42-4.28,5.52-3,10.1-7.39,14.47-11.85,2-2,4-4.09,6-6.11a30.85,30.85,0,0,1,5.06-4.63,27.79,27.79,0,0,1,10.61-3.92c3.71-.6,7.93-.73,11.41.9s5.28,4.91,5.24,8.8a.16.16,0,0,0,0,.1A86,86,0,0,1,114.41,120.21Zm7.65-8.95v-.57a9.76,9.76,0,0,0-2.07-6,10.7,10.7,0,0,0-5.65-3.37,25.26,25.26,0,0,0-13,.54c.68-1.49,3.54-1.73,4.93-1.9a17.24,17.24,0,0,1,7.72.57,14.87,14.87,0,0,1,6.49,4.43c1.28,1.5,4.09,5.85,1.11,7l.14-.2a.28.28,0,0,0,.3-.29Zm-1.4,2v0h.09Zm.27-.39.06-.08a.11.11,0,0,0,0,.06Zm1.47.2h-.16l.09,0,.34,0Zm-1.29-.43h0l.25-.36c2.9-.3,2-3.89,1-5.59a15.53,15.53,0,0,0-7-6.19,17.49,17.49,0,0,0-9.47-1c-1.48.2-4,.46-4.87,1.94.32-3.06,4.25-3.7,6.81-3.59a20.17,20.17,0,0,1,8.11,2.15,17.49,17.49,0,0,1,6.72,5.7c.92,1.35,2,3,1.55,4.75S122.61,112.6,121.11,112.65Zm2.74-.67a4.37,4.37,0,0,0,.38-4.4c-1.29-3.26-4.41-6.07-7.46-7.66a19.93,19.93,0,0,0-10-2.54c-2.58.15-5.66.93-6.21,3.67-.67-1.49,1.46-3.15,2.61-3.68A10.35,10.35,0,0,1,108,96.5a21.44,21.44,0,0,1,9,2.61,19.35,19.35,0,0,1,7.62,7.34c.62,1.15,1.26,2.93.78,4.25A4.94,4.94,0,0,1,123.85,112Zm1.55-.28a3,3,0,0,1-.28.24,3.1,3.1,0,0,0,.52-.7,5.29,5.29,0,0,0,.51-.66A4,4,0,0,1,125.4,111.7Zm.64-2.12a6.49,6.49,0,0,0-.45-2.25,15.42,15.42,0,0,0-3.68-5.13,19.86,19.86,0,0,0-5-3.69c-3.45-1.71-7.46-2.9-11.33-2.4a7.53,7.53,0,0,0-4.41,2,4.46,4.46,0,0,0-1.26,2c0-.08,0-.16-.07-.23a.3.3,0,0,0,0-.23c-.31-1.53,2-2.61,3.11-3.12a12.37,12.37,0,0,1,4.71-1.12,20.28,20.28,0,0,1,10.91,3.12,16.72,16.72,0,0,1,6.81,6.88A6,6,0,0,1,126,109.58Zm.4-2.93c-1.12-3.63-4.08-6.45-7.25-8.36-3.81-2.31-8.49-4-13-3.26-1.41.22-4.39,1-5.92,2.42a8,8,0,0,1,3.33-2.38,17.55,17.55,0,0,1,4.65-1.6A15.19,15.19,0,0,1,119.16,96a17.64,17.64,0,0,1,6.81,8.5,8.88,8.88,0,0,1,.69,3.38A5.17,5.17,0,0,0,126.44,106.65Z"/><path class="cls-2" d="M173.81,108.23a.23.23,0,0,0,0,.14,8.89,8.89,0,0,0,6.27,4.82A7.91,7.91,0,0,0,186.6,112a6.3,6.3,0,0,0,1-1,8,8,0,0,0,2.09-9.17l-.06-.14a8.32,8.32,0,0,0-.32-1A7.5,7.5,0,0,0,182.1,96a.11.11,0,0,0-.08.19,9.32,9.32,0,0,0-7.31,3.26,7.41,7.41,0,0,0-1.22,7.83A6.48,6.48,0,0,0,173.81,108.23ZM185.6,98a6.41,6.41,0,0,1,3.77,5.56,8.8,8.8,0,0,1-3.69,7.47,8.19,8.19,0,0,1-4.42,1.17,10.24,10.24,0,0,1-7.19-5c-.78-3.47,1.53-7.3,4.62-8.92A7.3,7.3,0,0,1,185.6,98Zm-12.1,5a8.59,8.59,0,0,1,8.18-6.33,7.81,7.81,0,0,0-1.59.34,9.81,9.81,0,0,0-6.71,7.86A6,6,0,0,1,173.5,103Z"/><path class="cls-2" d="M191.26,100.85c2.8,6-.62,14-7.44,15.13a11.65,11.65,0,0,1-9.89-3.29,11.13,11.13,0,0,1-3.11-9.19c.05-.4-.58-.4-.62,0a11.53,11.53,0,0,0,3.74,10c2.75,2.37,6.7,3.8,10.33,3a11,11,0,0,0,7.21-15.79C191.4,100.57,191.2,100.7,191.26,100.85Z"/><path class="cls-2" d="M178.11,106.14a3.58,3.58,0,0,0,4.54,2,4.89,4.89,0,0,0,1.74-1,3.57,3.57,0,0,0,1.53-2.3,3.47,3.47,0,0,0-2.18-4,4.8,4.8,0,0,0-4.38,1.15A3.75,3.75,0,0,0,178.11,106.14Z"/><path class="cls-2" d="M137.35,51.5a7,7,0,0,0-3.94-.11,1.42,1.42,0,0,0-.33,2.57c1.08.76,3,1.37,4.16.61a1.29,1.29,0,0,0,.35-.35,5.29,5.29,0,0,0,1.71.42A.7.7,0,0,0,140,54C140,52.66,138.42,51.79,137.35,51.5Z"/><path class="cls-2" d="M118.42,41.08a4.71,4.71,0,0,0,3.35.06,1.28,1.28,0,0,0,.56-2.11,3.56,3.56,0,0,0-.31-.26,4.36,4.36,0,0,0-.56-.74,2.73,2.73,0,0,0-2.53-.9,2.16,2.16,0,0,0-1.59,1.64A2.11,2.11,0,0,0,118.42,41.08Z"/><path class="cls-2" d="M146.21,39.56A5.81,5.81,0,0,0,144.45,38a1.23,1.23,0,0,0-.73-.51,4,4,0,0,0-2.38-.19,1.37,1.37,0,0,0-1,1.31,3.59,3.59,0,0,0,5.44,2.59A1.21,1.21,0,0,0,146.21,39.56Z"/><path class="cls-2" d="M112.25,57.61a4.09,4.09,0,0,0,2.12.55.64.64,0,0,0,.7-.65.35.35,0,0,0,.07-.62,3.72,3.72,0,0,0-2.74-.44A.64.64,0,0,0,112.25,57.61Z"/><path class="cls-2" d="M138.83,61c-.36-.06-.72-.14-1.08-.22a.94.94,0,0,0-1.08-.59l-.18,0a1.13,1.13,0,0,0-.36.06,1.38,1.38,0,0,0-.66.43,1,1,0,0,0,.45,1.68,5.41,5.41,0,0,0,2.66.44.94.94,0,0,0,.93-.93A.92.92,0,0,0,138.83,61Z"/><path class="cls-2" d="M157.21,57.49a1.07,1.07,0,0,0,.25-1.94,2.68,2.68,0,0,0-1.12-.32,1,1,0,0,0-1.57.5.58.58,0,0,0,.2,1h0a1.29,1.29,0,0,0,.28.38A2.1,2.1,0,0,0,157.21,57.49Z"/><path class="cls-2" d="M119.61,49.32a.82.82,0,0,0,.56-.7.53.53,0,0,0-.15-.95,5.08,5.08,0,0,0-3-.19.87.87,0,0,0-.38,1.44A2.79,2.79,0,0,0,119.61,49.32Z"/><path class="cls-2" d="M133.6,43.21a.76.76,0,0,0,0-1.07,2.44,2.44,0,0,0-1.1-.55c-.37-.06-.74-.07-1.11-.1a.58.58,0,0,0-.44,1,.77.77,0,0,0,.23.68,1.41,1.41,0,0,0,.42.26l.09,0a2.42,2.42,0,0,0,.52.23A1.52,1.52,0,0,0,133.6,43.21Z"/><path class="cls-2" d="M121.17,65.16a2.61,2.61,0,0,0-2.72.09.94.94,0,0,0-.19,1.46c.94.79,1.85.65,3,.48A1.05,1.05,0,0,0,122,65.9,1,1,0,0,0,121.17,65.16Z"/><path class="cls-2" d="M119.76,56.28a.58.58,0,0,0-.41.9,1.37,1.37,0,0,0-.13.2,1,1,0,0,0,.37,1.42,4.64,4.64,0,0,0,5.1-.4,1,1,0,0,0-.21-1.63A8.26,8.26,0,0,0,119.76,56.28Z"/><path class="cls-2" d="M93.06,45.64a6.23,6.23,0,0,0,5.64,0s0,0,.09-.06a6,6,0,0,0,1.63-.63.87.87,0,0,0,.31-1.19c-1.81-2.42-6.37-2.35-8.15,0A1.34,1.34,0,0,0,93.06,45.64Z"/><path class="cls-2" d="M106.13,29.36a6.65,6.65,0,0,0,5.05-.52,1.06,1.06,0,0,0,0-1.81,4.43,4.43,0,0,0-2.86-.71,3,3,0,0,0-2.93,1.23A1.24,1.24,0,0,0,106.13,29.36Z"/><path class="cls-2" d="M104.66,35.71a2,2,0,0,0,1.42-.23.69.69,0,0,0,0-1.19,1.15,1.15,0,0,0-.66-.21l0,0h0a1,1,0,0,0-.7-.35c-.49-.07-.9.45-.9.9A1.22,1.22,0,0,0,104.66,35.71Z"/><path class="cls-2" d="M78.77,37.87c1.66.51,4.28.47,5.53-.92a.72.72,0,0,0-.31-1.2,6.74,6.74,0,0,0-1-.14,1,1,0,0,0-.55-.22,6.37,6.37,0,0,0-3.91.91A.87.87,0,0,0,78.77,37.87Z"/><path class="cls-2" d="M80.17,45.5h0C80.07,45.45,80.11,45.47,80.17,45.5Z"/><path class="cls-2" d="M78.91,47.13a2,2,0,0,0,.48.19,1.17,1.17,0,0,0,.88-.15,1.44,1.44,0,0,0,.52-.7.76.76,0,0,0-.34-.83l-.13-.08-.15-.06a1,1,0,0,0-.44-.1l-.12,0a1.44,1.44,0,0,0-.83-.06.83.83,0,0,0-.36,1.38.6.6,0,0,1,.08.08c-.12-.17-.1-.14.07.09A2,2,0,0,0,78.91,47.13Z"/><path class="cls-2" d="M107.54,51.33a1.59,1.59,0,0,0,1.27-.23.88.88,0,0,0,.18-1.36,1.73,1.73,0,0,0-.89-.52,2.11,2.11,0,0,0-.93-.28,1,1,0,0,0-1,.77,1.06,1.06,0,0,0,.48,1.19c.07,0,.25.17,0,0a1.87,1.87,0,0,0,.54.33A2,2,0,0,0,107.54,51.33Z"/><path class="cls-2" d="M133.18,31.76a1,1,0,0,0,0-1.42,5.05,5.05,0,0,0-3.68-1.07,2.38,2.38,0,0,0-1.55.46,1.13,1.13,0,0,0-.22,1.74A3.85,3.85,0,0,0,133.18,31.76Z"/><path class="cls-2" d="M154.62,46.9a2.42,2.42,0,0,0,.47.07,1.16,1.16,0,0,0,1-.53.57.57,0,0,0-.33-.83l-.42,0a.57.57,0,0,1-.29,0,.31.31,0,0,0-.21,0,1.05,1.05,0,0,0-.43-.07.74.74,0,0,0-.72.72.72.72,0,0,0,.53.7l.33,0h.07Z"/><path class="cls-2" d="M168.31,56.86l-.41,0a.83.83,0,0,0-.77-.2c.29-.06.16,0,0-.07a.88.88,0,0,0-.32,0,1.19,1.19,0,0,0-.81.4.89.89,0,0,0,.39,1.48,5.34,5.34,0,0,0,1.91.07.83.83,0,0,0,.81-.81A.8.8,0,0,0,168.31,56.86Z"/><path class="cls-2" d="M148.84,62h-.07a.85.85,0,0,0-.85.86v.06a1,1,0,0,0,.67.88.89.89,0,0,0,.89-.24l-.11.08a.82.82,0,0,0,.23-.26v0l0,0a.87.87,0,0,0,0-.92A1,1,0,0,0,148.84,62Z"/><path class="cls-2" d="M158.27,66.16v0l-.37-.23c-1.68-1.07-2,2.47-.24,1.83l.42-.15A.79.79,0,0,0,158.27,66.16Z"/><path class="cls-2" d="M147.05,52.76a.73.73,0,0,0-.91.86.81.81,0,0,0,.1.52.84.84,0,0,0,.73.42.86.86,0,0,0,.74-1.28A1,1,0,0,0,147.05,52.76Z"/><path class="cls-2" d="M89.83,32.86h0a.74.74,0,0,0,.21.17,1.46,1.46,0,0,0,1,.22l.27-.08s.31-.07.11,0a1,1,0,0,0,1-1,1,1,0,0,0-1-1,5.43,5.43,0,0,0-.57,0,1.51,1.51,0,0,0-.59.15,4.15,4.15,0,0,0-.48.11A.77.77,0,0,0,89.83,32.86Z"/><path class="cls-2" d="M118.92,30.73l.15.06.13.05a1.06,1.06,0,0,0,1.46.41,1.1,1.1,0,0,0,.38-1.46,1.83,1.83,0,0,0-2.12-.82A.92.92,0,0,0,118.92,30.73Z"/><path class="cls-2" d="M94.48,54.09a4.26,4.26,0,0,0-.86-.13,1.37,1.37,0,0,0-.32-.16,5.48,5.48,0,0,0-2.87.09,1.19,1.19,0,0,0,0,2.28c1.4.41,3.29.5,4.48-.46A1,1,0,0,0,94.48,54.09Z"/><path class="cls-2" d="M103.43,61.08c-.15,0,.07,0,.09,0h.14a1.69,1.69,0,0,0,.32,0,1,1,0,0,0,.77-.34.49.49,0,0,0-.16-.79,1.69,1.69,0,0,0-.31-.13l-.13,0h0a3.58,3.58,0,0,0-.71-.27.81.81,0,1,0,0,1.56Z"/><path class="cls-2" d="M72.38,55a6.41,6.41,0,0,0,5.6.38,1.15,1.15,0,0,0,.5-1.89,2.1,2.1,0,0,0-1-.57.54.54,0,0,0-.22-.15c-1.69-.7-3.67-1.1-5.14.28A1.25,1.25,0,0,0,72.38,55Z"/><path class="cls-2" d="M66.32,45.24a2.72,2.72,0,0,0,2.58-.31.66.66,0,0,0-.51-1.21c-.19,0-.4.1-.6.16-.41,0-.84-.19-1.26-.2a.8.8,0,0,0-.79.8A.81.81,0,0,0,66.32,45.24Z"/><path class="cls-2" d="M69.78,36.27a2.48,2.48,0,0,0,.65-.34A3.44,3.44,0,0,0,72,35.44.78.78,0,0,0,71.77,34a2.77,2.77,0,0,0-2.91.68A1,1,0,0,0,69.78,36.27Z"/><path class="cls-2" d="M55,50.15c-.3.13-.59.1-.88.3-.64.41-.84,1.6,0,2a3.7,3.7,0,0,0,3.71-.24A1,1,0,0,0,58.26,51a1,1,0,0,0-1-.73c-.33,0-.66.07-1,.12A1.11,1.11,0,0,0,55,50.15Z"/><path class="cls-2" d="M63.47,60.08a4.2,4.2,0,0,0,2.67-.44.9.9,0,0,0,.19-1.41,1.59,1.59,0,0,0-1.12-.48h-.08a.9.9,0,0,0-.88-.2h0l0,0a2.46,2.46,0,0,0-1,.42,1.18,1.18,0,0,0-.53,1.29A1.16,1.16,0,0,0,63.47,60.08Z"/><path class="cls-2" d="M77.6,63l0-.06a.88.88,0,0,0-.81-.4l-.2,0h0s0,0,0,0a.62.62,0,0,0-.21-.15,1.19,1.19,0,1,0-1.23,2,2.24,2.24,0,0,0,2.18-.18A.91.91,0,0,0,77.6,63Z"/><path class="cls-2" d="M93.72,67.52a2.69,2.69,0,0,0-4-.07,1.25,1.25,0,0,0-.27,1.06.55.55,0,0,0,.4.77c.33.07.66.12,1,.16a.92.92,0,0,0,.28,0,4,4,0,0,0,2.37-.41A1,1,0,0,0,93.72,67.52Z"/><path class="cls-2" d="M77.36,75.77a.75.75,0,0,0,.4-1.45,1,1,0,0,0-.72.07.65.65,0,0,0-.15.12l0,0h0a.64.64,0,0,0-.18.27C76.54,75.24,77,75.69,77.36,75.77Z"/><path class="cls-2" d="M100.58,76.92a1.11,1.11,0,0,0,.8.77,1.76,1.76,0,0,0,.88-.1c.55-.2,1.08-.84.73-1.44a.79.79,0,0,0-.54-.37l0,0a1,1,0,0,0-1.24-.17A1.18,1.18,0,0,0,100.58,76.92Z"/><path class="cls-2" d="M81.12,86.46a.91.91,0,0,0,.23-.42h0s0,0,0-.07v0a1,1,0,0,0-.17-.79.89.89,0,0,0-1.53,0,1.1,1.1,0,0,0,0,1.12A1,1,0,0,0,81.12,86.46Z"/><path class="cls-2" d="M54.55,68.23a.76.76,0,0,0-.19,1h0l0,0a.69.69,0,0,0,.23.22.6.6,0,0,0,.33.1h.11a.55.55,0,0,0,.32-.1.72.72,0,0,0,.24-.22l0,0h0a.75.75,0,0,0-.19-1A.68.68,0,0,0,54.55,68.23Z"/><path class="cls-2" d="M99.74,66.31l-.09,0a.9.9,0,0,0,0,1.55l.09,0a1,1,0,1,0,0-1.65Z"/><path class="cls-2" d="M117.58,74a.53.53,0,0,0,.27-.47v-.06a.49.49,0,0,0-.48-.48h-.06a.56.56,0,0,0-.52.4,1,1,0,0,0,0,.56.41.41,0,0,0,.74.09C117.42,74.14,117.54,74,117.58,74Z"/><path class="cls-2" d="M91.75,74.84a.88.88,0,0,0,1.19-1.19,1.78,1.78,0,0,0-.36-.49,1,1,0,0,0-1-.25,1.06,1.06,0,0,0-.59.45.89.89,0,0,0-.1.76,1,1,0,0,0,1,.72.36.36,0,0,1-.21,0Z"/><path class="cls-2" d="M129.47,71.3a1.35,1.35,0,0,0,0,2.7A1.35,1.35,0,0,0,129.47,71.3Z"/><path class="cls-2" d="M111.73,42a1,1,0,0,0,0-1.94A1,1,0,0,0,111.73,42Z"/><path class="cls-2" d="M127.19,46.84a.51.51,0,0,0,0,1A.51.51,0,0,0,127.19,46.84Z"/><path class="cls-2" d="M135.35,38.05a.77.77,0,0,0,0-1.53A.77.77,0,0,0,135.35,38.05Z"/><path class="cls-2" d="M96.14,38.68a1,1,0,0,0,0-2.07A1,1,0,0,0,96.14,38.68Z"/><path class="cls-2" d="M93.87,28.19a.62.62,0,0,0,0-1.23A.62.62,0,0,0,93.87,28.19Z"/><path class="cls-2" d="M53.7,44l.89-.07a2.36,2.36,0,0,0,1-.36.94.94,0,0,0,0-1.59.83.83,0,0,0-.49-.11h0c-.13,0-.14,0-.06,0l-.16,0,0,0a1.27,1.27,0,0,0-1.79.05,1.52,1.52,0,0,0-.5,1A1.09,1.09,0,0,0,53.7,44Z"/><path class="cls-2" d="M41.73,53.4a1.1,1.1,0,0,0,.6-.56.91.91,0,0,0,0-.86.75.75,0,0,0-.51-.37h-.07a.88.88,0,0,0-.54-.2.84.84,0,0,0-.75.43h0a1.16,1.16,0,0,0-.2.4,1.22,1.22,0,0,0,0,.63.88.88,0,0,0,.65.65A1.29,1.29,0,0,0,41.73,53.4Z"/><path class="cls-2" d="M48.34,58.23l0,0,0,0-.1-.08,0,0h0l-.1-.08a1.21,1.21,0,0,0-1-.12,1.23,1.23,0,1,0,1.2,2,1.26,1.26,0,0,0,.36-1A1.12,1.12,0,0,0,48.34,58.23Z"/><path class="cls-2" d="M63,66.37a1.24,1.24,0,0,0,.46.48,1.35,1.35,0,0,0,1.62-.21,1.47,1.47,0,0,0,.22-1.77,1.25,1.25,0,0,0-1.41-.57l-.21.09-.18.09A1.38,1.38,0,0,0,63,65l-.16.12a.8.8,0,0,0-.12,1A.72.72,0,0,0,63,66.37Z"/><path class="cls-2" d="M42,65.56a1.1,1.1,0,0,0,0,2.19A1.1,1.1,0,0,0,42,65.56Z"/><path class="cls-2" d="M36.08,64.47a.15.15,0,0,0,0,.3A.15.15,0,0,0,36.08,64.47Z"/><path class="cls-2" d="M109.69,85.33a1.08,1.08,0,0,0,1-1v-.12a1.06,1.06,0,1,0-2.12,0v.12A1.08,1.08,0,0,0,109.69,85.33Z"/><path class="cls-2" d="M14,56.51c-1.59-2-2.8-4.26-4.37-6.27s-3.31-4-4.14-6.55a.08.08,0,0,0-.16.05,17.44,17.44,0,0,0,3.33,5.84c1.73,2.18,3,4.64,4.74,6.85,3.27,4.28,7.37,7.92,11.37,11.49.19.17.48-.11.28-.29A95.9,95.9,0,0,1,14,56.51Z"/><path class="cls-2" d="M23.05,68.42a.23.23,0,0,0,.33-.33C16.77,61.42,9.16,55.46,5.31,46.63c0-.09-.2,0-.16.07C8.78,55.69,16.4,61.72,23.05,68.42Z"/><path class="cls-2" d="M23.4,72.16c-3.81,2.67-6.64,6.3-9.41,10-3.13,4.13-6.21,8.23-9.12,12.53-.17.25.23.48.4.23,2.86-4.15,5.85-8.18,8.84-12.24,2.77-3.76,5.57-7.56,9.4-10.32C23.61,72.26,23.51,72.08,23.4,72.16Z"/><path class="cls-2" d="M5.86,88c2.62-5.81,7.54-9.49,11.76-14a.11.11,0,0,0-.16-.15C13.05,78.08,7.9,81.87,5.4,87.7,5.27,88,5.72,88.28,5.86,88Z"/><path class="cls-2" d="M13.44,73.35c2.19-.7,4.3-1.63,6.44-2.44a.1.1,0,0,0-.05-.2c-2.21.57-4.35,1.47-6.51,2.2C13.05,73,13.16,73.44,13.44,73.35Z"/><path class="cls-2" d="M19.58,69.42c.16,0,.23-.21.07-.25a41.4,41.4,0,0,0-5.26-1.35c-.24,0-.35.32-.1.38C16.05,68.62,17.83,69,19.58,69.42Z"/><path class="cls-2" d="M20,67.94c-2.8-2.27-5.06-5.17-8-7.23-.23-.16-.44.22-.22.38,2.91,2.12,5.28,4.84,8.13,7C20,68.18,20.1,68,20,67.94Z"/><path class="cls-2" d="M72.45,168.48a39.81,39.81,0,0,1-2.64,14.24c-.1.26.34.44.45.19,2-4.52,2.37-9.56,2.34-14.43A.07.07,0,1,0,72.45,168.48Z"/><path class="cls-2" d="M54.17,183.31a32.1,32.1,0,0,1-2.26,6.43,28.59,28.59,0,0,1-3.84,5.59.23.23,0,0,0,.32.32c3.4-3,5-8,6-12.27C54.48,183.21,54.21,183.13,54.17,183.31Z"/><path class="cls-2" d="M48.74,185.46c-1.42,4.5-3.24,9-6.77,12.24-.25.23.12.6.37.37,3.61-3.23,5.28-8,6.66-12.53A.14.14,0,0,0,48.74,185.46Z"/><path class="cls-2" d="M43.45,187.94a30.36,30.36,0,0,1-7.06,10.42c-.22.22.11.53.34.34,3.25-2.68,5.54-6.81,7-10.68C43.8,187.84,43.52,187.77,43.45,187.94Z"/></g></svg>