<svg xmlns="http://www.w3.org/2000/svg" viewBox="0 0 94.22 136.29"><defs><style>.cls-1{fill:#fff;}.cls-2{fill:#272525;}</style></defs><title>life</title><g id="stroke"><path class="cls-1" d="M8.09,80.18A35.09,35.09,0,0,0,13,72.05c2.12-4.37,3.14-10.3,6.85-13.72,3.95-3.65,9.67-5.32,14.51-7.7-1-.06-2-.13-3-.22C26.19,55,17.65,55.6,14.72,62.49,13,66.65,12.43,71.32,9.59,75,7.2,78.09,3,80.21,1.37,83.86-1,89.27,4.91,93.7,6.11,98.6c.18.72,1.24,5.1,2.23,3.18a3.93,3.93,0,0,0,.24-3,21,21,0,0,0-2.74-5.3c-1.48-2.3-4.37-5.77-2.47-8.62C4.63,83,6.61,81.86,8.09,80.18Z"/><path class="cls-1" d="M40.67,54.54c-1.09,3.92-1.63,8-2.9,11.85A96.86,96.86,0,0,0,34.45,80c-.84,4.82-1.45,9.67-2,14.52a20.3,20.3,0,0,0-.2,4c.1,1.18.64,2.4,2.08,1.3a4,4,0,0,0,1.6-2.23c.87-3.27.06-6.73-.34-10a27.74,27.74,0,0,1,1.32-10.88c2.42-8.37,6.76-16.29,7.32-25.12h0l-2.13-.25A11.22,11.22,0,0,1,40.67,54.54Z"/><path class="cls-1" d="M44.44,52.89A7.28,7.28,0,0,1,45,51.75l-.44,0C44.51,52.1,44.47,52.49,44.44,52.89Z"/><path class="cls-1" d="M61.87,92.56a74.75,74.75,0,0,0-2.94-7.19,34.06,34.06,0,0,1-1.83-6.86c-1.7-8.71-6.9-16.83-4.71-25.91l-1.52-.16c-2.14,6.87-.1,14.38,2.08,21,2.12,6.42,5,12.67,6.2,19.35.74,4.09,1.27,8.38,2.9,12.24s4.14,7.06,6.23,10.61c1.61,2.75,3.39,5.85,3.73,9.09a15.36,15.36,0,0,1-.2,5,20.68,20.68,0,0,0-.88,5.66c12.27-2.48-2.33-20.85-4.61-26.73C64.31,103.44,63.48,97.87,61.87,92.56Z"/><path class="cls-1" d="M23,69.27c3.55-6.68,12.89-8.59,16.85-14.74.26-.92.55-1.85.88-2.76a.42.42,0,0,1,.48-.26c0-.07,0-.13,0-.2L38.9,51c-3.21,2.4-6.65,4.5-9.91,6.83S21.86,63,19.62,66.62c-2.82,4.53-1.78,9.78-2.23,14.82-.21,2.37-1,4.69-1,7.08a28.27,28.27,0,0,0,1.08,6.58c1,4.31.9,8.37.9,12.78,0,3.79-.29,10.51,3.71,12.64,2.86,1.53,1.54-6.65,1.33-7.82-.78-4.44-2.09-8.77-2.86-13.22a60.35,60.35,0,0,1-.77-16.86C20.25,78.15,20.84,73.3,23,69.27Z"/><path class="cls-1" d="M92.94,81.36a38.66,38.66,0,0,0-3.85-2.08,14.18,14.18,0,0,1-3.43-3.22c-2.56-3.19-4.42-6.85-6.9-10.1a16,16,0,0,0-5.05-4.72c-1.3-.67-2.7-1.16-4-1.88a5.72,5.72,0,0,1-3.14-5.83l-1.69,0c-1.86,5.22,5.2,8.69,8.73,11.11a26.91,26.91,0,0,1,8.18,7.93c1.59,2.61,2.52,5.55,4.19,8.11.84,1.3,1.91,2.88,3.39,3.52S95.24,83.14,92.94,81.36Z"/><path class="cls-1" d="M76.44,87.61c-1-3-.88-6-1.42-9.1-1.08-6.15-4.89-11.44-9.51-15.5-2.94-2.6-6.27-5.5-5.49-9.75L56.85,53c.82,2.87.71,5.82,2.41,8.41,3.09,4.7,7.75,8.35,10.35,13.38A56,56,0,0,1,74.44,89a42.77,42.77,0,0,1,1.21,12.23,17,17,0,0,0,0,5c.56,2.4,2.65,1.69,4.28.59,5.29-3.56,2.14-9.32-.44-13.58A29.26,29.26,0,0,1,76.44,87.61Z"/><path class="cls-1" d="M28.85,49.26a.44.44,0,0,1,.36-.08,19.07,19.07,0,0,0,2,.29h.19c1.45.13,2.92.16,4.36.32,1.89.21,3.79.43,5.68.66,3.84.47,7.68.95,11.52,1.35s7.65.73,11.48.85a40.5,40.5,0,0,0,10-.47C80,51,84.7,47.54,85.78,41.71,87.06,34.83,84.3,28.76,80.71,23c-1.53-2.43-3.17-4.79-4.7-7.22-1.34-2.12-2.51-4.35-4-6.35-3-4-7.09-7.31-12.09-8.35C49.62-1,39.19,4.8,30.82,10.1,23,15,12.7,21.76,13.1,32.25,13.43,41.19,20.35,48,28.85,49.26ZM78,43a30.19,30.19,0,0,1-3,3.88c-.32.38-.9-.18-.55-.55a30.73,30.73,0,0,0,3-3.61C77.7,42.42,78.17,42.69,78,43Zm-1.1-2.5c.11-.15.32,0,.24.19-1.07,2.05-2.82,3.66-4,5.63-.29.48-1,0-.74-.43C73.7,44,75.43,42.34,76.88,40.5ZM74.72,40c-.86,1.16-1.84,2.24-2.65,3.44-.42.61-.74,1.26-1.13,1.88a.33.33,0,0,1-.13.5,1.55,1.55,0,0,1-.59.21.45.45,0,0,1-.38-.66A14.81,14.81,0,0,1,71.48,43c.9-1.15,1.89-2.2,2.81-3.33C74.49,39.43,74.91,39.75,74.72,40Zm-.62-2.82c-1.31,1.91-2.78,3.69-4.21,5.52a21.49,21.49,0,0,1-1.65,2,8.54,8.54,0,0,0-.72.76,1.25,1.25,0,0,1-.16.33.39.39,0,0,1-.25.69c-1.65.06-.08-1.65.36-2.06A68,68,0,0,0,73.89,37C74,36.9,74.19,37.05,74.1,37.18Zm-1.32-3.87c.07-.09.23,0,.16.1C70.24,38,66.46,42.06,63,46.15c-.34.42-.92-.18-.59-.59C65.83,41.41,69.6,37.65,72.78,33.31ZM70.5,31.62c.14-.15.35.07.22.22A150.18,150.18,0,0,1,57.91,46.41c-.4.38-1-.26-.59-.6C61.91,41.25,66.28,36.53,70.5,31.62Zm-3-1.94c-4.44,6-9.45,11.5-14.22,17.2-.32.38-.85-.17-.54-.54,4.72-5.72,9.91-11,14.55-16.83C67.36,29.39,67.57,29.55,67.48,29.68Zm-4.63.67c.19-.16.47.11.28.27a90.32,90.32,0,0,0-14.19,14.8c-.29.39-.94,0-.65-.38A86.49,86.49,0,0,1,62.85,30.35ZM55.2,34.07C50.88,38.19,46.59,42.42,42,46.22c-.32.27-.79-.19-.47-.47,4.54-3.92,9-7.9,13.52-11.86C55.14,33.79,55.32,34,55.2,34.07ZM37,44.09c4-3.78,8.33-7.17,12.54-10.71.31-.26.76.19.45.45-4.18,3.56-8.49,7-12.45,10.8C37.15,45,36.61,44.43,37,44.09Z"/><path class="cls-2" d="M78,43a30.9,30.9,0,0,1-3,3.88c-.33.38-.9-.18-.55-.55a30,30,0,0,0,3-3.62C77.69,42.42,78.17,42.68,78,43Z"/><path class="cls-2" d="M72.37,45.89c1.33-1.93,3.06-3.55,4.5-5.4.12-.14.33,0,.25.19-1.07,2.06-2.82,3.66-4,5.64C72.82,46.79,72.06,46.34,72.37,45.89Z"/><path class="cls-2" d="M74.29,39.66c.2-.24.62.08.43.33-.86,1.16-1.84,2.25-2.66,3.45-.41.6-.73,1.26-1.12,1.87a.33.33,0,0,1-.13.5,1.46,1.46,0,0,1-.59.22.45.45,0,0,1-.38-.66A14.89,14.89,0,0,1,71.48,43C72.37,41.84,73.37,40.78,74.29,39.66Z"/><path class="cls-2" d="M72.94,33.4C70.24,38,66.46,42.06,63,46.15c-.35.42-.93-.18-.59-.59,3.39-4.16,7.16-7.92,10.34-12.25C72.85,33.21,73,33.3,72.94,33.4Z"/><path class="cls-2" d="M67.26,29.51c.1-.12.31,0,.22.16C63,35.64,58,41.18,53.26,46.88c-.32.38-.86-.17-.55-.55C57.43,40.61,62.62,35.3,67.26,29.51Z"/><path class="cls-2" d="M67.11,46.51c-1.65.06-.09-1.65.36-2.06A69.09,69.09,0,0,0,73.89,37c.1-.12.29,0,.21.16-1.31,1.91-2.79,3.7-4.21,5.52a21.72,21.72,0,0,1-1.66,2,10.4,10.4,0,0,0-.72.76,1.15,1.15,0,0,1-.15.33A.39.39,0,0,1,67.11,46.51Z"/><path class="cls-2" d="M57.31,45.81c4.59-4.57,9-9.28,13.19-14.19.13-.16.34.07.22.22A150.22,150.22,0,0,1,57.91,46.4C57.51,46.79,56.9,46.14,57.31,45.81Z"/><path class="cls-2" d="M62.85,30.34c.19-.15.47.11.27.28a90.36,90.36,0,0,0-14.19,14.8c-.28.39-.94,0-.64-.38A86.91,86.91,0,0,1,62.85,30.34Z"/><path class="cls-2" d="M55.2,34.07C50.87,38.19,46.58,42.42,42,46.21c-.33.27-.8-.18-.47-.46,4.54-3.92,9-7.9,13.52-11.86C55.14,33.79,55.32,34,55.2,34.07Z"/><path class="cls-2" d="M50,33.83c-4.19,3.56-8.5,7-12.46,10.79-.35.34-.89-.2-.53-.53,4-3.79,8.33-7.18,12.54-10.71C49.82,33.12,50.27,33.56,50,33.83Z"/><path class="cls-1" d="M39.69,131.88c-1.19.32-1.8-.7-2.09-1.68-.84-2.83-.23-6.28.17-9.14.81-5.8,2.33-11.45,3.6-17.16,1.93-8.67,2.2-17.57,2.38-26.41.09-4.48,0-9,.08-13.45.07-2.11.53-4.17.64-6.27s0-4.17.91-6c.75.08,1.49.18,2.24.27v.1a.33.33,0,0,0-.35.36c.82,14.25,1.24,28.63-1.18,42.76-1.16,6.74-2.86,13.37-4.25,20.07-.84,4-.63,7.72-.67,11.82C41.15,128.48,41.31,131.45,39.69,131.88Z"/><path class="cls-2" d="M44.44,52.88A6.38,6.38,0,0,1,45,51.75l-.44-.06C44.5,52.09,44.47,52.49,44.44,52.88ZM13,72c2.12-4.37,3.14-10.29,6.85-13.71,3.95-3.65,9.67-5.32,14.51-7.71-1-.06-2-.12-3-.22C26.19,55,17.65,55.6,14.71,62.49c-1.77,4.16-2.28,8.83-5.12,12.5C7.2,78.08,3,80.21,1.36,83.86-1,89.26,4.91,93.7,6.11,98.6c.18.72,1.23,5.1,2.23,3.17a4,4,0,0,0,.24-3,21,21,0,0,0-2.74-5.3c-1.49-2.3-4.37-5.78-2.48-8.63,1.26-1.89,3.24-3,4.73-4.68A35.15,35.15,0,0,0,13,72Zm62,6.47C73.93,72.35,70.13,67.07,65.51,63c-2.94-2.59-6.28-5.5-5.49-9.74-1.06-.07-2.12-.15-3.17-.24.81,2.87.7,5.81,2.41,8.4C62.35,66.13,67,69.78,69.61,74.8A56.65,56.65,0,0,1,74.44,89a42.84,42.84,0,0,1,1.21,12.24,16.7,16.7,0,0,0,0,5c.56,2.4,2.64,1.69,4.28.59,5.29-3.56,2.13-9.33-.44-13.59a29.47,29.47,0,0,1-3-5.68C75.46,84.62,75.56,81.57,75,78.51ZM69.74,59.35a5.7,5.7,0,0,1-3.14-5.82l-1.69,0c-1.86,5.22,5.2,8.69,8.73,11.12a27,27,0,0,1,8.18,7.93c1.59,2.6,2.51,5.54,4.18,8.11.85,1.29,1.92,2.88,3.39,3.52s5.85-1,3.55-2.81a39.87,39.87,0,0,0-3.86-2.09,13.92,13.92,0,0,1-3.42-3.21C83.1,72.87,81.23,69.2,78.75,66a15.89,15.89,0,0,0-5-4.72C72.41,60.57,71,60.08,69.74,59.35ZM39.81,54.53c.27-.93.56-1.85.89-2.76a.39.39,0,0,1,.47-.26l.06-.2L38.89,51c-3.21,2.41-6.64,4.5-9.9,6.84S21.86,63,19.61,66.62c-2.82,4.52-1.77,9.77-2.22,14.81-.22,2.38-1.05,4.69-1,7.09a29.46,29.46,0,0,0,1.08,6.58c1,4.31.9,8.37.9,12.77,0,3.8-.28,10.52,3.72,12.65,2.86,1.53,1.53-6.65,1.33-7.83-.78-4.44-2.09-8.76-2.86-13.21a60.35,60.35,0,0,1-.77-16.86c.48-4.47,1.07-9.32,3.21-13.35C26.52,62.59,35.86,60.68,39.81,54.53Zm.86,0c-1.09,3.92-1.64,8-2.9,11.84A97,97,0,0,0,34.45,80c-.84,4.82-1.46,9.66-2,14.52a19.53,19.53,0,0,0-.21,4c.11,1.18.65,2.41,2.08,1.3a4,4,0,0,0,1.61-2.22c.86-3.28.06-6.74-.35-10a27.91,27.91,0,0,1,1.33-10.87c2.41-8.37,6.76-16.29,7.31-25.12l-2.13-.26A10.85,10.85,0,0,1,40.67,54.54Zm40-31.5c-1.53-2.43-3.17-4.79-4.7-7.22-1.34-2.13-2.51-4.36-4-6.35-3-4-7.09-7.31-12.1-8.36-10.26-2.14-20.68,3.68-29,9C23,15,12.7,21.76,13.09,32.25c.34,8.94,7.25,15.75,15.76,17a.43.43,0,0,1,.36-.07,16.92,16.92,0,0,0,2,.28l.18,0h0c1.45.13,2.92.16,4.35.32,1.9.21,3.79.43,5.69.66,3.84.46,7.67.95,11.52,1.35s7.64.73,11.48.85a40.5,40.5,0,0,0,10-.47C80,51,84.69,47.54,85.78,41.7,87.06,34.83,84.3,28.76,80.71,23ZM70.93,135.35c12.26-2.48-2.34-20.86-4.61-26.73-2-5.18-2.85-10.75-4.45-16.06a77.59,77.59,0,0,0-2.94-7.2,33.73,33.73,0,0,1-1.84-6.86c-1.7-8.7-6.89-16.82-4.71-25.9l-1.52-.17c-2.13,6.88-.09,14.39,2.09,21,2.12,6.41,5,12.67,6.2,19.35.74,4.09,1.27,8.38,2.89,12.24s4.15,7.06,6.23,10.61c1.62,2.75,3.39,5.85,3.74,9.08a15.41,15.41,0,0,1-.2,5A20.31,20.31,0,0,0,70.93,135.35Zm3.74-29.14c-.52-3,.38-6.22.11-9.3a64.94,64.94,0,0,0-3.42-15.77,36.3,36.3,0,0,0-3.28-7.27,58.56,58.56,0,0,0-5.58-6.81,37.66,37.66,0,0,1-5-6.88c-1.1-2.1-.91-4.84-1.57-7.09a.76.76,0,0,1,0-.15c-1-.09-2.08-.19-3.11-.3-1.18,5.42.18,10.55,2,15.69.84,2.4,1.74,4.79,2.39,7.25s.84,5.19,1.74,7.65,2.13,4.64,3,7a65.9,65.9,0,0,1,2.42,8.16c1,4.14,1.78,8.48,3.92,12.22,3.23,5.67,15.68,23.84,2.39,25.63a.44.44,0,0,1-.54-.41c-.45-4.19,2-8,.88-12.31-1-3.86-3.23-7.33-5.4-10.63s-4.29-6.73-5.36-10.65S58.8,94,57.68,90c-1.83-6.6-4.68-12.88-6.55-19.47C49.47,64.64,48.2,58.29,50,52.34l-2-.22-.42,0c-.75-.09-1.49-.19-2.24-.27-.93,1.8-.8,4-.91,6s-.57,4.16-.64,6.27c-.13,4.48,0,9-.08,13.45-.18,8.84-.45,17.74-2.38,26.41-1.27,5.71-2.79,11.36-3.6,17.16-.4,2.86-1,6.31-.17,9.14.29,1,.9,2,2.09,1.68,1.62-.43,1.46-3.4,1.47-4.7,0-4.1-.17-7.77.67-11.82,1.39-6.7,3.09-13.33,4.25-20.07,2.42-14.13,2-28.51,1.18-42.76a.33.33,0,0,1,.35-.36.38.38,0,0,1,.39.36C48.79,66,49.27,79.61,47.16,93c-1.08,6.8-2.73,13.46-4.19,20.17a35.46,35.46,0,0,0-1.28,7.43c0,1.88.12,3.75.13,5.63s.4,5.89-2.15,6.38c-1.58.3-2.5-1.08-2.8-2.44a24.59,24.59,0,0,1,.11-8.34c.45-3.42,1.11-6.81,1.86-10.17.56-2.5,1.18-5,1.76-7.48a96.57,96.57,0,0,0,2.18-17.69c.3-6.69.34-13.37.33-20.07,0-3.09.54-6.06.71-9.13-1.62,7.88-5.54,15.17-7,23.14a23.5,23.5,0,0,0-.45,7.24c.24,1.84.56,3.68.65,5.54.14,2.7.08,6.3-2.76,7.67-2.33,1.12-2.92-1.16-2.89-3.1a102.08,102.08,0,0,1,1.51-13.27,110.42,110.42,0,0,1,3.63-16.87c1.17-3.7,1.84-7.55,2.81-11.31A28.6,28.6,0,0,1,33.6,61C29,64,24.36,66.56,22.5,72.1c-4.18,12.46-2.16,25.37.89,37.81.4,1.62,3,13.09-1.33,11.36-2.91-1.18-3.88-5.15-4.19-7.9-.51-4.41.06-8.83-.25-13.24-.35-4.94-2.7-9.44-1.66-14.47a56.41,56.41,0,0,0,.88-10.06,19.36,19.36,0,0,1,1.06-7.09c1.72-4.05,5.3-7.07,8.77-9.63C30.44,56.09,34.49,53.7,38.3,51l-.9-.11c-.46,0-.91-.09-1.37-.12-6.23,3.32-15,5.11-18.25,12C15,68.51,13.49,75.25,9.14,80.16c-1.67,1.89-6.26,4.38-5.58,7.35.51,2.21,2.05,4.12,3.25,6,1.79,2.81,4.35,6.8,1.41,9.72a.42.42,0,0,1-.51.07c-2.5-1.65-2.34-5.05-3.72-7.51S.45,90.58.06,87.56c-.65-5.08,3.86-7.76,7-10.89A19.64,19.64,0,0,0,12,68.35c.81-2.55,1.37-5.33,2.8-7.62,3.57-5.72,11-6.5,16.07-10.38-.64-.07-1.28-.16-1.91-.29a.39.39,0,0,1-.32-.44A18.07,18.07,0,0,1,15.2,41.15a17.36,17.36,0,0,1-.34-17.84C18.7,16.93,26,12.32,32.18,8.56S45.73.72,53.27.08c9.38-.8,16.79,4.24,21.49,12.12,4.91,8.23,13.71,17.49,12.14,27.87-.63,4.12-2.24,7.92-5.83,10.3S72.9,53.54,68.5,53.55h-1c-.31,4.88,4.13,5.22,7.44,7.43,3.79,2.53,6,6.77,8.44,10.51a27.44,27.44,0,0,0,4.87,6.25,28.52,28.52,0,0,0,4.21,2.45c2.49,1.5,2.38,3.34-.24,4.73C86.45,88,82.91,75.42,80.8,72.36c-3-4.37-7.44-6.91-11.64-10-2.84-2.07-6.33-5.16-4.59-8.9-1.38,0-2.75-.11-4.12-.19-.56,4.12,2.7,6.77,5.54,9.23a32.78,32.78,0,0,1,6.6,7.59,22.54,22.54,0,0,1,3.23,8.18c.44,3,.32,6.25,1.47,9.08,1.68,4.12,4.91,7.55,6.1,11.87,1,3.83-.27,7.28-4,9C77.07,109.33,75.14,108.93,74.67,106.21Z"/></g></svg>