<svg xmlns="http://www.w3.org/2000/svg" viewBox="0 0 230.84 80"><defs><style>.cls-1{fill:#fff;}.cls-2{fill:#272525;}</style></defs><title>life</title><g id="color"><path class="cls-1" d="M60,66.57c1.11-.9,2.19-1.83,3.29-2.75-2.26,1.5-4.66,2.86-6.75,4.54l1.13.55A8.79,8.79,0,0,1,60,66.57Z"/><path class="cls-1" d="M71.28,57.07c-5.53,3.48-11.16,6.79-16.65,10.31.47.25.94.51,1.42.75,2.39-2.45,5.74-4.15,8.47-6.19C66.74,60.28,69,58.68,71.28,57.07Z"/><path class="cls-1" d="M77.57,53c-1,.69-2.08,1.36-3.12,2a.43.43,0,0,1,.12.11q1.62-1.17,3.27-2.31h-.12A.43.43,0,0,1,77.57,53Z"/><path class="cls-1" d="M54.14,67.12c6.55-5.19,14-9.43,21.13-13.74-7.67,4-14.54,9.63-22.55,13Z"/><path class="cls-1" d="M60,70l1.27.58a20.58,20.58,0,0,1,4.25-4.24c2.16-1.82,4.33-3.62,6.58-5.32C75.55,58.4,79,55.6,82.74,53.32l-1.07-.08C74.42,58.83,66.92,64,60,70Z"/><path class="cls-1" d="M74.24,62.78c-3.8,2.75-7.32,5.78-11,8.67l.68.29c2.07-1.55,3.85-3.46,6-5l6.94-4.9c4-2.84,8-5.74,12.26-8.21l-1.72-.06C83.14,56.82,78.57,59.65,74.24,62.78Z"/><path class="cls-1" d="M84,53.61a111.75,111.75,0,0,0-12.12,8.66c-3.4,2.62-7.36,5.25-10.22,8.5l1.09.47a63.08,63.08,0,0,1,4.95-4.71c1.92-1.54,3.9-3,5.88-4.47,4-3,8.16-5.71,12.26-8.53l-1.67-.1A.36.36,0,0,1,84,53.61Z"/><path class="cls-1" d="M64.8,77.51a24.33,24.33,0,0,0,15,.23A97.82,97.82,0,0,1,52.41,67.46C55.79,71.66,59.61,75.6,64.8,77.51Z"/><path class="cls-1" d="M79.06,53.12c-4.19,2.9-8.24,6-12.3,9-1.85,1.4-3.6,2.95-5.46,4.32A15.66,15.66,0,0,0,58,69.09q.73.36,1.47.69c6.24-6.33,13.68-11.4,20.82-16.68L79.18,53A.49.49,0,0,1,79.06,53.12Z"/><path class="cls-1" d="M85.16,57.32c.36-.26.71-.53,1.06-.81-3.26,2.12-6.43,4.4-9.64,6.61-2.54,1.75-5.15,3.41-7.65,5.21-1.57,1.13-3,2.45-4.58,3.56l.38.15c3.24-3.51,7.9-5.88,11.8-8.55C79.45,61.5,82.31,59.42,85.16,57.32Z"/><path class="cls-1" d="M108,64.18c2.53-2.47,4.87-5.11,7.28-7.68a59.2,59.2,0,0,1,5.14-5.25l-.4.07c-5.84,4.61-10.74,10.33-16.12,15.44-2.92,2.77-6.29,5.49-8.76,8.68a14,14,0,0,1-2.33,2.91c.58,0,1.16.06,1.73.08C98.28,73,103.31,68.75,108,64.18Z"/><path class="cls-1" d="M96,72c2.38-2.45,4.89-4.75,7.31-7.15s4.68-4.85,7-7.28c1.78-1.87,3.94-3.64,5.57-5.66l-1.52.2a.67.67,0,0,1-.06.12c-4.33,4.88-8.69,9.88-13.39,14.4C98.59,68.87,96.17,71,93.68,73a31.8,31.8,0,0,0-5.28,5c.64.07,1.28.14,1.92.19C91.84,75.88,94.12,74,96,72Z"/><path class="cls-1" d="M96.78,72.83c2.59-2.71,5.3-5.28,8-7.89,4.57-4.46,8.81-9.31,13.73-13.39l-1.49.23s0,.07-.06.11c-1.54,2.06-3.69,3.77-5.47,5.64-2.32,2.43-4.58,4.93-7,7.29s-4.94,4.65-7.33,7.05c-2,2-4.6,4-6.34,6.34l1.39.1c.92-.59,1.62-2,2.22-2.85A29.29,29.29,0,0,1,96.78,72.83Z"/><path class="cls-1" d="M122.58,50.89l-.37.06a.38.38,0,0,1-.15.22,32.53,32.53,0,0,0-5.18,4.93C118.75,54.32,120.72,52.65,122.58,50.89Z"/><path class="cls-1" d="M109.44,52.74a.45.45,0,0,1-.16.34q-3.78,3.59-7.76,7c2.86-2.38,5.68-4.8,8.32-7.38Z"/><path class="cls-1" d="M92.64,72.9c2.4-2,4.82-4,7.07-6.23,4.68-4.54,9.07-9.48,13.4-14.36l-1.67.2a.42.42,0,0,1-.11.29c-2.12,2.45-4.58,4.57-6.78,6.94-2,2.14-3.85,4.39-5.81,6.56a76.89,76.89,0,0,1-6.93,6.82c-1.89,1.61-4,2.95-5.93,4.54.69.1,1.38.18,2.08.26C89,75.84,90.88,74.37,92.64,72.9Z"/><path class="cls-1" d="M86.76,71c2.42-2,4.72-4.13,7.21-6,4.88-3.76,9.57-7.88,14.07-12.1l-.49,0a.4.4,0,0,1-.12.15c-9.29,8-19.26,15-28.17,23.39l1.47.3A32.87,32.87,0,0,1,86.76,71Z"/><path class="cls-1" d="M98.2,65.71c1.83-2.07,3.71-4.08,5.6-6.08-6.72,5.9-14,11.23-20.19,17.68.52.09,1,.17,1.58.24,2.08-2,4.65-3.62,6.81-5.57A78,78,0,0,0,98.2,65.71Z"/><path class="cls-1" d="M55.62,15.05C37.44,14.21,19.25,13.39,1.07,13,11.21,30.7,24.93,47.28,41.7,59.35,55.39,50.15,59.43,30.22,55.62,15.05ZM28,21.42c-1.06,2.14-4.25,1-4.41-1a2.09,2.09,0,0,1,1.67-2.87A2.61,2.61,0,0,1,28,21.42Z"/><path class="cls-1" d="M62,49.45h0c-6.09,3.84-12.49,7-18.31,11.3l.72.48c5.32-4.76,11.9-8.12,18.09-11.62Z"/><path class="cls-1" d="M64.75,50.26l-1.14-.33a.36.36,0,0,1-.11.1c-6.43,3.6-12.65,7.33-18.76,11.43l.77.52c2.57-2.52,6.24-4.11,9.3-5.88C58.13,54.17,61.47,52.26,64.75,50.26Z"/><path class="cls-1" d="M60,48.82c-4.61,2.77-9.51,5.06-13.78,8.41a.08.08,0,0,1-.08,0,28.32,28.32,0,0,1-3.42,2.84l.51.36c5.28-4.56,11.62-7.84,17.63-11.34Z"/><path class="cls-1" d="M66.58,50.73l-.71-.18c-3.52,2.14-7.13,4.19-10.73,6.19-3,1.68-6.64,3.2-9.32,5.45l.67.42a66.07,66.07,0,0,1,9.84-5.9C59.58,55.05,63.92,53.39,66.58,50.73Z"/><path class="cls-1" d="M48.4,54.82c1.1-.83,2.32-1.56,3.34-2.23,2.31-1.5,4.76-2.76,7.13-4.17L57.78,48c-2.53,1.56-5.14,3-7.68,4.57C49.56,53.37,49,54.1,48.4,54.82Z"/><path class="cls-1" d="M53.41,46.91l.43-.19a.29.29,0,1,1,.19.54,7.93,7.93,0,0,0-1,.37l-.31.58c.71-.42,1.41-.86,2.09-1.33l-1.18-.5C53.58,46.56,53.5,46.74,53.41,46.91Z"/><path class="cls-1" d="M109.72,63.77c-.37.37-.74.74-1.12,1.1-4.6,4.43-9.32,8.67-13.4,13.6q.9,0,1.8,0c2.84-5.39,7.88-9.25,11.85-13.75Z"/><path class="cls-1" d="M91.57,54c-2.7,1.23-5,3.41-7.43,5.16-2.12,1.56-4.25,3.1-6.42,4.58s-4.47,3.13-6.78,4.58a40.47,40.47,0,0,0-5.67,4l.18.07c4-3.35,9-5.52,13.41-8.18A178.24,178.24,0,0,0,93.7,53.7H91.79A.36.36,0,0,1,91.57,54Z"/><path class="cls-1" d="M67.61,51c-2.32,2.63-6.31,4.18-9.36,5.71A85.88,85.88,0,0,0,47,62.92l.84.54C55,59.25,62.52,55.34,70,51.52Z"/><path class="cls-1" d="M52.24,49.19c-.48.86-1,1.71-1.53,2.53,2-1.4,4.1-2.76,6.22-4l-1.53-.59a.32.32,0,0,1-.1.38A18.25,18.25,0,0,1,52.24,49.19Z"/><path class="cls-1" d="M60.37,58.27c3.89-2,7.49-4.66,11.5-6.37l-.54-.11c-7.71,3.92-15.27,8.15-23,12l1.19.71a20.78,20.78,0,0,1,4.58-2.87C56.16,60.48,58.25,59.35,60.37,58.27Z"/><path class="cls-1" d="M82.24,64.3c-2.49,1.57-4.86,3.33-7.39,4.83a29.49,29.49,0,0,0-6.23,4.35l.93.33.79.25c4.07-4,9-7.25,13.62-10.62S93,57,97.4,53.62h-.28C92.05,57.07,87.43,61,82.24,64.3Z"/><path class="cls-1" d="M80.85,64c-4.79,2.89-10.32,5.17-14.75,8.62q1,.38,2,.72a18.66,18.66,0,0,1,5.17-4.11c2.66-1.6,5.17-3.43,7.8-5.09a100.38,100.38,0,0,0,8.77-6c1.92-1.52,3.85-3,5.86-4.44h-.42A171.13,171.13,0,0,1,80.85,64Z"/><path class="cls-1" d="M99.46,53.79c-1.94,1.72-4.16,3.11-6.12,4.82-2.35,2-4.71,4-7.16,6C81.84,68,76.75,70.92,72.87,74.85c.57.16,1.13.33,1.7.48.63-1.46,2.13-2.39,3.4-3.25,2.8-1.89,5.36-4.11,8-6.24,5.06-4.11,10-8.38,15.16-12.4l-1.52.08A.39.39,0,0,1,99.46,53.79Z"/><path class="cls-1" d="M90.61,59.76C88.32,61.37,86,63,83.77,64.63c-4.3,3.19-8.89,6.11-13,9.58l1.52.47c3.63-4.28,8.9-7.3,13.27-10.76C87.3,62.56,89,61.17,90.61,59.76Z"/><path class="cls-1" d="M73.4,52.16l-.66-.11a.35.35,0,0,1-.2.45c-3.82,1.76-7.23,4.24-11,6.13s-8,3.72-11.59,6.14l1,.57c3.29-2.75,7.42-4.73,11.12-6.85S69.53,54.12,73.4,52.16Z"/><path class="cls-1" d="M75.17,52.45l-.61-.09a.39.39,0,0,1-.22.3c-4.07,2-8,4.29-11.94,6.52a119.21,119.21,0,0,0-11,6.44l.78.44c4-2.2,7.91-4.56,11.84-6.85C67.79,57,71.34,54.46,75.17,52.45Z"/><path class="cls-1" d="M102.41,53.5c-5,4.12-10.08,8.27-15.14,12.38-2.47,2-4.94,4-7.47,5.92-1.61,1.23-3.49,2-4.76,3.66l1.17.3c3.62-4.57,8.93-7.9,13.56-11.36,2.77-2.07,5.48-4.2,8.17-6.37,1.82-1.46,3.54-3.38,5.45-4.74l-.86.06A.29.29,0,0,1,102.41,53.5Z"/><path class="cls-1" d="M76.81,75.91c.74.18,1.48.36,2.23.52,3.5-4.62,8.16-8.35,12.72-11.87C96.59,60.83,101.33,57,106,53.08l-1.25.11a.36.36,0,0,1-.13.24c-4.64,4-9.29,8-14.25,11.62C85.81,68.39,80.56,71.64,76.81,75.91Z"/><path class="cls-1" d="M96.93,63.87c-.77.62-1.53,1.24-2.31,1.84A128.26,128.26,0,0,0,81.3,76.9l.79.14.42-.14a.44.44,0,0,1,.56.17A101.87,101.87,0,0,1,96.93,63.87Z"/><path class="cls-1" d="M172.54,33l-.84.46c-1.87,2.87-2.89,6.49-4.49,9.55s-3.1,5.92-4.82,8.77c1.08-.94,2.15-1.88,3.21-2.84,1.31-3.31,3-6.45,4.29-9.75A51.21,51.21,0,0,1,172.54,33Z"/><path class="cls-1" d="M174.41,31.93a.42.42,0,0,1-.07.13c-2,2.67-2.89,6-4.31,9-1.13,2.37-2.44,4.65-3.56,7,.9-.82,1.79-1.64,2.67-2.47,1.87-4.78,3.46-9.69,6.05-14.14Z"/><path class="cls-1" d="M149.69,54.36c2.57-4.73,5.4-9.34,8.26-13.89-.59.27-1.18.55-1.78.81a.4.4,0,0,1,0,.28,151,151,0,0,1-7.59,13.54c-2.51,4.25-5.22,8.38-8.05,12.44.86-.48,1.71-1,2.55-1.48l1-.64a23.23,23.23,0,0,1,1.84-3.94C147.15,59.1,148.41,56.72,149.69,54.36Z"/><path class="cls-1" d="M179.3,29.11c-1.88,4.11-4.15,8.06-5.78,12.29l2-1.94c1.54-3.64,3-7.29,4.69-10.87Z"/><path class="cls-1" d="M170,34.33l-.27.15a.41.41,0,0,1,0,.34c-1.37,3.25-3.7,6-5.34,9.17-1.74,3.32-3.27,6.75-4.86,10.15.74-.61,1.47-1.22,2.2-1.85,1.67-3.53,3.5-7,5.16-10.54C168,39.39,168.84,36.71,170,34.33Z"/><path class="cls-1" d="M176.85,30.55a.7.7,0,0,1-.07.22,126.91,126.91,0,0,0-6.62,13.88c.8-.76,1.6-1.52,2.39-2.3,1.25-4.34,3.32-8.27,5.22-12.33Z"/><path class="cls-1" d="M168.5,35.16l-.5.27a.47.47,0,0,1-.07.42A119.23,119.23,0,0,0,160.74,48c-1.84,3.5-3.94,6.83-6.11,10.13q2-1.51,3.9-3.09c1.51-3.55,3-7.13,4.65-10.6C164.74,41.2,167,38.35,168.5,35.16Z"/><path class="cls-1" d="M156.5,49.81c2.29-3.76,4.15-7.77,6.44-11.52a17.83,17.83,0,0,0-3.31,5.21c-1,2.08-2.29,4-3.52,6-1.5,2.42-3,4.86-4.48,7.27A72.23,72.23,0,0,0,147.8,63l1.4-1a31.58,31.58,0,0,1,3-5.19C153.69,54.55,155.06,52.16,156.5,49.81Z"/><path class="cls-1" d="M159.07,42.31a26.69,26.69,0,0,1,1.82-3.22l-1.44.7a.54.54,0,0,1-.06.32c-2.73,4.71-5.76,9.25-8.44,14-1.18,2.1-2.3,4.23-3.53,6.3-.86,1.43-2,3.05-2.84,4.68.85-.54,1.71-1.06,2.54-1.61,2.18-5.08,5.4-9.75,8.23-14.47C156.67,46.8,157.93,44.61,159.07,42.31Z"/><path class="cls-1" d="M166.41,36.27l-1.56.82a.47.47,0,0,1-.08.31c-2.71,4.18-4.85,8.71-7.45,13-1.27,2.09-2.52,4.2-3.91,6.22-1.1,1.6-2.33,3.14-3.29,4.84,1.11-.79,2.22-1.6,3.31-2.42,1.69-4,4.42-7.76,6.46-11.58S164,39.83,166.41,36.27Z"/><path class="cls-1" d="M182,27.53l-.41.24a.41.41,0,0,1,0,.34c-1.56,3.35-3.12,6.69-4.73,10,.93-.93,1.85-1.87,2.77-2.81.94-3,2.63-5.69,3.72-8.63C182.86,27,182.42,27.26,182,27.53Z"/><path class="cls-1" d="M184.71,25.79c-.89,3-2.72,5.64-4.1,8.45l2.63-2.71c.93-2.15,1.58-4.4,2.64-6.48Z"/><path class="cls-1" d="M228.59,5c-3.45-4.21-10-4.8-14.87-3.27-6.39,2-12.37,6.21-13.44,13.14,5.7,1.88,12.05,3.47,18,2.39C222.75,16.5,233.43,10.93,228.59,5Z"/><path class="cls-1" d="M117.84,56.84c2.06-2.16,4.41-4.08,6.45-6.25l-.37.07,0,0c-2.33,2.37-4.93,4.5-7.27,6.89s-4.47,4.77-6.64,7.24c-4.09,4.65-8.86,8.62-12.46,13.69h1.13c3.51-5,8.06-9.56,12.15-14.11C113.1,61.84,115.46,59.33,117.84,56.84Z"/><path class="cls-1" d="M213.91,20.44c-4.57-1.8-9.42-2.65-14-4.29a25.12,25.12,0,0,0,4.23,14.11c3.28,4.81,10.42,9.33,15.63,4.17C225.44,28.79,219.5,22.65,213.91,20.44Z"/><path class="cls-1" d="M190.59,22.05c-.83,1.43-1.63,2.89-2.43,4.34l1.77-1.85A26,26,0,0,1,191.65,21l-1,.76A.39.39,0,0,1,190.59,22.05Z"/><path class="cls-1" d="M187.55,23.92a.43.43,0,0,1-.07.37,44.78,44.78,0,0,0-3,5.95l2.05-2.15c.38-1,.91-1.88,1.37-2.81s.74-1.58,1.13-2.36Z"/><path class="cls-1" d="M193.43,19.58c-.45,1-1,2-1.55,2.94.54-.57,1.08-1.13,1.63-1.69.48-.94,1-1.83,1.6-2.72-.56.46-1.11.94-1.66,1.41C193.44,19.54,193.44,19.56,193.43,19.58Z"/><path class="cls-1" d="M56.12,15.07c3.18,7.71,2.33,17.27-.07,25A48.32,48.32,0,0,1,54,45.75c2,.73,4,1.4,6,2a.4.4,0,0,1,.57.17,102.85,102.85,0,0,0,32.85,4.48,211.88,211.88,0,0,0,36.31-4.13A131.82,131.82,0,0,0,165,35.6c6.09-3.21,12.17-6.49,18-10.18a74.78,74.78,0,0,0,8.8-6.18c1.11-.95,2.21-1.89,3.34-2.79l-1.12.08C148,19.53,102.07,17.21,56.12,15.07Z"/><path class="cls-1" d="M196.39,17.58c-.12.24-.27.46-.41.69l1.14-1.15a4.55,4.55,0,0,1,.23-.8c-.35.26-.69.51-1,.78A.43.43,0,0,1,196.39,17.58Z"/><path class="cls-1" d="M124.27,62.34c2.31-3.1,4.45-6.43,6.76-9.59-1,1.13-1.94,2.24-2.8,3.43-1.93,2.69-3.81,5.42-5.82,8-3.56,4.64-7.76,8.68-11.27,13.34.32,0,.64-.09,1-.15a54.51,54.51,0,0,1,5.43-6.53C119.94,68.17,122.1,65.25,124.27,62.34Z"/><path class="cls-1" d="M135.88,48.17l-.17,0a.83.83,0,0,1-.07.13c-4.22,5.08-7.74,10.76-11.74,16-3.5,4.58-7.43,8.66-11.24,13l1.5-.26a168.36,168.36,0,0,0,12.25-14.73C129.69,57.69,132.45,52.69,135.88,48.17Z"/><path class="cls-1" d="M127.42,55.65c1.65-2.29,3.78-4.35,5.3-6.72l-.13,0a.1.1,0,0,1,0,0c-2.22,1.89-3.87,4.47-5.78,6.66-2.35,2.71-4.81,5.33-7.13,8.06-2.14,2.52-4,5.2-6.11,7.75-1.74,2.14-3.55,4.23-5.17,6.46l2-.26c3.12-5.14,7.68-9.11,11.26-13.94C123.63,61.07,125.49,58.33,127.42,55.65Z"/><path class="cls-1" d="M133.91,48.87a7.82,7.82,0,0,1-.43.68c.28-.34.57-.66.85-1l-.35.09A.63.63,0,0,1,133.91,48.87Z"/><path class="cls-1" d="M126.68,54.36c1.4-1.66,2.69-3.49,4.23-5l-.79.17a.42.42,0,0,1-.12.26c-4.68,4.84-9,10-13.17,15.31-2,2.47-3.85,5-5.87,7.38-1.54,1.85-3.29,3.52-4.35,5.68L108,78a126.92,126.92,0,0,1,12.08-16.08C122.25,59.36,124.53,56.92,126.68,54.36Z"/><path class="cls-1" d="M113.69,63.62c2.4-2.87,4.7-5.81,7.12-8.65-.63.57-1.25,1.15-1.83,1.75-2.4,2.46-4.81,4.92-7.12,7.47-4.18,4.62-8.84,9.25-12.51,14.32l2-.05c1.76-2.2,3.3-4.57,5.14-6.7C108.88,69,111.36,66.39,113.69,63.62Z"/><path class="cls-1" d="M154.91,41.82c-.86.37-1.71.71-2.57,1.06a.38.38,0,0,1,.1.48c-1.81,4.27-4.53,8.32-6.9,12.3a118.78,118.78,0,0,0-7.29,13.1c.56-.29,1.11-.59,1.65-.89,2.53-4.49,5.35-8.8,7.89-13.28C150.17,50.38,152.86,46.21,154.91,41.82Z"/><path class="cls-1" d="M126.54,50.18l-.13,0c-4.8,4.73-8.82,10.17-13.2,15.28-3.7,4.33-7.54,8.47-11.07,12.94l1.49-.08c2.94-5.62,7.45-10.1,11.46-14.94C118.83,58.91,122.39,54.31,126.54,50.18Z"/><path class="cls-1" d="M128.88,61.18c2.08-2.79,3.83-5.81,5.89-8.61a54.72,54.72,0,0,1,3.61-5l-1.07.28C133.17,53,130.07,59,126.06,64.26a150.4,150.4,0,0,1-11,12.61c.62-.12,1.24-.24,1.86-.38a34.65,34.65,0,0,1,4.91-6.38C124.36,67.27,126.62,64.22,128.88,61.18Z"/><path class="cls-1" d="M116.79,63.86a182.37,182.37,0,0,1,12-14.1l-.63.12c-4.94,4.69-9,10.12-13.38,15.26-3.66,4.26-7.53,8.32-10.4,13.16l1.76-.14c.91-2.35,2.72-4.16,4.31-6.1C112.6,69.38,114.66,66.59,116.79,63.86Z"/><path class="cls-1" d="M148,47.46c-.82,1.12-1.67,2.22-2.43,3.33q-2.49,3.62-5,7.19c-3.24,4.59-6.08,9.51-9.34,14.07.87-.35,1.73-.73,2.59-1.11,2.7-5.1,6-9.8,9-14.72C144.54,53.35,146.19,50.35,148,47.46Z"/><path class="cls-1" d="M150.38,43.64a.49.49,0,0,1,0,.19l0,0,.18-.26Z"/><path class="cls-1" d="M130.08,62c1.82-2.56,3.62-5.14,5.42-7.71,1.65-2.37,3.68-4.73,5-7.35l-.27.08a.34.34,0,0,1-.13.17c-2.3,1.83-3.91,4.88-5.54,7.31-1.8,2.65-3.49,5.35-5.42,7.9s-3.9,5.36-6.13,7.77a54.21,54.21,0,0,0-5.21,6.14l.82-.19c1.34-2.29,3.45-4.21,5.18-6.18A90.78,90.78,0,0,0,130.08,62Z"/><path class="cls-1" d="M150.44,45.34c-2.61,3.94-4.82,8.2-7.37,12.17-2.83,4.41-5.92,8.63-8.62,13.12,1-.46,2-.95,3-1.45a84,84,0,0,1,6.39-12.49C146,53,148.5,49.23,150.44,45.34Z"/><path class="cls-1" d="M149,44.16c-.3.11-.6.23-.9.33a.46.46,0,0,1-.11.35c-3.81,4.74-6.82,10-10.31,15-3.13,4.46-6.43,8.78-9.38,13.36.83-.3,1.65-.62,2.47-1,2.14-5.24,5.73-10.19,9-14.78C142.78,53.08,146.19,48.73,149,44.16Z"/><path class="cls-1" d="M124.9,69.8c-1.82,2-4.12,3.88-5.63,6.15,1-.25,2-.52,3-.8a30.93,30.93,0,0,1,3.6-6.44C125.55,69.07,125.23,69.44,124.9,69.8Z"/><path class="cls-1" d="M146.47,45.06l-1.34.44c-3,5.22-6.49,10.23-9.88,15.19-3,4.45-6.73,8.64-9.39,13.34l1.54-.53c3-5.2,6.58-10,9.94-15C140.38,54,143.14,49.35,146.47,45.06Z"/><path class="cls-1" d="M143.66,46l-.81.26s0,0,0,.07A70.67,70.67,0,0,0,138,53.89a63.47,63.47,0,0,1-4.91,7.31c-3.6,4.4-7.66,8.52-10.07,13.72.79-.23,1.58-.48,2.36-.74,2.2-5,6.11-9.41,9.11-14S140.63,50.74,143.66,46Z"/><path class="cls-1" d="M130.52,62.8c.41-.51.83-1,1.25-1.52a66.34,66.34,0,0,0,5-7.26c-2,2.82-4,5.64-6,8.43Z"/></g><g id="stroke"><path class="cls-2" d="M213.51.8c-6.57,1.94-13.08,6.76-13.74,13.94l-.12,0a.59.59,0,0,0-.78.52h-.06c.29-.51-.21-1.28-.79-.9s-1,.7-1.53,1.07C133.15,20.05,69.75,13.59,6.41,12.48L.75,12.4l-.13-.23c-.21-.36-.78-.08-.58.29C10,31.1,24,47.87,41.14,60.26a.53.53,0,0,0,.61.44c2.45,1.74,5,3.39,7.53,5,.74.45,1.49.88,2.24,1.31A28.77,28.77,0,0,0,63.87,78.32c5.83,2.62,12.48,1.84,18.37-.11a90.89,90.89,0,0,0,36.67-.75c33.85-7.72,57.17-37.23,80.36-60.81a24.88,24.88,0,0,0,5.08,15.74c3.75,5,10.33,7.21,15.68,3.33s3.23-10.73-1.3-14.07a21.94,21.94,0,0,0-5.4-2.84,24.17,24.17,0,0,0,8.52-1.17c4.63-1.56,11.78-7.61,7.86-13C226.14-.26,218.85-.78,213.51.8ZM41.7,59.35C24.93,47.28,11.21,30.7,1.07,13c18.18.44,36.37,1.26,54.55,2.1C59.43,30.22,55.39,50.15,41.7,59.35ZM55.4,47.11l1.53.59c-2.12,1.26-4.19,2.62-6.22,4,.54-.82,1-1.67,1.53-2.53a18.25,18.25,0,0,0,3.06-1.7A.32.32,0,0,0,55.4,47.11Zm2.38.92,1.09.39c-2.37,1.41-4.82,2.67-7.13,4.17-1,.67-2.24,1.4-3.34,2.23.59-.72,1.16-1.45,1.7-2.22C52.64,51,55.25,49.59,57.78,48Zm-5,.18.31-.58a7.93,7.93,0,0,1,1-.37.29.29,0,1,0-.19-.54l-.43.19c.09-.17.17-.35.26-.53l1.18.5C54.17,47.35,53.47,47.79,52.76,48.21Zm-10,11.87a28.32,28.32,0,0,0,3.42-2.84.08.08,0,0,0,.08,0C50.5,53.88,55.4,51.59,60,48.82l.86.28c-6,3.5-12.35,6.78-17.63,11.34Zm1,.67C49.5,56.48,55.9,53.29,62,49.45h0l.5.16c-6.19,3.5-12.77,6.86-18.09,11.62Zm1.06.71C50.85,57.36,57.07,53.63,63.5,50a.36.36,0,0,0,.11-.1l1.14.33c-3.28,2-6.62,3.91-9.94,5.84-3.06,1.77-6.73,3.36-9.3,5.88Zm1.08.73c2.68-2.25,6.32-3.77,9.32-5.45,3.6-2,7.21-4.05,10.73-6.19l.71.18c-2.66,2.66-7,4.32-10.25,6a66.07,66.07,0,0,0-9.84,5.9Zm1.15.73A85.88,85.88,0,0,1,58.25,56.7c3-1.53,7-3.08,9.36-5.71l2.37.53C62.52,55.34,55,59.25,47.81,63.46Zm1.33.85c7.76-3.83,15.32-8.06,23-12l.54.11c-4,1.71-7.61,4.38-11.5,6.37-2.12,1.08-4.21,2.21-6.3,3.34a20.78,20.78,0,0,0-4.58,2.87Zm1.66,1c3.57-2.42,7.77-4.21,11.59-6.14s7.17-4.37,11-6.13a.35.35,0,0,0,.2-.45l.66.11c-3.87,2-7.6,4.18-11.35,6.33s-7.83,4.1-11.12,6.85Zm1.47.85a119.21,119.21,0,0,1,11-6.44c3.94-2.23,7.87-4.53,11.94-6.52a.39.39,0,0,0,.22-.3l.61.09c-3.83,2-7.38,4.57-11.12,6.76-3.93,2.29-7.86,4.65-11.84,6.85ZM97.94,58c-2.69,2.17-5.4,4.3-8.17,6.37-4.63,3.46-9.94,6.79-13.56,11.36L75,75.46c1.27-1.62,3.15-2.43,4.76-3.66,2.53-1.92,5-3.92,7.47-5.92,5.06-4.11,10.09-8.26,15.14-12.38a.29.29,0,0,0,.12-.15l.86-.06C101.48,54.65,99.76,56.57,97.94,58Zm6.66-4.6a.36.36,0,0,0,.13-.24l1.25-.11c-4.65,4-9.39,7.75-14.22,11.48C87.2,68.08,82.54,71.81,79,76.43c-.75-.16-1.49-.34-2.23-.52,3.75-4.27,9-7.52,13.54-10.86C95.31,61.38,100,57.46,104.6,53.43ZM86,65.84c-2.62,2.13-5.18,4.35-8,6.24-1.27.86-2.77,1.79-3.4,3.25-.57-.15-1.13-.32-1.7-.48,3.88-3.93,9-6.9,13.31-10.29,2.45-1.91,4.81-3.91,7.16-6,2-1.71,4.18-3.1,6.12-4.82a.39.39,0,0,0,.13-.27l1.52-.08C96,57.46,91,61.73,86,65.84ZM72.32,74.68l-1.52-.47c4.08-3.47,8.67-6.39,13-9.58C86,63,88.32,61.37,90.61,59.76c-1.65,1.41-3.31,2.8-5,4.16C81.22,67.38,76,70.4,72.32,74.68ZM84,63.44C79.33,66.81,74.41,70,70.34,74.06l-.79-.25-.93-.33a29.49,29.49,0,0,1,6.23-4.35c2.53-1.5,4.9-3.26,7.39-4.83,5.19-3.28,9.81-7.23,14.88-10.67h.28C93,57,88.45,60.18,84,63.44Zm5.86-5.33a100.38,100.38,0,0,1-8.77,6c-2.63,1.66-5.14,3.49-7.8,5.09a18.66,18.66,0,0,0-5.17,4.11q-1-.35-2-.72c4.43-3.45,10-5.73,14.75-8.62A171.13,171.13,0,0,0,95.26,53.68h.42C93.67,55.07,91.74,56.59,89.82,58.11Zm-11,6C74.42,66.8,69.42,69,65.45,72.32l-.18-.07a40.47,40.47,0,0,1,5.67-4c2.31-1.45,4.53-3,6.78-4.58s4.3-3,6.42-4.58c2.39-1.75,4.73-3.93,7.43-5.16a.36.36,0,0,0,.22-.28H93.7A178.24,178.24,0,0,1,78.86,64.14ZM64.73,72l-.38-.15c1.57-1.11,3-2.43,4.58-3.56,2.5-1.8,5.11-3.46,7.65-5.21,3.21-2.21,6.38-4.49,9.64-6.61-.35.28-.7.55-1.06.81-2.85,2.1-5.71,4.18-8.63,6.17C72.63,66.16,68,68.53,64.73,72ZM76.87,61.87l-6.94,4.9c-2.13,1.51-3.91,3.42-6,5l-.68-.29c3.65-2.89,7.17-5.92,11-8.67,4.33-3.13,8.9-6,13.17-9.18l1.72.06C84.87,56.13,80.88,59,76.87,61.87Zm-3.28.19c-2,1.46-4,2.93-5.88,4.47a63.08,63.08,0,0,0-4.95,4.71l-1.09-.47c2.86-3.25,6.82-5.88,10.22-8.5A111.75,111.75,0,0,1,84,53.61a.36.36,0,0,0,.17-.18l1.67.1C81.75,56.35,77.6,59.1,73.59,62.06Zm-1.52-1c-2.25,1.7-4.42,3.5-6.58,5.32a20.58,20.58,0,0,0-4.25,4.24L60,70c7-6,14.45-11.18,21.7-16.77l1.07.08C79,55.6,75.55,58.4,72.07,61Zm-12.6,8.75q-.73-.33-1.47-.69a15.66,15.66,0,0,1,3.3-2.62c1.86-1.37,3.61-2.92,5.46-4.32,4.06-3.06,8.11-6.13,12.3-9a.49.49,0,0,0,.12-.13l1.11.11C73.15,58.38,65.71,63.45,59.47,69.78Zm3.79-6c-1.1.92-2.18,1.85-3.29,2.75a8.79,8.79,0,0,0-2.33,2.34l-1.13-.55C58.6,66.68,61,65.32,63.26,63.82Zm-7.21,4.31c-.48-.24-.95-.5-1.42-.75,5.49-3.52,11.12-6.83,16.65-10.31-2.26,1.61-4.54,3.21-6.76,4.87C61.79,64,58.44,65.68,56.05,68.13Zm18.52-13a.43.43,0,0,0-.12-.11c1-.67,2.09-1.34,3.12-2a.43.43,0,0,0,.15-.18h.12Q76.19,54,74.57,55.13Zm-20.43,12-1.42-.77c8-3.34,14.88-9,22.55-13C68.09,57.69,60.69,61.93,54.14,67.12ZM64.8,77.51c-5.19-1.91-9-5.85-12.39-10.05A97.82,97.82,0,0,0,79.8,77.74,24.33,24.33,0,0,1,64.8,77.51Zm14.46-1c8.91-8.41,18.88-15.41,28.17-23.39a.4.4,0,0,0,.12-.15l.49,0C103.54,57.11,98.85,61.23,94,65c-2.49,1.91-4.79,4-7.21,6a32.87,32.87,0,0,0-6,5.75Zm30-23.4a.45.45,0,0,0,.16-.34l.4,0c-2.64,2.58-5.46,5-8.32,7.38Q105.5,56.68,109.28,53.08ZM82.51,76.9l-.42.14-.79-.14A128.26,128.26,0,0,1,94.62,65.71c.78-.6,1.54-1.22,2.31-1.84a101.87,101.87,0,0,0-13.86,13.2A.44.44,0,0,0,82.51,76.9Zm1.1.41c6.23-6.45,13.47-11.78,20.19-17.68-1.89,2-3.77,4-5.6,6.08A78,78,0,0,1,92,72c-2.16,2-4.73,3.55-6.81,5.57C84.66,77.48,84.13,77.4,83.61,77.31Zm2.27.35c1.9-1.59,4-2.93,5.93-4.54a76.89,76.89,0,0,0,6.93-6.82c2-2.17,3.82-4.42,5.81-6.56,2.2-2.37,4.66-4.49,6.78-6.94a.42.42,0,0,0,.11-.29l1.67-.2c-4.33,4.88-8.72,9.82-13.4,14.36-2.25,2.19-4.67,4.22-7.07,6.23-1.76,1.47-3.66,2.94-4.68,5C87.26,77.84,86.57,77.76,85.88,77.66ZM88.4,78a31.8,31.8,0,0,1,5.28-5c2.49-2,4.91-4.15,7.22-6.36,4.7-4.52,9.06-9.52,13.39-14.4a.67.67,0,0,0,.06-.12l1.52-.2c-1.63,2-3.79,3.79-5.57,5.66-2.31,2.43-4.59,4.92-7,7.28S98.38,69.58,96,72c-1.88,1.94-4.16,3.85-5.68,6.13C89.68,78.11,89,78,88.4,78Zm3.82.34-1.39-.1c1.74-2.32,4.34-4.32,6.34-6.34,2.39-2.4,4.91-4.67,7.33-7.05s4.65-4.86,7-7.29c1.78-1.87,3.93-3.58,5.47-5.64,0,0,0-.08.06-.11l1.49-.23c-4.92,4.08-9.16,8.93-13.73,13.39-2.68,2.61-5.39,5.18-8,7.89a29.29,29.29,0,0,0-2.34,2.63C93.84,76.26,93.14,77.72,92.22,78.31Zm.57,0a14,14,0,0,0,2.33-2.91c2.47-3.19,5.84-5.91,8.76-8.68,5.38-5.11,10.28-10.83,16.12-15.44l.4-.07a59.2,59.2,0,0,0-5.14,5.25c-2.41,2.57-4.75,5.21-7.28,7.68-4.67,4.57-9.7,8.86-13.46,14.25C94,78.41,93.37,78.39,92.79,78.35Zm29.27-27.18a.38.38,0,0,0,.15-.22l.37-.06c-1.86,1.76-3.83,3.43-5.7,5.21A32.53,32.53,0,0,1,122.06,51.17ZM95.2,78.47c4.08-4.93,8.8-9.17,13.4-13.6.38-.36.75-.73,1.12-1.1l-.87,1c-4,4.5-9,8.36-11.85,13.75Q96.1,78.5,95.2,78.47Zm2.32,0c3.6-5.07,8.37-9,12.46-13.69,2.17-2.47,4.33-4.9,6.64-7.24s4.94-4.52,7.27-6.89l0,0,.37-.07c-2,2.17-4.39,4.09-6.45,6.25-2.38,2.49-4.74,5-7,7.56-4.09,4.55-8.64,9.08-12.15,14.11Zm1.83,0c3.67-5.07,8.33-9.7,12.51-14.32,2.31-2.55,4.72-5,7.12-7.47.58-.6,1.2-1.18,1.83-1.75-2.42,2.84-4.72,5.78-7.12,8.65s-4.81,5.4-7.18,8.14c-1.84,2.13-3.38,4.5-5.14,6.7Zm2.79-.08c3.53-4.47,7.37-8.61,11.07-12.94,4.38-5.11,8.4-10.55,13.2-15.28l.13,0c-4.15,4.13-7.71,8.73-11.45,13.23-4,4.84-8.52,9.32-11.46,14.94Zm2.19-.13c2.87-4.84,6.74-8.9,10.4-13.16,4.42-5.14,8.44-10.57,13.38-15.26l.63-.12a182.37,182.37,0,0,0-12,14.1c-2.13,2.73-4.19,5.52-6.39,8.2-1.59,1.94-3.4,3.75-4.31,6.1Zm2.28-.19c1.06-2.16,2.81-3.83,4.35-5.68,2-2.41,3.92-4.91,5.87-7.38C121,59.77,125.32,54.58,130,49.74a.42.42,0,0,0,.12-.26l.79-.17c-1.54,1.56-2.83,3.39-4.23,5-2.15,2.56-4.43,5-6.6,7.53A126.92,126.92,0,0,0,108,78Zm1.75-.18c1.62-2.23,3.43-4.32,5.17-6.46,2.08-2.55,4-5.23,6.11-7.75,2.32-2.73,4.78-5.35,7.13-8.06,1.91-2.19,3.56-4.77,5.78-6.66a.1.1,0,0,0,0,0l.13,0c-1.52,2.37-3.65,4.43-5.3,6.72-1.93,2.68-3.79,5.42-5.77,8.08-3.58,4.83-8.14,8.8-11.26,13.94Zm2.78-.37c3.51-4.66,7.71-8.7,11.27-13.34,2-2.62,3.89-5.35,5.82-8,.86-1.19,1.84-2.3,2.8-3.43-2.31,3.16-4.45,6.49-6.76,9.59-2.17,2.91-4.33,5.83-6.74,8.54a54.51,54.51,0,0,0-5.43,6.53C111.78,77.47,111.46,77.51,111.14,77.56Zm1.52-.24c3.81-4.3,7.74-8.38,11.24-13,4-5.25,7.52-10.93,11.74-16a.83.83,0,0,0,.07-.13l.17,0c-3.43,4.52-6.19,9.52-9.47,14.16a168.36,168.36,0,0,1-12.25,14.73Zm20.82-27.77a7.82,7.82,0,0,0,.43-.68.63.63,0,0,0,.07-.22l.35-.09C134.05,48.89,133.76,49.21,133.48,49.55ZM115.1,76.87a150.4,150.4,0,0,0,11-12.61c4-5.31,7.11-11.24,11.25-16.44l1.07-.28a54.72,54.72,0,0,0-3.61,5c-2.06,2.8-3.81,5.82-5.89,8.61-2.26,3-4.52,6.09-7,8.93A34.65,34.65,0,0,0,117,76.49C116.34,76.63,115.72,76.75,115.1,76.87Zm3.49-.75-.82.19A54.21,54.21,0,0,1,123,70.17c2.23-2.41,4.14-5.14,6.13-7.77s3.62-5.25,5.42-7.9c1.63-2.43,3.24-5.48,5.54-7.31a.34.34,0,0,0,.13-.17l.27-.08c-1.29,2.62-3.32,5-5,7.35-1.8,2.57-3.6,5.15-5.42,7.71a90.78,90.78,0,0,1-6.31,7.94C122,71.91,119.93,73.83,118.59,76.12ZM136.77,54a66.34,66.34,0,0,1-5,7.26c-.42.51-.84,1-1.25,1.52l.25-.35C132.79,59.66,134.79,56.84,136.77,54ZM119.27,76c1.51-2.27,3.81-4.19,5.63-6.15.33-.36.65-.73,1-1.09a30.93,30.93,0,0,0-3.6,6.44C121.27,75.43,120.28,75.7,119.27,76Zm3.78-1c2.41-5.2,6.47-9.32,10.07-13.72A63.47,63.47,0,0,0,138,53.89a70.67,70.67,0,0,1,4.79-7.58s0,0,0-.07l.81-.26c-3,4.76-6,9.52-9.14,14.22s-6.91,9-9.11,14C124.63,74.44,123.84,74.69,123.05,74.92Zm2.81-.89c2.66-4.7,6.35-8.89,9.39-13.34,3.39-5,6.9-10,9.88-15.19l1.34-.44c-3.33,4.29-6.09,9-9.13,13.46-3.36,5-6.94,9.78-9.94,15Zm2.41-.85c2.95-4.58,6.25-8.9,9.38-13.36,3.49-5,6.5-10.24,10.31-15a.46.46,0,0,0,.11-.35c.3-.1.6-.22.9-.33-2.78,4.57-6.19,8.92-9.26,13.29-3.24,4.59-6.83,9.54-9,14.78C129.92,72.56,129.1,72.88,128.27,73.18Zm2.9-1.13c3.26-4.56,6.1-9.48,9.34-14.07q2.53-3.58,5-7.19c.76-1.11,1.61-2.21,2.43-3.33-1.78,2.89-3.43,5.89-5.18,8.76-3,4.92-6.33,9.62-9,14.72C132.9,71.32,132,71.7,131.17,72.05Zm3.28-1.42c2.7-4.49,5.79-8.71,8.62-13.12,2.55-4,4.76-8.23,7.37-12.17C148.5,49.23,146,53,143.83,56.69a84,84,0,0,0-6.39,12.49C136.45,69.68,135.46,70.17,134.45,70.63Zm15.86-26.77,0,0a.49.49,0,0,0,0-.19l.11,0Zm-12.06,24.9a118.78,118.78,0,0,1,7.29-13.1c2.37-4,5.09-8,6.9-12.3a.38.38,0,0,0-.1-.48c.86-.35,1.71-.69,2.57-1.06-2,4.39-4.74,8.56-7.12,12.77-2.54,4.48-5.36,8.79-7.89,13.28C139.36,68.17,138.81,68.47,138.25,68.76Zm4.81-2.7c-.84.51-1.69,1-2.55,1.48,2.83-4.06,5.54-8.19,8.05-12.44a151,151,0,0,0,7.59-13.54.4.4,0,0,0,0-.28c.6-.26,1.19-.54,1.78-.81-2.86,4.55-5.69,9.16-8.26,13.89-1.28,2.36-2.54,4.74-3.79,7.12a23.23,23.23,0,0,0-1.84,3.94Zm1.52-1c.81-1.63,2-3.25,2.84-4.68,1.23-2.07,2.35-4.2,3.53-6.3,2.68-4.75,5.71-9.29,8.44-14a.54.54,0,0,0,.06-.32l1.44-.7a26.69,26.69,0,0,0-1.82,3.22c-1.14,2.3-2.4,4.49-3.72,6.7-2.83,4.72-6,9.39-8.23,14.47C146.29,64,145.43,64.55,144.58,65.09ZM147.8,63a72.23,72.23,0,0,1,3.83-6.23c1.52-2.41,3-4.85,4.48-7.27,1.23-2,2.47-3.93,3.52-6a17.83,17.83,0,0,1,3.31-5.21c-2.29,3.75-4.15,7.76-6.44,11.52-1.44,2.35-2.81,4.74-4.33,7a31.58,31.58,0,0,0-3,5.19Zm2.32-1.6c1-1.7,2.19-3.24,3.29-4.84,1.39-2,2.64-4.13,3.91-6.22,2.6-4.24,4.74-8.77,7.45-13a.47.47,0,0,0,.08-.31l1.56-.82c-2.38,3.56-4.51,7.37-6.52,11.14S155.12,55,153.43,59C152.34,59.81,151.23,60.62,150.12,61.41Zm4.51-3.31c2.17-3.3,4.27-6.63,6.11-10.13a119.23,119.23,0,0,1,7.19-12.12.47.47,0,0,0,.07-.42l.5-.27c-1.55,3.19-3.76,6-5.32,9.25-1.69,3.47-3.14,7.05-4.65,10.6Q156.61,56.59,154.63,58.1Zm4.93-4c1.59-3.4,3.12-6.83,4.86-10.15,1.64-3.13,4-5.92,5.34-9.17a.41.41,0,0,0,0-.34l.27-.15c-1.2,2.38-2,5.06-3.12,7.42-1.66,3.54-3.49,7-5.16,10.54C161,52.92,160.3,53.53,159.56,54.14Zm2.83-2.39c1.72-2.85,3.27-5.82,4.82-8.77s2.62-6.68,4.49-9.55l.84-.46a51.21,51.21,0,0,0-2.65,6.19c-1.33,3.3-3,6.44-4.29,9.75C164.54,49.87,163.47,50.81,162.39,51.75Zm4.08-3.65c1.12-2.37,2.43-4.65,3.56-7,1.42-3,2.32-6.35,4.31-9a.42.42,0,0,0,.07-.13l.78-.44c-2.59,4.45-4.18,9.36-6.05,14.14C168.26,46.46,167.37,47.28,166.47,48.1Zm3.69-3.45a126.91,126.91,0,0,1,6.62-13.88.7.7,0,0,0,.07-.22l.92-.53c-1.9,4.06-4,8-5.22,12.33C171.76,43.13,171,43.89,170.16,44.65Zm3.36-3.25c1.63-4.23,3.9-8.18,5.78-12.29l.87-.52c-1.68,3.58-3.15,7.23-4.69,10.87Zm3.29-3.28c1.61-3.32,3.17-6.66,4.73-10a.41.41,0,0,0,0-.34l.41-.24c.45-.27.89-.57,1.33-.85-1.09,2.94-2.78,5.63-3.72,8.63C178.66,36.25,177.74,37.19,176.81,38.12Zm3.8-3.88c1.38-2.81,3.21-5.41,4.1-8.45l1.17-.74c-1.06,2.08-1.71,4.33-2.64,6.48Zm5.92-6.15-2.05,2.15a44.78,44.78,0,0,1,3-5.95.43.43,0,0,0,.07-.37l1.48-1c-.39.78-.74,1.58-1.13,2.36S186.91,27.13,186.53,28.09Zm3.4-3.55-1.77,1.85c.8-1.45,1.6-2.91,2.43-4.34a.39.39,0,0,0,.06-.27l1-.76A26,26,0,0,0,189.93,24.54Zm3.58-3.71c-.55.56-1.09,1.12-1.63,1.69.57-1,1.1-2,1.55-2.94,0,0,0,0,0-.06.55-.47,1.1-.95,1.66-1.41C194.55,19,194,19.89,193.51,20.83Zm-1.73-1.59a74.78,74.78,0,0,1-8.8,6.18c-5.82,3.69-11.9,7-18,10.18A131.82,131.82,0,0,1,129.7,48.29a211.88,211.88,0,0,1-36.31,4.13,102.85,102.85,0,0,1-32.85-4.48.4.4,0,0,0-.57-.17c-2-.62-4-1.29-6-2a48.32,48.32,0,0,0,2.1-5.63c2.4-7.78,3.25-17.34.07-25C102.07,17.21,148,19.53,194,16.53l1.12-.08C194,17.35,192.89,18.29,191.78,19.24Zm5.34-2.12L196,18.27c.14-.23.29-.45.41-.69a.43.43,0,0,0-.06-.48c.33-.27.67-.52,1-.78A4.55,4.55,0,0,0,197.12,17.12Zm16.79,3.32c5.59,2.21,11.53,8.35,5.83,14-5.21,5.16-12.35.64-15.63-4.17a25.12,25.12,0,0,1-4.23-14.11C204.49,17.79,209.34,18.64,213.91,20.44Zm4.41-3.14c-6,1.08-12.34-.51-18-2.39C201.35,8,207.33,3.77,213.72,1.77,218.61.24,225.14.83,228.59,5,233.43,10.93,222.75,16.5,218.32,17.3Z"/><path class="cls-2" d="M25.28,17.56a2.09,2.09,0,0,0-1.67,2.87c.16,2,3.35,3.13,4.41,1A2.61,2.61,0,0,0,25.28,17.56Z"/></g></svg>