<svg xmlns="http://www.w3.org/2000/svg" viewBox="0 0 258.49 70"><defs><style>.cls-1{fill:#fff;}.cls-2{fill:#272525;}</style></defs><title>life</title><g id="stroke"><path class="cls-1" d="M149.08,49l-.8.08a44.06,44.06,0,0,0-2.56,3.64c-1,1.3-2.08,2.53-3.17,3.75-2.43,2.72-4.81,5.43-7,8.36l1.89-.24a97,97,0,0,0,6.31-8.27C145.53,53.91,147.55,51.63,149.08,49Z"/><path class="cls-1" d="M141.5,64.1l1.35-.18a154.17,154.17,0,0,0,9.58-13.46C149,55.19,144.77,59.27,141.5,64.1Z"/><path class="cls-1" d="M158.23,48.32l-1.07.08a9.81,9.81,0,0,0-1.37,2.26c-.55,1-1.06,2-1.63,2.91-2.08,3.48-4.95,6.49-7.4,9.7-.15.19-.48,0-.34-.2,2.45-3.46,5.42-6.67,7.45-10.41.65-1.2,1.28-2.41,2-3.58.09-.16.2-.39.34-.62l-.45,0c-1.07,2.84-3.36,5.34-5.14,7.74-1,1.39-2.08,2.79-3.15,4.16a36.78,36.78,0,0,1-2.61,3.28l3.07-.4c1.67-2.63,3.51-5.15,5.37-7.65C154.94,53.41,157.36,51,158.23,48.32Z"/><path class="cls-1" d="M149.71,52.49c-.83,1.18-1.78,2.24-2.71,3.33-2.39,2.79-4.75,5.6-7,8.48l1.11-.15c3.27-5.47,7.84-10,11.49-15.22A20.11,20.11,0,0,0,149.71,52.49Z"/><path class="cls-1" d="M150.23,50.56a11.94,11.94,0,0,1,1.42-1.75L150,49c-1.73,3.09-4.21,5.78-6.3,8.63a59.45,59.45,0,0,1-5.59,7l1.32-.17a.2.2,0,0,1,0-.08c2.42-3.2,5-6.32,7.54-9.39C148.15,53.5,149.16,52,150.23,50.56Z"/><path class="cls-1" d="M150.08,55.92c1.69-2.38,3.7-4.7,4.91-7.38l-.71.06a.28.28,0,0,1,0,.19,82.45,82.45,0,0,1-11,15.08l1-.13A43.23,43.23,0,0,0,147,60.07C148.07,58.69,149.09,57.31,150.08,55.92Z"/><path class="cls-1" d="M167.88,47.87l-.81,0a36.53,36.53,0,0,1-5,6.76c-2.21,2.58-4.65,5-6.68,7.68l2-.24h0A42.24,42.24,0,0,1,163,54.72C164.7,52.72,167.1,50.51,167.88,47.87Z"/><path class="cls-1" d="M166.31,47.91l-.51,0c-.28.38-.66.72-.94,1.06-1.28,1.5-2.6,2.95-3.9,4.43-1.47,1.67-2.86,3.42-4.2,5.2-1,1.3-2,2.51-2.9,3.9l1.06-.13a84.17,84.17,0,0,1,5.93-7.26A45.47,45.47,0,0,0,166.31,47.91Z"/><path class="cls-1" d="M162.4,48.08l-1.37.08C157.12,53,153.47,58,149.84,63l2.14-.27a42.57,42.57,0,0,1,5.27-7.71C159.06,52.81,160.57,50.3,162.4,48.08Z"/><path class="cls-1" d="M159.67,53.87c1.38-1.67,2.84-3.25,4.23-4.9.25-.29.51-.65.78-1l-1.27.05c-1.94,2.2-3.44,4.77-5.35,7a52,52,0,0,0-5.94,7.7l.41-.05,1-.12a24,24,0,0,1,2.79-4.23C157.38,56.82,158.48,55.31,159.67,53.87Z"/><path class="cls-1" d="M159,48.27a.33.33,0,0,1,0,.22c-.81,2.45-2.87,4.54-4.43,6.54-2.09,2.7-4.23,5.36-6.15,8.18l1-.13A142,142,0,0,1,160,48.21Z"/><path class="cls-1" d="M145.84,51.44c.23-.34.45-.72.68-1.1-2.13,2.5-4.47,4.8-6.59,7.3a86,86,0,0,1-6.88,7.53l2.07-.26a63.34,63.34,0,0,1,6.6-8.38A52.67,52.67,0,0,0,145.84,51.44Z"/><path class="cls-1" d="M125.14,63c1.68-1.42,3.31-2.93,5-4.39s3.45-3.07,5.18-4.59a22.47,22.47,0,0,0,3.88-4l-1.48.16a.32.32,0,0,1,0,.09c-1.69,3.31-5.17,5.92-8,8.27-3,2.53-6.23,5-8.67,8.11h.15l.59-.07A14.61,14.61,0,0,1,125.14,63Z"/><path class="cls-1" d="M125.62,61.13a42.2,42.2,0,0,0-5.91,5.64l.92-.1A32.07,32.07,0,0,1,125.62,61.13Z"/><path class="cls-1" d="M128.64,58.49l.12-.11c2.73-2.34,6.22-4.94,8-8.14l-.7.07a15,15,0,0,1-3.15,3.9C131.53,55.67,130.11,57.11,128.64,58.49Z"/><path class="cls-1" d="M138.16,53.57a14.82,14.82,0,0,0,3.22-3.8l-1.24.12c-2.09,3.52-6,6.15-9.09,8.77-1.72,1.47-3.4,3-5.17,4.38a25.75,25.75,0,0,0-3.83,3.46l1.26-.15c3.41-2.91,6.95-5.67,10.32-8.61C135.18,56.39,136.67,55,138.16,53.57Z"/><path class="cls-1" d="M127,59q2.29-2.16,4.48-4.44c1.12-1.17,2.84-2.62,3.66-4.16l-1.66.17c-1.63,2.87-4.44,5.15-6.63,7.55-2.79,3-5.74,5.94-8.71,8.81l1-.12C121.2,63.79,124.42,61.49,127,59Z"/><path class="cls-1" d="M142.22,49.68a.44.44,0,0,1,0,.22,9.84,9.84,0,0,1-.5.9,8.8,8.8,0,0,0,1-1.17Z"/><path class="cls-1" d="M146.45,49.27l-1,.1v0s0,0,0,0c-.38,1.45-1.71,2.67-2.73,3.7a57.24,57.24,0,0,1-4.62,5.28c-1.45,1.45-3.05,2.78-4.45,4.28a19.6,19.6,0,0,1-2.9,2.79l1.74-.22a94.69,94.69,0,0,0,7-8.07C141.71,54.47,144.23,52,146.45,49.27Z"/><path class="cls-1" d="M133.58,62c1.29-1.29,2.6-2.56,3.87-3.88-3.14,2.66-6.45,5.11-9.6,7.74l2.08-.26a.19.19,0,0,1,.09-.11C131.47,64.54,132.39,63.15,133.58,62Z"/><path class="cls-1" d="M168.61,47.86c-.58,2.49-2.83,4.61-4.46,6.44A55.82,55.82,0,0,0,157.88,62l2.17-.26c3.06-4.64,6.28-9.17,9.16-13.92Z"/><path class="cls-1" d="M132.17,59.78c-2.75,2.2-5.57,4.31-8.32,6.51l1.06-.13a39.37,39.37,0,0,0,4.39-3.79C130.24,61.49,131.2,60.63,132.17,59.78Z"/><path class="cls-1" d="M195.18,49.75l-1.4-.26a39,39,0,0,1-5.17,5.72c-1.4,1.19-2.87,2.29-4.37,3.34l1.11-.16.22,0A107.58,107.58,0,0,0,195.18,49.75Z"/><path class="cls-1" d="M199.29,50.69C198,51.6,197,53,195.73,54c-1.42,1.13-2.87,2.23-4.22,3.45l2-.31c2.32-2,4.46-4.08,6.64-6.18Z"/><path class="cls-1" d="M200.81,51.13A71.34,71.34,0,0,1,194.06,57l1.54-.23c2-1.76,4-3.58,5.93-5.44Z"/><path class="cls-1" d="M116.21,67.14l1.36-.14a.19.19,0,0,1,.06-.18l2.85-3A27.27,27.27,0,0,1,116.21,67.14Z"/><path class="cls-1" d="M202.81,51.79l-.62-.21a52.39,52.39,0,0,1-5.93,5.11l1.84-.27A33.81,33.81,0,0,0,202.81,51.79Z"/><path class="cls-1" d="M193.56,53.26c1.09-1,2-2.21,3.15-3.2l-.67-.14c-2.78,3.22-6.31,5.7-9.66,8.3l2.17-.34C190.11,56.22,191.89,54.81,193.56,53.26Z"/><path class="cls-1" d="M198.4,50.45l-.81-.19c-1.63,1.21-2.9,2.9-4.47,4.18-1.33,1.09-2.68,2.16-3.93,3.34l1.71-.27c1.68-1.65,3.63-3,5.29-4.67A28.3,28.3,0,0,1,198.4,50.45Z"/><path class="cls-1" d="M203.38,52c-1.25,1.78-3.17,3-4.84,4.36l1.88-.27q1.91-1.86,3.74-3.79Z"/><path class="cls-1" d="M208,54.14c-.47.37-.92.77-1.36,1.17l.83-.09h0a7.53,7.53,0,0,0,.77-.94Z"/><path class="cls-1" d="M207.59,53.93l-.53-.29c-.43.38-.88.72-1.29,1.12-.24.25-.49.49-.75.73l1.11-.12C206.62,54.88,207.08,54.38,207.59,53.93Z"/><path class="cls-1" d="M170,47.83c-2.91,4.8-6.18,9.37-9.52,13.87l1.77-.21c2.84-4.48,5.59-9,8.07-13.66Z"/><path class="cls-1" d="M205.43,52.85l-.75-.32a39.51,39.51,0,0,1-3.82,3.5l1.71-.22A19.54,19.54,0,0,0,205.43,52.85Z"/><path class="cls-1" d="M206.57,53.39l-.63-.3a.34.34,0,0,1-.06.12,20.85,20.85,0,0,1-2.63,2.51l1.2-.15A13.68,13.68,0,0,1,206.57,53.39Z"/><path class="cls-1" d="M177.77,47.93a62,62,0,0,1-4.84,7.12c-.79,1.07-1.59,2.12-2.43,3.14a24.24,24.24,0,0,0-2,2.53l1.49-.19c2.94-4.27,6.53-8.06,9.15-12.55Z"/><path class="cls-1" d="M172.83,54.23c1.44-2.08,2.94-4.12,4.2-6.33l-1.11,0a0,0,0,0,1,0,0,34.86,34.86,0,0,1-4.43,7.1,71.68,71.68,0,0,1-4.76,5.95l1.42-.18a20.53,20.53,0,0,1,2-2.82C171.08,56.72,172,55.48,172.83,54.23Z"/><path class="cls-1" d="M175.14,47.85h-.89c-.92,2.37-2.79,4.32-4.15,6.45s-2.89,4.58-4.46,6.78l.54-.06c1.82-2.2,3.51-4.5,5.12-6.86A37.88,37.88,0,0,0,175.14,47.85Z"/><path class="cls-1" d="M171,47.83a.29.29,0,0,1,0,.09,111.88,111.88,0,0,1-8.29,13.51l.75-.09c2.77-4.49,5.76-8.83,8.2-13.52Z"/><path class="cls-1" d="M173.49,47.83h-1.05A118.23,118.23,0,0,1,164,61.28l1.14-.14c1.55-2.35,2.9-4.82,4.4-7.19C170.79,51.94,172.58,50,173.49,47.83Z"/><path class="cls-1" d="M181.14,48.09,179.81,48h0c-2.61,4.51-6.27,8.24-9.32,12.44l1.31-.17c1.54-2,3.24-3.82,4.87-5.74A25.81,25.81,0,0,0,181.14,48.09Z"/><path class="cls-1" d="M191.49,49.13l-.87-.12a74.14,74.14,0,0,1-10.83,10.2l1.12-.15A119.61,119.61,0,0,0,191.49,49.13Z"/><path class="cls-1" d="M189.72,48.89l-1.22-.15h-.06c-1.17,1.23-2.07,2.78-3.27,4-2.32,2.31-4.76,4.51-7.19,6.7a.18.18,0,0,1-.26-.26c2.47-2.47,5-4.84,7.44-7.38.85-.89,1.52-2.12,2.36-3.13l-.27,0c-3.73,3.66-7.22,7.57-11.09,11.11l3-.41A109.56,109.56,0,0,0,189.72,48.89Z"/><path class="cls-1" d="M181.81,53.44c1-1,1.9-2.1,2.82-3.18.49-.57,1-1.22,1.54-1.77l-1.35-.13c-.23.26-.54,1-.71,1.24q-.53.74-1.08,1.44c-.87,1.09-1.75,2.16-2.72,3.16-1.92,2-4,3.79-6,5.76l1.61-.21A63.45,63.45,0,0,1,181.81,53.44Z"/><path class="cls-1" d="M193.09,49.38l-.7-.11c-3.45,3.32-6.72,6.93-10.67,9.67l1.67-.26a65.2,65.2,0,0,0,5.29-4.22A46.27,46.27,0,0,0,193.09,49.38Z"/><path class="cls-1" d="M183.79,48.75c.08-.14.15-.3.23-.45l-2.18-.17c-1.83,4.7-6.26,8.3-9.51,12.1l1.59-.21s0,0,0,0c2.19-2.44,4.62-4.66,6.73-7.16A31.37,31.37,0,0,0,183.79,48.75Z"/><path class="cls-1" d="M122.32,59.55c2.41-2.48,5-5.26,6.46-8.47l-1.13.12c-1.12,2.92-3.72,5.29-5.81,7.53-2.71,2.9-5.53,5.71-8.18,8.68l.81-.09C117,64.62,119.75,62.19,122.32,59.55Z"/><path class="cls-1" d="M83.27,57.21a35.36,35.36,0,0,0,1.4-3.7h-.33c-.5,2.86-2.13,5.41-3.7,7.79a76.5,76.5,0,0,1-5.86,7.87l1.12,0c1.65-2.48,3.79-4.57,5.22-7.21A36.31,36.31,0,0,0,83.27,57.21Z"/><path class="cls-1" d="M87.73,62.37a31.44,31.44,0,0,0,5.12-8.8h-.93A26.57,26.57,0,0,1,87,62.26a58.4,58.4,0,0,1-6.84,7H81C83.62,67.6,85.85,64.7,87.73,62.37Z"/><path class="cls-1" d="M83.72,53.49h-.48a34.88,34.88,0,0,1-5.21,10,21.63,21.63,0,0,1-2.71,3.25,7.93,7.93,0,0,0-2.14,2.4l1.23,0c1.89-2.73,4-5.35,5.72-8.16C81.6,58.66,83.21,56.24,83.72,53.49Z"/><path class="cls-1" d="M79.65,53.38l-1.34,0A65.29,65.29,0,0,1,74,62.25c-.83,1.5-1.81,2.91-2.64,4.4A11.73,11.73,0,0,1,69.86,69l.56,0a51.79,51.79,0,0,0,5-7.82C76.75,58.59,78.7,56.15,79.65,53.38Z"/><path class="cls-1" d="M80.36,53.4c-.89,2.9-2.94,5.47-4.33,8.15A39.59,39.59,0,0,1,70.9,69l.64,0c3.76-4.55,8.13-9.78,9.59-15.65Z"/><path class="cls-1" d="M86.24,62.3a27.91,27.91,0,0,0,5-8.72h-.82c-.6,3-2.53,5.66-4.39,8-1.16,1.48-2.37,2.94-3.63,4.33-1,1.1-2.09,2.1-3,3.28h.2A71.15,71.15,0,0,0,86.24,62.3Z"/><path class="cls-1" d="M78.82,69.22H79c.12-.22.25-.43.38-.64C79.2,68.79,79,69,78.82,69.22Z"/><path class="cls-1" d="M85.35,53.53a30.78,30.78,0,0,1-1.43,3.86,32.22,32.22,0,0,1-2,4.41,54.57,54.57,0,0,1-5.6,7.39l1.39,0c3.1-4.82,7.71-9.8,8.58-15.66Z"/><path class="cls-1" d="M77.67,53.33h-.61c-1.16,3-3,5.52-4.49,8.34a54.64,54.64,0,0,1-4.12,7.27l1.1.06c1.44-2.23,2.71-4.7,3.93-7A86.72,86.72,0,0,0,77.67,53.33Z"/><path class="cls-1" d="M84.84,62.17c2-2.51,4.27-5.36,5-8.58l-1.19,0a45.58,45.58,0,0,1-4.11,8.53c-.39.62-.8,1.24-1.22,1.84C83.83,63.36,84.36,62.77,84.84,62.17Z"/><path class="cls-1" d="M84,61.81a47.73,47.73,0,0,0,4-8.24H86.91C86,59.43,81.55,64.68,78,69.21h.49c.89-1.24,2-2.3,2.92-3.54S83.21,63.15,84,61.81Z"/><path class="cls-1" d="M76.85,64.19a36.44,36.44,0,0,0,5.79-10.73h-.92a34.73,34.73,0,0,1-4,8.34,30.54,30.54,0,0,1-5.86,7.3l1.06,0a3,3,0,0,1,1-1.61A42,42,0,0,0,76.85,64.19Z"/><path class="cls-1" d="M58.92,65.4a45.37,45.37,0,0,0,3.19-4.35c1.57-2.33,3-4.76,4.38-7.17a7.1,7.1,0,0,0-.92.31v0c-2,3-3.85,6.12-6.09,8.9-1,1.27-2.09,2.52-3.22,3.7a5.7,5.7,0,0,1-1.21,1l1.29.14C57.17,67.09,58.13,66.33,58.92,65.4Z"/><path class="cls-1" d="M57.26,65.28a31.58,31.58,0,0,0,3.08-3.84q2.29-3.55,4.71-7a8.65,8.65,0,0,0-1.33.76s0,0,0,.08a52.34,52.34,0,0,1-5.12,7.68A21.79,21.79,0,0,1,54,67.7l.63.08A8.72,8.72,0,0,0,57.26,65.28Z"/><path class="cls-1" d="M63.76,61.2a83.64,83.64,0,0,0,4.35-7.65c-.28,0-.55.08-.83.14-1.74,2.94-3.41,5.9-5.43,8.67A41.84,41.84,0,0,1,56.64,68l1.63.17c.72-1,1.71-1.77,2.49-2.74A46.5,46.5,0,0,0,63.76,61.2Z"/><path class="cls-1" d="M76.44,53.32h-.7c-2.8,5.29-5.47,10.68-9,15.54l1.38.07c1.62-2.58,2.71-5.43,4.15-8.11S75.19,55.9,76.44,53.32Z"/><path class="cls-1" d="M58.89,61.79a64.66,64.66,0,0,0,3.86-5.88A21.29,21.29,0,0,0,59,60.56c-1.72,2.66-3.47,5.2-6.13,7l.86.1A30.84,30.84,0,0,0,58.89,61.79Z"/><path class="cls-1" d="M228.07,18c4.29.14,8.59.38,12.86.55.86,0,6.68.59,8.65.47l-.55-.54c-.35-.32-.7-.63-1.05-.92-4.64.1-9.28.18-13.93.27C232.07,17.84,230.07,17.92,228.07,18Z"/><path class="cls-1" d="M73.89,53.32h-.47a49,49,0,0,0-2.16,4.43,32.48,32.48,0,0,1-2.34,3.88,49.34,49.34,0,0,1-5.13,7l1,.07c3.81-4.69,6.46-10.13,9.36-15.41Z"/><path class="cls-1" d="M66,61.18a70.67,70.67,0,0,0,4.09-7.81c-.46,0-.92.06-1.37.1A51.93,51.93,0,0,1,63.88,62,40.1,40.1,0,0,1,61,65.73c-.76.88-1.63,1.64-2.4,2.5l1.06.09A31.5,31.5,0,0,0,66,61.18Z"/><path class="cls-1" d="M75.18,53.31h-.42c-1.42,2.89-3.05,5.77-4.66,8.56a46.81,46.81,0,0,1-4.8,6.88l1.1.08c1.64-2.72,3.36-5.38,4.83-8.19C72.52,58.17,73.8,55.72,75.18,53.31Z"/><path class="cls-1" d="M72.94,53.32H72a54.3,54.3,0,0,1-4.31,8.46,39.22,39.22,0,0,1-2.58,4.14c-.73.94-1.59,1.74-2.34,2.65l.7,0c2.18-2.32,3.6-5.12,5.42-7.71C70.54,58.54,71.47,55.81,72.94,53.32Z"/><path class="cls-1" d="M67.22,61.52a68.65,68.65,0,0,0,4.19-8.19l-.64,0a49.5,49.5,0,0,1-4.78,9,21.78,21.78,0,0,1-5.59,6l2,.17c.65-1,1.65-1.82,2.35-2.84C65.64,64.36,66.43,63,67.22,61.52Z"/><path class="cls-1" d="M113.4,52.56l-.91.07A19.14,19.14,0,0,1,110,56.22c-.39.51-.8,1-1.22,1.51C110.38,56.05,112.3,54.51,113.4,52.56Z"/><path class="cls-1" d="M121.11,51.86l-.72.07a73.46,73.46,0,0,1-5.35,7.3c-2.28,2.92-4.69,5.75-7,8.69l.67,0c1.47-2.93,3.79-5.22,6-7.62A73.83,73.83,0,0,0,121.11,51.86Z"/><path class="cls-1" d="M119.47,52l-1,.09a42.09,42.09,0,0,1-5.78,8.44c-2.07,2.57-4.25,5-6.42,7.52l1.26-.1a0,0,0,0,1,0,0c2.08-2.94,4.31-5.77,6.49-8.64C115.89,56.91,117.89,54.57,119.47,52Z"/><path class="cls-1" d="M117.77,52.18l-.6,0c-1.57,2.78-3.91,5-5.77,7.54-2,2.78-3.91,5.62-6,8.38l.5,0c2.12-2.67,4.28-5.3,6.37-8A45.31,45.31,0,0,0,117.77,52.18Z"/><path class="cls-1" d="M92.61,57.05c.54-1.19,1.23-2.31,1.79-3.49h-.85a31.09,31.09,0,0,1-5.36,9.26,51,51,0,0,1-4.3,4.65,12.14,12.14,0,0,1-2.1,1.74l1.46,0C85.34,66.51,88,64.42,90,61.58A27.52,27.52,0,0,0,92.61,57.05Z"/><path class="cls-1" d="M115,52.43l-.75.06c-1.17,2.62-4.06,4.35-5.74,6.62-2.22,3-4.56,6.1-6.5,9.3l1.28-.1c2.26-3.07,4.19-6.37,6.37-9.5C111.2,56.56,113.52,54.75,115,52.43Z"/><path class="cls-1" d="M126.84,51.29l-1.3.13c-1.48,2.89-4,5.47-6.13,7.9-2.38,2.78-5.33,5.26-7.45,8.25l1.18-.11c2.37-2.84,4.89-5.53,7.38-8.26C122.69,56.82,125.51,54.3,126.84,51.29Z"/><path class="cls-1" d="M207.83,55.18l1.6-.18-.9-.54A5.29,5.29,0,0,1,207.83,55.18Z"/><path class="cls-1" d="M123.88,59.44c1.15-1.4,2.23-2.85,3.35-4.28a15.42,15.42,0,0,0,2.9-4.22l-.54.06c-1.38,3.25-4,6.1-6.41,8.56-2.67,2.67-5.59,5.07-8.28,7.72l.4,0a.17.17,0,0,1,.06-.06A33.23,33.23,0,0,0,123.88,59.44Z"/><path class="cls-1" d="M118.55,59.38c2-2.48,4.57-5,6.14-7.88l-1,.1c-1.17,2.77-3.65,5.09-5.57,7.32-2.5,2.89-5.07,5.71-7.37,8.76l1.13-.1a17.13,17.13,0,0,1,3-3.88C116.13,62.29,117.35,60.84,118.55,59.38Z"/><path class="cls-1" d="M107.78,59c-.34.39-.66.8-1,1.2-1.28,1.64-2.58,3.33-4,4.85a33.45,33.45,0,0,0-3.12,3.51l1.92-.12a38.58,38.58,0,0,1,3-4.69C105.66,62.17,106.64,60.52,107.78,59Z"/><path class="cls-1" d="M122.86,51.69l-.79.08a66.08,66.08,0,0,1-6.14,8.15c-2.33,2.54-4.93,4.86-6.63,7.9l1-.1a79.19,79.19,0,0,1,6.56-8.39C118.85,57,121.57,54.51,122.86,51.69Z"/><path class="cls-1" d="M116.39,52.3l-.64.06c-1.58,2.69-4.19,4.7-6,7.28-2,2.91-3.91,5.86-6.08,8.64l1.39-.11c2-2.85,3.71-5.89,5.77-8.7C112.66,57.05,114.9,54.91,116.39,52.3Z"/><path class="cls-1" d="M124.31,59.79l2-2.21c2-2.22,4.57-4.33,6.2-6.89l-1.71.18a11.67,11.67,0,0,1-2.55,4c-1.25,1.49-2.38,3.06-3.64,4.55C124.53,59.54,124.42,59.66,124.31,59.79Z"/><path class="cls-1" d="M101.14,57.3a12.22,12.22,0,0,0,2-4l-1.33.07a23.58,23.58,0,0,1-5.16,8.76,87,87,0,0,1-7.37,7L91.49,69c2.16-2.4,4.51-4.61,6.51-7.16A54.5,54.5,0,0,0,101.14,57.3Z"/><path class="cls-1" d="M94.09,62.38a54.27,54.27,0,0,0,5.67-9l-.7,0c-1.09,3.2-3.47,6.14-5.6,8.69a41.65,41.65,0,0,1-7.26,7l.78,0A52.24,52.24,0,0,0,94.09,62.38Z"/><path class="cls-1" d="M92.7,62.17c2.1-2.55,4.6-5.52,5.76-8.71h-.08l-1.09,0a27.47,27.47,0,0,1-2.24,4,33.65,33.65,0,0,1-2.82,4,69.93,69.93,0,0,1-7.53,7.67h1A63.65,63.65,0,0,0,92.7,62.17Z"/><path class="cls-1" d="M94.49,57.17a31.8,31.8,0,0,0,2.08-3.66l-1.48,0c-.65,1.46-1.49,2.87-2.17,4.32a25,25,0,0,1-2.73,4.52,64.92,64.92,0,0,1-6.66,6.81h.82c2.25-2.64,4.83-5,7-7.65A33.52,33.52,0,0,0,94.49,57.17Z"/><path class="cls-1" d="M95.85,62.12c2.11-2.44,4.37-5.59,5.28-8.77l-.67,0c-3,6-7.12,12.25-13,15.74l1.24,0C91.07,66.73,93.67,64.63,95.85,62.12Z"/><path class="cls-1" d="M105.09,61.26c1.21-1.5,2.41-3,3.63-4.48a23.1,23.1,0,0,0,3-4.09l-1.68.13c-1,2.9-3.15,5.69-5,8.07a51.62,51.62,0,0,1-7.68,7.82l1.73-.11a21.31,21.31,0,0,1,2.54-3.16C102.87,64.1,104,62.66,105.09,61.26Z"/><path class="cls-1" d="M100.52,61.35A49.16,49.16,0,0,0,103.43,57a18.27,18.27,0,0,0,2-3.87l-1.72.1c-.53,2.92-2.83,5.75-4.56,8A48.32,48.32,0,0,1,91.76,69l.79,0A33.85,33.85,0,0,0,100.52,61.35Z"/><path class="cls-1" d="M104.23,61c1.8-2.4,4-5.21,5.07-8.09l-.74,0A20.67,20.67,0,0,1,106,57.35a43.06,43.06,0,0,1-2.9,4.08c-2.26,2.78-5,4.9-7.52,7.37L97,68.73A57.63,57.63,0,0,0,104.23,61Z"/><path class="cls-1" d="M101.93,61.94a47.16,47.16,0,0,0,3.53-4.9A23.7,23.7,0,0,0,107.87,53l-1.69.12a17.12,17.12,0,0,1-2.43,4.78,45,45,0,0,1-3,4.36,27.64,27.64,0,0,1-7.45,6.69l1.89-.1C97.25,66.37,99.88,64.44,101.93,61.94Z"/><path class="cls-1" d="M141.4,53.44l.51-.53c.88-1.12,1.74-2.28,2.59-3.45l-.86.08c-.67,1.46-2.3,2.72-3.38,3.78-1.67,1.66-3.4,3.28-5.18,4.83-1.93,1.67-3.91,3.29-5.82,5a35.07,35.07,0,0,1-3.63,2.94l1.75-.21c3.12-2.84,6.48-5.39,9.63-8.19Q139.31,55.66,141.4,53.44Z"/><path class="cls-1" d="M186.86,16.26c-3.9,3.41-6,8.23-8.6,12.6,1.33-1.4,2.76-2.73,4.06-4.15C184.29,22.55,187.18,19.47,186.86,16.26Z"/><path class="cls-1" d="M137.68,29.48c2.33-2.47,4.94-4.68,7.35-7,3.55-3.48,7.26-7.51,8-12.61-3.16,3.39-5.42,7.56-8.36,11.14C142.32,23.79,139.88,26.55,137.68,29.48Z"/><path class="cls-1" d="M123.59,20.9c-.78,1.26-1.57,2.52-2.41,3.74,1.28-1.36,2.56-2.73,3.86-4.08,3.75-3.89,8.61-8.23,9.53-13.84-1.83,2.14-3.78,4.17-5.55,6.35A73.81,73.81,0,0,0,123.59,20.9Z"/><path class="cls-1" d="M96.41,33.62c1.78-2,3.52-4,5.28-6,2.11-2.38,4.42-4.6,6.43-7a51.53,51.53,0,0,0,5.3-7.94c1.19-2.19,2.87-4.39,3.41-6.88C110.21,15.19,102.39,23.72,96.41,33.62Z"/><path class="cls-1" d="M214.15,34.75c7.54-.29,15.12-.39,22.67-.39,6.53,0,13.27-.39,19.71.91,0-.3,0-.61,0-.91a143.87,143.87,0,0,0-19.14-.48c-6.75.15-13.65.59-20.37-.16-.36,0-.38-.58,0-.57,7,.21,14,.25,21,.16a144.17,144.17,0,0,1,18.48.79A22,22,0,0,0,252,21.82c-5.74.26-11.52.15-17.25.2-6.22.05-12.47.27-18.69.12a.31.31,0,0,1,0-.61c6.44-.25,12.91-.11,19.35-.13,5.4,0,10.83-.2,16.23,0q-.42-.54-.87-1.05a.07.07,0,0,1-.08.08,30,30,0,0,0-7.46-.17c-2.73.12-5.47.13-8.2.19a125,125,0,0,1-16.76-.24c-.34,0-.36-.56,0-.55,6,.2,12,.37,18.1.29,2.65,0,5.29,0,7.93-.11a19.49,19.49,0,0,1,6.42.45c-.32-.37-.66-.73-1-1.08A60,60,0,0,1,242,19c-7.58-.21-15.19-.19-22.76-.53A.3.3,0,0,1,219,18l-.46,0a.29.29,0,0,1,0-.57c5.35-.37,10.81-.15,16.18-.18,4.27,0,8.55,0,12.83,0-.41-.33-.83-.65-1.25-.95-9.41.64-18.84.46-28.27.47a.31.31,0,0,1,0-.61c9.33-.13,18.69.5,28,0a26.74,26.74,0,0,0-18.94-4.3c-2.83.35-5.62.9-8.43,1.42,7-.22,14.09-.58,21.13-.24.1,0,.1.16,0,.15-7.07-.28-14.11.62-21.18.61a.26.26,0,0,1-.11-.49c-2.16.4-4.33.77-6.52,1-5.11.55-10-.1-15.1-.81-21.5-3.05-42.63-8.36-64.2-10.95A302.19,302.19,0,0,0,87.09.71c-15,.49-30.18,2-44.55,6.5-13.3,4.13-26.4,11.42-34.78,22.86C13,28,19.13,29.77,23.68,32.75c.36.24,0,.82-.34.58-4.08-2.67-9.71-4.5-14.53-2.89C3.56,32.2.62,38.12.73,43.46c.19,9.24,10.2,14,17.72,16.7A118.35,118.35,0,0,0,34,64.28c6.21,1.28,12.43,2.43,18.71,3.26a.13.13,0,0,1,0-.16c2.71-2.06,4.42-4.94,6.24-7.75,1.35-2.08,2.88-4.27,5.12-5.46a13,13,0,0,1,4.42-1.32.2.2,0,0,1,.26,0c.56-.07,1.13-.11,1.71-.14a.28.28,0,0,1,.32,0c1.27,0,2.54,0,3.76-.06h1a.41.41,0,0,0,.07-.11.23.23,0,0,1,.42.11h.71a.27.27,0,0,1,.41,0c2.25,0,4.49.1,6.74.17a.28.28,0,0,1,.4,0h.49c.14-.25.56-.25.62,0l1.08,0a.32.32,0,0,1,.41,0l1.45,0a.3.3,0,0,1,.21,0h0q3.09,0,6.17-.06a.26.26,0,0,1,.32,0l1.75,0s0,0,0,0a.33.33,0,0,1,.64,0l1.22,0a.28.28,0,0,1,.52,0l.92,0a1.67,1.67,0,0,0,.12-.23c.16-.31.58-.09.54.21l2.54-.13a.34.34,0,0,1,.31,0c2-.11,3.94-.23,5.91-.38v0a.35.35,0,0,1,.67,0l1.81-.14a.36.36,0,0,1,.62-.05l2.73-.23a2,2,0,0,1,.11-.2c.15-.31.56-.14.6.14l3.81-.35a2.61,2.61,0,0,0,.17-.28.37.37,0,0,1,.69.2l.85-.08.11-.16a.39.39,0,0,1,.68.08l.88-.09a.46.46,0,0,1,.23,0l1.56-.16h0a.32.32,0,0,1,.56,0l1.5-.16a.38.38,0,0,1,.53,0l1.44-.15a.38.38,0,0,1,.59-.06l.64-.07a.31.31,0,0,1,.44,0l2.17-.22c.09-.17.19-.33.27-.49.22-.46.89-.07.69.39l1.59-.17a.42.42,0,0,1,.57-.06c2.33-.25,4.67-.49,7-.72a.39.39,0,0,1,.69-.07l4.22-.4,0,0a.35.35,0,0,1,.45,0l1.1-.1a.32.32,0,0,1,.27,0l3.44-.29a.36.36,0,0,1,.44,0l1.75-.13a.33.33,0,0,1,.14,0c3.27-.25,6.54-.45,9.83-.58l.07-.07a.36.36,0,0,1,.52,0h.66v0c.12-.27.42-.19.55,0l.83,0a.32.32,0,0,1,.45,0l3.54,0v0a.32.32,0,0,1,.56,0c4.24,0,8.47.18,12.7.58l1.7.17.19-.12a.35.35,0,0,1,.49.2l.45.05a4.49,4.49,0,0,1,.66-.51c.34-.2.74.3.43.55l-.09.07,1.2.15.51-.55c.31-.33.79.16.5.5l-.15.17.94.13.14-.13a.38.38,0,0,1,.63.25l.68.11.12-.16c.21-.26.54,0,.52.27q1.62.28,3.24.66a1.84,1.84,0,0,1,.22-.17.35.35,0,0,1,.53.34l1.18.31a.29.29,0,0,1,.16,0l1.22.35a.32.32,0,0,1,.33.1c1.22.38,2.43.81,3.61,1.3a.25.25,0,0,1,.33.13,32,32,0,0,1,5.59,3.06c2.14-.2,4.28-.37,6.43-.49,8.43-.45,17.33.57,25.44-2.32a25.17,25.17,0,0,0,4.54-2.17c-3.95-.21-8,.34-11.91.51-4.67.22-9.42.56-14.1.37a.25.25,0,0,1,0-.49c4.91-.33,9.86-.2,14.78-.39,2.27-.09,4.55-.2,6.83-.31a20.6,20.6,0,0,1,4.71.12c.59-.36,1.15-.76,1.71-1.17q-6.62.57-13.24,1a91.28,91.28,0,0,1-12.59.29.24.24,0,0,1,0-.47c4.43-.09,8.83-.11,13.25-.38,4.19-.25,8.39-.62,12.59-.69a.11.11,0,0,1,.1.15,22.77,22.77,0,0,0,2.54-2.26c-9.87-.9-19.74.45-29.58,1-.33,0-.32-.49,0-.51,9.93-.65,19.87-1.85,29.82-.84,0,0,0,0,0,0A18.34,18.34,0,0,0,254.2,43a53.5,53.5,0,0,1-7.3,1.43c1.87,0,3.75,0,5.62,0a.14.14,0,0,1,0,.28c-10.82.08-21.56,1.39-32.36,1.68a.21.21,0,0,1,0-.42c4.5-.11,9-.46,13.49-.8-4.63.06-9.27.05-13.83.39-.3,0-.29-.43,0-.46,11.48-1.12,23,.28,34.36-2.32a.09.09,0,0,1,.11.06,15.94,15.94,0,0,0,1.65-3.78,42.73,42.73,0,0,0-8.3.46c-3,.38-6,.58-9.07.76a175.87,175.87,0,0,1-20.53.4.26.26,0,0,1,0-.52c7.08,0,14.12-.07,21.19-.45,3.21-.17,6.38-.46,9.57-.81a30.79,30.79,0,0,1,7.24-.17c.09-.33.15-.66.21-1a158.45,158.45,0,0,0-17.29.55c-6.16.5-12.36,1.26-18.55,1.3a.27.27,0,0,1,0-.54c6.2-.34,12.37-.82,18.55-1.27a111.56,111.56,0,0,1,17.34-.24c.06-.37.11-.73.14-1.1-12.51.54-25.2,1.79-37.72.77-.33,0-.34-.53,0-.52,12.6.27,25.14.08,37.74-.4,0-.15,0-.29.05-.44v0a61.15,61.15,0,0,0-9.57-.13c-3.25.08-6.51,0-9.77.07-6.43,0-12.87.11-19.3,0a.3.3,0,0,1,0-.59c6.88-.09,13.76,0,20.63,0,3.22,0,6.44.05,9.66,0a42.46,42.46,0,0,1,8.36.39V35.5c-6.87-1.17-14.08-.65-21-.59-7.11.06-14.23.29-21.34.43C213.77,35.35,213.77,34.77,214.15,34.75Zm26.68-19.27c-4.59-.13-9.15.14-13.72.34-.33,0-.33-.49,0-.51a130.84,130.84,0,0,1,13.72-.17C241,15.16,241,15.48,240.83,15.48Zm-24.14-1.11c8.29-.12,16.6,0,24.9,0a.08.08,0,0,1,0,.15c-8.29.22-16.61.47-24.9.35A.26.26,0,0,1,216.69,14.37ZM4.56,37.33a.23.23,0,0,1,.45,0v.17a.23.23,0,0,1-.45,0Zm-1.48,4.3c.15-.21.5,0,.36.21a.51.51,0,0,0,0,.32.22.22,0,0,1-.43,0A1,1,0,0,1,3.08,41.63Zm-.31,3A1.29,1.29,0,0,1,2.86,44c.12-.27.58-.16.46.13a1.38,1.38,0,0,0-.08.45A.24.24,0,0,1,2.77,44.62ZM3,47.41a4.09,4.09,0,0,1,0-1c.06-.29.49-.16.44.12a4.22,4.22,0,0,0,0,.87C3.52,47.72,3,47.72,3,47.41Zm1.46-7.68c.07-.2.09-.4.17-.6s.55-.15.44.13-.1.43-.19.64S4.4,40,4.48,39.73ZM5,45.41c.21-.11.34.24.12.29l0,0a.15.15,0,0,1-.29,0A.22.22,0,0,1,5,45.41Zm.24,3.45a2.8,2.8,0,0,1-.37-.65c-.13-.28.28-.52.42-.24a2.39,2.39,0,0,0,.3.54C5.77,48.74,5.41,49.1,5.2,48.86Zm.54-3.35c-.07.17-.34.21-.38,0a2.5,2.5,0,0,1,0-.72c0-.29.45-.29.44,0A2.51,2.51,0,0,1,5.74,45.51Zm.65,6.94a.22.22,0,0,1,0-.43A.22.22,0,0,1,6.39,52.45Zm.19-11.21a1.14,1.14,0,0,1-.2-.61c0-.2.33-.25.36,0a2.27,2.27,0,0,0,.17.5C7,41.3,6.69,41.4,6.58,41.24Zm.47,2.57a.15.15,0,0,1-.29,0l0-.08a.16.16,0,1,1,.32,0Zm.53,2.67a.26.26,0,0,1-.51,0v-.17a.26.26,0,0,1,.51,0Zm.08,2.29v-.26a.26.26,0,0,1,.52,0v.26A.26.26,0,0,1,7.66,48.77Zm.47,4a.41.41,0,0,1,0-.51c.17-.26.6,0,.42.25h0C8.73,52.8,8.31,53,8.13,52.79Zm3.45-15c.08.22.18.43.27.64s-.17.5-.37.28a2.25,2.25,0,0,1-.45-.76C10.9,37.57,11.47,37.41,11.58,37.76Zm.26,7.06a.54.54,0,0,0-.05.22.23.23,0,0,1-.46,0,1.09,1.09,0,0,1,.12-.46C11.57,44.31,12,44.55,11.84,44.82ZM9.31,41.11c.09.19.17.4.25.59s-.26.51-.4.24-.17-.4-.26-.59S9.18,40.83,9.31,41.11Zm0,3.64a.21.21,0,0,1,0,.41A.21.21,0,0,1,9.27,44.75Zm.39,8,0,.08a.2.2,0,0,1-.39,0l0-.08C9.12,52.36,9.77,52.36,9.66,52.72Zm0-3.81H9.64a.23.23,0,0,1-.23-.23.35.35,0,0,1,.12-.25.23.23,0,0,1,.38.25A.25.25,0,0,1,9.7,48.91Zm1.49,2.18-.25-.26a.28.28,0,0,1,.4-.4l.26.25C11.87,50.94,11.45,51.36,11.19,51.09Zm.91,3.07,0,.08a.19.19,0,0,1-.36,0l0-.08C11.62,53.83,12.18,53.83,12.1,54.16Zm.14-7a.27.27,0,0,1,0-.53A.27.27,0,0,1,12.24,47.17Zm3.89,2.61s0,.09,0,.13a.21.21,0,0,1-.06.16h0l0,0h-.25l-.06,0h0a.21.21,0,0,1-.06-.16s0-.08,0-.13A.25.25,0,0,1,16.13,49.78Zm-2.66-8.41-.05.33a.17.17,0,0,1-.33,0L13,41.37A.22.22,0,1,1,13.47,41.37Zm-.21,3.51a.26.26,0,0,1,0-.52A.26.26,0,0,1,13.26,44.88Zm.59,5a.18.18,0,0,1,0,.35A.18.18,0,0,1,13.85,49.86Zm.34,6a.52.52,0,0,0,0,.24c0,.26-.42.26-.41,0a1,1,0,0,1,.12-.44C14,55.38,14.29,55.58,14.19,55.81Zm.59-3a.11.11,0,0,1,0-.22A.11.11,0,0,1,14.78,52.77Zm.32-5.64a.28.28,0,0,1-.5-.22c0-.23.07-.45.08-.68a.27.27,0,1,1,.54,0A1.54,1.54,0,0,1,15.1,47.13ZM16,56.58a1,1,0,0,1-.39-.46.31.31,0,0,1,.51-.29h0l0,.07s0,0,.06.08l0,0s0,0,.05,0a.49.49,0,0,1,.11.18A.3.3,0,0,1,16,56.58ZM17,45.8a2.12,2.12,0,0,1,.06-.75.27.27,0,0,1,.52.15,4,4,0,0,0-.11.6A.24.24,0,0,1,17,45.8Zm.85,8a1.76,1.76,0,0,1-.32-.45c-.16-.28.28-.54.43-.25a1.71,1.71,0,0,1,.24.49A.21.21,0,0,1,17.85,53.83Zm.82-3.71a.26.26,0,0,1,.52,0v.26a.26.26,0,0,1-.52,0Zm.1,7.6c-.09-.2-.16-.4-.25-.59s.33-.62.49-.29.16.4.25.59S18.92,58.05,18.77,57.72Zm1.81-3.11v-.25a.21.21,0,0,1,.42,0v.25A.22.22,0,0,1,20.58,54.61Zm0-5.67,0-.12c-.21-.3.28-.57.49-.28a.71.71,0,0,1,.13.4C21.19,49.31,20.6,49.31,20.59,48.94Zm1.13,11.4a.25.25,0,0,1-.25.25c-.26,0-.32-.27-.34-.47s.47-.33.51,0a.2.2,0,0,1,.08.17Zm-.18-3.27a1.85,1.85,0,0,0-.16-.52c-.12-.33.41-.48.52-.15a2.55,2.55,0,0,1,.18.67C22.11,57.42,21.57,57.41,21.54,57.07Zm.53-5.49a8.46,8.46,0,0,1-.5.94c-.14.24-.52,0-.37-.22a8.48,8.48,0,0,0,.52-.93C21.84,51.14,22.18,51.35,22.07,51.58Zm1.13,8.91c-.12.23-.52.06-.43-.18a.55.55,0,0,0,.06-.28c0-.32.52-.31.5,0A1.22,1.22,0,0,1,23.2,60.49ZM74.7,40.8a37.15,37.15,0,0,0,.6-11.43c0-.28.4-.27.43,0,.35,3.84.63,7.84-.42,11.6A.32.32,0,0,1,74.7,40.8ZM72.42,26.12a77.38,77.38,0,0,1,.82,9.62,33.64,33.64,0,0,1-.65,8.79c-.09.32-.62.26-.6-.08.2-3.14.67-6.18.64-9.34,0-3-.25-6-.47-9C72.15,26,72.4,26,72.42,26.12Zm-2-4.71c.51,4.2,1.26,8.4,1.52,12.63.23,3.54.33,7.43-.86,10.83a.33.33,0,0,1-.64-.17,44.08,44.08,0,0,0,.79-11.91C71,29,70.46,25.2,70.09,21.41,70.07,21.19,70.4,21.2,70.43,21.41ZM67.54,16c.5,5.58,3.15,10.93,2.89,16.6-.1,2.21-.26,4.41-.51,6.61A17,17,0,0,1,69,44.11c-.17.38-.67.08-.62-.26.58-4.12,1.52-8.3,1.35-12.49C69.54,26.14,67.54,21.2,67.23,16,67.22,15.79,67.52,15.79,67.54,16Zm-3-2.93c3.66,9.56,4.12,19.61,2.89,29.69,0,.44-.74.46-.7,0a85.87,85.87,0,0,0,.5-14.95,58.75,58.75,0,0,0-3-14.65C64.1,12.94,64.42,12.86,64.5,13.06ZM59.21,51.9a.3.3,0,0,1,.59,0V52a.3.3,0,0,1-.59,0Zm-1.35,2.2v.12a.31.31,0,0,1-.61,0V54.1A.31.31,0,0,1,57.86,54.1Zm3.87-1.87c3.53-2.17,7.4-2.41,11.42-2.72.36,0,.35.52,0,.55-3.53.28-7.19.39-10.35,2.21C60,53.9,57,56.65,56.68,60.12c0,.16-.26.17-.25,0C56.45,56.77,59,53.91,61.73,52.23ZM34.41,20.81c4.16-4.46,10.5-4.93,16-3,.34.12.2.65-.15.54a26.15,26.15,0,0,0-3.23-.74,9.55,9.55,0,0,1,2.13,1c2.86,1.78,3.9,4.69,4.71,7.82a.28.28,0,0,1-.54.14c-.7-2.83-1.66-6-4.44-7.51a10.92,10.92,0,0,0-10.21-.26c4.69-1.8,12.8.4,13.17,6.05,0,.08-.13.09-.14,0-.86-5.56-10.52-8.28-14.49-4.64a6.44,6.44,0,0,0-1.11,1.34c1.94-2.12,5.35-2.9,8.07-2.66a7.73,7.73,0,0,1,7.1,5.74,6.87,6.87,0,0,1-.91,6.47,9.52,9.52,0,0,1-3.27,2.72,6.53,6.53,0,0,0,4.48-4.11.12.12,0,0,1,.23.06c-1.15,4.52-6.76,5.88-10.83,5.1a.26.26,0,0,1-.21-.2,7.43,7.43,0,0,1-3.47-1.89.18.18,0,0,1-.28,0c-2.45-2.74-3.47-8-1.46-11.39a7.41,7.41,0,0,0-1.85,5.52c.29,2.39,1.69,4.2,2.84,6.2a6,6,0,0,0,.47.38.3.3,0,0,1,.4,0c4.2,3.61,10.44,1.9,14.32-1.4.11-.09.27.06.16.17a14.28,14.28,0,0,1-7.11,3.67,8.85,8.85,0,0,0,6-2.08c.08-.07.2,0,.12.12-3.47,3.41-9.4,3-13.46.87a.3.3,0,0,1,0-.52c-.14-.12-.28-.23-.41-.36l-.1-.07c0,.09.09.17.13.26a.11.11,0,1,1-.19.11c-.13-.23-.28-.46-.43-.69a12.16,12.16,0,0,1-3.78-4.9A7.33,7.33,0,0,1,34.41,20.81ZM31,52a.2.2,0,0,1,0,.4A.2.2,0,0,1,31,52Zm-6.78,3.51a.26.26,0,0,1,0-.52A.26.26,0,0,1,24.18,55.55Zm.87,2a.34.34,0,0,1-.21.21h0a.31.31,0,0,1-.34-.14.92.92,0,0,1-.09-.37c0-.31.34-.36.5-.18a.27.27,0,0,1,.17.26A1.5,1.5,0,0,1,25.05,57.54Zm.7,1.5a2.15,2.15,0,0,0,.07-.62.23.23,0,0,1,.45,0,2.32,2.32,0,0,1-.1.74A.22.22,0,0,1,25.75,59Zm.94,3.17a.24.24,0,0,1-.45,0,.85.85,0,0,1,0-.23.26.26,0,0,1,.52,0A.59.59,0,0,1,26.69,62.21Zm.56-9.47a1.26,1.26,0,0,0-.1.33.27.27,0,0,1-.51,0,.83.83,0,0,1,0-.58A.31.31,0,1,1,27.25,52.74Zm.23,4.07c0-.28-.08-.56-.09-.84s.52-.34.53,0,.07.56.08.84A.26.26,0,0,1,27.48,56.81Zm1.44,4.54a.17.17,0,0,1-.33,0,3.52,3.52,0,0,1,0-.56c0-.27.42-.27.42,0A5.29,5.29,0,0,1,28.92,61.35ZM31,63.05a.11.11,0,0,0,0,.11c-.06.33-.53.22-.56-.08a.73.73,0,0,1,.09-.41C30.73,62.27,31.33,62.7,31,63.05Zm.19-4.31a.25.25,0,0,1-.48,0,.72.72,0,0,0-.08-.26c-.2-.3.27-.56.47-.28A.65.65,0,0,1,31.2,58.74Zm1.28.95a.25.25,0,0,1-.5,0A5,5,0,0,1,32,59a.27.27,0,0,1,.54,0C32.5,59.24,32.5,59.47,32.48,59.69Zm.6,2.71a.16.16,0,0,1,0-.33A.16.16,0,0,1,33.08,62.4Zm.08-6.19a.16.16,0,0,1,0-.32A.16.16,0,0,1,33.16,56.21Zm.7-2.84-.06.05a.27.27,0,1,1-.38-.38l0-.06C33.71,52.71,34.13,53.13,33.86,53.37Zm.45,7a1.11,1.11,0,0,1,.1-.67c.17-.38.72-.05.55.32a1.36,1.36,0,0,0-.07.35A.3.3,0,0,1,34.31,60.37ZM35,63a.18.18,0,0,1,0-.35A.18.18,0,0,1,35,63Zm1.83-.44a1.69,1.69,0,0,1-.17-.58c0-.16.23-.15.24,0a1.39,1.39,0,0,0,.17.44C37.18,62.58,36.93,62.72,36.85,62.56Zm.78-3.8a.32.32,0,0,1-.64,0v-.08a.32.32,0,0,1,.64,0Zm.68,5.59a.34.34,0,0,1-.44-.26c-.11-.39.49-.48.57-.15A.25.25,0,0,1,38.31,64.35Zm-.37-9a.23.23,0,0,1,.44-.12,1.73,1.73,0,0,1,.07.31.21.21,0,0,1-.39.11C38,55.54,38,55.46,37.94,55.35Zm1.23,7.37a.15.15,0,0,1,0-.29A.15.15,0,0,1,39.17,62.72Zm-.07-2.8a1.32,1.32,0,0,1-.13-.48.29.29,0,0,1,.58,0,.48.48,0,0,0,0,.2C39.73,60,39.25,60.25,39.1,59.92Zm2.12,4.68a.22.22,0,0,1-.27.2.23.23,0,0,1-.27-.2,2,2,0,0,1,0-.25.29.29,0,0,1,.57,0A1,1,0,0,1,41.22,64.6Zm.15-1.77a.25.25,0,0,1-.49,0V62.4a.26.26,0,0,1,.51,0Zm0-3.9a.27.27,0,0,1-.54,0l0-.42c0-.4.66-.4.62,0ZM42,57.51s0-.07,0-.11v0a.38.38,0,0,0,0-.14h0a.42.42,0,0,1,0-.16h0c.05-.34.51-.26.6,0a.62.62,0,0,1,0,.59C42.4,57.85,42.12,57.7,42,57.51Zm1,3.71a.32.32,0,0,1-.63,0,2.78,2.78,0,0,1,.09-.76c.12-.39.73-.23.61.16A2,2,0,0,0,43.05,61.22Zm.65,2.62c0,.37-.59.37-.58,0s.08-.62.1-.93.56-.36.55,0S43.7,63.53,43.7,63.84Zm1-4a1.32,1.32,0,0,1-.14-.56.3.3,0,0,1,.6,0,1.07,1.07,0,0,0,.06.35A.28.28,0,0,1,44.69,59.83Zm1.2,3.25a.28.28,0,0,1-.56,0v-.51a.29.29,0,0,1,.57,0C45.89,62.74,45.89,62.91,45.89,63.08ZM47,65.88a.26.26,0,0,1,0-.51A.26.26,0,0,1,47,65.88Zm.81-3.81a3.72,3.72,0,0,0-.08.67.31.31,0,0,1-.62,0,2.39,2.39,0,0,1,.09-.84A.32.32,0,0,1,47.78,62.07ZM48.05,60a.24.24,0,0,1-.47,0,1.13,1.13,0,0,1-.06-.32.3.3,0,0,1,.59,0A1.13,1.13,0,0,1,48.05,60Zm.21-8.22-.08-.08a.21.21,0,0,1,.29-.3l.09.09A.21.21,0,0,1,48.26,51.79Zm1,4.82-.06.12a.26.26,0,0,1-.51,0,.68.68,0,0,1,.11-.39C49,56.05,49.43,56.34,49.23,56.61Zm.93,1.77c.18.24-.21.52-.41.31a.8.8,0,0,1-.25-.52c0-.3.46-.37.52-.07A.82.82,0,0,0,50.16,58.38Zm0-8.73a.14.14,0,0,1,0,.27A.14.14,0,0,1,50.19,49.65Zm-.51,12.57a2.92,2.92,0,0,1,0-.66.27.27,0,0,1,.54,0,2.43,2.43,0,0,1,0,.66A.27.27,0,0,1,49.68,62.22Zm.25,2.35a.69.69,0,0,0-.1-.19c-.16-.23.22-.45.37-.22a.44.44,0,0,1,.08.41A.18.18,0,0,1,49.93,64.57Zm.7,1.86v0a.25.25,0,0,1-.21.23h-.13a.25.25,0,0,1-.21-.23v0l0-.13c0-.37.63-.37.59,0Zm.46-28.78c-4.8,3.11-10.87,1.33-15.47-1.28a.16.16,0,0,1,.16-.28c4.49,2.44,10.42,4.14,15,1.09C51.11,37,51.39,37.46,51.09,37.65Zm.92,25c-.13.25-.55.08-.45-.19a1,1,0,0,0,.06-.35.26.26,0,0,1,.52,0A1.13,1.13,0,0,1,52,62.61Zm-.09-4.53v-.67a.29.29,0,0,1,.58,0v.67A.3.3,0,0,1,51.92,58.08Zm-19.22-27c-.1-.16.15-.3.25-.15,4.28,7,13.23,7.68,19.87,3.78.36-.22.68.34.33.56C46.24,39.49,36.86,38.51,32.7,31.05ZM53,60a.21.21,0,0,1,0-.42A.21.21,0,0,1,53,60Zm.11-12.58v-.08a.14.14,0,0,1,.28,0v.08A.15.15,0,0,1,53.09,47.41ZM54,64.6a1.57,1.57,0,0,0-.15.43c-.07.34-.6.25-.6-.09a1.31,1.31,0,0,1,.2-.66C53.65,63.9,54.2,64.23,54,64.6Zm.46-4.94.08-.08a.28.28,0,0,1,.4.4l-.08.08A.28.28,0,0,1,54.48,59.66Zm.63,3.93a.27.27,0,0,1-.53,0v-.42a.27.27,0,0,1,.53,0Zm1-7.07a.24.24,0,0,1-.27.25.25.25,0,0,1-.27-.25v-.13a.27.27,0,0,1,.54,0Zm23.29-4.87c-4.78.53-10-1.13-14.6,1.2a17.71,17.71,0,0,0-8.14,9.49c-.1.26-.52.15-.42-.12,1.35-4,4.32-8.15,8.25-9.91,4.78-2.15,9.91-.84,14.91-1.25C79.8,51,79.79,51.61,79.42,51.65ZM103,52c-5.29.2-10.81.56-16-.4-.13,0-.1-.25,0-.23,5.36.47,10.66,0,16,.12A.26.26,0,0,1,103,52Zm8.9-.87c-2.07.11-4.13.24-6.19.48-.27,0-.26-.38,0-.42,2-.26,4.12-.46,6.19-.53C112.24,50.64,112.23,51.1,111.94,51.12ZM109.35,20c-2.06,2.7-4.55,5.05-6.8,7.59S98,32.78,95.69,35.36c-.27.3-.72-.15-.45-.45.07-.07.12-.14.19-.2a.17.17,0,0,1,0-.12c6-10.81,14.15-20.28,21.58-30.09.15-.2.56-.18.53.14-.31,2.76-1.87,5-3.19,7.4A65.46,65.46,0,0,1,109.35,20Zm8.52,30.24c-.8,0-1.59,0-2.38.08-.22,0-.22-.33,0-.35a14.59,14.59,0,0,1,2.38-.1A.19.19,0,0,1,117.87,50.22Zm9-30.64c-2.07,2.16-4,4.41-6.13,6.54-2.37,2.41-4.82,4.82-6.44,7.81a.26.26,0,0,1-.21.15l-.28.56c-.06.14-.31,0-.25-.11s.15-.38.23-.57a.3.3,0,0,1,0-.34,26,26,0,0,1,4-5.39l0,0a67.81,67.81,0,0,0,5.62-8.12,63.53,63.53,0,0,1,5.18-7.45c2-2.41,4.17-4.69,6.19-7.09a.31.31,0,0,1,.52.22C134.73,11.39,130.57,15.69,126.83,19.58Zm8.43,13.79c-.22.32-.76,0-.53-.32.43-.61.89-1.2,1.36-1.77,2.47-3.76,5.36-7.2,8.16-10.72,3.06-3.85,5.4-8.4,8.94-11.85a.31.31,0,0,1,.53.22C152.83,19.82,140.93,25.23,135.26,33.37ZM176,31.59c.26-.37.54-.72.83-1.07,3.19-5,5.12-11.52,10.13-15.06a.28.28,0,0,1,.42.17c.42,3.12-1.5,5.85-3.43,8.12-2.37,2.78-5.3,5.16-7.43,8.14C176.26,32.21,175.73,31.91,176,31.59Zm-20.39.28c.36-.4.71-.81,1.07-1.22,4.38-6.19,8-13,12.93-18.77a.3.3,0,0,1,.51.21c-.34,3.46-2.62,6.44-4.7,9.09-3,3.81-6.15,7.5-9.39,11.11C155.73,32.58,155.32,32.16,155.57,31.87Zm31.75,14.21c-11.12-.57-22.17,1.13-33.29.9a.08.08,0,0,1,0-.15c11.11,0,22.19-2,33.29-1.14C187.58,45.71,187.58,46.1,187.32,46.08Zm8,2c-2.15-.32-4.28-.79-6.42-1.16-.26,0-.15-.43.11-.39,2.15.3,4.31.66,6.45,1C195.78,47.64,195.63,48.14,195.3,48.09Zm3.92.94a7.87,7.87,0,0,1-1.27-.52c-.1,0,0-.2.07-.18a9.55,9.55,0,0,1,1.3.34C199.54,48.76,199.45,49.12,199.22,49Zm1.49.5a.45.45,0,0,1-.3-.12c-.18-.16.08-.42.26-.27l.12.08A.17.17,0,0,1,200.71,49.53Zm39.95,3.08c-3.51,0-6.94.3-10.43.63-3.25.3-6.68.59-9.89-.15-.28-.07-.22-.55.07-.51a49.23,49.23,0,0,0,10.44.09,47.34,47.34,0,0,1,9.81-.29C240.8,52.4,240.81,52.61,240.66,52.61Zm3.81-1.85c.16,0,.16.26,0,.25-8.16-.46-16.25,1.25-24.4,1.26a.28.28,0,0,1,0-.56C228.22,51.47,236.32,50.3,244.47,50.76Zm5.59-4.08c.19,0,.19.27,0,.29-10.3.74-20.76,1.43-31.09,1.32a.29.29,0,0,1,0-.57C229.33,47.42,239.7,46.79,250.06,46.68ZM218,42.42c11.93-.58,23.8-2.15,35.74-2.5a.13.13,0,1,1,0,.25c-11.95.39-23.79,2.44-35.74,2.76A.26.26,0,0,1,218,42.42Zm-.68,1.66c6.44-.33,12.88-.52,19.32-.93,3.41-.23,6.77-.55,10.15-1.09a47.3,47.3,0,0,1,8.05-.77.2.2,0,1,1,0,.39A63.22,63.22,0,0,0,245,42.85c-2.79.45-5.6.66-8.42.85-6.43.43-12.88.86-19.32.95A.29.29,0,0,1,217.28,44.08Zm38.71-12c.17,0,.17.26,0,.27a357.86,357.86,0,0,1-40-.09c-.39,0-.39-.62,0-.6l2.47.08c-.74,0-1.48-.06-2.22-.11a.27.27,0,0,1,0-.53c7.57-.09,15.16.27,22.73.29,3.36,0,6.76.17,10.11-.14,2.06-.19,4.79-.74,6.72.28h0c-2.68-.53-5.36,0-8,.25-3.35.26-6.77.12-10.13.12-5.26,0-10.56.09-15.84-.05C233.2,32.32,244.6,32.76,256,32.12Zm-.93-2.82c-12.53.34-25.08.08-37.61.1a.28.28,0,0,1,0-.56c12.52-.46,25.08.24,37.61.26A.1.1,0,0,1,255.06,29.3ZM219,27.61c5.88,0,11.77.07,17.65.08s11.51.23,17.2-.61c.23,0,.32.31.1.35-5.74.84-11.52.72-17.3.75s-11.8.38-17.65-.09C218.67,28.06,218.66,27.61,219,27.61ZM254,26.37c-5.93.55-11.94-.13-17.89,0s-12.07.37-18.11.45a.3.3,0,0,1,0-.59c6-.2,12.07-.37,18.11-.4s12,.82,17.89.3C254.22,26.09,254.21,26.36,254,26.37ZM213,25.16c-.32-.05-.24-.57.07-.56l.46,0a.32.32,0,0,1,.31-.25c12-.41,24-1.15,36-1.06a.14.14,0,0,1,0,.27c-10,.1-19.95.85-29.92,1.27,4.23.11,8.46.14,12.72,0,6.52-.23,13-.5,19.57-.21.2,0,.2.32,0,.31-6.75-.18-13.49.22-20.22.48C225.7,25.68,219.19,26.06,213,25.16Z"/><path class="cls-1" d="M169.35,13.13c-3.12,4.08-5.71,8.61-8.66,12.84,1.16-1.36,2.31-2.73,3.42-4.12C166.08,19.38,168.75,16.39,169.35,13.13Z"/><path class="cls-1" d="M43.21,19.76A12.5,12.5,0,0,1,45,19.9a7.08,7.08,0,0,1,1.46.13,5.32,5.32,0,0,0-.57-.16,12.23,12.23,0,0,0-4.94,0,.42.42,0,0,1,.09.14A11.2,11.2,0,0,1,43.21,19.76Z"/><path class="cls-1" d="M35.54,32.08c-1.38-2-2.73-4.14-2.31-6.76a9.37,9.37,0,0,1,2.54-5c-2.17,2.07-3.82,5.06-2.54,8.09A13.26,13.26,0,0,0,35.54,32.08Z"/><path class="cls-1" d="M36.24,29.25a9.13,9.13,0,0,0,9,4.43A8.28,8.28,0,0,0,50,29.89,7.42,7.42,0,0,0,50.17,24,6.27,6.27,0,0,0,46.59,21c-4.1-1.32-10.75,0-10.82,5.34A8.81,8.81,0,0,0,36.24,29.25Zm6.84-2.31c.1-.05.19-.12.29-.18a.19.19,0,0,1,.11-.07l.28-.17a.26.26,0,0,1,.39.23c0,.21,0,.52-.31.57a.37.37,0,0,1-.18,0,.65.65,0,0,1-.52.1A.27.27,0,0,1,43.08,26.94Z"/><path class="cls-2" d="M43.14,27.43a.65.65,0,0,0,.52-.1.37.37,0,0,0,.18,0c.26-.05.3-.36.31-.57a.26.26,0,0,0-.39-.23l-.28.17a.19.19,0,0,0-.11.07c-.1.06-.19.13-.29.18A.27.27,0,0,0,43.14,27.43Z"/><path class="cls-2" d="M36.5,33.52c.15.23.3.46.43.69a.11.11,0,1,0,.19-.11c0-.09-.09-.17-.13-.26l.1.07c.13.13.27.24.41.36a.3.3,0,0,0,0,.52c4.06,2.12,10,2.54,13.46-.87.08-.08,0-.19-.12-.12a8.85,8.85,0,0,1-6,2.08,14.28,14.28,0,0,0,7.11-3.67c.11-.11,0-.26-.16-.17-3.88,3.3-10.12,5-14.32,1.4a.3.3,0,0,0-.4,0,6,6,0,0,1-.47-.38c-1.15-2-2.55-3.81-2.84-6.2a7.41,7.41,0,0,1,1.85-5.52c-2,3.38-1,8.65,1.46,11.39a.18.18,0,0,0,.28,0,7.43,7.43,0,0,0,3.47,1.89.26.26,0,0,0,.21.2c4.07.78,9.68-.58,10.83-5.1a.12.12,0,0,0-.23-.06,6.53,6.53,0,0,1-4.48,4.11,9.52,9.52,0,0,0,3.27-2.72,6.87,6.87,0,0,0,.91-6.47,7.73,7.73,0,0,0-7.1-5.74c-2.72-.24-6.13.54-8.07,2.66a6.44,6.44,0,0,1,1.11-1.34c4-3.64,13.63-.92,14.49,4.64,0,.07.14.06.14,0-.37-5.65-8.48-7.85-13.17-6.05A10.92,10.92,0,0,1,48.92,19c2.78,1.49,3.74,4.68,4.44,7.51a.28.28,0,0,0,.54-.14c-.81-3.13-1.85-6-4.71-7.82a9.55,9.55,0,0,0-2.13-1,26.15,26.15,0,0,1,3.23.74c.35.11.49-.42.15-.54-5.53-1.91-11.87-1.44-16,3a7.33,7.33,0,0,0-1.69,7.81A12.16,12.16,0,0,0,36.5,33.52Zm9.42-13.65a5.32,5.32,0,0,1,.57.16A7.08,7.08,0,0,0,45,19.9a12.5,12.5,0,0,0-1.82-.14,11.2,11.2,0,0,0-2.14.23.42.42,0,0,0-.09-.14A12.23,12.23,0,0,1,45.92,19.87ZM46.59,21A6.27,6.27,0,0,1,50.17,24,7.42,7.42,0,0,1,50,29.89a8.28,8.28,0,0,1-4.74,3.79,9.13,9.13,0,0,1-9-4.43,8.81,8.81,0,0,1-.47-2.9C35.84,21,42.49,19.69,46.59,21Zm-10.82-.69a9.37,9.37,0,0,0-2.54,5c-.42,2.62.93,4.72,2.31,6.76a13.26,13.26,0,0,1-2.31-3.67C32,25.38,33.6,22.39,35.77,20.32Z"/><path class="cls-2" d="M79.42,51.06c-5,.41-10.13-.9-14.91,1.25-3.93,1.76-6.9,5.95-8.25,9.91-.1.27.32.38.42.12a17.71,17.71,0,0,1,8.14-9.49c4.55-2.33,9.82-.67,14.6-1.2C79.79,51.61,79.8,51,79.42,51.06Z"/><path class="cls-2" d="M56.68,60.12C57,56.65,60,53.9,62.8,52.27c3.16-1.82,6.82-1.93,10.35-2.21.35,0,.36-.57,0-.55-4,.31-7.89.55-11.42,2.72-2.73,1.68-5.28,4.54-5.3,7.89C56.42,60.29,56.67,60.28,56.68,60.12Z"/><path class="cls-2" d="M219,48.29c10.33.11,20.79-.58,31.09-1.32.19,0,.19-.3,0-.29-10.36.11-20.73.74-31.09,1A.29.29,0,0,0,219,48.29Z"/><path class="cls-2" d="M220.07,52.27c8.15,0,16.24-1.72,24.4-1.26.16,0,.16-.24,0-.25-8.15-.46-16.25.71-24.4,1A.28.28,0,0,0,220.07,52.27Z"/><path class="cls-2" d="M240.66,52.38a47.34,47.34,0,0,0-9.81.29,49.23,49.23,0,0,1-10.44-.09c-.29,0-.35.44-.07.51,3.21.74,6.64.45,9.89.15,3.49-.33,6.92-.64,10.43-.63C240.81,52.61,240.8,52.4,240.66,52.38Z"/><path class="cls-2" d="M217.28,44.65c6.44-.09,12.89-.52,19.32-.95,2.82-.19,5.63-.4,8.42-.85a63.22,63.22,0,0,1,9.78-1.17.2.2,0,0,0,0-.39,47.3,47.3,0,0,0-8.05.77c-3.38.54-6.74.86-10.15,1.09-6.44.41-12.88.6-19.32.93A.29.29,0,0,0,217.28,44.65Z"/><path class="cls-2" d="M218,42.93c11.95-.32,23.79-2.37,35.74-2.76a.13.13,0,1,0,0-.25c-11.94.35-23.81,1.92-35.74,2.5A.26.26,0,0,0,218,42.93Z"/><path class="cls-2" d="M236.62,28.18c5.78,0,11.56.09,17.3-.75.22,0,.13-.38-.1-.35-5.69.84-11.46.62-17.2.61s-11.77-.1-17.65-.08c-.31,0-.3.45,0,.48C224.82,28.56,230.76,28.21,236.62,28.18Z"/><path class="cls-2" d="M232,25.43c6.73-.26,13.47-.66,20.22-.48.2,0,.2-.3,0-.31-6.53-.29-13.05,0-19.57.21-4.26.14-8.49.11-12.72,0,10-.42,19.93-1.17,29.92-1.27a.14.14,0,0,0,0-.27c-12-.09-24,.65-36,1.06a.32.32,0,0,0-.31.25l-.46,0c-.31,0-.39.51-.07.56C219.19,26.06,225.7,25.68,232,25.43Z"/><path class="cls-2" d="M216.69,14.89c8.29.12,16.61-.13,24.9-.35a.07.07,0,0,0,0-.15c-8.3-.05-16.61-.14-24.9,0A.26.26,0,0,0,216.69,14.89Z"/><path class="cls-2" d="M240.83,15.14a130.84,130.84,0,0,0-13.72.17c-.33,0-.33.52,0,.51,4.57-.2,9.13-.47,13.72-.34C241,15.48,241,15.16,240.83,15.14Z"/><path class="cls-2" d="M236.15,25.8c-6,0-12.08.2-18.11.4a.3.3,0,0,0,0,.59c6-.08,12.07-.36,18.11-.45s12,.58,17.89,0c.17,0,.18-.28,0-.27C248.13,26.62,242.09,25.78,236.15,25.8Z"/><path class="cls-2" d="M217.45,28.84a.28.28,0,0,0,0,.56c12.53,0,25.08.24,37.61-.1a.1.1,0,0,0,0-.2C242.53,29.08,230,28.38,217.45,28.84Z"/><path class="cls-2" d="M256,32.39c.17,0,.17-.28,0-.27-11.39.64-22.79.2-34.18-.22,5.28.14,10.58.06,15.84.05,3.36,0,6.78.14,10.13-.12,2.68-.21,5.36-.78,8-.25h0c-1.93-1-4.66-.47-6.72-.28-3.35.31-6.75.15-10.11.14-7.57,0-15.16-.38-22.73-.29a.27.27,0,0,0,0,.53c.74,0,1.48.08,2.22.11L216,31.7c-.39,0-.39.58,0,.6A357.86,357.86,0,0,0,256,32.39Z"/><path class="cls-2" d="M258.4,34.33l-1.16-.14a22.57,22.57,0,0,0-4.4-12.41l1.29-.07a.14.14,0,0,0,0-.27l-1.57-.06c-.21-.28-.42-.56-.64-.83a26.61,26.61,0,0,0-2.87-3l1.18,0a.15.15,0,0,0,0-.29H248.7c-.41-.36-.82-.7-1.25-1h.15c.12,0,.12-.2,0-.19l-.38,0a26.4,26.4,0,0,0-11.74-5c-9.9-1.54-19.68,3.12-29.59,2.79-5.48-.19-11.06-1.32-16.47-2.19S178.83,9.79,173.55,8.8c-10.58-2-21.14-4.07-31.79-5.69A298.71,298.71,0,0,0,93.67,0C78.89.16,64,1.32,49.62,4.8,36.38,8,23.2,13.45,13.33,23.09a54.88,54.88,0,0,0-6,7.17h0C2.3,32.51-.21,38.82,0,44.05c.47,10.58,13.4,15.43,21.85,18,4.79,1.46,9.69,2.5,14.59,3.49a222.07,222.07,0,0,0,27.88,3.9q1.67.12,3.33.21c0,.09.1.19.17.1l.06-.08c19.66,1.07,39.34-.64,58.86-3,18.7-2.24,37.43-4.45,56.06-7.23a.13.13,0,0,0,.12,0h0l7.11-1.08.22,0a.14.14,0,0,0,.22,0,.6.6,0,0,0,.08-.08c6.56-1,13.16-2,19.79-2.67a2.4,2.4,0,0,0,.26.18.36.36,0,0,0,.57-.25c3.4-.31,6.82-.52,10.24-.57,8.13-.13,16.67.18,24.19-3.41,5.11-2.44,9.51-6.9,11-12.4h.1a.15.15,0,0,0,0-.29h-.07c.1-.36.17-.71.24-1.07l.55,0a.07.07,0,0,0,0-.14l-.52,0c0-.22.08-.44.11-.67a17.83,17.83,0,0,0,.14-2.52l1.09.13C258.49,34.6,258.56,34.35,258.4,34.33ZM249,18.46l.55.54c-2,.12-7.79-.43-8.65-.47-4.27-.17-8.57-.41-12.86-.55,2-.06,4-.14,6-.17,4.65-.09,9.29-.17,13.93-.27C248.33,17.83,248.68,18.14,249,18.46ZM52.87,67.57c2.66-1.81,4.41-4.35,6.13-7a21.29,21.29,0,0,1,3.75-4.65,64.66,64.66,0,0,1-3.86,5.88,30.84,30.84,0,0,1-5.16,5.88ZM54,67.7a21.79,21.79,0,0,0,4.62-4.77,52.34,52.34,0,0,0,5.12-7.68s0-.06,0-.08a8.65,8.65,0,0,1,1.33-.76q-2.41,3.48-4.71,7a31.58,31.58,0,0,1-3.08,3.84,8.72,8.72,0,0,1-2.67,2.5Zm1.09.14a5.7,5.7,0,0,0,1.21-1c1.13-1.18,2.2-2.43,3.22-3.7,2.24-2.78,4.1-5.94,6.09-8.9v0a7.1,7.1,0,0,1,.92-.31c-1.42,2.41-2.81,4.84-4.38,7.17a45.37,45.37,0,0,1-3.19,4.35c-.79.93-1.75,1.69-2.58,2.58Zm1.59.18a41.84,41.84,0,0,0,5.21-5.66c2-2.77,3.69-5.73,5.43-8.67.28-.06.55-.1.83-.14a83.64,83.64,0,0,1-4.35,7.65,46.5,46.5,0,0,1-3,4.25c-.78,1-1.77,1.74-2.49,2.74Zm2,.21c.77-.86,1.64-1.62,2.4-2.5A40.1,40.1,0,0,0,63.88,62a51.93,51.93,0,0,0,4.85-8.48c.45,0,.91-.08,1.37-.1A70.67,70.67,0,0,1,66,61.18a31.5,31.5,0,0,1-6.31,7.14Zm1.76.15a21.78,21.78,0,0,0,5.59-6,49.5,49.5,0,0,0,4.78-9l.64,0a68.65,68.65,0,0,1-4.19,8.19c-.79,1.43-1.58,2.84-2.51,4.19-.7,1-1.7,1.8-2.35,2.84Zm2.35.2c.75-.91,1.61-1.71,2.34-2.65a39.22,39.22,0,0,0,2.58-4.14A54.3,54.3,0,0,0,72,53.33h1c-1.47,2.49-2.4,5.22-4.07,7.6-1.82,2.59-3.24,5.39-5.42,7.71Zm1,.07a49.34,49.34,0,0,0,5.13-7,32.48,32.48,0,0,0,2.34-3.88,49,49,0,0,1,2.16-4.43h.77c-2.9,5.28-5.55,10.72-9.36,15.41Zm1.51.1a46.81,46.81,0,0,0,4.8-6.88c1.61-2.79,3.24-5.67,4.66-8.56h.42c-1.38,2.41-2.66,4.86-4,7.33-1.47,2.81-3.19,5.47-4.83,8.19Zm1.45.1c3.52-4.86,6.19-10.25,9-15.54h.7c-1.25,2.58-2.8,5-4.16,7.49s-2.53,5.53-4.15,8.11Zm1.7.08a54.64,54.64,0,0,0,4.12-7.27c1.44-2.82,3.33-5.38,4.49-8.34h.61A86.72,86.72,0,0,1,73.48,62c-1.22,2.34-2.49,4.81-3.93,7Zm1.41.07a11.73,11.73,0,0,0,1.5-2.35c.83-1.49,1.81-2.9,2.64-4.4a65.29,65.29,0,0,0,4.31-8.91l1.34,0c-1,2.77-2.9,5.21-4.2,7.83a51.79,51.79,0,0,1-5,7.82Zm1,0A39.59,39.59,0,0,0,76,61.55c1.39-2.68,3.44-5.25,4.33-8.15l.77,0c-1.46,5.87-5.83,11.1-9.59,15.65Zm1,0a30.54,30.54,0,0,0,5.86-7.3,34.73,34.73,0,0,0,4-8.34h.92a36.44,36.44,0,0,1-5.79,10.73,42,42,0,0,1-2.93,3.31,3,3,0,0,0-1,1.61Zm1.3,0a7.93,7.93,0,0,1,2.14-2.4A21.63,21.63,0,0,0,78,63.47a34.88,34.88,0,0,0,5.21-10h.48c-.51,2.75-2.12,5.17-3.59,7.51-1.77,2.81-3.83,5.43-5.72,8.16Zm1.6,0a76.5,76.5,0,0,0,5.86-7.87c1.57-2.38,3.2-4.93,3.7-7.79h.33a35.36,35.36,0,0,1-1.4,3.7A36.31,36.31,0,0,1,81.12,62c-1.43,2.64-3.57,4.73-5.22,7.21Zm1.57,0A54.57,54.57,0,0,0,82,61.8a32.22,32.22,0,0,0,2-4.41,30.78,30.78,0,0,0,1.43-3.86l1,0c-.87,5.86-5.48,10.84-8.58,15.66Zm1.63,0c3.57-4.53,8-9.78,8.93-15.65H88a47.73,47.73,0,0,1-4,8.24c-.81,1.34-1.72,2.61-2.63,3.87s-2,2.3-2.92,3.54ZM88.62,53.57l1.19,0c-.7,3.22-3,6.07-5,8.58-.48.6-1,1.19-1.55,1.77.42-.6.83-1.22,1.22-1.84A45.58,45.58,0,0,0,88.62,53.57Zm-9.8,15.65c.19-.22.38-.43.58-.64-.13.21-.26.42-.38.64Zm.58,0c.92-1.18,2-2.18,3-3.28,1.26-1.39,2.47-2.85,3.63-4.33,1.86-2.36,3.79-5,4.39-8h.82a27.91,27.91,0,0,1-5,8.72,71.15,71.15,0,0,1-6.64,6.92Zm.78,0a58.4,58.4,0,0,0,6.84-7,26.57,26.57,0,0,0,4.9-8.68h.93a31.44,31.44,0,0,1-5.12,8.8C85.85,64.7,83.62,67.6,81,69.22Zm1.61,0a12.14,12.14,0,0,0,2.1-1.74,51,51,0,0,0,4.3-4.65,31.09,31.09,0,0,0,5.36-9.26h.85c-.56,1.18-1.25,2.3-1.79,3.49A27.52,27.52,0,0,1,90,61.58c-2,2.84-4.67,4.93-6.76,7.62Zm1.74,0a64.92,64.92,0,0,0,6.66-6.81,25,25,0,0,0,2.73-4.52c.68-1.45,1.52-2.86,2.17-4.32l1.48,0a31.8,31.8,0,0,1-2.08,3.66,33.52,33.52,0,0,1-3.1,4.37c-2.21,2.67-4.79,5-7,7.65Zm1.17,0a69.93,69.93,0,0,0,7.53-7.67,33.65,33.65,0,0,0,2.82-4,27.47,27.47,0,0,0,2.24-4l1.09,0h.08c-1.16,3.19-3.66,6.16-5.76,8.71a63.65,63.65,0,0,1-7,7Zm1.5,0a41.65,41.65,0,0,0,7.26-7c2.13-2.55,4.51-5.49,5.6-8.69l.7,0a54.27,54.27,0,0,1-5.67,9A52.24,52.24,0,0,1,87,69.14Zm1.3,0c5.84-3.49,10-9.77,13-15.74l.67,0c-.91,3.18-3.17,6.33-5.28,8.77s-4.78,4.61-7.11,7Zm1.74,0a87,87,0,0,0,7.37-7,23.58,23.58,0,0,0,5.16-8.76l1.33-.07a12.22,12.22,0,0,1-2,4A54.5,54.5,0,0,1,98,61.83c-2,2.55-4.35,4.76-6.51,7.16Zm2.52-.1a48.32,48.32,0,0,0,7.41-7.72c1.73-2.28,4-5.11,4.56-8l1.72-.1a18.27,18.27,0,0,1-2,3.87,49.16,49.16,0,0,1-2.91,4.35,33.85,33.85,0,0,1-8,7.6Zm1.53-.06a27.64,27.64,0,0,0,7.45-6.69,45,45,0,0,0,3-4.36,17.12,17.12,0,0,0,2.43-4.78l1.69-.12A23.7,23.7,0,0,1,105.46,57a47.16,47.16,0,0,1-3.53,4.9c-2.05,2.5-4.68,4.43-6.75,6.88Zm2.27-.12c2.53-2.47,5.26-4.59,7.52-7.37a43.06,43.06,0,0,0,2.9-4.08,20.67,20.67,0,0,0,2.58-4.42l.74,0c-1.08,2.88-3.27,5.69-5.07,8.09A57.63,57.63,0,0,1,97,68.73Zm1.82-.09a51.62,51.62,0,0,0,7.68-7.82c1.84-2.38,4-5.17,5-8.07l1.68-.13a23.1,23.1,0,0,1-3,4.09c-1.22,1.48-2.42,3-3.63,4.48s-2.22,2.84-3.44,4.18a21.31,21.31,0,0,0-2.54,3.16Zm15.11-16.08.91-.07c-1.1,1.95-3,3.49-4.58,5.17.42-.5.83-1,1.22-1.51A19.14,19.14,0,0,0,112.49,52.63ZM99.66,68.56a33.45,33.45,0,0,1,3.12-3.51c1.43-1.52,2.73-3.21,4-4.85.33-.4.65-.81,1-1.2-1.14,1.52-2.12,3.17-3.18,4.75a38.58,38.58,0,0,0-3,4.69Zm2.32-.15c1.94-3.2,4.28-6.29,6.5-9.3,1.68-2.27,4.57-4,5.74-6.62l.75-.06c-1.45,2.32-3.77,4.13-5.34,6.38-2.18,3.13-4.11,6.43-6.37,9.5Zm1.74-.13c2.17-2.78,4.09-5.73,6.08-8.64,1.76-2.58,4.37-4.59,6-7.28l.64-.06c-1.49,2.61-3.73,4.75-5.51,7.17-2.06,2.81-3.77,5.85-5.77,8.7Zm1.72-.13c2-2.76,4-5.6,6-8.38,1.86-2.57,4.2-4.76,5.77-7.54l.6,0a45.31,45.31,0,0,1-5.46,7.94c-2.09,2.69-4.25,5.32-6.37,8Zm2.14-.18-1.26.1c2.17-2.48,4.35-4.95,6.42-7.52a42.09,42.09,0,0,0,5.78-8.44l1-.09c-1.58,2.55-3.58,4.89-5.39,7.28-2.18,2.87-4.41,5.7-6.49,8.64A0,0,0,0,0,107.58,68Zm.51,0c2.26-2.94,4.67-5.77,7-8.69a73.46,73.46,0,0,0,5.35-7.3l.72-.07a73.83,73.83,0,0,1-6.38,8.39c-2.18,2.4-4.5,4.69-6,7.62Zm1.21-.1c1.7-3,4.3-5.36,6.63-7.9a66.08,66.08,0,0,0,6.14-8.15l.79-.08c-1.29,2.82-4,5.33-6,7.64a79.19,79.19,0,0,0-6.56,8.39Zm1.47-.14c2.3-3.05,4.87-5.87,7.37-8.76,1.92-2.23,4.4-4.55,5.57-7.32l1-.1c-1.57,2.85-4.12,5.4-6.14,7.88-1.2,1.46-2.42,2.91-3.69,4.32a17.13,17.13,0,0,0-3,3.88Zm1.19-.11c2.12-3,5.07-5.47,7.45-8.25,2.09-2.43,4.65-5,6.13-7.9l1.3-.13c-1.33,3-4.15,5.53-6.32,7.91-2.49,2.73-5,5.42-7.38,8.26Zm1.7-.16c2.65-3,5.47-5.78,8.18-8.68,2.09-2.24,4.69-4.61,5.81-7.53l1.13-.12c-1.43,3.21-4,6-6.46,8.47-2.57,2.64-5.34,5.07-7.85,7.77Zm1.64-.17-.4,0c2.69-2.65,5.61-5.05,8.28-7.72,2.46-2.46,5-5.31,6.41-8.56l.54-.06a15.42,15.42,0,0,1-2.9,4.22c-1.12,1.43-2.2,2.88-3.35,4.28a33.23,33.23,0,0,1-8.52,7.74A.17.17,0,0,0,115.3,67.24Zm15.52-16.37,1.71-.18c-1.63,2.56-4.2,4.67-6.2,6.89l-2,2.21c.11-.13.22-.25.32-.38,1.26-1.49,2.39-3.06,3.64-4.55A11.67,11.67,0,0,0,130.82,50.87ZM117.57,67l-1.36.14a27.27,27.27,0,0,0,4.27-3.29l-2.85,3A.19.19,0,0,0,117.57,67Zm.6-.06c3-2.87,5.92-5.77,8.71-8.81,2.19-2.4,5-4.68,6.63-7.55l1.66-.17c-.82,1.54-2.54,3-3.66,4.16Q129.32,56.85,127,59c-2.61,2.48-5.83,4.78-7.82,7.81Zm17.9-16.63.7-.07c-1.79,3.2-5.28,5.8-8,8.14l-.12.11c1.47-1.38,2.89-2.82,4.28-4.28A15,15,0,0,0,136.07,50.31ZM119.71,66.77a42.2,42.2,0,0,1,5.91-5.64,32.07,32.07,0,0,0-5,5.54Zm1.44-.16H121c2.44-3.15,5.63-5.58,8.67-8.11,2.81-2.35,6.29-5,8-8.27a.32.32,0,0,0,0-.09l1.48-.16a22.47,22.47,0,0,1-3.88,4c-1.73,1.52-3.46,3.06-5.18,4.59s-3.28,3-5,4.39a14.61,14.61,0,0,0-3.4,3.53Zm.9-.11A25.75,25.75,0,0,1,125.88,63c1.77-1.4,3.45-2.91,5.17-4.38,3-2.62,7-5.25,9.09-8.77l1.24-.12a14.82,14.82,0,0,1-3.22,3.8c-1.49,1.4-3,2.82-4.53,4.17-3.37,2.94-6.91,5.7-10.32,8.61Zm1.8-.21c2.75-2.2,5.57-4.31,8.32-6.51-1,.85-1.93,1.71-2.87,2.59a39.37,39.37,0,0,1-4.39,3.79Zm1.78-.21a35.07,35.07,0,0,0,3.63-2.94c1.91-1.7,3.89-3.32,5.82-5,1.78-1.55,3.51-3.17,5.18-4.83,1.08-1.06,2.71-2.32,3.38-3.78l.86-.08c-.85,1.17-1.71,2.33-2.59,3.45l-.51.53q-2.1,2.22-4.39,4.24c-3.15,2.8-6.51,5.35-9.63,8.19ZM141.69,50.8a9.84,9.84,0,0,0,.5-.9.44.44,0,0,0,0-.22l.5,0A8.8,8.8,0,0,1,141.69,50.8ZM129.93,65.56l-2.08.26c3.15-2.63,6.46-5.08,9.6-7.74-1.27,1.32-2.58,2.59-3.87,3.88s-2.11,2.58-3.56,3.49A.19.19,0,0,0,129.93,65.56Zm.77-.09a19.6,19.6,0,0,0,2.9-2.79c1.4-1.5,3-2.83,4.45-4.28a57.24,57.24,0,0,0,4.62-5.28c1-1,2.35-2.25,2.73-3.7,0,0,0,0,0,0v0l1-.1c-2.22,2.72-4.74,5.2-7,7.91a94.69,94.69,0,0,1-7,8.07Zm2.35-.3a86,86,0,0,0,6.88-7.53c2.12-2.5,4.46-4.8,6.59-7.3-.23.38-.45.76-.68,1.1a52.67,52.67,0,0,1-4.12,5.09,63.34,63.34,0,0,0-6.6,8.38Zm2.52-.31c2.17-2.93,4.55-5.64,7-8.36,1.09-1.22,2.17-2.45,3.17-3.75a44.06,44.06,0,0,1,2.56-3.64l.8-.08c-1.53,2.6-3.55,4.88-5.31,7.32a97,97,0,0,1-6.31,8.27Zm3.81-.49-1.32.17a59.45,59.45,0,0,0,5.59-7c2.09-2.85,4.57-5.54,6.3-8.63l1.7-.15a11.94,11.94,0,0,0-1.42,1.75C149.16,52,148.15,53.5,147,54.9c-2.58,3.07-5.12,6.19-7.54,9.39A.2.2,0,0,0,139.38,64.37Zm.59-.07c2.28-2.88,4.64-5.69,7-8.48.93-1.09,1.88-2.15,2.71-3.33a20.11,20.11,0,0,1,2.86-3.56c-3.65,5.21-8.22,9.75-11.49,15.22Zm1.53-.2c3.27-4.83,7.53-8.91,10.93-13.64a154.17,154.17,0,0,1-9.58,13.46Zm1.79-.23a82.45,82.45,0,0,0,11-15.08.28.28,0,0,0,0-.19l.71-.06c-1.21,2.68-3.22,5-4.91,7.38-1,1.39-2,2.77-3,4.15a43.23,43.23,0,0,1-2.79,3.67Zm1.56-.2a36.78,36.78,0,0,0,2.61-3.28c1.07-1.37,2.11-2.77,3.15-4.16,1.78-2.4,4.07-4.9,5.14-7.74l.45,0c-.14.23-.25.46-.34.62-.71,1.17-1.34,2.38-2,3.58-2,3.74-5,7-7.45,10.41-.14.21.19.39.34.2,2.45-3.21,5.32-6.22,7.4-9.7.57-1,1.08-1.94,1.63-2.91a9.81,9.81,0,0,1,1.37-2.26l1.07-.08c-.87,2.66-3.29,5.09-4.94,7.3-1.86,2.5-3.7,5-5.37,7.65Zm3.57-.46c1.92-2.82,4.06-5.48,6.15-8.18,1.56-2,3.62-4.09,4.43-6.54a.33.33,0,0,0,0-.22l1-.06a142,142,0,0,0-10.57,14.87Zm1.42-.18C153.47,58,157.12,53,161,48.16l1.37-.08c-1.83,2.22-3.34,4.73-5.15,7A42.57,42.57,0,0,0,152,62.76Zm2.69-.34-.41.05a52,52,0,0,1,5.94-7.7c1.91-2.24,3.41-4.81,5.35-7l1.27-.05c-.27.34-.53.7-.78,1-1.39,1.65-2.85,3.23-4.23,4.9-1.19,1.44-2.29,3-3.38,4.47a24,24,0,0,0-2.79,4.23Zm1.33-.17c.85-1.39,1.92-2.6,2.9-3.9,1.34-1.78,2.73-3.53,4.2-5.2,1.3-1.48,2.62-2.93,3.9-4.43.28-.34.66-.68.94-1.06l.51,0a45.47,45.47,0,0,1-5.46,7.22,84.17,84.17,0,0,0-5.93,7.26Zm3.47-.43-2,.24c2-2.72,4.47-5.1,6.68-7.68a36.53,36.53,0,0,0,5-6.76l.81,0c-.78,2.64-3.18,4.85-4.93,6.85a42.24,42.24,0,0,0-5.62,7.37Zm.55-.07a55.82,55.82,0,0,1,6.27-7.72c1.63-1.83,3.88-3.95,4.46-6.44l.6,0c-2.88,4.75-6.1,9.28-9.16,13.92Zm2.6-.32c3.34-4.5,6.61-9.07,9.52-13.87h.32c-2.48,4.69-5.23,9.18-8.07,13.66Zm2.25-.27A111.88,111.88,0,0,0,171,47.92a.29.29,0,0,0,0-.09h.64c-2.44,4.69-5.43,9-8.2,13.52Zm1.25-.15a118.23,118.23,0,0,0,8.46-13.46h1.05c-.91,2.21-2.7,4.11-4,6.12-1.5,2.37-2.85,4.84-4.4,7.19Zm1.66-.21c1.57-2.2,3-4.5,4.46-6.78s3.23-4.08,4.15-6.45h.89a37.88,37.88,0,0,1-3.84,6.3c-1.61,2.36-3.3,4.66-5.12,6.86Zm1.08-.13A71.68,71.68,0,0,0,171.48,55a34.86,34.86,0,0,0,4.43-7.1,0,0,0,0,0,0,0l1.11,0c-1.26,2.21-2.76,4.25-4.2,6.33-.87,1.25-1.75,2.49-2.66,3.71a20.53,20.53,0,0,0-2,2.82Zm1.77-.22a24.24,24.24,0,0,1,2-2.53c.84-1,1.64-2.07,2.43-3.14a62,62,0,0,0,4.84-7.12l1.36,0c-2.62,4.49-6.21,8.28-9.15,12.55Zm2-.25c3.05-4.2,6.71-7.93,9.32-12.44h0l1.33.07a25.81,25.81,0,0,1-4.48,6.47c-1.63,1.92-3.33,3.76-4.87,5.74Zm3.44-.45-1.59.21c3.25-3.8,7.68-7.4,9.51-12.1l2.18.17c-.08.15-.15.31-.23.45a31.37,31.37,0,0,1-3.12,4.07c-2.11,2.5-4.54,4.72-6.73,7.16C173.93,60,173.93,60,173.92,60Zm.43-.06c1.94-2,4-3.78,6-5.76,1-1,1.85-2.07,2.72-3.16q.56-.7,1.08-1.44c.17-.23.48-1,.71-1.24l1.35.13c-.56.55-1,1.2-1.54,1.77-.92,1.08-1.84,2.15-2.82,3.18A63.45,63.45,0,0,0,176,59.75Zm1.81-.24c3.87-3.54,7.36-7.45,11.09-11.11l.27,0c-.84,1-1.51,2.24-2.36,3.13-2.4,2.54-5,4.91-7.44,7.38a.18.18,0,0,0,.26.26c2.43-2.19,4.87-4.39,7.19-6.7,1.2-1.19,2.1-2.74,3.27-4h.06l1.22.15a109.56,109.56,0,0,1-10.58,10.42Zm3.63-.51A74.14,74.14,0,0,0,190.62,49l.87.12a119.61,119.61,0,0,1-10.58,9.93Zm1.93-.27c3.95-2.74,7.22-6.35,10.67-9.67l.7.11a46.27,46.27,0,0,1-4.41,5.08,65.2,65.2,0,0,1-5.29,4.22Zm3.63-.55-1.11.16c1.5-1,3-2.15,4.37-3.34a39,39,0,0,0,5.17-5.72l1.4.26a107.58,107.58,0,0,1-9.61,8.6Zm1-.17c3.35-2.6,6.88-5.08,9.66-8.3l.67.14c-1.12,1-2.06,2.18-3.15,3.2-1.67,1.55-3.45,3-5,4.62Zm2.81-.44c1.25-1.18,2.6-2.25,3.93-3.34,1.57-1.28,2.84-3,4.47-4.18l.81.19a28.3,28.3,0,0,0-2.21,2.39c-1.66,1.67-3.61,3-5.29,4.67Zm2.32-.36c1.35-1.22,2.8-2.32,4.22-3.45,1.26-1,2.24-2.37,3.56-3.28l.86.24c-2.18,2.1-4.32,4.23-6.64,6.18Zm2.55-.4a71.34,71.34,0,0,0,6.75-5.89l.72.22c-1.94,1.86-3.89,3.68-5.93,5.44Zm2.2-.33a52.39,52.39,0,0,0,5.93-5.11l.62.21a33.81,33.81,0,0,1-4.71,4.63Zm2.28-.33c1.67-1.36,3.59-2.58,4.84-4.36l.78.3q-1.83,1.94-3.74,3.79Zm2.32-.33a39.51,39.51,0,0,0,3.82-3.5l.75.32a19.54,19.54,0,0,1-2.86,3Zm2.39-.31a20.85,20.85,0,0,0,2.63-2.51.34.34,0,0,0,.06-.12l.63.3a13.68,13.68,0,0,0-2.12,2.18Zm1.77-.23c.26-.24.51-.48.75-.73.41-.4.86-.74,1.29-1.12l.53.29c-.51.45-1,1-1.46,1.44Zm2.44-.27-.83.09c.44-.4.89-.8,1.36-1.17l.24.14a7.53,7.53,0,0,1-.77.94Zm.37,0a5.29,5.29,0,0,0,.7-.72l.9.54Zm48.7-19.91c-6.44-1.3-13.18-.9-19.71-.91-7.55,0-15.13.1-22.67.39-.38,0-.38.6,0,.59,7.11-.14,14.23-.37,21.34-.43,6.95-.06,14.16-.58,21,.59v.17a42.46,42.46,0,0,0-8.36-.39c-3.22.07-6.44,0-9.66,0-6.87,0-13.75-.13-20.63,0a.3.3,0,0,0,0,.59c6.43.08,12.87,0,19.3,0,3.26,0,6.52,0,9.77-.07a61.15,61.15,0,0,1,9.57.13v0c0,.15,0,.29-.05.44-12.6.48-25.14.67-37.74.4-.34,0-.33.49,0,.52,12.52,1,25.21-.23,37.72-.77,0,.37-.08.73-.14,1.1a111.56,111.56,0,0,0-17.34.24c-6.18.45-12.35.93-18.55,1.27a.27.27,0,0,0,0,.54c6.19,0,12.39-.8,18.55-1.3a158.45,158.45,0,0,1,17.29-.55c-.06.33-.12.66-.21,1a30.79,30.79,0,0,0-7.24.17c-3.19.35-6.36.64-9.57.81-7.07.38-14.11.41-21.19.45a.26.26,0,0,0,0,.52,175.87,175.87,0,0,0,20.53-.4c3-.18,6.05-.38,9.07-.76a42.73,42.73,0,0,1,8.3-.46,15.94,15.94,0,0,1-1.65,3.78.09.09,0,0,0-.11-.06c-11.34,2.6-22.88,1.2-34.36,2.32-.29,0-.3.49,0,.46,4.56-.34,9.2-.33,13.83-.39-4.5.34-9,.69-13.49.8a.21.21,0,0,0,0,.42c10.8-.29,21.54-1.6,32.36-1.68a.14.14,0,0,0,0-.28c-1.87-.06-3.75-.06-5.62,0A53.5,53.5,0,0,0,254.2,43,18.34,18.34,0,0,1,252,45.92s0,0,0,0c-9.95-1-19.89.19-29.82.84-.32,0-.33.52,0,.51,9.84-.6,19.71-2,29.58-1a22.77,22.77,0,0,1-2.54,2.26.11.11,0,0,0-.1-.15c-4.2.07-8.4.44-12.59.69-4.42.27-8.82.29-13.25.38a.24.24,0,0,0,0,.47,91.28,91.28,0,0,0,12.59-.29q6.62-.44,13.24-1c-.56.41-1.12.81-1.71,1.17a20.6,20.6,0,0,0-4.71-.12c-2.28.11-4.56.22-6.83.31-4.92.19-9.87.06-14.78.39a.25.25,0,0,0,0,.49c4.68.19,9.43-.15,14.1-.37,3.94-.17,8-.72,11.91-.51a25.17,25.17,0,0,1-4.54,2.17c-8.11,2.89-17,1.87-25.44,2.32-2.15.12-4.29.29-6.43.49a32,32,0,0,0-5.59-3.06.25.25,0,0,0-.33-.13c-1.18-.49-2.39-.92-3.61-1.3a.32.32,0,0,0-.33-.1L199.61,50a.29.29,0,0,0-.16,0l-1.18-.31a.35.35,0,0,0-.53-.34,1.84,1.84,0,0,0-.22.17q-1.62-.37-3.24-.66c0-.27-.31-.53-.52-.27l-.12.16-.68-.11a.38.38,0,0,0-.63-.25l-.14.13-.94-.13.15-.17c.29-.34-.19-.83-.5-.5l-.51.55-1.2-.15.09-.07c.31-.25-.09-.75-.43-.55a4.49,4.49,0,0,0-.66.51l-.45-.05a.35.35,0,0,0-.49-.2l-.19.12-1.7-.17c-4.23-.4-8.46-.57-12.7-.58a.32.32,0,0,0-.56,0v0l-3.54,0a.32.32,0,0,0-.45,0l-.83,0c-.13-.19-.43-.27-.55,0v0h-.66a.36.36,0,0,0-.52,0l-.07.07c-3.29.13-6.56.33-9.83.58a.33.33,0,0,0-.14,0l-1.75.13a.36.36,0,0,0-.44,0l-3.44.29a.32.32,0,0,0-.27,0l-1.1.1a.35.35,0,0,0-.45,0l0,0-4.22.4a.39.39,0,0,0-.69.07c-2.33.23-4.67.47-7,.72a.42.42,0,0,0-.57.06l-1.59.17c.2-.46-.47-.85-.69-.39-.08.16-.18.32-.27.49l-2.17.22a.31.31,0,0,0-.44,0l-.64.07a.38.38,0,0,0-.59.06l-1.44.15a.38.38,0,0,0-.53,0l-1.5.16a.32.32,0,0,0-.56,0h0l-1.56.16a.46.46,0,0,0-.23,0l-.88.09a.39.39,0,0,0-.68-.08l-.11.16-.85.08a.37.37,0,0,0-.69-.2,2.61,2.61,0,0,1-.17.28l-3.81.35c0-.28-.45-.45-.6-.14a2,2,0,0,0-.11.2l-2.73.23a.36.36,0,0,0-.62.05l-1.81.14a.35.35,0,0,0-.67,0v0c-2,.15-3.94.27-5.91.38a.34.34,0,0,0-.31,0l-2.54.13c0-.3-.38-.52-.54-.21a1.67,1.67,0,0,1-.12.23l-.92,0a.28.28,0,0,0-.52,0l-1.22,0a.33.33,0,0,0-.64,0s0,0,0,0l-1.75,0a.26.26,0,0,0-.32,0q-3.08.08-6.17.06h0a.3.3,0,0,0-.21,0l-1.45,0a.32.32,0,0,0-.41,0l-1.08,0c-.06-.27-.48-.27-.62,0h-.49a.28.28,0,0,0-.4,0c-2.25-.07-4.49-.14-6.74-.17a.27.27,0,0,0-.41,0h-.71a.23.23,0,0,0-.42-.11.41.41,0,0,1-.07.11h-1c-1.22,0-2.49,0-3.76.06a.28.28,0,0,0-.32,0c-.58,0-1.15.07-1.71.14a.2.2,0,0,0-.26,0,13,13,0,0,0-4.42,1.32c-2.24,1.19-3.77,3.38-5.12,5.46-1.82,2.81-3.53,5.69-6.24,7.75a.13.13,0,0,0,0,.16c-6.28-.83-12.5-2-18.71-3.26a118.35,118.35,0,0,1-15.5-4.12C10.93,57.51.92,52.7.73,43.46c-.11-5.34,2.83-11.26,8.08-13,4.82-1.61,10.45.22,14.53,2.89.37.24.7-.34.34-.58C19.13,29.77,13,28,7.76,30.07,16.14,18.63,29.24,11.34,42.54,7.21c14.37-4.47,29.57-6,44.55-6.5A302.19,302.19,0,0,1,132.7,2.47c21.57,2.59,42.7,7.9,64.2,11,5.06.71,10,1.36,15.1.81,2.19-.24,4.36-.61,6.52-1a.26.26,0,0,0,.11.49c7.07,0,14.11-.89,21.18-.61.1,0,.1-.15,0-.15-7-.34-14.09,0-21.13.24,2.81-.52,5.6-1.07,8.43-1.42a26.74,26.74,0,0,1,18.94,4.3c-9.32.54-18.68-.09-28,0a.31.31,0,0,0,0,.61c9.43,0,18.86.17,28.27-.47.42.3.84.62,1.25.95-4.28,0-8.56,0-12.83,0-5.37,0-10.83-.19-16.18.18a.29.29,0,0,0,0,.57l.46,0a.3.3,0,0,0,.22.5c7.57.34,15.18.32,22.76.53a60,60,0,0,0,7.75.14c.35.35.69.71,1,1.08a19.49,19.49,0,0,0-6.42-.45c-2.64.1-5.28.08-7.93.11-6.05.08-12.06-.09-18.1-.29-.36,0-.34.51,0,.55a125,125,0,0,0,16.76.24c2.73-.06,5.47-.07,8.2-.19a30,30,0,0,1,7.46.17.07.07,0,0,0,.08-.08q.45.51.87,1.05c-5.4-.15-10.83,0-16.23,0-6.44,0-12.91-.12-19.35.13a.31.31,0,0,0,0,.61c6.22.15,12.47-.07,18.69-.12,5.73-.05,11.51.06,17.25-.2a22,22,0,0,1,4.5,12.28,144.17,144.17,0,0,0-18.48-.79c-7,.09-14,0-21-.16-.38,0-.36.53,0,.57,6.72.75,13.62.31,20.37.16a143.87,143.87,0,0,1,19.14.48C256.55,34.66,256.54,35,256.53,35.27Z"/><path class="cls-2" d="M66.69,42.75c0,.46.65.44.7,0,1.23-10.08.77-20.13-2.89-29.69-.08-.2-.4-.12-.33.09a58.75,58.75,0,0,1,3,14.65A85.87,85.87,0,0,1,66.69,42.75Z"/><path class="cls-2" d="M68.41,43.85c0,.34.45.64.62.26a17,17,0,0,0,.89-4.91c.25-2.2.41-4.4.51-6.61.26-5.67-2.39-11-2.89-16.6,0-.2-.32-.2-.31,0,.31,5.21,2.31,10.15,2.53,15.37C69.93,35.55,69,39.73,68.41,43.85Z"/><path class="cls-2" d="M70.45,44.7a.33.33,0,0,0,.64.17c1.19-3.4,1.09-7.29.86-10.83-.26-4.23-1-8.43-1.52-12.63,0-.21-.36-.22-.34,0,.37,3.79.87,7.57,1.15,11.38A44.08,44.08,0,0,1,70.45,44.7Z"/><path class="cls-2" d="M72,44.45c0,.34.51.4.6.08a33.64,33.64,0,0,0,.65-8.79,77.38,77.38,0,0,0-.82-9.62c0-.15-.27-.11-.26,0,.22,3,.45,6,.47,9C72.66,38.27,72.19,41.31,72,44.45Z"/><path class="cls-2" d="M75.31,41c1-3.76.77-7.76.42-11.6,0-.27-.45-.28-.43,0a37.15,37.15,0,0,1-.6,11.43A.32.32,0,0,0,75.31,41Z"/><path class="cls-2" d="M11.34,50.43a.28.28,0,0,0-.4.4l.25.26c.26.27.68-.15.41-.41Z"/><path class="cls-2" d="M9.53,48.43a.35.35,0,0,0-.12.25.23.23,0,0,0,.23.23H9.7a.25.25,0,0,0,.21-.23A.23.23,0,0,0,9.53,48.43Z"/><path class="cls-2" d="M8.18,48.77v-.26a.26.26,0,0,0-.52,0v.26A.26.26,0,0,0,8.18,48.77Z"/><path class="cls-2" d="M12.24,46.64a.27.27,0,0,0,0,.53A.27.27,0,0,0,12.24,46.64Z"/><path class="cls-2" d="M13.85,49.86a.18.18,0,0,0,0,.35A.18.18,0,0,0,13.85,49.86Z"/><path class="cls-2" d="M14.78,52.55a.11.11,0,0,0,0,.22A.11.11,0,0,0,14.78,52.55Z"/><path class="cls-2" d="M11.7,54.16l0,.08a.19.19,0,0,0,.36,0l0-.08C12.18,53.83,11.62,53.83,11.7,54.16Z"/><path class="cls-2" d="M9.22,52.72l0,.08a.2.2,0,0,0,.39,0l0-.08C9.77,52.36,9.12,52.36,9.22,52.72Z"/><path class="cls-2" d="M7.07,46.31v.17a.26.26,0,0,0,.51,0v-.17A.26.26,0,0,0,7.07,46.31Z"/><path class="cls-2" d="M5.41,44.79a2.5,2.5,0,0,0,0,.72c0,.21.31.17.38,0a2.51,2.51,0,0,0,.11-.72C5.86,44.5,5.43,44.5,5.41,44.79Z"/><path class="cls-2" d="M5.1,45.67l0,0c.22-.05.09-.4-.12-.29a.22.22,0,0,0-.15.22A.15.15,0,0,0,5.1,45.67Z"/><path class="cls-2" d="M5.25,48c-.14-.28-.55,0-.42.24a2.8,2.8,0,0,0,.37.65c.21.24.57-.12.35-.35A2.39,2.39,0,0,1,5.25,48Z"/><path class="cls-2" d="M3.24,44.62a1.38,1.38,0,0,1,.08-.45c.12-.29-.34-.4-.46-.13a1.29,1.29,0,0,0-.09.58A.24.24,0,0,0,3.24,44.62Z"/><path class="cls-2" d="M3.39,42.16a.51.51,0,0,1,0-.32c.14-.22-.21-.42-.36-.21a1,1,0,0,0-.12.53A.22.22,0,0,0,3.39,42.16Z"/><path class="cls-2" d="M6.91,41.09a2.27,2.27,0,0,1-.17-.5c0-.21-.36-.16-.36,0a1.14,1.14,0,0,0,.2.61C6.69,41.4,7,41.3,6.91,41.09Z"/><path class="cls-2" d="M9.56,41.7c-.08-.19-.16-.4-.25-.59s-.53,0-.41.24.16.4.26.59S9.67,42,9.56,41.7Z"/><path class="cls-2" d="M9.27,44.75a.21.21,0,0,0,0,.41A.21.21,0,0,0,9.27,44.75Z"/><path class="cls-2" d="M6.74,43.73l0,.08a.15.15,0,0,0,.29,0v-.08A.16.16,0,1,0,6.74,43.73Z"/><path class="cls-2" d="M5.09,39.26c.11-.28-.33-.4-.44-.13s-.1.4-.17.6.31.41.42.17S5,39.47,5.09,39.26Z"/><path class="cls-2" d="M5,37.5v-.17a.23.23,0,0,0-.45,0v.17A.23.23,0,0,0,5,37.5Z"/><path class="cls-2" d="M11.48,38.68c.2.22.47,0,.37-.28s-.19-.42-.27-.64-.68-.19-.55.16A2.25,2.25,0,0,0,11.48,38.68Z"/><path class="cls-2" d="M13.42,41.7l.05-.33a.22.22,0,1,0-.43,0l.05.33A.17.17,0,0,0,13.42,41.7Z"/><path class="cls-2" d="M11.45,44.58a1.09,1.09,0,0,0-.12.46.23.23,0,0,0,.46,0,.54.54,0,0,1,.05-.22C12,44.55,11.57,44.31,11.45,44.58Z"/><path class="cls-2" d="M3.48,46.54c0-.28-.38-.41-.44-.12a4.09,4.09,0,0,0,0,1c0,.31.5.31.48,0A4.22,4.22,0,0,1,3.48,46.54Z"/><path class="cls-2" d="M6.39,52a.22.22,0,0,0,0,.43A.22.22,0,0,0,6.39,52Z"/><path class="cls-2" d="M8.13,52.28a.41.41,0,0,0,0,.51c.18.25.6,0,.42-.25h0C8.73,52.27,8.3,52,8.13,52.28Z"/><path class="cls-2" d="M16.25,56l0,0c0-.06-.06-.12-.06-.08l0-.07h0a.31.31,0,0,0-.51.29,1,1,0,0,0,.39.46.3.3,0,0,0,.44-.33.49.49,0,0,0-.11-.18S16.27,56,16.25,56Z"/><path class="cls-2" d="M17.53,53.38a1.76,1.76,0,0,0,.32.45.21.21,0,0,0,.35-.21,1.71,1.71,0,0,0-.24-.49C17.81,52.84,17.37,53.1,17.53,53.38Z"/><path class="cls-2" d="M19.19,50.38v-.26a.26.26,0,0,0-.52,0v.26A.26.26,0,0,0,19.19,50.38Z"/><path class="cls-2" d="M13.85,55.61a1,1,0,0,0-.12.44c0,.26.41.26.41,0a.52.52,0,0,1,0-.24C14.29,55.58,14,55.38,13.85,55.61Z"/><path class="cls-2" d="M19,56.84c-.16-.33-.64,0-.49.29s.16.39.25.59.65,0,.49-.29S19.1,57,19,56.84Z"/><path class="cls-2" d="M21.38,56.55a1.85,1.85,0,0,1,.16.52c0,.34.57.35.54,0a2.55,2.55,0,0,0-.18-.67C21.79,56.07,21.26,56.22,21.38,56.55Z"/><path class="cls-2" d="M24.18,55a.26.26,0,0,0,0,.52A.26.26,0,0,0,24.18,55Z"/><path class="cls-2" d="M14.68,46.23c0,.23,0,.45-.08.68a.28.28,0,0,0,.5.22,1.54,1.54,0,0,0,.12-.9A.27.27,0,1,0,14.68,46.23Z"/><path class="cls-2" d="M13.26,44.36a.26.26,0,0,0,0,.52A.26.26,0,0,0,13.26,44.36Z"/><path class="cls-2" d="M17.06,45.05a2.12,2.12,0,0,0-.06.75.24.24,0,0,0,.47,0,4,4,0,0,1,.11-.6A.27.27,0,0,0,17.06,45.05Z"/><path class="cls-2" d="M15.7,50.07h0l.06,0H16l0,0h0a.21.21,0,0,0,.06-.16s0-.08,0-.13a.25.25,0,0,0-.5,0s0,.09,0,.13A.21.21,0,0,0,15.7,50.07Z"/><path class="cls-2" d="M21,48.54c-.21-.29-.7,0-.49.28l0,.12c0,.37.6.37.58,0A.71.71,0,0,0,21,48.54Z"/><path class="cls-2" d="M21.72,51.37a8.48,8.48,0,0,1-.52.93c-.15.23.23.46.37.22a8.46,8.46,0,0,0,.5-.94C22.18,51.35,21.84,51.14,21.72,51.37Z"/><path class="cls-2" d="M20.58,54.36v.25a.22.22,0,0,0,.43,0v-.25A.21.21,0,0,0,20.58,54.36Z"/><path class="cls-2" d="M26.68,52.49a.83.83,0,0,0,0,.58.27.27,0,0,0,.51,0,1.26,1.26,0,0,1,.1-.33A.31.31,0,1,0,26.68,52.49Z"/><path class="cls-2" d="M25.82,58.42a2.15,2.15,0,0,1-.07.62.22.22,0,0,0,.42.12,2.32,2.32,0,0,0,.1-.74A.23.23,0,0,0,25.82,58.42Z"/><path class="cls-2" d="M22.83,60a.55.55,0,0,1-.06.28c-.09.24.31.41.43.18a1.22,1.22,0,0,0,.13-.46C23.35,59.72,22.82,59.71,22.83,60Z"/><path class="cls-2" d="M21.13,60.12c0,.2.08.47.34.47a.25.25,0,0,0,.25-.25v-.05a.2.2,0,0,0-.08-.17C21.6,59.79,21.09,59.79,21.13,60.12Z"/><path class="cls-2" d="M24.9,57.06c-.16-.18-.53-.13-.5.18a.92.92,0,0,0,.09.37.31.31,0,0,0,.34.14h0a.34.34,0,0,0,.21-.21,1.5,1.5,0,0,0,0-.22A.27.27,0,0,0,24.9,57.06Z"/><path class="cls-2" d="M27.39,56c0,.28.08.56.09.84a.26.26,0,0,0,.52,0c0-.28-.08-.56-.08-.84S27.38,55.63,27.39,56Z"/><path class="cls-2" d="M28.55,60.79a3.52,3.52,0,0,0,0,.56.17.17,0,0,0,.33,0,5.29,5.29,0,0,0,0-.56C29,60.52,28.54,60.52,28.55,60.79Z"/><path class="cls-2" d="M26.21,62a.85.85,0,0,0,0,.23.24.24,0,0,0,.45,0,.59.59,0,0,0,0-.23A.26.26,0,0,0,26.21,62Z"/><path class="cls-2" d="M30.64,58.48a.72.72,0,0,1,.08.26.25.25,0,0,0,.48,0,.65.65,0,0,0-.09-.54C30.91,57.92,30.44,58.18,30.64,58.48Z"/><path class="cls-2" d="M32,59a5,5,0,0,0,0,.67.25.25,0,0,0,.5,0c0-.22,0-.45,0-.67A.27.27,0,0,0,32,59Z"/><path class="cls-2" d="M33.08,62.07a.16.16,0,0,0,0,.33A.16.16,0,0,0,33.08,62.07Z"/><path class="cls-2" d="M36.92,62c0-.15-.25-.16-.24,0a1.69,1.69,0,0,0,.17.58c.08.16.33,0,.24-.14A1.39,1.39,0,0,1,36.92,62Z"/><path class="cls-2" d="M30.51,62.67a.73.73,0,0,0-.09.41c0,.3.5.41.56.08a.11.11,0,0,1,0-.11C31.33,62.7,30.73,62.27,30.51,62.67Z"/><path class="cls-2" d="M35,60c.17-.37-.38-.7-.55-.32a1.11,1.11,0,0,0-.1.67.3.3,0,0,0,.58,0A1.36,1.36,0,0,1,35,60Z"/><path class="cls-2" d="M35,62.65A.18.18,0,0,0,35,63,.18.18,0,0,0,35,62.65Z"/><path class="cls-2" d="M37,58.68v.08a.32.32,0,0,0,.64,0v-.08A.32.32,0,0,0,37,58.68Z"/><path class="cls-2" d="M40.81,58.51l0,.42a.27.27,0,0,0,.54,0l0-.42C41.47,58.11,40.78,58.11,40.81,58.51Z"/><path class="cls-2" d="M40.87,62.4v.43a.25.25,0,0,0,.49,0V62.4A.26.26,0,0,0,40.87,62.4Z"/><path class="cls-2" d="M39.17,62.43a.15.15,0,0,0,0,.29A.15.15,0,0,0,39.17,62.43Z"/><path class="cls-2" d="M39.55,59.44a.29.29,0,0,0-.58,0,1.32,1.32,0,0,0,.13.48c.15.33.63,0,.49-.28A.48.48,0,0,1,39.55,59.44Z"/><path class="cls-2" d="M33.16,55.89a.16.16,0,0,0,0,.32A.16.16,0,0,0,33.16,55.89Z"/><path class="cls-2" d="M42.56,57.65a.62.62,0,0,0,0-.59c-.09-.26-.55-.34-.6,0h0a.42.42,0,0,0,0,.16h0a.38.38,0,0,1,0,.14v0s0,.08,0,.11C42.12,57.7,42.4,57.85,42.56,57.65Z"/><path class="cls-2" d="M44.55,59.27a1.32,1.32,0,0,0,.14.56.28.28,0,0,0,.52-.21,1.07,1.07,0,0,1-.06-.35A.3.3,0,0,0,44.55,59.27Z"/><path class="cls-2" d="M43.22,62.91c0,.31-.08.62-.1.93s.57.37.58,0,.06-.62.07-.93S43.23,62.56,43.22,62.91Z"/><path class="cls-2" d="M42.51,60.46a2.78,2.78,0,0,0-.09.76.32.32,0,0,0,.63,0,2,2,0,0,1,.07-.6C43.24,60.23,42.63,60.07,42.51,60.46Z"/><path class="cls-2" d="M40.67,64.35a2,2,0,0,0,0,.25.23.23,0,0,0,.27.2.22.22,0,0,0,.27-.2,1,1,0,0,0,0-.25A.29.29,0,0,0,40.67,64.35Z"/><path class="cls-2" d="M37.87,64.09a.34.34,0,0,0,.44.26.25.25,0,0,0,.13-.41C38.36,63.61,37.76,63.7,37.87,64.09Z"/><path class="cls-2" d="M47.17,61.9a2.39,2.39,0,0,0-.09.84.31.31,0,0,0,.62,0,3.72,3.72,0,0,1,.08-.67A.32.32,0,0,0,47.17,61.9Z"/><path class="cls-2" d="M47,65.37a.26.26,0,0,0,0,.51A.26.26,0,0,0,47,65.37Z"/><path class="cls-2" d="M45.33,62.57v.51a.28.28,0,0,0,.56,0c0-.17,0-.34,0-.51A.29.29,0,0,0,45.33,62.57Z"/><path class="cls-2" d="M49.5,58.17a.8.8,0,0,0,.25.52c.2.21.59-.07.41-.31A.82.82,0,0,1,50,58.1C50,57.8,49.46,57.87,49.5,58.17Z"/><path class="cls-2" d="M51.93,57.41v.67a.3.3,0,0,0,.6,0v-.67A.29.29,0,0,0,51.93,57.41Z"/><path class="cls-2" d="M51.62,62.07a1,1,0,0,1-.06.35c-.1.27.32.44.45.19a1.13,1.13,0,0,0,.13-.54A.26.26,0,0,0,51.62,62.07Z"/><path class="cls-2" d="M50.19,62.22a2.43,2.43,0,0,0,0-.66.27.27,0,0,0-.54,0,2.92,2.92,0,0,0,0,.66A.27.27,0,0,0,50.19,62.22Z"/><path class="cls-2" d="M47.52,59.69a1.13,1.13,0,0,0,.06.32.24.24,0,0,0,.47,0,1.13,1.13,0,0,0,.06-.32A.3.3,0,0,0,47.52,59.69Z"/><path class="cls-2" d="M50.28,64.57a.44.44,0,0,0-.08-.41c-.15-.23-.53,0-.37.22a.69.69,0,0,1,.1.19A.18.18,0,0,0,50.28,64.57Z"/><path class="cls-2" d="M50.06,66.3l0,.13v0a.25.25,0,0,0,.21.23h.13a.25.25,0,0,0,.21-.23v0l0-.13C50.69,65.93,50,65.93,50.06,66.3Z"/><path class="cls-2" d="M53.47,64.28a1.31,1.31,0,0,0-.2.66c0,.34.53.43.6.09A1.57,1.57,0,0,1,54,64.6C54.2,64.23,53.65,63.9,53.47,64.28Z"/><path class="cls-2" d="M54.58,63.17v.42a.27.27,0,0,0,.53,0v-.42A.27.27,0,0,0,54.58,63.17Z"/><path class="cls-2" d="M54.88,60.06,55,60a.28.28,0,0,0-.4-.4l-.08.08A.28.28,0,0,0,54.88,60.06Z"/><path class="cls-2" d="M53,59.57A.21.21,0,0,0,53,60,.21.21,0,0,0,53,59.57Z"/><path class="cls-2" d="M55.59,56.39v.13a.25.25,0,0,0,.27.25.24.24,0,0,0,.27-.25v-.13A.27.27,0,0,0,55.59,56.39Z"/><path class="cls-2" d="M48.77,56.34a.68.68,0,0,0-.11.39.26.26,0,0,0,.51,0l.06-.12C49.43,56.34,49,56.05,48.77,56.34Z"/><path class="cls-2" d="M57.86,54.22V54.1a.31.31,0,0,0-.61,0v.12A.31.31,0,0,0,57.86,54.22Z"/><path class="cls-2" d="M59.8,52V51.9a.3.3,0,0,0-.59,0V52A.3.3,0,0,0,59.8,52Z"/><path class="cls-2" d="M38.45,55.54a1.73,1.73,0,0,0-.07-.31.23.23,0,0,0-.44.12c0,.11.08.19.12.3A.21.21,0,0,0,38.45,55.54Z"/><path class="cls-2" d="M33.47,53l0,.06a.27.27,0,1,0,.38.38l.06-.05C34.13,53.13,33.71,52.71,33.47,53Z"/><path class="cls-2" d="M31,52.44a.2.2,0,0,0,0-.4A.2.2,0,0,0,31,52.44Z"/><path class="cls-2" d="M48.47,51.41a.21.21,0,0,0-.29.3l.08.08a.21.21,0,0,0,.3-.29Z"/><path class="cls-2" d="M50.19,49.65a.13.13,0,0,0,0,.27A.13.13,0,0,0,50.19,49.65Z"/><path class="cls-2" d="M53.38,47.41v-.08a.14.14,0,0,0-.28,0v.08A.15.15,0,0,0,53.38,47.41Z"/><path class="cls-2" d="M52.82,34.68C46.18,38.58,37.23,37.87,33,30.9c-.1-.15-.35,0-.25.15,4.16,7.46,13.54,8.44,20.45,4.19C53.5,35,53.18,34.46,52.82,34.68Z"/><path class="cls-2" d="M50.81,37.18c-4.61,3-10.54,1.35-15-1.09a.16.16,0,0,0-.16.28c4.6,2.61,10.67,4.39,15.47,1.28C51.39,37.46,51.11,37,50.81,37.18Z"/><path class="cls-2" d="M103,51.48c-5.35-.17-10.65.35-16-.12-.13,0-.16.21,0,.23,5.23,1,10.75.6,16,.4A.26.26,0,0,0,103,51.48Z"/><path class="cls-2" d="M111.94,50.65c-2.07.07-4.14.27-6.19.53-.26,0-.27.45,0,.42,2.06-.24,4.12-.37,6.19-.48C112.23,51.1,112.24,50.64,111.94,50.65Z"/><path class="cls-2" d="M117.87,49.85a14.59,14.59,0,0,0-2.38.1c-.22,0-.22.37,0,.35.79-.07,1.58,0,2.38-.08A.19.19,0,0,0,117.87,49.85Z"/><path class="cls-2" d="M187.32,45.69c-11.1-.84-22.18,1.17-33.29,1.14a.08.08,0,0,0,0,.15c11.12.23,22.17-1.47,33.29-.9C187.58,46.1,187.58,45.71,187.32,45.69Z"/><path class="cls-2" d="M195.44,47.58c-2.14-.38-4.3-.74-6.45-1-.26,0-.37.34-.11.39,2.14.37,4.27.84,6.42,1.16C195.63,48.14,195.78,47.64,195.44,47.58Z"/><path class="cls-2" d="M199.32,48.67a9.55,9.55,0,0,0-1.3-.34c-.1,0-.17.13-.07.18a7.87,7.87,0,0,0,1.27.52C199.45,49.12,199.54,48.76,199.32,48.67Z"/><path class="cls-2" d="M200.67,49.14c-.18-.15-.44.11-.26.27a.45.45,0,0,0,.3.12.17.17,0,0,0,.08-.31Z"/><path class="cls-2" d="M117.55,4.64c0-.32-.38-.34-.53-.14-7.43,9.81-15.6,19.28-21.58,30.09a.17.17,0,0,0,0,.12c-.07.06-.12.13-.19.2-.27.3.18.75.45.45,2.32-2.58,4.57-5.2,6.86-7.79s4.74-4.89,6.8-7.59a65.46,65.46,0,0,0,5-7.94C115.68,9.67,117.24,7.4,117.55,4.64Zm-9.43,15.93c-2,2.45-4.32,4.67-6.43,7.05-1.76,2-3.5,4-5.28,6,6-9.9,13.8-18.43,20.42-27.87-.54,2.49-2.22,4.69-3.41,6.88A51.53,51.53,0,0,1,108.12,20.57Z"/><path class="cls-2" d="M134.78,5.55c-2,2.4-4.19,4.68-6.19,7.09a63.53,63.53,0,0,0-5.18,7.45,67.81,67.81,0,0,1-5.62,8.12l0,0a26,26,0,0,0-4,5.39.3.3,0,0,0,0,.34c-.08.19-.16.37-.23.57s.19.25.25.11l.28-.56a.26.26,0,0,0,.21-.15c1.62-3,4.07-5.4,6.44-7.81,2.09-2.13,4.06-4.38,6.13-6.54,3.74-3.89,7.9-8.19,8.47-13.81A.31.31,0,0,0,134.78,5.55Zm-9.74,15c-1.3,1.35-2.58,2.72-3.86,4.08.84-1.22,1.63-2.48,2.41-3.74A73.81,73.81,0,0,1,129,13.07c1.77-2.18,3.72-4.21,5.55-6.35C133.65,12.33,128.79,16.67,125,20.56Z"/><path class="cls-2" d="M153.19,8.71c-3.54,3.45-5.88,8-8.94,11.85-2.8,3.52-5.69,7-8.16,10.72-.47.57-.93,1.16-1.36,1.77-.23.33.31.64.53.32,5.67-8.14,17.57-13.55,18.46-24.44A.31.31,0,0,0,153.19,8.71ZM145,22.43c-2.41,2.37-5,4.58-7.35,7.05,2.2-2.93,4.64-5.69,7-8.52,2.94-3.58,5.2-7.75,8.36-11.14C152.29,14.92,148.58,19,145,22.43Z"/><path class="cls-2" d="M156,32.29c3.24-3.61,6.39-7.3,9.39-11.11,2.08-2.65,4.36-5.63,4.7-9.09a.3.3,0,0,0-.51-.21c-4.9,5.78-8.55,12.58-12.93,18.77-.36.41-.71.82-1.07,1.22S155.73,32.58,156,32.29Zm13.36-19.16c-.6,3.26-3.27,6.25-5.24,8.72-1.11,1.39-2.26,2.76-3.42,4.12C163.64,21.74,166.23,17.21,169.35,13.13Z"/><path class="cls-2" d="M176.48,31.89c2.13-3,5.06-5.36,7.43-8.14,1.93-2.27,3.85-5,3.43-8.12a.28.28,0,0,0-.42-.17c-5,3.54-6.94,10-10.13,15.06-.29.35-.57.7-.83,1.07S176.26,32.21,176.48,31.89Zm10.38-15.63c.32,3.21-2.57,6.29-4.54,8.45-1.3,1.42-2.73,2.75-4.06,4.15C180.91,24.49,183,19.67,186.86,16.26Z"/></g></svg>