<svg xmlns="http://www.w3.org/2000/svg" viewBox="0 0 126.28 89.51"><defs><style>.cls-1{fill:#fff;}.cls-2{fill:#272525;}</style></defs><title>life</title><g id="stroke"><path class="cls-1" d="M36.65,15.36a6.7,6.7,0,0,0,4.42-2.14,5,5,0,0,0,1-4.71A41.78,41.78,0,0,0,30.18,9.83a8.14,8.14,0,0,1,3.34.85C35,11.46,36.09,13.75,36.65,15.36Z"/><path class="cls-1" d="M42.22,77.35a5.84,5.84,0,0,1-.31,2.46c-1,2.72-3.14,4.21-4.93,6.43A9.8,9.8,0,0,1,35.32,88a55.91,55.91,0,0,0,13.74-1.71c.11-.81.75-4.18.75-4.22C49.35,78,46,77.31,42.22,77.35Z"/><path class="cls-1" d="M40.05,81c1.34-2.57,1.46-7.15-2.74-6.18-.67.16-1.15-.83-.48-1.14,2.44-1.15,5.18-2.61,5-5.8-.17-4-3.7-4.38-6.86-4.3-.59,0-.92-.93-.32-1.19,3.59-1.54,8.92-4,7.36-8.92-1.34-4.23-4.11-4-7.63-4.61-.67-.12-.5-1,0-1.2,5.12-2.05,9.22-6.06,7.49-12.07-.61-2.09-1.75-4.46-3.79-5.54s-3.28-.82-5.18-1.23a.58.58,0,0,1-.34-.85c.53-.89,1.43-1.26,2.09-2A9,9,0,0,0,36.32,18a15.71,15.71,0,0,0-2.2-5.32c-1.81-2.57-4.52-2.07-7-1.85,0,0,0,0-.05,0-7.56,2.78-14.64,7.62-19.18,14.36C2.58,33.1.71,43.06,1.63,52.5,2.47,61.22,6.15,71.16,11.82,78c5.54,6.63,13.15,9.47,21.27,10-.2-.52.18-1.23.82-1C34.7,87.25,39.65,81.73,40.05,81ZM17.14,32.35c-.76.23-1.62-.74-1.13-1.43a1,1,0,0,1,.23-.71.86.86,0,0,1,1.16,0C18.06,30.79,18,32.1,17.14,32.35Z"/><path class="cls-1" d="M49.3,22.67a8.73,8.73,0,0,0-5.59-6.16c-1.27-.39-5.32-1.28-6.33.37a.22.22,0,0,1-.23.12,10.86,10.86,0,0,1,.23,6.15A8.72,8.72,0,0,1,36.08,26c-.53.63-1.34,1.18-1.95,1.81,2.7.52,4.62.72,6.76,3.05a10.4,10.4,0,0,1,2.46,5.89C49.06,35,50.82,27.89,49.3,22.67Z"/><path class="cls-1" d="M52.53,46.71c-.37-4-3.18-8.62-7.4-9a10.14,10.14,0,0,1-1.62.65h-.14C43.23,43,40.78,45.82,37,47.82a5.59,5.59,0,0,1,3.87,1.29,7.88,7.88,0,0,1,2.64,5,7.79,7.79,0,0,1,0,1.19,8.71,8.71,0,0,1,2.46-.29C49.49,54.05,52.88,50.54,52.53,46.71Z"/><path class="cls-1" d="M39.91,73.35a1.91,1.91,0,0,1,1.57,1.06A10.06,10.06,0,0,1,42,75.93a.42.42,0,0,1,.16,0c5.77-.48,11.06-4.82,11.06-10.64,0-4.27-2.66-8.37-6.77-8.71a8.92,8.92,0,0,1-2.92.32.85.85,0,0,1-.34-.1c-.76,2.64-3,4.32-5.56,5.64,2.64.34,5.33,1.45,5.46,4.55A6.75,6.75,0,0,1,39.91,73.35Z"/><path class="cls-1" d="M124.73,31.06l0,0,0,.06a.64.64,0,0,1-.49.19c-7.52,2.22-15,7.93-20.15,13.76a.23.23,0,0,1,.13.11l0,0c4.45-2,9.39-2.57,13.94-4.27a.64.64,0,0,0,0-.07c1.11-2.47,3.06-3.9,4.77-5.94A8.86,8.86,0,0,0,124.73,31.06Z"/><path class="cls-1" d="M117.83,42.36c-4.23,1.51-8.84,1.94-13.07,3.56a18.69,18.69,0,0,0,3.16,1.78,31.88,31.88,0,0,0,5.63,2.35,50.48,50.48,0,0,0,9.72,2c-.56-2.47-2.27-4.42-3.89-6.37A5.57,5.57,0,0,1,117.83,42.36Z"/><path class="cls-1" d="M112.28,36.25c3.55-2.56,7.51-5.06,11.76-6.28a.61.61,0,0,1,.62.15c-.19-.62-.72-1-1.8-1.05a11.05,11.05,0,0,0-3.51.51c-7.46,2.32-14.08,7.07-15.49,15C105.86,41.29,109.22,38.46,112.28,36.25Z"/><path class="cls-1" d="M104,46.22l-.3.13-.09,0a.75.75,0,0,1,0,.55l-.19.45A16.53,16.53,0,0,0,110.55,54a19.09,19.09,0,0,0,5.65,2.06c2,.29,7.29.63,7.26-2.61a.71.71,0,0,1-.15,0,41.2,41.2,0,0,1-12.18-3C109.43,49.68,105.28,48.18,104,46.22Z"/><path class="cls-1" d="M97.86,40.06c-1.71-1.65-3.46-3.25-5.29-4.78-3.83-3.2-8-5.89-11.91-9C77.83,24,75,21.69,72.15,19.5a.7.7,0,0,1-.94-.72C70,17.86,68.7,17,67.41,16.12a.65.65,0,0,1-.43-.28c-.85-.54-1.71-1.06-2.59-1.56a.6.6,0,0,1-.91-.5A37.56,37.56,0,0,0,55,10.41,59.11,59.11,0,0,0,43.28,8.55,6.27,6.27,0,0,1,40.68,15a9.84,9.84,0,0,1,2.43.2,10.1,10.1,0,0,1,7.17,6.07c2.24,5.22.75,12.4-4,15.67,4.2.86,7.63,5.5,7.62,9.75a10.57,10.57,0,0,1-5.26,8.88,9.22,9.22,0,0,1,6,8.6c0,3.29-.33,6.17-2.66,8.75a12.8,12.8,0,0,1-4.84,3.35c2.47.74,4.36,2.42,4.09,5.77a20.26,20.26,0,0,1-.52,3.77,73.3,73.3,0,0,0,11.53-4.24A120.63,120.63,0,0,0,85.12,68.27,53.82,53.82,0,0,0,101.71,47.2l.08-.16c.14-.31.29-.6.42-.91a.6.6,0,0,1,.58-.39C102,43.66,99.35,41.49,97.86,40.06Z"/><path class="cls-2" d="M122.7,37.23c1.77-1.78,4.52-4.87,3.27-7.67-1.12-2.49-4.23-2-6.4-1.48C112,29.9,103.44,36,103,44.33c-1.25-2.2-3.72-4.24-5.26-5.81A103.91,103.91,0,0,0,87,29.28c-4.75-3.62-9.26-7.46-14-11,.21-.35.44-.69.64-1s.35-.58.55-.87.23-.48.43-.62c.53-.39,0-1.27-.53-.9a4.11,4.11,0,0,0-1,1.18c-.38.49-.73,1-1.09,1.52-1.16-.83-2.34-1.63-3.54-2.41A9.14,9.14,0,0,1,69,13.66a2.81,2.81,0,0,0,.42-1.93c-.1-.49-.87-.37-.86.12a3.47,3.47,0,0,1-.83,1.79,5,5,0,0,0-.46.85c-.72-.44-1.45-.86-2.19-1.28a7.43,7.43,0,0,0,1.26-4.08c0-.39-.67-.55-.74-.1a6.67,6.67,0,0,1-.82,2.34c-.23.42-.51.81-.77,1.21h0a44.23,44.23,0,0,0-5.09-2.36,5.62,5.62,0,0,1,.47-1.51A5.43,5.43,0,0,0,59.84,6c-.07-.48-.87-.37-.84.11A5.66,5.66,0,0,1,58.11,9a4.73,4.73,0,0,0-.36.83c-1.31-.47-2.64-.88-4-1.22,0,0,0-.05,0-.07.1-.86.21-1.71.31-2.56A2.86,2.86,0,0,0,54,4.18c-.17-.32-.75-.09-.6.25a3.06,3.06,0,0,1-.15,1.71c-.16.72-.36,1.43-.56,2.14a45.93,45.93,0,0,0-5.07-.88,27.67,27.67,0,0,0-.15-3.29c0-.5.14-1.72-.35-2.1s-.89.19-.53.53a2.9,2.9,0,0,1,0,.78c0,.51-.05,1-.08,1.54,0,.78-.15,1.61-.12,2.41a47.72,47.72,0,0,0-5.48-.21c-.06-1.86-.08-3.74-.28-5.59a.32.32,0,0,0-.64,0c-.2,1.87-.22,3.77-.28,5.65-1.54.07-3.08.2-4.61.42a.6.6,0,0,0,0-.65A15.46,15.46,0,0,1,33.63.36a.37.37,0,0,0-.74,0,21.73,21.73,0,0,0,1,7,.67.67,0,0,0,.22.31,45.82,45.82,0,0,0-4.65,1A4.71,4.71,0,0,0,29,6.59c-.5-1.43-1.15-2.82-1.68-4.24-.14-.36-.7-.22-.59.16.38,1.29.73,2.59,1.07,3.89A16.54,16.54,0,0,0,28.48,9,43.12,43.12,0,0,0,18.1,13.62C3.94,22.38-1.62,38.58.4,54.67c1,7.58,4.34,15.49,8.51,21.86a28.44,28.44,0,0,0,7.57,7.8l.48.3a27.12,27.12,0,0,0,6.19,3l1.58.45c.44.12.86.26,1.31.36a51.08,51.08,0,0,0,22.88-.55,1.14,1.14,0,0,0,.79-.2,81.21,81.21,0,0,0,20-8.16c3.36-1.9,6.68-3.48,9.94-5.6a60.14,60.14,0,0,0,9.71-7.2c2.83-2.79,6-5.38,8.28-8.64a53.7,53.7,0,0,0,5-9,19.84,19.84,0,0,0,8.1,6.71c3.93,1.95,8.28,2.68,12.37.87,2.63-1.17,1.8-4.84,1-6.82a16.67,16.67,0,0,0-2.49-3.9c-1.35-1.68-2.69-3.51-1.47-5.84A13.75,13.75,0,0,1,122.7,37.23ZM42,8.51a5,5,0,0,1-1,4.71,6.7,6.7,0,0,1-4.42,2.14c-.56-1.61-1.69-3.9-3.13-4.68a8.14,8.14,0,0,0-3.34-.85A41.78,41.78,0,0,1,42,8.51ZM37.63,62.4c2.58-1.32,4.8-3,5.56-5.64a.85.85,0,0,0,.34.1,8.92,8.92,0,0,0,2.92-.32c4.11.34,6.76,4.44,6.77,8.71,0,5.82-5.29,10.16-11.06,10.64a.42.42,0,0,0-.16,0,10.06,10.06,0,0,0-.52-1.52,1.91,1.91,0,0,0-1.57-1.06A6.75,6.75,0,0,0,43.09,67C43,63.85,40.27,62.74,37.63,62.4Zm8.26-7.34a8.71,8.71,0,0,0-2.46.29,7.79,7.79,0,0,0,0-1.19,7.88,7.88,0,0,0-2.64-5A5.59,5.59,0,0,0,37,47.82c3.83-2,6.28-4.86,6.42-9.49h.14a10.14,10.14,0,0,0,1.62-.65c4.22.42,7,5,7.4,9C52.88,50.54,49.49,54.05,45.89,55.06ZM43.35,36.78a10.4,10.4,0,0,0-2.46-5.89c-2.14-2.33-4.06-2.53-6.76-3.05.61-.63,1.42-1.18,1.95-1.81a8.72,8.72,0,0,0,1.3-2.88A10.86,10.86,0,0,0,37.15,17a.22.22,0,0,0,.23-.12c1-1.65,5.06-.76,6.33-.37a8.73,8.73,0,0,1,5.59,6.16C50.82,27.89,49.06,35,43.35,36.78ZM33.91,86.93c-.64-.25-1,.46-.82,1C25,87.42,17.36,84.58,11.82,78,6.15,71.16,2.47,61.22,1.63,52.5c-.92-9.44,1-19.4,6.28-27.31,4.54-6.74,11.62-11.58,19.18-14.36,0,0,0,0,.05,0,2.46-.22,5.17-.72,7,1.85A15.71,15.71,0,0,1,36.32,18a9,9,0,0,1-1.63,7.89c-.66.78-1.56,1.15-2.09,2a.58.58,0,0,0,.34.85c1.9.41,3.22.2,5.18,1.23s3.18,3.45,3.79,5.54c1.73,6-2.37,10-7.49,12.07-.5.2-.67,1.08,0,1.2,3.52.62,6.29.38,7.63,4.61,1.56,4.9-3.77,7.38-7.36,8.92-.6.26-.27,1.21.32,1.19,3.16-.08,6.69.34,6.86,4.3.14,3.19-2.6,4.65-5,5.8-.67.31-.19,1.3.48,1.14,4.2-1,4.08,3.61,2.74,6.18C39.65,81.73,34.7,87.25,33.91,86.93Zm15.15-.65A55.91,55.91,0,0,1,35.32,88,9.8,9.8,0,0,0,37,86.24c1.79-2.22,3.92-3.71,4.93-6.43a5.84,5.84,0,0,0,.31-2.46c3.78,0,7.13.67,7.59,4.71C49.81,82.1,49.17,85.47,49.06,86.28Zm53.15-40.15c-.13.31-.28.6-.42.91l-.08.16A53.82,53.82,0,0,1,85.12,68.27,120.63,120.63,0,0,1,62.29,81.59a73.3,73.3,0,0,1-11.53,4.24,20.26,20.26,0,0,0,.52-3.77c.27-3.35-1.62-5-4.09-5.77A12.8,12.8,0,0,0,52,72.94c2.33-2.58,2.66-5.46,2.66-8.75a9.22,9.22,0,0,0-6-8.6A10.57,10.57,0,0,0,54,46.71c0-4.25-3.42-8.89-7.62-9.75,4.7-3.27,6.19-10.45,4-15.67a10.1,10.1,0,0,0-7.17-6.07,9.84,9.84,0,0,0-2.43-.2,6.27,6.27,0,0,0,2.6-6.47A59.11,59.11,0,0,1,55,10.41a37.56,37.56,0,0,1,8.45,3.37.6.6,0,0,0,.91.5c.88.5,1.74,1,2.59,1.56a.65.65,0,0,0,.43.28c1.29.84,2.55,1.74,3.8,2.66a.7.7,0,0,0,.94.72C75,21.69,77.83,24,80.66,26.28c3.89,3.11,8.08,5.8,11.91,9,1.83,1.53,3.58,3.13,5.29,4.78,1.49,1.43,4.12,3.6,4.93,5.68A.6.6,0,0,0,102.21,46.13Zm17.14-16.55a11.05,11.05,0,0,1,3.51-.51c1.08,0,1.61.43,1.8,1.05A.61.61,0,0,0,124,30c-4.25,1.22-8.21,3.72-11.76,6.28-3.06,2.21-6.42,5-8.42,8.32C105.27,36.65,111.89,31.9,119.35,29.58Zm4.11,23.89c0,3.24-5.3,2.9-7.26,2.61A19.09,19.09,0,0,1,110.55,54a16.53,16.53,0,0,1-7.18-6.65l.19-.45a.75.75,0,0,0,0-.55l.09,0,.3-.13c1.3,2,5.45,3.46,7.15,4.21a41.2,41.2,0,0,0,12.18,3A.71.71,0,0,0,123.46,53.47ZM123.27,52a50.48,50.48,0,0,1-9.72-2,31.88,31.88,0,0,1-5.63-2.35,18.69,18.69,0,0,1-3.16-1.78c4.23-1.62,8.84-2.05,13.07-3.56a5.57,5.57,0,0,0,1.55,3.29C121,47.6,122.71,49.55,123.27,52ZM118.12,40.9a.64.64,0,0,1,0,.07c-4.55,1.7-9.49,2.25-13.94,4.27l0,0a.23.23,0,0,0-.13-.11c5.14-5.83,12.63-11.54,20.15-13.76a.64.64,0,0,0,.49-.19l0-.06,0,0a8.86,8.86,0,0,1-1.84,3.9C121.18,37,119.23,38.43,118.12,40.9Z"/><path class="cls-2" d="M16.24,30.21a1,1,0,0,0-.23.71c-.49.69.37,1.66,1.13,1.43s.92-1.56.26-2.14A.86.86,0,0,0,16.24,30.21Z"/></g></svg>