<svg xmlns="http://www.w3.org/2000/svg" viewBox="0 0 189.59 128.71"><defs><style>.cls-1{fill:#fff;}.cls-2{fill:#272525;}.cls-3{fill:none;}</style></defs><title>life</title><g id="color"><path class="cls-1" d="M148.89,121.76a98.4,98.4,0,0,1-12.46,1.67C137.65,130.09,148.3,127.77,148.89,121.76Z"/><path class="cls-1" d="M135.81,123.47c-4.31.3-8.64.39-13,.39C124.12,129.67,133.54,128.19,135.81,123.47Z"/><path class="cls-1" d="M61.06,67.41c-1.8,3,1.48,5.79,4.25,6.65,0-1.08.12-2.16.15-3.24a12.4,12.4,0,0,0-.56-5.07C64,63.63,61.65,66.43,61.06,67.41Z"/><path class="cls-1" d="M78.45,48.55a5.62,5.62,0,0,0-.26,4.09A3.5,3.5,0,0,0,81.59,55c0-1.49.34-3.51.44-4.92.06-.77.13-1.55.2-2.32,0-.06.11-1,.1-1a3.87,3.87,0,0,0-.67-.17A3.08,3.08,0,0,0,78.45,48.55Z"/><path class="cls-1" d="M85.26,34.34q.09-2.16.27-4.32c.07-.74.14-1.48.23-2.23,0-.36.38-1.57,0-1.67a3.25,3.25,0,0,0-3.68,1.57,4.77,4.77,0,0,0-.42,3.92A4.25,4.25,0,0,0,85.26,34.34Z"/><path class="cls-1" d="M67.77,97.36c0,2.29,1.66,5,4.2,4.93-.25-3.31,0-6.64-.33-10A4.71,4.71,0,0,0,67.77,97.36Z"/><path class="cls-1" d="M97.09,128.71c2.77.07,4.31-2.62,5.3-5-4.32,0-8.64-.15-13-.34A9.34,9.34,0,0,0,97.09,128.71Z"/><path class="cls-1" d="M112.57,9.69c6-.22,12.07-.61,18.11-.47,1,0,1.93.06,2.89.11C133.38,4,126.7.7,122.13.1A10.78,10.78,0,0,0,114,2.25a8,8,0,0,0-2.73,7.48Z"/><path class="cls-1" d="M77.73,122.5a7.15,7.15,0,0,0,5.19,4.86c3,.69,5.07-1.33,5.68-4L86,123.19C83.23,123,80.47,122.82,77.73,122.5Z"/><path class="cls-1" d="M90.68,9.91c-2-6.2-14-6.07-14.32.94,4.76-.45,9.55-.64,14.33-.74C90.69,10,90.68,10,90.68,9.91Z"/><path class="cls-1" d="M110.69,9.75c-.67-4.38-5.26-6.44-9.28-6.7a9.75,9.75,0,0,0-5.66,1.21c-2,1.21-4.59,3.28-4.56,5.84L96.71,10C101.37,10,106,9.89,110.69,9.75Z"/><path class="cls-1" d="M88,79.58a57,57,0,0,1,.29-8.86C83.39,70.55,83.25,79,88,79.58Z"/><path class="cls-1" d="M64.9,12.54A100.74,100.74,0,0,1,75.85,10.9c-.26-1.55-1.79-2.46-3.1-3.09a10.51,10.51,0,0,0-4.85-.93c-3.62.12-6.72,2.79-6.5,6.47C62.56,13.05,63.73,12.78,64.9,12.54Z"/><path class="cls-1" d="M72.68,124.85a5.22,5.22,0,0,0,3.91-2.48c-2.35-.3-4.7-.67-7-1.13C69.77,123,70.59,124.88,72.68,124.85Z"/><path class="cls-1" d="M.39,46.73v0l1.21,0Z"/><path class="cls-1" d="M60.89,13.48c0-.17,0-.34,0-.51-2-5.08-11.87-1.24-9.63,3.87A63,63,0,0,1,60.89,13.48Z"/><path class="cls-1" d="M103.86,123.72c2.73,6.62,15,6.64,18,.14l-3.38,0C113.59,123.78,108.73,123.77,103.86,123.72Z"/><path class="cls-1" d="M127,75.94c-2.93.17-4.67,2.82-4.87,5.64a5.69,5.69,0,0,0,5.2,6.39A94.64,94.64,0,0,1,127,75.94Z"/><path class="cls-1" d="M113.34,103.33c-1.94-.38-3.14,1.58-3.38,3.46a4.78,4.78,0,0,0,.61,3.1,3.49,3.49,0,0,0,3.19,1.44A39,39,0,0,1,113.34,103.33Z"/><path class="cls-1" d="M108.11,40.38v0a44.5,44.5,0,0,0,.35-7.57.14.14,0,0,1,.08-.13C104.33,31.08,101.93,40.88,108.11,40.38Z"/><path class="cls-1" d="M132.38,105.83a3.93,3.93,0,0,0-1.44,1.78,7,7,0,0,0-.28,5.09c.65,2,2.34,2.68,4.28,2.57a.22.22,0,0,1,.14,0c.18-3.23-.42-6.44-.63-9.65C134.41,105.07,132.7,105.64,132.38,105.83Z"/><path class="cls-1" d="M98.67,95.32c.45-2.79.16-5.85.33-8.67C94.36,86.92,93.61,95.21,98.67,95.32Z"/><path class="cls-1" d="M124.46,34.16c-.78,3.29,1.89,6,4.42,7.6-.1-4.39.19-8.82.24-13.21C126.54,28.74,125,32,124.46,34.16Z"/><path class="cls-1" d="M108.49,55.86a7,7,0,0,0-4,6.69,8.59,8.59,0,0,0,4.08,7.14C109.75,65.24,108.34,60.35,108.49,55.86Z"/><path class="cls-1" d="M134.21,65.93a4.79,4.79,0,0,0,0,2.95A2.91,2.91,0,0,0,137,70.62a28.72,28.72,0,0,0,.65-7.33C136,62.42,134.67,64.36,134.21,65.93Z"/><path class="cls-1" d="M186.79,40.51C182.62,31.9,173.65,26.6,166.28,21c-2-1.49-8.73-4.4-10.89-5.6a61.77,61.77,0,0,1-8.63-3.13,36.72,36.72,0,0,0-8.89-2.07,111.24,111.24,0,0,0-18.16-.33c-5.55.23-11.1.46-16.66.55-5.33.08-10.66.1-16,.28-8.65.28-17.39,1-25.77,3.18h0q-3,.78-6,1.84c-1.33.48-2.65,1-4,1.58a.26.26,0,0,1-.27.13,42.54,42.54,0,0,0-9.61,5.76c-3,2.47-5.36,5.71-7.66,8.83-4.22,5.72-9,12.24-16.72,12.59-3.53.16-7.06-1-10.49-1.68-2-.4-4.2-.73-5.35,1.21l.64.09a17.77,17.77,0,0,1,1.79-.17A.14.14,0,0,1,3.81,44a76.89,76.89,0,0,1,12,1c.13,0,.07.21-.05.18-1.33-.24-2.66-.39-4-.51,2.5.34,5,.78,7.45,1.18.16,0,.09.27-.06.24-3.06-.46-6.11-1-9.18-1.31a41.23,41.23,0,0,0-6-.17c4.84.61,9.71,1,14.52,1.76.1,0,.06.17,0,.15C13,45.66,7.39,45.56,1.88,44.69l-.78.06A.13.13,0,0,1,1,44.69a8.61,8.61,0,0,0-.5,1.61c2.28.11,4.55.35,6.82.58,3.8,0,7.59,0,11.38.2.17,0,.18.29,0,.28-2.42-.12-4.84-.12-7.26-.09A49,49,0,0,1,21.47,49c.11,0,.07.2,0,.17a50.56,50.56,0,0,0-10.67-1.59c-1-.07-2.11-.16-3.16-.25-2.43,0-4.85,0-7.28-.16,0,.29-.07.58-.1.87,6.24.44,12.45.88,18.72.91a.14.14,0,0,1,0,.27A180.81,180.81,0,0,1,.18,48.44c0,.18,0,.36,0,.53s0,.91-.06,1.8c3.94.46,8,.74,12,.83,3.65.09,7.34-.26,10.89.77a.15.15,0,0,1-.08.28c-3.62-1-7.43-.62-11.15-.69-1.95,0-3.9-.2-5.84-.34S2,51.42.06,51.17c0,.4,0,.83,0,1.31,6.42.4,12.81.34,19.24.18a.12.12,0,0,1,0,.24,162.58,162.58,0,0,1-18.47,0c6.83,1.28,14.06-.88,20.74,1.29a.13.13,0,0,1-.07.25C14.54,52.28,7.05,54.89,0,53.18c0,.52,0,1.06,0,1.63,1.82.21,3.6.44,5.44.49s3.8,0,5.7-.1a47.21,47.21,0,0,1,11.33.55c.12,0,.07.2,0,.18a52.26,52.26,0,0,0-11.66-.37c-3.51.15-7.3.43-10.76-.39,0,.42,0,.84,0,1.28,6,.2,12,.2,18,.23a.11.11,0,1,1,0,.21c-6,0-12,.23-18-.06,0,.8,0,1.63,0,2.49,3.25.25,6.48.42,9.75.42,3.47,0,6.94-.07,10.41.1.17,0,.17.28,0,.27-3.47-.15-6.94-.07-10.41,0A66.15,66.15,0,0,1,0,59.69v.69c3.69-.07,7.38-.05,11.07-.1s7.68-.48,11.5.12c.15,0,.08.25-.07.23-3.79-.58-7.62-.11-11.43,0s-7.38.22-11.07.17V63c7.06-.19,14.19-.16,21.25.12.16,0,.16.26,0,.26-7.09-.23-14.17.15-21.25,0v.12c3.08,0,6.16,0,9.24-.07a101.86,101.86,0,0,1,11.46.26c.16,0,.16.26,0,.25a99.53,99.53,0,0,0-11.06-.18C6.45,63.8,3.21,64,0,63.9c0,.57,0,1.14,0,1.71a109.38,109.38,0,0,1,21.1.16c.14,0,.14.23,0,.22a122.4,122.4,0,0,0-18.76-.18c5.91.28,11.85.07,17.74.71.13,0,.13.21,0,.2-6.5-.62-13-.2-19.53-.68a.14.14,0,0,1-.15-.12l-.4,0c0,.9,0,1.78,0,2.64,7,.19,13.94.37,20.89.86.12,0,.12.21,0,.2C14,69.23,7,69.23,0,68.92c0,.45,0,.88,0,1.31,7.62-.17,15.32-.26,22.91.29.13,0,.13.21,0,.21-7.64-.44-15.26,0-22.9-.13v.86c6.53.75,13.11.59,19.65,1.26.09,0,.09.16,0,.15C13.17,72.32,6.54,72.7.05,71.8c0,1,0,1.85,0,2.67,6,.6,12,.66,18,1.17a.07.07,0,0,1,0,.15c-6-.36-12.06-.3-18-1,0,1.86.06,3.31.1,4.06,2.84.36,5.69.27,8.55.4,3.49.15,7,.64,10.47.41.06,0,.06.09,0,.09a91.49,91.49,0,0,1-10.47-.23c-2.81-.12-5.72.16-8.52-.29v0a9.36,9.36,0,0,0,.16,1c6.88-.13,13.78.23,20.65.36a.09.09,0,0,1,0,.17c-6.85,0-13.71,0-20.56-.19,0,.14.09.28.13.41,6.77.07,13.52.82,20.3.85a.07.07,0,0,1,0,.13c-6.71.14-13.46-.27-20.16-.63a2.93,2.93,0,0,0,1.31,1.45,6.45,6.45,0,0,0,3.67.07c3.39-.53,6.73-1.14,10.13-.25,3.85,1,7.11,3.62,9.9,6.35C32,95.14,36.47,102.9,43.17,108.63c7.41,6.33,16.53,10,26,12a.28.28,0,0,1,.34.08l2,.38c1.81.33,3.62.6,5.44.83l.14-.25a.27.27,0,0,1,.48.06l.06.27c3.68.44,7.39.7,11.1.85v0c0-.28.42-.21.49,0l0,.06c4.47.18,9,.22,13.4.26.12-.3.23-.59.33-.86s.44-.27.49,0a7.89,7.89,0,0,0,.21.87c6.12.06,12.25.24,18.38.24.06-.18.13-.37.18-.57a.26.26,0,0,1,.5.07c0,.17,0,.34.05.5,4.86,0,9.71-.14,14.55-.52a90.24,90.24,0,0,0,14.9-2.41c-2.41-3.34-2.81-7.88-3.27-11.85-.28-2.5-.69-5-1-7.47-.42-3.3-.61-6.62-.73-9.93-.23-6.6-.23-13.19-.47-19.79s-.55-13.21-.48-19.82A113.59,113.59,0,0,1,147.32,37c0-.13.22-.07.2.06-1.79,13.23-.48,26.61-.15,39.89.16,6.61.13,13.24.62,19.84.23,3,.73,6,1.12,8.94.31,2.37.52,4.75.92,7.1a17,17,0,0,0,2.73,7.51,67.37,67.37,0,0,0,18-7.52c7.92-4.82,13.35-13.35,16.35-21.94S190.84,48.86,186.79,40.51ZM20.57,50.87c-6.7-.76-13.45-.09-20.15-.69-.22,0-.23-.36,0-.35,6.69.17,13.5,0,20.15.8C20.71,50.65,20.72,50.88,20.57,50.87Zm1.63,6.64c-7.09,0-14.22.76-21.31.28-.24,0-.25-.39,0-.38,7.11.16,14.2-.14,21.31-.13A.12.12,0,0,1,22.2,57.51Zm-4.41,4.85c-5.86,0-11.72.16-17.57-.11-.22,0-.22-.35,0-.34,5.85.25,11.71.08,17.57.29A.08.08,0,0,1,17.79,62.36ZM22.13,68A166.61,166.61,0,0,0,.35,67.81c-.22,0-.22-.33,0-.34a148,148,0,0,1,21.78.33C22.27,67.81,22.27,68,22.13,68ZM.28,73.09c-.2,0-.2-.32,0-.31,6.39.13,12.76.29,19.13.75.11,0,.11.17,0,.16C13.05,73.22,6.66,73.22.28,73.09Zm.28,2.69c6.36-.36,12.76.23,19.13.36a.05.05,0,0,1,0,.1C13.3,76.08,6.94,75.9.56,76.05.38,76.06.38,75.79.56,75.78ZM20.5,78.59c-3.18,0-6.36-.07-9.54-.09s-6.62.12-9.93.08a.15.15,0,0,1,0-.3c2.21-.17,4.44-.15,6.66-.11C5.4,78,3.1,77.83.83,77.62a.15.15,0,0,1,0-.29c6.18.15,12.32,1,18.52,1a.09.09,0,0,1,.06,0l1.09,0A.1.1,0,0,1,20.5,78.59Zm45.65-3.74a4.5,4.5,0,0,1-.51-.08.18.18,0,0,1-.34-.07h0c-2.68-.68-5.65-3.07-5.24-6A5.85,5.85,0,0,1,62.55,65a2,2,0,0,1,2-.44c1.47.63,1.36,3.54,1.38,4.8,0,1.62-.17,3.22-.25,4.83l.55.12C66.56,74.33,66.48,74.89,66.15,74.85Zm6.1,27.83a.13.13,0,0,1-.23,0,4.35,4.35,0,0,1-3.42-1.51,6.24,6.24,0,0,1-1.36-3.66,5.16,5.16,0,0,1,4.61-5.72.24.24,0,0,1,.24.24c.3,3.42,0,6.85.16,10.28A.23.23,0,0,1,72.25,102.68ZM81,29.4c.4-2.67,2.65-4.56,5.35-3.66a.26.26,0,0,1,.18.32,70.93,70.93,0,0,0-.88,8.36c.21.14.11.59-.18.55A4.87,4.87,0,0,1,81,29.4Zm.67,26.17c-6.52,0-4.76-11.45,1-9.19.1,0,.2.12.18.23-.32,2.62-.84,6-.93,8.6A.27.27,0,0,1,81.62,55.57Zm6.65,24.28s0,0,0,0a.22.22,0,0,1-.26.24c-5.51-.69-5.28-10.51.54-9.87.12,0,.26.1.24.24C88.38,73.6,88.43,76.72,88.27,79.85Zm10.8,15.8a.19.19,0,0,1-.21.16.29.29,0,0,1-.14,0c-5.92.11-4.88-10.27.44-9.49a.1.1,0,0,1,.09.08s0,0,0,0C99.2,89.46,99.62,92.73,99.07,95.65ZM109,32.52c.16.08,0,.31-.14.24l0,0s0,0,0,0a51.76,51.76,0,0,1-.25,7.68.18.18,0,0,1-.07.12.29.29,0,0,1-.25.34C101,41.67,104,29.79,109,32.52Zm-.48,37.69a.24.24,0,0,1-.13,0c-5.46-3.14-6.12-12.39.36-14.75.17-.06.28.21.12.28l-.11,0a.12.12,0,0,1,0,.09,54.77,54.77,0,0,0,.72,7.09,17.17,17.17,0,0,1-.57,7.26A.23.23,0,0,1,108.48,70.21Zm5.78,41.66c0,.24-.39.3-.42.06v-.05c-3,.1-4.76-2.26-4.36-5.16.26-1.91,1.83-4.5,3.89-3.74v-.06c0-.18.3-.19.29,0a1.09,1.09,0,0,0,0,.18,3.68,3.68,0,0,1,.45.28.09.09,0,0,1-.09.15l-.38-.14a42.7,42.7,0,0,0,.58,8,.28.28,0,0,1,0,.39Zm7.92-53c.38-1.85,2-3.37,3.9-2.81,0-.2.35-.19.36,0a31,31,0,0,1-.7,7.55.19.19,0,0,1-.27.13l-.09,0A4,4,0,0,1,122.18,58.88Zm5.34,30.4c0-.25-.07-.5-.1-.75-3.67-.27-5.93-3.17-5.8-6.78.11-3,2.17-6.15,5.4-6.14v-.24a.19.19,0,0,1,.37,0v.26h.08c.19,0,.2.31,0,.3h-.08A117.63,117.63,0,0,0,128,89.21C128,89.48,127.56,89.54,127.52,89.28Zm1.79-46.79v0a.21.21,0,0,1-.41,0v-.18c-3-1.53-5.64-4.87-4.87-8.32.46-2.1,2.43-6,5.09-5.75,0-.09,0-.18,0-.27a.12.12,0,0,1,.23,0v.31h0a.1.1,0,0,1,0,.19h0c0,4.49.12,9,0,13.51l0,0A.24.24,0,0,1,129.31,42.49Zm5.81,73.6s-.1,0-.09,0,0-.21,0-.31l0,0c-7.6,1-6.09-12.54-.28-10.66a.25.25,0,0,1,.18.23C135,108.86,136,112.63,135.12,116.09ZM138,63.52l-.06,0a32.49,32.49,0,0,1-.55,7.43.15.15,0,0,1-.07.1.23.23,0,0,1-.22.15c-3-.06-4.09-2.72-3.33-5.35.45-1.54,2.29-4.07,4-2.79a.16.16,0,0,1,.17.14h0l.19.19C138.2,63.44,138.11,63.59,138,63.52Zm38.34-14.58a7,7,0,0,1-7.29.74,5.71,5.71,0,0,1-2.74-6.74c1.59-5.44,9-5.57,11.3-.69a5.3,5.3,0,0,1,.43,1.35A5.88,5.88,0,0,1,176.35,48.94Z"/><path class="cls-1" d="M125.37,63.28a63.55,63.55,0,0,0,.71-7c-1.8-.52-3.11,1-3.48,2.69C122.12,61.14,123.42,62.7,125.37,63.28Z"/></g><g id="stroke"><path class="cls-2" d="M177.62,42.25c-2.27-4.88-9.71-4.75-11.3.69a5.71,5.71,0,0,0,2.74,6.74,7,7,0,0,0,7.29-.74,5.88,5.88,0,0,0,1.7-5.34A5.3,5.3,0,0,0,177.62,42.25Z"/><path class="cls-2" d="M22.2,57.28c-7.11,0-14.2.29-21.31.13-.25,0-.24.37,0,.38,7.09.48,14.22-.24,21.31-.28A.12.12,0,0,0,22.2,57.28Z"/><path class="cls-2" d="M22.13,67.8A148,148,0,0,0,.35,67.47c-.22,0-.22.35,0,.34A166.61,166.61,0,0,1,22.13,68C22.27,68,22.27,67.81,22.13,67.8Z"/><path class="cls-2" d="M19.41,73.53C13,73.07,6.67,72.91.28,72.78c-.2,0-.2.3,0,.31,6.38.13,12.77.13,19.13.6C19.52,73.7,19.52,73.53,19.41,73.53Z"/><path class="cls-2" d="M19.69,76.24a.05.05,0,0,0,0-.1C13.32,76,6.92,75.42.56,75.78c-.18,0-.18.28,0,.27C6.94,75.9,13.3,76.08,19.69,76.24Z"/><path class="cls-2" d="M20.5,78.4l-1.09,0a.09.09,0,0,0-.06,0c-6.2,0-12.34-.87-18.52-1a.15.15,0,0,0,0,.29c2.27.21,4.57.39,6.86.55-2.22,0-4.45-.06-6.66.11a.15.15,0,0,0,0,.3c3.31,0,6.62-.1,9.93-.08s6.36.07,9.54.09A.1.1,0,0,0,20.5,78.4Z"/><path class="cls-2" d="M17.79,62.2c-5.86-.21-11.72,0-17.57-.29-.22,0-.22.33,0,.34,5.85.27,11.71.06,17.57.11A.08.08,0,0,0,17.79,62.2Z"/><path class="cls-2" d="M182.65,33.8a83.7,83.7,0,0,0-27-18.83.23.23,0,0,0-.1,0c-4.3-1-8.11-3.35-12.4-4.32a58.76,58.76,0,0,0-9.34-1.27c.06-2.76-1.89-5-4-6.59a16.36,16.36,0,0,0-8.23-3.14c-2.9-.19-6.16.52-8.26,2.67a9,9,0,0,0-2.65,6c-1.21-3.62-5.55-5.5-9.2-5.7A10.08,10.08,0,0,0,95.13,4.1c-1.82,1.22-4,3-4.39,5.23-2.1-6.17-13.82-5.71-14.83.92a5.11,5.11,0,0,0-2.72-2.67A10.56,10.56,0,0,0,67.9,6.42c-3.49.21-6.6,2.39-7,5.78-2.2-4.56-12.65-.85-10.14,4.86l-.63.28A37.66,37.66,0,0,0,38.8,25a102.49,102.49,0,0,0-7.15,9.07c-2.28,3-4.78,6.14-8.08,8.1C19.92,44.34,16.1,44.39,12,43.61c-1.62-.31-3.22-.69-4.84-1a14,14,0,0,0-3.41-.43,3.56,3.56,0,0,0-3.09,2,.21.21,0,0,0-.12.25,7.11,7.11,0,0,0-.46,1.3,5.61,5.61,0,0,0-.07.59H-.19c-.28,0-.27.41,0,.43H0C0,47.06,0,47.49,0,48l-1.84-.14c-.23,0-.22.34,0,.37l1.83.2c0,.68,0,1.47-.07,2.33-.25,0-.24.35,0,.4,0,.42,0,.86,0,1.31l-1-.06c-.23,0-.23.34,0,.36l1,.09c0,.63,0,1.27,0,1.94-.18,0-.21.28,0,.32h0c0,.44,0,.88,0,1.32l-2.28-.08c-.2,0-.2.3,0,.31.76.06,1.52.1,2.28.14l0,2.49-.42,0c-.18,0-.22.29,0,.32l.46.06c0,.25,0,.49,0,.74H-1a.19.19,0,0,0,0,.37h.75c0,.74,0,1.48,0,2.2l-.45,0a.17.17,0,1,0,0,.33h.45v.12H-1.82a.18.18,0,0,0,0,.35c.51,0,1,.06,1.54.08,0,.59,0,1.17,0,1.74l-.17,0c-.21,0-.21.33,0,.32H-.3c0,.92,0,1.79,0,2.61H-.73c-.22,0-.22.32,0,.33l.42,0c0,.46,0,.91,0,1.33l-1.16,0a.16.16,0,0,0,0,.31H-.32c0,.29,0,.57,0,.83l-1-.13c-.19,0-.28.26-.08.29l1,.17c0,1.39,0,2.35,0,2.65v0l-.85-.08c-.17,0-.21.28,0,.3l.88.11a31.73,31.73,0,0,0,0,4l-.6-.09c-.2,0-.28.25-.09.3s.49.12.73.16a11.78,11.78,0,0,0,.24,1.32.24.24,0,0,0,0,.08c0,.07,0,.14,0,.21a3.67,3.67,0,0,0,1.82,2.52A5.8,5.8,0,0,0,5,83.53c3.43-.45,6.85-1.34,10.3-.49,4.12,1,7.56,3.74,10.49,6.71A125.5,125.5,0,0,1,34.47,100a60.39,60.39,0,0,0,8.83,9.39,53.31,53.31,0,0,0,13,7.83A67.33,67.33,0,0,0,69,121.13c.18,1.93,1.06,4.16,3.31,4.24a5.84,5.84,0,0,0,4.82-2.93A7.59,7.59,0,0,0,83.31,128c3,.43,5-1.58,5.72-4.25A10,10,0,0,0,92,127.21c1.4,1.06,3.31,2.13,5.14,2,3.16-.21,4.75-2.85,5.84-5.51h.38c2.71,7.29,16,7.3,19,.2,1.31,6.19,11,5,13.72.06,1.68,6.59,12.64,4.09,13.09-2.26,1.15-.24,2.29-.5,3.43-.79l.07.09c.18.21.45,0,.44-.22,9.64-2.52,19.47-6.88,26-14.65a47.78,47.78,0,0,0,10.75-24.78c.5-4.32.26-32.07-.89-36.29A26.87,26.87,0,0,0,182.65,33.8ZM114,2.25A10.78,10.78,0,0,1,122.13.1C126.7.7,133.38,4,133.57,9.33c-1-.05-1.93-.09-2.89-.11-6-.14-12.08.25-18.11.47l-1.33,0A8,8,0,0,1,114,2.25Zm-18.22,2a9.75,9.75,0,0,1,5.66-1.21c4,.26,8.61,2.32,9.28,6.7-4.66.14-9.32.21-14,.26l-5.52.09C91.16,7.54,93.75,5.47,95.75,4.26ZM90.68,9.91c0,.06,0,.13,0,.2-4.78.1-9.57.29-14.33.74C76.69,3.84,88.73,3.71,90.68,9.91Zm-22.78-3a10.51,10.51,0,0,1,4.85.93c1.31.63,2.84,1.54,3.1,3.09A100.74,100.74,0,0,0,64.9,12.54c-1.17.24-2.34.51-3.5.81C61.18,9.67,64.28,7,67.9,6.88Zm-7,6.09c0,.17,0,.34,0,.51a63,63,0,0,0-9.65,3.36C49,11.73,58.89,7.89,60.87,13ZM.39,46.73l1.2.08-1.21,0Zm72.29,78.12c-2.09,0-2.91-1.81-3.11-3.61,2.32.46,4.67.83,7,1.13A5.22,5.22,0,0,1,72.68,124.85Zm10.24,2.51a7.15,7.15,0,0,1-5.19-4.86c2.74.32,5.5.54,8.24.69l2.63.13C88,126,85.92,128.05,82.92,127.36Zm14.17,1.35a9.34,9.34,0,0,1-7.66-5.35c4.32.19,8.64.29,13,.34C101.4,126.09,99.86,128.78,97.09,128.71Zm6.77-5c4.87,0,9.73.06,14.58.11l3.38,0C118.84,130.36,106.59,130.34,103.86,123.72Zm19,.14c4.32,0,8.65-.09,13-.39C133.54,128.19,124.12,129.67,122.85,123.86Zm13.58-.43a98.4,98.4,0,0,0,12.46-1.67C148.3,127.77,137.65,130.09,136.43,123.43Zm50.69-32.6c-3,8.59-8.43,17.12-16.35,21.94a67.37,67.37,0,0,1-18,7.52,17,17,0,0,1-2.73-7.51c-.4-2.35-.61-4.73-.92-7.1-.39-3-.89-5.93-1.12-8.94-.49-6.6-.46-13.23-.62-19.84-.33-13.28-1.64-26.66.15-39.89,0-.13-.18-.19-.2-.06a113.59,113.59,0,0,0-1.07,14.62c-.07,6.61.24,13.22.48,19.82s.24,13.19.47,19.79c.12,3.31.31,6.63.73,9.93.32,2.49.73,5,1,7.47.46,4,.86,8.51,3.27,11.85a90.24,90.24,0,0,1-14.9,2.41c-4.84.38-9.69.51-14.55.52,0-.16,0-.33-.05-.5a.26.26,0,0,0-.5-.07c0,.2-.12.39-.18.57-6.13,0-12.26-.18-18.38-.24a7.89,7.89,0,0,1-.21-.87c0-.27-.42-.21-.49,0s-.21.56-.33.86c-4.45,0-8.93-.08-13.4-.26l0-.06c-.07-.21-.45-.28-.49,0v0c-3.71-.15-7.42-.41-11.1-.85l-.06-.27a.27.27,0,0,0-.48-.06l-.14.25c-1.82-.23-3.63-.5-5.44-.83l-2-.38a.28.28,0,0,0-.34-.08c-9.44-2-18.56-5.64-26-12C36.47,102.9,32,95.14,25.76,89c-2.79-2.73-6.05-5.33-9.9-6.35-3.4-.89-6.74-.28-10.13.25a6.45,6.45,0,0,1-3.67-.07A2.93,2.93,0,0,1,.75,81.39c6.7.36,13.45.77,20.16.63a.07.07,0,0,0,0-.13c-6.78,0-13.53-.78-20.3-.85,0-.13-.09-.27-.13-.41,6.85.16,13.71.18,20.56.19a.09.09,0,0,0,0-.17c-6.87-.13-13.77-.49-20.65-.36a9.36,9.36,0,0,1-.16-1v0c2.8.45,5.71.17,8.52.29a91.49,91.49,0,0,0,10.47.23c.06,0,.06-.1,0-.09-3.5.23-7-.26-10.47-.41-2.86-.13-5.71,0-8.55-.4,0-.75-.08-2.2-.1-4.06,6,.69,12,.63,18,1a.08.08,0,0,0,0-.15c-6-.51-12-.57-18-1.17,0-.82,0-1.72,0-2.67,6.49.9,13.12.52,19.64,1.07.09,0,.09-.14,0-.15C13.15,72.05,6.57,72.21,0,71.46V70.6c7.64.09,15.26-.31,22.9.13.13,0,.13-.2,0-.21C15.35,70,7.65,70.06,0,70.23c0-.43,0-.86,0-1.31,7,.31,13.93.31,20.89.72.12,0,.12-.19,0-.2C14,69,7,68.77,0,68.58c0-.86,0-1.74,0-2.64l.4,0A.14.14,0,0,0,.56,66c6.5.48,13,.06,19.53.68.13,0,.13-.18,0-.2-5.89-.64-11.83-.43-17.74-.71A122.4,122.4,0,0,1,21.11,66c.14,0,.14-.21,0-.22A109.38,109.38,0,0,0,0,65.61C0,65,0,64.47,0,63.9c3.21.09,6.45-.1,9.64-.18a99.53,99.53,0,0,1,11.06.18c.16,0,.16-.24,0-.25a101.86,101.86,0,0,0-11.46-.26c-3.08.06-6.16.07-9.24.07v-.12c7.08.17,14.16-.21,21.25,0,.16,0,.16-.25,0-.26C14.19,62.82,7.06,62.79,0,63V60.79c3.69.05,7.39-.08,11.07-.17s7.64-.57,11.43,0c.15,0,.22-.2.07-.23-3.82-.6-7.67-.17-11.5-.12s-7.38,0-11.07.1v-.69a66.15,66.15,0,0,0,9.75.38c3.47,0,6.94-.11,10.41,0,.17,0,.17-.26,0-.27-3.47-.17-6.94-.1-10.41-.1-3.27,0-6.5-.17-9.75-.42,0-.86,0-1.69,0-2.49,6,.29,12,.1,18,.06a.11.11,0,0,0,0-.21c-6,0-12,0-18-.23,0-.44,0-.86,0-1.28,3.46.82,7.25.54,10.76.39a52.26,52.26,0,0,1,11.66.37c.12,0,.17-.16,0-.18a47.21,47.21,0,0,0-11.33-.55c-1.9.06-3.8.14-5.7.1S1.84,55,0,54.81c0-.57,0-1.11,0-1.63,7,1.71,14.51-.9,21.45,1.29a.13.13,0,0,0,.07-.25c-6.68-2.17-13.91,0-20.74-1.29a162.58,162.58,0,0,0,18.47,0,.12.12,0,0,0,0-.24c-6.43.16-12.82.22-19.24-.18,0-.48,0-.91,0-1.31,1.9.25,3.86.3,5.78.45s3.89.3,5.84.34c3.72.07,7.53-.33,11.15.69a.15.15,0,0,0,.08-.28c-3.55-1-7.24-.68-10.89-.77-4-.09-8-.37-11.95-.83,0-.89,0-1.52.06-1.8s0-.35,0-.53a180.81,180.81,0,0,0,18.76.75.14.14,0,0,0,0-.27c-6.27,0-12.48-.47-18.72-.91,0-.29.06-.58.1-.87,2.43.16,4.85.18,7.28.16,1.05.09,2.11.18,3.16.25a50.56,50.56,0,0,1,10.67,1.59c.11,0,.15-.14,0-.17a49,49,0,0,0-10.06-1.7c2.42,0,4.84,0,7.26.09.18,0,.17-.27,0-.28-3.79-.21-7.58-.19-11.38-.2C5,46.65,2.75,46.41.47,46.3A8.61,8.61,0,0,1,1,44.69a.13.13,0,0,0,.13.06l.78-.06c5.51.87,11.12,1,16.63,1.79.1,0,.14-.13,0-.15-4.81-.8-9.68-1.15-14.52-1.76a41.23,41.23,0,0,1,6,.17c3.07.33,6.12.85,9.18,1.31.15,0,.22-.21.06-.24-2.48-.4-4.95-.84-7.45-1.18,1.34.12,2.67.27,4,.51.12,0,.18-.16.05-.18a76.89,76.89,0,0,0-12-1,.14.14,0,0,0-.15.15,17.77,17.77,0,0,0-1.79.17l-.64-.09C2.38,42.24,4.62,42.57,6.58,43c3.43.68,7,1.84,10.49,1.68,7.76-.35,12.5-6.87,16.72-12.59,2.3-3.12,4.63-6.36,7.66-8.83a42.54,42.54,0,0,1,9.61-5.76.26.26,0,0,0,.27-.13c1.31-.57,2.63-1.1,4-1.58q3-1.06,6-1.84h0c8.38-2.18,17.12-2.9,25.77-3.18,5.33-.18,10.66-.2,16-.28,5.56-.09,11.11-.32,16.66-.55a111.24,111.24,0,0,1,18.16.33,36.72,36.72,0,0,1,8.89,2.07,61.77,61.77,0,0,0,8.63,3.13c2.16,1.2,8.92,4.11,10.89,5.6,7.37,5.56,16.34,10.86,20.51,19.47C190.84,48.86,190.1,82.29,187.12,90.83Z"/><path class="cls-2" d="M20.57,50.63C13.92,49.8,7.11,50,.42,49.83c-.23,0-.22.33,0,.35,6.7.6,13.45-.07,20.15.69C20.72,50.88,20.71,50.65,20.57,50.63Z"/><path class="cls-2" d="M129.32,42c.16-4.49.07-9,0-13.51h0a.1.1,0,0,0,0-.19h0V28a.12.12,0,0,0-.23,0c0,.09,0,.18,0,.27C126.46,28,124.49,31.94,124,34c-.77,3.45,1.91,6.79,4.87,8.32v.18a.21.21,0,0,0,.41,0v0a.24.24,0,0,0,.05-.43Zm-.44-.28c-2.53-1.65-5.2-4.31-4.42-7.6.53-2.21,2.08-5.42,4.66-5.61C129.07,32.94,128.78,37.37,128.88,41.76Z"/><path class="cls-2" d="M127.48,75.93c.2,0,.19-.28,0-.3h-.08v-.26a.19.19,0,0,0-.37,0v.24c-3.23,0-5.29,3.09-5.4,6.14-.13,3.61,2.13,6.51,5.8,6.78,0,.25.06.5.1.75s.5.2.47-.07a117.63,117.63,0,0,1-.59-13.27Zm-5.34,5.65c.2-2.82,1.94-5.47,4.87-5.64a94.64,94.64,0,0,0,.33,12A5.69,5.69,0,0,1,122.14,81.58Z"/><path class="cls-3" d="M108.21,40.91a.29.29,0,0,0,.25-.34.18.18,0,0,0,.07-.12,51.76,51.76,0,0,0,.25-7.68s0,0,0,0l0,0c.16.07.3-.16.14-.24C104,29.79,101,41.67,108.21,40.91Z"/><path class="cls-3" d="M66.23,74.28l-.55-.12c.08-1.61.27-3.21.25-4.83,0-1.26.09-4.17-1.38-4.8a2,2,0,0,0-2,.44,5.85,5.85,0,0,0-2.49,3.71c-.41,2.94,2.56,5.33,5.24,6h0a.18.18,0,0,0,.34.07,4.5,4.5,0,0,0,.51.08C66.48,74.89,66.56,74.33,66.23,74.28Z"/><path class="cls-3" d="M72.09,92.06a.24.24,0,0,0-.24-.24,5.16,5.16,0,0,0-4.61,5.72,6.24,6.24,0,0,0,1.36,3.66A4.35,4.35,0,0,0,72,102.71a.13.13,0,0,0,.23,0,.23.23,0,0,0,0-.34C72.09,98.91,72.39,95.48,72.09,92.06Z"/><path class="cls-3" d="M82.63,46.38c-5.77-2.26-7.53,9.21-1,9.19a.27.27,0,0,0,.26-.36c.09-2.65.61-6,.93-8.6C82.83,46.5,82.73,46.41,82.63,46.38Z"/><path class="cls-3" d="M99.26,86.5s0,0,0,0a.1.1,0,0,0-.09-.08c-5.32-.78-6.36,9.6-.44,9.49a.29.29,0,0,0,.14,0,.19.19,0,0,0,.21-.16C99.62,92.73,99.2,89.46,99.26,86.5Z"/><path class="cls-3" d="M88.54,70.25c-5.82-.64-6.05,9.18-.54,9.87a.22.22,0,0,0,.26-.24s0,0,0,0c.16-3.13.11-6.25.51-9.36C88.8,70.35,88.66,70.26,88.54,70.25Z"/><path class="cls-3" d="M85.42,35c.29,0,.39-.41.18-.55a70.93,70.93,0,0,1,.88-8.36.26.26,0,0,0-.18-.32c-2.7-.9-5,1-5.35,3.66A4.87,4.87,0,0,0,85.42,35Z"/><path class="cls-3" d="M17.79,62.2c-5.86-.21-11.72,0-17.57-.29-.22,0-.22.33,0,.34,5.85.27,11.71.06,17.57.11A.08.08,0,0,0,17.79,62.2Z"/><path class="cls-3" d="M22.2,57.28c-7.11,0-14.2.29-21.31.13-.25,0-.24.37,0,.38,7.09.48,14.22-.24,21.31-.28A.12.12,0,0,0,22.2,57.28Z"/><path class="cls-3" d="M20.57,50.63C13.92,49.8,7.11,50,.42,49.83c-.23,0-.22.33,0,.35,6.7.6,13.45-.07,20.15.69C20.72,50.88,20.71,50.65,20.57,50.63Z"/><path class="cls-3" d="M19.41,73.53C13,73.07,6.67,72.91.28,72.78c-.2,0-.2.3,0,.31,6.38.13,12.77.13,19.13.6C19.52,73.7,19.52,73.53,19.41,73.53Z"/><path class="cls-3" d="M22.13,67.8A148,148,0,0,0,.35,67.47c-.22,0-.22.35,0,.34A166.61,166.61,0,0,1,22.13,68C22.27,68,22.27,67.81,22.13,67.8Z"/><path class="cls-3" d="M20.5,78.4l-1.09,0a.09.09,0,0,0-.06,0c-6.2,0-12.34-.87-18.52-1a.15.15,0,0,0,0,.29c2.27.21,4.57.39,6.86.55-2.22,0-4.45-.06-6.66.11a.15.15,0,0,0,0,.3c3.31,0,6.62-.1,9.93-.08s6.36.07,9.54.09A.1.1,0,0,0,20.5,78.4Z"/><path class="cls-3" d="M19.69,76.24a.05.05,0,0,0,0-.1C13.32,76,6.92,75.42.56,75.78c-.18,0-.18.28,0,.27C6.94,75.9,13.3,76.08,19.69,76.24Z"/><path class="cls-3" d="M129.32,42c.16-4.49.07-9,0-13.51h0a.1.1,0,0,0,0-.19h0V28a.12.12,0,0,0-.23,0c0,.09,0,.18,0,.27C126.46,28,124.49,31.94,124,34c-.77,3.45,1.91,6.79,4.87,8.32v.18a.21.21,0,0,0,.41,0v0a.24.24,0,0,0,.05-.43Z"/><path class="cls-3" d="M127.48,75.93c.2,0,.19-.28,0-.3h-.08v-.26a.19.19,0,0,0-.37,0v.24c-3.23,0-5.29,3.09-5.4,6.14-.13,3.61,2.13,6.51,5.8,6.78,0,.25.06.5.1.75s.5.2.47-.07a117.63,117.63,0,0,1-.59-13.27Z"/><path class="cls-3" d="M134.73,105.13c-5.81-1.88-7.32,11.7.28,10.66l0,0c0,.1,0,.2,0,.31s.08.06.09,0c.83-3.46-.09-7.23-.21-10.73A.25.25,0,0,0,134.73,105.13Z"/><path class="cls-3" d="M177.62,42.25c-2.27-4.88-9.71-4.75-11.3.69a5.71,5.71,0,0,0,2.74,6.74,7,7,0,0,0,7.29-.74,5.88,5.88,0,0,0,1.7-5.34A5.3,5.3,0,0,0,177.62,42.25Z"/><path class="cls-3" d="M114.2,111.37a42.7,42.7,0,0,1-.58-8l.38.14a.09.09,0,0,0,.09-.15,3.68,3.68,0,0,0-.45-.28,1.09,1.09,0,0,1,0-.18c0-.19-.27-.18-.29,0V103c-2.06-.76-3.63,1.83-3.89,3.74-.4,2.9,1.4,5.26,4.36,5.16v.05c0,.24.45.18.42-.06v-.11A.28.28,0,0,0,114.2,111.37Z"/><path class="cls-2" d="M109.47,62.93a54.77,54.77,0,0,1-.72-7.09.12.12,0,0,0,0-.09l.11,0c.16-.07,0-.34-.12-.28-6.48,2.36-5.82,11.61-.36,14.75a.24.24,0,0,0,.13,0,.23.23,0,0,0,.42,0A17.17,17.17,0,0,0,109.47,62.93Zm-.9,6.76a8.59,8.59,0,0,1-4.08-7.14,7,7,0,0,1,4-6.69C108.34,60.35,109.75,65.24,108.57,69.69Z"/><path class="cls-2" d="M125.38,63.81l.09,0a.19.19,0,0,0,.27-.13,31,31,0,0,0,.7-7.55c0-.23-.34-.24-.36,0-1.9-.56-3.52,1-3.9,2.81A4,4,0,0,0,125.38,63.81ZM122.6,59c.37-1.64,1.68-3.21,3.48-2.69a63.55,63.55,0,0,1-.71,7C123.42,62.7,122.12,61.14,122.6,59Z"/><path class="cls-2" d="M137.94,63.17h0a.16.16,0,0,0-.17-.14c-1.7-1.28-3.54,1.25-4,2.79-.76,2.63.31,5.29,3.33,5.35a.23.23,0,0,0,.22-.15.15.15,0,0,0,.07-.1,32.49,32.49,0,0,0,.55-7.43l.06,0c.1.07.19-.08.12-.16ZM137,70.62a2.91,2.91,0,0,1-2.77-1.74,4.79,4.79,0,0,1,0-2.95c.46-1.57,1.74-3.51,3.44-2.64A28.72,28.72,0,0,1,137,70.62Z"/><path class="cls-2" d="M108.21,40.91a.29.29,0,0,0,.25-.34.18.18,0,0,0,.07-.12,51.76,51.76,0,0,0,.25-7.68s0,0,0,0l0,0c.16.07.3-.16.14-.24C104,29.79,101,41.67,108.21,40.91Zm.33-8.27a.14.14,0,0,0-.08.13,44.5,44.5,0,0,1-.35,7.57v0C101.93,40.88,104.33,31.08,108.54,32.64Z"/><path class="cls-2" d="M99.26,86.5s0,0,0,0a.1.1,0,0,0-.09-.08c-5.32-.78-6.36,9.6-.44,9.49a.29.29,0,0,0,.14,0,.19.19,0,0,0,.21-.16C99.62,92.73,99.2,89.46,99.26,86.5Zm-.59,8.82c-5.06-.11-4.31-8.4.33-8.67C98.83,89.47,99.12,92.53,98.67,95.32Z"/><path class="cls-2" d="M114.2,111.37a42.7,42.7,0,0,1-.58-8l.38.14a.09.09,0,0,0,.09-.15,3.68,3.68,0,0,0-.45-.28,1.09,1.09,0,0,1,0-.18c0-.19-.27-.18-.29,0V103c-2.06-.76-3.63,1.83-3.89,3.74-.4,2.9,1.4,5.26,4.36,5.16v.05c0,.24.45.18.42-.06v-.11A.28.28,0,0,0,114.2,111.37Zm-3.63-1.48a4.78,4.78,0,0,1-.61-3.1c.24-1.88,1.44-3.84,3.38-3.46a39,39,0,0,0,.42,8A3.49,3.49,0,0,1,110.57,109.89Z"/><path class="cls-2" d="M134.73,105.13c-5.81-1.88-7.32,11.7.28,10.66l0,0c0,.1,0,.2,0,.31s.08.06.09,0c.83-3.46-.09-7.23-.21-10.73A.25.25,0,0,0,134.73,105.13Zm.35,10.19a.22.22,0,0,0-.14,0c-1.94.11-3.63-.62-4.28-2.57a7,7,0,0,1,.28-5.09,3.93,3.93,0,0,1,1.44-1.78c.32-.19,2-.76,2.07-.16C134.66,108.88,135.26,112.09,135.08,115.32Z"/><path class="cls-2" d="M88.54,70.25c-5.82-.64-6.05,9.18-.54,9.87a.22.22,0,0,0,.26-.24s0,0,0,0c.16-3.13.11-6.25.51-9.36C88.8,70.35,88.66,70.26,88.54,70.25ZM88,79.58c-4.73-.61-4.59-9,.29-8.86A57,57,0,0,0,88,79.58Z"/><path class="cls-2" d="M82.63,46.38c-5.77-2.26-7.53,9.21-1,9.19a.27.27,0,0,0,.26-.36c.09-2.65.61-6,.93-8.6C82.83,46.5,82.73,46.41,82.63,46.38Zm-.4,1.39c-.07.77-.14,1.55-.2,2.32-.1,1.41-.43,3.43-.44,4.92a3.5,3.5,0,0,1-3.4-2.37,5.62,5.62,0,0,1,.26-4.09,3.08,3.08,0,0,1,3.21-1.94,3.87,3.87,0,0,1,.67.17S82.23,47.71,82.23,47.77Z"/><path class="cls-2" d="M72.09,92.06a.24.24,0,0,0-.24-.24,5.16,5.16,0,0,0-4.61,5.72,6.24,6.24,0,0,0,1.36,3.66A4.35,4.35,0,0,0,72,102.71a.13.13,0,0,0,.23,0,.23.23,0,0,0,0-.34C72.09,98.91,72.39,95.48,72.09,92.06Zm-4.32,5.3a4.71,4.71,0,0,1,3.87-5c.38,3.31.08,6.64.33,10C69.43,102.32,67.81,99.65,67.77,97.36Z"/><path class="cls-2" d="M66.23,74.28l-.55-.12c.08-1.61.27-3.21.25-4.83,0-1.26.09-4.17-1.38-4.8a2,2,0,0,0-2,.44,5.85,5.85,0,0,0-2.49,3.71c-.41,2.94,2.56,5.33,5.24,6h0a.18.18,0,0,0,.34.07,4.5,4.5,0,0,0,.51.08C66.48,74.89,66.56,74.33,66.23,74.28Zm-.77-3.46c0,1.08-.13,2.16-.15,3.24-2.77-.86-6.05-3.64-4.25-6.65.59-1,2.9-3.78,3.84-1.66A12.4,12.4,0,0,1,65.46,70.82Z"/><path class="cls-2" d="M85.42,35c.29,0,.39-.41.18-.55a70.93,70.93,0,0,1,.88-8.36.26.26,0,0,0-.18-.32c-2.7-.9-5,1-5.35,3.66A4.87,4.87,0,0,0,85.42,35Zm-3.3-7.28a3.25,3.25,0,0,1,3.68-1.57c.34.1,0,1.31,0,1.67-.09.75-.16,1.49-.23,2.23q-.18,2.16-.27,4.32a4.25,4.25,0,0,1-3.56-2.73A4.77,4.77,0,0,1,82.12,27.69Z"/></g></svg>