<svg xmlns="http://www.w3.org/2000/svg" viewBox="0 0 540.78 58.91"><defs><style>.cls-1{fill:#fff;}.cls-2{fill:#272525;}</style></defs><title>life</title><g id="color"><path class="cls-1" d="M252.15,4.7a8.31,8.31,0,0,1,4,2.32,7.11,7.11,0,0,1,.59.75s0-.09-.07-.13A6.64,6.64,0,0,0,252.15,4.7Z"/><path class="cls-1" d="M275.68,7.09h0A10.34,10.34,0,0,0,277,7c1.14-.18,2.93-.46,3.48-1.66.69-1.52-3-2.08-3.78-2.13-1.35-.07-3.42.12-4.13,1.52C271.54,6.67,274.4,7.08,275.68,7.09Z"/><path class="cls-1" d="M202.8,5.69a6.64,6.64,0,0,0,2.94.14c1-.19,2.55-.83,2.82-2,.13-.55-.75-.71-1.13-.77a5.05,5.05,0,0,0-.68-.08.41.41,0,0,1-.52.3,10.18,10.18,0,0,0-1.06-.3,11.2,11.2,0,0,0-3.16.71,5.13,5.13,0,0,0-.66.29C201.21,4.74,202.07,5.49,202.8,5.69Z"/><path class="cls-1" d="M132.18,5.17a11.81,11.81,0,0,0,1.78.19,12.39,12.39,0,0,0,2.92-.15,6.92,6.92,0,0,0,2.36-.74c1.53-.94-.58-1.75-1.53-1.54a.38.38,0,0,1-.49-.3,9.52,9.52,0,0,0-5,.84C131.1,4.09,130.82,4.92,132.18,5.17Z"/><path class="cls-1" d="M92.63,6.85c.45-.13,1.52-.43,1.45-1.08-.11-.92-1.16-1.06-1.9-1.11-1.12-.08-4-.31-4.65,1C87.24,6.2,88,6.68,88.91,7H89A7.87,7.87,0,0,0,92.63,6.85Z"/><path class="cls-1" d="M141.69,17.23c.12.07.24.11.36.17a5.35,5.35,0,0,0,2,.28,5.66,5.66,0,0,0,2.25-.9.34.34,0,0,1-.29-.39,1.31,1.31,0,0,0-.57-1.29A4.24,4.24,0,0,0,142.5,15C141.5,15.29,140.16,16.4,141.69,17.23Z"/><path class="cls-1" d="M140.93,8.93A5.35,5.35,0,0,0,142,9.4c0-.07-.1-.13-.14-.21C141.25,8,142,6.92,143,6.05a13.21,13.21,0,0,0-1.4.83C140.94,7.35,139.78,8.25,140.93,8.93Z"/><path class="cls-1" d="M150.2,20.54a9.32,9.32,0,0,0-2.73-.23c-.89.06-1.8.14-2.7.28-.35.08-.69.16-1,.26A5.8,5.8,0,0,0,141,22.11a1.31,1.31,0,0,0-.22.39c.81,1.13,2.6,1.33,3.87,1.44a35.31,35.31,0,0,0,6.13.32,11.64,11.64,0,0,0,1.89-.43l.23-.08C155.31,22.8,151.26,20.78,150.2,20.54Z"/><path class="cls-1" d="M142.35,8.81a1.85,1.85,0,0,0,.64.86l.51.11a25.14,25.14,0,0,0,6.13.3l.81-.15a.16.16,0,0,1,.17.07,20.14,20.14,0,0,0,3.91-1,.33.33,0,0,1,.2-.36c1.49-.76,2.9-2.09,1.39-3.71a3.71,3.71,0,0,0-1.73-1.19,18.78,18.78,0,0,0-6.83.78C146.2,4.93,141.55,6.57,142.35,8.81Z"/><path class="cls-1" d="M119.2,12.14a.44.44,0,0,1-.47-.22,2.19,2.19,0,0,0-1.55.87c-.94,1.59,1.52,2.33,2.63,2.24.73-.06,3.89-1,2.51-2.12A4.09,4.09,0,0,0,119.2,12.14Z"/><path class="cls-1" d="M112.66,22.16a5.24,5.24,0,0,0-2.49,0,.46.46,0,0,1-.29.55c-1.53.55.21,1.34,1,1.36a5.79,5.79,0,0,0,2.07-.23c.32-.11,1.54-.77,1-1.23A2.76,2.76,0,0,0,112.66,22.16Z"/><path class="cls-1" d="M154.42,12.74a3.37,3.37,0,0,0-1.57.83,1.36,1.36,0,0,0-.29.46.43.43,0,0,1,.1.42c-.65,2.38,7.06,1.37,5.81-.45A4.33,4.33,0,0,0,154.42,12.74Z"/><path class="cls-1" d="M105.24,7.72A25.21,25.21,0,0,0,93.5,10.08c-1.51.76-3.41,1.89-3.77,3.71A4.45,4.45,0,0,0,89.65,15c0,.23.07.46.12.68.43,1.4,1.78,2.14,3.23,3.08a.36.36,0,0,1,.11.51c3.24,1.47,7.94,1.45,10.73,1.33,3.14-.13,7.7-.91,9.38-4C115.93,11.74,109.43,7.88,105.24,7.72Z"/><path class="cls-1" d="M134.62,15.77a20.38,20.38,0,0,0-8,1,6.35,6.35,0,0,0-1.63.89,2.64,2.64,0,0,0,0,1.48,1.57,1.57,0,0,0,.19.12,5.21,5.21,0,0,0,1.52.54A14.56,14.56,0,0,0,130,20a11.3,11.3,0,0,0,6.27-1.84c.18-.14.39,0,.46.19a3,3,0,0,0,.63-.83C138.08,16,135.58,15.82,134.62,15.77Z"/><path class="cls-1" d="M130.22,27.45c-2-1.19-6.21-1.63-8,.35a.43.43,0,0,1-.09.41c-.44.52-.22.92.27,1.23,1.2.66,3.91.8,5.78.82a6.26,6.26,0,0,0,1.42-.22C130.45,29.78,132.42,28.78,130.22,27.45Z"/><path class="cls-1" d="M248.52,4.89c-3.05,0-6.66.33-9.27,2.08a3.89,3.89,0,0,0-.77,6.2,7.91,7.91,0,0,0,2.71,1.14,18.38,18.38,0,0,0,9.5-.59c1.72-.52,7.17-2.3,5.77-5.1S251.45,4.92,248.52,4.89Z"/><path class="cls-1" d="M175.7,24.38a.19.19,0,0,1-.23.18c-.22,0-.45-.08-.68-.11a6.9,6.9,0,0,0-2.6,1.07,4.29,4.29,0,0,0-1.78,1.89,1.88,1.88,0,0,0,1.15,1,7.49,7.49,0,0,0,.92.28h.5a.37.37,0,0,1,.34.16,9,9,0,0,0,2.93-.13c1-.2,3.35-.83,2.6-2.34A3.38,3.38,0,0,0,175.7,24.38Z"/><path class="cls-1" d="M271.18,24.58a7.1,7.1,0,0,0,1.14.11s0-.07,0-.1a11.5,11.5,0,0,1-1.85-.2A4.88,4.88,0,0,0,271.18,24.58Z"/><path class="cls-1" d="M190.82,20.6c3.73-.32,7.8-1.11,9.84-4.07a10.1,10.1,0,0,1-4.87,2.86C194.19,19.85,192.52,20.26,190.82,20.6Z"/><path class="cls-1" d="M198.84,7.39a14,14,0,0,0-1.72-.78,26.65,26.65,0,0,0-4.31-.79,77,77,0,0,0-11.05-.61,44.81,44.81,0,0,0-12,1.64,22.88,22.88,0,0,0-4.3,1.61,12.25,12.25,0,0,0-1.65,1.17c-1.61,1.48-3.27,4-1.92,6.16A1.77,1.77,0,0,0,162,16a3.81,3.81,0,0,0,.36.33c1.95,1.63,4.62,2.39,7,3l.58.13c1.07.16,2.1.29,3,.46a64.34,64.34,0,0,0,7.47,1,.34.34,0,0,1,.32-.15,48.26,48.26,0,0,0,13.71-1.78c2-.51,4.27-1.16,5.63-2.79A6.93,6.93,0,0,0,201.71,11,5.73,5.73,0,0,0,198.84,7.39Z"/><path class="cls-1" d="M229.51,4.35l-.13,0a9.68,9.68,0,0,0-4.35.23,6.13,6.13,0,0,0-2.81,1.73c-.83,1.35-.5,3,1.36,4a11.1,11.1,0,0,0,2.56,1c2.68.33,5.71-.43,6.65-2.41C233.82,6.76,231.33,4.88,229.51,4.35Z"/><path class="cls-1" d="M209.88,19.43l-.77,0s0,0-.06,0c-1.2,0-6.26.6-5.44,2.75A3.41,3.41,0,0,0,206,24c2.62.53,6.16.43,8.24-1a.36.36,0,0,1,.41,0A1.54,1.54,0,0,0,215,21.9C214.9,19.92,211.39,19.52,209.88,19.43Z"/><path class="cls-1" d="M30.79,18.35a5,5,0,0,0,2.44,6l.15.08a11.12,11.12,0,0,0,4.24.77h.28A7.19,7.19,0,0,0,39.09,25a4.2,4.2,0,0,0,2.18-1.41,6.58,6.58,0,0,0-.8-8C37.29,12.51,32,14.2,30.79,18.35Zm4.94,1.78a1.18,1.18,0,0,1-.16-.29h0c-.48-.85.73-1.49,1.33-.88S36.4,21,35.73,20.13Z"/><path class="cls-1" d="M100.67,24A8.69,8.69,0,0,0,98,23.59c-1.49,0-4.39-.1-5.49,1.19-.88,1,2.25,1.68,3.75,1.9a11.9,11.9,0,0,0,4.34-.26C102.14,25.93,102.25,24.47,100.67,24Z"/><path class="cls-1" d="M120.84,9.42a.58.58,0,0,1,.14,0c1.76,0,3.66-.65,4.46-2.39s-1-2.68-2.48-3c-2.25-.42-5.33-.53-7.29.86C111.9,7.56,117.89,9.05,120.84,9.42Z"/><path class="cls-1" d="M131.46,11.85a4.15,4.15,0,0,0,3.35-.17c1.47-1,.65-2.67-.89-3a3.85,3.85,0,0,0-3.47.89,1.62,1.62,0,0,0-.52,1.19A2.26,2.26,0,0,0,131.46,11.85Z"/><path class="cls-1" d="M49.12,39.24a6.12,6.12,0,0,0,2.88.1,23.24,23.24,0,0,1-2.61-.54A4,4,0,0,1,49.12,39.24Z"/><path class="cls-1" d="M53.12,31.28a.25.25,0,0,1-.2.09,12.47,12.47,0,0,0-2.2,0c0,.28,0,.55,0,.83a23.16,23.16,0,0,1,3.11-.5A7.8,7.8,0,0,0,53.12,31.28Z"/><path class="cls-1" d="M277.07,20.86a7,7,0,0,0-7.15-.4c-.56.29-1.62.93-1.77,1.68.19.9,1.11,1.34,2,1.56a13.9,13.9,0,0,0,5,.28.26.26,0,0,1,.27.15,4.93,4.93,0,0,0,1.33-.48C278,23,278.57,21.83,277.07,20.86Z"/><path class="cls-1" d="M85.05,8.81a8.9,8.9,0,0,0-4.72-.21,4.2,4.2,0,0,0-2.17,1c-.91.95-.35,2.08.81,2.46a10.1,10.1,0,0,0,3.21.47.38.38,0,0,1,.35-.32,6.79,6.79,0,0,0,2.69-.66c.73-.41,1.67-1.11.72-2.06A2.33,2.33,0,0,0,85.05,8.81Z"/><path class="cls-1" d="M74.73,17.51c-1.68.13-4.07.4-5.61,1.5a.4.4,0,0,1-.27.52l-.43.11a3.29,3.29,0,0,0-.75,1.49,2.83,2.83,0,0,0-.06.64,10.16,10.16,0,0,0,2.28,1.58,21.81,21.81,0,0,0,4.42,1.8,36.07,36.07,0,0,0,7-.3c.24,0,.34.33.09.38a36.31,36.31,0,0,1-4.62.5c1.94.33,4.31.54,6-.5a3.76,3.76,0,0,0,.67-5.79C81.23,17.48,77.57,17.29,74.73,17.51Z"/><path class="cls-1" d="M70.47,9.13a4.06,4.06,0,0,0-1.76-.94l.1.09a.41.41,0,0,1-.59.57A3.17,3.17,0,0,0,66,8.05a14.68,14.68,0,0,0-4.2,1.14l-.58.26c-.78.57-1.24,1.3-.43,2.07,1.24,1.2,3.54,1.09,5.13.94a11.69,11.69,0,0,0,2.28-.39C69.08,11.8,72,10.54,70.47,9.13Z"/><path class="cls-1" d="M50.64,33.74c0,.38-.07.77-.12,1.15a27.06,27.06,0,0,1,5.17,0h.05a3.72,3.72,0,0,0-.14-1h-.07C53.91,33.83,52.26,33.61,50.64,33.74Z"/><path class="cls-1" d="M50.09,37.05a18.11,18.11,0,0,1,4.29.42.28.28,0,0,1-.09.55c-1.44-.16-2.88-.41-4.32-.58a9,9,0,0,1-.34.86c1.08.23,2.18.33,3.27.51a.27.27,0,0,1,.22.17,4.42,4.42,0,0,0,2.1-2c-1.65-.12-3.28-.54-4.92-.76C50.24,36.5,50.17,36.78,50.09,37.05Z"/><path class="cls-1" d="M50.33,36.07a36.61,36.61,0,0,1,4.91.35.31.31,0,0,1,.18.09,4.47,4.47,0,0,0,.2-.65,1.81,1.81,0,0,0,.05-.31c-1.71-.06-3.48-.22-5.17-.45C50.45,35.43,50.39,35.75,50.33,36.07Z"/><path class="cls-1" d="M54.45,32.22c-1.23.2-2.5.14-3.74.22,0,.34,0,.67-.05,1a36.36,36.36,0,0,1,4.67-.28,4.1,4.1,0,0,0-.79-1Z"/><path class="cls-1" d="M60,15.94a5.89,5.89,0,0,0-5,.35.4.4,0,0,1-.53-.17h0c-1.11.43-.59,1.07.38,1.29a15.92,15.92,0,0,0,3.51.38,6,6,0,0,0,2-.25C61.55,17.1,60.82,16.24,60,15.94Z"/><path class="cls-1" d="M68.23,23.31a4.61,4.61,0,0,0,1.83,1.1c-.42-.22-.82-.45-1.21-.7C68.65,23.59,68.44,23.46,68.23,23.31Z"/><path class="cls-1" d="M460.68,18.47l-.91-.21a60.7,60.7,0,0,1-1.33,11.63c-.57,3-.85,6.23-2,9.11l1.34-.14c.59-3.56,1.82-7,2.22-10.58C460.37,25,460.41,21.74,460.68,18.47Z"/><path class="cls-1" d="M462.54,18.89l-1.72-.38A56.34,56.34,0,0,1,460.66,29c-.46,3.31-1.39,6.55-2.15,9.8l1.55-.16C461.29,32.09,463.08,25.58,462.54,18.89Z"/><path class="cls-1" d="M468,20.24a.76.76,0,0,1,0-.15l-.8-.16-1.9-.42c-.11,6.22.29,12.57-.95,18.69l1.68-.14C466,32,469,26.36,468,20.24Z"/><path class="cls-1" d="M459.39,18.17l-2-.47a49.76,49.76,0,0,1-1.26,10.59c-.8,3.71-2.33,7.33-3,11.07l2.41-.26c1.13-3,1.49-6.3,2.1-9.45C458.38,25.84,459,22,459.39,18.17Z"/><path class="cls-1" d="M463.29,19.06c.51,6.61-1.13,13.14-2.75,19.51,1-.11,2.06-.21,3.1-.3,1.15-6.24.56-12.58,1.36-18.84Z"/><path class="cls-1" d="M468.83,20.26c.83,6-1.59,11.88-2.34,17.77q1.13-.09,2.25-.15c.62-5.77,1.05-11.54,1.65-17.31Z"/><path class="cls-1" d="M457.05,17.63c-4-.93-8-1.88-12-2.72-8.34-1.76-16.8-3.05-25.24-4.25-16.74-2.4-33.58-4.13-50.45-5.38C335.29,2.76,301.13,2.16,267,1.5,231.6.81,196.21.37,160.83,1,143.11,1.38,125.4,2,107.71,3c-7.34.42-14.52.71-21.85.65-16.67-.13-33.49,0-50,2.31-7.6,1-15.53,2.36-22.56,5.57C8.73,13.57,3.37,17.1,3.82,22.8a13,13,0,0,0,4.25,8.47c0-2.92-.22-6-3.22-7.24-.25-.11-.14-.52.13-.42,3.37,1.19,3.64,4.6,3.7,7.73v.49c4.17,3.68,10.21,5.9,15,7.41C32,41.88,40.78,43.1,49.27,45.16a58.6,58.6,0,0,0,20.07,3.52c6.06.13,12.1-.33,18.15-.28,16.59.13,30.61,1.52,47.21,1.42,35.2-.22,70.4-.92,105.61-1.21s70.3-.39,105.44-1.81S416,43.05,450.94,39.58l1.44-.15c.55-3.39,1.93-6.66,2.74-10A65.32,65.32,0,0,0,457.05,17.63ZM200.49,3.68a1.75,1.75,0,0,1,.95-1.22,6.14,6.14,0,0,1,4.24-.3c1.55-.12,3.53,0,3.73,1.37.14,1-.95,2.11-1.72,2.55a6.54,6.54,0,0,1-6,.14,2.49,2.49,0,0,1-.71-.66,1.8,1.8,0,0,1-.71-.65A1,1,0,0,1,200.49,3.68Zm-70.1.46c1.32-2.11,4.46-2.13,6.93-1.9a.37.37,0,0,1,.19-.12c1.8-.6,4.58,1.19,2.46,2.8-1.59,1.19-4.1,1.3-6,1.19C133.22,6.07,129.34,5.82,130.39,4.14ZM131.47,8A4,4,0,0,1,136,9.18a2.1,2.1,0,0,1-.73,3.12h0c.5-.13.66.6.19.76-1.74.61-6.09.17-6.45-2.16C128.85,9.53,130.32,8.36,131.47,8Zm-15-4.25c2.7-1,7.48-1.36,9.64,1,.91,1,.23,2.62-.51,3.46a5.63,5.63,0,0,1-4.61,2,.36.36,0,0,1-.37-.39,11.48,11.48,0,0,1-5.86-1.64C112.63,6.69,114.77,4.37,116.44,3.76ZM47.91,33.84a11.3,11.3,0,0,1-1.58,5,.21.21,0,0,1-.38-.17,22.06,22.06,0,0,0,1.69-4.82C47.66,33.66,47.92,33.66,47.91,33.84ZM43.08,21.17c-.78,6.64-11.66,6.12-13.4.43a.33.33,0,0,1,.05-.34,6.53,6.53,0,0,1,.46-3.83,7,7,0,0,1,8.93-3.85C42.17,14.64,43.43,18.21,43.08,21.17Zm2.37,16.3a4.25,4.25,0,0,0,1-2.43.1.1,0,1,1,.2,0,4.12,4.12,0,0,1-.95,2.68C45.54,37.89,45.3,37.64,45.45,37.47Zm.3,2.71a15.3,15.3,0,0,0,3.11-8.66.16.16,0,0,1,.31,0c0,3.25-.61,6.62-3,9C46,40.72,45.56,40.42,45.75,40.18ZM56.44,36.1a5.82,5.82,0,0,1-7.6,4,.38.38,0,0,1-.21-.16,5.25,5.25,0,0,1-.75.74.4.4,0,0,1-.56-.58c3-3.15,2.72-8.47,2.91-12.51a.22.22,0,0,1,.43,0c0,1,.05,2.16.06,3.4a5.35,5.35,0,0,1,1.06-.19c-.31-.09-.63-.18-1-.25s-.11-.28.05-.29C54.18,30,57.36,32.58,56.44,36.1Zm2.82-17.66c-1.73.09-4.71.11-6.06-1.22-.73-.7.29-1.23,1.38-1.56,0,0,.05-.05.09-.06,2-1.06,5-1.29,6.81.45C63,17.49,60.23,18.38,59.26,18.44Zm6-5.14c-1.87.18-4.16.21-5.39-1A1.68,1.68,0,0,1,60,9.6c1.07-2,4.9-2.83,7.33-2.14,2.5-.11,4.65.54,4.13,3.11-.44,2.15-4.25,2.63-5.94,2.72Zm15.8,13.31a17.54,17.54,0,0,1-8.53-1.1,13.46,13.46,0,0,1-3-.82A3.78,3.78,0,0,1,67,22.27a2.6,2.6,0,0,1-.73-1.41c-.14-1.19,1-1.75,2-2a4.76,4.76,0,0,1,.94-.65A16.05,16.05,0,0,1,77,16.79c2.33.1,5.27.45,7,2.16C86.89,21.78,84.63,26.08,81.05,26.61Zm1.47-13.69-.11,0c-1.89.15-4.39,0-5.06-1.46C76.41,9.37,78.86,8.22,80.5,8c2.13-.36,5.19-.5,6.39,1.69S83.9,13,82.52,12.92Zm6-5.56c-1-.32-1.8-.85-1.63-1.68.41-1.91,4.15-1.85,5.55-1.68,1,.12,1.81.33,2.21,1.3A1.34,1.34,0,0,1,94.12,7a6.69,6.69,0,0,1-5.34.75A.36.36,0,0,1,88.54,7.36Zm13.72,18.9C101,28,96.81,27.69,95,27.37a.34.34,0,0,1-.25-.45c-1.54-.23-3.2-.76-3-1.87.48-2.18,5.07-2.17,6.67-2.1S104,23.89,102.26,26.26Zm-3.45-5.08c-2.68-.27-5.84-.74-7.94-2.59a5.36,5.36,0,0,1-1-1.11,3.82,3.82,0,0,1-.84-1.25,4.5,4.5,0,0,1,.21-3.39,3.31,3.31,0,0,1,.31-.66C92.35,7.43,100.12,6.79,105,6.79c.08,0,.09.07.07.12A11.4,11.4,0,0,1,109.45,8c2.83,1.4,6.24,4.32,4.93,7.88C112.24,21.68,103.9,21.7,98.81,21.18Zm15.71,2.59A4,4,0,0,1,111.34,25a4.52,4.52,0,0,1-2.11-.37,1.85,1.85,0,0,1-.8-.53,1.48,1.48,0,0,1,.55-2.2c1.39-.85,3.94-1.1,5.31,0A1.24,1.24,0,0,1,114.52,23.77Zm1.93-10.94a2.54,2.54,0,0,1,2.32-1.4.48.48,0,0,1,.22-.13c1.3-.31,4,.2,4.41,1.72.55,1.86-2.26,2.76-3.61,2.8C118.18,15.86,115.78,14.89,116.45,12.83Zm13.77,17.93a12.68,12.68,0,0,1-5.06.35,7.75,7.75,0,0,1-1-.17,4.9,4.9,0,0,1-1.79-.58c-1.11-.52-1.87-1.31-1.1-2.4a2.09,2.09,0,0,1,.31-.53c2.14-2.71,8.43-2.39,10.2.52C132.49,29.11,131.25,30.42,130.22,30.76Zm6.68-11.7a8.79,8.79,0,0,1-4.13,1.41,23.44,23.44,0,0,1-4.72.45c-1.25-.06-4.59-1-4.27-2.62a2.13,2.13,0,0,1,1-1.53,7.63,7.63,0,0,1,3.18-1.36,35,35,0,0,1,6.9-.76c.16,0,.19.15.12.25a6.09,6.09,0,0,1,2.34.63C139,16.45,138.08,18.09,136.9,19.06ZM139.79,7.5c1.26-2,4.41-3,6.58-3.65,2.43-.7,6.45-1.95,8.9-.71a3.92,3.92,0,0,1,.56.35l.36.14c1.72.72,3,2.4,1.5,4.08-3.46,3.82-11.24,4-15.82,2.51C140.79,9.87,138.87,9,139.79,7.5Zm1.79,6.58c1.3-.42,3.69-.46,4.74.62.92.56,1.62,1.46.71,2.46a4.75,4.75,0,0,1-4.25,1.3c-1.17-.16-3.15-.82-3.11-2.32A2.38,2.38,0,0,1,141.58,14.08Zm10.11,10.83a11.48,11.48,0,0,1-2,.13,34.66,34.66,0,0,1-4-.19,13.22,13.22,0,0,1-3.35-.47,7.84,7.84,0,0,1-1-.26,1.6,1.6,0,0,1-1.19-1.26c-.43-.67-.4-1.42.73-2A17,17,0,0,1,148,19.5c2-.06,6.41,1,6.6,3.57C154.64,24.14,153.42,24.68,151.69,24.91Zm.11-10.72a.61.61,0,0,1,.11-.18A2.59,2.59,0,0,1,153,12.67a4.38,4.38,0,0,1,3.4-.57c.93.19,2.29.57,2.77,1.51C161.1,17.4,150.55,18,151.8,14.19Zm27,14.39a8.06,8.06,0,0,1-4.74,1.09c-.36,0-.78-.06-1.23-.13-1.18,0-3.39-.11-3.39-1.73a2.65,2.65,0,0,1,.16-.89,2.74,2.74,0,0,1,1.29-2,5.31,5.31,0,0,1,2-.82,8.24,8.24,0,0,1,2.33-.63A4.27,4.27,0,0,1,179,25C179.89,26.17,180.23,27.64,178.83,28.58Zm16.87-8A50.54,50.54,0,0,1,181,21.77a60.49,60.49,0,0,1-8.27-1.15c-2.36-.45-4.8-.77-7.11-1.43a7,7,0,0,1-4.53-3.34,3.38,3.38,0,0,1-.4-3.42,6.43,6.43,0,0,1,1-1.71c1.51-2.29,4.38-3.57,7.06-4.38a49.37,49.37,0,0,1,12.3-2,44.08,44.08,0,0,1,14.88,1.14c.43.13.87.27,1.3.44,2.32.72,4.51,2.06,5.13,4.36a5.71,5.71,0,0,1,.4,2.42C202.56,16.68,199.46,19.56,195.7,20.53Zm19.23,3.25c-2.12,1.74-4.85,1.82-7.44,1.36l-.1,0c-1.81-.11-4.47-.48-5.12-2.37-1.75-5.07,8.24-4.65,10.76-3.68C215,19.83,217.24,21.88,214.93,23.78ZM233.71,9c-1.31,4.12-10.92,4.6-12.59.56-1.34-3.25,1-5.09,3.82-5.82a8.64,8.64,0,0,1,3.38-.37,8.91,8.91,0,0,1,2.13.29.39.39,0,0,1,.31.39C232.63,5,234.42,6.72,233.71,9ZM254,14.2c-.5,0-.47-.73,0-.77a3.38,3.38,0,0,0,3.28-3.92c-.09,2.35-3.61,4-6.33,4.88a.19.19,0,0,1-.16.28c-.39,0-.78.06-1.17.1l-.56.13a16.63,16.63,0,0,1-8.55,0c-2-.64-4.7-2.09-4.44-4.64C236.71,4,246.42,3,251.12,3.74c3.07.48,6.41,2,6.88,5.45A4.09,4.09,0,0,1,254,14.2Zm17.17-9.68c1.51-2.68,7.33-3.54,9.59-1.47a.39.39,0,0,1,0,.63,3.52,3.52,0,0,1,.39.38c1.09,1.35-.78,2.82-1.9,3.27a10.27,10.27,0,0,1-6.29.41C271.52,7.31,270.3,6,271.15,4.52Zm8.42,17.71c-.7,2.28-3.94,3.06-6,3.31s-5.61-.35-6.32-2.81a1.86,1.86,0,0,1,.19-1.49,3.07,3.07,0,0,1,.49-.92c1.51-1.92,5.24-2,7.42-1.73C276.93,18.81,280.24,20.05,279.57,22.23Zm27.19-6.45c-.64,1.73-3.25,2.8-4.7,3.28a28,28,0,0,1-7.38,1.23l-.56,0c-4,.51-8.53,1.22-12.08-.47a4,4,0,0,1-2.41-4.12c.25-1.7,2-2.89,3.39-3.6a27.86,27.86,0,0,1,12.57-3,13.63,13.63,0,0,1,9.35,1.91C306.9,12.41,307.85,14.13,306.76,15.78Zm10.48-6.21A3,3,0,0,1,317,7.76a1.88,1.88,0,0,1,.43-1.56,5.2,5.2,0,0,1,2.45-1.61,8.56,8.56,0,0,1,6.31-.32,3.36,3.36,0,0,1,.81.45,2.67,2.67,0,0,1,1.54,3.51c-.72,2.12-3.59,3.27-5.61,3.52S318.27,11.72,317.24,9.57Zm19.25,14.15c-1,1.38-2.7,1.57-4.3,1.63-1.25,0-3.8.19-4.61-1.07-1.26-2,.83-2.76,2.94-2.88C331.87,21.21,338.32,21.14,336.49,23.72Zm12.69-7.89c-.31,2.68-3,3.41-5.59,3.51a20.49,20.49,0,0,1-5,.07c-3.3-.27-13.44-1.7-11.31-7.34,1.13-3,5.05-3.59,8.58-3.44a21,21,0,0,1,7.06,1.09c2,.66,5.08,1.69,6,3.82a2.77,2.77,0,0,1,.23,1.29A3.31,3.31,0,0,1,349.18,15.83Zm22.89,5.44c-.41,1.21-1.94,1.67-3.1,1.81a17.89,17.89,0,0,1-4.68,0,.4.4,0,0,1-.42.16c-.94-.19-2.85-.92-3.16-1.82a1.07,1.07,0,0,1-.14-.16.33.33,0,0,1,0-.47,5.28,5.28,0,0,1,2.58-1.37,11,11,0,0,1,6.35-.45C370.33,19.2,372.51,20,372.07,21.27Zm11.75-4.47a21.69,21.69,0,0,1-8.68-.09c-1.34-.27-3.12-.68-4-1.81a2.52,2.52,0,0,1-1.41-1.45c-.38-1.5,1.71-2.33,4.31-2.77a19.7,19.7,0,0,1,5-.44,28.16,28.16,0,0,1,3.42.06c1.64.2,4.52.7,4.78,2.79S385.75,16.39,383.82,16.8Zm31.09,5a42.79,42.79,0,0,1-6.09.33,60.13,60.13,0,0,1-8.48-.71c-.85-.14-1.74-.3-2.63-.5l-.39-.05c-2.41-.39-5.61-1-7-3.27-1-1.54-1-3.24.82-4.14a12.62,12.62,0,0,1,3.7-1.13l.22-.08a31.65,31.65,0,0,1,15.84-1.07,16.43,16.43,0,0,1,6.56,2.36,4.72,4.72,0,0,1,3,4.23C420.51,20.9,417.4,21.55,414.91,21.84Zm27-.32c-1.32-.06-8.51-.29-7.71-2.84l0-.05a.35.35,0,0,1,.14-.46l.25-.14c.8-1,2.47-1.12,3.87-1.06a21.54,21.54,0,0,1,2.89,0c2.14.11,4.93.32,6.6,1.86C451,21.66,443.27,21.58,442,21.52Z"/><path class="cls-1" d="M382.75,11.14l-1.1-.1a.4.4,0,0,1-.55.37c-1.81-.65-4.27-.3-6.1.1-1.23.27-4.43,1.35-3.35,2.75a23.05,23.05,0,0,0,10.89,2,5.62,5.62,0,0,0,3.2-1.19C388.06,12.9,384.49,11.37,382.75,11.14Z"/><path class="cls-1" d="M391.48,15.05a3.81,3.81,0,0,1,1.15-1.48,3.86,3.86,0,0,0-2.05,1.12c-.9,1.09,0,2.68.93,3.46a8.55,8.55,0,0,0,2.25,1.36c-.22-.13-.43-.26-.63-.4C391.86,18.19,390.82,16.68,391.48,15.05Z"/><path class="cls-1" d="M418.79,17.85a3.86,3.86,0,0,0-1.47-3.35c-2-1.16-4.81-1.39-6.88-1.49-2.68-.13-5.37,0-8.06-.07a47,47,0,0,0-7,.14c-2.29.91-4.66,2.49-2.6,4.66,1.88,2,5.09,2.72,8.11,3.09l.94.05a81,81,0,0,0,9.48-.12c.14,0,.13.21,0,.22-1.52.15-3.05.27-4.59.34,4.58.29,13.87.5,12.9-3.86,0,0,0,0,0,0,0,.15,0,.29,0,.45C419.55,18.38,418.75,18.37,418.79,17.85Z"/><path class="cls-1" d="M446.37,18.76a.44.44,0,0,1-.53.7,15,15,0,0,0-6-1.5,10.74,10.74,0,0,0-3.3.08c-.48.12-1.21.47-1.34.86a21.08,21.08,0,0,0,2.63,1.4,27.53,27.53,0,0,0,6.86.4,8.62,8.62,0,0,0,2.72-.35C448.37,20,447.28,19.23,446.37,18.76Z"/><path class="cls-1" d="M412.53,12.37c-.44-.11-.86-.2-1.25-.27a34.16,34.16,0,0,0-12.51,0c2.26,0,4.54.19,6.62.15A57.15,57.15,0,0,1,412.53,12.37Z"/><path class="cls-1" d="M493.82,22.73c-.75.06-1.5.11-2.26.14A40.1,40.1,0,0,1,490,39.48c.61.16,1.22.33,1.83.52C492.84,34.27,494.35,28.6,493.82,22.73Z"/><path class="cls-1" d="M496.58,22.4c-.64.1-1.29.18-1.94.25.6,5.9-1,11.79-2.42,17.48l.77.25c.27-3,1.53-5.76,2.21-8.63A61.66,61.66,0,0,0,496.58,22.4Z"/><path class="cls-1" d="M472.87,21.2a.33.33,0,0,1,0-.14l-2.16-.42a105.52,105.52,0,0,1-1.18,17.2l1.75-.08c.25-2.76.78-5.48,1.1-8.22S473.3,23.83,472.87,21.2Z"/><path class="cls-1" d="M489.83,22.92a66.6,66.6,0,0,1-2.71,15.9c.66.14,1.33.29,2,.45a60,60,0,0,0,2.1-16.38C490.75,22.9,490.29,22.92,489.83,22.92Z"/><path class="cls-1" d="M540.11,15.14a3.06,3.06,0,0,0-.13-.43.33.33,0,0,1-.11.09c-8.42,4.81-17.62,8.12-26.1,12.83a.17.17,0,0,1-.16-.29c8.23-5.11,17.33-8.69,25.88-13.23a.41.41,0,0,1,.21,0,4.69,4.69,0,0,0-1-1.13.68.68,0,0,1-.12.12c-3.83,2.43-8.07,3.79-12.23,5.51s-8.06,3.71-12.06,5.65a.16.16,0,0,1-.16-.28c7.53-4.8,16.26-7,23.94-11.47l-.19-.13c-3.84,2.33-8.63,3.22-12.82,4.72-2.79,1-5.57,2-8.26,3.26-1.16.54-2.31,1.1-3.44,1.71-.55.31-1.11.61-1.66.94l-1.09.65-.17-.06a.1.1,0,0,1,0,.16l-.36.2c-.13.08-.29-.12-.16-.21,4-3.16,9.05-5.14,13.79-6.91,2.42-.9,4.85-1.76,7.32-2.55a33.2,33.2,0,0,0,6-2.35,10.92,10.92,0,0,0-5-.91l-.49,0a.35.35,0,0,1-.26.35,9.82,9.82,0,0,0-2.58,1.46A21.66,21.66,0,0,1,526,14.09c-1.81.72-3.65,1.39-5.48,2.05a66.32,66.32,0,0,0-11.74,5.06c-.16.1-.3-.16-.14-.26a69.21,69.21,0,0,1,11.72-5.43c2.37-.9,4.74-1.78,7-2.84a24.26,24.26,0,0,0,2.22-1.39c-9.11,1.4-17.75,6.38-26.31,9.44a35.6,35.6,0,0,1-6.21,1.59,40.3,40.3,0,0,1-.92,9c-.67,3.09-2,6.16-2.31,9.32,5.09,1.71,10,3.92,14.9,6.1S519,51.87,524.46,53c1.79.37,4.32.74,6-.28a49.45,49.45,0,0,1-11.58-3.11c-2-.74-4-1.45-5.88-2.37s-3.86-2.09-5.87-3a.14.14,0,0,1,.08-.26,34.79,34.79,0,0,1,5.55,2.39c2.05.94,4.22,1.7,6.35,2.46a50,50,0,0,0,12,3.07.44.44,0,0,1,.21.08,5.41,5.41,0,0,0,1-2,.41.41,0,0,1-.21,0c-2-1-4.38-1.08-6.54-1.62s-4.56-1.18-6.8-1.91c-3.39-1.12-7.79-2.06-10.5-4.53-.14-.12.05-.34.19-.24a24,24,0,0,0,6.14,2.64c2.14.67,4.25,1.42,6.41,2A66.74,66.74,0,0,0,527.63,48a17.75,17.75,0,0,1,5,1.25,9.37,9.37,0,0,0,.14-1.08.42.42,0,0,1-.22,0c-3.73-1.39-7.65-2.18-11.4-3.5-1.95-.68-3.88-1.42-5.77-2.26-1.62-.71-3-1.7-4.75-2.27a.15.15,0,0,1,.09-.28c2,.38,3.62,1.51,5.47,2.23s3.86,1.47,5.82,2.1c3.57,1.14,7.26,1.89,10.78,3.16a10.65,10.65,0,0,0-.18-1.71,81,81,0,0,1-10.52-3.26c-1.66-.71-3.38-1.34-5-2.08s-3.16-1.66-4.86-2.23a.19.19,0,0,1,.1-.36c1.78.44,3.28,1.46,5,2.09,1.89.68,3.76,1.43,5.63,2.17a89.4,89.4,0,0,0,9.45,2.74,7.4,7.4,0,0,0-.38-1l-.19-.06c-1.48-.86-3.45-1.16-5-1.78-1.87-.73-3.76-1.39-5.64-2.1a35,35,0,0,1-9.7-4.88.09.09,0,0,1,.1-.16,81.62,81.62,0,0,0,11,4.7c2,.66,3.85,1.45,5.79,2.12.93.32,2,.54,2.93.89-2.44-3.5-7-4.59-10.92-5.9-2.3-.78-6.5-2-7.09-4.83-.32-1.54,1.7-2.76,2.79-3.38,5.93-3.36,12.73-4.9,18.79-8C536.44,19.47,540.62,17.58,540.11,15.14Z"/><path class="cls-1" d="M480.5,22.3c-.76-.09-1.51-.2-2.25-.31a8.31,8.31,0,0,1-.07,3.14c-.32,1.9-.42,3.84-.63,5.76-.17,1.69-.34,3.38-.52,5.07a7.14,7.14,0,0,1-.34,1.75l1.33.06c.37-2.35,1.17-4.63,1.54-7C480,28,480.25,25.14,480.5,22.3Z"/><path class="cls-1" d="M486.14,22.83a46,46,0,0,1,.37,9.08,61.12,61.12,0,0,1-1.27,6.58l1.55.27c.67-5.31,2.06-10.45,2.22-15.84C488.05,22.91,487.1,22.88,486.14,22.83Z"/><path class="cls-1" d="M475.43,21.53l-1.8-.32c.38,2.67-.19,5.71-.57,8.34s-.88,5.47-1.38,8.19l2,0A61.41,61.41,0,0,0,475,29.38C475.17,26.78,475.13,24.13,475.43,21.53Z"/><path class="cls-1" d="M481,22.36a51.89,51.89,0,0,1-.6,8.54c-.34,2.35-1.08,4.59-1.51,6.91.83,0,1.65.1,2.48.18,1.61-5,2-10.14,2.12-15.36C482.63,22.55,481.8,22.47,481,22.36Z"/><path class="cls-1" d="M485.75,22.81l-1.51-.11c-.08,5.11-.37,10.6-2.47,15.33.87.08,1.75.19,2.62.32a48,48,0,0,0,1.44-7.87C485.94,27.92,485.75,25.36,485.75,22.81Z"/><path class="cls-1" d="M477.35,25.53a8.66,8.66,0,0,0,.08-3.62s0,0,0-.05l-1.74-.28a50,50,0,0,1-1.21,16.11l1.87,0c.63-2.32.42-5.18.6-7.53C477.08,28.64,477.12,27.06,477.35,25.53Z"/><path class="cls-1" d="M333.77,22.08a.47.47,0,0,1-.67.46,5.43,5.43,0,0,0-3.24-.24l-.73.15a3.79,3.79,0,0,0-.45.25c-.84.58,1,1.24,1.2,1.3a14.74,14.74,0,0,0,2.46.61,4.45,4.45,0,0,0,3.2-1C336.39,22.68,335.17,22.26,333.77,22.08Z"/><path class="cls-1" d="M369.77,19.92a5.9,5.9,0,0,0-1.56-.3,14.62,14.62,0,0,0-3.49.3,7.63,7.63,0,0,0-2.83,1c-.19.14-.26.28-.25.4l.27.16a11.81,11.81,0,0,0,7.51.71c.25-.07,2.49-.76,1.64-1.51A3.21,3.21,0,0,0,369.77,19.92Z"/><path class="cls-1" d="M325.16,4.88a13.6,13.6,0,0,0-4.07.15l-.44.09c-1.45.5-2.59,1.4-2.78,2.63a.49.49,0,0,1,.16.31,3.07,3.07,0,0,0,.24,1,5.4,5.4,0,0,0,2.59,1.27c.17,0,.09.29-.08.26a6.73,6.73,0,0,1-2.06-.82c2.44,2.75,10.32-.49,8.38-3.59A3.19,3.19,0,0,0,325.16,4.88Z"/><path class="cls-1" d="M298.4,10.21a19.9,19.9,0,0,0-2.75-.24c-.9.11-1.8.27-2.66.46a17.35,17.35,0,0,0-8,3.68c-.8.73-2.86,2.57-1.66,3.77,1.55,1.56,4.65,1.58,6.68,1.65a47.74,47.74,0,0,0,8.1-.38,17.53,17.53,0,0,0,4.66-1.23A11.72,11.72,0,0,0,305,16.76a.31.31,0,0,1,.11-.42,4.25,4.25,0,0,0,1-1,1.83,1.83,0,0,0,0-.47C305.88,11.88,300.68,10.6,298.4,10.21Z"/><path class="cls-1" d="M341,11.41a.38.38,0,0,1,0-.75,14.54,14.54,0,0,1,4.06.67,22.83,22.83,0,0,0-11.59-1.72c-1.76.26-4.41.79-4.78,2.9-.33,1.84.77,3.11,2.35,3.88,2.87,1.4,6.18,1.73,9.32,2a23.32,23.32,0,0,0,3.18.12c2.07-.34,4.11-1.17,4.76-3.13a1.6,1.6,0,0,0,0-.21C347.82,12.21,343.38,11.44,341,11.41Z"/><path class="cls-1" d="M328.2,11.51a2.44,2.44,0,0,0-.48,1.49,3.74,3.74,0,0,0,.48,1.86A4,4,0,0,1,328.2,11.51Z"/><path class="cls-1" d="M282.33,17.83c-.81-1.73,1.24-3.63,2.39-4.59A15.41,15.41,0,0,1,288.51,11c-2.6.62-6.5,1.54-7.85,4-2.23,4,3.92,5.14,6.5,5.22h.39l-.8-.11C285.23,19.81,283.06,19.41,282.33,17.83Z"/></g><g id="stroke"><path class="cls-2" d="M538.48,11.94c.19-.33-.15-.82-.53-.57l-.17.1c-5.43-3.25-13.73.36-18.91,2.29-5,1.84-9.79,4-14.73,5.83a39,39,0,0,1-14.85,2.48c-1.81,0-3.61-.11-5.4-.25h0a137.48,137.48,0,0,1-18.64-3h0c-.67-.14-1.35-.29-2-.45a.41.41,0,0,0-.54-.12c-6.37-1.46-12.7-3.07-19-4.38-16.09-3.32-32.55-5.31-48.88-7-33.62-3.57-67.43-4.77-101.21-5.5C258.14.57,222.77-.14,187.39,0q-26.56.12-53.1,1Q121,1.52,107.72,2.25C103,2.51,98.21,3,93.44,3c-14.63-.08-29.25-.2-43.86.85a169.89,169.89,0,0,0-25.21,3.4c-6,1.35-12.51,3.2-17.32,7.22a10.36,10.36,0,0,0-3.94,7.73C.06,23.52-.48,27.7.34,30.56c1,3.36,4.44,5.38,7.43,6.66.48.21,1,.4,1.46.57A13.77,13.77,0,0,0,12.83,42c7,5.64,16.6,7,25.22,8.34A74.26,74.26,0,0,1,53.8,54.26a69.81,69.81,0,0,0,7.64,3,31.5,31.5,0,0,0,7.91,1c5.35.08,10.68-1,15.92-1.91A52.46,52.46,0,0,1,102,55.64c5.64.79,11.12,2.43,16.78,3.13,5.5.67,10.8-1.25,16.12-2.36a23.49,23.49,0,0,1,9.52-.2c2.46.5,5.16,1.7,7.72,1.24a29.89,29.89,0,0,0,3.69-1.07,13.9,13.9,0,0,1,4.54-.5c3.25,0,6.43.79,9.7.59.33,0,.35-.54,0-.52-5,.22-10-1.63-14.95-.08a15.2,15.2,0,0,1-3.7.92,14.32,14.32,0,0,1-4.3-.64,27.25,27.25,0,0,0-7.51-1.06c-4.89.12-9.58,1.92-14.36,2.75-5.42.95-10.82-.4-16.11-1.54a62.83,62.83,0,0,0-14.62-1.84c-5.39.1-10.73,1.51-16,2.33-5.83.9-11.75,1.22-17.49-.35-2.66-.72-5.07-2.08-7.62-3.1a51.57,51.57,0,0,0-8.16-2.4C35,48.68,23.8,48.5,14.74,42.58a15.51,15.51,0,0,1-4.55-4.47c3.43,1.1,7.06,1.68,10.51,2.62C26,42.15,31.39,43.8,36.9,43.41c4,.81,8,1.55,11.94,2.45,12.62,4.89,25.45,3.57,36.58,3.38,16.92-.28,31.29,1.52,48.2,1.43,35.21-.19,70.41-.92,105.62-1.24s70.29-.42,105.44-1.82,70.21-3.76,105.19-7.19q2.86-.29,5.7-.6a.38.38,0,0,0,.57-.06c2.54-.27,5.07-.54,7.59-.76a.33.33,0,0,0,.47,0c1.52-.13,3-.24,4.55-.32a.41.41,0,0,0,.61,0c1.44-.07,2.88-.12,4.32-.13a.37.37,0,0,0,.6,0,70,70,0,0,1,10.31.7.42.42,0,0,0,.24,0A52.5,52.5,0,0,1,492.49,41l.61.2a.43.43,0,0,0,.26.09,169.33,169.33,0,0,1,15.93,6.5c5,2.19,10.11,4.87,15.49,6,3.06.63,6.58.4,8-2.77a8.54,8.54,0,0,0,.46-5.36.41.41,0,0,0-.13-.72l-.06,0a9.78,9.78,0,0,0-.63-1.66.38.38,0,0,0-.16-.3,9.7,9.7,0,0,0-1.88-2.53c-2.88-2.73-7.21-3.6-10.84-4.87-2.18-.75-7.76-3.08-4.49-5.74,2.36-1.92,5.65-2.95,8.44-4,3.29-1.29,6.61-2.51,9.83-4,2.87-1.28,10-4.5,6.49-8.57A8.44,8.44,0,0,0,538.48,11.94ZM2.61,33.05c-2.53-2.66-2.93-8.23.5-10.37.15,3.83,2.22,7,5,9.41,0,.71,0,1.39.06,2a8.93,8.93,0,0,0,.67,2.76A16.41,16.41,0,0,1,2.61,33.05Zm20.83,7.66c-4-1.06-8.1-1.91-12.11-3-.56-.16-1.12-.33-1.67-.52a10.26,10.26,0,0,1-1-4.55,28.85,28.85,0,0,0,2.67,1.95c6.54,4.2,14,6.35,21.6,8A59.05,59.05,0,0,1,23.44,40.71Zm427.5-1.13c-35,3.47-70.07,5.8-105.19,7.22s-70.28,1.51-105.44,1.81-70.41,1-105.61,1.21c-16.6.1-30.62-1.29-47.21-1.42-6,0-12.09.41-18.15.28a58.6,58.6,0,0,1-20.07-3.52C40.78,43.1,32,41.88,23.66,39.24c-4.77-1.51-10.81-3.73-15-7.41v-.49c-.06-3.13-.33-6.54-3.7-7.73-.27-.1-.38.31-.13.42,3,1.27,3.2,4.32,3.22,7.24A13,13,0,0,1,3.82,22.8c-.45-5.7,4.91-9.23,9.45-11.31,7-3.21,15-4.53,22.56-5.57,16.54-2.27,33.36-2.44,50-2.31,7.33.06,14.51-.23,21.85-.65C125.4,2,143.11,1.38,160.83,1,196.21.37,231.6.81,267,1.5c34.16.66,68.32,1.26,102.4,3.78,16.87,1.25,33.71,3,50.45,5.38,8.44,1.2,16.9,2.49,25.24,4.25,4,.84,8,1.79,12,2.72a65.32,65.32,0,0,1-1.93,11.79c-.81,3.35-2.19,6.62-2.74,10Zm4.61-.48-2.41.26c.63-3.74,2.16-7.36,3-11.07a49.76,49.76,0,0,0,1.26-10.59l2,.47c-.41,3.86-1,7.67-1.74,11.48C457,32.8,456.68,36.08,455.55,39.1Zm.91-.1c1.13-2.88,1.41-6.1,2-9.11a60.7,60.7,0,0,0,1.33-11.63l.91.21c-.27,3.27-.31,6.55-.66,9.81-.4,3.59-1.63,7-2.22,10.58Zm2.05-.22c.76-3.25,1.69-6.49,2.15-9.8a56.34,56.34,0,0,0,.16-10.47l1.72.38c.54,6.69-1.25,13.2-2.48,19.73Zm5.13-.51c-1,.09-2.07.19-3.1.3,1.62-6.37,3.26-12.9,2.75-19.51l1.71.37C464.2,25.69,464.79,32,463.64,38.27Zm.75-.07c1.24-6.12.84-12.47.95-18.69l1.9.42.8.16a.76.76,0,0,0,0,.15c1,6.12-2.07,11.79-2,17.82Zm4.35-.32q-1.12.06-2.25.15c.75-5.89,3.17-11.79,2.34-17.77l1.56.31C469.79,26.34,469.36,32.11,468.74,37.88Zm.79,0a105.52,105.52,0,0,0,1.18-17.2l2.16.42a.33.33,0,0,0,0,.14c.43,2.63-.18,5.71-.49,8.34s-.85,5.46-1.1,8.22Zm4.17-.14-2,0c.5-2.72,1-5.45,1.38-8.19s.95-5.67.57-8.34l1.8.32c-.3,2.6-.26,5.25-.48,7.85A61.41,61.41,0,0,1,473.7,37.7Zm.78,0a50,50,0,0,0,1.21-16.11l1.74.28s0,0,0,.05a8.66,8.66,0,0,1-.08,3.62c-.23,1.53-.27,3.11-.4,4.65-.18,2.35,0,5.21-.6,7.53Zm2.21,0A7.14,7.14,0,0,0,477,36c.18-1.69.35-3.38.52-5.07.21-1.92.31-3.86.63-5.76a8.31,8.31,0,0,0,.07-3.14c.74.11,1.49.22,2.25.31-.25,2.84-.49,5.66-.94,8.47-.37,2.37-1.17,4.65-1.54,7Zm2.17.1c.43-2.32,1.17-4.56,1.51-6.91a51.89,51.89,0,0,0,.6-8.54c.83.11,1.66.19,2.49.27C483.29,27.85,483,33,481.34,38,480.51,37.91,479.69,37.85,478.86,37.81Zm5.53.54c-.87-.13-1.75-.24-2.62-.32,2.1-4.73,2.39-10.22,2.47-15.33l1.51.11c0,2.55.19,5.11.08,7.67A48,48,0,0,1,484.39,38.35Zm.85.14a61.12,61.12,0,0,0,1.27-6.58,46,46,0,0,0-.37-9.08c1,.05,1.91.08,2.87.09-.16,5.39-1.55,10.53-2.22,15.84Zm1.88.33a66.6,66.6,0,0,0,2.71-15.9c.46,0,.92,0,1.38,0a60,60,0,0,1-2.1,16.38C488.45,39.11,487.78,39,487.12,38.82Zm2.83.66a40.1,40.1,0,0,0,1.61-16.61c.76,0,1.51-.08,2.26-.14.53,5.87-1,11.54-2,17.27C491.17,39.81,490.56,39.64,490,39.48Zm3,.9-.77-.25c1.42-5.69,3-11.58,2.42-17.48.65-.07,1.3-.15,1.94-.25a61.66,61.66,0,0,1-1.38,9.35C494.52,34.62,493.26,37.43,493,40.38Zm47-25.67a3.06,3.06,0,0,1,.13.43c.51,2.44-3.67,4.33-5.3,5.16-6.06,3.1-12.86,4.64-18.79,8-1.09.62-3.11,1.84-2.79,3.38.59,2.84,4.79,4,7.09,4.83,3.9,1.31,8.48,2.4,10.92,5.9-1-.35-2-.57-2.93-.89-1.94-.67-3.84-1.46-5.79-2.12a81.62,81.62,0,0,1-11-4.7.09.09,0,0,0-.1.16,35,35,0,0,0,9.7,4.88c1.88.71,3.77,1.37,5.64,2.1,1.6.62,3.57.92,5,1.78l.19.06a7.4,7.4,0,0,1,.38,1,89.4,89.4,0,0,1-9.45-2.74c-1.87-.74-3.74-1.49-5.63-2.17-1.71-.63-3.21-1.65-5-2.09a.19.19,0,0,0-.1.36c1.7.57,3.23,1.5,4.86,2.23s3.37,1.37,5,2.08a81,81,0,0,0,10.52,3.26,10.65,10.65,0,0,1,.18,1.71c-3.52-1.27-7.21-2-10.78-3.16-2-.63-3.9-1.34-5.82-2.1s-3.5-1.85-5.47-2.23a.15.15,0,0,0-.09.28c1.7.57,3.13,1.56,4.75,2.27,1.89.84,3.82,1.58,5.77,2.26,3.75,1.32,7.67,2.11,11.4,3.5a.42.42,0,0,0,.22,0,9.37,9.37,0,0,1-.14,1.08,17.75,17.75,0,0,0-5-1.25,66.74,66.74,0,0,1-6.52-1.62c-2.16-.61-4.27-1.36-6.41-2a24,24,0,0,1-6.14-2.64c-.14-.1-.33.12-.19.24,2.71,2.47,7.11,3.41,10.5,4.53,2.24.73,4.51,1.33,6.8,1.91s4.52.61,6.54,1.62a.41.41,0,0,0,.21,0,5.41,5.41,0,0,1-1,2,.44.44,0,0,0-.21-.08,50,50,0,0,1-12-3.07c-2.13-.76-4.3-1.52-6.35-2.46A34.79,34.79,0,0,0,507.25,44a.14.14,0,0,0-.08.26c2,.89,3.89,2,5.87,3s3.91,1.63,5.88,2.37a49.45,49.45,0,0,0,11.58,3.11c-1.72,1-4.25.65-6,.28-5.44-1.12-10.69-4-15.72-6.23s-9.81-4.39-14.9-6.1c.26-3.16,1.64-6.23,2.31-9.32a40.3,40.3,0,0,0,.92-9,35.6,35.6,0,0,0,6.21-1.59c8.56-3.06,17.2-8,26.31-9.44a24.26,24.26,0,0,1-2.22,1.39c-2.3,1.06-4.67,1.94-7,2.84a69.21,69.21,0,0,0-11.72,5.43c-.16.1,0,.36.14.26a66.32,66.32,0,0,1,11.74-5.06c1.83-.66,3.67-1.33,5.48-2.05a21.66,21.66,0,0,0,2.78-1.25,9.82,9.82,0,0,1,2.58-1.46.35.35,0,0,0,.26-.35l.49,0a10.92,10.92,0,0,1,5,.91,33.2,33.2,0,0,1-6,2.35c-2.47.79-4.9,1.65-7.32,2.55-4.74,1.77-9.8,3.75-13.79,6.91-.13.09,0,.29.16.21l.36-.2a.1.1,0,0,0,0-.16l.17.06,1.09-.65c.55-.33,1.11-.63,1.66-.94,1.13-.61,2.28-1.17,3.44-1.71,2.69-1.24,5.47-2.27,8.26-3.26,4.19-1.5,9-2.39,12.82-4.72l.19.13c-7.68,4.43-16.41,6.67-23.94,11.47a.16.16,0,0,0,.16.28c4-1.94,7.94-3.95,12.06-5.65s8.4-3.08,12.23-5.51a.68.68,0,0,0,.12-.12,4.69,4.69,0,0,1,1,1.13.41.41,0,0,0-.21,0c-8.55,4.54-17.65,8.12-25.88,13.23a.17.17,0,0,0,.16.29c8.48-4.71,17.68-8,26.1-12.83A.33.33,0,0,0,540,14.71Z"/><path class="cls-2" d="M39.12,13.58a7,7,0,0,0-8.93,3.85,6.53,6.53,0,0,0-.46,3.83.33.33,0,0,0-.05.34c1.74,5.69,12.62,6.21,13.4-.43C43.43,18.21,42.17,14.64,39.12,13.58Zm2.15,10A4.2,4.2,0,0,1,39.09,25a7.19,7.19,0,0,1-1.19.21h-.28a11.12,11.12,0,0,1-4.24-.77l-.15-.08a5,5,0,0,1-2.44-6c1.24-4.15,6.5-5.84,9.68-2.82A6.58,6.58,0,0,1,41.27,23.55Z"/><path class="cls-2" d="M114.38,15.88c1.31-3.56-2.1-6.48-4.93-7.88a11.4,11.4,0,0,0-4.37-1.09s0-.12-.07-.12c-4.89,0-12.66.64-15.42,5.39a3.31,3.31,0,0,0-.31.66,4.5,4.5,0,0,0-.21,3.39,3.82,3.82,0,0,0,.84,1.25,5.36,5.36,0,0,0,1,1.11c2.1,1.85,5.26,2.32,7.94,2.59C103.9,21.7,112.24,21.68,114.38,15.88Zm-10.54,4.74c-2.79.12-7.49.14-10.73-1.33a.36.36,0,0,0-.11-.51c-1.45-.94-2.8-1.68-3.23-3.08,0-.22-.09-.45-.12-.68a4.45,4.45,0,0,1,.08-1.23C90.09,12,92,10.84,93.5,10.08a25.21,25.21,0,0,1,11.74-2.36c4.19.16,10.69,4,8,8.94C111.54,19.71,107,20.49,103.84,20.62Z"/><path class="cls-2" d="M202.36,10.24c-.62-2.3-2.81-3.64-5.13-4.36-.43-.17-.87-.31-1.3-.44A44.08,44.08,0,0,0,181.05,4.3a49.37,49.37,0,0,0-12.3,2c-2.68.81-5.55,2.09-7.06,4.38a6.43,6.43,0,0,0-1,1.71,3.38,3.38,0,0,0,.4,3.42,7,7,0,0,0,4.53,3.34c2.31.66,4.75,1,7.11,1.43A60.49,60.49,0,0,0,181,21.77a50.54,50.54,0,0,0,14.71-1.24c3.76-1,6.86-3.85,7.06-7.87A5.71,5.71,0,0,0,202.36,10.24ZM190.82,20.6c1.7-.34,3.37-.75,5-1.21a10.1,10.1,0,0,0,4.87-2.86C198.62,19.49,194.55,20.28,190.82,20.6Zm9.26-4.47c-1.36,1.63-3.66,2.28-5.63,2.79a48.26,48.26,0,0,1-13.71,1.78.34.34,0,0,0-.32.15,64.34,64.34,0,0,1-7.47-1c-.88-.17-1.91-.3-3-.46l-.58-.13c-2.43-.57-5.1-1.33-7-3A3.81,3.81,0,0,1,162,16a1.77,1.77,0,0,1-.12-.17c-1.35-2.17.31-4.68,1.92-6.16a12.25,12.25,0,0,1,1.65-1.17,22.88,22.88,0,0,1,4.3-1.61,44.81,44.81,0,0,1,12-1.64,77,77,0,0,1,11.05.61,26.65,26.65,0,0,1,4.31.79,14,14,0,0,1,1.72.78A5.73,5.73,0,0,1,201.71,11,6.93,6.93,0,0,1,200.08,16.13Z"/><path class="cls-2" d="M251.12,3.74c-4.7-.75-14.41.27-15.05,6.53-.26,2.55,2.4,4,4.44,4.64a16.63,16.63,0,0,0,8.55,0l.56-.13c.39,0,.78-.08,1.17-.1a.19.19,0,0,0,.16-.28c2.72-.86,6.24-2.53,6.33-4.88A3.38,3.38,0,0,1,254,13.43c-.49,0-.52.81,0,.77a4.09,4.09,0,0,0,4-5C257.53,5.72,254.19,4.22,251.12,3.74Zm-.43,10a18.38,18.38,0,0,1-9.5.59,7.91,7.91,0,0,1-2.71-1.14,3.89,3.89,0,0,1,.77-6.2c2.61-1.75,6.22-2.11,9.27-2.08s6.49.85,7.94,3.73S252.41,13.2,250.69,13.72ZM256.14,7a8.31,8.31,0,0,0-4-2.32,6.64,6.64,0,0,1,4.51,2.94s0,.09.07.13A7.11,7.11,0,0,0,256.14,7Z"/><path class="cls-2" d="M348.91,13.54c-.91-2.13-4-3.16-6-3.82a21,21,0,0,0-7.06-1.09c-3.53-.15-7.45.46-8.58,3.44-2.13,5.64,8,7.07,11.31,7.34a20.49,20.49,0,0,0,5-.07c2.61-.1,5.28-.83,5.59-3.51a3.31,3.31,0,0,0,0-1A2.77,2.77,0,0,0,348.91,13.54ZM327.72,13a2.44,2.44,0,0,1,.48-1.49,4,4,0,0,0,0,3.35A3.74,3.74,0,0,1,327.72,13Zm20.57,2.41c-.65,2-2.69,2.79-4.76,3.13a23.32,23.32,0,0,1-3.18-.12c-3.14-.3-6.45-.63-9.32-2-1.58-.77-2.68-2-2.35-3.88.37-2.11,3-2.64,4.78-2.9a22.83,22.83,0,0,1,11.59,1.72,14.54,14.54,0,0,0-4.06-.67.38.38,0,0,0,0,.75c2.41,0,6.85.8,7.37,3.79A1.6,1.6,0,0,1,348.29,15.41Z"/><path class="cls-2" d="M417.42,13.58a16.43,16.43,0,0,0-6.56-2.36A31.65,31.65,0,0,0,395,12.29l-.22.08a12.62,12.62,0,0,0-3.7,1.13c-1.78.9-1.79,2.6-.82,4.14,1.43,2.25,4.63,2.88,7,3.27l.39.05c.89.2,1.78.36,2.63.5a60.13,60.13,0,0,0,8.48.71,42.79,42.79,0,0,0,6.09-.33c2.49-.29,5.6-.94,5.5-4A4.72,4.72,0,0,0,417.42,13.58Zm-6.14-1.48c.39.07.81.16,1.25.27a57.15,57.15,0,0,0-7.14-.11c-2.08,0-4.36-.14-6.62-.15A34.16,34.16,0,0,1,411.28,12.1Zm-19.77,6c-.92-.78-1.83-2.37-.93-3.46a3.86,3.86,0,0,1,2.05-1.12,3.81,3.81,0,0,0-1.15,1.48c-.66,1.63.38,3.14,1.65,4.06.2.14.41.27.63.4A8.55,8.55,0,0,1,391.51,18.15Zm28.08-.28c0-.16,0-.3,0-.45,0,0,0,0,0,0,1,4.36-8.32,4.15-12.9,3.86,1.54-.07,3.07-.19,4.59-.34.13,0,.14-.22,0-.22a81,81,0,0,1-9.48.12l-.94-.05c-3-.37-6.23-1.12-8.11-3.09-2.06-2.17.31-3.75,2.6-4.66a47,47,0,0,1,7-.14c2.69.08,5.38-.06,8.06.07,2.07.1,4.89.33,6.88,1.49a3.86,3.86,0,0,1,1.47,3.35C418.75,18.37,419.55,18.38,419.59,17.87Z"/><path class="cls-2" d="M304.94,11.09a13.63,13.63,0,0,0-9.35-1.91,27.86,27.86,0,0,0-12.57,3c-1.42.71-3.14,1.9-3.39,3.6A4,4,0,0,0,282,19.85c3.55,1.69,8.06,1,12.08.47l.56,0a28,28,0,0,0,7.38-1.23c1.45-.48,4.06-1.55,4.7-3.28C307.85,14.13,306.9,12.41,304.94,11.09Zm-17.78,9.08c-2.58-.08-8.73-1.18-6.5-5.22,1.35-2.45,5.25-3.37,7.85-4a15.41,15.41,0,0,0-3.79,2.28c-1.15,1-3.2,2.86-2.39,4.59s2.9,2,4.42,2.23l.8.11Zm18.9-4.85a4.25,4.25,0,0,1-1,1,.31.31,0,0,0-.11.42,11.72,11.72,0,0,1-2.18,1.16,17.53,17.53,0,0,1-4.66,1.23,47.74,47.74,0,0,1-8.1.38c-2-.07-5.13-.09-6.68-1.65-1.2-1.2.86-3,1.66-3.77a17.35,17.35,0,0,1,8-3.68c.86-.19,1.76-.35,2.66-.46a19.9,19.9,0,0,1,2.75.24c2.28.39,7.48,1.67,7.7,4.64A1.83,1.83,0,0,1,306.06,15.32Z"/><path class="cls-2" d="M77,16.79a16.05,16.05,0,0,0-7.74,1.39,4.76,4.76,0,0,0-.94.65c-1,.28-2.18.84-2,2A2.6,2.6,0,0,0,67,22.27a3.78,3.78,0,0,0,2.5,2.42,13.46,13.46,0,0,0,3,.82,17.54,17.54,0,0,0,8.53,1.1c3.58-.53,5.84-4.83,3-7.66C82.24,17.24,79.3,16.89,77,16.79Zm-8.74,6.52c.21.15.42.28.62.4.39.25.79.48,1.21.7A4.61,4.61,0,0,1,68.23,23.31Zm14.59,1.92c-1.73,1-4.1.83-6,.5a36.31,36.31,0,0,0,4.62-.5c.25-.05.15-.42-.09-.38a36.07,36.07,0,0,1-7,.3,21.81,21.81,0,0,1-4.42-1.8,10.16,10.16,0,0,1-2.28-1.58,2.83,2.83,0,0,1,.06-.64,3.29,3.29,0,0,1,.75-1.49l.43-.11a.4.4,0,0,0,.27-.52c1.54-1.1,3.93-1.37,5.61-1.5,2.84-.22,6.5,0,8.76,1.93A3.76,3.76,0,0,1,82.82,25.23Z"/><path class="cls-2" d="M141.87,10.22c4.58,1.49,12.36,1.31,15.82-2.51,1.52-1.68.22-3.36-1.5-4.08l-.36-.14a3.92,3.92,0,0,0-.56-.35c-2.45-1.24-6.47,0-8.9.71-2.17.62-5.32,1.65-6.58,3.65C138.87,9,140.79,9.87,141.87,10.22Zm5.68-5.7a18.78,18.78,0,0,1,6.83-.78,3.71,3.71,0,0,1,1.73,1.19c1.51,1.62.1,3-1.39,3.71a.33.33,0,0,0-.2.36,20.14,20.14,0,0,1-3.91,1,.16.16,0,0,0-.17-.07l-.81.15a25.14,25.14,0,0,1-6.13-.3L143,9.67a1.85,1.85,0,0,1-.64-.86C141.55,6.57,146.2,4.93,147.55,4.52Zm-5.92,2.36a13.21,13.21,0,0,1,1.4-.83c-1,.87-1.78,2-1.17,3.14,0,.08.1.14.14.21a5.35,5.35,0,0,1-1.07-.47C139.78,8.25,140.94,7.35,141.63,6.88Z"/><path class="cls-2" d="M71.43,10.57C72,8,69.8,7.35,67.3,7.46,64.87,6.77,61,7.58,60,9.6a1.68,1.68,0,0,0-.11,2.72c1.23,1.19,3.52,1.16,5.39,1h.24C67.18,13.2,71,12.72,71.43,10.57Zm-3.23,1.5a11.69,11.69,0,0,1-2.28.39c-1.59.15-3.89.26-5.13-.94-.81-.77-.35-1.5.43-2.07l.58-.26A14.68,14.68,0,0,1,66,8.05a3.17,3.17,0,0,1,2.22.8.41.41,0,0,0,.59-.57l-.1-.09a4.06,4.06,0,0,1,1.76.94C72,10.54,69.08,11.8,68.2,12.07Z"/><path class="cls-2" d="M54.67,15.6s-.06,0-.09.06c-1.09.33-2.11.86-1.38,1.56,1.35,1.33,4.33,1.31,6.06,1.22,1-.06,3.69-1,2.22-2.39C59.71,14.31,56.7,14.54,54.67,15.6Zm5.76,1.94a6,6,0,0,1-2,.25,15.92,15.92,0,0,1-3.51-.38c-1-.22-1.49-.86-.38-1.29h0a.4.4,0,0,0,.53.17,5.89,5.89,0,0,1,5-.35C60.82,16.24,61.55,17.1,60.43,17.54Z"/><path class="cls-2" d="M80.5,8c-1.64.27-4.09,1.42-3.15,3.48C78,12.9,80.52,13,82.41,12.89l.11,0c1.38.08,5.56-1.11,4.37-3.28S82.63,7.59,80.5,8Zm4.72,3.56a6.79,6.79,0,0,1-2.69.66.38.38,0,0,0-.35.32A10.1,10.1,0,0,1,79,12c-1.16-.38-1.72-1.51-.81-2.46a4.2,4.2,0,0,1,2.17-1,8.9,8.9,0,0,1,4.72.21,2.33,2.33,0,0,1,.89.64C86.89,10.4,86,11.1,85.22,11.51Z"/><path class="cls-2" d="M94.12,7a1.34,1.34,0,0,0,.55-1.65c-.4-1-1.24-1.18-2.21-1.3-1.4-.17-5.14-.23-5.55,1.68-.17.83.65,1.36,1.63,1.68a.36.36,0,0,0,.24.34A6.69,6.69,0,0,0,94.12,7ZM88.91,7c-.91-.32-1.67-.8-1.38-1.38.65-1.27,3.53-1,4.65-1,.74,0,1.79.19,1.9,1.11.07.65-1,1-1.45,1.08A7.87,7.87,0,0,1,89,7Z"/><path class="cls-2" d="M98.42,23c-1.6-.07-6.19-.08-6.67,2.1-.24,1.11,1.42,1.64,3,1.87a.34.34,0,0,0,.25.45c1.85.32,6,.65,7.3-1.11C104,23.89,99.91,23,98.42,23Zm2.21,3.47a11.9,11.9,0,0,1-4.34.26c-1.5-.22-4.63-.89-3.75-1.9,1.1-1.29,4-1.2,5.49-1.19a8.69,8.69,0,0,1,2.64.38C102.25,24.47,102.14,25.93,100.63,26.42Z"/><path class="cls-2" d="M137.28,15.53a6.09,6.09,0,0,0-2.34-.63c.07-.1,0-.26-.12-.25a35,35,0,0,0-6.9.76,7.63,7.63,0,0,0-3.18,1.36,2.13,2.13,0,0,0-1,1.53c-.32,1.63,3,2.56,4.27,2.62a23.44,23.44,0,0,0,4.72-.45,8.79,8.79,0,0,0,4.13-1.41C138.08,18.09,139,16.45,137.28,15.53Zm.05,2a3,3,0,0,1-.63.83c-.07-.19-.28-.33-.46-.19A11.3,11.3,0,0,1,130,20a14.56,14.56,0,0,1-3.23-.23,5.21,5.21,0,0,1-1.52-.54,1.57,1.57,0,0,1-.19-.12,2.64,2.64,0,0,1,0-1.48,6.35,6.35,0,0,1,1.63-.89,20.38,20.38,0,0,1,8-1C135.58,15.82,138.08,16,137.33,17.51Z"/><path class="cls-2" d="M114.73,8.15a11.48,11.48,0,0,0,5.86,1.64.36.36,0,0,0,.37.39,5.63,5.63,0,0,0,4.61-2c.74-.84,1.42-2.48.51-3.46-2.16-2.34-6.94-2-9.64-1C114.77,4.37,112.63,6.69,114.73,8.15Zm.94-3.25c2-1.39,5-1.28,7.29-.86,1.45.28,3.35,1.08,2.48,3s-2.7,2.35-4.46,2.39a.58.58,0,0,0-.14,0C117.89,9.05,111.9,7.56,115.67,4.9Z"/><path class="cls-2" d="M135.51,13.05c.47-.16.31-.89-.19-.76h0A2.1,2.1,0,0,0,136,9.18,4,4,0,0,0,131.47,8c-1.15.35-2.62,1.52-2.41,2.88C129.42,13.22,133.77,13.66,135.51,13.05Zm-5.06-3.49a3.85,3.85,0,0,1,3.47-.89c1.54.34,2.36,2,.89,3a4.15,4.15,0,0,1-3.35.17,2.26,2.26,0,0,1-1.53-1.1A1.62,1.62,0,0,1,130.45,9.56Z"/><path class="cls-2" d="M123.4,13c-.45-1.52-3.11-2-4.41-1.72a.48.48,0,0,0-.22.13,2.54,2.54,0,0,0-2.32,1.4c-.67,2.06,1.73,3,3.34,3C121.14,15.78,124,14.88,123.4,13Zm-3.59,2c-1.11.09-3.57-.65-2.63-2.24a2.19,2.19,0,0,1,1.55-.87.44.44,0,0,0,.47.22,4.09,4.09,0,0,1,3.12.77C123.7,14.06,120.54,15,119.81,15Z"/><path class="cls-2" d="M134,6.11c1.92.11,4.43,0,6-1.19,2.12-1.61-.66-3.4-2.46-2.8a.37.37,0,0,0-.19.12c-2.47-.23-5.61-.21-6.93,1.9C129.34,5.82,133.22,6.07,134,6.11Zm-1.77-2.64a9.52,9.52,0,0,1,5-.84.38.38,0,0,0,.49.3c.95-.21,3.06.6,1.53,1.54a6.92,6.92,0,0,1-2.36.74,12.39,12.39,0,0,1-2.92.15,11.81,11.81,0,0,1-1.78-.19C130.82,4.92,131.1,4.09,132.18,3.47Z"/><path class="cls-2" d="M148,19.5a17,17,0,0,0-7.09,1.36c-1.13.58-1.16,1.33-.73,2a1.6,1.6,0,0,0,1.19,1.26,7.84,7.84,0,0,0,1,.26,13.22,13.22,0,0,0,3.35.47,34.66,34.66,0,0,0,4,.19,11.48,11.48,0,0,0,2-.13c1.73-.23,2.95-.77,2.87-1.84C154.37,20.48,150,19.44,148,19.5Zm4.91,4.25-.23.08a11.64,11.64,0,0,1-1.89.43,35.31,35.31,0,0,1-6.13-.32c-1.27-.11-3.06-.31-3.87-1.44a1.31,1.31,0,0,1,.22-.39,5.8,5.8,0,0,1,2.78-1.26c.33-.1.67-.18,1-.26.9-.14,1.81-.22,2.7-.28a9.32,9.32,0,0,1,2.73.23C151.26,20.78,155.31,22.8,152.87,23.75Z"/><path class="cls-2" d="M142.78,18.46a4.75,4.75,0,0,0,4.25-1.3c.91-1,.21-1.9-.71-2.46-1-1.08-3.44-1-4.74-.62a2.38,2.38,0,0,0-1.91,2.06C139.63,17.64,141.61,18.3,142.78,18.46ZM142.5,15a4.24,4.24,0,0,1,2.91.15,1.31,1.31,0,0,1,.57,1.29.34.34,0,0,0,.29.39,5.66,5.66,0,0,1-2.25.9,5.35,5.35,0,0,1-2-.28c-.12-.06-.24-.1-.36-.17C140.16,16.4,141.5,15.29,142.5,15Z"/><path class="cls-2" d="M121.58,27.43a2.09,2.09,0,0,0-.31.53c-.77,1.09,0,1.88,1.1,2.4a4.9,4.9,0,0,0,1.79.58,7.75,7.75,0,0,0,1,.17,12.68,12.68,0,0,0,5.06-.35c1-.34,2.27-1.65,1.56-2.81C130,25,123.72,24.72,121.58,27.43Zm8,2.61a6.26,6.26,0,0,1-1.42.22c-1.87,0-4.58-.16-5.78-.82-.49-.31-.71-.71-.27-1.23a.43.43,0,0,0,.09-.41c1.76-2,6-1.54,8-.35C132.42,28.78,130.45,29.78,129.63,30Z"/><path class="cls-2" d="M109,21.92a1.48,1.48,0,0,0-.55,2.2,1.85,1.85,0,0,0,.8.53,4.52,4.52,0,0,0,2.11.37,4,4,0,0,0,3.18-1.25,1.24,1.24,0,0,0-.23-1.89C112.92,20.82,110.37,21.07,109,21.92Zm3.92,1.94a5.79,5.79,0,0,1-2.07.23c-.74,0-2.48-.81-1-1.36a.46.46,0,0,0,.29-.55,5.24,5.24,0,0,1,2.49,0,2.76,2.76,0,0,1,1.21.47C114.44,23.09,113.22,23.75,112.9,23.86Z"/><path class="cls-2" d="M156.4,12.1a4.38,4.38,0,0,0-3.4.57A2.59,2.59,0,0,0,151.91,14a.61.61,0,0,0-.11.18c-1.25,3.77,9.3,3.21,7.37-.58C158.69,12.67,157.33,12.29,156.4,12.1Zm-3.74,2.35a.43.43,0,0,0-.1-.42,1.36,1.36,0,0,1,.29-.46,3.37,3.37,0,0,1,1.57-.83A4.33,4.33,0,0,1,158.47,14C159.72,15.82,152,16.83,152.66,14.45Z"/><path class="cls-2" d="M230.76,4a.39.39,0,0,0-.31-.39,8.91,8.91,0,0,0-2.13-.29,8.64,8.64,0,0,0-3.38.37c-2.85.73-5.16,2.57-3.82,5.82,1.67,4,11.28,3.56,12.59-.56C234.42,6.72,232.63,5,230.76,4Zm2,4.89c-.94,2-4,2.74-6.65,2.41a11.1,11.1,0,0,1-2.56-1c-1.86-1-2.19-2.68-1.36-4A6.13,6.13,0,0,1,225,4.55a9.68,9.68,0,0,1,4.35-.23l.13,0C231.33,4.88,233.82,6.76,232.79,8.91Z"/><path class="cls-2" d="M213,19.07c-2.52-1-12.51-1.39-10.76,3.68.65,1.89,3.31,2.26,5.12,2.37l.1,0c2.59.46,5.32.38,7.44-1.36C217.24,21.88,215,19.83,213,19.07Zm1.63,4a.36.36,0,0,0-.41,0c-2.08,1.4-5.62,1.5-8.24,1a3.41,3.41,0,0,1-2.4-1.86c-.82-2.15,4.24-2.74,5.44-2.75,0,0,0,0,.06,0l.77,0c1.51.09,5,.49,5.16,2.47A1.54,1.54,0,0,1,214.66,23Z"/><path class="cls-2" d="M275.36,18.59c-2.18-.29-5.91-.19-7.42,1.73a3.07,3.07,0,0,0-.49.92,1.86,1.86,0,0,0-.19,1.49c.71,2.46,4.14,3.08,6.32,2.81s5.29-1,6-3.31S276.93,18.81,275.36,18.59Zm-3,6.1a7.1,7.1,0,0,1-1.14-.11,4.88,4.88,0,0,1-.7-.19,11.5,11.5,0,0,0,1.85.2S272.32,24.66,272.32,24.69Zm4.38-1a4.93,4.93,0,0,1-1.33.48.26.26,0,0,0-.27-.15,13.9,13.9,0,0,1-5-.28c-.86-.22-1.78-.66-2-1.56.15-.75,1.21-1.39,1.77-1.68a7,7,0,0,1,7.15.4C278.57,21.83,278,23,276.7,23.65Z"/><path class="cls-2" d="M328.52,8.23A2.67,2.67,0,0,0,327,4.72a3.36,3.36,0,0,0-.81-.45,8.56,8.56,0,0,0-6.31.32,5.2,5.2,0,0,0-2.45,1.61A1.88,1.88,0,0,0,317,7.76a3,3,0,0,0,.26,1.81c1,2.15,3.55,2.44,5.67,2.18S327.8,10.35,328.52,8.23Zm-9.8,1.5a6.73,6.73,0,0,0,2.06.82c.17,0,.25-.22.08-.26A5.4,5.4,0,0,1,318.27,9a3.07,3.07,0,0,1-.24-1,.49.49,0,0,0-.16-.31c.19-1.23,1.33-2.13,2.78-2.63l.44-.09a13.6,13.6,0,0,1,4.07-.15,3.19,3.19,0,0,1,1.94,1.26C329,9.24,321.16,12.48,318.72,9.73Z"/><path class="cls-2" d="M330.52,21.4c-2.11.12-4.2.93-2.94,2.88.81,1.26,3.36,1.11,4.61,1.07,1.6-.06,3.31-.25,4.3-1.63C338.32,21.14,331.87,21.21,330.52,21.4Zm5,2.23a4.45,4.45,0,0,1-3.2,1,14.74,14.74,0,0,1-2.46-.61c-.16-.06-2-.72-1.2-1.3a3.79,3.79,0,0,1,.45-.25l.73-.15a5.43,5.43,0,0,1,3.24.24.47.47,0,0,0,.67-.46C335.17,22.26,336.39,22.68,335.54,23.63Z"/><path class="cls-2" d="M382.43,10.3a28.16,28.16,0,0,0-3.42-.06,19.7,19.7,0,0,0-5,.44c-2.6.44-4.69,1.27-4.31,2.77a2.52,2.52,0,0,0,1.41,1.45c.92,1.13,2.7,1.54,4,1.81a21.69,21.69,0,0,0,8.68.09c1.93-.41,3.65-1.54,3.39-3.71S384.07,10.5,382.43,10.3Zm3.31,4.75a5.62,5.62,0,0,1-3.2,1.19,23.05,23.05,0,0,1-10.89-2c-1.08-1.4,2.12-2.48,3.35-2.75,1.83-.4,4.29-.75,6.1-.1a.4.4,0,0,0,.55-.37l1.1.1C384.49,11.37,388.06,12.9,385.74,15.05Z"/><path class="cls-2" d="M369.51,19a11,11,0,0,0-6.35.45,5.28,5.28,0,0,0-2.58,1.37.33.33,0,0,0,0,.47,1.07,1.07,0,0,0,.14.16c.31.9,2.22,1.63,3.16,1.82a.4.4,0,0,0,.42-.16,17.89,17.89,0,0,0,4.68,0c1.16-.14,2.69-.6,3.1-1.81S370.33,19.2,369.51,19Zm-.09,3.22a11.81,11.81,0,0,1-7.51-.71l-.27-.16c0-.12.06-.26.25-.4a7.63,7.63,0,0,1,2.83-1,14.62,14.62,0,0,1,3.49-.3,5.9,5.9,0,0,1,1.56.3,3.21,3.21,0,0,1,1.29.74C371.91,21.41,369.67,22.1,369.42,22.17Z"/><path class="cls-2" d="M441.36,17a21.54,21.54,0,0,0-2.89,0c-1.4-.06-3.07.08-3.87,1.06l-.25.14a.35.35,0,0,0-.14.46l0,.05c-.8,2.55,6.39,2.78,7.71,2.84s9.08.14,6-2.71C446.29,17.27,443.5,17.06,441.36,17Zm6,3.4a8.62,8.62,0,0,1-2.72.35,27.53,27.53,0,0,1-6.86-.4,21.08,21.08,0,0,1-2.63-1.4c.13-.39.86-.74,1.34-.86a10.74,10.74,0,0,1,3.3-.08,15,15,0,0,1,6,1.5.44.44,0,0,0,.53-.7C447.28,19.23,448.37,20,447.36,20.35Z"/><path class="cls-2" d="M272.9,7.74a10.27,10.27,0,0,0,6.29-.41c1.12-.45,3-1.92,1.9-3.27a3.52,3.52,0,0,0-.39-.38.39.39,0,0,0,0-.63c-2.26-2.07-8.08-1.21-9.59,1.47C270.3,6,271.52,7.31,272.9,7.74Zm-.37-3c.71-1.4,2.78-1.59,4.13-1.52.8,0,4.47.61,3.78,2.13C279.89,6.51,278.1,6.79,277,7a10.34,10.34,0,0,1-1.26.13h0C274.4,7.08,271.54,6.67,272.53,4.7Z"/><path class="cls-2" d="M201,5.56a2.49,2.49,0,0,0,.71.66,6.54,6.54,0,0,0,6-.14c.77-.44,1.86-1.56,1.72-2.55-.2-1.39-2.18-1.49-3.73-1.37a6.14,6.14,0,0,0-4.24.3,1.75,1.75,0,0,0-.95,1.22,1,1,0,0,0-.2,1.23A1.8,1.8,0,0,0,201,5.56ZM201.35,4a5.13,5.13,0,0,1,.66-.29A11.2,11.2,0,0,1,205.17,3a10.18,10.18,0,0,1,1.06.3.41.41,0,0,0,.52-.3,5.05,5.05,0,0,1,.68.08c.38.06,1.26.22,1.13.77-.27,1.17-1.8,1.81-2.82,2a6.64,6.64,0,0,1-2.94-.14C202.07,5.49,201.21,4.74,201.35,4Z"/><path class="cls-2" d="M175.2,23.48a8.24,8.24,0,0,0-2.33.63,5.31,5.31,0,0,0-2,.82,2.74,2.74,0,0,0-1.29,2,2.65,2.65,0,0,0-.16.89c0,1.62,2.21,1.76,3.39,1.73.45.07.87.11,1.23.13a8.06,8.06,0,0,0,4.74-1.09c1.4-.94,1.06-2.41.17-3.58A4.27,4.27,0,0,0,175.2,23.48Zm1.05,5.2a9,9,0,0,1-2.93.13.37.37,0,0,0-.34-.16h-.5a7.49,7.49,0,0,1-.92-.28,1.88,1.88,0,0,1-1.15-1,4.29,4.29,0,0,1,1.78-1.89,6.9,6.9,0,0,1,2.6-1.07c.23,0,.46.06.68.11a.19.19,0,0,0,.23-.18,3.38,3.38,0,0,1,3.15,2C179.6,27.85,177.25,28.48,176.25,28.68Z"/><path class="cls-2" d="M35.56,19.83h0a1.18,1.18,0,0,0,.16.29c.67.83,1.88-.44,1.16-1.18S35.08,19,35.56,19.83Z"/><path class="cls-2" d="M50.88,30.23c-.16,0-.22.25-.05.29s.64.16,1,.25a5.35,5.35,0,0,0-1.06.19c0-1.24,0-2.42-.06-3.4a.22.22,0,0,0-.43,0c-.19,4,.05,9.36-2.91,12.51a.4.4,0,0,0,.56.58,5.25,5.25,0,0,0,.75-.74.38.38,0,0,0,.21.16,5.82,5.82,0,0,0,7.6-4C57.36,32.58,54.18,30,50.88,30.23Zm-.16,1.1a12.47,12.47,0,0,1,2.2,0,.25.25,0,0,0,.2-.09,7.8,7.8,0,0,1,.7.38,23.16,23.16,0,0,0-3.11.5C50.72,31.88,50.72,31.61,50.72,31.33Zm-1.6,7.91a4,4,0,0,0,.27-.44,23.24,23.24,0,0,0,2.61.54A6.12,6.12,0,0,1,49.12,39.24Zm4-.26a.27.27,0,0,0-.22-.17c-1.09-.18-2.19-.28-3.27-.51a9,9,0,0,0,.34-.86c1.44.17,2.88.42,4.32.58a.28.28,0,0,0,.09-.55,18.11,18.11,0,0,0-4.29-.42c.08-.27.15-.55.21-.83,1.64.22,3.27.64,4.92.76A4.42,4.42,0,0,1,53.12,39Zm2.5-3.12a4.47,4.47,0,0,1-.2.65.31.31,0,0,0-.18-.09,36.61,36.61,0,0,0-4.91-.35c.06-.32.12-.64.17-1,1.69.23,3.46.39,5.17.45A1.81,1.81,0,0,1,55.62,35.86Zm0-2a3.72,3.72,0,0,1,.14,1h-.05a27.06,27.06,0,0,0-5.17,0c0-.38.09-.77.12-1.15,1.62-.13,3.27.09,4.89.09Zm-4.94-.38c0-.33,0-.66.05-1,1.24-.08,2.51,0,3.74-.22l.09,0a4.1,4.1,0,0,1,.79,1A36.36,36.36,0,0,0,50.66,33.44Z"/><path class="cls-2" d="M48.86,31.52a15.3,15.3,0,0,1-3.11,8.66c-.19.24.2.54.41.33,2.4-2.37,3-5.74,3-9A.16.16,0,0,0,48.86,31.52Z"/><path class="cls-2" d="M46.33,38.82a11.3,11.3,0,0,0,1.58-5c0-.18-.25-.18-.27,0A22.06,22.06,0,0,1,46,38.65.21.21,0,0,0,46.33,38.82Z"/><path class="cls-2" d="M46.45,35a4.25,4.25,0,0,1-1,2.43c-.15.17.09.42.25.26a4.12,4.12,0,0,0,.95-2.68A.1.1,0,1,0,46.45,35Z"/></g></svg>