<svg xmlns="http://www.w3.org/2000/svg" viewBox="0 0 237.16 54.91"><defs><style>.cls-1{fill:#fff;}.cls-2{fill:#272525;}</style></defs><title>life</title><g id="color"><path class="cls-1" d="M97.6,4.29c-2,.54-4.12,1.06-6.15,1.64-1.09.31-2.18.7-3.3.91,2.3-.19,4.6-.37,6.91-.52,1.46-.52,3-.87,4.52-1.25,1.71-.44,3.37-1,5-1.5s3.11-1,4.67-1.53a24.18,24.18,0,0,1,2.52-.72l-1.42,0h0a47,47,0,0,0-6.49,1.34C101.77,3.25,99.67,3.74,97.6,4.29Z"/><path class="cls-1" d="M104.35,3.92c-2.83.92-5.83,1.48-8.68,2.36,5-.32,9.93-.6,14.9-.6A32.17,32.17,0,0,1,118.68,4c3-.34,5.95-.67,8.94-.85,3.53-.22,7.07-.31,10.6-.54a30.86,30.86,0,0,0,8.34-1.22c-1.69.07-3.38.1-5.08.12-9.27.07-18.55-.34-27.82-.19a.18.18,0,0,1-.16.09,18.21,18.21,0,0,0-4.71,1.13C107.32,3,105.83,3.44,104.35,3.92Z"/><path class="cls-1" d="M25.36,27.71c9.73-.72,19.52-1.55,29.29-1.79,7.84-.18,15.74.12,23.5-1a194.9,194.9,0,0,1,22-1.59c7.69-.19,15.36-.32,23-.68s15.34-.65,23-.4c15.41.48,30.82-.45,46.22,0,14.72.46,29.27,2.81,44.05,2.44,0-.73-.1-1.45-.19-2.18-9-.87-18.13-1.28-27.21-1.67s-18.3-.88-27.45-1.43c-7.76-.47-15.52-.91-23.3-1.1s-15.37,0-23.06.09c-15.35.21-30.71.44-46,1.11s-30.66,1.87-45.9,3.64c-7.44.86-14.72,2.05-22,3.58A76,76,0,0,1,3.24,28.49c-.81,0-1.63,0-2.45,0l-.19.06h0C8.73,30.22,17.22,28.31,25.36,27.71Z"/><path class="cls-1" d="M127.58,5.1A29.23,29.23,0,0,0,119.1,6c4.68.34,9.31.9,13.92,1.6a65,65,0,0,1,9.66-1.79,46.08,46.08,0,0,1,9.68-.21l.08,0a3.48,3.48,0,0,1,.3-1.44c1.2-2.65,5.75-3.36,8.65-2.15a5.33,5.33,0,0,1,3.22,4,6.73,6.73,0,0,1,2,.19A5.08,5.08,0,0,0,166,3.7,6.79,6.79,0,0,0,162.48.9c-3.1-1.09-6.68-.47-9.89-.06-3.56,3.46-9.54,3.73-14.69,4C134.46,5,131,5.07,127.58,5.1Z"/><path class="cls-1" d="M16.56,21.05c.19-.08.35.14.17.23a152.45,152.45,0,0,1-15.51,6.9c5.84-1.93,11.66-3.94,17.59-5.68a5.77,5.77,0,0,1-1.5-.93,4.46,4.46,0,0,1-1.37-1.92C10.78,22.33,5.77,25.2.87,28.19c2.63-1.25,5.37-2.35,8-3.55S14,22.28,16.56,21.05Z"/><path class="cls-1" d="M164.68,7.69a6.51,6.51,0,0,1,1.92.09c0-.22,0-.43,0-.65V6.6a16,16,0,0,0-2-.4A5.73,5.73,0,0,1,164.68,7.69Z"/><path class="cls-1" d="M86.53,6.87a23.35,23.35,0,0,0,5.36-1.32l6.32-1.7c2.07-.54,4.15-1,6.22-1.58,1.16-.29,2.31-.58,3.48-.81C96.77,2,85.8,3.76,75.9,8.05,79.42,7.65,83,7.29,86.5,7,86.44,7,86.44,6.87,86.53,6.87Z"/><path class="cls-1" d="M25,23a8.25,8.25,0,0,1-4.52,0h0a8.69,8.69,0,0,1-1.31-.39.14.14,0,0,1-.1.08c-5.78,1.82-11.48,3.83-17.32,5.52l1.86.05C11.24,27.81,18.62,25,26,23.48a207.81,207.81,0,0,1,26.07-3.17c15-1.06,30.05-2,45.1-2.55,15.52-.56,31.06-.73,46.6-.64s31.09.2,46.57,1c15.22.75,30.38,2.24,45.64,2.29a26.55,26.55,0,0,0-1.64-5.43,17.16,17.16,0,0,0-1.41-2.67,1.6,1.6,0,0,1-.92.18,9.49,9.49,0,0,1,1.77,3.06c.53,1.37,1.11,3.88-1.1,4.22a.12.12,0,0,1-.19.11l-.17-.08-.25,0c-.17,0-.23-.12-.21-.22-2.6-1.12-6.09-1.83-7.36-4.12a2.86,2.86,0,0,1-.37-1.53c-13.42,2.92-27.49,2.63-41.27,1.71a68.86,68.86,0,0,1-7.94-.52l-1.29-.17c-11-.85-22-1.77-33.06-2.33-6.39-.32-12.78-.53-19.18-.53s-12.92.28-19.37.5c-13,.45-25.94.94-38.79,2.36-6.23.68-12.48,1.35-18.66,2.29-3,.46-5.93,1-8.85,1.63a26.46,26.46,0,0,1-7.68,1l-.12.26A4.78,4.78,0,0,1,25,23Z"/><path class="cls-1" d="M38.6,18c3.9-.76,7.85-1.36,11.81-1.86,7.81-1,15.65-1.88,23.52-2.47,12.82-1,25.7-1.27,38.55-1.75a367.15,367.15,0,0,1,38.4,1c6.11.41,12.22.92,18.33,1.4-1.11-.17-2.21-.34-3.31-.53a.36.36,0,0,1-.18,0q-3.06-.51-6.11-1.07h0l-2.54-.47c-4.62-.74-11-1.27-14.8-1.6q-6.81-.55-13.66-.74c-9.17-.26-18.35-.14-27.52-.07-6.14,0-12.28,0-18.41.39s-12.32,1.17-18.42,2.08c-11.86,1.78-23.57,4.21-35.49,5.65-.11,0-.16-.11-.05-.13,18.07-2.71,36-6.75,54.33-7.94,6.13-.39,12.27-.33,18.41-.37s12.39-.12,18.58-.08,12.39.19,18.56.61c3.33.22,7.8.51,12.06,1-12.16-2.34-24.42-4.66-37-5-7.2-.19-14.44.28-21.61.81S77.46,8.08,70.2,9c-14.12,1.8-28.07,4.3-41.9,7.21a3.86,3.86,0,0,1,.23.73,4.76,4.76,0,0,1-.43,2.77C31.67,19.87,35.17,18.65,38.6,18Z"/><path class="cls-1" d="M129.13,3.3c-3.27.18-6.52.49-9.77.83a40.58,40.58,0,0,0-8.26,1.55c1.83,0,3.67.05,5.5.15.7,0,1.4.08,2.1.13a23.21,23.21,0,0,1,7.91-1.12c3.25,0,6.51-.11,9.76-.25,5.31-.24,11.73-.29,15.6-3.67-1.53.18-3.06.3-4.59.39t-.09.09a25.5,25.5,0,0,1-7.93,1.39C136,3,132.54,3.12,129.13,3.3Z"/><path class="cls-1" d="M223.64,11.29a39.13,39.13,0,0,1,7.49-1.11,9.12,9.12,0,0,0-1.23-.88c-2.76-1.6-6.32-1.17-9.44-.63a132.94,132.94,0,0,0-13.69,3.42c-2,.58-4,1.18-6,1.71q-1.14.3-2.28.51A116.76,116.76,0,0,0,215.07,13C218,12.52,220.81,11.93,223.64,11.29Z"/><path class="cls-1" d="M228.84,10.74a5.5,5.5,0,0,1,3,1.51.88.88,0,0,0,.51,0,1.54,1.54,0,0,0,.46-.19,11.25,11.25,0,0,0-1.35-1.59,24.93,24.93,0,0,0-3,.23A3.05,3.05,0,0,1,228.84,10.74Z"/><path class="cls-1" d="M154.45,8.67a19.2,19.2,0,0,0,3.46,1.8.26.26,0,0,1,.27,0c1.2.59,2.85,1.12,4.15.4a3.61,3.61,0,0,0,1.73-2.49,5.08,5.08,0,0,0-3.12-6.1C158.1,1.3,153.6,2,153,4.83A3.74,3.74,0,0,0,154.45,8.67Z"/><path class="cls-1" d="M86,18.47c-7.57.37-15.13.9-22.7,1.36-7.19.44-14.39.85-21.55,1.59A151.55,151.55,0,0,0,20.39,25c-4.78,1.19-9.63,2.71-14.62,3.28a69,69,0,0,0,8.13-.49c4.43-.55,8.68-1.62,13-2.44,8.65-1.63,17.46-2.55,26.26-3.48,30.41-3.21,61.13-3.37,91.74-3.83,15.56-.24,31,.82,46.54,1.74,14.93.88,29.93,1,44.81,2.47-.07-.51-.15-1-.24-1.54-19-.07-37.87-2.22-56.84-2.71C148.14,17.19,117,17,86,18.47Z"/><path class="cls-1" d="M224.73,13.78l-.08,0a3,3,0,0,0,1.17,2.59c1.76,1.43,4.23,2,6.33,3,2.73,0,1.53-3.16.95-4.4-.84-1.79-2-3.79-4.73-4a3.25,3.25,0,0,0-3.67,2.4C224.9,13.47,225,13.73,224.73,13.78Z"/><path class="cls-1" d="M152.71,7.15l.06,0a4.39,4.39,0,0,1-.32-1.27h-.09c-6.44-.61-12.6.6-18.82,1.74q2.63.4,5.24.85a27.65,27.65,0,0,1,7-1.27A27.81,27.81,0,0,1,152.71,7.15Z"/><path class="cls-1" d="M165.68,13.44a19.86,19.86,0,0,0,.91-5.32,7.81,7.81,0,0,0-1.94-.24A5.38,5.38,0,0,1,164.4,9a3.81,3.81,0,0,1-2.26,2.43,5.58,5.58,0,0,1-4.2-.58l0,0c-1.63-.68-3.52-1.27-4.51-2.55a3.94,3.94,0,0,1-.54-.87.21.21,0,0,1-.26.13,28.38,28.38,0,0,0-6.83,0,36.74,36.74,0,0,0-6.57,1c5.89,1,11.74,2.18,17.6,3.27C159.75,12.41,162.71,13,165.68,13.44Z"/><path class="cls-1" d="M224.18,13.55a3.44,3.44,0,0,1,2-2.5c-1.18.22-2.35.49-3.51.75-2.84.65-5.7,1.2-8.6,1.62a91.45,91.45,0,0,1-16.63,1.07c-1.15.19-2.31.34-3.5.48-2.31.27-4.59.46-6.87.57l1.17.06C200.26,16.2,212.48,16.09,224.18,13.55Z"/><path class="cls-1" d="M18.08,21.59c2.82,1.87,7.81,1.77,9.14-1.43.79-1.88,1-4.59-1.4-5.76a6.94,6.94,0,0,0-6.26.21c-.34.22-.69.46-1,.72-1.5,1.26-2.48,3.11-1.66,4.82A4.09,4.09,0,0,0,18.08,21.59ZM19.3,16a5.5,5.5,0,0,1,.75-.51,5,5,0,0,1,5.41.52,3,3,0,0,1,.09,4,3.63,3.63,0,0,1-2.92,1.58,7.6,7.6,0,0,1-4.27-1.16l-.07,0,0-.05a1.7,1.7,0,0,1-.47-.61C17.25,18.44,18.09,16.87,19.3,16Z"/><path class="cls-1" d="M170.42,32.91c-14.07.55-28.1,1.63-42.17,2.24-6.94.3-13.87.43-20.79,1-7.17.6-14.31,1.45-21.45,2.28C72.21,40.05,58.23,41.67,44.24,41a84.6,84.6,0,0,1-19.1-2.86c-3.53-1-7-2.19-10.42-3.39a36.19,36.19,0,0,1-7.21-2.43q2.4,1.15,4.9,2.18,4.11,1.65,8.39,3C37.44,42.29,53.49,42.22,70,41.8c14.29-.36,28.31-2.54,42.46-4,7.18-.71,14.32-1,21.54-1.27s14.54-.72,21.81-1.15c13.79-.8,27.68-1.44,41.51-1.07,12.91.34,25.68,1.17,37.29,5.95.2-.6.39-1.21.56-1.82-10.11-3.34-21.09-4.62-31.93-5.35A314.6,314.6,0,0,0,170.42,32.91Z"/><path class="cls-1" d="M232.42,39.84a2.74,2.74,0,0,1,.47,2.7,6.23,6.23,0,0,1-1.55,2.65,2.9,2.9,0,0,1,.74.44,19.76,19.76,0,0,0,2-4c.13-.34.26-.68.38-1-.68-.28-1.36-.54-2.05-.79Z"/><path class="cls-1" d="M229.73,46.46a9.05,9.05,0,0,1-2.89,1.11c-1.44.28-3.14.2-4.05-.9a2.71,2.71,0,0,1-.36-3.32,5.62,5.62,0,0,1,.56-.75c-4.58-1.58-9.74-2.18-14.64-2.76-2.24-.27-4.5-.47-6.73-.78-.35-.05-.73-.1-1.11-.17,3.36,1.82,6.55,3.85,9.84,5.75,4.91,2.84,14.23,8.21,19.7,3.34.27-.24.53-.5.77-.76a3.75,3.75,0,0,1-.66-.4A4.82,4.82,0,0,1,229.73,46.46Z"/><path class="cls-1" d="M209.94,39.69a66.46,66.46,0,0,1,13.34,2.61,9.28,9.28,0,0,1,1.36-1.09h0c-2.56-.7-5.05-1.6-7.68-2.12a73,73,0,0,0-8-1c-4.71-.4-9.73-.57-14.23-1.88a37,37,0,0,1,3.46,1.52l1.58.8a26.75,26.75,0,0,0,3.07.41C205.21,39.19,207.58,39.39,209.94,39.69Z"/><path class="cls-1" d="M231.16,45.37a7.9,7.9,0,0,1-1.23,1l.51.32a5.65,5.65,0,0,0,.62.28c.29-.33.57-.68.82-1l-.39-.29C231.39,45.54,231.27,45.46,231.16,45.37Z"/><path class="cls-1" d="M200.94,30.49c-13.47-1.08-26.92-1.29-40.45-1.32-15.29,0-30.67-.27-45.94.53-15.07.78-30,2.57-45.07,3.47-11.24.66-22.35,2.43-33.61,2.93a84.91,84.91,0,0,1-19.28-.93C22.9,37.26,29.22,39.29,36,40.1c10.91,1.3,22.08.84,33-.13,14.09-1.25,28.05-3.43,42.19-4.39,6.92-.47,13.86-.55,20.79-.89s14-.79,21.06-1.2c14-.82,28.13-1.53,42.21-1.06a203.72,203.72,0,0,1,20.39,1.62,107.57,107.57,0,0,1,19.55,4.1,37.37,37.37,0,0,0,.82-4A101.44,101.44,0,0,0,219.12,32C213.05,31.54,207,31,200.94,30.49Z"/><path class="cls-1" d="M6.05,31.63l.12.06.34.16-.38-.2Z"/><path class="cls-1" d="M221.12,26.72c-6.28-.62-12.62-.62-18.88-1.43s-12.49-1.49-18.84-1.72c-6.15-.21-12.31-.19-18.46-.09-7.2.12-14.41.35-21.62.36q-11.61,0-23.21.54c-15.47.68-30.89,1.86-46.35,2.63-7.69.39-15.41.45-23.08,1S35.58,29.55,28,29.94c-2.84.15-5.7.09-8.53.36-2.41.23-4.81.55-7.23.71a25.09,25.09,0,0,1-8.18-.38l.23.11c.22.09.45.18.69.26l0,0c-.08-.05,0-.16.08-.11l.81.41a33.79,33.79,0,0,0,5.92,1.21,93.77,93.77,0,0,0,13.2.5c10.4-.18,20.76-.37,31.12-1.18,7.62-.59,15.21-1.33,22.82-1.94S94,29,101.57,28.71C116.71,28.2,131.84,27.43,147,27s30.38-.56,45.54.27c7.38.4,14.76,1,22.07,1.93s14.64.64,21.78,2c.11-1.17.17-2.36.19-3.55C231.44,28.23,226.2,27.23,221.12,26.72Z"/><path class="cls-1" d="M217.59,29.84c-6.26-.58-12.46-1.42-18.74-1.87-12.53-.9-25.13-1.11-37.7-1-15.21.18-30.39.86-45.58,1.47-7.52.3-15,.49-22.57.8s-15.21,1-22.79,1.63S55,32.28,47.36,32.7c-6.3.35-12.59.35-18.89.51a122.4,122.4,0,0,1-15.56-.29,42.18,42.18,0,0,1-5.65-1c.61.27,1.23.52,1.85.76,1.38.42,2.74.86,4.1,1.31a70.64,70.64,0,0,0,20.22,1.87c10.1-.3,20-1.75,30.07-2.62,6.78-.58,13.6-.91,20.38-1.49,7.5-.64,15-1.35,22.51-1.89,15.24-1.08,30.54-1.06,45.83-1,15.07,0,30.11-.05,45.14,1,6.87.49,13.7,1.19,20.58,1.65,6.08.41,12.27.82,18.15,2.24,0-.32.09-.64.13-1s.09-.85.13-1.28h0C230.17,30.34,223.84,30.41,217.59,29.84Z"/><path class="cls-1" d="M11.63,30.77c3.62-.24,7.22-.88,10.86-.94,12.21-.18,24.23-2.16,36.43-2.52,15.47-.44,30.9-1.55,46.34-2.46,7.73-.45,15.47-.86,23.22-1.09,7.5-.23,15-.18,22.51-.31,14.52-.26,29.16-.93,43.61.54,3.66.38,7.27,1,10.93,1.34,3.84.36,7.7.55,11.55.78,3.39.2,6.71.6,10.07.95a44.38,44.38,0,0,0,9.43.26c0-.73,0-1.46,0-2.2-9.69.24-19.36-.61-29-1.46-9.79-.86-19.53-1.2-29.38-1.13-7.71.06-15.43.25-23.15.21s-15.32-.39-23-.12-15.44.78-23.17.89c-7.52.1-15.06.21-22.55.84-3.79.32-7.52.92-11.3,1.27s-7.67.45-11.52.48c-7.76.07-15.47.31-23.2.86-7.2.5-14.41.91-21.57,1.7C13,29.29,6.84,30,1.14,28.83,3.65,31.11,8.19,31,11.63,30.77Z"/><path class="cls-1" d="M209.67,37.8a60,60,0,0,1,7.72,1c2.5.57,4.9,1.35,7.34,2a.17.17,0,0,1,.14.18,20.12,20.12,0,0,1,3.87-1.81c0-.08,0-.15.16-.17l.42,0,.38-.13c-9.4-3-19.43-3.75-29.65-4.16-12.09-.47-24.31-.08-36.38.55-7.29.37-14.57.85-21.86,1.23s-14.48.41-21.68.94c-14.27,1.05-28.35,3.43-42.64,4.31-6,.37-12,.48-18,.58a166.4,166.4,0,0,1-17.15-.61,105.68,105.68,0,0,1-12.56-1.82c3.9,1,7.84,1.79,11.79,2.6a.09.09,0,0,1,.1,0l.27.1,1.87.38,3.27.67,1.66.15c2.5.2,5,.43,7.5.6,5.61.39,11.24.56,16.88.6q16.65.11,33.3-.62,18.9-.8,37.67-2.74c6.31-.65,12.62-1.37,18.86-2.36,3.07-.49,6.13-1,9.16-1.67,2.5-.52,4.84-1.62,7.48-1.57a23.8,23.8,0,0,1,6.26-1.38,20.15,20.15,0,0,1,7.8,1.11.1.1,0,0,1,.13-.11,59.84,59.84,0,0,0,7.91,1.44C204.31,37.4,207,37.56,209.67,37.8Z"/><path class="cls-1" d="M164.76,44.23c-.09-.5-.2-1-.33-1.49-2.84,1-5.73,1.93-8.69,2.75a194.3,194.3,0,0,1-20.36,4.38c-4.21.69-8.43,1.26-12.69,1.67l.37,0c7.31-.38,14.61.07,21.84-1.09S158.25,46.64,164.76,44.23Z"/><path class="cls-1" d="M144.63,50.8a121.12,121.12,0,0,1-20.17.89c1.14.12,2.27.27,3.39.43l1.42.12c2,.15,4,.29,6,.36a89,89,0,0,0,11-.24c6.54-.56,13.24-1.85,18.64-5a9.84,9.84,0,0,0-.05-2.76C158.36,47.14,151.76,49.77,144.63,50.8Z"/><path class="cls-1" d="M132.93,45.28c-6.34.55-12.72.74-19.07,1.06s-12.77.65-19.16.86-12.57.28-18.85.32c-3.69,0-7.52,0-11.26-.32,13.88,2.62,28,4.58,42.31,4.67a180.18,180.18,0,0,0,42.71-5.17,143.25,143.25,0,0,0,14.77-4.22.21.21,0,0,1,.25-.09q2.43-.86,4.76-1.86l.51-.23c-5.64,1.45-11.54,2-17.38,2.7C146,43.83,139.49,44.72,132.93,45.28Z"/><path class="cls-1" d="M229.91,39s0,0,0,0H230Z"/><path class="cls-1" d="M133.77,52.8l-2-.13c4.23.61,8.45,1.25,12.72,1.63,5,.44,11,.92,15.61-1.07a7.23,7.23,0,0,0,4.69-5.45c-5.49,3.12-12.3,4.41-18.89,4.91A92.79,92.79,0,0,1,133.77,52.8Z"/><path class="cls-1" d="M228.86,39.41a15.54,15.54,0,0,0-5.32,3.11.23.23,0,0,1-.14.15,2.68,2.68,0,0,0-.79,3c.71,1.44,2.32,1.94,4.12,1.53,2.64-.62,4.85-2.18,5.6-4.35a2.84,2.84,0,0,0-.1-2.63c-.69-.92-2-1-3.21-.82A.21.21,0,0,1,228.86,39.41Z"/><path class="cls-1" d="M163.74,39.47c-5.41.87-10.87,1.54-16.34,2.13-11.24,1.22-22.51,2.16-33.82,2.75q-18.87,1-37.81,1c-6.41,0-12.82-.16-19.2-.6-2.37-.16-4.76-.35-7.13-.57q5.09,1.05,10.18,2.08c2.7.39,5.39.72,8.14.86,3.06.15,6.12.17,9.19.13,6.43-.07,12.86-.13,19.29-.36S109,46.3,115.39,46s12.72-.52,19-1.12,12.75-1.48,19.11-2.27c6-.75,12-1.31,17.8-3a.2.2,0,0,1,.11,0c2.34-1.09,4.7-2.27,7.17-3.22-2.24.19-4.29,1.1-6.47,1.55C169.37,38.5,166.56,39,163.74,39.47Z"/></g><g id="stroke"><path class="cls-2" d="M18.26,20.31l0,.05.07,0a7.6,7.6,0,0,0,4.27,1.16A3.63,3.63,0,0,0,25.55,20a3,3,0,0,0-.09-4,5,5,0,0,0-5.41-.52,5.5,5.5,0,0,0-.75.51c-1.21.9-2.05,2.47-1.51,3.73A1.7,1.7,0,0,0,18.26,20.31Z"/><path class="cls-2" d="M237,27.3a36.39,36.39,0,0,0-.52-6.59h.11a.17.17,0,1,0,0-.34h-.18a26.62,26.62,0,0,0-1.84-6A16,16,0,0,0,233.22,12a.15.15,0,0,0-.08-.11,10.11,10.11,0,0,0-2.78-2.75c-2.24-1.45-5.06-1.44-7.78-1.14a84.67,84.67,0,0,0-13.48,3c-3.77,1.07-7.53,2.35-11.43,3.1-1.63.32-3.38.43-5,.61s-3.57.36-5.36.47c-1.05.07-2.09.1-3.13.11q-5-.3-10-.68c-2.68-.34-5.36-.74-8-1.18a20.21,20.21,0,0,0,1-5.27c.19,0,.26-.27,0-.34h0c0-.38,0-.77,0-1.16.23.06.42-.2.18-.3l-.2-.08c0-.36-.07-.73-.13-1.11-.42-2.95-3.48-4.87-7-5.18a29.14,29.14,0,0,0-6.19.35l-1.17.15a.21.21,0,0,0-.19,0c-2,.24-3.92.45-5.92.52-5.53.18-11.06.11-16.59,0-6.39-.09-12.89-.2-19.36,0a.22.22,0,0,0-.18,0c-.24,0-.47,0-.71.09-11.81.45-23.46,2.05-33.92,6.9L74,8.27a461.71,461.71,0,0,0-45.72,7.81A4.62,4.62,0,0,0,27,14.54l-.3-.32a5.08,5.08,0,0,0-4.92-.91,8.14,8.14,0,0,0-4.59,2.39A4.62,4.62,0,0,0,16,17.59a2.84,2.84,0,0,0-.17,1.8Q8,23.53.55,28.18H.29c-.12,0-.12.14,0,.15h0c-.16-.06-.33.07-.29.2s0,.09.07.1a38.48,38.48,0,0,0,6.84,3.85C9.59,33.79,12.36,35,15.2,36a140.77,140.77,0,0,0,17.08,4.92c4,.93,8.09,1.76,12.16,2.58l.37.08c2,.4,4,.8,6,1.22,7,1.43,14,2.88,21,4.07a210.12,210.12,0,0,0,42.4,3.25c2.53-.1,5-.27,7.54-.49.87.06,1.74.15,2.61.25a9,9,0,0,0,3,.43l.8.08c1.85.26,3.69.54,5.54.82a116.2,116.2,0,0,0,17.7,1.7c3.81,0,8.22-.45,11.06-2.73a7.26,7.26,0,0,0,2.72-4.64.16.16,0,0,0,0-.25,10.09,10.09,0,0,0-.08-2.9.16.16,0,0,0,0-.12,14.54,14.54,0,0,0-.4-1.64q4.67-1.68,9.12-3.76c5.17-2.41,10.78-4.8,16.91-3.53a30.22,30.22,0,0,1,7.55,2.78,3.33,3.33,0,0,0,.84.43c1.35.71,2.66,1.47,3.93,2.21,4,2.31,7.8,4.82,12,6.85,3.19,1.53,7,3,10.83,2.54a8.28,8.28,0,0,0,5.35-2.9,18.86,18.86,0,0,0,3.58-6.6,35.49,35.49,0,0,0,1.54-6.44l.07,0c.26.06.36-.26.11-.32l-.13,0q.14-1,.24-2c.14-1.4.23-2.83.25-4.27h0C237.25,27.6,237.18,27.33,237,27.3Zm-.68-5.05c-14.88-1.43-29.88-1.59-44.81-2.47-15.5-.92-31-2-46.54-1.74-30.61.46-61.33.62-91.74,3.83-8.8.93-17.61,1.85-26.26,3.48-4.36.82-8.61,1.89-13,2.44a69,69,0,0,1-8.13.49c5-.57,9.84-2.09,14.62-3.28a151.55,151.55,0,0,1,21.32-3.58c7.16-.74,14.36-1.15,21.55-1.59,7.57-.46,15.13-1,22.7-1.36C117,17,148.14,17.19,179.21,18c19,.49,37.85,2.64,56.84,2.71C236.14,21.22,236.22,21.74,236.29,22.25Zm-3.5-10.2a1.54,1.54,0,0,1-.46.19.88.88,0,0,1-.51,0,5.5,5.5,0,0,0-3-1.51,3.05,3.05,0,0,0-.41-.05,24.93,24.93,0,0,1,3-.23A11.25,11.25,0,0,1,232.79,12.05Zm-8.09,1.4a3.25,3.25,0,0,1,3.67-2.4c2.7.17,3.89,2.17,4.73,4,.58,1.24,1.78,4.39-.95,4.4-2.1-1-4.57-1.59-6.33-3a3,3,0,0,1-1.17-2.59l.08,0C225,13.73,224.9,13.47,224.7,13.45Zm-24,.35c2-.53,4-1.13,6-1.71a132.94,132.94,0,0,1,13.69-3.42c3.12-.54,6.68-1,9.44.63a9.12,9.12,0,0,1,1.23.88,39.13,39.13,0,0,0-7.49,1.11c-2.83.64-5.67,1.23-8.57,1.69a116.76,116.76,0,0,1-16.62,1.33Q199.59,14.1,200.73,13.8ZM194,15c1.19-.14,2.35-.29,3.5-.48a91.45,91.45,0,0,0,16.63-1.07c2.9-.42,5.76-1,8.6-1.62,1.16-.26,2.33-.53,3.51-.75a3.44,3.44,0,0,0-2,2.5c-11.7,2.54-23.92,2.65-35.93,2l-1.17-.06C189.36,15.43,191.64,15.24,194,15Zm-28.27-1.53c-3-.49-5.93-1-8.88-1.58-5.86-1.09-11.71-2.26-17.6-3.27a36.74,36.74,0,0,1,6.57-1,28.38,28.38,0,0,1,6.83,0,.21.21,0,0,0,.26-.13,3.94,3.94,0,0,0,.54.87c1,1.28,2.88,1.87,4.51,2.55l0,0a5.58,5.58,0,0,0,4.2.58A3.81,3.81,0,0,0,164.4,9a5.38,5.38,0,0,0,.25-1.07,7.81,7.81,0,0,1,1.94.24A19.86,19.86,0,0,1,165.68,13.44Zm-26.9-4.93q-2.61-.45-5.24-.85c6.22-1.14,12.38-2.35,18.82-1.74h.09a4.39,4.39,0,0,0,.32,1.27l-.06,0a27.81,27.81,0,0,0-6.94.09A27.65,27.65,0,0,0,138.78,8.51ZM153,4.83c.59-2.85,5.09-3.53,7.93-2.56a5.08,5.08,0,0,1,3.12,6.1,3.61,3.61,0,0,1-1.73,2.49c-1.3.72-3,.19-4.15-.4a.26.26,0,0,0-.27,0,19.2,19.2,0,0,1-3.46-1.8A3.74,3.74,0,0,1,153,4.83Zm13.6,2.3c0,.22,0,.43,0,.65a6.51,6.51,0,0,0-1.92-.09,5.73,5.73,0,0,0,0-1.49,16,16,0,0,1,2,.4Zm-14-6.29c3.21-.41,6.79-1,9.89.06A6.79,6.79,0,0,1,166,3.7a5.08,5.08,0,0,1,.58,2.52,6.73,6.73,0,0,0-2-.19,5.33,5.33,0,0,0-3.22-4c-2.9-1.21-7.45-.5-8.65,2.15a3.48,3.48,0,0,0-.3,1.44l-.08,0a46.08,46.08,0,0,0-9.68.21A65,65,0,0,0,133,7.58c-4.61-.7-9.24-1.26-13.92-1.6a29.23,29.23,0,0,1,8.48-.88c3.44,0,6.88-.1,10.32-.27C143.05,4.57,149,4.3,152.59.84Zm-5.21.47c1.53-.09,3.06-.21,4.59-.39-3.87,3.38-10.29,3.43-15.6,3.67-3.25.14-6.51.2-9.76.25A23.21,23.21,0,0,0,118.7,6c-.7,0-1.4-.1-2.1-.13-1.83-.1-3.67-.15-5.5-.15a40.58,40.58,0,0,1,8.26-1.55c3.25-.34,6.5-.65,9.77-.83S136,3,139.36,2.79a25.5,25.5,0,0,0,7.93-1.39Q147.38,1.36,147.38,1.31Zm-33.72,0c9.27-.15,18.55.26,27.82.19,1.7,0,3.39-.05,5.08-.12a30.86,30.86,0,0,1-8.34,1.22c-3.53.23-7.07.32-10.6.54-3,.18-6,.51-8.94.85a32.17,32.17,0,0,0-8.11,1.72c-5,0-9.94.28-14.9.6,2.85-.88,5.85-1.44,8.68-2.36,1.48-.48,3-.93,4.44-1.42a18.21,18.21,0,0,1,4.71-1.13A.18.18,0,0,0,113.66,1.28Zm-3.32.09h0l1.42,0a24.18,24.18,0,0,0-2.52.72c-1.56.51-3.12,1-4.67,1.53s-3.31,1.06-5,1.5c-1.53.38-3.06.73-4.52,1.25-2.31.15-4.61.33-6.91.52,1.12-.21,2.21-.6,3.3-.91,2-.58,4.1-1.1,6.15-1.64s4.17-1,6.25-1.58A47,47,0,0,1,110.34,1.37Zm-2.43.09c-1.17.23-2.32.52-3.48.81-2.07.54-4.15,1-6.22,1.58l-6.32,1.7a23.35,23.35,0,0,1-5.36,1.32c-.09,0-.09.09,0,.11-3.54.31-7.08.67-10.6,1.07C85.8,3.76,96.77,2,107.91,1.46ZM28.53,16.94a3.86,3.86,0,0,0-.23-.73C42.13,13.3,56.08,10.8,70.2,9Q81.09,7.62,92.07,6.81c7.17-.53,14.41-1,21.61-.81,12.54.34,24.8,2.66,37,5-4.26-.47-8.73-.76-12.06-1-6.17-.42-12.37-.56-18.56-.61s-12.39,0-18.58.08-12.28,0-18.41.37C64.66,11.05,46.77,15.09,28.7,17.8c-.11,0-.06.14.05.13,11.92-1.44,23.63-3.87,35.49-5.65,6.1-.91,12.24-1.65,18.42-2.08s12.27-.35,18.41-.39c9.17-.07,18.35-.19,27.52.07q6.84.19,13.66.74c3.85.33,10.18.86,14.8,1.6l2.54.47h0q3,.56,6.11,1.07a.36.36,0,0,0,.18,0c1.1.19,2.2.36,3.31.53-6.11-.48-12.22-1-18.33-1.4a367.15,367.15,0,0,0-38.4-1c-12.85.48-25.73.79-38.55,1.75-7.87.59-15.71,1.49-23.52,2.47-4,.5-7.91,1.1-11.81,1.86-3.43.66-6.93,1.88-10.5,1.72A4.76,4.76,0,0,0,28.53,16.94Zm-.48,2.89a26.46,26.46,0,0,0,7.68-1c2.92-.66,5.88-1.17,8.85-1.63,6.18-.94,12.43-1.61,18.66-2.29C76.09,13.51,89.07,13,102,12.57c6.45-.22,12.91-.5,19.37-.5s12.79.21,19.18.53c11,.56,22,1.48,33.06,2.33l1.29.17a68.86,68.86,0,0,0,7.94.52c13.78.92,27.85,1.21,41.27-1.71a2.86,2.86,0,0,0,.37,1.53c1.27,2.29,4.76,3,7.36,4.12,0,.1,0,.21.21.22l.25,0,.17.08a.12.12,0,0,0,.19-.11c2.21-.34,1.63-2.85,1.1-4.22A9.49,9.49,0,0,0,232,12.45a1.6,1.6,0,0,0,.92-.18,17.16,17.16,0,0,1,1.41,2.67A26.55,26.55,0,0,1,236,20.37c-15.26-.05-30.42-1.54-45.64-2.29-15.48-.76-31.06-.86-46.57-1s-31.08.08-46.6.64c-15.05.54-30.09,1.49-45.1,2.55A207.81,207.81,0,0,0,26,23.48C18.62,25,11.24,27.81,3.57,28.28l-1.86-.05c5.84-1.69,11.54-3.7,17.32-5.52a.14.14,0,0,0,.1-.08,8.69,8.69,0,0,0,1.31.39h0A8.25,8.25,0,0,0,25,23a4.78,4.78,0,0,0,3-2.9Zm-9.52-4.5c.34-.26.69-.5,1-.72a6.94,6.94,0,0,1,6.26-.21c2.42,1.17,2.19,3.88,1.4,5.76-1.33,3.2-6.32,3.3-9.14,1.43a4.09,4.09,0,0,1-1.21-1.44C16.05,18.44,17,16.59,18.53,15.33Zm-2.59,4.32a4.46,4.46,0,0,0,1.37,1.92,5.77,5.77,0,0,0,1.5.93c-5.93,1.74-11.75,3.75-17.59,5.68a152.45,152.45,0,0,0,15.51-6.9c.18-.09,0-.31-.17-.23C14,22.28,11.5,23.49,8.91,24.64s-5.41,2.3-8,3.55C5.77,25.2,10.78,22.33,15.94,19.65ZM.6,28.55l.19-.06c.82,0,1.64,0,2.45,0a76,76,0,0,0,18.13-1.68c7.28-1.53,14.56-2.72,22-3.58q22.86-2.65,45.9-3.64c15.33-.67,30.69-.9,46-1.11,7.69-.11,15.37-.28,23.06-.09s15.54.63,23.3,1.1c9.15.55,18.29,1.05,27.45,1.43s18.18.8,27.21,1.67c.09.73.15,1.45.19,2.18-14.78.37-29.33-2-44.05-2.44-15.4-.48-30.81.45-46.22,0-7.69-.25-15.35,0-23,.4s-15.35.49-23,.68a194.9,194.9,0,0,0-22,1.59c-7.76,1.07-15.66.77-23.5,1-9.77.24-19.56,1.07-29.29,1.79-8.14.6-16.63,2.51-24.75.85Zm5.57,3.14-.12-.06.08,0,.38.2ZM160.11,53.23c-4.6,2-10.63,1.51-15.61,1.07-4.27-.38-8.49-1-12.72-1.63l2,.13a92.79,92.79,0,0,0,12.14-.11c6.59-.5,13.4-1.79,18.89-4.91A7.23,7.23,0,0,1,160.11,53.23Zm4.75-5.88c-5.4,3.16-12.1,4.45-18.64,5a89,89,0,0,1-11,.24c-2-.07-4-.21-6-.36l-1.42-.12c-1.12-.16-2.25-.31-3.39-.43a121.12,121.12,0,0,0,20.17-.89c7.13-1,13.73-3.66,20.18-6.21A9.84,9.84,0,0,1,164.86,47.35Zm-.1-3.12c-6.51,2.41-12.76,5.12-19.86,6.25s-14.53.71-21.84,1.09l-.37,0c4.26-.41,8.48-1,12.69-1.67a194.3,194.3,0,0,0,20.36-4.38c3-.82,5.85-1.73,8.69-2.75C164.56,43.24,164.67,43.73,164.76,44.23Zm4.63-3.7q-2.32,1-4.76,1.86a.21.21,0,0,0-.25.09,143.25,143.25,0,0,1-14.77,4.22,180.18,180.18,0,0,1-42.71,5.17c-14.28-.09-28.43-2-42.31-4.67,3.74.35,7.57.34,11.26.32,6.28,0,12.57-.12,18.85-.32s12.78-.53,19.16-.86,12.73-.51,19.07-1.06c6.56-.56,13.07-1.45,19.59-2.28,5.84-.73,11.74-1.25,17.38-2.7Zm2.07-.94a.2.2,0,0,0-.11,0c-5.75,1.68-11.79,2.24-17.8,3-6.36.79-12.72,1.66-19.11,2.27s-12.7.8-19,1.12-12.77.66-19.15.89-12.86.29-19.29.36c-3.07,0-6.13,0-9.19-.13-2.75-.14-5.44-.47-8.14-.86q-5.1-1-10.18-2.08c2.37.22,4.76.41,7.13.57,6.38.44,12.79.59,19.2.6q18.92,0,37.81-1c11.31-.59,22.58-1.53,33.82-2.75,5.47-.59,10.93-1.26,16.34-2.13,2.82-.46,5.63-1,8.42-1.55,2.18-.45,4.23-1.36,6.47-1.55C176.16,37.32,173.8,38.5,171.46,39.59Zm22.14-3.82a20.15,20.15,0,0,0-7.8-1.11A23.8,23.8,0,0,0,179.54,36c-2.64,0-5,1.05-7.48,1.57-3,.64-6.09,1.18-9.16,1.67-6.24,1-12.55,1.71-18.86,2.36q-18.76,1.94-37.67,2.74-16.64.7-33.3.62c-5.64,0-11.27-.21-16.88-.6-2.5-.17-5-.4-7.5-.6L47,43.65,43.76,43l-1.87-.38-.27-.1a.09.09,0,0,0-.1,0c-4-.81-7.89-1.65-11.79-2.6a105.68,105.68,0,0,0,12.56,1.82,166.4,166.4,0,0,0,17.15.61c6-.1,12-.21,18-.58,14.29-.88,28.37-3.26,42.64-4.31,7.2-.53,14.46-.58,21.68-.94s14.57-.86,21.86-1.23c12.07-.63,24.29-1,36.38-.55,10.22.41,20.25,1.2,29.65,4.16l-.38.13-.42,0c-.12,0-.17.09-.16.17a20.12,20.12,0,0,0-3.87,1.81.17.17,0,0,0-.14-.18c-2.44-.69-4.84-1.47-7.34-2a60,60,0,0,0-7.72-1c-2.68-.24-5.36-.4-8-.7a59.84,59.84,0,0,1-7.91-1.44A.1.1,0,0,0,193.6,35.77Zm38.63,4.49a2.84,2.84,0,0,1,.1,2.63c-.75,2.17-3,3.73-5.6,4.35-1.8.41-3.41-.09-4.12-1.53a2.68,2.68,0,0,1,.79-3,.23.23,0,0,0,.14-.15,15.54,15.54,0,0,1,5.32-3.11.21.21,0,0,0,.16,0C230.21,39.28,231.54,39.34,232.23,40.26ZM229.89,39s0,0,0,0l.1,0ZM198.2,37.69a37,37,0,0,0-3.46-1.52c4.5,1.31,9.52,1.48,14.23,1.88a73,73,0,0,1,8,1c2.63.52,5.12,1.42,7.68,2.12h0a9.28,9.28,0,0,0-1.36,1.09,66.46,66.46,0,0,0-13.34-2.61c-2.36-.3-4.73-.5-7.09-.79a26.75,26.75,0,0,1-3.07-.41ZM230.05,48c-5.47,4.87-14.79-.5-19.7-3.34-3.29-1.9-6.48-3.93-9.84-5.75.38.07.76.12,1.11.17,2.23.31,4.49.51,6.73.78,4.9.58,10.06,1.18,14.64,2.76a5.62,5.62,0,0,0-.56.75,2.71,2.71,0,0,0,.36,3.32c.91,1.1,2.61,1.18,4.05.9a9.05,9.05,0,0,0,2.89-1.11,4.82,4.82,0,0,0,.43.36,3.75,3.75,0,0,0,.66.4C230.58,47.48,230.32,47.74,230.05,48Zm1-1a5.65,5.65,0,0,1-.62-.28l-.51-.32a7.9,7.9,0,0,0,1.23-1c.11.09.23.17.33.26l.39.29C231.63,46.27,231.35,46.62,231.06,47Zm3-5.29a19.76,19.76,0,0,1-2,4,2.9,2.9,0,0,0-.74-.44,6.23,6.23,0,0,0,1.55-2.65,2.74,2.74,0,0,0-.47-2.7h0c.69.25,1.37.51,2.05.79C234.35,41,234.22,41.32,234.09,41.66Zm.49-1.36c-11.61-4.78-24.38-5.61-37.29-5.95-13.83-.37-27.72.27-41.51,1.07-7.27.43-14.53.88-21.81,1.15s-14.36.56-21.54,1.27c-14.15,1.42-28.17,3.6-42.46,4-16.48.42-32.53.49-49.17-4.31q-4.28-1.32-8.39-3-2.5-1-4.9-2.18a36.19,36.19,0,0,0,7.21,2.43c3.44,1.2,6.89,2.39,10.42,3.39A84.6,84.6,0,0,0,44.24,41c14,.65,28-1,41.77-2.58,7.14-.83,14.28-1.68,21.45-2.28,6.92-.58,13.85-.71,20.79-1,14.07-.61,28.1-1.69,42.17-2.24a314.6,314.6,0,0,1,32.79.22c10.84.73,21.82,2,31.93,5.35C235,39.09,234.78,39.7,234.58,40.3Zm.64-2.15a107.57,107.57,0,0,0-19.55-4.1,203.72,203.72,0,0,0-20.39-1.62c-14.08-.47-28.18.24-42.21,1.06-7,.41-14,.85-21.06,1.2s-13.87.42-20.79.89C97.08,36.54,83.12,38.72,69,40c-10.93,1-22.1,1.43-33,.13-6.8-.81-13.12-2.84-19.43-4.93a84.91,84.91,0,0,0,19.28.93c11.26-.5,22.37-2.27,33.61-2.93,15.06-.9,30-2.69,45.07-3.47,15.27-.8,30.65-.56,45.94-.53,13.53,0,27,.24,40.45,1.32C207,31,213.05,31.54,219.12,32A101.44,101.44,0,0,1,236,34.12,37.37,37.37,0,0,1,235.22,38.15Zm1-5.32c0,.32-.08.64-.13,1C230.21,32.37,224,32,217.94,31.55c-6.88-.46-13.71-1.16-20.58-1.65-15-1.08-30.07-1-45.14-1-15.29,0-30.59,0-45.83,1-7.51.54-15,1.25-22.51,1.89-6.78.58-13.6.91-20.38,1.49-10,.87-20,2.32-30.07,2.62A70.64,70.64,0,0,1,13.21,34c-1.36-.45-2.72-.89-4.1-1.31-.62-.24-1.24-.49-1.85-.76a42.18,42.18,0,0,0,5.65,1,122.4,122.4,0,0,0,15.56.29c6.3-.16,12.59-.16,18.89-.51,7.64-.42,15.24-1.12,22.85-1.79S85.38,29.61,93,29.28s15-.5,22.57-.8c15.19-.61,30.37-1.29,45.58-1.47,12.57-.15,25.17.06,37.7,1,6.28.45,12.48,1.29,18.74,1.87s12.58.5,18.72,1.71h0C236.31,32,236.27,32.41,236.22,32.83Zm.16-1.6c-7.14-1.39-14.55-1.11-21.78-2s-14.69-1.53-22.07-1.93c-15.16-.83-30.37-.7-45.54-.27s-30.28,1.2-45.42,1.71c-7.59.25-15.14.57-22.7,1.16s-15.2,1.35-22.82,1.94c-10.36.81-20.72,1-31.12,1.18a93.77,93.77,0,0,1-13.2-.5,33.79,33.79,0,0,1-5.92-1.21L5,30.87c-.09-.05-.16.06-.08.11l0,0c-.24-.08-.47-.17-.69-.26l-.23-.11a25.09,25.09,0,0,0,8.18.38c2.42-.16,4.82-.48,7.23-.71,2.83-.27,5.69-.21,8.53-.36,7.59-.39,15.12-1.32,22.69-1.9s15.39-.64,23.08-1c15.46-.77,30.88-2,46.35-2.63q11.6-.51,23.21-.54c7.21,0,14.42-.24,21.62-.36,6.15-.1,12.31-.12,18.46.09,6.35.23,12.57.91,18.84,1.72s12.6.81,18.88,1.43c5.08.51,10.32,1.51,15.45,1C236.55,28.87,236.49,30.06,236.38,31.23Zm-9.23-4.17c-3.36-.35-6.68-.75-10.07-.95-3.85-.23-7.71-.42-11.55-.78-3.66-.35-7.27-1-10.93-1.34-14.45-1.47-29.09-.8-43.61-.54-7.5.13-15,.08-22.51.31-7.75.23-15.49.64-23.22,1.09-15.44.91-30.87,2-46.34,2.46-12.2.36-24.22,2.34-36.43,2.52-3.64.06-7.24.7-10.86.94-3.44.22-8,.34-10.49-1.94,5.7,1.21,11.83.46,17.57-.17,7.16-.79,14.37-1.2,21.57-1.7,7.73-.55,15.44-.79,23.2-.86,3.85,0,7.7-.13,11.52-.48s7.51-.95,11.3-1.27c7.49-.63,15-.74,22.55-.84,7.73-.11,15.45-.63,23.17-.89s15.33.08,23,.12,15.44-.15,23.15-.21c9.85-.07,19.59.27,29.38,1.13,9.62.85,19.29,1.7,29,1.46,0,.74,0,1.47,0,2.2A44.38,44.38,0,0,1,227.15,27.06Z"/></g></svg>