<svg xmlns="http://www.w3.org/2000/svg" viewBox="0 0 299.02 177.97"><defs><style>.cls-1{fill:#fff;}.cls-2{fill:#272525;}</style></defs><title>life</title><g id="color"><path class="cls-1" d="M172.12,26.69c1.08.23,2.16.47,3.23.73a.26.26,0,0,1,0-.17,5.29,5.29,0,0,0,.24-4c-.66-1.67-2-1.12-3.12-.28a9.16,9.16,0,0,1-1.58,3.46Z"/><path class="cls-1" d="M260.33,91.62c1.81,5.28,4.07,10.9,7.81,15.12,2.81,3.17,7.59,5.78,11.53,2.87,3.29-2.41,4.84-6.8,5.95-10.56s1.83-7.75,2.69-11.64c.94-4.3,2.35-8.49,3.26-12.8.95-4.55,2-10.48-.61-14.7-3.36-5.42-11.28-5.16-16.32-2.51-5.85,3.08-10,8.48-13.4,14a8.71,8.71,0,0,1,.32,1.06c.05.17.08.34.12.52,3.9-3.72,8.28-7.49,13.16-9.81,2.92-1.39,6.86-3,10.14-2,5.13,1.57,3.23,8.47,2.71,12.28a92,92,0,0,1-2.53,13,86.11,86.11,0,0,1-2.86,9.21c-1.05,2.52-2.44,5.2-4.9,6.6a7.94,7.94,0,0,1-7.12.39c-4.46-1.82-8.26-6.71-9.56-11.37A3.68,3.68,0,0,1,260.33,91.62Z"/><path class="cls-1" d="M262,88.72s0,.09-.05.14c2.81,1.94,5.62,5,9.31,4.76,3.27-.22,5.8-2.68,7.21-5.5a34.86,34.86,0,0,0,3.66-13.94c.06-2.25-.14-5-1.82-6.7s-4.17-1.74-6.42-.85a23.42,23.42,0,0,0-7,4.54,20.6,20.6,0,0,0-4.47,5.16.13.13,0,0,1-.16.07c0,.39.07.79.1,1.18,2.29-3,6-5.91,9.74-6.48,4.23-.65,7.08,2.8,6.84,6.91s-2.75,9.23-6.68,11.11c-2.83,1.35-8.24.74-9.87-2.34A13.88,13.88,0,0,1,262,88.72Z"/><path class="cls-1" d="M260.93,90.94a22.31,22.31,0,0,0,4.42,7.15c1.93,2.09,4.51,4.25,7.48,4.49,7.38.58,9.5-8.63,11-14.1a104,104,0,0,0,2.72-12.09c.37-2.39.68-4.78,1-7.18a12,12,0,0,0,.06-4.27c-1.15-4.86-7.14-3.35-10.5-2-5.8,2.31-10.79,6.57-15.25,10.84.14.75.25,1.52.33,2.28a19,19,0,0,1,3.13-4,27.3,27.3,0,0,1,6.56-5.1c1.85-1,4.18-2,6.31-1.41,4.71,1.22,4.91,7.14,4.38,11a41.52,41.52,0,0,1-1.85,7.68,20.22,20.22,0,0,1-3.2,6.6c-1.71,2.06-4.22,3.74-7,3.5-3.56-.32-6-2.84-8.81-4.78A6,6,0,0,1,260.93,90.94Z"/><path class="cls-1" d="M293.87,54.61c-5.13-4.66-12.86-4.68-18.58-1.1a47.81,47.81,0,0,0-8.32,7c-2.56,2.58-5.55,5.51-6.48,9.13a.31.31,0,0,1-.05.1,8.08,8.08,0,0,1,.7,1.34,38.62,38.62,0,0,1,5-7.48c3.9-4.52,9.28-8.77,15.56-8.75,4.72,0,9.31,2.08,10.8,6.85,1.42,4.6.51,9.71-.56,14.29-1,4.15-2.29,8.21-3.16,12.39a98.19,98.19,0,0,1-3.22,13c-1.24,3.48-3.08,7.82-6.67,9.47-4.14,1.9-8.56-.46-11.29-3.65-3.72-4.35-6-9.82-7.9-15.19a2.91,2.91,0,0,1-.3.17,5.61,5.61,0,0,1-.79.26,27.42,27.42,0,0,0,5,14.79c3,4.35,7.57,8,13,8.13,6.3.15,10.25-4.86,12.54-10.21,1.29-3,2.27-6.18,3.4-9.26s2.36-6.41,3.4-9.65a52.9,52.9,0,0,0,3-17.34C298.91,63.85,297.8,58.18,293.87,54.61Z"/><path class="cls-1" d="M273,81.53c1-2.24-.25-4.37-2.75-4.71-3-.41-5.47,1.75-7.82,3.38v.17a7.39,7.39,0,0,1,4.94-1.05c1.1.19,2.66,1,2.26,2.36-.73,2.53-5.11,4.16-7,2-.13-.16.09-.38.23-.23,1.61,1.75,5.14.45,6-1.53.68-1.53-1.38-2.06-2.52-2a8.17,8.17,0,0,0-2.56.52.87.87,0,0,1,.58.38,1.67,1.67,0,0,1,.12,1.4,1.43,1.43,0,0,1-.94,1,1.29,1.29,0,0,1-1.1-.29c0,.62,0,1.25,0,1.87C265.92,87.46,271.29,85.22,273,81.53Z"/><path class="cls-1" d="M262.45,86.39c1.79,3.14,7.45,3.7,10.24,1.75a13.51,13.51,0,0,0,5.55-10.47c0-1.93-.65-4.18-2.39-5.28a5.78,5.78,0,0,0-5.16-.24,18.06,18.06,0,0,0-8.32,6.47c0,.27,0,.53,0,.8,2.77-1.92,5.78-4.29,9.25-2.86a3.59,3.59,0,0,1,2.11,4.8c-1.74,4.12-7.5,6.76-11.28,3.92,0,.36-.06.71-.1,1.06C262.42,86.35,262.44,86.36,262.45,86.39Z"/><path class="cls-1" d="M263.62,82.79a1.24,1.24,0,0,0,.52-1,1.18,1.18,0,0,0-.07-.59.44.44,0,0,0-.25-.25.89.89,0,0,0-.23,0,1.15,1.15,0,0,0-.37.12,3.27,3.27,0,0,0-.5.32l-.23.18,0,.89C262.84,82.75,263.26,83,263.62,82.79Z"/><path class="cls-1" d="M175.87,27.55c1.26.31,2.52.64,3.77,1a3,3,0,0,0,.36-3.23c-.83-1.26-2.32-.81-3.45-.31a.21.21,0,0,1-.08,0,6,6,0,0,1-.59,2.54Z"/><path class="cls-1" d="M122.08,5.35c-6.83,6-15,10.58-21.29,17.19l5.49.22c1.93.07,3.87.12,5.81.17,3.39-2.89,6.44-6.16,9.85-9,1.94-1.64,4.11-3,6.06-4.63,1.62-1.34,5.54-4.51,3.75-7s-6.06-.71-7.87.92A8.33,8.33,0,0,1,122.08,5.35Z"/><path class="cls-1" d="M88.11,22.1l.14-.26c1.74-2.92,4.63-4.72,7.37-6.61C99,12.91,102.48,10.81,106,8.65c1.81-1.13,3.61-2.26,5.37-3.46.5-.34,4.75-3.58,4.85-3.48-1.58-1.62-4.84-.51-6.66.08a70.31,70.31,0,0,0-7.22,2.92c-2.66,1.2-5.36,2.25-8,3.56-6.8,3.42-13.1,7.84-17.63,14,1.52-.09,3-.16,4.58-.19Q84.69,22,88.11,22.1Z"/><path class="cls-1" d="M115.47,3.16c-.11.16-.38,0-.26-.15l0,0c-4.31,3.33-9,6.11-13.64,9-2.57,1.6-5.07,3.28-7.55,5a17.07,17.07,0,0,0-5.31,5.15c3.77.07,7.53.23,11.3.39a.24.24,0,0,1,.06-.09,65.29,65.29,0,0,1,9.18-7.82c3.24-2.38,6.42-4.79,9.56-7.3,1-.77,2-1.49,2.87-2.32s2.29-2,2.14-3.26c-.23-2.1-2.88-1.88-4.3-1.34A9.17,9.17,0,0,0,115.47,3.16Z"/><path class="cls-1" d="M84.3,166.29c5.79,4,12.42,6,19.12,7.84-2.6-5.32-8.06-9-12.59-12.5a57.46,57.46,0,0,1-7-6c-2.33-2.53-4.26-5.43-6.87-7.7A144.87,144.87,0,0,1,57,145.51a17.28,17.28,0,0,1,2,3.3c1.46,2.63,2.77,5.33,4.12,8,3.78,7.5,10.1,13.3,17.17,17.7-.59-2.31-1.81-4.41-1.9-6.84a.31.31,0,0,1,.53-.21c4.53,3.68,8.85,7.68,14,10.5-2.44-4.16-6.56-7.1-9.06-11.25C83.72,166.46,84,166.11,84.3,166.29Z"/><path class="cls-1" d="M171.6,21.37c-1.13-1.65-3.16-.47-4.15.66a.19.19,0,0,1-.12,0,5.35,5.35,0,0,1-1.23,3.52c1.41.22,2.81.47,4.21.74C171.2,24.9,172.75,23,171.6,21.37Z"/><path class="cls-1" d="M59.71,151.07c-.26-.5-2.62-5.91-3.34-5.66a.09.09,0,0,1-.14-.07c-1-.2-2-.41-2.94-.64-2.18,8.77-4.28,19.89.25,28.2,1.3-3.89,1.81-8,3.53-11.75a.32.32,0,0,1,.56,0c1.6,3.57,2.88,7.33,5.31,10.43.61-4,.29-8,1-12-.21-.38-.42-.75-.62-1.14C62.12,156,60.94,153.53,59.71,151.07Z"/><path class="cls-1" d="M151.83,24c1.73-2.19,4.26-4.23,4.68-7.16.22-1.52.18-3.73-1.88-3.78a6.05,6.05,0,0,0-3.12.93c-.8,3.57-3.29,7-5.69,9.66C147.82,23.74,149.83,23.85,151.83,24Z"/><path class="cls-1" d="M136.46,23.34q4.32.09,8.64.27a26.72,26.72,0,0,0,5.58-8.74c.48-1.37,1.1-3.48-.24-4.61-1.51-1.27-3.78-.55-5.05.75a22.81,22.81,0,0,1-3,5.79A29.45,29.45,0,0,1,136.46,23.34Z"/><path class="cls-1" d="M127.26,23.2h.91c2.48,0,5,.06,7.45.11a.44.44,0,0,1,.09-.11A30.52,30.52,0,0,0,144,13.13c.72-1.37,2-3.74.91-5.25-1.32-1.91-3.84-1.1-5.31.29,0,.09-.07.19-.1.29a26.07,26.07,0,0,1-4.58,7A89.88,89.88,0,0,1,127.26,23.2Z"/><path class="cls-1" d="M123.44,13.35c-3.75,2.9-6.89,6.52-10.49,9.6,4.54.11,9.09.18,13.63.24a.23.23,0,0,1,.08-.21c3.9-3.63,7.86-7.34,10.77-11.85a20.5,20.5,0,0,0,1.29-2.22.1.1,0,0,1,0-.13c.07-.12.16-.25.25-.38A3.71,3.71,0,0,0,139,5c-1.43-2.24-4.81-1.64-6.64-.17a6.61,6.61,0,0,1-1.21,2.13C129,9.52,126.09,11.31,123.44,13.35Z"/><path class="cls-1" d="M259.57,91.29a.32.32,0,0,1,.24-.18,4.88,4.88,0,0,0,1.35-2.18.35.35,0,0,1,0-.13,11.49,11.49,0,0,0,.41-2.12,37.27,37.27,0,0,0,.21-5,.33.33,0,0,1-.29-.54,3.58,3.58,0,0,1,.26-.29v-.26l-.05,0c-.36.23-.7-.34-.34-.57l.35-.23c-.05-1-.12-1.91-.2-2.86s-.19-2.17-.39-3.26a.51.51,0,0,1,0-.13,11.11,11.11,0,0,0-1-3c-1.54-3-4.75-2.48-7.55-1.92-4.73,1-9.6,2.54-14.47,2.32-10.72-.48-17.27-9.49-23.09-17.38-3.19-4.31-6.4-8.78-10.58-12.2a65.25,65.25,0,0,0-19.11-10.31c-12.88-4.64-26.59-6.19-40.21-6.8l-.13.15a.28.28,0,0,1-.47-.18l-3.07-.11c-7.36-.25-14.72-.27-22.08-.39-7.68-.11-15.35-.44-23-.75q-4-.16-8.06-.26a.59.59,0,0,1,0,.08c-.12.25-.43.13-.48-.09a117.92,117.92,0,0,0-16.49.71,51.07,51.07,0,0,0-12.27,2.87c-3.94,1.54-7.78,3.39-11.93,4.32-3,1.66-12.31,5.68-15,7.73-.48.37-1,.73-1.47,1.09A8.15,8.15,0,0,1,32,42.31a7.9,7.9,0,0,1-3.77,9.32c-2.88,1.55-7.62,1.22-10.08-1a7.2,7.2,0,0,1-1-1.09C11.76,54,6.84,59,3.78,65.32-1.81,76.86-.6,90.84,3.52,102.64s11.64,23.65,22.58,30.3c14.07,8.55,29.9,12.59,46.21,13.9,15.79,1.27,31.67.52,47.49.38,14.49-.13,29.13-.24,43.43-2.83s28-7.71,39.08-17.17c9.26-7.91,15.38-18.63,24.05-27.1,3.85-3.76,8.36-7.36,13.67-8.76,4.69-1.24,9.31-.39,14,.34,1.56.24,3.56.64,5.06-.1A3.94,3.94,0,0,0,259.57,91.29ZM43.21,44.19c-.43.2-.89.35-1.32.56-.21.1-.4-.22-.19-.33.43-.21.89-.35,1.32-.56C43.23,43.75,43.43,44.08,43.21,44.19Zm7.07,2.26a39.92,39.92,0,0,0-6.33,2c-.21.09-.39-.22-.18-.31a39,39,0,0,1,6.41-2.09C50.41,46,50.51,46.39,50.28,46.45Zm1.55-9.57c-1.06.47-2.17.75-3.18,1.32-.23.13-.44-.22-.21-.35a11.88,11.88,0,0,1,3.24-1.32C51.88,36.49,52,36.79,51.83,36.88Zm132.72,2.55c.25.47.65.89.56,1.45,0,.17-.29.16-.33,0a2.14,2.14,0,0,0-.23-.7c-.11-.19-.23-.37-.33-.56S184.44,39.21,184.55,39.43Zm-14.31-2.94a19.74,19.74,0,0,0-5.39-1.67c-.21,0-.12-.37.09-.33a19.72,19.72,0,0,1,5.48,1.7C170.63,36.29,170.45,36.6,170.24,36.49Zm-8.15-7.79A12,12,0,0,1,166.67,30a.16.16,0,0,1-.16.27,14.14,14.14,0,0,0-4.46-1.3C161.88,29,161.92,28.68,162.09,28.7Zm-4.92,8.74a9.38,9.38,0,0,0-2-.56c-.22,0-.22-.34,0-.33a5.75,5.75,0,0,1,2.14.59C157.48,37.21,157.35,37.48,157.17,37.44Zm-17.94-6.72a34.89,34.89,0,0,1,5.11.2c.2,0,.15.37-.05.36-1.69-.1-3.37-.18-5.06-.19A.19.19,0,0,1,139.23,30.72Zm1.27,6.13a22,22,0,0,0-3.14-.2.12.12,0,0,1,0-.24,15.1,15.1,0,0,1,3.22.17C140.76,36.62,140.68,36.88,140.5,36.85ZM113.94,26.61c3.49,0,7,.1,10.49.37.23,0,.24.37,0,.36-3.5-.12-7-.33-10.49-.38A.18.18,0,0,1,113.94,26.61Zm-5,4.12a16.93,16.93,0,0,0,2.76.34c.27,0,.27.43,0,.42a14.49,14.49,0,0,1-2.86-.4C108.59,31,108.69,30.69,108.93,30.73ZM104,25.68a2.25,2.25,0,0,1,1,.21c.19.1,0,.37-.17.29A2.07,2.07,0,0,0,104,26,.17.17,0,1,1,104,25.68ZM87.14,28.05a16.49,16.49,0,0,1,4.37.58.22.22,0,0,1-.12.43,16.9,16.9,0,0,0-4.25-.54A.24.24,0,0,1,87.14,28.05Zm-13,.49a46.32,46.32,0,0,1,7.15-.62.18.18,0,0,1,0,.35,54.13,54.13,0,0,0-7.08.51C74.09,28.8,74,28.57,74.18,28.54ZM59.49,35.59a15.65,15.65,0,0,1,3.24-1.51c.25-.08.35.31.11.4A19.09,19.09,0,0,0,59.71,36,.22.22,0,0,1,59.49,35.59Zm8.73,11.25a51,51,0,0,0-6.88.55c-.24,0-.34-.32-.1-.36a40.84,40.84,0,0,1,7-.58A.2.2,0,0,1,68.22,46.84ZM72,38.39c-1.26,0-2.5-.15-3.75-.17a.2.2,0,0,1,0-.39c1.25,0,2.49.17,3.75.21A.18.18,0,0,1,72,38.39Zm3.31-6.52a13.53,13.53,0,0,0-6.87-.77c-.22,0-.27-.35-.06-.38a13.45,13.45,0,0,1,7.05.72C75.66,31.55,75.55,32,75.28,31.87Zm3.39.2c1.14-.2,2.26-.44,3.38-.73.17-.05.23.2.07.26a16.15,16.15,0,0,1-3.37.77C78.56,32.4,78.47,32.1,78.67,32.07ZM80,47.78l-.93,0a.23.23,0,0,1,0-.46l.93,0A.2.2,0,1,1,80,47.78Zm2.63-3.71a5.35,5.35,0,0,0-1.63.36c-.28.09-.39-.34-.12-.44a6.17,6.17,0,0,1,1.75-.39C83,43.59,83,44.06,82.65,44.07Zm2.81-3.62a36.27,36.27,0,0,0-3.75-.34.21.21,0,0,1,0-.42,23,23,0,0,1,3.79.42C85.7,40.14,85.65,40.47,85.46,40.45Zm.18-5.75a25.16,25.16,0,0,0,5.06,0c.19,0,.19.28,0,.3a23.14,23.14,0,0,1-5.06,0C85.47,35,85.47,34.69,85.64,34.7Zm2.44,12.86a4.5,4.5,0,0,1-1.55-.16c-.25-.08-.14-.46.1-.38a5.46,5.46,0,0,0,1.45.21A.17.17,0,0,1,88.08,47.56Zm3.64-6.91a3.25,3.25,0,0,0-1.39-.35.21.21,0,1,1,0-.42,3.86,3.86,0,0,1,1.6.4C92.18,40.4,92,40.76,91.72,40.65Zm1.79-10.71a.16.16,0,0,1,0-.31c3.37-.07,6.75-.46,10.12-.22.24,0,.24.38,0,.37C100.25,29.71,96.89,30,93.51,29.94ZM100,44.58a17,17,0,0,0-2.76-.33.23.23,0,0,1,0-.46,13.93,13.93,0,0,1,2.86.43C100.36,44.27,100.26,44.62,100,44.58Zm2-5c-1.24-.16-2.5-.18-3.74-.38-.26,0-.15-.43.11-.39,1.22.18,2.46.19,3.69.36A.21.21,0,1,1,102.07,39.54Zm2.87-5.25c-1.5,0-3,.17-4.49.18a.19.19,0,0,1,0-.38c1.5,0,3-.2,4.49-.19A.2.2,0,0,1,104.94,34.29Zm3.75,2.26a19.19,19.19,0,0,1,3.79.19c.18,0,.14.35,0,.33a36.22,36.22,0,0,0-3.75-.19A.16.16,0,0,1,108.69,36.55Zm3.75,12.92h-2.81a.2.2,0,0,1,0-.4h2.81A.2.2,0,0,1,112.44,49.47Zm2.19-5.26a7.29,7.29,0,0,1-1.57-.54c-.28-.14,0-.55.25-.42.48.23,1,.39,1.47.6C115,44,114.84,44.26,114.63,44.21Zm4.74-.35h-3a.22.22,0,0,1,0-.44c1,0,2,0,3,0A.21.21,0,0,1,119.37,43.86Zm2.19-11.8a44,44,0,0,0-5.38-.42.17.17,0,0,1,0-.34,22.52,22.52,0,0,1,5.5.33C122,31.69,121.84,32.1,121.56,32.06Zm1.18,7.46c-.23,0-.23-.38,0-.36,1.69.14,3.37,0,5.06,0a.22.22,0,0,1,0,.43A40.67,40.67,0,0,1,122.74,39.52Zm3.37.7,2.07,0a.22.22,0,0,1,0,.44c-.69,0-1.38,0-2.07,0A.25.25,0,0,1,126.11,40.22Zm3.94,8.31a17.57,17.57,0,0,1-3.24-.36c-.28-.05-.16-.47.11-.42a25.23,25.23,0,0,0,3.13.38A.2.2,0,0,1,130.05,48.53Zm2.62-16.83a82.21,82.21,0,0,0-10.63.87c-.22,0-.31-.28-.09-.33a65.27,65.27,0,0,1,10.72-1C133,31.23,133,31.68,132.67,31.7ZM133.8,27c1.5,0,3,0,4.49,0a.15.15,0,0,1,0,.3c-1.5,0-3,0-4.49,0A.18.18,0,0,1,133.8,27Zm.37,6.38a25.62,25.62,0,0,1,5.25-.21c.24,0,.24.4,0,.38a28.79,28.79,0,0,0-5.25.17C134,33.72,134,33.39,134.17,33.36Zm4.44,10.89a9.59,9.59,0,0,0-2.19-.39.22.22,0,0,1,0-.43,10.6,10.6,0,0,1,2.31.37C139,43.87,138.89,44.32,138.61,44.25Zm1-5.14a47.46,47.46,0,0,1,5.31.76c.29.06.17.5-.12.44-1.71-.35-3.45-.55-5.19-.74C139.32,39.53,139.31,39.08,139.6,39.11Zm7.12,10.76a16.71,16.71,0,0,0-4.12,0c-.28,0-.28-.41,0-.45a16.71,16.71,0,0,1,4.12,0C147,49.45,147,49.91,146.72,49.87Zm1.69-23.07a13.83,13.83,0,0,1,5.11.56.18.18,0,0,1-.1.35,18.06,18.06,0,0,0-5-.57C148.19,27.16,148.19,26.82,148.41,26.8ZM150.8,41c-.69-.18-1.37-.39-2.06-.57a.18.18,0,0,1,.09-.35c.69.17,1.38.38,2.07.56A.19.19,0,0,1,150.8,41Zm1-8.24a15.42,15.42,0,0,1,4.55,0c.2,0,.15.37-.05.36a27,27,0,0,0-4.5,0C151.54,33.18,151.55,32.81,151.78,32.78Zm6,13.07a56.47,56.47,0,0,1-5.81.26.22.22,0,0,1,0-.43c1.94,0,3.88,0,5.81-.11C158,45.55,158,45.83,157.78,45.85Zm5.37,5.33a15,15,0,0,0-2.75-.36.24.24,0,0,1,0-.48,16.37,16.37,0,0,1,2.87.39C163.57,50.79,163.44,51.24,163.15,51.18Zm1.52-8.49-.08,0a.14.14,0,0,1-.11,0l-.26-.11c-1.08-.32-2.2-.53-3.29-.85-.16,0-.09-.29.07-.25.73.2,1.48.34,2.22.51l-.09-.06c-.18-.09,0-.37.16-.28.33.17.62.4.93.58s.36.09.54.15S164.88,42.76,164.67,42.69Zm2.54-4.31a36.54,36.54,0,0,1,4.68,1.31c.27.09.15.53-.12.43a36.13,36.13,0,0,0-4.68-1.32C166.81,38.74,166.93,38.31,167.21,38.38Zm3.24,12.25a5.52,5.52,0,0,0-1.62-.17.25.25,0,0,1,0-.5,6.13,6.13,0,0,1,1.76.19C170.89,50.25,170.76,50.73,170.45,50.63Zm2.41-4.75a2.92,2.92,0,0,0-1.22-.39c-.19,0-.19-.31,0-.31a3.46,3.46,0,0,1,1.41.36C173.28,45.64,173.08,46,172.86,45.88Zm7.35-2.79a20.81,20.81,0,0,1-3.37-.94c-.25-.08-.14-.46.1-.38a26.46,26.46,0,0,0,3.38.94C180.57,42.75,180.46,43.13,180.21,43.09Zm1.12-9A31.12,31.12,0,0,0,175,32.64c-.3,0-.31-.5,0-.47a24.22,24.22,0,0,1,6.43,1.53C181.7,33.8,181.6,34.2,181.33,34.12Zm4.5,19.47a28.62,28.62,0,0,1-4.13-1.29c-.26-.11-.15-.55.12-.44,1.34.55,2.74.89,4.12,1.33A.21.21,0,0,1,185.83,53.59Zm.89-4.33a16.09,16.09,0,0,0-4.63-2.08.17.17,0,0,1,.09-.32,16,16,0,0,1,4.75,2C187.15,49,187,49.4,186.72,49.26Zm6-9.7a19.51,19.51,0,0,0-4.81-2.24c-.3-.07-.17-.53.13-.46a15.23,15.23,0,0,1,4.93,2.26A.25.25,0,0,1,192.69,39.56Zm1.55,5.4c1.07.54,2.13,1.11,3.17,1.71.21.13,0,.42-.19.32-1.1-.48-2.13-1.11-3.2-1.66C193.77,45.21,194,44.83,194.24,45Zm3.57,9c-.75-.17-1.5-.37-2.25-.55a.25.25,0,0,1,.13-.49c.75.19,1.5.37,2.25.57A.24.24,0,0,1,197.81,54Zm3.28-8.88c-1.06-.87-2.18-1.66-3.31-2.43-.21-.14,0-.48.2-.34a39.37,39.37,0,0,1,3.42,2.45C201.62,45,201.31,45.29,201.09,45.12Zm5.2,9.89c-.38-.55-.94-.95-1.32-1.49-.19-.27.25-.52.43-.25.37.55.92.95,1.3,1.5C206.87,55,206.46,55.26,206.29,55Zm1.38-4.67c-.65-.75-1.32-1.49-1.91-2.28-.14-.18.17-.43.32-.25.61.79,1.33,1.48,1.89,2.3C208.1,50.29,207.81,50.51,207.67,50.34Zm1.57,14c-.17,0-.34-.23-.44-.33s.08-.41.25-.27a.15.15,0,0,1,.21.06.71.71,0,0,1,.15.41A.17.17,0,0,1,209.24,64.34ZM213.31,58a4.52,4.52,0,0,1-1-1.14.19.19,0,0,1,.34-.19,5.82,5.82,0,0,0,.88,1.1A.16.16,0,0,1,213.31,58Zm2.93,4.6a.4.4,0,0,1-.22-.06s-.11-.11-.16-.11a.23.23,0,1,1,.06-.45c.16,0,.24.18.37.2S216.47,62.62,216.24,62.6Z"/></g><g id="stroke"><path class="cls-2" d="M296.1,42.89c-4.78-2.55-10.81-2.34-15.94-1.12-11.85,2.79-21.64,13.36-21.61,25.83V68a.12.12,0,0,0,.23,0,26.63,26.63,0,0,1,7.67-18A29.14,29.14,0,0,1,284,41.68c5.41-.6,11.11.31,15.14,4.2,3.44,3.31,5,8.13,5.75,12.72,1.59,9.5.24,19.64-1.87,28.95-2.18,9.66-5.58,20.21-12.66,27.44a18.55,18.55,0,0,1-9.07,5.28c-4.11.94-8.39,0-12.19-1.66a18.8,18.8,0,0,1-10.16-10.69,35.74,35.74,0,0,1-2.11-11.84,31.55,31.55,0,0,0,6.61,15.73,23.2,23.2,0,0,0,7.85,6.63c3,1.41,6.5.85,9.64.12,14.83-3.42,17-21.74,19.62-34.06,1.66-7.9,4.69-16,2.79-24.13,0-.22-.38-.12-.33.09,1.78,8.35-1.58,16.73-3.22,24.82-1.46,7.2-2.58,14.39-5.84,21.07a23.74,23.74,0,0,1-6.94,8.87c-3.16,2.33-7.17,3.12-11,3.42-4.1.32-7.4-2.36-10.1-5.11a29.61,29.61,0,0,1-6.26-9.47,31.25,31.25,0,0,1-2.42-11.32s0,0,0-.06a5.81,5.81,0,0,0,1.11-.13c-.21,6.07,2.49,12.32,6.2,17s10.07,7.74,16,6c6.91-2,9.47-10.44,11.59-16.42C294.65,92,297.66,84.84,299,77.3c1.56-9,1.18-21.31-8.48-25.67-6.06-2.74-12.45-1.09-17.6,2.72a60.34,60.34,0,0,0-7.55,6.92c-2.16,2.25-4.49,4.84-5.39,7.9q-.15-.17-.3-.3c.87-10.31,8.91-18.74,18.31-22.31A19.49,19.49,0,0,1,292,46.27a15.21,15.21,0,0,1,9.59,10.66c.1.43.77.25.67-.19A15.91,15.91,0,0,0,293,45.94c-4.64-2.09-9.7-1.85-14.45-.27-9.47,3.15-19.16,12.37-19.13,23a5,5,0,0,0-2.9-1,18.32,18.32,0,0,0-4.71.59c-2.23.46-4.44,1-6.68,1.42-5.61,1.07-10.89,1-15.92-2-4.56-2.7-8-7-11.16-11.18s-6.21-8.66-9.87-12.53c-4.35-4.61-10-7.89-15.66-10.59a82.55,82.55,0,0,0-12.25-4.61c.68-1.14,1.06-2.78.1-3.88s-2.7-.93-3.9-.15a4.4,4.4,0,0,0-.62-2.14c-.88-1.41-2.32-.81-3.32.08a2.84,2.84,0,0,0-.72-1.88c-1.29-1.5-3.53-.28-4.49,1a4,4,0,0,0-1.19-2.33,2.9,2.9,0,0,0-4.76.94.1.1,0,0,0,.17.1c1.17-1.58,2.91-2.11,4.4-.57,1.64,1.68.8,4-.45,5.64-2-.3-3.94-.56-5.93-.79,1.09-1.73,2.05-4.11,1.77-6.12-.3-2.2-2.43-2.54-4.24-1.74,0,0,0,0,0,0A5,5,0,0,1,160,17c.84.42.94,1.5.91,2.32a12,12,0,0,1-1.92,5.3c-2.13-.23-4.28-.42-6.42-.58a19.9,19.9,0,0,0,3.11-3.95A7.71,7.71,0,0,0,157.09,15c-.44-3-3.53-2.63-5.52-1.32a9.87,9.87,0,0,0,.16-1.07c.34-3.69-4-4.3-6.19-2.17a3.14,3.14,0,0,0-1.94-4,4.35,4.35,0,0,0-3.88,1.13,3.54,3.54,0,0,0-2-4.3c-1.63-.69-3.92,0-5.28,1.12a2.76,2.76,0,0,0-1.37-3.28c-2-1.12-5.13,0-6.94,1.44A2.16,2.16,0,0,0,123-.21c-1.79-1-4.49.24-6.3,1.72h0c-1.69-2.09-5.51-.76-7.56-.09-3.09,1-6,2.49-9,3.71-9,3.69-18.23,8.9-23.73,17.2A79.8,79.8,0,0,0,64.08,24C58.15,25.37,52.88,28.66,47,30a.37.37,0,0,0-.14.07A121.4,121.4,0,0,0,30.19,39a8.53,8.53,0,0,0-13.75,2.36,7.62,7.62,0,0,0-.58,1.87,8.12,8.12,0,0,0,1,5.71,93.12,93.12,0,0,0-7.37,7.12A37.15,37.15,0,0,0,.79,71.63a47.48,47.48,0,0,0-1,17.93,65.94,65.94,0,0,0,14.84,34.22c9.12,10.86,22.91,16.9,36.39,20.37l2,.49c-2.73,8.94-4.65,20.77.29,29.2a.33.33,0,0,0,.6-.07c1.41-3.81,1.86-7.9,3.43-11.64,1.59,3.65,2.95,7.41,5.57,10.47a.34.34,0,0,0,.56-.14c.7-4,.5-8,1-12,3.82,6.26,10,11.28,16.12,15a.32.32,0,0,0,.47-.35c-.43-2.32-1.7-4.38-2-6.71,4.64,3.8,9.08,7.88,14.46,10.62a.32.32,0,0,0,.43-.43c-2.1-4.22-6-7.13-8.73-10.93,5.72,3.6,12.18,5.51,18.68,7.28a.32.32,0,0,0,.36-.47c-2.36-5.5-7.78-9.25-12.34-12.8a73.28,73.28,0,0,1-7.12-6c-2.42-2.43-4.3-5.33-6.8-7.68,6.79.34,13.59.35,20.35.28,14.93-.16,29.93,0,44.84-.89,13.91-.79,28.06-2.74,41-8.22a73.47,73.47,0,0,0,18-10.82,83.57,83.57,0,0,0,12.19-13,174.93,174.93,0,0,1,12-14.19c4-4.09,8.8-7.85,14.48-9.25,4.77-1.18,9.49,0,14.23.66a12.81,12.81,0,0,0,1.52.13.13.13,0,0,0,0,.06,2.26,2.26,0,0,0,0,.26.34.34,0,0,0-.5.3c0,6,.58,12.16,3.43,17.53s8.16,8.6,13.94,10a17.6,17.6,0,0,0,13.05-1.89c4-2.33,7-6.11,9.3-10,4.95-8.29,7.57-18.09,9.1-27.56,1.51-9.32,2.39-19.71-.89-28.76A17.41,17.41,0,0,0,296.1,42.89ZM260.49,69.68c.93-3.62,3.92-6.55,6.48-9.13a47.81,47.81,0,0,1,8.32-7c5.72-3.58,13.45-3.56,18.58,1.1,3.93,3.57,5,9.24,5.15,14.32a52.9,52.9,0,0,1-3,17.34c-1,3.24-2.23,6.44-3.4,9.65s-2.11,6.24-3.4,9.26c-2.29,5.35-6.24,10.36-12.54,10.21-5.48-.13-10.09-3.78-13-8.13a27.42,27.42,0,0,1-5-14.79,5.61,5.61,0,0,0,.79-.26,2.91,2.91,0,0,0,.3-.17c1.86,5.37,4.18,10.84,7.9,15.19,2.73,3.19,7.15,5.55,11.29,3.65,3.59-1.65,5.43-6,6.67-9.47a98.19,98.19,0,0,0,3.22-13c.87-4.18,2.2-8.24,3.16-12.39,1.07-4.58,2-9.69.56-14.29-1.49-4.77-6.08-6.83-10.8-6.85-6.28,0-11.66,4.23-15.56,8.75a38.62,38.62,0,0,0-5,7.48,8.08,8.08,0,0,0-.7-1.34A.31.31,0,0,0,260.49,69.68Zm2,13.28a1.29,1.29,0,0,0,1.1.29,1.43,1.43,0,0,0,.94-1,1.67,1.67,0,0,0-.12-1.4.87.87,0,0,0-.58-.38,8.17,8.17,0,0,1,2.56-.52c1.14-.06,3.2.47,2.52,2-.9,2-4.43,3.28-6,1.53-.14-.15-.36.07-.23.23,1.86,2.17,6.24.54,7-2,.4-1.39-1.16-2.17-2.26-2.36a7.39,7.39,0,0,0-4.94,1.05V80.2c2.35-1.63,4.84-3.79,7.82-3.38,2.5.34,3.79,2.47,2.75,4.71-1.72,3.69-7.09,5.93-10.5,3.3C262.53,84.21,262.54,83.58,262.53,83Zm0-1.38.23-.18a3.27,3.27,0,0,1,.5-.32,1.15,1.15,0,0,1,.37-.12.89.89,0,0,1,.23,0,.44.44,0,0,1,.25.25,1.18,1.18,0,0,1,.07.59,1.24,1.24,0,0,1-.52,1c-.36.21-.78,0-1.1-.32Zm0,3.7c3.78,2.84,9.54.2,11.28-3.92a3.59,3.59,0,0,0-2.11-4.8c-3.47-1.43-6.48.94-9.25,2.86,0-.27,0-.53,0-.8a18.06,18.06,0,0,1,8.32-6.47,5.78,5.78,0,0,1,5.16.24c1.74,1.1,2.37,3.35,2.39,5.28a13.51,13.51,0,0,1-5.55,10.47c-2.79,2-8.45,1.39-10.24-1.75,0,0,0,0-.06,0C262.43,86,262.46,85.64,262.49,85.28Zm9.72,3.84c3.93-1.88,6.42-6.94,6.68-11.11s-2.61-7.56-6.84-6.91c-3.7.57-7.45,3.47-9.74,6.48,0-.39-.06-.79-.1-1.18a.13.13,0,0,0,.16-.07,20.6,20.6,0,0,1,4.47-5.16,23.42,23.42,0,0,1,7-4.54c2.25-.89,4.63-1,6.42.85s1.88,4.45,1.82,6.7a34.86,34.86,0,0,1-3.66,13.94c-1.41,2.82-3.94,5.28-7.21,5.5-3.69.25-6.5-2.82-9.31-4.76,0,0,0-.1.05-.14a13.88,13.88,0,0,0,.39-1.94C264,89.86,269.38,90.47,272.21,89.12Zm-1.73,5.2c2.8.24,5.31-1.44,7-3.5a20.22,20.22,0,0,0,3.2-6.6,41.52,41.52,0,0,0,1.85-7.68c.53-3.9.33-9.82-4.38-11-2.13-.55-4.46.43-6.31,1.41A27.3,27.3,0,0,0,265.3,72a19,19,0,0,0-3.13,4c-.08-.76-.19-1.53-.33-2.28,4.46-4.27,9.45-8.53,15.25-10.84,3.36-1.33,9.35-2.84,10.5,2a12,12,0,0,1-.06,4.27c-.29,2.4-.6,4.79-1,7.18a104,104,0,0,1-2.72,12.09c-1.51,5.47-3.63,14.68-11,14.1-3-.24-5.55-2.4-7.48-4.49a22.31,22.31,0,0,1-4.42-7.15,6,6,0,0,0,.74-1.4C264.46,91.48,266.92,94,270.48,94.32Zm-.2,8.27a7.94,7.94,0,0,0,7.12-.39c2.46-1.4,3.85-4.08,4.9-6.6a86.11,86.11,0,0,0,2.86-9.21,92,92,0,0,0,2.53-13c.52-3.81,2.42-10.71-2.71-12.28-3.28-1-7.22.62-10.14,2-4.88,2.32-9.26,6.09-13.16,9.81,0-.18-.07-.35-.12-.52a8.71,8.71,0,0,0-.32-1.06c3.41-5.52,7.55-10.92,13.4-14,5-2.65,13-2.91,16.32,2.51,2.62,4.22,1.56,10.15.61,14.7-.91,4.31-2.32,8.5-3.26,12.8-.86,3.89-1.56,7.81-2.69,11.64s-2.66,8.15-5.95,10.56c-3.94,2.91-8.72.3-11.53-2.87-3.74-4.22-6-9.84-7.81-15.12a3.68,3.68,0,0,0,.39-.4C262,95.88,265.82,100.77,270.28,102.59ZM176.47,25a.21.21,0,0,0,.08,0c1.13-.5,2.62-.95,3.45.31a3,3,0,0,1-.36,3.23c-1.25-.35-2.51-.68-3.77-1h0A6,6,0,0,0,176.47,25Zm-.86-1.73a5.29,5.29,0,0,1-.24,4,.26.26,0,0,0,0,.17c-1.07-.26-2.15-.5-3.23-.73l-1.21-.24A9.16,9.16,0,0,0,172.49,23C173.58,22.15,175,21.6,175.61,23.27Zm-8.28-1.2a.19.19,0,0,0,.12,0c1-1.13,3-2.31,4.15-.66s-.4,3.53-1.29,5c-1.4-.27-2.8-.52-4.21-.74A5.35,5.35,0,0,0,167.33,22.07Zm-12.7-9c2.06,0,2.1,2.26,1.88,3.78-.42,2.93-2.95,5-4.68,7.16-2-.15-4-.26-6-.35,2.4-2.71,4.89-6.09,5.69-9.66A6.05,6.05,0,0,1,154.63,13.06Zm-4.19-2.8c1.34,1.13.72,3.24.24,4.61a26.72,26.72,0,0,1-5.58,8.74q-4.32-.18-8.64-.27a29.45,29.45,0,0,0,5.91-6.54,22.81,22.81,0,0,0,3-5.79C146.66,9.71,148.93,9,150.44,10.26ZM139.56,8.17c1.47-1.39,4-2.2,5.31-.29,1,1.51-.19,3.88-.91,5.25a30.52,30.52,0,0,1-8.25,10.08.44.44,0,0,0-.09.11c-2.49-.05-5-.08-7.45-.11h-.91a89.88,89.88,0,0,0,7.62-7.75,26.07,26.07,0,0,0,4.58-7C139.49,8.36,139.53,8.26,139.56,8.17ZM139,5A3.71,3.71,0,0,1,139,8.4c-.09.13-.18.26-.25.38a.1.1,0,0,0,0,.13,20.5,20.5,0,0,1-1.29,2.22c-2.91,4.51-6.87,8.22-10.77,11.85a.23.23,0,0,0-.08.21c-4.54-.06-9.09-.13-13.63-.24,3.6-3.08,6.74-6.7,10.49-9.6,2.65-2,5.55-3.83,7.71-6.43a6.61,6.61,0,0,0,1.21-2.13C134.19,3.32,137.57,2.72,139,5Zm-7.25-2.69c1.79,2.48-2.13,5.65-3.75,7-2,1.63-4.12,3-6.06,4.63-3.41,2.88-6.46,6.15-9.85,9-1.94-.05-3.88-.1-5.81-.17l-5.49-.22c6.3-6.61,14.46-11.16,21.29-17.19a8.33,8.33,0,0,0,1.8-2.16C125.69,1.56,130-.11,131.75,2.27ZM119.55.37c1.42-.54,4.07-.76,4.3,1.34C124,3,122.55,4.21,121.71,5s-1.91,1.55-2.87,2.32c-3.14,2.51-6.32,4.92-9.56,7.3a65.29,65.29,0,0,0-9.18,7.82.24.24,0,0,0-.06.09c-3.77-.16-7.53-.32-11.3-.39A17.07,17.07,0,0,1,94.05,17c2.48-1.72,5-3.4,7.55-5,4.62-2.89,9.33-5.67,13.64-9l0,0c-.12.16.15.31.26.15A9.17,9.17,0,0,1,119.55.37ZM94.32,8.27c2.61-1.31,5.31-2.36,8-3.56a70.31,70.31,0,0,1,7.22-2.92c1.82-.59,5.08-1.7,6.66-.08-.1-.1-4.35,3.14-4.85,3.48-1.76,1.2-3.56,2.33-5.37,3.46-3.47,2.16-7,4.26-10.33,6.58-2.74,1.89-5.63,3.69-7.37,6.61l-.14.26q-3.42-.06-6.84,0c-1.53,0-3.06.1-4.58.19C81.22,16.11,87.52,11.69,94.32,8.27ZM62.94,171.58c-2.43-3.1-3.71-6.86-5.31-10.43a.32.32,0,0,0-.56,0c-1.72,3.75-2.23,7.86-3.53,11.75-4.53-8.31-2.43-19.43-.25-28.2,1,.23,2,.44,2.94.64a.09.09,0,0,0,.14.07c.72-.25,3.08,5.16,3.34,5.66,1.23,2.46,2.41,4.94,3.65,7.39.2.39.41.76.62,1.14C63.23,163.55,63.55,167.61,62.94,171.58Zm20.91-16a57.46,57.46,0,0,0,7,6c4.53,3.53,10,7.18,12.59,12.5-6.7-1.83-13.33-3.86-19.12-7.84-.26-.18-.58.17-.43.43,2.5,4.15,6.62,7.09,9.06,11.25-5.15-2.82-9.47-6.82-14-10.5a.31.31,0,0,0-.53.21c.09,2.43,1.31,4.53,1.9,6.84-7.07-4.4-13.39-10.2-17.17-17.7-1.35-2.68-2.66-5.38-4.12-8a17.28,17.28,0,0,0-2-3.3A144.87,144.87,0,0,0,77,147.88C79.59,150.15,81.52,153.05,83.85,155.58ZM254,91.7c-4.69-.73-9.31-1.58-14-.34-5.31,1.4-9.82,5-13.67,8.76-8.67,8.47-14.79,19.19-24.05,27.1-11.06,9.46-24.9,14.61-39.08,17.17s-28.94,2.7-43.43,2.83c-15.82.14-31.7.89-47.49-.38-16.31-1.31-32.14-5.35-46.21-13.9-10.94-6.65-18.44-18.44-22.58-30.3s-5.33-25.78.26-37.32C6.84,59,11.76,54,17.23,49.51a7.2,7.2,0,0,0,1,1.09c2.46,2.25,7.2,2.58,10.08,1A7.9,7.9,0,0,0,32,42.31a8.15,8.15,0,0,0-1.41-2.79c.5-.36,1-.72,1.47-1.09,2.73-2,12.06-6.07,15-7.73,4.15-.93,8-2.78,11.93-4.32a51.07,51.07,0,0,1,12.27-2.87,117.92,117.92,0,0,1,16.49-.71c0,.22.36.34.48.09a.59.59,0,0,0,0-.08q4,.09,8.06.26c7.67.31,15.34.64,23,.75,7.36.12,14.72.14,22.08.39l3.07.11a.28.28,0,0,0,.47.18l.13-.15c13.62.61,27.33,2.16,40.21,6.8A65.25,65.25,0,0,1,204.5,41.46c4.18,3.42,7.39,7.89,10.58,12.2,5.82,7.89,12.37,16.9,23.09,17.38,4.87.22,9.74-1.37,14.47-2.32,2.8-.56,6-1,7.55,1.92a11.11,11.11,0,0,1,1,3,.51.51,0,0,0,0,.13c.2,1.09.3,2.21.39,3.26s.15,1.9.2,2.86l-.35.23c-.36.23,0,.8.34.57l.05,0v.26a3.58,3.58,0,0,0-.26.29.33.33,0,0,0,.29.54,37.27,37.27,0,0,1-.21,5,11.49,11.49,0,0,1-.41,2.12.35.35,0,0,0,0,.13,4.88,4.88,0,0,1-1.35,2.18.32.32,0,0,0-.24.18,3.94,3.94,0,0,1-.48.31C257.59,92.34,255.59,91.94,254,91.7Z"/><path class="cls-2" d="M132.67,31.24a65.27,65.27,0,0,0-10.72,1c-.22,0-.13.37.09.33a82.21,82.21,0,0,1,10.63-.87C133,31.68,133,31.23,132.67,31.24Z"/><path class="cls-2" d="M139.23,31.09c1.69,0,3.37.09,5.06.19.2,0,.25-.33.05-.36a34.89,34.89,0,0,0-5.11-.2A.19.19,0,0,0,139.23,31.09Z"/><path class="cls-2" d="M139.42,33.53c.24,0,.24-.36,0-.38a25.62,25.62,0,0,0-5.25.21c-.21,0-.21.36,0,.34A28.79,28.79,0,0,1,139.42,33.53Z"/><path class="cls-2" d="M137.36,36.41a.12.12,0,0,0,0,.24,22,22,0,0,1,3.14.2c.18,0,.26-.23.08-.27A15.1,15.1,0,0,0,137.36,36.41Z"/><path class="cls-2" d="M156.28,33.15c.2,0,.25-.32.05-.36a15.42,15.42,0,0,0-4.55,0c-.23,0-.24.4,0,.38A27,27,0,0,1,156.28,33.15Z"/><path class="cls-2" d="M155.16,36.88a9.38,9.38,0,0,1,2,.56c.18,0,.31-.23.13-.3a5.75,5.75,0,0,0-2.14-.59C154.94,36.54,154.94,36.87,155.16,36.88Z"/><path class="cls-2" d="M150.9,40.66c-.69-.18-1.38-.39-2.07-.56a.18.18,0,0,0-.09.35c.69.18,1.37.39,2.06.57A.19.19,0,0,0,150.9,40.66Z"/><path class="cls-2" d="M127.8,39.12c-1.69,0-3.37.18-5.06,0-.23,0-.23.34,0,.36a40.67,40.67,0,0,0,5.06,0A.22.22,0,0,0,127.8,39.12Z"/><path class="cls-2" d="M103.63,29.78c.24,0,.24-.35,0-.37-3.37-.24-6.75.15-10.12.22a.16.16,0,0,0,0,.31C96.89,30,100.25,29.71,103.63,29.78Z"/><path class="cls-2" d="M104.94,33.9c-1.5,0-3,.17-4.49.19a.19.19,0,0,0,0,.38c1.5,0,3-.15,4.49-.18A.2.2,0,0,0,104.94,33.9Z"/><path class="cls-2" d="M121.68,31.63a22.52,22.52,0,0,0-5.5-.33.17.17,0,0,0,0,.34,44,44,0,0,1,5.38.42C121.84,32.1,122,31.69,121.68,31.63Z"/><path class="cls-2" d="M112.48,36.74a19.19,19.19,0,0,0-3.79-.19.17.17,0,0,0,0,.33,36.22,36.22,0,0,1,3.75.19C112.62,37.09,112.66,36.78,112.48,36.74Z"/><path class="cls-2" d="M102.13,39.13c-1.23-.17-2.47-.18-3.69-.36-.26,0-.37.35-.11.39,1.24.2,2.5.22,3.74.38A.21.21,0,1,0,102.13,39.13Z"/><path class="cls-2" d="M90.7,35c.19,0,.19-.32,0-.3a25.16,25.16,0,0,1-5.06,0c-.17,0-.17.26,0,.28A23.14,23.14,0,0,0,90.7,35Z"/><path class="cls-2" d="M82.05,31.34c-1.12.29-2.24.53-3.38.73-.2,0-.11.33.08.3a16.15,16.15,0,0,0,3.37-.77C82.28,31.54,82.22,31.29,82.05,31.34Z"/><path class="cls-2" d="M74.25,28.78a54.13,54.13,0,0,1,7.08-.51.18.18,0,0,0,0-.35,46.32,46.32,0,0,0-7.15.62C74,28.57,74.09,28.8,74.25,28.78Z"/><path class="cls-2" d="M72,38c-1.26,0-2.5-.19-3.75-.21a.2.2,0,0,0,0,.39c1.25,0,2.49.18,3.75.17A.18.18,0,0,0,72,38Z"/><path class="cls-2" d="M87.14,28.52a16.9,16.9,0,0,1,4.25.54.22.22,0,0,0,.12-.43,16.49,16.49,0,0,0-4.37-.58A.24.24,0,0,0,87.14,28.52Z"/><path class="cls-2" d="M75.4,31.44a13.45,13.45,0,0,0-7.05-.72c-.21,0-.16.41.06.38a13.53,13.53,0,0,1,6.87.77C75.55,32,75.66,31.55,75.4,31.44Z"/><path class="cls-2" d="M85.5,40.11a23,23,0,0,0-3.79-.42.21.21,0,0,0,0,.42,36.27,36.27,0,0,1,3.75.34C85.65,40.47,85.7,40.14,85.5,40.11Z"/><path class="cls-2" d="M100.12,44.22a13.93,13.93,0,0,0-2.86-.43.23.23,0,0,0,0,.46,17,17,0,0,1,2.76.33C100.26,44.62,100.36,44.27,100.12,44.22Z"/><path class="cls-2" d="M119.37,43.44c-1,0-2,0-3,0a.22.22,0,0,0,0,.44h3A.21.21,0,0,0,119.37,43.44Z"/><path class="cls-2" d="M138.73,43.8a10.6,10.6,0,0,0-2.31-.37.22.22,0,0,0,0,.43,9.59,9.59,0,0,1,2.19.39C138.89,44.32,139,43.87,138.73,43.8Z"/><path class="cls-2" d="M62.73,34.08a15.65,15.65,0,0,0-3.24,1.51.22.22,0,0,0,.22.38,19.09,19.09,0,0,1,3.13-1.49C63.08,34.39,63,34,62.73,34.08Z"/><path class="cls-2" d="M51.68,36.53a11.88,11.88,0,0,0-3.24,1.32c-.23.13,0,.48.21.35,1-.57,2.12-.85,3.18-1.32C52,36.79,51.88,36.49,51.68,36.53Z"/><path class="cls-2" d="M43,43.86c-.43.21-.89.35-1.32.56-.21.11,0,.43.19.33.43-.21.89-.36,1.32-.56C43.43,44.08,43.23,43.75,43,43.86Z"/><path class="cls-2" d="M50.18,46.09a39,39,0,0,0-6.41,2.09c-.21.09,0,.4.18.31a39.92,39.92,0,0,1,6.33-2C50.51,46.39,50.41,46,50.18,46.09Z"/><path class="cls-2" d="M68.22,46.45a40.84,40.84,0,0,0-7,.58c-.24,0-.14.39.1.36a51,51,0,0,1,6.88-.55A.2.2,0,0,0,68.22,46.45Z"/><path class="cls-2" d="M80,47.39l-.93,0a.23.23,0,0,0,0,.46l.93,0A.2.2,0,1,0,80,47.39Z"/><path class="cls-2" d="M82.65,43.6A6.17,6.17,0,0,0,80.9,44c-.27.1-.16.53.12.44a5.35,5.35,0,0,1,1.63-.36C83,44.06,83,43.59,82.65,43.6Z"/><path class="cls-2" d="M113.94,27c3.5.05,7,.26,10.49.38.24,0,.23-.34,0-.36-3.49-.27-7-.4-10.49-.37A.18.18,0,0,0,113.94,27Z"/><path class="cls-2" d="M138.29,27c-1.5,0-3,0-4.49,0a.18.18,0,0,0,0,.36c1.5,0,3,0,4.49,0A.15.15,0,0,0,138.29,27Z"/><path class="cls-2" d="M153.42,27.71a.18.18,0,0,0,.1-.35,13.83,13.83,0,0,0-5.11-.56c-.22,0-.22.36,0,.34A18.06,18.06,0,0,1,153.42,27.71Z"/><path class="cls-2" d="M162.05,29a14.14,14.14,0,0,1,4.46,1.3.16.16,0,0,0,.16-.27,12,12,0,0,0-4.58-1.32C161.92,28.68,161.88,29,162.05,29Z"/><path class="cls-2" d="M164.85,34.82a19.74,19.74,0,0,1,5.39,1.67c.21.11.39-.2.18-.3a19.72,19.72,0,0,0-5.48-1.7C164.73,34.45,164.64,34.78,164.85,34.82Z"/><path class="cls-2" d="M164.76,42.36c-.18-.06-.36-.1-.54-.15s-.6-.41-.93-.58c-.18-.09-.34.19-.16.28l.09.06c-.74-.17-1.49-.31-2.22-.51-.16,0-.23.21-.07.25,1.09.32,2.21.53,3.29.85l.26.11a.14.14,0,0,0,.11,0l.08,0C164.88,42.76,165,42.42,164.76,42.36Z"/><path class="cls-2" d="M171.89,39.69a36.54,36.54,0,0,0-4.68-1.31c-.28-.07-.4.36-.12.42a36.13,36.13,0,0,1,4.68,1.32C172,40.22,172.16,39.78,171.89,39.69Z"/><path class="cls-2" d="M181.45,33.7A24.22,24.22,0,0,0,175,32.17c-.31,0-.3.44,0,.47a31.12,31.12,0,0,1,6.31,1.48C181.6,34.2,181.7,33.8,181.45,33.7Z"/><path class="cls-2" d="M184.55,40.18a2.14,2.14,0,0,1,.23.7c0,.16.31.17.33,0,.09-.56-.31-1-.56-1.45-.11-.22-.45,0-.33.19S184.44,40,184.55,40.18Z"/><path class="cls-2" d="M180.32,42.71a26.46,26.46,0,0,1-3.38-.94c-.24-.08-.35.3-.1.38a20.81,20.81,0,0,0,3.37.94C180.46,43.13,180.57,42.75,180.32,42.71Z"/><path class="cls-2" d="M188,36.86c-.3-.07-.43.39-.13.46a19.51,19.51,0,0,1,4.81,2.24.25.25,0,0,0,.25-.44A15.23,15.23,0,0,0,188,36.86Z"/><path class="cls-2" d="M198,42.35c-.22-.14-.41.2-.2.34,1.13.77,2.25,1.56,3.31,2.43.22.17.53-.13.31-.32A39.37,39.37,0,0,0,198,42.35Z"/><path class="cls-2" d="M197.41,46.67c-1-.6-2.1-1.17-3.17-1.71-.25-.13-.47.25-.22.37,1.07.55,2.1,1.18,3.2,1.66C197.43,47.09,197.62,46.8,197.41,46.67Z"/><path class="cls-2" d="M206.08,47.81c-.15-.18-.46.07-.32.25.59.79,1.26,1.53,1.91,2.28.14.17.43-.05.3-.23C207.41,49.29,206.69,48.6,206.08,47.81Z"/><path class="cls-2" d="M212.66,56.67a.19.19,0,0,0-.34.19,4.52,4.52,0,0,0,1,1.14.16.16,0,0,0,.23-.23A5.82,5.82,0,0,1,212.66,56.67Z"/><path class="cls-2" d="M216.29,62.18c-.13,0-.21-.18-.37-.2a.23.23,0,1,0-.06.45s.12.09.16.11a.4.4,0,0,0,.22.06C216.47,62.62,216.53,62.22,216.29,62.18Z"/><path class="cls-2" d="M182.18,46.86a.17.17,0,0,0-.09.32,16.09,16.09,0,0,1,4.63,2.08c.23.14.43-.22.21-.36A16,16,0,0,0,182.18,46.86Z"/><path class="cls-2" d="M144.91,39.87a47.46,47.46,0,0,0-5.31-.76c-.29,0-.28.42,0,.46,1.74.19,3.48.39,5.19.74C145.08,40.37,145.2,39.93,144.91,39.87Z"/><path class="cls-2" d="M157.78,45.57c-1.93.12-3.87.12-5.81.11a.22.22,0,0,0,0,.43,56.47,56.47,0,0,0,5.81-.26C158,45.83,158,45.55,157.78,45.57Z"/><path class="cls-2" d="M171.64,45.18c-.19,0-.19.29,0,.31a2.92,2.92,0,0,1,1.22.39c.22.12.42-.24.19-.34A3.46,3.46,0,0,0,171.64,45.18Z"/><path class="cls-2" d="M108.83,31.09a14.49,14.49,0,0,0,2.86.4c.27,0,.27-.41,0-.42a16.93,16.93,0,0,1-2.76-.34C108.69,30.69,108.59,31,108.83,31.09Z"/><path class="cls-2" d="M104,26a2.07,2.07,0,0,1,.85.16c.19.08.36-.19.17-.29a2.25,2.25,0,0,0-1-.21A.17.17,0,1,0,104,26Z"/><path class="cls-2" d="M90.33,39.88a.21.21,0,1,0,0,.42,3.25,3.25,0,0,1,1.39.35c.24.11.46-.25.21-.37A3.86,3.86,0,0,0,90.33,39.88Z"/><path class="cls-2" d="M88.08,47.23A5.46,5.46,0,0,1,86.63,47c-.24-.08-.35.3-.1.38a4.5,4.5,0,0,0,1.55.16A.17.17,0,0,0,88.08,47.23Z"/><path class="cls-2" d="M113.31,43.25c-.28-.13-.53.28-.25.42a7.29,7.29,0,0,0,1.57.54c.21,0,.37-.26.15-.36C114.3,43.64,113.79,43.48,113.31,43.25Z"/><path class="cls-2" d="M112.44,49.07h-2.81a.2.2,0,0,0,0,.4h2.81A.2.2,0,0,0,112.44,49.07Z"/><path class="cls-2" d="M130.05,48.13a25.23,25.23,0,0,1-3.13-.38c-.27,0-.39.37-.11.42a17.57,17.57,0,0,0,3.24.36A.2.2,0,0,0,130.05,48.13Z"/><path class="cls-2" d="M128.18,40.24l-2.07,0a.25.25,0,0,0,0,.49c.69,0,1.38,0,2.07,0A.22.22,0,0,0,128.18,40.24Z"/><path class="cls-2" d="M146.72,49.42a16.71,16.71,0,0,0-4.12,0c-.28,0-.28.48,0,.45a16.71,16.71,0,0,1,4.12,0C147,49.91,147,49.45,146.72,49.42Z"/><path class="cls-2" d="M170.59,50.15a6.13,6.13,0,0,0-1.76-.19.25.25,0,0,0,0,.5,5.52,5.52,0,0,1,1.62.17C170.76,50.73,170.89,50.25,170.59,50.15Z"/><path class="cls-2" d="M185.94,53.19c-1.38-.44-2.78-.78-4.12-1.33-.27-.11-.38.33-.12.44a28.62,28.62,0,0,0,4.13,1.29A.21.21,0,0,0,185.94,53.19Z"/><path class="cls-2" d="M163.27,50.73a16.37,16.37,0,0,0-2.87-.39.24.24,0,0,0,0,.48,15,15,0,0,1,2.75.36C163.44,51.24,163.57,50.79,163.27,50.73Z"/><path class="cls-2" d="M197.94,53.53c-.75-.2-1.5-.38-2.25-.57a.25.25,0,0,0-.13.49c.75.18,1.5.38,2.25.55A.24.24,0,0,0,197.94,53.53Z"/><path class="cls-2" d="M205.4,53.27c-.18-.27-.62,0-.43.25.38.54.94.94,1.32,1.49.17.25.58,0,.41-.24C206.32,54.22,205.77,53.82,205.4,53.27Z"/><path class="cls-2" d="M209.05,63.74c-.17-.14-.42.11-.25.27s.27.34.44.33a.17.17,0,0,0,.17-.13.71.71,0,0,0-.15-.41A.15.15,0,0,0,209.05,63.74Z"/></g></svg>