<svg xmlns="http://www.w3.org/2000/svg" viewBox="0 0 82.95 83.2"><defs><style>.cls-1{fill:#fff;}.cls-2{fill:#272525;}</style></defs><title>life</title><g id="stroke"><path class="cls-1" d="M72.82,45.34c.89-.05,1.77-.16,2.64-.28a40.76,40.76,0,0,0-.36-6.62c-1.51.5-3,1-4.55,1.44-.56.17-.79-.69-.24-.87,1.56-.49,3.1-1,4.64-1.59a38.56,38.56,0,0,0-1.42-5.84,14.21,14.21,0,0,1-2.31.91c-.72.2-1-.83-.3-1.09s1.5-.63,2.23-1a37.55,37.55,0,0,0-1.58-3.69,15.51,15.51,0,0,1-1.51.91.53.53,0,0,1-.54-.92c.53-.32,1-.67,1.56-1-.52-1-1.1-1.92-1.71-2.84-.42.41-.83.81-1.23,1.23s-1.34-.27-.85-.84.9-1,1.36-1.44c-.07-.11-.14-.23-.22-.34a34,34,0,0,0-4.67-5.13.49.49,0,0,1-.78-.58.14.14,0,0,1,0-.06A34.09,34.09,0,0,0,59.36,13l-.33.77c-.3.68-1.49.18-1.2-.51.13-.32.28-.64.42-1a32.94,32.94,0,0,0-5.09-2.42l-.24,1.47c-.09.61-1.14.46-1.07-.15s.15-1.14.24-1.71a31.27,31.27,0,0,0-5.72-1.34c0,.38-.08.76-.1,1.14a.58.58,0,0,1-1.15,0A11.21,11.21,0,0,1,45.17,8c-.84-.08-1.68-.13-2.53-.14,0,.27,0,.53.06.8a.52.52,0,0,1-1,.26,6,6,0,0,1-.32-1,28,28,0,0,0-4.35.47H37c-.42.08-.85.14-1.27.24-1,.24-1.95.52-2.9.85.13.6-.72,1-1,.44,0,0,0,0,0,0a34.27,34.27,0,0,0-7.19,3.78c.42.78.82,1.57,1.17,2.38.29.65-.59,1.22-1,.57S24,15.1,23.57,14.35a37.55,37.55,0,0,0-5,4.48c.26.29.5.6.78.88.57.55-.33,1.43-.86.86-.25-.28-.47-.59-.71-.88a41.31,41.31,0,0,0-3.66,4.77,18.22,18.22,0,0,1,2.37,1.1c.64.36.08,1.26-.56,1-.82-.36-1.64-.7-2.47-1a38.31,38.31,0,0,0-2.18,4,5.32,5.32,0,0,1,2,1c.55.46-.16,1.3-.75,1a7.33,7.33,0,0,0-1.85-.67,40.94,40.94,0,0,0-1.81,5.23,18.1,18.1,0,0,1,3.33-.56c.64,0,.79,1,.15,1.13-1.31.22-2.58.51-3.84.85-.24,1-.45,2.1-.6,3.16-.07.51-.12,1-.17,1.55.78-.29,1.58-.56,2.39-.78a.59.59,0,0,1,.31,1.14c-.95.27-1.88.58-2.8.92a37.87,37.87,0,0,0,.07,5,17.4,17.4,0,0,1,2.43-.64.57.57,0,0,1,.3,1.09c-.88.28-1.74.57-2.6.88a40.44,40.44,0,0,0,1,5.53c1-.17,1.9-.32,2.85-.4.7-.06.86,1.12.17,1.23l-2.68.41a37.12,37.12,0,0,0,2.48,6.28c.94-.86,1.84-1.78,2.82-2.6.46-.39,1.33.14.9.7A17.28,17.28,0,0,1,12.29,64a29.36,29.36,0,0,0,4.32,6q1.77-1.67,3.61-3.2c.58-.49,1.43.34.84.85-1.21,1-2.41,2.12-3.61,3.19a22.63,22.63,0,0,0,6.76,4.54c1.3-1.84,2.66-3.64,4-5.33.4-.49,1.05.13.82.63a27.38,27.38,0,0,1-3.54,5.21c.55.19,1.11.37,1.69.52a.6.6,0,0,1,.84-.37,17.82,17.82,0,0,0,1.82.63,19.42,19.42,0,0,1,4.31-5.15c.47-.38,1.14.27.67.67A18.55,18.55,0,0,0,31.18,77l.22.05c.33,0,.65,0,1,0a.23.23,0,0,1,.22.16,23.66,23.66,0,0,0,2.67.26c.24-.83.48-1.65.75-2.47s1.36-.41,1.13.31-.46,1.46-.68,2.19A43.21,43.21,0,0,0,43.31,77l1.3-.21c0-1,0-2,0-3a.58.58,0,0,1,1.15,0c0,.91,0,1.85,0,2.81,1.12-.19,2.25-.4,3.37-.63a33.29,33.29,0,0,1-1.38-6c-.09-.68,1-.81,1.17-.16.43,2,.89,4,1.46,5.86a37.46,37.46,0,0,0,4.43-1.29,36.35,36.35,0,0,0,4.22-1.91,33.5,33.5,0,0,1-1.9-4c-.22-.53.62-.84.9-.38.74,1.23,1.38,2.52,2,3.83a31,31,0,0,0,7.42-5.86c-1.09-.69-2.17-1.38-3.24-2.09-.52-.34,0-1.16.49-.83,1.17.69,2.36,1.36,3.55,2A26.6,26.6,0,0,0,71.78,60c.47-.91.87-1.85,1.25-2.81-1.23-.54-2.46-1.09-3.68-1.65-.58-.26-.16-1.27.43-1,1.22.51,2.45,1,3.68,1.51a33.17,33.17,0,0,0,1.24-4.52,41.2,41.2,0,0,1-5.22-1.66c-.64-.26-.37-1.32.3-1.06,1.61.63,3.49.78,5.2,1.26.21-1.31.35-2.63.43-4-.87.08-1.73.15-2.59.2C72.19,46.36,72.2,45.38,72.82,45.34ZM63.17,35.05c1.08-.82,2.16-1.65,3.17-2.56.57-.51,1.42.36.83.83-1.13.91-2.32,1.73-3.52,2.55C63.13,36.21,62.69,35.41,63.17,35.05ZM57.38,21.48a25.23,25.23,0,0,1,3.37-4.64c.54-.58,1.34.26.85.85A43.38,43.38,0,0,0,58.26,22,.51.51,0,0,1,57.38,21.48ZM53.76,28.6a25.13,25.13,0,0,1,5.16-5.53c.62-.44,1.39.57.81,1.05a29.84,29.84,0,0,0-4.87,5.11C54.37,29.88,53.27,29.25,53.76,28.6ZM55.53,36a.6.6,0,0,1-.93-.72,33,33,0,0,0,3.81-7.51.55.55,0,0,1,1.06.29A19.9,19.9,0,0,1,55.53,36Zm1.61,8.5c-.28-.74-.5-1.5-.79-2.24s.78-.91,1-.28.51,1.49.8,2.23S57.39,45.18,57.14,44.54ZM52.43,14.38c.63-.4,1.17.57.57,1-1.37,1-1.47,3-2.11,4.44-.12.28-.54.12-.54-.15C50.3,18,50.94,15.3,52.43,14.38Zm-7.7,5.31a43.89,43.89,0,0,0,3.33,7.52.52.52,0,0,1-.9.53A29,29,0,0,1,43.79,20,.49.49,0,0,1,44.73,19.69ZM44.22,40a19.21,19.21,0,0,0,.8,2.88c.19.56-.7.8-.89.24a22.18,22.18,0,0,1-.79-2.87C43.24,39.63,44.11,39.39,44.22,40Zm-4.6-27.78c.13-.63,1.09-.36,1,.27-.31,1.64-.46,3.31-.79,4.95-.13.65-1.1.37-1-.27C39.12,15.49,39.3,13.82,39.62,12.18ZM38.37,44a18.84,18.84,0,0,1-1.77-3.5c-.22-.59.72-.83.95-.26a16.38,16.38,0,0,0,1.75,3.21C39.68,44.06,38.74,44.61,38.37,44ZM33.51,17.79c.36,1.84.91,3.62,1.44,5.42.17.57-.64.75-.86.24A26,26,0,0,1,32.67,18C32.57,17.48,33.39,17.24,33.51,17.79Zm-5.34,1.45c1.12-2.5,2.4-4.92,3.69-7.33.3-.56,1.15-.06.86.5-1.28,2.42-2.55,4.85-3.65,7.35C28.8,20.38,27.89,19.85,28.17,19.24ZM31.12,32c.08.74-1.13.76-1.17,0-.13-2-.26-4.05-.52-6.07-.06-.52.83-.63.91-.12C30.69,27.81,30.91,29.88,31.12,32ZM24,19.29c1.09,2.39,1.79,4.93,3,7.26.35.66-.68,1.26-1,.58a55.46,55.46,0,0,1-2.76-7.52C23.13,19.17,23.83,18.87,24,19.29Zm-1,19c1.46-1.33,3.17-3.08,5.17-3.52.6-.13,1,.72.43,1a19.09,19.09,0,0,0-2.52,1.35c-.82.58-1.58,1.24-2.33,1.89C23.22,39.47,22.47,38.74,23,38.28ZM20,26.52a20.3,20.3,0,0,0,.31,4.19c.12.58-.76.82-.88.24a21.18,21.18,0,0,1-.32-4.43A.45.45,0,0,1,20,26.52ZM13.38,37.27a76.88,76.88,0,0,1,6.61,4c.61.45.08,1.43-.61,1a73,73,0,0,1-6.48-4.25C12.39,37.76,12.84,37,13.38,37.27Zm1.5,11.95a.54.54,0,0,1-.29-1A35.76,35.76,0,0,1,19.68,47c.74-.11,1.09,1,.32,1.15C18.3,48.54,16.57,48.8,14.88,49.22Zm.62,6c-.6.1-.87-.8-.26-.93a36.83,36.83,0,0,1,7.63-1.19A.54.54,0,0,1,23,54.17C20.62,54.82,18,54.83,15.5,55.23Zm9,3.59c-1.17,1-2.4,2-3.64,2.94-.53.4-1-.5-.52-.9,1.17-.89,2.26-1.86,3.38-2.81C24.3,57.6,25.07,58.36,24.54,58.82Zm1.62-11.14c1.69-2.17,3.67-4.72,6.17-6,.53-.28,1.15.43.67.86-1.12,1-2.34,1.82-3.39,2.88s-1.84,2-2.69,3C26.48,49,25.75,48.22,26.16,47.68ZM31,61.61a17.79,17.79,0,0,0-.65,5.76c0,.86-1.24.83-1.31,0a14.51,14.51,0,0,1,.94-6C30.25,60.69,31.24,61,31,61.61Zm-1-2.22c-.75-1.08-1.57-2.11-2.4-3.13-.43-.52.29-1.28.76-.76.94,1.06,1.86,2.13,2.71,3.26C31.55,59.4,30.45,60.05,30,59.39Zm5.61-8.45a37.64,37.64,0,0,0-3.3,2.73.48.48,0,0,1-.68-.68A28.76,28.76,0,0,1,35,50C35.62,49.53,36.18,50.51,35.61,50.94Zm-.2-18C35.82,31,36.5,29.09,37,27.17a.58.58,0,0,1,1.11.3c-.48,1.93-1,3.84-1.6,5.74A.57.57,0,0,1,35.41,32.91Zm4.42,21.36a55.36,55.36,0,0,1-2.46,7.85c-.29.75-1.51.44-1.23-.34.93-2.59,2-5.12,2.65-7.8C39,53.3,40,53.59,39.83,54.27ZM44.4,64.45c-1.06,2-2.1,4-3.06,6-.28.59-1.14.08-.87-.51.94-2,1.93-4.09,3-6.08C43.81,63.31,44.72,63.84,44.4,64.45ZM45.14,57c-.12.64-1.23.5-1.15-.16.24-2,.5-4.05.85-6.05.12-.72,1.18-.4,1.07.3C45.62,53.05,45.53,55.05,45.14,57ZM48,37.34a18.41,18.41,0,0,1-3.7-4.64c-.3-.63.64-1.19,1-.55a16,16,0,0,0,3.64,4.3C49.45,37,48.53,37.93,48,37.34ZM49.86,44a3,3,0,0,1,1.38-1.78c.77-.57,1.61-1,2.41-1.54s1.42.71.68,1.15c-1.2.7-2.85,1.28-3.6,2.54C50.44,44.82,49.79,44.46,49.86,44ZM55,59.22a20.29,20.29,0,0,1-2,4.12c-.36.59-1.3,0-.93-.55a19.84,19.84,0,0,0,1.85-3.86C54.17,58.26,55.24,58.55,55,59.22Zm.59-4.55a20.78,20.78,0,0,1-5.1-5.06c-.39-.58.54-1.1.93-.54a20.83,20.83,0,0,0,4.8,4.52C56.85,54.06,56.25,55.14,55.59,54.67ZM58,58.29c-.44-1.94-.87-3.88-1.43-5.79-.17-.59.7-.81.91-.25.68,1.87,1.23,3.78,1.76,5.7C59.46,58.75,58.18,59.09,58,58.29Zm2,11c-.74-1.65-1.15-3.43-1.78-5.11-.28-.75.89-1,1.18-.33.66,1.62,1.24,3.28,1.8,4.93C61.41,69.5,60.27,70,60,69.3Zm5.19-12.55a35.38,35.38,0,0,1-3.91-3.34c-.54-.49.25-1.26.8-.8,1.27,1.07,2.62,2.06,3.88,3.15C66.47,56.23,65.76,57.14,65.16,56.75Zm3.34-13q-2.46-.53-4.91-1.1c-.65-.15-.36-1.09.27-1,1.66.27,3.33.51,5,.82C69.67,42.64,69.33,43.92,68.5,43.75Z"/><path class="cls-2" d="M82.4,44c-1.88.21-3.73.56-5.58.86a43.94,43.94,0,0,0-.37-6.48c0-.11,0-.22,0-.34,1.09-.35,2.18-.71,3.28-1,.74-.22.41-1.39-.31-1.15-1.05.36-2.1.74-3.14,1.11a40.7,40.7,0,0,0-1.48-6c1.82-1.05,3.54-2.36,5.18-3.5.52-.36,0-1.22-.5-.86-1.66,1.13-3.34,2.22-5.08,3.18a37.62,37.62,0,0,0-1.65-3.86c1.65-1.26,3.2-2.71,4.94-3.84a.37.37,0,0,0-.38-.63,56.54,56.54,0,0,0-5.08,3.5,34.9,34.9,0,0,0-1.82-3.07,55.31,55.31,0,0,0,5.23-5.49c.41-.52-.32-1.28-.75-.74a56.6,56.6,0,0,1-5.2,5.19c-.31-.43-.63-.85-1-1.26a17.16,17.16,0,0,0,2.56-2.95c.44-.6-.58-1.2-1-.59a18.7,18.7,0,0,1-2.17,2.76,33.86,33.86,0,0,0-3.47-3.62c.77-1.19,1.42-2.48,2.11-3.69a.5.5,0,0,0-.87-.51c-.7,1.12-1.48,2.24-2.15,3.4A32.83,32.83,0,0,0,60,11.61c.71-1.63,1.42-3.25,2.1-4.88.26-.62-.81-1.07-1.08-.46-.7,1.57-1.42,3.12-2.13,4.68-.32-.2-.64-.4-1-.58a32.14,32.14,0,0,0-4.47-2c.27-1.66.53-3.33.67-5a.4.4,0,0,0-.78-.1C53,4.87,52.67,6.46,52.36,8A31.8,31.8,0,0,0,46.52,6.8c.15-1.09.33-2.18.5-3.27.11-.69-.93-1-1.06-.29-.21,1.15-.46,2.29-.64,3.45-.92-.07-1.85-.11-2.78-.11-.07-1.06-.12-2.11-.12-3.2a.56.56,0,0,0-1.11,0c0,1-.12,2.15-.07,3.24A35.45,35.45,0,0,0,37.68,7c.38-1.42.87-2.81,1.29-4.21a.64.64,0,0,0-1.24-.35c-.4,1.59-.89,3.16-1.21,4.76a34.05,34.05,0,0,0-4.2,1.08A36.31,36.31,0,0,1,30.39.37c-.11-.65-1.09-.37-1,.28a34.14,34.14,0,0,0,1.82,8,33,33,0,0,0-4.7,2.13c-.9.49-1.77,1-2.62,1.61-.7-1.27-1.42-2.53-2-3.84-.28-.61-1.15-.08-.89.52.59,1.35,1.23,2.71,1.91,4a37,37,0,0,0-5.28,4.65c-1.22-1.59-2.25-3.32-3.31-5a.44.44,0,0,0-.75.44c1.12,1.81,2.11,3.68,3.33,5.41A41.41,41.41,0,0,0,12.84,24c-2.12-.7-4.33-1.16-6.45-1.74a.43.43,0,0,0-.23.82c2,.65,4.05,1.27,6,2A43,43,0,0,0,10,29.34c-2.45-.23-5.26.51-7.38.8-.61.09-.47,1.15.15,1.08a34.53,34.53,0,0,1,6.69-.55,42.28,42.28,0,0,0-1.89,5.77c-2,.62-4,1.44-5.9,2.18-.63.24-.36,1.26.28,1,1.77-.68,3.51-1.29,5.28-1.81a42.82,42.82,0,0,0-.76,4.89,53.47,53.47,0,0,0-5.22,2.54c-.54.3-.06,1.09.48.82C3.26,45.31,4.8,44.6,6.38,44a39.12,39.12,0,0,0,0,4.72c0,.09,0,.18,0,.27a64.74,64.74,0,0,0-6.09,3c-.61.31-.07,1.22.53.91a53,53,0,0,1,5.69-2.52,34,34,0,0,0,1,5.3A28.39,28.39,0,0,0,3.26,57c-.62.26-.36,1.28.29,1a26.62,26.62,0,0,1,4.3-1.17,36.15,36.15,0,0,0,2.91,6.85c-1,.86-2.06,1.69-3.09,2.54-.46.37.16,1.17.62.81,1-.76,2.05-1.5,3.08-2.28a31.66,31.66,0,0,0,4.56,5.88c-1.39,1.34-2.74,2.73-4,4.15a.37.37,0,0,0,.53.53l4.31-3.87a23.88,23.88,0,0,0,7,4.57c-.85,1.24-1.68,2.49-2.44,3.73-.33.55.5,1,.85.5C23,79,24,77.74,25,76.51a20.77,20.77,0,0,0,2.25.64.79.79,0,0,0,.39.35c.48.19,1,.36,1.45.52l0,.07a.59.59,0,0,0,1,.59l.21-.32a23.23,23.23,0,0,0,4.55.66c-.29,1.07-.56,2.14-.82,3.22a.52.52,0,0,0,1,.27c.31-1.15.65-2.3,1-3.44a47.94,47.94,0,0,0,8.6-.79A23.43,23.43,0,0,0,45,83.06a.19.19,0,0,0,.37,0,24.08,24.08,0,0,0,.42-5l3.07-.59.77-.17a46.13,46.13,0,0,0,2.27,5.18c.32.62,1.24.07.93-.55a35.88,35.88,0,0,1-2-4.9,40,40,0,0,0,9-3.32c.53.89,1.08,1.78,1.66,2.61a.36.36,0,0,0,.63-.36c-.5-.9-1-1.82-1.4-2.75a34.3,34.3,0,0,0,4.67-3.09,28.58,28.58,0,0,0,3.43-3.24q2.2,1.36,4.47,2.63a.64.64,0,0,0,.64-1.1c-1.42-.86-2.86-1.68-4.3-2.49a29.93,29.93,0,0,0,4.73-8.16c1,.4,1.92.8,2.9,1.17.82.3,1.19-1,.36-1.32s-1.89-.7-2.83-1.06a35.22,35.22,0,0,0,1.27-4.66l.42.11A.62.62,0,0,0,77,50.88a6.82,6.82,0,0,0-.66-.34A38.66,38.66,0,0,0,76.77,46c1.94-.22,3.88-.5,5.78-.87C83.17,45,83,43.91,82.4,44Zm-9.58,2.33c.86,0,1.72-.12,2.59-.2-.08,1.32-.22,2.64-.43,4-1.71-.48-3.59-.63-5.2-1.26-.67-.26-.94.8-.3,1.06a41.2,41.2,0,0,0,5.22,1.66,33.17,33.17,0,0,1-1.24,4.52c-1.23-.49-2.46-1-3.68-1.51-.59-.24-1,.77-.43,1,1.22.56,2.45,1.11,3.68,1.65-.38,1-.78,1.9-1.25,2.81a26.6,26.6,0,0,1-3.46,5.14c-1.19-.68-2.38-1.35-3.55-2-.54-.33-1,.49-.49.83,1.07.71,2.15,1.4,3.24,2.09a31,31,0,0,1-7.42,5.86c-.63-1.31-1.27-2.6-2-3.83-.28-.46-1.12-.15-.9.38a33.5,33.5,0,0,0,1.9,4,36.35,36.35,0,0,1-4.22,1.91,37.46,37.46,0,0,1-4.43,1.29c-.57-1.91-1-3.87-1.46-5.86-.14-.65-1.26-.52-1.17.16a33.29,33.29,0,0,0,1.38,6c-1.12.23-2.25.44-3.37.63,0-1,0-1.9,0-2.81a.58.58,0,0,0-1.15,0c0,1,0,2,0,3l-1.3.21a43.21,43.21,0,0,1-6.83.57c.22-.73.45-1.46.68-2.19s-.88-1-1.13-.31-.51,1.64-.75,2.47a23.66,23.66,0,0,1-2.67-.26.23.23,0,0,0-.22-.16c-.34,0-.66,0-1,0L31.18,77a18.55,18.55,0,0,1,3.68-4.81c.47-.4-.2-1.05-.67-.67a19.42,19.42,0,0,0-4.31,5.15A17.82,17.82,0,0,1,28.06,76a.6.6,0,0,0-.84.37c-.58-.15-1.14-.33-1.69-.52a27.38,27.38,0,0,0,3.54-5.21c.23-.5-.42-1.12-.82-.63-1.38,1.69-2.74,3.49-4,5.33a22.63,22.63,0,0,1-6.76-4.54c1.2-1.07,2.4-2.14,3.61-3.19.59-.51-.26-1.34-.84-.85q-1.84,1.53-3.61,3.2a29.36,29.36,0,0,1-4.32-6A17.28,17.28,0,0,0,15.39,61c.43-.56-.44-1.09-.9-.7-1,.82-1.88,1.74-2.82,2.6a37.12,37.12,0,0,1-2.48-6.28l2.68-.41c.69-.11.53-1.29-.17-1.23-.95.08-1.9.23-2.85.4a40.44,40.44,0,0,1-1-5.53c.86-.31,1.72-.6,2.6-.88a.57.57,0,0,0-.3-1.09,17.4,17.4,0,0,0-2.43.64,37.87,37.87,0,0,1-.07-5c.92-.34,1.85-.65,2.8-.92a.59.59,0,0,0-.31-1.14c-.81.22-1.61.49-2.39.78,0-.52.1-1,.17-1.55.15-1.06.36-2.11.6-3.16,1.26-.34,2.53-.63,3.84-.85.64-.11.49-1.17-.15-1.13a18.1,18.1,0,0,0-3.33.56,40.94,40.94,0,0,1,1.81-5.23,7.33,7.33,0,0,1,1.85.67c.59.33,1.3-.51.75-1a5.32,5.32,0,0,0-2-1,38.31,38.31,0,0,1,2.18-4c.83.31,1.65.65,2.47,1,.64.3,1.2-.6.56-1a18.22,18.22,0,0,0-2.37-1.1,41.31,41.31,0,0,1,3.66-4.77c.24.29.46.6.71.88.53.57,1.43-.31.86-.86-.28-.28-.52-.59-.78-.88a37.55,37.55,0,0,1,5-4.48c.4.75.79,1.51,1.21,2.24s1.26.08,1-.57c-.35-.81-.75-1.6-1.17-2.38a34.27,34.27,0,0,1,7.19-3.78s0,0,0,0c.32.61,1.17.16,1-.44,1-.33,1.92-.61,2.9-.85.42-.1.85-.16,1.27-.24h.06a28,28,0,0,1,4.35-.47,6,6,0,0,0,.32,1,.52.52,0,0,0,1-.26c0-.27,0-.53-.06-.8.85,0,1.69.06,2.53.14a11.21,11.21,0,0,0-.05,1.3.58.58,0,0,0,1.15,0c0-.38.06-.76.1-1.14a31.27,31.27,0,0,1,5.72,1.34c-.09.57-.18,1.14-.24,1.71s1,.76,1.07.15l.24-1.47a32.94,32.94,0,0,1,5.09,2.42c-.14.32-.29.64-.42,1-.29.69.9,1.19,1.2.51l.33-.77A34.09,34.09,0,0,1,63,15.68a.14.14,0,0,0,0,.06.49.49,0,0,0,.78.58,34,34,0,0,1,4.67,5.13c.08.11.15.23.22.34-.46.47-.93.93-1.36,1.44s.31,1.41.85.84.81-.82,1.23-1.23c.61.92,1.19,1.86,1.71,2.84-.51.35-1,.7-1.56,1a.53.53,0,0,0,.54.92,15.51,15.51,0,0,0,1.51-.91,37.55,37.55,0,0,1,1.58,3.69c-.73.37-1.47.7-2.23,1s-.42,1.29.3,1.09a14.21,14.21,0,0,0,2.31-.91A38.56,38.56,0,0,1,75,37.42c-1.54.55-3.08,1.1-4.64,1.59-.55.18-.32,1,.24.87,1.52-.45,3-.94,4.55-1.44a40.76,40.76,0,0,1,.36,6.62c-.87.12-1.75.23-2.64.28C72.2,45.38,72.19,46.36,72.82,46.32Z"/><path class="cls-2" d="M47.16,27.74a.52.52,0,0,0,.9-.53,43.89,43.89,0,0,1-3.33-7.52.49.49,0,0,0-.94.26A29,29,0,0,0,47.16,27.74Z"/><path class="cls-2" d="M23.73,39c.75-.65,1.51-1.31,2.33-1.89a19.09,19.09,0,0,1,2.52-1.35c.59-.3.17-1.15-.43-1-2,.44-3.71,2.19-5.17,3.52C22.47,38.74,23.22,39.47,23.73,39Z"/><path class="cls-2" d="M33,42.55c.48-.43-.14-1.14-.67-.86-2.5,1.27-4.48,3.82-6.17,6-.41.54.32,1.31.76.77.85-1.05,1.74-2.06,2.69-3S31.88,43.54,33,42.55Z"/><path class="cls-2" d="M35,50a28.76,28.76,0,0,0-3.41,3,.48.48,0,0,0,.68.68,37.64,37.64,0,0,1,3.3-2.73C36.18,50.51,35.62,49.53,35,50Z"/><path class="cls-2" d="M58.41,27.81a33,33,0,0,1-3.81,7.51.6.6,0,0,0,.93.72,19.9,19.9,0,0,0,3.94-7.94A.55.55,0,0,0,58.41,27.81Z"/><path class="cls-2" d="M29.43,25.88c.26,2,.39,4,.52,6.07,0,.76,1.25.74,1.17,0-.21-2.07-.43-4.14-.78-6.19C30.26,25.25,29.37,25.36,29.43,25.88Z"/><path class="cls-2" d="M32.67,18a26,26,0,0,0,1.42,5.43c.22.51,1,.33.86-.24-.53-1.8-1.08-3.58-1.44-5.42C33.39,17.24,32.57,17.48,32.67,18Z"/><path class="cls-2" d="M20,41.32a76.88,76.88,0,0,0-6.61-4c-.54-.32-1,.49-.48.84a73,73,0,0,0,6.48,4.25C20.07,42.75,20.6,41.77,20,41.32Z"/><path class="cls-2" d="M19.68,47a35.76,35.76,0,0,0-5.09,1.18.54.54,0,0,0,.29,1c1.69-.42,3.42-.68,5.12-1.06C20.77,48,20.42,46.9,19.68,47Z"/><path class="cls-2" d="M23.76,58.05c-1.12,1-2.21,1.92-3.38,2.81-.53.4,0,1.3.52.9,1.24-.94,2.47-1.91,3.64-2.94C25.07,58.36,24.3,57.6,23.76,58.05Z"/><path class="cls-2" d="M45,42.84a19.21,19.21,0,0,1-.8-2.88c-.11-.57-1-.33-.88.25a22.18,22.18,0,0,0,.79,2.87C44.32,43.64,45.21,43.4,45,42.84Z"/><path class="cls-2" d="M20.28,30.71A20.3,20.3,0,0,1,20,26.52a.45.45,0,0,0-.89,0A21.18,21.18,0,0,0,19.4,31C19.52,31.53,20.4,31.29,20.28,30.71Z"/><path class="cls-2" d="M29.07,19.76c1.1-2.5,2.37-4.93,3.65-7.35.29-.56-.56-1.06-.86-.5-1.29,2.41-2.57,4.83-3.69,7.33C27.89,19.85,28.8,20.38,29.07,19.76Z"/><path class="cls-2" d="M39.8,17.4c.33-1.64.48-3.31.79-4.95.12-.63-.84-.9-1-.27-.32,1.64-.5,3.31-.8,4.95C38.7,17.77,39.67,18.05,39.8,17.4Z"/><path class="cls-2" d="M36.51,33.21c.57-1.9,1.12-3.81,1.6-5.74a.58.58,0,0,0-1.11-.3c-.5,1.92-1.18,3.8-1.59,5.74A.57.57,0,0,0,36.51,33.21Z"/><path class="cls-2" d="M45.21,32.15c-.31-.64-1.25-.08-1,.55A18.41,18.41,0,0,0,48,37.34c.57.59,1.49-.33.89-.89A16,16,0,0,1,45.21,32.15Z"/><path class="cls-2" d="M56.35,42.3c.29.74.51,1.5.79,2.24s1.29.36,1-.29-.51-1.5-.8-2.23S56.1,41.66,56.35,42.3Z"/><path class="cls-2" d="M44.84,50.79c-.35,2-.61,4-.85,6.05-.08.66,1,.8,1.15.16.39-2,.48-4,.77-5.91C46,50.39,45,50.07,44.84,50.79Z"/><path class="cls-2" d="M38.79,54c-.7,2.68-1.72,5.21-2.65,7.8-.28.78.94,1.09,1.23.34a55.36,55.36,0,0,0,2.46-7.85C40,53.59,39,53.3,38.79,54Z"/><path class="cls-2" d="M30,61.33a14.51,14.51,0,0,0-.94,6c.07.83,1.34.86,1.31,0A17.79,17.79,0,0,1,31,61.61C31.24,61,30.25,60.69,30,61.33Z"/><path class="cls-2" d="M43.48,63.91c-1.08,2-2.07,4-3,6.08-.27.59.59,1.1.87.51,1-2,2-4,3.06-6C44.72,63.84,43.81,63.31,43.48,63.91Z"/><path class="cls-2" d="M53.94,58.93a19.84,19.84,0,0,1-1.85,3.86c-.37.6.57,1.14.93.55a20.29,20.29,0,0,0,2-4.12C55.24,58.55,54.17,58.26,53.94,58.93Z"/><path class="cls-2" d="M51.42,49.07c-.39-.56-1.32,0-.93.54a20.78,20.78,0,0,0,5.1,5.06c.66.47,1.26-.61.63-1.08A20.83,20.83,0,0,1,51.42,49.07Z"/><path class="cls-2" d="M62.05,52.61c-.55-.46-1.34.31-.8.8a35.38,35.38,0,0,0,3.91,3.34c.6.39,1.31-.52.77-1C64.67,54.67,63.32,53.68,62.05,52.61Z"/><path class="cls-2" d="M36.6,40.53A18.84,18.84,0,0,0,38.37,44c.37.58,1.31,0,.93-.55a16.38,16.38,0,0,1-1.75-3.21C37.32,39.7,36.38,39.94,36.6,40.53Z"/><path class="cls-2" d="M50.73,44.32c.75-1.26,2.4-1.84,3.6-2.54.74-.44.05-1.62-.68-1.15s-1.64,1-2.41,1.54A3,3,0,0,0,49.86,44C49.79,44.46,50.44,44.82,50.73,44.32Z"/><path class="cls-2" d="M63.65,35.87c1.2-.82,2.39-1.64,3.52-2.55.59-.47-.26-1.34-.83-.83-1,.91-2.09,1.74-3.17,2.56C62.69,35.41,63.13,36.21,63.65,35.87Z"/><path class="cls-2" d="M68.85,42.49c-1.66-.31-3.33-.55-5-.82-.63-.11-.92.83-.27,1q2.44.57,4.91,1.1C69.33,43.92,69.67,42.64,68.85,42.49Z"/><path class="cls-2" d="M58.26,22a43.38,43.38,0,0,1,3.34-4.3c.49-.59-.31-1.43-.85-.85a25.23,25.23,0,0,0-3.37,4.64A.51.51,0,0,0,58.26,22Z"/><path class="cls-2" d="M50.89,19.81c.64-1.41.74-3.48,2.11-4.44.6-.42.06-1.39-.57-1-1.49.92-2.13,3.65-2.08,5.28C50.35,19.93,50.77,20.09,50.89,19.81Z"/><path class="cls-2" d="M59.24,58c-.53-1.92-1.08-3.83-1.76-5.7-.21-.56-1.08-.34-.91.25.56,1.91,1,3.85,1.43,5.79C58.18,59.09,59.46,58.75,59.24,58Z"/><path class="cls-2" d="M59.37,63.86c-.29-.72-1.46-.42-1.18.33.63,1.68,1,3.46,1.78,5.11.3.68,1.44.2,1.2-.51C60.61,67.14,60,65.48,59.37,63.86Z"/><path class="cls-2" d="M22.87,53.11a36.83,36.83,0,0,0-7.63,1.19c-.61.13-.34,1,.26.93,2.46-.4,5.12-.41,7.52-1.06A.54.54,0,0,0,22.87,53.11Z"/><path class="cls-2" d="M28.36,55.5c-.47-.52-1.19.24-.76.76.83,1,1.65,2.05,2.4,3.13.45.66,1.55,0,1.07-.63C30.22,57.63,29.3,56.56,28.36,55.5Z"/><path class="cls-2" d="M26,27.13c.33.68,1.36.08,1-.58-1.24-2.33-1.94-4.87-3-7.26-.19-.42-.89-.12-.74.32A55.46,55.46,0,0,0,26,27.13Z"/><path class="cls-2" d="M54.86,29.23a29.84,29.84,0,0,1,4.87-5.11c.58-.48-.19-1.49-.81-1.05a25.13,25.13,0,0,0-5.16,5.53C53.27,29.25,54.37,29.88,54.86,29.23Z"/></g></svg>