<svg xmlns="http://www.w3.org/2000/svg" viewBox="0 0 115.59 83.62"><defs><style>.cls-1{fill:#fff;}.cls-2{fill:#272525;}</style></defs><title>life</title><g id="color"><path class="cls-1" d="M104.78,62a5.66,5.66,0,0,0-8.61-.82,6.09,6.09,0,0,0-1,5.25l.09.29a5.52,5.52,0,0,0,4.2,2.75h.11a6.42,6.42,0,0,0,4.69-2.64C105.23,65.48,105.75,63.57,104.78,62Zm-3.11,6.24a.19.19,0,0,1-.15,0,4.5,4.5,0,0,1-2.09.41h0a2.89,2.89,0,0,1-2.49-1.49,4,4,0,0,1,.4-5,3.3,3.3,0,0,1,.46-.53,3,3,0,0,1,2-.81,4.2,4.2,0,0,1,3.41.88C105.26,63.42,104.06,67.51,101.67,68.28Z"/><path class="cls-1" d="M2.77,40.7c.06-1.52,0-3,.26-4.56.25-1.75.68-3.49.88-5.25A25,25,0,0,0,4,26.74c-.09-2.11-.22-4.49,1-6.3C2.93,19.71,3,25,2.94,26.31,2.73,32,1,37.58,1.29,43.35A27.78,27.78,0,0,1,1,50.86a16.53,16.53,0,0,0-.52,3c0,.48.08,1.62.66,1.86.49-3.23,1-6.48,1.24-9.73C2.57,44.2,2.7,42.45,2.77,40.7Z"/><path class="cls-1" d="M103.45,69.65c1.33-1.18,5.21-3.65,4-5.87a12.81,12.81,0,0,1-1.35-2.53c-.27-.91-.43-1.84-.68-2.76s-.66-2.43-1.84-2.75a4.32,4.32,0,0,0-3.15.68c-1.61.88-3.29,2.4-5.23,2.31-1.62-.07-2.4.63-3.28,1.9-.62.88-1.36,1.73-1.92,2.64-3,4.87-.85,10.56,1.88,15a27.65,27.65,0,0,1,4.73-2c.64-.19,1.28-.35,1.93-.51a.32.32,0,0,1,.08-.09,11.15,11.15,0,0,0,2.77-3.64A10.88,10.88,0,0,1,103.45,69.65Zm-3.77.24a4.92,4.92,0,0,1-2.54-.32,3.69,3.69,0,0,1-1.82-1.4,5.47,5.47,0,0,1-.9-2.93c0-.12,0-.24,0-.36a.2.2,0,0,1,0-.09,6.11,6.11,0,0,1,1.18-3.42,4.43,4.43,0,0,1,2.26-1.78c2.69-1,6.59-.31,7.64,2.72a6.08,6.08,0,0,1-4.21,7.47A5.44,5.44,0,0,1,99.68,69.89Z"/><path class="cls-1" d="M15.11,30.28a17.87,17.87,0,0,1,3.41,5.95A16.94,16.94,0,0,0,21.94,38c-.38-1.14-.83-2.25-1.29-3.36-1.59-3.82-3.72-7.62-4.45-11.74a11.54,11.54,0,0,1,3-10.2C23,8.59,28.23,6.48,33.54,4.86,36.32,4,39.1,3.2,41.78,2.08A25.15,25.15,0,0,1,46.57.49c-.48,0-1,0-1.43.06-9.36.55-19.53,3.26-26.87,9.33-3.8,3.14-7.82,8-6.79,13.27A17.4,17.4,0,0,0,15.11,30.28Z"/><path class="cls-1" d="M21.68,76.38a53,53,0,0,1-7.35-3.76,22,22,0,0,1-5.87-4.9c-5.78-7.57,3.19-15.35,9-19.47-.5,0-1-.08-1.5-.08C10,51.36,0,57.61,3.91,65.63c1.86,3.77,5.25,6.76,8.67,9.09A35.4,35.4,0,0,0,25,80a43.31,43.31,0,0,0,8.18,1.13,36.09,36.09,0,0,1-4-1.55C26.65,78.46,24.15,77.46,21.68,76.38Z"/><path class="cls-1" d="M114.24,67.08c-.79-1.18-2-1.56-3.13-2.31a5.06,5.06,0,0,1-1.86-2.21c-1-2.32-1-5-1-7.51,0-6.16,1-12.5,0-18.62a23.86,23.86,0,0,0-5.49-12.11,36.77,36.77,0,0,0-4.84-4.66,40.67,40.67,0,0,0-6.31-4.43.24.24,0,0,1-.08-.35C85.71,8.78,78,5,69.88,3a84.25,84.25,0,0,0-13-2.08C54.49.73,52.11.55,49.72.49a.22.22,0,0,1-.23.27c-3-.17-5.52,1-8.2,2S35.79,4.67,33,5.53c-5.41,1.69-11.36,4.11-14.68,9-2.41,3.55-2.17,7.53-.82,11.44,1.42,4.11,3.46,8,4.69,12.17a15.2,15.2,0,0,0,5.56.9c.16,0,.16.24,0,.26-7.77.63-13.41-5.1-17.26-11.18C9.76,27,9.08,25.75,8.4,24.56a13.35,13.35,0,0,0-2.62-3.64,3.24,3.24,0,0,0-.59-.4c-1.3,2.25-.76,5.16-.71,7.64.08,3.11-.88,6.05-1.11,9.13-.25,3.25-.24,6.51-.57,9.76-.3,2.88-.7,5.76-1.13,8.63l.06,0c1.5-.61,2.55-2.45,3.64-3.57a15.13,15.13,0,0,1,3.32-2.35,16.15,16.15,0,0,1,3.57-1.55c5.52-1.57,11,.86,15.89,3.24.3.14,0,.59-.26.44-3.18-1.54-6.67-3.16-10.25-3.59a.06.06,0,0,1,0,.08C12.27,52.92,2.43,60.73,9.48,68.17c3.46,3.65,8.21,6,12.77,7.92,2.27,1,4.56,1.9,6.82,2.89a24.27,24.27,0,0,0,6.34,2.12c2.65-.09,5.25-.47,7.88-.74a1,1,0,0,1-.17-.3,32.62,32.62,0,0,1-2-14c.45-4.39,1.93-8.61,2.7-12.94,1.49-8.42.31-17,5.12-24.52a.13.13,0,0,1,.23.13c-4.35,7.51-2.83,16.46-4.32,24.67-.8,4.41-2.48,8.9-2.53,13.39a34.94,34.94,0,0,0,2.51,12.76.78.78,0,0,1,0,.64c.54,0,1.08-.06,1.61-.06a.92.92,0,0,1-.16-.36,43.61,43.61,0,0,1-.84-15.15c.62-5.06,2-9.92,2.37-15,.3-4.6.82-9,3.22-13,2.17-3.67,5.39-7.52,5.66-11.93a0,0,0,0,1,.08,0c0,3.81-1.94,7-3.79,10.17a26,26,0,0,0-2.87,6A39,39,0,0,0,49,48.88c-.28,5.08-1.31,10-1.78,15a47.12,47.12,0,0,0,1,15.39.9.9,0,0,1-.29.93l.29,0a29.9,29.9,0,0,1,3.11.59c-.69-2.37-2.47-4.38-2.8-6.87a21,21,0,0,1,.44-7.2c1.15-5.3,3-10.42,4.17-15.73,1.25-5.83,2-11.89,4.07-17.51,1.6-4.36,6.06-7.82,6.35-12.63,0-.31.5-.32.49,0-.12,4.43-3.7,7.63-5.43,11.46-2.45,5.39-2.9,11.79-4,17.55-1,5.41-2.84,10.57-4,15.94-.54,2.56-1.19,5.92-.28,8.47.75,2.1,2.14,3.88,2.79,6a.86.86,0,0,1-.18.85c.77.16,1.54.31,2.32.45a1,1,0,0,1,0-.1,47.55,47.55,0,0,1-.7-17.19c.68-5.39,2.29-10.63,3.19-16S59.45,37.61,62.28,33c1.6-2.62,3.48-5.05,4.35-8,.74-2.57,1.28-5.12,2.65-7.45a.16.16,0,0,1,.28.16c-1.35,2.84-1.38,6-2.53,8.9a44.56,44.56,0,0,1-3.58,6.35c-2.88,4.83-3.83,10.3-4.7,15.77s-2.43,10.85-2.81,16.39a52.06,52.06,0,0,0,1.12,16,.91.91,0,0,1-.24.89c.77.13,1.54.25,2.32.35-1.88-5.43-1.36-11.23-.23-16.77.63-3.12,1.46-6.2,2.16-9.3.63-2.8,1-5.63,1.6-8.43,1.18-5.59,3.6-10.39,6.25-15.4a26.42,26.42,0,0,0,2.56-9.22c.35-2.62,1.72-5,2.67-7.42.08-.21.41-.13.34.09a41.54,41.54,0,0,0-2.32,8.7,21,21,0,0,1-2,7c-2.61,5.1-5,10.3-6.19,15.94s-2.4,11.38-3.47,17.07-1.74,11.68.27,17.31a.72.72,0,0,1-.05.65c.47,0,1,.12,1.42.16l1.17.11a.8.8,0,0,1,0-.68c2.05-4.89,2.77-10.27,3.41-15.49S68,56.24,68.87,51.07c.5-3.14,1-6.28,1.72-9.38s1.78-6.18,2.67-9.29C74.9,26.69,76,20.66,78.51,15.27a.27.27,0,0,1,.5.2C77.19,21.66,75.93,28,74.1,34.18a122.12,122.12,0,0,0-3.78,18c-.77,5.43-1.29,10.87-2,16.31-.61,4.75-1.27,9.63-3.14,14.08a1.21,1.21,0,0,1-.19.29c1.67.12,3.35.18,5,.2a.89.89,0,0,1,0-.47c.78-5.88,1.23-11.79,1.68-17.7.24-3.09.55-6.18.77-9.28.19-2.64.06-5.3.35-7.94.58-5.3,4.53-8.8,6.22-13.65,1.83-5.27,1.67-10.52,2.14-16a.29.29,0,0,1,.58,0,37.72,37.72,0,0,1-1.23,15,35.23,35.23,0,0,1-3,6.93c-1.35,2.43-2.67,4.9-2.89,7.72s-.08,5.81-.32,8.72-.43,5.67-.64,8.5c-.42,5.91-.89,11.82-1.67,17.7a.94.94,0,0,1-.19.47,78.1,78.1,0,0,0,9.9-.74,22.18,22.18,0,0,0,7.75-2.74q1.11-.63,2.25-1.23A18,18,0,0,1,88,68.88a10.32,10.32,0,0,1,2.1-6.64c1.08-1.43,2.07-3.68,4-4a17.36,17.36,0,0,0,1.77-.05,5.83,5.83,0,0,0,1.39-.52c.89-.49,1.72-1.06,2.61-1.55,1.33-.73,3.28-1.58,4.62-.39s1.44,3.36,1.89,5a18.45,18.45,0,0,0,1.41,2.81,2.59,2.59,0,0,1,0,2.21c-.78,2-3,3.21-4.47,4.65s-2.28,3.69-3.83,5.18c3.38-.74,6.83-1.18,10.17-2.12a10.54,10.54,0,0,0,4.39-2C115.43,70.14,115.21,68.52,114.24,67.08ZM30.16,57.14c.11-4.89,2-9.33,3.71-13.83,0-.07.13-.05.11,0-1.08,4.52-2.64,9.1-2.45,13.8A.69.69,0,0,1,30.16,57.14Zm4.26,5.56a.79.79,0,1,1-1.55.21c-.49-4.18,1.42-7.57,2.55-11.45,1.25-4.3,1.58-8.8,2.68-13.14,0-.16.27-.09.24.07-.76,4.17-.72,8.48-1.78,12.6C35.55,54.9,33.71,58.55,34.42,62.7Zm5.63-11.13c-.54,3.48-1.92,7.09-1.64,10.63.28,3.37,1.42,6.59,2,9.9.19,1-1.37,1.39-1.5.41-.47-3.44-1.54-6.83-1.65-10.31S38.37,55.39,38.92,52C40,45.27,40.37,38.37,43.4,32.21c.11-.22.49-.06.4.16C41.32,38.48,41.05,45.13,40.05,51.57ZM76.5,75.26c-.13,1.23-2.09,1.24-2,0,.51-4.61,1.17-9.21,1.91-13.78S77.76,52,79.3,47.55c1.45-4.2,3.52-8.26,4.29-12.67S84.44,26.3,84.8,22A.12.12,0,1,1,85,22,56.3,56.3,0,0,1,84.7,34.5c-.65,4.43-2.31,8.55-3.61,12.81a98.92,98.92,0,0,0-2.7,13.9C77.66,65.88,77,70.56,76.5,75.26Zm3.76-7.1c1.67-7.33.86-14.95,2.88-22.24,1.9-6.87,5-13.47,5.17-20.71a.23.23,0,0,1,.46,0c.15,7.36-2.8,14-4.37,21-1.64,7.39-.76,15-2.34,22.4C81.81,69.84,80,69.34,80.26,68.16Zm6.25-19.9c-.48,2.82-.6,5.69-.87,8.53A21.94,21.94,0,0,0,85.92,65a.9.9,0,0,1-1.74.48,21.73,21.73,0,0,1-.34-8,78.08,78.08,0,0,1,1.07-8.19c1.32-6.29,4.57-12,5.83-18.32.05-.29.48-.17.43.12C90.24,37,87.51,42.37,86.51,48.26Z"/></g><g id="stroke"><path class="cls-2" d="M105.5,62.31c-1-3-5-3.68-7.64-2.72a4.43,4.43,0,0,0-2.26,1.78,6.11,6.11,0,0,0-1.18,3.42.2.2,0,0,0,0,.09c0,.12,0,.24,0,.36a5.47,5.47,0,0,0,.9,2.93,3.69,3.69,0,0,0,1.82,1.4,4.92,4.92,0,0,0,2.54.32,5.44,5.44,0,0,0,1.61-.11A6.08,6.08,0,0,0,105.5,62.31Zm-5.91,7.2h-.11a5.52,5.52,0,0,1-4.2-2.75l-.09-.29a6.09,6.09,0,0,1,1-5.25,5.66,5.66,0,0,1,8.61.82c1,1.53.45,3.44-.5,4.83A6.42,6.42,0,0,1,99.59,69.51Z"/><path class="cls-2" d="M103.22,61.73a4.2,4.2,0,0,0-3.41-.88,3,3,0,0,0-2,.81,3.3,3.3,0,0,0-.46.53,4,4,0,0,0-.4,5,2.89,2.89,0,0,0,2.49,1.49h0a4.5,4.5,0,0,0,2.09-.41.19.19,0,0,0,.15,0C104.06,67.51,105.26,63.42,103.22,61.73Z"/><path class="cls-2" d="M111.59,64.47a5.45,5.45,0,0,1-2.38-3.53c-.75-2.86-.52-6.11-.45-9,.08-3.25.29-6.5.31-9.75,0-5.79-1-11.28-4.32-16.12a31.77,31.77,0,0,0-5.38-5.85,43.3,43.3,0,0,0-6.87-5.06.08.08,0,0,0,0,0C85.55,7.55,76,3.56,66.11,1.67A104.67,104.67,0,0,0,51,.06,57.56,57.56,0,0,0,37.66,1C29.42,2.57,20.79,6,15,12.29c-3,3.28-4.94,7.46-3.79,11.9S16.72,31.64,18.19,36a21.59,21.59,0,0,1-3.48-3.1c-2.84-3.12-4.62-6.82-6.91-10.3-.65-1-1.75-2.73-3.12-2.78s-1.75,1.46-1.95,2.53c-.27,1.52-.18,3.06-.31,4.59-.27,3.14-.77,6.19-1.24,9.3a38.09,38.09,0,0,0-.34,7.84,25.28,25.28,0,0,1-.32,6.84C.23,52.25-.25,53.8.16,55.14a1.33,1.33,0,0,0,1,1l0,.18c-.05.31.42.44.47.13a2.7,2.7,0,0,1,0-.28,1.78,1.78,0,0,0,.83-.3,19.23,19.23,0,0,0,3.11-3.2,13.1,13.1,0,0,1,2.8-2.09,15.68,15.68,0,0,1,3.72-1.77,12.5,12.5,0,0,1,3.26-.58c-4.09,2.08-8,4.63-10.78,8.38a9.24,9.24,0,0,0-2,5.17A9.68,9.68,0,0,0,3.8,66.47C5.68,70,8.92,72.75,12.13,75a35.07,35.07,0,0,0,11.59,5.17,45,45,0,0,0,8.86,1.39c.93,0,1.85,0,2.77,0,.28,0,.57.07.86.09a.24.24,0,0,0,.22-.14c1.84-.09,3.67-.3,5.5-.52a41.08,41.08,0,0,1,4.13-.35,19.64,19.64,0,0,1,4.94.64l.76.17a1,1,0,0,0,.35.07q4,.89,8.13,1.41a82.41,82.41,0,0,0,19.16.19,24.58,24.58,0,0,0,7.85-1.84c1.62-.73,3.15-1.65,4.72-2.48.07,0,.18,0,.17-.09.66-.35,1.34-.69,2-1,4.54-1.94,9.57-2.34,14.34-3.47,2.38-.57,6.18-1.4,7-4.13.41-1.4-.44-3-1.33-4A9.17,9.17,0,0,0,111.59,64.47ZM15.11,30.28a17.4,17.4,0,0,1-3.63-7.13c-1-5.28,3-10.13,6.79-13.27C25.61,3.81,35.78,1.1,45.14.55c.48,0,1-.05,1.43-.06a25.15,25.15,0,0,0-4.79,1.59C39.1,3.2,36.32,4,33.54,4.86,28.23,6.48,23,8.59,19.16,12.73a11.54,11.54,0,0,0-3,10.2c.73,4.12,2.86,7.92,4.45,11.74.46,1.11.91,2.22,1.29,3.36a16.94,16.94,0,0,1-3.42-1.8A17.87,17.87,0,0,0,15.11,30.28ZM1.18,55.68C.6,55.44.5,54.3.52,53.82a16.53,16.53,0,0,1,.52-3,27.78,27.78,0,0,0,.25-7.51C1,37.58,2.73,32,2.94,26.31,3,25,2.93,19.71,5,20.44c-1.23,1.81-1.1,4.19-1,6.3a25,25,0,0,1-.08,4.15c-.2,1.76-.63,3.5-.88,5.25-.21,1.52-.2,3-.26,4.56-.07,1.75-.2,3.5-.35,5.25C2.13,49.2,1.67,52.45,1.18,55.68ZM25,80a35.4,35.4,0,0,1-12.37-5.24c-3.42-2.33-6.81-5.32-8.67-9.09-4-8,6.11-14.27,12-17.46.5,0,1,0,1.5.08-5.8,4.12-14.77,11.9-9,19.47a22,22,0,0,0,5.87,4.9,53,53,0,0,0,7.35,3.76c2.47,1.08,5,2.08,7.44,3.16a36.09,36.09,0,0,0,4,1.55A43.31,43.31,0,0,1,25,80Zm73.66-4.25a.32.32,0,0,0-.08.09c-.65.16-1.29.32-1.93.51a27.65,27.65,0,0,0-4.73,2C89.14,73.83,87,68.14,90,63.27c.56-.91,1.3-1.76,1.92-2.64.88-1.27,1.66-2,3.28-1.9,1.94.09,3.62-1.43,5.23-2.31a4.32,4.32,0,0,1,3.15-.68c1.18.32,1.56,1.72,1.84,2.75s.41,1.85.68,2.76a12.81,12.81,0,0,0,1.35,2.53c1.22,2.22-2.66,4.69-4,5.87a10.88,10.88,0,0,0-2.07,2.42A11.15,11.15,0,0,1,98.61,75.71Zm15.5-4.3a10.54,10.54,0,0,1-4.39,2c-3.34.94-6.79,1.38-10.17,2.12,1.55-1.49,2.26-3.66,3.83-5.18s3.69-2.64,4.47-4.65a2.59,2.59,0,0,0,0-2.21,18.45,18.45,0,0,1-1.41-2.81c-.45-1.63-.54-3.79-1.89-5s-3.29-.34-4.62.39c-.89.49-1.72,1.06-2.61,1.55a5.83,5.83,0,0,1-1.39.52,17.36,17.36,0,0,1-1.77.05c-2,.32-3,2.57-4,4A10.32,10.32,0,0,0,88,68.88a18,18,0,0,0,3.62,9.52q-1.14.6-2.25,1.23a22.18,22.18,0,0,1-7.75,2.74,78.1,78.1,0,0,1-9.9.74.94.94,0,0,0,.19-.47c.78-5.88,1.25-11.79,1.67-17.7.21-2.83.41-5.67.64-8.5s.09-5.82.32-8.72,1.54-5.29,2.89-7.72a35.23,35.23,0,0,0,3-6.93,37.72,37.72,0,0,0,1.23-15,.29.29,0,0,0-.58,0c-.47,5.46-.31,10.71-2.14,16-1.69,4.85-5.64,8.35-6.22,13.65-.29,2.64-.16,5.3-.35,7.94-.22,3.1-.53,6.19-.77,9.28-.45,5.91-.9,11.82-1.68,17.7a.89.89,0,0,0,0,.47c-1.68,0-3.36-.08-5-.2a1.21,1.21,0,0,0,.19-.29c1.87-4.45,2.53-9.33,3.14-14.08.7-5.44,1.22-10.88,2-16.31a122.12,122.12,0,0,1,3.78-18C75.93,28,77.19,21.66,79,15.47a.27.27,0,0,0-.5-.2C76,20.66,74.9,26.69,73.26,32.4c-.89,3.11-2,6.14-2.67,9.29s-1.22,6.24-1.72,9.38c-.83,5.17-1.51,10.34-2.14,15.54s-1.36,10.6-3.41,15.49a.8.8,0,0,0,0,.68l-1.17-.11c-.47,0-.95-.11-1.42-.16a.72.72,0,0,0,.05-.65c-2-5.63-1.36-11.55-.27-17.31S62.79,53.15,64,47.48s3.58-10.84,6.19-15.94a21,21,0,0,0,2-7,41.54,41.54,0,0,1,2.32-8.7c.07-.22-.26-.3-.34-.09-1,2.43-2.32,4.8-2.67,7.42a26.42,26.42,0,0,1-2.56,9.22c-2.65,5-5.07,9.81-6.25,15.4-.59,2.8-1,5.63-1.6,8.43-.7,3.1-1.53,6.18-2.16,9.3-1.13,5.54-1.65,11.34.23,16.77-.78-.1-1.55-.22-2.32-.35a.91.91,0,0,0,.24-.89,52.06,52.06,0,0,1-1.12-16c.38-5.54,2-10.92,2.81-16.39s1.82-10.94,4.7-15.77A44.56,44.56,0,0,0,67,26.56c1.15-2.89,1.18-6.06,2.53-8.9a.16.16,0,0,0-.28-.16c-1.37,2.33-1.91,4.88-2.65,7.45-.87,3-2.75,5.42-4.35,8-2.83,4.62-3.71,10.15-4.58,15.4s-2.51,10.6-3.19,16a47.55,47.55,0,0,0,.7,17.19,1,1,0,0,0,0,.1c-.78-.14-1.55-.29-2.32-.45a.86.86,0,0,0,.18-.85c-.65-2.16-2-3.94-2.79-6-.91-2.55-.26-5.91.28-8.47,1.12-5.37,3-10.53,4-15.94,1.07-5.76,1.52-12.16,4-17.55,1.73-3.83,5.31-7,5.43-11.46,0-.32-.47-.31-.49,0-.29,4.81-4.75,8.27-6.35,12.63-2.06,5.62-2.82,11.68-4.07,17.51-1.14,5.31-3,10.43-4.17,15.73a21,21,0,0,0-.44,7.2c.33,2.49,2.11,4.5,2.8,6.87a29.9,29.9,0,0,0-3.11-.59l-.29,0a.9.9,0,0,0,.29-.93,47.12,47.12,0,0,1-1-15.39c.47-5,1.5-9.95,1.78-15a39,39,0,0,1,1.17-8.05,26,26,0,0,1,2.87-6c1.85-3.2,3.76-6.36,3.79-10.17a0,0,0,0,0-.08,0c-.27,4.41-3.49,8.26-5.66,11.93-2.4,4-2.92,8.43-3.22,13-.33,5.1-1.75,10-2.37,15a43.61,43.61,0,0,0,.84,15.15.92.92,0,0,0,.16.36c-.53,0-1.07,0-1.61.06a.78.78,0,0,0,0-.64,34.94,34.94,0,0,1-2.51-12.76c0-4.49,1.73-9,2.53-13.39,1.49-8.21,0-17.16,4.32-24.67a.13.13,0,0,0-.23-.13c-4.81,7.53-3.63,16.1-5.12,24.52-.77,4.33-2.25,8.55-2.7,12.94a32.62,32.62,0,0,0,2,14,1,1,0,0,0,.17.3c-2.63.27-5.23.65-7.88.74A24.27,24.27,0,0,1,29.07,79c-2.26-1-4.55-1.91-6.82-2.89-4.56-2-9.31-4.27-12.77-7.92-7-7.44,2.79-15.25,8.14-19.82a.06.06,0,0,0,0-.08c3.58.43,7.07,2,10.25,3.59.3.15.56-.3.26-.44C23.26,49,17.78,46.61,12.26,48.18a16.15,16.15,0,0,0-3.57,1.55,15.13,15.13,0,0,0-3.32,2.35c-1.09,1.12-2.14,3-3.64,3.57l-.06,0c.43-2.87.83-5.75,1.13-8.63.33-3.25.32-6.51.57-9.76.23-3.08,1.19-6,1.11-9.13-.05-2.48-.59-5.39.71-7.64a3.24,3.24,0,0,1,.59.4A13.35,13.35,0,0,1,8.4,24.56c.68,1.19,1.36,2.39,2.1,3.55C14.35,34.19,20,39.92,27.76,39.29c.16,0,.16-.26,0-.26a15.2,15.2,0,0,1-5.56-.9C21,33.94,18.93,30.07,17.51,26c-1.35-3.91-1.59-7.89.82-11.44,3.32-4.88,9.27-7.3,14.68-9,2.78-.86,5.59-1.63,8.28-2.73s5.25-2.21,8.2-2a.22.22,0,0,0,.23-.27c2.39.06,4.77.24,7.14.44A84.25,84.25,0,0,1,69.88,3C78,5,85.71,8.78,91.55,14.88a.24.24,0,0,0,.08.35,40.67,40.67,0,0,1,6.31,4.43,36.77,36.77,0,0,1,4.84,4.66,23.86,23.86,0,0,1,5.49,12.11c.91,6.12-.08,12.46,0,18.62,0,2.49,0,5.19,1,7.51a5.06,5.06,0,0,0,1.86,2.21c1.14.75,2.34,1.13,3.13,2.31C115.21,68.52,115.43,70.14,114.11,71.41Z"/><path class="cls-2" d="M43.4,32.21C40.37,38.37,40,45.27,38.92,52c-.55,3.44-1.74,6.73-1.62,10.25S38.48,69.07,39,72.51c.13,1,1.69.58,1.5-.41-.62-3.31-1.76-6.53-2-9.9-.28-3.54,1.1-7.15,1.64-10.63,1-6.44,1.27-13.09,3.75-19.2C43.89,32.15,43.51,32,43.4,32.21Z"/><path class="cls-2" d="M38.1,38.32c-1.1,4.34-1.43,8.84-2.68,13.14-1.13,3.88-3,7.27-2.55,11.45a.79.79,0,1,0,1.55-.21c-.71-4.15,1.13-7.8,2.14-11.71,1.06-4.12,1-8.43,1.78-12.6C38.37,38.23,38.14,38.16,38.1,38.32Z"/><path class="cls-2" d="M33.87,43.31c-1.7,4.5-3.6,8.94-3.71,13.83a.69.69,0,0,0,1.37,0c-.19-4.7,1.37-9.28,2.45-13.8C34,43.26,33.9,43.24,33.87,43.31Z"/><path class="cls-2" d="M84.7,34.5A56.3,56.3,0,0,0,85,22a.12.12,0,1,0-.24,0c-.36,4.31-.47,8.62-1.21,12.89s-2.84,8.47-4.29,12.67c-1.54,4.46-2.08,9.29-2.84,13.93s-1.4,9.17-1.91,13.78c-.14,1.24,1.82,1.23,2,0,.51-4.7,1.16-9.38,1.89-14.05a98.92,98.92,0,0,1,2.7-13.9C82.39,43.05,84.05,38.93,84.7,34.5Z"/><path class="cls-2" d="M88.77,25.21a.23.23,0,0,0-.46,0c-.12,7.24-3.27,13.84-5.17,20.71-2,7.29-1.21,14.91-2.88,22.24-.27,1.18,1.55,1.68,1.8.5,1.58-7.38.7-15,2.34-22.4C86,39.2,88.92,32.57,88.77,25.21Z"/><path class="cls-2" d="M90.74,30.92c-1.26,6.32-4.51,12-5.83,18.32a78.08,78.08,0,0,0-1.07,8.19,21.73,21.73,0,0,0,.34,8A.9.9,0,0,0,85.92,65a21.94,21.94,0,0,1-.28-8.16c.27-2.84.39-5.71.87-8.53,1-5.89,3.73-11.31,4.66-17.22C91.22,30.75,90.79,30.63,90.74,30.92Z"/></g></svg>