<svg xmlns="http://www.w3.org/2000/svg" viewBox="0 0 182.64 93.7"><defs><style>.cls-1{fill:#fff;}.cls-2{fill:#272525;}</style></defs><title>life</title><g id="color"><path class="cls-1" d="M108.08,17.8l-2.82-.74c1.76,3.08,2.15,6.78,2.51,10.25a118.89,118.89,0,0,1,1,14,89.9,89.9,0,0,1-1.56,14.27,85.27,85.27,0,0,1-3.13,12.72l2.66-1c.85-8.62,3.39-17,3.81-25.65A74,74,0,0,0,108.08,17.8Z"/><path class="cls-1" d="M112,54.81c.45-4,.69-8.09.79-12.15.2-8.08-.15-16.26-2.11-24.13l-.26-.07a.29.29,0,0,1-.29-.08l-1.74-.48c2.59,7.52,3.15,15.84,2.74,23.73-.45,8.6-2.91,16.88-3.78,25.42.83-.33,1.66-.66,2.49-1A18.68,18.68,0,0,0,111,61.61Q111.65,58.24,112,54.81Z"/><path class="cls-1" d="M122.77,41.52c.66-6.72.68-13.67-2-20l-2.25-.71c1.74,2.07,2.12,5.24,2.42,7.83a71,71,0,0,1,.46,10.91,69.7,69.7,0,0,1-1.55,11.33,47,47,0,0,0-1.37,11.2l1.21-.63a45.19,45.19,0,0,0,2-10.25C122,48,122.45,44.76,122.77,41.52Z"/><path class="cls-1" d="M105.08,24.93a39.57,39.57,0,0,0-1-4.71,10,10,0,0,0-1.76-3.91l-2.55-.62-.25,0C103.6,24.79,104.21,35,103,44.87c-.56,4.68-1.64,9.26-2.4,13.91-.65,3.93-1.21,8.1-3,11.7q1.45-.45,2.91-.93a.23.23,0,0,1,0-.18c3.74-9.31,5.09-19.55,5.31-29.53A79,79,0,0,0,105.08,24.93Z"/><path class="cls-1" d="M102.46,44.87c1.17-9.86.73-20.12-3.32-29.31-7.07-1.63-14.21-3-21.4-3.91-2.08-.27-4.15-.51-6.23-.72-.07.32-.52.23-.57-.06-1.4-.13-2.8-.26-4.2-.37-3.43-.27-6.86-.36-10.29-.61a12.38,12.38,0,0,1,4.7,3.88c4.61,6.27,5,14.54,4.93,22a113.57,113.57,0,0,1-.5,13.3A62.72,62.72,0,0,1,62.73,62c-2.41,7-6.13,14.6-14.21,15.24,0,0,0,0,0,0,5.23,2.12,11.21,1.11,16.65.28,5.93-.9,11.85-1.86,17.71-3.14.07-.19.3-.32.47-.13l0,0L85,73.88c4-.93,7.9-2,11.79-3.16,2-3.67,2.58-8,3.25-12.09C100.82,54,101.91,49.5,102.46,44.87ZM94.17,33.8c.1.28-.31.42-.47.19s-2.74-.23-3.29-.24c-1.75,0-3.51,0-5.27,0-4.81.07-9.61.2-14.4.66-.17,0-.22-.28,0-.31a123.54,123.54,0,0,1,15.39-.89c1.89,0,3.79-.07,5.68,0C92.3,33.26,93.92,33.12,94.17,33.8Zm-1-5c-3-1.07-6.64-.38-9.77-.18-1.88.12-3.76.15-5.64.28a28,28,0,0,1-6.78,0,.1.1,0,0,1,0-.2,53.69,53.69,0,0,0,7.61-.29c1.79-.15,3.58-.17,5.37-.31s3.8-.33,5.71-.32a7.44,7.44,0,0,1,3.65.57C93.63,28.48,93.48,28.88,93.22,28.78ZM68.57,21a113.57,113.57,0,0,0,20.2-.11c.3,0,.29.42,0,.45a87.48,87.48,0,0,1-20.2-.11C68.42,21.16,68.42,20.93,68.57,21ZM70,24c3.87.13,7.8.23,11.67,0,3.18-.18,6.57-.79,9.72-.05.29.07.16.49-.12.44-3.48-.54-6.89,0-10.38.06A92,92,0,0,1,70,24.23C69.89,24.21,69.88,24,70,24Zm16.8,38c-2.69.4-5.45.52-8.15.73s-5.39.37-8.09.43c-.11,0-.1-.16,0-.17,2.7-.19,5.39-.42,8.09-.67s5.4-.67,8.09-.75C87,61.57,87.07,62,86.82,62Zm2.52-3.68A167.81,167.81,0,0,0,70.58,59c-.19,0-.18-.26,0-.28a114.22,114.22,0,0,1,18.76-.9C89.64,57.87,89.64,58.34,89.34,58.33ZM71.55,49a138.71,138.71,0,0,1,20-1,.25.25,0,0,1,0,.49,168.37,168.37,0,0,0-20,.88C71.34,49.34,71.34,49,71.55,49Zm20.12,4C85,52.46,78.53,53.44,72,54.31c-.19,0-.23-.29,0-.32,6.49-.93,13.2-2.28,19.77-1.44C92,52.58,92,53,91.67,53Zm1-9.49c-7.2,0-14.38.31-21.58.3a.07.07,0,0,1,0-.13c7.2,0,14.38-.78,21.58-.67A.25.25,0,0,1,92.72,43.53Zm2-5.66a42.38,42.38,0,0,0-11.85-.15c-3.64.43-7.28,1.05-10.95,1.13-.09,0-.11-.14,0-.15l.72-.15c.09,0,.12.11,0,.13-.93.22.31-.07.54-.1l1.3-.13c1.15-.14,2.31-.29,3.45-.45,1.79-.26,3.58-.54,5.37-.76,3.75-.46,7.82-.82,11.52.18C95.09,37.5,95,37.92,94.67,37.87Z"/><path class="cls-1" d="M120.82,40.52a76.94,76.94,0,0,0-.29-10.84c-.28-3-.67-6.09-2.23-8.72a.11.11,0,0,1,.07-.16l-1.87-.57a84.73,84.73,0,0,1,2.81,21.19,60.92,60.92,0,0,1-.92,11.12c-.67,3.53-1.58,7-2,10.58l1.6-.79C117.55,55,120.46,47.83,120.82,40.52Z"/><path class="cls-1" d="M118.73,41.88a109.65,109.65,0,0,0-2.53-21.74L114,19.49c1.32,2.29,1.52,5.31,1.77,7.86a100.17,100.17,0,0,1,.57,12.6A73.21,73.21,0,0,1,115,52.74c-.81,4.06-1.77,8.08-2.43,12.17,1.1-.49,2.2-1,3.28-1.51.33-3.41,1.18-6.74,1.84-10.11A60.65,60.65,0,0,0,118.73,41.88Z"/><path class="cls-1" d="M115.81,40a112.23,112.23,0,0,0-.46-12c-.24-2.78-.35-6-1.64-8.54L111,18.61c2.27,8,2.63,16.26,2.41,24.48a127.21,127.21,0,0,1-1,13.09c-.28,2.18-.63,4.35-1.09,6.5a23.45,23.45,0,0,1-.73,3.06l1.31-.57c.64-4.23,1.66-8.39,2.48-12.58A73.44,73.44,0,0,0,115.81,40Z"/><path class="cls-1" d="M108.31,41.29a119.85,119.85,0,0,0-.9-13.25c-.36-3.73-.66-7.67-2.42-11l-2.46-.62A6.82,6.82,0,0,1,104.06,19a30.84,30.84,0,0,1,1.43,5.33,73.68,73.68,0,0,1,.91,14.61c-.16,10.23-1.41,20.86-5.28,30.41l2.36-.82a82.68,82.68,0,0,0,3.26-13.09A90.66,90.66,0,0,0,108.31,41.29Z"/><path class="cls-1" d="M83.06,74.8c-6.55,1.43-13.15,2.48-19.78,3.44-4.78.7-10.53,1.48-15-.78a.22.22,0,0,1-.17-.09l-.27-.14h0l-.1,0c-1.92.89-2,3.93-1.68,5.75.47,2.83,2.66,4.88,5,6.36a22.81,22.81,0,0,0,19.16,2.82c5.83-1.77,19.07-10.1,13-17.35ZM53.19,85.87c0,.29-.48.31-.48,0,0-1.53.14-3.06.18-4.59a.18.18,0,0,1,.36,0A30.58,30.58,0,0,1,53.19,85.87ZM56.26,88c-.53-2.17-.12-4.6-.08-6.81a.15.15,0,0,1,.3,0c0,2.27,0,4.49.17,6.76C56.67,88.15,56.31,88.19,56.26,88ZM61,88.1a41.17,41.17,0,0,1-.56-6c0-.21.3-.2.33,0,.24,2,.25,3.92.66,5.86C61.43,88.26,61,88.38,61,88.1Zm4.46-.6c-.52-1.9-.5-3.9-.92-5.81a.18.18,0,0,1,.35-.1c.46,1.91.59,3.87,1,5.79C65.91,87.66,65.48,87.79,65.41,87.5Zm3.25-1.21c-.38-1.63-.5-3.31-.83-5,0-.28.37-.4.43-.12.34,1.64.57,3.3.86,5C69.17,86.46,68.73,86.6,68.66,86.29Zm3.77-.91a15.06,15.06,0,0,1-1.09-4.28c0-.28.37-.4.41-.12a22.6,22.6,0,0,0,1.11,4.22A.24.24,0,0,1,72.43,85.38Zm3.76-1.74A10.74,10.74,0,0,1,74.57,80a.24.24,0,0,1,.47-.13,13.12,13.12,0,0,0,1.56,3.43C76.76,83.57,76.37,83.87,76.19,83.64Zm3-1.69c-.22-.52-.31-1.09-.49-1.63s-.38-1-.6-1.57c-.13-.3.32-.57.45-.26a10.37,10.37,0,0,1,1.1,3.39C79.65,82.17,79.26,82.17,79.17,82Z"/><path class="cls-1" d="M72.48,10.55c5.07.52,10.12,1.24,15.12,2.13.18-2.91.1-6.17-2.69-7.84a10.05,10.05,0,0,0-5.68-1.29c-3.1.16-6.47,1.59-7.4,4.42a15.36,15.36,0,0,1-.21,2.3l0,.2Z"/><path class="cls-1" d="M99.83,9.5A6.13,6.13,0,0,0,95,7.14c-3.46,0-6.7,2-6.79,5.65q6.36,1.16,12.65,2.66C101.14,13.44,101.11,11.17,99.83,9.5Z"/><path class="cls-1" d="M107,12.1c-2.78-.63-4.8.86-5.45,3.51q4.3,1,8.56,2.22A4.14,4.14,0,0,0,107,12.1Z"/><path class="cls-1" d="M53.52,8.92a12.51,12.51,0,0,1,2.58.82A107.63,107.63,0,0,1,71,10.4c.39-2.37.52-4.69-1.27-6.59a10.18,10.18,0,0,0-13.1-1.56c-2,1.45-4,4-3.11,6.61Z"/><path class="cls-1" d="M59.54,39.59A63.35,63.35,0,0,1,57.3,62.27c-1.57,5.23-4,10.62-8.17,14.31C58,75.4,61.5,65.35,63.46,57.58A65.51,65.51,0,0,0,65.4,45a126.21,126.21,0,0,0,0-15.8c-.44-6-1.75-13.17-6.68-17.26-4.59-3.8-10.46-2.77-16-2.5C54.71,12.8,58.75,28.65,59.54,39.59Z"/><path class="cls-1" d="M47.75,76.69c.19,0,.36,0,.54,0,4.27-3.52,6.83-8.91,8.41-14.1A62.59,62.59,0,0,0,59.17,41.7c-.33-7.38-1.71-15.07-5.26-21.63C51,14.63,46.2,9.89,39.75,9.35,35.87,9,32,10.11,28.42,11.41a59.43,59.43,0,0,0-14,7.21C6.48,24.21-1.73,33.36,1,43.88a32.36,32.36,0,0,0,1.22,3.68l.22-.11s0,0,0,0,1.37.18,1.52.19l1.41.1c1.1.07,2.2.14,3.3.18,2.21.09,4.41.14,6.62.16,4.25,0,8.5,0,12.74,0a.3.3,0,0,1,0,.6c-4.4,0-8.81.06-13.21,0-2.21,0-4.41-.09-6.62-.22a35.18,35.18,0,0,1-5.88-.58A30.83,30.83,0,0,0,8.8,57.7a42.77,42.77,0,0,0,12,8.33c8.7,4.23,18.14,6.6,26.89,10.67Zm-19-47.54a4.16,4.16,0,0,1-1.76,1.13,3.72,3.72,0,0,1-2.06.55,3.54,3.54,0,0,1-3.55-2.92,2.91,2.91,0,0,1,.66-2.5s0,0,0,0C24.06,21.19,31.3,26.17,28.7,29.15Z"/><path class="cls-1" d="M26.71,25.45a4.64,4.64,0,0,0-2.37-.62.07.07,0,0,1-.09.07l-.28,0a3,3,0,0,0-.52.13l-.13.05a2.58,2.58,0,0,0-1.29,3,3.52,3.52,0,0,0,.62,1.09,4.06,4.06,0,0,0,2.79.9,3.52,3.52,0,0,0,2.34-1.35,2.21,2.21,0,0,0,.33-1.1A2.62,2.62,0,0,0,26.71,25.45Zm-1.72,2a.18.18,0,0,1-.08.09h0a.17.17,0,0,1-.2,0,.29.29,0,0,1-.16-.21.46.46,0,0,1,0-.28.14.14,0,0,1,.21-.07.18.18,0,0,1,.25.07.44.44,0,0,1,.06.16A.23.23,0,0,1,25,27.44Z"/><path class="cls-1" d="M176.3,38.29a.28.28,0,0,1,.1-.51c-.11-1.86-.23-3.72-.24-5.59s0-3.5,0-5.24h0a28.16,28.16,0,0,0-.44-4.66,39.18,39.18,0,0,0-3.49,3.45c0,1.82.06,3.65.11,5.48.08,3.08.27,6.17.39,9.26,1.23.79,2.57,1.4,3.83,2.16,0-1.43-.06-2.85-.14-4.27Z"/><path class="cls-1" d="M156.28,34.94a.23.23,0,0,1-.11,0c-1.76-.74-3.52-1.48-5.28-2.2A17.57,17.57,0,0,1,152,39.62a12.64,12.64,0,0,0,4.43-4.41l-.11-.16A.19.19,0,0,1,156.28,34.94Z"/><path class="cls-1" d="M179.25,28.12a21.55,21.55,0,0,0-.8-3.49c-.59.7-1.19,1.41-1.81,2.08.05,1.83,0,3.66,0,5.48s.18,3.89.3,5.84a9.86,9.86,0,0,0,2,1c.13-.78.23-1.58.32-2.38a.25.25,0,0,1,0-.34,33,33,0,0,0-.05-8.07A.08.08,0,0,1,179.25,28.12Z"/><path class="cls-1" d="M147.87,31.47l-2.48-1a27.5,27.5,0,0,1,1,13.17c.74-.56,1.48-1.12,2.23-1.67v0a14.41,14.41,0,0,0,0-5.85A37.71,37.71,0,0,1,147.87,31.47Z"/><path class="cls-1" d="M124.68,29.87c-.12-2.39.06-5.06-.89-7.31,0,0,0,0,0,0l-2.73-.9c3,6.11,2.94,13.24,2.27,19.87-.36,3.51-.83,7-1.23,10.52a45.1,45.1,0,0,1-1.74,9.08q1.5-.81,3-1.65a122,122,0,0,0,1.81-20.19C125.14,36.12,124.82,33,124.68,29.87Z"/><path class="cls-1" d="M181.37,26.63a10.32,10.32,0,0,0-1.65,1.29,32.27,32.27,0,0,1,.12,8.39c.56.27,1.6.79,1.78.11a10.25,10.25,0,0,0,.29-1.31,17.45,17.45,0,0,0,.17-3.23A28.1,28.1,0,0,0,181.37,26.63Z"/><path class="cls-1" d="M145,30.33l-2.39-.94c2.41,4.86,1.28,10.88,1.24,16.13l1.87-1.42a.32.32,0,0,1,0-.17A31.87,31.87,0,0,0,145,30.33Z"/><path class="cls-1" d="M148.25,31.62c.28,2,.83,3.92,1.11,5.91a9.23,9.23,0,0,1-.07,3.95l1.31-.92.84-.56a25.38,25.38,0,0,0-.94-7.46Z"/><path class="cls-1" d="M172.19,40.79a.29.29,0,0,1,0-.48c-.11-3.82-.34-7.64-.38-11.45,0-.95,0-1.92.05-2.89a.12.12,0,0,1,0-.16h0a34.13,34.13,0,0,0-.07-4.64A5,5,0,0,0,171.2,19c-.12-.19-1.4,1.14-1.5,1.25-.75.83-1.46,1.68-2.23,2.47A84.06,84.06,0,0,1,168.09,35c0,2.87.23,5.79.28,8.69a6.77,6.77,0,0,0,3.85,2.91c.05-1.94,0-3.89,0-5.84Z"/><path class="cls-1" d="M167.83,43.65c-.05-2.88-.27-5.77-.26-8.62,0-5.15,0-10.35-1.17-15.39-4.45,3.86-9,8.93-9.23,15.11a.18.18,0,0,1-.1.17l-.06.16c.85,1.21,1.84,2.32,2.72,3.51s1.65,2.6,2.44,3.92a35.5,35.5,0,0,0,5.32,7.32,36.67,36.67,0,0,0,.34-5.93A.25.25,0,0,1,167.83,43.65Z"/><path class="cls-1" d="M137,27.22l-2.89-1.07c3.79,8,1.33,17.44.87,25.87q1.29-.9,2.58-1.83a.26.26,0,0,1-.11-.3A44.45,44.45,0,0,0,137,27.22Z"/><path class="cls-1" d="M128.38,49.08a52.45,52.45,0,0,0,.78-9.11c0-2.9-.26-5.79-.4-8.69a28.49,28.49,0,0,0-.91-7.36l-2-.68a17.87,17.87,0,0,1,1.44,6.34c.27,3.11.37,6.24.4,9.36a77.86,77.86,0,0,1-1.7,19l1.75-1.08A33,33,0,0,1,128.38,49.08Z"/><path class="cls-1" d="M133.77,26l-1.72-.63c3.57,8.79,1.89,18.94.79,28.08.51-.34,1-.69,1.54-1,0,0,0,0,0,0C134.72,43.67,137.2,34.42,133.77,26Z"/><path class="cls-1" d="M131.29,32.18c-.3-2.58-1.37-5-1.62-7.62L128.09,24a20.88,20.88,0,0,1,1.09,6.52c.17,3,.44,6,.47,9a51.41,51.41,0,0,1-.65,8.85,41.72,41.72,0,0,0-.82,8.18L130,55.35c1.54-4.52,1.42-9.77,1.53-14.49A62.91,62.91,0,0,0,131.29,32.18Z"/><path class="cls-1" d="M131.81,25.44a.09.09,0,0,1,0-.11L130,24.67c.55,2.53,1.51,4.93,1.81,7.51a63.43,63.43,0,0,1,.31,9.14c-.12,4.42,0,9.24-1.32,13.53l1.55-1C133.31,44.53,135.07,34.47,131.81,25.44Z"/><path class="cls-1" d="M127.13,38.94c0-2.88-.09-5.77-.27-8.66a21.75,21.75,0,0,0-1.32-7.15l-1.49-.5c1,1.93,1,4.47,1.06,6.59.18,3.21.55,6.38.56,9.61a117.21,117.21,0,0,1-1.77,20.31l1.23-.71.19-.12A77.29,77.29,0,0,0,127.13,38.94Z"/><path class="cls-1" d="M139.36,28.11l-2.05-.77a37.63,37.63,0,0,1,1.84,11.19,40.63,40.63,0,0,1-1.1,11.31c.69-.5,1.38-1,2.06-1.51C142.38,42,141.51,34.44,139.36,28.11Z"/><path class="cls-1" d="M141.79,29.05l-2.07-.8c2.23,6.1,3.17,13.23,1.18,19.5l2.19-1.63.21-.16c-.06-5.61,1.06-11.35-1-16.71Z"/></g><g id="stroke"><path class="cls-2" d="M181.41,26.12a10.43,10.43,0,0,0-1.74,1.5,18.51,18.51,0,0,0-.94-3.47c0-.13-.24-.23-.35-.09-.58.75-1.16,1.51-1.75,2.25a22.88,22.88,0,0,0-.55-4.5.21.21,0,0,0-.35-.09,37.46,37.46,0,0,0-3.49,3.64c0-.56,0-1.12,0-1.69.05-1.73.15-3.62-.86-5.13a.22.22,0,0,0-.29-.07,25.31,25.31,0,0,0-3.69,3.91c-.17-1.08-.38-2.16-.65-3.23a.23.23,0,0,0-.39-.1c-4.55,3.91-9.28,9.08-9.61,15.39l-.3-.13a.14.14,0,0,0-.17,0q-8.34-3.54-16.82-6.79h0a.15.15,0,0,0-.22-.07q-4.68-1.78-9.4-3.44a.12.12,0,0,0-.11,0c-1.42-.5-2.84-1-4.26-1.46a.08.08,0,0,0-.09,0q-2.32-.78-4.66-1.52l-.06-.14a.1.1,0,0,0-.18.06c-1.37-.44-2.75-.86-4.13-1.28v-.05a.12.12,0,0,0-.22,0q-2.69-.81-5.39-1.56a4.94,4.94,0,0,0-9.14-3.72,7.63,7.63,0,0,0-1.31-5.13A6.73,6.73,0,0,0,95,6.61c-2.81-.1-5.87,1.46-6.79,4.06,0-2.35-.62-4.58-2.71-6.09A10.21,10.21,0,0,0,79,3.05c-2.86.17-6,1.54-7.23,4a6.37,6.37,0,0,0-1.38-3.35A10.36,10.36,0,0,0,63.29.05a10.18,10.18,0,0,0-7.44,2.17C54,3.75,52.32,6.4,53.16,8.85l-.2,0c-3.5-.57-7.15,0-10.64.38a.12.12,0,0,0-.1.09,18.84,18.84,0,0,0-1.93-.37c-3.62-.47-7.23.45-10.65,1.57A59.82,59.82,0,0,0,16,17C8.3,21.91.26,29.59,0,39.41c-.13,4.92,2.08,9.94,4.71,14a34.09,34.09,0,0,0,10,9.78c8.23,5.42,18,8,27.09,11.46,1.77.68,3.53,1.38,5.26,2.15l.34.22c-1.32.56-1.8,2.13-2,3.53A8.2,8.2,0,0,0,47,86.48a17.38,17.38,0,0,0,6.36,4.82,21.53,21.53,0,0,0,9.2,2.39,24.36,24.36,0,0,0,14-4c3.44-2.16,7.22-5.22,8.41-9.26a6.33,6.33,0,0,0-1.25-5.77q6.54-1.44,13-3.38a.28.28,0,0,0,.49,0,1.14,1.14,0,0,0,.1-.19c2.11-.64,4.21-1.33,6.28-2.07a.27.27,0,0,0,.39-.14c1-.36,2-.73,3-1.11a.33.33,0,0,0,.4-.16q1.27-.49,2.55-1a.26.26,0,0,0,.41-.06l.06-.13c1.86-.78,3.71-1.6,5.53-2.47a.3.3,0,0,0,.48-.2v0q3.24-1.56,6.38-3.31l.78-.45a.22.22,0,0,0,.3-.17h0c.57-.33,1.15-.66,1.72-1a.24.24,0,0,0,.31-.18c.72-.44,1.44-.87,2.16-1.32a.2.2,0,0,0,.2-.13c4.1-2.57,8.07-5.35,12-8.22a.3.3,0,0,0,.41-.16l.06-.18L143,46.82l.71-.54a.28.28,0,0,0,.13-.09c2.5-1.89,5-3.8,7.57-5.56l.11-.08a.28.28,0,0,0,.49-.17v-.16c1.8-1.22,3.73-2.63,4.74-4.57.73,1,1.54,2,2.32,2.94a41.49,41.49,0,0,1,2.86,4.52,34.31,34.31,0,0,0,5.56,7.44.26.26,0,0,0,.43-.12,31.46,31.46,0,0,0,.46-5.74,6.76,6.76,0,0,0,4,2.57.29.29,0,0,0,.36-.27c.07-2,0-3.89,0-5.84,1.29.78,2.67,1.39,3.94,2.21a.29.29,0,0,0,.42-.24c0-1.48,0-3-.12-4.44a8.18,8.18,0,0,0,2.1.92.27.27,0,0,0,.34-.19c.13-.83.25-1.69.35-2.56a6.07,6.07,0,0,0,1.88.49.25.25,0,0,0,.25-.19c1.18-3.37.78-7.53-.21-10.91A.2.2,0,0,0,181.41,26.12ZM107,12.1a4.14,4.14,0,0,1,3.11,5.73q-4.26-1.18-8.56-2.22C102.24,13,104.26,11.47,107,12.1Zm-12-5A6.13,6.13,0,0,1,99.83,9.5c1.28,1.67,1.31,3.94,1.07,5.95Q94.61,14,88.25,12.79C88.34,9.13,91.58,7.1,95,7.14ZM71.83,8c.93-2.83,4.3-4.26,7.4-4.42a10.05,10.05,0,0,1,5.68,1.29c2.79,1.67,2.87,4.93,2.69,7.84-5-.89-10-1.61-15.12-2.13l-.83-.08,0-.2A15.36,15.36,0,0,0,71.83,8ZM56.63,2.25a10.18,10.18,0,0,1,13.1,1.56C71.52,5.71,71.39,8,71,10.4a107.63,107.63,0,0,0-14.9-.66,12.51,12.51,0,0,0-2.58-.82V8.86C52.64,6.29,54.68,3.7,56.63,2.25Zm2,9.66c4.93,4.09,6.24,11.23,6.68,17.26a126.21,126.21,0,0,1,0,15.8,65.51,65.51,0,0,1-1.94,12.61c-2,7.77-5.45,17.82-14.33,19,4.14-3.69,6.6-9.08,8.17-14.31a63.35,63.35,0,0,0,2.24-22.68C58.75,28.65,54.71,12.8,42.73,9.41,48.22,9.14,54.09,8.11,58.68,11.91ZM20.83,66a42.77,42.77,0,0,1-12-8.33,30.83,30.83,0,0,1-6.44-9.85,35.18,35.18,0,0,0,5.88.58c2.21.13,4.41.18,6.62.22,4.4.08,8.81,0,13.21,0a.3.3,0,0,0,0-.6c-4.24,0-8.49.07-12.74,0-2.21,0-4.41-.07-6.62-.16-1.1,0-2.2-.11-3.3-.18L4,47.67c-.15,0-1.55-.16-1.52-.19s0,0,0,0l-.22.11A32.36,32.36,0,0,1,1,43.88C-1.73,33.36,6.48,24.21,14.43,18.62a59.43,59.43,0,0,1,14-7.21C32,10.11,35.87,9,39.75,9.35,46.2,9.89,51,14.63,53.91,20.07c3.55,6.56,4.93,14.25,5.26,21.63A62.59,62.59,0,0,1,56.7,62.56c-1.58,5.19-4.14,10.58-8.41,14.1-.18,0-.35,0-.54,0h0C39,72.63,29.53,70.26,20.83,66ZM70.11,92.15A22.81,22.81,0,0,1,51,89.33c-2.32-1.48-4.51-3.53-5-6.36-.3-1.82-.24-4.86,1.68-5.75l.1,0h0l.27.14a.22.22,0,0,0,.17.09c4.51,2.26,10.26,1.48,15,.78,6.63-1,13.23-2,19.78-3.44h0C89.18,82.05,75.94,90.38,70.11,92.15Zm26.7-21.43C92.92,71.9,89,73,85,73.88l-1.66.37,0,0c-.17-.19-.4-.06-.47.13C77,75.64,71.09,76.6,65.16,77.5c-5.44.83-11.42,1.84-16.65-.28,0,0,0,0,0,0C56.6,76.55,60.32,69,62.73,62a62.72,62.72,0,0,0,2.85-12.84,113.57,113.57,0,0,0,.5-13.3c0-7.5-.32-15.77-4.93-22a12.38,12.38,0,0,0-4.7-3.88c3.43.25,6.86.34,10.29.61,1.4.11,2.8.24,4.2.37,0,.29.5.38.57.06,2.08.21,4.15.45,6.23.72,7.19.94,14.33,2.28,21.4,3.91,4,9.19,4.49,19.45,3.32,29.31-.55,4.63-1.64,9.16-2.4,13.76C99.39,62.7,98.82,67.05,96.81,70.72Zm3.68-1.17q-1.45.48-2.91.93c1.83-3.6,2.39-7.77,3-11.7.76-4.65,1.84-9.23,2.4-13.91,1.19-9.87.58-20.08-3.55-29.23l.25,0,2.55.62A10,10,0,0,1,104,20.22a39.57,39.57,0,0,1,1,4.71,79,79,0,0,1,.72,14.91c-.22,10-1.57,20.22-5.31,29.53A.23.23,0,0,0,100.49,69.55Zm3-1-2.36.82c3.87-9.55,5.12-20.18,5.28-30.41a73.68,73.68,0,0,0-.91-14.61A30.84,30.84,0,0,0,104.06,19a6.82,6.82,0,0,0-1.53-2.61L105,17c1.76,3.38,2.06,7.32,2.42,11.05a119.85,119.85,0,0,1,.9,13.25,90.66,90.66,0,0,1-1.57,14.13A82.68,82.68,0,0,1,103.48,68.51Zm3.3-1.23-2.66,1a85.27,85.27,0,0,0,3.13-12.72,89.9,89.9,0,0,0,1.56-14.27,118.89,118.89,0,0,0-1-14c-.36-3.47-.75-7.17-2.51-10.25l2.82.74a74,74,0,0,1,2.51,23.83C110.17,50.31,107.63,58.66,106.78,67.28Zm3.1-1.24c-.83.35-1.66.68-2.49,1,.87-8.54,3.33-16.82,3.78-25.42.41-7.89-.15-16.21-2.74-23.73l1.74.48a.29.29,0,0,0,.29.08l.26.07c2,7.87,2.31,16,2.11,24.13-.1,4.06-.34,8.11-.79,12.15q-.39,3.42-1.05,6.8A18.68,18.68,0,0,1,109.88,66Zm.74-.3a23.45,23.45,0,0,0,.73-3.06c.46-2.15.81-4.32,1.09-6.5a127.21,127.21,0,0,0,1-13.09c.22-8.22-.14-16.53-2.41-24.48l2.72.78c1.29,2.56,1.4,5.76,1.64,8.54a112.23,112.23,0,0,1,.46,12,73.44,73.44,0,0,1-1.4,12.64c-.82,4.19-1.84,8.35-2.48,12.58Zm5.2-2.34c-1.08.52-2.18,1-3.28,1.51.66-4.09,1.62-8.11,2.43-12.17A73.21,73.21,0,0,0,116.38,40a100.17,100.17,0,0,0-.57-12.6c-.25-2.55-.45-5.57-1.77-7.86l2.16.65a109.65,109.65,0,0,1,2.53,21.74,60.65,60.65,0,0,1-1.07,11.41C117,56.66,116.15,60,115.82,63.4Zm.59-.28c.4-3.57,1.31-7,2-10.58a60.92,60.92,0,0,0,.92-11.12,84.73,84.73,0,0,0-2.81-21.19l1.87.57a.11.11,0,0,0-.07.16c1.56,2.63,2,5.73,2.23,8.72a76.94,76.94,0,0,1,.29,10.84c-.36,7.31-3.27,14.46-2.81,21.81Zm2-1a47,47,0,0,1,1.37-11.2,69.7,69.7,0,0,0,1.55-11.33,71,71,0,0,0-.46-10.91c-.3-2.59-.68-5.76-2.42-7.83l2.25.71c2.71,6.3,2.69,13.25,2,20-.32,3.24-.79,6.47-1.15,9.71a45.19,45.19,0,0,1-2,10.25Zm4.88-2.64q-1.47.84-3,1.65A45.1,45.1,0,0,0,122.1,52c.4-3.51.87-7,1.23-10.52.67-6.63.7-13.76-2.27-19.87l2.73.9s0,0,0,0c.95,2.25.77,4.92.89,7.31.14,3.15.46,6.25.46,9.41A122,122,0,0,1,123.33,59.47Zm2-1.16-.19.12-1.23.71a117.21,117.21,0,0,0,1.77-20.31c0-3.23-.38-6.4-.56-9.61-.11-2.12,0-4.66-1.06-6.59l1.49.5a21.75,21.75,0,0,1,1.32,7.15c.18,2.89.24,5.78.27,8.66A77.29,77.29,0,0,1,125.32,58.31Zm2.42-1.49L126,57.9a77.86,77.86,0,0,0,1.7-19c0-3.12-.13-6.25-.4-9.36a17.87,17.87,0,0,0-1.44-6.34l2,.68a28.49,28.49,0,0,1,.91,7.36c.14,2.9.38,5.79.4,8.69a52.45,52.45,0,0,1-.78,9.11A33,33,0,0,0,127.74,56.82Zm.44-.28a41.72,41.72,0,0,1,.82-8.18,51.41,51.41,0,0,0,.65-8.85c0-3-.3-6-.47-9A20.88,20.88,0,0,0,128.09,24l1.58.56c.25,2.58,1.32,5,1.62,7.62a62.91,62.91,0,0,1,.28,8.68c-.11,4.72,0,10-1.53,14.49Zm2.62-1.69c1.3-4.29,1.2-9.11,1.32-13.53a63.43,63.43,0,0,0-.31-9.14c-.3-2.58-1.26-5-1.81-7.51l1.84.66a.09.09,0,0,0,0,.11c3.26,9,1.5,19.09.54,28.38Zm2-1.37c1.1-9.14,2.78-19.29-.79-28.08l1.72.63c3.43,8.39.95,17.64.6,26.35,0,0,0,0,0,0C133.87,52.79,133.35,53.14,132.84,53.48ZM135,52c.46-8.43,2.92-17.91-.87-25.87L137,27.22a44.45,44.45,0,0,1,.45,22.67.26.26,0,0,0,.11.3Q136.26,51.12,135,52Zm5.14-3.69c-.68.51-1.37,1-2.06,1.51a40.63,40.63,0,0,0,1.1-11.31,37.63,37.63,0,0,0-1.84-11.19l2.05.77C141.51,34.44,142.38,42,140.11,48.33ZM143.3,46l-.21.16-2.19,1.63c2-6.27,1-13.4-1.18-19.5l2.07.8.5.2C144.36,34.61,143.24,40.35,143.3,46Zm2.46-1.86-1.87,1.42c0-5.25,1.17-11.27-1.24-16.13l2.39.94a31.87,31.87,0,0,1,.7,13.6A.32.32,0,0,0,145.76,44.1Zm2.83-2.17v0c-.75.55-1.49,1.11-2.23,1.67a27.5,27.5,0,0,0-1-13.17l2.48,1a37.71,37.71,0,0,0,.7,4.61A14.41,14.41,0,0,1,148.59,41.93Zm2-1.37-1.31.92a9.23,9.23,0,0,0,.07-3.95c-.28-2-.83-3.92-1.11-5.91l2.25.92a25.38,25.38,0,0,1,.94,7.46Zm1.4-.94a17.57,17.57,0,0,0-1.11-6.91c1.76.72,3.52,1.46,5.28,2.2a.23.23,0,0,0,.11,0,.19.19,0,0,0,0,.11l.11.16A12.64,12.64,0,0,1,152,39.62Zm15.49,10.21a35.5,35.5,0,0,1-5.32-7.32c-.79-1.32-1.52-2.68-2.44-3.92s-1.87-2.3-2.72-3.51l.06-.16a.18.18,0,0,0,.1-.17c.19-6.18,4.78-11.25,9.23-15.11,1.19,5,1.19,10.24,1.17,15.39,0,2.85.21,5.74.26,8.62a.25.25,0,0,0,0,.25A36.67,36.67,0,0,1,167.49,49.83Zm4.73-3.2a6.77,6.77,0,0,1-3.85-2.91c-.05-2.9-.28-5.82-.28-8.69a84.06,84.06,0,0,0-.62-12.29c.77-.79,1.48-1.64,2.23-2.47.1-.11,1.38-1.44,1.5-1.25a5,5,0,0,1,.59,2.14,34.13,34.13,0,0,1,.07,4.64h0a.12.12,0,0,0,0,.16c0,1-.06,1.94-.05,2.89,0,3.81.27,7.63.38,11.45a.29.29,0,0,0,0,.48h0C172.25,42.74,172.27,44.69,172.22,46.63Zm.52-6.16c-.12-3.09-.31-6.18-.39-9.26,0-1.83-.11-3.66-.11-5.48a39.18,39.18,0,0,1,3.49-3.45,28.16,28.16,0,0,1,.44,4.66h0c0,1.74,0,3.49,0,5.24s.13,3.73.24,5.59a.28.28,0,0,0-.1.51l.13.07c.08,1.42.15,2.84.14,4.27C175.31,41.87,174,41.26,172.74,40.47Zm6.57-4.2a.25.25,0,0,0,0,.34c-.09.8-.19,1.6-.32,2.38a9.86,9.86,0,0,1-2-1c-.12-2-.27-3.89-.3-5.84s0-3.65,0-5.48c.62-.67,1.22-1.38,1.81-2.08a21.55,21.55,0,0,1,.8,3.49.08.08,0,0,0,0,.08A33,33,0,0,1,179.31,36.27Zm2.6-1.16a10.25,10.25,0,0,1-.29,1.31c-.18.68-1.22.16-1.78-.11a32.27,32.27,0,0,0-.12-8.39,10.32,10.32,0,0,1,1.65-1.29,28.1,28.1,0,0,1,.71,5.25A17.45,17.45,0,0,1,181.91,35.11Z"/><path class="cls-2" d="M88.77,21.29c.29,0,.3-.48,0-.45a113.57,113.57,0,0,1-20.2.11c-.15,0-.15.21,0,.23A87.48,87.48,0,0,0,88.77,21.29Z"/><path class="cls-2" d="M80.91,24.48c3.49-.06,6.9-.6,10.38-.06.28,0,.41-.37.12-.44-3.15-.74-6.54-.13-9.72.05-3.87.22-7.8.12-11.67,0-.14,0-.13.19,0,.21A92,92,0,0,0,80.91,24.48Z"/><path class="cls-2" d="M84,28.09c-1.79.14-3.58.16-5.37.31a53.69,53.69,0,0,1-7.61.29.1.1,0,0,0,0,.2,28,28,0,0,0,6.78,0c1.88-.13,3.76-.16,5.64-.28,3.13-.2,6.75-.89,9.77.18.26.1.41-.3.18-.44a7.44,7.44,0,0,0-3.65-.57C87.84,27.76,85.94,27.94,84,28.09Z"/><path class="cls-2" d="M91.77,33.24c-1.89-.09-3.79-.05-5.68,0a123.54,123.54,0,0,0-15.39.89c-.18,0-.13.33,0,.31,4.79-.46,9.59-.59,14.4-.66,1.76,0,3.52,0,5.27,0,.55,0,3.07-.11,3.29.24s.57.09.47-.19C93.92,33.12,92.3,33.26,91.77,33.24Z"/><path class="cls-2" d="M94.79,37.42c-3.7-1-7.77-.64-11.52-.18-1.79.22-3.58.5-5.37.76-1.14.16-2.3.31-3.45.45l-1.3.13c-.23,0-1.47.32-.54.1.08,0,0-.15,0-.13l-.72.15c-.09,0-.07.16,0,.15,3.67-.08,7.31-.7,10.95-1.13a42.38,42.38,0,0,1,11.85.15C95,37.92,95.09,37.5,94.79,37.42Z"/><path class="cls-2" d="M92.72,43c-7.2-.11-14.38.64-21.58.67a.07.07,0,0,0,0,.13c7.2,0,14.38-.32,21.58-.3A.25.25,0,0,0,92.72,43Z"/><path class="cls-2" d="M91.51,48.44a.25.25,0,0,0,0-.49,138.71,138.71,0,0,0-20,1c-.21,0-.21.34,0,.32A168.37,168.37,0,0,1,91.51,48.44Z"/><path class="cls-2" d="M91.67,52.55c-6.57-.84-13.28.51-19.77,1.44-.18,0-.14.35,0,.32C78.53,53.44,85,52.46,91.67,53,92,53,92,52.58,91.67,52.55Z"/><path class="cls-2" d="M89.34,57.86a114.22,114.22,0,0,0-18.76.9c-.18,0-.19.3,0,.28a167.81,167.81,0,0,1,18.76-.71C89.64,58.34,89.64,57.87,89.34,57.86Z"/><path class="cls-2" d="M86.76,61.58c-2.69.08-5.41.5-8.09.75s-5.39.48-8.09.67c-.1,0-.11.17,0,.17,2.7-.06,5.4-.22,8.09-.43s5.46-.33,8.15-.73C87.07,62,87,61.57,86.76,61.58Z"/><path class="cls-2" d="M56.18,81.16c0,2.21-.45,4.64.08,6.81.05.22.41.18.39,0-.21-2.27-.16-4.49-.17-6.76A.15.15,0,0,0,56.18,81.16Z"/><path class="cls-2" d="M60.39,82.12a41.17,41.17,0,0,0,.56,6c.07.28.48.16.43-.12C61,86,61,84.08,60.72,82.12,60.69,81.92,60.37,81.91,60.39,82.12Z"/><path class="cls-2" d="M64.49,81.69c.42,1.91.4,3.91.92,5.81.07.29.5.16.44-.12-.42-1.92-.55-3.88-1-5.79A.18.18,0,0,0,64.49,81.69Z"/><path class="cls-2" d="M67.83,81.34c.33,1.64.45,3.32.83,5,.07.31.51.17.46-.12-.29-1.65-.52-3.31-.86-5C68.2,80.94,67.78,81.06,67.83,81.34Z"/><path class="cls-2" d="M71.34,81.1a15.06,15.06,0,0,0,1.09,4.28.24.24,0,0,0,.43-.18A22.6,22.6,0,0,1,71.75,81C71.71,80.7,71.29,80.82,71.34,81.1Z"/><path class="cls-2" d="M75,79.89a.24.24,0,0,0-.47.13,10.74,10.74,0,0,0,1.62,3.62c.18.23.57-.07.41-.32A13.12,13.12,0,0,1,75,79.89Z"/><path class="cls-2" d="M78.08,78.75c.22.52.42,1,.6,1.57s.27,1.11.49,1.63c.09.22.48.22.46-.07a10.37,10.37,0,0,0-1.1-3.39C78.4,78.18,78,78.45,78.08,78.75Z"/><path class="cls-2" d="M52.89,81.28c0,1.53-.15,3.06-.18,4.59,0,.31.44.29.48,0a30.58,30.58,0,0,0,.06-4.59A.18.18,0,0,0,52.89,81.28Z"/><path class="cls-2" d="M22,25.37s0,0,0,0a2.91,2.91,0,0,0-.66,2.5,3.54,3.54,0,0,0,3.55,2.92,3.72,3.72,0,0,0,2.06-.55,4.16,4.16,0,0,0,1.76-1.13C31.3,26.17,24.06,21.19,22,25.37Zm5.77,3.32A3.52,3.52,0,0,1,25.44,30a4.06,4.06,0,0,1-2.79-.9A3.52,3.52,0,0,1,22,28.05a2.58,2.58,0,0,1,1.29-3l.13-.05a3,3,0,0,1,.52-.13l.28,0a.07.07,0,0,0,.09-.07,4.64,4.64,0,0,1,2.37.62,2.62,2.62,0,0,1,1.4,2.14A2.21,2.21,0,0,1,27.78,28.69Z"/><path class="cls-2" d="M24.74,27a.14.14,0,0,0-.21.07.46.46,0,0,0,0,.28.29.29,0,0,0,.16.21.17.17,0,0,0,.2,0h0a.18.18,0,0,0,.08-.09.23.23,0,0,0,.06-.2.44.44,0,0,0-.06-.16A.18.18,0,0,0,24.74,27Z"/></g></svg>