<svg xmlns="http://www.w3.org/2000/svg" viewBox="0 0 190.75 120.39"><defs><style>.cls-1{fill:#fff;}.cls-2{fill:#272525;}</style></defs><title>life</title><g id="stroke"><path class="cls-1" d="M122.68,8l.56-.15a.58.58,0,0,1-.11-.25c-.26-2.07-.77-4.1-.88-6.18-.37.08-.75.17-1.12.27.35,2.11,1.15,4.07,1.55,6.17A.33.33,0,0,1,122.68,8Z"/><path class="cls-1" d="M118.82,2.74c.38,2,1,4,1.35,6l.23-.07a.41.41,0,0,1-.09-.21c-.29-2.05-.84-4.06-1.06-6.13l-.6.25A.2.2,0,0,1,118.82,2.74Z"/><path class="cls-1" d="M124,7.69l.46-.13a.34.34,0,0,1-.27-.3,60.4,60.4,0,0,1-.86-6c-.28,0-.55.09-.82.15.43,2.05,1,4.06,1.48,6.11A.92.92,0,0,1,124,7.69Z"/><path class="cls-1" d="M121.22,8.22a.61.61,0,0,1,0,.24l.71-.2a.31.31,0,0,1-.06-.13c-.4-2-1.23-4.17-1.15-6.27l-.79.25a.53.53,0,0,1,0,.15C120.22,4.28,120.94,6.2,121.22,8.22Z"/><path class="cls-1" d="M108.3,39.35a64.32,64.32,0,0,1,6.76-19.07c-4.77-3.41-9.65-.31-12.29,4.15-3.33,5.62-.45,12,5.26,14.64A.56.56,0,0,1,108.3,39.35Z"/><path class="cls-1" d="M117.66,111.12a129,129,0,0,1-7.74-17.33.49.49,0,0,1-.18.08c-7.59,1.14-5.32,11.06-1.5,15.43A92.07,92.07,0,0,0,117.66,111.12Z"/><path class="cls-1" d="M106.19,75.51a12.69,12.69,0,0,1-3.31.15c-3.47,1-5,4.59-4.13,8.7a11.21,11.21,0,0,0,1,2.75,1.6,1.6,0,0,0,.23,0,.35.35,0,0,1,.11.61,9.7,9.7,0,0,0,9.55,5.06h0a67.07,67.07,0,0,1-2.73-11C106.55,79.71,106.33,77.62,106.19,75.51Z"/><path class="cls-1" d="M108.09,40.32c-.11-.06-.22-.1-.33-.15a.63.63,0,0,1-.35-.05c-.2-.09-.39-.21-.59-.32-4.15-1.26-8.08,2.14-9.35,6.16-1.21,3.86,1.81,8,5.49,9.51a12,12,0,0,1,3,.62.51.51,0,0,1,.34.37c0-.67.07-1.35.11-2a109.35,109.35,0,0,1,1.67-14.12Z"/><path class="cls-1" d="M124.79,8.31c-.93.25-1.86.51-2.79.79l-1.8.52a.44.44,0,0,1-.5.14l-3.81,1.1c-2.4.81-6.58,4.14-3.76,6.7a.51.51,0,0,1,.14.6,7.22,7.22,0,0,1,3,1.69A44.37,44.37,0,0,1,124.79,8.31Z"/><path class="cls-1" d="M119.29,9c-.27-2.07-.85-4.11-.93-6.2a.18.18,0,0,1,0-.1l-.62.29c.38,2,1.28,4,1.45,6Z"/><path class="cls-1" d="M95.66,23.3c.55,1.82,2.4,5.14,4.73,3.93a15.61,15.61,0,0,1,1.4-3.38,12.34,12.34,0,0,1,4.7-4.78c-2-.64-4.49-2.61-4.14-4.21q-2.66.83-5.29,1.7a.36.36,0,0,1-.14.36C94.92,18.55,95,21,95.66,23.3Z"/><path class="cls-1" d="M66.5,32.31c1.77-2.63,4.77-4.23,7.36-2.17a7,7,0,0,1,4.8-3.54,5.26,5.26,0,0,1,.4-3.7q-6.9,2.58-13.75,5.34a.47.47,0,0,1-.12.2C64,29.7,65.22,31.53,66.5,32.31Z"/><path class="cls-1" d="M55.88,36c-8.72.08-7.85,17.34.11,19.06h0a8.42,8.42,0,0,1,3.8-2.21c-1.82-3.64-.27-7.72,2.47-10.52C58.87,42.86,56.4,39.49,55.88,36Z"/><path class="cls-1" d="M84,31.15s0,0,.08,0c1.29-5.69,5.26-10.35,10.53-8.15-.56-2.12-.47-4.41.74-5.91q-7.2,2.39-14.3,5l-.32.12a.36.36,0,0,1-.15.28C77.75,24.89,80.61,31,84,31.15Z"/><path class="cls-1" d="M62.87,41.79a1.36,1.36,0,0,1,.12-.12,9.58,9.58,0,0,1,2.85-1.73c-1.39-1.95-1-4.75.27-7-1.56-.69-2.74-2.51-2.27-4.1-1.8.75-3.6,1.5-5.38,2.28l-.71.32C55,35.21,58.14,41.86,62.87,41.79Z"/><path class="cls-1" d="M114.89,10.24a.41.41,0,0,1-.24-.35,27.4,27.4,0,0,1-.33-4.44,9.86,9.86,0,0,0-1,1.16c.12,1.32.74,2.52.92,3.81Z"/><path class="cls-1" d="M118,9.36l.39-.11a52,52,0,0,1-1.16-6l-.6.36c.35,1.93.93,3.8,1.37,5.71C118,9.35,118,9.36,118,9.36Z"/><path class="cls-1" d="M107.45,18.6a7.79,7.79,0,0,1,3.44-.66c-1.62-1.9-.51-4.42,1.37-6L108.47,13c-1.41.41-2.81.85-4.21,1.28a.67.67,0,0,1-.15.14C101.92,15.8,105.69,18.18,107.45,18.6Z"/><path class="cls-1" d="M115.4,10.09l1.72-.48v0c-.38-1.87-.76-3.75-1-5.65a12.21,12.21,0,0,0-1.31,1,29.22,29.22,0,0,1,.64,4.91A.32.32,0,0,1,115.4,10.09Z"/><path class="cls-1" d="M112.82,7.42a9.14,9.14,0,0,0-1,2.62.5.5,0,0,1-.36.39,6.94,6.94,0,0,1,0,.79l2-.57A13,13,0,0,1,112.82,7.42Z"/><path class="cls-1" d="M86.6,78c-.14,5.13,2.46,9.89,7.81,11.15A5.08,5.08,0,0,1,98.79,87c-1.91-4.35-1.48-9.53,2.23-11.65a13.23,13.23,0,0,1-8.18-5.56c-4.65-2-6,4.05-6.22,7.64h0A.3.3,0,0,1,86.6,78Z"/><path class="cls-1" d="M128.73,6.65a.45.45,0,0,1-.29-.39A38.56,38.56,0,0,1,127.93,1c-.47,0-.94,0-1.41,0,.25,2,.71,3.91,1,5.87ZM127.1,1.39a.33.33,0,0,1,.65,0,34.79,34.79,0,0,0,.6,4.76.44.44,0,1,1-.86.11A34.51,34.51,0,0,1,127.1,1.39Z"/><path class="cls-1" d="M61.25,53.49a.62.62,0,0,1-.93.17c-5.25,1.32-8.63,9-3.79,13.33a6.77,6.77,0,0,1,6.52-1.06c-1.33-3.78-.09-8.73,2.22-11.55A6.71,6.71,0,0,0,61.25,53.49Z"/><path class="cls-1" d="M124.87,7.46l.66-.16c-.46-1.9-1.18-4.25-.73-6.21-.32,0-.64.06-1,.1.34,2,.88,3.87,1.2,5.83A.48.48,0,0,1,124.87,7.46Z"/><path class="cls-1" d="M129.18,6.58a31.75,31.75,0,0,1,3.24-.34s0,0,.05,0c1-.06,2,0,3,0a.14.14,0,0,0,0-.06c-.06-1.11-.2-2.22-.23-3.34a.2.2,0,0,1,.17-.19,16.76,16.76,0,0,0-2-.74c.05,1.25.13,2.48.23,3.73.05.59-.88.59-.93,0-.09-1.3,0-2.62,0-3.92-.27-.08-.55-.14-.84-.2a23.82,23.82,0,0,1,0,3.87c-.06.55-.93.57-.88,0,.12-1.35.12-2.67.13-4-.54-.1-1.1-.17-1.65-.23a26.62,26.62,0,0,1,.63,5,.38.38,0,0,1-.75,0,33.63,33.63,0,0,1-.24-5L128.49,1c.24,1.71.51,3.41.83,5.11A.46.46,0,0,1,129.18,6.58Zm4.95-4.15a.18.18,0,0,1,.35,0c.05,1.13.13,2.25.28,3.37.06.42-.63.44-.66,0A27.07,27.07,0,0,1,134.13,2.43Z"/><path class="cls-1" d="M106.69,93.79a10.92,10.92,0,0,1-7.55-6c-4-.13-5.29,3.58-4.77,7.24.7,4.88,4.9,7.31,9.55,7.5C103.28,99,103.89,95.49,106.69,93.79Z"/><path class="cls-1" d="M126.41,7.09l.24,0c-.36-2-.63-4-.81-6h-.49c-.14,2.13.69,4,1.06,6Z"/><path class="cls-1" d="M136.22,6a.37.37,0,0,1,0,.21c.35,0,.7,0,1,.08a.42.42,0,0,1-.18-.21,10.1,10.1,0,0,1-.32-2.64.28.28,0,0,1,0-.13c-.38-.22-.78-.43-1.18-.63,0,0,0,0,0,0C135.78,3.85,136,4.94,136.22,6Z"/><path class="cls-1" d="M138.92,6.33a.41.41,0,0,1,0,.19l.51.08c-.07-.46-.11-.92-.19-1.37a10.36,10.36,0,0,0-.85-.77c0,.2.07.39.11.58C138.61,5.48,138.81,5.89,138.92,6.33Z"/><path class="cls-1" d="M140.28,6.76l.31,0c-.12-.17-.25-.35-.38-.51,0,.13.06.26.08.39S140.28,6.74,140.28,6.76Z"/><path class="cls-1" d="M137.53,6.35l.62.08A6.6,6.6,0,0,1,137.8,4l-.48-.33c.16.75.33,1.5.46,2.24A.37.37,0,0,1,137.53,6.35Z"/><path class="cls-1" d="M76.42,85.08a17,17,0,0,1,.73-3.55A7.22,7.22,0,0,1,81,76.72c-2-3.11-2.09-7.54-.77-11.24-2.45-1.25-5.44-.34-7.66,1.07-2.56,1.62-3.4,4.25-3.41,7.12C69.17,79.24,71.64,82.68,76.42,85.08Z"/><path class="cls-1" d="M47.75,48.06a.54.54,0,0,1-.69.36l-.1,0c-2,1.12-2.6,3.87-2.42,6.48A9.35,9.35,0,0,0,46,59.24c1.62,2.48,4.3,2.38,6.82,3A10.2,10.2,0,0,1,55.17,56c-3.4-1-5.43-4.35-6.15-8.13A5,5,0,0,0,47.75,48.06Z"/><path class="cls-1" d="M105.85,57.12a8.55,8.55,0,0,1-3.31-.67c-4.71-.34-9.67,1.94-10.33,7.19-.76,6.15,5.37,10.48,11.06,11a10.46,10.46,0,0,1,2.85-.14,161.63,161.63,0,0,1,.19-17.62A.48.48,0,0,1,105.85,57.12Z"/><path class="cls-1" d="M87.57,46.72a10.82,10.82,0,0,1,1.19-1.57,8,8,0,0,1-3.07-2.6,9.86,9.86,0,0,1-8-1.79c-4.11.53-6.38,4.1-6.17,8.72C71.87,56,76.9,59.74,82.8,61.12A7.17,7.17,0,0,1,88,58.57C84.74,55.39,85.24,50.5,87.57,46.72Z"/><path class="cls-1" d="M85.55,76.93c0-.28,0-.56.07-.84.46-3.86,2.58-8.59,6.65-7.29a10.45,10.45,0,0,1-1.15-4.58A7.83,7.83,0,0,1,92,60.4a6.49,6.49,0,0,0-8.14,1.12.62.62,0,0,1-.66.89l-.09,0c-2.86,3.72-3.57,10.11-.84,14A6.21,6.21,0,0,1,85.55,76.93Z"/><path class="cls-1" d="M68.76,69.55c1.91-4.24,7.54-7,11.7-4.58A12.88,12.88,0,0,1,82,62.13c-5-1.3-9.15-4.25-10.76-8.87-4.06-1.74-6.6,2.76-7.41,6.18C62.8,63.77,64.29,68.28,68.76,69.55Z"/><path class="cls-1" d="M78.77,27.08c-7.22,2.64-4.65,10,.56,13.12a10.41,10.41,0,0,1,1.33.15c.3.06.19.47-.08.48A8.68,8.68,0,0,0,85,41.5a15.11,15.11,0,0,1-1.12-9.71C81.53,31.93,79.49,29.62,78.77,27.08Z"/><path class="cls-1" d="M72.85,42.22a5.58,5.58,0,0,0-5.76-1.7.56.56,0,0,1-.48.14c-4.37,1.54-7.93,7.6-5.5,12a6.63,6.63,0,0,1,4.37,1.47C67,52.37,69,51.57,71,52.66A14.1,14.1,0,0,1,70.48,49c-.09-4.76,2.64-8,6.66-8.7a11.82,11.82,0,0,1-3.12-4,7,7,0,0,1-.35-5.72h-.08c-4.58-2.23-10,5.35-6.56,9,2.33-.54,4.75,0,6.09,2.45A.17.17,0,0,1,72.85,42.22Z"/><path class="cls-1" d="M94.78,23.7C84.36,21,80.62,40.55,89.63,44.28h0c2.27-2,5.39-3,8-1.16a8.77,8.77,0,0,1,7.68-4.22,13.48,13.48,0,0,1-5-6.94,7.91,7.91,0,0,1-.08-4.1C98.1,29.13,95.8,26.72,94.78,23.7Z"/><path class="cls-1" d="M97.49,43.4c-7.65-2.88-14.67,9.79-8.09,14.79a.62.62,0,0,1,.25.55,9.38,9.38,0,0,1,2.65,1.12c1.7-2.68,5-4.15,8.41-4.4-3-2-4.95-5.64-4.32-9.18A8.86,8.86,0,0,1,97.49,43.4Z"/><path class="cls-1" d="M124.48,112.86a.19.19,0,0,1,0,.11c.16,2,.45,4,.65,6,.29-.06.58-.12.86-.2a32.65,32.65,0,0,1,.06-5.85C125.56,112.92,125,112.9,124.48,112.86Z"/><path class="cls-1" d="M119.64,112.44l-.22,0a.61.61,0,0,1-.86.3c0,1.07-.06,2.14,0,3.22A6.53,6.53,0,0,1,118,119l.64.09a.66.66,0,0,1,0-.14C119,116.82,119.21,114.58,119.64,112.44Z"/><path class="cls-1" d="M112.56,116.38a.44.44,0,0,1-.84-.23c.27-1.6.38-3.26.69-4.86L111,111a19.4,19.4,0,0,1-.65,4.59l-.06.11a11.13,11.13,0,0,0,1.87,1.37,10.7,10.7,0,0,0,1.31.66.54.54,0,0,1,0-.18,31.19,31.19,0,0,0,.78-5.92l-1.35-.24A16,16,0,0,1,112.56,116.38Z"/><path class="cls-1" d="M116.57,118.47a.35.35,0,0,1-.14.25l.79.16a.38.38,0,0,1,0-.15c.19-1.25.4-2.44.47-3.71a13.71,13.71,0,0,1,.32-2.79l-1.25-.18C116.59,114.18,116.88,116.34,116.57,118.47Z"/><path class="cls-1" d="M109.16,110.59a10.09,10.09,0,0,1-.45,2.45.43.43,0,0,1-.47.27,11.38,11.38,0,0,0,1.28,1.65,32,32,0,0,1,.92-4.08Z"/><path class="cls-1" d="M116.59,112l-1.72-.27a21.6,21.6,0,0,1-.46,6.06.48.48,0,0,1-.16.26c.5.18,1,.35,1.52.49a.45.45,0,0,1-.07-.33C116.05,116.15,116.2,114.08,116.59,112Z"/><path class="cls-1" d="M93.53,96.26c-3-.37-5.74,3.37-4.51,6.13,1.24.57,2.48,1.13,3.72,1.67a98.88,98.88,0,0,0,13.77,4.8,16.78,16.78,0,0,1-2.33-5.19C99,103.67,94.84,101,93.53,96.26Z"/><path class="cls-1" d="M69,79.67a16.81,16.81,0,0,1-.85-7.9,7.26,7.26,0,0,1,.22-1.11,7.19,7.19,0,0,1-5-4C57,64.73,50.28,73.5,54,79.18a.51.51,0,0,1,.07.45c1.48,1.33,3,2.63,4.45,3.87s2.84,2.31,4.3,3.42C63.07,83.22,64.9,79.28,69,79.67Z"/><path class="cls-1" d="M108.2,110.87l-.36-.37c-.07.26-.15.53-.21.79a.39.39,0,0,1-.37.3c.2.41.42.81.65,1.2.23-.59.44-1.18.62-1.79A.51.51,0,0,1,108.2,110.87Z"/><path class="cls-1" d="M106.91,110.79c.07-.23.15-.46.23-.7-.19,0-.39-.09-.58-.15C106.67,110.23,106.79,110.52,106.91,110.79Z"/><path class="cls-1" d="M93.34,95.48c0-.26-.1-.52-.14-.8a8.31,8.31,0,0,1,.59-4.49c-6-1.4-8.47-7-8.28-12.61a5,5,0,0,0-3.15-.41.71.71,0,0,1-.67.21c-2.12.9-3.42,3.57-4,6.41-1,5.33,1,10.22,4.13,14.51a.45.45,0,0,1,0,.57q2.84,1.48,5.7,2.84C87,98.59,90.16,95.09,93.34,95.48Z"/><path class="cls-1" d="M131.48,114.53A8.14,8.14,0,0,0,132,113l-.72,0C131.31,113.51,131.39,114,131.48,114.53Z"/><path class="cls-1" d="M185.83,43.35c-4.45-10.23-12.75-17.77-21.6-24.22-8.6-6.27-19.29-12.4-30.27-12.42A41,41,0,0,0,126,8c-13.42,11.71-17.5,29.37-18.49,46.46-.51,8.85-.77,18.22.46,27,1.47,10.59,6.14,20.47,11.06,29.85,16.58,2,33.47-.73,48-10.11,9.12-5.88,16.67-14.49,20.37-24.76C191.32,65.7,190.33,53.7,185.83,43.35ZM158.64,38.9a1,1,0,0,1-1.31-.35.69.69,0,0,1,0-.69.41.41,0,0,1-.06-.2c0-.36.35-.49.66-.46a1.76,1.76,0,0,1,.4-.18h0a.08.08,0,0,1,.13,0l0,0c.3,0,.43.41.43.79A.91.91,0,0,1,158.64,38.9Zm27.08,26.85c-.21,2.24-1.89,2.88-3.65,2.67,1.08,1.46,1.57,3.28-.18,4.57-2.27,1.68-5-.74-6-2.66-.33-.63.63-1.19,1-.56.77,1.52,2.37,3.25,4.26,2.43,2.21-1-.15-3.57-1.12-4.44-.46-.41.13-1.1.64-.83,1.92,1,4.13.84,4.31-1.7.17-2.37-1.81-4-4-4.3-.25,0-.19-.45.05-.43A4.85,4.85,0,0,1,185.72,65.75Z"/><path class="cls-1" d="M120.22,112.5c0,2.18.12,4.7-.7,6.71l.41,0c.35,0,.71,0,1.07.06,0,0,0,0,0-.09a23.73,23.73,0,0,1,.36-6.61Z"/><path class="cls-1" d="M47.38,47.27a.29.29,0,0,1,.11.06,5.07,5.07,0,0,1,1.42-.1c-.89-6,1.49-12.71,6.9-11.75a7.65,7.65,0,0,1,.37-3.33A69.69,69.69,0,0,0,45.75,38C43.87,41,43.32,46.11,47.38,47.27Z"/><path class="cls-1" d="M124.16,113a.23.23,0,0,1,.06-.12l-1.19-.09a.18.18,0,0,1,0,.07,16.52,16.52,0,0,1,0,6.07c-.09.38-.74.31-.69-.1a30.07,30.07,0,0,0,.24-3,25.66,25.66,0,0,1,0-2.91.21.21,0,0,1,.1-.15l-1.06-.09c-.12,2.18.18,4.43-.15,6.57a.24.24,0,0,1-.06.1,18.92,18.92,0,0,0,2.72-.16A45.7,45.7,0,0,1,124.16,113Z"/><path class="cls-1" d="M126.56,113a44.71,44.71,0,0,0,.36,5.55,10.12,10.12,0,0,0,1.34-.6c-.2-1.63-.23-3.28-.31-4.91Z"/><path class="cls-1" d="M129.63,113h-1.11c.13,1.48.3,2.95.53,4.42a6.82,6.82,0,0,0,.79-.63h0A10,10,0,0,1,129.63,113Z"/><path class="cls-1" d="M130.86,115.1c0-.7,0-1.4-.07-2.1h-.73a26.6,26.6,0,0,0,.46,3.08,6.85,6.85,0,0,0,.5-.7A.36.36,0,0,1,130.86,115.1Z"/><path class="cls-1" d="M76,86.24c-2.62-1.27-5-2.77-6.47-5.35-.09-.15-.17-.32-.25-.48-4.08,0-5.39,3.73-5.38,7.35A135.09,135.09,0,0,0,80.2,98,20,20,0,0,1,76.35,86.3.51.51,0,0,1,76,86.24Z"/><path class="cls-1" d="M37.39,43.72c.15-.22.3-.43.46-.64A56.22,56.22,0,0,0,27.5,34.4c-3.65-2.52-7.25-5.13-11-7.55a0,0,0,0,1,0,0,22.29,22.29,0,0,0-2.29.67C21.82,33,30.92,36.89,37.39,43.72Z"/><path class="cls-1" d="M20.38,40.61a104.45,104.45,0,0,1,15.13,6.56A20.24,20.24,0,0,1,36.61,45c-4.7-2.73-9.29-5.62-14-8.31-4.12-2.35-9.13-3.89-12.78-6.94l0-.06a20,20,0,0,0-2.53,1.94C16.32,36.9,27.5,39,35.56,45.94c.11.1,0,.29-.15.2-8.95-6-19.49-8.5-28.69-14l0,0a19.22,19.22,0,0,0-1.94,2.19l0,0C9.65,37.13,15.17,38.66,20.38,40.61Z"/><path class="cls-1" d="M36.77,44.72c.12-.21.24-.43.38-.64-6.8-6.74-16.06-10.67-23.75-16.27a21.56,21.56,0,0,0-2.93,1.45c3.77,2.8,8.43,4.46,12.5,6.79C27.68,38.76,32.19,41.79,36.77,44.72Z"/><path class="cls-1" d="M19.34,43.63c2.74.79,5.5,1.52,8.25,2.3,2.52.71,4.94,1.94,7.57,2.14l.18-.47c-5.24-2.45-10.62-4.51-16-6.52-5-1.85-10.27-3.31-14.92-6A.24.24,0,0,1,4.29,35,19,19,0,0,0,2.4,38.5a.25.25,0,0,1,.12,0C7.91,40.66,13.76,42,19.34,43.63Z"/><path class="cls-1" d="M15.37,62.94a27.45,27.45,0,0,0,8.64.5c3.25-.32,7.82-1.74,9.37-4.73a73,73,0,0,1-8.79,2.77C21.55,62.15,18.45,62.52,15.37,62.94Z"/><path class="cls-1" d="M33.8,56.11c0-.17,0-.34,0-.52C23.53,55,13.21,55,2.92,54.24a15.53,15.53,0,0,0,1,1.56c4.84.33,9.68.56,14.54.62C23.55,56.49,28.68,56.09,33.8,56.11Z"/><path class="cls-1" d="M33.81,31.65c1.17,1.72,2.13,3.6,3.15,5.43A16,16,0,0,0,33.81,31.65Z"/><path class="cls-1" d="M41,50.66a4.45,4.45,0,0,1,2.85.35A5.77,5.77,0,0,1,46,48c-2.91-1.62-3.36-5.74-1.9-8.74a42.42,42.42,0,0,0-4.52,4,.44.44,0,0,1,0,.63A4,4,0,0,0,41,50.66Z"/><path class="cls-1" d="M32.49,33.86c1.71,2,3.62,4,5.21,6.18-.09-.54-.2-1.06-.33-1.58-2.34-3.4-4.08-7.6-7.57-10a17.09,17.09,0,0,0-4.43-1.67C27.75,29.17,30.3,31.33,32.49,33.86Z"/><path class="cls-1" d="M38,42.79c0-.63-.06-1.25-.13-1.86-1.76-2.31-3.92-4.43-5.78-6.62-2.36-2.77-5.21-5-7.76-7.6a.42.42,0,0,1-.08-.12,19.85,19.85,0,0,0-6.66,0c3.76,2.36,7.35,5.09,11,7.66A45.45,45.45,0,0,1,38,42.79Z"/><path class="cls-1" d="M7.59,59.55a20.53,20.53,0,0,0,6.27,3,.34.34,0,0,1,.31-.31c3.41-.51,6.83-.87,10.21-1.54,3.1-.61,6.1-1.83,9.18-2.41a3.55,3.55,0,0,0,.22-.65,107.94,107.94,0,0,1-12,1.38A133.75,133.75,0,0,1,7.59,59.55Z"/><path class="cls-1" d="M39.84,51c-2.23-.83-3-3.47-2.29-5.69A22.86,22.86,0,0,0,35,55.14c.17.4.34.8.52,1.19A7.22,7.22,0,0,1,39.84,51Z"/><path class="cls-1" d="M28.94,47.06c-2.9-1-5.94-1.62-8.89-2.44C14.17,43,8,41.54,2.3,39.3l-.16-.1a20.67,20.67,0,0,0-.91,3.39.38.38,0,0,1,.26-.06c5.51,1,10.93,2.33,16.44,3.25S29.15,48.21,34.82,49l.19-.54C32.91,48.61,30.9,47.72,28.94,47.06Z"/><path class="cls-1" d="M1.32,43.16a.3.3,0,0,1-.17-.11,18.86,18.86,0,0,0-.22,3.27.48.48,0,0,1,.36-.07c5.8,1.22,11.77,1.54,17.66,2.06,4.95.44,10.76.37,15.45,2.16,0,0,0,0,0,0,.09-.37.19-.73.3-1.1-5.38-.54-10.67-1.92-16-2.78C12.85,45.67,7.11,44.45,1.32,43.16Z"/><path class="cls-1" d="M46.85,61.57a10.15,10.15,0,0,1-3.25-9.8c-3.49-.61-8,2.19-6.8,6.16a.52.52,0,0,1-.21.63,56,56,0,0,0,5.14,8C41.51,64,44.12,61.9,46.85,61.57Z"/><path class="cls-1" d="M55.6,67.76a6.55,6.55,0,0,1-2.72-4.61.42.42,0,0,1-.16,0A8.81,8.81,0,0,1,47.46,62c-2.93.32-5.64,3.13-4,6.07a.53.53,0,0,1-.06.63,95.46,95.46,0,0,0,8.7,9.16C51.16,74.43,52.84,70.27,55.6,67.76Z"/><path class="cls-1" d="M1,47.19l-.06,0a17.83,17.83,0,0,0,.28,2.3l.1,0c5.49.33,11,1,16.42,1.51s10.94.44,16.37.94c.06-.35.12-.71.2-1h-.05C23.29,49,12,49.45,1,47.19Z"/><path class="cls-1" d="M18.74,51.93C13,51.46,7.22,50.87,1.45,50.38a16.91,16.91,0,0,0,1,3c5.14.07,10.27.54,15.41.74a112.49,112.49,0,0,1,15.88,1.19,3.43,3.43,0,0,0-.09-.44.48.48,0,0,1,.16-.54c0-.12,0-.23,0-.34-.65.49-2.06.11-2.79,0-3.27-.24-6.57-.2-9.84-.25A132.22,132.22,0,0,1,2.48,52.53c-.57-.1-.32-.94.23-.86a174.21,174.21,0,0,0,18.54,1.26c2.88.07,5.76.14,8.64.39.49,0,3.75.7,4,.43h0c.05-.49.09-1,.16-1.44C29.07,53,23.74,52.34,18.74,51.93Z"/><path class="cls-1" d="M4.57,56.71c.21.26.41.52.64.77A16.35,16.35,0,0,0,6.84,59a.36.36,0,0,1,.32-.2c4.53-.19,9.07-.22,13.61-.49,4.35-.25,8.7-.77,13.06-.88a4.82,4.82,0,0,0,.08-.86l0-.06C24.34,58,14.16,57.43,4.57,56.71Z"/><path class="cls-2" d="M165.23,18.91c-7-5.07-15.15-10-23.82-11.94C138.86,1.17,130.66-.4,125,.08c-6,.51-12.86,3.17-14.37,9.65a.54.54,0,0,0,0,.22,3.59,3.59,0,0,0-.23,1.27.42.42,0,0,0,.09.25l-2.29.65q-14.82,4.29-29.29,9.72c-7.52,2.83-15.15,5.6-22.45,8.94-6.39,2.92-12.56,6.43-17.55,11.4h0A.15.15,0,0,0,39,42l-.08-.13C38.5,35.53,35.4,29.67,29.35,27a21.51,21.51,0,0,0-18.9,1C-2.4,35.22-4.36,55.48,10,62.2a25.69,25.69,0,0,0,17.92,1.57c3.22-1,6.35-3.07,7-6.2.53,1.08,1.1,2.14,1.72,3.16C42.79,70.91,51.67,79.77,61.1,87c.54.42,1.11.82,1.67,1.23a.59.59,0,0,0,.63.47,144.39,144.39,0,0,0,24.77,14.55.52.52,0,0,0,.42.18c2.24,1,4.49,2,6.76,2.89,3.2,1.25,6.48,2.34,9.81,3.27,1.24,3.47,3,6.73,6.39,8.51a20.43,20.43,0,0,0,8.9,2.31,21.6,21.6,0,0,0,4.13-.27.52.52,0,0,0,.58-.12c3.77-.77,7.17-2.81,7.47-7a68,68,0,0,0,33.21-9.75c9.37-5.75,17.65-14.06,21.76-24.42a45.88,45.88,0,0,0-.42-34.43C182.67,33.61,174.55,25.65,165.23,18.91ZM140.59,6.81l-.31,0s0,0,0-.07,0-.26-.08-.39C140.34,6.46,140.47,6.64,140.59,6.81Zm-1.35-1.58c.08.45.12.91.19,1.37l-.51-.08a.41.41,0,0,0,0-.19c-.11-.44-.31-.85-.42-1.29,0-.19-.08-.38-.11-.58A10.36,10.36,0,0,1,139.24,5.23ZM137.8,4a6.6,6.6,0,0,0,.35,2.43l-.62-.08a.37.37,0,0,0,.25-.44c-.13-.74-.3-1.49-.46-2.24Zm-1-.66a.28.28,0,0,0,0,.13,10.1,10.1,0,0,0,.32,2.64.42.42,0,0,0,.18.21c-.34,0-.69-.06-1-.08a.37.37,0,0,0,0-.21c-.19-1.09-.44-2.18-.59-3.28,0,0,0,0,0,0C136,2.91,136.41,3.12,136.79,3.34Zm-7.64-2.26a33.63,33.63,0,0,0,.24,5,.38.38,0,0,0,.75,0,26.62,26.62,0,0,0-.63-5c.55.06,1.11.13,1.65.23,0,1.34,0,2.66-.13,4-.05.57.82.55.88,0a23.82,23.82,0,0,0,0-3.87c.29.06.57.12.84.2,0,1.3-.09,2.62,0,3.92,0,.59,1,.59.93,0-.1-1.25-.18-2.48-.23-3.73a16.76,16.76,0,0,1,2,.74.2.2,0,0,0-.17.19c0,1.12.17,2.23.23,3.34a.14.14,0,0,1,0,.06c-1,0-2,0-3,0,0,0,0,0-.05,0a31.75,31.75,0,0,0-3.24.34.46.46,0,0,0,.14-.44c-.32-1.7-.59-3.4-.83-5.11ZM127.93,1a38.56,38.56,0,0,0,.51,5.25.45.45,0,0,0,.29.39l-1.21.21c-.29-2-.75-3.89-1-5.87C127,1,127.46,1,127.93,1Zm-2.58,0h.49c.18,2,.45,4,.81,6l-.24,0v0C126,5,125.21,3.17,125.35,1Zm-.55.05c-.45,2,.27,4.31.73,6.21l-.66.16A.48.48,0,0,0,125,7c-.32-2-.86-3.87-1.2-5.83C124.16,1.15,124.48,1.11,124.8,1.09ZM103.92,102.5c-4.65-.19-8.85-2.62-9.55-7.5-.52-3.66.79-7.37,4.77-7.24a10.92,10.92,0,0,0,7.55,6C103.89,95.49,103.28,99,103.92,102.5ZM63.05,65.93A6.77,6.77,0,0,0,56.53,67c-4.84-4.36-1.46-12,3.79-13.33a.62.62,0,0,0,.93-.17,6.71,6.71,0,0,1,4,.89C63,57.2,61.72,62.15,63.05,65.93ZM52.82,62.26c-2.52-.64-5.2-.54-6.82-3a9.35,9.35,0,0,1-1.46-4.38c-.18-2.61.39-5.36,2.42-6.48l.1,0a.54.54,0,0,0,.69-.36A5,5,0,0,1,49,47.87c.72,3.78,2.75,7.17,6.15,8.13A10.2,10.2,0,0,0,52.82,62.26ZM73.12,42c-1.34-2.46-3.76-3-6.09-2.45-3.44-3.65,2-11.23,6.56-9h.08A7,7,0,0,0,74,36.29a11.82,11.82,0,0,0,3.12,4c-4,.66-6.75,3.94-6.66,8.7A14.1,14.1,0,0,0,71,52.66c-2-1.09-4-.29-5.55,1.47a6.63,6.63,0,0,0-4.37-1.47c-2.43-4.4,1.13-10.46,5.5-12a.56.56,0,0,0,.48-.14,5.58,5.58,0,0,1,5.76,1.7A.17.17,0,0,0,73.12,42ZM85,41.5a8.68,8.68,0,0,1-4.46-.67c.27,0,.38-.42.08-.48a10.41,10.41,0,0,0-1.33-.15c-5.21-3.08-7.78-10.48-.56-13.12.72,2.54,2.76,4.85,5.15,4.71A15.11,15.11,0,0,0,85,41.5ZM100.3,32a13.48,13.48,0,0,0,5,6.94,8.77,8.77,0,0,0-7.68,4.22c-2.64-1.87-5.76-.84-8,1.16h0c-9-3.73-5.27-23.32,5.15-20.58,1,3,3.32,5.43,5.44,4.16A7.91,7.91,0,0,0,100.3,32Zm.41,23.5c-3.38.25-6.71,1.72-8.41,4.4a9.38,9.38,0,0,0-2.65-1.12.62.62,0,0,0-.25-.55c-6.58-5,.44-17.67,8.09-14.79a8.86,8.86,0,0,0-1.1,2.88C95.76,49.82,97.73,53.42,100.71,55.46Zm5.41,19a10.46,10.46,0,0,0-2.85.14c-5.69-.47-11.82-4.8-11.06-11,.66-5.25,5.62-7.53,10.33-7.19a8.55,8.55,0,0,0,3.31.67.48.48,0,0,0,.46-.29A161.63,161.63,0,0,0,106.12,74.45ZM88,58.57a7.17,7.17,0,0,0-5.2,2.55C76.9,59.74,71.87,56,71.57,49.48c-.21-4.62,2.06-8.19,6.17-8.72a9.86,9.86,0,0,0,8,1.79,8,8,0,0,0,3.07,2.6,10.82,10.82,0,0,0-1.19,1.57C85.24,50.5,84.74,55.39,88,58.57Zm-24.18.87c.81-3.42,3.35-7.92,7.41-6.18,1.61,4.62,5.71,7.57,10.76,8.87A12.88,12.88,0,0,0,80.46,65c-4.16-2.47-9.79.34-11.7,4.58C64.29,68.28,62.8,63.77,63.82,59.44Zm8.79,7.11c2.22-1.41,5.21-2.32,7.66-1.07C79,69.18,79,73.61,81,76.72a7.22,7.22,0,0,0-3.89,4.81,17,17,0,0,0-.73,3.55c-4.78-2.4-7.25-5.84-7.22-11.41C69.21,70.8,70.05,68.17,72.61,66.55ZM83.1,62.39l.09,0a.62.62,0,0,0,.66-.89A6.49,6.49,0,0,1,92,60.4a7.83,7.83,0,0,0-.87,3.82,10.45,10.45,0,0,0,1.15,4.58c-4.07-1.3-6.19,3.43-6.65,7.29,0,.28-.05.56-.07.84a6.21,6.21,0,0,0-3.29-.54C79.53,72.5,80.24,66.11,83.1,62.39Zm3.52,15.07h0c.22-3.59,1.57-9.65,6.22-7.64A13.23,13.23,0,0,0,101,75.38c-3.71,2.12-4.14,7.3-2.23,11.65a5.08,5.08,0,0,0-4.38,2.1c-5.35-1.26-8-6-7.81-11.15A.3.3,0,0,0,86.62,77.46Zm23.12,16.41a.49.49,0,0,0,.18-.08,129,129,0,0,0,7.74,17.33,92.07,92.07,0,0,1-9.42-1.82C104.42,104.93,102.15,95,109.74,93.87Zm-.14-1.06a9.7,9.7,0,0,1-9.55-5.06.35.35,0,0,0-.11-.61,1.6,1.6,0,0,1-.23,0,11.21,11.21,0,0,1-1-2.75c-.89-4.11.66-7.71,4.13-8.7a12.69,12.69,0,0,0,3.31-.15c.14,2.11.36,4.2.68,6.25a67.07,67.07,0,0,0,2.73,11Zm-3.16-38.37c0,.67-.07,1.35-.11,2a.51.51,0,0,0-.34-.37,12,12,0,0,0-3-.62C99.28,54,96.26,49.82,97.47,46c1.27-4,5.2-7.42,9.35-6.16.2.11.39.23.59.32a.63.63,0,0,0,.35.05c.11,0,.22.09.33.15h0A109.35,109.35,0,0,0,106.44,54.44ZM108,39.07c-5.71-2.68-8.59-9-5.26-14.64,2.64-4.46,7.52-7.56,12.29-4.15a64.32,64.32,0,0,0-6.76,19.07A.56.56,0,0,0,108,39.07Zm4.24-20.91a.51.51,0,0,0-.14-.6c-2.82-2.56,1.36-5.89,3.76-6.7l3.81-1.1a.44.44,0,0,0,.5-.14L122,9.1c.93-.28,1.86-.54,2.79-.79a44.37,44.37,0,0,0-9.49,11.54A7.22,7.22,0,0,0,112.27,18.16Zm11-16.89a60.4,60.4,0,0,0,.86,6,.34.34,0,0,0,.27.3l-.46.13a.92.92,0,0,0,0-.16c-.48-2-1-4.06-1.48-6.11C122.75,1.36,123,1.31,123.3,1.27Zm-1,.19c.11,2.08.62,4.11.88,6.18a.58.58,0,0,0,.11.25l-.56.15a.33.33,0,0,0,0-.14c-.4-2.1-1.2-4.06-1.55-6.17C121.5,1.63,121.88,1.54,122.25,1.46Zm-1.56.4c-.08,2.1.75,4.25,1.15,6.27a.31.31,0,0,0,.06.13l-.71.2a.61.61,0,0,0,0-.24c-.28-2-1-3.94-1.27-6a.53.53,0,0,0,0-.15Zm-1.44.48c.22,2.07.77,4.08,1.06,6.13a.41.41,0,0,0,.09.21l-.23.07c-.32-2-1-4-1.35-6a.2.2,0,0,0-.17-.15Zm-.85.36a.18.18,0,0,0,0,.1c.08,2.09.66,4.13.93,6.2h-.06c-.17-2-1.07-4-1.45-6Zm-1.18.58a52,52,0,0,0,1.16,6l-.39.11s0,0,0,0c-.44-1.91-1-3.78-1.37-5.71Zm-1.09.66c.22,1.9.6,3.78,1,5.65v0l-1.72.48a.32.32,0,0,0,.06-.2A29.22,29.22,0,0,0,114.82,5,12.21,12.21,0,0,1,116.13,3.94Zm-1.81,1.51a27.4,27.4,0,0,0,.33,4.44.41.41,0,0,0,.24.35l-.63.18c-.18-1.29-.8-2.49-.92-3.81A9.86,9.86,0,0,1,114.32,5.45Zm-2.9,5a.5.5,0,0,0,.36-.39,9.14,9.14,0,0,1,1-2.62,13,13,0,0,0,.6,3.23l-2,.57A6.94,6.94,0,0,0,111.42,10.43Zm-7.31,4a.67.67,0,0,0,.15-.14c1.4-.43,2.8-.87,4.21-1.28l3.79-1.09c-1.88,1.61-3,4.13-1.37,6a7.79,7.79,0,0,0-3.44.66C105.69,18.18,101.92,15.8,104.11,14.42Zm-7.19,2.5a.36.36,0,0,0,.14-.36q2.64-.87,5.29-1.7c-.35,1.6,2.14,3.57,4.14,4.21a12.34,12.34,0,0,0-4.7,4.78,15.61,15.61,0,0,0-1.4,3.38c-2.33,1.21-4.18-2.11-4.73-3.93C95,21,94.92,18.55,96.92,16.92ZM80.55,22.56a.36.36,0,0,0,.15-.28l.32-.12q7.11-2.65,14.3-5c-1.21,1.5-1.3,3.79-.74,5.91-5.27-2.2-9.24,2.46-10.53,8.15,0,0,0,0-.08,0C80.61,31,77.75,24.89,80.55,22.56ZM65.19,28.44a.47.47,0,0,0,.12-.2q6.84-2.77,13.75-5.34a5.26,5.26,0,0,0-.4,3.7,7,7,0,0,0-4.8,3.54c-2.59-2.06-5.59-.46-7.36,2.17C65.22,31.53,64,29.7,65.19,28.44Zm-7.44,3,.71-.32c1.78-.78,3.58-1.53,5.38-2.28-.47,1.59.71,3.41,2.27,4.1-1.27,2.25-1.66,5.05-.27,7A9.58,9.58,0,0,0,63,41.67a1.36,1.36,0,0,0-.12.12C58.14,41.86,55,35.21,57.75,31.44Zm4.55,10.9c-2.74,2.8-4.29,6.88-2.47,10.52A8.42,8.42,0,0,0,56,55.07h0c-8-1.72-8.83-19-.11-19.06C56.4,39.49,58.87,42.86,62.3,42.34ZM45.75,38a69.69,69.69,0,0,1,10.43-5.86,7.65,7.65,0,0,0-.37,3.33c-5.41-1-7.79,5.71-6.9,11.75a5.07,5.07,0,0,0-1.42.1.29.29,0,0,0-.11-.06C43.32,46.11,43.87,41,45.75,38Zm-6.19,5.8a.44.44,0,0,0,0-.63,42.42,42.42,0,0,1,4.52-4c-1.46,3-1,7.12,1.9,8.74a5.77,5.77,0,0,0-2.19,3A4.45,4.45,0,0,0,41,50.66,4,4,0,0,1,39.56,43.81ZM37,37.08c-1-1.83-2-3.71-3.15-5.43A16,16,0,0,1,37,37.08ZM29.8,28.49c3.49,2.37,5.23,6.57,7.57,10,.13.52.24,1,.33,1.58-1.59-2.16-3.5-4.2-5.21-6.18-2.19-2.53-4.74-4.69-7.12-7A17.09,17.09,0,0,1,29.8,28.49Zm-5.59-1.9a.42.42,0,0,0,.08.12c2.55,2.58,5.4,4.83,7.76,7.6,1.86,2.19,4,4.31,5.78,6.62.07.61.11,1.23.13,1.86a45.45,45.45,0,0,0-9.44-8.5c-3.62-2.57-7.21-5.3-11-7.66A19.85,19.85,0,0,1,24.21,26.59Zm-7.69.24a0,0,0,0,0,0,0c3.72,2.42,7.32,5,11,7.55a56.22,56.22,0,0,1,10.35,8.68c-.16.21-.31.42-.46.64C30.92,36.89,21.82,33,14.23,27.5A22.29,22.29,0,0,1,16.52,26.83Zm-3.12,1c7.69,5.6,17,9.53,23.75,16.27-.14.21-.26.43-.38.64-4.58-2.93-9.09-6-13.8-8.67-4.07-2.33-8.73-4-12.5-6.79A21.56,21.56,0,0,1,13.4,27.81ZM6.7,32.14l0,0c9.2,5.48,19.74,8,28.69,14,.12.09.26-.1.15-.2C27.5,39,16.32,36.9,7.25,31.62a20,20,0,0,1,2.53-1.94l0,.06c3.65,3.05,8.66,4.59,12.78,6.94,4.72,2.69,9.31,5.58,14,8.31a20.24,20.24,0,0,0-1.1,2.18,104.45,104.45,0,0,0-15.13-6.56c-5.21-2-10.73-3.48-15.57-6.26l0,0A19.22,19.22,0,0,1,6.7,32.14ZM4.29,35a.24.24,0,0,0,.09.08c4.65,2.68,9.91,4.14,14.92,6,5.42,2,10.8,4.07,16,6.52l-.18.47c-2.63-.2-5-1.43-7.57-2.14-2.75-.78-5.51-1.51-8.25-2.3-5.58-1.61-11.43-3-16.82-5.11a.25.25,0,0,0-.12,0A19,19,0,0,1,4.29,35ZM2.92,54.24c10.29.71,20.61.78,30.9,1.35,0,.18,0,.35,0,.52-5.12,0-10.25.38-15.38.31-4.86-.06-9.7-.29-14.54-.62A15.53,15.53,0,0,1,2.92,54.24ZM24,63.44a27.45,27.45,0,0,1-8.64-.5c3.08-.42,6.18-.79,9.22-1.46a73,73,0,0,0,8.79-2.77C31.83,61.7,27.26,63.12,24,63.44Zm9.55-5.14c-3.08.58-6.08,1.8-9.18,2.41-3.38.67-6.8,1-10.21,1.54a.34.34,0,0,0-.31.31,20.53,20.53,0,0,1-6.27-3A133.75,133.75,0,0,0,21.74,59a107.94,107.94,0,0,0,12-1.38A3.55,3.55,0,0,1,33.56,58.3Zm.27-.9c-4.36.11-8.71.63-13.06.88-4.54.27-9.08.3-13.61.49a.36.36,0,0,0-.32.2,16.35,16.35,0,0,1-1.63-1.49c-.23-.25-.43-.51-.64-.77,9.59.72,19.77,1.28,29.29-.23l0,.06A4.82,4.82,0,0,1,33.83,57.4Zm.07-3.65h0c-.24.27-3.5-.39-4-.43-2.88-.25-5.76-.32-8.64-.39A174.21,174.21,0,0,1,2.71,51.67c-.55-.08-.8.76-.23.86a132.22,132.22,0,0,0,18.77,1.26c3.27.05,6.57,0,9.84.25.73.06,2.14.44,2.79,0,0,.11,0,.22,0,.34a.48.48,0,0,0-.16.54,3.43,3.43,0,0,1,.09.44A112.49,112.49,0,0,0,17.9,54.12c-5.14-.2-10.27-.67-15.41-.74a16.91,16.91,0,0,1-1-3c5.77.49,11.53,1.08,17.29,1.55,5,.41,10.33,1,15.32.38C34,52.78,34,53.26,33.9,53.75Zm.24-1.86c-5.43-.5-10.92-.42-16.37-.94S6.84,49.77,1.35,49.44l-.1,0A17.83,17.83,0,0,1,1,47.16l.06,0C12,49.45,23.29,49,34.29,50.84h.05C34.26,51.18,34.2,51.54,34.14,51.89Zm.28-1.4s0,0,0,0C29.71,48.68,23.9,48.75,19,48.31c-5.89-.52-11.86-.84-17.66-2.06a.48.48,0,0,0-.36.07,18.86,18.86,0,0,1,.22-3.27.3.3,0,0,0,.17.11c5.79,1.29,11.53,2.51,17.39,3.45,5.34.86,10.63,2.24,16,2.78C34.61,49.76,34.51,50.12,34.42,50.49Zm.4-1.46c-5.67-.82-11.24-2.31-16.89-3.25S7,43.49,1.49,42.53a.38.38,0,0,0-.26.06,20.67,20.67,0,0,1,.91-3.39l.16.1C8,41.54,14.17,43,20.05,44.62c2.95.82,6,1.47,8.89,2.44,2,.66,4,1.55,6.07,1.43ZM35,55.14a22.86,22.86,0,0,1,2.56-9.84c-.69,2.22.06,4.86,2.29,5.69a7.22,7.22,0,0,0-4.33,5.34C35.33,55.94,35.16,55.54,35,55.14Zm1.6,3.42a.52.52,0,0,0,.21-.63c-1.21-4,3.31-6.77,6.8-6.16a10.15,10.15,0,0,0,3.25,9.8c-2.73.33-5.34,2.43-5.12,5A56,56,0,0,1,36.59,58.56ZM43.4,68.69a.53.53,0,0,0,.06-.63c-1.64-2.94,1.07-5.75,4-6.07a8.81,8.81,0,0,0,5.26,1.2.42.42,0,0,0,.16,0,6.55,6.55,0,0,0,2.72,4.61c-2.76,2.51-4.44,6.67-3.5,10.09A95.46,95.46,0,0,1,43.4,68.69ZM62.79,86.92c-1.46-1.11-2.9-2.25-4.3-3.42S55.52,81,54,79.63a.51.51,0,0,0-.07-.45C50.28,73.5,57,64.73,63.37,66.71a7.19,7.19,0,0,0,5,4,7.26,7.26,0,0,0-.22,1.11,16.81,16.81,0,0,0,.85,7.9C64.9,79.28,63.07,83.22,62.79,86.92Zm1.15.84c0-3.62,1.3-7.39,5.38-7.35.08.16.16.33.25.48C71.06,83.47,73.42,85,76,86.24a.51.51,0,0,0,.31.06A20,20,0,0,0,80.2,98,135.09,135.09,0,0,1,63.94,87.76Zm23.63,13.95q-2.86-1.35-5.7-2.84a.45.45,0,0,0,0-.57c-3.09-4.29-5.17-9.18-4.13-14.51.55-2.84,1.85-5.51,4-6.41a.71.71,0,0,0,.67-.21,5,5,0,0,1,3.15.41c-.19,5.6,2.29,11.21,8.28,12.61a8.31,8.31,0,0,0-.59,4.49c0,.28.09.54.14.8C90.16,95.09,87,98.59,87.57,101.71Zm5.17,2.35c-1.24-.54-2.48-1.1-3.72-1.67-1.23-2.76,1.51-6.5,4.51-6.13,1.31,4.77,5.45,7.41,10.65,7.41a16.78,16.78,0,0,0,2.33,5.19A98.88,98.88,0,0,1,92.74,104.06Zm14.17,6.73c-.12-.27-.24-.56-.35-.85.19.06.39.1.58.15C107.06,110.33,107,110.56,106.91,110.79Zm.35.8a.39.39,0,0,0,.37-.3c.06-.26.14-.53.21-.79l.36.37a.51.51,0,0,0,.33.13c-.18.61-.39,1.2-.62,1.79C107.68,112.4,107.46,112,107.26,111.59Zm1,1.72a.43.43,0,0,0,.47-.27,10.09,10.09,0,0,0,.45-2.45l1.28.29a32,32,0,0,0-.92,4.08A11.38,11.38,0,0,1,108.24,113.31Zm5.2,4.24a.54.54,0,0,0,0,.18,10.7,10.7,0,0,1-1.31-.66,11.13,11.13,0,0,1-1.87-1.37l.06-.11A19.4,19.4,0,0,0,111,111l1.44.29c-.31,1.6-.42,3.26-.69,4.86a.44.44,0,0,0,.84.23,16,16,0,0,0,.31-5l1.35.24A31.19,31.19,0,0,1,113.44,117.55Zm.81.52a.48.48,0,0,0,.16-.26,21.6,21.6,0,0,0,.46-6.06l1.72.27c-.39,2.06-.54,4.13-.89,6.21a.45.45,0,0,0,.07.33C115.25,118.42,114.75,118.25,114.25,118.07Zm3.44-3c-.07,1.27-.28,2.46-.47,3.71a.38.38,0,0,0,0,.15l-.79-.16a.35.35,0,0,0,.14-.25c.31-2.13,0-4.29.19-6.42l1.25.18A13.71,13.71,0,0,0,117.69,115Zm.34,4a6.53,6.53,0,0,0,.48-3.1c0-1.08,0-2.15,0-3.22a.61.61,0,0,0,.86-.3l.22,0c-.43,2.14-.66,4.38-1,6.54a.66.66,0,0,0,0,.14Zm2.92.19s0,.06,0,.09c-.36,0-.72,0-1.07-.06l-.41,0c.82-2,.69-4.53.7-6.71l1.09.11A23.73,23.73,0,0,0,121,119.22Zm.57.1a.24.24,0,0,0,.06-.1c.33-2.14,0-4.39.15-6.57l1.06.09a.21.21,0,0,0-.1.15,25.66,25.66,0,0,0,0,2.91,30.07,30.07,0,0,1-.24,3c0,.41.6.48.69.1a16.52,16.52,0,0,0,0-6.07.18.18,0,0,0,0-.07l1.19.09a.23.23,0,0,0-.06.12,45.7,45.7,0,0,0,.08,6.19A18.92,18.92,0,0,1,121.52,119.32Zm4.52-.53c-.28.08-.57.14-.86.2-.2-2-.49-4-.65-6a.19.19,0,0,0,0-.11c.54,0,1.08.06,1.62.08A32.65,32.65,0,0,0,126,118.79Zm.88-.28a44.71,44.71,0,0,1-.36-5.55l1.39,0c.08,1.63.11,3.28.31,4.91A10.12,10.12,0,0,1,126.92,118.51Zm2.13-1.08c-.23-1.47-.4-2.94-.53-4.42h1.11a10,10,0,0,0,.2,3.78h0A6.82,6.82,0,0,1,129.05,117.43Zm1.47-1.34a26.6,26.6,0,0,1-.46-3.08h.73c0,.7,0,1.4.07,2.1a.36.36,0,0,0,.16.29A6.85,6.85,0,0,1,130.52,116.09Zm1-1.56c-.09-.51-.17-1-.22-1.53l.72,0A8.14,8.14,0,0,1,131.48,114.53Zm56-38.1c-3.7,10.27-11.25,18.88-20.37,24.76-14.56,9.38-31.45,12.14-48,10.11C114.14,101.92,109.47,92,108,81.45c-1.23-8.79-1-18.16-.46-27,1-17.09,5.07-34.75,18.49-46.46A41,41,0,0,1,134,6.71c11,0,21.67,6.15,30.27,12.42,8.85,6.45,17.15,14,21.6,24.22S191.32,65.7,187.46,76.43Z"/><path class="cls-2" d="M158.47,37l0,0a.08.08,0,0,0-.13,0h0a1.76,1.76,0,0,0-.4.18c-.31,0-.66.1-.66.46a.41.41,0,0,0,.06.2.69.69,0,0,0,0,.69,1,1,0,0,0,1.31.35.91.91,0,0,0,.26-1.1C158.9,37.42,158.77,37.05,158.47,37Z"/><path class="cls-2" d="M181.05,60.5c-.24,0-.3.4-.05.43,2.15.31,4.13,1.93,4,4.3-.18,2.54-2.39,2.73-4.31,1.7-.51-.27-1.1.42-.64.83,1,.87,3.33,3.47,1.12,4.44-1.89.82-3.49-.91-4.26-2.43-.33-.63-1.29-.07-1,.56,1,1.92,3.71,4.34,6,2.66,1.75-1.29,1.26-3.11.18-4.57,1.76.21,3.44-.43,3.65-2.67A4.85,4.85,0,0,0,181.05,60.5Z"/><path class="cls-2" d="M128.35,6.15a34.79,34.79,0,0,1-.6-4.76.33.33,0,0,0-.65,0,34.51,34.51,0,0,0,.39,4.87A.44.44,0,1,0,128.35,6.15Z"/><path class="cls-2" d="M134.76,5.8c-.15-1.12-.23-2.24-.28-3.37a.18.18,0,0,0-.35,0,27.07,27.07,0,0,0,0,3.37C134.13,6.24,134.82,6.22,134.76,5.8Z"/></g></svg>