<svg xmlns="http://www.w3.org/2000/svg" viewBox="0 0 136.9 62.41"><defs><style>.cls-1{fill:#fff;}.cls-2{fill:#272525;}</style></defs><title>life</title><g id="color"><path class="cls-1" d="M57.27,22.55C53.19,25.35,49.1,28.12,45,30.9c1,1.73,2,3.44,3,5.18.42.73.82,1.47,1.22,2.21q5.82-4.38,11.83-8.49c-.66-1.35-1.34-2.69-2.09-4C58.39,24.72,57.8,23.64,57.27,22.55Z"/><path class="cls-1" d="M62.37,30.12C63.29,32,64.12,34,64.89,36c.51,1.31,1,2.65,1.5,4,3.18-2.86,6.32-5.75,9.65-8.38-1-2.86-1.83-5.74-2.57-8.66Q67.86,26.44,62.37,30.12Z"/><path class="cls-1" d="M64.18,37c-.81-2.17-1.69-4.27-2.66-6.34q-6,4.05-11.91,8.25c.52,1,1,2,1.43,3,.94,2.25,1.63,4.55,3.1,6.53a.45.45,0,0,1,.09.25l.79.33a90.65,90.65,0,0,0,10.51-8.38C65.09,39.47,64.64,38.24,64.18,37Z"/><path class="cls-1" d="M46.87,35.82c-.83-1.5-1.68-3-2.5-4.48q-5.85,4-11.67,8A58.77,58.77,0,0,0,42,43.91c2.14-1.71,4.3-3.38,6.48-5C48,37.85,47.43,36.83,46.87,35.82Z"/><path class="cls-1" d="M48.8,39.52c-2.11,1.51-4.23,3-6.33,4.58,2.13.84,4.22,1.62,6.17,2.38,1.29.51,2.57,1,3.84,1.55a36.76,36.76,0,0,1-2.16-5.11C49.86,41.76,49.35,40.63,48.8,39.52Z"/><path class="cls-1" d="M23.37,30.54c-.67-3.39-2-6.85-4.58-9.22-2.78-2.53-7.33-4-11-2.56a6.68,6.68,0,0,0-4.23,6.72c.34,3.44,3,5.45,6.31,5.84a.56.56,0,0,1,0,1.11C6.56,32.52-.31,34.63,0,39c.25,3.37,4.83,5.65,8.23,5a4.5,4.5,0,0,1,2.58-1.31.57.57,0,0,1,.55.94A5.24,5.24,0,0,1,9,44.88a4.64,4.64,0,0,0-.3,5.31c1.84,3.23,5.77,3,8.65,1.21,3.21-2,6-5.45,6.29-9.37.23-3.68-1-7.25-.82-10.93A.57.57,0,0,1,23.37,30.54Z"/><path class="cls-1" d="M40.38,22.62c-.1-.3.36-.41.47-.12A52.84,52.84,0,0,0,44.49,30c4.08-2.85,8.22-5.63,12.32-8.43a20.35,20.35,0,0,1-1.57-5.13c-.06-.36.49-.52.55-.16a20,20,0,0,0,1.65,4.86c2.44-1.68,4.88-3.36,7.27-5.09.57-.41,1.12.53.55.93-2.43,1.73-4.89,3.43-7.35,5.13.81,1.56,1.73,3.08,2.64,4.61.49.83.94,1.67,1.38,2.52q5.57-3.8,11.26-7.42c-.29-1.22-.57-2.45-.82-3.69-.06-.29.38-.41.44-.12.27,1.17.57,2.33.88,3.49,2.07-1.31,4.14-2.62,6.23-3.91.61-.37,1.16.59.56,1-2.18,1.32-4.34,2.67-6.49,4,.8,2.85,1.73,5.66,2.75,8.45A52,52,0,0,1,85,25.65c.64-.33,1.2.62.56,1a59.13,59.13,0,0,0-8.39,5.68c1.24,3.3,2.6,6.56,4,9.77a2,2,0,0,0,.1.21A81.32,81.32,0,0,1,89,37a83.81,83.81,0,0,1,2.21-22.37C92.26,9.94,93.36,3,97.76,0c-2.29.09-4.58.3-6.86.6C66.67,3.87,43.25,15.77,24.44,31.09a22.23,22.23,0,0,0,7.86,8c3.74-3.06,7.62-5.93,11.58-8.71A51.91,51.91,0,0,1,40.38,22.62Z"/><path class="cls-1" d="M80.39,43c-.17-.43-.36-.85-.54-1.27q-1.8-4.38-3.37-8.82c-3.29,2.65-6.42,5.52-9.64,8.26A96.59,96.59,0,0,0,71,50.91C74.05,48.21,77.16,45.5,80.39,43Z"/><path class="cls-1" d="M85.93,52.49c.36.8.68,1.62,1,2.44,1.51-1.14,3-2.3,4.46-3.5a71.85,71.85,0,0,1-2.24-12c0-.39-.05-.78-.07-1.16-2.52,1.6-4.91,3.36-7.25,5.19C83.18,46.47,84.59,49.46,85.93,52.49Z"/><path class="cls-1" d="M84.62,52.49c-1.31-2.75-2.53-5.53-3.72-8.33-3.17,2.53-6.28,5.15-9.47,7.65a37,37,0,0,0,3.08,4.9.52.52,0,0,1,.1.32c1.92.68,3.85,1.33,5.8,1.91l.86.24c1.54-1.18,3.1-2.34,4.66-3.5C85.52,54.61,85.11,53.53,84.62,52.49Z"/><path class="cls-1" d="M124.43,6.73c-7.79-5.27-16.85-7-26-6.7C94.12,4.16,93,10,91.89,15.67c-1.47,7.49-2.4,15.25-1.7,22.89a79.1,79.1,0,0,0,2.24,12.2c.46,0,.86.56.42.91l-.16.12a47.81,47.81,0,0,0,1.91,6c.52,1.26,1.26,3.3,2.66,3.85a.56.56,0,0,1,.36.65,44.48,44.48,0,0,0,19-2.42c5.23-2,10.41-4.86,14-9.29A28.94,28.94,0,0,0,136.48,37C138.27,25.47,134.33,13.41,124.43,6.73Zm-6.16,11.05c-1.74,3.22-6,4.06-9.32,2.71a.43.43,0,0,1-.35-.1l-.18-.14a6.64,6.64,0,0,1-2.92-2.73c-.06-.1-.09-.2-.14-.29a4.82,4.82,0,0,1-.78-4.18,6.86,6.86,0,0,1,5.51-5.29C115.08,6.86,121,12.84,118.27,17.78Z"/><path class="cls-1" d="M109.76,8.78l-.28.1a6.68,6.68,0,0,0-4.07,4.35,4.59,4.59,0,0,0-.06,1.34c.24,2.07,1.57,3.32,3,4.52,3.15,1.71,8.12,1.74,9.25-2.22C118.89,12.46,114.36,7.49,109.76,8.78Zm1.16,6a1.11,1.11,0,0,1-.18-1.17.84.84,0,0,1,1.09-.29c.53,0,1.12.15,1.1.73A1.17,1.17,0,0,1,110.92,14.8Z"/><path class="cls-1" d="M66,41.88A66,66,0,0,1,55.5,49.29c3.9,1.64,7.78,3.32,11.7,4.91l2.86-2.5A92,92,0,0,1,66,41.88Z"/><path class="cls-1" d="M67.88,54.48q2.46,1,5,1.91a38.39,38.39,0,0,1-2.35-3.85C69.62,53.2,68.75,53.84,67.88,54.48Z"/><path class="cls-1" d="M82,59.39c2.08.58,4.2,1.11,6.35,1.55a23.49,23.49,0,0,1-2.11-4.41C84.85,57.5,83.43,58.45,82,59.39Z"/><path class="cls-1" d="M91.88,53.27c-.06-.24-.12-.48-.19-.71q-2.18,1.68-4.42,3.26a21.14,21.14,0,0,0,2.78,5.38s0,.06,0,.09c1.89.35,3.8.63,5.71.82C93.47,60.4,92.47,55.43,91.88,53.27Z"/></g><g id="stroke"><path class="cls-2" d="M104-1C92.25-1.65,80.42,1,69.39,4.88A148.65,148.65,0,0,0,36.8,21.1a120.18,120.18,0,0,0-12.7,9.53c-.57-4.06-2.17-8.29-5.53-10.83S10.1,16.23,6.22,18.37a7.74,7.74,0,0,0-3.6,8,6.9,6.9,0,0,0,4.44,5.3c-4.24,1-8.82,3.76-8,8.38.57,3.35,4.84,5.29,8.45,5.06a6.2,6.2,0,0,0,5.25,8.73c4.4.31,8.41-3.38,10.51-6.87,2.74-4.58,1-9.46.76-14.35C28.74,40.36,38.71,43.85,46.73,47c6.63,2.6,13.14,5.5,19.74,8.17a.28.28,0,0,0,.29.12c4.38,1.76,8.81,3.42,13.34,4.79l.47.14.07,0c11.53,3.43,23.94,4.89,35.55,1,10.14-3.39,17.9-10.48,20.75-20.91,2.52-9.22,1-20.59-5.09-28.16C125.1,3.71,114.57-.37,104-1ZM23.63,42c-.25,3.92-3.08,7.37-6.29,9.37-2.88,1.79-6.81,2-8.65-1.21A4.64,4.64,0,0,1,9,44.88a5.24,5.24,0,0,0,2.38-1.28.57.57,0,0,0-.55-.94A4.5,4.5,0,0,0,8.24,44c-3.4.67-8-1.61-8.23-5-.32-4.36,6.55-6.47,9.87-6.56a.56.56,0,0,0,0-1.11c-3.29-.39-6-2.4-6.31-5.84A6.68,6.68,0,0,1,7.8,18.76c3.66-1.48,8.21,0,11,2.56,2.61,2.37,3.91,5.83,4.58,9.22a.57.57,0,0,0-.56.56C22.67,34.78,23.86,38.35,23.63,42Zm.81-10.94C43.25,15.77,66.67,3.87,90.9.64c2.28-.3,4.57-.51,6.86-.6-4.4,2.92-5.5,9.9-6.55,14.57A83.81,83.81,0,0,0,89,37a81.32,81.32,0,0,0-7.69,5.29,2,2,0,0,1-.1-.21c-1.4-3.21-2.76-6.47-4-9.77a59.13,59.13,0,0,1,8.39-5.68c.64-.34.08-1.29-.56-1A52,52,0,0,0,76.74,31c-1-2.79-1.95-5.6-2.75-8.45,2.15-1.35,4.31-2.7,6.49-4,.6-.37,0-1.33-.56-1-2.09,1.29-4.16,2.6-6.23,3.91-.31-1.16-.61-2.32-.88-3.49-.06-.29-.5-.17-.44.12.25,1.24.53,2.47.82,3.69q-5.68,3.63-11.26,7.42c-.44-.85-.89-1.69-1.38-2.52-.91-1.53-1.83-3.05-2.64-4.61,2.46-1.7,4.92-3.4,7.35-5.13.57-.4,0-1.34-.55-.93-2.39,1.73-4.83,3.41-7.27,5.09a20,20,0,0,1-1.65-4.86c-.06-.36-.61-.2-.55.16a20.35,20.35,0,0,0,1.57,5.13c-4.1,2.8-8.24,5.58-12.32,8.43a52.84,52.84,0,0,1-3.64-7.49c-.11-.29-.57-.18-.47.12a51.91,51.91,0,0,0,3.5,7.79c-4,2.78-7.84,5.65-11.58,8.71A22.23,22.23,0,0,1,24.44,31.09Zm64.71,8.32a71.85,71.85,0,0,0,2.24,12c-1.46,1.2-3,2.36-4.46,3.5-.32-.82-.64-1.64-1-2.44-1.34-3-2.75-6-4.1-9.05,2.34-1.83,4.73-3.59,7.25-5.19C89.1,38.63,89.11,39,89.15,39.41ZM76.48,32.88Q78,37.32,79.85,41.7c.18.42.37.84.54,1.27-3.23,2.53-6.34,5.24-9.42,7.94a96.59,96.59,0,0,1-4.13-9.77C70.06,38.4,73.19,35.53,76.48,32.88ZM66.39,39.94c-.5-1.34-1-2.68-1.5-4-.77-2-1.6-3.92-2.52-5.83q5.49-3.68,11.1-7.22c.74,2.92,1.6,5.8,2.57,8.66C72.71,34.19,69.57,37.08,66.39,39.94ZM61.09,29.8q-6,4.12-11.83,8.49c-.4-.74-.8-1.48-1.22-2.21-1-1.74-2-3.45-3-5.18,4.09-2.78,8.18-5.55,12.26-8.35.53,1.09,1.12,2.17,1.73,3.25C59.75,27.11,60.43,28.45,61.09,29.8ZM32.7,39.38q5.8-4.08,11.67-8c.82,1.5,1.67,3,2.5,4.48.56,1,1.1,2,1.61,3.06-2.18,1.65-4.34,3.32-6.48,5A58.77,58.77,0,0,1,32.7,39.38Zm15.94,7.1c-2-.76-4-1.54-6.17-2.38,2.1-1.54,4.22-3.07,6.33-4.58.55,1.11,1.06,2.24,1.52,3.4A36.76,36.76,0,0,0,52.48,48C51.21,47.51,49.93,47,48.64,46.48Zm5.59,2.28a.45.45,0,0,0-.09-.25C52.67,46.53,52,44.23,51,42c-.43-1-.91-2-1.43-3q5.89-4.2,11.91-8.25c1,2.07,1.85,4.17,2.66,6.34.46,1.21.91,2.44,1.35,3.68A90.65,90.65,0,0,1,55,49.09Zm1.27.53A66,66,0,0,0,66,41.88a92,92,0,0,0,4.1,9.82L67.2,54.2C63.28,52.61,59.4,50.93,55.5,49.29Zm12.38,5.19c.87-.64,1.74-1.28,2.6-1.94a38.39,38.39,0,0,0,2.35,3.85Q70.34,55.48,67.88,54.48Zm12.53,4.46c-2-.58-3.88-1.23-5.8-1.91a.52.52,0,0,0-.1-.32,37,37,0,0,1-3.08-4.9c3.19-2.5,6.3-5.12,9.47-7.65,1.19,2.8,2.41,5.58,3.72,8.33.49,1,.9,2.12,1.31,3.19-1.56,1.16-3.12,2.32-4.66,3.5Zm1.6.45c1.42-.94,2.84-1.89,4.24-2.86a23.49,23.49,0,0,0,2.11,4.41C86.21,60.5,84.09,60,82,59.39Zm8.08,1.9s0-.06,0-.09a21.14,21.14,0,0,1-2.78-5.38q2.25-1.57,4.42-3.26c.07.23.13.47.19.71.59,2.16,1.59,7.13,3.92,8.84C93.89,61.92,92,61.64,90.09,61.29ZM136.48,37a28.94,28.94,0,0,1-5.93,13.56c-3.54,4.43-8.72,7.31-14,9.29a44.48,44.48,0,0,1-19,2.42.56.56,0,0,0-.36-.65c-1.4-.55-2.14-2.59-2.66-3.85a47.81,47.81,0,0,1-1.91-6l.16-.12c.44-.35,0-.91-.42-.91a79.1,79.1,0,0,1-2.24-12.2c-.7-7.64.23-15.4,1.7-22.89C93,10,94.12,4.16,98.43,0c9.15-.26,18.21,1.43,26,6.7C134.33,13.41,138.27,25.47,136.48,37Z"/><path class="cls-2" d="M110.09,7.76a6.86,6.86,0,0,0-5.51,5.29,4.82,4.82,0,0,0,.78,4.18c0,.09.08.19.14.29a6.64,6.64,0,0,0,2.92,2.73l.18.14a.43.43,0,0,0,.35.1c3.29,1.35,7.58.51,9.32-2.71C121,12.84,115.08,6.86,110.09,7.76Zm7.55,9.11c-1.13,4-6.1,3.93-9.25,2.22-1.47-1.2-2.8-2.45-3-4.52a4.59,4.59,0,0,1,.06-1.34,6.68,6.68,0,0,1,4.07-4.35l.28-.1C114.36,7.49,118.89,12.46,117.64,16.87Z"/><path class="cls-2" d="M111.83,13.34a.84.84,0,0,0-1.09.29,1.11,1.11,0,0,0,.18,1.17,1.17,1.17,0,0,0,2-.73C113,13.49,112.36,13.33,111.83,13.34Z"/></g></svg>