<svg xmlns="http://www.w3.org/2000/svg" viewBox="0 0 170.3 48.26"><defs><style>.cls-1{fill:#fff;}.cls-2{fill:#272525;}</style></defs><title>life</title><g id="stroke"><path class="cls-1" d="M20.91,22.13a4.17,4.17,0,0,1,0-1.32c-6.35.92-12.86,1.28-19.09,2.77a10.49,10.49,0,0,0-.68,2.57c6.26-2.23,13.22-1.91,19.57-4A.47.47,0,0,1,20.91,22.13Z"/><path class="cls-1" d="M21.09,23a.57.57,0,0,1-.13.08c-6.27,2.25-13.33,2.47-19.88,3.55a8.63,8.63,0,0,0,.08,2.15c6.79-1.28,13.45-3.38,20.12-5.2A4.89,4.89,0,0,1,21.09,23Z"/><path class="cls-1" d="M21.63,24.39c-3.3,1.19-6.85,1.84-10.25,2.73S4.69,28.8,1.28,29.36a9,9,0,0,0,.87,2.3c6.6-2.22,13.2-4.69,20-6.4C21.93,25,21.78,24.69,21.63,24.39Z"/><path class="cls-1" d="M22.66,26.11c-6.76,1.94-13.43,4.21-20.21,6a13.22,13.22,0,0,0,1.27,1.76c6.39-2.77,13.17-4.65,19.76-6.85A7.57,7.57,0,0,1,22.66,26.11Z"/><path class="cls-1" d="M24.34,27.82a.67.67,0,0,1-.2.12C17.49,30.21,10.72,32.15,4,34.25a10.83,10.83,0,0,0,1.23,1.13c6.47-2.43,12.82-5.21,19.41-7.32A3.65,3.65,0,0,1,24.34,27.82Z"/><path class="cls-1" d="M21.23,16.3a.44.44,0,0,1-.4.57c-4.62.24-9.35,1.81-14,.84a12.12,12.12,0,0,0-2.4,1.89c6.66-.59,13.28-2,20-2A19.12,19.12,0,0,0,21.23,16.3Z"/><path class="cls-1" d="M21.21,19.84a3.37,3.37,0,0,1,1.09-1.25c-6.09.39-12.16,1.82-18.24,1.46A12.29,12.29,0,0,0,2,23.23a28.15,28.15,0,0,1,8.32-1.81C14,21,17.57,20.37,21.21,19.84Z"/><path class="cls-1" d="M25.45,18.1a.35.35,0,0,1,0,.11h.2Z"/><path class="cls-1" d="M23.63,19c-3.21,1.26-1.41,5,.29,6.92,3.75-2.88,7.56-6.08,11.82-8.2a71.93,71.93,0,0,1-11.81,1A.49.49,0,0,1,23.63,19Z"/><path class="cls-1" d="M7.46,17.37c4.33.09,8.53-1,12.83-1.32A18.43,18.43,0,0,0,7.46,17.37Z"/><path class="cls-1" d="M26.65,29.16l-.71-.33c-6.77,2-13.23,5-20,7.09a11.11,11.11,0,0,0,3.37,1.52c2.8-1.73,6.1-2.86,9.08-4.25C21.19,31.89,23.92,30.54,26.65,29.16Z"/><path class="cls-1" d="M127,28.08c0-1.21,0-2.41.1-3.62.13-1.95.34-3.88.61-5.8-9,3.09-17.33,8.14-26,12.05-7.31,3.3-15.28,5.68-22.1,10,4,.8,8,1.54,12,2.19l2.45.38c10.6-5.65,21.53-11.14,32.86-15.17Z"/><path class="cls-1" d="M112.33,45.74c5.57.62,11.16,1.08,16.73,1.3a34.24,34.24,0,0,1-1.67-8.8C122.41,40.84,117.28,43.09,112.33,45.74Z"/><path class="cls-1" d="M127.27,36.38c-.12-2.34-.24-4.71-.28-7.07-11,3.87-21.11,9.6-31.81,14.12,5.42.84,10.89,1.61,16.38,2.23a.3.3,0,0,1,.07-.1c5-3.27,10.4-5.79,15.68-8.47C127.3,36.85,127.28,36.62,127.27,36.38Z"/><path class="cls-1" d="M169,21.65C167.36,15,162.42,10.22,156.57,7,149.1,2.76,140.79,1.26,132.36,1,131.12,6.47,129.78,12,129,17.5a.59.59,0,0,1-.11.69,68.81,68.81,0,0,0-.63,7.19c-.2,7-.33,15,2.14,21.72l.35,0c11,.35,24.51-.44,32.87-8.69C168,34.07,170.55,27.87,169,21.65ZM143.84,11.44a1.92,1.92,0,1,1,1.92-1.92A1.93,1.93,0,0,1,143.84,11.44Z"/><path class="cls-1" d="M27.78,29.84c-3.17,1.63-6.42,3.12-9.68,4.57a65.56,65.56,0,0,1-7.79,3.24c6.37,1.12,13.93-2.67,17.87-7.92l-.2-.07A.59.59,0,0,1,27.78,29.84Z"/><path class="cls-1" d="M127.89,17.39c.54-3.44,1.27-6.86,2.12-10.25a118.19,118.19,0,0,1-14.26,6.73c-6.1,2.57-12.13,5.31-18.17,8S85.67,27.14,79.81,30c-5.12,2.47-10.08,5.37-15.42,7.33,4.75,1.16,9.53,2.24,14.32,3.21C86.07,35.45,95,32.83,103,29,111.23,25.14,119.25,20.32,127.89,17.39Z"/><path class="cls-1" d="M37.68,17.4a.38.38,0,0,1-.2.53c-4.79,2.21-8.55,6-13.19,8.39,1.86,1.83,4.48,2.41,7,2.9l.46.09c7.49-5.23,14.77-10.85,22.43-15.83C48.7,15,43.21,16.4,37.68,17.4Z"/><path class="cls-1" d="M75.43,8.32q-4.11.88-8.2,1.8c-3.66.83-7.34,1.81-11,2.81a.46.46,0,0,1-.21.51c-7.91,5.13-15.16,11.42-23.39,16,3.55.7,7,1.46,10.54,2.29,5.86-4.16,11.55-8.5,17.22-12.92A130.76,130.76,0,0,1,75.43,8.32Z"/><path class="cls-1" d="M98,20.6c5.77-2.61,11.53-5.25,17.37-7.72a110.19,110.19,0,0,0,15-7.21h0c.4-1.56.82-3.12,1.26-4.67a137.91,137.91,0,0,0-15.92.73c-1.41.13-2.82.29-4.23.45a.45.45,0,0,1-.24.42c-9.87,5.84-20,11-30.08,16.48-9.09,4.91-18.56,9.64-27,15.6q4.8,1.28,9.59,2.46a.23.23,0,0,1,.12-.22c5.47-2.64,10.78-5.62,16.28-8.19C86.06,26,92,23.3,98,20.6Z"/><path class="cls-1" d="M80.71,18.26C90.38,13,100.06,7.92,109.55,2.38,98.9,3.64,88.34,5.58,77.84,7.8a.41.41,0,0,1-.23.38,166.08,166.08,0,0,0-17.37,12c-5.34,4.09-10.62,8.41-16.44,11.8,1.9.47,3.81,1,5.72,1.48l3.9,1.06c3.88-3.31,8.46-5.74,12.91-8.16C71.16,23.69,75.88,20.88,80.71,18.26Z"/><path class="cls-2" d="M137.67.42c-14.59-1.41-29.74,1-44.09,3.46C77.89,6.62,62.42,10.36,47,14.43a110.35,110.35,0,0,1-20.92,3.75.19.19,0,0,0,0-.24C16.7,10.48-4,16.51.7,30.89c1.89,5.74,8.09,8.38,13.72,8A19.64,19.64,0,0,0,29.26,30c2.4.6,5,.85,7.2,1.24C43.85,32.57,51.1,35,58.33,37c7.75,2.1,15.56,3.79,23.45,5.26a397.73,397.73,0,0,0,43.77,5.64c11.62.86,24.36.69,34.62-5.55,9.08-5.52,12.94-16.29,7.88-25.89C162.49,5.89,148.72,1.5,137.67.42ZM35.74,17.73c-4.26,2.12-8.07,5.32-11.82,8.2-1.7-1.91-3.5-5.66-.29-6.92a.49.49,0,0,0,.3-.3A71.93,71.93,0,0,0,35.74,17.73Zm-10.29.37.17.1h-.2A.35.35,0,0,0,25.45,18.1Zm-5.16-2.05c-4.3.32-8.5,1.41-12.83,1.32A18.43,18.43,0,0,1,20.29,16.05ZM6.87,17.71c4.61,1,9.34-.6,14-.84a.44.44,0,0,0,.4-.57,19.12,19.12,0,0,1,3.21,1.26c-6.69.07-13.31,1.45-20,2A12.12,12.12,0,0,1,6.87,17.71ZM4.06,20.05c6.08.36,12.15-1.07,18.24-1.46a3.37,3.37,0,0,0-1.09,1.25C17.57,20.37,14,21,10.3,21.42A28.15,28.15,0,0,0,2,23.23,12.29,12.29,0,0,1,4.06,20.05ZM1.82,23.58c6.23-1.49,12.74-1.85,19.09-2.77a4.17,4.17,0,0,0,0,1.32.47.47,0,0,0-.2,0c-6.35,2.09-13.31,1.77-19.57,4A10.49,10.49,0,0,1,1.82,23.58Zm-.74,3c6.55-1.08,13.61-1.3,19.88-3.55a.57.57,0,0,0,.13-.08,4.89,4.89,0,0,0,.19.58C14.61,25.38,8,27.48,1.16,28.76A8.63,8.63,0,0,1,1.08,26.61Zm.2,2.75C4.69,28.8,8,28,11.38,27.12s6.95-1.54,10.25-2.73c.15.3.3.59.47.87-6.75,1.71-13.35,4.18-20,6.4A9,9,0,0,1,1.28,29.36Zm1.17,2.79c6.78-1.83,13.45-4.1,20.21-6a7.57,7.57,0,0,0,.82.95c-6.59,2.2-13.37,4.08-19.76,6.85A13.22,13.22,0,0,1,2.45,32.15ZM4,34.25c6.71-2.1,13.48-4,20.13-6.31a.67.67,0,0,0,.2-.12,3.65,3.65,0,0,0,.31.24C18.06,30.17,11.71,33,5.24,35.38A10.83,10.83,0,0,1,4,34.25Zm2,1.67c6.74-2.14,13.2-5.05,20-7.09l.71.33c-2.73,1.38-5.46,2.73-8.23,4-3,1.39-6.28,2.52-9.08,4.25A11.11,11.11,0,0,1,6,35.92Zm4.34,1.73a65.56,65.56,0,0,0,7.79-3.24c3.26-1.45,6.51-2.94,9.68-4.57a.59.59,0,0,0,.2-.18l.2.07C24.24,35,16.68,38.77,10.31,37.65Zm21-8.43c-2.5-.49-5.12-1.07-7-2.9,4.64-2.42,8.4-6.18,13.19-8.39a.38.38,0,0,0,.2-.53c5.53-1,11-2.45,16.48-3.92-7.66,5-14.94,10.6-22.43,15.83Zm1.33.26c8.23-4.62,15.48-10.91,23.39-16a.46.46,0,0,0,.21-.51c3.69-1,7.37-2,11-2.81q4.09-.91,8.2-1.8A130.76,130.76,0,0,0,60.36,18.85C54.69,23.27,49,27.61,43.14,31.77,39.65,30.94,36.15,30.18,32.6,29.48Zm16.92,3.93c-1.91-.53-3.82-1-5.72-1.48,5.82-3.39,11.1-7.71,16.44-11.8A166.08,166.08,0,0,1,77.61,8.18a.41.41,0,0,0,.23-.38c10.5-2.22,21.06-4.16,31.71-5.42C100.06,7.92,90.38,13,80.71,18.26c-4.83,2.62-9.55,5.43-14.38,8-4.45,2.42-9,4.85-12.91,8.16Zm14.22,3.72q-4.8-1.18-9.59-2.46c8.47-6,17.94-10.69,27-15.6,10.08-5.45,20.21-10.64,30.08-16.48a.45.45,0,0,0,.24-.42c1.41-.16,2.82-.32,4.23-.45A137.91,137.91,0,0,1,131.65,1c-.44,1.55-.86,3.11-1.26,4.67h0a110.19,110.19,0,0,1-15,7.21C109.49,15.35,103.73,18,98,20.6,92,23.3,86.06,26,80.14,28.72c-5.5,2.57-10.81,5.55-16.28,8.19A.23.23,0,0,0,63.74,37.13Zm.65.16c5.34-2,10.3-4.86,15.42-7.33,5.86-2.82,11.85-5.38,17.77-8.06s12.07-5.46,18.17-8A118.19,118.19,0,0,0,130,7.14c-.85,3.39-1.58,6.81-2.12,10.25C119.25,20.32,111.23,25.14,103,29c-8,3.79-16.94,6.41-24.3,11.46C73.92,39.53,69.14,38.45,64.39,37.29Zm27.27,5.59c-4-.65-8-1.39-12-2.19,6.82-4.3,14.79-6.68,22.1-10,8.64-3.91,17-9,26-12-.27,1.92-.48,3.85-.61,5.8-.08,1.21-.1,2.41-.1,3.62h0c-11.33,4-22.26,9.52-32.86,15.17Zm19.9,2.78c-5.49-.62-11-1.39-16.38-2.23C105.88,38.91,116,33.18,127,29.31c0,2.36.16,4.73.28,7.07,0,.24,0,.47,0,.71-5.28,2.68-10.73,5.2-15.68,8.47A.3.3,0,0,0,111.56,45.66Zm.77.08c5-2.65,10.08-4.9,15.06-7.5a34.24,34.24,0,0,0,1.67,8.8C123.49,46.82,117.9,46.36,112.33,45.74Zm51.26-7.31c-8.36,8.25-21.84,9-32.87,8.69l-.35,0c-2.47-6.68-2.34-14.69-2.14-21.72a68.81,68.81,0,0,1,.63-7.19.59.59,0,0,0,.11-.69c.81-5.55,2.15-11,3.39-16.49,8.43.25,16.74,1.75,24.21,5.94,5.85,3.27,10.79,8,12.44,14.7C170.55,27.87,168,34.07,163.59,38.43Z"/><path class="cls-2" d="M143.84,7.6a1.92,1.92,0,1,0,1.92,1.92A1.93,1.93,0,0,0,143.84,7.6Z"/></g></svg>