<svg xmlns="http://www.w3.org/2000/svg" viewBox="0 0 147.75 227.06"><defs><style>.cls-1{fill:#fff;}.cls-2{fill:#272525;}</style></defs><title>life</title><g id="stroke"><path class="cls-1" d="M91.27,215.56A8.9,8.9,0,0,1,87.89,211c-.84-3.15-1.84-6.24-2.52-9.43a64.92,64.92,0,0,1-1-8,37.78,37.78,0,0,0-.6-5.83,34.8,34.8,0,0,0-1.57-4.16c-1.24-3.11-1-6.28-2.78-9.29-3.19-5.48-7.52-10.18-10.71-15.63-6-10.26-11.11-21-11.79-33-.19-3.26.69-6.53,1-9.77.12-1.26.54-3.25.09-4.45A24.06,24.06,0,0,0,56,107.34c-1.54-2.52-3.08-5-4.73-7.44a12,12,0,0,1-1.64-3c-.2-.65,0-1.81-.44-2.4-.4.34-.81.67-1.23,1,.39,2.92,2.16,5.69,3,8.48.94,3,1.31,6.26,2.31,9.26a27.31,27.31,0,0,1,1.6,8.23c.07,2.63-.47,5.31-.18,7.95a162.76,162.76,0,0,0,3.59,19.23c.77,3.27,2.9,5.12,4.75,7.73,1.53,2.16,2.73,4.53,4.26,6.69,1.7,2.41,3.81,4.6,5.18,7.23s3.7,4.29,5.06,6.78c2.71,5,3.11,10.46,3.53,16,.24,3.14.21,6.33.58,9.46a16.83,16.83,0,0,0,1.61,5.5c.57,1.22.57,2.42,1.59,3.47,1.33,1.37,2.7,12.67,5.87,11.38a4.91,4.91,0,0,0,2.68-3.74C93.68,217.33,92.65,216.52,91.27,215.56Z"/><path class="cls-1" d="M116.33,193.81a50.08,50.08,0,0,0-2.36-9.14c-2.38-5.85-6.7-10.44-9.31-16.17-1.36-3-2.25-6.13-4.35-8.72-1.84-2.28-3.32-4.89-5.14-7.21a20.23,20.23,0,0,1-1.84-3.66c-.64-1.29-1.37-2.56-2.13-3.78-1.51-2.45-2.67-5-4.11-7.48a54.39,54.39,0,0,0-5.6-7.86A27.26,27.26,0,0,1,77,123.2a59.42,59.42,0,0,1-2.62-8.55,62.85,62.85,0,0,0-2.89-8.31c-1.24-3-2.74-5.9-3.36-9.07a17.64,17.64,0,0,1-.15-3.41c0-1,.34-2.64-.23-3.55a.36.36,0,0,1,0-.09c-.77.33-1.55.65-2.37.92l-.58.19c-.9,1.24,0,6.44.19,7.23a30.12,30.12,0,0,0,3.18,7.81c2.56,4.91,3.22,10.44,4.75,15.7a28,28,0,0,0,4.08,8.18A31.79,31.79,0,0,1,80.07,137a25.46,25.46,0,0,0,4.51,7.82c1.72,1.93,3.77,3.5,5.37,5.54a43.54,43.54,0,0,1,4,6.82,19.57,19.57,0,0,0,2.83,4.6c.8.86,1.62,1.69,2.38,2.59,1.79,2.12,1.63,5.05,3,7.35s3.12,4.64,4.55,7a50.61,50.61,0,0,1,3.55,7.15c1,2.44,2.47,5,2.83,7.63a26.28,26.28,0,0,1,.24,7.3c-.42,3-1.54,5.86-1.54,8.87,0,1.93-.08,3.88,0,5.8.07,1.61,1.93,1.22,2.74.22a17.68,17.68,0,0,0,1.36-2c2-3.35,1.71-6.6,1-10.27C116.18,200.31,117,197,116.33,193.81Z"/><path class="cls-1" d="M131.19,189.58c-.73-2.84-1.07-5.7-1.62-8.57a21.66,21.66,0,0,0-3.6-9c-1.87-2.53-4.48-4.09-6.79-6.16-1.3-1.18-2.37-2.55-3.64-3.76a28.83,28.83,0,0,1-3.13-3c-1.74-2.26-3.67-4.47-5.23-6.85-1.86-2.85-3.19-5.9-4.75-8.9-1.35-2.61-3-5.08-4-7.85a53.16,53.16,0,0,1-2.5-9.7,39.83,39.83,0,0,0-1.8-8.43,19.86,19.86,0,0,0-2.65-4.9c-1-1.23-2.23-2.19-3.28-3.33a57.93,57.93,0,0,1-5.39-6c-1.64-2.38-3.45-4.8-4.41-7.55a24.76,24.76,0,0,1-1.2-7.36l-2,.08c-.29,1.29-1,2.9-.79,4.21a11.47,11.47,0,0,0,1.47,4.28c1,1.77,2.17,3.47,3,5.33,2.66,5.7,4.07,11.68,7.89,16.8,3.25,4.35,7.06,9.4,7.57,15,.34,3.74.85,7.2,2.82,10.48a85.56,85.56,0,0,0,5.09,7.43,65.54,65.54,0,0,1,5.63,8.6,25.81,25.81,0,0,0,5.41,7.36c3.79,3.45,8.8,5.94,11.35,10.6,2.75,5,2.7,11.41,2.95,17,.15,3.37-.17,6.87.27,10.22a67.22,67.22,0,0,1,1,8.94c0,1.75.13,3.56,0,5.3a11.93,11.93,0,0,0,.14,4.87c.35,1.1,2.25,2.74,2.91.4.14-.51.29-1,.39-1.54a25.77,25.77,0,0,0,.46-4.88c0-6.2.48-12.42-.11-18.61A65.57,65.57,0,0,0,131.19,189.58Z"/><path class="cls-1" d="M106.81,202.63c-.54-1.49-1.8-2.53-2.19-4a26.11,26.11,0,0,0-1.16-3.43,57.84,57.84,0,0,0-4.61-8.65c-1.69-2.73-4.07-4.92-5.8-7.64-1.64-2.57-3.36-5.14-4.77-7.84a55.14,55.14,0,0,1-3.78-8.32,21.36,21.36,0,0,0-1.43-4.07,27.13,27.13,0,0,0-3-3.56,26.13,26.13,0,0,1-4.14-6.69c-1.07-2.64-2.58-5.1-3.41-7.85s-1.18-5.86-3-8.28c-1.61-2.16-3.49-3.44-4.19-6.19a177.28,177.28,0,0,1-4-18.37c-.45-3.24-.89-6.91-2.84-9.65a19.44,19.44,0,0,1-1.86-3.45,29.19,29.19,0,0,0-1.06-3,9.58,9.58,0,0,0-3.13.21c0,1.46-.29,3,.48,4.32a27,27,0,0,0,2.6,3.32A18,18,0,0,1,58.29,105c.51,1.45.64,3,1.1,4.44s1.08,2.73,1.6,4.11a28.38,28.38,0,0,1,1.93,7.28c.31,3.14,0,6.55.77,9.61.69,2.81,2.4,4.75,3.83,7.19,2.8,4.75,3.88,10.2,5,15.55.7,3.3,1.86,5.69,4.84,7.51a11.75,11.75,0,0,1,4.34,4c1.31,2.16,2,4.54,3.07,6.78,1.25,2.5,2.84,4.77,4,7.33,1.24,2.77,2.44,4.95,5.1,6.53a7.3,7.3,0,0,1,2.88,3.53c.94,2.09,1.73,3.78,3.62,5.2.95.71,1.12,2.77,1.5,3.83.58,1.66,1.81,2.86,2.54,4.43a30.27,30.27,0,0,0,1.66,3.73c.58.92,2.23,3.09,1.59.37A33.24,33.24,0,0,0,106.81,202.63Z"/><path class="cls-1" d="M144.24,162.32a21.7,21.7,0,0,1-5.78-4.57c-2.15-2.14-4.61-3.94-6.73-6.08-2.35-2.38-4.44-5-6.79-7.36a47.26,47.26,0,0,1-5.08-5.51c-1-1.44-1.77-3.08-2.66-4.61-.73-1.27-1.74-2.37-2.57-3.57a35.1,35.1,0,0,1-3.88-7,27.18,27.18,0,0,1-1.52-4.65,27.46,27.46,0,0,0-.76-3.58,28.41,28.41,0,0,0-4.26-7.72,40.45,40.45,0,0,0-3.47-4.25,23,23,0,0,1-2.26-2c-1.62-2.13-2.81-4.47-4.35-6.65a18,18,0,0,0-4.75-4.36,28.81,28.81,0,0,0-3-2.17,6.12,6.12,0,0,1-2.26-2.1A10.65,10.65,0,0,1,82,87.29l-.41.13c-.5,1.93.48,3.83,1.42,5.45.78,1.35,1.21,2.95,2.55,3.89,2.66,1.86,5.31,3.72,7.89,5.71s4.47,4.85,6.35,7.5c1.73,2.44,3.71,4.73,4.57,7.67,1,3.41,1.74,6.9,3.54,10,1.52,2.61,3.5,4.9,4.94,7.55s2.72,6,5,8.24c1.84,1.81,4,3.22,5.57,5.28,2,2.49,3.78,5.38,6.4,7.21a35.86,35.86,0,0,1,5.92,5c2.05,2.22,3.58,5.08,5.83,7.07,1.31,1.15,4.15,1.16,5-.64S145.9,163.16,144.24,162.32Z"/><path class="cls-1" d="M68.44,198.66c-2.28-1.35-4.71-2.54-6.52-4.52-1-1.1-1.46-2.72-2.56-3.76A20.27,20.27,0,0,0,55.17,188,12.69,12.69,0,0,1,50,183.53c-1.68-2.94-5-4.89-7.54-7-2-1.69-4.09-2.51-5.31-5-1.41-2.88-2.91-5.7-4.29-8.6-1.15-2.42-1.34-4.76-1.78-7.36a18,18,0,0,1,1.13-8.73c1.12-2.91,2-5.89,3.06-8.82,2.3-6.4,2.55-12.63,2.48-19.35a82,82,0,0,0-1.3-10.58C36,105,35.09,102,34.55,98.93a.46.46,0,0,1,.05-.29A5.94,5.94,0,0,1,32,97.7c-.28-.19-.56-.38-.83-.58a15.48,15.48,0,0,1,.2,5c-.08,1.93-1.36,3.38-1.86,5.17a18,18,0,0,0-.67,6.57c.25,2.42,1.37,4.6,2.29,6.81,1.7,4,2.67,8.47,1.29,12.77-1.49,4.6-4.31,8.55-5.57,13.25-.78,2.89-1.48,5.79-.86,8.78a36.38,36.38,0,0,0,2.11,6.35c.86,2.12,1.77,4.24,2.44,6.44s1.11,4.72,1.92,7,1.79,4.79,3.68,6.5a21.57,21.57,0,0,0,6.25,3.66A14.51,14.51,0,0,1,46.82,188c1.59,1.44,3,3.12,4.7,4.44,2.69,2.12,5.93,3.43,8.67,5.52a79,79,0,0,1,6.71,5.68c.72.69,2.84,2.85,3.81.74a7.28,7.28,0,0,0,.56-1.92C71.66,200.31,69.94,199.56,68.44,198.66Z"/><path class="cls-1" d="M114.2,107a11,11,0,0,1-4.17-5.43c-1-2.83-2.13-5.59-3.23-8.39-1.24-3.16-4.52-5.67-7.48-7.28-1.2-.65-2.51-1-3.71-1.68-.73-.39-1.2-1.32-1.92-1.7a15.2,15.2,0,0,0-3.88.32c.49,4,6,5.49,8.84,7.54,4.08,3,5,8.2,7.51,12.32A42.53,42.53,0,0,0,112,111c2.05,2.09,4.29,4,6.42,6,2.61,2.49,5.21,5,7.88,7.42,2,1.8,4.3,3.48,5.72,5.81a11.23,11.23,0,0,1,1.65,4,16.62,16.62,0,0,0,1,5,10.7,10.7,0,0,0,2.68,3,13.78,13.78,0,0,0,3.5,2.55c1.38.59,4.3.44,5-1.27.45-1.08-1.6-3-2.33-3.7a50.32,50.32,0,0,1-6.09-6.3,23.22,23.22,0,0,0-3.59-4.07,27.81,27.81,0,0,1-3-2.54c-1.72-1.9-1.92-3.94-2.78-6.23a9.62,9.62,0,0,0-4.16-4.9,21.92,21.92,0,0,1-3.35-2.39C118.51,111.27,116.52,108.79,114.2,107Z"/><path class="cls-1" d="M70.67,176.56a15,15,0,0,1-3.32-1.73c-.93-.71-1.55-1.73-2.43-2.5-2.06-1.79-4.82-3-6.6-5.08a45.24,45.24,0,0,0-5.64-5.43c-1.92-1.57-3.83-3-4.8-5.41a32.2,32.2,0,0,1-1-3.87c-.41-1.48-1.26-2.82-1.59-4.33-.63-2.92-.31-5.65-.31-8.58,0-2.63-1.14-5.1-1-7.73a42.65,42.65,0,0,1,1.37-8.63,41.55,41.55,0,0,0,1.87-9.11c.06-1.7.42-4-.16-5.58a27.72,27.72,0,0,0-1.54-4.44,35.32,35.32,0,0,1-2.75-6c-.32.09-.65.16-1,.22a58.34,58.34,0,0,0,.4,7.47c.35,2.37.68,4.76.8,7.16.26,5.53-.61,10.93-1.29,16.4a49.72,49.72,0,0,0-.55,8.17,25,25,0,0,1-.36,7c-.66,2.8-1.25,6,.19,8.7,1.08,2,2.46,4,3.41,6.05a14.21,14.21,0,0,1,1.22,3.91c.18,1.34.18,3.6,1.28,4.59,2.23,2,5.27,2.74,7.79,4.26a36.38,36.38,0,0,0,4.35,2.55,26.15,26.15,0,0,1,3.72,1.62c2,1.27,3.32,3,4.94,4.73s4.43,2.8,5-.33A3.44,3.44,0,0,0,70.67,176.56Z"/><path class="cls-1" d="M29.78,94.43c1,1.24,2.66,2.89,4.28,3.2a26.33,26.33,0,0,0,5.1,0,19.69,19.69,0,0,0,2.43-.14h.07a10.14,10.14,0,0,0,2.6-.66,23.14,23.14,0,0,0,3.88-2.5l.29-.2a.48.48,0,0,1,0-.85c1.21-.56,1.91-1.75,3.17-2.23a2.53,2.53,0,0,1,.36-.12,2.6,2.6,0,0,1,1-.87c.22-.09.37.28.16.38a2.19,2.19,0,0,0-.47.3A14.45,14.45,0,0,1,56,90.59c2,0,4.25.64,6.25.25a25.43,25.43,0,0,0,5.35-1.77,20.69,20.69,0,0,1,4.75-1.69,30.22,30.22,0,0,1,4.25-.26l.88,0a.47.47,0,0,1,.31,0,10,10,0,0,0,4.4-1c1.37-.78,2.51-1.85,3.81-2.71a12.59,12.59,0,0,1,7.48-1.78.44.44,0,0,1,.28,0l0,0a56.33,56.33,0,0,0,7.12.09c6.87-.71,10-7.16,13-12.63a26.42,26.42,0,0,0,2.9-18.69c-1.51-6.49-5-12-8.69-17.47-2-3-4-5.89-6.07-8.82a66.41,66.41,0,0,0-5.71-7.83A50.75,50.75,0,0,0,80,5,50.41,50.41,0,0,0,69.51,1.58,42.87,42.87,0,0,0,59.2,1.15,80.87,80.87,0,0,0,40.27,4.68a40.85,40.85,0,0,0-16.4,9.11C19,18.33,14,23.22,10.45,28.85a78.62,78.62,0,0,0-4.58,8.72,53.55,53.55,0,0,0-3.82,9.08A29.88,29.88,0,0,0,3.88,66.91C5.1,69.59,6.6,72.24,7.62,75c.92,2.48,1.31,5.13,2.26,7.59,1.43,3.67,4.23,4.8,7.73,6,2.54.84,5.11,1,7.67,1.59C27.52,90.68,28.48,92.73,29.78,94.43ZM58.68,8.31a7.37,7.37,0,0,0,.56-1.7c0-.16.27-.09.24.06A7.49,7.49,0,0,1,59,8.48C58.88,8.68,58.57,8.5,58.68,8.31ZM56.77,5.23a4,4,0,0,1,.15,1.14.25.25,0,0,1-.5,0,3.45,3.45,0,0,0-.12-1A.24.24,0,0,1,56.77,5.23ZM51.53,10c.07-.19.36-.11.3.08-.13.45-.23.91-.36,1.36-.08.24-.46.13-.38-.11C51.25,10.86,51.38,10.41,51.53,10ZM49.6,7.1c-.09-.26.31-.36.4-.11a4.81,4.81,0,0,1-.09,2.41c-.06.32-.55.19-.49-.13A4.59,4.59,0,0,0,49.6,7.1Zm-1.69,8.76a.29.29,0,0,1,.55.15c-.13.4-.17.81-.31,1.2a.25.25,0,0,1-.48-.13C47.77,16.68,47.79,16.26,47.91,15.86Zm-4.44,8a.2.2,0,0,1,0,.4A.2.2,0,0,1,43.47,23.82ZM42.9,7.67c.05-.21.35-.11.32.09l-.33,2c0,.3-.53.18-.46-.12Zm-2.16,8.18a.31.31,0,0,1,.6.17,9.07,9.07,0,0,1-.62,1.39c-.12.27-.53.07-.46-.2C40.38,16.74,40.62,16.32,40.74,15.85ZM37.67,84.71a.19.19,0,0,1,0,.38A.19.19,0,0,1,37.67,84.71Zm-.94-72.82a.27.27,0,0,1,.54,0,6.36,6.36,0,0,0,0,.87.25.25,0,0,1,0,.45l-.12,0a.3.3,0,0,1-.32-.13A2.44,2.44,0,0,1,36.73,11.89Zm-3,75.4c-.29-.42-.65-.8-.94-1.22-.14-.2.18-.38.32-.19.29.43.65.79,1,1.22C34.21,87.3,33.88,87.49,33.74,87.29Zm1.79-7.05c.09.13.15.28.25.41s-.12.3-.23.18-.18-.27-.28-.39A.16.16,0,1,1,35.53,80.24Zm-3.1-53.81a24.07,24.07,0,0,1,1.23-2.56c.2-.3.69,0,.49.29A23.14,23.14,0,0,0,33,26.73C32.78,27.07,32.27,26.77,32.43,26.43ZM32,74.64a0,0,0,0,1,0,0A0,0,0,0,1,32,74.64ZM31.24,16a.24.24,0,1,1,.45.19,30.58,30.58,0,0,0-1.07,2.9.23.23,0,0,1-.44-.12A26.24,26.24,0,0,1,31.24,16Zm-23,40.94A7.88,7.88,0,0,1,8.05,55a.26.26,0,0,1,.52,0,13.09,13.09,0,0,0,.11,1.88C8.71,57.14,8.28,57.19,8.22,56.94ZM10,46.73c0,.34-.64.26-.6-.08.12-1,.17-2,.2-3a.25.25,0,0,1,.49,0A19.4,19.4,0,0,1,10,46.73ZM27.5,63.08c0-.23-.13-.44-.15-.67s.43-.29.44,0,.11.44.13.67S27.52,63.34,27.5,63.08Zm1.42,18.18a.14.14,0,0,1,0,.28A.14.14,0,0,1,28.92,81.26Zm-6-39.06a.19.19,0,0,1,.38,0,7.8,7.8,0,0,1-.18,1.93.15.15,0,0,1-.29-.08A10.43,10.43,0,0,0,22.94,42.2ZM23,61.73,23,62a.25.25,0,0,1-.49,0l0-.27C22.4,61.38,23.05,61.38,23,61.73ZM11.43,39.51c0-.68.13-1.35.14-2a.25.25,0,0,1,.49,0c0,.67-.13,1.34-.14,2A.25.25,0,0,1,11.43,39.51Zm1,24.09A3.9,3.9,0,0,1,12,62.34c-.1-.33.43-.48.53-.14a6.81,6.81,0,0,0,.34,1.17A.23.23,0,0,1,12.42,63.6Zm.24-10.08c-.05-.46-.15-.89-.16-1.35a.26.26,0,0,1,.51,0c0,.45.14.89.11,1.35A.23.23,0,0,1,12.66,53.52Zm1.27-9.3a.24.24,0,0,1-.47,0c0-.27,0-.54,0-.81a.26.26,0,0,1,.52,0Q14,43.82,13.93,44.22Zm.42,27.16a.21.21,0,0,0-.07-.13c-.3-.29.2-.76.45-.45a.82.82,0,0,1,.2.42C15,71.59,14.46,71.76,14.35,71.38ZM15,29.44c.76-1.44,1.47-2.9,2.32-4.29.11-.18.39,0,.28.16-.81,1.41-1.47,2.9-2.26,4.33C15.23,29.87,14.88,29.67,15,29.44Zm1.24,29.87a.26.26,0,0,1-.52,0v-.94a.26.26,0,0,1,.52,0ZM16,37.49c0-.77,0-1.53,0-2.29a.2.2,0,0,1,.39,0c0,.76,0,1.52.05,2.29C16.51,37.8,16,37.8,16,37.49Zm1.2,32.18a.49.49,0,0,1-.19-.39.18.18,0,1,1,.36,0l.08.14C17.62,69.58,17.37,69.84,17.21,69.67Zm.46-24.37c0,.25-.41.27-.4,0s.1-.44.11-.67.49-.29.45,0S17.7,45.07,17.67,45.3Zm3-14.48a.26.26,0,1,1-.47-.2c.13-.3.15-.63.28-.94s.55-.06.45.19S20.81,30.51,20.68,30.82ZM23.4,80A5.89,5.89,0,0,1,22,78.68c-.15-.2.19-.46.35-.27a7.75,7.75,0,0,0,1.37,1.19C23.93,79.78,23.64,80.17,23.4,80Zm.81-2.43a7.06,7.06,0,0,0-.81-1.41c-.21-.32.31-.62.53-.3a4.23,4.23,0,0,1,.81,1.56A.28.28,0,0,1,24.21,77.57ZM24,51.81a.18.18,0,1,1,.35,0c0,.18.09.35.11.53a.15.15,0,0,1-.29,0C24.16,52.16,24.07,52,24,51.81Zm1.13-18c-.24.85-.42,1.72-.71,2.55-.1.32-.59.19-.49-.13.25-.85.41-1.72.64-2.57A.29.29,0,0,1,25.16,33.79Zm-.3-6.62c.13-.43.36-.8.51-1.22s.79-.22.64.18-.42.84-.61,1.27S24.77,27.49,24.86,27.17Zm1.59,46.1a11.67,11.67,0,0,1-.68-2.15c-.09-.42.55-.6.64-.18a16.77,16.77,0,0,0,.66,2.16C27.22,73.49,26.61,73.64,26.45,73.27Zm.39-54.73a8.73,8.73,0,0,1,.71-1.7c.19-.39.78-.05.59.34a8,8,0,0,0-.64,1.54A.34.34,0,0,1,26.84,18.54Z"/><path class="cls-2" d="M144.6,161.7a17.74,17.74,0,0,1-3.52-2.17c-1.11-1-2-2.19-3.08-3.18a100.12,100.12,0,0,1-8.8-8.43c-2.67-3-5.83-5.72-8.29-8.93a44,44,0,0,1-3.09-5.16c-1-1.69-2.34-3.14-3.42-4.76a28.37,28.37,0,0,1-4.58-11.47c-.47-3.26-2.31-6.46-4.09-9.17a41.22,41.22,0,0,0-3.21-4.11c-1.27-1.49-2.94-2.77-4-4.37-2-2.92-3.52-6.12-6.21-8.49-1.25-1.1-2.63-2.13-4-3.12-1.07-.79-2.77-1.51-3.43-2.8a15.32,15.32,0,0,1,3.87-2.41c.2-.07.41-.12.61-.18.36,3.28,4,5,6.63,6.45a14.41,14.41,0,0,1,5.93,6c1.57,3,2.62,6.07,4.38,9a44.52,44.52,0,0,0,4.62,6.67c2.08,2.34,4.59,4.34,6.86,6.5s4.8,4.62,7.25,6.88,5.21,4.3,6.84,7.35c1.39,2.62.95,5.71,2.27,8.39,1,1.94,3.5,3.38,5.16,4.65a5,5,0,0,0,4.81.88c1.22-.36,2.8-1.36,2.8-2.8,0-.6-.69-1.33-1-1.76a30.23,30.23,0,0,0-2.87-3.12c-1.17-1.08-2.35-2.15-3.48-3.27s-2-2.82-3.2-4.06c-1.88-2-4.47-3.63-5.92-6s-1.13-5.25-3-7.32a27.19,27.19,0,0,0-5-3.77,43.49,43.49,0,0,1-5.57-5.29c-1.42-1.42-3.09-2.63-4.46-4.1-1.72-1.83-2-4.87-2.92-7.15a35,35,0,0,0-2.42-5.79,13.83,13.83,0,0,0-3.77-3.7,26.23,26.23,0,0,0-5.39-3.44,8.37,8.37,0,0,1-2.82-1.63l2.77.2c5,.29,9-1.17,12-5.19a47.43,47.43,0,0,0,7.85-15.47c1.53-5.38.7-11.06-1.12-16.26-2-5.88-5.93-11.15-9.41-16.24s-6.78-10.76-11.15-15.21a43.13,43.13,0,0,0-6.86-5.3,55.83,55.83,0,0,0-8.68-5A42.71,42.71,0,0,0,62.47,0,83.45,83.45,0,0,0,44.08,2.58,50.67,50.67,0,0,0,28.43,8.85C23.25,12.13,18.86,17,14.84,21.57A63.67,63.67,0,0,0,5,37.06C2.4,42.58.17,47.73,0,53.94c-.15,6,1.92,11.57,4.52,16.84A46.4,46.4,0,0,1,8,79.71a16,16,0,0,0,2.92,6.59c1.57,1.88,4.25,2.42,6.42,3.2a33.24,33.24,0,0,0,4.71,1.22c1.58.33,3.25,0,4.57,1.18A19.77,19.77,0,0,1,29,95a10.37,10.37,0,0,0,1.72,1.72.11.11,0,0,0,0,.08c1,2.82.11,6.51-1.2,9a15.66,15.66,0,0,0-1.4,7.4c0,2.48,1.1,4.79,2.06,7,1.59,3.7,2.53,7.36,1.86,11.39-.57,3.4-2.47,6.46-4,9.46a36,36,0,0,0-2.88,9.32c-1.19,5.76,2.21,11.35,4.11,16.57,2,5.43,2.25,11.68,6.79,15.79a21,21,0,0,0,6.16,3.45c3.42,1.41,5.53,3.86,8.21,6.29,2,1.81,4.49,2.84,6.72,4.32A85,85,0,0,1,66,203.94c.88.77,2.28,2.5,3.68,2.19,1.8-.4,2.14-2.4,2.4-3.95A2.67,2.67,0,0,0,71,199.36c-1.75-1.42-4-2.35-5.85-3.58-2.26-1.46-3.19-3.52-4.81-5.51-1.48-1.82-4.07-2.62-6.06-3.8-2.23-1.31-3.27-3.37-4.89-5.28s-4.25-3.55-6.3-5.27-4.15-2.71-5.45-5.36c-1.21-2.5-2.5-5-3.73-7.49a21.4,21.4,0,0,1-.57-16.78,88.6,88.6,0,0,0,4.86-15.89,40.57,40.57,0,0,0,.49-7.05,59.21,59.21,0,0,0-.18-7.88c-.38-2.8-.92-5.58-1.32-8.38s-1.28-5.55-1.78-8.37c1.48.08,3-.15,4.5-.19a13.85,13.85,0,0,0,1.58-.15,56,56,0,0,0,.37,8.28A63.15,63.15,0,0,1,42.45,117c-.22,6.87-2.23,13.62-2.05,20.5,0,1.56.11,3.1,0,4.65a48.41,48.41,0,0,1-1,5,11.09,11.09,0,0,0,1.15,7c1.39,2.63,3.18,5.06,4,8,.61,2.28.27,4.86,2.18,6.56s4.68,2.49,6.93,3.68c1.27.66,2.45,1.49,3.68,2.21,1.43.84,3,1.27,4.48,2,2.47,1.2,3.91,3.41,5.72,5.34,1,1,2.87,2.29,4.31,1.32,2.89-1.94,2.1-6-.77-7.4a15,15,0,0,1-3.72-2.08c-1-.94-1.87-2-3-2.94-2.28-1.85-4.77-3.13-6.55-5.51-1.54-2.07-4.15-3.72-6.14-5.35A9.85,9.85,0,0,1,49,156.69a26.56,26.56,0,0,1-1.45-5c-.42-1.52-1.23-2.85-1.57-4.41A17.35,17.35,0,0,1,45.8,141c.48-2.91-.83-5.58-1-8.43-.32-6.31,2.93-12.24,3.26-18.44.07-1.44.06-2.88.06-4.31s-.81-2.8-1.17-4.18-1.52-2.67-1.92-4.13a29.16,29.16,0,0,0-1.32-3.4.37.37,0,0,0,.05-.31,13.18,13.18,0,0,0,3.1-1.54c.24-.17.48-.34.71-.52.29,2.34,1.47,4.61,2.25,6.79a97.73,97.73,0,0,1,2.59,10.1c.36,1.52.94,3,1.33,4.5a22.08,22.08,0,0,1,.42,5c.07,3-.55,5.91,0,8.9,1.22,6.44,1.78,13,3.69,19.24.78,2.59,2.86,4.4,4.43,6.49,1.87,2.5,3.2,5.36,5.08,7.86s3.44,4.74,5,7.28,4,4.65,5.36,7.54c1.55,3.24,1.76,6.93,2.11,10.45s.47,6.87.73,10.31a23.13,23.13,0,0,0,1.55,7.58,18.59,18.59,0,0,0,1.57,3.82A15.69,15.69,0,0,1,86,217c.55,1.9,1.34,7.55,4.53,6.83,2.89-.66,4.45-4.62,3.14-7.16A4.47,4.47,0,0,0,92,215.2a9.08,9.08,0,0,1-3-3.35,20.83,20.83,0,0,1-1.48-4.67c-.49-1.71-1-3.41-1.34-5.14a69,69,0,0,1-1.15-9.17,25.24,25.24,0,0,0-1.57-8.14c-1.21-2.82-1.11-6-2.35-8.73a55,55,0,0,0-5.31-8.62c-1.7-2.44-3.58-4.75-5.26-7.21-1.89-2.78-3.35-5.86-5-8.79a46.47,46.47,0,0,1-4-8.85c-.33-1.05-.65-2.17-1.08-3.18a42.8,42.8,0,0,1-1.48-5,39.72,39.72,0,0,1-1.34-9.48c-.18-3.2.84-6.59,1.15-9.78a9.66,9.66,0,0,0-1.15-6.35c-1.44-2.58-2.91-5.26-4.59-7.69-1.12-1.62-2.66-3.32-2.83-5.36a3.37,3.37,0,0,0-.46-1.76l.3-.26a7,7,0,0,0,.93-1c.15-.12.29-.25.46-.37A2.82,2.82,0,0,1,52,92c-.11,2.13-.3,3.49,1,5.5.69,1,1.6,1.91,2.33,2.92a19.46,19.46,0,0,1,2.16,4.73c.52,1.45.64,3,1.07,4.45s1,2.73,1.57,4.11a32.94,32.94,0,0,1,2.1,10.19,35,35,0,0,0,.93,8c.81,2.69,2.92,4.88,4.27,7.32a32.23,32.23,0,0,1,3,9.19c.6,2.81,1,6.2,2.32,8.79a11.39,11.39,0,0,0,4.66,4.49c3,1.84,4.57,4.84,5.71,8.11.91,2.58,2.54,4.76,3.8,7.16s2.18,5.06,4,7.23a6.91,6.91,0,0,0,2.5,1.77,5.45,5.45,0,0,1,2.34,2.75c1,1.87,1.55,3.83,3.2,5.24s1.62,4,2.87,5.85c1.67,2.49,2.67,5.22,4.25,7.78.34.56,1.38,2,2.2,1.18,1.08-1.08-.12-3.94-.35-5.11-.53-2.58-2.3-4.55-3.07-7.06a46.19,46.19,0,0,0-3.8-7.93A35.1,35.1,0,0,0,96.32,182c-2.31-2.64-3.92-5.85-5.84-8.77a49.21,49.21,0,0,1-4.4-8.65c-1-2.46-1.44-5.24-3-7.41a28.19,28.19,0,0,0-2.46-2.67,27.11,27.11,0,0,1-2.73-3.86,25.52,25.52,0,0,1-2-4.32c-.66-1.57-1.55-3-2.17-4.63-1-2.5-1.32-5.19-2.28-7.7s-3.4-3.95-4.66-6.29a15.17,15.17,0,0,1-1.25-4.6,40.67,40.67,0,0,0-1.18-4.46,74.39,74.39,0,0,1-2-9.69,44.51,44.51,0,0,0-1.81-8.77c-1-2.78-3.42-5-3.82-8a1.79,1.79,0,0,0-.14-.48h.09c1.41,0,2.76.43,4.16.39a13.28,13.28,0,0,0,3.42-.61,7.4,7.4,0,0,0-.22,2,21.82,21.82,0,0,0,1.06,8.06c.88,2.67,2.42,5.09,3.48,7.68a58.69,58.69,0,0,1,2.6,9.4,43,43,0,0,0,2.49,8.11c1.33,3,3.61,5.21,4.7,8.37a39.67,39.67,0,0,0,3.44,7.46A32.3,32.3,0,0,0,87.54,149c2.22,2.14,3.39,4.72,4.9,7.33.81,1.39,1.52,2.85,2.24,4.3A16,16,0,0,0,97.6,164c2.22,2.35,2.46,5.4,3.74,8.22s3.63,5.5,5.24,8.28c3.26,5.61,6,12.14,5.93,18.69,0,3.09-1.25,6-1.54,9.07-.15,1.59-.09,3.19-.09,4.78a11,11,0,0,0,.24,3.89c.38,1,1.85,1.06,2.65.59,1.88-1.13,2.93-3.25,3.74-5.2a12.17,12.17,0,0,0,.42-7.59c-.72-3.47-.55-6.77-.73-10.28-.14-2.77-1.19-5.86-2-8.51a30.32,30.32,0,0,0-3.82-8c-1.59-2.4-3.33-4.62-4.74-7.15-1.52-2.75-2.47-5.73-3.84-8.54-1.28-2.66-3.33-5.05-5-7.5-.76-1.14-1.76-2.09-2.46-3.27s-1.21-2.78-2-4.06A62.27,62.27,0,0,1,89,139.7a33.17,33.17,0,0,0-4.35-7.29c-1.92-2.33-4-4.61-5.71-7.08-1.91-2.69-2.65-6.34-3.47-9.48-1.57-6-4.44-11.43-6.27-17.32a19.55,19.55,0,0,1-.44-5.81c0-1,.22-1.92-.35-2.82a17.39,17.39,0,0,1,5.4-1.6c.33,0,.65,0,1-.06-.61,2.51-1.14,4.39-.27,6.94s2.65,4.77,3.81,7.18c1.44,3,2.41,6.23,3.61,9.33a32.44,32.44,0,0,0,4.23,7.5,61.05,61.05,0,0,1,4.78,7,28.12,28.12,0,0,1,2.94,10.62c.59,5.52,3.88,10.53,7.28,14.79a62.23,62.23,0,0,1,5.67,8.44,33.6,33.6,0,0,0,4.91,7.28c3.87,4.08,9.15,6.45,12.15,11.4,1.67,2.75,2,6.38,2.41,9.52.39,3.37.45,6.85.52,10.24a66.51,66.51,0,0,0,.39,8.59,68.05,68.05,0,0,1,.81,10.37c0,2.36-1.47,10.77,3.45,9.42,1.3-.36,1.53-2.88,1.72-3.86a44.89,44.89,0,0,0,.3-8.83c0-3,.32-6,.26-8.95-.08-3.25-.44-6.51-.66-9.75a53.51,53.51,0,0,0-1.71-8.31c-.71-3-.93-6.17-1.72-9.2a20.51,20.51,0,0,0-3.44-7c-1.74-2.35-4.31-3.92-6.5-5.8a43.81,43.81,0,0,1-3.12-3.27c-1-1-2.18-1.94-3.17-3s-1.8-2.46-2.74-3.65a56.17,56.17,0,0,1-3.63-4.92c-1.66-2.66-2.84-5.54-4.28-8.31a57.1,57.1,0,0,1-4.49-9.84c-1.73-5.7-1.64-11.78-4.2-17.23-2.27-4.86-7.17-7.48-10.1-11.83a58.9,58.9,0,0,1-4.22-6.74,20.29,20.29,0,0,1-1.67-8.37,14.43,14.43,0,0,0,3-.5,6.85,6.85,0,0,0,1,5c.61,1.07,1,2.23,1.66,3.28a7.91,7.91,0,0,0,2.72,2.38c2.76,1.86,6.1,3.86,8.29,6.37,2.43,2.79,4.46,5.92,6.67,8.88,1.9,2.54,2.53,5.66,3.37,8.65a27.18,27.18,0,0,0,3.87,8.2,61.16,61.16,0,0,1,4.44,7.1,26.33,26.33,0,0,0,4.6,7c2,1.94,4.06,3.44,5.75,5.67s3.21,4.53,5.4,6.13a43.5,43.5,0,0,1,6.76,5.8c2.09,2.27,3.58,5,5.91,7,2,1.75,6.64-.2,6.2-3A6,6,0,0,0,144.6,161.7Zm-49-77.5c1.2.64,2.51,1,3.71,1.68,3,1.61,6.24,4.12,7.48,7.28,1.1,2.8,2.19,5.56,3.23,8.39A11,11,0,0,0,114.2,107c2.32,1.81,4.31,4.29,6.4,6.38a21.92,21.92,0,0,0,3.35,2.39,9.62,9.62,0,0,1,4.16,4.9c.86,2.29,1.06,4.33,2.78,6.23a27.81,27.81,0,0,0,3,2.54,23.22,23.22,0,0,1,3.59,4.07,50.32,50.32,0,0,0,6.09,6.3c.73.69,2.78,2.62,2.33,3.7-.73,1.71-3.65,1.86-5,1.27a13.78,13.78,0,0,1-3.5-2.55,10.7,10.7,0,0,1-2.68-3,16.62,16.62,0,0,1-1-5,11.23,11.23,0,0,0-1.65-4c-1.42-2.33-3.73-4-5.72-5.81-2.67-2.42-5.27-4.93-7.88-7.42-2.13-2-4.37-3.93-6.42-6a42.53,42.53,0,0,1-5.8-8.31c-2.47-4.12-3.43-9.33-7.51-12.32-2.8-2-8.35-3.59-8.84-7.54a15.2,15.2,0,0,1,3.88-.32C94.41,82.88,94.88,83.81,95.61,84.2ZM36.44,108.07a82,82,0,0,1,1.3,10.58c.07,6.72-.18,12.95-2.48,19.35-1.06,2.93-1.94,5.91-3.06,8.82a18,18,0,0,0-1.13,8.73c.44,2.6.63,4.94,1.78,7.36,1.38,2.9,2.88,5.72,4.29,8.6,1.22,2.49,3.3,3.31,5.31,5,2.56,2.13,5.86,4.08,7.54,7A12.69,12.69,0,0,0,55.17,188a20.27,20.27,0,0,1,4.19,2.43c1.1,1,1.55,2.66,2.56,3.76,1.81,2,4.24,3.17,6.52,4.52,1.5.9,3.22,1.65,2.83,3.81a7.28,7.28,0,0,1-.56,1.92c-1,2.11-3.09,0-3.81-.74A79,79,0,0,0,60.19,198c-2.74-2.09-6-3.4-8.67-5.52-1.69-1.32-3.11-3-4.7-4.44a14.51,14.51,0,0,0-4.42-2.53,21.57,21.57,0,0,1-6.25-3.66c-1.89-1.71-2.86-4.16-3.68-6.5s-1.21-4.7-1.92-7S29,164,28.11,161.86A36.38,36.38,0,0,1,26,155.51c-.62-3,.08-5.89.86-8.78,1.26-4.7,4.08-8.65,5.57-13.25,1.38-4.3.41-8.74-1.29-12.77-.92-2.21-2-4.39-2.29-6.81a18,18,0,0,1,.67-6.57c.5-1.79,1.78-3.24,1.86-5.17a15.48,15.48,0,0,0-.2-5c.27.2.55.39.83.58a5.94,5.94,0,0,0,2.59.94.46.46,0,0,0-.05.29C35.09,102,36,105,36.44,108.07Zm9.12-3.93a27.72,27.72,0,0,1,1.54,4.44c.58,1.62.22,3.88.16,5.58a41.55,41.55,0,0,1-1.87,9.11A42.65,42.65,0,0,0,44,131.9c-.15,2.63,1,5.1,1,7.73,0,2.93-.32,5.66.31,8.58.33,1.51,1.18,2.85,1.59,4.33a32.2,32.2,0,0,0,1,3.87c1,2.36,2.88,3.84,4.8,5.41a45.24,45.24,0,0,1,5.64,5.43c1.78,2.05,4.54,3.29,6.6,5.08.88.77,1.5,1.79,2.43,2.5a15,15,0,0,0,3.32,1.73,3.44,3.44,0,0,1,2.06,4c-.57,3.13-3.47,2-5,.33s-2.9-3.46-4.94-4.73a26.15,26.15,0,0,0-3.72-1.62A36.38,36.38,0,0,1,54.72,172c-2.52-1.52-5.56-2.27-7.79-4.26-1.1-1-1.1-3.25-1.28-4.59a14.21,14.21,0,0,0-1.22-3.91c-1-2.09-2.33-4-3.41-6.05-1.44-2.69-.85-5.9-.19-8.7a25,25,0,0,0,.36-7,49.72,49.72,0,0,1,.55-8.17c.68-5.47,1.55-10.87,1.29-16.4-.12-2.4-.45-4.79-.8-7.16a58.34,58.34,0,0,1-.4-7.47c.33-.06.66-.13,1-.22A35.32,35.32,0,0,0,45.56,104.14Zm5.7-4.24c1.65,2.44,3.19,4.92,4.73,7.44a24.06,24.06,0,0,1,2.07,4.08c.45,1.2,0,3.19-.09,4.45-.32,3.24-1.2,6.51-1,9.77.68,12,5.81,22.77,11.79,33,3.19,5.45,7.52,10.15,10.71,15.63,1.75,3,1.54,6.18,2.78,9.29a34.8,34.8,0,0,1,1.57,4.16,37.78,37.78,0,0,1,.6,5.83,64.92,64.92,0,0,0,1,8c.68,3.19,1.68,6.28,2.52,9.43a8.9,8.9,0,0,0,3.38,4.58c1.38,1,2.41,1.77,2.13,3.62a4.91,4.91,0,0,1-2.68,3.74c-3.17,1.29-4.54-10-5.87-11.38-1-1-1-2.25-1.59-3.47a16.83,16.83,0,0,1-1.61-5.5c-.37-3.13-.34-6.32-.58-9.46-.42-5.57-.82-11.05-3.53-16-1.36-2.49-3.73-4.24-5.06-6.78s-3.48-4.82-5.18-7.23c-1.53-2.16-2.73-4.53-4.26-6.69-1.85-2.61-4-4.46-4.75-7.73a162.76,162.76,0,0,1-3.59-19.23c-.29-2.64.25-5.32.18-7.95a27.31,27.31,0,0,0-1.6-8.23c-1-3-1.37-6.22-2.31-9.26-.86-2.79-2.63-5.56-3-8.48.42-.33.83-.66,1.23-1,.42.59.24,1.75.44,2.4A12,12,0,0,0,51.26,99.9Zm5.38-5.29a19.44,19.44,0,0,0,1.86,3.45c2,2.74,2.39,6.41,2.84,9.65a177.28,177.28,0,0,0,4,18.37c.7,2.75,2.58,4,4.19,6.19,1.79,2.42,2.12,5.46,3,8.28s2.34,5.21,3.41,7.85A26.13,26.13,0,0,0,80,155.09a27.13,27.13,0,0,1,3,3.56,21.36,21.36,0,0,1,1.43,4.07A55.14,55.14,0,0,0,88.28,171c1.41,2.7,3.13,5.27,4.77,7.84,1.73,2.72,4.11,4.91,5.8,7.64a57.84,57.84,0,0,1,4.61,8.65,26.11,26.11,0,0,1,1.16,3.43c.39,1.5,1.65,2.54,2.19,4a33.24,33.24,0,0,1,.85,3.71c.64,2.72-1,.55-1.59-.37a30.27,30.27,0,0,1-1.66-3.73c-.73-1.57-2-2.77-2.54-4.43-.38-1.06-.55-3.12-1.5-3.83-1.89-1.42-2.68-3.11-3.62-5.2a7.3,7.3,0,0,0-2.88-3.53c-2.66-1.58-3.86-3.76-5.1-6.53-1.15-2.56-2.74-4.83-4-7.33-1.12-2.24-1.76-4.62-3.07-6.78a11.75,11.75,0,0,0-4.34-4c-3-1.82-4.14-4.21-4.84-7.51-1.13-5.35-2.21-10.8-5-15.55-1.43-2.44-3.14-4.38-3.83-7.19-.75-3.06-.46-6.47-.77-9.61A28.38,28.38,0,0,0,61,113.5c-.52-1.38-1.15-2.7-1.6-4.11s-.59-3-1.1-4.44a18,18,0,0,0-2.76-5.47,27,27,0,0,1-2.6-3.32c-.77-1.28-.52-2.86-.48-4.32a9.58,9.58,0,0,1,3.13-.21A29.19,29.19,0,0,1,56.64,94.61Zm14.8,11.73a62.85,62.85,0,0,1,2.89,8.31A59.42,59.42,0,0,0,77,123.2a27.26,27.26,0,0,0,4.54,6.59,54.39,54.39,0,0,1,5.6,7.86c1.44,2.47,2.6,5,4.11,7.48.76,1.22,1.49,2.49,2.13,3.78a20.23,20.23,0,0,0,1.84,3.66c1.82,2.32,3.3,4.93,5.14,7.21,2.1,2.59,3,5.74,4.35,8.72,2.61,5.73,6.93,10.32,9.31,16.17a50.08,50.08,0,0,1,2.36,9.14c.62,3.19-.15,6.5.51,9.72.75,3.67,1.06,6.92-1,10.27a17.68,17.68,0,0,1-1.36,2c-.81,1-2.67,1.39-2.74-.22-.08-1.92,0-3.87,0-5.8,0-3,1.12-5.92,1.54-8.87a26.28,26.28,0,0,0-.24-7.3c-.36-2.64-1.85-5.19-2.83-7.63a50.61,50.61,0,0,0-3.55-7.15c-1.43-2.4-3.13-4.63-4.55-7s-1.19-5.23-3-7.35c-.76-.9-1.58-1.73-2.38-2.59a19.57,19.57,0,0,1-2.83-4.6,43.54,43.54,0,0,0-4-6.82c-1.6-2-3.65-3.61-5.37-5.54A25.46,25.46,0,0,1,80.07,137a31.79,31.79,0,0,0-3.16-6.79,28,28,0,0,1-4.08-8.18c-1.53-5.26-2.19-10.79-4.75-15.7a30.12,30.12,0,0,1-3.18-7.81c-.17-.79-1.09-6-.19-7.23l.58-.19c.82-.27,1.6-.59,2.37-.92a.36.36,0,0,0,0,.09c.57.91.23,2.52.23,3.55a17.64,17.64,0,0,0,.15,3.41C68.7,100.44,70.2,103.37,71.44,106.34Zm7-10.84c1,2.75,2.77,5.17,4.41,7.55a57.93,57.93,0,0,0,5.39,6c1,1.14,2.33,2.1,3.28,3.33a19.86,19.86,0,0,1,2.65,4.9,39.83,39.83,0,0,1,1.8,8.43,53.16,53.16,0,0,0,2.5,9.7c1,2.77,2.65,5.24,4,7.85,1.56,3,2.89,6.05,4.75,8.9,1.56,2.38,3.49,4.59,5.23,6.85a28.83,28.83,0,0,0,3.13,3c1.27,1.21,2.34,2.58,3.64,3.76,2.31,2.07,4.92,3.63,6.79,6.16a21.66,21.66,0,0,1,3.6,9c.55,2.87.89,5.73,1.62,8.57A65.57,65.57,0,0,1,132.64,200c.59,6.19.15,12.41.11,18.61a25.77,25.77,0,0,1-.46,4.88c-.1.51-.25,1-.39,1.54-.66,2.34-2.56.7-2.91-.4a11.93,11.93,0,0,1-.14-4.87c.17-1.74,0-3.55,0-5.3a67.22,67.22,0,0,0-1-8.94c-.44-3.35-.12-6.85-.27-10.22-.25-5.58-.2-12-2.95-17-2.55-4.66-7.56-7.15-11.35-10.6a25.81,25.81,0,0,1-5.41-7.36,65.54,65.54,0,0,0-5.63-8.6,85.56,85.56,0,0,1-5.09-7.43c-2-3.28-2.48-6.74-2.82-10.48-.51-5.62-4.32-10.67-7.57-15-3.82-5.12-5.23-11.1-7.89-16.8-.86-1.86-2-3.56-3-5.33a11.47,11.47,0,0,1-1.47-4.28c-.17-1.31.5-2.92.79-4.21l2-.08A24.76,24.76,0,0,0,78.4,95.5Zm-.64-8.43a.47.47,0,0,0-.31,0l-.88,0a30.22,30.22,0,0,0-4.25.26,20.69,20.69,0,0,0-4.75,1.69,25.43,25.43,0,0,1-5.35,1.77c-2,.39-4.21-.21-6.25-.25a14.45,14.45,0,0,0-3.23.14,2.19,2.19,0,0,1,.47-.3c.21-.1.06-.47-.16-.38a2.6,2.6,0,0,0-1,.87,2.53,2.53,0,0,0-.36.12c-1.26.48-2,1.67-3.17,2.23a.48.48,0,0,0,0,.85l-.29.2a23.14,23.14,0,0,1-3.88,2.5,10.14,10.14,0,0,1-2.6.66h-.07a19.69,19.69,0,0,1-2.43.14,26.33,26.33,0,0,1-5.1,0c-1.62-.31-3.32-2-4.28-3.2-1.3-1.7-2.26-3.75-4.5-4.29-2.56-.62-5.13-.75-7.67-1.59-3.5-1.16-6.3-2.29-7.73-6-1-2.46-1.34-5.11-2.26-7.59-1-2.76-2.52-5.41-3.74-8.09A29.88,29.88,0,0,1,2.05,46.65a53.55,53.55,0,0,1,3.82-9.08,78.62,78.62,0,0,1,4.58-8.72C14,23.22,19,18.33,23.87,13.79a40.85,40.85,0,0,1,16.4-9.11A80.87,80.87,0,0,1,59.2,1.15a42.87,42.87,0,0,1,10.31.43A50.41,50.41,0,0,1,80,5,50.75,50.75,0,0,1,96.31,16.2,66.41,66.41,0,0,1,102,24c2,2.93,4.09,5.86,6.07,8.82,3.67,5.48,7.18,11,8.69,17.47A26.42,26.42,0,0,1,113.88,69c-3,5.47-6.13,11.92-13,12.63a56.33,56.33,0,0,1-7.12-.09l0,0a.44.44,0,0,0-.28,0A12.59,12.59,0,0,0,86,83.32c-1.3.86-2.44,1.93-3.81,2.71A10,10,0,0,1,77.76,87.07Zm68.84,80.29c-.89,1.8-3.73,1.79-5,.64-2.25-2-3.78-4.85-5.83-7.07a35.86,35.86,0,0,0-5.92-5c-2.62-1.83-4.45-4.72-6.4-7.21-1.62-2.06-3.73-3.47-5.57-5.28-2.27-2.24-3.49-5.48-5-8.24s-3.42-4.94-4.94-7.55c-1.8-3.1-2.54-6.59-3.54-10-.86-2.94-2.84-5.23-4.57-7.67-1.88-2.65-3.77-5.5-6.35-7.5s-5.23-3.85-7.89-5.71c-1.34-.94-1.77-2.54-2.55-3.89-.94-1.62-1.92-3.52-1.42-5.45l.41-.13a10.65,10.65,0,0,0,2.13-1.21,6.12,6.12,0,0,0,2.26,2.1,28.81,28.81,0,0,1,3,2.17,18,18,0,0,1,4.75,4.36c1.54,2.18,2.73,4.52,4.35,6.65a23,23,0,0,0,2.26,2,40.45,40.45,0,0,1,3.47,4.25,28.41,28.41,0,0,1,4.26,7.72,27.46,27.46,0,0,1,.76,3.58,27.18,27.18,0,0,0,1.52,4.65,35.1,35.1,0,0,0,3.88,7c.83,1.2,1.84,2.3,2.57,3.57.89,1.53,1.62,3.17,2.66,4.61a47.26,47.26,0,0,0,5.08,5.51c2.35,2.37,4.44,5,6.79,7.36,2.12,2.14,4.58,3.94,6.73,6.08a21.7,21.7,0,0,0,5.78,4.57C145.9,163.16,147.53,165.49,146.6,167.36Z"/><path class="cls-2" d="M9.55,43.68c0,1-.08,2-.2,3,0,.34.55.42.6.08a19.4,19.4,0,0,0,.09-3A.25.25,0,0,0,9.55,43.68Z"/><path class="cls-2" d="M8.05,55a7.88,7.88,0,0,0,.17,1.94c.06.25.49.2.46-.06A13.09,13.09,0,0,1,8.57,55,.26.26,0,0,0,8.05,55Z"/><path class="cls-2" d="M12.5,52.17c0,.46.11.89.16,1.35a.23.23,0,0,0,.46,0c0-.46-.1-.9-.11-1.35A.26.26,0,0,0,12.5,52.17Z"/><path class="cls-2" d="M12.48,62.2c-.1-.34-.63-.19-.53.14a3.9,3.9,0,0,0,.47,1.26.23.23,0,0,0,.4-.23A6.81,6.81,0,0,1,12.48,62.2Z"/><path class="cls-2" d="M13.44,43.41c0,.27,0,.54,0,.81a.24.24,0,0,0,.47,0q0-.4,0-.81A.26.26,0,0,0,13.44,43.41Z"/><path class="cls-2" d="M20.49,29.68c-.13.31-.15.64-.28.94a.26.26,0,1,0,.47.2c.13-.31.14-.64.26-.95S20.6,29.43,20.49,29.68Z"/><path class="cls-2" d="M17.33,25.15C16.48,26.54,15.77,28,15,29.44c-.13.23.22.43.34.2.79-1.43,1.45-2.92,2.26-4.33C17.72,25.13,17.44,25,17.33,25.15Z"/><path class="cls-2" d="M11.57,37.49c0,.67-.13,1.34-.14,2a.25.25,0,0,0,.49,0c0-.68.13-1.35.14-2A.25.25,0,0,0,11.57,37.49Z"/><path class="cls-2" d="M16.06,35.2c0,.76,0,1.52,0,2.29,0,.31.5.31.49,0,0-.77,0-1.53-.05-2.29A.2.2,0,0,0,16.06,35.2Z"/><path class="cls-2" d="M17.38,44.63c0,.23-.1.44-.11.67s.37.25.4,0,.13-.44.16-.67S17.39,44.33,17.38,44.63Z"/><path class="cls-2" d="M15.73,58.37v.94a.26.26,0,0,0,.52,0v-.94A.26.26,0,0,0,15.73,58.37Z"/><path class="cls-2" d="M17.38,69.28a.18.18,0,1,0-.36,0,.49.49,0,0,0,.19.39c.16.17.41-.09.25-.25Z"/><path class="cls-2" d="M14.28,71.25a.21.21,0,0,1,.07.13c.11.38.64.21.58-.16a.82.82,0,0,0-.2-.42C14.48,70.49,14,71,14.28,71.25Z"/><path class="cls-2" d="M27.55,16.84a8.73,8.73,0,0,0-.71,1.7.34.34,0,0,0,.66.18,8,8,0,0,1,.64-1.54C28.33,16.79,27.74,16.45,27.55,16.84Z"/><path class="cls-2" d="M31.24,16a26.24,26.24,0,0,0-1.06,3,.23.23,0,0,0,.44.12,30.58,30.58,0,0,1,1.07-2.9A.24.24,0,1,0,31.24,16Z"/><path class="cls-2" d="M24.6,33.64c-.23.85-.39,1.72-.64,2.57-.1.32.39.45.49.13.29-.83.47-1.7.71-2.55A.29.29,0,0,0,24.6,33.64Z"/><path class="cls-2" d="M23.14,44.13a7.8,7.8,0,0,0,.18-1.93.19.19,0,0,0-.38,0,10.43,10.43,0,0,1-.09,1.85A.15.15,0,0,0,23.14,44.13Z"/><path class="cls-2" d="M24.49,52.3c0-.18-.09-.35-.11-.53a.18.18,0,1,0-.35,0c0,.19.13.35.17.53A.15.15,0,0,0,24.49,52.3Z"/><path class="cls-2" d="M23,62l0-.27c.05-.35-.6-.35-.55,0l0,.27A.25.25,0,0,0,23,62Z"/><path class="cls-2" d="M33.66,23.87a24.07,24.07,0,0,0-1.23,2.56c-.16.34.35.64.52.3a23.14,23.14,0,0,1,1.2-2.57C34.35,23.85,33.86,23.57,33.66,23.87Z"/><path class="cls-2" d="M25.37,26c-.15.42-.38.79-.51,1.22s.41.54.54.23.44-.83.61-1.27S25.51,25.55,25.37,26Z"/><path class="cls-2" d="M37.27,11.89a.27.27,0,0,0-.54,0,2.44,2.44,0,0,0,0,1.23.3.3,0,0,0,.32.13l.12,0a.25.25,0,0,0,0-.45A6.36,6.36,0,0,1,37.27,11.89Z"/><path class="cls-2" d="M42.9,7.67l-.47,2c-.07.3.41.42.46.12l.33-2C43.25,7.56,43,7.46,42.9,7.67Z"/><path class="cls-2" d="M49.6,7.1a4.59,4.59,0,0,1-.18,2.17c-.06.32.43.45.49.13A4.81,4.81,0,0,0,50,7C49.91,6.74,49.51,6.84,49.6,7.1Z"/><path class="cls-2" d="M40.74,15.85c-.12.47-.36.89-.48,1.36-.07.27.34.47.46.2A9.07,9.07,0,0,0,41.34,16,.31.31,0,0,0,40.74,15.85Z"/><path class="cls-2" d="M51.53,10c-.15.44-.28.89-.44,1.33-.08.24.3.35.38.11.13-.45.23-.91.36-1.36C51.89,9.86,51.6,9.78,51.53,10Z"/><path class="cls-2" d="M56.3,5.36a3.45,3.45,0,0,1,.12,1,.25.25,0,0,0,.5,0,4,4,0,0,0-.15-1.14A.24.24,0,0,0,56.3,5.36Z"/><path class="cls-2" d="M59.24,6.61a7.37,7.37,0,0,1-.56,1.7c-.11.19.2.37.29.17a7.49,7.49,0,0,0,.51-1.81C59.51,6.52,59.28,6.45,59.24,6.61Z"/><path class="cls-2" d="M47.91,15.86c-.12.4-.14.82-.24,1.22a.25.25,0,0,0,.48.13c.14-.39.18-.8.31-1.2A.29.29,0,0,0,47.91,15.86Z"/><path class="cls-2" d="M43.47,23.82a.2.2,0,0,0,0,.4A.2.2,0,0,0,43.47,23.82Z"/><path class="cls-2" d="M26.41,70.94c-.09-.42-.73-.24-.64.18a11.67,11.67,0,0,0,.68,2.15c.16.37.77.22.62-.17A16.77,16.77,0,0,1,26.41,70.94Z"/><path class="cls-2" d="M23.4,76.16a7.06,7.06,0,0,1,.81,1.41.28.28,0,0,0,.53-.15,4.23,4.23,0,0,0-.81-1.56C23.71,75.54,23.19,75.84,23.4,76.16Z"/><path class="cls-2" d="M22.34,78.41c-.16-.19-.5.07-.35.27A5.89,5.89,0,0,0,23.4,80c.24.17.53-.22.31-.4A7.75,7.75,0,0,1,22.34,78.41Z"/><path class="cls-2" d="M28.92,81.26a.14.14,0,0,0,0,.28A.14.14,0,0,0,28.92,81.26Z"/><path class="cls-2" d="M33.12,85.88c-.14-.19-.46,0-.32.19.29.42.65.8.94,1.22.14.2.47,0,.33-.19C33.77,86.67,33.41,86.31,33.12,85.88Z"/><path class="cls-2" d="M27.35,62.41c0,.23.13.44.15.67s.43.27.42,0-.11-.44-.13-.67S27.32,62.13,27.35,62.41Z"/><path class="cls-2" d="M32,74.69a0,0,0,0,0,0,0A0,0,0,0,0,32,74.69Z"/><path class="cls-2" d="M35.53,80.24a.16.16,0,1,0-.26.2c.1.12.18.26.28.39s.33,0,.23-.18S35.62,80.37,35.53,80.24Z"/><path class="cls-2" d="M37.67,84.71a.19.19,0,0,0,0,.38A.19.19,0,0,0,37.67,84.71Z"/></g></svg>