<svg xmlns="http://www.w3.org/2000/svg" viewBox="0 0 87.99 75.09"><defs><style>.cls-1{fill:#fff;}.cls-2{fill:#272525;}</style></defs><title>life</title><g id="color"><path class="cls-1" d="M42,53.6a1.09,1.09,0,0,0-.58.52.12.12,0,0,1,.05.1.51.51,0,0,0,0,.26l0,.05a.8.8,0,0,0,.21.13,1.61,1.61,0,0,0,.49,0,1.69,1.69,0,0,0,.85-.31C43.88,53.5,42.52,53.4,42,53.6Z"/><path class="cls-1" d="M54.42,17.72a4.35,4.35,0,0,0,1.14-.15c.52-.15,1.13-.46,1.11-1.09,0-.43-.31-.63-.72-.65a3.42,3.42,0,0,0-1.74.39,1.74,1.74,0,0,0-.5.44A.69.69,0,0,0,54.42,17.72Z"/><path class="cls-1" d="M45.3,20.74a.47.47,0,0,0,.35.33,2.46,2.46,0,0,0,.84-.06,5.72,5.72,0,0,0,.59-.17c.37-.15.8-.74.28-1a1.75,1.75,0,0,0-1.83.37.72.72,0,0,0-.24.39.09.09,0,0,1,0,.07Z"/><path class="cls-1" d="M48.48,43a4.34,4.34,0,0,0-.87.12.14.14,0,0,1-.13.15c-.74.07-1.56,1.32-.48,1.62a3,3,0,0,0,1.51,0,5.27,5.27,0,0,0,.68-.19c.44-.17,1.22-.8.6-1.34A1.8,1.8,0,0,0,48.48,43Z"/><path class="cls-1" d="M44.57,46.61a3.38,3.38,0,0,0-1.91.5l-.14.11a.13.13,0,0,1-.09.13l-.15.07a1.51,1.51,0,0,0-.52.87,1.08,1.08,0,0,0,.32.59,2.41,2.41,0,0,0,1.26.51,3.14,3.14,0,0,0,1.23-.06c.6-.17,1.63-.69,1.61-1.45S45.28,46.63,44.57,46.61Z"/><path class="cls-1" d="M43.45,61.12c-.35.25-.82.88-.15,1a.1.1,0,0,1,.08.12,1,1,0,0,0,1.24-.61C44.81,60.92,43.93,60.8,43.45,61.12Z"/><path class="cls-1" d="M38.51,19.88a3.37,3.37,0,0,0-2.28-.19c-.78.21-2,.82-2.25,1.7a1.31,1.31,0,0,0,1.27,1.49c.48,0,1-.08,1.44-.06a.16.16,0,0,1,.15.14,3.6,3.6,0,0,0,1.81-.85A1.34,1.34,0,0,0,38.51,19.88Z"/><path class="cls-1" d="M65.82,10.64a1.31,1.31,0,0,0,.7-.15c.44-.26.44-.86-.15-.84a1.54,1.54,0,0,0-1,.38.09.09,0,0,1-.07,0l0,0C65.18,10.4,65.57,10.63,65.82,10.64Z"/><path class="cls-1" d="M11.77,41c-.39.06-1.38.32-1,.88a.1.1,0,0,1,0,.09,1.64,1.64,0,0,0,1.39,0c.2-.12.63-.49.42-.77A.82.82,0,0,0,11.77,41Z"/><path class="cls-1" d="M29.65,16.11h0s0,.06,0,.06a1.33,1.33,0,0,0-.5.13.71.71,0,0,0-.33.75v.05a.79.79,0,0,0,1,.21.83.83,0,0,0,.44-.68A.55.55,0,0,0,29.65,16.11Z"/><path class="cls-1" d="M29.32,10.26c.32-.32-.13-.63-.44-.62s-.72.16-.61.52a0,0,0,0,1,0,.05l0,0A.81.81,0,0,0,29.32,10.26Z"/><path class="cls-1" d="M23,36.59h-.09a5.79,5.79,0,0,0-4.5.49,1.73,1.73,0,0,0-.91,1.26,1.59,1.59,0,0,0,.09.39.54.54,0,0,0,.07.13,2.74,2.74,0,0,0,1.5,1.1c1.41.46,4.62.32,4.91-1.63A1.52,1.52,0,0,0,23,36.59Z"/><path class="cls-1" d="M67.88,39.78a4.74,4.74,0,0,0-3.73-.51c-1.23.39-1.57,1.9-.19,2.41a6,6,0,0,0,1.41.28h.42s0,0,0,0c1.09,0,2.2-.26,2.37-1.2a1.06,1.06,0,0,0-.28-1Z"/><path class="cls-1" d="M54.15,20.11a1.2,1.2,0,0,0-.75.41.32.32,0,0,0,.1.54h0a1,1,0,0,0,.75-.18C54.53,20.65,54.75,20,54.15,20.11Z"/><path class="cls-1" d="M57,34.48a3,3,0,0,0-1.16.26.11.11,0,0,1-.07.12.66.66,0,0,0,.11,1.23,2.73,2.73,0,0,0,1.6-.06c.44-.15,1.09-.53.61-1A1.6,1.6,0,0,0,57,34.48Z"/><path class="cls-1" d="M51.9,27.94a4,4,0,0,0-3.92.42,2.38,2.38,0,0,0-1,1.44,2.28,2.28,0,0,0,.61,1.43,3.53,3.53,0,0,0,2.24.41,6.58,6.58,0,0,0,.67-.15,3.42,3.42,0,0,0,2-1.34A1.64,1.64,0,0,0,51.9,27.94Z"/><path class="cls-1" d="M87.4,43.31c-.27-.47-.62-1-1.29-1a4.78,4.78,0,0,0-2.06.8,3.84,3.84,0,0,1-2.26.3h-.12a1.14,1.14,0,0,1-.26-.09h0c-.31-.13-.59-.33-.92-.45a12.25,12.25,0,0,1-1.34-.57c-1.19-.63-2.45-1.11-3.68-1.67-2.42-1.09-4.86-2.08-7.31-3.1a56.12,56.12,0,0,1-6.8-3.83,36.67,36.67,0,0,1-3.15-2.1,4.46,4.46,0,0,1-1.67-1.83A7.63,7.63,0,0,1,57.17,24a25.45,25.45,0,0,1,4.27-5.33c.89-1,1.86-1.9,2.67-2.94a20.93,20.93,0,0,1,2.4-2.75c.93-.82,1.91-1.55,2.91-2.28.49-.36,1-.64,1.52-1,.16-.12.29-.22.42-.3a1.63,1.63,0,0,1-.29-.1c-.93-.52-1-1.57-1.88-2.11-.06,0,0-.13,0-.1.65.34.73.63,1.14,1.24a1.83,1.83,0,0,0,3,0c1-2-1-3.54-2.88-3.16a31,31,0,0,0-5.66,2,35.79,35.79,0,0,0-5.37,2.38,60.27,60.27,0,0,1-5.34,2.8c-1.77.84-3.66,1.51-5.4,2.44-2.83,1.52-5.29,3.72-8.8,2.34a6.51,6.51,0,0,1-2.6-1.81c-.41-.49-.68-1.07-1.12-1.54s-.81-.85-1.18-1.3c-.9-1.11-1.61-2.35-2.56-3.43S30.65,7,29.74,6a13.47,13.47,0,0,0-3.68-2.57l-1.74-1a12.38,12.38,0,0,0-1.75-.95A11.77,11.77,0,0,0,19,.47c-1.23,0-.81,1.23-.16,1.74A12.55,12.55,0,0,1,20.21,3.4a15.81,15.81,0,0,1,3.24,6.9A33.51,33.51,0,0,0,25,14.44c.5,1.32,1,2.64,1.6,3.92s1.18,2.26,1.8,3.39a6.24,6.24,0,0,1,.9,2.85c0,1.65.23,4.2-1.4,5.25a13.16,13.16,0,0,1-2.24,2.32c-1.91,1.28-4.18,1.54-6.29,2.35A46.81,46.81,0,0,1,11,36.8c-1.25.24-2.54.7-3.79.84a35.7,35.7,0,0,1-3.73,0,.2.2,0,0,1-.11,0,13.69,13.69,0,0,1,.4,2.26c0,.14-.19.21-.21.06-.11-.5-.3-1-.36-1.51a3.23,3.23,0,0,0-.32-1.29,1.16,1.16,0,0,0-1.79-.26,2.86,2.86,0,0,0,.14,3.94,7.67,7.67,0,0,0,2.15,1c.58.23,1.13.55,1.72.79a15.67,15.67,0,0,0,4.06.94,60.86,60.86,0,0,0,8.21.41c2.85,0,5.68-.42,8.52-.6,1.54-.1,3.1-.11,4.65-.13a4.66,4.66,0,0,1,2.71.48c.94.6,1.5,2,2,2.9.63,1.18,1.12,2.5,1.82,3.63a5.6,5.6,0,0,1,.48,1.43,14.82,14.82,0,0,1,.55,1.75A27.07,27.07,0,0,1,38.72,57c.17,2.73.18,5.5.18,8.23a9.58,9.58,0,0,0,1,4.26c.32.6.17,4.24.64,4.74a2,2,0,0,0,2,.3,7.55,7.55,0,0,0,1.24-.38,6.31,6.31,0,0,0,1-1.19,6.35,6.35,0,0,0,.6-2.09c.27-1.43.59-2.85.89-4.26.1-.92.15-1.76.19-2.39.11-1.54.43-3.06.56-4.6s.35-2.81.45-4.22a39.07,39.07,0,0,1,.57-4.19A20.11,20.11,0,0,0,48.49,49a2.33,2.33,0,0,1,.34-1.06,8.22,8.22,0,0,1,4.73-3.62,23.92,23.92,0,0,1,8.13-.63c5.79.39,11.48,1.46,17.24,2.13,1.37.16,2.76.48,4.15.51a6,6,0,0,0,2.06-.22,7.48,7.48,0,0,0,1.56-1C87.29,44.73,87.83,44.06,87.4,43.31Zm-22-33.56a1.5,1.5,0,0,1,1.36-.24c.59.24.25,1-.19,1.19s-1.47.25-1.46-.51A.55.55,0,0,1,65.39,9.75ZM12.51,42a1.56,1.56,0,0,1-1.16.34c-.32,0-.81-.12-.93-.48-.3-.92,1.2-1.18,1.8-1.17a0,0,0,0,1,0,0,.71.71,0,0,1,.56.32A.79.79,0,0,1,12.51,42ZM24,39.31c-1.38,1.54-4.85,1.73-6.26.11a1.58,1.58,0,0,1,.49-2.54,1.64,1.64,0,0,1,.22-.14,5.72,5.72,0,0,1,3-.69A3.45,3.45,0,0,1,24,36.9,1.89,1.89,0,0,1,24,39.31Zm4.13-29.05a.41.41,0,0,1,.1-.5,1,1,0,0,1,.78-.3h.15a.58.58,0,0,1,.4.26.52.52,0,0,1,0,.62C29.16,10.68,28.32,10.74,28.09,10.26ZM30,17.39c-.45.37-1.38.29-1.51-.37a.67.67,0,0,1,.1-.49,1.23,1.23,0,0,1,1.16-.62.74.74,0,0,1,.65.63A1,1,0,0,1,30,17.39Zm9.21,4.5a4,4,0,0,1-4,1.31,1.43,1.43,0,0,1-.74-.22,1.75,1.75,0,0,1-.83-1.17,1,1,0,0,1,.17-.8,4,4,0,0,1,4.84-1.4A1.56,1.56,0,0,1,39.23,21.89Zm14.16-5.14a1.38,1.38,0,0,1,.55-.67.08.08,0,0,1,.07,0c.62-.45,2.12-.84,2.7-.24a1.09,1.09,0,0,1,0,1.43A2.41,2.41,0,0,1,55,18c-.49.07-1.39.18-1.63-.41A.83.83,0,0,1,53.39,16.75ZM45,20.62a.54.54,0,0,1,.07-.26,2,2,0,0,1,2.5-.72.84.84,0,0,1,0,1.29,2.13,2.13,0,0,1-1,.37C46,21.41,44.83,21.5,45,20.62Zm-3.8,33.57v0a.68.68,0,0,1,.23-.49c.43-.4,1.73-.81,2.09-.08C44.28,55.06,40.86,55.55,41.22,54.19Zm3.61,7.47A1.22,1.22,0,0,1,43,62.3a.52.52,0,0,1-.11-.1.5.5,0,0,1-.14-.45.79.79,0,0,1,.15-.41l.17-.18a1.32,1.32,0,0,1,.26-.22,1.11,1.11,0,0,1,1-.16A.74.74,0,0,1,44.83,61.66ZM46,48.81a3.07,3.07,0,0,1-2.39.9,2.23,2.23,0,0,1-2.13-1,1.14,1.14,0,0,1,.61-1.49,3.09,3.09,0,0,1,3.76-.41A1.29,1.29,0,0,1,46,48.81Zm1.23-3.59c-.55-.1-1.3-.47-1.09-1.16a1.61,1.61,0,0,1,.9-1,3.23,3.23,0,0,1,1-.29c.58-.07,1.51-.15,1.94.35C51.28,44.61,48.3,45.41,47.27,45.22ZM52.86,30a3.42,3.42,0,0,1-2.16,1.68,4.2,4.2,0,0,1-2.82.06,1.87,1.87,0,0,1-.82-.72L47,31,47,30.92a.41.41,0,0,0,0-.09.56.56,0,0,0,0-.12l0-.08a1,1,0,0,1,0-.16,4.11,4.11,0,0,1-.13-.7.12.12,0,0,1,.1-.13,2,2,0,0,1,.66-1.17c1.19-1,3.45-1.66,4.82-.64A1.89,1.89,0,0,1,52.86,30Zm1.73-9.14a1.17,1.17,0,0,1-.92.41.12.12,0,0,1-.09,0,.64.64,0,0,1-.5-.34l0,0a.59.59,0,0,1,.25-.74l.18-.11a1.37,1.37,0,0,1,.44-.21.67.67,0,0,1,.82.25A.78.78,0,0,1,54.59,20.89Zm3.87,14.75c-.18.56-1.05.76-1.54.82-.65.08-1.43,0-1.77-.57a.75.75,0,0,1-.13-.68.81.81,0,0,1,.25-.37l0,0,.08-.07.09-.06a3.13,3.13,0,0,1,.76-.34,2,2,0,0,1,1.57.11A1,1,0,0,1,58.46,35.64Zm10.05,5.22c-.26,1-1.36,1.32-2.27,1.39a4.19,4.19,0,0,1-3-.61,1.34,1.34,0,0,1-.61-.94,1.83,1.83,0,0,1,1.79-2C65.68,38.56,69,38.88,68.51,40.86Zm6.6,2.28c-.41.28-1.5.49-1.73-.14a.69.69,0,0,1,0-.2s0,0,0,0c0-.65.79-1,1.35-.9S75.71,42.73,75.11,43.14Z"/><path class="cls-1" d="M74.52,42.1h-.09a1.5,1.5,0,0,0-.79.4.6.6,0,0,0-.07.27.15.15,0,0,1,0,.08.11.11,0,0,0,0,0c.18.44,1,.3,1.32.11C75.41,42.69,75.06,42.09,74.52,42.1Z"/></g><g id="stroke"><path class="cls-2" d="M85.75,41.94c-1.37.3-2.63,1.42-4.09,1-.28-.11-.55-.31-.82-.42a11.28,11.28,0,0,1-1.48-.62c-1.09-.57-2.23-1-3.36-1.51-2.06-.9-4.06-1.89-6.15-2.72a27.87,27.87,0,0,1-3.37-1.46c-1.09-.61-2.16-1.27-3.23-1.92a33.29,33.29,0,0,1-5.72-3.81c-1.71-1.61-.76-4.82.14-6.61,1-2,2.78-3.6,4.28-5.25.74-.81,1.51-1.6,2.23-2.44s1.33-1.8,2.13-2.58A28.72,28.72,0,0,1,69,11.33c.42-.32.84-.63,1.28-.92a11.39,11.39,0,0,1,1.42-1A2.44,2.44,0,0,0,73.17,9a2.51,2.51,0,0,0,.2-3.49c-1.32-1.65-4.14-.57-5.7,0-2.46.89-4.87,2-7.26,3.08-1.16.52-2.2,1.24-3.31,1.84-1.35.71-2.77,1.3-4.14,2-1.17.56-2.38,1-3.57,1.55a28.9,28.9,0,0,0-3.58,2.17c-1.09.69-1.76.46-3,.74a5.13,5.13,0,0,1-4.4-1.18,18.61,18.61,0,0,1-2.27-2.72c-.95-1.11-1.77-2.3-2.66-3.46A21.69,21.69,0,0,0,31.21,7a22.85,22.85,0,0,0-2.38-2.44,29,29,0,0,0-3.15-1.83c-.47-.25-.92-.51-1.38-.77A9.32,9.32,0,0,0,23,1.23C22.48,1.05,22,.8,21.54.62A16.67,16.67,0,0,0,19.86.17a2.32,2.32,0,0,0-1.66,0c-1.52.94.63,2.53,1.29,3.12a11.06,11.06,0,0,1,2.08,3,17.51,17.51,0,0,1,1.37,3.79A24.9,24.9,0,0,0,24,13.42c.51,1.19,1,2.39,1.47,3.6.42,1,.88,2,1.36,3a31.61,31.61,0,0,1,1.55,2.93,10.48,10.48,0,0,1,.37,3.74,3.26,3.26,0,0,1-1.44,3,.18.18,0,0,0,0,.32c-2.39,2.44-6.64,3.62-9.39,4.58a45.48,45.48,0,0,1-7.07,1.79c-1.33.24-2.66.71-4,.85a32.13,32.13,0,0,1-3.4,0,.2.2,0,0,0-.2.15c-.33-.84-.9-1.42-2-1-1.68.59-1.39,3.15-.73,4.32a4.05,4.05,0,0,0,2.16,1.39c1.29.48,2.47,1.18,3.8,1.57a24,24,0,0,0,3.68.55,39.24,39.24,0,0,0,4.2.2,74.76,74.76,0,0,0,8.33-.24c2.92-.25,5.84-.41,8.77-.4,1.66,0,2.32,1.28,3,2.58s1.36,2.58,2,3.9a26.46,26.46,0,0,1,1.14,3.39A16.29,16.29,0,0,1,38.32,58c.12,2.71,0,5.45.15,8.15a9.85,9.85,0,0,0,.8,3c.41.94.49,5.16,1.38,5.76a3.15,3.15,0,0,0,2.3,0,2.62,2.62,0,0,0,1.38-1,4.06,4.06,0,0,0,1.25-2.2q.2-.9.36-1.8c1.13-2.34.83-4.86,1.28-7.36.52-2.93.5-5.93,1-8.86.21-1.33.42-2.66.67-4a4.05,4.05,0,0,1,.5-1.66c.37-.56.83-.94,1.24-1.47A6.56,6.56,0,0,1,54,44.66,20.33,20.33,0,0,1,58.59,44a56.31,56.31,0,0,1,9,.68c3,.4,5.92.88,8.89,1.31,1.34.19,2.72.37,4.07.51a16.91,16.91,0,0,0,4.14.18,6.19,6.19,0,0,0,2.76-1.53,1.73,1.73,0,0,0,.37-2.09A1.84,1.84,0,0,0,85.75,41.94Zm1,3.17a7.48,7.48,0,0,1-1.56,1,6,6,0,0,1-2.06.22c-1.39,0-2.78-.35-4.15-.51-5.76-.67-11.45-1.74-17.24-2.13a23.92,23.92,0,0,0-8.13.63,8.22,8.22,0,0,0-4.73,3.62A2.33,2.33,0,0,0,48.49,49a20.11,20.11,0,0,1-.38,2.17,39.07,39.07,0,0,0-.57,4.19c-.1,1.41-.33,2.8-.45,4.22s-.45,3.06-.56,4.6c0,.63-.09,1.47-.19,2.39-.3,1.41-.62,2.83-.89,4.26a6.35,6.35,0,0,1-.6,2.09,6.31,6.31,0,0,1-1,1.19,7.55,7.55,0,0,1-1.24.38,2,2,0,0,1-2-.3c-.47-.5-.32-4.14-.64-4.74a9.58,9.58,0,0,1-1-4.26c0-2.73,0-5.5-.18-8.23a27.07,27.07,0,0,0-.66-3.46,14.82,14.82,0,0,0-.55-1.75A5.6,5.6,0,0,0,37,50.31c-.7-1.13-1.19-2.45-1.82-3.63-.5-.94-1.06-2.3-2-2.9a4.66,4.66,0,0,0-2.71-.48c-1.55,0-3.11,0-4.65.13-2.84.18-5.67.58-8.52.6a60.86,60.86,0,0,1-8.21-.41,15.67,15.67,0,0,1-4.06-.94c-.59-.24-1.14-.56-1.72-.79a7.67,7.67,0,0,1-2.15-1,2.86,2.86,0,0,1-.14-3.94,1.16,1.16,0,0,1,1.79.26,3.23,3.23,0,0,1,.32,1.29c.06.51.25,1,.36,1.51,0,.15.24.08.21-.06a13.69,13.69,0,0,0-.4-2.26.2.2,0,0,0,.11,0,35.7,35.7,0,0,0,3.73,0C8.42,37.5,9.71,37,11,36.8a46.81,46.81,0,0,0,8.36-2.28c2.11-.81,4.38-1.07,6.29-2.35a13.16,13.16,0,0,0,2.24-2.32c1.63-1.05,1.38-3.6,1.4-5.25a6.24,6.24,0,0,0-.9-2.85c-.62-1.13-1.26-2.21-1.8-3.39s-1.1-2.6-1.6-3.92a33.51,33.51,0,0,1-1.5-4.14,15.81,15.81,0,0,0-3.24-6.9,12.55,12.55,0,0,0-1.33-1.19C18.23,1.7,17.81.42,19,.47a11.77,11.77,0,0,1,3.53,1.09,12.38,12.38,0,0,1,1.75.95l1.74,1A13.47,13.47,0,0,1,29.74,6C30.65,7,31.59,8,32.48,9S34.14,11.29,35,12.4c.37.45.78.87,1.18,1.3s.71,1.05,1.12,1.54a6.51,6.51,0,0,0,2.6,1.81c3.51,1.38,6-.82,8.8-2.34,1.74-.93,3.63-1.6,5.4-2.44a60.27,60.27,0,0,0,5.34-2.8,35.79,35.79,0,0,1,5.37-2.38,31,31,0,0,1,5.66-2c1.92-.38,3.86,1.16,2.88,3.16a1.83,1.83,0,0,1-3,0c-.41-.61-.49-.9-1.14-1.24-.06,0-.11.06,0,.1.85.54,1,1.59,1.88,2.11a1.63,1.63,0,0,0,.29.1c-.13.08-.26.18-.42.3-.49.37-1,.65-1.52,1-1,.73-2,1.46-2.91,2.28a20.93,20.93,0,0,0-2.4,2.75c-.81,1-1.78,2-2.67,2.94A25.45,25.45,0,0,0,57.17,24a7.63,7.63,0,0,0-.65,5.85,4.46,4.46,0,0,0,1.67,1.83,36.67,36.67,0,0,0,3.15,2.1,56.12,56.12,0,0,0,6.8,3.83c2.45,1,4.89,2,7.31,3.1,1.23.56,2.49,1,3.68,1.67a12.25,12.25,0,0,0,1.34.57c.33.12.61.32.92.45h0a1.14,1.14,0,0,0,.26.09h.12a3.84,3.84,0,0,0,2.26-.3,4.78,4.78,0,0,1,2.06-.8c.67-.06,1,.48,1.29,1C87.83,44.06,87.29,44.73,86.7,45.11Z"/><path class="cls-2" d="M52.26,27.83c-1.37-1-3.63-.39-4.82.64a2,2,0,0,0-.66,1.17.12.12,0,0,0-.1.13,4.11,4.11,0,0,0,.13.7,1,1,0,0,0,0,.16l0,.08a.56.56,0,0,1,0,.12.41.41,0,0,1,0,.09L47,31l0,.06a1.87,1.87,0,0,0,.82.72,4.2,4.2,0,0,0,2.82-.06A3.42,3.42,0,0,0,52.86,30,1.89,1.89,0,0,0,52.26,27.83Zm.21,2.32a3.42,3.42,0,0,1-2,1.34,6.58,6.58,0,0,1-.67.15,3.53,3.53,0,0,1-2.24-.41A2.28,2.28,0,0,1,47,29.8a2.38,2.38,0,0,1,1-1.44,4,4,0,0,1,3.92-.42A1.64,1.64,0,0,1,52.47,30.15Z"/><path class="cls-2" d="M38.67,19.61A4,4,0,0,0,33.83,21a1,1,0,0,0-.17.8A1.75,1.75,0,0,0,34.49,23a1.43,1.43,0,0,0,.74.22,4,4,0,0,0,4-1.31A1.56,1.56,0,0,0,38.67,19.61Zm0,2.5a3.6,3.6,0,0,1-1.81.85.16.16,0,0,0-.15-.14c-.48,0-1,.07-1.44.06A1.31,1.31,0,0,1,34,21.39c.21-.88,1.47-1.49,2.25-1.7a3.37,3.37,0,0,1,2.28.19A1.34,1.34,0,0,1,38.65,22.11Z"/><path class="cls-2" d="M45.89,46.78a3.09,3.09,0,0,0-3.76.41,1.14,1.14,0,0,0-.61,1.49,2.23,2.23,0,0,0,2.13,1,3.07,3.07,0,0,0,2.39-.9A1.29,1.29,0,0,0,45.89,46.78Zm-1.32,2.55a3.14,3.14,0,0,1-1.23.06,2.41,2.41,0,0,1-1.26-.51,1.08,1.08,0,0,1-.32-.59,1.51,1.51,0,0,1,.52-.87l.15-.07a.13.13,0,0,0,.09-.13l.14-.11a3.38,3.38,0,0,1,1.91-.5c.71,0,1.6.47,1.61,1.27S45.17,49.16,44.57,49.33Z"/><path class="cls-2" d="M64.45,38.74a1.83,1.83,0,0,0-1.79,2,1.34,1.34,0,0,0,.61.94,4.19,4.19,0,0,0,3,.61c.91-.07,2-.4,2.27-1.39C69,38.88,65.68,38.56,64.45,38.74Zm3.75,2C68,41.72,66.92,42,65.83,42c0,0,0,0,0,0h-.42A6,6,0,0,1,64,41.68c-1.38-.51-1-2,.19-2.41a4.74,4.74,0,0,1,3.73.51h0A1.06,1.06,0,0,1,68.2,40.78Z"/><path class="cls-2" d="M21.39,36.05a5.72,5.72,0,0,0-3,.69,1.64,1.64,0,0,0-.22.14,1.58,1.58,0,0,0-.49,2.54c1.41,1.62,4.88,1.43,6.26-.11A1.89,1.89,0,0,0,24,36.9,3.45,3.45,0,0,0,21.39,36.05Zm2.71,2.29c-.29,1.95-3.5,2.09-4.91,1.63a2.74,2.74,0,0,1-1.5-1.1.54.54,0,0,1-.07-.13,1.59,1.59,0,0,1-.09-.39,1.73,1.73,0,0,1,.91-1.26,5.79,5.79,0,0,1,4.5-.49H23A1.52,1.52,0,0,1,24.1,38.34Z"/><path class="cls-2" d="M55,18a2.41,2.41,0,0,0,1.67-.72,1.09,1.09,0,0,0,0-1.43c-.58-.6-2.08-.21-2.7.24a.08.08,0,0,0-.07,0,1.38,1.38,0,0,0-.55.67.83.83,0,0,0,0,.82C53.63,18.16,54.53,18.05,55,18Zm-1.31-1.32a1.74,1.74,0,0,1,.5-.44A3.42,3.42,0,0,1,56,15.83c.41,0,.71.22.72.65,0,.63-.59.94-1.11,1.09a4.35,4.35,0,0,1-1.14.15A.69.69,0,0,1,53.71,16.66Z"/><path class="cls-2" d="M53.93,19.9a1.37,1.37,0,0,0-.44.21l-.18.11a.59.59,0,0,0-.25.74l0,0a.64.64,0,0,0,.5.34.12.12,0,0,0,.09,0,1.17,1.17,0,0,0,.92-.41.78.78,0,0,0,.16-.74A.67.67,0,0,0,53.93,19.9Zm.35,1a1,1,0,0,1-.75.18h0a.32.32,0,0,1-.1-.54,1.2,1.2,0,0,1,.75-.41C54.75,20,54.53,20.65,54.28,20.89Z"/><path class="cls-2" d="M46.57,21.3a2.13,2.13,0,0,0,1-.37.84.84,0,0,0,0-1.29,2,2,0,0,0-2.5.72.54.54,0,0,0-.07.26C44.83,21.5,46,21.41,46.57,21.3Zm-1-1.11a1.75,1.75,0,0,1,1.83-.37c.52.28.09.87-.28,1a5.72,5.72,0,0,1-.59.17,2.46,2.46,0,0,1-.84.06.47.47,0,0,1-.35-.33v-.09a.09.09,0,0,0,0-.07A.72.72,0,0,1,45.53,20.19Z"/><path class="cls-2" d="M57.79,34.46a2,2,0,0,0-1.57-.11,3.13,3.13,0,0,0-.76.34l-.09.06-.08.07,0,0a.81.81,0,0,0-.25.37.75.75,0,0,0,.13.68c.34.62,1.12.65,1.77.57.49-.06,1.36-.26,1.54-.82A1,1,0,0,0,57.79,34.46ZM57.43,36a2.73,2.73,0,0,1-1.6.06.66.66,0,0,1-.11-1.23.11.11,0,0,0,.07-.12A3,3,0,0,1,57,34.48,1.6,1.6,0,0,1,58,35C58.52,35.5,57.87,35.88,57.43,36Z"/><path class="cls-2" d="M48,42.75a3.23,3.23,0,0,0-1,.29,1.61,1.61,0,0,0-.9,1c-.21.69.54,1.06,1.09,1.16,1,.19,4-.61,2.71-2.12C49.55,42.6,48.62,42.68,48,42.75Zm1.15,1.89a5.27,5.27,0,0,1-.68.19,3,3,0,0,1-1.51,0c-1.08-.3-.26-1.55.48-1.62a.14.14,0,0,0,.13-.15,4.34,4.34,0,0,1,.87-.12,1.8,1.8,0,0,1,1.31.35C50.41,43.84,49.63,44.47,49.19,44.64Z"/><path class="cls-2" d="M43.55,53.6c-.36-.73-1.66-.32-2.09.08a.68.68,0,0,0-.23.49v0C40.86,55.55,44.28,55.06,43.55,53.6Zm-.42.75a1.69,1.69,0,0,1-.85.31,1.61,1.61,0,0,1-.49,0,.8.8,0,0,1-.21-.13l0-.05a.51.51,0,0,1,0-.26.12.12,0,0,0-.05-.1A1.09,1.09,0,0,1,42,53.6C42.52,53.4,43.88,53.5,43.13,54.35Z"/><path class="cls-2" d="M44.36,60.78a1.11,1.11,0,0,0-1,.16,1.32,1.32,0,0,0-.26.22l-.17.18a.79.79,0,0,0-.15.41.5.5,0,0,0,.14.45.52.52,0,0,0,.11.1,1.22,1.22,0,0,0,1.82-.64A.74.74,0,0,0,44.36,60.78Zm.26.89a1,1,0,0,1-1.24.61.1.1,0,0,0-.08-.12c-.67-.16-.2-.79.15-1S44.81,60.92,44.62,61.67Z"/><path class="cls-2" d="M12.25,40.75a0,0,0,0,0,0,0c-.6,0-2.1.25-1.8,1.17.12.36.61.44.93.48A1.56,1.56,0,0,0,12.51,42a.79.79,0,0,0,.3-1A.71.71,0,0,0,12.25,40.75ZM12.17,42a1.64,1.64,0,0,1-1.39,0,.1.1,0,0,0,0-.09c-.38-.56.61-.82,1-.88a.82.82,0,0,1,.82.18C12.8,41.48,12.37,41.85,12.17,42Z"/><path class="cls-2" d="M29.48,10.36a.52.52,0,0,0,0-.62.58.58,0,0,0-.4-.26H29a1,1,0,0,0-.78.3.41.41,0,0,0-.1.5C28.32,10.74,29.16,10.68,29.48,10.36Zm-1.21-.15a0,0,0,0,0,0-.05c-.11-.36.32-.51.61-.52s.76.3.44.62a.81.81,0,0,1-1,0Z"/><path class="cls-2" d="M29.77,15.91a1.23,1.23,0,0,0-1.16.62.67.67,0,0,0-.1.49c.13.66,1.06.74,1.51.37a1,1,0,0,0,.4-.85A.74.74,0,0,0,29.77,15.91Zm0,1.4a.79.79,0,0,1-1-.21v-.05a.71.71,0,0,1,.33-.75,1.33,1.33,0,0,1,.5-.13s0,0,0-.06h0a.55.55,0,0,1,.57.52A.83.83,0,0,1,29.78,17.31Z"/><path class="cls-2" d="M66.56,10.7c.44-.2.78-.95.19-1.19a1.5,1.5,0,0,0-1.36.24.55.55,0,0,0-.29.44C65.09,11,66.09,10.9,66.56,10.7Zm-1.25-.6,0,0a.09.09,0,0,0,.07,0,1.54,1.54,0,0,1,1-.38c.59,0,.59.58.15.84a1.31,1.31,0,0,1-.7.15C65.57,10.63,65.18,10.4,65.31,10.1Z"/><path class="cls-2" d="M74.69,41.87c-.56-.09-1.37.25-1.35.9,0,0,0,0,0,0a.69.69,0,0,0,0,.2c.23.63,1.32.42,1.73.14C75.71,42.73,75.28,42,74.69,41.87ZM74.88,43c-.31.19-1.14.33-1.32-.11a.11.11,0,0,1,0,0,.15.15,0,0,0,0-.08.6.6,0,0,1,.07-.27,1.5,1.5,0,0,1,.79-.4h.09C75.06,42.09,75.41,42.69,74.88,43Z"/></g></svg>