<svg xmlns="http://www.w3.org/2000/svg" viewBox="0 0 203.78 192.52"><defs><style>.cls-1{fill:#fff;}.cls-2{fill:#272525;}</style></defs><title>life</title><g id="color"><path class="cls-1" d="M66.41,151.73a6.64,6.64,0,0,1,.71-1.28,14.12,14.12,0,0,1,2.34-2.54,11.81,11.81,0,0,1,1.41-1.15,15.09,15.09,0,0,0,1.87-1.18,1.39,1.39,0,0,1,.86-.26,4.66,4.66,0,0,0,2-.63,15,15,0,0,1,3.12-1.63c.51-.14,1-.26,1.54-.42a17.4,17.4,0,0,1,2.05-.26c.78-.15,1.54-.36,2.31-.56s1.38-.16,2.06-.32a16.38,16.38,0,0,1,3.93-.58,40.19,40.19,0,0,1,5,.05c1.35.18,2.64.65,4,.78s2.66.75,4.11.75a10.27,10.27,0,0,0,2.22-.07h0l-.5-.22a11.94,11.94,0,0,1-2.93-1.94A20.93,20.93,0,0,0,98.63,138a23.78,23.78,0,0,0-3.8-2.21,26.59,26.59,0,0,0-3.64-.71c-.83-.15-1.67-.16-2.48-.38s-1.37-.45-2.07-.63a6.5,6.5,0,0,0-4.26.32c-1.06.52-2.48-.29-3.6-.28a8.26,8.26,0,0,0-3.86,1.15c-1.16.64-2.28,1.39-3.49,1.93a9.18,9.18,0,0,1-3.45.55,8.11,8.11,0,0,0-1.46.25,46.26,46.26,0,0,0-3.86,2.8,25.48,25.48,0,0,1-4.19,2.39,22.67,22.67,0,0,1-9.23,2.1.12.12,0,0,1,0-.24A22.87,22.87,0,0,0,59,142.55a20.58,20.58,0,0,0,4.29-2.71,20.27,20.27,0,0,1,1.81-1.43,13.75,13.75,0,0,1-1.74.42c-1.22.19-2.49-.22-3.67.2-2,.72-3.32,2.67-5.61,2.18a10.43,10.43,0,0,0-4.48-.3,18.84,18.84,0,0,1-3.58.59,7.67,7.67,0,0,1-1.85-.22,5,5,0,0,0-1.7-.36c-1.57.16-2.66,1-4,1.81A7.9,7.9,0,0,1,35,144.08c-1.39,0-2.74.85-4.14,1a23.77,23.77,0,0,1-2.4.18.09.09,0,0,1-.09.07c-.5,0-.21.17-.22.42s-.05.59-.09.89c-.07.53-.19,1.05-.27,1.58a6.25,6.25,0,0,0-.06,2.4c.16.65.59,2,1.44,1.9a2.6,2.6,0,0,1,1.21.06,12.12,12.12,0,0,1,1.39.71c.48.25,1,.28,1.44.56s.89.6,1.35.85.89.76,1.43,1a4.21,4.21,0,0,0,1.79.32c1.24,0,2.66-.41,3.87-.09s2.07,1.29,3.5,1.28h2.39a14.71,14.71,0,0,1,1.76-.09,36.32,36.32,0,0,0,4.4.59,8.49,8.49,0,0,0,3.69-1.28,11,11,0,0,1,4-.83,5.74,5.74,0,0,0,3.64-1.85A6.38,6.38,0,0,0,66.41,151.73Z"/><path class="cls-1" d="M121.22,151.86l.06-.14,0,0-.32-.13Z"/><path class="cls-1" d="M99.15,159.39c-.39-.65-.74-1.4-1.62-1.45-.44,0-1-.25-1.4-.22-1.09.07-1.94.68-3.07.53-.85-.11-1.06.29-1.63.72a3.83,3.83,0,0,0-1.36,1.41,3,3,0,0,1-1.67,1.78,1.91,1.91,0,0,1-.63,0,1.64,1.64,0,0,0-1.13.33,6.43,6.43,0,0,1-1.22.7c-1.27.47-1,1.73-1.81,2.62a14.41,14.41,0,0,1-1.1,1.55l.31-.09c1.18-.34,2.48-1.17,3.71-1.26.73-.06,1.32.3,2.09,0s1.27-.68,1.92-1a4.51,4.51,0,0,1,1.42-.31c.83-.12,1.16-.57,1.77-1s1.1-.57,1.49-1.14c.15-.23.27-.44.53-.52a1.51,1.51,0,0,0,.86-.6.82.82,0,0,1,.23-.26,2.12,2.12,0,0,1,1.14-.24c.66,0,1.26-.27,1.93-.27a3.18,3.18,0,0,0,.8-.1A3.18,3.18,0,0,1,99.15,159.39Z"/><path class="cls-1" d="M121.59,148.24c-.06.54-.11,1.06-.16,1.5.06-.11.11-.23.16-.34C121.59,149,121.58,148.59,121.59,148.24Z"/><path class="cls-1" d="M33,144.25a5.94,5.94,0,0,1,1.72-.5,5.32,5.32,0,0,0,1.95-.51c2.08-.87,4.33-3.34,6.8-2.52a8.11,8.11,0,0,0,4.37.18,14.17,14.17,0,0,1,3.59-.53c1.16.06,2.31.63,3.47.58,1.35,0,2.27-1,3.36-1.66a4.84,4.84,0,0,1,3-.83,11.61,11.61,0,0,0,4.26-.52c.19-.05.39-.11.58-.18l.41-.24a.22.22,0,0,1,.25,0,4.38,4.38,0,0,1,.89-.17c.67,0,1.37,0,2-.07a11,11,0,0,0,4-1.79c2-1.15,4.15-2.22,6.51-1.68.47.11,1.38.46,1.83.28a6.53,6.53,0,0,1,.72-.32c.55-.09,1.1-.25,1.66-.3a8.32,8.32,0,0,1,3.39.49c2.51.79,5.4.51,7.81,1.65,1.26.59,2.37,1.52,3.61,2.18a15.93,15.93,0,0,1,3.41,1.93,10.16,10.16,0,0,0,3.63,2.27,14.81,14.81,0,0,1,3.26,1.43c2.41,1.38,5.2,2.11,7.32,4a18.8,18.8,0,0,1,1.67,1.67c.28.32.6.77,1,1.11a17,17,0,0,1-2.06-5.45c-.35-1.35-1.49-1.31-2.36-2.09a15.69,15.69,0,0,1-1.5-1.55c-1-1.22-3.08-.78-4-2.07a16.43,16.43,0,0,1-.86-1.67,4.28,4.28,0,0,0-1.85-1.67c-.87-.47-2.11-.69-2.8-1.46a3.75,3.75,0,0,1-.79-1.11c-.21-.51-.23-1.08-.43-1.59-.46-1.12-1.5-1.3-2.28-2.09-.58-.57-.55-1.78-.55-2.53s-.61-2.24-1.74-1.58a1.52,1.52,0,0,1-.84,0,2,2,0,0,1-1.31-1.38c-.14-.42-.29-.86-.46-1.27-.41-1-1.19-1-1.92-.37a2.23,2.23,0,0,1-2,.71c-.15,0-.26-.3-.29-.44-.1-.48-.11-.48-.55-.77a8.16,8.16,0,0,0-1.68-.48,6.29,6.29,0,0,1-1.37-.8c-.63-.4-1.15-.08-1.79.08a3.62,3.62,0,0,1-1.31,0,31.87,31.87,0,0,0-4.11-.73H78a.44.44,0,0,1-.15,0,2.91,2.91,0,0,0-1,.64A19.41,19.41,0,0,1,74,122.06c-2.3,1-4.67,1.81-7,2.89-4.08,1.92-8.6,3.93-13.17,4.21a12,12,0,0,1-6.08-1.24c-1.17-.57-2.34-1.11-3.51-1.66h-.07c-1,.07-1.81.57-2.78.71s-2,.28-2.94.5a17.87,17.87,0,0,1-4.72.6,9.61,9.61,0,0,1-4.11-.81,8.73,8.73,0,0,1-1.81-1.12,4.74,4.74,0,0,0-1.51-1.31c-.14-.07,0-.27.12-.21a4.33,4.33,0,0,1,1.39,1.13,7,7,0,0,0,2,1.24,11.26,11.26,0,0,0,5.11.68c1.76-.12,3.41-.64,5.14-.92a12.59,12.59,0,0,0,2.29-.48,6.89,6.89,0,0,1,1.23-.36c-.9-.43-1.79-.86-2.67-1.33-2.22-1.2-4.56-2.31-6.7-3.64a6.54,6.54,0,0,1-3.06-3.23c0-.11.14-.15.18,0,.69,2,2.76,2.93,4.48,3.79,2.16,1.09,4.27,2.29,6.43,3.38.68.35,1.36.68,2,1l0,0c1.33.63,2.67,1.24,4,1.86a11.31,11.31,0,0,0,4.17,1c-1.09-3.24-3.85-5.34-6.38-7.45-1.45-1.21-3-2.25-4.51-3.38-.77-.57-1.81-1.17-1.92-2.19,0-.14.23-.18.25,0,.14,1,1.38,1.66,2.12,2.18s1.42,1,2.11,1.47c1.28.93,2.5,1.93,3.7,3,2.14,1.84,4.25,3.65,5.09,6.46a10.88,10.88,0,0,0,2-.14,45.93,45.93,0,0,0,12.25-4.21c1.95-.92,3.94-1.64,5.93-2.45a16.29,16.29,0,0,0,1.71-.77,7.51,7.51,0,0,1,1-.62,6.2,6.2,0,0,0,1.24-.75h-1.2a19.08,19.08,0,0,0-4.82.62A13.44,13.44,0,0,0,66.84,122c-1,.76-2.2,2.11-3.51,2.38a24.93,24.93,0,0,0-3,.77,3.38,3.38,0,0,1-3-.3,6.75,6.75,0,0,1-1.16-.7c-.41-.41-.64-.9-1.16-1.21-1.15-.69-2.49-.65-3.69-1.22a16.45,16.45,0,0,1-2.89-2.4,7.17,7.17,0,0,0-2.25-1.47c-.59-.17-1.2-.24-1.8-.39a6.08,6.08,0,0,1-2.56-1.25c-.82-.72-1.47-1.62-2.32-2.29a3.42,3.42,0,0,0-2.16-.88,11.19,11.19,0,0,1-1.63-.13,4,4,0,0,1-2.9-1.62,4.92,4.92,0,0,0-1.46-1.74c-.77-.45-1.37,0-2.13-.1a2.69,2.69,0,0,1-1.17-.49c-.8-.5-1.29-.13-2.09,0a1.66,1.66,0,0,1-1.88-1,19.26,19.26,0,0,0-2.21-3.58,4.17,4.17,0,0,0-2-1.29c-.53-.08-1.06,0-1.58-.1a2.31,2.31,0,0,1-1.86-1.38c-.47-1-.17-1.85-.13-2.87,0-.81-.86-1.16-1.16-1.77a9.46,9.46,0,0,1-.72-1.59,9.38,9.38,0,0,0-.65-1.68h0a3.85,3.85,0,0,1-.25,1.3A3.4,3.4,0,0,1,12,97a7,7,0,0,1-1.18.46,8.25,8.25,0,0,0-1.12.24c-1.45.54-1,2.23-1.39,3.37a3.92,3.92,0,0,1-1.7,2c-2.28,1.29-4.26,4.5-4,7.17.09,1.1.37,2.12-.21,3.12s-1.28,2.26-.58,3.54c.48.88,1.2,2.08.9,3.13a18.2,18.2,0,0,1-1.36,2.81,3.67,3.67,0,0,0-.49,2.58,3.24,3.24,0,0,1,.33,1,26,26,0,0,1-.43,3.17c-.16,1-.57,1.71.44,2.34a9.49,9.49,0,0,1,1,.63c.35.31.79.5,1.14.82a8,8,0,0,0,1.13,1c1.39.82,2.51-.36,3.92-.29a2.68,2.68,0,0,1,2.22,1.3c.45.6.87,1.53,1.56,1.89a5.79,5.79,0,0,0,2.46.53,4.81,4.81,0,0,1,2.69.84A10,10,0,0,1,19,140.84a5.94,5.94,0,0,0,3.28,2,10.13,10.13,0,0,1,1.74.72c.56.32,1.05.76,1.62,1.06a5.48,5.48,0,0,0,2.87.31A14.24,14.24,0,0,0,33,144.25Z"/><path class="cls-1" d="M5.85,83.3c1.91,1.63,2.07,4.35,3.76,6.14,1,1,2.32,1.42,3.23,2.45a9.28,9.28,0,0,1,1.81,3,6.39,6.39,0,0,0,1.1,2.27,6.61,6.61,0,0,1,.88,1.28c.14.26-.06.88-.09,1.17a3.15,3.15,0,0,0,.3,2.11c.86,1.39,2.17.69,3.42,1.16a5.08,5.08,0,0,1,2.25,1.8c.41.59.73,1.23,1.11,1.84a9.52,9.52,0,0,0,1.07,1.72c1,1,2-.35,3.12.19.29.14.53.35.82.49a2.32,2.32,0,0,0,1.56.06c.26,0,.69-.14.93,0a5.89,5.89,0,0,1,2,2.1c.84,1.49,3.07,1.58,4.57,1.58A3.68,3.68,0,0,1,40,113.84a25.31,25.31,0,0,0,2.47,2.39A11.28,11.28,0,0,0,46,117.42c2.79.79,4.14,4.22,7.13,4.43,2.27.15,3.11,2.45,5.12,3a3.72,3.72,0,0,0,2.54-.3,7.38,7.38,0,0,0,1.58-.45c.3-.22.82,0,1.15-.16a10.3,10.3,0,0,0,2.24-1.6,15.8,15.8,0,0,1,7.53-2.74,29.68,29.68,0,0,1,4.32-.18c.14-.08.27-.14.25-.11.11-.2.39-.08.4.11a17.21,17.21,0,0,1,3.52.12c1.3.24,3.06,1,4.37.6a7.56,7.56,0,0,1,1.22-.32c.32,0,.9.53,1.16.68.89.56,2,.57,2.89,1,.18.09.25.37.27.54.13.81.94.55,1.43.18s1.09-1,1.94-.75c.61.16.82.92,1,1.43.37,1.09.85,2.45,2.26,1.89.73-.3,1.44.33,1.77,1,.5,1-.11,2.3.55,3.26a3.54,3.54,0,0,0,1.38,1c.4.2.5.48.79.82a3.2,3.2,0,0,1,.47,1.38,3.55,3.55,0,0,0,1,1.75c.92.83,2.24,1,3.26,1.73a3.81,3.81,0,0,1,1.29,1.2c.27.49.45,1,.73,1.53.78,1.33,2.44,1.12,3.63,1.85a4.12,4.12,0,0,1,.92,1,5.31,5.31,0,0,0,1.66,1.43c.94.49,1.68.8,1.93,1.89.39,1.76,1.1,4.68,2.68,6.08l.47.18.13-.23c.07-.92.33-2.8.53-4.55a6.15,6.15,0,0,0-1.75-3.29,32.72,32.72,0,0,1-3.16-3.07,8.89,8.89,0,0,1-.55-1.26c-.17-.32-.38-.62-.55-.94a4.64,4.64,0,0,0-1.89-2.12,9.6,9.6,0,0,1-3.9-2.89,18.27,18.27,0,0,1-2.42-4.31c-.32-.9-.67-1.8-1-2.7a8.4,8.4,0,0,0-1.53-1.32,14.49,14.49,0,0,1-1.82-2,12,12,0,0,0-2.39-2.58,22.17,22.17,0,0,0-2.78-1.55c-.81-.35-1.53-.84-2.3-1.26s-1.32-.6-2-1c-1.26-.69-2.4-1.58-3.61-2.36-1.4-.9-2.9-1.67-4.36-2.49a44.16,44.16,0,0,0-4.32-2.24c-.87-.37-1.76-.72-2.67-1.06-1,.18-1.85,1.54-2.63,2.15s-1.53,1.28-2.36,1.84a12.45,12.45,0,0,1-2.2,1.32c-.35.15-.82.48-1.21.31-.09,0,0-.19.06-.15.47.17,1.65-.63,2-.89a21.82,21.82,0,0,0,2.63-2c.81-.77,1.7-1.42,2.45-2.26a2.26,2.26,0,0,1,.7-.57,31.45,31.45,0,0,0-6.39-1.65,22.47,22.47,0,0,1-4.74-.93,30.49,30.49,0,0,0-4.22-1.36,18.55,18.55,0,0,1-4.27-1.19c-1.34-.63-2.56-1.44-3.83-2.19-1.59-.92-3.24-1.68-4.85-2.53a.18.18,0,0,1-.14.16c-3.66.88-7,3.31-10.88,2.06a9.41,9.41,0,0,1-4.05-2.69c-.61-.69-1.21-1.38-1.82-2s-1-1.27-1.79-1.4c-.08,0,0-.14,0-.12,1.11.15,2.11,1.57,2.8,2.34a10.71,10.71,0,0,0,4.6,3.5,9.14,9.14,0,0,0,5.91-.18,49.31,49.31,0,0,1,5-1.8,22.09,22.09,0,0,1-3.1-2c-1.14-.88-2.18-1.86-3.26-2.81a27.23,27.23,0,0,1-2.88-2.7,19.61,19.61,0,0,1-3.68-7.51.12.12,0,0,1,.22-.07,22.37,22.37,0,0,0,2.5,5.74,19.1,19.1,0,0,0,3.84,4.09,37.06,37.06,0,0,0,7.5,5.43c1.53.76,3.12,1.45,4.58,2.33a26.61,26.61,0,0,0,4.17,2.25c1.39.51,2.86.75,4.29,1.12-.36-.52-.15-1.44-.13-2a19.6,19.6,0,0,0-.13-4.53,42.6,42.6,0,0,0-1.29-4.16c-.37-1.14-.4-2.75-1.13-3.71-.08-.1.1-.24.17-.14a7.74,7.74,0,0,1,.94,2.84c.36,1.35,1,2.62,1.34,4a14.7,14.7,0,0,1,.45,4.07c0,.62,0,1.24,0,1.85s-.21,1.38.18,1.74a.15.15,0,0,1,0,.19c1.35.39,2.66,1,4,1.29,1.62.41,3.34.37,4.93.85.78.24,1.6.35,2.38.59s1.54.52,2.33.69c2.94.65,5.74,2.29,8.33,3.77a17.48,17.48,0,0,1-.37-2.44,6.75,6.75,0,0,0-.47-2.18,10.84,10.84,0,0,1-.57-1.36,16,16,0,0,0-2-3.16,19.32,19.32,0,0,0-2.46-3.29c-.11-.11.07-.29.18-.17a16.78,16.78,0,0,1,2.32,3c.62,1,1.43,1.83,2,2.86a11.1,11.1,0,0,1,1.27,3.46,12.07,12.07,0,0,0,.65,3.61c1.32.74,2.68,1.43,3.93,2.28A27.57,27.57,0,0,0,94,115.66c1.47.69,2.89,1.48,4.31,2.26a12.4,12.4,0,0,1,3.62,2.48c1,1.18,2,2.45,3.1,3.52.22.2.51.4.8.62-.15-.39-.3-.78-.44-1.17a21.21,21.21,0,0,0-1-2.87c-.39-.71-1-1.27-1.33-2a10.41,10.41,0,0,1-.54-1.32c-.52-.76-1.4-1.26-1.79-2.07a27.87,27.87,0,0,0-1.22-2.8,15.83,15.83,0,0,0-4.3-4.77A51.19,51.19,0,0,1,90,103.35c-1.68-1.55-3-3.41-4.71-4.95-1.26-1.15-2.61-2.15-3.9-3.26-.57-.5-1.17-1-1.7-1.53a11.8,11.8,0,0,0-1.83-1.84c-.48-.32-1-.61-1.49-.89a3.79,3.79,0,0,1-2.72.8l-2.86,0a6.43,6.43,0,0,1-1-.25,10.26,10.26,0,0,0-1.83-.21c-.11,0-.11-.18,0-.17,1.58,0,3.07.41,4.66.38,1.06,0,2.61.09,3.46-.7a12.75,12.75,0,0,1-1.84-1.22c-1.11-.91-2.39-1.61-3.47-2.56s-2.35-2.24-3.56-3.33c-.7-.63-1.45-1.19-2.21-1.75a12.86,12.86,0,0,0-3.69,1.29,8.34,8.34,0,0,1-3,.47,17.76,17.76,0,0,1-3.78.15A27.56,27.56,0,0,0,50.34,83a.08.08,0,0,1,0-.15,26.44,26.44,0,0,1,3.85.55,19.85,19.85,0,0,0,4.07-.17A8.07,8.07,0,0,0,60.61,83c.57-.21,1.1-.5,1.66-.74a10.69,10.69,0,0,1,2.28-.75c-.31-.24-.63-.47-.94-.72-.74-.58-1.5-1.13-2.21-1.75s-1.06-1.1-1.63-1.61c-1-.92-2.26-1.57-3.3-2.46a7.55,7.55,0,0,1-1.16-1.3h-.05c-2,0-4-.37-6-.42-1.86-.06-3.92.22-5.7-.42S40.81,70.53,39,70a4,4,0,0,1-2.9-2.68c0-.08.09-.11.12,0A4,4,0,0,0,39,69.81a5.34,5.34,0,0,1,1.81.79c.58.41,1,1,1.62,1.38a5.81,5.81,0,0,0,2.64.89c1.77.09,3.54,0,5.31.09,1.55.1,3.09.29,4.64.34-.3-.46-.58-.94-.85-1.42-.73-1.32-1.53-2.57-2.28-3.87a8.39,8.39,0,0,1-1-3.68,28,28,0,0,0-.79-5c-.45-1.63-.73-3.28-1.25-4.9a16.93,16.93,0,0,1-.86-4.22,67,67,0,0,1,.23-9.5c0-.09.15-.09.14,0-.18,2.23-.19,4.47-.18,6.7A20.43,20.43,0,0,0,49,53.62c.67,2.13,1.19,4.27,1.75,6.43a.53.53,0,0,1,0,.12c.37-1.55,1.74-2.67,2.6-4,1.18-1.77,2.44-3.37,3.77-5s3.19-3.36,4.27-5.4a9,9,0,0,0,1.18-3.51c.08-1,.1-2,.11-3.06a.06.06,0,0,1,.12,0,13.18,13.18,0,0,1-.7,5.65,23,23,0,0,1-1.65,3A24.88,24.88,0,0,1,58.55,50a52.64,52.64,0,0,0-4.23,5.45,22,22,0,0,1-1.56,2.25,5.61,5.61,0,0,0-1.69,3.1.21.21,0,0,1-.17.19c.28,1.72.16,3.51.59,5.19s1.55,2.72,2.27,4.14a16.82,16.82,0,0,0,2.37,3.87,33.84,33.84,0,0,0,3.37,2.55C60.77,77.75,61.88,79,63.2,80s2.54,1.8,3.72,2.82,2.18,2,3.3,3c.5.44,1,.84,1.55,1.23-.43-.53-.21-1.25-.55-1.94C70.67,84,70,82.93,69.48,81.78a23.49,23.49,0,0,1-1.09-3.39A36,36,0,0,0,67,74.62a23.37,23.37,0,0,1-.94-13.45c0-.1.16-.06.15,0a25.94,25.94,0,0,0-.37,7.09,22.28,22.28,0,0,0,1.75,6.87c.89,2.09,1.21,4.39,2.18,6.42.49,1,1.09,2,1.59,3a6.55,6.55,0,0,1,.42,1c.14.47-.13.93.39,1.31a.21.21,0,0,1-.09.38c.62.45,1.25.89,1.86,1.37a10.45,10.45,0,0,0,1.89,1.37l.49.25a.18.18,0,0,1,.31.16c.39.22.77.44,1.14.68a10.18,10.18,0,0,1,1.7,1.46,4.75,4.75,0,0,0,.13-2.16,25,25,0,0,0,0-2.87,55.88,55.88,0,0,1-.57-6.18.1.1,0,1,1,.19,0c.06,2.43.7,4.83.71,7.26,0,.93,0,1.87.06,2.8a2.14,2.14,0,0,1-.25,1.41c.46.48.9,1,1.38,1.39,1.15,1,2.49,1.88,3.61,3,2.4,2.32,4.52,4.91,7.09,7,2.37,2,5,3.57,6.91,6a11.09,11.09,0,0,1,1.94,3.32,4.93,4.93,0,0,0,1.35,2.16l.1.1c-.13-.44-.26-.87-.41-1.28-.5-1.36-1.22-2.6-1.71-3.94-.56-1.5-.83-3.08-1.38-4.57a14,14,0,0,0-2.86-4.2c-1-1.18-1.67-2.57-2.61-3.81s-2-2.4-2.94-3.64-2-2.75-2.94-4.18c-.81-1.23-1.38-2.6-2.26-3.79a18.88,18.88,0,0,1-3-8.31,46.34,46.34,0,0,1-.2-9.42c0-.62.09-1.24.14-1.86a.16.16,0,0,1-.18-.1c-.53-1.12-.8-2.32-1.43-3.39s-1.36-1.84-1.85-2.84a24.7,24.7,0,0,1-1.1-3.38c-.41-1.22-.88-2.42-1.25-3.66,0-.1.13-.14.16,0,.37,1.24.94,2.4,1.35,3.63A16.19,16.19,0,0,0,79,60.63c.6,1,1.29,1.89,1.9,2.84a17,17,0,0,1,1.16,2.86c.2-2.55.43-5.1.47-7.65,0-1.8,0-3.61,0-5.41,0-1.25-.23-2.79.26-4,0-.08.16,0,.13,0a8.59,8.59,0,0,0-.19,3.12c0,.95,0,1.9,0,2.85,0,2.12,0,4.25-.11,6.37-.25,3.79-.7,7.59-.67,11.4,0,.83,0,1.67.1,2.51,1-2.4,3.09-4,5-5.75a18.26,18.26,0,0,0,3.71-3.74A13.47,13.47,0,0,0,92,63.37c.25-.73.14-1.58.35-2.33,0-.16.29-.09.24.06-.24.92-.13,1.81-.44,2.7a12.34,12.34,0,0,1-.89,2.12,15.6,15.6,0,0,1-3,3.39c-1.23,1.13-2.42,2.3-3.64,3.43a6.84,6.84,0,0,0-1.49,2.08,9.29,9.29,0,0,0-.72,1.26.22.22,0,0,1-.24.16,22.78,22.78,0,0,0,2.31,8.65c.42.8,1,1.51,1.44,2.26s.82,1.55,1.29,2.29c1.06,1.63,2.14,3.25,3.35,4.78,1,1.23,2,2.4,3,3.67.58.77,1.06,1.6,1.59,2.41A10.71,10.71,0,0,1,95,98.6a6.63,6.63,0,0,0-.73-2.48,19.67,19.67,0,0,1-1.17-4.33c-.49-3.24.82-6.2.91-9.4a.1.1,0,0,1,.19,0c0,3.26-1.33,6.37-.69,9.66a23.15,23.15,0,0,0,1.31,4.32,5.58,5.58,0,0,1,.6,1.85,13.25,13.25,0,0,0,.21,2.59.2.2,0,0,1-.05.17,10.36,10.36,0,0,0,.72.89,11.73,11.73,0,0,1,2.46,3.43c.57,1.38.86,2.83,1.31,4.25s1.27,2.76,1.8,4.21c.36,1,.69,2,1,3,.08.12.16.25.23.38a.22.22,0,0,1,0,.27c0,.13.08.26.13.39a12.62,12.62,0,0,0,1.36,2.18,8,8,0,0,1,.75,1.78c.31,1.13.71,2.24,1.13,3.34a1.66,1.66,0,0,1,.41.68.22.22,0,0,1-.06.21l0,.08c1.26,3.13,2.47,6.63,5.62,8.35a6.89,6.89,0,0,1,3.05,2.38c.72,1.21,1.26,2.81,2.28,3.78,1.39,1.32,3,2.5,3.82,4.19l0-.33a7.27,7.27,0,0,0-.55-1,4.45,4.45,0,0,1-.78-1.66c-.11-.57-.09-1.11-.17-1.66a.2.2,0,0,1-.32-.15c0-.3,0-.6,0-.89-.15-.52-.06-1.16-.26-1.68a3.62,3.62,0,0,0-.71-1.25,4.23,4.23,0,0,1-.56-.49c-.65-1.31-1.36-2.67-2.77-3.28-1-.42-1-1.39-1-2.35-.13-1.57-1.18-2.81-1.51-4.35a23.12,23.12,0,0,0-.45-2.4,8,8,0,0,0-1.07-1.86,3,3,0,0,1-.49-2.89c.31-1.43,0-2.94.13-4.39s.9-2.53,1-3.91a14.5,14.5,0,0,0-.06-4.46,11.19,11.19,0,0,0-1.36-3.82,8.93,8.93,0,0,0-2.94-2.73c-1.89-1.19-4.09-2.34-4.63-4.7A14.45,14.45,0,0,0,102,90.54a6.9,6.9,0,0,1-.88-2.9,31.29,31.29,0,0,1,.31-8.59c.61-2.79,1.63-5.54,1.66-8.43,0-1.6-.36-3.17-.39-4.77a10.81,10.81,0,0,1,1-3.59A19.79,19.79,0,0,0,104.87,58a9.76,9.76,0,0,1,.68-3.35A41.4,41.4,0,0,1,108.06,51a36.41,36.41,0,0,0,2-3.86,17,17,0,0,0,1-2.26,2.58,2.58,0,0,1,.55-.91c1.15-1.33,1.06-2.81.63-4.43-.37-1.36-.57-2.72-.84-4.11s-.73-3-2-3.73a27.22,27.22,0,0,1-3.47-2c-1.06-.82-2.25-2.07-3.68-2.08s-2.62.77-3.91,1.24a10.07,10.07,0,0,1-3.31.54,6.1,6.1,0,0,1-1.87-.19A7.29,7.29,0,0,0,91.3,29c-1.49,0-2.67.65-4.1.92-.75.14-1.18-.28-1.86-.53s-1.09-.45-1.65-.65c-.41-.14-.82-.22-1.23-.38a5.4,5.4,0,0,0-2-.56,2.85,2.85,0,0,1-1-.16,4.07,4.07,0,0,1-2-1.46c-.39-.6-.78-1.49-1.55-1.69a5.66,5.66,0,0,0-2.39,0c-.77.13-2.16.54-2.89.13-1-.57-1.4-1.49-2.14-2.33a6.4,6.4,0,0,0-2.92-1.51c-1.9-.73-2.12-3.13-3.84-4.2-2.33-1.43-5.47-.48-8-.17-1.44.18-2.76-.85-4.19-.38a4.3,4.3,0,0,1-1.55.24,7,7,0,0,0-2,.06,21.25,21.25,0,0,1-3.22,1.05,5.45,5.45,0,0,0-1.41.18c-.29.15-.58.3-.85.47a27.57,27.57,0,0,0-3.22,2.48.07.07,0,0,1,0,.05,4.4,4.4,0,0,0-.45.65s0,0,0,.06,0,.14-.06.1a.12.12,0,0,1-.05-.05,2.24,2.24,0,0,1-1.11,1.12,2.57,2.57,0,0,1-1.4.09c-.48-.11-1.1-.51-1.59-.46-.75.08-1.74,1.1-2.27,1.58s-1.1,1-1.63,1.55-1.13.73-1.61,1.22-.15,1.46-.41,2.16a4,4,0,0,1-1.11,1.36c-.44.43-.05,1.15-.3,1.66a1.81,1.81,0,0,1-1.62,1c-.69.1-1.67.2-2,.95a5.71,5.71,0,0,0-.28,1.59,1.79,1.79,0,0,1-1,1.53c-.47.15-1.08.07-1.48.36-.62.43-1.06.6-1.44,1.3-.56,1.07-.83,2.24-1.36,3.31C16,42,15.7,42.77,15.24,43s-1.49.51-1.31,1.32a2.12,2.12,0,0,1-.22,1.76c-.15.2-.47.17-.68.23-.68.19-1,1-1.41,1.5-.67.9-2,1.72-2.15,2.9-.13,1.74,1.32,3.38,0,5a6.66,6.66,0,0,0-1.4,2.4,4.28,4.28,0,0,0,.13,2.33,1.2,1.2,0,0,1-.1,1,4.79,4.79,0,0,0-.51,1,2.65,2.65,0,0,1-.12.66,7,7,0,0,0-.76,2.47,4.07,4.07,0,0,0,.44,1.74,2.18,2.18,0,0,1-.22,2.46C6.16,71,5.05,72.08,5,73.56a6.41,6.41,0,0,1-.12,2.51c-.48,1.12-2.37,3.3-1.58,4.55A12.42,12.42,0,0,0,5.85,83.3Z"/><path class="cls-1" d="M121.54,152.25v0h0S121.54,152.26,121.54,152.25Z"/><path class="cls-1" d="M115.42,71.67c.16,1.38,1.09,1.77,1.85,2.77a10.24,10.24,0,0,1,1.33,2.91,11.5,11.5,0,0,0,2.45,4.08,11.36,11.36,0,0,1,1.85,2.65,17.11,17.11,0,0,1,1.33,3.6,8.65,8.65,0,0,0,.86,2.27,5.16,5.16,0,0,1,.62,1.35,3.68,3.68,0,0,1-.3,3.06A19.15,19.15,0,0,0,124.28,96a13,13,0,0,0-.78,2.28,29,29,0,0,0-1.16,3.86c-.24,1.28-.33,2.56-.62,3.85-.33,1.49-1.09,2.84-1.37,4.34a13,13,0,0,0,.15,4.26c.18,1.4-.34,2.63-.55,4a37.14,37.14,0,0,0-.3,4.08,5.83,5.83,0,0,0,.3,2.84c.34.68.68,1.36,1,2a2.43,2.43,0,0,1-.07,1.13,12.1,12.1,0,0,0-.3,2.15c0,2.82-.32,5.62-.38,8.43l.06.2c.48,1.1.07,2.32.74,3.37.24.37.46.7.65,1a4.49,4.49,0,0,0,0-1.34A10,10,0,0,1,121,140c0-.94,0-1.88,0-2.82a17.07,17.07,0,0,1-.08-2.77,5.75,5.75,0,0,0,0-2.61,2.42,2.42,0,0,1-.14-1.43,3.7,3.7,0,0,1,.43-1,51.2,51.2,0,0,1,0-9.51,51.73,51.73,0,0,1,1.49-5.13c.43-1.73.73-3.49,1.14-5.23a38.82,38.82,0,0,1,1.43-5c.56-1.48,1.28-2.85,2-4.26a27.77,27.77,0,0,0,2-4.75c.46-1.61,1.21-3.2,1.54-4.85a37.7,37.7,0,0,0,.33-5.52c.09-1.61.29-3.21.29-4.82,0-3.42-.18-6.82-.09-10.24a25.7,25.7,0,0,1,1-7,14.79,14.79,0,0,0-3.48-.68,15.47,15.47,0,0,1-3.32-.56c-1.69-.69-3.77-1.68-4.47-3.52,0-.13.17-.22.23-.09,1,2.24,3.94,3.33,6.21,3.58,1,.11,1.92.27,2.88.42a10.13,10.13,0,0,1,2.09.45,18,18,0,0,1,.69-1.8c.68-1.5,1.18-3,2-4.48.54-.95,1.13-1.87,1.74-2.79,0,0,0,0-.05,0-.3-.5-.15-1-.25-1.56a11.35,11.35,0,0,0-.42-1.72,6,6,0,0,1-.32-3.48c.33-1.29.81-2.54,1.14-3.84a36,36,0,0,1,1.46-4,15.38,15.38,0,0,0,1.3-4.45c.06-.77.1-1.55.18-2.33-.08.06-.19.08-.25,0-.43-.53-1.18-.67-1.69-1.14a14.94,14.94,0,0,1-1.41-1.46,17.81,17.81,0,0,1-2.45-3.92c-.06-.14.14-.26.21-.12a16.89,16.89,0,0,0,3,4.35A5.89,5.89,0,0,0,139,31.3a2.45,2.45,0,0,1,.94.67c0-.46.1-.91.18-1.36.28-1.49.77-2.93,1-4.42a15.61,15.61,0,0,0,.31-2.46,2.69,2.69,0,0,1,.16-1.05c0-.1.21-.06.17.05-.38,1-.19,2.42-.41,3.53-.27,1.35-.65,2.67-.88,4-.27,1.53-.27,3.09-.44,4.63a13.53,13.53,0,0,1-1,3.46c-.52,1.33-1.16,2.68-1.55,4.06-.32,1.16-.61,2.3-1,3.45a6.29,6.29,0,0,0,0,4.32c.19.57.27,1.15.42,1.72s0,.92.16,1.34c.16-.25.33-.49.49-.73A53.84,53.84,0,0,1,143.73,45c1.05-1.08,2.11-2.15,3.16-3.22a.24.24,0,0,1,.09-.16l.13-.07c1.17-1.2,2.32-2.42,3.42-3.69,1.58-1.84,3-3.78,4.44-5.76a.2.2,0,0,1,.06-.32l.23-.09c.52-.72,1-1.45,1.53-2.18a27.84,27.84,0,0,0,1.6-2.56.19.19,0,0,1,0-.1c-.12-1.12-1.12-2.2-1.56-3.22a12.22,12.22,0,0,1-.86-3.2,19.63,19.63,0,0,1-.14-6.07c0-.13.22-.07.2.06a18.27,18.27,0,0,0,.55,7.53,11.57,11.57,0,0,0,1.41,3.2,4.48,4.48,0,0,1,.69,1.36,18,18,0,0,0,2-6.4c0-.08.13-.09.13,0A18.64,18.64,0,0,1,157.44,29c-.56.83-1.12,1.67-1.7,2.51a15,15,0,0,1,3.31-.44,51.27,51.27,0,0,0,6.3-.85,16,16,0,0,0,5.68-2c1.48-.9,3.25-2,3.79-3.76.05-.15.29-.08.24.07a6.7,6.7,0,0,1-3,3.37A15.66,15.66,0,0,1,167,30.25c-2.07.51-4.23.81-6.34,1.11-1.74.24-3.75.06-5.38.77-1.2,1.74-2.44,3.45-3.79,5S149,40,147.7,41.39c.18,0,.36,0,.56,0a12.2,12.2,0,0,1,2.49.12c1.76.37,3.41,1,5.15,1.49,3.61.92,7.44.45,11.12.56a.1.1,0,0,1,0,.2c-3.27.12-6.79.44-10-.14a48.72,48.72,0,0,1-4.91-1.33,8.91,8.91,0,0,0-2.5-.47,5.81,5.81,0,0,0-2.39.11l0,0c-.86.9-1.73,1.79-2.6,2.69a57.69,57.69,0,0,0-6.84,8.43,37.48,37.48,0,0,0-2.6,4.23c-.68,1.36-1.19,2.78-1.79,4.17-.21.49-.38,1-.54,1.47a.22.22,0,0,1-.06.21,34.7,34.7,0,0,0-1.05,8.72,12.37,12.37,0,0,0,3.08-3,17.71,17.71,0,0,1,2-2.44,33.08,33.08,0,0,1,5.81-5A22.88,22.88,0,0,1,150,59c1-.19,2-.35,3.06-.47.46-.05,1.06-.17,1.42.19.07.06,0,.16-.1.1-.53-.46-2,0-2.68.12a35.57,35.57,0,0,0-3.69.78A18.41,18.41,0,0,0,141,63c-1,.83-2,1.7-2.92,2.62a14.64,14.64,0,0,0-2.4,2.58,13.69,13.69,0,0,1-3.91,4,.19.19,0,0,1-.14,0c-.12,3.34.37,6.69.07,10s.06,6.54-.91,9.62c-.51,1.6-.93,3.26-1.53,4.82-.49,1.29-1.09,2.47-1.66,3.73a50.71,50.71,0,0,0-2.2,4.87,47.09,47.09,0,0,0-1.25,4.66c-.39,1.74-.64,3.53-1.14,5.24a27.85,27.85,0,0,0-1.41,5,64.73,64.73,0,0,0,0,8.24c.14-.41.19-.86.29-1.29a5.68,5.68,0,0,1,1.9-3.07,4.44,4.44,0,0,0,1.81-3.64,4.7,4.7,0,0,1,.31-1c.09-.41.11-.83.16-1.24a11.9,11.9,0,0,1,.27-1.69A5.17,5.17,0,0,1,127,115a4.4,4.4,0,0,0,1-2,9.29,9.29,0,0,1,.29-1.89,5.1,5.1,0,0,0,.58-1.78,5.62,5.62,0,0,1,.27-1.72,10.67,10.67,0,0,1,.82-1.38,5.1,5.1,0,0,1,.69-1.33,15.18,15.18,0,0,1,1.25-1.29c1-.89,2.13-1.67,3.14-2.56.55-.49,1.08-1,1.66-1.42s1.21-.73,1.26-1.64.81-1.46,1-2.33c.13-.51.48-.73.65-1.18a6.48,6.48,0,0,1,.54-1.3,5.75,5.75,0,0,1,.79-.77c.1-.1.17-.23.27-.33.54-.58.12-.72,0-1.21a14.34,14.34,0,0,0-1.33-4,10.9,10.9,0,0,0-.52-1.22c-.24-.36-.1-.85-.08-1.25h0a9.15,9.15,0,0,1-.3-3,14.52,14.52,0,0,0,.61-3.63c0-1.45-.33-3.6,1.29-4.39a8.45,8.45,0,0,0,2.29-1.54c.47-.43,1.29-.24,1.87-.24,1.07,0,2.13-.1,3.2-.15a12.06,12.06,0,0,1,1.7,0,5.43,5.43,0,0,0,1.65.09,11.64,11.64,0,0,1,2.62-.74,21.1,21.1,0,0,0,2.1-.25,13,13,0,0,0,1.77-.24,23.54,23.54,0,0,0,3.71-1.53c.76-.38,1.61-.66,2.33-1.1a3.05,3.05,0,0,0,1.49-2.65,11.08,11.08,0,0,0-.95-3,6.53,6.53,0,0,1-.68-2.28c0-1-.33-1.82-.46-2.76a2.66,2.66,0,0,1,.8-2.32,31.55,31.55,0,0,1,2.41-2.63,14.06,14.06,0,0,1,1.55-.92c.49-.35.75-.83,1.21-1.17.82-.6,1.27-1.48,2.34-1.48.38,0,1,.11,1.29-.14a9.13,9.13,0,0,0,.73-.65,8.1,8.1,0,0,1,1.17-.93,2.49,2.49,0,0,1,1-.23,2.88,2.88,0,0,0,1.81-.88c.7-.75,1.1-1.54,2.05-2,1.27-.62,1.26-2,2-3a10.7,10.7,0,0,0,.79-1.59,5.78,5.78,0,0,1,.77-1.13,4,4,0,0,1,1.12-1,7.54,7.54,0,0,0,1.47-.75c1.36-1,1-2.62,1.28-4.06a8.73,8.73,0,0,1,1.44-2.62c.79-1.34.68-2.74.68-4.24,0-.66,0-1.33,0-2a8.32,8.32,0,0,1,.45-1.73,11.79,11.79,0,0,0,.33-3.45c0-1-.09-2.45-.84-3.2-.46-.46-1.24,0-1.79-.2s-1.37-.32-2.07-.47a6.28,6.28,0,0,1-2.76-1.3,15.4,15.4,0,0,0-3.06-2.58,6.59,6.59,0,0,1-2.69-1.77,2.05,2.05,0,0,1-.48-1.15c-.1-1-.28-1.64-1.44-1.7a2.94,2.94,0,0,1-2.33-1.48,5.62,5.62,0,0,0-3-2.3c-.94-.39-1.76-.95-2.67-1.36a2.33,2.33,0,0,0-2.22,0,8.52,8.52,0,0,1-1.36.83,21.72,21.72,0,0,1-3.79,1.21c-1.34.33-2.44,1.14-3.9,1a2.45,2.45,0,0,1-.9-.33A4.69,4.69,0,0,0,153.5,3a12.64,12.64,0,0,1-2.41-.4c-.66-.27-1.3-.56-2-.79A11.79,11.79,0,0,0,145,1.13a7.29,7.29,0,0,0-2.19.13,5.77,5.77,0,0,0-2.42.87c-.51.49-.9,1.21-1.66,1.3l0,0a4.07,4.07,0,0,0-1,1.42c-.07.19-.14.46-.33.57s-.39.48-.66.63-1.4.43-1.58.85a7.69,7.69,0,0,0-.43,2.56,3.06,3.06,0,0,1-.21,1.16c-.18.31-.65.52-.91.76a4.61,4.61,0,0,0-1.1,1.56,3.43,3.43,0,0,1-.86,1.38,2.65,2.65,0,0,0-1.05,1.85c-.06,1,.35,1.91.32,2.89,0,.81-1.14,1.69-1.63,2.23a5.62,5.62,0,0,0-1.4,4.2A9.57,9.57,0,0,0,129,30.16a31.11,31.11,0,0,1,1.95,2.89,8.15,8.15,0,0,1,.39,3.37c0,1.2-1.74,1.11-1.92,2.33a10.55,10.55,0,0,1-.17,2.11c-.12.36-.33.67-.48,1A16.6,16.6,0,0,1,126.57,45a19.87,19.87,0,0,1-5.37,5.09,8.4,8.4,0,0,0-1.91,1.49,6.92,6.92,0,0,0-.87,1.6c-.6,1.21-1.71,2-2.42,3.06a9.69,9.69,0,0,0-1.42,3.62c-.22,1.31-.9,2.46-.93,3.82a16.76,16.76,0,0,0,.92,4.4A25.14,25.14,0,0,1,115.42,71.67Zm43.52-20.86c-.42-.69-1.08-1.1-1.55-1.73a11.7,11.7,0,0,1-1.07-1.8,10,10,0,0,1-1.14-3.9c0-.16.23-.16.24,0A10.66,10.66,0,0,0,157,47.72c.62,1.12,1.67,1.81,2.3,2.89C159.41,50.83,159.07,51,158.94,50.81Z"/><path class="cls-1" d="M121.35,150.71c0,.19,0,.34,0,.45s0,0,0,.05l.1.07a5.46,5.46,0,0,0,.14-1C121.5,150.42,121.43,150.57,121.35,150.71Z"/><path class="cls-1" d="M123.61,182.4c-.1-.19-.18-1.26-.4-1.26l-.09,0a6,6,0,0,1-.68.22,1.8,1.8,0,0,1-1.19,0c-.65-.32-1-.76-1.83-.67a4.31,4.31,0,0,1-2.67-.56c-.46-.2-.39-.66-1-.87a7.82,7.82,0,0,0-1.85-.52,8.66,8.66,0,0,0-2.16-.22c-.93.13-1.12.1-1.68.89s-1.21.81-1.88,1.3c-.18.13-.44.36-.68.22-.43-.25-1.28,0-1.75-.1a7.11,7.11,0,0,0-2.11.06,1.69,1.69,0,0,1-.92,0,2.45,2.45,0,0,0-1.16-.24.62.62,0,0,1-.29-.09c-.64-.38-.32-.78-1.41-.68a3.6,3.6,0,0,1-1.69-.17,2.62,2.62,0,0,0-1.19-.27c-.7.1-.6.25-1.07.43s-.85.46-1.36.3a2.72,2.72,0,0,0-2.19.27c-.57.25-1.41.58-2,.08a2.94,2.94,0,0,1-.25-.25.44.44,0,0,0-.16-.06,1.67,1.67,0,0,0-1.58.31l-.34.4a2.67,2.67,0,0,1-1.35.65c-.94.06-1,1-1.71,1.28s-2.21.64-1,1.32a2.63,2.63,0,0,1,1.06,1c.55,1,1.35.52,2.22.69a1.42,1.42,0,0,1,.43.29,6.73,6.73,0,0,0,1.15.22,4.12,4.12,0,0,1,1.29.48.72.72,0,0,1,.16.25c.15.37.47.39.75.56h0c.16-.06.26.09.24.22a1.66,1.66,0,0,1,.4.77c.25.83.83.34,1.46.36s.78,1.14,1.63.43a8,8,0,0,1,1.72-1.15c.12,0,.29-.16.42-.12a.66.66,0,0,0,.35,0,.1.1,0,0,1,.14-.06c.26-.19.24-.7.26-1A2.89,2.89,0,0,1,98,185.9c.2-.34.59-.29.92-.35s.32.31.1.35c-1.57.21-.29,1.91-1.33,2.52h0c.39.84,1.87.51,2.58.6a10.54,10.54,0,0,1,1.81.49c1.24.39,2.5.46,3.71.94.37.15,1,.61,1.41.45s.41-.18.69-.27.48.15.57.29c.51.74,2.13-.69,2.61-.93a4.93,4.93,0,0,1,1.44-.5,2.65,2.65,0,0,0,2.22-1.25,6,6,0,0,1,.83-1.46c.45-.44,1-.9,1.43-1.33a3.27,3.27,0,0,1,1.15-.61,4.12,4.12,0,0,0,1.6-.75,2.3,2.3,0,0,1,.52-.36,3.87,3.87,0,0,1,1.47-.31,5.84,5.84,0,0,0,2.13-.45l.13-.09h0A2.94,2.94,0,0,1,123.61,182.4Z"/><path class="cls-1" d="M203.32,76.9a4,4,0,0,0-2-3.24,7.56,7.56,0,0,1-2.7-2c-.66-.9-1-2.23-1.88-3-1.19-1-2.55-.58-3.87-1.07a5,5,0,0,1-2.21-1.53,12.44,12.44,0,0,1-1.49-2.54c-.18-.38-.38-.75-.54-1.14a2.75,2.75,0,0,0-1.29-1.64c-1.94-1.14.09-4.25-2.31-5.06a5,5,0,0,1-2.37-1.7c-.32-.41-.68-1-1.23-1.07a3.46,3.46,0,0,0-2.33.42c-1.08.62-1.83,1.36-3.15,1.4a5.65,5.65,0,0,1-1.83-.19,12.66,12.66,0,0,0-1.77-.68,6.46,6.46,0,0,0-2.9.15,6.65,6.65,0,0,1-1.38.35,2.23,2.23,0,0,1-1.95-.94c-.89,1-2.41,2.1-2.14,3.52.1.56.27,1.11.37,1.67s0,1.18.18,1.74c.46,1.84,2.15,4,1.37,6s-2.9,2.4-4.51,3.17a11.83,11.83,0,0,1-3.87,1.35c-.73.06-1.43.21-2.15.3a9.67,9.67,0,0,0-2.21.32,6,6,0,0,1-1.74.54c-.7,0-1.38-.16-2.09-.16-1.33,0-2.66.17-4,.17-.62,0-1.57-.2-2,.37a3.22,3.22,0,0,1-1,.77,10.75,10.75,0,0,0-1.44.72,2.84,2.84,0,0,0-1,2.36,18.51,18.51,0,0,1,.06,2.23c-.06.59-.22,1.14-.32,1.72a6.71,6.71,0,0,0-.29,2.63,11.6,11.6,0,0,1,.32,1.76.16.16,0,0,1-.22.16,8.44,8.44,0,0,0,.62,1.79c.28.71.62,1.4.91,2.1s.32,1.46.58,2.15c.1.28.37.8.19,1.12s-.46.57-.64.86c-.31.52-.85.69-1,1.34a1.76,1.76,0,0,1-.43,1c-.42.36-.33,1.07-.67,1.52a3,3,0,0,0-.7,1.88,1,1,0,0,1-.29.66c-1,.93-2.19,1.79-3.27,2.68s-2.28,1.79-3.32,2.83a4.53,4.53,0,0,0-1,1.4,19,19,0,0,0-1,1.69c-.25.75-.08,1.56-.33,2.28a7.56,7.56,0,0,0-.59,1.65,6.33,6.33,0,0,1-.83,3,8.82,8.82,0,0,0-1.32,4.6c-.06.62-.33,1.2-.38,1.84a8,8,0,0,1-.35,1.52c-.31,1.1-1.57,1.68-2.26,2.49a5.62,5.62,0,0,0-1.11,2.24,8.74,8.74,0,0,1-.32,1.49,4.21,4.21,0,0,1-.33.55v.3a.25.25,0,0,1-.34.23,1.56,1.56,0,0,0-.18,1.37,4.26,4.26,0,0,1,.34,1.72,31.15,31.15,0,0,0-.1,4.1c0,.82,0,1.65,0,2.47a7.79,7.79,0,0,0,.45,2.07A22.33,22.33,0,0,1,122,138a30.13,30.13,0,0,1,1-3.73c.35-1.26.62-2.53,1-3.78a11.05,11.05,0,0,1,1.68-4.07,39,39,0,0,1,2.73-3.4c2.36-2.53,4.87-4.92,7.32-7.37a64.45,64.45,0,0,1,6-5.23v0a16.57,16.57,0,0,1,.54-6c.25-1.26.48-2.54.85-3.77a16.81,16.81,0,0,0,.88-4.2.12.12,0,0,1,.24,0c0,2.36-1,4.63-1.42,6.94a22.08,22.08,0,0,0-.72,6.8,68.14,68.14,0,0,1,9.18-5.93c2.19-1.19,4.44-2.25,6.64-3.42,0-.24-.13-.35-.05-.63A11.14,11.14,0,0,1,158.2,99a7.41,7.41,0,0,0,.43-2.84,13.49,13.49,0,0,0-.82-4.64l-.17.19a.19.19,0,0,1-.28-.27l.28-.34c-.08-.2-.16-.4-.25-.6-1.45-3.15-3.56-5.94-4.84-9.16-.05-.13.16-.19.22-.06,1.37,3.34,3.74,6.18,5.12,9.5a15.37,15.37,0,0,0,1.79-3.35,15.66,15.66,0,0,0,.77-4.36c0-.16.27-.16.25,0a17,17,0,0,1-.84,4.81,12.13,12.13,0,0,1-1.79,3.35c0,.11.09.23.13.35a15.26,15.26,0,0,1,.8,5.28,7.14,7.14,0,0,1-.55,2.57,5,5,0,0,0-.2,1.13c.58-.31,1.16-.63,1.73-1,2.31-1.36,4.63-2.78,6.87-4.29a.19.19,0,0,1,.12-.26,1.86,1.86,0,0,1,.33,0c.29-.2.58-.39.87-.6a15.82,15.82,0,0,0,4.07-3.84,27.33,27.33,0,0,0,1.48-2.41c-.51-.68-1.2-1.19-1.69-1.9a8.13,8.13,0,0,1-1-2,12.49,12.49,0,0,1-.55-4.51,21.64,21.64,0,0,1,.83-4.93,11.83,11.83,0,0,1,1.21-3.67c.09-.13.3,0,.21.12-.74,1.09-.9,2.74-1.23,4a18.29,18.29,0,0,0-.64,4.48,11.31,11.31,0,0,0,.83,5,16.45,16.45,0,0,0,2.29,3l.71-1.33a35.25,35.25,0,0,0,1.83-4,.22.22,0,0,1-.24-.35,1.07,1.07,0,0,1,.49-.3c.64-1.72,1.17-3.47,1.66-5.28a.06.06,0,0,1,.11,0c-.46,1.75-1,3.5-1.58,5.21a9.89,9.89,0,0,0,1.41-.09A18.53,18.53,0,0,0,182,79.77c2.21-1.22,4.38-2.39,5.46-4.8.08-.18.33,0,.25.14a9.33,9.33,0,0,1-4.57,4.49c-1.19.62-2.27,1.49-3.49,2a7.64,7.64,0,0,1-1.53.51c-.47.1-.9-.15-1.33.1A39.58,39.58,0,0,1,174.12,88a.19.19,0,0,1-.14.26,30.4,30.4,0,0,1-2,3.06A16.6,16.6,0,0,1,167.8,95a8.31,8.31,0,0,1,1.37.27,29.18,29.18,0,0,1,3.2.76c2,.72,3.66,1.93,5.56,2.76.12,0,0,.27-.09.22-1.89-.78-3.61-2-5.56-2.63-1-.3-1.93-.4-2.9-.64a7.55,7.55,0,0,0-2.22-.32l-2.06,1.29c-2.3,1.43-4.55,2.92-6.92,4.24l-.06.19a.21.21,0,0,1-.36,0l-1.14.6a88,88,0,0,0-17.08,10.66c-.94.79-1.84,1.62-2.72,2.49.51-.1,1.1,0,1.52-.11a21.86,21.86,0,0,0,4.82-1.35c3.05-1.15,5.93-2.6,8.86-4,2.53-1.22,5.1-2.75,7.86-3.37a22.57,22.57,0,0,1,4.33-.6c1.33,0,2.66,0,4-.13.17,0,.17.24,0,.26-2.87.39-5.79,0-8.6.94a59.27,59.27,0,0,0-8.09,3.65,83.78,83.78,0,0,1-7.84,3.57,34.44,34.44,0,0,1-4.32,1.38,11.51,11.51,0,0,1-1.29.2c-.42,0-1.33-.05-1.64.27a.24.24,0,0,1-.33,0c-1.27,1.27-2.51,2.58-3.78,3.85-2.42,2.42-5,4.8-6.83,7.71a16.35,16.35,0,0,0-1.58,4.9c-.37,1.51-.92,3-1.28,4.47-.65,2.78-.13,5.67-.35,8.48a5.79,5.79,0,0,1,.2.82c0,.33.08.67.1,1a3.47,3.47,0,0,0,.13-.48c.29-1.26.62-2.5,1-3.74a29,29,0,0,1,3.37-7.64c1.36-2.17,3.34-3.87,4.84-5.95a8.73,8.73,0,0,1,1.9-2.12,12.21,12.21,0,0,1,3.1-1.28,14.85,14.85,0,0,0,3.59-2.33,8.35,8.35,0,0,1,3-1.61l2.57-.64a5.06,5.06,0,0,0,2.21-.82,3.51,3.51,0,0,1,2.46-.85,11.51,11.51,0,0,0,1.59.39,4.27,4.27,0,0,0,2-.56,12.57,12.57,0,0,1,2.5-1.35,18.41,18.41,0,0,1,3.56-.3c1.59-.16,2.52-1,3.86-1.68,1-.53,2.51-.56,3.34-1.37s.71-2.15,1.23-3.11a10.09,10.09,0,0,1,1.88-2.95,7.6,7.6,0,0,1,2.51-1.65c2.41-.85,5-.12,7.4-1,2.64-1,5.54-2,6.8-4.74a11.76,11.76,0,0,0,.83-1.85A4.53,4.53,0,0,0,188,97a5,5,0,0,1,0-2.91,3.89,3.89,0,0,1,2-2.09c1-.45,2.07-.27,3.06-.74,1.26-.61,2.5-1.24,3.81-1.74s2.8-.74,3.76-1.63a5.5,5.5,0,0,0,1.68-3.73,8.59,8.59,0,0,1,.24-2.73,12.23,12.23,0,0,0,.9-2.15A6.69,6.69,0,0,0,203.32,76.9Z"/><path class="cls-1" d="M154.92,168.8a2.24,2.24,0,0,1-.78-.89c-.25-.8,0-1.66-.74-2.28-.51-.45-1.1-.41-1.61-.77a4.44,4.44,0,0,0-1.72-1.05,4.75,4.75,0,0,1-1.53-.41,6,6,0,0,0-2-.8,2.61,2.61,0,0,1-1.22-.41c-.54-.45-.83-1.06-1.52-1.36a10.2,10.2,0,0,1-1.51-.67,7.4,7.4,0,0,1-2.13-2.51c-.35-.55-.8-1.05-1.13-1.61a4.05,4.05,0,0,0-1.42-1.74,6,6,0,0,1-1.38-1.13,3.38,3.38,0,0,0-1.72-1.26c-1.21-.33-2.38-.67-3.57-1.06a8.15,8.15,0,0,0-2.77-.43,17.92,17.92,0,0,1-2.07.09c-.54,0-1-.22-1.54-.3a11,11,0,0,0-2,.06,2.47,2.47,0,0,1-.17.93,5.08,5.08,0,0,0-.63,1.48.17.17,0,0,1-.29.12l-.18-.2a2.34,2.34,0,0,1-.22.23c-.23.21-.57-.13-.34-.34a2,2,0,0,0,.24-.26c-.37-.4-.73-.77-1.11-1.2l-.37-.15a1.72,1.72,0,0,1-.33-.24,4.79,4.79,0,0,0-1.84,1.22.82.82,0,0,1-.77.24,4.91,4.91,0,0,0-2.28.22,8.3,8.3,0,0,1-1.93,0c-1.45,0-1.53,1.46-2.37,2.21-.59.54-1.24.51-1.57,1.36a6.58,6.58,0,0,1-.71,1.43c-.13.2-.46.25-.62.43a5.46,5.46,0,0,1-.62.65c-.44.38-1.06.42-1.53.75s-.87.74-1.34.74a4.65,4.65,0,0,0-2,.63c.1.15-.06.4-.24.27l-.17-.1a3.53,3.53,0,0,1-1.23.2c-.65,0-1.26.28-1.93.28a1.92,1.92,0,0,0-1.33.78.78.78,0,0,1-.32.18c-.65.16-.91.64-1.35,1.09s-1,.58-1.45,1a2.05,2.05,0,0,1-.94.65,11.15,11.15,0,0,0-1.65.29c-.67.26-1.26.68-1.9,1-1.12.55-2.22,0-3.36.43-1.39.48-2.74,1-4.16,1.38-.39.12-.83.17-1.21.32a2.29,2.29,0,0,0-1,1,2.67,2.67,0,0,0-.63,1.73c0,.71-1.09,1.16-1.59,1.41a11,11,0,0,1-1.66.69c-.23.08-.43.22-.65.29s-.29,0,0,.18a4.87,4.87,0,0,1,1.12.61,6.56,6.56,0,0,0,1.27,1.14c.62.3,1.34.3,2,.66.41.24,1,.33,1.35.69s.58,1.32.94,1.37a6,6,0,0,0,1.93-.06c.25,0,.46.16.63.31.36.32,1.28.16,1.74.33s1,0,1.41.22a3.44,3.44,0,0,1,.41.35,1.66,1.66,0,0,0,1.65.2,1.1,1.1,0,0,1,.82.21,1.71,1.71,0,0,0,2.21.5,5.32,5.32,0,0,1,1.35-.49,3.62,3.62,0,0,1,1.08.2c.82.12,1.53-.63,2.31-.74a3.35,3.35,0,0,1,1.32.27,6.34,6.34,0,0,0,2.17.09c.31,0,.51.25.69.47.41.47,1,.26,1.52.51s1.45-.07,2.14,0,1.29.12,2,.12c.17,0,1,.13,1.11,0,.38-.27.16-.22.54-.41s.51-.1.76-.28a1.8,1.8,0,0,0,.79-1,.6.6,0,0,1,.12-.24c.55-.54,2-.47,2.71-.42a14.73,14.73,0,0,1,3.28.82c.19,0,.47.19.53.41s.94.71,1.2.83c.78.39,1.43-.08,2.2.08a2.86,2.86,0,0,1,1,.5c.79.5,1.34.11,2.12-.07a2.88,2.88,0,0,1,1.17,0c.56.1.61.49,1.34.46a7.62,7.62,0,0,0,1.18-.17,1.35,1.35,0,0,1,.86.15c.63.36,1.15.92,2,.69.33-.1.93-.46,1.26-.39a1.06,1.06,0,0,1,.58.26,1.4,1.4,0,0,0,1.86.06,2.58,2.58,0,0,1,1-.48c.81,0,1.3.27,2-.39a3.62,3.62,0,0,1,1.1-.66c.7-.25,1.6,0,2.21-.42a3.76,3.76,0,0,1,1.35-.75c.42-.07.81.07,1.18-.21a1.19,1.19,0,0,1,.93-.32,9.63,9.63,0,0,1,1.5.27c.81.21,1.14-.34,1.84-.5a4.85,4.85,0,0,0,1.63-.67c.23-.15.41,0,.63.06s0,.4-.18.3-1.64.54-2,.64c-.71.19-1,.65-1.74.56s-1.65-.67-2.41-.07a1.11,1.11,0,0,1-.92.27c-.86-.11-1.45.78-2.23,1s-1.42,0-2.16.46c-.4.27-.86.84-1.39.91s-1.33-.2-2,.19a2.55,2.55,0,0,1-1.68.49c-.65-.07-1.07-.68-1.8-.43a2.65,2.65,0,0,1-1.64.17c-.83-.22-1-1-2-.77a2.84,2.84,0,0,1-1.73,0,2.91,2.91,0,0,0-1.25-.4.43.43,0,0,1,.06.17,6.07,6.07,0,0,0,.14.82,1.37,1.37,0,0,0,.49.68l.07,0h.18a.2.2,0,0,1,.05.39h0c.36.61,0,1.11,0,1.79,0,1.39,1.19,1.75,2.16,2.46a4.18,4.18,0,0,1,1,1.16c.68,1,1.77.15,2.66,0,1.6-.26,2.76.93,4.35.95a10,10,0,0,0,2.9-.08A8.23,8.23,0,0,1,140,189a20,20,0,0,1,2.62-.4,6.17,6.17,0,0,0,2.31.28c.56-.13,2.19-.46,1.81-1.28-.07-.16-.16-.57-.34-.65a1.18,1.18,0,0,1-.54-.39c-.48-.6.17-1.58.47-2.1,1.25-2.16,4-2.93,6.09-4,1.31-.7.86-2.28,1.9-3.2a11.09,11.09,0,0,0,2.6-2.56,3.8,3.8,0,0,0-.59-4.4A10,10,0,0,0,154.92,168.8Zm-29.33,1.39a4.16,4.16,0,0,1-1.89-.12c-.21-.12,0-.26-.33-.06a2.54,2.54,0,0,1-.71.37,4.17,4.17,0,0,1-1.17.15s-1.37-.24-1.07-.26c-.31,0-.84.16-1.1-.09a.87.87,0,0,1-.29-.43c-.1-.32-.54-.26-.79-.32a3.22,3.22,0,0,1-1.42-.9,2.6,2.6,0,0,1-.84-1.28,1.5,1.5,0,0,0-1-1.17,3,3,0,0,1-.64-.32c-.63-.41-1.24-1.67-2.06-1.64a8.2,8.2,0,0,1-1.9.21c-.47-.09-2-.94-2.32-.5a4.75,4.75,0,0,1-1.48,1.31c-.7.32-1.44.15-2.14.58s-1,1.05-1.6,1.32a4.11,4.11,0,0,0-1.51.78c-.3.3-.54.69-.86,1-.64.57-.15,1.4.21,2.05a.11.11,0,0,1-.18.11c-.2-.36-.7-1.14-.64-1.57s.34-.64.65-1A3.83,3.83,0,0,1,102,167.1a6,6,0,0,0,2-1.4,3.45,3.45,0,0,1,1.62-.69,2.34,2.34,0,0,0,1.44-.51c.28-.28.51-.59.78-.87s.43-.48.77-.33a3.82,3.82,0,0,0,2.55.65,3,3,0,0,1,1.65,0c.57.2.81.85,1.22,1.22a4.24,4.24,0,0,0,1.33.74c.13.06.4.12.49.26a10.49,10.49,0,0,1,.59,1.43,2.88,2.88,0,0,0,2.44,1.54c.46,0,.51.85.89.83a5.44,5.44,0,0,1,.81,0c.21,0,.7.25.87.25a4.06,4.06,0,0,0,1.69-.47,1.4,1.4,0,0,1,.47-.17.2.2,0,0,1,.22.09c.19.38,1.34.2,1.72.21A.19.19,0,0,1,125.59,170.19Zm2.77-15.68c-.66.05-1-.33-1.7,0a5.21,5.21,0,0,1-1.11.23,2.17,2.17,0,0,0-1.17.85,4.06,4.06,0,0,0-1,2.68.1.1,0,1,1-.21,0c0-1.41.72-3.43,2.28-3.78.62-.15,1.45-.6,2.09-.39s1.27-.11,1.66.34.4.92,1.23.89c.18,0,.64-.1.82,0a10.85,10.85,0,0,0,2.59,1.18c.74.27.87,1.18,1.57,1.44.3.12.8.31.8.69a.2.2,0,0,1-.39,0c0-.27-1-.43-1.29-.73s.21-.51-.62-.95c-.3-.16-.66-.18-.94-.36a16.85,16.85,0,0,1-1.81-.88c-.4-.32-1.13,0-1.6-.32S128.91,154.47,128.36,154.51Zm11.5,21.87a5.26,5.26,0,0,1-1.28.39c-.56,0-.36-.42-1.2-.3-.46.06-.9.16-1.35.24-.11,0-.2-.07-.28-.15-.32-.32-.22-.15-.6-.14s-.86,0-1.28,0a4.06,4.06,0,0,1-2.24-.48,1.5,1.5,0,0,1-.64-.63c-.15-.32-.8-.52-1.05-.82s-.74-.92-.38-1.48a3.42,3.42,0,0,1,1.67-1.19c.48-.16,2.34-1,2.55-1.56,0-.09.18-.06.15,0-.28.84-.86.74-1.47,1.37-.27.28-.81.31-1.15.45-.66.28-1.85,1.18-1.23,2,.32.39.78.53,1.12.86s.48.72,1,.86c1,.25,2.3.61,3.27.13a.14.14,0,0,1,.17,0c.07.06.12.09.15.17.19.46.43.22.74.13a5.07,5.07,0,0,1,1-.1c.15,0,.45-.07.57.07.49.52,1.14.1,1.66-.08C139.93,176.11,140,176.34,139.86,176.38Zm6.94-13.07c-.64,0-1.42.28-2,.22s-1-.18-1.57-.26a21.18,21.18,0,0,0-2.39,0c-.35,0-.64-.27-1,0-.15.11-.29.25-.45.35-.64.45-2,.45-2.34,1.19s-.28,1.55-.55,2.24a3.93,3.93,0,0,1-.78,1.36c-.56.62-1.29,1.11-1.4,2,0,.08-.14.09-.14,0a2.29,2.29,0,0,1,.7-1.42,5.47,5.47,0,0,0,1.55-2.6c.13-.57.08-1.5.53-2s1.18-.51,1.8-.82c.27-.13,1-.88,1.37-.82a19,19,0,0,0,2.39.1,9.32,9.32,0,0,0,2.44.27,8.11,8.11,0,0,1,1.84-.2A.18.18,0,0,1,146.8,163.31Z"/><path class="cls-1" d="M121.79,151.63l0,0,.11-.21a5.93,5.93,0,0,0,.32-2.78c0,.14-.1.26-.15.39,0,.51,0,1-.1,1.51A7.35,7.35,0,0,1,121.79,151.63Z"/><path class="cls-1" d="M122.24,147.91a13.88,13.88,0,0,0-.11-1.61l0,.19,0,.07c0,.06,0,.12,0,.17,0,.49,0,1,0,1.49Z"/><path class="cls-1" d="M90.13,187.29a2.23,2.23,0,0,0-1.81-.76.59.59,0,0,1-.52-.13c-.58-.57-1.18-.41-1.88-.38a1,1,0,0,1-.94-.63c-.45-.77-1.26-.92-1.79-1.56a.5.5,0,0,1,.07-.66,2,2,0,0,1,.88-.39,2.53,2.53,0,0,0,1.5-1.12c.32-.45.87-.39,1.33-.54.87-.28,1.29-1.11,2.16-1.3A1.5,1.5,0,0,1,90,180a1,1,0,0,0-1-.23c-.07,0-.55.1-.63.09a1.46,1.46,0,0,1-.82-.29c-.3-.23-.55-.55-1-.55a2.74,2.74,0,0,1-.64,0,10,10,0,0,0-1.6-.19c-.55-.11-.77-.59-1.4-.38a2.06,2.06,0,0,1-1.18,0,1.19,1.19,0,0,1-.77-.34c-.53-.56-.52-1.24-1.42-1.56a15.43,15.43,0,0,0-1.89-.74,2,2,0,0,1-1.09-.5,4.17,4.17,0,0,0-1.44-1.2,2.53,2.53,0,0,1-.94-.57.15.15,0,0,1,0-.2c.2-.29.6-.35.92-.45,1-.33,3.17-.93,3.17-2.28a2.55,2.55,0,0,1,.41-1.1,7.43,7.43,0,0,0-2-.31,18.25,18.25,0,0,1-2,.08,1.72,1.72,0,0,0-1.9,1.19,4.67,4.67,0,0,1-.61,1.12c-.27.38-.7.58-1,.94s-.58,1-.9,1.46a4.52,4.52,0,0,1-2,1.56,8.21,8.21,0,0,0-3.44,3.14,2.19,2.19,0,0,0-.07,2.25,3.12,3.12,0,0,1,.21,1.24,7,7,0,0,0,0,2.14,3.24,3.24,0,0,0,.63,1.46c.9.74,2,.66,3,1.15a2.23,2.23,0,0,1,.88.67c.37.55.9.68,1.44,1,.83.48,1.27,1.41,2.1,1.9,1.21.71,2.36-.13,3.54.35s2.35,2,3.57,1.1c.5-.36,1.43-1.72,2.11-1.69a12.37,12.37,0,0,1,1.42.37c.51.09,1,.29,1.52.37,1.39.21,2.63-1.21,3.61-2a8.43,8.43,0,0,1,1.87-1.21l-.12-.05A1,1,0,0,1,90.13,187.29Z"/></g><g id="stroke"><path class="cls-2" d="M200.67,72.93a7.3,7.3,0,0,1-2.75-3.05A3.77,3.77,0,0,0,196.16,68c-1.2-.51-2.54-.31-3.72-.82-2.06-.91-3.05-3.58-3.83-5.52a1.94,1.94,0,0,0-.63-.81,2.9,2.9,0,0,0-.51-.29,1.39,1.39,0,0,1-.79-1.37,9.25,9.25,0,0,0-.31-2.67,2.22,2.22,0,0,0-1.54-1.13c-1.26-.43-1.78-1.54-2.71-2.35-1.77-1.54-3.94,1-5.52,1.4a4.43,4.43,0,0,1-3-.33,4.17,4.17,0,0,0-1.5-.47,7.93,7.93,0,0,0-3.54.5,2.16,2.16,0,0,1-2.35-.73l.05-.06A4.81,4.81,0,0,1,167.76,52a5.47,5.47,0,0,0,1.25-.81c.82-.69,1.71-2.21,2.87-2.21.3,0,.93.12,1.19,0a12.67,12.67,0,0,0,1.3-1,3.31,3.31,0,0,1,1.71-.9,3,3,0,0,0,1.18-.31,5.37,5.37,0,0,0,1.85-1.82c.35-.56.85-.7,1.38-1a3.2,3.2,0,0,0,.94-1.18c1.29-2.14,1.69-4.6,4.15-5.77a3.09,3.09,0,0,0,1.78-1.78c.43-1.28.1-2.72.78-3.91a21,21,0,0,0,1.49-2.49,10.64,10.64,0,0,0,.25-3.82,8.89,8.89,0,0,1,.17-2.3c.17-.62.33-1.24.46-1.87a11.12,11.12,0,0,0,.13-2.88,7,7,0,0,0-.47-2.48c-.4-.89-.72-1.05-1.67-1.05a11.56,11.56,0,0,1-4.21-.9A10.64,10.64,0,0,1,181.37,11a11,11,0,0,0-2.79-1.64,2.88,2.88,0,0,1-1.72-2.68A1.35,1.35,0,0,0,176,5.47c-.48-.11-1-.06-1.46-.14-.65-.11-1.46-1.31-1.79-1.79-1-1.44-2.76-1.83-4.27-2.55S166.12-.54,164.6.46a11.69,11.69,0,0,1-3.16,1.42c-.56.17-1.13.31-1.7.45-.72.18-1.34.59-2.05.8a5,5,0,0,1-1.94.19c-.36-.08-.74-.49-1.09-.5a12.94,12.94,0,0,1-3.83-.67A18.66,18.66,0,0,0,147.29,1,15.64,15.64,0,0,0,144,.84a7.66,7.66,0,0,0-3,.7c-.83.38-1.32,1.54-2.19,1.75a3.79,3.79,0,0,1,.35-.25c.09,0,0-.18-.08-.13a3.69,3.69,0,0,0-1.51,1.64,4.23,4.23,0,0,1-1,1.3c-.41.3-1.14.27-1.5.63-.61.6-.58,1.89-.63,2.66s-.06,1.24-.68,1.72a8.79,8.79,0,0,0-1.24,1.35,3,3,0,0,0-.42.88c-.31.8-1,1.12-1.45,1.76a3.67,3.67,0,0,0-.41,2.38c0,.54.27,1,.34,1.58.08.69-.92,1.58-1.34,2a5.35,5.35,0,0,0-1.58,2.94,10.1,10.1,0,0,0,1.39,7.06,11.09,11.09,0,0,1,1.88,3.1A8.18,8.18,0,0,1,131,36c0,1-.73,1.14-1.36,1.7s-.61,1.67-.64,2.59c0,1.18-1.1,2.38-1.77,3.26-1.78,2.36-3.39,4.5-5.93,6.09a8.07,8.07,0,0,0-2.45,2,4.12,4.12,0,0,0-.63,1.19,6.71,6.71,0,0,1-1.53,2.2,9.47,9.47,0,0,0-1.85,2.7c-.49,1.13-.56,2.34-1,3.47-1,2.51-.12,4.86.51,7.34.32,1.23.61,2.42.84,3.67a3.59,3.59,0,0,0,1.4,2c1.08.86,1.37,2.31,1.84,3.53a11.44,11.44,0,0,0,1.69,3.11,20.48,20.48,0,0,1,2.4,3.17A17.29,17.29,0,0,1,124,88.1c.33,1.27,1.13,2.3,1.46,3.55a3.27,3.27,0,0,1-.35,2.56c-.41.63-.91,1.19-1.28,1.85a8.27,8.27,0,0,0-.55,1.75c-.16.6-.41,1.21-.6,1.81a16,16,0,0,0-.86,3.74c-.22,3.13-2.15,5.85-2,9,0,.64.15,1.28.24,1.92a6.79,6.79,0,0,1-.23,2.76,26.12,26.12,0,0,0-.5,4.23,13.82,13.82,0,0,0,.06,4,9.78,9.78,0,0,0,1,2.1c.37.75-.1,1.91-.21,2.71-.22,1.55-.11,3.19-.22,4.76-.06.87-.11,1.74-.16,2.61a5.06,5.06,0,0,0-.41-.92,2.9,2.9,0,0,0-.77-.9c-.46-.35-.72-1.17-1-1.66a4.69,4.69,0,0,0-1.83-1.73c-.17-.09-.36-.16-.53-.24s-.37-.85-.45-1.15c-.18-.64-.13-1.32-.28-2a5.68,5.68,0,0,0-.73-1.43,5.94,5.94,0,0,1-.55-1.6,14.22,14.22,0,0,0-.84-3.43,10.9,10.9,0,0,0-.92-1.4,2.53,2.53,0,0,1-.28-2.41,16.29,16.29,0,0,0,.14-4.13c0-1.38.79-2.51,1-3.85a13.82,13.82,0,0,0,.14-4.06,10.92,10.92,0,0,0-2.65-6.19c-1.83-1.86-4.67-2.49-6-4.85-.64-1.11-.6-2.54-.92-3.76a5,5,0,0,0-.64-1.38,6.66,6.66,0,0,1-.76-2.15,33.61,33.61,0,0,1-.26-4.6,19,19,0,0,1,.54-4.8A49.08,49.08,0,0,0,103.44,71a28,28,0,0,0-.32-4.39,10.56,10.56,0,0,1,1-4.54,19.86,19.86,0,0,0,1-3.69A10.77,10.77,0,0,1,106.31,54c.74-1.17,1.66-2.2,2.39-3.37.85-1.35,1.48-2.89,2.19-4.32.27-.53.45-1.2.73-1.71s.7-.83,1-1.3a4.72,4.72,0,0,0,.17-3.19c-.26-1.27-.64-2.48-.83-3.76a9.7,9.7,0,0,0-1.15-3.69,4.37,4.37,0,0,0-2.17-1.7,17.94,17.94,0,0,1-3.48-2.3,5.47,5.47,0,0,0-2.83-1.33c-1.18-.12-2.38.58-3.43,1a10.48,10.48,0,0,1-3.79.78c-1.2,0-2.27-.35-3.46-.38a9.38,9.38,0,0,0-3.55.68,2.28,2.28,0,0,1-1.75.15c-.43-.23-.86-.46-1.31-.68-.93-.44-2-.6-3-1a4.34,4.34,0,0,0-1.46-.35,5.5,5.5,0,0,1-2-.57c-.89-.39-1.25-1.57-1.88-2.26s-2-.68-3-.55c-1.5.2-2.92.67-4.06-.63-.75-.85-1.12-1.77-2.14-2.34a8.39,8.39,0,0,0-1.76-.63c-1.08-.34-1.38-1.06-1.92-2A6.24,6.24,0,0,0,61,15.87c-1.55-.62-3.63-.35-5.23-.11-.57.08-1.15.2-1.73.29a5.29,5.29,0,0,1-2.06-.15,4.45,4.45,0,0,0-2.5-.16,10.94,10.94,0,0,1-3.08.25,9.17,9.17,0,0,0-2.2.73l-1.48.4c-.4.11-.84,0-1.22.11a7,7,0,0,0-1.25.7c-.36.23-3.45,2.33-3.54,3.17-.45.66-.82,1.27-1.85,1.31s-1.68-.73-2.58-.48a4.64,4.64,0,0,0-1.21.85,16.47,16.47,0,0,0-1.35,1.13,9.48,9.48,0,0,1-1.62,1.42,6.19,6.19,0,0,0-1.3,1c-.24.24-.22.8-.24,1.12,0,.57.05,1.06-.4,1.51l-.72.71c-.39.39-.28.54-.28,1.14,0,1.18-.83,1.3-1.74,1.42a2.49,2.49,0,0,0-1.94,1c-.59,1,.13,2.6-1.27,3-.77.25-1.43.14-2.09.73a5.47,5.47,0,0,0-1.43,2.39c-.48,1.41-.92,3-2.31,3.67a1.87,1.87,0,0,0-.75.75c-.27.43.38,1,0,1.59s-.31.47-.86.62a1.29,1.29,0,0,0-.68.6c-.41.55-.78,1.12-1.22,1.64s-.84.76-1.18,1.21a2.92,2.92,0,0,0-.46,2.28,8,8,0,0,0,.49,1.42,2.76,2.76,0,0,1-.29,2.09c-.25.47-.7.83-1,1.3a7.91,7.91,0,0,0-.72,1.73,2.84,2.84,0,0,0,0,1.36,7.19,7.19,0,0,0,.24.79c.18.61-.27,1.12-.52,1.62s-.23.94-.42,1.38A9,9,0,0,0,6.51,65,5,5,0,0,0,7.06,68c.45,1.25-1.11,2.65-1.72,3.61a4.5,4.5,0,0,0-.59,2.89c.12,1.45-.63,2.48-1.29,3.7a2.7,2.7,0,0,0-.4,2.58,9.42,9.42,0,0,0,2.23,2.4A8.73,8.73,0,0,1,7.5,86.25,13.82,13.82,0,0,0,9,89.15c.88,1.14,2.07,1.63,3.17,2.51a5.94,5.94,0,0,1,1.51,1.88s0,0-.09.21a4.2,4.2,0,0,1-2.13,3.19c-.72.43-1.64.26-2.37.72a2.89,2.89,0,0,0-.89,2,3.48,3.48,0,0,1-.57,2A5.23,5.23,0,0,1,6,103.06a6.91,6.91,0,0,0-2,2.2,10.62,10.62,0,0,0-1.57,3.46,10.66,10.66,0,0,0,.06,3.38c0,1-1,1.94-1.2,2.89a3.33,3.33,0,0,0,.56,2.54,3.46,3.46,0,0,1,.49,2.63,9.86,9.86,0,0,1-1,2,5.78,5.78,0,0,0-.87,2.67,3,3,0,0,0,.33,1.28c.26.65-.12,1.59-.24,2.25s-.1,1.2-.24,1.8c-.07.29-.33.77-.24,1.08.22.83,1.45,1.18,2,1.67.36.31.82.53,1.19.86a10,10,0,0,0,.85.74,2.59,2.59,0,0,0,2.45.31,4.82,4.82,0,0,1,2.4-.37c.8.13,1.42,1.15,1.83,1.76a3.66,3.66,0,0,0,2.5,1.79c1.39.28,2.76.05,4,1a16,16,0,0,1,1.8,2.44,5.39,5.39,0,0,0,2.32,1.47c.56.22,1.14.39,1.7.61a11.07,11.07,0,0,1,2.22,1.31,3.31,3.31,0,0,0,2,.53h.58c-.11,2.43-1.11,4.86.3,7.14.35.57,1.12.43,1.66.39s1.49.62,2,.9,1,.32,1.49.6a17.39,17.39,0,0,0,2.75,1.81,7.71,7.71,0,0,0,3.38.19,4.68,4.68,0,0,1,2.65.18c.43.22.83.49,1.27.71,1.26.65,2.79.39,4.17.39a14.67,14.67,0,0,1,2.39,0c.69.1,1.36.27,2,.36a7.19,7.19,0,0,0,3.45-.15c1.22-.4,2.3-1.08,3.55-1.45s2.84-.21,4.2-.77a7.06,7.06,0,0,0,2.33-1.73,13.76,13.76,0,0,0,.91-1.11,3.44,3.44,0,0,0,.24-.66,6.84,6.84,0,0,1,.62-1.24A13.53,13.53,0,0,1,70,148c.92-.8,2.59-2.27,3.88-2.28a5.7,5.7,0,0,0,2.71-1.14,7.29,7.29,0,0,1,1.66-1c.59-.19,1.21-.32,1.81-.48,1.4-.39,2.89-.44,4.31-.81.79-.21,1.61-.24,2.41-.41a22.34,22.34,0,0,1,2.68-.55c1.68-.15,3.44,0,5.12,0a11.12,11.12,0,0,1,2.29.28,14.18,14.18,0,0,0,2.09.52c1.39,0,2.66.65,4,.78a22.64,22.64,0,0,0,2.33,0c.75,0,1.47.1,2.22.08a14.22,14.22,0,0,1,1.45.64,15.34,15.34,0,0,0,1.45.86c.86.35,1.72.69,2.56,1.08a14.58,14.58,0,0,1,3.78,2.37,18.89,18.89,0,0,1,1.4,1.43c.24.27.54.71.85,1.05a4.47,4.47,0,0,0-1.68,1c-.51.43-1.15.25-1.78.3a13.82,13.82,0,0,1-1.92.25,3.37,3.37,0,0,0-2.44.43c-.73.63-1,1.68-1.85,2.19a4.63,4.63,0,0,0-.94.59c-.31.29-.4,1-.6,1.32a3.55,3.55,0,0,1-.92,1,8.73,8.73,0,0,1-.82.78c-.27.18-.72.25-1,.42-.69.37-1.06.82-1.92.86a2.83,2.83,0,0,0-1.11.31l-.78.38a9.79,9.79,0,0,0-1-.48c-.62-.27-.87-.95-1.23-1.47-.57-.84-1.33-.59-2.17-.85-1.11-.35-2,.42-3.13.5-.46,0-.9-.12-1.37-.05s-.64.42-.86.64c-.41.41-.93.67-1.32,1.12a9.75,9.75,0,0,0-.7,1.32,1.66,1.66,0,0,1-1.62.83,1.9,1.9,0,0,0-.63,0c-.66.18-1.15.81-1.79,1-1,.39-1.14,1.07-1.56,2.05a10.94,10.94,0,0,1-.88,1.33,3.44,3.44,0,0,1-.56.93.09.09,0,0,0,0,.15l-1.58.46a2.6,2.6,0,0,0-1.21.53,5,5,0,0,0-.75.93,13,13,0,0,0-1.52-.37,18,18,0,0,0-1.94.09c-.68,0-2-.36-2.48.42-.26.47-.38,1-.62,1.45A6.71,6.71,0,0,1,71,172.27a7.69,7.69,0,0,0-.81,1.28,4.19,4.19,0,0,1-1.8,1.53,8.69,8.69,0,0,0-2.95,2.26c-.54.64-1.65,1.71-1.37,2.67a8.27,8.27,0,0,1,.58,1.83,17,17,0,0,1-.09,1.89,3.39,3.39,0,0,0,1,2.41,7.09,7.09,0,0,0,2.64,1c.75.22.91.75,1.39,1.25s1,.33,1.49.72c.79.63,1.28,1.47,2.22,1.91a2.61,2.61,0,0,0,1.3.17,3.82,3.82,0,0,1,2.72.44c.8.52,1.51,1.13,2.51.84s1.93-2.18,2.86-1.77a4.13,4.13,0,0,0,1.21.3,12.8,12.8,0,0,0,1.83.34c1,0,1.93-1,2.63-1.58a8.92,8.92,0,0,1,2.7-1.78,1.82,1.82,0,0,1,.44.89c.11.35.22.5.59.54a5,5,0,0,0,.94-.17c.65-.08.6.61,1.07.71s.84-.26,1.2-.56,1.27-1.1,1.84-.9a.49.49,0,0,0,.27,0c.23.61.88.77,1.59.78,1.69,0,3.11.76,4.76,1a7,7,0,0,1,2.15.64,2.14,2.14,0,0,0,1.34.34,2.54,2.54,0,0,1,1.38.25c.46.17,1.2-.32,1.56-.53a8,8,0,0,1,2.09-1.05,7.36,7.36,0,0,0,2-.55,2.74,2.74,0,0,0,.91-1.17,4.42,4.42,0,0,1,1.25-1.59,5.51,5.51,0,0,0,.6-.67,2.71,2.71,0,0,1,1.5-.74,6.2,6.2,0,0,0,1.92-1.12,7.08,7.08,0,0,1,2.55-.45,5.89,5.89,0,0,0,.91-.19.69.69,0,0,0,.3-.2,1.64,1.64,0,0,1,.15,1,2.45,2.45,0,0,0,1.23,2.7,5,5,0,0,1,1.81,1.54,2.54,2.54,0,0,0,.72.81,1.24,1.24,0,0,0,1.08,0,4.52,4.52,0,0,1,2.56-.38c.73.19,1.32.66,2.08.83a10.28,10.28,0,0,0,2,.11,8.38,8.38,0,0,0,2-.12,12.39,12.39,0,0,1,2.59-.3c.77,0,1.47-.43,2.24-.39a13.76,13.76,0,0,0,2,.32,4,4,0,0,0,2.69-1.21.19.19,0,0,0,0-.18c-.27-.35-.3-.77-.53-1.12s-.85-.2-.68-1c.28-1.36,1.71-2.44,2.78-3.14s2.37-1,3.45-1.73a3.8,3.8,0,0,0,1.12-.79,3.54,3.54,0,0,0,.47-1.46c.31-1.25,1.75-2,2.6-2.84a4.49,4.49,0,0,0,1.28-2.63,4.54,4.54,0,0,0-1-2.85c-.69-1.11-2.41-2-2.44-3.34a2.44,2.44,0,0,0-1.2-2c-.53-.36-1.14-.36-1.65-.8a2.87,2.87,0,0,0-1.39-.75,5.55,5.55,0,0,1-1.89-.63,4.29,4.29,0,0,0-1.34-.52,3.11,3.11,0,0,1-1.93-1,3.43,3.43,0,0,0-1.36-.89,5.66,5.66,0,0,1-3-2.6c-.32-.49-.63-1-1-1.45s-.63-1.32-1.11-1.76a7.61,7.61,0,0,0-1.3-.88,7.15,7.15,0,0,1-1.39-1.41c-.72-.75-1.92-.82-2.89-1s-1.74-.64-2.63-.88a8.45,8.45,0,0,0-2.56-.2,9.59,9.59,0,0,1-2.88-.07,7.13,7.13,0,0,0-2.35,0v-.17c0-.74,0-1.5,0-2.26.5-1.49.91-3,1.24-4.2a25.23,25.23,0,0,1,3.5-8.21c1.5-2.08,3.33-3.87,4.81-6a7.79,7.79,0,0,1,2.79-2.62c.61-.3,1.38-.4,2-.64a9.26,9.26,0,0,0,1.73-.85c1.07-.63,1.92-1.55,2.95-2.23a14.2,14.2,0,0,1,4.45-1.51A7.85,7.85,0,0,0,148,121a8.45,8.45,0,0,1,1.59-1c1.2-.41,2.15.44,3.33.21a8.06,8.06,0,0,0,2.66-1.23,7.18,7.18,0,0,1,4.06-.92,6.38,6.38,0,0,0,3.29-.82c.5-.29,1-.64,1.46-.93a9.62,9.62,0,0,1,2.09-.74,3.44,3.44,0,0,0,1.89-1.37,8.63,8.63,0,0,0,.33-1.43,11.36,11.36,0,0,1,.77-1.84A7.36,7.36,0,0,1,176,106.7a34,34,0,0,0,3.5-.17,19.56,19.56,0,0,0,3.88-1.46,7.73,7.73,0,0,0,2.55-1.5,12.91,12.91,0,0,0,1.3-1.46,8.7,8.7,0,0,0,.76-1.49c.32-.64.92-1.79.68-2.53-.51-1.54-.92-3.18,0-4.66a3.73,3.73,0,0,1,3.21-1.52c1.3,0,2.65-1.15,3.86-1.59s2.38-.9,3.55-1.36a4.9,4.9,0,0,0,2.32-1.72,5.72,5.72,0,0,0,.94-2.59c.16-1.2-.07-2.43.46-3.55a6.15,6.15,0,0,0,.79-3.35,7.94,7.94,0,0,0-.8-3.07C202.5,73.77,201.49,73.43,200.67,72.93Zm-80.06,57.85a12.1,12.1,0,0,1,.3-2.15,2.43,2.43,0,0,0,.07-1.13c-.35-.68-.69-1.36-1-2a5.83,5.83,0,0,1-.3-2.84,37.14,37.14,0,0,1,.3-4.08c.21-1.37.73-2.6.55-4a13,13,0,0,1-.15-4.26c.28-1.5,1-2.85,1.37-4.34.29-1.29.38-2.57.62-3.85a29,29,0,0,1,1.16-3.86,13,13,0,0,1,.78-2.28,19.15,19.15,0,0,1,1.13-1.59,3.68,3.68,0,0,0,.3-3.06,5.16,5.16,0,0,0-.62-1.35,8.65,8.65,0,0,1-.86-2.27,17.11,17.11,0,0,0-1.33-3.6,11.36,11.36,0,0,0-1.85-2.65,11.5,11.5,0,0,1-2.45-4.08,10.24,10.24,0,0,0-1.33-2.91c-.76-1-1.69-1.39-1.85-2.77a25.14,25.14,0,0,0-.85-3.58,16.76,16.76,0,0,1-.92-4.4c0-1.36.71-2.51.93-3.82A9.69,9.69,0,0,1,116,56.25c.71-1.1,1.82-1.85,2.42-3.06a6.92,6.92,0,0,1,.87-1.6,8.4,8.4,0,0,1,1.91-1.49A19.87,19.87,0,0,0,126.57,45a16.6,16.6,0,0,0,2.17-3.14c.15-.34.36-.65.48-1a10.55,10.55,0,0,0,.17-2.11c.18-1.22,1.92-1.13,1.92-2.33a8.15,8.15,0,0,0-.39-3.37A31.11,31.11,0,0,0,129,30.16a9.57,9.57,0,0,1-1.14-4.69,5.62,5.62,0,0,1,1.4-4.2c.49-.54,1.6-1.42,1.63-2.23,0-1-.38-1.89-.32-2.89a2.65,2.65,0,0,1,1.05-1.85,3.43,3.43,0,0,0,.86-1.38,4.61,4.61,0,0,1,1.1-1.56c.26-.24.73-.45.91-.76a3.06,3.06,0,0,0,.21-1.16,7.69,7.69,0,0,1,.43-2.56c.18-.42,1.17-.62,1.58-.85s.4-.47.66-.63.26-.38.33-.57a4.07,4.07,0,0,1,1-1.42l0,0c.76-.09,1.15-.81,1.66-1.3a5.77,5.77,0,0,1,2.42-.87A7.29,7.29,0,0,1,145,1.13a11.79,11.79,0,0,1,4.12.67c.67.23,1.31.52,2,.79a12.64,12.64,0,0,0,2.41.4,4.69,4.69,0,0,1,1.52.36,2.45,2.45,0,0,0,.9.33c1.46.11,2.56-.7,3.9-1a21.72,21.72,0,0,0,3.79-1.21A8.52,8.52,0,0,0,165,.61a2.33,2.33,0,0,1,2.22,0c.91.41,1.73,1,2.67,1.36a5.62,5.62,0,0,1,3,2.3,2.94,2.94,0,0,0,2.33,1.48c1.16.06,1.34.7,1.44,1.7a2.05,2.05,0,0,0,.48,1.15,6.59,6.59,0,0,0,2.69,1.77,15.4,15.4,0,0,1,3.06,2.58,6.28,6.28,0,0,0,2.76,1.3c.7.15,1.39.26,2.07.47s1.33-.26,1.79.2c.75.75.79,2.23.84,3.2a11.79,11.79,0,0,1-.33,3.45,8.32,8.32,0,0,0-.45,1.73c0,.66,0,1.33,0,2,0,1.5.11,2.9-.68,4.24a8.73,8.73,0,0,0-1.44,2.62c-.29,1.44.08,3-1.28,4.06a7.54,7.54,0,0,1-1.47.75,4,4,0,0,0-1.12,1,5.78,5.78,0,0,0-.77,1.13A10.7,10.7,0,0,1,182,40.7c-.77,1-.76,2.41-2,3-.95.46-1.35,1.25-2.05,2a2.88,2.88,0,0,1-1.81.88,2.49,2.49,0,0,0-1,.23,8.1,8.1,0,0,0-1.17.93,9.13,9.13,0,0,1-.73.65c-.33.25-.91.14-1.29.14-1.07,0-1.52.88-2.34,1.48-.46.34-.72.82-1.21,1.17a14.06,14.06,0,0,0-1.55.92,31.55,31.55,0,0,0-2.41,2.63,2.66,2.66,0,0,0-.8,2.32c.13.94.42,1.8.46,2.76a6.53,6.53,0,0,0,.68,2.28,11.08,11.08,0,0,1,.95,3,3.05,3.05,0,0,1-1.49,2.65c-.72.44-1.57.72-2.33,1.1a23.54,23.54,0,0,1-3.71,1.53,13,13,0,0,1-1.77.24,21.1,21.1,0,0,1-2.1.25,11.64,11.64,0,0,0-2.62.74,5.43,5.43,0,0,1-1.65-.09,12.06,12.06,0,0,0-1.7,0c-1.07,0-2.13.15-3.2.15-.58,0-1.4-.19-1.87.24a8.45,8.45,0,0,1-2.29,1.54c-1.62.79-1.34,2.94-1.29,4.39a14.52,14.52,0,0,1-.61,3.63,9.15,9.15,0,0,0,.3,3h0c0,.4-.16.89.08,1.25a10.9,10.9,0,0,1,.52,1.22,14.34,14.34,0,0,1,1.33,4c.07.49.49.63,0,1.21-.1.1-.17.23-.27.33a5.75,5.75,0,0,0-.79.77,6.48,6.48,0,0,0-.54,1.3c-.17.45-.52.67-.65,1.18-.22.87-1,1.39-1,2.33s-.57,1.12-1.26,1.64-1.11.93-1.66,1.42c-1,.89-2.13,1.67-3.14,2.56a15.18,15.18,0,0,0-1.25,1.29,5.1,5.1,0,0,0-.69,1.33,10.67,10.67,0,0,0-.82,1.38,5.62,5.62,0,0,0-.27,1.72,5.1,5.1,0,0,1-.58,1.78A9.29,9.29,0,0,0,128,113a4.4,4.4,0,0,1-1,2,5.17,5.17,0,0,0-.62,1.61,11.9,11.9,0,0,0-.27,1.69c-.05.41-.07.83-.16,1.24a4.7,4.7,0,0,0-.31,1,4.44,4.44,0,0,1-1.81,3.64,5.68,5.68,0,0,0-1.9,3.07c-.1.43-.15.88-.29,1.29a64.73,64.73,0,0,1,0-8.24,27.85,27.85,0,0,1,1.41-5c.5-1.71.75-3.5,1.14-5.24a47.09,47.09,0,0,1,1.25-4.66,50.71,50.71,0,0,1,2.2-4.87c.57-1.26,1.17-2.44,1.66-3.73.6-1.56,1-3.22,1.53-4.82,1-3.08.63-6.42.91-9.62s-.19-6.68-.07-10a.19.19,0,0,0,.14,0,13.69,13.69,0,0,0,3.91-4,14.64,14.64,0,0,1,2.4-2.58C139,64.74,140,63.87,141,63a18.41,18.41,0,0,1,7-3.32,35.57,35.57,0,0,1,3.69-.78c.67-.11,2.15-.58,2.68-.12.07.06.17,0,.1-.1-.36-.36-1-.24-1.42-.19-1,.12-2.05.28-3.06.47a22.88,22.88,0,0,0-7.39,2.48,33.08,33.08,0,0,0-5.81,5,17.71,17.71,0,0,0-2,2.44,12.37,12.37,0,0,1-3.08,3,34.7,34.7,0,0,1,1.05-8.72.22.22,0,0,0,.06-.21c.16-.49.33-1,.54-1.47.6-1.39,1.11-2.81,1.79-4.17a37.48,37.48,0,0,1,2.6-4.23,57.69,57.69,0,0,1,6.84-8.43c.87-.9,1.74-1.79,2.6-2.69l0,0a5.81,5.81,0,0,1,2.39-.11,8.91,8.91,0,0,1,2.5.47A48.72,48.72,0,0,0,157,43.63c3.24.58,6.76.26,10,.14a.1.1,0,0,0,0-.2c-3.68-.11-7.51.36-11.12-.56-1.74-.44-3.39-1.12-5.15-1.49a12.2,12.2,0,0,0-2.49-.12c-.2,0-.38,0-.56,0,1.3-1.37,2.58-2.76,3.81-4.21s2.59-3.31,3.79-5c1.63-.71,3.64-.53,5.38-.77,2.11-.3,4.27-.6,6.34-1.11a15.66,15.66,0,0,0,5.08-2.38,6.7,6.7,0,0,0,3-3.37c.05-.15-.19-.22-.24-.07-.54,1.75-2.31,2.86-3.79,3.76a16,16,0,0,1-5.68,2,51.27,51.27,0,0,1-6.3.85,15,15,0,0,0-3.31.44c.58-.84,1.14-1.68,1.7-2.51a18.64,18.64,0,0,0,3.35-8.91c0-.09-.12-.08-.13,0a18,18,0,0,1-2,6.4,4.48,4.48,0,0,0-.69-1.36,11.57,11.57,0,0,1-1.41-3.2,18.27,18.27,0,0,1-.55-7.53c0-.13-.17-.19-.2-.06a19.63,19.63,0,0,0,.14,6.07,12.22,12.22,0,0,0,.86,3.2c.44,1,1.44,2.1,1.56,3.22a.19.19,0,0,0,0,.1,27.84,27.84,0,0,1-1.6,2.56c-.51.73-1,1.46-1.53,2.18l-.23.09a.2.2,0,0,0-.06.32c-1.41,2-2.86,3.92-4.44,5.76-1.1,1.27-2.25,2.49-3.42,3.69l-.13.07a.24.24,0,0,0-.09.16c-1,1.07-2.11,2.14-3.16,3.22a53.84,53.84,0,0,0-6.14,7.58c-.16.24-.33.48-.49.73-.17-.42,0-.9-.16-1.34s-.23-1.15-.42-1.72a6.29,6.29,0,0,1,0-4.32c.38-1.15.67-2.29,1-3.45.39-1.38,1-2.73,1.55-4.06a13.53,13.53,0,0,0,1-3.46c.17-1.54.17-3.1.44-4.63.23-1.36.61-2.68.88-4,.22-1.11,0-2.49.41-3.53,0-.11-.13-.15-.17-.05a2.69,2.69,0,0,0-.16,1.05,15.61,15.61,0,0,1-.31,2.46c-.26,1.49-.75,2.93-1,4.42-.08.45-.13.9-.18,1.36a2.45,2.45,0,0,0-.94-.67,5.89,5.89,0,0,1-1.69-1.37,16.89,16.89,0,0,1-3-4.35c-.07-.14-.27,0-.21.12a17.81,17.81,0,0,0,2.45,3.92,14.94,14.94,0,0,0,1.41,1.46c.51.47,1.26.61,1.69,1.14.06.09.17.07.25,0-.08.78-.12,1.56-.18,2.33A15.38,15.38,0,0,1,138.4,39a36,36,0,0,0-1.46,4c-.33,1.3-.81,2.55-1.14,3.84a6,6,0,0,0,.32,3.48,11.35,11.35,0,0,1,.42,1.72c.1.58,0,1.06.25,1.56,0,0,0,0,.05,0-.61.92-1.2,1.84-1.74,2.79-.8,1.44-1.3,3-2,4.48a18,18,0,0,0-.69,1.8,10.13,10.13,0,0,0-2.09-.45c-1-.15-1.92-.31-2.88-.42-2.27-.25-5.18-1.34-6.21-3.58-.06-.13-.28,0-.23.09.7,1.84,2.78,2.83,4.47,3.52a15.47,15.47,0,0,0,3.32.56,14.79,14.79,0,0,1,3.48.68,25.7,25.7,0,0,0-1,7c-.09,3.42.09,6.82.09,10.24,0,1.61-.2,3.21-.29,4.82a37.7,37.7,0,0,1-.33,5.52c-.33,1.65-1.08,3.24-1.54,4.85a27.77,27.77,0,0,1-2,4.75c-.7,1.41-1.42,2.78-2,4.26a38.82,38.82,0,0,0-1.43,5c-.41,1.74-.71,3.5-1.14,5.23a51.73,51.73,0,0,0-1.49,5.13,51.2,51.2,0,0,0,0,9.51,3.7,3.7,0,0,0-.43,1,2.42,2.42,0,0,0,.14,1.43,5.75,5.75,0,0,1,0,2.61,17.07,17.07,0,0,0,.08,2.77c.05.94,0,1.88,0,2.82a10,10,0,0,0,.66,2.52,4.49,4.49,0,0,1,0,1.34c-.19-.34-.41-.67-.65-1-.67-1.05-.26-2.27-.74-3.37l-.06-.2C120.29,136.4,120.6,133.6,120.61,130.78ZM12.84,91.89c-.91-1-2.28-1.46-3.23-2.45-1.69-1.79-1.85-4.51-3.76-6.14a12.42,12.42,0,0,1-2.54-2.68c-.79-1.25,1.1-3.43,1.58-4.55A6.41,6.41,0,0,0,5,73.56c0-1.48,1.15-2.57,1.91-3.73a2.18,2.18,0,0,0,.22-2.46,4.07,4.07,0,0,1-.44-1.74,7,7,0,0,1,.76-2.47,2.65,2.65,0,0,0,.12-.66,4.79,4.79,0,0,1,.51-1,1.2,1.2,0,0,0,.1-1,4.28,4.28,0,0,1-.13-2.33,6.66,6.66,0,0,1,1.4-2.4c1.33-1.6-.12-3.24,0-5,.1-1.18,1.48-2,2.15-2.9.4-.53.73-1.31,1.41-1.5.21-.06.53,0,.68-.23a2.12,2.12,0,0,0,.22-1.76c-.18-.81.81-1,1.31-1.32s.71-1,.93-1.48c.53-1.07.8-2.24,1.36-3.31.38-.7.82-.87,1.44-1.3.4-.29,1-.21,1.48-.36a1.79,1.79,0,0,0,1-1.53,5.71,5.71,0,0,1,.28-1.59c.31-.75,1.29-.85,2-.95a1.81,1.81,0,0,0,1.62-1c.25-.51-.14-1.23.3-1.66a4,4,0,0,0,1.11-1.36c.26-.7-.19-1.57.41-2.16s1.13-.75,1.61-1.22,1.07-1.05,1.63-1.55,1.52-1.5,2.27-1.58c.49-.05,1.11.35,1.59.46a2.57,2.57,0,0,0,1.4-.09,2.24,2.24,0,0,0,1.11-1.12.12.12,0,0,0,.05.05c.06,0,.12-.06.06-.1s0,0,0-.06a4.4,4.4,0,0,1,.45-.65.07.07,0,0,0,0-.05A27.57,27.57,0,0,1,40.48,18c.27-.17.56-.32.85-.47a5.45,5.45,0,0,1,1.41-.18A21.25,21.25,0,0,0,46,16.3a7,7,0,0,1,2-.06A4.3,4.3,0,0,0,49.51,16c1.43-.47,2.75.56,4.19.38,2.51-.31,5.65-1.26,8,.17,1.72,1.07,1.94,3.47,3.84,4.2a6.4,6.4,0,0,1,2.92,1.51c.74.84,1.11,1.76,2.14,2.33.73.41,2.12,0,2.89-.13a5.66,5.66,0,0,1,2.39,0c.77.2,1.16,1.09,1.55,1.69a4.07,4.07,0,0,0,2,1.46,2.85,2.85,0,0,0,1,.16,5.4,5.4,0,0,1,2,.56c.41.16.82.24,1.23.38.56.2,1.11.45,1.65.65s1.11.67,1.86.53c1.43-.27,2.61-.92,4.1-.92a7.29,7.29,0,0,1,1.92.2,6.1,6.1,0,0,0,1.87.19,10.07,10.07,0,0,0,3.31-.54c1.29-.47,2.49-1.26,3.91-1.24s2.62,1.26,3.68,2.08a27.22,27.22,0,0,0,3.47,2c1.28.71,1.74,2.4,2,3.73s.47,2.75.84,4.11c.43,1.62.52,3.1-.63,4.43a2.58,2.58,0,0,0-.55.91,17,17,0,0,1-1,2.26,36.41,36.41,0,0,1-2,3.86,41.4,41.4,0,0,0-2.51,3.65,9.76,9.76,0,0,0-.68,3.35,19.79,19.79,0,0,1-1.17,4.26,10.81,10.81,0,0,0-1,3.59c0,1.6.41,3.17.39,4.77,0,2.89-1,5.64-1.66,8.43a31.29,31.29,0,0,0-.31,8.59,6.9,6.9,0,0,0,.88,2.9,14.45,14.45,0,0,1,1.13,3.95c.54,2.36,2.74,3.51,4.63,4.7a8.93,8.93,0,0,1,2.94,2.73,11.19,11.19,0,0,1,1.36,3.82,14.5,14.5,0,0,1,.06,4.46c-.15,1.38-.91,2.53-1,3.91s.18,3-.13,4.39a3,3,0,0,0,.49,2.89,8,8,0,0,1,1.07,1.86,23.12,23.12,0,0,1,.45,2.4c.33,1.54,1.38,2.78,1.51,4.35.08,1,.08,1.93,1,2.35,1.41.61,2.12,2,2.77,3.28a4.23,4.23,0,0,0,.56.49,3.62,3.62,0,0,1,.71,1.25c.2.52.11,1.16.26,1.68,0,.29,0,.59,0,.89a.2.2,0,0,0,.32.15c.08.55.06,1.09.17,1.66a4.45,4.45,0,0,0,.78,1.66,7.27,7.27,0,0,1,.55,1l0,.33c-.79-1.69-2.43-2.87-3.82-4.19-1-1-1.56-2.57-2.28-3.78a6.89,6.89,0,0,0-3.05-2.38c-3.15-1.72-4.36-5.22-5.62-8.35l0-.08a.22.22,0,0,0,.06-.21,1.66,1.66,0,0,0-.41-.68c-.42-1.1-.82-2.21-1.13-3.34a8,8,0,0,0-.75-1.78,12.62,12.62,0,0,1-1.36-2.18c0-.13-.09-.26-.13-.39a.22.22,0,0,0,0-.27c-.07-.13-.15-.26-.23-.38-.33-1-.66-2-1-3-.53-1.45-1.33-2.74-1.8-4.21s-.74-2.87-1.31-4.25a11.73,11.73,0,0,0-2.46-3.43,10.36,10.36,0,0,1-.72-.89.2.2,0,0,0,.05-.17,13.25,13.25,0,0,1-.21-2.59,5.58,5.58,0,0,0-.6-1.85,23.15,23.15,0,0,1-1.31-4.32c-.64-3.29.64-6.4.69-9.66a.1.1,0,0,0-.19,0c-.09,3.2-1.4,6.16-.91,9.4a19.67,19.67,0,0,0,1.17,4.33A6.63,6.63,0,0,1,95,98.6a10.71,10.71,0,0,0,.11,1.7c-.53-.81-1-1.64-1.59-2.41-1-1.27-2-2.44-3-3.67-1.21-1.53-2.29-3.15-3.35-4.78-.47-.74-.81-1.55-1.29-2.29s-1-1.46-1.44-2.26a22.78,22.78,0,0,1-2.31-8.65.22.22,0,0,0,.24-.16,9.29,9.29,0,0,1,.72-1.26,6.84,6.84,0,0,1,1.49-2.08c1.22-1.13,2.41-2.3,3.64-3.43a15.6,15.6,0,0,0,3-3.39,12.34,12.34,0,0,0,.89-2.12c.31-.89.2-1.78.44-2.7,0-.15-.19-.22-.24-.06-.21.75-.1,1.6-.35,2.33a13.47,13.47,0,0,1-1.2,2.72,18.26,18.26,0,0,1-3.71,3.74c-1.93,1.73-4,3.35-5,5.75C82,74.74,82,73.9,82,73.07c0-3.81.42-7.61.67-11.4.14-2.12.12-4.25.11-6.37,0-.95,0-1.9,0-2.85A8.59,8.59,0,0,1,83,49.33c0-.08-.1-.12-.13,0-.49,1.19-.25,2.73-.26,4,0,1.8,0,3.61,0,5.41,0,2.55-.27,5.1-.47,7.65a17,17,0,0,0-1.16-2.86c-.61-.95-1.3-1.88-1.9-2.84a16.19,16.19,0,0,1-1.28-3.53c-.41-1.23-1-2.39-1.35-3.63,0-.1-.19-.06-.16,0,.37,1.24.84,2.44,1.25,3.66a24.7,24.7,0,0,0,1.1,3.38c.49,1,1.28,1.87,1.85,2.84s.9,2.27,1.43,3.39a.16.16,0,0,0,.18.1c0,.62-.1,1.24-.14,1.86a46.34,46.34,0,0,0,.2,9.42,18.88,18.88,0,0,0,3,8.31c.88,1.19,1.45,2.56,2.26,3.79.92,1.43,1.9,2.83,2.94,4.18s2,2.4,2.94,3.64,1.6,2.63,2.61,3.81a14,14,0,0,1,2.86,4.2c.55,1.49.82,3.07,1.38,4.57.49,1.34,1.21,2.58,1.71,3.94.15.41.28.84.41,1.28l-.1-.1a4.93,4.93,0,0,1-1.35-2.16,11.09,11.09,0,0,0-1.94-3.32c-1.91-2.45-4.54-4-6.91-6-2.57-2.13-4.69-4.72-7.09-7-1.12-1.08-2.46-1.92-3.61-3-.48-.43-.92-.91-1.38-1.39A2.14,2.14,0,0,0,80,91.48c-.05-.93-.05-1.87-.06-2.8,0-2.43-.65-4.83-.71-7.26a.1.1,0,1,0-.19,0,55.88,55.88,0,0,0,.57,6.18,25,25,0,0,1,0,2.87,4.75,4.75,0,0,1-.13,2.16,10.18,10.18,0,0,0-1.7-1.46c-.37-.24-.75-.46-1.14-.68a.18.18,0,0,0-.31-.16l-.49-.25A10.45,10.45,0,0,1,74,88.71c-.61-.48-1.24-.92-1.86-1.37a.21.21,0,0,0,.09-.38c-.52-.38-.25-.84-.39-1.31a6.55,6.55,0,0,0-.42-1c-.5-1-1.1-2-1.59-3-1-2-1.29-4.33-2.18-6.42a22.28,22.28,0,0,1-1.75-6.87,25.94,25.94,0,0,1,.37-7.09c0-.1-.13-.14-.15,0A23.37,23.37,0,0,0,67,74.62a36,36,0,0,1,1.35,3.77,23.49,23.49,0,0,0,1.09,3.39c.53,1.15,1.19,2.23,1.74,3.36.34.69.12,1.41.55,1.94-.53-.39-1-.79-1.55-1.23-1.12-1-2.17-2.07-3.3-3S64.43,80.93,63.2,80s-2.43-2.23-3.7-3.29a33.84,33.84,0,0,1-3.37-2.55,16.82,16.82,0,0,1-2.37-3.87c-.72-1.42-1.86-2.56-2.27-4.14s-.31-3.47-.59-5.19a.21.21,0,0,0,.17-.19,5.61,5.61,0,0,1,1.69-3.1,22,22,0,0,0,1.56-2.25A52.64,52.64,0,0,1,58.55,50a24.88,24.88,0,0,0,1.89-2.1,23,23,0,0,0,1.65-3,13.18,13.18,0,0,0,.7-5.65.06.06,0,1,0-.12,0c0,1,0,2-.11,3.06a9,9,0,0,1-1.18,3.51c-1.08,2-2.82,3.62-4.27,5.4s-2.59,3.25-3.77,5c-.86,1.31-2.23,2.43-2.6,4a.53.53,0,0,0,0-.12c-.56-2.16-1.08-4.3-1.75-6.43a20.43,20.43,0,0,1-.71-6.18c0-2.23,0-4.47.18-6.7,0-.09-.13-.09-.14,0a67,67,0,0,0-.23,9.5,16.93,16.93,0,0,0,.86,4.22c.52,1.62.8,3.27,1.25,4.9a28,28,0,0,1,.79,5,8.39,8.39,0,0,0,1,3.68c.75,1.3,1.55,2.55,2.28,3.87.27.48.55,1,.85,1.42-1.55,0-3.09-.24-4.64-.34-1.77-.11-3.54,0-5.31-.09A5.81,5.81,0,0,1,42.46,72c-.61-.37-1-1-1.62-1.38A5.34,5.34,0,0,0,39,69.81a4,4,0,0,1-2.84-2.48c0-.08-.15,0-.12,0A4,4,0,0,0,39,70c1.84.49,2.78,2.18,4.54,2.81s3.84.36,5.7.42c2,0,4,.41,6,.42h.05A7.55,7.55,0,0,0,56.47,75c1,.89,2.27,1.54,3.3,2.46.57.51,1,1.1,1.63,1.61s1.47,1.17,2.21,1.75c.31.25.63.48.94.72a10.69,10.69,0,0,0-2.28.75c-.56.24-1.09.53-1.66.74a8.07,8.07,0,0,1-2.35.25,19.85,19.85,0,0,1-4.07.17,26.44,26.44,0,0,0-3.85-.55.08.08,0,0,0,0,.15,27.56,27.56,0,0,1,4.14.71,17.76,17.76,0,0,0,3.78-.15,8.34,8.34,0,0,0,3-.47A12.86,12.86,0,0,1,65,81.83c.76.56,1.51,1.12,2.21,1.75,1.21,1.09,2.34,2.26,3.56,3.33s2.36,1.65,3.47,2.56a12.75,12.75,0,0,0,1.84,1.22c-.85.79-2.4.69-3.46.7-1.59,0-3.08-.35-4.66-.38-.11,0-.11.16,0,.17a10.26,10.26,0,0,1,1.83.21,6.43,6.43,0,0,0,1,.25l2.86,0a3.79,3.79,0,0,0,2.72-.8c.5.28,1,.57,1.49.89a11.8,11.8,0,0,1,1.83,1.84c.53.54,1.13,1,1.7,1.53,1.29,1.11,2.64,2.11,3.9,3.26,1.69,1.54,3,3.4,4.71,4.95a51.19,51.19,0,0,0,5.22,4.19,15.83,15.83,0,0,1,4.3,4.77,27.87,27.87,0,0,1,1.22,2.8c.39.81,1.27,1.31,1.79,2.07a10.41,10.41,0,0,0,.54,1.32c.36.73.94,1.29,1.33,2a21.21,21.21,0,0,1,1,2.87c.14.39.29.78.44,1.17-.29-.22-.58-.42-.8-.62-1.14-1.07-2.05-2.34-3.1-3.52a12.4,12.4,0,0,0-3.62-2.48c-1.42-.78-2.84-1.57-4.31-2.26a27.57,27.57,0,0,1-3.63-2.32c-1.25-.85-2.61-1.54-3.93-2.28a12.07,12.07,0,0,1-.65-3.61A11.1,11.1,0,0,0,84.53,104c-.54-1-1.35-1.89-2-2.86a16.78,16.78,0,0,0-2.32-3c-.11-.12-.29.06-.18.17a19.32,19.32,0,0,1,2.46,3.29,16,16,0,0,1,2,3.16,10.84,10.84,0,0,0,.57,1.36,6.75,6.75,0,0,1,.47,2.18,17.48,17.48,0,0,0,.37,2.44c-2.59-1.48-5.39-3.12-8.33-3.77-.79-.17-1.55-.46-2.33-.69s-1.6-.35-2.38-.59c-1.59-.48-3.31-.44-4.93-.85-1.37-.34-2.68-.9-4-1.29a.15.15,0,0,0,0-.19c-.39-.36-.21-1.26-.18-1.74s0-1.23,0-1.85a14.7,14.7,0,0,0-.45-4.07c-.38-1.35-1-2.62-1.34-4A7.74,7.74,0,0,0,61,88.9c-.07-.1-.25,0-.17.14.73,1,.76,2.57,1.13,3.71a42.6,42.6,0,0,1,1.29,4.16,19.6,19.6,0,0,1,.13,4.53c0,.56-.23,1.48.13,2-1.43-.37-2.9-.61-4.29-1.12A26.61,26.61,0,0,1,55,100.07c-1.46-.88-3.05-1.57-4.58-2.33a37.06,37.06,0,0,1-7.5-5.43,19.1,19.1,0,0,1-3.84-4.09,22.37,22.37,0,0,1-2.5-5.74.12.12,0,0,0-.22.07,19.61,19.61,0,0,0,3.68,7.51,27.23,27.23,0,0,0,2.88,2.7c1.08.95,2.12,1.93,3.26,2.81a22.09,22.09,0,0,0,3.1,2,49.31,49.31,0,0,0-5,1.8,9.14,9.14,0,0,1-5.91.18,10.71,10.71,0,0,1-4.6-3.5c-.69-.77-1.69-2.19-2.8-2.34-.09,0-.12.11,0,.12.75.13,1.3.87,1.79,1.4s1.21,1.36,1.82,2a9.41,9.41,0,0,0,4.05,2.69c3.92,1.25,7.22-1.18,10.88-2.06a.18.18,0,0,0,.14-.16c1.61.85,3.26,1.61,4.85,2.53,1.27.75,2.49,1.56,3.83,2.19a18.55,18.55,0,0,0,4.27,1.19A30.49,30.49,0,0,1,66.82,105a22.47,22.47,0,0,0,4.74.93A31.45,31.45,0,0,1,78,107.56a2.26,2.26,0,0,0-.7.57c-.75.84-1.64,1.49-2.45,2.26a21.82,21.82,0,0,1-2.63,2c-.37.26-1.55,1.06-2,.89-.09,0-.15.11-.06.15.39.17.86-.16,1.21-.31a12.45,12.45,0,0,0,2.2-1.32c.83-.56,1.57-1.22,2.36-1.84s1.62-2,2.63-2.15c.91.34,1.8.69,2.67,1.06a44.16,44.16,0,0,1,4.32,2.24c1.46.82,3,1.59,4.36,2.49,1.21.78,2.35,1.67,3.61,2.36.64.35,1.32.6,2,1s1.49.91,2.3,1.26a22.17,22.17,0,0,1,2.78,1.55,12,12,0,0,1,2.39,2.58,14.49,14.49,0,0,0,1.82,2,8.4,8.4,0,0,1,1.53,1.32c.34.9.69,1.8,1,2.7a18.27,18.27,0,0,0,2.42,4.31,9.6,9.6,0,0,0,3.9,2.89,4.64,4.64,0,0,1,1.89,2.12c.17.32.38.62.55.94a8.89,8.89,0,0,0,.55,1.26,32.72,32.72,0,0,0,3.16,3.07,6.15,6.15,0,0,1,1.75,3.29c-.2,1.75-.46,3.63-.53,4.55l-.13.23-.47-.18c-1.58-1.4-2.29-4.32-2.68-6.08-.25-1.09-1-1.4-1.93-1.89a5.31,5.31,0,0,1-1.66-1.43,4.12,4.12,0,0,0-.92-1c-1.19-.73-2.85-.52-3.63-1.85-.28-.49-.46-1-.73-1.53a3.81,3.81,0,0,0-1.29-1.2c-1-.7-2.34-.9-3.26-1.73a3.55,3.55,0,0,1-1-1.75,3.2,3.2,0,0,0-.47-1.38c-.29-.34-.39-.62-.79-.82a3.54,3.54,0,0,1-1.38-1c-.66-1,0-2.27-.55-3.26-.33-.65-1-1.28-1.77-1-1.41.56-1.89-.8-2.26-1.89-.18-.51-.39-1.27-1-1.43-.85-.23-1.31.26-1.94.75s-1.3.63-1.43-.18c0-.17-.09-.45-.27-.54-.92-.47-2-.48-2.89-1-.26-.15-.84-.72-1.16-.68a7.56,7.56,0,0,0-1.22.32c-1.31.41-3.07-.36-4.37-.6a17.21,17.21,0,0,0-3.52-.12c0-.19-.29-.31-.4-.11,0,0-.11,0-.25.11a29.68,29.68,0,0,0-4.32.18,15.8,15.8,0,0,0-7.53,2.74,10.3,10.3,0,0,1-2.24,1.6c-.33.13-.85-.06-1.15.16a7.38,7.38,0,0,1-1.58.45,3.72,3.72,0,0,1-2.54.3c-2-.58-2.85-2.88-5.12-3-3-.21-4.34-3.64-7.13-4.43a11.28,11.28,0,0,1-3.58-1.19A25.31,25.31,0,0,1,40,113.84a3.68,3.68,0,0,0-2.27-1.14c-1.5,0-3.73-.09-4.57-1.58a5.89,5.89,0,0,0-2-2.1c-.24-.16-.67,0-.93,0a2.32,2.32,0,0,1-1.56-.06c-.29-.14-.53-.35-.82-.49-1.08-.54-2.07.82-3.12-.19a9.52,9.52,0,0,1-1.07-1.72c-.38-.61-.7-1.25-1.11-1.84a5.08,5.08,0,0,0-2.25-1.8c-1.25-.47-2.56.23-3.42-1.16a3.15,3.15,0,0,1-.3-2.11c0-.29.23-.91.09-1.17a6.61,6.61,0,0,0-.88-1.28,6.39,6.39,0,0,1-1.1-2.27A9.28,9.28,0,0,0,12.84,91.89Zm108.59,59.39-.1-.07s0,0,0-.05,0-.26,0-.45.15-.29.22-.44A5.46,5.46,0,0,1,121.43,151.28Zm.11,1s0,0,0,0h0Zm-.11-2.51c0-.44.1-1,.16-1.5,0,.35,0,.75,0,1.16C121.54,149.51,121.49,149.63,121.43,149.74Zm-.15,2-.06.14-.3-.31.32.13Zm-15.37-9.29a10.27,10.27,0,0,1-2.22.07c-1.45,0-2.7-.61-4.11-.75s-2.64-.6-4-.78a40.19,40.19,0,0,0-5-.05,16.38,16.38,0,0,0-3.93.58c-.68.16-1.38.15-2.06.32s-1.53.41-2.31.56a17.4,17.4,0,0,0-2.05.26c-.5.16-1,.28-1.54.42a15,15,0,0,0-3.12,1.63,4.66,4.66,0,0,1-2,.63,1.39,1.39,0,0,0-.86.26,15.09,15.09,0,0,1-1.87,1.18,11.81,11.81,0,0,0-1.41,1.15,14.12,14.12,0,0,0-2.34,2.54,6.64,6.64,0,0,0-.71,1.28,6.38,6.38,0,0,1-1.35,2.08,5.74,5.74,0,0,1-3.64,1.85,11,11,0,0,0-4,.83,8.49,8.49,0,0,1-3.69,1.28,36.32,36.32,0,0,1-4.4-.59,14.71,14.71,0,0,0-1.76.09H45.17c-1.43,0-2.22-.93-3.5-1.28s-2.63.1-3.87.09a4.21,4.21,0,0,1-1.79-.32c-.54-.25-.91-.73-1.43-1s-.89-.58-1.35-.85-1-.31-1.44-.56a12.12,12.12,0,0,0-1.39-.71,2.6,2.6,0,0,0-1.21-.06c-.85.06-1.28-1.25-1.44-1.9a6.25,6.25,0,0,1,.06-2.4c.08-.53.2-1.05.27-1.58,0-.3.07-.59.09-.89s-.28-.41.22-.42a.09.09,0,0,0,.09-.07,23.77,23.77,0,0,0,2.4-.18c1.4-.2,2.75-1,4.14-1a7.9,7.9,0,0,0,3.43-1.35c1.32-.77,2.41-1.65,4-1.81a5,5,0,0,1,1.7.36,7.67,7.67,0,0,0,1.85.22,18.84,18.84,0,0,0,3.58-.59,10.43,10.43,0,0,1,4.48.3c2.29.49,3.64-1.46,5.61-2.18,1.18-.42,2.45,0,3.67-.2a13.75,13.75,0,0,0,1.74-.42,20.27,20.27,0,0,0-1.81,1.43A20.58,20.58,0,0,1,59,142.55a22.87,22.87,0,0,1-9.72,2.51.12.12,0,0,0,0,.24,22.67,22.67,0,0,0,9.23-2.1,25.48,25.48,0,0,0,4.19-2.39,46.26,46.26,0,0,1,3.86-2.8,8.11,8.11,0,0,1,1.46-.25,9.18,9.18,0,0,0,3.45-.55c1.21-.54,2.33-1.29,3.49-1.93a8.26,8.26,0,0,1,3.86-1.15c1.12,0,2.54.8,3.6.28a6.5,6.5,0,0,1,4.26-.32c.7.18,1.37.44,2.07.63s1.65.23,2.48.38a26.59,26.59,0,0,1,3.64.71,23.78,23.78,0,0,1,3.8,2.21,20.93,20.93,0,0,1,3.89,2.25,11.94,11.94,0,0,0,2.93,1.94l.5.22Zm12.55,6.67a18.8,18.8,0,0,0-1.67-1.67c-2.12-1.87-4.91-2.6-7.32-4a14.81,14.81,0,0,0-3.26-1.43,10.16,10.16,0,0,1-3.63-2.27,15.93,15.93,0,0,0-3.41-1.93c-1.24-.66-2.35-1.59-3.61-2.18-2.41-1.14-5.3-.86-7.81-1.65a8.32,8.32,0,0,0-3.39-.49c-.56.05-1.11.21-1.66.3a6.53,6.53,0,0,0-.72.32c-.45.18-1.36-.17-1.83-.28-2.36-.54-4.53.53-6.51,1.68a11,11,0,0,1-4,1.79c-.67.09-1.37,0-2,.07a4.38,4.38,0,0,0-.89.17.22.22,0,0,0-.25,0l-.41.24c-.19.07-.39.13-.58.18a11.61,11.61,0,0,1-4.26.52,4.84,4.84,0,0,0-3,.83c-1.09.65-2,1.61-3.36,1.66-1.16.05-2.31-.52-3.47-.58a14.17,14.17,0,0,0-3.59.53,8.11,8.11,0,0,1-4.37-.18c-2.47-.82-4.72,1.65-6.8,2.52a5.32,5.32,0,0,1-1.95.51,5.94,5.94,0,0,0-1.72.5,14.24,14.24,0,0,1-4.49.7,5.48,5.48,0,0,1-2.87-.31c-.57-.3-1.06-.74-1.62-1.06a10.13,10.13,0,0,0-1.74-.72,5.94,5.94,0,0,1-3.28-2,10,10,0,0,0-1.74-2.25,4.81,4.81,0,0,0-2.69-.84,5.79,5.79,0,0,1-2.46-.53c-.69-.36-1.11-1.29-1.56-1.89A2.68,2.68,0,0,0,8.35,134c-1.41-.07-2.53,1.11-3.92.29a8,8,0,0,1-1.13-1c-.35-.32-.79-.51-1.14-.82a9.49,9.49,0,0,0-1-.63c-1-.63-.6-1.39-.44-2.34a26,26,0,0,0,.43-3.17,3.24,3.24,0,0,0-.33-1,3.67,3.67,0,0,1,.49-2.58A18.2,18.2,0,0,0,2.66,120c.3-1-.42-2.25-.9-3.13-.7-1.28-.07-2.43.58-3.54s.3-2,.21-3.12c-.21-2.67,1.77-5.88,4.05-7.17a3.92,3.92,0,0,0,1.7-2c.43-1.14-.06-2.83,1.39-3.37a8.25,8.25,0,0,1,1.12-.24A7,7,0,0,0,12,97a3.4,3.4,0,0,0,1.58-1.91,3.85,3.85,0,0,0,.25-1.3h0a9.38,9.38,0,0,1,.65,1.68A9.46,9.46,0,0,0,15.18,97c.3.61,1.2,1,1.16,1.77,0,1-.34,1.9.13,2.87A2.31,2.31,0,0,0,18.33,103c.52.08,1.05,0,1.58.1a4.17,4.17,0,0,1,2,1.29A19.26,19.26,0,0,1,24.1,108,1.66,1.66,0,0,0,26,109c.8-.13,1.29-.5,2.09,0a2.69,2.69,0,0,0,1.17.49c.76.08,1.36-.35,2.13.1a4.92,4.92,0,0,1,1.46,1.74,4,4,0,0,0,2.9,1.62,11.19,11.19,0,0,0,1.63.13,3.42,3.42,0,0,1,2.16.88c.85.67,1.5,1.57,2.32,2.29a6.08,6.08,0,0,0,2.56,1.25c.6.15,1.21.22,1.8.39a7.17,7.17,0,0,1,2.25,1.47,16.45,16.45,0,0,0,2.89,2.4c1.2.57,2.54.53,3.69,1.22.52.31.75.8,1.16,1.21a6.75,6.75,0,0,0,1.16.7,3.38,3.38,0,0,0,3,.3,24.93,24.93,0,0,1,3-.77c1.31-.27,2.47-1.62,3.51-2.38A13.44,13.44,0,0,1,71,120.43a19.08,19.08,0,0,1,4.82-.62H77a6.2,6.2,0,0,1-1.24.75,7.51,7.51,0,0,0-1,.62,16.29,16.29,0,0,1-1.71.77c-2,.81-4,1.53-5.93,2.45a45.93,45.93,0,0,1-12.25,4.21,10.88,10.88,0,0,1-2,.14c-.84-2.81-3-4.62-5.09-6.46-1.2-1-2.42-2-3.7-3-.69-.51-1.41-1-2.11-1.47s-2-1.2-2.12-2.18c0-.14-.27-.1-.25,0,.11,1,1.15,1.62,1.92,2.19,1.51,1.13,3.06,2.17,4.51,3.38,2.53,2.11,5.29,4.21,6.38,7.45a11.31,11.31,0,0,1-4.17-1c-1.33-.62-2.67-1.23-4-1.86l0,0c-.69-.32-1.37-.65-2-1-2.16-1.09-4.27-2.29-6.43-3.38-1.72-.86-3.79-1.84-4.48-3.79,0-.1-.21-.06-.18,0A6.54,6.54,0,0,0,34.18,121c2.14,1.33,4.48,2.44,6.7,3.64.88.47,1.77.9,2.67,1.33a6.89,6.89,0,0,0-1.23.36,12.59,12.59,0,0,1-2.29.48c-1.73.28-3.38.8-5.14.92a11.26,11.26,0,0,1-5.11-.68,7,7,0,0,1-2-1.24,4.33,4.33,0,0,0-1.39-1.13c-.14-.06-.26.14-.12.21a4.74,4.74,0,0,1,1.51,1.31,8.73,8.73,0,0,0,1.81,1.12,9.61,9.61,0,0,0,4.11.81,17.87,17.87,0,0,0,4.72-.6c1-.22,2-.36,2.94-.5s1.79-.64,2.78-.71h.07c1.17.55,2.34,1.09,3.51,1.66a12,12,0,0,0,6.08,1.24c4.57-.28,9.09-2.29,13.17-4.21,2.29-1.08,4.66-1.87,7-2.89a19.41,19.41,0,0,0,2.87-1.56,2.91,2.91,0,0,1,1-.64.44.44,0,0,0,.15,0H80.6a31.87,31.87,0,0,1,4.11.73,3.62,3.62,0,0,0,1.31,0c.64-.16,1.16-.48,1.79-.08a6.29,6.29,0,0,0,1.37.8,8.16,8.16,0,0,1,1.68.48c.44.29.45.29.55.77,0,.14.14.4.29.44a2.23,2.23,0,0,0,2-.71c.73-.6,1.51-.61,1.92.37.17.41.32.85.46,1.27a2,2,0,0,0,1.31,1.38,1.52,1.52,0,0,0,.84,0c1.13-.66,1.73.78,1.74,1.58s0,2,.55,2.53c.78.79,1.82,1,2.28,2.09.2.51.22,1.08.43,1.59a3.75,3.75,0,0,0,.79,1.11c.69.77,1.93,1,2.8,1.46a4.28,4.28,0,0,1,1.85,1.67,16.43,16.43,0,0,0,.86,1.67c.91,1.29,3,.85,4,2.07a15.69,15.69,0,0,0,1.5,1.55c.87.78,2,.74,2.36,2.09a17,17,0,0,0,2.06,5.45C119.06,149.87,118.74,149.42,118.46,149.1ZM83.61,165.78c.77-.89.54-2.15,1.81-2.62a6.43,6.43,0,0,0,1.22-.7,1.64,1.64,0,0,1,1.13-.33,1.91,1.91,0,0,0,.63,0,3,3,0,0,0,1.67-1.78A3.83,3.83,0,0,1,91.43,159c.57-.43.78-.83,1.63-.72,1.13.15,2-.46,3.07-.53.41,0,1,.2,1.4.22.88.05,1.23.8,1.62,1.45a3.18,3.18,0,0,0,1.56,1.09,3.18,3.18,0,0,1-.8.1c-.67,0-1.27.27-1.93.27a2.12,2.12,0,0,0-1.14.24.82.82,0,0,0-.23.26,1.51,1.51,0,0,1-.86.6c-.26.08-.38.29-.53.52-.39.57-1,.74-1.49,1.14s-.94.93-1.77,1a4.51,4.51,0,0,0-1.42.31c-.65.32-1.25.72-1.92,1s-1.36-.05-2.09,0c-1.23.09-2.53.92-3.71,1.26l-.31.09A14.41,14.41,0,0,0,83.61,165.78Zm5.16,23.15c-1,.81-2.22,2.23-3.61,2-.5-.08-1-.28-1.52-.37a12.37,12.37,0,0,0-1.42-.37c-.68,0-1.61,1.33-2.11,1.69-1.22.86-2.48-.67-3.57-1.1s-2.33.36-3.54-.35c-.83-.49-1.27-1.42-2.1-1.9-.54-.31-1.07-.44-1.44-1a2.23,2.23,0,0,0-.88-.67c-1-.49-2.09-.41-3-1.15a3.24,3.24,0,0,1-.63-1.46,7,7,0,0,1,0-2.14,3.12,3.12,0,0,0-.21-1.24,2.19,2.19,0,0,1,.07-2.25,8.21,8.21,0,0,1,3.44-3.14,4.52,4.52,0,0,0,2-1.56c.32-.49.54-1,.9-1.46s.72-.56,1-.94a4.67,4.67,0,0,0,.61-1.12,1.72,1.72,0,0,1,1.9-1.19,18.25,18.25,0,0,0,2-.08,7.43,7.43,0,0,1,2,.31,2.55,2.55,0,0,0-.41,1.1c0,1.35-2.13,2-3.17,2.28-.32.1-.72.16-.92.45a.15.15,0,0,0,0,.2,2.53,2.53,0,0,0,.94.57,4.17,4.17,0,0,1,1.44,1.2,2,2,0,0,0,1.09.5,15.43,15.43,0,0,1,1.89.74c.9.32.89,1,1.42,1.56a1.19,1.19,0,0,0,.77.34,2.06,2.06,0,0,0,1.18,0c.63-.21.85.27,1.4.38a10,10,0,0,1,1.6.19,2.74,2.74,0,0,0,.64,0c.43,0,.68.32,1,.55a1.46,1.46,0,0,0,.82.29c.08,0,.56-.08.63-.09a1,1,0,0,1,1,.23,1.5,1.5,0,0,0-.87-.17c-.87.19-1.29,1-2.16,1.3-.46.15-1,.09-1.33.54a2.53,2.53,0,0,1-1.5,1.12,2,2,0,0,0-.88.39.5.5,0,0,0-.07.66c.53.64,1.34.79,1.79,1.56a1,1,0,0,0,.94.63c.7,0,1.3-.19,1.88.38a.59.59,0,0,0,.52.13,2.23,2.23,0,0,1,1.81.76,1,1,0,0,0,.39.38l.12.05A8.43,8.43,0,0,0,88.77,188.93Zm35-6a5.84,5.84,0,0,1-2.13.45,3.87,3.87,0,0,0-1.47.31,2.3,2.3,0,0,0-.52.36,4.12,4.12,0,0,1-1.6.75,3.27,3.27,0,0,0-1.15.61c-.47.43-1,.89-1.43,1.33a6,6,0,0,0-.83,1.46,2.65,2.65,0,0,1-2.22,1.25,4.93,4.93,0,0,0-1.44.5c-.48.24-2.1,1.67-2.61.93-.09-.14-.38-.36-.57-.29s-.4.15-.69.27-1-.3-1.41-.45c-1.21-.48-2.47-.55-3.71-.94a10.54,10.54,0,0,0-1.81-.49c-.71-.09-2.19.24-2.58-.6h0c1-.61-.24-2.31,1.33-2.52.22,0,.13-.38-.1-.35s-.72,0-.92.35a2.89,2.89,0,0,0-.23,1.16c0,.26,0,.77-.26,1a.1.1,0,0,0-.14.06.66.66,0,0,1-.35,0c-.13,0-.3.07-.42.12a8,8,0,0,0-1.72,1.15c-.85.71-.94-.39-1.63-.43s-1.21.47-1.46-.36a1.66,1.66,0,0,0-.4-.77c0-.13-.08-.28-.24-.22h0c-.28-.17-.6-.19-.75-.56a.72.72,0,0,0-.16-.25,4.12,4.12,0,0,0-1.29-.48,6.73,6.73,0,0,1-1.15-.22,1.42,1.42,0,0,0-.43-.29c-.87-.17-1.67.35-2.22-.69a2.63,2.63,0,0,0-1.06-1c-1.16-.68.45-1.06,1-1.32s.77-1.22,1.71-1.28a2.67,2.67,0,0,0,1.35-.65l.34-.4a1.67,1.67,0,0,1,1.58-.31.44.44,0,0,1,.16.06,2.94,2.94,0,0,0,.25.25c.55.5,1.39.17,2-.08a2.72,2.72,0,0,1,2.19-.27c.51.16.9-.13,1.36-.3s.37-.33,1.07-.43a2.62,2.62,0,0,1,1.19.27,3.6,3.6,0,0,0,1.69.17c1.09-.1.77.3,1.41.68a.62.62,0,0,0,.29.09,2.45,2.45,0,0,1,1.16.24,1.69,1.69,0,0,0,.92,0,7.11,7.11,0,0,1,2.11-.06c.47.07,1.32-.15,1.75.1.24.14.5-.09.68-.22.67-.49,1.37-.59,1.88-1.3s.75-.76,1.68-.89a8.66,8.66,0,0,1,2.16.22,7.82,7.82,0,0,1,1.85.52c.56.21.49.67,1,.87a4.31,4.31,0,0,0,2.67.56c.79-.09,1.18.35,1.83.67a1.8,1.8,0,0,0,1.19,0,6,6,0,0,0,.68-.22l.09,0c.22,0,.3,1.07.4,1.26a2.94,2.94,0,0,0,.31.47h0Zm.77-32.76c.52.08,1,.26,1.54.3a17.92,17.92,0,0,0,2.07-.09,8.15,8.15,0,0,1,2.77.43c1.19.39,2.36.73,3.57,1.06a3.38,3.38,0,0,1,1.72,1.26,6,6,0,0,0,1.38,1.13A4.05,4.05,0,0,1,139,156c.33.56.78,1.06,1.13,1.61a7.4,7.4,0,0,0,2.13,2.51,10.2,10.2,0,0,0,1.51.67c.69.3,1,.91,1.52,1.36a2.61,2.61,0,0,0,1.22.41,6,6,0,0,1,2,.8,4.75,4.75,0,0,0,1.53.41,4.44,4.44,0,0,1,1.72,1.05c.51.36,1.1.32,1.61.77.71.62.49,1.48.74,2.28a2.24,2.24,0,0,0,.78.89,10,10,0,0,1,1.41,1.5,3.8,3.8,0,0,1,.59,4.4,11.09,11.09,0,0,1-2.6,2.56c-1,.92-.59,2.5-1.9,3.2-2,1.1-4.84,1.87-6.09,4-.3.52-1,1.5-.47,2.1a1.18,1.18,0,0,0,.54.39c.18.08.27.49.34.65.38.82-1.25,1.15-1.81,1.28a6.17,6.17,0,0,1-2.31-.28,20,20,0,0,0-2.62.4,8.23,8.23,0,0,0-2.31.3,10,10,0,0,1-2.9.08c-1.59,0-2.75-1.21-4.35-.95-.89.14-2,1-2.66,0a4.18,4.18,0,0,0-1-1.16c-1-.71-2.12-1.07-2.16-2.46,0-.68.38-1.18,0-1.79h0a.2.2,0,0,0-.05-.39h-.18l-.07,0a1.37,1.37,0,0,1-.49-.68,6.07,6.07,0,0,1-.14-.82.43.43,0,0,0-.06-.17,2.91,2.91,0,0,1,1.25.4,2.84,2.84,0,0,0,1.73,0c1-.19,1.21.55,2,.77a2.65,2.65,0,0,0,1.64-.17c.73-.25,1.15.36,1.8.43a2.55,2.55,0,0,0,1.68-.49c.63-.39,1.29-.1,2-.19s1-.64,1.39-.91c.74-.49,1.39-.26,2.16-.46s1.37-1.1,2.23-1a1.11,1.11,0,0,0,.92-.27c.76-.6,1.63,0,2.41.07s1-.37,1.74-.56c.35-.1,1.7-.76,2-.64s.39-.21.18-.3-.4-.21-.63-.06a4.85,4.85,0,0,1-1.63.67c-.7.16-1,.71-1.84.5a9.63,9.63,0,0,0-1.5-.27,1.19,1.19,0,0,0-.93.32c-.37.28-.76.14-1.18.21a3.76,3.76,0,0,0-1.35.75c-.61.42-1.51.17-2.21.42a3.62,3.62,0,0,0-1.1.66c-.7.66-1.19.36-2,.39a2.58,2.58,0,0,0-1,.48,1.4,1.4,0,0,1-1.86-.06,1.06,1.06,0,0,0-.58-.26c-.33-.07-.93.29-1.26.39-.8.23-1.32-.33-2-.69a1.35,1.35,0,0,0-.86-.15,7.62,7.62,0,0,1-1.18.17c-.73,0-.78-.36-1.34-.46a2.88,2.88,0,0,0-1.17,0c-.78.18-1.33.57-2.12.07a2.86,2.86,0,0,0-1-.5c-.77-.16-1.42.31-2.2-.08-.26-.12-1.12-.52-1.2-.83s-.34-.36-.53-.41a14.73,14.73,0,0,0-3.28-.82c-.73,0-2.16-.12-2.71.42a.6.6,0,0,0-.12.24,1.8,1.8,0,0,1-.79,1c-.25.18-.5.16-.76.28s-.16.14-.54.41c-.14.11-.94,0-1.11,0-.66,0-1.29-.09-2-.12s-1.48.37-2.14,0-1.11,0-1.52-.51c-.18-.22-.38-.47-.69-.47a6.34,6.34,0,0,1-2.17-.09,3.35,3.35,0,0,0-1.32-.27c-.78.11-1.49.86-2.31.74a3.62,3.62,0,0,0-1.08-.2,5.32,5.32,0,0,0-1.35.49,1.71,1.71,0,0,1-2.21-.5,1.1,1.1,0,0,0-.82-.21,1.66,1.66,0,0,1-1.65-.2,3.44,3.44,0,0,0-.41-.35c-.45-.24-.92-.05-1.41-.22s-1.38,0-1.74-.33c-.17-.15-.38-.35-.63-.31a6,6,0,0,1-1.93.06c-.36-.05-.66-1.09-.94-1.37s-.94-.45-1.35-.69c-.61-.36-1.33-.36-2-.66a6.56,6.56,0,0,1-1.27-1.14,4.87,4.87,0,0,0-1.12-.61c-.33-.16-.37-.07,0-.18s.42-.21.65-.29a11,11,0,0,0,1.66-.69c.5-.25,1.59-.7,1.59-1.41a2.67,2.67,0,0,1,.63-1.73,2.29,2.29,0,0,1,1-1c.38-.15.82-.2,1.21-.32,1.42-.41,2.77-.9,4.16-1.38,1.14-.4,2.24.12,3.36-.43.64-.31,1.23-.73,1.9-1a11.15,11.15,0,0,1,1.65-.29,2.05,2.05,0,0,0,.94-.65c.43-.42,1-.59,1.45-1s.7-.93,1.35-1.09a.78.78,0,0,0,.32-.18,1.92,1.92,0,0,1,1.33-.78c.67,0,1.28-.27,1.93-.28a3.53,3.53,0,0,0,1.23-.2l.17.1c.18.13.34-.12.24-.27a4.65,4.65,0,0,1,2-.63c.47,0,1-.48,1.34-.74s1.09-.37,1.53-.75a5.46,5.46,0,0,0,.62-.65c.16-.18.49-.23.62-.43a6.58,6.58,0,0,0,.71-1.43c.33-.85,1-.82,1.57-1.36.84-.75.92-2.18,2.37-2.21a8.3,8.3,0,0,0,1.93,0,4.91,4.91,0,0,1,2.28-.22.82.82,0,0,0,.77-.24,4.79,4.79,0,0,1,1.84-1.22,1.72,1.72,0,0,0,.33.24l.37.15c.38.43.74.8,1.11,1.2a2,2,0,0,1-.24.26c-.23.21.11.55.34.34a2.34,2.34,0,0,0,.22-.23l.18.2a.17.17,0,0,0,.29-.12,5.08,5.08,0,0,1,.63-1.48,2.47,2.47,0,0,0,.17-.93A11,11,0,0,1,124.57,150.21Zm-2.48-1.15c0-.13.1-.25.15-.39a5.93,5.93,0,0,1-.32,2.78l-.11.21,0,0a7.35,7.35,0,0,0,.2-1.06C122,150.08,122.07,149.57,122.09,149.06Zm0-2.5,0-.07,0-.19a13.88,13.88,0,0,1,.11,1.61l-.13.31c0-.5,0-1,0-1.49C122.08,146.68,122.07,146.62,122.07,146.56Zm81.31-67.3a12.23,12.23,0,0,1-.9,2.15,8.59,8.59,0,0,0-.24,2.73,5.5,5.5,0,0,1-1.68,3.73c-1,.89-2.57,1.19-3.76,1.63s-2.55,1.13-3.81,1.74c-1,.47-2.07.29-3.06.74a3.89,3.89,0,0,0-2,2.09A5,5,0,0,0,188,97a4.53,4.53,0,0,1,.17,2.31,11.76,11.76,0,0,1-.83,1.85c-1.26,2.75-4.16,3.75-6.8,4.74-2.37.89-5,.16-7.4,1a7.6,7.6,0,0,0-2.51,1.65,10.09,10.09,0,0,0-1.88,2.95c-.52,1-.42,2.31-1.23,3.11s-2.33.84-3.34,1.37c-1.34.7-2.27,1.52-3.86,1.68a18.41,18.41,0,0,0-3.56.3,12.57,12.57,0,0,0-2.5,1.35,4.27,4.27,0,0,1-2,.56,11.51,11.51,0,0,1-1.59-.39,3.51,3.51,0,0,0-2.46.85,5.06,5.06,0,0,1-2.21.82l-2.57.64a8.35,8.35,0,0,0-3,1.61,14.85,14.85,0,0,1-3.59,2.33,12.21,12.21,0,0,0-3.1,1.28,8.73,8.73,0,0,0-1.9,2.12c-1.5,2.08-3.48,3.78-4.84,5.95a29,29,0,0,0-3.37,7.64c-.35,1.24-.68,2.48-1,3.74a3.47,3.47,0,0,1-.13.48c0-.34,0-.68-.1-1a5.79,5.79,0,0,0-.2-.82c.22-2.81-.3-5.7.35-8.48.36-1.5.91-3,1.28-4.47a16.35,16.35,0,0,1,1.58-4.9c1.84-2.91,4.41-5.29,6.83-7.71,1.27-1.27,2.51-2.58,3.78-3.85a.24.24,0,0,0,.33,0c.31-.32,1.22-.22,1.64-.27a11.51,11.51,0,0,0,1.29-.2,34.44,34.44,0,0,0,4.32-1.38,83.78,83.78,0,0,0,7.84-3.57,59.27,59.27,0,0,1,8.09-3.65c2.81-.9,5.73-.55,8.6-.94.17,0,.17-.28,0-.26-1.33.16-2.66.1-4,.13a22.57,22.57,0,0,0-4.33.6c-2.76.62-5.33,2.15-7.86,3.37-2.93,1.41-5.81,2.86-8.86,4a21.86,21.86,0,0,1-4.82,1.35c-.42.06-1,0-1.52.11.88-.87,1.78-1.7,2.72-2.49a88,88,0,0,1,17.08-10.66l1.14-.6a.21.21,0,0,0,.36,0l.06-.19c2.37-1.32,4.62-2.81,6.92-4.24l2.06-1.29a7.55,7.55,0,0,1,2.22.32c1,.24,1.94.34,2.9.64,1.95.62,3.67,1.85,5.56,2.63.12,0,.21-.17.09-.22-1.9-.83-3.6-2-5.56-2.76a29.18,29.18,0,0,0-3.2-.76A8.31,8.31,0,0,0,167.8,95a16.6,16.6,0,0,0,4.17-3.7,30.4,30.4,0,0,0,2-3.06.19.19,0,0,0,.14-.26,39.58,39.58,0,0,0,2.63-5.78c.43-.25.86,0,1.33-.1a7.64,7.64,0,0,0,1.53-.51c1.22-.54,2.3-1.41,3.49-2a9.33,9.33,0,0,0,4.57-4.49c.08-.17-.17-.32-.25-.14-1.08,2.41-3.25,3.58-5.46,4.8a18.53,18.53,0,0,1-3.62,1.87,9.89,9.89,0,0,1-1.41.09c.6-1.71,1.12-3.46,1.58-5.21a.06.06,0,0,0-.11,0c-.49,1.81-1,3.56-1.66,5.28a1.07,1.07,0,0,0-.49.3.22.22,0,0,0,.24.35,35.25,35.25,0,0,1-1.83,4L174,87.78a16.45,16.45,0,0,1-2.29-3,11.31,11.31,0,0,1-.83-5,18.29,18.29,0,0,1,.64-4.48c.33-1.26.49-2.91,1.23-4,.09-.13-.12-.25-.21-.12a11.83,11.83,0,0,0-1.21,3.67,21.64,21.64,0,0,0-.83,4.93,12.49,12.49,0,0,0,.55,4.51,8.13,8.13,0,0,0,1,2c.49.71,1.18,1.22,1.69,1.9a27.33,27.33,0,0,1-1.48,2.41,15.82,15.82,0,0,1-4.07,3.84c-.29.21-.58.4-.87.6a1.86,1.86,0,0,0-.33,0,.19.19,0,0,0-.12.26c-2.24,1.51-4.56,2.93-6.87,4.29-.57.33-1.15.65-1.73,1a5,5,0,0,1,.2-1.13,7.14,7.14,0,0,0,.55-2.57,15.26,15.26,0,0,0-.8-5.28c0-.12-.09-.24-.13-.35a12.13,12.13,0,0,0,1.79-3.35,17,17,0,0,0,.84-4.81c0-.16-.23-.16-.25,0a15.66,15.66,0,0,1-.77,4.36,15.37,15.37,0,0,1-1.79,3.35c-1.38-3.32-3.75-6.16-5.12-9.5-.06-.13-.27-.07-.22.06,1.28,3.22,3.39,6,4.84,9.16.09.2.17.4.25.6l-.28.34a.19.19,0,0,0,.28.27l.17-.19a13.49,13.49,0,0,1,.82,4.64A7.41,7.41,0,0,1,158.2,99a11.14,11.14,0,0,0-.44,1.17c-.08.28.06.39.05.63-2.2,1.17-4.45,2.23-6.64,3.42a68.14,68.14,0,0,0-9.18,5.93,22.08,22.08,0,0,1,.72-6.8c.43-2.31,1.37-4.58,1.42-6.94a.12.12,0,0,0-.24,0,16.81,16.81,0,0,1-.88,4.2c-.37,1.23-.6,2.51-.85,3.77a16.57,16.57,0,0,0-.54,6v0a64.45,64.45,0,0,0-6,5.23c-2.45,2.45-5,4.84-7.32,7.37a39,39,0,0,0-2.73,3.4,11.05,11.05,0,0,0-1.68,4.07c-.34,1.25-.61,2.52-1,3.78a30.13,30.13,0,0,0-1,3.73,22.33,22.33,0,0,0-.13,3.66,7.79,7.79,0,0,1-.45-2.07c0-.82,0-1.65,0-2.47a31.15,31.15,0,0,1,.1-4.1,4.26,4.26,0,0,0-.34-1.72,1.56,1.56,0,0,1,.18-1.37.25.25,0,0,0,.34-.23v-.3a4.21,4.21,0,0,0,.33-.55,8.74,8.74,0,0,0,.32-1.49,5.62,5.62,0,0,1,1.11-2.24c.69-.81,2-1.39,2.26-2.49a8,8,0,0,0,.35-1.52c0-.64.32-1.22.38-1.84a8.82,8.82,0,0,1,1.32-4.6,6.33,6.33,0,0,0,.83-3,7.56,7.56,0,0,1,.59-1.65c.25-.72.08-1.53.33-2.28a19,19,0,0,1,1-1.69,4.53,4.53,0,0,1,1-1.4c1-1,2.2-1.89,3.32-2.83s2.23-1.75,3.27-2.68a1,1,0,0,0,.29-.66,3,3,0,0,1,.7-1.88c.34-.45.25-1.16.67-1.52a1.76,1.76,0,0,0,.43-1c.17-.65.71-.82,1-1.34.18-.29.46-.55.64-.86s-.09-.84-.19-1.12c-.26-.69-.28-1.45-.58-2.15s-.63-1.39-.91-2.1a8.44,8.44,0,0,1-.62-1.79.16.16,0,0,0,.22-.16,11.6,11.6,0,0,0-.32-1.76,6.71,6.71,0,0,1,.29-2.63c.1-.58.26-1.13.32-1.72a18.51,18.51,0,0,0-.06-2.23,2.84,2.84,0,0,1,1-2.36,10.75,10.75,0,0,1,1.44-.72,3.22,3.22,0,0,0,1-.77c.41-.57,1.36-.37,2-.37,1.34,0,2.67-.17,4-.17.71,0,1.39.2,2.09.16a6,6,0,0,0,1.74-.54,9.67,9.67,0,0,1,2.21-.32c.72-.09,1.42-.24,2.15-.3a11.83,11.83,0,0,0,3.87-1.35c1.61-.77,3.79-1.35,4.51-3.17s-.91-4.12-1.37-6c-.14-.56-.09-1.17-.18-1.74s-.27-1.11-.37-1.67c-.27-1.42,1.25-2.53,2.14-3.52a2.23,2.23,0,0,0,1.95.94,6.65,6.65,0,0,0,1.38-.35,6.46,6.46,0,0,1,2.9-.15,12.66,12.66,0,0,1,1.77.68,5.65,5.65,0,0,0,1.83.19c1.32,0,2.07-.78,3.15-1.4A3.46,3.46,0,0,1,181.4,53c.55.11.91.66,1.23,1.07a5,5,0,0,0,2.37,1.7c2.4.81.37,3.92,2.31,5.06a2.75,2.75,0,0,1,1.29,1.64c.16.39.36.76.54,1.14a12.44,12.44,0,0,0,1.49,2.54,5,5,0,0,0,2.21,1.53c1.32.49,2.68.1,3.87,1.07.87.72,1.22,2,1.88,3a7.56,7.56,0,0,0,2.7,2,4,4,0,0,1,2,3.24A6.69,6.69,0,0,1,203.38,79.26Z"/><path class="cls-2" d="M120.62,169.9a5.44,5.44,0,0,0-.81,0c-.38,0-.43-.83-.89-.83a2.88,2.88,0,0,1-2.44-1.54,10.49,10.49,0,0,0-.59-1.43c-.09-.14-.36-.2-.49-.26a4.24,4.24,0,0,1-1.33-.74c-.41-.37-.65-1-1.22-1.22a3,3,0,0,0-1.65,0,3.82,3.82,0,0,1-2.55-.65c-.34-.15-.57.11-.77.33s-.5.59-.78.87a2.34,2.34,0,0,1-1.44.51,3.45,3.45,0,0,0-1.62.69,6,6,0,0,1-2,1.4,3.83,3.83,0,0,0-1.47,1.27c-.31.37-.59.53-.65,1s.44,1.21.64,1.57a.11.11,0,0,0,.18-.11c-.36-.65-.85-1.48-.21-2.05.32-.28.56-.67.86-1a4.11,4.11,0,0,1,1.51-.78c.64-.27,1-.95,1.6-1.32s1.44-.26,2.14-.58a4.75,4.75,0,0,0,1.48-1.31c.36-.44,1.85.41,2.32.5a8.2,8.2,0,0,0,1.9-.21c.82,0,1.43,1.23,2.06,1.64a3,3,0,0,0,.64.32,1.5,1.5,0,0,1,1,1.17,2.6,2.6,0,0,0,.84,1.28,3.22,3.22,0,0,0,1.42.9c.25.06.69,0,.79.32a.87.87,0,0,0,.29.43c.26.25.79.11,1.1.09-.3,0,1.11.26,1.07.26a4.17,4.17,0,0,0,1.17-.15,2.54,2.54,0,0,0,.71-.37c.37-.2.12-.06.33.06a4.16,4.16,0,0,0,1.89.12.19.19,0,0,0,0-.38c-.38,0-1.53.17-1.72-.21a.2.2,0,0,0-.22-.09,1.4,1.4,0,0,0-.47.17,4.06,4.06,0,0,1-1.69.47C121.32,170.15,120.83,169.92,120.62,169.9Z"/><path class="cls-2" d="M134.18,170.4c0,.09.13.08.14,0,.11-.91.84-1.4,1.4-2a3.93,3.93,0,0,0,.78-1.36c.27-.69.22-1.58.55-2.24s1.7-.74,2.34-1.19c.16-.1.3-.24.45-.35.33-.27.62,0,1,0a21.18,21.18,0,0,1,2.39,0c.54.08,1,.2,1.57.26s1.39-.23,2-.22a.18.18,0,0,0,0-.36,8.11,8.11,0,0,0-1.84.2,9.32,9.32,0,0,1-2.44-.27,19,19,0,0,1-2.39-.1c-.42-.06-1.1.69-1.37.82-.62.31-1.29.31-1.8.82s-.4,1.39-.53,2a5.47,5.47,0,0,1-1.55,2.6A2.29,2.29,0,0,0,134.18,170.4Z"/><path class="cls-2" d="M139.8,176.16c-.52.18-1.17.6-1.66.08-.12-.14-.42-.09-.57-.07a5.07,5.07,0,0,0-1,.1c-.31.09-.55.33-.74-.13,0-.08-.08-.11-.15-.17a.14.14,0,0,0-.17,0c-1,.48-2.28.12-3.27-.13-.53-.14-.66-.51-1-.86s-.8-.47-1.12-.86c-.62-.77.57-1.67,1.23-2,.34-.14.88-.17,1.15-.45.61-.63,1.19-.53,1.47-1.37,0-.1-.11-.13-.15,0-.21.58-2.07,1.4-2.55,1.56a3.42,3.42,0,0,0-1.67,1.19c-.36.56,0,1.09.38,1.48s.9.5,1.05.82a1.5,1.5,0,0,0,.64.63,4.06,4.06,0,0,0,2.24.48c.42,0,.86,0,1.28,0s.28-.18.6.14c.08.08.17.17.28.15.45-.08.89-.18,1.35-.24.84-.12.64.32,1.2.3a5.26,5.26,0,0,0,1.28-.39C140,176.34,139.93,176.11,139.8,176.16Z"/><path class="cls-2" d="M123.41,158.25a4.06,4.06,0,0,1,1-2.68,2.17,2.17,0,0,1,1.17-.85,5.21,5.21,0,0,0,1.11-.23c.66-.31,1,.07,1.7,0s.83.6,1.23.9,1.2,0,1.6.32a16.85,16.85,0,0,0,1.81.88c.28.18.64.2.94.36.83.44.29.57.62.95s1.29.46,1.29.73a.2.2,0,0,0,.39,0c0-.38-.5-.57-.8-.69-.7-.26-.83-1.17-1.57-1.44a10.85,10.85,0,0,1-2.59-1.18c-.18-.13-.64,0-.82,0-.83,0-.83-.42-1.23-.89s-1.12-.16-1.66-.34-1.47.24-2.09.39c-1.56.35-2.25,2.37-2.28,3.78A.11.11,0,0,0,123.41,158.25Z"/><path class="cls-2" d="M157,47.72a10.66,10.66,0,0,1-1.56-4.34c0-.16-.25-.16-.24,0a10,10,0,0,0,1.14,3.9,11.7,11.7,0,0,0,1.07,1.8c.47.63,1.13,1,1.55,1.73.13.21.47,0,.34-.2C158.65,49.53,157.6,48.84,157,47.72Z"/></g></svg>