<svg xmlns="http://www.w3.org/2000/svg" viewBox="0 0 182.9 219.64"><defs><style>.cls-1{fill:#fff;}.cls-2{fill:#272525;}</style></defs><title>life</title><g id="color"><path class="cls-1" d="M83.13,13.35a40.53,40.53,0,0,1,.65,5.6,33.79,33.79,0,0,0,.79,3.45,14.45,14.45,0,0,1,.11,2.79c0,2.22-.4,4.44.32,6.58.63,1.92.82,4,1.47,5.86a14.35,14.35,0,0,1,.93,5.19c0,2-.38,3.85-.43,5.8,0,1.73.58,3.4.74,5.13a1,1,0,0,0,.49-.17c2.11-1.43,4,.54,3.88,2.73-.07,2-2.58,3-.89,5.16.44.55.73,1.29,1.13,1.88.31.44.68.84,1,1.28a17.87,17.87,0,0,0,.81-5.5A10.81,10.81,0,0,0,91.2,51.9c-.71-.86-1.41-1.58-.7-2.69,1.57-2.47,1.69-4.69,0-7.07a15.93,15.93,0,0,1-1.53-2.45,10.22,10.22,0,0,1-.53-2.13c-.46-1.82-.3-4-1.1-5.61-.69-1.43.27-2.53.23-4-.1-4.5,1.79-9.92-.77-14a16.31,16.31,0,0,1-2.1-5.22.32.32,0,0,1-.4-.34A1.18,1.18,0,0,0,84,7.58h0a.24.24,0,0,0-.08-.06.18.18,0,0,1-.07,0c-.06,0-.13,0-.21-.14l-2,1.28A3.8,3.8,0,0,0,82.18,11,9.47,9.47,0,0,1,83.13,13.35Z"/><path class="cls-1" d="M97.29,81.47c.57.69,1,1.44,1.6,2.13a7.47,7.47,0,0,1,1.44,2c.36.86.46,2.31,1,3.15a5.38,5.38,0,0,1,.24-.55c.69-1.31,1.82-2.49,1.83-4.07,0-.48,0-1,.1-1.42a6.29,6.29,0,0,0-2.44-1.1A20.78,20.78,0,0,0,97.29,81.47Z"/><path class="cls-1" d="M100.4,67a7.22,7.22,0,0,0-.64,1.66c-.18.8,0,1.61-.15,2.42A3.31,3.31,0,0,1,99,72.78a10.79,10.79,0,0,1,2.16.89,7.12,7.12,0,0,1,.28-1.26c.19-.77.47-1.56.73-2.31a.48.48,0,0,1,.17-.2,9.69,9.69,0,0,0-1-1.63C101.07,67.92,100.73,67.46,100.4,67Z"/><path class="cls-1" d="M102.66,71.53c-.15.36-.33.7-.46,1.07s-.27.94-.43,1.4a18.56,18.56,0,0,1,1.87,1.32,14.84,14.84,0,0,0-.82-4.37A4.18,4.18,0,0,1,102.66,71.53Z"/><path class="cls-1" d="M90.85,8.84a.17.17,0,0,1,.3-.18c.4.61.33,1.28.79,1.93a7.45,7.45,0,0,1,1,1.67c.12.32.22.66.31,1,.23-1.17.19-2.45.48-3.61s.94-2.83.32-3.78c-1.37-2.08-3.33-1.34-3.9.59.2,1,.49,2,.78,3A2.34,2.34,0,0,0,90.85,8.84Z"/><path class="cls-1" d="M103.61,81.3c0-1.59.11-3.28.07-5a.44.44,0,0,1-.23-.09,11.54,11.54,0,0,0-8.25-3,13.22,13.22,0,0,1-5.52-.61c-.52,1.2-.69,2.47.46,3.43s2.27,1.82,3.47,2.63a26.57,26.57,0,0,1,3,2.11.4.4,0,0,1,.34-.2,13.59,13.59,0,0,1,4.63.31,5.59,5.59,0,0,1,1.95,1.13C103.59,81.82,103.6,81.56,103.61,81.3Z"/><path class="cls-1" d="M87.16,13a8.13,8.13,0,0,1,.93,1.65,14.12,14.12,0,0,1,.84,5.42c-.18,2-.53,4-.56,6a14.32,14.32,0,0,1,0,2.62c-.16.76-.79,2.1-.29,2.83,1,1.38.42,2.75.81,4.29a16.06,16.06,0,0,0,1.73,5c.87,1.4,1.79,2.4,2.06,4.07a6.15,6.15,0,0,1-.85,3.83c-.38.69-1,1.32-.31,2.2.24.3.49.6.74.88a16.67,16.67,0,0,1,1.28,1.75,12.38,12.38,0,0,1,1.3,9.06,14.94,14.94,0,0,1-1.53,4.54,25,25,0,0,1-2,2.13.45.45,0,0,1-.14.11,13,13,0,0,1-1.25,2.78l-.09.17c2.54.74,5.46-.24,8,.2.23,0,.44.09.66.14.88-.69.26-3,.41-3.87a8.33,8.33,0,0,1,1-2.69A3.82,3.82,0,0,1,99.39,63c.4-1,1.34-2.24,2.63-1.77a2.33,2.33,0,0,1,1,.59c.88.71.89-1.57.87-1.86a13.58,13.58,0,0,0-.8-3.7c-1,.4-2,2-2.75,2.67a2.89,2.89,0,0,1-1.76.75c-1.74,0-1.7-1.2-1.69-2.52a24,24,0,0,1,.9-7.41,1.8,1.8,0,0,1,.08-.21.26.26,0,0,1-.12-.19c-.06-.41-.23-.77-.28-1.19,0-.21,0-.41-.06-.62-.5-1.33-1.19-2.6-1.61-4a18.1,18.1,0,0,1-.61-4.46,78.76,78.76,0,0,0-1.42-11A61,61,0,0,1,93,17.55a14.62,14.62,0,0,0-.71-5.1,20.71,20.71,0,0,1-1.19-2.23s0-.05,0-.07a.17.17,0,0,1-.25-.09c-.3-.81-.66-1.73-.94-2.66a.2.2,0,0,1-.26-.18c0-.27,0-.55,0-.82a8.13,8.13,0,0,1-.23-1.51c-.06-1.42-.13-3.49-2.08-3.5-1.33,0-1.86,1.26-2,2.37a14.75,14.75,0,0,0,.45,5.76A11.19,11.19,0,0,0,87.16,13Z"/><path class="cls-1" d="M44.7,21.12c.19,1.77,0,3.57,0,5.35a12.1,12.1,0,0,0,1.52,4.69,19.74,19.74,0,0,1,2.1,8.1c0,.84.09,1.69.1,2.54a4.21,4.21,0,0,0,1.26,3.07,4.57,4.57,0,0,1,1.17,2.39c0,1.91,2.05,3.09,3.19,4.46a17.12,17.12,0,0,1,2.11,3c1.44,2.74,2.22,6,4.41,8.33,1.23,1.3,2.45,3.42,4.42,3.55a20.16,20.16,0,0,1,2.31.19l-.27-.41a64.32,64.32,0,0,1-3-5.82c-.89-2-2.15-3.74-2.93-5.75-.19-.49-.35-1-.49-1.47-.59-.51-1.43-.93-2-1.44a8.89,8.89,0,0,1-2.06-2.39C55.6,47.93,54.37,47,54,45.08a47.92,47.92,0,0,1-.63-6.56,16.39,16.39,0,0,0-2.17-8c-1.17-2-.72-3.62-1-5.78a40.45,40.45,0,0,1-.62-6.66,10.72,10.72,0,0,0-.19-3.75,7.84,7.84,0,0,1-.69-2.49c0-2.11.39-4.19.38-6.29a.17.17,0,0,1,0-.1A3.72,3.72,0,0,0,48.07,3.8c-1.84-.55-3-.08-3.34,1.4q-.15.64-.27,1.29a43.43,43.43,0,0,0-.83,5.33c-.07,1.85-.4,3.64.09,5.47A24.46,24.46,0,0,1,44.7,21.12Z"/><path class="cls-1" d="M41.47,98.4c1.39.36,3.06.78,4,2,.5.7,1.32,1.35,1.73,2.07a4.9,4.9,0,0,0,2.26,2.28c2,.85,4.47,2.09,6.65,2.09.95,0,3.06.58,3.86.08a.38.38,0,0,1,.51.06c1.31-.43,4,.61,4.56,1.39,1.36,1.79-1.16,3.3-2.6,3.73s-2.86,0-4.21.41c-2,.65-2,1.78-.7,3A6.09,6.09,0,0,0,60,117.19c4.31,1.09,5.57-3.77,9.11-4.87a5.2,5.2,0,0,1,3.62-.18,15.54,15.54,0,0,0,3.07,1.14,5.53,5.53,0,0,1,2,.7c.83.56,1.81.93,2.61,1.53.64.47,1.17,1.08,1.84,1.51a13,13,0,0,1,3.21,2.55A14.12,14.12,0,0,0,89.92,123a5.79,5.79,0,0,1,2.2,2.54c.49.88,1.22,1.45,1.65,2.38.35.76.66,1.54,1,2.3a12.13,12.13,0,0,1,.73,2.18c.08-.65.15-1.3.23-2a7.08,7.08,0,0,1,.42-2.26c1.09-2,3.44-2.66,5.4-3.64-.67-1-1.21-2.12-2.4-2.64a11.76,11.76,0,0,1-2.27-1.27A10.42,10.42,0,0,1,93.67,117c-.81-1.65-.9-3.61-1.48-5.33a41.08,41.08,0,0,0-2.89-6A21.84,21.84,0,0,0,88,102.93c-.76-1-1.53-2-2.35-3a6,6,0,0,1-1.76-3.86c0-1.86-.23-3.89.42-5.68.55-1.52,4.2-5.78,1.23-6.38a2.23,2.23,0,0,1-.58.45c-1.13.5-2.46.35-2.59-1.1-.1-1.25.36-2.41-1.44-2.13-.38.06-1.32.18-1.65-.22-.48-.6-.33-1.16-.34-1.92,0-1.56-1.28-2.3-2.33-3.18a.14.14,0,0,1-.11-.06,8.48,8.48,0,0,0-.86-.94,6.58,6.58,0,0,1,0,2.5A4,4,0,0,0,76.18,80c.54,1.27.74,2.84,1.72,3.87.36.38-.21,1-.58.58-1.12-1.17-1.55-3.07-2.22-4.5a3.41,3.41,0,0,1-.32-1.42.39.39,0,0,1-.12-.24c0-.45-1.89-1.25-2.15-1.25a2.2,2.2,0,0,1-1.59-.63c-.91-.85-1.69-2.14-2.81-2.73,0,0-2-.95-1.37,0,.11.14.05.55.05.64,0,1.12-1,1.4-1.91,1.11a11.67,11.67,0,0,1-5-3.48c-1.41-1.43-4.24-1.47-4.79-3.59-.37-1.42.41-2.31-.56-3.78A4.59,4.59,0,0,1,53.78,62c0-1.42.14-2.72-.74-4-.5-.71-.36-1.29-.41-2.13-.1-1.92-1.35-2.51-2.43-3.83-.81-1-1.41-2.53-2.86-2-2,.91-1.85,3.11-1.59,5,.17,1.14.15,2.31.38,3.44a20.23,20.23,0,0,1,.3,2.07.33.33,0,0,1,0,.24c.15,1.63.15,3.3.15,4.91A4.76,4.76,0,0,0,47,68.34,23.12,23.12,0,0,0,48.63,70c.87.93,1.7,1.92,2.62,2.79,1.62,1.52,2,3.14,3,5,1.49,2.84,3.85,3.78,6.89,4.09a13.57,13.57,0,0,0,4.36,0,10.41,10.41,0,0,1,2.29-.29A4.6,4.6,0,0,1,71.9,84c1.21,1.66,3.08,2.76,3.74,4.81a16.51,16.51,0,0,1,1,3.1,6.79,6.79,0,0,1-.28,2.48,5.44,5.44,0,0,1,.43,1.29c0,.24-.31.34-.36.1a6.65,6.65,0,0,0-.23-.76l0,.09c-.32,1.32-.54,3.64.26,4.83s2.25,1.81,3.16,3c.65.82,1.26,1.7,1.83,2.57a8.58,8.58,0,0,0,2.26,2c.5.42.77,1.44.09,1.88a3.53,3.53,0,0,1-3.59-.17,14.69,14.69,0,0,1-2.43-2.49,5.69,5.69,0,0,0-2.92-1.89c-1-.37-1.64-1.17-2.63-1.64a41,41,0,0,0-4.16-1.74,16.73,16.73,0,0,0-3.42-.83,16.64,16.64,0,0,1-2.22-.68.35.35,0,0,1-.11,0,26,26,0,0,1-6.88-.52,6,6,0,0,1-2.22-1.19,14.28,14.28,0,0,0-3.78-2c-1.45-.61-2.19-2.23-3.1-3.43-.51-.68-1.46-1.45-1.6-2.35a12.84,12.84,0,0,1-.1-2.32c0-1.33.68-2.68.84-4,.12-1,.28-1.92.45-2.88a10.45,10.45,0,0,0-.4-5.17c-.34-1-1.09-3-2.16-3.48-3.17-1.42-3.3,4.34-3.73,6.16a4.43,4.43,0,0,1-1.2,1.82,5.08,5.08,0,0,0-1,2.06.25.25,0,0,1,.21.26c0,2.59-1,4.82,0,7.38a12.71,12.71,0,0,0,4.25,5,.43.43,0,1,1-.52.68,25.45,25.45,0,0,1-2.1-1.79.42.42,0,0,1-.4.28c-2.53.11-3.92-1.12-6-2.29-1.37-.76-2.83-.57-4.31-.91s-2.82-.33-4.23-.58a21.5,21.5,0,0,1-4.16-.77c-1.12-.43-2.26-.77-3.39-1.14s-1.85-1.27-2.82-1.8a4.68,4.68,0,0,1-1.85-1.44,20.58,20.58,0,0,1-1.19-3.27c-.54-1.33-1.53-2.54-2.18-3.85a13.45,13.45,0,0,1-1-3.42c-.23-1.09-.38-2.08-.67-3.16-.2-.7.4-1.49.75-2,1-1.52,2.07-2.5,2.2-4.47a3.36,3.36,0,0,0-1-3.11,4,4,0,0,1-.8-.79c-.61-1-1.08-2.06-2.44-2A6.73,6.73,0,0,0,3.6,61.82a18.72,18.72,0,0,0-.82,3.36,25.21,25.21,0,0,1-.86,3.12A12.52,12.52,0,0,0,.78,71.13c-.37,2.68.39,4.72,1.06,7.27a26.31,26.31,0,0,1,.48,3.06c.13.91-.27,2.39.24,3.19,1,1.58,2.3,2.95,3.22,4.61.51.91,1,2.11,2,2.58.82.38,1.14,1.24,2,1.56a3.63,3.63,0,0,1,1.52,1,6.14,6.14,0,0,0,2.91,1.3c1.72.55,3.51.78,5.2,1.4,2,.73,3.52,1.65,5.66,1.89,1.83.2,3.72-.21,5.57-.08a50.39,50.39,0,0,0,5.9-.39C38,98.43,40.08,98.05,41.47,98.4Zm22.3,16.11-.12.12c-.18.18-.46-.1-.28-.29l.12-.11A.2.2,0,0,1,63.77,114.51Zm30.11,7.4c.1.24.21.47.31.7s-.17.34-.27.16l-.37-.67C93.44,121.89,93.78,121.7,93.88,121.91ZM90,118.37a.1.1,0,1,1,0,.21A.1.1,0,0,1,90,118.37Zm-4-5.59a7.27,7.27,0,0,0-.1-1.32c-.06-.26.34-.37.4-.11a5.73,5.73,0,0,1,.13,1.43A.22.22,0,0,1,86,112.78Zm1.81,4.62c.2,0,.2.33,0,.32a2.28,2.28,0,0,1-.88-.25c-.17-.09,0-.35.16-.27A1.65,1.65,0,0,0,87.79,117.4Zm-2.06-13.62c.38.35.79.65,1.16,1a.18.18,0,0,1-.26.26c-.36-.36-.76-.68-1.12-1A.16.16,0,0,1,85.73,103.78Zm-7-3-.57-.56a.2.2,0,0,1,.28-.28l.57.57A.19.19,0,0,1,78.76,100.83ZM82,102.77a2,2,0,0,0-.41-.2c-.23-.1,0-.44.19-.33a1.8,1.8,0,0,1,.5.25C82.42,102.66,82.14,102.94,82,102.77Zm-.21,11a8.49,8.49,0,0,0,1.26.68c.26.12,0,.51-.22.38a7.71,7.71,0,0,1-1.26-.69C81.3,113.94,81.52,113.56,81.74,113.73Zm-14.47-3.42h-.34a.16.16,0,0,1,0-.31h.34a.15.15,0,0,1,.15.16A.15.15,0,0,1,67.27,110.31Zm0-3.33.46,0a.19.19,0,0,1,0,.38l-.46,0A.21.21,0,0,1,67.27,107ZM67,104.55l.1.13a.17.17,0,0,1-.24.24l-.13-.1C66.5,104.66,66.8,104.36,67,104.55Zm-7.26-2.21a11.52,11.52,0,0,1,1.82.45c.24.09.13.46-.1.37a11.55,11.55,0,0,0-1.82-.46C59.35,102.65,59.45,102.29,59.69,102.34Zm-37.36-5c-.86-.31-1.51-1.1-2.47-1.16-.13,0-.13-.21,0-.21,1,0,1.67.77,2.55,1.11C22.57,97.09,22.5,97.35,22.33,97.29ZM29,97.11H28.3a.18.18,0,0,1,0-.35H29A.18.18,0,0,1,29,97.11Z"/><path class="cls-1" d="M32.14,33.92c.12,4,1.41,7.88,1.92,11.81.12,1,.32,2,.44,2.94a13.65,13.65,0,0,0,.33,3.08,9.25,9.25,0,0,0,5,4.5c1,.34,2.39.56,3.13,1.37A21.32,21.32,0,0,0,45.67,60c-.06-.42-.12-.83-.21-1.24a18.9,18.9,0,0,1-.31-2.91c-.06-1.06-.49-2.35-.21-3.39a4.37,4.37,0,0,1,.84-1.63c-.57-.82-1.68-.94-2.48-1.41s-1.35-1-2-1.51a9.17,9.17,0,0,1-3.25-3.12,18.64,18.64,0,0,1-1.52-8.89c.1-4,1.58-7.7,1.28-11.75-.08-1-1.33-6.69-3.08-6.09-2,.68-3.22,3.25-2.93,5.26a33.2,33.2,0,0,1-.07,4.57C31.73,29.87,32.08,31.89,32.14,33.92Z"/><path class="cls-1" d="M90.8,54.61c-1.4-2-2,.43-3.28.09h-.1a.7.7,0,0,1-.25,0c-1,.14-1.23,2.38-1.52,3.09A18.09,18.09,0,0,0,84,61.9c-.18,1.34-.27,3.59,1,4.52a4.67,4.67,0,0,1,3.49-1.37,2.69,2.69,0,0,1,2.56,2.24,4,4,0,0,1,.16.71,8,8,0,0,0,1.69-2.25s0,0,0,0C92,63.87,90,62.46,89.68,60.35S92.21,56.6,90.8,54.61Z"/><path class="cls-1" d="M99.32,58.61a8.33,8.33,0,0,0,2.22-2.13,2.68,2.68,0,0,1,1.32-1c-.64-2-.77-4.15-1.36-6.19-.2-.66-.43-1.32-.69-2-1.86.67-2.28,3-2.5,4.67a37.28,37.28,0,0,0-.5,4.58C97.81,57.07,97.4,59.8,99.32,58.61Z"/><path class="cls-1" d="M76.46,27.62c0,.89,0,1.78-.07,2.68,0,.36,0,4.39,0,5.42,1.13.1,2,1.2,2.51,2.14a9.55,9.55,0,0,1,1.34,5.76,8.62,8.62,0,0,0,1.54-2.72,14.8,14.8,0,0,0-.12-5.51A28,28,0,0,1,81,29.63a38.32,38.32,0,0,0,.17-6.6,9,9,0,0,0-1.06-3.92c-.91-1.25-2.53-1.45-3.26,0-.5,1-.27,1.81-.42,2.86a14.34,14.34,0,0,0-.3,2.84C76.15,25.78,76.46,26.65,76.46,27.62Z"/><path class="cls-1" d="M67.28,33.37a20.91,20.91,0,0,0,1.1,4.32,21.77,21.77,0,0,1,1.35,4.59,25.63,25.63,0,0,1,.65,3.77c0,1.65-.49,3.25-.53,4.89,0,1.09,0,2.15,0,3.23.33.7.72,1.43,1,2.16a12.59,12.59,0,0,0,.8,2c.25.78.87,1,1.88.7.51-2-1.15-3.58-1.77-5.4a6.14,6.14,0,0,1-.56-3.26,13.79,13.79,0,0,0,.56-4c0-2.16-.13-4.58.78-6.61a15.48,15.48,0,0,1,1.2-2.19A27.53,27.53,0,0,0,72.27,34,14.64,14.64,0,0,1,71,32a6.31,6.31,0,0,0-1.44-2.29c-1.46-1.31-3.33-.63-2.75,1.52A17.25,17.25,0,0,1,67.28,33.37Z"/><path class="cls-1" d="M113,50c.67.48,1.23,1.24,2,1.67-.38-2.7-2.09-4.53-3.55-6.85a9,9,0,0,0-2.4-2.79c-.2-.14-.85-.58-1.1-.81.1.18.2.36.29.54a11.84,11.84,0,0,1,.69,2.95l.12.69a2.61,2.61,0,0,1,.16-.61c.08-.18.38-.05.32.14a2.65,2.65,0,0,0,0,1,5.56,5.56,0,0,1,0,.91,11.8,11.8,0,0,1-.07,1.46c.1,1.2.18,2.4.31,3.55a7.71,7.71,0,0,0,.4,1.59,3.83,3.83,0,0,1,.65-3.49A1.9,1.9,0,0,1,113,50Z"/><path class="cls-1" d="M98.64,17.5c0,.92.14,1.81.19,2.72.94-.8,2.41-1.53,3.4-1.18a3,3,0,0,1,1.21.77c0-1-.12-2-.23-3-.2-1.76-1.67-3.25-3.49-2.17-.48.29-1.38.58-1.13,1.4A5.32,5.32,0,0,1,98.64,17.5Z"/><path class="cls-1" d="M140.64,86.26c-.3,1.33-.65,2.62-.89,4a13.35,13.35,0,0,0-.12,1.49,4.06,4.06,0,0,1,1.3-.74c1.29-.41,2.07-1.51,2.94-2.43,2.33-2.47,1.14-6.48-.52-9.12a11.85,11.85,0,0,1-1.28,2.48,5.75,5.75,0,0,0-1.34,3.1A6.62,6.62,0,0,1,140.64,86.26Z"/><path class="cls-1" d="M122.27,106.13c1-.8,1.75-1.69,2.65-2.55a43.25,43.25,0,0,0,3.3-3.19A11.51,11.51,0,0,1,130.81,98l.39-.23c.45-1,1.12-1.88,1.52-3,.6-1.65,1.34-2.86,1.51-4.67.28-2.86,1.19-5.49,1.47-8.34,0-.17,0-.34.06-.51-1.91,2.76-4.1,5.29-5.73,8.25a20,20,0,0,1-3.64,4.5,16.63,16.63,0,0,0-3.57,6.82.15.15,0,0,1-.1.12,10.5,10.5,0,0,1-.38,2.94c-.41,1.24-1.75,1.93-2.22,3.12a.45.45,0,0,1-.17.21q0,.39.06.78A19,19,0,0,1,122.27,106.13Z"/><path class="cls-1" d="M122,99.73c.16-1,.11-1.91.23-2.86a14.41,14.41,0,0,1,.58-1.83,19.51,19.51,0,0,0,.56-3.91,16.79,16.79,0,0,0-2.5,5.05c-.65,2.26-2.26,5.2-1.59,7.57a22.08,22.08,0,0,1,.52,2.21,14.55,14.55,0,0,0,1.46-1.8C122,102.74,121.69,101.25,122,99.73Z"/><path class="cls-1" d="M129.68,39.43c0,1.65.12,3.31.12,5,0,1.85,1.44,3.26,1.41,5,0,2.15-.18,4.35,1.21,6.17A6,6,0,0,1,134,59.12c.15,1.4.82,2.65.88,4.08a.11.11,0,0,1,0,.08,3.57,3.57,0,0,0,.7.88c.43.37-.19,1-.62.62-1-.82-1.27-2.06-2.42-2.84-.84-.56-1.59-1.14-2.38-1.76-1.43-1.13-3.53-.8-4.69-2.16,0,1.18,0,2.35.06,3.51a.42.42,0,0,1,.65.06c.51.7,1.6.86,2.29,1.41s1.4.75,2.05,1.27A4.43,4.43,0,0,1,132,67.8a4.34,4.34,0,0,0,1.11,2.28,23.28,23.28,0,0,0,2,1.33,6.09,6.09,0,0,1,2.12,2.27c.58,1.09.14,3.11,0,4.26-.18,1.52-.56,3-.68,4.51a20.34,20.34,0,0,1-.9,4.44A27.69,27.69,0,0,0,135,91c-.25,1.75-1.21,3-1.65,4.61A4.8,4.8,0,0,1,132.7,97c2-1,4-2,5.42-3.72.14-.18.3-.36.48-.55.22-.88.15-1.79.3-2.7a35.32,35.32,0,0,0,.94-4.41c.11-2.73,1.94-4.42,3.13-6.72l0,0c-1.61-2.27-1.3-5.22-2.33-7.73A9.46,9.46,0,0,1,140,67.9l0,0a15.1,15.1,0,0,1-1.54-4.67,10.47,10.47,0,0,1,0-2.24,27.74,27.74,0,0,0-.67-3.48,19.16,19.16,0,0,0-.71-3.62,7.44,7.44,0,0,1-.52-2,8.44,8.44,0,0,0-1.48-3.55,4.2,4.2,0,0,1-.68-1.47,66.9,66.9,0,0,0-1-7.6c-.39-1.73-1.59-3.38-1.58-5.15,0-1.59.16-3.07-.71-4.5a19.1,19.1,0,0,1-1.32-2.33,15.82,15.82,0,0,0-1.15-2.59,5.62,5.62,0,0,0-1-1.36,1.73,1.73,0,0,0-1,0c-1.44,3.8,1.44,7.16,2.21,10.79A24.06,24.06,0,0,1,129.68,39.43Z"/><path class="cls-1" d="M140.51,29.08c.88,1,1.85,1.77,2.81,2.71a3,3,0,0,0,.77.51c-.31-2.13.13-4.31,0-6.45-.1-1.27-.76-2.78-2.24-2.81a1.67,1.67,0,0,0-1.9,1.79c-.06,1.2.12,2.39.08,3.59C140.16,28.65,140.33,28.87,140.51,29.08Z"/><path class="cls-1" d="M135.74,29.68a13.56,13.56,0,0,1,1.83,4.22c.3.83.87,2,1.87,2.26a12.22,12.22,0,0,1,1.72.37,3.57,3.57,0,0,1,1.56,1c.94,1.18.78,2.54.85,4,.1,2.26,2.21,3.05,2.56,5.11a15.13,15.13,0,0,0,.62,3,6.15,6.15,0,0,1,.62,2.06,34,34,0,0,1-.22,6.21c-.12.94-1.46,2.64-.82,3.61a.39.39,0,0,1-.16.57c.54.79,1.06,1.61,1.59,2.4a6.35,6.35,0,0,1,1.44,3.63,19.63,19.63,0,0,0,.25,4.6,8.55,8.55,0,0,1,.47-1.81c1-2.5.53-4.93.71-7.53.08-1.15.57-2.34.55-3.47,0-1-.39-1.9-.39-2.86,0-2,0-4-.13-6s.76-4.12.78-6.24A7.89,7.89,0,0,0,148.6,38c-1.88-1.77-4.32,1.68-2.77,3.18a7.6,7.6,0,0,1,1.3,1.59,7.24,7.24,0,0,1,.86,4.37.25.25,0,0,1-.49,0,7,7,0,0,0-1.17-4.48c-.58-.79-1.24-1.14-1.6-2.06-.62-1.59.38-2.85,1.67-3.48a3.37,3.37,0,0,1,.7-.26,2.89,2.89,0,0,1-.61-.73c-.64-1.24-.52-2.28-2.11-2.81a8.2,8.2,0,0,1-3.21-2.24,32.48,32.48,0,0,1-2.88-3.83,6.73,6.73,0,0,1-1.22-1.95c-.4-1.31-1.43-.64-2.16-.07-.67.94-1.12,2.36-.25,3C135.13,28.54,135.4,29.24,135.74,29.68Z"/><path class="cls-1" d="M141.45,52.28a19.45,19.45,0,0,1,1.15,2.5A29.58,29.58,0,0,1,144.1,60a3.69,3.69,0,0,1,1.24.87,6,6,0,0,1,.63-2.2c.62-1.31.41-2.76.5-4.15a8.32,8.32,0,0,0-.31-4.12,7.87,7.87,0,0,1-.67-2.48,6.59,6.59,0,0,0-2-3.78c-1-1.21-.64-2.83-.78-4.25a2.62,2.62,0,0,0-1.94-2.5c-.05,1.63-.12,3.23,0,4.87.13,1.8,1.13,3.76.59,5.55A5.56,5.56,0,0,0,141.45,52.28Z"/><path class="cls-1" d="M110.76,63.94c1.46-1.31,2-3.62,2.49-5.74l0,0a3,3,0,0,0-1-1,2.53,2.53,0,0,1-.84-.88c-.13-.19-.28-.38-.42-.57A2.25,2.25,0,0,1,111,56a11.39,11.39,0,0,1,.59,3.17,9.12,9.12,0,0,1,0,3.17C111.43,62.77,111,63.38,110.76,63.94Z"/><path class="cls-1" d="M113.48,57.11c.08-.4.17-.79.26-1.15a25.66,25.66,0,0,1,1.34-3.26.86.86,0,0,0,0-.16,4,4,0,0,1-.85-.43c-.71-.48-1.18-1.55-2.08-1.71-2.07-.39-1.32,2.89-1.11,4.45a12,12,0,0,1,1,1.29c.24.4.91.58,1.28.86Z"/><path class="cls-1" d="M63.34,198.74a.37.37,0,0,1-.06-.36,16.85,16.85,0,0,0-4-1.55c-1.56-.34-4.62-1.19-5.74.17a7.15,7.15,0,0,0-1.13,2.63,1.5,1.5,0,0,1-.58.84c-.37.36-1.58.84-1.12,1.55a2.76,2.76,0,0,1,.55,1.06c.09,1-.48,3,1.3,3.15.55.05,1.1.13,1.65.17,1.38.11,2.07-1.16,3.55-.72,2.1.61,3.56-.15,5.26-1.26a3.82,3.82,0,0,0,2-2.59C65.26,200,64.16,199.8,63.34,198.74Z"/><path class="cls-1" d="M112,9.05c.23,1.68.35,3.37.5,5a15.46,15.46,0,0,0,.29,2.64c.18.7.54,1.4.66,2.11.63,3.58.53,7.13,1.37,10.69a40.58,40.58,0,0,1,1,5.56,40,40,0,0,0,.2,4.39.48.48,0,0,1-.07.34,6.28,6.28,0,0,1,1.82,2.26,6.88,6.88,0,0,1,.36-1.24c.85-2.19,0-4.59,1.23-6.73,1.43-2.44.32-5.26,1.08-7.8a3.36,3.36,0,0,1,.17-.47.53.53,0,0,1-.08-.15c-.38-1.59-1.26-2.88-1.36-4.59-.05-.93-.14-1.84-.25-2.77s-.53-1.93-.66-3c-.3-2.43-1.09-4.89-1.61-7.27-.19-.89-.38-1.74-.55-2.64a9.63,9.63,0,0,0-.74-2.56l0,0-.4-.42h0a.09.09,0,0,1-.06-.06c-1.27-1.26-3.29-2.78-3.84-.18a15.84,15.84,0,0,0,.35,4.1C111.59,7.24,111.86,8.13,112,9.05Z"/><path class="cls-1" d="M106.67,34.09a10.36,10.36,0,0,1,.38,3c0,.55,0,1.12,0,1.68.29.36.36.79.65,1.18a10.31,10.31,0,0,0,2.75,2.16A12.21,12.21,0,0,1,112.69,45a17.1,17.1,0,0,1,3,5.69c.18-.85.35-1.72.59-2.56.36-1.31,1-2.59,1.22-3.94,0-.21.07-.42.1-.62a.47.47,0,0,1-.33-.38c-.29-2.45-3.35-3.8-5.26-4.76-.93-.46-2.11-1.06-2-2.29.15-2.43-.64-4.53-1-6.87-.31-1.85-1.29-6.69-4-5.18.25,2.26.26,4.53.6,6.78A24.44,24.44,0,0,0,106.67,34.09Z"/><path class="cls-1" d="M124.47,38.06c-.21.81-.43,1.62-.7,2.42A29.46,29.46,0,0,0,122.55,44c-.35,1.74.15,3.28.15,5,0,1.39,0,2.78,0,4.17,0,2-.14,3.41-1.43,5-2,2.36-.25,5.21-1.22,7.87a7.44,7.44,0,0,1-3.19,4.11c-1.59.93-1.54,1.74-1.73,3.44-.07.58-.21,1.51-.23,2-.06,1.3.09,2.63,0,3.92a10.86,10.86,0,0,1-2.21,5.16,7.43,7.43,0,0,1,2.4,1.66c.38.48.83.86,1.22,1.31.08.08.24.28.36.41a.34.34,0,0,1,.14,0c.28-.58.62-1.15,1-1.76a13.34,13.34,0,0,0,2-6.29c.07-1.71-.21-5.41,1.14-7.12.41-1.31,1.55-1.39,2.71-1a5,5,0,0,0,1.27-1.94c.13-.94,0-1.88.09-2.82.15-1.39-.35-2.57-.34-3.9a86.46,86.46,0,0,0-.24-9.52c-.33-3.39,1.44-6.68,1.15-10-.15-1.82-.8-3.47-1.08-5.24C124.49,38.27,124.48,38.16,124.47,38.06Z"/><path class="cls-1" d="M111.35,37a.1.1,0,0,1,0,.16.83.83,0,0,0,.15.11,28,28,0,0,1,3.07,1.49l.56.41c-.23-1.74,0-3.52-.31-5.26-.45-2.55-1.09-5.06-1.51-7.61a35.45,35.45,0,0,1-.28-4.36.41.41,0,0,1-.12-.11c-1.32,0-1.87.52-1.64,1.61l0,.61c-.07.55-.15.72-.23,1.26a22.49,22.49,0,0,0-.26,3.57c0,1.29.2,2.57.22,3.85S110.34,35.7,111.35,37Z"/><path class="cls-1" d="M157.41,87.33a2.58,2.58,0,0,0,1-.26.42.42,0,0,1,.07-.25c.57-.8,1.36-1.13,1.94-1.88,1.28-1.62,1-3.06.71-4.93,0-.29-.08-.57-.11-.86a7.22,7.22,0,0,1-1.49,3.18,6.81,6.81,0,0,0-1.79,3.44A5,5,0,0,1,157.41,87.33Z"/><path class="cls-1" d="M86,167.67a5.28,5.28,0,0,1-1,.23c-1.19,1.51-1.23,2.31-.13,2.4.79.17,1.17.93,1.88,1.24s2.34,1.63,3.11,1.65c2.37.06,3.41-2.15,4.49-3.86a4.39,4.39,0,0,1,1.2-1.49,4.41,4.41,0,0,0,2.1-1.76c.48-1,.49-2.2,1.43-2.91a.36.36,0,0,1,.25-.08c1-1.12,1.25-3.84-.45-4.26-1.42-.35-3.05-.46-4.13.74s-1.75,2.84-3.07,3.89-2.25,2.35-3.55,3.19A7.85,7.85,0,0,1,86,167.67Z"/><path class="cls-1" d="M111.14,96.44c.62.44,1.38,1.33,2.09,1.48l.11,0a7.87,7.87,0,0,0-.41-3.62,8,8,0,0,0-2.18-3.1c-.11.38-.22.75-.32,1.13a15.29,15.29,0,0,1-1.16,2.42A6.66,6.66,0,0,0,111.14,96.44Z"/><path class="cls-1" d="M181,70.12a8.09,8.09,0,0,0,1.08-3.87c-.09-1-.33-2-.33-3.07,0-1.27-.83-2.59-1.34-3.72s-1.69-2-2.82-.77c-1.52,1.62-1.08,3.61-1.4,5.63-.41,2.58.11,5.31-.15,7.93-.21,2.07-1.06,3.64-1.62,5.6-.47,1.67-.87,4-2.2,5.27a3.2,3.2,0,0,1-1.41.9,4.34,4.34,0,0,0-3.05,2.61.34.34,0,0,1-.47.19.41.41,0,0,1-.48-.42c0-2,.23-4.47-.32-6.41a9.09,9.09,0,0,1-.67-2.45c0-.84.19-1.7.21-2.55a98.66,98.66,0,0,1,.51-10.17,12.85,12.85,0,0,0-.4-5.91,18.78,18.78,0,0,1-.91-5.08c0-1.12.23-2.6-.44-3.58-1.17-1.67-2.93.73-3.29,1.56s-.25,1.61-.5,2.4a9,9,0,0,0-.57,2.61s0,0,0,0c0,2.81-.57,5.56-.1,8.42.52,3.13.81,6.29,1.3,9.43a37,37,0,0,1,.19,3.94c.07,1.25.66,2.62.5,3.86a6,6,0,0,1-.93,2.6c-.57.89-1.55,1.3-2.17,2.17a.44.44,0,0,1-.45.18,3.36,3.36,0,0,1-1.7.55.37.37,0,0,1-.41.05,3.6,3.6,0,0,0-1.56.51c-.44.3-.85-.41-.42-.72a3.4,3.4,0,0,1,1.82-.45c.66-1.37.39-3,1.43-4.31a11.05,11.05,0,0,0,2.92-5.79c-.12-1.75-.18-3.52-.35-5.26-.29-2.86-1-5.7-1.13-8.57a17.07,17.07,0,0,1,.09-2.77.4.4,0,0,1-.41-.42c0-1.15-.57-2-.65-3.13s-.08-2-.12-3c-.08-1.78-.61-3.26-.24-5.09.22-1.11.93-2.21.94-3.36a20.26,20.26,0,0,0-.65-3.64,41.54,41.54,0,0,1-.44-5.57c0-2.17-.39-4.34-.51-6.51-.07-1.42-.29-3.19-1.75-3.91-.43-.21-2.56-1-2.76,0a8.1,8.1,0,0,0-.12,1.55,17.82,17.82,0,0,0,.51,2.29,19.41,19.41,0,0,0,.37,2.83c.5,2-.18,4.42.12,6.5a42.13,42.13,0,0,1,.07,11.92c-.15,1-.62,2-.84,3a5.66,5.66,0,0,0,.72,4.16,12.6,12.6,0,0,0,1.15,2.22,9.38,9.38,0,0,1,1.3,1.77c.79,1.63.81,3.45,1.15,5.21a12.76,12.76,0,0,1,.15,2.47,23.59,23.59,0,0,1-.58,3c-.14,1-.43,2.8-1.19,3.57-1.58,1.6-3.46,2.81-4.18,4.93h0c0,.88.43,1.51.37,2.42,0,.56-.89.56-.86,0s-.39-1.33-.39-2a13,13,0,0,0-.62-3.45c-.3-1.09-.15-2.23-.59-3.3a15.08,15.08,0,0,1-.95-2.69,15.72,15.72,0,0,1-.13-3.07A7,7,0,0,0,147,64.85c-.65-.91-2.34-4.67-3.89-4.45a.09.09,0,0,1-.06,0c-3.12,1-2.42,7.14-1.92,9.57.24,1.15.63,2.44,1,3.58.4,1.41.39,3.16,1.26,4.39a15.84,15.84,0,0,1,2.71,6.84c.36,2-1.06,3.62-2.18,5.11a9.54,9.54,0,0,1-2.18,1.7c-.79.56-1.43.6-2.16,1.34a3.45,3.45,0,0,0-.26.28s-.05.07-.09.09a6.51,6.51,0,0,1-.86.88,31.59,31.59,0,0,1-6,4.1c-.19.09-.37.19-.55.29a.47.47,0,0,1-.34.2c-2.07,1.29-3.67,3.32-5.44,5a28.74,28.74,0,0,1-2.39,2.42,14.29,14.29,0,0,0-3.28,2.85.49.49,0,0,1-.72.08.44.44,0,0,1-.52-.44c0-3-1.49-5.61-.49-8.57s1.74-6.16,3.5-8.87c1.12-1.74,2.22-3,2.23-5.21a13.42,13.42,0,0,1,.54-4.37c.6-1.61,2.24-3.78,1.72-5.54a4.84,4.84,0,0,0-1.48-2.53,9.06,9.06,0,0,0-1.24-.85.48.48,0,0,1-.53-.26,1.81,1.81,0,0,0-1.41-.1.22.22,0,0,1-.1.15,1.56,1.56,0,0,0-.43.42,1.33,1.33,0,0,0-.09.21.24.24,0,0,1-.12.14,10.46,10.46,0,0,0-.5,4.14,17.75,17.75,0,0,1-.23,4.44A18.32,18.32,0,0,1,118.91,86a10.82,10.82,0,0,0-2,4.5c-.06.55-.93.56-.87,0a7.15,7.15,0,0,1,.41-1.74,3.44,3.44,0,0,1-.71-.61,9.93,9.93,0,0,1-.72-.73,8.89,8.89,0,0,0-.79-1A16.22,16.22,0,0,0,112.44,85l-.19.27c-1,1.39-.78,2.62-1,4.18a11,11,0,0,1-.3,1.29s0,0,0,0A6.42,6.42,0,0,1,113.53,94a9.73,9.73,0,0,1,.53,4.15,2,2,0,0,1,.84.53c.46.46.87,1.11,1.34,1.53s-.16.8-.5.5c-.75-.66-1.11-1.62-2.12-2a.16.16,0,0,1-.09,0l-.12,0a3,3,0,0,1-1.67-.87,15.44,15.44,0,0,1-2.68-2.61c-.7,1.4-1.24,2.89-.41,3.79.38.42-.24,1-.62.62a3.06,3.06,0,0,1-.51-2.41,6.32,6.32,0,0,1,1-2.9A11.34,11.34,0,0,0,110,90.75a14.05,14.05,0,0,0,.38-3.71,4.48,4.48,0,0,1,1.12-2.22c.84-1.22,2.08-2.74,2.38-4.22a27.27,27.27,0,0,0,.16-4.43c.06-1.35.27-2.67.29-4a2.57,2.57,0,0,1,.76-1.81c1-1,2.41-1.42,3.2-2.67a7.12,7.12,0,0,0,1.3-4c-.07-2-.58-3.9.69-5.69a6.82,6.82,0,0,0,1.58-4.3c0-1.33,0-2.66,0-4,0-2.55-.62-4.53.2-7,1.65-5.07,5-12.12,1.23-17-1.71-.07-2.49.6-2.33,2,0,.4,0,.81,0,1.21a17.83,17.83,0,0,1,0,1.79,10.65,10.65,0,0,1-.43,2.85,9.67,9.67,0,0,0-1.29,4.22,8.65,8.65,0,0,1-.21,2.87,30,30,0,0,0-.88,3.81c-.34,1.33-.91,2.6-1.22,3.94s-.47,2.47-.85,3.66c.44.11.43.83-.07.79l-.11,0a.35.35,0,0,1-.25.36,14.83,14.83,0,0,0-1.07,2.49c-.6,2.45-1,5.28-2.17,7.53A4.46,4.46,0,0,1,111,64.68c-1.29,1-1.14,3.08-1.23,4.57a.24.24,0,0,1-.48,0c0-1.5-.2-3.1.56-4.31a.41.41,0,0,1-.14-.39c.1-.76.49-.93.8-1.63a6.55,6.55,0,0,0,.35-3.21,19,19,0,0,0-1.06-5.15,17.24,17.24,0,0,1-1-3.37c-.16-1.23-.44-2.5-.5-3.74a29.29,29.29,0,0,0-.44-4.29c-.24-1.19-1.12-2-1.44-3.14a15.5,15.5,0,0,1-.21-3.54,10.67,10.67,0,0,0-1.1-3.84c-.91-2.17-.56-4.54-.82-6.82-.16-1.44-.12-3.67-1-4.88-1.35-2-4.67-.66-5,1.4-.27,1.48.19,2.8.26,4.25s0,2.85,0,4.27a72.45,72.45,0,0,0,.09,8.72A21.34,21.34,0,0,0,101.53,47c1.12,1.88,1.11,4.37,1.51,6.48s1.61,4.22,1.65,6.55c0,1.08-.09,3.1-1.61,2.77a2.34,2.34,0,0,1-.53-.39q-3.15.1-2.38,2.28l.18.57c.05.14.12.28.18.41a.37.37,0,0,1,.27.5c.53.91,1.21,1.68,1.82,2.57,1.08,1.57,1.39,3.91,1.65,5.76a35.42,35.42,0,0,1,0,6.83c-.13,2.41-.27,4.19-1.57,6.24s-1.32,4.62-1.87,7c0,.2-.33.11-.3-.08.23-1.58.14-3.25.52-4.79l-.07,0c-1-1-.76-2.5-1.38-3.68a21.38,21.38,0,0,0-1.72-2.29,9,9,0,0,0-1.66-2.13C94.71,80.35,93,79.4,91.5,78.23c-1-.78-2.7-1.79-3.07-3.13C87.57,72,92,69.87,90,66.66c-1.14-1.83-4.82-.37-4.75,1.58a11.44,11.44,0,0,1,0,1.85,3,3,0,0,1-1.7,2.11,2.85,2.85,0,0,1-2.9.18c-.64-.31-1.09-1-1.63-1.49a5.37,5.37,0,0,1-1.29-1.27C76.55,68,75.47,64.69,77.12,63c1.24-1.3,3.86-1.36,3.69-3.76-.14-2-1.32-3.18-1.94-4.92-.56-1.54-.23-3.5-.23-5.12a27.18,27.18,0,0,1,.59-4.75,8.51,8.51,0,0,0-.8-5.61c-.74-1.29-2-3.24-3.4-1.27a12.11,12.11,0,0,0-1.86,3.13,14.26,14.26,0,0,0-.56,4.4,16.37,16.37,0,0,1,0,4,5.49,5.49,0,0,0-.2,3.75c.64,1.87,2.24,3.58,2.13,5.63a2.06,2.06,0,0,1-1.6,2.17c-1.28.17-2.14-2.2-2.45-3s-.53-1.39-.78-2.06a.14.14,0,0,1-.11-.12c0-.07,0-.14,0-.2a25.64,25.64,0,0,1-1.46-4.93A66.44,66.44,0,0,0,66.76,43c-.34-1.17-1-2.14-1.3-3.35-.18-.86-.3-1.73-.45-2.59-.37-2.09-.92-4.33-3.25-5-1.09-.29-3-.35-3.11,1.45,0,.59,0,1.17,0,1.75A27.37,27.37,0,0,0,58.88,40c.38,2.32,1.31,4.6,1.42,7a23.75,23.75,0,0,0,.93,5.75l.13.11a.4.4,0,0,1,.07.52,21.52,21.52,0,0,0,1.32,3.13c1.19,2.29,2.4,4.56,3.56,6.87a34.24,34.24,0,0,0,5.41,7.32c1.47,1.65,3.5,2.86,4.76,4.67a.41.41,0,0,1,.59,0,12,12,0,0,1,2.38,2.16c.82,1.26-.69,3.37,1.82,3,.85-.14,2.86,0,2.06,1.43-.27.46-.52,2.5.89,2,.75-.26,1-.79,1.37-1.41a1.13,1.13,0,0,1,1.25-.55c2.61.72,4.26,2.85,5.89,4.77.85,1,1.7,2.06,2.45,3.14a11.62,11.62,0,0,1,1.18,3.1,20.61,20.61,0,0,0,5.13,8.46c.52.48,1.51,1.51,2.16,1.63a8.49,8.49,0,0,0,2.61-.17,2.18,2.18,0,0,1,1.74.46c1.87,1.88,4,3.58,4.55,6.3a.2.2,0,0,1-.38.1c-.51-2-1.81-3.13-3.2-4.51a4.27,4.27,0,0,0-2.9-1.59,2.06,2.06,0,0,1,.16,1,6.44,6.44,0,0,0,.45,2.29,8.2,8.2,0,0,1-.18,4.17c-.31.91-.51,1.84-.87,2.73a7.09,7.09,0,0,0-.81,2.53c0,1,.07,2.06-.06,3.06a5,5,0,0,0-.15,1.55,6.4,6.4,0,0,0,.08-.79.21.21,0,0,1,.42,0,4.48,4.48,0,0,1-2,4.19,16,16,0,0,1-2.87,1.7,10.57,10.57,0,0,0-2.92,1.69c-1.08,1.25-.88,3.34-1.09,4.88a20.21,20.21,0,0,1-.8,3.44,31.72,31.72,0,0,0-1.3,6.47,18.33,18.33,0,0,1-.77,2.79,29.3,29.3,0,0,0-.56,3.72c-.23,1.84-1.15,3.47-1.16,5.36a17.72,17.72,0,0,0,.31,4.11,4.81,4.81,0,0,1,0,1.89,7.2,7.2,0,0,1-2,3,.1.1,0,0,1,0,.13.83.83,0,0,0-.24.4l.45-.42c.68-.6,1.47-1,1.94-1.8a10.64,10.64,0,0,1,1-1.45,7.61,7.61,0,0,1,2.62-2.33,4.22,4.22,0,0,1,4.77,1.31c.76,1.19.19,3.36-.82,4.39a.42.42,0,0,1-.18.3c-.82.61-.78,2.3-1.46,3.11-.9,1.07-2.3,1.43-3,2.72s-2.42,4.3-4.34,4.28a3.55,3.55,0,0,1-2.55-.58,14.89,14.89,0,0,0-4-2.48c-1.23-.49-2.11-2-.89-3.16,1-.92,2.28-.7,3.44-1.32a9.63,9.63,0,0,0,2.07-1.62,3.6,3.6,0,0,1,.5-1.3.38.38,0,0,1,0-.49,11.42,11.42,0,0,0,1.67-2,3.7,3.7,0,0,0,.2-2.45,5.28,5.28,0,0,1-3,2.26,5.4,5.4,0,0,1-2.12.15c-.71-.1-1.29-.57-2-.53-1.91.09-4.77.52-6.17,1.94a7.9,7.9,0,0,0-1.18,2.42c-.2.46-.81.8-1.14,1.16-.68.77-1.38,1.52-2.07,2.27s-2,1.86-2.12,2.86c-.18,1.15-.16,2.35-1.39,2.88-3.44,1.49-6.35,3.84-9.81,5.31a28.57,28.57,0,0,0-4.07,1.76A18.15,18.15,0,0,1,53,182.8a15,15,0,0,1-7,.79c-1-.1-2.6-.67-3.39.26a8.56,8.56,0,0,1-2.54,2,14.31,14.31,0,0,0-1.56.8c-1.36.93-.94,1.72-1.3,2.87a8.14,8.14,0,0,1-1.32,2.46c-.94,1.22-3.41,3.68-.94,5.23a5.2,5.2,0,0,1,1.74,1.48c1,1.67.43,3.25-.07,5-.28,1-.8,2.25.18,3a3.05,3.05,0,0,1,.77.75,12,12,0,0,1,1.07,2.43c1.15,3.22,5.19,4,8.14,3.9s6.07-.75,9.13-.78a66,66,0,0,1,8.32.22c2.64.32,4.26,2.74,6.94,2.77s4.85,1.82,7.44,1.31c1.2-.24,2.07.29,3.26.31,1,0,1.9-.48,2.89-.46,1.27,0,2.29.47,3.6.27a13.23,13.23,0,0,1,3.26-.22,70.76,70.76,0,0,1,7.57.72c2.69.6,5.07-.71,7.76-.44a6.7,6.7,0,0,0,2.82,0,13.86,13.86,0,0,1,1.62-.52,5,5,0,0,1,2.24.21,12.11,12.11,0,0,0,3.69.48,4.09,4.09,0,0,1,2.26.44,4,4,0,0,0,5-.29,7.07,7.07,0,0,1,2.29-1.39c1.19-.29,3,.06,4-.72a5.14,5.14,0,0,1,2-1.09,13,13,0,0,1,1.87,0,3.93,3.93,0,0,0,2.46-1.23,10.27,10.27,0,0,1,2.37-1.65c2.82-1.42,3.09-3.75,4.53-6.23a10.4,10.4,0,0,1,4-4.18c1-.53,2.21-.78,3.18-1.35,1.15-.68,2.21-1.54,3.37-2.18s3.27-1.06,4.06-2c1.16-1.4,1.86-2.89.9-4.69-1.08-2-.17-4.74-2.13-6.33s-4.79-1.61-6.67-3.36c-2.07-1.91-4.39-3.84-7.18-4.54a33.37,33.37,0,0,1-7.26-2.87,17,17,0,0,1-5.7-4.19,16,16,0,0,1-3-6.18c-.33-1.48-.32-3.6-1.93-4.3-1-.46-8.81-3.84-9.92-4.07h0a.43.43,0,0,1-.52-.43,20.24,20.24,0,0,0-.17-4.47,6.59,6.59,0,0,1,0-2.17c.32-2.26,1.44-4.42,1.52-6.72s-1.26-3.85-2.23-5.85c-.77-1.59-.17-4-.43-5.68a37.57,37.57,0,0,1-.38-5.9c0-1.51,1.23-3.7,1.76-5.08,1.31-3.45,6.52-3.33,8.19-6.72a.25.25,0,0,1,.39-.07,7.09,7.09,0,0,1,3.55-2.22c2.79-.73,4.25-3.1,6.34-4.86,1.36-1.15,3.41-1.18,5.06-.85a33.19,33.19,0,0,1,6.73,1.61c1.84.81,4.13-.37,5.72-1.27a22.31,22.31,0,0,0,3.24-2.21,19,19,0,0,0,3.1-2.61c.21-2.14-.43-3.06-1.93-2.78l-.81.4c-.51.39-1,.82-1.52,1.21a8.63,8.63,0,0,1-5.29,1.95,19,19,0,0,1-3.69,0c-1-.13-2.7-1.2-3.62-.78-.5.22-.93-.51-.43-.73a2.47,2.47,0,0,1,2.6.15h0a10.25,10.25,0,0,1,3.65-1.88c1.91-.59,3.48-1.71,5.34-2.39A35.37,35.37,0,0,1,163.94,93c2.37,0,4.77.07,7.14-.12,2.16-.18,3.85-2.79,5.45-4.09,2.07-1.68,2.05-4.25,3.13-6.51a5.07,5.07,0,0,0,.59-3.81,10.3,10.3,0,0,1,0-2.66A15.43,15.43,0,0,1,181,70.12Zm-38.5-1.38a1.42,1.42,0,0,0-.09.61.15.15,0,0,1-.29,0,1.76,1.76,0,0,1,.14-.75C142.33,68.43,142.57,68.58,142.5,68.74Zm-73-4.32a6.49,6.49,0,0,1-.66-1.53c0-.16.21-.23.25-.07a6.61,6.61,0,0,0,.7,1.44A.17.17,0,0,1,69.52,64.42ZM74,71.07a3.14,3.14,0,0,1-.72-1.22c-.06-.2.25-.28.31-.08a3.23,3.23,0,0,0,.65,1.06A.17.17,0,0,1,74,71.07Zm3.45,4.3a1.9,1.9,0,0,1-.35-.49.11.11,0,0,1,.2-.11,1.91,1.91,0,0,0,.33.42C77.73,75.3,77.55,75.48,77.44,75.37Zm5.36,2.17-.37-.32c-.15-.14.09-.38.23-.23l.32.36A.13.13,0,0,1,82.8,77.54Zm13.76,9A4.78,4.78,0,0,1,96,85.46c-.06-.17.21-.24.27-.07a5.66,5.66,0,0,0,.55,1C96.89,86.53,96.66,86.66,96.56,86.52ZM98.84,95a3.82,3.82,0,0,0-.23-1c0-.15.19-.21.24-.06A3.53,3.53,0,0,1,99.08,95,.12.12,0,0,1,98.84,95Zm4,5a2,2,0,0,1-.48-.88c-.07-.2.23-.27.31-.08a2,2,0,0,0,.42.71C103.22,99.94,103,100.18,102.82,100Zm1.84-55.1c-.07.17-.31,0-.24-.14a1.79,1.79,0,0,0,.09-.73.15.15,0,0,1,.29,0A2,2,0,0,1,104.66,44.92Zm.28,20.56c0,.15.08.29.08.45a.14.14,0,0,1-.28,0c0-.14-.11-.26-.13-.41A.17.17,0,1,1,104.94,65.48Zm-.61,27.88c-.12.23-.23.46-.34.69s-.35,0-.26-.15l.34-.69C104.16,93,104.41,93.19,104.33,93.36ZM105.1,89a3.67,3.67,0,0,0-.45.64c-.08.15-.28,0-.22-.13a2.46,2.46,0,0,1,.46-.72C105,88.6,105.23,88.81,105.1,89Zm1.22-4.78v-.68a.16.16,0,0,1,.31,0c0,.22,0,.45,0,.68A.16.16,0,0,1,106.32,84.17Zm.36-12.42a.09.09,0,0,1-.18,0v-.23a.09.09,0,1,1,.18,0Zm.23-13a1.34,1.34,0,0,1,.11-.65c.09-.19.37,0,.28.17a2,2,0,0,0-.12.48A.14.14,0,0,1,106.91,58.75Zm.41,19.15a.16.16,0,0,1-.32,0c0-.42,0-.83,0-1.25a.16.16,0,0,1,.32,0C107.33,77.07,107.33,77.48,107.32,77.9Zm-13.2,71.8c0-.34,0-.68,0-1a.15.15,0,0,1,.29,0c0,.34,0,.68,0,1A.17.17,0,0,1,94.12,149.7Zm1.43,1.94a.13.13,0,0,1-.25,0c0-.19,0-.38,0-.57a.15.15,0,0,1,.29,0C95.56,151.26,95.55,151.45,95.55,151.64Zm0-8.27c-.08.21-.42.12-.35-.1a5.12,5.12,0,0,0,.36-2.12c0-.2.29-.2.32,0A5.09,5.09,0,0,1,95.6,143.37ZM65.41,203c-.6,1.44-2.8,2.89-4.25,3.29a5.45,5.45,0,0,1-3.07.17c-1.57-.46-2.49.77-3.85.6-1.17-.16-2.81.06-3.44-1.16-.52-1,.24-2.2-.38-3.18-.23-.37-.88-.95-.51-1.5.65-.95,1.81-1.28,2-2.6A3.49,3.49,0,0,1,52.7,197c1.84-2.17,2.95-1.32,5.49-.91a18,18,0,0,1,5.42,2.05.35.35,0,0,1,.22.12h0l1.87,1c.19.1,0,.38-.17.29l-1-.5C65.62,200.21,66.23,201.07,65.41,203Zm4.87-23.44a4.33,4.33,0,0,1-2.59.11c-1.47-.47-2.59.34-3.71,1.11-1.68,1.16-3.11,2.61-4.87,3.65a2.32,2.32,0,0,1-1.19.25c-.39-.06-1.57-.62-1.94-.46a3.61,3.61,0,0,1-3-.24.37.37,0,0,1,.37-.63c1,.64,1.68.17,2.75.11.58,0,.5.16,1.24.39,1.9.59,3.65-1.63,5-2.63.9-.68,2.15-2.05,3.26-2.31,1.58-.36,3,.56,4.61.2A.23.23,0,0,1,70.28,179.59Zm39.45-66.06c0-.22.38-.13.34.09-.11.53-.22,1.07-.35,1.59,0,.22-.36.12-.33-.09C109.48,114.59,109.62,114.06,109.73,113.53Zm-.52,6.93a2.62,2.62,0,0,1,.35-.61c.13-.15.36.07.22.22a2.06,2.06,0,0,0-.33.53C109.36,120.75,109.14,120.61,109.21,120.46Zm-.81-12.24v.68a.1.1,0,1,1-.19,0v-.68C108.2,108.09,108.41,108.09,108.4,108.22Zm-.29,8.32a1.62,1.62,0,0,1-.14.87.14.14,0,0,1-.26-.11,3.3,3.3,0,0,0,.1-.76A.15.15,0,0,1,108.11,116.54Zm-.49-4.52a1.77,1.77,0,0,0,.1-.73.13.13,0,0,1,.26,0,2.14,2.14,0,0,1-.13.87C107.78,112.32,107.54,112.18,107.62,112Zm-1.14,5.48a.36.36,0,0,0,.08-.28c0-.18.3-.18.29,0a.63.63,0,0,1-.17.43C106.59,117.76,106.4,117.61,106.48,117.5Zm-1,9a21.77,21.77,0,0,1,1.5-2.61c.12-.17.41,0,.29.17a19.38,19.38,0,0,0-1.47,2.63C105.73,126.87,105.42,126.68,105.52,126.47Zm1.63.58c-.09.49-.29,1-.34,1.45a.11.11,0,0,1-.21,0,6.11,6.11,0,0,1,.34-1.51A.11.11,0,0,1,107.15,127.05Zm-3.57,3.73a.17.17,0,0,1,.33,0,4.38,4.38,0,0,1-.22,1.3c-.07.22-.42.13-.35-.09A3.83,3.83,0,0,0,103.58,130.78Zm0,5.31a.31.31,0,0,1,0-.1.54.54,0,0,0,0-.1c0-.1.05-.19.07-.29a.61.61,0,0,1,.14-.35.18.18,0,0,1,.3.08.28.28,0,0,1,0,.13.16.16,0,0,1-.07.14c0,.19,0,.59-.17.76-.21.93-.39,1.87-.66,2.79a.19.19,0,0,1-.36-.1C103.08,138.06,103.3,137.07,103.55,136.09Zm.58,7.12c0,.25-.22.44-.25.68s-.28.18-.27,0,.19-.44.21-.68S104.15,143,104.13,143.21Zm-2,4.41c.19,0,.19.28,0,.29a.08.08,0,0,0-.08.08c0,.2-.31.2-.3,0A.38.38,0,0,1,102.15,147.62Zm-1.5-17.48.7-1c.09-.15.33,0,.23.14l-.67,1C100.8,130.44,100.55,130.3,100.65,130.14Zm-4,8.05a.16.16,0,0,1-.32,0,3.61,3.61,0,0,1,.25-1.29c.06-.17.32-.1.27.07A5.65,5.65,0,0,0,96.61,138.19Zm.59,15.91-.12.11a.08.08,0,0,1-.12,0,.07.07,0,0,1,0-.11l.11-.12C97.15,153.89,97.28,154,97.2,154.1Zm.53-10.47c-.1.22-.13.46-.23.68s-.36,0-.27-.16.12-.46.22-.68S97.81,143.44,97.73,143.63Zm.44,5.65c0,.16-.28.09-.24-.07.11-.45.22-.91.34-1.36a.12.12,0,0,1,.24.06C98.4,148.37,98.28,148.82,98.17,149.28Zm-.33-16.75c-.06.17-.32.1-.27-.07.29-1.1.56-2.2.83-3.3,0-.13.23-.08.2.06A28.84,28.84,0,0,1,97.84,132.53Zm2.1,2.66a1.24,1.24,0,0,0,.11-.42.17.17,0,0,1,.33,0,1.11,1.11,0,0,1-.14.54C100.15,135.47,99.87,135.35,99.94,135.19Zm.4,8c-.07.15-.34,0-.27-.12.4-1,.8-2,1.15-3a.14.14,0,0,1,.27.08A29.42,29.42,0,0,1,100.34,143.17Zm-8.82,66.68c-.33-.51-.65-1.1-1.35-1.1-.28,0-.54.07-.83.09-.72,0-1.44.12-2.17.18-.42,0-.43-.68,0-.67,1.1.05,2.2-.22,3.29-.1.81.08,1.13.7,1.54,1.32C92.21,209.87,91.72,210.15,91.52,209.85Zm8.37-7.74c-1.41-1.05-.23-2-.41-3.37s-1.66-2.45-2.89-3c-.66-.3-4.87-.4-5.15.52a.19.19,0,0,1-.37-.1c.49-1.79,3.35-1.44,4.72-1.23s4,1.61,4.26,3.31c.2,1.54-.84,3.19,1.22,3.9.51.18,1,.59,1.59.52a3,3,0,0,1,1.11,0,6.33,6.33,0,0,0,3.18.29c.44-.09.95.52,1.2.79s-.24.91-.53.54c-.61-.78-1.55-.61-2.43-.5s-1.2-.57-2-.48A5,5,0,0,1,99.89,202.11Zm28-27.07c.67.19,1.78-.53,2.59-.45a2.85,2.85,0,0,1,1.69,1.3,10.9,10.9,0,0,0,4.48,2.62,5.93,5.93,0,0,0,2.93,0c.31-.07.73-.39,1.07-.39.77,0,.9,1.12,1.74.93.64-.15,1.28-.25,1.66.41.14.23.19,1.32.49,1.38a1.14,1.14,0,0,1,.77.38c.58.69,1.37.47,1.85,1.27a.39.39,0,0,1-.68.39,8.71,8.71,0,0,0-2.4-1.37c-.54-.16-.46-1-.58-1.37-.26-.8-1.55,0-2.07-.45-.73-.63-1.12-.56-2.05-.42A5.7,5.7,0,0,1,136,179c-1-.43-2.18-.84-3.16-1.36-1.21-.65-1.5-3.09-3.42-2.39a2.47,2.47,0,0,1-1.6.31A.25.25,0,0,1,127.92,175Zm-13.73,0a11.27,11.27,0,0,0,3.52.34c.9,0,1.77.76,2.71.87,2.19.27,3.61,1.48,5.07,3.06a30.68,30.68,0,0,0,6.21,5.22,8,8,0,0,0,4.8,1.29,17.64,17.64,0,0,1,3.25,0,4.41,4.41,0,0,1,3.8,2.57c.63,1.58.52,2.54-1.12,3.29-1,.43-1.86,1-2.83,1.35s-2.26.61-3.37,1c-2.07.74-2.53,2.48-2.79,4.44-.09.67-.66,2.11-.48,2.82.39,1.5-.25,2-1.41,2.73a7.9,7.9,0,0,1-3.07,1.42c-.75.1-1.56-.64-2.28-.73-1.12-.16-2.37.39-3.52.47-1.33.1-2.67.12-4,.11a17.42,17.42,0,0,0-4.84.2c-1.13.31-2,1.18-3.08,1.56a6.77,6.77,0,0,1-2.86.6,5.74,5.74,0,0,0-3.74,1,.41.41,0,0,1-.41-.71,6.06,6.06,0,0,1,3.7-1.19,8,8,0,0,0,5-1.6c2.59-1.61,6.7-.59,9.59-.8,1.15-.09,2.71-.73,3.83-.57s2.49.94,3.68.31,2.83-1,2.57-2.57c-.16-1,.06-1,.29-2.14.3-1.52.34-4.49,1.92-5.42,2-1.19,4.43-1.51,6.54-2.55,1.19-.59,2.85-1.43,1.7-3s-2.89-1.84-4.82-1.77c-2.15.08-4.09.09-6-1.07a33.6,33.6,0,0,1-6-4.79,30.56,30.56,0,0,0-2.54-2.55c-1.3-1-2.48-.9-3.94-1.35a16,16,0,0,0-3.44-.78c-1.3-.12-2.53-.71-3.85-.43a15.24,15.24,0,0,1-2.78.13,7.8,7.8,0,0,0-4.4,1.89c-1.46,1.14-3.43,2.41-5.34,2.42a6.08,6.08,0,0,1-2.48-.11,2.4,2.4,0,0,1-.53-.37c-.71-.61-.92-.44-1.65-.91a3.92,3.92,0,0,0-5,.68c-.74.92-.88,2.11-1.53,3.06a17.7,17.7,0,0,1-2.07,2,6.8,6.8,0,0,1-1.87,1.76,29,29,0,0,1-4,1A24.8,24.8,0,0,0,76.38,189a4.27,4.27,0,0,0-2.88,2.88,11.78,11.78,0,0,1-.9,2.21.26.26,0,0,1-.4,0L72,194a.25.25,0,0,1,.36-.36c.28.35.33.18.15-.52.1-.29.2-.59.28-.89a11.75,11.75,0,0,1,.46-1.42,3.54,3.54,0,0,1,1.71-1.9c1.53-.62,3-1.73,4.59-2.14s3.74-.32,4.9-1.43c.57-.55,1.09-1.13,1.64-1.7s1.49-1,1.86-1.85c.53-1.22.72-2.27,1.77-3.14,1.47-1.2,3.37-1.75,5-.72,1.12.72,3,1.78,4.18,1.58a8.42,8.42,0,0,0,3.43-1.09c1.84-1.14,3.55-2.68,5.73-3.12,1.24-.25,2.47,0,3.72-.27A4.8,4.8,0,0,1,114.19,175Zm8.47-65a.13.13,0,0,1,0-.25A.13.13,0,1,1,122.66,110.05Zm2.85-2.29a6.23,6.23,0,0,1-.83.71c-.17.12-.33-.16-.16-.28a5.3,5.3,0,0,0,.77-.65A.16.16,0,0,1,125.51,107.76Zm4.63-5.25c-.24.37-.44.77-.69,1.14-.15.22-.5,0-.36-.21s.44-.77.68-1.14S130.29,102.28,130.14,102.51ZM138,97.25a.17.17,0,0,1-.3-.17,9.15,9.15,0,0,0,.56-.87c.08-.19.39-.12.32.08A7.2,7.2,0,0,1,138,97.25Zm5.71-3a.94.94,0,0,0-.14.19c-.16.18-.42-.09-.27-.27s.15-.24.31-.27S143.92,94.22,143.68,94.26Z"/></g><g id="stroke"><path class="cls-2" d="M181.39,59.59c-.6-1.08-.57-2.84-2.33-2.49a4.39,4.39,0,0,0-3.2,2.8,4,4,0,0,0-.27,2.2,23.06,23.06,0,0,1-.35,3.49c-.15,2.84.27,5.63-.32,8.46a35.58,35.58,0,0,1-1.32,3.57,20.53,20.53,0,0,1-1.75,4.48c-.75,1.27-2,.94-3,1.74a7.91,7.91,0,0,0-1.18,1.21,39.06,39.06,0,0,0-.35-5.29,18,18,0,0,0-.56-1.76,8,8,0,0,1,.07-1.68c.11-1.4-.05-2.82.18-4.21a55.2,55.2,0,0,0,.29-6.69c0-1.24.37-2.37.31-3.62a12.76,12.76,0,0,0-.71-3.11,30.39,30.39,0,0,1-1-7.35c-.07-1-.79-2.36-2-2.36-3,0-3.87,4.68-3.93,7.21-.09.8-.2,1.59-.32,2.38-.05-.17-.11-.35-.19-.55-.46-1.16-.17-2.24-.33-3.41-.38-2.73-.63-4.9.38-7.54.79-2.09-.3-4.24-.57-6.32s0-4.54-.42-6.76c-.61-3.53.41-8.06-4-9.21a2,2,0,0,0-2.56,1.07c-.76,1.83.5,3.7.38,5.47-.06.93.38,2,.38,3,0,1.27,0,2.54,0,3.81.08,2.38.52,4.69.52,7.08a23.46,23.46,0,0,1-.75,7.47,6.39,6.39,0,0,0,.17,5.47c.41.78.71,1.66,1.15,2.42s1.31,1.59,1.79,2.55a18.81,18.81,0,0,1,.72,4,9,9,0,0,1-.09,4.55c-.28.86-.43,1.79-.63,2.68a6,6,0,0,1-2.3,3.28,7.56,7.56,0,0,0-2,2.71c-.18-1.08-.56-2.11-.66-3.23a9.9,9.9,0,0,0-.42-2,.46.46,0,0,0,.12-.55c-.44-1,.06-2.55.36-3.48a12.06,12.06,0,0,0,.71-4c0-1.27,0-2.53,0-3.79s.54-2.65.52-4c0-1.18-.29-2.26-.29-3.47s0-2.53-.07-3.8a14.64,14.64,0,0,1-.09-3c.17-1.46.6-2.86.71-4.32a7.56,7.56,0,0,0-1.76-6,5.43,5.43,0,0,0-2.39-1.87.31.31,0,0,0-.05-.12,6.44,6.44,0,0,1-1.35-2.45,2.33,2.33,0,0,0-1.05-1.33c-.24-.11-.48-.2-.73-.29,0,0,0,0,0-.06a45.49,45.49,0,0,1-.06-6.18,4.58,4.58,0,0,0-1.88-4c-.57-.34-2.91-.44-3.3.32-.82,1.57-.38,3.44-.13,5.13-.43-.63-.84-1.29-1.3-1.88s-.49-1.45-1.08-1.8a1.4,1.4,0,0,0-1.66,0h0a2.89,2.89,0,0,0-1.19,1.11l-.23.2a.11.11,0,0,0,0,.17,6.9,6.9,0,0,0-.53,1.5c-.28,1.21,1.24,2.54,1.8,3.46.93,1.53,1,3.69,2.13,5.05a3,3,0,0,0,1.67,1.27c.4.09.78.18,1.13.29a39.49,39.49,0,0,0-.37,5c0,2.26.92,4.17.2,6.41-.56,1.72,0,3.16.8,4.71a23.21,23.21,0,0,1,2.21,6.43.82.82,0,0,0-.74.46,3.93,3.93,0,0,0-2.14,3c-.09.91-.2,1.92-.26,2.94A14.16,14.16,0,0,1,139.2,61a13.67,13.67,0,0,0-.58-3.1c-.33-1.38-.38-2.85-.84-4.2-.61-1.82-.49-3.8-1.73-5.36-1.09-1.35-1-2.74-1.21-4.36s-.51-3.18-.72-4.77a14.75,14.75,0,0,0-1.06-3.36,9.23,9.23,0,0,1-.51-3.73c0-2.31-1.68-4-2.52-6.12-.55-1.35-1.38-3-2.87-3.48-.92-.28-1.17.67-1.22,1.39a11.44,11.44,0,0,0-.48,3.62,3.29,3.29,0,0,0,.41,1.12,19.27,19.27,0,0,1,1.2,3.2c.19.69.61,1.28.76,2,.22,1.06.56,2.07.8,3.13.45,2,.13,4.16.25,6.2a11.75,11.75,0,0,0,.77,4.32,6.85,6.85,0,0,1,.68,3.16,10.47,10.47,0,0,0,.12,2.5c.37,1.74,1.41,2.77,2.29,4.23.53.88.4,2,.67,2.93.17.58.36,1.12.49,1.68-.83-.77-1.83-1.27-2.69-2a6.22,6.22,0,0,0-2.11-1.29c-.52-.17-1.13-.16-1.66-.28s-1.9-.81-2-.78a.17.17,0,0,0,0-.32h0c0-.84,0-1.68,0-2.51s-.23-1.53-.26-2.3a17.45,17.45,0,0,1,.3-2.68c.21-1.86.72-3.66.88-5.53a13.05,13.05,0,0,0-.76-4.5,16.22,16.22,0,0,1-.7-2.59,5.69,5.69,0,0,1,.11-1.39,16.68,16.68,0,0,0,.59-6.55c-.24-1.53-1.11-4-2.53-4.84a1.38,1.38,0,0,0-1.92.47c-.24-.58-.56-1.13-.75-1.73a14.7,14.7,0,0,1-.5-3.68A38,38,0,0,0,118.32,12c-.62-2.21-1.16-4.48-1.62-6.73a6.89,6.89,0,0,0-1.12-2.74c-1-1.35-4-4.2-5-1.34-.57,1.7-.2,3.55.07,5.29.39,2.55.82,5,1,7.58.16,1.94.73,3.62,1,5.5.08.42.12.84.16,1.26a1.06,1.06,0,0,0-1.52.1c-1.19,1.25-1,3.1-1.21,4.72a20.7,20.7,0,0,0-.13,5c-.21-.78-.43-1.56-.57-2.36a10.81,10.81,0,0,0-1.23-3.61c-1-1.54-1.91-2.42-3.45-1.14,0-.28-.07-.56-.12-.84a8.26,8.26,0,0,0-.5-1.8.35.35,0,0,0,.08-.24c0-1-.17-2-.25-2.95a6.44,6.44,0,0,0-.38-2.46,2.82,2.82,0,0,0-3-1.68c-.71,0-2.56.7-2.75,1.52A8.77,8.77,0,0,0,98,17.5c0,1.07.29,2.05.4,3.11a2.46,2.46,0,0,0-.22.25c-1.29,1.7-.67,3.79-.42,5.73.39,3,0,6.34,0,9.4,0,1.93-.17,4.18.61,6,.69,1.59,1.49,3.18,2.16,4.79a4.11,4.11,0,0,0-2.12,1.75,4.74,4.74,0,0,1-.26-.75.34.34,0,0,0,.08-.38c-.36-1-.78-1.95-1.19-2.91A18.33,18.33,0,0,1,96,37.92c-.09-1.64-.54-3.22-.64-4.86a29.21,29.21,0,0,0-.72-5.19c-.88-3.75-.69-7.71-.94-11.53,0-.48-.08-1-.14-1.44l.06-.07c.85-1.67.48-3.2.94-5s.93-3.35-.1-4.91a3.12,3.12,0,0,0-3.35-1.17,2.05,2.05,0,0,0-1.16,1l0-.39c0-.93,0-2.45-.84-3.09-2.48-1.82-4.19.4-4.59,2.73a11.46,11.46,0,0,0-.08,3.26.81.81,0,0,0-.18-.1,1.48,1.48,0,0,0-1.89-.48A2.67,2.67,0,0,0,81,10.16c.29,1,.86,1.85,1.21,2.79.49,1.34.38,3.23.57,4.66.34,2.56,1.08,5,1.07,7.58,0,2.33-.42,4.58.33,6.82s1.05,4.74,1.88,7c.92,2.53.53,5.66.13,8.26-.34,2.23.48,4.23.68,6.41a1.08,1.08,0,0,0-1.07.44,2,2,0,0,0-.41,1.33,12.34,12.34,0,0,1-1.45,4.24,8,8,0,0,0-.67,5,3.81,3.81,0,0,0,1.48,2.15,1.65,1.65,0,0,0-.16.36A21,21,0,0,0,84.33,70c-.2,1.44-2.61,2.23-3.66,1.41-.41-.32-.76-.76-1.15-1.1-2.27-2-3.84-6.45,0-7.7,1.33-.42,2-2.15,2.1-3.38.17-2.39-2.06-4-2.16-6.22a37.24,37.24,0,0,1,.2-5.8.39.39,0,0,0,.21-.21c.53-1.21.72-2.57,1.59-3.6a6.14,6.14,0,0,0,1.14-2.23,11.85,11.85,0,0,0-.13-6c-.8-3.09-.6-6-.43-9.19a14.26,14.26,0,0,0-1.27-7.29,3.21,3.21,0,0,0-3.44-1.38c-1.27.35-1.78,2.39-1.72,3.51a23.69,23.69,0,0,1-.33,3.44c-.12,1.35.37,2.66.38,4a58.21,58.21,0,0,0,.23,7.47h0a2.83,2.83,0,0,0-1.55,1.07A22.46,22.46,0,0,0,72.74,33c-1-1.49-1.65-3.09-3-4.28a2.3,2.3,0,0,0-3.88,2.17c.41,1.94.77,3.93,1.34,5.82A46.68,46.68,0,0,1,69,42.48a21.44,21.44,0,0,1,.34,7.1,13.71,13.71,0,0,0,0,3.07c-1-3.54-.44-7.54-2.21-10.93-1.4-2.68-.93-5.93-2.52-8.52-1-1.69-4.27-2.91-5.91-1.39-1,.94-.84,2.24-.84,3.54a21.8,21.8,0,0,0,.57,6.08c1,3.47,1.07,7,1.83,10.47a10.9,10.9,0,0,1-2.61-2.31c-1.14-1.57-2.5-3.46-2.87-5.34-.85-4.38.14-9.13-2.16-13.18a7.59,7.59,0,0,1-1.48-3.5c0-.94,0-1.88,0-2.82-.15-2.2-.7-4.47-.63-6.66,0-.95.07-1.9,0-2.84-.05-1.18-.85-2.22-1-3.4-.16-1.71,0-3.46,0-5.19a.29.29,0,0,0,.56-.16c-.54-2-2.06-5.34-4.69-3.84-1.1.62-1.51,2.52-1.74,3.61a40.2,40.2,0,0,0-.9,6.18,18.32,18.32,0,0,0,.12,5.07c.24,1,.6,2.05.84,3.09a17,17,0,0,1,.17,3.9,11.26,11.26,0,0,0,.49,4.62C45.23,31.08,46.22,33,46.9,35a21.81,21.81,0,0,1,.65,6.19c.07,1.76-.07,2.49,1.12,3.84s1.09,3.27,2.23,4.75c.49.64,1.26,1.12,1.81,1.71a21.74,21.74,0,0,1,2.1,2.68c2,3,2.68,6.76,5.15,9.55A16.87,16.87,0,0,0,63.23,67c1.45.91,3.4.31,5,.94h.06c.94,1.1,2.06,2.12,3,3.16a49.28,49.28,0,0,0,4.19,3.59c-.12.83-.38,1.68-.52,2.51a5.31,5.31,0,0,0-1.88-1A4.07,4.07,0,0,1,71.84,76c-.69-.29-1.38-1.28-1.86-1.84a5.4,5.4,0,0,0-2.45-1.65c-.49-.13-2.34-.08-1.8.93.43.82-.55,1.09-1.16.89a7.24,7.24,0,0,1-2.69-1.7A21.32,21.32,0,0,0,58.82,70c-1.23-.76-3-.92-2.87-2.89a4.48,4.48,0,0,0-.69-3c-.95-1.42-.56-2.83-.78-4.39-.19-1.33-1.11-2.41-1.11-3.76a5,5,0,0,0-.82-2.61,4.33,4.33,0,0,0-1-.85,9.68,9.68,0,0,1-1.57-2A2.16,2.16,0,0,0,46.59,50l0,0a4.54,4.54,0,0,0-.48.39c-.72-1.11-2.34-1.66-3.33-2.56C42,47.21,41,46.65,40.18,46A7.09,7.09,0,0,1,38,42.41a18.9,18.9,0,0,1-.64-5.9,19.47,19.47,0,0,1,.23-3.82c.22-1.1.67-2.15.81-3.27a23.73,23.73,0,0,0,.14-6,15.22,15.22,0,0,0-.93-2.89,10.11,10.11,0,0,0-1.1-2.89c-.55-.74-1.66-.48-2.37-.24-1.44.5-2,1.75-2.63,3a5.43,5.43,0,0,0-.43,3.49,18.16,18.16,0,0,1-.14,3.29,23.6,23.6,0,0,0,.26,4c.28,2.07.13,4.11.49,6.18.42,2.4.72,4.83,1.22,7.21a59.57,59.57,0,0,1,.93,6.64c.18,2,1.71,2.94,3,4.19a8,8,0,0,0,3.92,2.2c1.85.51,3.39,2.25,4.9,3.45a.42.42,0,0,0,.12.08c.14,1.78.09,3.61.09,5.34,0,2.1,1.33,3.07,2.65,4.49l2.18,2.34A11.64,11.64,0,0,1,53,77.07a9,9,0,0,0,3.23,4.35c1.71,1.2,3.94,1.18,5.92,1.46a9.72,9.72,0,0,0,2.85,0c1.58-.21,3.58-1,5,.27a14.66,14.66,0,0,1,2,2.27,29.31,29.31,0,0,1,2.67,3.09,9.17,9.17,0,0,1,1.15,5,.19.19,0,0,0-.12.26l0,.09a13.77,13.77,0,0,0-.56,2.94,6.13,6.13,0,0,0,1.43,4.7c.94,1.09,2.22,1.62,3,2.9a16.28,16.28,0,0,0,1.8,2.55,3.28,3.28,0,0,0,1.27,1l-.12.88a4.78,4.78,0,0,1-1.19-.09c-.87-.17-1.47-1-2-1.61a13.73,13.73,0,0,0-2.16-2.34c-1.12-.72-2.39-.8-3.46-1.66-1.82-1.47-4.22-2-6.27-3a5.39,5.39,0,0,0-2.19-.29,15,15,0,0,0-2.31-.8,5.84,5.84,0,0,0-1.39-.1.37.37,0,0,0-.27.11c-2.37,0-5.1.07-7-1.19a29.3,29.3,0,0,0-3.18-2.06,8.24,8.24,0,0,0-1.38-.45c-.69-.18-1.45-1.5-1.87-2.05a14.74,14.74,0,0,1-2.18-3.08c-.51-1.43.2-3.26.56-4.63a20.61,20.61,0,0,0,.66-7.77,10,10,0,0,0-2.59-5.64,2.74,2.74,0,0,0-3.57,0c-1.33,1.59-1.2,4-1.65,5.94-.28,1.17-1.1,1.9-1.68,2.89a7.36,7.36,0,0,0-.61,2.91.17.17,0,0,0,.14.18c-.16.9-.44,1.76-.53,2.69A8.15,8.15,0,0,0,37,91a8.56,8.56,0,0,0,1.6,2.49c-2.64,0-4.17-1.77-6.51-2.72-1.2-.49-2.73-.31-4-.6s-2.79-.28-4.16-.52c-2.54-.45-5.59-.87-7.84-2.28-1.27-.78-3.16-1.83-3.73-3.21a30.22,30.22,0,0,0-1.19-3.3c-.55-1-1.24-1.92-1.75-3a15.57,15.57,0,0,1-1-4.38A9.36,9.36,0,0,0,8,71.88C7.67,71,8.59,70,9.11,69.4a6.7,6.7,0,0,0,1.43-2.73c.6-2.29.37-3.91-1.4-5.39-.7-.58-.88-1.92-1.76-2.3a1.6,1.6,0,0,0-1.19-.15.16.16,0,0,0-.21,0L5.73,59l-.22.07a.17.17,0,0,0-.13.16,6.73,6.73,0,0,0-2.5,2.89c-.92,2.25-.94,4.78-2,7-2.18,4.43.55,8.54.77,13.09a12.3,12.3,0,0,0,0,2.27A5.89,5.89,0,0,0,3,86.55a29.34,29.34,0,0,1,1.78,2.66A14.4,14.4,0,0,0,6.44,91.9c.57.57,1.28.91,1.85,1.52s1.7.79,2.43,1.56c1.23,1.3,3.28,1.6,5,2a43.52,43.52,0,0,1,6.26,2.22,11,11,0,0,0,5.33.58,58.71,58.71,0,0,1,6.22.08c1.19,0,2.47-.45,3.7-.52,1,0,2,0,3.06-.1a6.47,6.47,0,0,1,3.68,1,15,15,0,0,1,2.68,3.11c.9,1.58,2.27,2.08,3.85,2.82a17.37,17.37,0,0,0,5.6,1.55c1.11.09,3.32.56,4.3-.07a.52.52,0,0,0,.17-.2c.93-.32,3.12.84,3.64,1.14,2,1.12-1.55,2.6-2,2.77a6.15,6.15,0,0,1-2.3.25c-1.88,0-3.78.3-4.35,2.34-.4,1.43,2.61,3.24,3.64,3.73,2.4,1.13,4.35.16,6.16-1.45,1.3-1.16,2.33-2.52,4-3.17,1.88-.73,3.23,0,5,.6a31.35,31.35,0,0,1,5.16,2.22,20.08,20.08,0,0,1,1.84,1.47c.79.57,1.63,1,2.37,1.69,1,.85,1.74,1.82,2.65,2.72,1.12,1.11,2.84,1.4,4,2.47a9,9,0,0,1,1.36,2.12c.39.68,1.06,1.16,1.42,1.9a19.21,19.21,0,0,1,2,5.79.37.37,0,0,0,.08.2.9.9,0,0,1,0,.16c-.43,1.94-1.33,3.74-1.36,5.76s-1,4.14-1.4,6.16a31.51,31.51,0,0,1-1.26,5.6c-.53,1.46-.29,3.94-.13,5.46,0,.28.07.54.12.8a.3.3,0,0,0-.36.08,4.6,4.6,0,0,1-4.54,2,11.59,11.59,0,0,0-2.68-.54,10.68,10.68,0,0,0-5.72,1.74,3.43,3.43,0,0,0-1.38,1.87,8.23,8.23,0,0,1-2.18,3c-1.39,1.55-3.46,3.1-3.71,5.28-.2,1.72-1.36,1.9-2.71,2.47a20,20,0,0,0-3.35,2.1c-2.37,1.63-5,2.42-7.58,3.6-1.25.58-2.38,1.43-3.62,2.06a12.23,12.23,0,0,1-4.95,1.13c-1.15.06-2.24-.23-3.38-.28-1.35-.06-1.14-.67-2.36.14-1,.68-1.85,1.68-2.93,2.36a12.29,12.29,0,0,0-2.49,1.6c-.55.54-.54,1.82-.67,2.53-.25,1.38-1.39,2.42-2.17,3.5-1,1.31-1.84,2.75-.77,4.21.51.71,1.59,1.13,2.24,1.69,1.58,1.32.43,3.79,0,5.35a4.55,4.55,0,0,0-.15,2.34c.19.71,1.26,1.23,1.64,1.84A24.34,24.34,0,0,1,38.43,211c.41.87,1.48,1.41,2.21,1.94,4.27,3.08,10.49.78,15.26.61,1.41-.05,2.83.06,4.24.14a30.61,30.61,0,0,1,4.59.2c2.49.51,3.77,2.65,6.43,2.69,2.48,0,4.47,1.71,7,1.46a13.67,13.67,0,0,1,3.2.17c1.28.17,2.2-.27,3.44-.37,1-.08,2,.42,3.13.35a35.81,35.81,0,0,1,3.73-.29,56.31,56.31,0,0,1,8.6,1,6.56,6.56,0,0,0,2.64-.22,12.31,12.31,0,0,1,4.56-.39,6.26,6.26,0,0,0,2.55-.1c.56-.14,1.08-.36,1.62-.52.84-.26,2.07.28,2.91.46a11.06,11.06,0,0,0,2.82.25c1.38,0,2.21.68,3.42,1.1,2,.67,3.5-.55,5-1.66,1.77-1.31,3.9-.29,5.57-1.62,1.33-1,2.47-.59,3.92-.93a4.8,4.8,0,0,0,2.39-1.39c1.6-1.52,3.73-2,5-3.85,1.48-2.18,1.93-4.68,3.81-6.66,1.7-1.77,4.2-2.28,6.28-3.47,1.13-.64,2.11-1.47,3.28-2.05s2.22-.71,3.16-1.57c1.17-1.07,2.28-3.17,1.64-4.71a4.13,4.13,0,0,0-.61-.89,6,6,0,0,1-.62-3.09,5.43,5.43,0,0,0-.89-2.59c-1.06-1.63-3.18-2.31-4.92-2.85-2.86-.88-4.88-3.69-7.47-5.16-2.42-1.38-5.37-1.65-7.88-2.93-3-1.5-5.87-3-7.83-5.75a15.55,15.55,0,0,1-2-4.26,16.91,16.91,0,0,1-.53-2.64,3.3,3.3,0,0,0-.17-1.29,4.54,4.54,0,0,0-2.31-1.82c-1-.41-8-3.48-9.48-3.89,0-1.85-.25-3.67-.24-5.51,0-2.25,1.11-4.49,1.5-6.71a7.19,7.19,0,0,0-.72-4.37,17.57,17.57,0,0,0-1.34-2.25c-.63-1-.37-2.67-.37-3.82,0-1.93-.58-3.8-.59-5.74,0-2.34.78-4.14,1.49-6.32,1.08-3.25,5.46-3.63,7.47-6.25h.12a.22.22,0,0,0,.16-.37l.09-.17c.34-.2.83-.66,1-.81a12.26,12.26,0,0,1,2.24-1.31c1.28-.52,2.27-.55,3.43-1.41a26.35,26.35,0,0,0,2.67-2.51,5.93,5.93,0,0,1,6.1-1.67c1.43.29,2.8.65,4.25.86s2.36,1,3.87.95c2.32-.12,5.15-1.88,6.93-3.3,1.21-1,2.37-2,3.54-3,.5-.43,1.31-1.38,1.25-2.11a2.49,2.49,0,0,0-3-2.39,5.31,5.31,0,0,0-2.6,1.4A8.46,8.46,0,0,1,148,99.64c-1.57,0-3.12.28-4.59-.31.67-.41,1.69-.71,2.29-1,1.06-.53,2.19-.66,3.25-1.17a37.94,37.94,0,0,1,3.68-1.8,20.47,20.47,0,0,1,3.13-.66,22.94,22.94,0,0,1,4.24-.75c1.32,0,2.63-.11,3.94-.12,2.55,0,5.1,0,7.65-.17,1.69-.14,3.08-2,4.18-3.08.84-.84,1.83-1.51,2.6-2.41a8.19,8.19,0,0,0,1-2.42c.56-1.38.88-2.82,1.52-4.2a3.87,3.87,0,0,0,.43-2,24.08,24.08,0,0,1,.07-8c.42-2.22,1.79-3.65,1.46-6.06C182.55,63.32,182.47,61.55,181.39,59.59ZM139.91,24.83a1.67,1.67,0,0,1,1.9-1.79c1.48,0,2.14,1.54,2.24,2.81.17,2.14-.27,4.32,0,6.45a3,3,0,0,1-.77-.51c-1-.94-1.93-1.68-2.81-2.71-.18-.21-.35-.43-.52-.66C140,27.22,139.85,26,139.91,24.83Zm-.47,11.33c-1-.23-1.57-1.43-1.87-2.26a13.56,13.56,0,0,0-1.83-4.22c-.34-.44-.61-1.14-1.08-1.47-.87-.63-.42-2.05.25-3,.73-.57,1.76-1.24,2.16.07a6.73,6.73,0,0,0,1.22,1.95,32.48,32.48,0,0,0,2.88,3.83,8.2,8.2,0,0,0,3.21,2.24c1.59.53,1.47,1.57,2.11,2.81a2.89,2.89,0,0,0,.61.73,3.37,3.37,0,0,0-.7.26c-1.29.63-2.29,1.89-1.67,3.48.36.92,1,1.27,1.6,2.06a7,7,0,0,1,1.17,4.48.25.25,0,0,0,.49,0,7.24,7.24,0,0,0-.86-4.37,7.6,7.6,0,0,0-1.3-1.59c-1.55-1.5.89-5,2.77-3.18a7.89,7.89,0,0,1,2.84,6.73c0,2.12-.93,4.08-.78,6.24s.13,4,.13,6c0,1,.38,1.89.39,2.86,0,1.13-.47,2.32-.55,3.47-.18,2.6.24,5-.71,7.53a8.55,8.55,0,0,0-.47,1.81,19.63,19.63,0,0,1-.25-4.6,6.35,6.35,0,0,0-1.44-3.63c-.53-.79-1-1.61-1.59-2.4a.39.39,0,0,0,.16-.57c-.64-1,.7-2.67.82-3.61a34,34,0,0,0,.22-6.21,6.15,6.15,0,0,0-.62-2.06,15.13,15.13,0,0,1-.62-3c-.35-2.06-2.46-2.85-2.56-5.11-.07-1.44.09-2.8-.85-4a3.57,3.57,0,0,0-1.56-1A12.22,12.22,0,0,0,139.44,36.16Zm3.16,18.62a19.45,19.45,0,0,0-1.15-2.5,5.56,5.56,0,0,1-.09-4.5c.54-1.79-.46-3.75-.59-5.55-.11-1.64,0-3.24,0-4.87a2.62,2.62,0,0,1,1.94,2.5c.14,1.42-.23,3,.78,4.25a6.59,6.59,0,0,1,2,3.78,7.87,7.87,0,0,0,.67,2.48,8.32,8.32,0,0,1,.31,4.12c-.09,1.39.12,2.84-.5,4.15a6,6,0,0,0-.63,2.2A3.69,3.69,0,0,0,144.1,60,29.58,29.58,0,0,0,142.6,54.78Zm-12.46,5.4c.79.62,1.54,1.2,2.38,1.76,1.15.78,1.44,2,2.42,2.84.43.36,1.05-.25.62-.62a3.57,3.57,0,0,1-.7-.88.11.11,0,0,0,0-.08c-.06-1.43-.73-2.68-.88-4.08a6,6,0,0,0-1.57-3.53c-1.39-1.82-1.23-4-1.21-6.17,0-1.77-1.42-3.18-1.41-5,0-1.65-.11-3.31-.12-5a24.06,24.06,0,0,0-.92-5.26c-.77-3.63-3.65-7-2.21-10.79a1.73,1.73,0,0,1,1,0,5.62,5.62,0,0,1,1,1.36,15.82,15.82,0,0,1,1.15,2.59,19.1,19.1,0,0,0,1.32,2.33c.87,1.43.71,2.91.71,4.5,0,1.77,1.19,3.42,1.58,5.15a66.9,66.9,0,0,1,1,7.6,4.2,4.2,0,0,0,.68,1.47,8.44,8.44,0,0,1,1.48,3.55,7.44,7.44,0,0,0,.52,2,19.16,19.16,0,0,1,.71,3.62,27.74,27.74,0,0,1,.67,3.48,10.47,10.47,0,0,0,0,2.24A15.1,15.1,0,0,0,140,67.87l0,0a9.46,9.46,0,0,0,.59,3.19c1,2.51.72,5.46,2.33,7.73l0,0c-1.19,2.3-3,4-3.13,6.72A35.32,35.32,0,0,1,138.9,90c-.15.91-.08,1.82-.3,2.7-.18.19-.34.37-.48.55-1.43,1.74-3.46,2.7-5.42,3.72a4.8,4.8,0,0,0,.68-1.38c.44-1.64,1.4-2.86,1.65-4.61a27.69,27.69,0,0,1,.57-4.07,20.34,20.34,0,0,0,.9-4.44c.12-1.53.5-3,.68-4.51.14-1.15.58-3.17,0-4.26a6.09,6.09,0,0,0-2.12-2.27,23.28,23.28,0,0,1-2-1.33A4.34,4.34,0,0,1,132,67.8a4.43,4.43,0,0,0-1.49-3.53c-.65-.52-1.41-.76-2.05-1.27s-1.78-.71-2.29-1.41a.42.42,0,0,0-.65-.06c-.07-1.16-.08-2.33-.06-3.51C126.61,59.38,128.71,59.05,130.14,60.18Zm13.21,19.24c1.66,2.64,2.85,6.65.52,9.12-.87.92-1.65,2-2.94,2.43a4.06,4.06,0,0,0-1.3.74,13.35,13.35,0,0,1,.12-1.49c.24-1.34.59-2.63.89-4a6.62,6.62,0,0,0,.09-1.26,5.75,5.75,0,0,1,1.34-3.1A11.85,11.85,0,0,0,143.35,79.42Zm-23.23,27.63c.47-1.19,1.81-1.88,2.22-3.12a10.5,10.5,0,0,0,.38-2.94.15.15,0,0,0,.1-.12,16.63,16.63,0,0,1,3.57-6.82,20,20,0,0,0,3.64-4.5c1.63-3,3.82-5.49,5.73-8.25,0,.17,0,.34-.06.51-.28,2.85-1.19,5.48-1.47,8.34-.17,1.81-.91,3-1.51,4.67-.4,1.07-1.07,1.93-1.52,3l-.39.23a11.51,11.51,0,0,0-2.59,2.39,43.25,43.25,0,0,1-3.3,3.19c-.9.86-1.68,1.75-2.65,2.55A19,19,0,0,0,120,108q0-.39-.06-.78A.45.45,0,0,0,120.12,107.05Zm-.36-1.09a22.08,22.08,0,0,0-.52-2.21c-.67-2.37.94-5.31,1.59-7.57a16.79,16.79,0,0,1,2.5-5.05,19.51,19.51,0,0,1-.56,3.91,14.41,14.41,0,0,0-.58,1.83c-.12.95-.07,1.91-.23,2.86-.27,1.52,0,3-.74,4.43A14.55,14.55,0,0,1,119.76,106Zm6.11-36.52c0-1.43.37-3.14.07-4.54a21.38,21.38,0,0,1-.39-2.78c.69.94,2.07,1.25,3,1.91s1.73.66,2.35,1.56a4.71,4.71,0,0,1,.59,1.82.06.06,0,0,0,0,0,.51.51,0,0,0,0,.13c0,.27.08.53.12.76a.14.14,0,0,0,.1.11,5.88,5.88,0,0,0,2.93,3.62c2.45,1.63,2,4.49,1.46,7.16-1,1.52-2.06,2.94-3.13,4.39a49.87,49.87,0,0,0-4,6c-1.1,2-3.12,3.37-4.26,5.36a24,24,0,0,0-1.85,3.77c0-.42,0-.85,0-1.26a17,17,0,0,1,.69-2.81,22.23,22.23,0,0,0,.3-4.08.25.25,0,0,0-.08-.2c1.28-1.76,1.34-3.54,1.4-5.65.12-3.88,3.81-7.18,1.24-10.89a6.31,6.31,0,0,0-2-1.69C125.13,71.34,125.87,70.64,125.87,69.44Zm-.28-25.82c.29,3.33-1.48,6.62-1.15,10a86.46,86.46,0,0,1,.24,9.52c0,1.33.49,2.51.34,3.9-.1.94,0,1.88-.09,2.82a5,5,0,0,1-1.27,1.94c-1.16-.42-2.3-.34-2.71,1-1.35,1.71-1.07,5.41-1.14,7.12a13.34,13.34,0,0,1-2,6.29c-.37.61-.71,1.18-1,1.76a.34.34,0,0,0-.14,0c-.12-.13-.28-.33-.36-.41-.39-.45-.84-.83-1.22-1.31a7.43,7.43,0,0,0-2.4-1.66,10.86,10.86,0,0,0,2.21-5.16c.1-1.29-.05-2.62,0-3.92,0-.52.16-1.45.23-2,.19-1.7.14-2.51,1.73-3.44A7.44,7.44,0,0,0,120.06,66c1-2.66-.76-5.51,1.22-7.87,1.29-1.55,1.4-3,1.43-5,0-1.39,0-2.78,0-4.17,0-1.71-.5-3.25-.15-5a29.46,29.46,0,0,1,1.22-3.49c.27-.8.49-1.61.7-2.42,0,.1,0,.21,0,.32C124.79,40.15,125.44,41.8,125.59,43.62ZM112.77,16.74a15.46,15.46,0,0,1-.29-2.64c-.15-1.68-.27-3.37-.5-5-.12-.92-.39-1.81-.59-2.72a15.84,15.84,0,0,1-.35-4.1c.55-2.6,2.57-1.08,3.84.18a.09.09,0,0,0,.06.06h0l.4.42,0,0a9.63,9.63,0,0,1,.74,2.56c.17.9.36,1.75.55,2.64.52,2.38,1.31,4.84,1.61,7.27.13,1,.55,1.93.66,3s.2,1.84.25,2.77c.1,1.71,1,3,1.36,4.59a.53.53,0,0,0,.08.15,3.36,3.36,0,0,0-.17.47c-.76,2.54.35,5.36-1.08,7.8-1.26,2.14-.38,4.54-1.23,6.73a6.88,6.88,0,0,0-.36,1.24A6.28,6.28,0,0,0,116,39.83a.48.48,0,0,0,.07-.34,40,40,0,0,1-.2-4.39,40.58,40.58,0,0,0-1-5.56c-.84-3.56-.74-7.11-1.37-10.69C113.31,18.14,113,17.44,112.77,16.74ZM111,25.29c.08-.54.16-.71.23-1.26l0-.61c-.23-1.09.32-1.62,1.64-1.61a.41.41,0,0,0,.12.11,35.45,35.45,0,0,0,.28,4.36c.42,2.55,1.06,5.06,1.51,7.61.31,1.74.08,3.52.31,5.26l-.56-.41a28,28,0,0,0-3.07-1.49.83.83,0,0,1-.15-.11.1.1,0,0,0,0-.16c-1-1.28-.39-2.86-.41-4.27s-.22-2.56-.22-3.85A22.49,22.49,0,0,1,111,25.29Zm-2.1,4c.4,2.34,1.19,4.44,1,6.87-.07,1.23,1.11,1.83,2,2.29,1.91,1,5,2.31,5.26,4.76a.47.47,0,0,0,.33.38c0,.2-.06.41-.1.62-.23,1.35-.86,2.63-1.22,3.94-.24.84-.41,1.71-.59,2.56a17.1,17.1,0,0,0-3-5.69,12.21,12.21,0,0,0-2.25-2.89,10.31,10.31,0,0,1-2.75-2.16c-.29-.39-.36-.82-.65-1.18,0-.56,0-1.13,0-1.68a10.36,10.36,0,0,0-.38-3,24.44,24.44,0,0,1-1.18-3.23c-.34-2.25-.35-4.52-.6-6.78C107.59,22.57,108.57,27.41,108.88,29.26Zm2.74,29.86A11.39,11.39,0,0,0,111,56a2.25,2.25,0,0,0-.08-.24c.14.19.29.38.42.57a2.53,2.53,0,0,0,.84.88,3,3,0,0,1,1,1l0,0c-.45,2.12-1,4.43-2.49,5.74.27-.56.67-1.17.85-1.65A9.12,9.12,0,0,0,111.62,59.12Zm.45-3a12,12,0,0,0-1-1.29c-.21-1.56-1-4.84,1.11-4.45.9.16,1.37,1.23,2.08,1.71a4,4,0,0,0,.85.43.86.86,0,0,1,0,.16A25.66,25.66,0,0,0,113.74,56c-.09.36-.18.75-.26,1.15l-.13-.11C113,56.72,112.31,56.54,112.07,56.14Zm-2-2.7a7.71,7.71,0,0,1-.4-1.59c-.13-1.15-.21-2.35-.31-3.55a11.8,11.8,0,0,0,.07-1.46,5.56,5.56,0,0,0,0-.91,2.65,2.65,0,0,1,0-1c.06-.19-.24-.32-.32-.14a2.61,2.61,0,0,0-.16.61l-.12-.69a11.84,11.84,0,0,0-.69-2.95c-.09-.18-.19-.36-.29-.54.25.23.9.67,1.1.81a9,9,0,0,1,2.4,2.79c1.46,2.32,3.17,4.15,3.55,6.85-.73-.43-1.29-1.19-2-1.67a1.9,1.9,0,0,0-2.28,0A3.83,3.83,0,0,0,110.11,53.44ZM99.72,14.66c1.82-1.08,3.29.41,3.49,2.17.11,1,.18,2,.23,3a3,3,0,0,0-1.21-.77c-1-.35-2.46.38-3.4,1.18,0-.91-.21-1.8-.19-2.72a5.32,5.32,0,0,0,0-1.44C98.34,15.24,99.24,15,99.72,14.66ZM98.31,52c.22-1.65.64-4,2.5-4.67.26.65.49,1.31.69,2,.59,2,.72,4.16,1.36,6.19a2.68,2.68,0,0,0-1.32,1,8.33,8.33,0,0,1-2.22,2.13c-1.92,1.19-1.51-1.54-1.51-2.06A37.28,37.28,0,0,1,98.31,52ZM94.1,5.86c.62.95-.07,2.76-.32,3.78s-.25,2.44-.48,3.61c-.09-.33-.19-.67-.31-1a7.45,7.45,0,0,0-1-1.67c-.46-.65-.39-1.32-.79-1.93a.17.17,0,0,0-.3.18,2.34,2.34,0,0,1,.13.59c-.29-.95-.58-2-.78-3C90.77,4.52,92.73,3.78,94.1,5.86Zm-8.79-2.1c.16-1.11.69-2.37,2-2.37,2,0,2,2.08,2.08,3.5a8.13,8.13,0,0,0,.23,1.51c0,.27,0,.55,0,.82a.2.2,0,0,0,.26.18c.28.93.64,1.85.94,2.66a.17.17,0,0,0,.25.09s0,0,0,.07a20.71,20.71,0,0,0,1.19,2.23,14.62,14.62,0,0,1,.71,5.1,61,61,0,0,0,.81,10.55,78.76,78.76,0,0,1,1.42,11,18.1,18.1,0,0,0,.61,4.46c.42,1.37,1.11,2.64,1.61,4,0,.21,0,.41.06.62,0,.42.22.78.28,1.19a.26.26,0,0,0,.12.19,1.8,1.8,0,0,0-.08.21,24,24,0,0,0-.9,7.41c0,1.32,0,2.52,1.69,2.52a2.89,2.89,0,0,0,1.76-.75c.74-.63,1.77-2.27,2.75-2.67a13.58,13.58,0,0,1,.8,3.7c0,.29,0,2.57-.87,1.86a2.33,2.33,0,0,0-1-.59c-1.29-.47-2.23.76-2.63,1.77a3.82,3.82,0,0,0,.51,3.05,8.33,8.33,0,0,0-1,2.69c-.15.89.47,3.18-.41,3.87-.22-.05-.43-.11-.66-.14-2.58-.44-5.5.54-8-.2l.09-.17a13,13,0,0,0,1.25-2.78.45.45,0,0,0,.14-.11,25,25,0,0,0,2-2.13,14.94,14.94,0,0,0,1.53-4.54,12.38,12.38,0,0,0-1.3-9.06,16.67,16.67,0,0,0-1.28-1.75c-.25-.28-.5-.58-.74-.88-.72-.88-.07-1.51.31-2.2a6.15,6.15,0,0,0,.85-3.83c-.27-1.67-1.19-2.67-2.06-4.07a16.06,16.06,0,0,1-1.73-5c-.39-1.54.15-2.91-.81-4.29-.5-.73.13-2.07.29-2.83a14.32,14.32,0,0,0,0-2.62c0-2,.38-4,.56-6a14.12,14.12,0,0,0-.84-5.42A8.13,8.13,0,0,0,87.16,13a11.19,11.19,0,0,1-1.4-3.46A14.75,14.75,0,0,1,85.31,3.76Zm16.31,77.18A13.59,13.59,0,0,0,97,80.63a.4.4,0,0,0-.34.2,26.57,26.57,0,0,0-3-2.11c-1.2-.81-2.35-1.7-3.47-2.63s-1-2.23-.46-3.43a13.22,13.22,0,0,0,5.52.61,11.54,11.54,0,0,1,8.25,3,.44.44,0,0,0,.23.09c0,1.68-.05,3.37-.07,5,0,.26,0,.52,0,.77A5.59,5.59,0,0,0,101.62,80.94Zm1.89,1.81c-.05.47-.09.94-.1,1.42,0,1.58-1.14,2.76-1.83,4.07a5.38,5.38,0,0,0-.24.55c-.55-.84-.65-2.29-1-3.15a7.47,7.47,0,0,0-1.44-2c-.62-.69-1-1.44-1.6-2.13a20.78,20.78,0,0,1,3.78.18A6.29,6.29,0,0,1,103.51,82.75ZM101.77,74c.16-.46.27-1,.43-1.4s.31-.71.46-1.07a4.18,4.18,0,0,0,.16-.58,14.84,14.84,0,0,1,.82,4.37A18.56,18.56,0,0,0,101.77,74Zm.44-3.9c-.26.75-.54,1.54-.73,2.31a7.12,7.12,0,0,0-.28,1.26A10.79,10.79,0,0,0,99,72.78,3.31,3.31,0,0,0,99.61,71c.13-.81,0-1.62.15-2.42A7.22,7.22,0,0,1,100.4,67c.33.51.67,1,.95,1.32a9.69,9.69,0,0,1,1,1.63A.48.48,0,0,0,102.21,70.1ZM86.47,37.63c-.65-1.88-.84-3.94-1.47-5.86-.72-2.14-.34-4.36-.32-6.58a14.45,14.45,0,0,0-.11-2.79A33.79,33.79,0,0,1,83.78,19a40.53,40.53,0,0,0-.65-5.6A9.47,9.47,0,0,0,82.18,11a3.8,3.8,0,0,1-.56-2.35l2-1.28c.08.09.15.14.21.14a.18.18,0,0,0,.07,0,.24.24,0,0,1,.08.06h0a1.18,1.18,0,0,1,.24.78.32.32,0,0,0,.4.34,16.31,16.31,0,0,0,2.1,5.22c2.56,4.1.67,9.52.77,14,0,1.48-.92,2.58-.23,4,.8,1.64.64,3.79,1.1,5.61a10.22,10.22,0,0,0,.53,2.13,15.93,15.93,0,0,0,1.53,2.45c1.72,2.38,1.6,4.6,0,7.07-.71,1.11,0,1.83.7,2.69a10.81,10.81,0,0,1,2.92,7.23,17.87,17.87,0,0,1-.81,5.5c-.31-.44-.68-.84-1-1.28-.4-.59-.69-1.33-1.13-1.88-1.69-2.11.82-3.2.89-5.16.07-2.19-1.77-4.16-3.88-2.73a1,1,0,0,1-.49.17c-.16-1.73-.78-3.4-.74-5.13,0-1.95.4-3.85.43-5.8A14.35,14.35,0,0,0,86.47,37.63ZM84,61.9a18.09,18.09,0,0,1,1.65-4.13c.29-.71.47-3,1.52-3.09a.7.7,0,0,0,.25,0h.1c1.23.34,1.88-2.05,3.28-.09s-1.42,3.67-1.12,5.74S92,63.87,92.9,65.72c0,0,0,0,0,0A8,8,0,0,1,91.23,68a4,4,0,0,0-.16-.71,2.69,2.69,0,0,0-2.56-2.24A4.67,4.67,0,0,0,85,66.42C83.73,65.49,83.82,63.24,84,61.9ZM76.38,22c.15-1-.08-1.83.42-2.86.73-1.45,2.35-1.25,3.26,0A9,9,0,0,1,81.12,23a38.32,38.32,0,0,1-.17,6.6,28,28,0,0,0,.68,5.76,14.8,14.8,0,0,1,.12,5.51,8.62,8.62,0,0,1-1.54,2.72,9.55,9.55,0,0,0-1.34-5.76c-.54-.94-1.38-2-2.51-2.14,0-1,0-5.06,0-5.42,0-.9.06-1.79.07-2.68s-.31-1.84-.38-2.81A14.34,14.34,0,0,1,76.38,22Zm-8,15.72a20.91,20.91,0,0,1-1.1-4.32,17.25,17.25,0,0,0-.52-2.12c-.58-2.15,1.29-2.83,2.75-1.52A6.31,6.31,0,0,1,71,32,14.64,14.64,0,0,0,72.27,34a27.53,27.53,0,0,1,1.49,3.66,15.48,15.48,0,0,0-1.2,2.19c-.91,2-.78,4.45-.78,6.61a13.79,13.79,0,0,1-.56,4,6.14,6.14,0,0,0,.56,3.26c.62,1.82,2.28,3.39,1.77,5.4-1,.32-1.63.08-1.88-.7a12.59,12.59,0,0,1-.8-2c-.26-.73-.65-1.46-1-2.16,0-1.08-.06-2.14,0-3.23,0-1.64.5-3.24.53-4.89a25.63,25.63,0,0,0-.65-3.77A21.77,21.77,0,0,0,68.38,37.69ZM65,66.61c-2-.13-3.19-2.25-4.42-3.55-2.19-2.29-3-5.59-4.41-8.33a17.12,17.12,0,0,0-2.11-3c-1.14-1.37-3.15-2.55-3.19-4.46a4.57,4.57,0,0,0-1.17-2.39,4.21,4.21,0,0,1-1.26-3.07c0-.85-.06-1.7-.1-2.54a19.74,19.74,0,0,0-2.1-8.1,12.1,12.1,0,0,1-1.52-4.69c0-1.78.14-3.58,0-5.35a24.46,24.46,0,0,0-1-3.83c-.49-1.83-.16-3.62-.09-5.47a43.43,43.43,0,0,1,.83-5.33q.12-.65.27-1.29c.38-1.48,1.5-1.95,3.34-1.4a3.72,3.72,0,0,1,1.06,1.66.17.17,0,0,0,0,.1c0,2.1-.35,4.18-.38,6.29a7.84,7.84,0,0,0,.69,2.49,10.72,10.72,0,0,1,.19,3.75,40.45,40.45,0,0,0,.62,6.66c.27,2.16-.18,3.81,1,5.78a16.39,16.39,0,0,1,2.17,8A47.92,47.92,0,0,0,54,45.08c.36,1.88,1.59,2.85,2.51,4.44a8.89,8.89,0,0,0,2.06,2.39c.6.51,1.44.93,2,1.44.14.49.3,1,.49,1.47.78,2,2,3.8,2.93,5.75a64.32,64.32,0,0,0,3,5.82l.27.41A20.16,20.16,0,0,0,65,66.61Zm-22-9c-.74-.81-2.14-1-3.13-1.37a9.25,9.25,0,0,1-5-4.5,13.65,13.65,0,0,1-.33-3.08c-.12-1-.32-2-.44-2.94-.51-3.93-1.8-7.82-1.92-11.81-.06-2-.41-4.05-.41-6.08a33.2,33.2,0,0,0,.07-4.57c-.29-2,.93-4.58,2.93-5.26,1.75-.6,3,5.07,3.08,6.09.3,4-1.18,7.76-1.28,11.75a18.64,18.64,0,0,0,1.52,8.89,9.17,9.17,0,0,0,3.25,3.12c.65.47,1.3,1.1,2,1.51s1.91.59,2.48,1.41a4.37,4.37,0,0,0-.84,1.63c-.28,1,.15,2.33.21,3.39a18.9,18.9,0,0,0,.31,2.91c.09.41.15.82.21,1.24A21.32,21.32,0,0,1,43,57.62ZM94.78,130.2c-.35-.76-.66-1.54-1-2.3-.43-.93-1.16-1.5-1.65-2.38a5.79,5.79,0,0,0-2.2-2.54,14.12,14.12,0,0,1-4.48-3.41A13,13,0,0,0,82.23,117c-.67-.43-1.2-1-1.84-1.51-.8-.6-1.78-1-2.61-1.53a5.53,5.53,0,0,0-2-.7,15.54,15.54,0,0,1-3.07-1.14,5.2,5.2,0,0,0-3.62.18c-3.54,1.1-4.8,6-9.11,4.87a6.09,6.09,0,0,1-2.53-1.65c-1.34-1.23-1.27-2.36.7-3,1.35-.44,2.81,0,4.21-.41s4-1.94,2.6-3.73c-.6-.78-3.25-1.82-4.56-1.39a.38.38,0,0,0-.51-.06c-.8.5-2.91-.08-3.86-.08-2.18,0-4.7-1.24-6.65-2.09a4.9,4.9,0,0,1-2.26-2.28c-.41-.72-1.23-1.37-1.73-2.07-.89-1.24-2.56-1.66-4-2s-3.48,0-4.92.1a50.39,50.39,0,0,1-5.9.39c-1.85-.13-3.74.28-5.57.08-2.14-.24-3.69-1.16-5.66-1.89-1.69-.62-3.48-.85-5.2-1.4a6.14,6.14,0,0,1-2.91-1.3,3.63,3.63,0,0,0-1.52-1c-.9-.32-1.22-1.18-2-1.56-1-.47-1.46-1.67-2-2.58-.92-1.66-2.2-3-3.22-4.61-.51-.8-.11-2.28-.24-3.19a26.31,26.31,0,0,0-.48-3.06C1.17,75.85.41,73.81.78,71.13A12.52,12.52,0,0,1,1.92,68.3a25.21,25.21,0,0,0,.86-3.12,18.72,18.72,0,0,1,.82-3.36,6.73,6.73,0,0,1,2.19-2.41c1.36-.11,1.83,1,2.44,2a4,4,0,0,0,.8.79,3.36,3.36,0,0,1,1,3.11c-.13,2-1.17,2.95-2.2,4.47-.35.53-1,1.32-.75,2,.29,1.08.44,2.07.67,3.16a13.45,13.45,0,0,0,1,3.42c.65,1.31,1.64,2.52,2.18,3.85a20.58,20.58,0,0,0,1.19,3.27,4.68,4.68,0,0,0,1.85,1.44c1,.53,1.75,1.46,2.82,1.8s2.27.71,3.39,1.14a21.5,21.5,0,0,0,4.16.77c1.41.25,2.84.25,4.23.58s2.94.15,4.31.91c2.1,1.17,3.49,2.4,6,2.29a.42.42,0,0,0,.4-.28,25.45,25.45,0,0,0,2.1,1.79.43.43,0,1,0,.52-.68,12.71,12.71,0,0,1-4.25-5c-1-2.56,0-4.79,0-7.38a.25.25,0,0,0-.21-.26,5.08,5.08,0,0,1,1-2.06,4.43,4.43,0,0,0,1.2-1.82c.43-1.82.56-7.58,3.73-6.16C44.43,73,45.18,75,45.52,76a10.45,10.45,0,0,1,.4,5.17c-.17,1-.33,1.91-.45,2.88-.16,1.32-.82,2.67-.84,4a12.84,12.84,0,0,0,.1,2.32c.14.9,1.09,1.67,1.6,2.35.91,1.2,1.65,2.82,3.1,3.43a14.28,14.28,0,0,1,3.78,2,6,6,0,0,0,2.22,1.19,26,26,0,0,0,6.88.52.35.35,0,0,0,.11,0,16.64,16.64,0,0,0,2.22.68,16.73,16.73,0,0,1,3.42.83,41,41,0,0,1,4.16,1.74c1,.47,1.59,1.27,2.63,1.64a5.69,5.69,0,0,1,2.92,1.89,14.69,14.69,0,0,0,2.43,2.49,3.53,3.53,0,0,0,3.59.17c.68-.44.41-1.46-.09-1.88a8.58,8.58,0,0,1-2.26-2c-.57-.87-1.18-1.75-1.83-2.57-.91-1.16-2.3-1.69-3.16-3s-.58-3.51-.26-4.83l0-.09a6.65,6.65,0,0,1,.23.76c0,.24.4.14.36-.1a5.44,5.44,0,0,0-.43-1.29,6.79,6.79,0,0,0,.28-2.48,16.51,16.51,0,0,0-1-3.1C75,86.71,73.11,85.61,71.9,84a4.6,4.6,0,0,0-4.15-2.29,10.41,10.41,0,0,0-2.29.29,13.57,13.57,0,0,1-4.36,0c-3-.31-5.4-1.25-6.89-4.09-1-1.9-1.34-3.52-3-5-.92-.87-1.75-1.86-2.62-2.79A23.12,23.12,0,0,1,47,68.34a4.76,4.76,0,0,1-.41-2.59c0-1.61,0-3.28-.15-4.91a.33.33,0,0,0,0-.24,20.23,20.23,0,0,0-.3-2.07c-.23-1.13-.21-2.3-.38-3.44-.26-1.84-.42-4,1.59-5,1.45-.57,2,1,2.86,2,1.08,1.32,2.33,1.91,2.43,3.83,0,.84-.09,1.42.41,2.13.88,1.25.7,2.55.74,4a4.59,4.59,0,0,0,.78,2.45c1,1.47.19,2.36.56,3.78.55,2.12,3.38,2.16,4.79,3.59a11.67,11.67,0,0,0,5,3.48c.89.29,1.89,0,1.91-1.11,0-.09.06-.5-.05-.64-.66-.9,1.33,0,1.37,0,1.12.59,1.9,1.88,2.81,2.73a2.2,2.2,0,0,0,1.59.63c.26,0,2.1.8,2.15,1.25a.39.39,0,0,0,.12.24,3.41,3.41,0,0,0,.32,1.42c.67,1.43,1.1,3.33,2.22,4.5.37.37.94-.2.58-.58-1-1-1.18-2.6-1.72-3.87a4,4,0,0,1-.59-2.52,6.58,6.58,0,0,0,0-2.5,8.48,8.48,0,0,1,.86.94.14.14,0,0,0,.11.06c1,.88,2.33,1.62,2.33,3.18,0,.76-.14,1.32.34,1.92.33.4,1.27.28,1.65.22,1.8-.28,1.34.88,1.44,2.13.13,1.45,1.46,1.6,2.59,1.1a2.23,2.23,0,0,0,.58-.45c3,.6-.68,4.86-1.23,6.38-.65,1.79-.4,3.82-.42,5.68A6,6,0,0,0,85.62,100c.82,1,1.59,2,2.35,3a21.84,21.84,0,0,1,1.33,2.75,41.08,41.08,0,0,1,2.89,6c.58,1.72.67,3.68,1.48,5.33a10.42,10.42,0,0,0,3.22,3.58,11.76,11.76,0,0,0,2.27,1.27c1.19.52,1.73,1.63,2.4,2.64-2,1-4.31,1.61-5.4,3.64a7.08,7.08,0,0,0-.42,2.26c-.08.66-.15,1.31-.23,2A12.13,12.13,0,0,0,94.78,130.2Zm10.75-24.71a8.56,8.56,0,0,1,.59,2.59,14.29,14.29,0,0,1-1.23,6,8.89,8.89,0,0,0-.64,4c0,1-.38,2.39.09,3.3a.17.17,0,0,0,.14.1,4.48,4.48,0,0,1-2.16,2.61c-.94-1.35-1.55-2.45-3.16-3.16a9.21,9.21,0,0,1-5.1-5.39,50,50,0,0,0-1.68-5.76c-1-2.26-2.43-4.31-3.35-6.62-.77-1.92-2.73-3.36-3.78-5.11-1.19-2-.89-5.84-.13-8,.46-1.29,2.82-2.88,2.37-4.5-.3-1.07-.71-1.77-1.65-1.87.49-.47,1-.91,1.58-.6a11.5,11.5,0,0,1,4.31,3.51c.68,1,1.49,1.9,2.26,2.82,1.12,1.34,1.35,2.6,1.91,4.19A25.38,25.38,0,0,0,97.26,97c.79,1.51,2.17,2.63,3,4.08a5.58,5.58,0,0,0,4.19,2.62,5.25,5.25,0,0,0,.88-.09h0a0,0,0,0,1,0,0C105.78,104.38,105.33,104.84,105.53,105.49ZM181,70.12a15.43,15.43,0,0,0-.77,5.7,10.3,10.3,0,0,0,0,2.66,5.07,5.07,0,0,1-.59,3.81c-1.08,2.26-1.06,4.83-3.13,6.51-1.6,1.3-3.29,3.91-5.45,4.09-2.37.19-4.77.12-7.14.12a35.37,35.37,0,0,0-12.09,1.8c-1.86.68-3.43,1.8-5.34,2.39a10.25,10.25,0,0,0-3.65,1.88h0a2.47,2.47,0,0,0-2.6-.15c-.5.22-.07,1,.43.73.92-.42,2.63.65,3.62.78a19,19,0,0,0,3.69,0,8.63,8.63,0,0,0,5.29-1.95c.52-.39,1-.82,1.52-1.21l.81-.4c1.5-.28,2.14.64,1.93,2.78a19,19,0,0,1-3.1,2.61,22.31,22.31,0,0,1-3.24,2.21c-1.59.9-3.88,2.08-5.72,1.27a33.19,33.19,0,0,0-6.73-1.61c-1.65-.33-3.7-.3-5.06.85-2.09,1.76-3.55,4.13-6.34,4.86a7.09,7.09,0,0,0-3.55,2.22.25.25,0,0,0-.39.07c-1.67,3.39-6.88,3.27-8.19,6.72-.53,1.38-1.75,3.57-1.76,5.08a37.57,37.57,0,0,0,.38,5.9c.26,1.7-.34,4.09.43,5.68,1,2,2.31,3.47,2.23,5.85s-1.2,4.46-1.52,6.72a6.59,6.59,0,0,0,0,2.17,20.24,20.24,0,0,1,.17,4.47.43.43,0,0,0,.52.43h0c1.11.23,8.88,3.61,9.92,4.07,1.61.7,1.6,2.82,1.93,4.3a16,16,0,0,0,3,6.18,17,17,0,0,0,5.7,4.19,33.37,33.37,0,0,0,7.26,2.87c2.79.7,5.11,2.63,7.18,4.54,1.88,1.75,4.68,1.75,6.67,3.36s1,4.31,2.13,6.33c1,1.8.26,3.29-.9,4.69-.79,1-2.95,1.4-4.06,2s-2.22,1.5-3.37,2.18c-1,.57-2.17.82-3.18,1.35a10.4,10.4,0,0,0-4,4.18c-1.44,2.48-1.71,4.81-4.53,6.23a10.27,10.27,0,0,0-2.37,1.65,3.93,3.93,0,0,1-2.46,1.23,13,13,0,0,0-1.87,0,5.14,5.14,0,0,0-2,1.09c-1,.78-2.76.43-4,.72a7.07,7.07,0,0,0-2.29,1.39,4,4,0,0,1-5,.29,4.09,4.09,0,0,0-2.26-.44,12.11,12.11,0,0,1-3.69-.48,5,5,0,0,0-2.24-.21,13.86,13.86,0,0,0-1.62.52,6.7,6.7,0,0,1-2.82,0c-2.69-.27-5.07,1-7.76.44a70.76,70.76,0,0,0-7.57-.72,13.23,13.23,0,0,0-3.26.22c-1.31.2-2.33-.23-3.6-.27-1,0-1.89.48-2.89.46-1.19,0-2.06-.55-3.26-.31-2.59.51-4.83-1.29-7.44-1.31s-4.3-2.45-6.94-2.77A66,66,0,0,0,55.9,213c-3.06,0-6.06.73-9.13.78s-7-.68-8.14-3.9a12,12,0,0,0-1.07-2.43,3.05,3.05,0,0,0-.77-.75c-1-.77-.46-2.06-.18-3,.5-1.75,1.06-3.33.07-5a5.2,5.2,0,0,0-1.74-1.48c-2.47-1.55,0-4,.94-5.23a8.14,8.14,0,0,0,1.32-2.46c.36-1.15-.06-1.94,1.3-2.87a14.31,14.31,0,0,1,1.56-.8,8.56,8.56,0,0,0,2.54-2c.79-.93,2.39-.36,3.39-.26a15,15,0,0,0,7-.79,18.15,18.15,0,0,0,3.16-1.7,28.57,28.57,0,0,1,4.07-1.76c3.46-1.47,6.37-3.82,9.81-5.31,1.23-.53,1.21-1.73,1.39-2.88.15-1,1.45-2.12,2.12-2.86s1.39-1.5,2.07-2.27c.33-.36.94-.7,1.14-1.16a7.9,7.9,0,0,1,1.18-2.42c1.4-1.42,4.26-1.85,6.17-1.94.75,0,1.33.43,2,.53a5.4,5.4,0,0,0,2.12-.15,5.28,5.28,0,0,0,3-2.26,3.7,3.7,0,0,1-.2,2.45,11.42,11.42,0,0,1-1.67,2,.38.38,0,0,0,0,.49,3.6,3.6,0,0,0-.5,1.3,9.63,9.63,0,0,1-2.07,1.62c-1.16.62-2.46.4-3.44,1.32-1.22,1.15-.34,2.67.89,3.16a14.89,14.89,0,0,1,4,2.48,3.55,3.55,0,0,0,2.55.58c1.92,0,3.61-2.88,4.34-4.28s2.07-1.65,3-2.72c.68-.81.64-2.5,1.46-3.11a.42.42,0,0,0,.18-.3c1-1,1.58-3.2.82-4.39a4.22,4.22,0,0,0-4.77-1.31,7.61,7.61,0,0,0-2.62,2.33,10.64,10.64,0,0,0-1,1.45c-.47.83-1.26,1.2-1.94,1.8l-.45.42a.83.83,0,0,1,.24-.4.1.1,0,0,0,0-.13,7.2,7.2,0,0,0,2-3,4.81,4.81,0,0,0,0-1.89,17.72,17.72,0,0,1-.31-4.11c0-1.89.93-3.52,1.16-5.36a29.3,29.3,0,0,1,.56-3.72,18.33,18.33,0,0,0,.77-2.79,31.72,31.72,0,0,1,1.3-6.47,20.21,20.21,0,0,0,.8-3.44c.21-1.54,0-3.63,1.09-4.88a10.57,10.57,0,0,1,2.92-1.69,16,16,0,0,0,2.87-1.7,4.48,4.48,0,0,0,2-4.19.21.21,0,0,0-.42,0,6.4,6.4,0,0,1-.08.79,5,5,0,0,1,.15-1.55c.13-1,0-2.06.06-3.06a7.09,7.09,0,0,1,.81-2.53c.36-.89.56-1.82.87-2.73a8.2,8.2,0,0,0,.18-4.17,6.44,6.44,0,0,1-.45-2.29,2.06,2.06,0,0,0-.16-1,4.27,4.27,0,0,1,2.9,1.59c1.39,1.38,2.69,2.55,3.2,4.51a.2.2,0,0,0,.38-.1c-.55-2.72-2.68-4.42-4.55-6.3a2.18,2.18,0,0,0-1.74-.46,8.49,8.49,0,0,1-2.61.17c-.65-.12-1.64-1.15-2.16-1.63a20.61,20.61,0,0,1-5.13-8.46,11.62,11.62,0,0,0-1.18-3.1c-.75-1.08-1.6-2.14-2.45-3.14-1.63-1.92-3.28-4-5.89-4.77a1.13,1.13,0,0,0-1.25.55c-.39.62-.62,1.15-1.37,1.41-1.41.49-1.16-1.55-.89-2,.8-1.4-1.21-1.57-2.06-1.43-2.51.42-1-1.69-1.82-3a12,12,0,0,0-2.38-2.16.41.41,0,0,0-.59,0c-1.26-1.81-3.29-3-4.76-4.67a34.24,34.24,0,0,1-5.41-7.32c-1.16-2.31-2.37-4.58-3.56-6.87a21.52,21.52,0,0,1-1.32-3.13.4.4,0,0,0-.07-.52l-.13-.11a23.75,23.75,0,0,1-.93-5.75c-.11-2.38-1-4.66-1.42-7a27.37,27.37,0,0,1-.26-4.61c0-.58,0-1.16,0-1.75.08-1.8,2-1.74,3.11-1.45,2.33.62,2.88,2.86,3.25,5,.15.86.27,1.73.45,2.59.26,1.21,1,2.18,1.3,3.35a66.44,66.44,0,0,1,1.33,7.25,25.64,25.64,0,0,0,1.46,4.93c0,.06,0,.13,0,.2a.14.14,0,0,0,.11.12c.25.67.52,1.35.78,2.06s1.17,3.21,2.45,3a2.06,2.06,0,0,0,1.6-2.17c.11-2-1.49-3.76-2.13-5.63a5.49,5.49,0,0,1,.2-3.75,16.37,16.37,0,0,0,0-4,14.26,14.26,0,0,1,.56-4.4A12.11,12.11,0,0,1,75,37.54c1.36-2,2.66,0,3.4,1.27a8.51,8.51,0,0,1,.8,5.61,27.18,27.18,0,0,0-.59,4.75c0,1.62-.33,3.58.23,5.12.62,1.74,1.8,3,1.94,4.92.17,2.4-2.45,2.46-3.69,3.76-1.65,1.72-.57,5,.51,6.65a5.37,5.37,0,0,0,1.29,1.27c.54.44,1,1.18,1.63,1.49a2.85,2.85,0,0,0,2.9-.18,3,3,0,0,0,1.7-2.11,11.44,11.44,0,0,0,0-1.85c-.07-1.95,3.61-3.41,4.75-1.58,2,3.21-2.38,5.31-1.52,8.44.37,1.34,2.07,2.35,3.07,3.13,1.52,1.17,3.21,2.12,4.73,3.29a9,9,0,0,1,1.66,2.13,21.38,21.38,0,0,1,1.72,2.29c.62,1.18.42,2.69,1.38,3.68l.07,0c-.38,1.54-.29,3.21-.52,4.79,0,.19.26.28.3.08.55-2.38.53-4.88,1.87-7s1.44-3.83,1.57-6.24a35.42,35.42,0,0,0,0-6.83c-.26-1.85-.57-4.19-1.65-5.76-.61-.89-1.29-1.66-1.82-2.57a.37.37,0,0,0-.27-.5c-.06-.13-.13-.27-.18-.41l-.18-.57q-.77-2.17,2.38-2.28a2.34,2.34,0,0,0,.53.39c1.52.33,1.62-1.69,1.61-2.77,0-2.33-1.21-4.31-1.65-6.55s-.39-4.6-1.51-6.48a21.34,21.34,0,0,1-2.85-7.39,72.45,72.45,0,0,1-.09-8.72c0-1.42,0-2.85,0-4.27s-.53-2.77-.26-4.25c.38-2.06,3.7-3.35,5-1.4.84,1.21.8,3.44,1,4.88.26,2.28-.09,4.65.82,6.82a10.67,10.67,0,0,1,1.1,3.84,15.5,15.5,0,0,0,.21,3.54c.32,1.13,1.2,1.95,1.44,3.14a29.29,29.29,0,0,1,.44,4.29c.06,1.24.34,2.51.5,3.74a17.24,17.24,0,0,0,1,3.37,19,19,0,0,1,1.06,5.15,6.55,6.55,0,0,1-.35,3.21c-.31.7-.7.87-.8,1.63a.41.41,0,0,0,.14.39c-.76,1.21-.55,2.81-.56,4.31a.24.24,0,0,0,.48,0c.09-1.49-.06-3.59,1.23-4.57a4.46,4.46,0,0,0,1.43-1.56c1.2-2.25,1.57-5.08,2.17-7.53a14.83,14.83,0,0,1,1.07-2.49.35.35,0,0,0,.25-.36l.11,0c.5,0,.51-.68.07-.79.38-1.19.56-2.45.85-3.66s.88-2.61,1.22-3.94a30,30,0,0,1,.88-3.81,8.65,8.65,0,0,0,.21-2.87,9.67,9.67,0,0,1,1.29-4.22,10.65,10.65,0,0,0,.43-2.85,17.83,17.83,0,0,0,0-1.79c0-.4,0-.81,0-1.21-.16-1.38.62-2.05,2.33-2,3.78,4.9.42,12-1.23,17-.82,2.5-.19,4.48-.2,7,0,1.33,0,2.66,0,4a6.82,6.82,0,0,1-1.58,4.3c-1.27,1.79-.76,3.66-.69,5.69a7.12,7.12,0,0,1-1.3,4c-.79,1.25-2.15,1.72-3.2,2.67a2.57,2.57,0,0,0-.76,1.81c0,1.35-.23,2.67-.29,4a27.27,27.27,0,0,1-.16,4.43c-.3,1.48-1.54,3-2.38,4.22A4.48,4.48,0,0,0,110.41,87a14.05,14.05,0,0,1-.38,3.71,11.34,11.34,0,0,1-1.49,3.53,6.32,6.32,0,0,0-1,2.9,3.06,3.06,0,0,0,.51,2.41c.38.42,1-.2.62-.62-.83-.9-.29-2.39.41-3.79a15.44,15.44,0,0,0,2.68,2.61,3,3,0,0,0,1.67.87l.12,0a.16.16,0,0,0,.09,0c1,.34,1.37,1.3,2.12,2,.34.3.85-.2.5-.5s-.88-1.07-1.34-1.53a2,2,0,0,0-.84-.53,9.73,9.73,0,0,0-.53-4.15,6.42,6.42,0,0,0-2.59-3.22s0,0,0,0a11,11,0,0,0,.3-1.29c.27-1.56.06-2.79,1-4.18l.19-.27a16.22,16.22,0,0,1,1.82,1.39,8.89,8.89,0,0,1,.79,1,9.93,9.93,0,0,0,.72.73,3.44,3.44,0,0,0,.71.61,7.15,7.15,0,0,0-.41,1.74c-.06.56.81.55.87,0a10.82,10.82,0,0,1,2-4.5,18.32,18.32,0,0,0,1.56-4.06,17.75,17.75,0,0,0,.23-4.44,10.46,10.46,0,0,1,.5-4.14.24.24,0,0,0,.12-.14,1.33,1.33,0,0,1,.09-.21,1.56,1.56,0,0,1,.43-.42.22.22,0,0,0,.1-.15,1.81,1.81,0,0,1,1.41.1.48.48,0,0,0,.53.26,9.06,9.06,0,0,1,1.24.85,4.84,4.84,0,0,1,1.48,2.53c.52,1.76-1.12,3.93-1.72,5.54a13.42,13.42,0,0,0-.54,4.37c0,2.25-1.11,3.47-2.23,5.21-1.76,2.71-2.48,5.83-3.5,8.87s.49,5.57.49,8.57a.44.44,0,0,0,.52.44.49.49,0,0,0,.72-.08,14.29,14.29,0,0,1,3.28-2.85,28.74,28.74,0,0,0,2.39-2.42c1.77-1.68,3.37-3.71,5.44-5a.47.47,0,0,0,.34-.2c.18-.1.36-.2.55-.29a31.59,31.59,0,0,0,6-4.1,6.51,6.51,0,0,0,.86-.88s.06-.06.09-.09a3.45,3.45,0,0,1,.26-.28c.73-.74,1.37-.78,2.16-1.34a9.54,9.54,0,0,0,2.18-1.7c1.12-1.49,2.54-3.11,2.18-5.11A15.84,15.84,0,0,0,143.37,78c-.87-1.23-.86-3-1.26-4.39-.33-1.14-.72-2.43-1-3.58-.5-2.43-1.2-8.58,1.92-9.57a.09.09,0,0,0,.06,0c1.55-.22,3.24,3.54,3.89,4.45a7,7,0,0,1,1.31,4.45,15.72,15.72,0,0,0,.13,3.07,15.08,15.08,0,0,0,.95,2.69c.44,1.07.29,2.21.59,3.3a13,13,0,0,1,.62,3.45c0,.71.43,1.36.39,2s.83.56.86,0c.06-.91-.38-1.54-.37-2.42h0c.72-2.12,2.6-3.33,4.18-4.93.76-.77,1.05-2.55,1.19-3.57a23.59,23.59,0,0,0,.58-3,12.76,12.76,0,0,0-.15-2.47c-.34-1.76-.36-3.58-1.15-5.21a9.38,9.38,0,0,0-1.3-1.77,12.6,12.6,0,0,1-1.15-2.22,5.66,5.66,0,0,1-.72-4.16c.22-1,.69-1.93.84-3a42.13,42.13,0,0,0-.07-11.92c-.3-2.08.38-4.49-.12-6.5a19.41,19.41,0,0,1-.37-2.83,17.82,17.82,0,0,1-.51-2.29,8.1,8.1,0,0,1,.12-1.55c.2-1,2.33-.22,2.76,0,1.46.72,1.68,2.49,1.75,3.91.12,2.17.48,4.34.51,6.51a41.54,41.54,0,0,0,.44,5.57,20.26,20.26,0,0,1,.65,3.64c0,1.15-.72,2.25-.94,3.36-.37,1.83.16,3.31.24,5.09,0,1,0,2,.12,3s.64,2,.65,3.13a.4.4,0,0,0,.41.42,17.07,17.07,0,0,0-.09,2.77c.17,2.87.84,5.71,1.13,8.57.17,1.74.23,3.51.35,5.26a11.05,11.05,0,0,1-2.92,5.79c-1,1.27-.77,2.94-1.43,4.31a3.4,3.4,0,0,0-1.82.45c-.43.31,0,1,.42.72a3.6,3.6,0,0,1,1.56-.51.37.37,0,0,0,.41-.05,3.36,3.36,0,0,0,1.7-.55.44.44,0,0,0,.45-.18c.62-.87,1.6-1.28,2.17-2.17a6,6,0,0,0,.93-2.6c.16-1.24-.43-2.61-.5-3.86a37,37,0,0,0-.19-3.94c-.49-3.14-.78-6.3-1.3-9.43-.47-2.86.12-5.61.1-8.42,0,0,0,0,0,0a9,9,0,0,1,.57-2.61c.25-.79.17-1.6.5-2.4s2.12-3.23,3.29-1.56c.67,1,.41,2.46.44,3.58a18.78,18.78,0,0,0,.91,5.08,12.85,12.85,0,0,1,.4,5.91A98.66,98.66,0,0,0,166,75c0,.85-.21,1.71-.21,2.55a9.09,9.09,0,0,0,.67,2.45c.55,1.94.34,4.42.32,6.41a.41.41,0,0,0,.48.42.34.34,0,0,0,.47-.19A4.34,4.34,0,0,1,170.81,84a3.2,3.2,0,0,0,1.41-.9c1.33-1.27,1.73-3.6,2.2-5.27.56-2,1.41-3.53,1.62-5.6.26-2.62-.26-5.35.15-7.93.32-2-.12-4,1.4-5.63,1.13-1.21,2.23-.51,2.82.77s1.34,2.45,1.34,3.72c0,1,.24,2.05.33,3.07A8.09,8.09,0,0,1,181,70.12ZM91.67,163.46c1.32-1.05,1.94-2.63,3.07-3.89s2.71-1.09,4.13-.74c1.7.42,1.4,3.14.45,4.26a.36.36,0,0,0-.25.08c-.94.71-.95,1.89-1.43,2.91a4.41,4.41,0,0,1-2.1,1.76,4.39,4.39,0,0,0-1.2,1.49c-1.08,1.71-2.12,3.92-4.49,3.86-.77,0-2.26-1.27-3.11-1.65s-1.09-1.07-1.88-1.24c-1.1-.09-1.06-.89.13-2.4a5.28,5.28,0,0,0,1-.23,7.85,7.85,0,0,0,2.1-1C89.42,165.81,90.46,164.43,91.67,163.46Zm19.08-72.24a8,8,0,0,1,2.18,3.1,7.87,7.87,0,0,1,.41,3.62l-.11,0c-.71-.15-1.47-1-2.09-1.48a6.66,6.66,0,0,1-1.87-1.67,15.29,15.29,0,0,0,1.16-2.42C110.53,92,110.64,91.6,110.75,91.22ZM161,79.15c0,.29.07.57.11.86.26,1.87.57,3.31-.71,4.93-.58.75-1.37,1.08-1.94,1.88a.42.42,0,0,0-.07.25,2.58,2.58,0,0,1-1,.26,5,5,0,0,0,.31-1.56,6.81,6.81,0,0,1,1.79-3.44A7.22,7.22,0,0,0,161,79.15Z"/><path class="cls-2" d="M111.75,175c-1.25.23-2.48,0-3.72.27-2.18.44-3.89,2-5.73,3.12a8.42,8.42,0,0,1-3.43,1.09c-1.21.2-3.06-.86-4.18-1.58-1.59-1-3.49-.48-5,.72-1,.87-1.24,1.92-1.77,3.14-.37.83-1.25,1.22-1.86,1.85s-1.07,1.15-1.64,1.7c-1.16,1.11-3.41,1.05-4.9,1.43s-3.06,1.52-4.59,2.14a3.54,3.54,0,0,0-1.71,1.9,11.75,11.75,0,0,0-.46,1.42c-.08.3-.18.6-.28.89.18.7.13.87-.15.52A.25.25,0,0,0,72,194l.19.19a.26.26,0,0,0,.4,0,11.78,11.78,0,0,0,.9-2.21A4.27,4.27,0,0,1,76.38,189a24.8,24.8,0,0,1,3.94-1.76,29,29,0,0,0,4-1,6.8,6.8,0,0,0,1.87-1.76,17.7,17.7,0,0,0,2.07-2c.65-.95.79-2.14,1.53-3.06a3.92,3.92,0,0,1,5-.68c.73.47.94.3,1.65.91a2.4,2.4,0,0,0,.53.37,6.08,6.08,0,0,0,2.48.11c1.91,0,3.88-1.28,5.34-2.42a7.8,7.8,0,0,1,4.4-1.89,15.24,15.24,0,0,0,2.78-.13c1.32-.28,2.55.31,3.85.43a16,16,0,0,1,3.44.78c1.46.45,2.64.33,3.94,1.35a30.56,30.56,0,0,1,2.54,2.55,33.6,33.6,0,0,0,6,4.79c1.9,1.16,3.84,1.15,6,1.07,1.93-.07,3.57.11,4.82,1.77s-.51,2.37-1.7,3c-2.11,1-4.52,1.36-6.54,2.55-1.58.93-1.62,3.9-1.92,5.42-.23,1.13-.45,1.16-.29,2.14.26,1.6-1.52,2-2.57,2.57s-2.44-.15-3.68-.31-2.68.48-3.83.57c-2.89.21-7-.81-9.59.8a8,8,0,0,1-5,1.6,6.06,6.06,0,0,0-3.7,1.19.41.41,0,0,0,.41.71,5.74,5.74,0,0,1,3.74-1,6.77,6.77,0,0,0,2.86-.6c1.09-.38,2-1.25,3.08-1.56a17.42,17.42,0,0,1,4.84-.2c1.34,0,2.68,0,4-.11,1.15-.08,2.4-.63,3.52-.47.72.09,1.53.83,2.28.73a7.9,7.9,0,0,0,3.07-1.42c1.16-.76,1.8-1.23,1.41-2.73-.18-.71.39-2.15.48-2.82.26-2,.72-3.7,2.79-4.44,1.11-.4,2.27-.57,3.37-1s1.88-.92,2.83-1.35c1.64-.75,1.75-1.71,1.12-3.29a4.41,4.41,0,0,0-3.8-2.57,17.64,17.64,0,0,0-3.25,0,8,8,0,0,1-4.8-1.29,30.68,30.68,0,0,1-6.21-5.22c-1.46-1.58-2.88-2.79-5.07-3.06-.94-.11-1.81-.87-2.71-.87a11.27,11.27,0,0,1-3.52-.34A4.8,4.8,0,0,0,111.75,175Z"/><path class="cls-2" d="M65.71,199.24l-1.87-1h0a.35.35,0,0,0-.22-.12,18,18,0,0,0-5.42-2.05c-2.54-.41-3.65-1.26-5.49.91a3.49,3.49,0,0,0-.81,1.67c-.17,1.32-1.33,1.65-2,2.6-.37.55.28,1.13.51,1.5.62,1-.14,2.17.38,3.18.63,1.22,2.27,1,3.44,1.16,1.36.17,2.28-1.06,3.85-.6a5.45,5.45,0,0,0,3.07-.17c1.45-.4,3.65-1.85,4.25-3.29.82-2,.21-2.82-.86-4l1,.5C65.73,199.62,65.9,199.34,65.71,199.24Zm-.7,2.59a3.82,3.82,0,0,1-2,2.59c-1.7,1.11-3.16,1.87-5.26,1.26-1.48-.44-2.17.83-3.55.72-.55,0-1.1-.12-1.65-.17-1.78-.16-1.21-2.17-1.3-3.15a2.76,2.76,0,0,0-.55-1.06c-.46-.71.75-1.19,1.12-1.55a1.5,1.5,0,0,0,.58-.84A7.15,7.15,0,0,1,53.57,197c1.12-1.36,4.18-.51,5.74-.17a16.85,16.85,0,0,1,4,1.55.37.37,0,0,0,.06.36C64.16,199.8,65.26,200,65,201.83Z"/><path class="cls-2" d="M105.39,203.74c.88-.11,1.82-.28,2.43.5.29.37.86-.17.53-.54s-.76-.88-1.2-.79a6.33,6.33,0,0,1-3.18-.29,3,3,0,0,0-1.11,0c-.57.07-1.08-.34-1.59-.52-2.06-.71-1-2.36-1.22-3.9-.22-1.7-2.79-3.09-4.26-3.31s-4.23-.56-4.72,1.23a.19.19,0,0,0,.37.1c.28-.92,4.49-.82,5.15-.52,1.23.57,2.71,1.56,2.89,3s-1,2.32.41,3.37a5,5,0,0,0,3.48,1.15C104.19,203.17,104.57,203.85,105.39,203.74Z"/><path class="cls-2" d="M90.46,208.25c-1.09-.12-2.19.15-3.29.1-.43,0-.42.71,0,.67.73-.06,1.45-.16,2.17-.18.29,0,.55-.09.83-.09.7,0,1,.59,1.35,1.1.2.3.69,0,.48-.28C91.59,209,91.27,208.33,90.46,208.25Z"/><path class="cls-2" d="M70.15,179.14c-1.64.36-3-.56-4.61-.2-1.11.26-2.36,1.63-3.26,2.31-1.33,1-3.08,3.22-5,2.63-.74-.23-.66-.42-1.24-.39-1.07.06-1.7.53-2.75-.11a.37.37,0,0,0-.37.63,3.61,3.61,0,0,0,3,.24c.37-.16,1.55.4,1.94.46a2.32,2.32,0,0,0,1.19-.25c1.76-1,3.19-2.49,4.87-3.65,1.12-.77,2.24-1.58,3.71-1.11a4.33,4.33,0,0,0,2.59-.11A.23.23,0,0,0,70.15,179.14Z"/><path class="cls-2" d="M127.79,175.52a2.47,2.47,0,0,0,1.6-.31c1.92-.7,2.21,1.74,3.42,2.39,1,.52,2.12.93,3.16,1.36a5.7,5.7,0,0,0,3.44.3c.93-.14,1.32-.21,2.05.42.52.44,1.81-.35,2.07.45.12.39,0,1.21.58,1.37a8.71,8.71,0,0,1,2.4,1.37.39.39,0,0,0,.68-.39c-.48-.8-1.27-.58-1.85-1.27a1.14,1.14,0,0,0-.77-.38c-.3-.06-.35-1.15-.49-1.38-.38-.66-1-.56-1.66-.41-.84.19-1-.93-1.74-.93-.34,0-.76.32-1.07.39a5.93,5.93,0,0,1-2.93,0,10.9,10.9,0,0,1-4.48-2.62,2.85,2.85,0,0,0-1.69-1.3c-.81-.08-1.92.64-2.59.45A.25.25,0,0,0,127.79,175.52Z"/><path class="cls-2" d="M95.61,141.15a5.12,5.12,0,0,1-.36,2.12c-.07.22.27.31.35.1a5.09,5.09,0,0,0,.33-2.22C95.9,141,95.58,141,95.61,141.15Z"/><path class="cls-2" d="M94.14,148.68c0,.34,0,.68,0,1a.17.17,0,0,0,.33,0c0-.34,0-.68,0-1A.15.15,0,0,0,94.14,148.68Z"/><path class="cls-2" d="M95.28,151.07c0,.19,0,.38,0,.57a.13.13,0,0,0,.25,0c0-.19,0-.38,0-.57A.15.15,0,0,0,95.28,151.07Z"/><path class="cls-2" d="M97.45,143.47c-.1.22-.13.46-.22.68s.19.35.27.16.13-.46.23-.68S97.54,143.28,97.45,143.47Z"/><path class="cls-2" d="M100.24,135.31a1.11,1.11,0,0,0,.14-.54.17.17,0,0,0-.33,0,1.24,1.24,0,0,1-.11.42C99.87,135.35,100.15,135.47,100.24,135.31Z"/><path class="cls-2" d="M100.91,130.29l.67-1c.1-.15-.14-.29-.23-.14l-.7,1C100.55,130.3,100.8,130.44,100.91,130.29Z"/><path class="cls-2" d="M98.4,129.16c-.27,1.1-.54,2.2-.83,3.3,0,.17.21.24.27.07a28.84,28.84,0,0,0,.76-3.31C98.63,129.08,98.43,129,98.4,129.16Z"/><path class="cls-2" d="M96.54,136.9a3.61,3.61,0,0,0-.25,1.29.16.16,0,0,0,.32,0,5.65,5.65,0,0,1,.2-1.22C96.86,136.8,96.6,136.73,96.54,136.9Z"/><path class="cls-2" d="M103.69,132.08a4.38,4.38,0,0,0,.22-1.3.17.17,0,0,0-.33,0,3.83,3.83,0,0,1-.24,1.21C103.27,132.21,103.62,132.3,103.69,132.08Z"/><path class="cls-2" d="M101.22,140.09c-.35,1-.75,2-1.15,3-.07.16.2.27.27.12a29.42,29.42,0,0,0,1.15-3A.14.14,0,0,0,101.22,140.09Z"/><path class="cls-2" d="M98.27,147.85c-.12.45-.23.91-.34,1.36,0,.16.2.23.24.07.11-.46.23-.91.34-1.37A.12.12,0,0,0,98.27,147.85Z"/><path class="cls-2" d="M97.07,154l-.11.12a.07.07,0,0,0,0,.11.08.08,0,0,0,.12,0l.12-.11C97.28,154,97.15,153.89,97.07,154Z"/><path class="cls-2" d="M105.84,126.66a19.38,19.38,0,0,1,1.47-2.63c.12-.18-.17-.34-.29-.17a21.77,21.77,0,0,0-1.5,2.61C105.42,126.68,105.73,126.87,105.84,126.66Z"/><path class="cls-2" d="M107.81,116.54a3.3,3.3,0,0,1-.1.76.14.14,0,0,0,.26.11,1.62,1.62,0,0,0,.14-.87A.15.15,0,0,0,107.81,116.54Z"/><path class="cls-2" d="M107.85,112.16a2.14,2.14,0,0,0,.13-.87.13.13,0,0,0-.26,0,1.77,1.77,0,0,1-.1.73C107.54,112.18,107.78,112.32,107.85,112.16Z"/><path class="cls-2" d="M108.4,108.9v-.68c0-.13-.2-.13-.2,0v.68A.1.1,0,1,0,108.4,108.9Z"/><path class="cls-2" d="M106.68,117.65a.63.63,0,0,0,.17-.43c0-.18-.29-.18-.29,0a.36.36,0,0,1-.08.28C106.4,117.61,106.59,117.76,106.68,117.65Z"/><path class="cls-2" d="M109.72,115.21c.13-.52.24-1.06.35-1.59,0-.22-.29-.31-.34-.09-.11.53-.25,1.06-.34,1.59C109.36,115.33,109.67,115.43,109.72,115.21Z"/><path class="cls-2" d="M109.45,120.6a2.06,2.06,0,0,1,.33-.53c.14-.15-.09-.37-.22-.22a2.62,2.62,0,0,0-.35.61C109.14,120.61,109.36,120.75,109.45,120.6Z"/><path class="cls-2" d="M106.94,127a6.11,6.11,0,0,0-.34,1.51.11.11,0,0,0,.21,0c0-.49.25-1,.34-1.45A.11.11,0,0,0,106.94,127Z"/><path class="cls-2" d="M102.65,99.06c-.08-.19-.38-.12-.31.08a2,2,0,0,0,.48.88c.16.16.4-.08.25-.25A2,2,0,0,1,102.65,99.06Z"/><path class="cls-2" d="M98.61,94a3.82,3.82,0,0,1,.23,1,.12.12,0,0,0,.24,0,3.53,3.53,0,0,0-.23-1.06C98.8,93.79,98.56,93.85,98.61,94Z"/><path class="cls-2" d="M96.24,85.39c-.06-.17-.33-.1-.27.07a4.78,4.78,0,0,0,.59,1.06c.1.14.33,0,.23-.14A5.66,5.66,0,0,1,96.24,85.39Z"/><path class="cls-2" d="M107,76.65c0,.42,0,.83,0,1.25a.16.16,0,0,0,.32,0c0-.42,0-.83,0-1.25A.16.16,0,0,0,107,76.65Z"/><path class="cls-2" d="M106.5,71.52v.23a.09.09,0,0,0,.18,0v-.23A.09.09,0,1,0,106.5,71.52Z"/><path class="cls-2" d="M105,65.93c0-.16-.08-.3-.08-.45a.17.17,0,1,0-.33,0c0,.15.12.27.13.41A.14.14,0,0,0,105,65.93Z"/><path class="cls-2" d="M106.32,83.49v.68a.16.16,0,0,0,.32,0c0-.23,0-.46,0-.68A.16.16,0,0,0,106.32,83.49Z"/><path class="cls-2" d="M104.89,88.74a2.46,2.46,0,0,0-.46.72c-.06.15.14.28.22.13a3.67,3.67,0,0,1,.45-.64C105.23,88.81,105,88.6,104.89,88.74Z"/><path class="cls-2" d="M104.07,93.21l-.34.69c-.09.17.17.32.26.15s.22-.46.34-.69S104.16,93,104.07,93.21Z"/><path class="cls-2" d="M107.18,58.75a2,2,0,0,1,.12-.48c.09-.19-.19-.36-.28-.17a1.34,1.34,0,0,0-.11.65A.13.13,0,0,0,107.18,58.75Z"/><path class="cls-2" d="M104.51,44.05a1.79,1.79,0,0,1-.09.73c-.07.16.17.31.24.14a2,2,0,0,0,.14-.87A.15.15,0,0,0,104.51,44.05Z"/><path class="cls-2" d="M69.11,62.82c0-.16-.28-.09-.25.07a6.49,6.49,0,0,0,.66,1.53.17.17,0,0,0,.29-.16A6.61,6.61,0,0,1,69.11,62.82Z"/><path class="cls-2" d="M73.58,69.77c-.06-.2-.37-.12-.31.08A3.14,3.14,0,0,0,74,71.07a.17.17,0,0,0,.24-.24A3.23,3.23,0,0,1,73.58,69.77Z"/><path class="cls-2" d="M77.29,74.77a.11.11,0,0,0-.2.11,1.9,1.9,0,0,0,.35.49c.11.11.29-.07.18-.18A1.91,1.91,0,0,1,77.29,74.77Z"/><path class="cls-2" d="M82.66,77c-.14-.15-.38.09-.23.23l.37.32a.13.13,0,0,0,.18-.19Z"/><path class="cls-2" d="M61.51,102.79a11.52,11.52,0,0,0-1.82-.45c-.24,0-.34.31-.1.36a11.55,11.55,0,0,1,1.82.46C61.64,103.25,61.75,102.88,61.51,102.79Z"/><path class="cls-2" d="M67.05,104.68l-.1-.13c-.15-.19-.45.11-.27.27l.13.1A.17.17,0,0,0,67.05,104.68Z"/><path class="cls-2" d="M67.73,107l-.46,0a.21.21,0,0,0,0,.42l.46,0A.19.19,0,0,0,67.73,107Z"/><path class="cls-2" d="M67.27,110h-.34a.16.16,0,0,0,0,.31h.34a.15.15,0,0,0,.15-.15A.15.15,0,0,0,67.27,110Z"/><path class="cls-2" d="M63.49,114.23l-.12.11c-.18.19.1.47.28.29l.12-.12A.2.2,0,0,0,63.49,114.23Z"/><path class="cls-2" d="M78.47,100a.2.2,0,0,0-.28.28l.57.56a.19.19,0,0,0,.28-.27Z"/><path class="cls-2" d="M81.73,102.24c-.22-.11-.42.23-.19.33a2,2,0,0,1,.41.2c.19.17.47-.11.28-.28A1.8,1.8,0,0,0,81.73,102.24Z"/><path class="cls-2" d="M86.89,104.78c-.37-.35-.78-.65-1.16-1a.16.16,0,0,0-.22.22c.36.36.76.68,1.12,1A.18.18,0,0,0,86.89,104.78Z"/><path class="cls-2" d="M85.88,111.46a7.27,7.27,0,0,1,.1,1.32.22.22,0,0,0,.43,0,5.73,5.73,0,0,0-.13-1.43C86.22,111.09,85.82,111.2,85.88,111.46Z"/><path class="cls-2" d="M81.74,113.73c-.22-.17-.44.21-.22.37a7.71,7.71,0,0,0,1.26.69c.25.13.48-.26.22-.38A8.49,8.49,0,0,1,81.74,113.73Z"/><path class="cls-2" d="M87.79,117.4a1.65,1.65,0,0,1-.72-.2c-.18-.08-.33.18-.16.27a2.28,2.28,0,0,0,.88.25C88,117.73,88,117.41,87.79,117.4Z"/><path class="cls-2" d="M90,118.37a.11.11,0,0,0,0,.21A.11.11,0,1,0,90,118.37Z"/><path class="cls-2" d="M93.88,121.91c-.1-.21-.44,0-.33.19l.37.67c.1.18.36,0,.27-.16S94,122.15,93.88,121.91Z"/><path class="cls-2" d="M129.77,102.3c-.24.37-.44.76-.68,1.14s.21.43.36.21c.25-.37.45-.77.69-1.14S129.92,102.07,129.77,102.3Z"/><path class="cls-2" d="M125.29,107.54a5.3,5.3,0,0,1-.77.65c-.17.12,0,.4.16.28a6.23,6.23,0,0,0,.83-.71A.16.16,0,0,0,125.29,107.54Z"/><path class="cls-2" d="M122.66,109.8a.13.13,0,0,0,0,.25A.13.13,0,1,0,122.66,109.8Z"/><path class="cls-2" d="M138.23,96.21a9.15,9.15,0,0,1-.56.87.17.17,0,0,0,.3.17,7.2,7.2,0,0,0,.58-1C138.62,96.09,138.31,96,138.23,96.21Z"/><path class="cls-2" d="M143.58,93.91c-.16,0-.21.16-.31.27s.11.45.27.27a.94.94,0,0,1,.14-.19C143.92,94.22,143.82,93.87,143.58,93.91Z"/><path class="cls-2" d="M142.26,68.6a1.76,1.76,0,0,0-.14.75.15.15,0,0,0,.29,0,1.42,1.42,0,0,1,.09-.61C142.57,68.58,142.33,68.43,142.26,68.6Z"/><path class="cls-2" d="M103.24,139.15c.27-.92.45-1.86.66-2.79.15-.17.14-.57.17-.76a.16.16,0,0,0,.07-.14.28.28,0,0,0,0-.13.18.18,0,0,0-.3-.08.61.61,0,0,0-.14.35c0,.1,0,.19-.07.29a.54.54,0,0,1,0,.1.31.31,0,0,0,0,.1c-.25,1-.47,2-.67,3A.19.19,0,0,0,103.24,139.15Z"/><path class="cls-2" d="M103.82,143.21c0,.24-.2.43-.21.68s.25.17.27,0,.22-.43.25-.68S103.83,143,103.82,143.21Z"/><path class="cls-2" d="M102.07,148a.08.08,0,0,1,.08-.08c.19,0,.19-.31,0-.29a.38.38,0,0,0-.38.37C101.76,148.19,102.06,148.19,102.07,148Z"/><path class="cls-2" d="M22.41,97c-.88-.34-1.56-1.08-2.55-1.11-.13,0-.13.2,0,.21,1,.06,1.61.85,2.47,1.16C22.5,97.35,22.57,97.09,22.41,97Z"/><path class="cls-2" d="M29,96.76H28.3a.18.18,0,0,0,0,.35H29A.18.18,0,0,0,29,96.76Z"/><path class="cls-2" d="M104.43,162.4c-.33-1.28-.67-2.55-1.05-3.81-.08-.26-.48-.15-.4.1.36,1.27.68,2.56,1,3.84C104,162.83,104.51,162.7,104.43,162.4Z"/><path class="cls-2" d="M117.53,162.12c.07.5.83.29.75-.21a13,13,0,0,1,.77-7.31,14.77,14.77,0,0,0,1.1-5.52c0-.26-.39-.26-.4,0a14.34,14.34,0,0,1-.48,3.62c-.38,1.21-1.07,2.35-1.52,3.55A11.9,11.9,0,0,0,117.53,162.12Z"/><path class="cls-2" d="M124.34,161.61a34.3,34.3,0,0,0-3.69.44s0,0,0,0a6.09,6.09,0,0,1-.6-1.87l.06-.1a10.43,10.43,0,0,0,1.77-4,11.34,11.34,0,0,0-.38-4.6.21.21,0,0,0-.41.12,9.35,9.35,0,0,1-1.13,7.52,16.86,16.86,0,0,1,.45-3.49,29.24,29.24,0,0,0,.6-5.37c0-.21-.31-.21-.33,0a62.36,62.36,0,0,1-1.21,7.19,9.36,9.36,0,0,0-.16,2.82,18,18,0,0,0-1.13,2.29c-.25.61-.47,1.21-.66,1.84a2.73,2.73,0,0,0-.07.37l-.34,0c-.13-1.16-.4-2.31-.48-3.48a30.7,30.7,0,0,1,.23-4.89,20.87,20.87,0,0,1,.92-4.72c.43-1.29,1-2.42,1.31-3.75a.23.23,0,0,0-.44-.13c-.35,1.31-1,2.46-1.45,3.72-.11.3-.2.61-.3.92a23.8,23.8,0,0,0-.88-4,.22.22,0,0,0-.42.12,15.65,15.65,0,0,1,0,9,31.24,31.24,0,0,0-.88,3.25c-.12-.57-.26-1.14-.4-1.7a17.31,17.31,0,0,0,.57-2.4,19.14,19.14,0,0,0-.64-6.56c0-.21-.35-.12-.32.08a20.21,20.21,0,0,1,.09,7.43c-.05-.3-.1-.6-.13-.9a49.22,49.22,0,0,1,.21-8.67c0-.11-.14-.1-.15,0a68.49,68.49,0,0,0-.64,8,12.39,12.39,0,0,0,.35,3c-.52,1.71-1.38,3.76-.87,5.53a.31.31,0,0,0,.17.21c-.29,0-.56-.06-.84-.09a.23.23,0,0,0,.16-.2,10.62,10.62,0,0,0,.11-1.59c0-.05,0-.09,0-.13a6.12,6.12,0,0,0,.33-3.83,25,25,0,0,0-.52-2.46c.08-.23.16-.46.23-.7a30,30,0,0,0,1.06-8.65.19.19,0,0,0-.37,0,34.25,34.25,0,0,1-1.19,8.13,10.84,10.84,0,0,1,.37-5,.15.15,0,0,0-.29-.08,10.63,10.63,0,0,0-.68,4.89c.07.43.15.86.25,1.3l-.06.17c-.37-1.53-.8-3-1.15-4.58a12.12,12.12,0,0,1,.53-6.17c0-.18-.22-.25-.29-.07a12.41,12.41,0,0,0-.3,8.33c.29,1.07.64,2.14,1,3.22-.06.18-.13.35-.2.52-.35-.68-.7-1.33-1-2,0-.21,0-.42,0-.62-.18-3-.53-6-.68-9a.15.15,0,0,0-.3,0c.08,2.64.2,5.28.28,7.93a8.24,8.24,0,0,1-.48-3.21c0-.22-.3-.21-.32,0a9.11,9.11,0,0,0,.86,4.94,13.44,13.44,0,0,1-.38,4.22,15.75,15.75,0,0,0-.59,3.85l-.25.05c.16-1,.31-2,.42-3,.16-1.51-.41-3-.42-4.54,0-3.48-.65-7-.19-10.44,0-.13-.21-.16-.23,0a40.77,40.77,0,0,0-.21,9,26.62,26.62,0,0,0,.2,3.89,12.31,12.31,0,0,1-.1,4c-.08-1.53,0-3.07-.2-4.59a28,28,0,0,0-.8-3.28,11,11,0,0,1,.27-4.49c0-.17-.23-.25-.27-.07a13.73,13.73,0,0,0,0,6.74c.5,2.32.22,4.68.56,7l-.07,0a9,9,0,0,0-.63-2,7.48,7.48,0,0,0,.08-1.07c0-1.11-.62-2.3-.7-3.44s-.2-2.52-.19-3.76a13.29,13.29,0,0,1,1.26-5.07c0-.11-.14-.19-.19-.08a13.13,13.13,0,0,0-1.51,6.9c.11,1.55.33,3.09.42,4.63a9,9,0,0,1-.5-1.49,21.41,21.41,0,0,1-1-4.95,17,17,0,0,1,1.47-5.77c0-.15-.2-.25-.26-.11-1.19,2.81-2.13,5.49-1.46,8.53-.29-.73-.59-1.47-.83-2.22-.45-1.4,0-3.21.1-4.64,0-.13-.2-.16-.22,0-.19,1.2-.39,2.41-.46,3.62a7.6,7.6,0,0,0,.83,3.19,43.6,43.6,0,0,1,1.91,8.53,9.17,9.17,0,0,0-.83.55c-1.11-1.78-.94-4-1.54-6a1,1,0,0,1,0-.1c0-.19,0-.38,0-.57a10.53,10.53,0,0,0-.91-4.08c0-.16.07-.32.1-.49a26.47,26.47,0,0,0,.2-3.56.14.14,0,1,0-.27,0,27.27,27.27,0,0,1-.33,3.26,15,15,0,0,1-.86-2.83c0-.09-.17-.07-.16,0a15.85,15.85,0,0,0,.92,3.47l0,.23a10.06,10.06,0,0,1-.34,1.19,10.84,10.84,0,0,1-1.42-3.51c0-.08-.15-.06-.14,0a10.71,10.71,0,0,0,1.34,4.17,6.08,6.08,0,0,0-.21.94,48.46,48.46,0,0,0,.14,7.9.31.31,0,0,0,.25.31c.12.23.51.28.57,0,.3-1.65.7-3.16.94-4.75.27,1.68.21,3.4,1.18,4.87l-.16.14c-1.21,1.09-2.93,1.35-4.47,1.71-.41.09-.33.82.11.76a8.94,8.94,0,0,0,4.95-1.88,10.12,10.12,0,0,1,2.31-1.43c0,.12,0,.24,0,.37,0,.3.45.36.52.07a3.08,3.08,0,0,0,.07-.68l.17,0a.25.25,0,0,0,.16.16.3.3,0,0,0,.5-.17l0-.2a8.27,8.27,0,0,1,2.81.42,5,5,0,0,0-4.61,2.87c-.17.3.3.57.46.27a6.26,6.26,0,0,1,2.07-2.18c1.12-.77,2.27-.39,3.5-.33,1.5.06,3.57,1.25,5.08.84.71-.2,1-.92,1.25-1.65a23.27,23.27,0,0,1,2.52-.64c.22,0,.17-.42,0-.4-.77.08-1.52.23-2.27.38.07-.19.13-.38.2-.53.78-1.61,4-1.31,5.49-1.54C124.91,162.34,124.8,161.55,124.34,161.61Zm-22.54-6a11.25,11.25,0,0,1,.57,2.72.86.86,0,0,1,0,.16c-.26-.56-.55-1.1-.86-1.64C101.6,156.41,101.7,156,101.8,155.58Zm-.31,8.51a53.32,53.32,0,0,1-.23-5.67,5.9,5.9,0,0,1,.09-.72,20.14,20.14,0,0,1,.94,2.11c0,.05,0,.1,0,.15A27.74,27.74,0,0,1,101.49,164.09Zm5,.45c-.18.06-.35.14-.53.21a.25.25,0,0,0,.1-.16c.07-.29.13-.58.19-.87A5.54,5.54,0,0,1,106.46,164.54Zm-.8-2.14c0,.34,0,.68-.08,1-.11-.67-.22-1.33-.34-2v0C105.38,161.79,105.52,162.1,105.66,162.4ZM115.91,159a33.1,33.1,0,0,0,.4,5.84h0c-.29,0-.61,0-.91,0a.54.54,0,0,0,0-.18A12.46,12.46,0,0,1,115.91,159Zm-2.45,5.38a9.43,9.43,0,0,1,.48-4c.22,1.24.28,2.48.45,3.74a.33.33,0,0,0,.19.27c0,.17,0,.35.09.52-.49,0-1,0-1.49-.07A.37.37,0,0,0,113.46,164.41Zm-1.36-5.33c-.09-.48-.2-1-.32-1.45a.69.69,0,0,0,0-.1C111.93,158,112,158.56,112.1,159.08Zm-.58-.82c.11.43.21.85.29,1.28a5.55,5.55,0,0,0-.2-.52l-.21-.47Zm-1.52.84a6,6,0,0,0,.15-1.47c.19.35.38.7.56,1.06-.78,1.77-1.55,3.34-1.43,5.41l-.19-.06A39.72,39.72,0,0,1,110,159.1Zm0,5.26a11.18,11.18,0,0,1,1-5,4.25,4.25,0,0,1,.21.49,8.6,8.6,0,0,1,.48,2.78l0,.09a.32.32,0,0,0,0,.34c0,.45,0,.89-.07,1.34a.24.24,0,0,0,.12.24c-.57-.08-1.12-.17-1.65-.29Zm6,1.55c-.79-.1-1.58-.24-2.36-.36.87,0,1.74,0,2.61,0h.2a.45.45,0,0,0,.53-.05l.27,0A1.36,1.36,0,0,1,116.06,165.91Zm3.18-3.34a2.35,2.35,0,0,0-.79.86,17.16,17.16,0,0,1,1-2.27,5.47,5.47,0,0,0,.46,1.1A5.51,5.51,0,0,0,119.24,162.57Z"/><path class="cls-2" d="M56.86,167.14c0-.1-.14-.1-.15,0-.24,3.41-.65,6.86-.55,10.29-.2-.71-.44-1.4-.68-2.1A19.51,19.51,0,0,0,56,169c0-.15-.26-.15-.24,0a18.88,18.88,0,0,1-.48,5.57c-.18-1.2-.38-2.39-.5-3.59a.1.1,0,0,0-.09-.1,24.92,24.92,0,0,1,.3-3.14c0-.13-.18-.19-.2-.06a19.78,19.78,0,0,0-.31,5.43,12.13,12.13,0,0,0,.54,2.41v.12c0,.15-.08.3-.11.46-.18.69-.38,1.41-.52,2.14a57,57,0,0,1-1.55-8.4.09.09,0,1,0-.18,0,28.08,28.08,0,0,0,.54,4.66,26.32,26.32,0,0,1,.35,4.5,9.88,9.88,0,0,0-.72-1.57c-.18-.33-.38-.66-.58-1,0-.19,0-.38,0-.56a48.06,48.06,0,0,0,.34-5.36c0-.13-.21-.13-.21,0a46,46,0,0,1-.5,5.37,9.91,9.91,0,0,1-1.29-3c0-.11-.19-.06-.17.05a11.2,11.2,0,0,0,1.42,3.37,12.43,12.43,0,0,0,.58,5.1.22.22,0,0,0,.43-.12,18.65,18.65,0,0,1-.62-2.58,14.35,14.35,0,0,1,0-1.74,11.34,11.34,0,0,1,1.22,3.43c0,.27-.08.55-.13.82s.34.36.38.1a2.23,2.23,0,0,0,0-.36.22.22,0,0,0,.22-.28c0-.21-.08-.4-.12-.59a16.43,16.43,0,0,0,0-2.53c.13.7.26,1.41.37,2.11a6.12,6.12,0,0,0,.17,1.81.2.2,0,0,0,.4-.06,2.44,2.44,0,0,1,0-.27.27.27,0,0,0,.11-.25l-.12-.76a18.23,18.23,0,0,1,.38-3.29,32.19,32.19,0,0,1,.14,3.81.21.21,0,0,0,.41,0,19.6,19.6,0,0,0-.06-3.25c.12.37.23.74.32,1.11a.2.2,0,0,0,.26.15c0,.26,0,.52.05.78s.43.28.43,0c0-1-.14-2-.19-3a26.36,26.36,0,0,1,.16-3.32C56.82,171.1,56.81,169.12,56.86,167.14Z"/><path class="cls-2" d="M50.85,176.81c0-.09-.11-.13-.13,0-.39,1.81.32,3.74,1,5.39.1.23.49.13.39-.11C51.44,180.44,50.51,178.62,50.85,176.81Z"/><path class="cls-2" d="M50.23,178.54c0-.17-.23-.16-.25,0a5.59,5.59,0,0,0,1,3.27.17.17,0,0,0,.3-.17A5.29,5.29,0,0,1,50.23,178.54Z"/><path class="cls-2" d="M59.9,178c.42-2,.88-4,1.19-6a37.81,37.81,0,0,0,.09-6,.13.13,0,1,0-.27,0c0,.48,0,1,0,1.45-.07,0-.15,0-.16.11-.34,1.84-.46,3.68-1,5.5a15,15,0,0,1-.5,1.47c-.06-1.25-.1-2.5-.08-3.74,0-.19-.28-.19-.29,0-.06,1.38,0,2.76,0,4.14,0,.13,0,.26,0,.4l-.29.68a2.51,2.51,0,0,0,0-.27c0-.78,0-1.55-.06-2.32,0-.48,0-.95-.06-1.43a1.09,1.09,0,0,0,0-.17,25,25,0,0,0,1.18-7.11.07.07,0,0,0-.14,0,24,24,0,0,1-1.15,6.49l-.09-1c0-1.16.08-2.32.11-3.48,0-.12-.18-.11-.19,0,0,.63-.08,1.25-.12,1.88-.06-.46-.13-.92-.2-1.38,0-.14-.26-.1-.24,0,.13,1,.25,2.06.33,3.09,0,.63-.06,1.25-.08,1.88a5.61,5.61,0,0,0,0,.58,15.2,15.2,0,0,0-.78,3,25,25,0,0,0-.05,3.77.17.17,0,0,0,.34,0c0-1.12-.11-2.22,0-3.35a12.26,12.26,0,0,1,.53-2.49c.06,1,.17,2,.31,3v.23a15.46,15.46,0,0,0-.69,1.94.24.24,0,0,0,.4.24h0a.22.22,0,0,0,.42.11,3.84,3.84,0,0,0,.25-1.2c.12,0,.24-.09.22-.22l-.09-.78c0-.14.1-.28.16-.42a10.48,10.48,0,0,0,.2,2.39.2.2,0,0,0,.4-.05l-.06-.85A.21.21,0,0,0,59.9,178Zm-.54-2.37c.26-.67.5-1.35.71-2a31.13,31.13,0,0,0,.84-5.05,23.92,23.92,0,0,1-.21,3.39c-.28,1.94-.87,3.81-1.21,5.74C59.45,177,59.4,176.3,59.36,175.62Z"/><path class="cls-2" d="M62.12,167.22a29.22,29.22,0,0,1-.61,5.74c-.51,1.94-1.27,3.81-1.83,5.74a.23.23,0,0,0,.45.13c.61-1.91,1.24-3.83,1.76-5.77a27.23,27.23,0,0,0,.51-5.84A.14.14,0,0,0,62.12,167.22Z"/></g></svg>