<svg xmlns="http://www.w3.org/2000/svg" viewBox="0 0 136.69 85.94"><defs><style>.cls-1{fill:#fff;}.cls-2{fill:#272525;}</style></defs><title>life</title><g id="color"><path class="cls-1" d="M50.61,13a11.33,11.33,0,0,1-.25-2.34,42.39,42.39,0,0,0-4.3-1.26c-.07.56-.14,1.13-.22,1.7-.06.4-.67.37-.63,0,.07-.61.11-1.21.16-1.82C45,9.13,44.6,9.05,44.22,9A40.41,40.41,0,0,1,37.4,7.42a.6.6,0,0,0,.09.13c.34.4-.28.94-.61.54a7,7,0,0,1-1.13-1.93,39.37,39.37,0,0,0-4.43-.94c.15.68.3,1.37.41,2.06a.33.33,0,0,1-.64.13c-.18-.75-.35-1.52-.5-2.29-1.15-.16-2.32-.26-3.5-.32.11,1.17.21,2.34.28,3.52,0,.42-.64.38-.65,0q-.06-1.75-.21-3.51a33.32,33.32,0,0,0-8.25.71,35.14,35.14,0,0,1,0,3.84.23.23,0,0,1-.46,0c0-1.23-.13-2.44-.25-3.66a20.62,20.62,0,0,0-6.35,2.71c.08.41.2.83.31,1.26s-.58.58-.7.14-.18-.62-.27-.94a14.33,14.33,0,0,0-4.17,4.73,12.52,12.52,0,0,1,1.45,1.06c.27.23,0,.69-.32.47-.46-.34-.94-.66-1.42-1a14.68,14.68,0,0,0-.68,1.61,16.47,16.47,0,0,0-.87,7.46c1,.2,2,.38,3,.56.42.08.4.75,0,.68-1-.15-1.91-.33-2.86-.53A20.6,20.6,0,0,0,7,30.48a3,3,0,0,0,.2-.29c.24-.33.77,0,.52.36l-.39.52a31.45,31.45,0,0,0,4,5.42A21.33,21.33,0,0,1,13,33.37c.24-.35.73,0,.53.36-.61,1.08-1.17,2.18-1.74,3.28a47.4,47.4,0,0,0,6.66,5.87c.83-.46,1.65-.92,2.49-1.32.4-.2.71.43.31.61-.76.34-1.51.72-2.25,1.11l.5.35A52.27,52.27,0,0,0,26,47.47a3.56,3.56,0,0,1,1.29-1c.32-.15.64.29.35.52a5.82,5.82,0,0,0-.89.9,85.69,85.69,0,0,0,8,3.34,10.16,10.16,0,0,1,.28-1.65c.12-.46.79-.22.69.23a12.2,12.2,0,0,0-.26,1.68c2,.71,4,1.39,6,2.07l5.31,1.78a9.38,9.38,0,0,1,1.57-1.82c.27-.22.71.13.47.42-.45.51-.88,1.08-1.32,1.63L54.85,58c0-.45,0-.91,0-1.37a.28.28,0,0,1,.55,0c0,.52,0,1,0,1.55q3.31,1.11,6.62,2.27a16.69,16.69,0,0,1-.57-3.77c0-.33.48-.29.5,0a25.92,25.92,0,0,0,.82,4c4.48,1.59,9,3.25,13.35,5.05.14-.4.28-.81.44-1.21s.91-.22.73.25-.3.84-.45,1.25c2.33,1,4.64,2,6.92,3,.09-.75.17-1.51.27-2.27.06-.51.85-.46.79.05-.11.85-.21,1.71-.33,2.56,2.28,1.07,4.53,2.2,6.73,3.43l2,1.1a14.54,14.54,0,0,1,.17-2.37c.07-.46.8-.43.74,0A23,23,0,0,0,94,74.39c2.58,1.47,5.18,2.92,7.86,4.19.48-.5,1-1,1.49-1.47.27-.24.74.15.49.43-.41.46-.84.92-1.29,1.37.54.25,1.08.48,1.63.71a35.64,35.64,0,0,0,8.14,2.47,33.81,33.81,0,0,0,1.6-3.11c.2-.46.94-.22.75.25a23,23,0,0,1-1.51,3,18.28,18.28,0,0,0,5,0,19.35,19.35,0,0,0,3.2-.76c-.47-.86-1-1.71-1.46-2.55-.24-.41.4-.7.65-.32A25.09,25.09,0,0,1,122,81.18a18.15,18.15,0,0,0,7.11-4.64.39.39,0,0,1,.15-.16q.59-.64,1.11-1.35A20,20,0,0,0,133,70a21.9,21.9,0,0,1-3-1.19c-.44-.21-.21-.94.25-.74a25.51,25.51,0,0,0,3,1.17,18.6,18.6,0,0,0,.83-4.56.33.33,0,0,1,0-.45A16.72,16.72,0,0,0,134,62a18.27,18.27,0,0,0-.52-2.69,32.55,32.55,0,0,1-3.28-.35c-.41-.06-.38-.69,0-.64a26.35,26.35,0,0,0,3,.21A23.21,23.21,0,0,0,130,51.89a12.77,12.77,0,0,1-1.24.71.36.36,0,0,1-.32-.64,12.46,12.46,0,0,0,1.13-.67c-.53-.71-1.07-1.4-1.65-2.06a48.13,48.13,0,0,0-6.7-6.23l-.34.42c-.27.31-.8,0-.54-.36l.36-.46a82.36,82.36,0,0,0-8.93-5.82.28.28,0,0,1-.33-.19c-1.68-1-3.37-1.88-5.07-2.79a9.56,9.56,0,0,0-1.92,1c-.31.2-.69-.22-.38-.44a10.52,10.52,0,0,1,1.57-1l-1.16-.61c-1.44-.77-2.91-1.48-4.39-2.17a34.7,34.7,0,0,0-1.71,3.19c-.18.36-.77.16-.6-.2.53-1.1,1.06-2.22,1.68-3.27-1.68-.77-3.38-1.49-5.09-2.18a.33.33,0,0,1-.62-.06c0-.07,0-.14,0-.21-2-.8-4-1.56-6.06-2.3-.36.95-.68,1.91-1.05,2.88a.34.34,0,0,1-.64-.22,23.28,23.28,0,0,1,1.06-2.89c-2.21-.81-4.42-1.6-6.63-2.39,0,.68-.13,1.36-.24,2-.06.35-.6.33-.56,0a16.8,16.8,0,0,0,.14-2.23q-2.06-.73-4.08-1.5l-2.14,2.91a.36.36,0,0,1-.59-.41c.6-1,1.29-1.87,2-2.78-1.76-.66-3.51-1.34-5.24-2.06l-.42-.18a14.32,14.32,0,0,1-1,1.75.33.33,0,0,1-.55-.37,13.16,13.16,0,0,0,.84-1.68c-2.74-1.17-5.45-2.43-8.16-3.67a23.19,23.19,0,0,0,.68,4.11c.09.4-.51.51-.62.12a20.54,20.54,0,0,1-.86-4.59c-2-.92-4.09-1.81-6.17-2.62-.75-.29-1.5-.58-2.26-.85a9.57,9.57,0,0,0,.14,1.9C51.41,13.29,50.69,13.44,50.61,13ZM22.77,11.82a5.82,5.82,0,0,0-2-2.26.3.3,0,0,1,.33-.49,6.68,6.68,0,0,1,2.3,2.45C23.58,11.9,23,12.21,22.77,11.82ZM43,20.45A33.48,33.48,0,0,1,46.43,25c.19.36-.36.62-.57.28a47.51,47.51,0,0,0-3.28-4.44C42.35,20.54,42.8,20.14,43,20.45Zm10.1.93c.35-.34.84.23.5.58a11.46,11.46,0,0,1-2.9,2.29.33.33,0,0,1-.29-.59A12.47,12.47,0,0,0,53.14,21.38Zm5.11,3.52c.07-.46.78-.43.74.05a18.93,18.93,0,0,0,.57,5.65.33.33,0,0,1-.64.13A16,16,0,0,1,58.25,24.9Zm6.47,5.78C65.56,29.55,66,28.17,67,27.1c.3-.34.9,0,.6.41-.85,1.12-1.45,2.41-2.33,3.51C65,31.32,64.49,31,64.72,30.68Zm19.07,2.19a13.76,13.76,0,0,1,2.47-.29c.47,0,.42.7,0,.71-.77,0-1.53.15-2.29.25C83.49,33.6,83.35,32.94,83.79,32.87ZM89.5,33c-.07-.49.66-.64.75-.16A37,37,0,0,0,92,39.07c.16.4-.44.7-.6.3A30.53,30.53,0,0,1,89.5,33ZM35.19,19.57a12.22,12.22,0,0,1-1-1.48c-.46-.69-.94-1.36-1.42-2-.24-.34.25-.78.51-.43.53.74,1,1.49,1.58,2.22a5.1,5.1,0,0,1,.93,1.46C35.84,19.62,35.39,19.8,35.19,19.57Zm-10.5-1.7c1.44,1,3.06,1.64,4.52,2.59A.29.29,0,0,1,29,21a22,22,0,0,1-4.57-2.66A.27.27,0,0,1,24.69,17.87ZM14.19,16.4c-.39-.1-.18-.67.19-.58A20.76,20.76,0,0,1,17.9,17a.32.32,0,0,1-.21.61C16.5,17.29,15.39,16.71,14.19,16.4ZM70.92,35.93c1.23-.94,2.3-2.07,3.53-3,.38-.3.88.28.49.56-1.25.92-2.36,2-3.61,2.93C71,36.64,70.6,36.18,70.92,35.93Zm22.75,8.69a7,7,0,0,0-.26,2.18c0,.36-.52.49-.57.12a4.53,4.53,0,0,1,.24-2.5A.31.31,0,0,1,93.67,44.62Zm-9.42-2.79a20,20,0,0,1,4.33,5.66c.22.39-.41.7-.62.31a18.63,18.63,0,0,0-4-5.53C83.7,42.05,84,41.61,84.25,41.83Zm-32.86-8.3a26.27,26.27,0,0,0-3.85-.67.36.36,0,0,1,0-.71,19.33,19.33,0,0,1,4.06.66C52.12,32.93,51.86,33.63,51.39,33.53Zm10,1.59c-.25-.12-.13-.52.14-.41,1.15.45,2.36.73,3.53,1.11a.3.3,0,0,1-.19.56A30.74,30.74,0,0,1,61.37,35.12Zm-24.16-7.3a26.38,26.38,0,0,1,3.87,2.59c.3.23,0,.74-.34.49A26.59,26.59,0,0,0,37,28.2C36.69,28.05,37,27.68,37.21,27.82Zm-15.3-4c-.33-.16-.16-.71.19-.55,1,.46,2,.86,3.06,1.3a.3.3,0,0,1-.19.56A17.19,17.19,0,0,1,21.91,23.85Zm-9.7-.73a18.07,18.07,0,0,0,4.87-.35c.49-.13.63.61.16.76a16.58,16.58,0,0,1-5.07.33C11.69,23.85,11.74,23.12,12.21,23.12Zm47.5,18.1c.45.11.22.81-.24.69a14.22,14.22,0,0,1-3.62-1.53c-.38-.22,0-.78.39-.57A13.6,13.6,0,0,0,59.71,41.22Zm11,4c-1-1.28-2.08-2.49-3.16-3.69-.27-.3.19-.7.46-.41,1.11,1.18,2.22,2.37,3.26,3.61C71.55,45.14,71,45.63,70.68,45.26ZM31.85,32.6a22.66,22.66,0,0,1-2.28-2.8c-.23-.33.24-.75.48-.42a21.25,21.25,0,0,0,2.29,2.79C32.64,32.47,32.14,32.91,31.85,32.6ZM75.1,41.29c-.09-.31.39-.4.48-.1.78,2.53,2.18,5,2.09,7.75a.35.35,0,0,1-.69,0C77.08,46.22,75.82,43.81,75.1,41.29ZM24.78,30.48a.27.27,0,0,1,.11.52c-1.52.36-3.07.61-4.61.87a.28.28,0,0,1-.11-.54C21.71,31.05,23.23,30.66,24.78,30.48ZM50,41.1a19.9,19.9,0,0,1-5.43-.56c-.34-.09-.16-.59.17-.51a19.66,19.66,0,0,0,5.3.38C50.49,40.39,50.45,41.08,50,41.1ZM18.07,31.74c-1.25-.89-2.33-2-3.6-2.87a.29.29,0,0,1,.32-.48,27,27,0,0,1,3.71,2.87C18.78,31.51,18.36,32,18.07,31.74ZM60.41,45c.17-.35.74-.18.59.19a6.27,6.27,0,0,1-3.09,3.43.21.21,0,0,1-.18-.38A6,6,0,0,0,60.41,45ZM36.6,41.66a.33.33,0,0,1,0-.65,16.86,16.86,0,0,1,4.75.59c.46.17.2.91-.25.72A14.12,14.12,0,0,0,36.6,41.66Zm-6.83-1.34A7.32,7.32,0,0,0,33.25,39c.24-.21.64.12.43.38-.91,1.12-2.43,1.4-3.78,1.65A.34.34,0,0,1,29.77,40.32ZM62.51,52.1a29.31,29.31,0,0,1,.57-4.77c.09-.38.69-.25.66.13-.11,1.56-.33,3.12-.47,4.68A.38.38,0,0,1,62.51,52.1Zm8.8,5.63a22.36,22.36,0,0,0-1.74-4.88.3.3,0,0,1,.53-.26,21,21,0,0,1,1.92,5A.36.36,0,0,1,71.31,57.73ZM45,49.75c-.39-.12-.19-.72.21-.6a8.09,8.09,0,0,0,3.66.2c.42-.06.56.56.14.64A8,8,0,0,1,45,49.75Zm-6.52-2.51c.76-.29,1.52-.59,2.29-.86.41-.15.72.46.3.61-.77.28-1.54.54-2.32.81C38.33,47.93,38.05,47.39,38.43,47.24ZM109,74.33a47.12,47.12,0,0,1-5.24-1.16c-.34-.08-.23-.66.11-.6,1.74.31,3.43.76,5.17,1C109.52,73.64,109.49,74.37,109,74.33Zm-10.44-4a18,18,0,0,1-2.65-4.56c-.16-.49.62-.63.78-.16.55,1.61,1.84,2.76,2.53,4.28C99.41,70.33,98.83,70.75,98.56,70.37Zm23,3.53a7.62,7.62,0,0,0,1.07,2c.4.52.91.94,1.32,1.45a.33.33,0,0,1-.43.49A6.61,6.61,0,0,1,121,74.2C120.8,73.79,121.41,73.48,121.56,73.9ZM89.09,63.25c-1.77-1.37-3.16-3.26-4.78-4.8-.3-.28.18-.68.47-.41a64,64,0,0,1,4.78,4.68C89.82,63,89.41,63.5,89.09,63.25Zm7.45-2.69c-.24-.23.14-.67.4-.44.93.82,1.9,1.58,2.84,2.39.32.29,0,.83-.39.57A22.64,22.64,0,0,1,96.54,60.56Zm10.83,2.32c1,1.84,2.14,3.64,3.23,5.45.2.33-.33.59-.53.27-1.09-1.81-2.33-3.54-3.33-5.41C106.52,62.79,107.15,62.49,107.37,62.88ZM82.29,53.69c-1.89.69-3.85,1.12-5.8,1.63-.29.07-.37-.36-.09-.45,1.87-.57,3.77-1.07,5.6-1.78C82.4,52.93,82.7,53.54,82.29,53.69Zm41.4,11.9c.38.2,0,.85-.34.67-1.7-.78-3.46-1.48-5.14-2.31-.4-.2-.19-.85.22-.66C120.16,64.11,122,64.7,123.69,65.59ZM91.28,56a.3.3,0,0,1-.12-.59,30.35,30.35,0,0,0,7.74-2.51c.43-.22.74.43.33.67C96.87,54.94,94,55.42,91.28,56Zm21.64,1.23c-1.91-.26-3.8-.64-5.69-1-.36-.07-.24-.7.12-.63,1.86.35,3.73.66,5.61.91C113.43,56.5,113.39,57.24,112.92,57.18Zm16,4.76a10.9,10.9,0,0,1-3.48-1.2c-.38-.18-.18-.81.22-.63,1.11.48,2.27.7,3.4,1.11A.37.37,0,0,1,129,61.94Zm-5.61-5.23c-1.46.56-3,1-4.5,1.46-.42.12-.54-.52-.14-.65,1.47-.46,2.9-1.18,4.4-1.51C123.53,55.92,123.77,56.55,123.36,56.71Zm-17.93-5.34a.39.39,0,0,1-.51-.59A9.71,9.71,0,0,1,107.59,49c.48-.19.84.53.35.72A9,9,0,0,0,105.43,51.37Zm12.6-.11a44.11,44.11,0,0,0,4.48,3.1c.47.28,0,1-.47.7a44.29,44.29,0,0,1-4.45-3.16C117.21,51.59,117.63,51,118,51.26ZM100,47.5c-.18.35-.68,0-.5-.34a27.1,27.1,0,0,0,2.24-6.43c.11-.46.79-.22.69.23A26.67,26.67,0,0,1,100,47.5ZM118.62,44c-.64.34-1.21.8-1.86,1.12a.37.37,0,0,1-.33-.66c.64-.34,1.21-.8,1.86-1.12A.37.37,0,0,1,118.62,44Zm-6.85-4.3a23.6,23.6,0,0,0,.32,5.69.31.31,0,0,1-.61.13,18.92,18.92,0,0,1-.35-5.86A.32.32,0,0,1,111.77,39.74ZM39.83,14.92c-.16.37-.76.18-.6-.21.61-1.55,1-3.17,1.43-4.77.13-.46.8-.21.7.24A26.21,26.21,0,0,1,39.83,14.92Z"/></g><g id="stroke"><path class="cls-2" d="M34.41.26a53.11,53.11,0,0,0,1.14,5.35,35.32,35.32,0,0,0-4.35-.9,26.31,26.31,0,0,1-.6-3.44c0-.28-.52-.25-.51,0a28.56,28.56,0,0,0,.4,3.3c-1.14-.15-2.29-.24-3.45-.28-.12-1.2-.27-2.4-.44-3.6,0-.33-.54-.22-.49.1q.21,1.74.36,3.48a37.57,37.57,0,0,0-8.23.7c0-.75-.1-1.51-.13-2.27,0-.46-.75-.52-.73,0,0,.82.1,1.64.18,2.46l-.94.21a18.67,18.67,0,0,0-5.47,2.31,3.9,3.9,0,0,1,.19-1.74.33.33,0,0,0-.59-.29,3.14,3.14,0,0,0-.31,2.51,15.58,15.58,0,0,0-4.55,5C4.65,12.48,3.33,11.88,2,11.28c-.31-.14-.46.35-.17.49,1.28.62,2.52,1.27,3.72,2A17.19,17.19,0,0,0,4,18.71,17.36,17.36,0,0,0,3.75,23c-1.13-.24-2.26-.51-3.37-.86a.29.29,0,0,0-.19.55c1.19.39,2.4.72,3.62,1a20.49,20.49,0,0,0,2.58,7.59,7.83,7.83,0,0,1-2.71,2.5.22.22,0,0,0,.2.39,7.67,7.67,0,0,0,2.83-2.35,31.93,31.93,0,0,0,4.18,5.48c-.07.14-.13.28-.2.41-.18.36.33.71.52.35l.14-.27a48.57,48.57,0,0,0,6.35,5.48A19,19,0,0,1,13.81,45c-.29.08-.2.54.1.46a21.66,21.66,0,0,0,4.31-1.79,63.78,63.78,0,0,0,7.25,4.5c-.7,1.17-1.15,2.61-1.85,3.66a.27.27,0,0,0,.45.31c.86-1.15,1.37-2.45,2.12-3.6A64.77,64.77,0,0,0,34.61,52,20,20,0,0,0,35,55.93a.34.34,0,0,0,.66-.13,18,18,0,0,1-.33-3.55l.81.27c3.35,1.17,6.71,2.29,10.07,3.41a5.63,5.63,0,0,1-1.84,1.72c-.29.16-.06.63.24.47a8.32,8.32,0,0,0,2.27-2c2.37.79,4.73,1.57,7.09,2.37l.89.29c0,1.3.08,2.6,0,3.9a.36.36,0,0,0,.72.05A30.93,30.93,0,0,0,55.49,59q3.36,1.13,6.73,2.29c.06.41.11.82.13,1.23s.77.52.74,0a8.69,8.69,0,0,0-.12-1c4.36,1.52,8.7,3.11,13,4.86-.47,1.48-.85,3-1.4,4.45-.14.37.44.56.58.2.59-1.43,1-2.9,1.54-4.35,2.37,1,4.73,2,7,3.12a26,26,0,0,1-.49,2.75c-.11.43.54.66.66.23a27,27,0,0,0,.53-2.65c1.36.66,2.71,1.33,4,2,1.61.85,3.2,1.75,4.8,2.65a54.16,54.16,0,0,1,.14,5.84c0,.32.47.35.51,0A47,47,0,0,0,94,75.31c2.39,1.35,4.79,2.7,7.25,3.89a14,14,0,0,1-1.66,1.5c-.31.24.09.68.4.46a18.61,18.61,0,0,0,1.94-1.63,38.93,38.93,0,0,0,10,3.3c-.48.85-1,1.7-1.43,2.57-.2.38.35.77.56.38.53-1,1.11-1.89,1.68-2.82l.23,0a19.52,19.52,0,0,0,8.83-.88c.3.54.6,1.07.89,1.61a.24.24,0,0,0,.43-.21l-.74-1.61a19.64,19.64,0,0,0,7.14-4.59,20.74,20.74,0,0,0,2.74,3.09c.32.27.66-.22.45-.52-.78-1.1-1.83-2-2.72-3.09a18.2,18.2,0,0,0,3-4.42,23.5,23.5,0,0,0,1-2.39.46.46,0,0,0,.11-.33,19.15,19.15,0,0,0,.92-4.55,10.32,10.32,0,0,1,1.22.86c.36.27.75-.31.39-.57a10.38,10.38,0,0,0-1.56-1,18,18,0,0,0-.55-5.1,8.58,8.58,0,0,0,1.67-.21.39.39,0,0,0-.16-.77,11.44,11.44,0,0,1-1.73.19,24,24,0,0,0-3.57-7A8.76,8.76,0,0,0,133,48.89c.25-.44-.36-.87-.65-.44a11,11,0,0,1-2.16,2.39,46,46,0,0,0-8.52-8.36c.88-1.07,1.73-2.15,2.66-3.18.33-.36-.16-.94-.5-.58a39.4,39.4,0,0,0-2.7,3.34,89.56,89.56,0,0,0-8.58-5.73c.7-.45,1.39-.91,2.08-1.39.41-.28-.11-.9-.52-.59-.73.54-1.46,1.09-2.21,1.59q-2.31-1.35-4.46-2.5a11.6,11.6,0,0,1,1.44-.34c.44-.08.3-.74-.14-.68a9,9,0,0,0-2.14.57q-3-1.59-6.08-3a13.46,13.46,0,0,1,1.16-1.48c.32-.36-.16-.92-.49-.57a12.7,12.7,0,0,0-1.33,1.76q-2.76-1.23-5.57-2.35a11.75,11.75,0,0,1-.16-2.78.35.35,0,0,0-.69,0,10.81,10.81,0,0,0,.14,2.54Q90.77,26,87.94,24.93A17.58,17.58,0,0,1,89,22.75c.17-.28-.24-.56-.42-.28a20.22,20.22,0,0,0-1.23,2.24l-6.92-2.55a9.63,9.63,0,0,0-.1-1.52c-.07-.45-.71-.29-.67.14s.06.75.07,1.12c-1.19-.44-2.38-.88-3.57-1.34.65-.89,1.28-1.79,1.88-2.72a.31.31,0,0,0-.51-.34c-.64,1-1.36,1.88-2.07,2.79l-1.39-.54c-1.5-.58-3-1.2-4.46-1.84a2.33,2.33,0,0,0,.11-.28.4.4,0,0,0-.75-.25l-.07.21c-2.84-1.23-5.66-2.52-8.49-3.79a7.67,7.67,0,0,1,.18-1.42c.1-.49-.63-.76-.76-.25a7.39,7.39,0,0,0-.2,1.32l-1.92-.86c-2.15-.95-4.3-1.78-6.47-2.5,0-.27.08-.55.14-.83A.38.38,0,0,0,50.67,9a3.83,3.83,0,0,0-.23.8C49,9.37,47.6,9,46.15,8.6c.13-1.14.23-2.28.29-3.42a.4.4,0,0,0-.8,0c-.06,1.1-.12,2.19-.2,3.29-1.27-.3-2.55-.57-3.86-.8a23.36,23.36,0,0,1-3.2-.79.21.21,0,0,0-.07-.36c-.61-.22-1.24-.42-1.87-.61-.81-1.78-1-3.82-1.58-5.7C34.77-.1,34.35,0,34.41.26Zm11,9c0,.61-.09,1.21-.16,1.82,0,.41.57.44.63,0,.08-.57.15-1.14.22-1.7a42.39,42.39,0,0,1,4.3,1.26A11.33,11.33,0,0,0,50.61,13c.08.47.8.32.72-.15a9.57,9.57,0,0,1-.14-1.9c.76.27,1.51.56,2.26.85,2.08.81,4.13,1.7,6.17,2.62A20.54,20.54,0,0,0,60.48,19c.11.39.71.28.62-.12a23.19,23.19,0,0,1-.68-4.11c2.71,1.24,5.42,2.5,8.16,3.67a13.16,13.16,0,0,1-.84,1.68.33.33,0,0,0,.55.37,14.32,14.32,0,0,0,1-1.75l.42.18c1.73.72,3.48,1.4,5.24,2.06-.7.91-1.39,1.82-2,2.78a.36.36,0,0,0,.59.41l2.14-2.91q2,.77,4.08,1.5A16.8,16.8,0,0,1,79.62,25c0,.36.5.38.56,0,.11-.66.19-1.34.24-2,2.21.79,4.42,1.58,6.63,2.39A23.28,23.28,0,0,0,86,28.26a.34.34,0,0,0,.64.22c.37-1,.69-1.93,1.05-2.88,2,.74,4,1.5,6.06,2.3,0,.07,0,.14,0,.21a.33.33,0,0,0,.62.06c1.71.69,3.41,1.41,5.09,2.18-.62,1-1.15,2.17-1.68,3.27-.17.36.42.56.6.2a34.7,34.7,0,0,1,1.71-3.19c1.48.69,2.95,1.4,4.39,2.17l1.16.61a10.52,10.52,0,0,0-1.57,1c-.31.22.07.64.38.44a9.56,9.56,0,0,1,1.92-1c1.7.91,3.39,1.83,5.07,2.79a.28.28,0,0,0,.33.19,82.36,82.36,0,0,1,8.93,5.82l-.36.46c-.26.32.27.67.54.36l.34-.42a48.13,48.13,0,0,1,6.7,6.23c.58.66,1.12,1.35,1.65,2.06a12.46,12.46,0,0,1-1.13.67.36.36,0,0,0,.32.64,12.77,12.77,0,0,0,1.24-.71,23.21,23.21,0,0,1,3.29,6.63,26.35,26.35,0,0,1-3-.21c-.41-.05-.44.58,0,.64a32.55,32.55,0,0,0,3.28.35A18.27,18.27,0,0,1,134,62a16.72,16.72,0,0,1,.09,2.24.33.33,0,0,0,0,.45,18.6,18.6,0,0,1-.83,4.56,25.51,25.51,0,0,1-3-1.17c-.46-.2-.69.53-.25.74A21.9,21.9,0,0,0,133,70a20,20,0,0,1-2.66,5q-.52.7-1.11,1.35a.39.39,0,0,0-.15.16A18.15,18.15,0,0,1,122,81.18a25.09,25.09,0,0,0-1.45-2.65c-.25-.38-.89-.09-.65.32.5.84,1,1.69,1.46,2.55a19.35,19.35,0,0,1-3.2.76,18.28,18.28,0,0,1-5,0,23,23,0,0,0,1.51-3c.19-.47-.55-.71-.75-.25a33.81,33.81,0,0,1-1.6,3.11,35.64,35.64,0,0,1-8.14-2.47c-.55-.23-1.09-.46-1.63-.71.45-.45.88-.91,1.29-1.37.25-.28-.22-.67-.49-.43-.53.46-1,1-1.49,1.47-2.68-1.27-5.28-2.72-7.86-4.19a23,23,0,0,1,.15-2.75c.06-.48-.67-.51-.74,0A14.54,14.54,0,0,0,93.23,74l-2-1.1c-2.2-1.23-4.45-2.36-6.73-3.43.12-.85.22-1.71.33-2.56.06-.51-.73-.56-.79-.05-.1.76-.18,1.52-.27,2.27-2.28-1-4.59-2-6.92-3,.15-.41.29-.83.45-1.25s-.55-.7-.73-.25-.3.81-.44,1.21c-4.4-1.8-8.87-3.46-13.35-5.05a25.92,25.92,0,0,1-.82-4c0-.31-.49-.35-.5,0a16.69,16.69,0,0,0,.57,3.77q-3.3-1.15-6.62-2.27c0-.52,0-1,0-1.55a.28.28,0,0,0-.55,0c0,.46,0,.92,0,1.37l-7.44-2.48c.44-.55.87-1.12,1.32-1.63.24-.29-.2-.64-.47-.42a9.38,9.38,0,0,0-1.57,1.82l-5.31-1.78c-2-.68-4-1.36-6-2.07a12.2,12.2,0,0,1,.26-1.68c.1-.45-.57-.69-.69-.23a10.16,10.16,0,0,0-.28,1.65,85.69,85.69,0,0,1-8-3.34,5.82,5.82,0,0,1,.89-.9c.29-.23,0-.67-.35-.52a3.56,3.56,0,0,0-1.29,1,52.27,52.27,0,0,1-6.48-3.84l-.5-.35c.74-.39,1.49-.77,2.25-1.11.4-.18.09-.81-.31-.61-.84.4-1.66.86-2.49,1.32A47.4,47.4,0,0,1,11.76,37c.57-1.1,1.13-2.2,1.74-3.28.2-.36-.29-.71-.53-.36a21.33,21.33,0,0,0-1.69,3.12,31.45,31.45,0,0,1-4-5.42l.39-.52c.25-.33-.28-.69-.52-.36a3,3,0,0,1-.2.29,20.6,20.6,0,0,1-2.3-6.6c1,.2,1.9.38,2.86.53.43.07.45-.6,0-.68-1-.18-2-.36-3-.56a16.47,16.47,0,0,1,.87-7.46,14.68,14.68,0,0,1,.68-1.61c.48.3,1,.62,1.42,1,.3.22.59-.24.32-.47a12.52,12.52,0,0,0-1.45-1.06A14.33,14.33,0,0,1,10.59,8.8c.09.32.18.64.27.94s.81.31.7-.14-.23-.85-.31-1.26A20.62,20.62,0,0,1,17.6,5.63c.12,1.22.24,2.43.25,3.66a.23.23,0,0,0,.46,0,35.14,35.14,0,0,0,0-3.84,33.32,33.32,0,0,1,8.25-.71q.15,1.76.21,3.51c0,.42.68.46.65,0C27.3,7.14,27.2,6,27.09,4.8c1.18.06,2.35.16,3.5.32.15.77.32,1.54.5,2.29a.33.33,0,0,0,.64-.13c-.11-.69-.26-1.38-.41-2.06a39.37,39.37,0,0,1,4.43.94,7,7,0,0,0,1.13,1.93c.33.4.95-.14.61-.54a.6.6,0,0,1-.09-.13A40.41,40.41,0,0,0,44.22,9C44.6,9.05,45,9.13,45.37,9.21Z"/><path class="cls-2" d="M88,47.8c.21.39.84.08.62-.31a20,20,0,0,0-4.33-5.66c-.27-.22-.55.22-.3.44A18.63,18.63,0,0,1,88,47.8Z"/><path class="cls-2" d="M77.67,48.94c.09-2.72-1.31-5.22-2.09-7.75-.09-.3-.57-.21-.48.1.72,2.52,2,4.93,1.88,7.61A.35.35,0,0,0,77.67,48.94Z"/><path class="cls-2" d="M57.91,48.57A6.27,6.27,0,0,0,61,45.14c.15-.37-.42-.54-.59-.19a6,6,0,0,1-2.68,3.24A.21.21,0,0,0,57.91,48.57Z"/><path class="cls-2" d="M59.56,30.6A18.93,18.93,0,0,1,59,25c0-.48-.67-.51-.74-.05a16,16,0,0,0,.67,5.83A.33.33,0,0,0,59.56,30.6Z"/><path class="cls-2" d="M65.22,31c.88-1.1,1.48-2.39,2.33-3.51.3-.38-.3-.75-.6-.41-.92,1.07-1.39,2.45-2.23,3.58C64.49,31,65,31.32,65.22,31Z"/><path class="cls-2" d="M74.94,33.48c.39-.28-.11-.86-.49-.56-1.23.94-2.3,2.07-3.53,3-.32.25.09.71.41.48C72.58,35.49,73.69,34.4,74.94,33.48Z"/><path class="cls-2" d="M72,57.58a21,21,0,0,0-1.92-5,.3.3,0,0,0-.53.26,22.36,22.36,0,0,1,1.74,4.88A.36.36,0,0,0,72,57.58Z"/><path class="cls-2" d="M84.31,58.45c1.62,1.54,3,3.43,4.78,4.8.32.25.73-.24.47-.53A64,64,0,0,0,84.78,58C84.49,57.77,84,58.17,84.31,58.45Z"/><path class="cls-2" d="M96.69,65.65c-.16-.47-.94-.33-.78.16a18,18,0,0,0,2.65,4.56c.27.38.85,0,.66-.44C98.53,68.41,97.24,67.26,96.69,65.65Z"/><path class="cls-2" d="M106.74,63.19c1,1.87,2.24,3.6,3.33,5.41.2.32.73.06.53-.27-1.09-1.81-2.18-3.61-3.23-5.45C107.15,62.49,106.52,62.79,106.74,63.19Z"/><path class="cls-2" d="M113,56.44c-1.88-.25-3.75-.56-5.61-.91-.36-.07-.48.56-.12.63,1.89.38,3.78.76,5.69,1C113.39,57.24,113.43,56.5,113,56.44Z"/><path class="cls-2" d="M118.21,64c1.68.83,3.44,1.53,5.14,2.31.39.18.72-.47.34-.67-1.7-.89-3.53-1.48-5.26-2.3C118,63.1,117.81,63.75,118.21,64Z"/><path class="cls-2" d="M121,74.2a6.61,6.61,0,0,0,2.57,3.65.33.33,0,0,0,.43-.49c-.41-.51-.92-.93-1.32-1.45a7.62,7.62,0,0,1-1.07-2C121.41,73.48,120.8,73.79,121,74.2Z"/><path class="cls-2" d="M111.13,39.7a18.92,18.92,0,0,0,.35,5.86.31.31,0,0,0,.61-.13,23.6,23.6,0,0,1-.32-5.69A.32.32,0,0,0,111.13,39.7Z"/><path class="cls-2" d="M101.69,40.73a27.1,27.1,0,0,1-2.24,6.43c-.18.35.32.69.5.34A26.67,26.67,0,0,0,102.38,41C102.48,40.51,101.8,40.27,101.69,40.73Z"/><path class="cls-2" d="M98.9,52.85a30.35,30.35,0,0,1-7.74,2.51.3.3,0,0,0,.12.59c2.67-.53,5.59-1,8-2.43C99.64,53.28,99.33,52.63,98.9,52.85Z"/><path class="cls-2" d="M92,39.07a37,37,0,0,1-1.71-6.2c-.09-.48-.82-.33-.75.16a30.53,30.53,0,0,0,1.86,6.34C91.52,39.77,92.12,39.47,92,39.07Z"/><path class="cls-2" d="M117.59,51.9A44.29,44.29,0,0,0,122,55.06c.47.29.94-.42.47-.7a44.11,44.11,0,0,1-4.48-3.1C117.63,51,117.21,51.59,117.59,51.9Z"/><path class="cls-2" d="M71.24,44.77c-1-1.24-2.15-2.43-3.26-3.61-.27-.29-.73.11-.46.41,1.08,1.2,2.16,2.41,3.16,3.69C71,45.63,71.55,45.14,71.24,44.77Z"/><path class="cls-2" d="M44.57,40.54A19.9,19.9,0,0,0,50,41.1c.45,0,.49-.71,0-.69a19.66,19.66,0,0,1-5.3-.38C44.41,40,44.23,40.45,44.57,40.54Z"/><path class="cls-2" d="M48.82,49.35a8.09,8.09,0,0,1-3.66-.2c-.4-.12-.6.48-.21.6A8,8,0,0,0,49,50C49.38,49.91,49.24,49.29,48.82,49.35Z"/><path class="cls-2" d="M41.08,30.41a26.38,26.38,0,0,0-3.87-2.59c-.25-.14-.52.23-.26.38a26.59,26.59,0,0,1,3.79,2.7C41,31.15,41.38,30.64,41.08,30.41Z"/><path class="cls-2" d="M42.58,20.85a47.51,47.51,0,0,1,3.28,4.44c.21.34.76.08.57-.28A33.48,33.48,0,0,0,43,20.45C42.8,20.14,42.35,20.54,42.58,20.85Z"/><path class="cls-2" d="M55.85,40.38a14.22,14.22,0,0,0,3.62,1.53c.46.12.69-.58.24-.69a13.6,13.6,0,0,1-3.47-1.41C55.86,39.6,55.47,40.16,55.85,40.38Z"/><path class="cls-2" d="M50.74,24.25A11.46,11.46,0,0,0,53.64,22c.34-.35-.15-.92-.5-.58a12.47,12.47,0,0,1-2.69,2.28A.33.33,0,0,0,50.74,24.25Z"/><path class="cls-2" d="M33.68,39.34c.21-.26-.19-.59-.43-.38a7.32,7.32,0,0,1-3.48,1.36.34.34,0,0,0,.13.67C31.25,40.74,32.77,40.46,33.68,39.34Z"/><path class="cls-2" d="M20.28,31.87c1.54-.26,3.09-.51,4.61-.87a.27.27,0,0,0-.11-.52c-1.55.18-3.07.57-4.61.85A.28.28,0,0,0,20.28,31.87Z"/><path class="cls-2" d="M17.69,17.6A.32.32,0,0,0,17.9,17a20.76,20.76,0,0,0-3.52-1.17c-.37-.09-.58.48-.19.58C15.39,16.71,16.5,17.29,17.69,17.6Z"/><path class="cls-2" d="M17.24,23.53c.47-.15.33-.89-.16-.76a18.07,18.07,0,0,1-4.87.35c-.47,0-.52.73,0,.74A16.58,16.58,0,0,0,17.24,23.53Z"/><path class="cls-2" d="M29.21,20.46c-1.46-.95-3.08-1.6-4.52-2.59a.27.27,0,0,0-.31.45A22,22,0,0,0,29,21,.29.29,0,0,0,29.21,20.46Z"/><path class="cls-2" d="M32.34,32.17a21.25,21.25,0,0,1-2.29-2.79c-.24-.33-.71.09-.48.42a22.66,22.66,0,0,0,2.28,2.8C32.14,32.91,32.64,32.47,32.34,32.17Z"/><path class="cls-2" d="M35.75,19.3a5.1,5.1,0,0,0-.93-1.46c-.53-.73-1-1.48-1.58-2.22-.26-.35-.75.09-.51.43.48.68,1,1.35,1.42,2a12.22,12.22,0,0,0,1,1.48C35.39,19.8,35.84,19.62,35.75,19.3Z"/><path class="cls-2" d="M40.66,9.94c-.47,1.6-.82,3.22-1.43,4.77-.16.39.44.58.6.21a26.21,26.21,0,0,0,1.53-4.74C41.46,9.73,40.79,9.48,40.66,9.94Z"/><path class="cls-2" d="M47.54,32.86a26.27,26.27,0,0,1,3.85.67c.47.1.73-.6.25-.72a19.33,19.33,0,0,0-4.06-.66A.36.36,0,0,0,47.54,32.86Z"/><path class="cls-2" d="M41.38,41.6A16.86,16.86,0,0,0,36.63,41a.33.33,0,0,0,0,.65,14.12,14.12,0,0,1,4.53.66C41.58,42.51,41.84,41.77,41.38,41.6Z"/><path class="cls-2" d="M41,47c.42-.15.11-.76-.3-.61-.77.27-1.53.57-2.29.86-.38.15-.1.69.27.56C39.48,47.53,40.25,47.27,41,47Z"/><path class="cls-2" d="M63.27,52.14c.14-1.56.36-3.12.47-4.68,0-.38-.57-.51-.66-.13a29.31,29.31,0,0,0-.57,4.77A.38.38,0,0,0,63.27,52.14Z"/><path class="cls-2" d="M25.16,24.6c-1-.44-2.05-.84-3.06-1.3-.35-.16-.52.39-.19.55A17.19,17.19,0,0,0,25,25.16.3.3,0,0,0,25.16,24.6Z"/><path class="cls-2" d="M23.37,11.52a6.68,6.68,0,0,0-2.3-2.45.3.3,0,0,0-.33.49,5.82,5.82,0,0,1,2,2.26C23,12.21,23.58,11.9,23.37,11.52Z"/><path class="cls-2" d="M18.5,31.26a27,27,0,0,0-3.71-2.87.29.29,0,0,0-.32.48c1.27.87,2.35,2,3.6,2.87C18.36,32,18.78,31.51,18.5,31.26Z"/><path class="cls-2" d="M65,35.82c-1.17-.38-2.38-.66-3.53-1.11-.27-.11-.39.29-.14.41a30.74,30.74,0,0,0,3.48,1.26A.3.3,0,0,0,65,35.82Z"/><path class="cls-2" d="M86.22,33.29c.46,0,.51-.71,0-.71a13.76,13.76,0,0,0-2.47.29c-.44.07-.3.73.14.67C84.69,33.44,85.45,33.32,86.22,33.29Z"/><path class="cls-2" d="M76.4,54.87c-.28.09-.2.52.09.45,2-.51,3.91-.94,5.8-1.63.41-.15.11-.76-.29-.6C80.17,53.8,78.27,54.3,76.4,54.87Z"/><path class="cls-2" d="M99.78,62.51c-.94-.81-1.91-1.57-2.84-2.39-.26-.23-.64.21-.4.44a22.64,22.64,0,0,0,2.85,2.52C99.77,63.34,100.1,62.8,99.78,62.51Z"/><path class="cls-2" d="M93.41,46.8a7,7,0,0,1,.26-2.18.31.31,0,0,0-.59-.2,4.53,4.53,0,0,0-.24,2.5C92.89,47.29,93.44,47.16,93.41,46.8Z"/><path class="cls-2" d="M107.59,49a9.71,9.71,0,0,0-2.67,1.75.39.39,0,0,0,.51.59,9,9,0,0,1,2.51-1.62C108.43,49.56,108.07,48.84,107.59,49Z"/><path class="cls-2" d="M103.76,73.17A47.12,47.12,0,0,0,109,74.33c.49,0,.52-.69,0-.76-1.74-.24-3.43-.69-5.17-1C103.53,72.51,103.42,73.09,103.76,73.17Z"/><path class="cls-2" d="M118.72,57.52c-.4.13-.28.77.14.65,1.5-.43,3-.9,4.5-1.46.41-.16.17-.79-.24-.7C121.62,56.34,120.19,57.06,118.72,57.52Z"/><path class="cls-2" d="M125.71,60.11c-.4-.18-.6.45-.22.63a10.9,10.9,0,0,0,3.48,1.2.37.37,0,0,0,.14-.72C128,60.81,126.82,60.59,125.71,60.11Z"/><path class="cls-2" d="M116.43,44.5a.37.37,0,0,0,.33.66c.65-.32,1.22-.78,1.86-1.12a.37.37,0,0,0-.33-.66C117.64,43.7,117.07,44.16,116.43,44.5Z"/></g></svg>