<svg xmlns="http://www.w3.org/2000/svg" viewBox="0 0 75.87 72.48"><defs><style>.cls-1{fill:#fff;}.cls-2{fill:#272525;}</style></defs><title>life</title><g id="color"><path class="cls-1" d="M72.14,39.11c-1-.71-1.89-1.49-2.81-2.24-2.09-1.72-4.5-3.1-6.47-5a12.2,12.2,0,0,1-2.13-3c-.66-1.14-1.43-2.19-2.14-3.29a27.2,27.2,0,0,1-1.87-3.28h-.2c-.08,0-.18-.07-.17-.17a.36.36,0,0,1,0-.1.16.16,0,0,1,.16-.11c0-.05-.05-.1-.07-.16a6,6,0,0,1-.36-1.06h0l-.06,0h-.11c-.23,0-.28-.36,0-.39l.18,0a13.17,13.17,0,0,1-.17-1.91,22.2,22.2,0,0,1,.38-5.37.16.16,0,0,1,.06-.24A17.39,17.39,0,0,1,57,10.48a43.29,43.29,0,0,0,1.41-4.16,18.12,18.12,0,0,0,.84-4.05c0-.45.15-1.08-.37-1.37A2.63,2.63,0,0,0,57.58.51a3.7,3.7,0,0,0-2.16.78c-1.08.78-2.07,1.7-3.15,2.49-.38.28-.77.54-1.16.81.11.17-.16.37-.29.21h0c-1.93,1.32-4,2.55-6,3.69-1.2.67-2.44,1.37-3.7,1.92a9.31,9.31,0,0,1-3.22.63,17.57,17.57,0,0,1-4-.23,18.62,18.62,0,0,1-3.55-.64c-1.28-.48-2.66-.71-3.92-1.28S24,7.74,22.84,7.1,20.45,5.66,19.3,4.89a34.4,34.4,0,0,1-3.15-2c-.5-.42-.82-1.12-1.38-1.45s-1.83-.78-2,.09c-.29,1.18.46,2,.52,3.11a.21.21,0,0,1-.23.23c.25.73.54,1.44.74,2.14.33,1.18.54,2.41.89,3.58a15.8,15.8,0,0,1,.46,2.65.2.2,0,0,1,0,.24c0,.42.1.85.18,1.26.24,1.39.42,2.77.69,4.15a15.56,15.56,0,0,1,.28,2.47c.17,0,.31.19.16.31l-.14.09a15,15,0,0,1-.13,2.12.14.14,0,0,1,0,.17h0a13,13,0,0,1-.63,2.57l0,.13a.2.2,0,0,1-.11.29c-.37,1-.77,2-1.21,3-.57,1.23-1.37,2.34-2,3.52-1.31,2.29-2.44,4.93-4.35,6.8h0a.19.19,0,0,1-.13.32l-.16,0A12.79,12.79,0,0,1,5.2,42.54a17.61,17.61,0,0,0-3.3,2.4A5.59,5.59,0,0,0,.65,46.55a1.77,1.77,0,0,0,1,2.31,8.75,8.75,0,0,0,3.62.66,77.43,77.43,0,0,1,8.07.29l.84.14a.17.17,0,0,1,.29,0,25.29,25.29,0,0,1,2.7.66c.1,0,.24,0,.27.08.49.15,1,.32,1.45.49l.08-.08c.15-.1.28.06.25.2.65.24,1.29.5,1.91.78s.94.42,1.4.64a.17.17,0,0,1,.13.07c.47.22.93.46,1.38.7a.2.2,0,0,1,.22.12l.8.44a13,13,0,0,1,2.76,2.36c.44.45,1,.86,1.49,1.3a.17.17,0,0,1,.19.17,5.64,5.64,0,0,1,1.14,1.26c.12,0,.19.07.19.23a.14.14,0,0,1,0,.06c.65,1.1,1.27,2.21,1.86,3.34.68,1.34,1.46,2.66,2.08,4a28,28,0,0,1,1,2.65c.31.88.9,2.53,2.09,2.5a2.84,2.84,0,0,0,2.28-.85,6,6,0,0,0,1.07-2.07,23.27,23.27,0,0,1,1.26-3.63c.42-.92.78-1.94,1.23-2.88a.14.14,0,0,1-.1-.13c0-.22.12-.28.31-.27l.32-.55c.43-.66.84-1.33,1.25-2a.16.16,0,0,1,.07-.25.18.18,0,0,1,.1,0c.47-.78.93-1.57,1.38-2.36a.18.18,0,0,1,.08-.15c.43-.76.85-1.52,1.26-2.3a16.5,16.5,0,0,1,1.14-1.94.16.16,0,0,1,.06-.18.21.21,0,0,1,.1,0A8.63,8.63,0,0,1,53,49.54a25.3,25.3,0,0,1,7.17-1.88c3-.42,6-.91,8.93-1.33,1.38-.2,2.77-.33,4.13-.66.78-.19,1.72-.36,1.93-1.26a7.74,7.74,0,0,0,.14-1.92C75.33,40.75,73.35,40,72.14,39.11ZM26.43,36.73c-.85.35-1.67.92-2.51,1.32s-1.88.83-2.82,1.24c-1.85.79-3.74,1.47-5.63,2.17s-3.79,1.67-5.76,2.32l-2.83.95a3.6,3.6,0,0,1-1.29.38A.08.08,0,0,1,5.5,45V45c0-.1.15-.1.16,0a13.55,13.55,0,0,1,1.75-.72c.94-.36,1.89-.69,2.82-1.06,1.84-.73,3.58-1.62,5.43-2.31,2.06-.76,4.09-1.55,6.11-2.42.94-.41,1.9-.82,2.81-1.31.56-.3,1.12-.67,1.7-.91C26.6,36.1,26.74,36.6,26.43,36.73Zm1.88-11.6a12.22,12.22,0,0,1-1.7-1.82c-.71-.78-1.42-1.59-2.15-2.35a22.91,22.91,0,0,1-3.1-4.84c-.5-.91-1.22-1.69-1.8-2.55a23.87,23.87,0,0,1-1.68-2.89A37.76,37.76,0,0,1,15.6,5.41a.13.13,0,0,1,.24-.07,36,36,0,0,0,2.58,5.43c.5.86,1,1.74,1.55,2.56s1.23,1.48,1.69,2.29a29.66,29.66,0,0,0,3.18,5c.64.73,1.31,1.41,2,2.12a13.2,13.2,0,0,0,1.79,1.94C28.89,24.85,28.61,25.34,28.31,25.13Zm5.34,9.35a.83.83,0,0,1-1.1-.21,1.24,1.24,0,0,1,.11-1.09.49.49,0,0,1,.25-.2.38.38,0,0,1,.13-.09.68.68,0,0,1,.91.35A1.08,1.08,0,0,1,33.65,34.48ZM37.9,65.23a.14.14,0,0,1-.27,0,25.16,25.16,0,0,0-.46-5.89,42.07,42.07,0,0,1-1.34-6c-.24-2-.47-4.06-.56-6.08a24.3,24.3,0,0,0-.33-3.41,9.6,9.6,0,0,0-.44-2.22c-.14-.29.3-.55.44-.26a10,10,0,0,1,.54,2.68A27.39,27.39,0,0,1,35.75,47c.09,2,.29,4.07.52,6.08A21.83,21.83,0,0,0,37,56.72a26.7,26.7,0,0,1,.81,3A31.18,31.18,0,0,1,37.9,65.23Zm1.36-40.72c-.16.31-.62,0-.46-.27a28.83,28.83,0,0,1,3.72-5.62c1.56-1.82,3.13-3.62,4.64-5.48s3.34-3.73,5-5.57c.83-.9,1.7-1.76,2.56-2.63.41-.41.82-.82,1.2-1.25.23-.25.39-.55.71-.69.12,0,.23.12.11.19-.41.24-.75.88-1.06,1.22s-.81.86-1.22,1.28c-.76.78-1.48,1.59-2.19,2.41-1.58,1.81-3.28,3.52-4.78,5.39s-3,3.68-4.62,5.49A27.35,27.35,0,0,0,39.26,24.51ZM69.61,42.58c-.14-.24-1.16-.34-1.36-.4-.59-.16-1.15-.37-1.72-.56-1.17-.38-2.35-.7-3.54-1-2.27-.62-4.51-1.38-6.77-2.08-1.15-.36-2.29-.78-3.45-1.13a33.42,33.42,0,0,0-3.29-.77,30.4,30.4,0,0,0-6.58-.7.26.26,0,0,1,0-.52H43a28.54,28.54,0,0,1,6.58.72c1.22.29,2.45.49,3.64.89s2.5.85,3.77,1.23c2.5.77,5,1.58,7.51,2.32,1.29.37,2.53.9,3.82,1.26.39.11,1.32.18,1.54.6A.16.16,0,0,1,69.61,42.58Z"/></g><g id="stroke"><path class="cls-2" d="M72.39,38.68c-1.14-.8-2.15-1.77-3.27-2.6l-1.69-1.29a1.82,1.82,0,0,0,.4-.75.17.17,0,0,0-.32-.09,2.07,2.07,0,0,1-.38.62L66.35,34a3.73,3.73,0,0,0,.37-.6c.09-.18-.16-.33-.26-.16a4.24,4.24,0,0,1-.38.56l-1-.74a3.11,3.11,0,0,1,.2-.41c.1-.18.21-.34.31-.52a.15.15,0,0,0-.26-.15,5.09,5.09,0,0,0-.54.87c-.44-.33-.86-.66-1.26-1a.15.15,0,0,0,.15-.05,2.86,2.86,0,0,0,.59-1c.06-.18-.21-.24-.28-.07a2.42,2.42,0,0,1-.27.5c-.1.14-.22.26-.3.4a.14.14,0,0,0,0,.14,8.75,8.75,0,0,1-.8-.81c-.1-.11-.19-.23-.28-.35h0l.1-.12a.52.52,0,0,0,.12-.18,1,1,0,0,1,.1-.11l.14-.18a1.24,1.24,0,0,0,.17-.37.1.1,0,1,0-.19-.05,1.13,1.13,0,0,1-.29.43l-.23.23-.1.1c-.32-.46-.61-1-.89-1.46a1.58,1.58,0,0,1,.12-.15l.3-.34a1.05,1.05,0,0,0,.33-.62c0-.11-.17-.14-.19,0s-.28.44-.44.61a3.25,3.25,0,0,1-.27.26c-.19-.34-.38-.68-.58-1l-.28-.44.19-.16.4-.38c.17-.17.4-.3.42-.56s-.19-.15-.21,0-.17.24-.28.32l-.35.29-.34.27-.93-1.4,0,0c.2-.12.38-.25.58-.35s.41-.17.51-.37a.09.09,0,0,0-.15-.11,1.85,1.85,0,0,1-.54.28,1.55,1.55,0,0,0-.58.31l0,0c-.29-.43-.58-.88-.85-1.33L58,23.7a3.6,3.6,0,0,1,.73-.21,9,9,0,0,1,1.14-.26c.16,0,.17-.26,0-.26a6.56,6.56,0,0,0-1.08.17,6.46,6.46,0,0,0-1,.22c-.21-.35-.41-.71-.59-1.08a2.75,2.75,0,0,1,1.24-.09.1.1,0,0,0,0-.2,3.45,3.45,0,0,0-1.43,0,6.62,6.62,0,0,1-.5-1.39,9.79,9.79,0,0,1,1.21-.17.13.13,0,0,0,0-.25,6.83,6.83,0,0,0-1.28.09,3.62,3.62,0,0,1-.06-.46l0-.64c.62-.11,1.23-.39,1.84-.54a.1.1,0,0,0,0-.2c-.62,0-1.21.31-1.83.4,0-.66-.06-1.32-.07-2a3,3,0,0,1,.46-.05,8.66,8.66,0,0,1,.87-.12.12.12,0,0,0,0-.23,6.31,6.31,0,0,0-1.06.08.88.88,0,0,1-.28,0c0-.36,0-.72,0-1.08a2.11,2.11,0,0,0,0-.25h0A10.15,10.15,0,0,1,57.6,15a.09.09,0,0,0,0-.18,10,10,0,0,0-1.22.06,14,14,0,0,1,.32-1.81,6.76,6.76,0,0,1,.9,0c.07,0,.09-.12,0-.13a6.32,6.32,0,0,0-.86-.11c.5-1.95,1.35-3.83,1.93-5.75.38-1.27.64-2.56.91-3.86.12-.59.44-2-.06-2.46-1.72-1.71-4-.27-5.44.92-1.08.88-2.2,1.68-3.33,2.45l-.41-.48c-.11-.13-.34,0-.24.18s.24.33.35.5c-1.26.85-2.55,1.66-3.85,2.5L46.45,7c-.14-.21-.22-.44-.34-.66s-.27,0-.21.12a7.29,7.29,0,0,0,.28.7c-.48.31-1,.6-1.47.88V8a2.53,2.53,0,0,1-.26-.86c0-.17-.28-.18-.28,0a3.15,3.15,0,0,0,.22,1l0,0c-.51.27-1,.53-1.57.76l-.23.11s0,0,0,0a1,1,0,0,1-.05-.45,2.81,2.81,0,0,0-.08-.71.13.13,0,1,0-.25.07,4.46,4.46,0,0,1,0,.82.7.7,0,0,0,.09.43c-.31.18-.6.39-.91.55a5.26,5.26,0,0,1-.82.34,9.44,9.44,0,0,0,.15-1.29.07.07,0,0,0-.14,0c-.1.47-.19.94-.31,1.4a9.41,9.41,0,0,1-1.44.27,15.81,15.81,0,0,1-2.06.12.17.17,0,0,0,0-.13,9.55,9.55,0,0,0,0-1.07.16.16,0,0,0-.31,0c0,.35,0,.72,0,1.07a.15.15,0,0,0,0,.12c-.46,0-.92,0-1.38-.08a.15.15,0,0,0,0-.1c0-.46,0-.93,0-1.39a.16.16,0,0,0-.32,0c0,.46,0,.93,0,1.39a.19.19,0,0,0,0,.08l-1.66-.19a.11.11,0,0,0,0-.08,5.63,5.63,0,0,0,0-1.36c0-.14-.26-.11-.25,0,0,.45-.07.89,0,1.33,0,0,0,0,0,0a14.26,14.26,0,0,1-2.16-.44h0a5.31,5.31,0,0,1,0-1.49.12.12,0,0,0-.23,0c0,.32-.07.63-.08,1a3.31,3.31,0,0,0,0,.44l-1.59-.52a11.49,11.49,0,0,0,0-1.76.11.11,0,0,0-.21,0A15.24,15.24,0,0,0,28.5,9c-.74-.27-1.47-.55-2.19-.85a9.75,9.75,0,0,0,.05-1.62.12.12,0,0,0-.23,0c0,.49-.1,1-.17,1.47-.51-.22-1-.46-1.52-.71A.91.91,0,0,0,24.66,7a2.11,2.11,0,0,1,.21-.31c.07-.11.12-.23.18-.34a.1.1,0,0,0,.1-.11.16.16,0,0,0-.29-.13,2.76,2.76,0,0,1-.39.61c-.13.13-.17.29-.34.39l0,0c-.43-.21-.85-.44-1.28-.67l-.36-.21a1.81,1.81,0,0,0,.3-.25c.14-.14.22-.32.39-.43A.12.12,0,0,0,23,5.39a1,1,0,0,0-.35.3,1.69,1.69,0,0,1-.43.37l0,.07L21.3,5.6l.05,0a4.27,4.27,0,0,1,.41-.44c.09-.09-.05-.23-.15-.14a4.06,4.06,0,0,0-.48.45s0,0,0,.05c-.53-.33-1.05-.68-1.55-1-1.19-.86-2.8-1.38-3.68-2.61C15.22.91,13.72.06,12.62.72c-.42.25-.51,1-.5,1.41a3.41,3.41,0,0,0,.29,1.24,21.1,21.1,0,0,0,.83,3.12c.36,1.28.65,2.59.9,3.89.08.4.14.79.21,1.19a1.34,1.34,0,0,0-.27.07l-.47.14c-.11,0-.1.23,0,.22l.45-.05.32,0c.08.47.16.95.23,1.42a5.59,5.59,0,0,1-.78.28c-.16.06-.09.3.07.25l.76-.2c0,.28.09.56.13.84s.13.77.2,1.16h0a3.82,3.82,0,0,1-1,.21c-.19,0-.11.33.09.3s.64-.06.95-.14c.11.6.22,1.2.32,1.8a.18.18,0,0,0-.16,0,7.13,7.13,0,0,1-1,.41.16.16,0,0,0,0,.31,2.44,2.44,0,0,0,1.17-.37s0,0,.06-.05c.06.39.12.79.16,1.19v.09a2.63,2.63,0,0,0-.3.09,9,9,0,0,1-.86.33.08.08,0,0,0,.05.16l.9-.28a1,1,0,0,1,.24,0c.06.63.12,1.27.15,1.91l-.37.11a6,6,0,0,0-.81.39c-.11.06,0,.25.08.2a10.59,10.59,0,0,1,1-.35l.07,0a13.36,13.36,0,0,1,0,1.55c0,.14,0,.28,0,.42a1.56,1.56,0,0,1-.44.08l-1,.24c-.13,0-.11.27,0,.25a8.39,8.39,0,0,1,1.11-.13l.23,0A13,13,0,0,1,15,26.64l-.67,0a2.75,2.75,0,0,0-.95,0,.15.15,0,0,0-.1.13v0c0,.1.12.14.19.08s.69.07.86.09a4.41,4.41,0,0,0,.52,0q-.21.53-.42,1c-.11.27-.23.54-.35.8a10,10,0,0,0-1.35-.08c-.19,0-.27.25-.08.3.4.1.87,0,1.26.16-.16.34-.32.68-.49,1a4.86,4.86,0,0,1-.66,0,2.17,2.17,0,0,0-.72,0,.14.14,0,0,0-.09.16v0a.12.12,0,0,0,.09.08l0,0a.09.09,0,0,0,.07,0c.35,0,.7.13,1.05.16-.22.43-.45.85-.68,1.27-.55,0-1.08-.2-1.62-.25-.15,0-.19.24,0,.26.5.07,1,.24,1.47.34l-1,1.75a3.36,3.36,0,0,0-.63-.13,1.08,1.08,0,0,1-.68-.19c-.07-.06-.2,0-.14.11a.83.83,0,0,0,.54.27,3.43,3.43,0,0,0,.34.06,1.1,1.1,0,0,1,.42.14c-.29.5-.58,1-.86,1.5-.12.2-.24.4-.35.6a4.7,4.7,0,0,0-.59-.4,1.68,1.68,0,0,0-.75-.26.07.07,0,0,0,0,.13c.2.15.44.25.64.39a4.12,4.12,0,0,1,.54.48c-.3.5-.63,1-1,1.48a2,2,0,0,0-.62-.43c-.35-.17-.69-.37-1-.56-.12-.07-.23.12-.11.2a5.25,5.25,0,0,1,1.56,1.06h0a16.26,16.26,0,0,1-1.33,1.65Q7,40,6.75,39.81a3.41,3.41,0,0,1-1-.56c-.07-.09-.21,0-.15.12A2.88,2.88,0,0,0,6.5,40c.18.12.34.26.52.38A12.36,12.36,0,0,1,4.68,42.3a18.73,18.73,0,0,0-2.9,2.09A4.92,4.92,0,0,0,0,46.94C-.2,49,2.15,49.7,3.76,49.9a48.55,48.55,0,0,0,5.91.16c-.09.16-.15.36-.23.52a.11.11,0,0,0,.18.11l.21-.32c.07-.11.15-.21.22-.31l.81,0c0,.05,0,.1,0,.15a1.76,1.76,0,0,0-.13.5c0,.13.21.17.24,0a6.46,6.46,0,0,1,.29-.67c.36,0,.72,0,1.08.07l.28,0a.74.74,0,0,1,0,.14,1.34,1.34,0,0,1-.26.43c-.12.13.07.33.2.2a1.65,1.65,0,0,0,.32-.46q.06-.12.12-.27.6.07,1.2.18c0,.1-.08.18-.11.27s0,.51-.16.61a.1.1,0,0,0,.1.18c.21-.1.27-.44.3-.64a1.31,1.31,0,0,1,.17-.36c.31.06.61.12.92.2a1.89,1.89,0,0,1-.09.38,5.66,5.66,0,0,1-.37.83.13.13,0,0,0,.23.14,4,4,0,0,0,.61-1.26c.43.1.86.22,1.28.35,0,.1-.08.2-.11.29a4.28,4.28,0,0,1-.31.69l0,0a.24.24,0,0,0,0,.08c0,.1.13.15.2.08a2.72,2.72,0,0,0,.44-.66c.05-.12.12-.25.18-.39l1.35.45a.5.5,0,0,0,0,.13c-.09.29-.26.55-.36.84,0,.11.14.19.2.08s.14-.21.19-.33l.23-.41a1.74,1.74,0,0,0,.1-.19c.44.16.87.33,1.3.51-.19.3-.37.61-.55.92a.12.12,0,0,0,.21.12,10,10,0,0,1,.67-.9l.25.1c.4.17.8.36,1.19.55a2.15,2.15,0,0,1-.19.22,4.31,4.31,0,0,0-.58.7c-.1.14.12.32.23.18a8,8,0,0,1,.92-.92c.43.21.86.43,1.28.66a6.32,6.32,0,0,1-.69.78.13.13,0,0,0,.19.18c.27-.26.52-.53.77-.81l.51.27a7,7,0,0,1,.7.45h0c-.26.11-.38.36-.6.53a1.19,1.19,0,0,0-.48.58.14.14,0,0,0,.27.07.88.88,0,0,1,.41-.4c.05,0,.15-.08.19-.14a.82.82,0,0,1,.32-.26.22.22,0,0,0,.12-.25,12,12,0,0,1,1.15,1,1.45,1.45,0,0,0-.18.16c-.23.23-.52.41-.76.65s0,.27.15.19.44-.29.66-.44a1,1,0,0,0,.21-.15l.1-.08s.12,0,0,0a.16.16,0,0,0,.09,0l1,1a10,10,0,0,0-1,.7c-.13.12.06.32.2.19a4,4,0,0,1,1.09-.59l0,0c.21.2.43.39.65.58h0c-.25.14-.5.29-.75.46s0,.4.17.28.57-.37.87-.52l.35.3a4.9,4.9,0,0,1,.73.8c-.26.15-.52.34-.59.38a.15.15,0,0,0,.15.27c.16-.07.3-.16.45-.24l.2-.11c.13.2.25.41.37.64s.12.21.17.32a5.41,5.41,0,0,1-.79.42c-.19.08-.11.4.09.33a7.89,7.89,0,0,0,.9-.39l.72,1.3a4.39,4.39,0,0,1-.66.28c-.22,0-.23.34,0,.33a1.19,1.19,0,0,0,.32,0,2.12,2.12,0,0,1,.27-.13,1.53,1.53,0,0,0,.26-.08l.63,1.19a6,6,0,0,0-.62.37c-.21.11,0,.41.18.31a4.08,4.08,0,0,1,.63-.31c0,.05,0,.09.07.14.14.28.29.55.44.83a4.22,4.22,0,0,0-.66.36.17.17,0,0,0,.18.3,4.07,4.07,0,0,1,.67-.31c.16.31.33.61.48.92a.23.23,0,0,0-.11,0,3.45,3.45,0,0,0-.67.39c-.14.12,0,.34.19.25a3.65,3.65,0,0,1,.64-.28.23.23,0,0,0,.11-.08c.15.3.29.61.41.92l-.28.07a.82.82,0,0,1-.35,0c-.16,0-.27.19-.11.27a.71.71,0,0,0,.41,0l.47-.06a2.25,2.25,0,0,1,.08.24,23.29,23.29,0,0,0,.9,2.46c.79,1.74,2.31,2.13,4,1.38a4.15,4.15,0,0,0,1.78-2.32,35.32,35.32,0,0,1,1.39-4.1c0-.1.09-.21.14-.31a3.49,3.49,0,0,1,.77.26c.14.07.27-.14.13-.22a3.76,3.76,0,0,0-.77-.34c.17-.39.35-.79.53-1.18l.12,0a1.7,1.7,0,0,0,.43.11c.11,0,.14-.17,0-.18a2,2,0,0,1-.48-.2l.51-1.1,0,0a3.58,3.58,0,0,1,.55.19.1.1,0,0,0,.1-.18c-.08,0-.31-.17-.57-.28.07-.15.14-.3.22-.45s.26-.49.4-.73l.78.4c.16.07.29-.15.14-.23a7.15,7.15,0,0,0-.76-.44c.25-.4.51-.79.78-1.18l.26.08.57.12c.14,0,.21-.19.06-.22a5.83,5.83,0,0,1-.71-.22h0c.23-.34.46-.68.68-1l0,0c.15.1.32.17.47.27a.12.12,0,0,0,.12-.2A2.85,2.85,0,0,1,47,58.2c.18-.29.35-.6.52-.91a.1.1,0,0,0,0,0,1.34,1.34,0,0,0,.59.28.12.12,0,0,0,.06-.23,1.52,1.52,0,0,1-.57-.34c.23-.43.45-.88.66-1.32a3.56,3.56,0,0,0,.58.37c.14.07.27-.14.13-.22s-.37-.3-.57-.43c.2-.4.4-.8.61-1.19a1.79,1.79,0,0,1,.22.13,5.74,5.74,0,0,1,.47.35c.12.11.29-.06.17-.17s-.35-.28-.52-.44a1.39,1.39,0,0,0-.19-.15c.2-.36.41-.72.64-1.06l.16.18c.16.17.34.4.59.42s.16-.24,0-.26-.2-.17-.25-.23l-.23-.28L50,52.65a9.06,9.06,0,0,1,1-1.16,4.73,4.73,0,0,1,.35.37c.13.14.34.28.39.47a.1.1,0,0,0,.19,0,.5.5,0,0,0-.12-.31l-.39-.51c-.05-.06-.11-.14-.18-.21a8.37,8.37,0,0,1,1.51-1.06.66.66,0,0,0,0,.5A10.72,10.72,0,0,1,53,51.86a.11.11,0,0,0,.22,0,4.13,4.13,0,0,0-.08-.93,1.57,1.57,0,0,1-.07-.61.17.17,0,0,0-.13-.2,12.72,12.72,0,0,1,1.73-.75,3.25,3.25,0,0,0,.12.54,5.28,5.28,0,0,1,.09.68.14.14,0,0,0,.27,0A2.83,2.83,0,0,0,55,49.27c.34-.11.68-.21,1-.3,0,.41,0,.83,0,1.24a.12.12,0,0,0,.24,0c0-.44,0-.88,0-1.32.45-.12.91-.22,1.36-.31a1.12,1.12,0,0,0,0,.27,6.59,6.59,0,0,1-.1.88.14.14,0,0,0,.27.08c.05-.22.07-.44.11-.66s0-.44.12-.53a.13.13,0,0,0,0-.11l.07,0q.83-.15,1.65-.27c-.1.32-.15.67-.28,1-.06.14.14.27.21.12a3.43,3.43,0,0,0,.25-.7c0-.11.08-.21.12-.32l.06-.14,1.8-.25a.08.08,0,0,0,0,0c-.07.2-.11.42-.19.62s0,.31-.14.44.1.25.19.15a.9.9,0,0,0,.19-.42c.07-.24.19-.46.26-.7a.13.13,0,0,0,0-.16l1.41-.19a4.64,4.64,0,0,1-.37,1c-.09.15.13.27.23.13A4.21,4.21,0,0,0,64,47.64c1-.14,2.11-.29,3.17-.47,2.53-.42,5.39-.47,7.75-1.55.66-.3.8-1.27.87-1.89a3.62,3.62,0,0,0-.63-3A16.08,16.08,0,0,0,72.39,38.68Zm2.8,5.73c-.21.9-1.15,1.07-1.93,1.26-1.36.33-2.75.46-4.13.66-3,.42-5.95.91-8.93,1.33A25.3,25.3,0,0,0,53,49.54a8.63,8.63,0,0,0-3.39,2.85.21.21,0,0,0-.1,0,.16.16,0,0,0-.06.18,16.5,16.5,0,0,0-1.14,1.94c-.41.78-.83,1.54-1.26,2.3A.18.18,0,0,0,47,57c-.45.79-.91,1.58-1.38,2.36a.18.18,0,0,0-.1,0,.16.16,0,0,0-.07.25c-.41.66-.82,1.33-1.25,2l-.32.55c-.19,0-.33,0-.31.27a.14.14,0,0,0,.1.13c-.45.94-.81,2-1.23,2.88a23.27,23.27,0,0,0-1.26,3.63,6,6,0,0,1-1.07,2.07,2.84,2.84,0,0,1-2.28.85c-1.19,0-1.78-1.62-2.09-2.5a28,28,0,0,0-1-2.65c-.62-1.37-1.4-2.69-2.08-4-.59-1.13-1.21-2.24-1.86-3.34a.14.14,0,0,0,0-.06c0-.16-.07-.22-.19-.23a5.64,5.64,0,0,0-1.14-1.26.17.17,0,0,0-.19-.17c-.51-.44-1-.85-1.49-1.3a13,13,0,0,0-2.76-2.36l-.8-.44a.2.2,0,0,0-.22-.12c-.45-.24-.91-.48-1.38-.7a.17.17,0,0,0-.13-.07c-.46-.22-.93-.44-1.4-.64s-1.26-.54-1.91-.78c0-.14-.1-.3-.25-.2l-.08.08c-.48-.17-1-.34-1.45-.49,0-.11-.17-.13-.27-.08a25.29,25.29,0,0,0-2.7-.66.17.17,0,0,0-.29,0l-.84-.14a77.43,77.43,0,0,0-8.07-.29,8.75,8.75,0,0,1-3.62-.66,1.77,1.77,0,0,1-1-2.31A5.59,5.59,0,0,1,1.9,44.94a17.61,17.61,0,0,1,3.3-2.4,12.79,12.79,0,0,0,2.26-1.93l.16,0a.19.19,0,0,0,.13-.32h0c1.91-1.87,3-4.51,4.35-6.8.67-1.18,1.47-2.29,2-3.52.44-1,.84-2,1.21-3a.2.2,0,0,0,.11-.29l0-.13A13,13,0,0,0,16.14,24h0a.14.14,0,0,0,0-.17,15,15,0,0,0,.13-2.12l.14-.09c.15-.12,0-.31-.16-.31A15.56,15.56,0,0,0,16,18.87c-.27-1.38-.45-2.76-.69-4.15-.08-.41-.13-.84-.18-1.26a.2.2,0,0,0,0-.24,15.8,15.8,0,0,0-.46-2.65c-.35-1.17-.56-2.4-.89-3.58-.2-.7-.49-1.41-.74-2.14a.21.21,0,0,0,.23-.23c-.06-1.13-.81-1.93-.52-3.11.22-.87,1.61-.36,2-.09s.88,1,1.38,1.45a34.4,34.4,0,0,0,3.15,2c1.15.77,2.33,1.54,3.54,2.21s2.37,1.24,3.58,1.79,2.64.8,3.92,1.28a18.62,18.62,0,0,0,3.55.64,17.57,17.57,0,0,0,4,.23,9.31,9.31,0,0,0,3.22-.63c1.26-.55,2.5-1.25,3.7-1.92,2-1.14,4-2.37,6-3.69h0c.13.16.4,0,.29-.21.39-.27.78-.53,1.16-.81,1.08-.79,2.07-1.71,3.15-2.49A3.7,3.7,0,0,1,57.58.51,2.63,2.63,0,0,1,58.86.9c.52.29.38.92.37,1.37a18.12,18.12,0,0,1-.84,4.05A43.29,43.29,0,0,1,57,10.48a17.39,17.39,0,0,0-.69,2.35.16.16,0,0,0-.06.24,22.2,22.2,0,0,0-.38,5.37A13.17,13.17,0,0,0,56,20.35l-.18,0c-.23,0-.18.41,0,.39H56l.06,0h0a6,6,0,0,0,.36,1.06c0,.06,0,.11.07.16a.16.16,0,0,0-.16.11.36.36,0,0,0,0,.1c0,.1.09.16.17.17h.2a27.2,27.2,0,0,0,1.87,3.28c.71,1.1,1.48,2.15,2.14,3.29a12.2,12.2,0,0,0,2.13,3c2,1.87,4.38,3.25,6.47,5,.92.75,1.85,1.53,2.81,2.24,1.21.9,3.19,1.64,3.19,3.38A7.74,7.74,0,0,1,75.19,44.41Z"/><path class="cls-2" d="M33,32.89a.38.38,0,0,0-.13.09.49.49,0,0,0-.25.2,1.24,1.24,0,0,0-.11,1.09.83.83,0,0,0,1.1.21,1.08,1.08,0,0,0,.3-1.24A.68.68,0,0,0,33,32.89Z"/><path class="cls-2" d="M47.51,13.49c1.5-1.87,3.2-3.58,4.78-5.39.71-.82,1.43-1.63,2.19-2.41.41-.42.82-.85,1.22-1.28s.65-1,1.06-1.22c.12-.07,0-.24-.11-.19-.32.14-.48.44-.71.69-.38.43-.79.84-1.2,1.25-.86.87-1.73,1.73-2.56,2.63-1.68,1.84-3.44,3.65-5,5.57s-3.08,3.66-4.64,5.48a28.83,28.83,0,0,0-3.72,5.62c-.16.31.3.58.46.27A27.35,27.35,0,0,1,42.89,19C44.46,17.17,46,15.36,47.51,13.49Z"/><path class="cls-2" d="M26.81,22.7c-.66-.71-1.33-1.39-2-2.12a29.66,29.66,0,0,1-3.18-5c-.46-.81-1.15-1.53-1.69-2.29s-1-1.7-1.55-2.56a36,36,0,0,1-2.58-5.43.13.13,0,0,0-.24.07,37.76,37.76,0,0,0,2.28,5.27,23.87,23.87,0,0,0,1.68,2.89c.58.86,1.3,1.64,1.8,2.55A22.91,22.91,0,0,0,24.46,21c.73.76,1.44,1.57,2.15,2.35a12.22,12.22,0,0,0,1.7,1.82c.3.21.58-.28.29-.49A13.2,13.2,0,0,1,26.81,22.7Z"/><path class="cls-2" d="M26.29,36.23c-.58.24-1.14.61-1.7.91-.91.49-1.87.9-2.81,1.31-2,.87-4.05,1.66-6.11,2.42-1.85.69-3.59,1.58-5.43,2.31-.93.37-1.88.7-2.82,1.06A13.55,13.55,0,0,0,5.67,45c0-.1-.16-.1-.16,0V45a.08.08,0,0,0,.09.08,3.6,3.6,0,0,0,1.29-.38l2.83-.95c2-.65,3.82-1.6,5.76-2.32s3.78-1.38,5.63-2.17c.94-.41,1.89-.81,2.82-1.24s1.66-1,2.51-1.32C26.74,36.6,26.6,36.1,26.29,36.23Z"/><path class="cls-2" d="M37,56.72A21.83,21.83,0,0,1,36.27,53C36,51,35.84,49,35.75,47a27.39,27.39,0,0,0-.27-2.86,10,10,0,0,0-.54-2.68c-.14-.29-.58,0-.44.26a9.6,9.6,0,0,1,.44,2.22,24.3,24.3,0,0,1,.33,3.41c.09,2,.32,4.07.56,6.08a42.07,42.07,0,0,0,1.34,6,25.16,25.16,0,0,1,.46,5.89.14.14,0,0,0,.27,0,31.18,31.18,0,0,0-.13-5.47A26.7,26.7,0,0,0,37,56.72Z"/><path class="cls-2" d="M68.35,41.81c-1.29-.36-2.53-.89-3.82-1.26C62,39.81,59.52,39,57,38.23c-1.27-.38-2.51-.81-3.77-1.23s-2.42-.6-3.64-.89A28.54,28.54,0,0,0,43,35.39H42.9a.26.26,0,0,0,0,.52,30.4,30.4,0,0,1,6.58.7,33.42,33.42,0,0,1,3.29.77c1.16.35,2.3.77,3.45,1.13,2.26.7,4.5,1.46,6.77,2.08,1.19.33,2.37.65,3.54,1,.57.19,1.13.4,1.72.56.2.06,1.22.16,1.36.4a.16.16,0,0,0,.28-.17C69.67,42,68.74,41.92,68.35,41.81Z"/><path class="cls-2" d="M38.58,10.2c-.06-.4-.14-.8-.21-1.2,0-.2-.33-.11-.3.08.06.41.1.81.17,1.21C38.27,10.52,38.61,10.42,38.58,10.2Z"/><path class="cls-2" d="M48.39,5.58c.16.11.36-.14.21-.27s-.33-.42-.53-.61-.32.06-.2.2S48.15,5.42,48.39,5.58Z"/></g></svg>