<svg xmlns="http://www.w3.org/2000/svg" viewBox="0 0 139.26 215.12"><defs><style>.cls-1{fill:#fff;}.cls-2{fill:#272525;}</style></defs><title>life</title><g id="color"><path class="cls-1" d="M63,23.65a5.08,5.08,0,0,0,1.17,1.57,5.15,5.15,0,0,0,.48.37l-.33-.29A7.85,7.85,0,0,1,63,23.65Z"/><path class="cls-1" d="M66.65,71.19a8.33,8.33,0,0,0,1.79-.27c.19,0,2.16-.86,1.33-1.4a.28.28,0,0,1-.1-.38,10.79,10.79,0,0,0-4.83-2.77,57.55,57.55,0,0,0-6.07-1.58,35.78,35.78,0,0,0-6.53-.57c-1.73,0-4.43.06-5.89,1.1-.56,1.16-.39,1.81.53,2,.21.06.43.11.65.15.43.12.86.22,1.3.33.89.22,1.75.55,2.63.8,1.95.54,3.86,1.18,5.82,1.67a32.78,32.78,0,0,0,6.76.81C64.9,71.09,65.79,71.23,66.65,71.19Z"/><path class="cls-1" d="M116.31,177.94c-.48-2.33-3.13-3.33-5.11-4.17s-4-.55-6-1.22A23.06,23.06,0,0,0,99,170.89c-1.15,0-2.57-.06-3.5-.86a20.44,20.44,0,0,0-2.13-2c-.65-.4-1.36-.67-2-1a5.91,5.91,0,0,0-3-.92,8.86,8.86,0,0,0-2.3,0c0,.29,0,.59,0,.9,0,.75-.21,1.76-.18,2.68a.19.19,0,0,1,.29.17c0,1.12,1,1.91,1.36,2.89a13.15,13.15,0,0,1,.61,2.12,9,9,0,0,1,1.86-.24,6.65,6.65,0,0,1,4.34,1.06,26.36,26.36,0,0,0,5.78,3.74,14.26,14.26,0,0,0,2.85.77c.24.06.38.24.58.35.73.42.79.22,1.52.15a8.25,8.25,0,0,1,2.67,0,5,5,0,0,1,1.3.44c.46.25,1.09.81,1.64.75a27.74,27.74,0,0,1,2.88-.12c.72,0,1.36.18,2.08.19a.3.3,0,0,1,0,.59c-1,0-1.93-.18-2.92-.19a10.85,10.85,0,0,1-2.47.1c-1-.26-1.61-1.06-2.66-1.22s-2.18.22-3.27.13a5.86,5.86,0,0,1-1.81-.72c-.85-.39-1.81-.31-2.69-.73a22.52,22.52,0,0,1-5.16-3.21,7.13,7.13,0,0,0-6.42-1.3,2.56,2.56,0,0,1,0,.27c.05.37-.49.54-.57.16a1.42,1.42,0,0,0,0-.2A4.15,4.15,0,0,0,87,176a33.83,33.83,0,0,1-5.79,2.93c-1.66.77-3.73,2.07-5.62,1.89-1.21-.11-2.64-1.48-3.35-2.4-.11-.15.14-.34.26-.2a7.55,7.55,0,0,0,2.75,2c1.35.33,2.91-.49,4.11-1.05l.09,0s0,0,0,0c-.23-.23-.47-.45-.72-.67a.34.34,0,0,1-.3-.26,14.39,14.39,0,0,1-2.27-2.28,14.94,14.94,0,0,0-3.61-3.9,11.19,11.19,0,0,1-3-2.33c-.92-1.22-1.67-2.57-2.59-3.8a.28.28,0,0,1-.12-.08l-.29-.34h0c-1.91,0-4,1.23-5.62,2.22a19.42,19.42,0,0,0-4.24,4c-2,2.4-4.42,4.83-7.43,6a7.66,7.66,0,0,1-2.58.61,11,11,0,0,0-2.92.17c-1.84.59-3,2.57-4.74,3.5a11.43,11.43,0,0,0-2.39,1.4c-.56.53-.56,1-.88,1.61s-1,1.17-.55,1.58,1,.78,1.49,1.25a8.83,8.83,0,0,1,1.73,4.06,8.69,8.69,0,0,0,1,2.72c.57.85,1.48,1.15,2.17,1.83,2.39,2.37,1.89,6.57,4.84,8.45a5.73,5.73,0,0,0,3.29,1.31c.89-.06,1.77-.22,2.65-.29a6.35,6.35,0,0,1,4.22.86,10.25,10.25,0,0,1,2.84,3.65c.93,1.56,2.55,2.67,3.89,3.89,1.73,1.58,3.72.52,5.76.77a4.12,4.12,0,0,0,3-.6,14.37,14.37,0,0,1,2.22-1.28c1.74-.74,4-.55,5.82-1s3.49-1.06,5.28-1.49a47.06,47.06,0,0,0,5.71-1.75,7.17,7.17,0,0,1,4.63-.38c1.2.36,2.68,1.64,3.94.9a18.85,18.85,0,0,1,2.08-1.22,6,6,0,0,0,3.76-3.53c.7-1.8,1.5-3.55,2.18-5.36.6-1.58,2-2.39,2.94-3.71a6.27,6.27,0,0,0,.94-5.88c-.4-1.42,1.33-1.83,1.67-2.94.4-1.36,2.23-1.92,3.34-2.61.89-.55.43-2.83.26-3.58S116.5,178.83,116.31,177.94ZM68.07,191.06c-1.89-.46-2.4-3.24-3.28-4.59a14.5,14.5,0,0,0-1.56-1.86c-.43-.46-.7-1.06-1.25-1.4a5.33,5.33,0,0,1-1.32-.93c-.47-.53-1.08-1.4-1.89-1.34-1.51.11-3.62,1.08-4.26,2.54a20.25,20.25,0,0,0-.91,4.36c0,.19-.32.11-.29-.08.52-2.79.44-5.65,3.59-6.82,1-.36,2.05-.79,3-.12a9.85,9.85,0,0,1,1.14,1.1c.48.46,1.09.66,1.57,1.11s1,1.26,1.58,1.87a7.1,7.1,0,0,1,1.09,1.3,13,13,0,0,0,2,3.54c.8.84,2.06.76,2.69,1.75.31.48.63,1.43,1.17,1.68.69.31,1.55.22,2.28.49.32.12.18.65-.15.52-.81-.29-2.07-.05-2.72-.75C69.62,192.48,69.54,191.42,68.07,191.06Zm13.4,6.76a1.59,1.59,0,0,1-1.41.43c-1.35-.18-2.35-.58-3.74-.14-1,.32-2,.39-3,.71-1.52.5-2,2.61-2.1,4,0,.19-.29.19-.28,0,.06-1.7.69-4.1,2.62-4.48,1.34-.26,2.61-.79,4-1,1.06-.16,2.7.87,3.58.08C81.34,197.22,81.71,197.58,81.47,197.82Z"/><path class="cls-1" d="M136.63,10.09c-1.92-3.45-5.88-4.72-9.38-5.94-4.23-1.48-8.5-2.91-13-3.24C110.15.6,106.09.06,102,0A54.32,54.32,0,0,0,88.61,1c-4,1-7.5,3.14-11.48,4.16s-7.34,2.94-10.9,5C63.08,12,60,13.87,58.11,17.12c-1,1.64-2.06,3.19-3,4.85a28,28,0,0,0-2,5.38c-.57,1.78-1.91,3.16-2.24,5a20,20,0,0,0,0,5.89,56.15,56.15,0,0,0,.94,6.31c.48,2,1,4,1.33,6.08s.11,4.27.35,6.41c.12,1.14-.26,3.46,1,4,.11,0,.09.18,0,.25l.63,0c3.55.38,6.89,1.77,10.38,2.39,3.23.57,7.19.78,8.81,4.11a17.85,17.85,0,0,1,1.09,10.42c-.71,4-2.77,7.62-2.76,11.76v7.07a18.88,18.88,0,0,0,.8,5.48c.6,1.83,1.54,3.52,2.15,5.35a12.67,12.67,0,0,1,.29,5.24c-.21,2-1.21,3.89-2,5.77a17.1,17.1,0,0,0-.74,6.33.35.35,0,0,1-.7,0,18.87,18.87,0,0,1,1.41-8c1.26-2.92,2-6.42.91-9.52-.45-1.27-1.06-2.47-1.57-3.71a22.28,22.28,0,0,1-.92-3.57A37.51,37.51,0,0,1,72,92.27a33.52,33.52,0,0,1,.07-4.37,18.32,18.32,0,0,1,1.13-4.05,24.56,24.56,0,0,0,1.77-8c0-2.89.16-6.78-2.14-9-2.06-1.95-5.24-2-7.91-2.55-3.72-.72-7.24-2.17-11.06-2.36a43.55,43.55,0,0,0-6.36.09c-.93.08-2.24-.07-3,.44a11.67,11.67,0,0,1-1.78.86,9,9,0,0,0-4.54,3.3,9.61,9.61,0,0,0-1.62,5.87,81.29,81.29,0,0,0,1,13c.65,4,1.85,7.94,2.72,11.9s.52,8.25.56,12.37a65.38,65.38,0,0,0,1,12.49,18.33,18.33,0,0,0,2.41,6.4,45.07,45.07,0,0,1,3,4.53c.11.22-.21.41-.33.19A47.53,47.53,0,0,0,44,129.27a16.85,16.85,0,0,1-2.15-4.51,42.11,42.11,0,0,1-1.46-9.21c-.27-3.65-.23-7.3-.22-11A40.14,40.14,0,0,0,38.8,93.91a78.83,78.83,0,0,1-2.93-20.42,14.7,14.7,0,0,1,.38-4.68,13.25,13.25,0,0,1,1.94-3.46c1.43-1.9,4.23-2.54,6.25-3.59a2.44,2.44,0,0,1,.89-.23,23,23,0,0,0,.06-5.11,33.46,33.46,0,0,0-1-5.54c-.38-2-.62-4.2-1.79-5.94s-2.31-3.75-4-4.94c-1.47-1-3.27-1.61-4.59-2.84a5.77,5.77,0,0,0-2.94-1.63,17.23,17.23,0,0,0-3-.41,34.6,34.6,0,0,0-6.35.36A34.52,34.52,0,0,0,16,37C11.62,38.4,7.26,39.8,3.89,43,.69,46,.17,50.5.18,54.65S-.28,63,.27,67.19a49,49,0,0,0,1.38,7c.28,1,.67,2,.94,3s.79,1.7,1.12,2.59a46.32,46.32,0,0,1,1.54,6.38,22.87,22.87,0,0,0,.69,3.08c.34,1,.78,1.9,1.13,2.86,1.39,3.93,1.79,8.06,4.17,11.61a53.29,53.29,0,0,0,4.26,5.22,22.77,22.77,0,0,0,4,4,36.65,36.65,0,0,1,4.55,4.17c1.35,1.34,2.69,2.66,4,4,2.68,2.81,5.42,5.31,7.58,8.58a99.57,99.57,0,0,0,7,9.87A52.61,52.61,0,0,0,46.88,144c1.39,1.27,3,2.24,4.47,3.44a69.17,69.17,0,0,1,9.15,8.71c1.37,1.66,2.5,3.49,3.82,5.18A18.67,18.67,0,0,1,65.7,163a14.67,14.67,0,0,0,1.55,2.27.36.36,0,0,1-.07.55c.86,1,1.54,2.21,2.39,3.25A16.32,16.32,0,0,0,73.44,172c1.16.79,1.91,2.18,2.86,3.19q.69.72,1.41,1.41a2.7,2.7,0,0,1-.22-.53,9.53,9.53,0,0,1-.22-1.69,48.21,48.21,0,0,0-.46-5.12,21.43,21.43,0,0,1-.38-5.82,26.77,26.77,0,0,1,.39-5c.5-2.09,1.6-3.88,2.27-5.91a50,50,0,0,1,1.76-5.08c.93-2,1.94-4,2.76-6.08.63-1.58.93-3.25,1.64-4.8.82-1.81,2.09-3.36,2.89-5.18s.76-3.78,1.57-5.57c.44-1,1.05-1.77,1.56-2.68a21.51,21.51,0,0,0,1.28-3.1,57.57,57.57,0,0,1,2.07-5.39c1-2,2.27-3.85,3.28-5.85.91-1.81,1.86-3.64,2.68-5.49a28.73,28.73,0,0,1,2.87-5.14c1.12-1.56,2.47-2.92,3.49-4.56a21.06,21.06,0,0,0,2.78-6.31,42.14,42.14,0,0,0,.8-6.33c0-.08.13-.08.13,0-.18,3.32-.42,6.61-1.8,9.69-1.68,3.74-4.52,6.56-6.54,10.07s-3.37,7.52-5.53,11a30.2,30.2,0,0,0-3.09,6.43,22,22,0,0,1-2,5.19,15.15,15.15,0,0,0-2.44,5.91,13,13,0,0,1-2,4.86c-2.15,3.25-2.72,7.06-4.43,10.52a42.35,42.35,0,0,0-2.57,6.14,36,36,0,0,1-2,5.15,15.64,15.64,0,0,0-1.2,6.49,23.37,23.37,0,0,0,.23,6.14,50.25,50.25,0,0,1,.56,5.35,7,7,0,0,0,.62,2.83,3.85,3.85,0,0,1,.45,1l.89.88a.29.29,0,0,1,.08.28,53.31,53.31,0,0,0,5.24-2.46A21.59,21.59,0,0,1,87.47,175l0,0a8.79,8.79,0,0,0-1-3l-.07-.12a.35.35,0,0,1-.51,0c-1.38-1.29-.68-3.83-.66-5.49,0-.12,0-.24,0-.35a.32.32,0,0,1,0-.36,36.83,36.83,0,0,1,1.36-8.06,30.7,30.7,0,0,1,2-5.66c.85-1.74,1.53-3.61,2.5-5.29a21.22,21.22,0,0,0,2.09-6.59,23.44,23.44,0,0,1,2-5.34C97,131,98.88,127.13,101,123.47c1-1.7,2.06-3.35,3-5s2.2-3.11,3.29-4.73a73.65,73.65,0,0,0,5.71-11,29.36,29.36,0,0,1,2.73-5.57A32.57,32.57,0,0,1,119,93.72C124.84,88,128.62,80.38,131.93,73a44,44,0,0,0,2.49-6,44.87,44.87,0,0,0,1.22-5.84c.66-4.55.74-9.21,1-13.8.11-2.23.14-4.46.14-6.7a26.1,26.1,0,0,1,.21-5.52c.46-2.13,1.15-4.19,1.62-6.33a29.16,29.16,0,0,0,.68-6.17C139.26,18.39,138.74,13.89,136.63,10.09ZM2.92,69.06c-.09.14-.32,0-.27-.11a13.94,13.94,0,0,1,1.64-3.1c.66-1.11,1.35-2.21,2.07-3.29,1.43-2.14,2.94-4.22,4.49-6.27.13-.17.43,0,.3.17C9.61,58.52,8.1,60.6,6.69,62.75S4.2,67,2.92,69.06Zm1.23,2.57a107.1,107.1,0,0,0,7-12.43c.06-.14.27,0,.21.13A98.26,98.26,0,0,1,4.47,71.82C4.34,72,4,71.83,4.15,71.63Zm1.22,3.52c-.12.18-.42,0-.3-.17,1-1.54,1.77-3.28,2.61-4.91s1.64-3.39,2.44-5.1c.08-.15.3,0,.23.13-.84,1.84-1.64,3.7-2.58,5.49A41.17,41.17,0,0,1,5.37,75.15Zm.9,3.47c1.59-3.37,2.94-6.83,4.61-10.16.08-.16.32,0,.24.14C9.48,72,8.25,75.48,6.61,78.81,6.5,79,6.16,78.84,6.27,78.62ZM6.74,82c-.09.2-.39,0-.3-.17,1.42-3.06,2.94-6.07,4.18-9.21,0-.09.19,0,.15,0C9.58,75.83,8.11,78.89,6.74,82Zm.75,3.52c.92-3,2.28-5.83,3.27-8.79,0-.11.2-.06.17,0-.93,3-2.19,5.85-3.11,8.84C7.75,85.81,7.42,85.72,7.49,85.51Zm.93,2.59c.94-2.45,2.18-4.76,3.27-7.14,0-.09.17,0,.13.07-1,2.39-2.18,4.72-3.11,7.15C8.64,88.36,8.35,88.28,8.42,88.1Zm1.49,3c.63-2,1.42-3.85,2.17-5.77.06-.17.34-.09.27.08-.73,1.91-1.49,3.82-2.09,5.78C10.19,91.44,9.84,91.35,9.91,91.13ZM11,94.47c.73-1.93,1.57-3.83,2.33-5.76,0-.13.27-.07.22.06q-1.09,2.91-2.23,5.79C11.23,94.75,10.92,94.67,11,94.47Zm.61,2.44c.48-1.42.93-2.84,1.41-4.25a.12.12,0,0,1,.23.07c-.45,1.41-.87,2.84-1.33,4.26C11.85,97.19,11.54,97.1,11.6,96.91Zm1.2,2.2c0,.14-.28.12-.26,0,.1-.78.29-1.55.45-2.32,0-.18.31-.1.27.08C13.11,97.59,13,98.37,12.8,99.11Zm.83,1.49c0-.22-.13-.4-.15-.61s.19-.12.2,0a1.43,1.43,0,0,0,.09.27,1.28,1.28,0,0,1,.07.34C13.85,100.73,13.63,100.73,13.63,100.6Zm1.14,1.52a.13.13,0,0,1-.25,0c0-.16,0-.31,0-.46a.15.15,0,0,1,.29,0C14.78,101.81,14.78,102,14.77,102.12ZM29.29,48.76A38.72,38.72,0,0,1,18.38,49,37.7,37.7,0,0,1,7.92,47a2.52,2.52,0,0,1-1.57-2.18A3.73,3.73,0,0,1,8,42c2.54-2.3,5.62-2.89,8.89-3.62,1.72-.38,3.43-1,5.16-1.28a21.37,21.37,0,0,1,4.66-.16,14.63,14.63,0,0,1,4.41.75,23.9,23.9,0,0,1,2.54,1.66c1.1.4,2.47.81,3.11,1.89a4.07,4.07,0,0,1,.44,3.21C36.15,47.06,31.78,48.27,29.29,48.76ZM51.75,69.29c-1.32-.37-2.63-.77-4-1.14a4.06,4.06,0,0,1-2.29-1c-1.21-1.44.78-2.71,2-2.94a28.6,28.6,0,0,1,8.26-.38,47,47,0,0,1,8.68,1.87,13.57,13.57,0,0,1,3.7,1.62,10.4,10.4,0,0,1,2,1.81,1,1,0,0,1,.29.33.12.12,0,0,1,0,.09c.29.84-1.16,1.84-1.89,2a25.3,25.3,0,0,1-8.28-.1A61.81,61.81,0,0,1,51.75,69.29ZM64.16,92.62Q63,94.75,61.87,96.88a38.4,38.4,0,0,0-2,3.92c-.1.23-.48.13-.39-.1a34.2,34.2,0,0,1,2.13-4c.84-1.52,1.67-3.06,2.54-4.57s1.64-2.84,2.32-4.33a21.19,21.19,0,0,0,1-2.63.3.3,0,0,1,.08-.14h0a.08.08,0,0,1,0-.15l.09-.13c0-.09.2,0,.17.08A37.79,37.79,0,0,1,64.16,92.62Zm2.08-.94q-1.84,3.18-3.56,6.44a64.58,64.58,0,0,1-3,5.76c-.13.19-.44,0-.32-.19,1.22-2,2.2-4.07,3.32-6.1s2.26-4,3.45-6A.09.09,0,0,1,66.24,91.68ZM64.6,89.45c-.71,1.15-1.42,2.29-2.11,3.45a12.58,12.58,0,0,1-1.83,2.81c-.16.16-.41-.08-.25-.26A19.77,19.77,0,0,0,62.59,92c.62-1.05,1.31-2.06,2-3.1A50.53,50.53,0,0,0,68.15,82c.07-.16.34-.09.27.07A51.84,51.84,0,0,1,64.6,89.45Zm-.09-5.62c-.78,1.2-1.46,2.43-2.21,3.64A17.92,17.92,0,0,1,60.68,90a.2.2,0,0,1-.32-.24c1.4-2.12,2.66-4.32,4-6.45s2.82-4.49,4.19-6.76a.17.17,0,0,1,.3.17C67.46,79.08,66,81.49,64.51,83.83ZM59,107.24c.73-1.83,1.84-3.48,2.71-5.23s1.73-3.59,2.54-5.42c0-.1.23,0,.18.08-.77,1.85-1.58,3.69-2.46,5.49s-1.87,3.42-2.65,5.21C59.24,107.55,58.92,107.42,59,107.24Zm.16,3.29c1.65-3.15,3.4-6.25,5.07-9.39a.12.12,0,0,1,.21.12c-1.63,3.17-3.3,6.31-5,9.46C59.37,110.92,59.06,110.74,59.16,110.53Zm1.2,3.08c-.14.38-.31.77-.42,1.17h0a.17.17,0,0,1-.11.13h0a.19.19,0,0,1-.23-.18,3.92,3.92,0,0,1,.48-1.42,9.83,9.83,0,0,1,.61-1.41.19.19,0,0,1,.21-.09c-.21,0,1.14-2.76,1.27-3,.53-1,1.07-2.07,1.59-3.11.09-.18.37,0,.28.16-1,2.07-2.11,4.12-3,6.25a.17.17,0,0,1-.21.08c.27.06.1.11,0,.49S60.48,113.29,60.36,113.61Zm.47,3.66c1-2.32,2-4.59,3.1-6.86.06-.14.27,0,.2.12-1,2.26-2.06,4.52-3,6.83C61.08,117.56,60.74,117.47,60.83,117.27Zm.29,3.79c.43-1.48.82-3,1.39-4.4.07-.19.39-.11.31.09-.55,1.44-.91,2.93-1.35,4.41A.18.18,0,0,1,61.12,121.06Zm1.11,3.75c0,.23-.39.13-.35-.1.15-1,.44-1.92.62-2.89,0-.22.37-.12.33.1C62.66,122.89,62.38,123.83,62.23,124.81Zm1.32,3a9.48,9.48,0,0,0-.59-1.63,5.37,5.37,0,0,1,.15-.8.16.16,0,0,1,.32,0,2,2,0,0,0,.11,1.19,1.91,1.91,0,0,1,.24.86,23.53,23.53,0,0,0,.54,3.53c.05.18-.23.25-.27.08-.16-.56-.31-1.12-.46-1.68A13.26,13.26,0,0,1,63.55,127.8ZM74,171.62a33,33,0,0,1-3.34-6.08c-.82-2.65-2.46-5.12-3-7.84s-.45-5.54-1.49-8.08-2.18-4.54-2.52-7.17c0-.19.29-.23.33,0a16.19,16.19,0,0,0,1.29,4c.5,1,1.08,2,1.48,3.05.92,2.46.92,5.06,1.44,7.59s2,4.87,2.84,7.39a19.76,19.76,0,0,0,1.67,3.76,15.71,15.71,0,0,0,1.79,2.94C74.76,171.47,74.28,172,74,171.62ZM57,43.06c3.94-5.12,8.68-9.48,13.11-14.15.14-.15.37.08.22.23-2.23,2.37-4.6,4.61-6.82,7s-4.16,4.75-6.23,7.14C57.19,43.44,56.91,43.23,57,43.06ZM63.29,60.4a36.36,36.36,0,0,1,3.1-4.67c.06-.09.21,0,.14.08a29.58,29.58,0,0,0-3,4.75C63.48,60.73,63.2,60.58,63.29,60.4Zm2.53,2.13c-.07.16-.32,0-.24-.15a1.92,1.92,0,0,0,.29-.84.14.14,0,0,1,.27,0A2.36,2.36,0,0,1,65.82,62.53ZM66.71,59a20.38,20.38,0,0,0-1.34,2.42c-.06.15-.3.09-.25-.07a10.1,10.1,0,0,1,1.4-2.45C66.6,58.79,66.78,58.89,66.71,59Zm-5.26,1.1c-.11.2-.42,0-.3-.17,1.79-3.11,4.28-5.72,6.2-8.74,0,0,.07,0,.05,0C65.59,54.3,63.16,57,61.45,60.11Zm3.82-8.69c-1.45,2-3.25,3.95-4.27,6.27-.07.17-.37.09-.35-.1l0-.15a.16.16,0,0,1,.12-.16c1.07-2.19,2.82-4,4.26-6a36,36,0,0,0,4.25-6.5s.12,0,.1,0A32.62,32.62,0,0,1,65.27,51.42Zm5.22-11c-3.45,5.06-7.4,9.74-10.85,14.8-.14.21-.48,0-.34-.2,3.24-5.19,7.47-9.72,11-14.68C70.4,40.29,70.55,40.37,70.49,40.46Zm.05-4.38c-1.86,2.6-3.82,5.13-5.8,7.63a44.53,44.53,0,0,0-5.28,7.53.19.19,0,0,1-.14.31h-.15a.2.2,0,0,1-.17-.3,37.83,37.83,0,0,1,5-7.11c2.16-2.69,4.3-5.4,6.32-8.21C70.4,35.8,70.64,35.94,70.54,36.08ZM72,31.49a132.76,132.76,0,0,1-12.7,14.82c-.15.16-.38-.08-.24-.23,4.39-4.81,9-9.38,12.82-14.66C71.93,31.35,72.05,31.42,72,31.49ZM85.76,129a9.59,9.59,0,0,0-.58,2.24c0,.24-.39.13-.36-.1a7.49,7.49,0,0,1,.64-2.32C85.56,128.57,85.86,128.75,85.76,129Zm2.33-4.63c0,.06-.12,0-.1,0a13.07,13.07,0,0,1,.45-1.24c0-.07.15,0,.11.07A9.6,9.6,0,0,0,88.09,124.32Zm.53-2.57a.1.1,0,0,1-.05.07c-.27.86-.63,1.69-.94,2.54-.09.24-.48.14-.4-.11.31-.93.77-1.81,1.12-2.72.06-.15.3-.14.3,0Zm5.3-15.17c-.92,1.61-1.78,3.27-2.55,5-.49,1.06-.93,2.16-1.48,3.19a.15.15,0,0,1,.14.21,45.8,45.8,0,0,0-1.52,4.55.17.17,0,0,1-.33-.09,16.91,16.91,0,0,1,1.23-3.85l-.13.2c-.15.21-.49,0-.35-.2,1.78-2.92,3-6.15,4.78-9.08A.12.12,0,0,1,93.92,106.58Zm6.56-12.09c-2,2.44-3.8,5-5.78,7.44a42.25,42.25,0,0,0-5.08,7.45c-.14.28-.55,0-.42-.24A35.43,35.43,0,0,1,94.12,102c2.09-2.53,4-5.19,6.1-7.72C100.37,94.06,100.62,94.31,100.48,94.49Zm5.63-13.11a63.14,63.14,0,0,1-6.48,11.35c-1.28,1.82-2.62,3.59-3.91,5.4a24.31,24.31,0,0,1-3.57,4.6c-.22.19-.54-.12-.32-.32a35.54,35.54,0,0,0,4-5.19c1.23-1.68,2.49-3.32,3.69-5a63.55,63.55,0,0,0,6.31-11C105.92,81,106.19,81.19,106.11,81.38ZM115.37,65a137.86,137.86,0,0,1-10.44,16c-3.67,5-7.29,10-11.4,14.66-.21.24-.55-.11-.34-.34,4.29-4.81,8.09-10,11.9-15.21a134.76,134.76,0,0,0,10-15.24A.15.15,0,0,1,115.37,65Zm7.89-12.16c-4.37,5.69-8.92,11.23-13.45,16.8S101,80.84,96.56,86.48c-.16.2-.52-.08-.36-.28C105,74.84,114.26,64,123.05,52.64,123.14,52.52,123.35,52.68,123.26,52.8Zm-25.08,26c4.09-5.47,8.07-11,12.22-16.45S118.75,51.51,122.74,46c.09-.12.29,0,.2.12-4,5.68-8.31,11.16-12.49,16.73-4,5.34-7.7,11-11.92,16.2C98.37,79.22,98,79,98.18,78.75Zm27.95-45.26c-3.88,6.3-7.9,12.43-12.29,18.39-2.16,2.93-4.37,5.83-6.56,8.75-2,2.74-4,5.56-6.18,8.2-.17.21-.45-.09-.29-.29,4.53-5.75,8.92-11.64,13.26-17.53,4.22-5.72,8.12-11.6,11.86-17.64C126,33.25,126.21,33.36,126.13,33.49Zm1.87-18c-1.14,2.76-4.2,3.94-6.84,4.84a46,46,0,0,1-6.26,1.5c-1.87.35-3.71.79-5.61,1-4.37.57-8.72,1.42-13.1,2-2,.27-3.9.46-5.88.63s-4.22.25-6.3.63c-3.63.66-7.38.49-11,1.09a12.16,12.16,0,0,1-6.55-.52,4.92,4.92,0,0,1-3.91-2.93A8.19,8.19,0,0,1,63.16,16c1.59-2.38,4.08-3.68,6.72-4.63C73.39,10.11,76.93,8.93,80.56,8a112.74,112.74,0,0,1,11.9-2.62,89.21,89.21,0,0,1,11.89-1c3.67,0,7.53-.32,11.14.52,1.83.43,3.64,1.09,5.43,1.69a16.31,16.31,0,0,1,4.28,2C127.33,10.13,129.15,12.68,128,15.46Z"/><path class="cls-1" d="M36.59,42.86c-.23-1.85-1.74-2.39-3.26-2.94a.35.35,0,0,1-.19-.48l-.58-.38a9.85,9.85,0,0,0-3.48-1.22,18.27,18.27,0,0,0-8.51.27c-2.5.68-5.1,1-7.58,1.81a10.82,10.82,0,0,0-4.26,2.22c-1,1-2.84,2.9-.87,4,2.59,1.49,6.08,1.73,9,2a52.82,52.82,0,0,0,8.43.36,20,20,0,0,0,8.85-2.21C35.53,45.54,36.82,44.67,36.59,42.86Z"/><path class="cls-1" d="M121.18,7.42a53.85,53.85,0,0,0-5.87-1.84,30.51,30.51,0,0,0-6.25-.53,97.5,97.5,0,0,0-13.78.57,131.64,131.64,0,0,0-24.48,6c-3,1-6.11,2.49-7.58,5.31a.29.29,0,0,1,.17.46c-1.68,2.56-.46,6.22,2,7.86a8,8,0,0,0,3.23,1.27h1.2a.13.13,0,0,1,.14.13,15.23,15.23,0,0,0,2-.05c1.25-.11,2.49-.49,3.74-.53,1,0,2-.11,3.06-.19,2.22-.19,4.41-.41,6.62-.66,5.23-.59,10.46-.9,15.67-1.75s10.12-1.65,15.16-2.63a26.81,26.81,0,0,0,6.56-2c1.51-.72,3.2-1.21,4.15-2.74a4.9,4.9,0,0,0-.55-5.79A13.28,13.28,0,0,0,121.18,7.42Z"/></g><g id="stroke"><path class="cls-2" d="M37.18,44.41a4.07,4.07,0,0,0-.44-3.21c-.64-1.08-2-1.49-3.11-1.89a23.9,23.9,0,0,0-2.54-1.66,14.63,14.63,0,0,0-4.41-.75,21.37,21.37,0,0,0-4.66.16c-1.73.29-3.44.9-5.16,1.28C13.59,39.07,10.51,39.66,8,42a3.73,3.73,0,0,0-1.62,2.82A2.52,2.52,0,0,0,7.92,47,37.7,37.7,0,0,0,18.38,49a38.72,38.72,0,0,0,10.91-.26C31.78,48.27,36.15,47.06,37.18,44.41Zm-3.06,2a20,20,0,0,1-8.85,2.21,52.82,52.82,0,0,1-8.43-.36c-2.9-.3-6.39-.54-9-2-2-1.14-.17-3.09.87-4A10.82,10.82,0,0,1,13,39.92c2.48-.77,5.08-1.13,7.58-1.81a18.27,18.27,0,0,1,8.51-.27,9.85,9.85,0,0,1,3.48,1.22l.58.38a.35.35,0,0,0,.19.48c1.52.55,3,1.09,3.26,2.94S35.53,45.54,34.12,46.36Z"/><path class="cls-2" d="M68.61,71.52c.73-.16,2.18-1.16,1.89-2a.12.12,0,0,0,0-.09,1,1,0,0,0-.29-.33,10.4,10.4,0,0,0-2-1.81,13.57,13.57,0,0,0-3.7-1.62,47,47,0,0,0-8.68-1.87,28.6,28.6,0,0,0-8.26.38c-1.27.23-3.26,1.5-2,2.94a4.06,4.06,0,0,0,2.29,1c1.33.37,2.64.77,4,1.14a61.81,61.81,0,0,0,8.58,2.13A25.3,25.3,0,0,0,68.61,71.52ZM51.46,68.58c-.88-.25-1.74-.58-2.63-.8-.44-.11-.87-.21-1.3-.33-.22,0-.44-.09-.65-.15-.92-.17-1.09-.82-.53-2,1.46-1,4.16-1.07,5.89-1.1a35.78,35.78,0,0,1,6.53.57,57.55,57.55,0,0,1,6.07,1.58,10.79,10.79,0,0,1,4.83,2.77.28.28,0,0,0,.1.38c.83.54-1.14,1.35-1.33,1.4a8.33,8.33,0,0,1-1.79.27c-.86,0-1.75-.1-2.61-.13a32.78,32.78,0,0,1-6.76-.81C55.32,69.76,53.41,69.12,51.46,68.58Z"/><path class="cls-2" d="M72.68,168.2A19.76,19.76,0,0,1,71,164.44c-.8-2.52-2.3-4.78-2.84-7.39s-.52-5.13-1.44-7.59c-.4-1.05-1-2-1.48-3.05a16.19,16.19,0,0,1-1.29-4c0-.18-.36-.14-.33,0,.34,2.63,1.53,4.76,2.52,7.17s.95,5.42,1.49,8.08,2.19,5.19,3,7.84A33,33,0,0,0,74,171.62c.29.33.77-.15.48-.48A15.71,15.71,0,0,1,72.68,168.2Z"/><path class="cls-2" d="M138.85,13.89c-1-3.29-2.34-6-5.32-7.83-3.2-1.95-7.12-3-10.68-4.07a44.23,44.23,0,0,0-6-1.46c-2-.31-4.13-.36-6.2-.53-1.91-.16-3.8-.49-5.72-.58-2.19-.1-4.4-.05-6.59,0A38.75,38.75,0,0,0,86,1.16c-1.8.6-3.5,1.51-5.25,2.25-2,.83-4.11,1.22-6.16,1.85-3.56,1.1-6.66,3.31-9.88,5.11a18.83,18.83,0,0,0-6.93,6.12c-1.94,3-4,6-4.85,9.49a11.94,11.94,0,0,1-.91,2.66c-.41.77-1,1.44-1.32,2.25a12.17,12.17,0,0,0-.6,5.16c.17,5,1.71,9.82,2.55,14.74a66.63,66.63,0,0,1,.48,7.75c0,1,.2,2.31,1.17,2.77-1.63-.11-3.26,0-4.89,0-1,0-1.9,0-2.86.15-.29,0-.59,0-.9,0a20.71,20.71,0,0,0,.24-4.59,26.37,26.37,0,0,0-.86-5.73,31,31,0,0,0-1.28-5.3c-.73-1.83-2.18-3.35-3.32-4.93A9.42,9.42,0,0,0,37,38.36a15.77,15.77,0,0,1-2.32-1.44,8.23,8.23,0,0,0-2-1.55c-3.36-1.26-7.19-1.09-10.68-.58-4.16.59-8.09,2.18-12,3.67C6.78,39.67,3.31,41.72,1.6,44.8c-1.91,3.44-2.07,7-2.08,10.86,0,4.1-.41,8.05.16,12.13a38,38,0,0,0,3.2,11.78c.92,1.86,1.17,4.22,1.59,6.23a39,39,0,0,0,1.92,6.46c.7,1.8,1,3.71,1.53,5.54a23.37,23.37,0,0,0,2.2,5.41,50.67,50.67,0,0,0,7.23,8.85c1.34,1.37,3,2.45,4.39,3.77s3.1,2.87,4.56,4.39c2.82,3,5.86,5.71,8.2,9.08,4.26,6.13,8.12,13.11,14.57,17.25a40.83,40.83,0,0,1,5.23,4.34c1.74,1.61,3.45,3.26,5,5s2.44,3.51,3.81,5.15a23.72,23.72,0,0,1,2.14,2.66c.33.53.64,1.05,1,1.54a10.5,10.5,0,0,0-3.94,1.21,14.33,14.33,0,0,0-4.52,3.19c-2.82,2.91-5.3,6.1-9.22,7.61-1.66.63-3.4.26-5.1.62a3.47,3.47,0,0,0-1.73,1,17.68,17.68,0,0,1-2.85,2.4c-1.12.75-2.37,1.13-3.28,2.18-.44.52-.3.9-.6,1.44s-.76.82-.78,1.41c0,.31.48.61.67.78a5.94,5.94,0,0,1,1.6,1.6,12.59,12.59,0,0,1,1.08,2.5,25.12,25.12,0,0,0,.86,2.8c.59,1.53,1.81,1.94,2.89,3s1.8,3.6,2.27,5.17A6.66,6.66,0,0,0,50,206.71c2-.13,3.93-.66,5.84.32s2.42,3.06,3.62,4.65a8.83,8.83,0,0,0,1.71,1.52c.67.54,1.25,1.16,1.89,1.74,1.1,1,2.49.83,3.86.8a15.91,15.91,0,0,1,2.49-.05,3.26,3.26,0,0,0,1.83-.18,16.67,16.67,0,0,0,2.16-1.26,8.46,8.46,0,0,1,3.86-1,22.3,22.3,0,0,0,5.1-1.09c1.88-.65,3.83-1,5.77-1.54s3.71-1.58,5.74-1.69a6.23,6.23,0,0,1,3.25.91,2.69,2.69,0,0,0,1.91.48,6.22,6.22,0,0,0,2-1.1,8.78,8.78,0,0,1,1.93-.85,5.63,5.63,0,0,0,2.88-3.07c.69-1.47,1.27-3,1.89-4.52a10.34,10.34,0,0,1,1.54-2.92c.57-.68,1.26-1.22,1.8-1.92a6.71,6.71,0,0,0,1.45-3.87,5.76,5.76,0,0,0-.35-2.14c-.52-1.52,1.05-1.61,1.43-2.6s1.49-1.6,2.46-2.16a3.45,3.45,0,0,0,1.34-1c.67-1.14,0-3.46-.28-4.63-.37-1.4-.23-2.59-1.25-3.72-1.19-1.33-2.86-1.88-4.43-2.61a12.69,12.69,0,0,0-4.35-.93c-2.09-.2-4-1.23-6-1.76-1.42-.37-2.9-.19-4.32-.55-1-.26-1.53-1.15-2.22-1.83a6.67,6.67,0,0,0-1.51-1.07c-1-.56-2.65-1.68-3.85-1.68a16,16,0,0,0-3.18,0,43.46,43.46,0,0,1,.85-5.61,52.34,52.34,0,0,1,4.46-11.83,24.18,24.18,0,0,0,2.13-5.12A31,31,0,0,1,95.42,136c1.78-3.87,3.84-7.59,5.79-11.38a65.69,65.69,0,0,1,6.22-9.83c2.49-3.24,4.15-7.08,5.82-10.77.84-1.84,1.62-3.73,2.53-5.54a17.5,17.5,0,0,1,3.73-4.28,49.09,49.09,0,0,0,7.08-9.15c1-1.68,2-3.43,2.84-5.2s1.91-3.76,2.75-5.66A46.7,46.7,0,0,0,136,63.47a112.4,112.4,0,0,0,1.15-13c.29-4.3.34-8.58.34-12.88,0-2.19.75-4,1.21-6.08s.95-4,1.22-6a44.25,44.25,0,0,0,.07-5.76A21.26,21.26,0,0,0,138.85,13.89ZM88.33,166.05a5.91,5.91,0,0,1,3,.92c.68.36,1.39.63,2,1a20.44,20.44,0,0,1,2.13,2c.93.8,2.35.81,3.5.86a23.06,23.06,0,0,1,6.15,1.66c2,.67,4.07.39,6,1.22s4.63,1.84,5.11,4.17c.19.89.3,1.78.5,2.67s.63,3-.26,3.58c-1.11.69-2.94,1.25-3.34,2.61-.34,1.11-2.07,1.52-1.67,2.94a6.27,6.27,0,0,1-.94,5.88c-.94,1.32-2.34,2.13-2.94,3.71-.68,1.81-1.48,3.56-2.18,5.36a6,6,0,0,1-3.76,3.53,18.85,18.85,0,0,0-2.08,1.22c-1.26.74-2.74-.54-3.94-.9a7.17,7.17,0,0,0-4.63.38,47.06,47.06,0,0,1-5.71,1.75c-1.79.43-3.49,1.1-5.28,1.49s-4.08.22-5.82,1A14.37,14.37,0,0,0,72,214.4a4.12,4.12,0,0,1-3,.6c-2-.25-4,.81-5.76-.77-1.34-1.22-3-2.33-3.89-3.89a10.25,10.25,0,0,0-2.84-3.65,6.35,6.35,0,0,0-4.22-.86c-.88.07-1.76.23-2.65.29a5.73,5.73,0,0,1-3.29-1.31c-3-1.88-2.45-6.08-4.84-8.45-.69-.68-1.6-1-2.17-1.83a8.69,8.69,0,0,1-1-2.72,8.83,8.83,0,0,0-1.73-4.06c-.46-.47-1-.81-1.49-1.25s.29-1.12.55-1.58.32-1.08.88-1.61a11.43,11.43,0,0,1,2.39-1.4c1.71-.93,2.9-2.91,4.74-3.5a11,11,0,0,1,2.92-.17,7.66,7.66,0,0,0,2.58-.61c3-1.16,5.39-3.59,7.43-6a19.42,19.42,0,0,1,4.24-4c1.61-1,3.71-2.17,5.62-2.22h0l.29.34a.28.28,0,0,0,.12.08c.92,1.23,1.67,2.58,2.59,3.8a11.19,11.19,0,0,0,3,2.33,14.94,14.94,0,0,1,3.61,3.9,14.39,14.39,0,0,0,2.27,2.28.34.34,0,0,0,.3.26c.25.22.49.44.72.67,0,0,0,0,0,0l-.09,0c-1.2.56-2.76,1.38-4.11,1.05a7.55,7.55,0,0,1-2.75-2c-.12-.14-.37.05-.26.2.71.92,2.14,2.29,3.35,2.4,1.89.18,4-1.12,5.62-1.89A33.83,33.83,0,0,0,87,176a4.15,4.15,0,0,1,.64-.38,1.42,1.42,0,0,1,0,.2c.08.38.62.21.57-.16a2.56,2.56,0,0,0,0-.27,7.13,7.13,0,0,1,6.42,1.3,22.52,22.52,0,0,0,5.16,3.21c.88.42,1.84.34,2.69.73a5.86,5.86,0,0,0,1.81.72c1.09.09,2.14-.3,3.27-.13s1.7,1,2.66,1.22a10.85,10.85,0,0,0,2.47-.1c1,0,1.94.19,2.92.19a.3.3,0,0,0,0-.59c-.72,0-1.36-.19-2.08-.19a27.74,27.74,0,0,0-2.88.12c-.55.06-1.18-.5-1.64-.75a5,5,0,0,0-1.3-.44,8.25,8.25,0,0,0-2.67,0c-.73.07-.79.27-1.52-.15-.2-.11-.34-.29-.58-.35a14.26,14.26,0,0,1-2.85-.77,26.36,26.36,0,0,1-5.78-3.74A6.65,6.65,0,0,0,90,174.58a9,9,0,0,0-1.86.24,13.15,13.15,0,0,0-.61-2.12c-.39-1-1.4-1.77-1.36-2.89a.19.19,0,0,0-.29-.17c0-.92.18-1.93.18-2.68,0-.31,0-.61,0-.9A8.86,8.86,0,0,1,88.33,166.05ZM138.58,28.81c-.47,2.14-1.16,4.2-1.62,6.33a26.1,26.1,0,0,0-.21,5.52c0,2.24,0,4.47-.14,6.7-.23,4.59-.31,9.25-1,13.8A44.87,44.87,0,0,1,134.42,67a44,44,0,0,1-2.49,6c-3.31,7.41-7.09,15-12.94,20.75a32.57,32.57,0,0,0-3.21,3.43,29.36,29.36,0,0,0-2.73,5.57,73.65,73.65,0,0,1-5.71,11c-1.09,1.62-2.33,3-3.29,4.73s-2,3.35-3,5c-2.15,3.66-4,7.49-5.83,11.31a23.44,23.44,0,0,0-2,5.34,21.22,21.22,0,0,1-2.09,6.59c-1,1.68-1.65,3.55-2.5,5.29a30.7,30.7,0,0,0-2,5.66,36.83,36.83,0,0,0-1.36,8.06.32.32,0,0,0,0,.36c0,.11,0,.23,0,.35,0,1.66-.72,4.2.66,5.49a.35.35,0,0,0,.51,0l.07.12a8.79,8.79,0,0,1,1,3l0,0a21.59,21.59,0,0,0-2.32,1.47A53.31,53.31,0,0,1,79.91,179a.29.29,0,0,0-.08-.28l-.89-.88a3.85,3.85,0,0,0-.45-1,7,7,0,0,1-.62-2.83,50.25,50.25,0,0,0-.56-5.35,23.37,23.37,0,0,1-.23-6.14,15.64,15.64,0,0,1,1.2-6.49,36,36,0,0,0,2-5.15,42.35,42.35,0,0,1,2.57-6.14c1.71-3.46,2.28-7.27,4.43-10.52a13,13,0,0,0,2-4.86,15.15,15.15,0,0,1,2.44-5.91,22,22,0,0,0,2-5.19,30.2,30.2,0,0,1,3.09-6.43c2.16-3.51,3.48-7.46,5.53-11s4.86-6.33,6.54-10.07c1.38-3.08,1.62-6.37,1.8-9.69,0-.08-.12-.08-.13,0a42.14,42.14,0,0,1-.8,6.33,21.06,21.06,0,0,1-2.78,6.31c-1,1.64-2.37,3-3.49,4.56a28.73,28.73,0,0,0-2.87,5.14c-.82,1.85-1.77,3.68-2.68,5.49-1,2-2.3,3.84-3.28,5.85A57.57,57.57,0,0,0,92.55,120a21.51,21.51,0,0,1-1.28,3.1c-.51.91-1.12,1.72-1.56,2.68-.81,1.79-.79,3.79-1.57,5.57s-2.07,3.37-2.89,5.18c-.71,1.55-1,3.22-1.64,4.8-.82,2.08-1.83,4-2.76,6.08a50,50,0,0,0-1.76,5.08c-.67,2-1.77,3.82-2.27,5.91a26.77,26.77,0,0,0-.39,5,21.43,21.43,0,0,0,.38,5.82,48.21,48.21,0,0,1,.46,5.12,9.53,9.53,0,0,0,.22,1.69,2.7,2.7,0,0,0,.22.53q-.72-.69-1.41-1.41c-1-1-1.7-2.4-2.86-3.19a16.32,16.32,0,0,1-3.87-2.88c-.85-1-1.53-2.22-2.39-3.25a.36.36,0,0,0,.07-.55A14.67,14.67,0,0,1,65.7,163a18.67,18.67,0,0,0-1.38-1.68c-1.32-1.69-2.45-3.52-3.82-5.18a69.17,69.17,0,0,0-9.15-8.71c-1.45-1.2-3.08-2.17-4.47-3.44a52.61,52.61,0,0,1-4.28-4.43,99.57,99.57,0,0,1-7-9.87c-2.16-3.27-4.9-5.77-7.58-8.58-1.32-1.38-2.66-2.7-4-4a36.65,36.65,0,0,0-4.55-4.17,22.77,22.77,0,0,1-4-4,53.29,53.29,0,0,1-4.26-5.22C8.86,100.13,8.46,96,7.07,92.07c-.35-1-.79-1.89-1.13-2.86a22.87,22.87,0,0,1-.69-3.08,46.32,46.32,0,0,0-1.54-6.38c-.33-.89-.87-1.66-1.12-2.59s-.66-2-.94-3a49,49,0,0,1-1.38-7C-.28,63,.18,58.86.18,54.65S.69,46,3.89,43C7.26,39.8,11.62,38.4,16,37a34.52,34.52,0,0,1,5.72-1.54A34.6,34.6,0,0,1,28,35.12a17.23,17.23,0,0,1,3,.41A5.77,5.77,0,0,1,34,37.16C35.32,38.39,37.12,39,38.59,40c1.73,1.19,2.9,3.22,4,4.94s1.41,3.93,1.79,5.94a33.46,33.46,0,0,1,1,5.54,23,23,0,0,1-.06,5.11,2.44,2.44,0,0,0-.89.23c-2,1.05-4.82,1.69-6.25,3.59a13.25,13.25,0,0,0-1.94,3.46,14.7,14.7,0,0,0-.38,4.68A78.83,78.83,0,0,0,38.8,93.91a40.14,40.14,0,0,1,1.38,10.68c0,3.66,0,7.31.22,11a42.11,42.11,0,0,0,1.46,9.21A16.85,16.85,0,0,0,44,129.27a47.53,47.53,0,0,1,2.79,4.09c.12.22.44,0,.33-.19a45.07,45.07,0,0,0-3-4.53,18.33,18.33,0,0,1-2.41-6.4,65.38,65.38,0,0,1-1-12.49c0-4.12.32-8.32-.56-12.37s-2.07-7.89-2.72-11.9a81.29,81.29,0,0,1-1-13,9.61,9.61,0,0,1,1.62-5.87,9,9,0,0,1,4.54-3.3,11.67,11.67,0,0,0,1.78-.86c.8-.51,2.11-.36,3-.44A43.55,43.55,0,0,1,53.88,62c3.82.19,7.34,1.64,11.06,2.36,2.67.52,5.85.6,7.91,2.55,2.3,2.18,2.18,6.07,2.14,9a24.56,24.56,0,0,1-1.77,8,18.32,18.32,0,0,0-1.13,4.05A33.52,33.52,0,0,0,72,92.27a37.51,37.51,0,0,0,.39,8.21,22.28,22.28,0,0,0,.92,3.57c.51,1.24,1.12,2.44,1.57,3.71,1.09,3.1.35,6.6-.91,9.52a18.87,18.87,0,0,0-1.41,8,.35.35,0,0,0,.7,0A17.1,17.1,0,0,1,74,119c.74-1.88,1.74-3.72,2-5.77a12.67,12.67,0,0,0-.29-5.24c-.61-1.83-1.55-3.52-2.15-5.35a18.88,18.88,0,0,1-.8-5.48V90.05c0-4.14,2-7.74,2.76-11.76A17.85,17.85,0,0,0,74.4,67.87c-1.62-3.33-5.58-3.54-8.81-4.11-3.49-.62-6.83-2-10.38-2.39l-.63,0c.07-.07.09-.21,0-.25-1.29-.55-.91-2.87-1-4-.24-2.14,0-4.27-.35-6.41s-.85-4.06-1.33-6.08a56.15,56.15,0,0,1-.94-6.31,20,20,0,0,1,0-5.89c.33-1.86,1.67-3.24,2.24-5a28,28,0,0,1,2-5.38c.92-1.66,2-3.21,3-4.85,1.88-3.25,5-5.1,8.12-6.92,3.56-2.06,6.88-4,10.9-5S84.64,2,88.61,1A54.32,54.32,0,0,1,102,0c4.13,0,8.19.59,12.3.9,4.49.33,8.76,1.76,13,3.24,3.5,1.22,7.46,2.49,9.38,5.94,2.11,3.8,2.63,8.3,2.63,12.55A29.16,29.16,0,0,1,138.58,28.81Z"/><path class="cls-2" d="M125.2,8.6a16.31,16.31,0,0,0-4.28-2c-1.79-.6-3.6-1.26-5.43-1.69-3.61-.84-7.47-.57-11.14-.52a89.21,89.21,0,0,0-11.89,1A112.74,112.74,0,0,0,80.56,8c-3.63.93-7.17,2.11-10.68,3.37-2.64,1-5.13,2.25-6.72,4.63a8.19,8.19,0,0,0-.64,7.75,4.92,4.92,0,0,0,3.91,2.93A12.16,12.16,0,0,0,73,27.2c3.65-.6,7.4-.43,11-1.09,2.08-.38,4.21-.46,6.3-.63s3.91-.36,5.88-.63c4.38-.59,8.73-1.44,13.1-2,1.9-.25,3.74-.69,5.61-1a46,46,0,0,0,6.26-1.5c2.64-.9,5.7-2.08,6.84-4.84S127.33,10.13,125.2,8.6ZM64.13,25.22A5.08,5.08,0,0,1,63,23.65a7.85,7.85,0,0,0,1.32,1.65l.33.29A5.15,5.15,0,0,1,64.13,25.22Zm62.77-9.06c-1,1.53-2.64,2-4.15,2.74a26.81,26.81,0,0,1-6.56,2c-5,1-10.09,1.8-15.16,2.63s-10.44,1.16-15.67,1.75c-2.21.25-4.4.47-6.62.66-1,.08-2,.16-3.06.19-1.25,0-2.49.42-3.74.53a15.23,15.23,0,0,1-2,.05.13.13,0,0,0-.14-.13h-1.2a8,8,0,0,1-3.23-1.27c-2.42-1.64-3.64-5.3-2-7.86a.29.29,0,0,0-.17-.46c1.47-2.82,4.56-4.28,7.58-5.31a131.64,131.64,0,0,1,24.48-6,97.5,97.5,0,0,1,13.78-.57,30.51,30.51,0,0,1,6.25.53,53.85,53.85,0,0,1,5.87,1.84,13.28,13.28,0,0,1,5.17,2.95A4.9,4.9,0,0,1,126.9,16.16Z"/><path class="cls-2" d="M73.38,193.66c-.73-.27-1.59-.18-2.28-.49-.54-.25-.86-1.2-1.17-1.68-.63-1-1.89-.91-2.69-1.75a13,13,0,0,1-2-3.54,7.1,7.1,0,0,0-1.09-1.3c-.54-.61-1-1.31-1.58-1.87s-1.09-.65-1.57-1.11a9.85,9.85,0,0,0-1.14-1.1c-.93-.67-2-.24-3,.12-3.15,1.17-3.07,4-3.59,6.82,0,.19.25.27.29.08a20.25,20.25,0,0,1,.91-4.36c.64-1.46,2.75-2.43,4.26-2.54.81-.06,1.42.81,1.89,1.34a5.33,5.33,0,0,0,1.32.93c.55.34.82.94,1.25,1.4a14.5,14.5,0,0,1,1.56,1.86c.88,1.35,1.39,4.13,3.28,4.59,1.47.36,1.55,1.42,2.44,2.37.65.7,1.91.46,2.72.75C73.56,194.31,73.7,193.78,73.38,193.66Z"/><path class="cls-2" d="M81.09,197.44c-.88.79-2.52-.24-3.58-.08-1.34.19-2.61.72-4,1-1.93.38-2.56,2.78-2.62,4.48,0,.19.27.19.28,0,.07-1.39.58-3.5,2.1-4,1-.32,2-.39,3-.71,1.39-.44,2.39,0,3.74.14a1.59,1.59,0,0,0,1.41-.43C81.71,197.58,81.34,197.22,81.09,197.44Z"/><path class="cls-2" d="M11.15,56.46c.13-.17-.17-.34-.3-.17-1.55,2.05-3.06,4.13-4.49,6.27C5.64,63.64,5,64.74,4.29,65.85A13.94,13.94,0,0,0,2.65,69c0,.16.18.25.27.11C4.2,67,5.35,64.81,6.69,62.75S9.61,58.52,11.15,56.46Z"/><path class="cls-2" d="M11.2,59.2a107.1,107.1,0,0,1-7,12.43c-.13.2.19.39.32.19a98.26,98.26,0,0,0,6.94-12.49C11.47,59.18,11.26,59.06,11.2,59.2Z"/><path class="cls-2" d="M10.35,65.1c.07-.15-.15-.28-.23-.13-.8,1.71-1.57,3.43-2.44,5.1S6.07,73.44,5.07,75c-.12.19.18.35.3.17a41.17,41.17,0,0,0,2.4-4.56C8.71,68.8,9.51,66.94,10.35,65.1Z"/><path class="cls-2" d="M6.61,78.81C8.25,75.48,9.48,72,11.12,68.6c.08-.16-.16-.3-.24-.14-1.67,3.33-3,6.79-4.61,10.16C6.16,78.84,6.5,79,6.61,78.81Z"/><path class="cls-2" d="M10.62,72.61c-1.24,3.14-2.76,6.15-4.18,9.21-.09.2.21.37.3.17,1.37-3.1,2.84-6.16,4-9.33C10.81,72.56,10.65,72.52,10.62,72.61Z"/><path class="cls-2" d="M10.76,76.72c-1,3-2.35,5.79-3.27,8.79-.07.21.26.3.33.09.92-3,2.18-5.85,3.11-8.84C11,76.66,10.8,76.61,10.76,76.72Z"/><path class="cls-2" d="M11.69,81c-1.09,2.38-2.33,4.69-3.27,7.14-.07.18.22.26.29.08.93-2.43,2.09-4.76,3.11-7.15C11.86,80.94,11.73,80.87,11.69,81Z"/><path class="cls-2" d="M12.08,85.36c-.75,1.92-1.54,3.81-2.17,5.77-.07.22.28.31.35.09.6-2,1.36-3.87,2.09-5.78C12.42,85.27,12.14,85.19,12.08,85.36Z"/><path class="cls-2" d="M13.32,88.71c-.76,1.93-1.6,3.83-2.33,5.76-.07.2.24.28.32.09q1.14-2.88,2.23-5.79C13.59,88.64,13.37,88.58,13.32,88.71Z"/><path class="cls-2" d="M13,92.66c-.48,1.41-.93,2.83-1.41,4.25-.06.19.25.28.31.08.46-1.42.88-2.85,1.33-4.26A.12.12,0,0,0,13,92.66Z"/><path class="cls-2" d="M13,96.76c-.16.77-.35,1.54-.45,2.32,0,.15.22.17.26,0,.2-.74.31-1.52.46-2.27C13.3,96.66,13,96.58,13,96.76Z"/><path class="cls-2" d="M13.68,100c0-.12-.2-.13-.2,0s.14.39.15.61.22.13.21,0a1.28,1.28,0,0,0-.07-.34A1.43,1.43,0,0,1,13.68,100Z"/><path class="cls-2" d="M14.5,101.66c0,.15,0,.3,0,.46a.13.13,0,0,0,.25,0c0-.16,0-.31,0-.46A.15.15,0,0,0,14.5,101.66Z"/><path class="cls-2" d="M70.37,29.14c.15-.15-.08-.38-.22-.23C65.72,33.58,61,37.94,57,43.06c-.13.17.15.38.28.22,2.07-2.39,4.08-4.82,6.23-7.14S68.14,31.51,70.37,29.14Z"/><path class="cls-2" d="M71.87,31.42C68,36.7,63.44,41.27,59.05,46.08c-.14.15.09.39.24.23A132.76,132.76,0,0,0,72,31.49C72.05,31.42,71.93,31.35,71.87,31.42Z"/><path class="cls-2" d="M70.29,35.94c-2,2.81-4.16,5.52-6.32,8.21a37.83,37.83,0,0,0-5,7.11.2.2,0,0,0,.17.3h.15a.19.19,0,0,0,.14-.31,44.53,44.53,0,0,1,5.28-7.53c2-2.5,3.94-5,5.8-7.63C70.64,35.94,70.4,35.8,70.29,35.94Z"/><path class="cls-2" d="M70.34,40.38c-3.57,5-7.8,9.49-11,14.68-.14.22.2.41.34.2,3.45-5.06,7.4-9.74,10.85-14.8C70.55,40.37,70.4,40.29,70.34,40.38Z"/><path class="cls-2" d="M69.3,44.8a36,36,0,0,1-4.25,6.5c-1.44,1.94-3.19,3.79-4.26,6a.16.16,0,0,0-.12.16l0,.15c0,.19.28.27.35.1,1-2.32,2.82-4.22,4.27-6.27a32.62,32.62,0,0,0,4.13-6.58C69.42,44.79,69.33,44.75,69.3,44.8Z"/><path class="cls-2" d="M67.35,51.2c-1.92,3-4.41,5.63-6.2,8.74-.12.19.19.37.3.17,1.71-3.14,4.14-5.81,6-8.89C67.42,51.19,67.37,51.16,67.35,51.2Z"/><path class="cls-2" d="M66.39,55.73a36.36,36.36,0,0,0-3.1,4.67c-.09.18.19.33.26.16a29.58,29.58,0,0,1,3-4.75C66.6,55.72,66.45,55.64,66.39,55.73Z"/><path class="cls-2" d="M66.52,58.91a10.1,10.1,0,0,0-1.4,2.45c-.05.16.19.22.25.07A20.38,20.38,0,0,1,66.71,59C66.78,58.89,66.6,58.79,66.52,58.91Z"/><path class="cls-2" d="M65.87,61.54a1.92,1.92,0,0,1-.29.84c-.08.17.17.31.24.15a2.36,2.36,0,0,0,.32-1A.14.14,0,0,0,65.87,61.54Z"/><path class="cls-2" d="M68.59,76.5c-1.37,2.27-2.75,4.53-4.19,6.76s-2.64,4.33-4,6.45a.2.2,0,0,0,.32.24,17.92,17.92,0,0,0,1.62-2.48c.75-1.21,1.43-2.44,2.21-3.64,1.53-2.34,2.95-4.75,4.38-7.16A.17.17,0,0,0,68.59,76.5Z"/><path class="cls-2" d="M68.15,82a50.53,50.53,0,0,1-3.61,6.92c-.64,1-1.33,2-2,3.1a19.77,19.77,0,0,1-2.18,3.41c-.16.18.09.42.25.26a12.58,12.58,0,0,0,1.83-2.81c.69-1.16,1.4-2.3,2.11-3.45a51.84,51.84,0,0,0,3.82-7.36C68.49,81.93,68.22,81.86,68.15,82Z"/><path class="cls-2" d="M67.6,84.74l-.09.13a.08.08,0,0,0,0,.15h0a.3.3,0,0,0-.08.14,21.19,21.19,0,0,1-1,2.63c-.68,1.49-1.51,2.91-2.32,4.33s-1.7,3-2.54,4.57a34.2,34.2,0,0,0-2.13,4c-.09.23.29.33.39.1a38.4,38.4,0,0,1,2-3.92q1.16-2.13,2.29-4.26a37.79,37.79,0,0,0,3.61-7.8C67.8,84.72,67.64,84.65,67.6,84.74Z"/><path class="cls-2" d="M66.08,91.58c-1.19,2-2.33,4-3.45,6s-2.1,4.14-3.32,6.1c-.12.21.19.38.32.19a64.58,64.58,0,0,0,3-5.76q1.71-3.25,3.56-6.44A.09.09,0,0,0,66.08,91.58Z"/><path class="cls-2" d="M59.32,107.37c.78-1.79,1.8-3.46,2.65-5.21s1.69-3.64,2.46-5.49c0-.11-.14-.18-.18-.08-.81,1.83-1.65,3.63-2.54,5.42s-2,3.4-2.71,5.23C58.92,107.42,59.24,107.55,59.32,107.37Z"/><path class="cls-2" d="M64.23,101.14c-1.67,3.14-3.42,6.24-5.07,9.39-.1.21.21.39.32.19,1.66-3.15,3.33-6.29,5-9.46A.12.12,0,0,0,64.23,101.14Z"/><path class="cls-2" d="M60.79,112.17a.17.17,0,0,0,.21-.08c.91-2.13,2-4.18,3-6.25.09-.18-.19-.34-.28-.16-.52,1-1.06,2.07-1.59,3.11-.13.26-1.48,3-1.27,3a.19.19,0,0,0-.21.09,9.83,9.83,0,0,0-.61,1.41,3.92,3.92,0,0,0-.48,1.42.19.19,0,0,0,.23.18h0a.17.17,0,0,0,.11-.13h0c.11-.4.28-.79.42-1.17s.25-.63.38-1S61.06,112.23,60.79,112.17Z"/><path class="cls-2" d="M64.13,110.53c.07-.13-.14-.26-.2-.12-1.08,2.27-2.15,4.54-3.1,6.86-.09.2.25.29.33.09C62.07,115.05,63.1,112.79,64.13,110.53Z"/><path class="cls-2" d="M62.51,116.66c-.57,1.44-1,2.92-1.39,4.4a.18.18,0,0,0,.35.1c.44-1.48.8-3,1.35-4.41C62.9,116.55,62.58,116.47,62.51,116.66Z"/><path class="cls-2" d="M62.5,121.82c-.18,1-.47,1.92-.62,2.89,0,.23.32.33.35.1.15-1,.43-1.92.6-2.89C62.87,121.7,62.54,121.6,62.5,121.82Z"/><path class="cls-2" d="M64.32,131a23.53,23.53,0,0,1-.54-3.53,1.91,1.91,0,0,0-.24-.86,2,2,0,0,1-.11-1.19.16.16,0,0,0-.32,0,5.37,5.37,0,0,0-.15.8,9.48,9.48,0,0,1,.59,1.63,13.26,13.26,0,0,0,0,1.55c.15.56.3,1.12.46,1.68C64.09,131.2,64.37,131.13,64.32,131Z"/><path class="cls-2" d="M125.93,33.37c-3.74,6-7.64,11.92-11.86,17.64-4.34,5.89-8.73,11.78-13.26,17.53-.16.2.12.5.29.29,2.19-2.64,4.13-5.46,6.18-8.2,2.19-2.92,4.4-5.82,6.56-8.75,4.39-6,8.41-12.09,12.29-18.39C126.21,33.36,126,33.25,125.93,33.37Z"/><path class="cls-2" d="M98.53,79c4.22-5.19,7.9-10.86,11.92-16.2,4.18-5.57,8.46-11,12.49-16.73.09-.12-.11-.24-.2-.12-4,5.53-8.21,10.9-12.34,16.32s-8.13,11-12.22,16.45C98,79,98.37,79.22,98.53,79Z"/><path class="cls-2" d="M123.05,52.64C114.26,64,105,74.84,96.2,86.2c-.16.2.2.48.36.28,4.41-5.64,8.74-11.32,13.25-16.88s9.08-11.11,13.45-16.8C123.35,52.68,123.14,52.52,123.05,52.64Z"/><path class="cls-2" d="M115.11,64.81a134.76,134.76,0,0,1-10,15.24c-3.81,5.19-7.61,10.4-11.9,15.21-.21.23.13.58.34.34,4.11-4.64,7.73-9.67,11.4-14.66a137.86,137.86,0,0,0,10.44-16A.15.15,0,0,0,115.11,64.81Z"/><path class="cls-2" d="M105.84,81.22a63.55,63.55,0,0,1-6.31,11c-1.2,1.71-2.46,3.35-3.69,5a35.54,35.54,0,0,1-4,5.19c-.22.2.1.51.32.32a24.31,24.31,0,0,0,3.57-4.6c1.29-1.81,2.63-3.58,3.91-5.4a63.14,63.14,0,0,0,6.48-11.35C106.19,81.19,105.92,81,105.84,81.22Z"/><path class="cls-2" d="M100.22,94.24c-2.09,2.53-4,5.19-6.1,7.72a35.43,35.43,0,0,0-4.92,7.18c-.13.28.28.52.42.24a42.25,42.25,0,0,1,5.08-7.45c2-2.44,3.8-5,5.78-7.44C100.62,94.31,100.37,94.06,100.22,94.24Z"/><path class="cls-2" d="M93.71,106.46c-1.79,2.93-3,6.16-4.78,9.08-.14.22.2.41.35.2l.13-.2a16.91,16.91,0,0,0-1.23,3.85.17.17,0,0,0,.33.09A45.8,45.8,0,0,1,90,114.93a.15.15,0,0,0-.14-.21c.55-1,1-2.13,1.48-3.19.77-1.68,1.63-3.34,2.55-5A.12.12,0,0,0,93.71,106.46Z"/><path class="cls-2" d="M88.44,123.05a13.07,13.07,0,0,0-.45,1.24c0,.06.08.09.1,0a9.6,9.6,0,0,1,.46-1.2C88.59,123.05,88.48,123,88.44,123.05Z"/><path class="cls-2" d="M88.35,121.53c-.35.91-.81,1.79-1.12,2.72-.08.25.31.35.4.11.31-.85.67-1.68.94-2.54a.1.1,0,0,0,.05-.07l0-.18C88.65,121.39,88.41,121.38,88.35,121.53Z"/><path class="cls-2" d="M85.46,128.77a7.49,7.49,0,0,0-.64,2.32c0,.23.32.34.36.1a9.59,9.59,0,0,1,.58-2.24C85.86,128.75,85.56,128.57,85.46,128.77Z"/></g></svg>