<?xml version="1.0" encoding="utf-8"?>
<!-- Generator: Adobe Illustrator 23.1.0, SVG Export Plug-In . SVG Version: 6.00 Build 0)  -->
<svg version="1.1" xmlns="http://www.w3.org/2000/svg" xmlns:xlink="http://www.w3.org/1999/xlink" x="0px" y="0px"
	 viewBox="0 0 152.86 15.22" style="enable-background:new 0 0 152.86 15.22;" xml:space="preserve">
<style type="text/css">
	.st0{display:none;}
	.st1{display:inline;fill:#ADE2F1;}
	.st2{fill:#FFFFFF;}
	.st3{fill:#272525;}
	.st4{fill:none;}
</style>
<g id="BG" class="st0">
</g>
<g id="color">
</g>
<g id="stroke">
	<g>
		<path class="st2" d="M137.12,6.19c-2.22,1.15-4.47,2.08-7.03,2.02c-2.27-0.05-4.59-0.59-6.81-1.04c-2.01-0.41-4.11-1.08-5.35-2.85
			c-1.86-2.65-5.09-3.46-7.54-1.02c-1.59,1.58-3.15,2.76-5.43,3.07c-2.05,0.28-4.93-0.08-6.85-0.87c-4.25-1.75-7.83-5.26-12.77-3.87
			c-4.56,1.28-8.44,4.09-12.96,5.49c-3.48,1.08-7.67,0.62-10.93-1.06c-1.81-0.93-3.48-2.13-5.18-3.25
			c-1.76-1.16-3.87-2.57-6.09-2.31c-2.53,0.3-4.54,1.83-6.72,3c-0.97,0.52-1.89,1-2.82,1.58c-0.74,0.46-1.51,0.9-2.34,1.18
			c-3.68,1.25-7.74,1.22-11.26-0.45C24.7,4.7,22.4,3.15,19.82,2.69c-2.48-0.44-4.99-0.39-7.47-0.08c-2.12,0.26-4.65,0.28-6.72,1.05
			c0.03,0,0.05,0,0.08,0c2.1,0.07,4.54-0.13,6.55,0.55c2.21,0.74,4.03,2.12,5.81,3.58c2.2,1.81,4.5,3.54,7.12,4.71
			c1.64,0.74,3.27,1.36,5.09,1.18c1.37-0.13,2.74-0.35,4.06-0.76c2.33-0.71,4.18-1.9,6.24-3.13c1.88-1.12,3.88-2,6.11-2
			c2.34,0,4.79-0.37,6.97,0.61c3.86,1.72,7.23,5.82,11.73,6c2.69,0.11,5.4,0.02,8.1,0.02c2.59,0,4.92-0.76,7.27-1.8
			c2.13-0.94,4.33-1.82,6.35-2.96c1.65-0.93,3.28-1.95,5.18-2.26c4.43-0.73,7.33,5.51,11.69,4.23c2.34-0.68,4.8-1.84,6.98-2.93
			c1.31-0.65,3.72-0.34,5.11,0.1c1.01,0.32,1.98,0.76,2.92,1.25c1.11,0.58,2.07,0.74,3.24,1.06c2.3,0.63,4.49,0.69,6.87,0.8
			c2.45,0.11,4.7-0.28,6.98-1.17c2.03-0.79,3.84-2.03,5.83-2.9c3.31-1.45,6.72-0.32,10.11-0.01C148.94,3.25,141.36,4,137.12,6.19z"
			/>
		<g>
			<path class="st3" d="M145,3.92c-1.86-0.12-3.79,0.2-5.57,0.73c-2.41,0.71-4.43,2.21-6.9,2.76c-2.3,0.51-4.42,0.04-6.68-0.36
				c-2.15-0.38-4.33-0.59-6.21-1.8c-1.56-1.01-2.15-2.83-3.94-3.61c-1.17-0.51-2.93-0.57-4.06,0.04c-1.51,0.82-2.57,2.27-3.98,3.24
				c-2.32,1.59-5.52,0.94-8.06,0.44c-3.9-0.76-6.83-4.29-10.93-4.61C84.18,0.41,80.14,3.17,76.27,5c-2.02,0.95-4.59,2.25-6.89,2.23
				c-2.33-0.02-4.65-0.42-6.83-1.24c-4.53-1.7-8.12-6.86-13.4-5.87c-2.68,0.5-4.97,2.49-7.39,3.62c-1.41,0.66-2.55,1.63-4.07,2.14
				c-1.53,0.52-3.17,0.61-4.77,0.66c-3.44,0.1-6.12-1.46-9.11-2.96c-2.75-1.37-5.49-1.82-8.55-1.73c-1.38,0.04-2.76,0.22-4.13,0.42
				c-1.58,0.22-3.2,0.31-4.75,0.68C5.75,3.11,5.16,3.35,4.59,3.64C3.07,3.63,1.48,3.76,0.18,4.53c-0.42,0.24-0.04,0.89,0.38,0.65
				C1.37,4.7,2.3,4.5,3.26,4.42l0.9-0.04c0.69-0.01,1.38,0.02,2.02,0.05c2.11,0.07,4.34-0.02,6.35,0.66
				c2.23,0.75,4.1,2.48,5.88,3.94c1.82,1.49,3.78,2.79,5.87,3.86c1.69,0.86,3.58,1.65,5.5,1.57c2.14-0.09,4.28-0.6,6.29-1.33
				c1.62-0.6,3.04-1.54,4.49-2.46c2.15-1.35,4.23-2.14,6.79-2.14c2.61,0,4.85-0.17,7.22,1.14c0.84,0.47,1.43,1.23,2.27,1.66
				c1.04,0.54,2.03,1.18,3.05,1.76c1.52,0.87,3.24,1.77,5,1.97c2.62,0.3,5.37,0.07,8.01,0.07c2.2,0,4.03-0.3,6.12-1.04
				c2.04-0.73,3.98-1.72,5.95-2.58c2.1-0.92,4.01-2.27,6.15-3.09c2.81-1.07,4.95,0.7,7.17,2.16c1.48,0.97,3.44,2.22,5.31,1.86
				c2.37-0.45,4.74-1.68,6.91-2.71c2.6-1.23,5.67-0.31,8.1,0.95c1.93,1,4.17,1.65,6.35,1.79c2.37,0.15,4.9,0.31,7.26,0.05
				c2.18-0.24,4.44-1.26,6.37-2.28c1.05-0.56,2.07-1.16,3.15-1.68c1.6-0.76,3.14-0.77,4.87-0.77c2.04,0,3.94,0.54,5.96,0.65
				c0.22,0.01,0.35-0.25,0.25-0.43C151.3,5.29,147.97,4.11,145,3.92z M141.9,7.84c-1.99,0.87-3.8,2.11-5.83,2.9
				c-2.28,0.89-4.53,1.28-6.98,1.17c-2.38-0.1-4.57-0.17-6.87-0.8c-1.17-0.32-2.13-0.48-3.24-1.06c-0.94-0.49-1.91-0.93-2.92-1.25
				c-1.39-0.44-3.8-0.76-5.11-0.1c-2.18,1.09-4.64,2.24-6.98,2.93c-4.35,1.27-7.26-4.97-11.69-4.23c-1.9,0.31-3.53,1.33-5.18,2.26
				c-2.02,1.14-4.23,2.03-6.35,2.96c-2.35,1.04-4.68,1.8-7.27,1.8c-2.69,0-5.41,0.09-8.1-0.02c-4.5-0.18-7.87-4.27-11.73-6
				c-2.17-0.97-4.63-0.61-6.97-0.61c-2.23,0-4.23,0.88-6.11,2c-2.06,1.23-3.92,2.42-6.24,3.13c-1.32,0.4-2.69,0.63-4.06,0.76
				c-1.82,0.17-3.45-0.45-5.09-1.18c-2.61-1.17-4.92-2.9-7.12-4.71c-1.78-1.46-3.61-2.84-5.81-3.58c-2.01-0.68-4.45-0.48-6.55-0.55
				c-0.03,0-0.05,0-0.08,0c2.06-0.77,4.6-0.79,6.72-1.05c2.49-0.31,5-0.37,7.47,0.08c2.58,0.46,4.88,2.01,7.22,3.13
				c3.52,1.67,7.57,1.7,11.26,0.45c0.83-0.28,1.6-0.71,2.34-1.18c0.93-0.58,1.85-1.06,2.82-1.58c2.18-1.17,4.19-2.7,6.72-3
				c2.22-0.26,4.33,1.15,6.09,2.31c1.7,1.12,3.37,2.32,5.18,3.25c3.26,1.68,7.45,2.14,10.93,1.06c4.52-1.4,8.4-4.21,12.96-5.49
				c4.94-1.39,8.53,2.12,12.77,3.87c1.92,0.79,4.79,1.15,6.85,0.87c2.27-0.31,3.84-1.5,5.43-3.07c2.46-2.44,5.69-1.62,7.54,1.02
				c1.24,1.76,3.34,2.44,5.35,2.85c2.22,0.45,4.54,0.99,6.81,1.04c2.57,0.06,4.81-0.87,7.03-2.02c4.24-2.2,11.82-2.95,14.9,1.63
				C148.63,7.52,145.21,6.39,141.9,7.84z"/>
		</g>
	</g>
</g>
</svg>
