<?xml version="1.0" encoding="utf-8"?>
<!-- Generator: Adobe Illustrator 23.1.0, SVG Export Plug-In . SVG Version: 6.00 Build 0)  -->
<svg version="1.1" xmlns="http://www.w3.org/2000/svg" xmlns:xlink="http://www.w3.org/1999/xlink" x="0px" y="0px"
	 viewBox="0 0 136.9 35.98" style="enable-background:new 0 0 136.9 35.98;" xml:space="preserve">
<style type="text/css">
	.st0{display:none;}
	.st1{display:inline;fill:#ADE2F1;}
	.st2{fill:#FFFFFF;}
	.st3{fill:#272525;}
	.st4{fill:none;}
</style>
<g id="BG" class="st0">
</g>
<g id="color">
	<path class="st2" d="M90.07,29.54c-4.92-2.39-9.73-3.74-15.23-2.51c-3.67,0.82-6.56,4.42-10.49,4.22
		c-4.07-0.21-7.15-3.39-10.88-4.73c-4.42-1.59-9.32-1.21-13.23,1.49c-3.25,2.24-6.77,4.59-10.88,4.6c-4.73,0-8.91-1.84-13.48-2.59
		c-2.8-0.46-5.24,0.12-7.54,1.15c0.35-0.07,0.71-0.14,1.06-0.19c3.96-0.63,7.3,0.75,10.9,2.24c5.39,2.22,10.24,2.71,15.59,0.03
		c3.74-1.87,7.96-3.79,12.25-3.6c4.99,0.22,9.07,3.56,14.07,3.92c3.06,0.22,5.17-0.62,7.8-2.05c1.64-0.9,3.24-1.5,5.1-1.81
		c2.02-0.33,4.32-0.8,6.33-0.29c2,0.51,3.59,1.46,5.45,2.29c2.77,1.23,5.95,1.5,8.95,1.72c1.09,0.08,2.52,0.32,3.82,0.32
		c-1.21-0.43-2.56-0.68-3.69-1.22C93.99,31.58,92.06,30.51,90.07,29.54z"/>
</g>
<g id="stroke">
	<g>
		<path class="st3" d="M96.5,31.65c-2.29-0.98-4.43-2.26-6.66-3.35c-4.16-2.03-7.83-2.93-12.47-2.64c-1.79,0.11-3.68,0.4-5.32,1.16
			c-2.17,1.01-3.92,2.63-6.28,3.24c-2.78,0.72-5.23-1.04-7.52-2.33c-1.9-1.07-3.84-2.13-5.96-2.69c-3.68-0.97-7.22-0.56-10.66,0.98
			c-1.86,0.83-3.44,2.19-5.19,3.22c-2.83,1.68-5.66,2.42-8.94,2.25c-5.08-0.26-9.76-2.9-14.85-2.77c-4.32,0.1-8.25,3.43-11.78,5.55
			c-0.19,0.11-0.25,0.29-0.24,0.46c-0.2,0.18-0.4,0.36-0.59,0.56c-0.13,0.14,0.07,0.35,0.21,0.21c0.16-0.16,0.34-0.29,0.51-0.44
			c0.15,0.19,0.39,0.29,0.66,0.13c1.73-1.04,3.4-2.16,5.1-3.1c1.85-0.49,3.78-0.71,5.63-0.72c4.52-0.03,8.76,3.3,13.12,4.26
			c3.98,0.88,7.45,0.05,11.02-1.7c5.35-2.63,10.96-4.71,16.79-2.24c3.85,1.63,7.31,2.93,11.55,2.87c1.71-0.02,3.09-0.7,4.57-1.5
			c2.57-1.39,4.83-2.28,7.75-2.65c2.88-0.37,5.31,0.01,7.9,1.34c1.86,0.95,3.57,1.79,5.66,2.09c2.05,0.3,4.16,0.52,6.22,0.68
			c1.5,0.11,3.43,0.46,4.89,0.04c0.45-0.13,0.48-0.69,0.12-0.94C100.25,32.57,98.18,32.37,96.5,31.65z M95.86,33.43
			c-3.01-0.22-6.18-0.49-8.95-1.72c-1.86-0.83-3.46-1.78-5.45-2.29c-2.01-0.51-4.31-0.04-6.33,0.29c-1.86,0.3-3.46,0.91-5.1,1.81
			c-2.63,1.44-4.74,2.27-7.8,2.05c-5-0.36-9.09-3.7-14.07-3.92c-4.29-0.19-8.52,1.72-12.25,3.6c-5.35,2.68-10.2,2.19-15.59-0.03
			c-3.6-1.49-6.94-2.87-10.9-2.24c-0.35,0.06-0.71,0.12-1.06,0.19c2.3-1.04,4.73-1.62,7.54-1.15c4.57,0.76,8.75,2.6,13.48,2.59
			c4.11,0,7.63-2.36,10.88-4.6c3.92-2.69,8.82-3.07,13.23-1.49c3.73,1.34,6.81,4.52,10.88,4.73c3.92,0.2,6.82-3.4,10.49-4.22
			c5.49-1.23,10.31,0.12,15.23,2.51c1.99,0.97,3.92,2.04,5.91,2.99c1.13,0.54,2.48,0.78,3.69,1.22
			C98.37,33.74,96.95,33.51,95.86,33.43z"/>
	</g>
	<g>
		<path class="st2" d="M125.33,5.3c-1.38-0.4-2.72-0.47-4.03,0.24c-0.68,0.37-1.33,0.84-2.07,1.09c-1.27,0.43-2.71,0.62-4,0.14
			c-1.58-0.58-2.82-1.62-4.29-2.41c-1.14-0.61-2.42-1.12-3.74-1.04c-1.19,0.07-1.91,0.75-2.82,1.35c-2.68,1.78-5.5,2.69-8.7,1.76
			c-1.63-0.48-3.2-1.17-4.63-2.09c-1.59-1.02-3.21-2.72-5.25-2.6c-3.86,0.23-7.09,3.52-9.91,5.83c-2.56,2.1-5.19,1.59-8.2,0.67
			c-2.15-0.65-4.56-1.54-6.84-0.91c-0.81,0.23-1.47,0.63-2.06,1.13c1.41-0.53,3.04-0.67,4.24-0.51c1.78,0.23,3.35,1.31,5.09,1.68
			c2.16,0.47,4.34,0.81,6.48,0.02c2-0.74,3.57-2.13,5.46-3.09c1.44-0.73,3.21-0.74,4.77-0.9c1.72-0.18,3.67-0.03,5.31,0.54
			c1.84,0.64,3.52,1.72,5.41,2.22c2.44,0.65,4.84,0.98,7.1-0.36c1.3-0.77,2.66-1.69,4.17-2.01c1.51-0.32,2.95-0.31,4.43,0.2
			c1.52,0.52,2.65,1.78,4.05,2.53c0.84,0.46,2.3,1.26,3.18,0.17c0.29-0.35,0.55-0.74,0.86-1.07c0.34-0.36,0.71-0.77,1.19-0.96
			c1.44-0.57,2.95-0.59,4.43-0.12c1.76,0.56,3.42,1.38,5.2,1.85c1.47,0.39,4.47,0.94,5.69-0.5c-1.68-0.17-3.23-0.07-4.94-0.63
			C129.02,6.9,127.22,5.84,125.33,5.3z"/>
		<g>
			<path class="st3" d="M136.62,7.45c-0.75-0.1-1.44-0.03-2.19,0.02c-1.06,0.08-2.32-0.36-3.33-0.65c-1.93-0.57-3.68-1.57-5.57-2.25
				c-1.39-0.5-2.75-0.55-4.12,0.08c-1,0.46-1.86,1.06-2.91,1.42c-1.52,0.52-3.07,0.06-4.43-0.65c-2.75-1.44-5.38-3.88-8.66-2.39
				c-0.88,0.4-1.64,1.14-2.45,1.66c-0.91,0.59-1.95,0.98-3.01,1.22C97.56,6.46,95,5.55,92.89,4.49c-2.86-1.43-4.78-3.94-8.24-3.43
				C83,1.31,81.58,2.26,80.25,3.2c-1.59,1.12-3.06,2.21-4.54,3.48c-2.1,1.82-3.93,1.81-6.56,1.11C67.3,7.3,65.52,6.62,63.6,6.42
				c-3.54-0.36-5.73,1.32-7.54,4.17c-0.07,0.1-0.07,0.21-0.05,0.3c-0.03,0.07-0.06,0.14-0.08,0.22c-0.05,0.16,0.2,0.22,0.25,0.07
				c0.01-0.02,0.02-0.04,0.02-0.06c0.17,0.1,0.41,0.09,0.54-0.12c0.41-0.65,0.85-1.28,1.35-1.84c1.52-0.76,3.54-0.93,4.88-0.72
				c1.92,0.3,3.66,1.42,5.56,1.84c3.33,0.74,6.24,0.35,9.13-1.51c1.98-1.27,3.6-2.12,6-2.35c2.17-0.21,4.18-0.13,6.29,0.46
				c1.87,0.52,3.53,1.67,5.4,2.25c1.64,0.51,3.57,0.8,5.28,0.57c1.49-0.21,2.84-1.27,4.11-1.99c2.05-1.16,4.48-1.53,6.67-0.54
				c1.54,0.7,5.42,4.75,7.32,2.69c0.52-0.56,0.96-1.18,1.48-1.74c0.98-1.06,2.74-0.93,4-0.68c1.81,0.36,3.48,1.33,5.26,1.83
				c2.08,0.58,6.25,1.45,7.4-1.23C136.95,7.83,136.9,7.49,136.62,7.45z M130.15,8.65c-1.78-0.47-3.45-1.29-5.2-1.85
				c-1.48-0.47-2.99-0.45-4.43,0.12c-0.48,0.19-0.85,0.59-1.19,0.96c-0.31,0.33-0.57,0.72-0.86,1.07c-0.88,1.08-2.33,0.28-3.18-0.17
				c-1.39-0.75-2.52-2.01-4.05-2.53c-1.47-0.51-2.91-0.52-4.43-0.2c-1.51,0.32-2.87,1.24-4.17,2.01c-2.26,1.34-4.66,1.01-7.1,0.36
				c-1.88-0.5-3.57-1.58-5.41-2.22c-1.64-0.57-3.59-0.72-5.31-0.54c-1.57,0.16-3.33,0.17-4.77,0.9C78.18,7.5,76.61,8.9,74.6,9.64
				c-2.13,0.79-4.31,0.45-6.48-0.02c-1.74-0.38-3.31-1.46-5.09-1.68c-1.2-0.15-2.83-0.01-4.24,0.51c0.58-0.5,1.25-0.9,2.06-1.13
				c2.28-0.64,4.69,0.25,6.84,0.91c3.01,0.92,5.63,1.43,8.2-0.67c2.82-2.31,6.06-5.6,9.91-5.83c2.04-0.12,3.66,1.58,5.25,2.6
				c1.43,0.92,3,1.62,4.63,2.09c3.2,0.93,6.01,0.02,8.7-1.76c0.91-0.6,1.63-1.29,2.82-1.35c1.32-0.07,2.6,0.43,3.74,1.04
				c1.47,0.78,2.71,1.83,4.29,2.41c1.29,0.47,2.74,0.29,4-0.14c0.74-0.25,1.39-0.72,2.07-1.09c1.3-0.71,2.64-0.64,4.03-0.24
				c1.89,0.55,3.69,1.6,5.57,2.23c1.71,0.56,3.26,0.46,4.94,0.63C134.62,9.59,131.62,9.04,130.15,8.65z"/>
		</g>
	</g>
</g>
</svg>
