<?xml version="1.0" encoding="utf-8"?>
<!-- Generator: Adobe Illustrator 23.1.0, SVG Export Plug-In . SVG Version: 6.00 Build 0)  -->
<svg version="1.1" xmlns="http://www.w3.org/2000/svg" xmlns:xlink="http://www.w3.org/1999/xlink" x="0px" y="0px"
	 viewBox="0 0 88.77 9.66" style="enable-background:new 0 0 88.77 9.66;" xml:space="preserve">
<style type="text/css">
	.st0{display:none;}
	.st1{display:inline;fill:#ADE2F1;}
	.st2{fill:#FFFFFF;}
	.st3{fill:#272525;}
	.st4{fill:none;}
</style>
<g id="BG" class="st0">
</g>
<g id="color">
</g>
<g id="stroke">
	<g>
		<path class="st2" d="M72.19,4.33c-1.13,0.6-2.64,0.87-3.91,0.75c-3.7-0.35-6.77-3.37-10.46-3.87c-2.26-0.31-4.5-0.31-6.47,0.99
			c-1.24,0.82-2.57,1.79-4.07,2.07c-1.67,0.32-3.22,0.19-4.83-0.34c-2.1-0.7-4.27-1.28-6.32-2.1c-2.14-0.86-4.3-1.58-6.62-0.93
			c-1.94,0.54-3.8,1.38-5.52,2.42c-1.46,0.88-3.04,1.91-4.77,2.14c-1.56,0.21-3.07,0.1-4.61-0.16C12.12,4.89,9.66,4.6,7.34,5.79
			c0.73-0.13,1.47-0.2,2.2-0.14c1.85,0.16,3.26,1.05,4.99,1.65c2.23,0.77,4.83,1.15,7.04,0.07c3.46-1.7,6.5-3.32,10.5-3.17
			c1.79,0.07,3.19,0.66,4.75,1.49c2.17,1.14,4.32,1.81,6.8,1.6c2.32-0.2,3.92-1.22,6-2.06c1.83-0.74,3.7-0.89,5.64-1.01
			C57,4.11,58.68,4.3,60.25,5.08c2.15,1.07,4.11,1.65,6.52,1.76c0.95,0.04,1.9,0.03,2.86,0.03c0.68,0,1.71,0.12,2.3-0.3
			c0.22-0.2,0.46-0.4,0.7-0.58c1.42-0.63,2.84-0.86,4.38-0.86c1.77,0,3.55,0.78,5.22,1.29c0.91,0.28,1.78,0.45,2.66,0.58
			c-2-1.06-3.82-2.56-6.04-3.12C76.5,3.28,74.39,3.17,72.19,4.33z"/>
		<g>
			<path class="st3" d="M88.39,7.32c-3.65-0.23-6.38-3.42-9.87-4.31c-1.49-0.38-3.02-0.53-4.52-0.2c-0.93,0.21-1.72,0.67-2.6,1
				c-1.02,0.38-2.02,0.49-3.11,0.49c-1.59,0.01-3.68-1.36-5.13-1.96c-1.92-0.8-3.62-1.68-5.7-1.97c-1.55-0.21-3.11-0.2-4.62,0.22
				c-1.56,0.43-2.83,1.64-4.25,2.38c-2.16,1.11-4.37,0.73-6.56,0c-2.1-0.7-4.24-1.31-6.3-2.14c-3.62-1.45-6.55-0.89-10.02,0.69
				c-1.92,0.87-3.6,2.19-5.59,2.91c-2.16,0.79-4.47,0.2-6.66-0.1c-1.96-0.26-3.82-0.29-5.7,0.38C6.01,5.35,4.53,6.27,2.64,6.55
				c-0.47,0.07-0.27,0.78,0.2,0.71c0.04-0.01,0.08-0.02,0.12-0.02C1.95,7.83,1.1,8.59,0.09,9.29c-0.2,0.14-0.02,0.47,0.2,0.33
				C1.71,8.7,2.86,7.65,4.52,7.07c2.15-0.75,4.43-1.16,6.65-0.56c1.88,0.51,3.49,1.59,5.43,2c1.51,0.32,3.23,0.17,4.69-0.32
				c1.7-0.58,3.18-1.72,4.86-2.37c2.05-0.79,4.35-0.99,6.54-0.89c2.19,0.09,4.07,1.67,6.04,2.47c1.72,0.7,3.68,0.73,5.5,0.57
				c1.43-0.12,2.82-0.58,4.08-1.27c2.21-1.22,4.45-1.7,6.96-1.76c1.26-0.03,2.38,0.03,3.62,0.34c0.96,0.24,1.76,0.94,2.67,1.28
				c1.73,0.65,3.37,0.9,5.21,1.03c1.66,0.12,3.44,0.18,5.07-0.15c0.68-0.14,1.46-0.93,2.07-1.14c1-0.35,2.05-0.41,3.09-0.41
				c2.06,0,4.25,1.06,6.2,1.65c1.75,0.52,3.38,0.46,5.18,0.58C88.9,8.15,88.89,7.36,88.39,7.32z M82.23,6.42
				c-1.67-0.52-3.46-1.3-5.22-1.29c-1.54,0-2.96,0.24-4.38,0.86c-0.24,0.18-0.47,0.38-0.7,0.58c-0.59,0.42-1.62,0.3-2.3,0.3
				c-0.95,0-1.91,0.01-2.86-0.03c-2.41-0.11-4.37-0.69-6.52-1.76C58.68,4.3,57,4.11,55.27,4.22c-1.94,0.12-3.81,0.27-5.64,1.01
				c-2.08,0.84-3.68,1.86-6,2.06c-2.48,0.21-4.63-0.46-6.8-1.6c-1.57-0.82-2.96-1.42-4.75-1.49c-4-0.16-7.04,1.47-10.5,3.17
				c-2.21,1.08-4.81,0.7-7.04-0.07c-1.73-0.6-3.14-1.49-4.99-1.65c-0.73-0.06-1.47,0-2.2,0.14c2.32-1.18,4.78-0.9,7.27-0.49
				c1.54,0.26,3.05,0.37,4.61,0.16c1.73-0.23,3.3-1.27,4.77-2.14c1.72-1.03,3.58-1.87,5.52-2.42c2.32-0.65,4.48,0.07,6.62,0.93
				c2.06,0.82,4.22,1.4,6.32,2.1c1.61,0.54,3.16,0.66,4.83,0.34c1.5-0.29,2.82-1.25,4.07-2.07c1.97-1.3,4.21-1.3,6.47-0.99
				c3.69,0.51,6.76,3.53,10.46,3.87c1.27,0.12,2.78-0.16,3.91-0.75c2.19-1.16,4.31-1.04,6.64-0.45c2.22,0.56,4.04,2.06,6.04,3.12
				C84.01,6.88,83.14,6.71,82.23,6.42z"/>
		</g>
	</g>
</g>
</svg>
