<?xml version="1.0" encoding="utf-8"?>
<!-- Generator: Adobe Illustrator 22.0.1, SVG Export Plug-In . SVG Version: 6.00 Build 0)  -->
<svg version="1.1" id="圖層_1" xmlns="http://www.w3.org/2000/svg" xmlns:xlink="http://www.w3.org/1999/xlink" x="0px" y="0px"
	 viewBox="0 0 115.3 27" style="enable-background:new 0 0 115.3 27;" xml:space="preserve">
<style type="text/css">
	.st0{fill:#FFE5C2;}
	.st1{fill:#FFFFFF;}
	.st2{fill:#333333;}
	.st3{fill:#ABABAB;}
	.st4{fill:#9A9A9A;}
	.st5{fill:#4B4B4B;}
	.st6{fill:#515151;}
	.st7{fill:#989898;}
	.st8{fill:#585858;}
	.st9{fill:#797979;}
	.st10{fill:#6E6E6E;}
	.st11{fill:#8E8E8E;}
	.st12{fill:#BABABA;}
	.st13{fill:#7F7F7F;}
	.st14{fill:#949494;}
	.st15{fill:#AEAEAE;}
	.st16{fill:#C5C5C5;}
	.st17{fill:#7C7C7C;}
	.st18{fill:#919191;}
	.st19{fill:#A2A2A2;}
	.st20{fill:#A7A7A7;}
	.st21{fill:#8C8C8C;}
	.st22{fill:#8D8D8D;}
	.st23{fill:#6C6C6C;}
	.st24{fill:#5F5F5F;}
	.st25{fill:#616161;}
	.st26{fill:#9B9B9B;}
	.st27{fill:#D1D1D1;}
	.st28{fill:#A9A9A9;}
	.st29{fill:#848484;}
	.st30{fill:#5E5E5E;}
	.st31{fill:#4D4D4D;}
	.st32{fill:#7B7B7B;}
	.st33{fill:#262626;}
	.st34{fill:#5D5D5D;}
	.st35{fill:#FBFBFB;}
	.st36{fill:#696969;}
	.st37{fill:#6B6B6B;}
	.st38{fill:#0F0F0F;}
	.st39{fill:#5B5B5B;}
	.st40{fill:#353535;}
	.st41{fill:#272727;}
	.st42{fill:#383838;}
	.st43{fill:#A0A0A0;}
	.st44{fill:#CFCFCF;}
	.st45{fill:#B3B3B3;}
	.st46{fill:#D0D0D0;}
	.st47{fill:#636363;}
	.st48{fill:#E5E5E5;}
	.st49{fill:#343434;}
	.st50{fill:#545454;}
	.st51{fill:#525252;}
	.st52{fill:#B4B4B4;}
	.st53{fill:#D5D5D5;}
	.st54{fill:#707070;}
	.st55{fill:#F1F1F1;}
	.st56{fill:#767676;}
	.st57{fill:#E2E2E2;}
	.st58{fill:#AAAAAA;}
	.st59{fill:#4C4C4C;}
	.st60{fill:#7A7A7A;}
	.st61{fill:#A3A3A3;}
	.st62{fill:#C2C2C2;}
	.st63{fill:#808080;}
	.st64{fill:#9E9E9E;}
	.st65{fill:#2D2D2D;}
	.st66{fill:#787878;}
	.st67{fill:#8F8F8F;}
	.st68{fill:#5C5C5C;}
	.st69{fill:#303030;}
	.st70{fill:#8A8A8A;}
	.st71{fill:#E3E3E3;}
	.st72{fill:#9F9F9F;}
	.st73{fill:#898989;}
	.st74{fill:#B7B7B7;}
	.st75{fill:#6F6F6F;}
	.st76{fill:#999999;}
	.st77{fill:#6D6D6D;}
	.st78{fill:#909090;}
	.st79{fill:#BFBFBF;}
	.st80{fill:#B2B2B2;}
	.st81{fill:#3D3D3D;}
	.st82{fill:#1D1D1D;}
	.st83{fill:#777777;}
	.st84{fill:#606060;}
	.st85{fill:#6A6A6A;}
	.st86{fill:#373737;}
	.st87{fill:#AFAFAF;}
	.st88{fill:#575757;}
	.st89{fill:#727272;}
	.st90{fill:#717171;}
	.st91{fill:#737373;}
	.st92{fill:#F9F9F9;}
	.st93{fill:#ADADAD;}
	.st94{fill:#7E7E7E;}
	.st95{fill:#555555;}
	.st96{fill:#818181;}
	.st97{fill:#8B8B8B;}
	.st98{fill:#A8A8A8;}
	.st99{fill:#B9B9B9;}
	.st100{fill:#EBEBEB;}
	.st101{fill:#B6B6B6;}
	.st102{fill:#646464;}
	.st103{fill:#D6D6D6;}
	.st104{fill:#171717;}
	.st105{fill:#202020;}
	.st106{fill:#464646;}
	.st107{fill:#888888;}
	.st108{fill:#A6A6A6;}
	.st109{fill:#BEBEBE;}
	.st110{fill:#0C0C0C;}
	.st111{fill:#1A1A1A;}
	.st112{fill:#2E2E2E;}
	.st113{fill:#676767;}
	.st114{fill:#878787;}
	.st115{fill:#DBDBDB;}
	.st116{fill:#4F4F4F;}
	.st117{fill:#9C9C9C;}
	.st118{fill:#3B3B3B;}
	.st119{fill:#565656;}
	.st120{fill:#404040;}
	.st121{fill:#E6E6E6;}
	.st122{fill:#DFDFDF;}
	.st123{fill:#0E0E0E;}
	.st124{fill:#232323;}
	.st125{fill:#747474;}
	.st126{fill:#393939;}
	.st127{fill:#444444;}
	.st128{fill:#242424;}
	.st129{fill:#E7E7E7;}
	.st130{fill:#2B2B2B;}
	.st131{fill:#EF8F8F;}
	.st132{fill:#48B0D2;}
	.st133{fill:#F2F2F2;}
</style>
<g>
	<g>
		<path class="st133" d="M0.9,1.2h7.9c0.6,0,0.9,0.4,0.9,1v6.7c0,0.7-0.3,1.1-0.9,1.1H2.5c-0.1,0-0.2,0.1-0.2,0.2v11.2
			c0,0.4-0.2,0.6-0.6,0.6H0.6C0.2,22,0,21.8,0,21.4V2.2C0,1.5,0.3,1.2,0.9,1.2z M2.5,4.5h4.8c0.1,0,0.2-0.1,0.2-0.2V3.4
			c0-0.1-0.1-0.2-0.2-0.2H2.5c-0.1,0-0.2,0.1-0.2,0.2v0.9C2.3,4.5,2.4,4.5,2.5,4.5z M2.5,7.9h4.8c0.1,0,0.2-0.1,0.2-0.3V6.8
			c0-0.2-0.1-0.2-0.2-0.2H2.5c-0.1,0-0.2,0.1-0.2,0.2v0.8C2.3,7.8,2.4,7.9,2.5,7.9z M4.7,12h2l-0.2-0.3c-0.2-0.4-0.2-0.7,0.2-0.9
			l0.9-0.7c0.4-0.2,0.6-0.1,0.8,0.2L9.5,12h1.6l1.1-1.7c0.2-0.4,0.5-0.4,0.8-0.2l0.9,0.7c0.3,0.2,0.3,0.5,0.1,0.9L13.9,12H16
			c0.3,0,0.5,0.2,0.5,0.5v1c0,0.4-0.2,0.6-0.5,0.6h-4.3c-0.1,0-0.2,0-0.2,0.2v1.2c0,0.1,0.1,0.2,0.2,0.2h5.2c0.3,0,0.5,0.2,0.5,0.5
			v1c0,0.3-0.2,0.5-0.5,0.5h-4.5c0.9,0.9,2.2,1.4,4,1.7c0.4,0.1,0.5,0.4,0.3,0.8l-0.4,1.2c-0.3,0.2-0.5,0.3-0.8,0.2
			c-2.4-0.5-4-1.5-5.1-3c-1.1,1.5-2.8,2.5-5.2,3c-0.2,0.1-0.5,0-0.8-0.2L4,20.3c-0.1-0.4,0-0.7,0.3-0.8c1.8-0.3,3.1-0.9,4-1.7H3.8
			c-0.3,0-0.5-0.2-0.5-0.5v-1c0-0.3,0.1-0.5,0.5-0.5H9c0.2,0,0.2-0.1,0.2-0.2v-1.2c0-0.1-0.1-0.2-0.2-0.2H4.7
			c-0.3,0-0.5-0.2-0.5-0.6v-1C4.2,12.2,4.4,12,4.7,12z M17.4,21.5c-0.3-0.1-0.5-0.3-0.5-0.6l0.3-1.4c0.1-0.3,0.3-0.3,0.6-0.3
			l0.6,0.1c0.2,0,0.4-0.1,0.4-0.5v-8.7c0-0.1-0.1-0.2-0.2-0.2h-6.4c-0.6,0-0.9-0.4-0.9-1.1V2.2c0-0.7,0.3-1,0.9-1H20
			c0.6,0,0.9,0.4,0.9,1V20c0,0.6-0.1,1.1-0.3,1.5c-0.2,0.4-0.6,0.6-1.2,0.5C19.2,22,18.5,21.8,17.4,21.5z M13.7,4.5h4.8
			c0.1,0,0.2-0.1,0.2-0.2V3.4c0-0.1-0.1-0.2-0.2-0.2h-4.8c-0.1,0-0.2,0.1-0.2,0.2v0.9C13.5,4.5,13.5,4.5,13.7,4.5z M18.5,6.6h-4.8
			c-0.1,0-0.2,0.1-0.2,0.2v0.8c0,0.2,0.1,0.3,0.2,0.3h4.8c0.1,0,0.2-0.1,0.2-0.3V6.8C18.7,6.6,18.6,6.6,18.5,6.6z"/>
		<path class="st133" d="M25.8,4.2h2.7c0.1,0,0.1,0,0.1-0.1V0.9c0-0.4,0.2-0.5,0.5-0.5h1.3c0.4,0,0.5,0.2,0.5,0.5V4
			c0,0.1,0,0.1,0.1,0.1h1.6c0.3,0,0.5,0.2,0.5,0.6v1.2c0,0.3-0.2,0.5-0.5,0.5h-2.1c0,1.1-0.1,2.1-0.2,3.2h2.5c0.9,0,1.3,0.5,1.3,1.3
			c-0.1,3.2-0.5,6.4-1.2,9.4c-0.2,1.3-1,1.9-2.4,1.6l-1.8-0.5c-0.3-0.1-0.4-0.3-0.4-0.6l0.3-1c0.1-0.3,0.3-0.5,0.6-0.4l1.1,0.2
			c0.3,0.1,0.5,0,0.5-0.4c0.6-2.5,0.9-4.9,1-7.2c0-0.3-0.1-0.5-0.5-0.5H30c-0.5,3.3-1.5,6.5-2.9,9.6c-0.2,0.4-0.5,0.5-0.8,0.3
			L25.4,21c-0.4-0.2-0.5-0.4-0.3-0.7c1.9-4.5,3-9.1,3.1-13.8h-2.5c-0.4,0-0.6-0.2-0.6-0.5V4.7C25.2,4.3,25.4,4.2,25.8,4.2z M38.9,0
			H41c0.3,0,0.5,0.1,0.7,0.4c1.6,2,3.5,4.2,6,6.4c0.2,0.3,0.1,0.5-0.1,0.7l-0.9,1c-0.2,0.2-0.5,0.1-0.7-0.1
			c-2.3-2.2-4.3-4.3-5.9-6.4c-1.5,2.1-3.5,4.2-5.9,6.6c-0.3,0.2-0.5,0.3-0.7,0.1l-0.9-0.9c-0.3-0.2-0.3-0.5-0.1-0.7
			c2.5-2.4,4.4-4.6,5.9-6.7C38.4,0.1,38.6,0,38.9,0z M36.2,19.1c-0.3-0.2-0.4-0.4-0.3-0.8l0.5-1.1c0.2-0.3,0.4-0.4,0.7-0.3
			c2.3,1.2,4.8,2.1,7.6,2.7c0.4,0.1,0.5,0.3,0.4,0.7L45,21.6c-0.1,0.4-0.3,0.5-0.7,0.4C41.4,21.3,38.7,20.4,36.2,19.1z M37.6,10.3
			l0.3-1.1c0.1-0.3,0.4-0.5,0.8-0.4l5,1.6c0.3,0.1,0.4,0.4,0.3,0.8l-0.3,1.1c-0.1,0.3-0.4,0.4-0.7,0.4L37.9,11
			C37.6,10.9,37.5,10.7,37.6,10.3z"/>
	</g>
	<g>
		<path class="st133" d="M55.7,6.8c0.9,1.2,1.5,2.1,1.8,2.7h0.1c0.5-0.7,1.1-1.6,1.8-2.6l2.5-3.6h3.7l-6.1,8.7l6.4,9h-3.7l-2.8-3.9
			c-0.7-1-1.3-1.9-1.9-2.7h-0.1c-0.6,0.9-1.2,1.8-1.9,2.7l-2.8,3.9h-3.7l6.4-9l-6.1-8.7h3.7L55.7,6.8z"/>
		<path class="st133" d="M73.5,21.2c-0.7,0-1.3-0.1-1.9-0.4c-0.6-0.3-1-0.6-1.4-0.9h-0.1c0,0.2,0,0.4,0,0.7c0,0.3,0,0.7,0,1V27h-3.1
			V8.1h2.7L70,9.5H70c0.4-0.5,0.9-0.9,1.5-1.3c0.6-0.3,1.3-0.5,2.1-0.5c0.7,0,1.4,0.1,2,0.4c0.7,0.3,1.3,0.7,1.8,1.2
			c0.5,0.5,0.9,1.2,1.2,2c0.3,0.8,0.5,1.8,0.5,2.9c0,1.2-0.2,2.2-0.5,3.1c-0.3,0.9-0.8,1.6-1.3,2.1c-0.5,0.6-1.1,1-1.8,1.3
			C74.9,21,74.2,21.2,73.5,21.2z M73.1,10.2c-0.5,0-1.1,0.1-1.6,0.4c-0.5,0.3-0.9,0.6-1.3,1v5.7c0.1,0.2,0.3,0.3,0.5,0.4
			s0.4,0.3,0.6,0.4s0.5,0.2,0.8,0.3c0.3,0.1,0.6,0.1,0.9,0.1c0.5,0,0.9-0.1,1.3-0.3c0.4-0.2,0.7-0.5,0.9-0.9
			c0.3-0.4,0.4-0.8,0.6-1.4c0.1-0.5,0.2-1.1,0.2-1.7c0-0.7-0.1-1.3-0.2-1.8c-0.1-0.5-0.3-0.9-0.6-1.3c-0.3-0.3-0.6-0.6-0.9-0.8
			S73.5,10.2,73.1,10.2z"/>
		<path class="st133" d="M88.8,19.5L88.8,19.5c-0.2,0.2-0.4,0.4-0.7,0.6s-0.5,0.4-0.8,0.5c-0.3,0.2-0.7,0.3-1.1,0.4
			s-0.8,0.2-1.3,0.2c-0.6,0-1.2-0.1-1.7-0.3c-0.5-0.2-1-0.5-1.4-0.8c-0.4-0.4-0.7-0.8-0.9-1.3c-0.2-0.5-0.3-1.1-0.3-1.7
			c0-0.7,0.1-1.3,0.4-1.8c0.3-0.5,0.6-1,1-1.4s1-0.7,1.6-0.9c0.6-0.2,1.3-0.3,2.1-0.3c0.6,0,1.1,0,1.5,0.1s0.9,0.2,1.2,0.3v-0.5
			c0-0.3-0.1-0.6-0.2-0.9c-0.1-0.3-0.3-0.5-0.5-0.7c-0.2-0.2-0.5-0.4-0.9-0.5c-0.4-0.1-0.8-0.2-1.3-0.2c-0.6,0-1.3,0.1-1.9,0.2
			c-0.6,0.1-1.3,0.4-2.1,0.6V8.6c0.6-0.3,1.3-0.5,2-0.6s1.5-0.2,2.3-0.2c0.9,0,1.7,0.1,2.4,0.3c0.7,0.2,1.3,0.5,1.8,0.9
			c0.5,0.4,0.8,0.9,1.1,1.4c0.2,0.5,0.3,1.1,0.3,1.8V17c0,0.8,0,1.6,0,2.2c0,0.6,0,1.1,0.1,1.6h-2.8L88.8,19.5z M88.5,15.4
			c-0.3-0.1-0.6-0.1-1-0.2c-0.4-0.1-0.8-0.1-1.2-0.1c-0.8,0-1.4,0.2-1.8,0.5c-0.4,0.3-0.7,0.8-0.7,1.4c0,0.3,0,0.5,0.2,0.8
			c0.1,0.2,0.2,0.4,0.4,0.5c0.2,0.1,0.4,0.2,0.6,0.3s0.5,0.1,0.7,0.1c0.3,0,0.6,0,0.9-0.1c0.3-0.1,0.5-0.2,0.8-0.3
			c0.2-0.1,0.5-0.3,0.6-0.4c0.2-0.2,0.3-0.3,0.5-0.5V15.4z"/>
		<path class="st133" d="M102.1,10.5h-0.3c-1,0-1.8,0.1-2.5,0.4c-0.7,0.3-1.3,0.7-1.7,1.3v8.6h-3.1V8.1h2.6l0.3,1.8h0.1
			c0.4-0.7,0.9-1.2,1.5-1.5c0.6-0.4,1.4-0.6,2.3-0.6c0.3,0,0.6,0,0.8,0.1V10.5z"/>
		<path class="st133" d="M103.4,1.7h3.1v11.5h0.1l4.9-5.2h3.9l-5.6,6l5.6,6.8h-3.8l-5-5.9h-0.1v5.9h-3.1V1.7z"/>
	</g>
</g>
</svg>
