<?xml version="1.0" encoding="utf-8"?>
<!-- Generator: Adobe Illustrator 22.0.1, SVG Export Plug-In . SVG Version: 6.00 Build 0)  -->
<svg version="1.1" id="圖層_1" xmlns="http://www.w3.org/2000/svg" xmlns:xlink="http://www.w3.org/1999/xlink" x="0px" y="0px"
	 viewBox="0 0 99.4 21.8" style="enable-background:new 0 0 99.4 21.8;" xml:space="preserve">
<style type="text/css">
	.st0{fill:#FFE5C2;}
	.st1{fill:#FFFFFF;}
	.st2{fill:#333333;}
	.st3{fill:#ABABAB;}
	.st4{fill:#9A9A9A;}
	.st5{fill:#4B4B4B;}
	.st6{fill:#515151;}
	.st7{fill:#989898;}
	.st8{fill:#585858;}
	.st9{fill:#797979;}
	.st10{fill:#6E6E6E;}
	.st11{fill:#8E8E8E;}
	.st12{fill:#BABABA;}
	.st13{fill:#7F7F7F;}
	.st14{fill:#949494;}
	.st15{fill:#AEAEAE;}
	.st16{fill:#C5C5C5;}
	.st17{fill:#7C7C7C;}
	.st18{fill:#919191;}
	.st19{fill:#A2A2A2;}
	.st20{fill:#A7A7A7;}
	.st21{fill:#8C8C8C;}
	.st22{fill:#8D8D8D;}
	.st23{fill:#6C6C6C;}
	.st24{fill:#5F5F5F;}
	.st25{fill:#616161;}
	.st26{fill:#9B9B9B;}
	.st27{fill:#D1D1D1;}
	.st28{fill:#A9A9A9;}
	.st29{fill:#848484;}
	.st30{fill:#5E5E5E;}
	.st31{fill:#4D4D4D;}
	.st32{fill:#7B7B7B;}
	.st33{fill:#262626;}
	.st34{fill:#5D5D5D;}
	.st35{fill:#FBFBFB;}
	.st36{fill:#696969;}
	.st37{fill:#6B6B6B;}
	.st38{fill:#0F0F0F;}
	.st39{fill:#5B5B5B;}
	.st40{fill:#353535;}
	.st41{fill:#272727;}
	.st42{fill:#383838;}
	.st43{fill:#A0A0A0;}
	.st44{fill:#CFCFCF;}
	.st45{fill:#B3B3B3;}
	.st46{fill:#D0D0D0;}
	.st47{fill:#636363;}
	.st48{fill:#E5E5E5;}
	.st49{fill:#343434;}
	.st50{fill:#545454;}
	.st51{fill:#525252;}
	.st52{fill:#B4B4B4;}
	.st53{fill:#D5D5D5;}
	.st54{fill:#707070;}
	.st55{fill:#F1F1F1;}
	.st56{fill:#767676;}
	.st57{fill:#E2E2E2;}
	.st58{fill:#AAAAAA;}
	.st59{fill:#4C4C4C;}
	.st60{fill:#7A7A7A;}
	.st61{fill:#A3A3A3;}
	.st62{fill:#C2C2C2;}
	.st63{fill:#808080;}
	.st64{fill:#9E9E9E;}
	.st65{fill:#2D2D2D;}
	.st66{fill:#787878;}
	.st67{fill:#8F8F8F;}
	.st68{fill:#5C5C5C;}
	.st69{fill:#303030;}
	.st70{fill:#8A8A8A;}
	.st71{fill:#E3E3E3;}
	.st72{fill:#9F9F9F;}
	.st73{fill:#898989;}
	.st74{fill:#B7B7B7;}
	.st75{fill:#6F6F6F;}
	.st76{fill:#999999;}
	.st77{fill:#6D6D6D;}
	.st78{fill:#909090;}
	.st79{fill:#BFBFBF;}
	.st80{fill:#B2B2B2;}
	.st81{fill:#3D3D3D;}
	.st82{fill:#1D1D1D;}
	.st83{fill:#777777;}
	.st84{fill:#606060;}
	.st85{fill:#6A6A6A;}
	.st86{fill:#373737;}
	.st87{fill:#AFAFAF;}
	.st88{fill:#575757;}
	.st89{fill:#727272;}
	.st90{fill:#717171;}
	.st91{fill:#737373;}
	.st92{fill:#F9F9F9;}
	.st93{fill:#ADADAD;}
	.st94{fill:#7E7E7E;}
	.st95{fill:#555555;}
	.st96{fill:#818181;}
	.st97{fill:#8B8B8B;}
	.st98{fill:#A8A8A8;}
	.st99{fill:#B9B9B9;}
	.st100{fill:#EBEBEB;}
	.st101{fill:#B6B6B6;}
	.st102{fill:#646464;}
	.st103{fill:#D6D6D6;}
	.st104{fill:#171717;}
	.st105{fill:#202020;}
	.st106{fill:#464646;}
	.st107{fill:#888888;}
	.st108{fill:#A6A6A6;}
	.st109{fill:#BEBEBE;}
	.st110{fill:#0C0C0C;}
	.st111{fill:#1A1A1A;}
	.st112{fill:#2E2E2E;}
	.st113{fill:#676767;}
	.st114{fill:#878787;}
	.st115{fill:#DBDBDB;}
	.st116{fill:#4F4F4F;}
	.st117{fill:#9C9C9C;}
	.st118{fill:#3B3B3B;}
	.st119{fill:#565656;}
	.st120{fill:#404040;}
	.st121{fill:#E6E6E6;}
	.st122{fill:#DFDFDF;}
	.st123{fill:#0E0E0E;}
	.st124{fill:#232323;}
	.st125{fill:#747474;}
	.st126{fill:#393939;}
	.st127{fill:#444444;}
	.st128{fill:#242424;}
	.st129{fill:#E7E7E7;}
	.st130{fill:#2B2B2B;}
	.st131{fill:#EF8F8F;}
	.st132{fill:#48B0D2;}
	.st133{fill:#F2F2F2;}
</style>
<g>
	<path class="st133" d="M0.7,20.5l-0.1-1c0-0.4,0.1-0.6,0.5-0.6c0.3,0,0.6,0,0.9-0.1v-6.8c0-0.1-0.1-0.2-0.2-0.2H0.5
		c-0.4,0-0.5-0.2-0.5-0.6v-0.9c0-0.4,0.2-0.6,0.5-0.6h21c0.4,0,0.6,0.2,0.6,0.6v0.9c0,0.4-0.2,0.6-0.6,0.6H11.1
		c-0.1,0-0.1,0.1-0.1,0.2v9.2c0,0.5-0.2,0.7-0.6,0.7H9.4c-0.4,0-0.6-0.2-0.6-0.7v-1c-1.6,0.3-2.8,0.5-3.8,0.6
		c-1,0.1-2.3,0.2-3.6,0.3C1,21,0.8,20.9,0.7,20.5z M1.8,7.6V2.3c0-0.9,0.4-1.4,1.3-1.4h15.8c0.9,0,1.4,0.5,1.4,1.4v5.2
		c0,0.9-0.5,1.4-1.4,1.4H3.1C2.2,8.9,1.8,8.5,1.8,7.6z M17.8,3.1H4.3c-0.2,0-0.4,0.1-0.4,0.4v0.1c0,0.2,0.1,0.2,0.2,0.2H18
		c0.1,0,0.2-0.1,0.2-0.2V3.5C18.2,3.2,18,3.1,17.8,3.1z M18.2,6.4V6.1c0-0.1-0.1-0.2-0.2-0.2H4.1C4,5.9,3.9,6,3.9,6.1v0.2
		c0,0.3,0.1,0.5,0.4,0.5h13.5C18,6.8,18.2,6.7,18.2,6.4z M4.2,11.9v0.4c0,0.2,0.1,0.2,0.2,0.2h4.2c0.1,0,0.2-0.1,0.2-0.2v-0.4
		c0-0.1-0.1-0.2-0.2-0.2H4.4C4.3,11.7,4.2,11.8,4.2,11.9z M4.2,14.7v0.4c0,0.1,0.1,0.2,0.2,0.2h4.2c0.1,0,0.2-0.1,0.2-0.2v-0.4
		c0-0.2-0.1-0.3-0.2-0.3H4.4C4.3,14.4,4.2,14.5,4.2,14.7z M8.8,17.9v-0.5c0-0.2-0.1-0.2-0.2-0.2H4.4c-0.1,0-0.2,0.1-0.2,0.2v1.2
		c0.2,0,0.4,0,0.6-0.1C5.8,18.4,7.1,18.2,8.8,17.9z M11.2,13.8v-0.9c0-0.4,0.2-0.6,0.5-0.6h7.9c0.5,0,0.9,0.4,1.3,1.1
		c0.4,0.7,0.4,1.3,0.2,1.7c-0.9,1.1-1.8,2.1-2.8,3c1,0.6,2.1,1.2,3.2,1.8c0.2,0.2,0.2,0.5,0,0.8L21,21.6c-0.2,0.2-0.4,0.3-0.7,0.1
		c-1.3-0.6-2.6-1.3-3.8-2.1c-1.1,0.8-2.3,1.5-3.6,2.1c-0.3,0.2-0.6,0.2-0.9,0l-0.7-0.9c-0.2-0.3-0.2-0.5,0-0.8
		c1.2-0.6,2.3-1.2,3.2-1.8c-0.8-0.7-1.6-1.4-2.4-2.2c-0.1-0.3-0.1-0.6,0.1-0.8l0.9-0.7h-1.5C11.4,14.4,11.2,14.2,11.2,13.8z
		 M18.3,14.4h-4.5l0.1,0c0.8,0.8,1.7,1.6,2.6,2.3c0.8-0.6,1.4-1.3,2-2C18.6,14.6,18.6,14.4,18.3,14.4z"/>
	<path class="st133" d="M27.1,1.9H30c0.1,0,0.2-0.1,0.2-0.2V0.8c0-0.5,0.2-0.7,0.5-0.7h1c0.4,0,0.6,0.2,0.6,0.7v0.9
		c0,0.1,0.1,0.2,0.2,0.2h2.9c0.4,0,0.6,0.2,0.6,0.6v1c0,0.4-0.2,0.6-0.6,0.6h-0.4c-0.1,1.2-0.3,2.4-0.4,3.5h1.2
		c0.4,0,0.6,0.2,0.6,0.6v1c0,0.4-0.2,0.6-0.6,0.6h-3.3c-0.1,0-0.2,0.1-0.2,0.2v1.1c0,0.1,0.1,0.2,0.2,0.2h3c0.4,0,0.6,0.2,0.6,0.6v1
		c0,0.5-0.2,0.7-0.6,0.7H33c1,1.1,1.8,1.9,2.4,2.4c0.2,0.3,0.3,0.5,0.1,0.8l-0.8,1c-0.3,0.1-0.5,0.1-0.7,0c-0.4-0.4-1-1-1.7-1.8v4.8
		c0,0.5-0.2,0.7-0.6,0.7h-1c-0.4,0-0.5-0.2-0.5-0.7v-4.6c-1,1.3-1.9,2.3-2.8,3.1c-0.2,0.3-0.5,0.3-0.6,0.2l-1-1
		c-0.1-0.3,0-0.5,0.1-0.7c1.2-1.2,2.4-2.6,3.6-4.2H27c-0.4,0-0.6-0.2-0.6-0.7v-1c0-0.4,0.2-0.6,0.6-0.6H30c0.1,0,0.2-0.1,0.2-0.2
		v-1.1c0-0.2-0.1-0.2-0.2-0.2h-3.3c-0.4,0-0.5-0.2-0.5-0.6v-1c0-0.4,0.2-0.6,0.5-0.6h1.3c-0.1-1.1-0.2-2.3-0.3-3.5h-0.7
		c-0.4,0-0.6-0.2-0.6-0.6v-1C26.5,2.1,26.7,1.9,27.1,1.9z M29.7,4.2c0,1.2,0.1,2.4,0.2,3.5h2.6c0.2-1.1,0.3-2.3,0.4-3.5H29.7z
		 M38.8,15.8c-0.5,1.8-0.9,3.2-1.4,4.1c-0.1,0.2-0.3,0.3-0.6,0.2l-1.1-0.5c-0.2-0.2-0.3-0.5-0.1-0.8c0.7-1.8,1.3-3.6,1.5-5.1
		c0.2-1.6,0.4-3.1,0.3-4.7V3.7c0-0.8,0.4-1.3,1-1.4c3.2-0.6,5.7-1.3,7.6-2.1c0.3-0.1,0.5,0,0.6,0.3l0.4,1.3c0,0.3-0.1,0.5-0.4,0.6
		C45,3,43.6,3.5,42.4,3.8c-1.2,0.2-1.9,0.4-2.3,0.5c-0.4,0.1-0.6,0.3-0.6,0.6v2.6c0,0.1,0.1,0.2,0.2,0.2h7.5c0.4,0,0.6,0.2,0.6,0.6
		v1c0,0.4-0.2,0.6-0.6,0.6h-2.4c-0.1,0-0.2,0.1-0.2,0.2v10.9c0,0.5-0.2,0.7-0.6,0.7h-1c-0.4,0-0.6-0.2-0.6-0.7V10.2
		c0-0.2-0.1-0.2-0.2-0.2h-2.8v0.1C39.6,12.1,39.3,14,38.8,15.8z"/>
	<path class="st133" d="M51.4,8.1l0.3-1.2c0.1-0.4,0.4-0.5,0.8-0.4l3.9,1.3c0.3,0.1,0.5,0.3,0.3,0.8l-0.4,1.1
		C56.2,9.9,56,10,55.6,9.9l-3.8-1.1C51.4,8.7,51.3,8.4,51.4,8.1z M55.5,12.6c0.2-0.3,0.5-0.4,0.8-0.3l1.2,0.6
		c0.3,0.2,0.3,0.5,0.2,0.8l-3.7,7.8c-0.3,0.3-0.6,0.4-0.9,0.2L51.7,21c-0.3-0.2-0.4-0.5-0.2-0.8L55.5,12.6z M52.2,1.5l0.6-1
		c0.2-0.3,0.4-0.4,0.8-0.2l4,2.3C58,2.8,58.1,3,57.9,3.4l-0.6,0.9c-0.2,0.3-0.4,0.4-0.8,0.3l-4.1-2.2C52.1,2.2,52.1,1.9,52.2,1.5z
		 M62.5,4.6c0.2,0.3,0.1,0.5-0.2,0.7l-1.1,0.6C60.8,6,60.6,6,60.4,5.7l-1.8-3.4c-0.2-0.3-0.1-0.6,0.3-0.7L60,1
		c0.3-0.1,0.6-0.1,0.7,0.2L62.5,4.6z M59.6,7.4C59.9,7.1,60.1,7,60.5,7h4c0.1,0,0.1,0,0.1-0.1V0.7c0-0.4,0.2-0.5,0.6-0.5h1.3
		c0.4,0,0.5,0.2,0.5,0.5v6.2c0,0.1,0,0.1,0.1,0.1h4.4c0.4,0,0.6,0.1,0.9,0.4S73,8,73,8.3v12.4c0,0.3-0.1,0.6-0.3,0.8
		c-0.2,0.2-0.5,0.3-0.8,0.3c-0.3,0-1.2-0.1-2.7-0.4c-0.3-0.1-0.5-0.3-0.4-0.6l0.1-1c0.1-0.3,0.3-0.4,0.6-0.4l0.8,0.1
		c0.3,0,0.5-0.1,0.5-0.4v-1.8c0-0.1,0-0.1-0.1-0.1h-8.8c-0.1,0-0.1,0-0.1,0.1v4c0,0.3-0.2,0.5-0.5,0.5h-1.3c-0.4,0-0.5-0.2-0.5-0.5
		v-13C59.2,8,59.3,7.7,59.6,7.4z M70.1,9.1h-7.9c-0.4,0-0.6,0.2-0.6,0.6V11c0,0.1,0,0.1,0.1,0.1h8.8c0.1,0,0.1,0,0.1-0.1V9.7
		C70.6,9.3,70.4,9.1,70.1,9.1z M70.5,13.3h-8.8c-0.1,0-0.1,0-0.1,0.1V15c0,0.1,0,0.1,0.1,0.1h8.8c0.1,0,0.1,0,0.1-0.1v-1.6
		C70.6,13.3,70.6,13.3,70.5,13.3z M71.7,1l1.1,0.6c0.3,0.2,0.4,0.4,0.3,0.7l-1.8,3.4C71.1,6,70.9,6,70.5,5.9l-1.1-0.6
		c-0.3-0.2-0.4-0.4-0.2-0.7L71,1.2C71.1,0.9,71.4,0.9,71.7,1z"/>
	<path class="st133" d="M77.8,20.3c-0.3-0.3-0.3-0.6-0.1-0.9c0.3-0.7,0.6-1.3,0.9-2c0.3-0.6,0.6-1.4,0.9-2.3
		c0.1-0.2,0.4-0.3,0.8-0.3l1,0.4c0.3,0.2,0.4,0.5,0.3,0.8c-0.3,0.9-0.6,1.8-0.9,2.4c-0.3,0.7-0.6,1.4-1,2.1
		c-0.2,0.3-0.4,0.4-0.8,0.4L77.8,20.3z M79.9,11.9V3.6c0-1.2,0.5-1.8,1.6-1.8h4.9L87,0.4c0.1-0.4,0.4-0.5,0.7-0.3l1,0.4
		C89.1,0.7,89.2,1,89,1.4l-0.1,0.4h6.5c1.1,0,1.6,0.6,1.6,1.8v8.3c0,1.2-0.5,1.8-1.6,1.8H81.5C80.4,13.8,79.9,13.1,79.9,11.9z
		 M82,4.7L82,4.7C82,4.9,82.1,5,82.2,5h12.4c0.1,0,0.2-0.1,0.2-0.2V4.7c0-0.5-0.2-0.7-0.6-0.7H82.6C82.2,4,82,4.3,82,4.7z M82,7.6V8
		c0,0.2,0.1,0.3,0.2,0.3h12.4c0.1,0,0.2-0.1,0.2-0.3V7.6c0-0.2-0.1-0.2-0.2-0.2H82.2C82.1,7.3,82,7.4,82,7.6z M82.6,11.5h11.7
		c0.4,0,0.6-0.2,0.6-0.6v0c0-0.2-0.1-0.2-0.2-0.2H82.2c-0.2,0-0.2,0.1-0.2,0.2v0C82,11.3,82.2,11.5,82.6,11.5z M82.5,19.5v-4.3
		c0-0.5,0.2-0.7,0.5-0.7h1.2c0.4,0,0.5,0.2,0.5,0.7v3.3c0,0.6,0.2,0.9,0.6,0.9h5.7c0.5,0,0.8-0.1,1-0.4l0.8-2.2
		c0.1-0.3,0.3-0.5,0.7-0.4l1.3,0.5c0.3,0.2,0.4,0.5,0.3,0.9c-0.4,1.2-0.7,2.3-1.1,3c-0.3,0.6-0.9,1-1.6,1h-7.9
		C83.1,21.6,82.4,20.9,82.5,19.5z M86.5,16.1c-0.2-0.2-0.2-0.5-0.2-0.9l0.6-0.9c0.2-0.2,0.5-0.3,0.8-0.1c0.8,0.5,1.7,1.1,2.7,1.9
		c0.4,0.2,0.5,0.5,0.3,0.8l-0.6,0.9c-0.2,0.2-0.5,0.3-0.8,0.1C88.3,17.2,87.4,16.6,86.5,16.1z M96.3,18.7c-0.4-0.7-0.7-1.4-1.2-2.1
		c-0.1-0.4,0-0.7,0.3-1l0.9-0.6c0.3-0.1,0.6,0,0.9,0.4c0.4,0.6,0.8,1.3,1.2,2.1c0.4,0.8,0.7,1.5,0.9,2.1c0.3,0.4,0.2,0.7-0.2,1
		l-0.9,0.6c-0.3,0.2-0.6,0-0.9-0.3C97,20,96.7,19.3,96.3,18.7z"/>
</g>
</svg>
