<?xml version="1.0" encoding="utf-8"?>
<!-- Generator: Adobe Illustrator 22.0.1, SVG Export Plug-In . SVG Version: 6.00 Build 0)  -->
<svg version="1.1" id="圖層_1" xmlns="http://www.w3.org/2000/svg" xmlns:xlink="http://www.w3.org/1999/xlink" x="0px" y="0px"
	 viewBox="0 0 99.5 21.8" style="enable-background:new 0 0 99.5 21.8;" xml:space="preserve">
<style type="text/css">
	.st0{fill:#FFE5C2;}
	.st1{fill:#FFFFFF;}
	.st2{fill:#333333;}
	.st3{fill:#ABABAB;}
	.st4{fill:#9A9A9A;}
	.st5{fill:#4B4B4B;}
	.st6{fill:#515151;}
	.st7{fill:#989898;}
	.st8{fill:#585858;}
	.st9{fill:#797979;}
	.st10{fill:#6E6E6E;}
	.st11{fill:#8E8E8E;}
	.st12{fill:#BABABA;}
	.st13{fill:#7F7F7F;}
	.st14{fill:#949494;}
	.st15{fill:#AEAEAE;}
	.st16{fill:#C5C5C5;}
	.st17{fill:#7C7C7C;}
	.st18{fill:#919191;}
	.st19{fill:#A2A2A2;}
	.st20{fill:#A7A7A7;}
	.st21{fill:#8C8C8C;}
	.st22{fill:#8D8D8D;}
	.st23{fill:#6C6C6C;}
	.st24{fill:#5F5F5F;}
	.st25{fill:#616161;}
	.st26{fill:#9B9B9B;}
	.st27{fill:#D1D1D1;}
	.st28{fill:#A9A9A9;}
	.st29{fill:#848484;}
	.st30{fill:#5E5E5E;}
	.st31{fill:#4D4D4D;}
	.st32{fill:#7B7B7B;}
	.st33{fill:#262626;}
	.st34{fill:#5D5D5D;}
	.st35{fill:#FBFBFB;}
	.st36{fill:#696969;}
	.st37{fill:#6B6B6B;}
	.st38{fill:#0F0F0F;}
	.st39{fill:#5B5B5B;}
	.st40{fill:#353535;}
	.st41{fill:#272727;}
	.st42{fill:#383838;}
	.st43{fill:#A0A0A0;}
	.st44{fill:#CFCFCF;}
	.st45{fill:#B3B3B3;}
	.st46{fill:#D0D0D0;}
	.st47{fill:#636363;}
	.st48{fill:#E5E5E5;}
	.st49{fill:#343434;}
	.st50{fill:#545454;}
	.st51{fill:#525252;}
	.st52{fill:#B4B4B4;}
	.st53{fill:#D5D5D5;}
	.st54{fill:#707070;}
	.st55{fill:#F1F1F1;}
	.st56{fill:#767676;}
	.st57{fill:#E2E2E2;}
	.st58{fill:#AAAAAA;}
	.st59{fill:#4C4C4C;}
	.st60{fill:#7A7A7A;}
	.st61{fill:#A3A3A3;}
	.st62{fill:#C2C2C2;}
	.st63{fill:#808080;}
	.st64{fill:#9E9E9E;}
	.st65{fill:#2D2D2D;}
	.st66{fill:#787878;}
	.st67{fill:#8F8F8F;}
	.st68{fill:#5C5C5C;}
	.st69{fill:#303030;}
	.st70{fill:#8A8A8A;}
	.st71{fill:#E3E3E3;}
	.st72{fill:#9F9F9F;}
	.st73{fill:#898989;}
	.st74{fill:#B7B7B7;}
	.st75{fill:#6F6F6F;}
	.st76{fill:#999999;}
	.st77{fill:#6D6D6D;}
	.st78{fill:#909090;}
	.st79{fill:#BFBFBF;}
	.st80{fill:#B2B2B2;}
	.st81{fill:#3D3D3D;}
	.st82{fill:#1D1D1D;}
	.st83{fill:#777777;}
	.st84{fill:#606060;}
	.st85{fill:#6A6A6A;}
	.st86{fill:#373737;}
	.st87{fill:#AFAFAF;}
	.st88{fill:#575757;}
	.st89{fill:#727272;}
	.st90{fill:#717171;}
	.st91{fill:#737373;}
	.st92{fill:#F9F9F9;}
	.st93{fill:#ADADAD;}
	.st94{fill:#7E7E7E;}
	.st95{fill:#555555;}
	.st96{fill:#818181;}
	.st97{fill:#8B8B8B;}
	.st98{fill:#A8A8A8;}
	.st99{fill:#B9B9B9;}
	.st100{fill:#EBEBEB;}
	.st101{fill:#B6B6B6;}
	.st102{fill:#646464;}
	.st103{fill:#D6D6D6;}
	.st104{fill:#171717;}
	.st105{fill:#202020;}
	.st106{fill:#464646;}
	.st107{fill:#888888;}
	.st108{fill:#A6A6A6;}
	.st109{fill:#BEBEBE;}
	.st110{fill:#0C0C0C;}
	.st111{fill:#1A1A1A;}
	.st112{fill:#2E2E2E;}
	.st113{fill:#676767;}
	.st114{fill:#878787;}
	.st115{fill:#DBDBDB;}
	.st116{fill:#4F4F4F;}
	.st117{fill:#9C9C9C;}
	.st118{fill:#3B3B3B;}
	.st119{fill:#565656;}
	.st120{fill:#404040;}
	.st121{fill:#E6E6E6;}
	.st122{fill:#DFDFDF;}
	.st123{fill:#0E0E0E;}
	.st124{fill:#232323;}
	.st125{fill:#747474;}
	.st126{fill:#393939;}
	.st127{fill:#444444;}
	.st128{fill:#242424;}
	.st129{fill:#E7E7E7;}
	.st130{fill:#2B2B2B;}
	.st131{fill:#EF8F8F;}
	.st132{fill:#48B0D2;}
	.st133{fill:#F2F2F2;}
</style>
<g>
	<path class="st133" d="M5.9,0.2c0.4,0,0.7,0.1,1,0.3c1.4,1.7,2.8,3.1,4,4.3c0.3,0.3,0.3,0.7,0.1,1l-0.6,0.6C10,6.8,9.7,6.8,9.6,6.6
		c-1.1-1-2.3-2.3-3.6-3.9C4.6,4.4,3.1,6.1,1.6,7.6C1.3,7.8,1,7.8,0.7,7.6L0.2,7c-0.3-0.3-0.3-0.6,0-0.9C2,4.2,3.6,2.4,5,0.6
		C5.2,0.3,5.5,0.2,5.9,0.2z M1.9,19.7l0.5-0.2V7.9c0-0.7,0.3-1,0.9-1h1.3c0.1,0,0.2-0.1,0.2-0.2V5.5c0-0.4,0.2-0.6,0.6-0.6h1
		C6.8,4.8,7,5,7,5.5v1.2c0,0.2,0.1,0.2,0.3,0.2h1.6c0.6,0,0.9,0.3,0.9,1V14c0,0.7-0.3,1-0.9,1H4.7c-0.1,0-0.2,0.1-0.2,0.2v3.6
		l1.9-0.6L6.2,18c-0.3-0.3-0.3-0.6,0-0.9l0.5-0.5c0.3-0.3,0.6-0.3,0.8,0l3,3.4c0.2,0.3,0.2,0.6,0,0.9L10,21.3
		c-0.3,0.3-0.5,0.3-0.8,0L8,20l-5.5,1.8c-0.4,0.1-0.6,0-0.7-0.4l-0.2-0.8C1.4,20.1,1.6,19.8,1.9,19.7z M4.7,10.1h2.8
		c0.1,0,0.2-0.1,0.2-0.2V9.2c0-0.1-0.1-0.2-0.2-0.2H4.7C4.6,8.9,4.6,9,4.6,9.2v0.7C4.6,10,4.6,10.1,4.7,10.1z M4.7,12.9h2.8
		c0.1,0,0.2,0,0.2-0.2V12c0-0.1-0.1-0.2-0.2-0.2H4.7c-0.1,0-0.2,0.1-0.2,0.2v0.7C4.6,12.9,4.6,12.9,4.7,12.9z M17.9,0.7v2.2
		c0,0.1,0.1,0.2,0.2,0.2h3.1c0.6,0,0.9,0.4,0.9,1.1v2c0,0.5-0.2,0.7-0.6,0.7h-1c-0.4,0-0.6-0.2-0.6-0.7V5.9c0-0.5-0.2-0.7-0.6-0.7
		H14c-0.4,0-0.6,0.2-0.6,0.7v0.3c0,0.5-0.2,0.7-0.6,0.7h-1c-0.3,0-0.5-0.2-0.5-0.7v-2c0-0.7,0.3-1.1,0.9-1.1h3.3
		c0.1,0,0.2-0.1,0.2-0.2V0.7c0-0.4,0.2-0.6,0.6-0.6h1C17.7,0.1,17.9,0.3,17.9,0.7z M12.9,20.5V7.9c0-0.7,0.3-1,0.9-1h5.8
		c0.6,0,0.9,0.3,0.9,1v4.4c0,0.7-0.3,1.1-0.9,1.1h-4.4c-0.1,0-0.2,0.1-0.2,0.2v1.2c0,0.1,0.1,0.2,0.2,0.2h5.4c0.6,0,0.9,0.4,0.9,1.1
		v4.5c0,0.7-0.3,1.1-0.9,1.1h-6.7C13.2,21.6,12.9,21.2,12.9,20.5z M15.2,11.3h3.1c0.1,0,0.2-0.1,0.2-0.2V9.2c0-0.1-0.1-0.2-0.2-0.2
		h-3.1C15,8.9,15,9,15,9.2v1.9C15,11.2,15,11.3,15.2,11.3z M15.2,19.5h3.9c0.1,0,0.2-0.1,0.2-0.3v-1.9c0-0.2-0.1-0.3-0.2-0.3h-3.9
		c-0.1,0-0.2,0.1-0.2,0.3v1.9C15,19.4,15,19.5,15.2,19.5z"/>
	<path class="st133" d="M28.2,3.7h7.6c0.1,0,0.1,0,0.1-0.1V0.7c0-0.4,0.2-0.6,0.6-0.6h1.2c0.3,0,0.5,0.2,0.4,0.6v2.9
		c0,0.1,0,0.1,0.1,0.1h7.3c1.1,0,1.6,0.6,1.6,1.8v14.2c0,0.6-0.1,1.1-0.3,1.5c-0.2,0.4-0.6,0.6-1.2,0.6c-0.3,0-1.2-0.3-2.8-0.8
		c-0.3-0.1-0.5-0.3-0.5-0.6l0.3-1.4c0.1-0.3,0.3-0.4,0.6-0.3l1.2,0.2c0.3,0,0.4-0.2,0.4-0.5V7.2c0-0.7-0.3-1.1-0.9-1.1h-6.2
		c0,0.9-0.1,1.8-0.3,2.5c2.5,1.7,4.5,3.6,6.1,5.9c0.2,0.4,0.1,0.6-0.1,0.9l-1,0.9c-0.3,0.2-0.6,0.1-0.8-0.2c-1.2-1.8-2.9-3.5-4.9-5
		c-1,2.4-2.8,4.2-5.3,5.4c-0.3,0.1-0.6,0-0.9-0.4l-0.6-1.1c-0.1-0.3,0-0.6,0.4-0.8c2.3-1.1,3.8-2.6,4.5-4.5c0.4-0.9,0.6-2,0.7-3.4
		h-6c-0.6,0-0.9,0.4-0.9,1.1v14c0,0.4-0.2,0.6-0.6,0.6h-1.1c-0.4,0-0.6-0.2-0.6-0.6V5.6C26.5,4.3,27.1,3.7,28.2,3.7z"/>
	<path class="st133" d="M52.1,8.7l-0.7-1.3c-0.1-0.3,0-0.6,0.3-0.7c3.6-1.9,6.9-4.1,10.1-6.4c0.6-0.4,1.2-0.4,1.9,0
		c3.1,2.3,6.4,4.5,9.9,6.4C73.9,6.8,74,7,74,7.4l-0.8,1.2C73,8.9,72.7,9,72.4,8.8C69,7,65.9,5,63.1,2.8c-0.2-0.1-0.4-0.1-0.6,0
		C59.5,5,56.3,7,53,8.9C52.6,9,52.3,9,52.1,8.7z M57.6,7.2h1.3c0.3,0,0.5,0.2,0.5,0.6v6.5c-0.2,3.3-1.2,5.8-3,7.5
		c-0.2,0.1-0.5,0.1-0.7,0l-1-1c-0.1-0.3-0.1-0.5,0.1-0.8c1.4-1.7,2.2-3.7,2.3-6.2v-6C57.1,7.4,57.2,7.2,57.6,7.2z M66.7,7.2h1.2
		c0.4,0,0.6,0.2,0.6,0.6v13.4c0,0.4-0.2,0.6-0.6,0.6h-1.2c-0.4,0-0.6-0.2-0.6-0.6V7.8C66.1,7.4,66.3,7.2,66.7,7.2z"/>
	<path class="st133" d="M80.9,21.1v-7.9L78.2,14c-0.2,0-0.4-0.2-0.5-0.5L77.6,12c0-0.3,0.1-0.5,0.4-0.6c0.6-0.1,1-0.5,1.4-1.2
		l1.1-1.5l-3-2.8c-0.2-0.2-0.2-0.6-0.1-1.2l0.7-1c0.2-0.2,0.4-0.2,0.6,0L79,3.9l2.4-3.4c0.2-0.5,0.6-0.6,0.9-0.4L83.2,1
		c0.1,0.4,0.1,0.7,0,0.8l-2.5,3.5l1.1,1.1l2.3-3.5c0.2-0.4,0.4-0.5,0.7-0.3l0.9,1c0.3,0.2,0.3,0.5,0,0.8l-3.6,5.5
		c-0.1,0.2-0.1,0.3,0.1,0.3l1.5-0.4l-0.2-0.9c0-0.2,0.1-0.4,0.2-0.6L85,7.9c0.2,0,0.3,0.2,0.3,0.5l0.6,2.4c0-0.2,0.1-0.5,0.3-0.7
		c1.4-0.5,2.4-1.3,3.1-2.5c0.7-1.2,1.1-2.4,1.3-3.8H87c-0.3,0-0.5-0.2-0.5-0.6V1.8c0-0.4,0.2-0.6,0.5-0.6h11.6c0.7,0,1,0.5,0.9,1.4
		c-0.2,3.8-0.8,6.7-1.7,8.8c-0.2,0.4-0.5,0.5-1,0.5c-0.8-0.2-1.8-0.5-3-0.9c-0.3-0.1-0.4-0.3-0.4-0.7L93.7,9
		c0.1-0.2,0.3-0.3,0.5-0.3l1.5,0.4c0.3,0,0.4-0.1,0.5-0.5c0.4-1.3,0.7-2.8,0.8-4.5c0-0.2-0.1-0.3-0.3-0.4h-3.8
		c-0.3,2.3-0.9,4.1-1.8,5.4c-0.9,1.3-1.9,2.3-3,2.9c0.1,0,0.1,0,0.2,0h9.8c0.6,0,0.9,0.4,0.9,1.1v7.2c0,0.8-0.3,1.2-0.9,1.2h-9.9
		c-0.6,0-0.9-0.4-0.9-1.2v-7.2c0.1-0.4,0.2-0.7,0.4-0.9l-0.5,0.2c-0.3,0.1-0.6,0-0.7-0.3L86,11l0.3,1.4c0,0.3-0.1,0.5-0.3,0.6
		l-1.3,0.4c-0.2-0.1-0.3-0.2-0.4-0.4l-0.1-0.6L83,12.7v8.4c0,0.5-0.1,0.7-0.5,0.7h-1.3C81,21.8,80.9,21.6,80.9,21.1z M77.6,20.6
		c-0.2-0.2-0.2-0.5-0.2-0.8l1.1-4.7c0-0.2,0.2-0.4,0.6-0.4l1.3,0.3c0.2,0.2,0.2,0.5,0.2,0.9l-1.1,4.7c-0.1,0.3-0.3,0.4-0.5,0.4
		L77.6,20.6z M84.4,18.8l-0.8-3.4c0-0.3,0-0.5,0.2-0.7l1.2-0.5c0.3,0,0.5,0.2,0.6,0.5l0.8,3.2c0,0.3,0,0.6-0.2,0.7l-1.3,0.5
		C84.7,19.2,84.5,19.1,84.4,18.8z M96.1,14.6h-6.1c-0.4,0-0.6,0.3-0.6,0.8v2.8c0,0.5,0.2,0.8,0.6,0.8h6.1c0.4,0,0.6-0.2,0.6-0.8
		v-2.8C96.7,14.9,96.5,14.6,96.1,14.6z"/>
</g>
</svg>
