<?xml version="1.0" encoding="utf-8"?>
<!-- Generator: Adobe Illustrator 22.0.1, SVG Export Plug-In . SVG Version: 6.00 Build 0)  -->
<svg version="1.1" xmlns="http://www.w3.org/2000/svg" xmlns:xlink="http://www.w3.org/1999/xlink" x="0px" y="0px"
	 viewBox="0 0 99.5 21.8" style="enable-background:new 0 0 99.5 21.8;" xml:space="preserve">
<style type="text/css">
	.st0{fill:#F2F2F2;}
	.st1{fill:#BFDEDC;}
	.st2{fill:#A6D8D0;}
	.st3{fill:#1A1A1A;}
	.st4{fill:#FFFFFF;}
	.st5{fill:#333333;}
	.st6{fill:none;stroke:#FFFFFF;stroke-width:3.0018;stroke-miterlimit:10;}
	.st7{fill:#232020;}
	.st8{fill:#898989;}
	.st9{fill:#8A8A8A;}
	.st10{fill:#EDEFEE;}
	.st11{fill:#FEFEFE;}
	.st12{fill:#8B8B8B;}
	.st13{fill:#ABA9AA;}
	.st14{fill:#21B8CE;}
	.st15{fill:#21B7CE;}
	.st16{fill:#ABAAAA;}
	.st17{fill:#21B7CD;}
	.st18{fill:#ACAAAB;}
	.st19{fill:#23B7CE;}
	.st20{fill:#23B8CE;}
	.st21{fill:#ACABAB;}
	.st22{fill:#271E1D;}
	.st23{fill:#B1B0B1;}
	.st24{fill:#ABABAB;}
	.st25{fill:#ACACAC;}
	.st26{fill:#221A18;}
	.st27{fill:#B2B1B2;}
	.st28{fill:#2E2523;}
	.st29{fill:#261D1C;}
	.st30{fill:#281F1E;}
	.st31{fill:#2C2726;}
	.st32{fill:#292221;}
	.st33{fill:#2D2523;}
	.st34{fill:#342C2B;}
	.st35{fill:#E4ECEE;}
	.st36{fill:#302726;}
	.st37{fill:#2A2322;}
	.st38{fill:#E0DDDB;}
	.st39{fill:#322928;}
	.st40{fill:#312927;}
	.st41{fill:#281F1D;}
	.st42{fill:#403A38;}
	.st43{fill:#AEAEAE;}
	.st44{fill:#38302F;}
	.st45{fill:#E3EAEA;}
	.st46{fill:#E9EDEE;}
	.st47{fill:#E0DDDC;}
	.st48{fill:#322A29;}
	.st49{fill:#2A2222;}
	.st50{fill:#B3B3B3;}
	.st51{fill:#312928;}
	.st52{fill:#E7EDEC;}
	.st53{fill:#332D2B;}
	.st54{fill:#332D2C;}
	.st55{fill:#EAEEEE;}
	.st56{fill:#EBEEEE;}
	.st57{fill:#EAE8E6;}
	.st58{fill:#E9EDEC;}
	.st59{fill:#E6EDEF;}
	.st60{fill:#E3EBEF;}
	.st61{fill:#E2EBEC;}
	.st62{fill:#AEACAD;}
	.st63{fill:#E4ECEB;}
	.st64{fill:#ADABAC;}
	.st65{fill:#E7EDF1;}
	.st66{fill:#DAEAEC;}
	.st67{fill:#D9E7EB;}
	.st68{fill:#EAEEEC;}
	.st69{fill:#433D3B;}
	.st70{fill:#312A28;}
	.st71{fill:#EEECEA;}
	.st72{fill:#D4D0CE;}
	.st73{fill:#DFE9EF;}
	.st74{fill:#E4EAED;}
	.st75{fill:#E9EFF0;}
	.st76{fill:#E8EEF2;}
	.st77{fill:#E1EBEF;}
	.st78{fill:#96918F;}
	.st79{fill:#E9EDF4;}
	.st80{fill:#E3EAF0;}
	.st81{fill:#D5ECEF;}
	.st82{fill:#D0E4E8;}
	.st83{fill:#E0EBEE;}
	.st84{fill:#9DD8DD;}
	.st85{fill:#231919;}
	.st86{fill:#322A2A;}
	.st87{fill:#3A3734;}
	.st88{fill:#DAEAEF;}
	.st89{fill:#36BCCD;}
	.st90{fill:#CADEE7;}
	.st91{fill:#E3E3E0;}
	.st92{fill:#DCE7ED;}
	.st93{fill:#676362;}
	.st94{fill:#5C5757;}
	.st95{fill:#EAEDF1;}
	.st96{fill:#B2B1AE;}
	.st97{fill:#CCCCC8;}
	.st98{fill:#322E2D;}
	.st99{fill:#DBEADE;}
	.st100{fill:#99D6D5;}
	.st101{fill:#383230;}
	.st102{fill:#DBDBDB;}
	.st103{fill:#B2B2AE;}
	.st104{fill:#D0E3EA;}
	.st105{fill:#3A3432;}
	.st106{fill:#372F2C;}
	.st107{fill:#383332;}
	.st108{fill:#605C5B;}
	.st109{fill:#3B3634;}
	.st110{fill:#6EC9D3;}
	.st111{fill:#E9E6E4;}
	.st112{fill:#E6E4E5;}
	.st113{fill:#6DCDD8;}
	.st114{fill:#686563;}
	.st115{fill:#BCBBBB;}
	.st116{fill:#332C2B;}
	.st117{fill:#643991;}
	.st118{fill:#231D1C;}
	.st119{fill:#A8DCDE;}
	.st120{fill:#2DBBCB;}
	.st121{fill:#E8EFEA;}
	.st122{fill:#F2E22C;}
	.st123{fill:#322F2E;}
	.st124{fill:#3D3939;}
	.st125{fill:#6CC8D6;}
	.st126{fill:#A8DBDA;}
	.st127{fill:#363130;}
	.st128{fill:#D5D4D2;}
	.st129{fill:#F3E02C;}
	.st130{fill:#F8E01E;}
	.st131{fill:#9ED4D9;}
	.st132{fill:#3C3837;}
	.st133{fill:#2E2A29;}
	.st134{fill:#F4E327;}
	.st135{fill:#676665;}
	.st136{fill:#97D3D7;}
	.st137{fill:#BDE5EE;}
	.st138{fill:#4B4846;}
	.st139{fill:#BDE2EA;}
	.st140{fill:#696561;}
	.st141{fill:#6CCAD7;}
	.st142{fill:#C1E1D7;}
	.st143{fill:#575252;}
	.st144{fill:#DFDCDC;}
	.st145{fill:#392C2D;}
	.st146{fill:#EDEAE9;}
	.st147{fill:#CCC8C6;}
	.st148{fill:#7DD1D9;}
	.st149{fill:#484544;}
	.st150{fill:#95D0D6;}
	.st151{fill:#38BCCC;}
	.st152{fill:#592A84;}
	.st153{fill:#9ED6D6;}
	.st154{fill:#72CAD8;}
	.st155{fill:#74CEE0;}
	.st156{fill:#E2EDEE;}
	.st157{fill:#A7D9E0;}
	.st158{fill:#6E6967;}
	.st159{fill:#E5E7EF;}
	.st160{fill:#97D6DE;}
	.st161{fill:#625F5F;}
	.st162{fill:#C7C5C3;}
	.st163{fill:#8ED4DE;}
	.st164{fill:#D6D1D0;}
	.st165{fill:#92D1D9;}
	.st166{fill:#959391;}
	.st167{fill:#25B6C4;}
	.st168{fill:#644596;}
	.st169{fill:#403B3A;}
	.st170{fill:#322B2C;}
	.st171{fill:#7A7775;}
	.st172{fill:#2A2524;}
	.st173{fill:#525150;}
	.st174{fill:#B7DAD9;}
	.st175{fill:#33B8CC;}
	.st176{fill:#71CED3;}
	.st177{fill:#DBE9EE;}
	.st178{fill:#694E91;}
	.st179{fill:#989798;}
	.st180{fill:#8BD4D9;}
	.st181{fill:#95D8D8;}
	.st182{fill:#6A6766;}
	.st183{fill:#646362;}
	.st184{fill:#2C2827;}
	.st185{fill:#777675;}
	.st186{fill:#312E2B;}
	.st187{fill:#484443;}
	.st188{fill:#91D4DF;}
	.st189{fill:#B6D3DE;}
	.st190{fill:#9ED5DD;}
	.st191{fill:#3BBACC;}
	.st192{fill:#93D4D7;}
	.st193{fill:#82D4DC;}
	.st194{fill:#E6E3E2;}
	.st195{fill:#3EC1CC;}
	.st196{fill:#93D6DE;}
	.st197{fill:#23201F;}
	.st198{fill:#463F3F;}
	.st199{fill:#B4DBDC;}
	.st200{fill:#D6DF5F;}
	.st201{fill:#504A4A;}
	.st202{fill:#4B4645;}
	.st203{fill:#A1D7DD;}
	.st204{fill:#423D3B;}
	.st205{fill:#8CD9D4;}
	.st206{fill:#9DCFE0;}
	.st207{fill:#54C1D1;}
	.st208{fill:#96D7D6;}
	.st209{fill:#585352;}
	.st210{fill:#EFE019;}
	.st211{fill:#90D6DB;}
	.st212{fill:#3FC5CF;}
	.st213{fill:#C4DDEA;}
	.st214{fill:#716F6E;}
	.st215{fill:#94CECF;}
	.st216{fill:#4E4B4A;}
	.st217{fill:#6A6666;}
	.st218{fill:#ECE039;}
	.st219{fill:#454545;}
	.st220{fill:#4D4949;}
	.st221{fill:#443F3F;}
	.st222{fill:#40B5C3;}
	.st223{fill:#ACD9DC;}
	.st224{fill:#ECE12E;}
	.st225{fill:#63C7D2;}
	.st226{fill:#91D4D6;}
	.st227{fill:#393434;}
	.st228{fill:#2C2727;}
	.st229{fill:#474343;}
	.st230{fill:#676163;}
	.st231{fill:#302D2B;}
	.st232{fill:#99D0CF;}
	.st233{fill:#3E3E3D;}
	.st234{fill:#2C2826;}
	.st235{fill:#8ED5D4;}
	.st236{fill:#686362;}
	.st237{fill:#645191;}
	.st238{fill:#1B1A1A;}
	.st239{fill:#ECE041;}
	.st240{fill:#654391;}
	.st241{fill:#96D2DC;}
	.st242{fill:#43BED2;}
	.st243{fill:#90D4D9;}
	.st244{fill:#ACDBD8;}
	.st245{fill:#27B8C8;}
	.st246{fill:#B6D7DF;}
	.st247{fill:#8ED2D6;}
	.st248{fill:#D3CFCF;}
	.st249{fill:#42B7BE;}
	.st250{fill:#49BCCB;}
	.st251{fill:#524C4D;}
	.st252{fill:#D2CECD;}
	.st253{fill:#A6CEDE;}
	.st254{fill:#585858;}
	.st255{fill:#25211E;}
	.st256{fill:#79C4C6;}
	.st257{fill:#1C1A18;}
	.st258{fill:#8AD4D7;}
	.st259{fill:#BEE1EA;}
	.st260{fill:#656263;}
	.st261{fill:#1C1919;}
	.st262{fill:#93D4D2;}
	.st263{fill:#81CEDF;}
	.st264{fill:#9DD3E2;}
	.st265{fill:#342628;}
	.st266{fill:#F0EDEE;}
	.st267{fill:#2FBACA;}
	.st268{fill:#83CEDB;}
	.st269{fill:#6B6869;}
	.st270{fill:#ACD9D5;}
	.st271{fill:#83D6DB;}
	.st272{fill:#8BD3D6;}
	.st273{fill:#625F5E;}
	.st274{fill:#96D9D4;}
	.st275{fill:#D0C8C7;}
	.st276{fill:#312D2D;}
	.st277{fill:#706D6D;}
	.st278{fill:#5E5B59;}
	.st279{fill:#C4DFE5;}
	.st280{fill:#261F1C;}
	.st281{fill:#85D6D8;}
	.st282{fill:#8BCED5;}
	.st283{fill:#2B2928;}
	.st284{fill:#B2DDEC;}
	.st285{fill:#39BACA;}
	.st286{fill:#E6DD46;}
	.st287{fill:#53C0C7;}
	.st288{fill:#94D3C9;}
	.st289{fill:#88D3D4;}
	.st290{fill:#8BD4D6;}
	.st291{fill:#8FCFD8;}
	.st292{fill:#5DC3CC;}
	.st293{fill:#756E6F;}
	.st294{fill:#48C0C9;}
	.st295{fill:#3A3637;}
	.st296{fill:#42BFBD;}
	.st297{fill:#5E5D5B;}
	.st298{fill:#5C5554;}
	.st299{fill:#C3BCBA;}
	.st300{fill:#34C0CA;}
	.st301{fill:#1E1B1A;}
	.st302{fill:#7AD0DE;}
	.st303{fill:#514D4C;}
	.st304{fill:#211E1D;}
	.st305{fill:#1F1B1B;}
	.st306{fill:#ADD5E8;}
	.st307{fill:#464041;}
	.st308{fill:#474241;}
	.st309{fill:#888888;}
	.st310{fill:#8E8E8E;}
	.st311{fill:#8D8D8D;}
	.st312{fill:#939393;}
	.st313{fill:#251C1A;}
	.st314{fill:#2A2221;}
	.st315{fill:#27201F;}
	.st316{fill:#261E1C;}
	.st317{fill:#2E2826;}
	.st318{fill:#37302E;}
	.st319{fill:#332C2A;}
	.st320{fill:#DDDAD8;}
	.st321{fill:#D2CDCC;}
	.st322{fill:#A29A98;}
	.st323{fill:#C7C0BE;}
	.st324{fill:#403736;}
	.st325{fill:#3F3B39;}
	.st326{fill:#5F5757;}
	.st327{fill:#3B3837;}
	.st328{fill:#322E2E;}
	.st329{fill:#444241;}
	.st330{fill:#3B3535;}
	.st331{fill:#777573;}
	.st332{fill:#1D1A1A;}
	.st333{fill:#231F1E;}
	.st334{fill:#4A4846;}
	.st335{fill:#CFCAC8;}
	.st336{fill:#2C2928;}
	.st337{fill:#5A5755;}
	.st338{fill:#252422;}
	.st339{fill:#B4AFAD;}
	.st340{fill:#2B2827;}
	.st341{fill:#312D2C;}
	.st342{fill:#282524;}
	.st343{fill:#D0CBCA;}
	.st344{fill:#302D2D;}
	.st345{fill:#3A3634;}
	.st346{fill:#64615F;}
	.st347{fill:#B4B0AF;}
	.st348{fill:#221E1D;}
	.st349{fill:#464443;}
	.st350{fill:#ECECEC;}
	.st351{fill:#FCFCFC;}
	.st352{fill:#F1F0F0;}
	.st353{fill:#F9F8F9;}
	.st354{fill:#F8F7F7;}
	.st355{fill:#EBEDEE;}
	.st356{fill:#E3EBEE;}
	.st357{fill:#EEEDED;}
	.st358{fill:#EEE7E5;}
	.st359{fill:#BEB7B6;}
	.st360{fill:#F1EBE9;}
	.st361{fill:#EAECE7;}
	.st362{fill:#E9E9E9;}
	.st363{fill:#E3E2E3;}
	.st364{fill:#EAEAEA;}
	.st365{fill:#C2C0BE;}
	.st366{fill:#DFDDDE;}
	.st367{fill:#CECCC9;}
	.st368{fill:#D2D0CD;}
	.st369{fill:#F1EEED;}
	.st370{fill:#EEEEEC;}
	.st371{fill:#ECEDEC;}
	.st372{fill:#D6CECD;}
	.st373{fill:#D9D3D1;}
	.st374{fill:#D7D3D0;}
	.st375{fill:#C1BFBC;}
	.st376{fill:#E9E5E5;}
	.st377{fill:#EFEBEB;}
	.st378{fill:#ECE6E3;}
	.st379{fill:#534F4B;}
	.st380{fill:#E5DEDB;}
	.st381{fill:#2B2724;}
	.st382{fill:#E1DAD9;}
	.st383{fill:#F2EEEC;}
	.st384{fill:#A0D3D1;}
	.st385{fill:#9CD0E6;}
	.st386{fill:#5C348F;}
	.st387{fill:#A0D6DA;}
	.st388{fill:#A9D6DB;}
	.st389{fill:#C8C1C0;}
	.st390{fill:#A2D8E2;}
	.st391{fill:#ECEDE7;}
	.st392{fill:#B7DAE1;}
	.st393{fill:#E5EDF2;}
	.st394{fill:#5D318C;}
	.st395{fill:#A7D7D6;}
	.st396{fill:#A1D7E2;}
	.st397{fill:#AEDDD8;}
	.st398{fill:#E8EEF4;}
	.st399{fill:#C4E1E8;}
	.st400{fill:#9DD5D9;}
	.st401{fill:#55C4CB;}
	.st402{fill:#EAEDF3;}
	.st403{fill:#ECEFEE;}
	.st404{fill:#95D0DB;}
	.st405{fill:#7ECCD2;}
	.st406{fill:#ACD9D3;}
	.st407{fill:#85D6DD;}
	.st408{fill:#EFEBF5;}
	.st409{fill:#AEDBDB;}
	.st410{fill:#B0DBDD;}
	.st411{fill:#9AD2D3;}
	.st412{fill:#22B9CB;}
	.st413{fill:#D7EBE8;}
	.st414{fill:#E8EEF1;}
	.st415{fill:#E4EDEB;}
	.st416{fill:#ABD9DE;}
	.st417{fill:#DBEAEE;}
	.st418{fill:#E8EDEE;}
	.st419{fill:#EBEDF1;}
	.st420{fill:#A1CBD5;}
	.st421{fill:#E0EAEE;}
	.st422{fill:#A3D1D7;}
	.st423{fill:#E0EAEF;}
	.st424{fill:#44BFD2;}
	.st425{fill:#57357E;}
	.st426{fill:#A7DADC;}
	.st427{fill:#E5EEEF;}
	.st428{fill:#5BC4CA;}
	.st429{fill:#E3EAEF;}
	.st430{fill:#D5E7EE;}
	.st431{fill:#EEECEB;}
	.st432{fill:#A8DBDB;}
	.st433{fill:#29B8CB;}
	.st434{fill:#9DD5D3;}
	.st435{fill:#DFF0FA;}
	.st436{fill:#ECEBEB;}
	.st437{fill:#CEC9C7;}
	.st438{fill:#E8EDF1;}
	.st439{fill:#E6EDEE;}
	.st440{fill:#DAD5D3;}
	.st441{fill:#EBEFF2;}
	.st442{fill:#EAEFF2;}
	.st443{fill:#98D4D4;}
	.st444{fill:#A1D9D9;}
	.st445{fill:#ECE8E5;}
	.st446{fill:#F4F0EF;}
	.st447{fill:#EAEEF1;}
	.st448{fill:#E2EDF6;}
	.st449{fill:#A8D6D9;}
	.st450{fill:#E8EDED;}
	.st451{fill:#91D7D9;}
	.st452{fill:#EDEDEF;}
	.st453{fill:#ADD6D8;}
	.st454{fill:#86D2D9;}
	.st455{fill:#DBEAED;}
	.st456{fill:#C8E2EE;}
	.st457{fill:#CCC7C7;}
	.st458{fill:#A5D7D6;}
	.st459{fill:#A3D8DD;}
	.st460{fill:#E8E8E7;}
	.st461{fill:#EDECE9;}
	.st462{fill:#EEEAE9;}
	.st463{fill:#E3E3E1;}
	.st464{fill:#EFEAEA;}
	.st465{fill:#2E2524;}
	.st466{fill:#302927;}
	.st467{fill:#271F1E;}
	.st468{fill:#2E2624;}
	.st469{fill:#2F2826;}
	.st470{fill:#2B2221;}
	.st471{fill:#2B2624;}
	.st472{fill:#473E3E;}
	.st473{fill:#45403E;}
	.st474{fill:#E5DFDE;}
	.st475{fill:#2F2827;}
	.st476{fill:#E4DFDD;}
	.st477{fill:#D8D6D3;}
	.st478{fill:#C1B9B8;}
	.st479{fill:#3E3837;}
	.st480{fill:#403A3A;}
	.st481{fill:#4D4544;}
	.st482{fill:#D9D8D7;}
	.st483{fill:#4B4646;}
	.st484{fill:#CDC8C5;}
	.st485{fill:#CCC8C5;}
	.st486{fill:#B3B0AF;}
	.st487{fill:#231E1E;}
	.st488{fill:#241D1D;}
	.st489{fill:#D9D4D1;}
	.st490{fill:#DED8D7;}
	.st491{fill:#393635;}
	.st492{fill:#45413F;}
	.st493{fill:#3E3938;}
	.st494{fill:#3D3837;}
	.st495{fill:#D8D3D3;}
	.st496{fill:#251D1D;}
	.st497{fill:#42403F;}
	.st498{fill:#474041;}
	.st499{fill:#9D9594;}
	.st500{fill:#B7B4B3;}
	.st501{fill:#7C7775;}
	.st502{fill:#BCB8B7;}
	.st503{fill:#3A3434;}
	.st504{fill:#CBC6C4;}
	.st505{fill:#44413F;}
	.st506{fill:#3B3736;}
	.st507{fill:#2C2828;}
	.st508{fill:#242322;}
	.st509{fill:#454241;}
	.st510{fill:#686263;}
	.st511{fill:#211E1C;}
	.st512{fill:#B3ADAD;}
	.st513{fill:#6E6C6A;}
	.st514{fill:#514F4E;}
	.st515{fill:#282424;}
	.st516{fill:#363433;}
	.st517{fill:#595152;}
	.st518{fill:#54504E;}
	.st519{fill:#302E2D;}
	.st520{fill:#2E2B29;}
	.st521{fill:#7E7877;}
	.st522{fill:#1F1A19;}
	.st523{fill:#393837;}
	.st524{fill:#302929;}
	.st525{fill:#AFAFAF;}
	.st526{fill:#B5B5B5;}
	.st527{fill:#BDBDBD;}
	.st528{fill:#C6C6C6;}
	.st529{fill:#B0AEAF;}
	.st530{fill:#BDBBBC;}
	.st531{fill:#B2B0B0;}
	.st532{fill:#B1B0B0;}
	.st533{fill:#EAE9E9;}
	.st534{fill:#E4E3E3;}
	.st535{fill:#BEBCBD;}
	.st536{fill:#AEADAE;}
	.st537{fill:#ADACAD;}
	.st538{fill:#A4D3DB;}
	.st539{fill:#EFE91A;}
	.st540{fill:#EDEEF0;}
	.st541{fill:#DFEAF0;}
	.st542{fill:#623992;}
	.st543{fill:#AFDCE9;}
	.st544{fill:#97D7DC;}
	.st545{fill:#ABD9D6;}
	.st546{fill:#F1EDED;}
	.st547{fill:#E3DFDE;}
	.st548{fill:#ECEBE7;}
	.st549{fill:#DDDDD9;}
	.st550{fill:#DDDBD8;}
	.st551{fill:#E7E4E2;}
	.st552{fill:#F2EBE9;}
	.st553{fill:#C9C4C2;}
	.st554{fill:#D7D1CF;}
	.st555{fill:#EEECE9;}
	.st556{fill:#D6D0CF;}
	.st557{fill:#F5EEEB;}
	.st558{fill:#DFD8D7;}
	.st559{fill:#CBC8C6;}
	.st560{fill:#C8C2C0;}
	.st561{fill:#DCD7D5;}
	.st562{fill:#E4DDDC;}
	.st563{fill:#F1EFEC;}
	.st564{fill:#F0EDEB;}
	.st565{fill:#036EB8;}
	.st566{fill:#666666;}
	.st567{fill-rule:evenodd;clip-rule:evenodd;fill:#52C0E1;}
	.st568{fill-rule:evenodd;clip-rule:evenodd;fill:#48B0D2;}
	.st569{fill-rule:evenodd;clip-rule:evenodd;fill:#3E9FC3;}
	.st570{fill:#CEF3FF;}
	.st571{fill:#C7B299;}
	.st572{fill:none;stroke:#C7B299;stroke-width:2;stroke-miterlimit:10;}
	.st573{clip-path:url(#SVGID_4_);}
	.st574{clip-path:url(#SVGID_6_);}
	.st575{clip-path:url(#SVGID_8_);}
	.st576{fill:#9A9A9A;}
	.st577{fill:#4B4B4B;}
	.st578{fill:#515151;}
	.st579{fill:#989898;}
	.st580{fill:#797979;}
	.st581{fill:#6E6E6E;}
	.st582{fill:#BABABA;}
	.st583{fill:#7F7F7F;}
	.st584{fill:#949494;}
	.st585{fill:#C5C5C5;}
	.st586{fill:#7C7C7C;}
	.st587{fill:#919191;}
	.st588{fill:#A2A2A2;}
	.st589{fill:#A7A7A7;}
	.st590{fill:#8C8C8C;}
	.st591{fill:#6C6C6C;}
	.st592{fill:#5F5F5F;}
	.st593{fill:#616161;}
	.st594{fill:#9B9B9B;}
	.st595{fill:#D1D1D1;}
	.st596{fill:#A9A9A9;}
	.st597{fill:#848484;}
	.st598{fill:#5E5E5E;}
	.st599{fill:#4D4D4D;}
	.st600{fill:#7B7B7B;}
	.st601{fill:#262626;}
	.st602{fill:#5D5D5D;}
	.st603{fill:#FBFBFB;}
	.st604{fill:#696969;}
	.st605{fill:#6B6B6B;}
	.st606{fill:#0F0F0F;}
	.st607{fill:#5B5B5B;}
	.st608{fill:#353535;}
	.st609{fill:#272727;}
	.st610{fill:#383838;}
	.st611{fill:#A0A0A0;}
	.st612{fill:#CFCFCF;}
	.st613{fill:#D0D0D0;}
	.st614{fill:#636363;}
	.st615{fill:#E5E5E5;}
	.st616{fill:#343434;}
	.st617{fill:#545454;}
	.st618{fill:#525252;}
	.st619{fill:#B4B4B4;}
	.st620{fill:#D5D5D5;}
	.st621{fill:#707070;}
	.st622{fill:#F1F1F1;}
	.st623{fill:#767676;}
	.st624{fill:#E2E2E2;}
	.st625{fill:#AAAAAA;}
	.st626{fill:#4C4C4C;}
	.st627{fill:#7A7A7A;}
	.st628{fill:#A3A3A3;}
	.st629{fill:#C2C2C2;}
	.st630{fill:#808080;}
	.st631{fill:#9E9E9E;}
	.st632{fill:#2D2D2D;}
	.st633{fill:#787878;}
	.st634{fill:#8F8F8F;}
	.st635{fill:#5C5C5C;}
	.st636{fill:#303030;}
	.st637{fill:#E3E3E3;}
	.st638{fill:#9F9F9F;}
	.st639{fill:#B7B7B7;}
	.st640{fill:#6F6F6F;}
	.st641{fill:#999999;}
	.st642{fill:#6D6D6D;}
	.st643{fill:#909090;}
	.st644{fill:#BFBFBF;}
	.st645{fill:#B2B2B2;}
	.st646{fill:#3D3D3D;}
	.st647{fill:#1D1D1D;}
	.st648{fill:#777777;}
	.st649{fill:#606060;}
	.st650{fill:#6A6A6A;}
	.st651{fill:#373737;}
	.st652{fill:#575757;}
	.st653{fill:#727272;}
	.st654{fill:#717171;}
	.st655{fill:#737373;}
	.st656{fill:#F9F9F9;}
	.st657{fill:#ADADAD;}
	.st658{fill:#7E7E7E;}
	.st659{fill:#555555;}
	.st660{fill:#818181;}
	.st661{fill:#A8A8A8;}
	.st662{fill:#B9B9B9;}
	.st663{fill:#EBEBEB;}
	.st664{fill:#B6B6B6;}
	.st665{fill:#646464;}
	.st666{fill:#D6D6D6;}
	.st667{fill:#171717;}
	.st668{fill:#202020;}
	.st669{fill:#464646;}
	.st670{fill:#A6A6A6;}
	.st671{fill:#BEBEBE;}
	.st672{fill:#0C0C0C;}
	.st673{fill:#2E2E2E;}
	.st674{fill:#676767;}
	.st675{fill:#878787;}
	.st676{fill:#4F4F4F;}
	.st677{fill:#9C9C9C;}
	.st678{fill:#3B3B3B;}
	.st679{fill:#565656;}
	.st680{fill:#404040;}
	.st681{fill:#E6E6E6;}
	.st682{fill:#DFDFDF;}
	.st683{fill:#0E0E0E;}
	.st684{fill:#232323;}
	.st685{fill:#747474;}
	.st686{fill:#393939;}
	.st687{fill:#444444;}
	.st688{fill:#242424;}
	.st689{fill:#E7E7E7;}
	.st690{fill:#2B2B2B;}
	.st691{fill:#EF8F8F;}
	.st692{fill:none;stroke:#000000;stroke-width:1.5;stroke-miterlimit:10;}
	.st693{fill:#CCCCCC;}
	.st694{fill:#FFFFFF;stroke:#000000;stroke-width:0.75;stroke-miterlimit:10;}
	.st695{fill:none;}
	.st696{fill:#FCEE21;}
	.st697{fill:#FBB03B;}
	.st698{fill:#F2F49D;}
	.st699{fill:#F5B39D;}
	.st700{clip-path:url(#SVGID_18_);}
	.st701{clip-path:url(#SVGID_20_);}
	.st702{fill:none;stroke:#2D2D2D;stroke-width:0.4006;stroke-miterlimit:10;}
	.st703{fill:none;stroke:#1D0600;stroke-width:0.4006;stroke-miterlimit:10;}
	.st704{fill:none;stroke:#4D4D4D;stroke-width:0.6676;stroke-miterlimit:10;}
	.st705{fill:#EF846A;}
	.st706{fill:none;stroke:#666666;stroke-miterlimit:10;}
	.st707{fill:none;stroke:#FFFFFF;stroke-width:1.7462;stroke-linecap:round;stroke-miterlimit:10;}
	.st708{fill:none;stroke:#4D4D4D;stroke-width:2;stroke-miterlimit:10;}
	.st709{fill:#FFFFFF;stroke:#939393;stroke-width:0.569;stroke-miterlimit:10;}
	.st710{fill:none;stroke:#CECECE;stroke-width:2;stroke-miterlimit:10;}
	.st711{fill:#FFFFFF;stroke:#939393;stroke-width:0.8642;stroke-miterlimit:10;}
	.st712{fill:#48B0D2;}
	.st713{fill:#A3CCE8;}
	.st714{fill:#FFFFFF;stroke:#000000;stroke-width:0.25;stroke-miterlimit:10;}
	.st715{fill:#232020;stroke:#000000;stroke-width:0.25;stroke-miterlimit:10;}
	.st716{fill:none;stroke:#4D4D4D;stroke-miterlimit:10;}
	.st717{fill:#FFFF8F;stroke:#4D4D4D;stroke-miterlimit:10;}
	.st718{fill:#079DEF;}
	.st719{fill:#3BB5EA;}
	.st720{fill:#70B279;}
	.st721{fill:#F5B19B;}
	.st722{fill:#CE424D;}
	.st723{fill:#998675;}
	.st724{fill:none;stroke:#A0A0A0;stroke-width:1.0011;stroke-miterlimit:10;}
	.st725{fill:none;stroke:#A0A0A0;stroke-width:0.2483;stroke-miterlimit:10;}
	.st726{fill:none;stroke:#A0A0A0;stroke-width:0.25;stroke-miterlimit:10;}
</style>
<g id="bg">
</g>
<g id="圖層_1">
</g>
<g id="text">
	<g>
		<path class="st4" d="M0,4.9V4.1c0-0.3,0.2-0.5,0.6-0.5h4.2C4.9,3.6,5,3.5,5,3.3V2.9C4.1,3,3.2,3.1,2.3,3.1C1.9,3.2,1.7,3,1.6,2.6
			L1.5,1.6C1.5,1.2,1.7,1,2,1c2.5-0.1,4.9-0.4,7.2-0.8c0.4,0,0.7,0.1,0.8,0.5L10,1.7c0,0.4-0.2,0.6-0.6,0.6C8.7,2.5,7.9,2.6,7.2,2.7
			v0.6c0,0.2,0.1,0.3,0.2,0.3h4.1c0.4,0,0.7,0.1,0.7,0.5v0.8c0,0.4-0.2,0.6-0.7,0.6H7.4c-0.1,0-0.2,0.1-0.2,0.3v0.1
			c0,0.2,0.1,0.3,0.2,0.3H10c0.9,0,1.4,0.4,1.4,1.3v4.9c0,0.9-0.5,1.3-1.4,1.3H7.4c-0.1,0-0.2,0.1-0.2,0.3v0.6
			c0,0.2,0.1,0.3,0.2,0.3h3.1c0.4,0,0.6,0.1,0.6,0.5v0.9c0,0.4-0.2,0.5-0.6,0.5H7.4c-0.1,0-0.2,0.1-0.2,0.3v1l3.1-0.4
			c0.4-0.1,0.6,0,0.7,0.4l0,0.9c0.1,0.4-0.1,0.6-0.5,0.6l-9.1,1.2c-0.4,0.1-0.6,0-0.6-0.4l-0.1-0.9c0-0.4,0.1-0.6,0.5-0.6L5,18.4
			v-1.3c0-0.2-0.1-0.3-0.2-0.3H1.6c-0.4,0-0.6-0.1-0.6-0.5v-0.9C1,15.1,1.2,15,1.6,15h3.1C4.9,15,5,14.9,5,14.7v-0.6
			c0-0.2-0.1-0.3-0.2-0.3H2c-0.8,0-1.3-0.4-1.3-1.3V7.5c0-0.9,0.4-1.3,1.3-1.3h2.8C4.9,6.2,5,6.1,5,5.9V5.8c0-0.2-0.1-0.3-0.2-0.3
			H0.6C0.2,5.5,0,5.3,0,4.9z M2.7,8.6v0.2c0,0.2,0.1,0.3,0.2,0.3h1.9C4.9,9.1,5,9,5,8.8V8.3C5,8.1,4.9,8,4.8,8H3.1
			C2.8,8,2.7,8.2,2.7,8.6z M3.1,12h1.7C4.9,12,5,11.9,5,11.7V11c0-0.2-0.1-0.3-0.2-0.3H2.9c-0.1,0-0.2,0.1-0.2,0.3v0.4
			C2.7,11.8,2.8,12,3.1,12z M9.1,8H7.4C7.2,8,7.2,8.1,7.2,8.3v0.5c0,0.2,0.1,0.3,0.2,0.3h1.9c0.1,0,0.2-0.1,0.2-0.3V8.6
			C9.5,8.2,9.3,8,9.1,8z M9.5,11.5V11c0-0.2-0.1-0.3-0.2-0.3H7.4c-0.1,0-0.2,0.1-0.2,0.3v0.7c0,0.2,0.1,0.3,0.2,0.3h1.7
			C9.3,12,9.5,11.8,9.5,11.5z M12.1,21.8L11,21.3c-0.3-0.2-0.3-0.5-0.2-0.9c2.1-4.3,3.3-8.7,3.6-13.2h-1.8c-0.4,0-0.6-0.2-0.6-0.5
			V5.6c0-0.4,0.2-0.5,0.6-0.5h1.7c0.1,0,0.2-0.1,0.2-0.3V0.7c0-0.4,0.2-0.5,0.6-0.5h1c0.4,0,0.6,0.1,0.6,0.5v4.1
			c0,0.2,0.1,0.3,0.2,0.3h3.4c1.1,0.1,1.6,0.7,1.7,1.9c0,5.3-0.7,10.1-1.9,14.3c-0.3,0.4-0.6,0.6-1.2,0.5c-0.3,0-1.2-0.2-2.7-0.6
			c-0.4,0-0.5-0.2-0.6-0.5l0.2-1.4c0.1-0.3,0.3-0.4,0.6-0.4l1.4,0.4c0.3,0.1,0.5,0.1,0.6-0.2c0.9-3.5,1.4-7.1,1.5-11
			c0-0.5-0.2-0.7-0.5-0.7h-2.7c-0.3,4.8-1.5,9.6-3.7,14.2C12.6,21.7,12.4,21.8,12.1,21.8z"/>
		<path class="st4" d="M26.5,16.8l-0.6-1.1c-0.2-0.3-0.1-0.6,0.4-0.9l3.8-2.3V6.8c0-0.2-0.1-0.2-0.2-0.2h-1.2
			c-0.2,1-0.4,2.1-0.7,3.1c-0.1,0.4-0.4,0.6-0.7,0.5l-1-0.3c-0.4-0.1-0.5-0.4-0.4-0.9c0.6-2.3,1-4.7,1.2-6.9
			c0.1-0.5,0.3-0.7,0.6-0.6l1.1,0.1c0.4,0.1,0.5,0.4,0.4,0.9c-0.1,0.6-0.2,1.2-0.3,1.8h0.8c0.1,0,0.2-0.1,0.2-0.3V0.7
			c0-0.4,0.2-0.6,0.6-0.6h1c0.4,0,0.6,0.2,0.6,0.6v3.2c0,0.2,0.1,0.3,0.2,0.3h1.4c0.4,0,0.6,0.2,0.6,0.6V6c0,0.4-0.2,0.6-0.6,0.6
			h-1.4c-0.1,0-0.2,0.1-0.2,0.2v4.4l0.9-0.5c0.4-0.3,0.7-0.2,0.9,0.2l0.5,1.1c0.2,0.4,0.1,0.8-0.3,1l-2,1.2v7c0,0.4-0.2,0.6-0.6,0.6
			h-1c-0.4,0-0.6-0.2-0.6-0.6v-5.7l-2.9,1.7C26.9,17.3,26.6,17.2,26.5,16.8z M34.5,10.5l-1-0.6c-0.3-0.2-0.4-0.5-0.2-1
			c1.3-2.4,2.2-5,2.5-8c0.1-0.5,0.3-0.6,0.7-0.6l1,0.2c0.4,0.2,0.5,0.6,0.4,1l-0.1,0.9h7.5c1.3,0.1,1.9,0.8,2,2v5.8
			c-0.1,4.6-0.8,8.1-1.9,10.6c-0.4,0.6-1,0.9-1.8,0.9c-0.7,0-1.7-0.3-2.7-0.7c-0.4-0.2-0.5-0.4-0.4-0.7l0.3-1.5
			c0.1-0.3,0.3-0.4,0.7-0.3c0.5,0.2,0.9,0.4,1.5,0.5c0.3,0.1,0.6,0,0.7-0.3c0.8-2.3,1.3-4.9,1.4-8V5.6c0-0.4-0.2-0.6-0.6-0.7h-0.2
			c-0.6,5.6-1.9,10.2-3.9,13.5c-0.2,0.5-0.5,0.5-0.8,0.3l-1-0.6c-0.3-0.2-0.4-0.5-0.2-0.9c1.8-3.1,3-7.2,3.6-12.3h-1.2
			c-0.8,5.2-2.4,9.7-4.9,13.6c-0.2,0.4-0.5,0.5-0.8,0.3l-0.9-0.7c-0.3-0.1-0.3-0.5-0.1-0.9c2.2-3.5,3.7-7.6,4.4-12.2h-1.3
			c-0.5,1.9-1.2,3.7-2.1,5.3C35,10.6,34.8,10.7,34.5,10.5z"/>
		<path class="st4" d="M52.1,8.7l-0.7-1.3c-0.1-0.3,0-0.6,0.3-0.7c3.6-1.9,6.9-4.1,10.1-6.4c0.6-0.4,1.2-0.4,1.9,0
			c3.1,2.3,6.4,4.5,9.9,6.4C73.9,6.8,74,7,73.9,7.4l-0.8,1.2c-0.2,0.3-0.5,0.4-0.8,0.3C69,7,65.8,5,63,2.8c-0.2-0.1-0.4-0.1-0.6,0
			c-3,2.2-6.2,4.2-9.5,6.1C52.6,9,52.3,9,52.1,8.7z M57.6,7.2h1.3c0.3,0,0.5,0.2,0.5,0.6v6.5c-0.2,3.3-1.2,5.8-3,7.5
			c-0.2,0.1-0.5,0.1-0.7,0l-1-1c-0.1-0.3-0.1-0.5,0.1-0.8c1.4-1.7,2.2-3.7,2.3-6.2v-6C57,7.4,57.2,7.2,57.6,7.2z M66.6,7.2h1.2
			c0.4,0,0.6,0.2,0.6,0.6v13.4c0,0.4-0.2,0.6-0.6,0.6h-1.2c-0.4,0-0.6-0.2-0.6-0.6V7.8C66.1,7.4,66.3,7.2,66.6,7.2z"/>
		<path class="st4" d="M80.8,21.1v-7.9L78.2,14c-0.2,0-0.4-0.2-0.5-0.5L77.5,12c0-0.3,0.1-0.5,0.4-0.6c0.6-0.1,1-0.5,1.4-1.2
			l1.1-1.5l-3-2.8c-0.2-0.2-0.2-0.6-0.1-1.2l0.7-1c0.2-0.2,0.4-0.2,0.6,0L79,3.9l2.4-3.4c0.2-0.5,0.6-0.6,0.9-0.4L83.1,1
			c0.1,0.4,0.1,0.7,0,0.8l-2.5,3.5l1.1,1.1L84,2.9c0.2-0.4,0.4-0.5,0.7-0.3l0.9,1c0.3,0.2,0.3,0.5,0,0.8L82,9.9
			c-0.1,0.2-0.1,0.3,0.1,0.3l1.5-0.4l-0.2-0.9c0-0.2,0.1-0.4,0.2-0.6l1.3-0.4c0.2,0,0.3,0.2,0.3,0.5l0.6,2.4c0-0.2,0.1-0.5,0.3-0.7
			c1.4-0.5,2.4-1.3,3.1-2.5c0.7-1.2,1.1-2.4,1.3-3.8H87c-0.3,0-0.5-0.2-0.5-0.6V1.8c0-0.4,0.2-0.6,0.5-0.6h11.6c0.7,0,1,0.5,0.9,1.4
			c-0.2,3.8-0.8,6.7-1.7,8.8c-0.2,0.4-0.5,0.5-1,0.5c-0.8-0.2-1.8-0.5-3-0.9c-0.3-0.1-0.4-0.3-0.4-0.7L93.6,9
			c0.1-0.2,0.3-0.3,0.5-0.3l1.5,0.4c0.3,0,0.4-0.1,0.5-0.5c0.4-1.3,0.7-2.8,0.8-4.5c0-0.2-0.1-0.3-0.3-0.4h-3.8
			c-0.3,2.3-0.9,4.1-1.8,5.4c-0.9,1.3-1.9,2.3-3,2.9c0.1,0,0.1,0,0.2,0H98c0.6,0,0.9,0.4,0.9,1.1v7.2c0,0.8-0.3,1.2-0.9,1.2h-9.9
			c-0.6,0-0.9-0.4-0.9-1.2v-7.2c0.1-0.4,0.2-0.7,0.4-0.9l-0.5,0.2c-0.3,0.1-0.6,0-0.7-0.3L85.9,11l0.3,1.4c0,0.3-0.1,0.5-0.3,0.6
			l-1.3,0.4c-0.2-0.1-0.3-0.2-0.4-0.4l-0.1-0.6L83,12.7v8.4c0,0.5-0.1,0.7-0.5,0.7h-1.3C80.9,21.8,80.8,21.6,80.8,21.1z M77.6,20.6
			c-0.2-0.2-0.2-0.5-0.2-0.8l1.1-4.7c0-0.2,0.2-0.4,0.6-0.4l1.3,0.3c0.2,0.2,0.2,0.5,0.2,0.9l-1.1,4.7c-0.1,0.3-0.3,0.4-0.5,0.4
			L77.6,20.6z M84.4,18.8l-0.8-3.4c0-0.3,0-0.5,0.2-0.7l1.2-0.5c0.3,0,0.5,0.2,0.6,0.5l0.8,3.2c0,0.3,0,0.6-0.2,0.7l-1.3,0.5
			C84.6,19.2,84.5,19.1,84.4,18.8z M96.1,14.6H90c-0.4,0-0.6,0.3-0.6,0.8v2.8c0,0.5,0.2,0.8,0.6,0.8h6.1c0.4,0,0.6-0.2,0.6-0.8v-2.8
			C96.7,14.9,96.5,14.6,96.1,14.6z"/>
	</g>
</g>
<g id="lightBox">
</g>
<g id="logo_x2B_nav">
</g>
<g id="參考線">
</g>
</svg>
