<?xml version="1.0" encoding="utf-8"?>
<!-- Generator: Adobe Illustrator 22.0.1, SVG Export Plug-In . SVG Version: 6.00 Build 0)  -->
<svg version="1.1" id="圖層_1" xmlns="http://www.w3.org/2000/svg" xmlns:xlink="http://www.w3.org/1999/xlink" x="0px" y="0px"
	 viewBox="0 0 98.8 21.7" style="enable-background:new 0 0 98.8 21.7;" xml:space="preserve">
<style type="text/css">
	.st0{fill:#FFE5C2;}
	.st1{fill:#FFFFFF;}
	.st2{fill:#333333;}
	.st3{fill:#ABABAB;}
	.st4{fill:#9A9A9A;}
	.st5{fill:#4B4B4B;}
	.st6{fill:#515151;}
	.st7{fill:#989898;}
	.st8{fill:#585858;}
	.st9{fill:#797979;}
	.st10{fill:#6E6E6E;}
	.st11{fill:#8E8E8E;}
	.st12{fill:#BABABA;}
	.st13{fill:#7F7F7F;}
	.st14{fill:#949494;}
	.st15{fill:#AEAEAE;}
	.st16{fill:#C5C5C5;}
	.st17{fill:#7C7C7C;}
	.st18{fill:#919191;}
	.st19{fill:#A2A2A2;}
	.st20{fill:#A7A7A7;}
	.st21{fill:#8C8C8C;}
	.st22{fill:#8D8D8D;}
	.st23{fill:#6C6C6C;}
	.st24{fill:#5F5F5F;}
	.st25{fill:#616161;}
	.st26{fill:#9B9B9B;}
	.st27{fill:#D1D1D1;}
	.st28{fill:#A9A9A9;}
	.st29{fill:#848484;}
	.st30{fill:#5E5E5E;}
	.st31{fill:#4D4D4D;}
	.st32{fill:#7B7B7B;}
	.st33{fill:#262626;}
	.st34{fill:#5D5D5D;}
	.st35{fill:#FBFBFB;}
	.st36{fill:#696969;}
	.st37{fill:#6B6B6B;}
	.st38{fill:#0F0F0F;}
	.st39{fill:#5B5B5B;}
	.st40{fill:#353535;}
	.st41{fill:#272727;}
	.st42{fill:#383838;}
	.st43{fill:#A0A0A0;}
	.st44{fill:#CFCFCF;}
	.st45{fill:#B3B3B3;}
	.st46{fill:#D0D0D0;}
	.st47{fill:#636363;}
	.st48{fill:#E5E5E5;}
	.st49{fill:#343434;}
	.st50{fill:#545454;}
	.st51{fill:#525252;}
	.st52{fill:#B4B4B4;}
	.st53{fill:#D5D5D5;}
	.st54{fill:#707070;}
	.st55{fill:#F1F1F1;}
	.st56{fill:#767676;}
	.st57{fill:#E2E2E2;}
	.st58{fill:#AAAAAA;}
	.st59{fill:#4C4C4C;}
	.st60{fill:#7A7A7A;}
	.st61{fill:#A3A3A3;}
	.st62{fill:#C2C2C2;}
	.st63{fill:#808080;}
	.st64{fill:#9E9E9E;}
	.st65{fill:#2D2D2D;}
	.st66{fill:#787878;}
	.st67{fill:#8F8F8F;}
	.st68{fill:#5C5C5C;}
	.st69{fill:#303030;}
	.st70{fill:#8A8A8A;}
	.st71{fill:#E3E3E3;}
	.st72{fill:#9F9F9F;}
	.st73{fill:#898989;}
	.st74{fill:#B7B7B7;}
	.st75{fill:#6F6F6F;}
	.st76{fill:#999999;}
	.st77{fill:#6D6D6D;}
	.st78{fill:#909090;}
	.st79{fill:#BFBFBF;}
	.st80{fill:#B2B2B2;}
	.st81{fill:#3D3D3D;}
	.st82{fill:#1D1D1D;}
	.st83{fill:#777777;}
	.st84{fill:#606060;}
	.st85{fill:#6A6A6A;}
	.st86{fill:#373737;}
	.st87{fill:#AFAFAF;}
	.st88{fill:#575757;}
	.st89{fill:#727272;}
	.st90{fill:#717171;}
	.st91{fill:#737373;}
	.st92{fill:#F9F9F9;}
	.st93{fill:#ADADAD;}
	.st94{fill:#7E7E7E;}
	.st95{fill:#555555;}
	.st96{fill:#818181;}
	.st97{fill:#8B8B8B;}
	.st98{fill:#A8A8A8;}
	.st99{fill:#B9B9B9;}
	.st100{fill:#EBEBEB;}
	.st101{fill:#B6B6B6;}
	.st102{fill:#646464;}
	.st103{fill:#D6D6D6;}
	.st104{fill:#171717;}
	.st105{fill:#202020;}
	.st106{fill:#464646;}
	.st107{fill:#888888;}
	.st108{fill:#A6A6A6;}
	.st109{fill:#BEBEBE;}
	.st110{fill:#0C0C0C;}
	.st111{fill:#1A1A1A;}
	.st112{fill:#2E2E2E;}
	.st113{fill:#676767;}
	.st114{fill:#878787;}
	.st115{fill:#DBDBDB;}
	.st116{fill:#4F4F4F;}
	.st117{fill:#9C9C9C;}
	.st118{fill:#3B3B3B;}
	.st119{fill:#565656;}
	.st120{fill:#404040;}
	.st121{fill:#E6E6E6;}
	.st122{fill:#DFDFDF;}
	.st123{fill:#0E0E0E;}
	.st124{fill:#232323;}
	.st125{fill:#747474;}
	.st126{fill:#393939;}
	.st127{fill:#444444;}
	.st128{fill:#242424;}
	.st129{fill:#E7E7E7;}
	.st130{fill:#2B2B2B;}
	.st131{fill:#EF8F8F;}
	.st132{fill:#48B0D2;}
	.st133{fill:#F2F2F2;}
</style>
<g>
	<path class="st133" d="M0,9.7V5.9c0-1.2,0.5-1.8,1.6-1.8h4.3L4.3,2C4.2,1.8,4.2,1.5,4.4,1.3l0.9-0.8C5.5,0.3,5.8,0.3,6,0.6l1.8,2.4
		c0.1,0.4,0,0.7-0.2,0.8L7.2,4.1H9c0.1,0,0.2-0.1,0.2-0.2V0.7C9.2,0.2,9.4,0,9.9,0h1c0.5,0,0.7,0.2,0.7,0.7v3.2
		c0,0.2,0.1,0.2,0.2,0.2h1.5L13,3.9c-0.2-0.1-0.3-0.4-0.2-0.8l1.9-2.4c0.2-0.3,0.5-0.3,0.6-0.1l1,0.8c0.2,0.3,0.2,0.5,0.1,0.7
		l-1.5,2h4.3c1,0,1.5,0.6,1.5,1.8v3.8c0,0.4-0.2,0.6-0.5,0.6H19c-0.3,0-0.5-0.2-0.5-0.6V7.4c-0.1-0.7-0.4-1-1-1H3.1
		c-0.5,0-0.8,0.4-0.8,1v2.4c0,0.4-0.2,0.6-0.5,0.6H0.5C0.2,10.3,0,10.1,0,9.7z M16,13.2h-4.2c-0.1,0-0.2,0.1-0.2,0.2v0.4
		c0,0.1,0.1,0.2,0.2,0.2h6.6c0.9,0,1.4,0.6,1.4,1.6v4.6c0,0.8-0.4,1.2-1.2,1.1c-0.9-0.2-1.8-0.4-2.5-0.6c-0.2-0.1-0.4-0.3-0.5-0.6
		l0.1-1.2c0.1-0.3,0.4-0.4,0.6-0.5l0.8,0.2c0.3,0,0.5-0.1,0.5-0.5v-1c0-0.7-0.3-1-0.9-1h-5c-0.1,0-0.2,0.1-0.2,0.2V21
		c0,0.5-0.2,0.7-0.7,0.7h-1c-0.5,0-0.7-0.2-0.7-0.7v-4.5c0-0.1-0.1-0.2-0.2-0.2H4.2c-0.6,0-0.9,0.3-0.9,1v3.4c0,0.4-0.2,0.6-0.6,0.6
		H1.6c-0.4,0-0.5-0.2-0.5-0.6v-5c0-1,0.4-1.6,1.3-1.6H9c0.1,0,0.2-0.1,0.2-0.2v-0.4c0-0.2-0.1-0.2-0.2-0.2H4.9
		c-0.6,0-0.9-0.4-0.9-1.3V8.4c0-0.8,0.4-1.2,1-1.3h11c0.8,0,1.1,0.5,1.1,1.3V12C17.1,12.8,16.8,13.2,16,13.2z M15,9.8
		c0-0.4-0.2-0.6-0.6-0.6H6.6C6.2,9.2,6,9.4,6,9.8v0.9c0,0.4,0.2,0.6,0.6,0.6h7.8c0.4,0,0.6-0.2,0.6-0.7V9.8z"/>
	<path class="st133" d="M36.6,19.6v-5c0-0.1-0.1-0.2-0.2-0.2h-2.1c-1.6,3.4-4.2,5.7-7.8,6.8c-0.4,0.2-0.7,0.1-0.9-0.3l-0.6-1.2
		c-0.1-0.4,0.1-0.6,0.5-0.9c2.9-1.1,4.9-2.5,5.8-4.4h-2.6c-0.7,0-1.1-0.5-1.1-1.3V1.9c0-0.9,0.4-1.3,1.1-1.3h13.5
		c0.7,0,1.1,0.4,1.1,1.3v11.2c0,0.9-0.4,1.3-1.2,1.3h-2.9c-0.1,0-0.2,0.1-0.2,0.2v3.7c0,0.3,0.2,0.5,0.5,0.5h3.8
		c0.3,0,0.6-0.1,0.8-0.3c0.2-0.4,0.5-1.1,0.9-2.1c0.1-0.3,0.4-0.4,0.7-0.4l1.3,0.5c0.3,0.2,0.4,0.5,0.3,0.8
		c-0.4,1.3-0.9,2.4-1.4,3.2c-0.4,0.6-1,0.9-1.7,1h-6C37.1,21.3,36.6,20.8,36.6,19.6z M30.7,3.1c-0.3,0-0.4,0.2-0.4,0.5v0.7
		c0,0.1,0.1,0.2,0.2,0.2h10.3c0.1,0,0.2-0.1,0.2-0.2V3.6c0-0.3-0.1-0.5-0.4-0.5H30.7z M40.8,6.8H30.5c-0.1,0-0.2,0.1-0.2,0.2V8
		c0,0.1,0.1,0.2,0.2,0.2h10.3C40.9,8.2,41,8.1,41,8V7C41,6.9,40.9,6.8,40.8,6.8z M41,11.4v-0.7c0-0.1-0.1-0.2-0.2-0.2H30.5
		c-0.1,0-0.2,0.1-0.2,0.2v0.7c0,0.4,0.1,0.5,0.4,0.5h9.9C40.8,11.9,41,11.7,41,11.4z"/>
	<path class="st133" d="M52.4,0.8h7.9c0.6,0,0.9,0.4,0.9,1v7.6c0,0.7-0.3,1.1-0.9,1.1h-6.4c-0.1,0-0.2,0.1-0.2,0.2V21
		c0,0.4-0.2,0.6-0.6,0.6H52c-0.4,0-0.6-0.2-0.6-0.6V1.9C51.5,1.2,51.8,0.8,52.4,0.8z M53.9,4.7h4.8c0.1,0,0.2-0.1,0.2-0.2V3.1
		c0-0.1-0.1-0.2-0.2-0.2h-4.8c-0.1,0-0.2,0.1-0.2,0.2v1.3C53.7,4.6,53.8,4.7,53.9,4.7z M53.9,8.5h4.8c0.1,0,0.2-0.1,0.2-0.3V6.9
		c0-0.1-0.1-0.2-0.2-0.2h-4.8c-0.1,0-0.2,0.1-0.2,0.2v1.3C53.7,8.4,53.8,8.5,53.9,8.5z M58.4,11.5h7.1c0.6,0,0.9,0.3,0.9,1.1v5.8
		c0,0.7-0.3,1-0.9,1h-7.1c-0.6,0-1-0.4-1-1.1v-5.8C57.5,11.9,57.8,11.5,58.4,11.5z M60.4,17.4h3.2c0.4,0,0.6-0.2,0.6-0.6v-2.5
		c0-0.5-0.2-0.7-0.6-0.7h-3.2c-0.4,0-0.6,0.2-0.6,0.7v2.5C59.7,17.2,60,17.4,60.4,17.4z M67.8,21c-0.3-0.1-0.4-0.3-0.4-0.6l0.3-1.6
		c0.1-0.3,0.3-0.4,0.6-0.3l1.5,0.3c0.2,0,0.4-0.2,0.4-0.5v-7.5c0-0.1-0.1-0.2-0.2-0.2h-6.4c-0.6,0-0.9-0.4-0.9-1.1V1.9
		c0-0.7,0.3-1,0.9-1h7.9c0.6,0,0.9,0.4,0.9,1v17.8c0,0.6-0.1,1.1-0.3,1.5c-0.2,0.4-0.6,0.6-1.2,0.5C70.6,21.7,69.6,21.5,67.8,21z
		 M65.1,4.7H70c0.1,0,0.2-0.1,0.2-0.2V3.1c0-0.1-0.1-0.2-0.2-0.2h-4.8c-0.1,0-0.2,0.1-0.2,0.2v1.3C64.9,4.6,65,4.7,65.1,4.7z
		 M70,6.7h-4.8c-0.1,0-0.2,0.1-0.2,0.2v1.3c0,0.2,0.1,0.3,0.2,0.3H70c0.1,0,0.2-0.1,0.2-0.3V6.9C70.2,6.8,70.1,6.7,70,6.7z"/>
	<path class="st133" d="M77.3,10.1h10.3c0.3,0,0.5,0.2,0.5,0.6v0.8c0,0.4-0.2,0.6-0.5,0.6h-3.9c-0.1,0-0.2,0.1-0.2,0.3v1.9l3.2-0.3
		c0.4,0,0.6,0.2,0.6,0.6l0.1,0.8c0,0.4-0.1,0.6-0.5,0.7l-3.4,0.3v2c0.3,0.2,0.7,0.3,1,0.4c0.7,0.2,1.9,0.3,3.4,0.3l10.2-0.1
		c0.3,0,0.5,0.2,0.5,0.6L98.5,21c0,0.4-0.2,0.5-0.5,0.5H86.7c-1.1,0-2-0.2-2.9-0.4c-0.9-0.3-1.6-0.6-2.4-1.2c-0.4-0.3-1-0.9-1.8-1.6
		c-0.3,1.1-0.6,2.1-1.2,3.2c-0.2,0.3-0.4,0.3-0.7,0.2l-1.1-0.8c-0.2-0.2-0.2-0.5,0-0.9c0.9-1.8,1.3-3.9,1.5-6.2
		c0-0.3,0.3-0.5,0.6-0.6l1.1,0.1c0.3,0.1,0.5,0.4,0.5,0.7c0,0.6-0.1,1.1-0.1,1.6c0.5,0.6,1,1.1,1.3,1.5v-4.7c0-0.2-0.1-0.3-0.2-0.3
		h-4.1c-0.3,0-0.5-0.2-0.5-0.6v-0.8C76.8,10.3,76.9,10.1,77.3,10.1z M77.4,7.3V2.7c0-1.2,0.6-1.8,1.7-1.8h6.7c1.1,0,1.6,0.6,1.6,1.8
		v4.7c0,1.2-0.5,1.9-1.6,1.9h-6.7C78,9.2,77.4,8.6,77.4,7.3z M79.4,3.6v0.3c0,0.2,0.1,0.2,0.2,0.2h5.7c0.1,0,0.2-0.1,0.2-0.2V3.6
		c0-0.4-0.2-0.6-0.5-0.6h-5C79.6,2.9,79.4,3.1,79.4,3.6z M80,7.1h5c0.3,0,0.5-0.2,0.5-0.6V6.2c0-0.2-0.1-0.3-0.2-0.3h-5.7
		c-0.1,0-0.2,0.1-0.2,0.3v0.3C79.4,6.9,79.6,7.1,80,7.1z M88.7,0.8h9.3c0.4,0,0.6,0.2,0.6,0.6v0.8c0,0.5-0.2,0.6-0.6,0.6h-3.7
		l-0.1,1.1h2.4c0.8,0,1.3,0.5,1.3,1.4v8.7c0,1-0.4,1.4-1.3,1.4h-0.6c0.7,0.7,1.4,1.2,2.2,1.5c0.3,0.1,0.4,0.3,0.3,0.6l-0.5,0.9
		c-0.1,0.2-0.5,0.3-1,0.1c-0.8-0.3-1.7-1-2.5-2c-0.1-0.3-0.1-0.6,0-0.8l0.3-0.4h-2.8l0.4,0.4c0.2,0.3,0.2,0.6,0,0.8
		c-0.9,1-1.7,1.6-2.5,2c-0.5,0.1-0.9,0.1-1-0.1l-0.5-0.9c-0.1-0.3,0-0.5,0.3-0.6c0.8-0.3,1.5-0.8,2.2-1.5h-0.6
		c-0.8,0-1.3-0.5-1.3-1.4V5.5c0-1,0.4-1.4,1.3-1.4h1.8L92,2.9h-3.4c-0.4,0-0.6-0.2-0.6-0.6V1.4C88.1,1,88.3,0.8,88.7,0.8z M90.8,6.8
		v0.3c0,0.1,0.1,0.2,0.2,0.2h4.6c0.1,0,0.2-0.1,0.2-0.2V6.8c0-0.4-0.2-0.6-0.6-0.6h-3.9C91,6.2,90.8,6.4,90.8,6.8z M91,10.5h4.6
		c0.1,0,0.2-0.1,0.2-0.2V9.4c0-0.1-0.1-0.2-0.2-0.2H91c-0.1,0-0.2,0.1-0.2,0.2v0.9C90.8,10.5,90.8,10.5,91,10.5z M91.3,13.6h3.9
		c0.4,0,0.6-0.2,0.6-0.6v-0.3c0-0.1-0.1-0.2-0.2-0.2H91c-0.1,0-0.2,0.1-0.2,0.2v0.3C90.8,13.3,91,13.6,91.3,13.6z"/>
</g>
</svg>
