<?xml version="1.0" encoding="utf-8"?>
<!-- Generator: Adobe Illustrator 22.0.1, SVG Export Plug-In . SVG Version: 6.00 Build 0)  -->
<svg version="1.1" id="圖層_1" xmlns="http://www.w3.org/2000/svg" xmlns:xlink="http://www.w3.org/1999/xlink" x="0px" y="0px"
	 viewBox="0 0 99.5 21.7" style="enable-background:new 0 0 99.5 21.7;" xml:space="preserve">
<style type="text/css">
	.st0{fill:#FFE5C2;}
	.st1{fill:#FFFFFF;}
	.st2{fill:#333333;}
	.st3{fill:#ABABAB;}
	.st4{fill:#9A9A9A;}
	.st5{fill:#4B4B4B;}
	.st6{fill:#515151;}
	.st7{fill:#989898;}
	.st8{fill:#585858;}
	.st9{fill:#797979;}
	.st10{fill:#6E6E6E;}
	.st11{fill:#8E8E8E;}
	.st12{fill:#BABABA;}
	.st13{fill:#7F7F7F;}
	.st14{fill:#949494;}
	.st15{fill:#AEAEAE;}
	.st16{fill:#C5C5C5;}
	.st17{fill:#7C7C7C;}
	.st18{fill:#919191;}
	.st19{fill:#A2A2A2;}
	.st20{fill:#A7A7A7;}
	.st21{fill:#8C8C8C;}
	.st22{fill:#8D8D8D;}
	.st23{fill:#6C6C6C;}
	.st24{fill:#5F5F5F;}
	.st25{fill:#616161;}
	.st26{fill:#9B9B9B;}
	.st27{fill:#D1D1D1;}
	.st28{fill:#A9A9A9;}
	.st29{fill:#848484;}
	.st30{fill:#5E5E5E;}
	.st31{fill:#4D4D4D;}
	.st32{fill:#7B7B7B;}
	.st33{fill:#262626;}
	.st34{fill:#5D5D5D;}
	.st35{fill:#FBFBFB;}
	.st36{fill:#696969;}
	.st37{fill:#6B6B6B;}
	.st38{fill:#0F0F0F;}
	.st39{fill:#5B5B5B;}
	.st40{fill:#353535;}
	.st41{fill:#272727;}
	.st42{fill:#383838;}
	.st43{fill:#A0A0A0;}
	.st44{fill:#CFCFCF;}
	.st45{fill:#B3B3B3;}
	.st46{fill:#D0D0D0;}
	.st47{fill:#636363;}
	.st48{fill:#E5E5E5;}
	.st49{fill:#343434;}
	.st50{fill:#545454;}
	.st51{fill:#525252;}
	.st52{fill:#B4B4B4;}
	.st53{fill:#D5D5D5;}
	.st54{fill:#707070;}
	.st55{fill:#F1F1F1;}
	.st56{fill:#767676;}
	.st57{fill:#E2E2E2;}
	.st58{fill:#AAAAAA;}
	.st59{fill:#4C4C4C;}
	.st60{fill:#7A7A7A;}
	.st61{fill:#A3A3A3;}
	.st62{fill:#C2C2C2;}
	.st63{fill:#808080;}
	.st64{fill:#9E9E9E;}
	.st65{fill:#2D2D2D;}
	.st66{fill:#787878;}
	.st67{fill:#8F8F8F;}
	.st68{fill:#5C5C5C;}
	.st69{fill:#303030;}
	.st70{fill:#8A8A8A;}
	.st71{fill:#E3E3E3;}
	.st72{fill:#9F9F9F;}
	.st73{fill:#898989;}
	.st74{fill:#B7B7B7;}
	.st75{fill:#6F6F6F;}
	.st76{fill:#999999;}
	.st77{fill:#6D6D6D;}
	.st78{fill:#909090;}
	.st79{fill:#BFBFBF;}
	.st80{fill:#B2B2B2;}
	.st81{fill:#3D3D3D;}
	.st82{fill:#1D1D1D;}
	.st83{fill:#777777;}
	.st84{fill:#606060;}
	.st85{fill:#6A6A6A;}
	.st86{fill:#373737;}
	.st87{fill:#AFAFAF;}
	.st88{fill:#575757;}
	.st89{fill:#727272;}
	.st90{fill:#717171;}
	.st91{fill:#737373;}
	.st92{fill:#F9F9F9;}
	.st93{fill:#ADADAD;}
	.st94{fill:#7E7E7E;}
	.st95{fill:#555555;}
	.st96{fill:#818181;}
	.st97{fill:#8B8B8B;}
	.st98{fill:#A8A8A8;}
	.st99{fill:#B9B9B9;}
	.st100{fill:#EBEBEB;}
	.st101{fill:#B6B6B6;}
	.st102{fill:#646464;}
	.st103{fill:#D6D6D6;}
	.st104{fill:#171717;}
	.st105{fill:#202020;}
	.st106{fill:#464646;}
	.st107{fill:#888888;}
	.st108{fill:#A6A6A6;}
	.st109{fill:#BEBEBE;}
	.st110{fill:#0C0C0C;}
	.st111{fill:#1A1A1A;}
	.st112{fill:#2E2E2E;}
	.st113{fill:#676767;}
	.st114{fill:#878787;}
	.st115{fill:#DBDBDB;}
	.st116{fill:#4F4F4F;}
	.st117{fill:#9C9C9C;}
	.st118{fill:#3B3B3B;}
	.st119{fill:#565656;}
	.st120{fill:#404040;}
	.st121{fill:#E6E6E6;}
	.st122{fill:#DFDFDF;}
	.st123{fill:#0E0E0E;}
	.st124{fill:#232323;}
	.st125{fill:#747474;}
	.st126{fill:#393939;}
	.st127{fill:#444444;}
	.st128{fill:#242424;}
	.st129{fill:#E7E7E7;}
	.st130{fill:#2B2B2B;}
	.st131{fill:#EF8F8F;}
	.st132{fill:#48B0D2;}
	.st133{fill:#F2F2F2;}
</style>
<g>
	<path class="st133" d="M2.3,16.8l0.9,0.3c0.3,0.2,0.4,0.4,0.3,0.7c-0.4,1.4-0.9,2.6-1.4,3.5c-0.2,0.3-0.4,0.4-0.8,0.3l-0.9-0.4
		C0,21-0.1,20.7,0.1,20.4c0.6-1,1.1-2,1.5-3.2C1.8,16.8,2.1,16.7,2.3,16.8z M1.6,0.9h5.9c0.6,0,0.9,0.4,0.9,1v13.4
		c0,0.7-0.3,1.1-0.9,1.1H1.6c-0.6,0-0.9-0.4-0.9-1.1V1.9C0.7,1.2,1,0.9,1.6,0.9z M2.7,3.3v1.8c0,0.1,0.1,0.2,0.2,0.2h3.4
		c0.1,0,0.2-0.1,0.2-0.2V3.3C6.4,3.1,6.4,3,6.3,3H2.9C2.7,3,2.7,3.1,2.7,3.3z M2.7,7.7v1.9c0,0.1,0.1,0.2,0.2,0.2h3.4
		c0.1,0,0.2-0.1,0.2-0.2V7.7c0-0.1-0.1-0.2-0.2-0.2H2.9C2.7,7.5,2.7,7.6,2.7,7.7z M2.7,12.2V14c0,0.2,0.1,0.3,0.2,0.3h3.4
		c0.1,0,0.2-0.1,0.2-0.3v-1.8c0-0.2-0.1-0.2-0.2-0.2H2.9C2.7,11.9,2.7,12,2.7,12.2z M9.3,20.4c0.2,0.4,0.1,0.7-0.3,0.9L8,21.7
		c-0.3,0.1-0.6,0-0.8-0.3c-0.8-1.3-1.3-2.5-1.6-3.6c-0.1-0.3,0-0.5,0.3-0.7l0.8-0.3c0.4,0,0.6,0.1,0.7,0.4C7.9,18,8.4,19.1,9.3,20.4
		z M22.1,7.6v0.9C22.1,8.8,22,9,21.6,9h-5.2c-0.2,0-0.2,0.1-0.2,0.3v0.6c0,0.1,0.1,0.2,0.2,0.2h3c0.6,0,0.9,0.3,0.9,1v4.7
		c0,0.1,0.1,0.2,0.2,0.2h1c0.3,0,0.5,0.2,0.5,0.5v0.9c0,0.4-0.1,0.5-0.5,0.5h-1c-0.1,0-0.2,0.1-0.2,0.3v2c0,0.9-0.3,1.4-1.1,1.5
		c-0.6,0.1-1.4,0-2.4-0.3c-0.3,0-0.4-0.2-0.4-0.6l0.1-1.2c0-0.3,0.2-0.5,0.5-0.5l0.7,0.1c0.2,0,0.3-0.1,0.3-0.3v-0.8
		c0-0.2-0.1-0.3-0.2-0.3h-5.8C12,17.9,12,18,12,18.2v2.9c0,0.4-0.2,0.6-0.6,0.6h-1.1c-0.4,0-0.6-0.2-0.6-0.6v-2.9
		c0-0.2-0.1-0.3-0.2-0.3H9.1c-0.3,0-0.5-0.1-0.5-0.5v-0.9c0-0.3,0.1-0.5,0.5-0.5h0.5c0.1,0,0.2-0.1,0.2-0.2V11c0-0.7,0.3-1,0.9-1
		h3.1c0.2,0,0.2-0.1,0.2-0.2V9.2C14,9.1,13.9,9,13.8,9H9.4C9.1,9,9,8.8,9,8.5V7.6c0-0.4,0.1-0.5,0.4-0.5h2.1c0.1,0,0.2-0.1,0.2-0.2
		V6.3c0-0.2-0.1-0.2-0.2-0.2h-1.4C9.9,6,9.7,5.9,9.7,5.5V4.8c0-0.4,0.1-0.5,0.4-0.5h1.4c0.1,0,0.2-0.1,0.2-0.2V3.5
		c0-0.1-0.1-0.2-0.2-0.2H9.6c-0.3,0-0.5-0.2-0.5-0.5V1.9c0-0.3,0.2-0.5,0.5-0.5h1.9c0.1,0,0.2-0.1,0.2-0.2V0.7
		c0-0.4,0.2-0.6,0.6-0.6h1.2c0.4,0,0.6,0.2,0.6,0.6v0.5c0,0.1,0.1,0.2,0.2,0.2h2c0.1,0,0.2-0.1,0.2-0.2V0.7c0-0.4,0.2-0.6,0.6-0.6
		H18c0.4,0,0.6,0.2,0.6,0.6v0.5c0,0.1,0.1,0.2,0.2,0.2h2c0.3,0,0.5,0.2,0.5,0.5v0.9c0,0.3-0.1,0.5-0.5,0.5h-2
		c-0.1,0-0.2,0.1-0.2,0.2v0.6c0,0.1,0.1,0.2,0.2,0.2h1.5c0.3,0,0.5,0.2,0.5,0.5v0.7c0,0.3-0.2,0.5-0.5,0.5h-1.5
		c-0.1,0-0.2,0.1-0.2,0.2v0.6c0,0.1,0.1,0.2,0.2,0.2h2.9C22,7.1,22.1,7.2,22.1,7.6z M12,12.2v0.6c0,0.1,0.1,0.2,0.2,0.2h1.6
		c0.2,0,0.2-0.1,0.2-0.2v-0.6c0-0.2-0.1-0.2-0.2-0.2h-1.6C12,11.9,12,12,12,12.2z M12,15v0.8c0,0.1,0.1,0.2,0.2,0.2h1.6
		c0.2,0,0.2-0.1,0.2-0.2V15c0-0.1-0.1-0.2-0.2-0.2h-1.6C12,14.8,12,14.8,12,15z M16.3,4.1V3.5c0-0.1-0.1-0.2-0.2-0.2h-2
		c-0.1,0-0.2,0.1-0.2,0.2v0.6c0,0.1,0.1,0.2,0.2,0.2h2C16.3,4.3,16.3,4.2,16.3,4.1z M16.3,6.8V6.3c0-0.2-0.1-0.2-0.2-0.2h-2
		c-0.1,0-0.2,0.1-0.2,0.2v0.6c0,0.1,0.1,0.2,0.2,0.2h2C16.3,7.1,16.3,7,16.3,6.8z M16.2,12.2v0.6c0,0.1,0.1,0.2,0.2,0.2H18
		c0.1,0,0.2-0.1,0.2-0.2v-0.6c0-0.2-0.1-0.2-0.2-0.2h-1.5C16.3,11.9,16.2,12,16.2,12.2z M16.2,15v0.8c0,0.1,0.1,0.2,0.2,0.2H18
		c0.1,0,0.2-0.1,0.2-0.2V15c0-0.1-0.1-0.2-0.2-0.2h-1.5C16.3,14.8,16.2,14.8,16.2,15z"/>
	<path class="st133" d="M26.3,21.5l-0.5-1.1c-0.1-0.3,0-0.5,0.3-0.6c2-0.4,3.6-1,5-1.8h-1.8c-0.6,0-0.9-0.3-0.9-1V8.4
		c0-0.7,0.3-1.1,0.9-1.1h15.2c0.6,0,0.9,0.4,0.9,1.1v8.5c0,0.7-0.3,1-0.9,1h-1.6c1.5,0.8,3,1.4,4.6,1.8c0.3,0.1,0.4,0.3,0.3,0.6
		l-0.5,1.2c-0.1,0.3-0.5,0.3-0.9,0.2c-2.1-0.6-4.1-1.5-6.1-2.7c-0.2-0.3-0.2-0.6,0-0.8l0-0.1h-6.7c0.1,0.2,0.1,0.5-0.1,0.7
		c-1.6,1.4-3.7,2.4-6.3,2.9C26.8,21.8,26.5,21.7,26.3,21.5z M26.8,5.2V1.9c0-0.7,0.3-1,0.9-1H46c0.6,0,0.9,0.4,0.9,1v3.3
		c0,0.7-0.3,1.1-0.9,1.1H27.7C27.1,6.3,26.8,5.9,26.8,5.2z M29.1,4.2h3.4c0.1,0,0.2-0.1,0.2-0.3V3.2C32.7,3,32.6,3,32.5,3h-3.4
		c-0.1,0-0.2,0.1-0.2,0.2v0.8C28.9,4.1,28.9,4.2,29.1,4.2z M30.7,10.5h12.5c0.1,0,0.2-0.1,0.2-0.3V9.7c0-0.2,0-0.2-0.2-0.2H30.7
		c-0.1,0-0.2,0.1-0.2,0.2v0.6C30.4,10.4,30.5,10.5,30.7,10.5z M30.7,13.2h12.5c0.1,0,0.2-0.1,0.2-0.2v-0.6c0-0.1,0-0.2-0.2-0.2H30.7
		c-0.1,0-0.2,0.1-0.2,0.2V13C30.4,13.1,30.5,13.2,30.7,13.2z M30.7,15.9h12.5c0.1,0,0.2,0,0.2-0.2v-0.6c0-0.2,0-0.2-0.2-0.2H30.7
		c-0.1,0-0.2,0.1-0.2,0.2v0.6C30.4,15.9,30.5,15.9,30.7,15.9z M34.7,3.2v0.8c0,0.2,0.1,0.3,0.2,0.3h3.7c0.1,0,0.2-0.1,0.2-0.3V3.2
		C38.9,3,38.8,3,38.7,3H35C34.8,3,34.7,3,34.7,3.2z M40.9,3.2v0.8c0,0.2,0.1,0.3,0.2,0.3h3.5c0.1,0,0.2-0.1,0.2-0.3V3.2
		C44.8,3,44.8,3,44.6,3h-3.5C41,3,40.9,3,40.9,3.2z"/>
	<path class="st133" d="M72.8,0.8c0.4,0,0.6,0.2,0.6,0.6v1.2c0,0.4-0.2,0.6-0.6,0.6h-6.3c-0.1,0-0.2,0.1-0.2,0.2v0.4
		c0,0.2,0.1,0.2,0.2,0.2h4.2c0.6,0,0.8,0.3,0.8,1v4c0,0.7-0.3,1.1-0.8,1.1h-16c-0.6,0-0.9-0.4-0.9-1.1v-4c0-0.6,0.3-1,0.9-1h4.2
		c0.1,0,0.2-0.1,0.2-0.2V3.5c0-0.1-0.1-0.2-0.2-0.2h-6.4c-0.4,0-0.5-0.2-0.5-0.6V1.5c0-0.4,0.2-0.6,0.5-0.6H72.8z M72.9,14.3
		c0.3,0,0.5,0.2,0.5,0.6V16c0,0.4-0.2,0.6-0.5,0.6h-8.8c-0.1,0-0.2,0.1-0.2,0.2v3c0,0.6-0.1,1.1-0.5,1.4c-0.3,0.4-0.6,0.5-1,0.4
		c-0.3,0-1.1-0.2-2.6-0.6c-0.4-0.1-0.5-0.3-0.5-0.6l0.2-1.4c0.1-0.3,0.3-0.4,0.6-0.3l1.2,0.2c0.2,0,0.4-0.2,0.4-0.4v-1.7
		c0-0.1-0.1-0.2-0.2-0.2h-8.8c-0.4,0-0.6-0.2-0.6-0.6v-1.2c0-0.4,0.2-0.6,0.6-0.6H72.9z M53.4,20.2c-0.1-0.4,0-0.7,0.3-0.9
		c0.5-0.3,1.1-0.6,1.6-1c0.6-0.4,1.1-0.8,1.7-1.3c0.3-0.2,0.6-0.3,0.8-0.1l0.8,0.9c0.2,0.2,0.2,0.6-0.1,1c-0.5,0.5-1.1,1-1.5,1.4
		c-0.5,0.4-1.2,0.8-1.9,1.3c-0.3,0.3-0.6,0.2-1-0.1L53.4,20.2z M70,11.1c0.3,0,0.5,0.2,0.5,0.6v1.1c0,0.4-0.2,0.6-0.5,0.6H55.2
		c-0.3,0-0.5-0.2-0.5-0.6v-1.1c0-0.4,0.2-0.6,0.5-0.6H70z M55.8,6.7v1.1c0,0.2,0.1,0.3,0.3,0.3h2.7C59,8,59.1,8,59.1,7.8V6.6
		c0-0.2-0.1-0.3-0.2-0.3h-2.7C55.9,6.3,55.8,6.4,55.8,6.7z M61.1,3.5v0.4c0,0.2,0.1,0.2,0.2,0.2h2.8c0.1,0,0.2-0.1,0.2-0.2V3.5
		c0-0.1-0.1-0.2-0.2-0.2h-2.8C61.2,3.2,61.1,3.3,61.1,3.5z M61.1,6.6v1.2C61.1,8,61.2,8,61.3,8h2.8c0.1,0,0.2-0.1,0.2-0.2V6.6
		c0-0.2-0.1-0.3-0.2-0.3h-2.8C61.2,6.3,61.1,6.4,61.1,6.6z M69.2,6.3h-2.6c-0.1,0-0.2,0.1-0.2,0.3v1.2C66.3,8,66.4,8,66.5,8h2.6
		c0.2,0,0.3-0.1,0.3-0.3V6.7C69.5,6.4,69.4,6.3,69.2,6.3z M67,18.7c-0.4-0.4-0.4-0.7-0.1-1l0.7-0.7c0.2-0.1,0.5-0.1,0.7,0
		c0.4,0.2,0.8,0.5,1.5,0.9c0.6,0.5,1.2,0.9,1.8,1.5c0.2,0.3,0.2,0.6,0,0.9l-0.6,0.8c-0.3,0.3-0.6,0.4-0.9,0.1
		C69.3,20.4,68.2,19.6,67,18.7z"/>
	<path class="st133" d="M78.4,16l-0.9-0.9c-0.2-0.3-0.2-0.6-0.1-0.9c1.8-1,3.3-2.3,4.7-3.9h-3.6c-0.4,0-0.6-0.2-0.6-0.6V8.8
		c0-0.4,0.2-0.6,0.6-0.6h5.3c0.4-0.7,0.8-1.3,1.2-2.1h-5.5c-0.4,0-0.6-0.2-0.6-0.6V4.5c0-0.4,0.2-0.6,0.6-0.6h2.8L81.5,2
		c-0.2-0.3-0.1-0.6,0.2-0.8l0.9-0.5C83,0.5,83.2,0.6,83.4,1l1.3,2.9h1.4c0.5-1.1,0.9-2.3,1.3-3.6c0.2-0.3,0.4-0.4,0.7-0.2l1.2,0.6
		c0.3,0.2,0.3,0.4,0.1,0.7l-0.9,2.5h3.5l1-2.9c0.1-0.4,0.4-0.5,0.8-0.4l0.9,0.4c0.3,0.2,0.4,0.5,0.3,0.8l-0.7,2H97
		c0.4,0,0.6,0.2,0.6,0.6v0.9c0,0.4-0.2,0.6-0.6,0.6h-5.6c0.4,0.7,0.9,1.4,1.4,2.1h5.4c0.4,0,0.6,0.2,0.6,0.6v0.9
		c0,0.4-0.2,0.6-0.6,0.6h-3.4c1.2,1.2,2.7,2.4,4.4,3.5c0.3,0.1,0.4,0.4,0.3,0.8l-0.8,1.1c-0.2,0.2-0.5,0.2-0.9,0
		c-2.4-1.7-4.5-3.6-6.1-5.4h-6.5c-0.6,0.8-1.2,1.5-1.8,2.2h9.2c0.4,0,1,0.4,1.5,1.4c0.2,0.3,0.2,0.7,0.1,1.3c0,0.7-0.2,1.7-0.4,2.8
		c-0.3,1.2-0.6,2.2-1.1,3c-0.3,0.4-0.8,0.6-1.3,0.6c-0.7,0-1.4-0.1-2.1-0.3c-0.4,0-0.6-0.3-0.6-0.6l0.1-1.2c0.1-0.3,0.2-0.5,0.5-0.5
		c1,0.2,1.5,0.2,1.6,0.1c0.1-0.1,0.2-0.2,0.3-0.4s0.3-0.6,0.5-1.4c0.2-0.7,0.3-1.6,0.4-2.5c0-0.1,0-0.2-0.2-0.3h-3.5
		c-0.6,3.4-2.4,5.8-5.4,6.9c-0.3,0.1-0.6,0-0.8-0.3l-0.5-1.1c0-0.4,0-0.6,0.2-0.7c2.4-1,3.7-2.6,4.1-4.8h-3c-0.4,0-0.6-0.2-0.6-0.6
		v-0.7c-1,1-2,1.8-3.1,2.5C79,16.1,78.7,16.2,78.4,16z M86.5,8.2H90c-0.4-0.7-0.8-1.4-1.2-2.1h-1.2C87.2,6.8,86.9,7.5,86.5,8.2z"/>
</g>
</svg>
