<?xml version="1.0" encoding="utf-8"?>
<!-- Generator: Adobe Illustrator 22.0.1, SVG Export Plug-In . SVG Version: 6.00 Build 0)  -->
<svg version="1.1" id="圖層_1" xmlns="http://www.w3.org/2000/svg" xmlns:xlink="http://www.w3.org/1999/xlink" x="0px" y="0px"
	 viewBox="0 0 99.6 21.8" style="enable-background:new 0 0 99.6 21.8;" xml:space="preserve">
<style type="text/css">
	.st0{fill:#FFE5C2;}
	.st1{fill:#FFFFFF;}
	.st2{fill:#333333;}
	.st3{fill:#ABABAB;}
	.st4{fill:#9A9A9A;}
	.st5{fill:#4B4B4B;}
	.st6{fill:#515151;}
	.st7{fill:#989898;}
	.st8{fill:#585858;}
	.st9{fill:#797979;}
	.st10{fill:#6E6E6E;}
	.st11{fill:#8E8E8E;}
	.st12{fill:#BABABA;}
	.st13{fill:#7F7F7F;}
	.st14{fill:#949494;}
	.st15{fill:#AEAEAE;}
	.st16{fill:#C5C5C5;}
	.st17{fill:#7C7C7C;}
	.st18{fill:#919191;}
	.st19{fill:#A2A2A2;}
	.st20{fill:#A7A7A7;}
	.st21{fill:#8C8C8C;}
	.st22{fill:#8D8D8D;}
	.st23{fill:#6C6C6C;}
	.st24{fill:#5F5F5F;}
	.st25{fill:#616161;}
	.st26{fill:#9B9B9B;}
	.st27{fill:#D1D1D1;}
	.st28{fill:#A9A9A9;}
	.st29{fill:#848484;}
	.st30{fill:#5E5E5E;}
	.st31{fill:#4D4D4D;}
	.st32{fill:#7B7B7B;}
	.st33{fill:#262626;}
	.st34{fill:#5D5D5D;}
	.st35{fill:#FBFBFB;}
	.st36{fill:#696969;}
	.st37{fill:#6B6B6B;}
	.st38{fill:#0F0F0F;}
	.st39{fill:#5B5B5B;}
	.st40{fill:#353535;}
	.st41{fill:#272727;}
	.st42{fill:#383838;}
	.st43{fill:#A0A0A0;}
	.st44{fill:#CFCFCF;}
	.st45{fill:#B3B3B3;}
	.st46{fill:#D0D0D0;}
	.st47{fill:#636363;}
	.st48{fill:#E5E5E5;}
	.st49{fill:#343434;}
	.st50{fill:#545454;}
	.st51{fill:#525252;}
	.st52{fill:#B4B4B4;}
	.st53{fill:#D5D5D5;}
	.st54{fill:#707070;}
	.st55{fill:#F1F1F1;}
	.st56{fill:#767676;}
	.st57{fill:#E2E2E2;}
	.st58{fill:#AAAAAA;}
	.st59{fill:#4C4C4C;}
	.st60{fill:#7A7A7A;}
	.st61{fill:#A3A3A3;}
	.st62{fill:#C2C2C2;}
	.st63{fill:#808080;}
	.st64{fill:#9E9E9E;}
	.st65{fill:#2D2D2D;}
	.st66{fill:#787878;}
	.st67{fill:#8F8F8F;}
	.st68{fill:#5C5C5C;}
	.st69{fill:#303030;}
	.st70{fill:#8A8A8A;}
	.st71{fill:#E3E3E3;}
	.st72{fill:#9F9F9F;}
	.st73{fill:#898989;}
	.st74{fill:#B7B7B7;}
	.st75{fill:#6F6F6F;}
	.st76{fill:#999999;}
	.st77{fill:#6D6D6D;}
	.st78{fill:#909090;}
	.st79{fill:#BFBFBF;}
	.st80{fill:#B2B2B2;}
	.st81{fill:#3D3D3D;}
	.st82{fill:#1D1D1D;}
	.st83{fill:#777777;}
	.st84{fill:#606060;}
	.st85{fill:#6A6A6A;}
	.st86{fill:#373737;}
	.st87{fill:#AFAFAF;}
	.st88{fill:#575757;}
	.st89{fill:#727272;}
	.st90{fill:#717171;}
	.st91{fill:#737373;}
	.st92{fill:#F9F9F9;}
	.st93{fill:#ADADAD;}
	.st94{fill:#7E7E7E;}
	.st95{fill:#555555;}
	.st96{fill:#818181;}
	.st97{fill:#8B8B8B;}
	.st98{fill:#A8A8A8;}
	.st99{fill:#B9B9B9;}
	.st100{fill:#EBEBEB;}
	.st101{fill:#B6B6B6;}
	.st102{fill:#646464;}
	.st103{fill:#D6D6D6;}
	.st104{fill:#171717;}
	.st105{fill:#202020;}
	.st106{fill:#464646;}
	.st107{fill:#888888;}
	.st108{fill:#A6A6A6;}
	.st109{fill:#BEBEBE;}
	.st110{fill:#0C0C0C;}
	.st111{fill:#1A1A1A;}
	.st112{fill:#2E2E2E;}
	.st113{fill:#676767;}
	.st114{fill:#878787;}
	.st115{fill:#DBDBDB;}
	.st116{fill:#4F4F4F;}
	.st117{fill:#9C9C9C;}
	.st118{fill:#3B3B3B;}
	.st119{fill:#565656;}
	.st120{fill:#404040;}
	.st121{fill:#E6E6E6;}
	.st122{fill:#DFDFDF;}
	.st123{fill:#0E0E0E;}
	.st124{fill:#232323;}
	.st125{fill:#747474;}
	.st126{fill:#393939;}
	.st127{fill:#444444;}
	.st128{fill:#242424;}
	.st129{fill:#E7E7E7;}
	.st130{fill:#2B2B2B;}
	.st131{fill:#EF8F8F;}
	.st132{fill:#48B0D2;}
	.st133{fill:#F2F2F2;}
</style>
<g>
	<path class="st133" d="M4.2,21v-7.9l-3.4,0.6c-0.2,0-0.4-0.1-0.5-0.4l-0.2-1.4c0-0.3,0.2-0.6,0.5-0.6c0.5,0,1-0.4,1.5-1.1l1.4-1.8
		l-3.3-3C0,5.2,0,4.8,0.1,4.4l0.7-1C1,3.3,1.2,3.3,1.4,3.4l0.4,0.3l2.8-3.5C4.9,0,5.1-0.1,5.5,0.1l0.8,0.8c0.2,0.3,0.2,0.6,0,0.9
		L3.5,5.2l1.4,1.3L8,2.7c0.2-0.3,0.5-0.3,0.6-0.2l0.8,0.9c0.1,0.2,0.2,0.5,0.1,0.8l-4.6,5.9c-0.1,0.2-0.1,0.3,0.2,0.2l2.8-0.6
		L7.7,8.7c0-0.2,0-0.4,0.2-0.6l1.2-0.3c0.2,0,0.4,0.2,0.4,0.5l0.9,4.5c0,0.2-0.1,0.4-0.2,0.6L9,13.7c-0.2-0.1-0.3-0.2-0.4-0.5
		l-0.2-0.9l-2.2,0.5V21c0,0.5-0.2,0.7-0.5,0.7H4.7C4.4,21.8,4.2,21.5,4.2,21z M0.3,20.1c-0.2-0.1-0.3-0.4-0.2-0.8l1.5-4.7
		c0.1-0.3,0.3-0.4,0.6-0.4l1,0.5c0.2,0.2,0.2,0.5,0.2,0.9l-1.5,4.7c-0.1,0.3-0.3,0.4-0.5,0.4L0.3,20.1z M7.8,19.6L7,15
		c0-0.3,0.1-0.5,0.3-0.6l0.9-0.2c0.3,0,0.5,0.2,0.6,0.5l0.9,4.3c0,0.4,0,0.6-0.2,0.8L8.3,20C8.1,20,7.9,19.9,7.8,19.6z M10.8,19.2
		v-8c0-1.2,0.6-1.8,1.9-1.8h5.6c0.5,0,0.7-0.3,0.7-0.9V4.1c0-0.6-0.2-0.8-0.7-0.8H11c-0.5,0-0.7-0.3-0.7-1V1.4
		c0-0.6,0.3-0.9,0.7-0.9h8.9c0.9,0,1.3,0.5,1.3,1.6v8.8c0,0.9-0.4,1.3-1.3,1.3h-6.2c-0.5,0-0.7,0.3-0.7,0.8v4.9
		c0,0.7,0.3,1.1,0.9,1.1h4.8c0.4,0,0.6-0.1,0.7-0.4c0.2-0.5,0.4-1.1,0.6-1.9c0.1-0.5,0.4-0.6,0.8-0.6l0.9,0.3c0.4,0.2,0.6,0.5,0.5,1
		l-0.7,3.1c-0.2,0.7-0.7,1.1-1.3,1.1h-7.7C11.5,21.6,10.8,20.8,10.8,19.2z"/>
	<path class="st133" d="M37.5,0c0.4,0,0.7,0.1,0.9,0.4c2.7,2,5.8,3.7,9.3,5.3c0.3,0.2,0.4,0.5,0.2,0.9l-0.6,1
		c-0.2,0.3-0.5,0.3-0.9,0.2c-1-0.5-2-0.9-3-1.4v0.2c0,0.4-0.2,0.6-0.6,0.6H31.2c-0.4,0-0.6-0.2-0.6-0.6V6.2
		c-1.1,0.6-2.2,1.1-3.4,1.6c-0.4,0.1-0.7,0.1-0.9-0.2l-0.6-1c-0.2-0.4-0.2-0.6,0.1-0.8c3.6-1.6,6.6-3.4,9.3-5.4
		C35.5,0.2,35.7,0,36.1,0H37.5z M27.9,20.8c-0.2,0.3-0.5,0.4-0.8,0.3l-1-0.6c-0.3-0.1-0.4-0.4-0.3-0.7c0.9-1.7,1.6-3.3,2.1-5
		c0.1-0.3,0.4-0.5,0.8-0.4l1,0.2c0.4,0.1,0.5,0.4,0.4,0.7C29.5,17.2,28.8,19,27.9,20.8z M39.6,13.5c-0.1-0.3,0-0.6,0.4-0.8
		c1-0.4,1.8-0.9,2.6-1.3c0.3-0.2,0.2-0.4-0.2-0.4H28.2c-0.3,0-0.5-0.2-0.5-0.6V9.4c0-0.4,0.2-0.5,0.5-0.5h17c0.5,0,0.9,0.6,1.1,1.7
		c0.1,0.5-0.2,0.9-0.7,1.3c-1.2,1.2-2.8,2.2-4.6,3c-0.4,0.1-0.6,0-0.9-0.3L39.6,13.5z M33.9,18.4c0,0.6,0.3,0.9,0.9,0.9h6
		c0.5,0,1-0.5,1.6-1.5c0.2-0.3,0.4-0.3,0.7-0.2l1,0.8c0.3,0.2,0.3,0.5,0.1,0.7c-1,1.5-1.9,2.3-2.8,2.4h-7.2c-0.8,0-1.5-0.2-1.9-0.7
		c-0.5-0.5-0.7-1.1-0.7-2v-3.9c0-0.4,0.2-0.6,0.6-0.6h1.1c0.4,0,0.6,0.2,0.6,0.6V18.4z M33,4.9h7.8c-1.4-0.8-2.7-1.7-4-2.7
		C35.6,3.2,34.4,4.1,33,4.9z M39.9,15.1c0.4,0.1,0.5,0.4,0.4,0.8l-0.4,1c-0.1,0.4-0.3,0.5-0.7,0.4l-4.3-1.3
		c-0.4-0.1-0.5-0.4-0.4-0.7l0.4-1.1c0.1-0.3,0.4-0.5,0.7-0.3L39.9,15.1z M44,14.9l0.9-0.5c0.3-0.2,0.6-0.1,0.7,0.2
		c0.8,1.6,1.6,3,2.3,4.2c0.1,0.3,0,0.5-0.2,0.7l-0.9,0.6c-0.3,0.2-0.6,0.1-0.8-0.2c-0.8-1.4-1.6-2.8-2.3-4.3
		C43.6,15.3,43.7,15.1,44,14.9z"/>
	<path class="st133" d="M51.8,20.1v-6.6c0-1.1,0.5-1.6,1.4-1.6h7.2c0.9,0,1.3,0.6,1.3,1.6v6.6c0,0.9-0.4,1.4-1.3,1.4h-7.2
		C52.3,21.5,51.8,21,51.8,20.1z M59.5,15.2c0-0.8-0.3-1.2-0.8-1.2h-3.9c-0.6,0-0.9,0.4-0.9,1.2v3c0,0.8,0.3,1.2,0.8,1.2h4
		c0.5,0,0.8-0.4,0.8-1.2V15.2z M56.2,9V2.5c0-1.1,0.5-1.6,1.4-1.6h10.1c0.8,0,1.3,0.5,1.3,1.6V9c0,0.9-0.4,1.4-1.3,1.4H57.7
		C56.7,10.4,56.2,10,56.2,9z M66.9,4.3c0-0.8-0.3-1.2-0.8-1.2h-6.7c-0.6,0-0.9,0.4-0.9,1.2V7c0,0.8,0.3,1.1,0.8,1.1h6.8
		c0.5,0,0.8-0.4,0.8-1.1V4.3z M63.6,20.1v-6.7c0-1.1,0.5-1.6,1.4-1.6h7.2c0.9,0,1.3,0.5,1.3,1.6v6.7c0,0.9-0.4,1.4-1.3,1.4H65
		C64,21.5,63.6,21,63.6,20.1z M71.3,15.1c0-0.8-0.2-1.2-0.8-1.2h-3.9c-0.6,0-0.9,0.4-0.9,1.2v3.2c0,0.8,0.3,1.2,0.8,1.2h4
		c0.6,0,0.8-0.4,0.8-1.2V15.1z"/>
	<path class="st133" d="M90.7,2c0,0.2,0.1,0.2,0.2,0.2h8c0.4,0,0.6,0.3,0.6,0.7v1.2c0,0.4-0.2,0.6-0.6,0.6H82.2
		c-0.3,0-0.5,0.1-0.5,0.5c0.2,5.6-0.4,10.6-1.8,14.8c-0.1,0.6-0.5,0.8-1,0.7l-1.1-0.5c-0.4-0.2-0.6-0.6-0.5-1.2
		c1.2-3.4,1.8-8,1.7-14V3.8c0-1.1,0.5-1.6,1.4-1.6h7.4c0.1,0,0.2-0.1,0.2-0.2V0.9c0-0.5,0.3-0.7,0.8-0.7H90c0.5,0,0.7,0.3,0.7,0.7V2
		z M88.6,12.4c0.1,0,0.2-0.1,0.2-0.2V5.6c0-0.5,0.2-0.7,0.7-0.7h1.1c0.5,0,0.7,0.2,0.7,0.7v1.8c0,0.2,0.1,0.2,0.2,0.2H99
		c0.4,0,0.6,0.2,0.6,0.7v0.9c0,0.5-0.2,0.7-0.6,0.7h-7.6c-0.1,0-0.2,0.1-0.2,0.2v2c0,0.1,0.1,0.2,0.2,0.2h4.8c0.6,0,1,0.4,1,1.1v6.6
		c0,0.8-0.3,1.2-1,1.2H83.9c-0.7,0-1-0.4-1-1.2v-6.6c0-0.7,0.3-1.1,1-1.1H88.6z M94.1,14.9h-8.1c-0.5,0-0.7,0.3-0.7,0.8v2.5
		c0,0.5,0.2,0.7,0.7,0.7h8.1c0.5,0,0.7-0.2,0.7-0.7v-2.5C94.9,15.2,94.6,14.9,94.1,14.9z"/>
</g>
</svg>
