<?xml version="1.0" encoding="utf-8"?>
<!-- Generator: Adobe Illustrator 22.0.1, SVG Export Plug-In . SVG Version: 6.00 Build 0)  -->
<svg version="1.1" id="圖層_1" xmlns="http://www.w3.org/2000/svg" xmlns:xlink="http://www.w3.org/1999/xlink" x="0px" y="0px"
	 viewBox="0 0 558.4 256.2" style="enable-background:new 0 0 558.4 256.2;" xml:space="preserve">
<style type="text/css">
	.st0{fill:#FFE5C2;}
	.st1{fill:#FFFFFF;}
	.st2{fill:#333333;}
	.st3{fill:#ABABAB;}
	.st4{fill:#9A9A9A;}
	.st5{fill:#4B4B4B;}
	.st6{fill:#515151;}
	.st7{fill:#989898;}
	.st8{fill:#585858;}
	.st9{fill:#797979;}
	.st10{fill:#6E6E6E;}
	.st11{fill:#8E8E8E;}
	.st12{fill:#BABABA;}
	.st13{fill:#7F7F7F;}
	.st14{fill:#949494;}
	.st15{fill:#AEAEAE;}
	.st16{fill:#C5C5C5;}
	.st17{fill:#7C7C7C;}
	.st18{fill:#919191;}
	.st19{fill:#A2A2A2;}
	.st20{fill:#A7A7A7;}
	.st21{fill:#8C8C8C;}
	.st22{fill:#8D8D8D;}
	.st23{fill:#6C6C6C;}
	.st24{fill:#5F5F5F;}
	.st25{fill:#616161;}
	.st26{fill:#9B9B9B;}
	.st27{fill:#D1D1D1;}
	.st28{fill:#A9A9A9;}
	.st29{fill:#848484;}
	.st30{fill:#5E5E5E;}
	.st31{fill:#4D4D4D;}
	.st32{fill:#7B7B7B;}
	.st33{fill:#262626;}
	.st34{fill:#5D5D5D;}
	.st35{fill:#FBFBFB;}
	.st36{fill:#696969;}
	.st37{fill:#6B6B6B;}
	.st38{fill:#0F0F0F;}
	.st39{fill:#5B5B5B;}
	.st40{fill:#353535;}
	.st41{fill:#272727;}
	.st42{fill:#383838;}
	.st43{fill:#A0A0A0;}
	.st44{fill:#CFCFCF;}
	.st45{fill:#B3B3B3;}
	.st46{fill:#D0D0D0;}
	.st47{fill:#636363;}
	.st48{fill:#E5E5E5;}
	.st49{fill:#343434;}
	.st50{fill:#545454;}
	.st51{fill:#525252;}
	.st52{fill:#B4B4B4;}
	.st53{fill:#D5D5D5;}
	.st54{fill:#707070;}
	.st55{fill:#F1F1F1;}
	.st56{fill:#767676;}
	.st57{fill:#E2E2E2;}
	.st58{fill:#AAAAAA;}
	.st59{fill:#4C4C4C;}
	.st60{fill:#7A7A7A;}
	.st61{fill:#A3A3A3;}
	.st62{fill:#C2C2C2;}
	.st63{fill:#808080;}
	.st64{fill:#9E9E9E;}
	.st65{fill:#2D2D2D;}
	.st66{fill:#787878;}
	.st67{fill:#8F8F8F;}
	.st68{fill:#5C5C5C;}
	.st69{fill:#303030;}
	.st70{fill:#8A8A8A;}
	.st71{fill:#E3E3E3;}
	.st72{fill:#9F9F9F;}
	.st73{fill:#898989;}
	.st74{fill:#B7B7B7;}
	.st75{fill:#6F6F6F;}
	.st76{fill:#999999;}
	.st77{fill:#6D6D6D;}
	.st78{fill:#909090;}
	.st79{fill:#BFBFBF;}
	.st80{fill:#B2B2B2;}
	.st81{fill:#3D3D3D;}
	.st82{fill:#1D1D1D;}
	.st83{fill:#777777;}
	.st84{fill:#606060;}
	.st85{fill:#6A6A6A;}
	.st86{fill:#373737;}
	.st87{fill:#AFAFAF;}
	.st88{fill:#575757;}
	.st89{fill:#727272;}
	.st90{fill:#717171;}
	.st91{fill:#737373;}
	.st92{fill:#F9F9F9;}
	.st93{fill:#ADADAD;}
	.st94{fill:#7E7E7E;}
	.st95{fill:#555555;}
	.st96{fill:#818181;}
	.st97{fill:#8B8B8B;}
	.st98{fill:#A8A8A8;}
	.st99{fill:#B9B9B9;}
	.st100{fill:#EBEBEB;}
	.st101{fill:#B6B6B6;}
	.st102{fill:#646464;}
	.st103{fill:#D6D6D6;}
	.st104{fill:#171717;}
	.st105{fill:#202020;}
	.st106{fill:#464646;}
	.st107{fill:#888888;}
	.st108{fill:#A6A6A6;}
	.st109{fill:#BEBEBE;}
	.st110{fill:#0C0C0C;}
	.st111{fill:#1A1A1A;}
	.st112{fill:#2E2E2E;}
	.st113{fill:#676767;}
	.st114{fill:#878787;}
	.st115{fill:#DBDBDB;}
	.st116{fill:#4F4F4F;}
	.st117{fill:#9C9C9C;}
	.st118{fill:#3B3B3B;}
	.st119{fill:#565656;}
	.st120{fill:#404040;}
	.st121{fill:#E6E6E6;}
	.st122{fill:#DFDFDF;}
	.st123{fill:#0E0E0E;}
	.st124{fill:#232323;}
	.st125{fill:#747474;}
	.st126{fill:#393939;}
	.st127{fill:#444444;}
	.st128{fill:#242424;}
	.st129{fill:#E7E7E7;}
	.st130{fill:#2B2B2B;}
	.st131{fill:#EF8F8F;}
	.st132{fill:#48B0D2;}
	.st133{fill:#F2F2F2;}
</style>
<g>
	<path class="st133" d="M0,155.2l4.2-0.3c15.7,2.5,23.6,9.1,23.6,19.7c0,1.5-2.4,6.3-7.1,14.4c-1-1-5.5-9.8-13.4-26.5
		C2.4,159,0,157.1,0,156.7V155.2z M53.2,109.4l5.2-0.3c7.4-0.4,12.2,1.7,14.4,6.3v1.4c-2.3,0.1-4.1,3.5-5.6,10.2l22.4-1.1
		c3.2-0.2,8.5-0.8,15.9-1.8v-1.7l7-0.3c4.3-0.2,6.7,0.5,7,2.1v2.4c-15.3,1.4-26.5,2.3-33.6,2.6l-19.5,0.9l-10.5,15.8
		c3.5-0.2,8.9,0.5,16.2,1.9l25.1-1.3V143l7.9-0.4c2.5-0.1,5.8,0.6,9.7,2.1c-0.6,9.1-0.9,15.8-0.9,20.1v16.9l8.6-0.5
		c4.7-0.2,9.7,0.4,15.2,1.9v2.1h-0.6c-2.2,0.1-10,0.2-23.2,0.3c-1.3,17.5-1.9,26.9-1.9,28.2c7.3,0.4,11,1.4,11,2.9
		c0,1-0.5,1.5-1.5,1.5l-4.6,0.2l-5-0.7c0,10.4-3.6,20.7-10.9,30.9l-9.9,0.5c-2.7,0.1-9.4-2.3-20.1-7.3l-0.6,0.1v-1.1l17.2-0.9
		c3.8-9,5.6-16.3,5.6-22l-8.7,0.4l-8.3,6h-0.4c0-0.7-1-2.5-3-5.4l-4.8,1.2l-13.7,0.7c-1.3,0-2.9,2.6-4.8,7.6l-5.2,0.3
		c-4.1,0.2-6.1-0.2-6.1-1.1c3.7-13.3,6.4-25.2,8.3-35.7c-7.9,1-12,1.6-12.3,1.6l-6.7-0.6v3.1c0,1.4,0.3,2.6,0.9,3.6
		c-4.2,23.3-6.7,35.6-7.2,36.8c-1,0.6-2.1,1-3.4,1l-0.9,0.1c-7.7,0.4-11.6-1.2-11.6-4.6c3.4-19,8.5-32.3,15.4-39.9
		c0.4,0,2.3-1.9,5.6-5.8h0.4v2.8c14.5-1.3,21.7-2.7,21.7-4.2c1.8-14.9,4.3-27,7.5-36.5l-2.5,0.1c-3.8,4.1-10,8.7-18.3,13.8l-2.3,0.1
		v-0.5c1.2-3.4,8.2-17.8,21.1-43.2l0.9-4.8C53.8,112.5,53.2,110.8,53.2,109.4z M15.2,120.4c10.8,2.7,16.2,7.2,16.2,13.5v3.7
		c0,3-2.4,6-7.1,9.2l-0.5,0.1c0-0.8-2.1-3-6.4-6.8c-1.1-9-3-14.8-5.5-17.2v-1.3C12.1,121.6,13.2,121.2,15.2,120.4z M75.5,189.2
		l-4.3-0.5l-6.4,0.3c-2,0.1-4.9,9.4-8.7,27.7l15.4-0.8l-3.7-19.4v-0.6l6-0.3c7.7-0.4,11.6,3.8,11.6,12.3c0.6,0,0.9,0.1,0.9,0.4
		l-0.9,5.6v1.3l7.9-0.4c1.3-10.2,1.9-19.6,1.9-28.3l-17.8,0.9C76.2,187.6,75.5,188.2,75.5,189.2z M70,151c-4.3,21-6.5,32.4-6.5,34
		c0.6,0,4.8-0.5,12.6-1.5v-1.3c-1.7-3.4-3.5-12.1-5.4-26l5.1-0.3c7.1,1.1,10.7,4.5,10.7,10.1v7.3c0,2.8-2.4,6.1-7.1,9.9l16-0.7
		v-16.8c0-3.2,0.3-8.6,0.9-16L70,151z"/>
	<path class="st133" d="M133.2,158.4l3.8-0.2c8.2-0.4,14.7,1.8,19.4,6.8c6.7,2.9,10.6,5.5,11.6,8v2.8c0,1.1-0.5,1.7-1.6,1.7
		l-11.6,0.6c-2.5-3-10.6-8.7-24.2-17.1C130.5,160.2,131.4,159.4,133.2,158.4z M158.8,185.5l0.7-0.1c6.3-0.2,9.4,0.1,9.4,1
		c-2.5,5.8-4.1,12.7-4.8,20.8l-10.7,34.5l-1.6,0.1c-0.4,0-0.6-0.4-0.6-1.3l-2.5,1.4l-11.6,0.6c-1,0-1.6-0.5-1.6-1.6v-0.9
		c3.5-4.8,9.7-19.7,18.5-44.7C155,195.4,156.7,192.1,158.8,185.5z M153.4,119.2l1.1,2.1l2.1-1.3c7.8,3.7,12.9,6.6,15.3,8.7v4.8
		c0,0.8-0.9,1.7-2.8,2.7l-10.2,0.6c0-4.8-5.2-8.7-15.6-11.8v-4.3C148.8,119.8,152.2,119.3,153.4,119.2z M230,111.5l4.8-0.3
		c6.7-0.3,10.2,1,10.4,4.1c0,7.8-5.2,15.8-15.7,24v1.6l13.1-0.6c0.4,0,0.6,0.3,0.6,1.1l2.5-1.4l1.7-0.1c2.4,1.8,4.9,2.7,7.5,2.6v0.6
		c-0.6,1.8-2.4,2.8-5.5,2.9c-12,0-19.6,0-22.7,0.1l-1.1,2.3v6l3,9.7v3.3l12.1-0.7c0.4,0,0.6,0.5,0.6,1.3c1.6-0.9,2.6-1.4,3.2-1.4
		c2.4,1.4,5.9,2.5,10.4,3.3v1.4l-7.5,0.4c-1.6,0.1-2.9,0.5-3.9,1.2c-1.1-0.6-2.4-0.9-3.9-0.8l-3.9,0.1c-1.6,0.1-2.9,0.5-4,1.1
		c-1.2-0.6-2.2-0.8-3.1-0.8l-1.1,2.2v5c0,2.4,0.3,5.3,1,8.7c-0.7,1.3-1,2.3-1,3c0,4.9,2.1,7.2,6.3,7c8.9-1.1,14.4-1.8,16.6-1.8
		c4.4-0.2,10.1,0.8,17.3,2.9v0.7c0,1-0.5,1.6-1.6,1.7l-11.9,0.6l-6.4,1.4c0-0.7-0.6-1-1.7-0.9v0.8l-1.5-0.7l-3,0.1
		c-0.9,0-1.4,0.3-1.4,0.9l-1.6-0.7l-1.6,0.9c0-0.5-0.6-0.7-1.7-0.6v0.8l-1.6-0.7l-3.3,0.1l-1.1,4.3l1,4.8
		c-1.4,13.4-2.7,20.6-3.9,21.6v2.1c0,1.5,0.3,2.8,0.9,3.8l-1,2.1c0.7,1.1,1.1,2.4,1.1,3.8c-0.6,1.8-2.5,2.8-5.5,2.9
		c-6.3-1.4-9.4-2.8-9.4-4.1v-15.6c-0.9-15.8-2.3-23.7-4.3-23.6l-5.9,0.3c-0.9,0-1.4,0.4-1.4,1.1c-6.7-0.3-10-0.9-10-1.7l-2.3,1.3
		c-1.1-0.6-2.6-0.8-4.3-0.8v1c-8.7-0.7-13-1.6-13-2.8c0-1.1,0.9-1.7,2.6-1.8c5.2-0.3,17.3-1.2,36.5-2.8v-12.2c0-1.4,0.4-2.7,1.1-3.9
		c-0.7-1.2-1.1-2.5-1.1-3.9v-4.3l-30.3,1.5v-2.5c0-1.1,0.9-1.7,2.6-1.7c1.7-0.1,10.2-0.9,25.7-2.3c0.2-1.3,0.9-2,2-2.1
		c-1.3-12.8-2.8-19.1-4.3-19c-7.4,1.7-12.6,2.6-15.6,2.7l-11.4,0.6v-4.2c7.1-0.9,11.2-2.1,12.4-3.5c1.2,0.6,2.2,0.8,3.1,0.8
		c0.2-1.3,0.8-1.9,1.7-2c0.4,0,0.6,0.4,0.6,1.1c1.7-0.9,5.5-1.8,11.5-2.8v-1.7c-4.9,0.3-10.5-4.3-16.7-13.6
		c-2.2-1.9-3.8-2.9-4.8-2.8v-3.2c5.9-0.3,8.8-1.1,8.8-2.3c5.9,0.9,12.2,6,19,15.5l2.2,1c5.4-2.8,9.4-8.6,12.1-17.5V116
		c-0.7-1.1-1-2.3-1-3.6L230,111.5z"/>
	<path class="st133" d="M290.6,167.6l6.7-0.3c3.2-0.2,4.9,0.3,5.1,1.5v1.3c0,3.7-5.3,11.2-15.9,22.6l5.4-1l6-0.3
		c1.4-0.1,2.8-2.8,4.2-8.3l1.2-0.7l1.9-0.1c1.1,0,3.5,0.9,7.1,2.8v0.5c0,1.9-6.8,13.1-20.3,33.4l1.2,0c2.9-1.5,6.7-3.1,11.6-4.7
		l-0.7-3.5c0.3-2.5,0.9-3.8,1.8-3.9l5.3-0.3c1.6-0.1,2.4,3.8,2.4,11.6l-3.9,6.1c-0.4,0-1-1.1-1.7-3.2c-1,0-1.7-1.1-2-3.4
		c-14.2,6.6-22.1,9.9-23.6,10l-1.4,0l-3.1-0.5v-0.9c1.3-0.1,3.1-3.8,5.3-11.1l13-21.2c-4.8,1.2-9,1.9-12.6,2.1l-2.7,0.1l-3.1-0.4
		v-0.3c1.8-1.1,3.1-4.3,4-9.6c2.5-3.3,5.5-8.7,8.9-16.2l-1.5,0.1v-1C289.6,168,290,167.6,290.6,167.6z M281.9,234.2h0.7
		c3.9-0.2,5.8,1.6,5.8,5.4v6c0,0.8-0.4,1.1-1.1,1.2l-5.3,0.2c-2.1,0.1-3.1-0.2-3.1-0.9s-0.2-4.2-0.7-10.6
		C279.5,234.8,280.8,234.3,281.9,234.2z M294.6,228.9l4.7-0.2c2.1-0.1,3.1,4.1,3.1,12.8l-2.5,2l-0.6,0.1c-4.3,0.2-6.4-1.4-6.4-4.8
		v-1.3C292.9,231.8,293.5,229,294.6,228.9z M308.7,227.6c2.7-0.1,4.4,1.7,5,5.4l-1.9,1.3l-1.2,0c-3.9,0.2-5.8-1.4-5.8-4.7v-1.2
		C305.1,228.4,306.4,228.1,308.7,227.6z M320.7,225.6c2.1-0.1,3.1,2.9,3.1,9v7.3c-0.7,1.7-2.2,2.6-4.4,2.7l-1.4,0
		c-2.2,0.1-3.4-0.4-3.8-1.6v-0.6c0-11,1.7-16.6,5.1-16.8L320.7,225.6z M339.5,159.1l2-0.1c2.8-0.1,4.7,1,5.8,3.5
		c0,2.5-5.6,6.5-16.7,12l-0.9,1.8l3.8-0.2c11.6-0.6,21-1.9,28.1-4.1l1.3,0c3.4-0.2,5.1,0.5,5.1,2.1c-1.4,28.9-2.3,43.4-2.5,43.4
		c-1.5,1-2.8,1.5-3.9,1.6l-2,0.1c-1.9,0.1-3.6-0.2-5.1-0.9l0.6-3.2v-1.7l-15,0.7c-1.6,0.1-3.6,0.4-6,0.9l-4.9-1.1v4.7l-4.5,0.9
		l-2.6,0.1c-1.2,0.1-2.4-0.3-3.8-1l0.7-6.6v-36.8c0-1,1.5-1.9,4.5-2.7c1.4-0.1,3.2,0.5,5.4,1.8C335.5,164.2,339,159.1,339.5,159.1z
		 M330.1,226.5c3.4,0.1,5.1,0.6,5.1,1.5v0.6c0,11.8,2.3,17.6,6.9,17.3l11-0.5c0-4.9,1.9-7.5,5.8-7.7c3.4,1.1,5.1,3.6,5.1,7.5v0.7
		c0,1.2-1.9,2.1-5.8,2.7c-20.8,1-31.1-0.4-31.1-4.2c-0.9-3.5-1.3-7.7-1.3-12.6v-3.3C325.7,227.6,327.2,226.9,330.1,226.5z
		 M329.2,178.5v13.9l1-0.1l6.3-14.1L329.2,178.5z M335.2,195.6c-0.1,2.3-2.1,3.5-6,3.7c0,2.3,0.2,4.6,0.6,6.9
		c-0.4,1.6-0.6,3.7-0.6,6.3c4.9-0.2,7.9-2.6,9.2-7.2c1.8-2,2.7-3.9,2.7-5.6c0-0.7-1.6-2.1-4.9-4.1L335.2,195.6z M338.9,222l5.2-0.2
		c4.7-0.2,7.5,4.2,8.5,13.3c-1.5,4.4-3.2,6.6-5.1,6.7c-1.6-0.2-2.4-0.5-2.4-0.8c0.5-0.9,0.7-1.6,0.7-2.3c-1.7-0.9-4-5.5-6.8-13.8
		c-0.8,0-1.2-0.7-1.2-2.2L338.9,222z M345.4,189l-6.2,0.3c0,0.6-0.3,1.4-0.9,2.5c1.6-0.1,3.8,0.7,6.6,2.4c1.4-2.4,2.2-4.5,2.2-6.2
		L345.4,189z M340.5,187.8l1.1-0.1c4.7-1.6,8.3-2.4,10.6-2.5c2.1-0.1,3.1,0.5,3.1,1.8l1.1,0l0.7-6.9v-3.6
		c-9.2,0.5-13.9,1.4-13.9,2.9C343.3,179.9,342.3,182.7,340.5,187.8z M355.3,188.6c-2.7,7.6-4.1,12.8-4.1,15.6c-0.2,0-0.7,0.7-1.3,2
		c-0.7-0.4-1.4-0.5-2-0.5c-2.7,3.1-4.1,4.9-4.1,5.4l11.2-0.5c0.5-10,0.9-17,1.3-21v-1L355.3,188.6z M362.2,226.2l2-0.1
		c3.3-0.2,6.6,2.3,9.8,7.3c-0.4,2.5-1,3.8-1.8,3.8l-5.1,0.2c0-1.5-2-3.6-6.1-6.3l-1.9-2.4V227L362.2,226.2z"/>
	<path class="st133" d="M416.4,157.5l6.7-0.3c2.3-0.1,3.8,0.6,4.5,2.2v0.6c0,1-3.8,2.3-11.4,3.7v0.9l0.7,6.3l8.3-1.2l3.3-0.1
		c3.2-0.2,4.9,0.3,5.1,1.5v1.2c-4.8,1.1-10.4,1.8-16.7,2.1v9.8c1.8-0.1,6.6-0.6,14.4-1.4c2.5-0.1,3.7,1.2,3.7,3.9
		c7.4-2,11.6-3.1,12.5-3.4l2.1-17.9c-0.9,0-1.4-0.3-1.4-1v-1.1l3.2-0.8l4-0.2c4.3,0.1,6.4,1,6.4,2.7c-1.3,5.7-2,11.6-2,17.8l1,0
		c3.1-0.6,5.6-1,7.5-1.1c0-1.8,1.7-2.7,5.1-2.9l2.6-0.1c3.4-0.2,5.5,0.7,6.5,2.8c0,19.5-2.7,37.4-8,53.7
		c-3.7,6.8-7.5,10.3-11.4,10.5c0,1.8-1.5,2.7-4.5,2.8c-3.4,0.2-5.1-1-5.1-3.5c0-1-0.9-3.6-2.7-8V236l3.1-0.8c1-0.1,3.1,0.5,6.1,1.8
		c5.9-12,8.8-28.3,8.8-48.9l0.8-3l-3.7,0.2c-5.1,0.3-7.6,1.6-7.6,4c-3.9,25.6-8.9,41.6-15.3,48.1c-2.1,1.1-4.6,3.7-7.4,7.8
		c-6.4,2.5-10.3,3.8-11.8,3.9c-0.8-0.4-1.5-0.6-1.8-0.6v-0.3c9.1-7.8,14.2-15,15.4-21.5c4.4-10,7.6-23,9.4-39l-1,0l-4,0.8l-7.5,0.4
		c-0.9,14.1-1.3,23.3-1.3,27.6c-1.2,0.9-3,1.4-5.4,1.5v1.2l2-0.1v1.1c0,1-4.5,2.5-13.4,4.5v6c4.5-1.6,8.5-2.5,12-2.7v0.3
		c-4.6,5.9-15.7,11.8-33.3,17.6l-2,0.1c-2.5-0.3-3.8-0.8-3.8-1.6c0-1,5.1-3.9,15.4-8.6v-8.5c-6.2,0.8-10.8,1.2-13.7,1.4l-0.6,0
		l-3.1-0.5v-1.6c12-2.5,18.1-4.2,18.1-5.1v-6.3l-7.8,0.4v3.6c0,1.3-2.4,2.2-7.1,2.7c-3.8,0.2-5.7-1.6-5.7-5.4v-13.4
		c0-3.8,0.2-9.8,0.6-18c2-1,4.1-1.5,6.5-1.6c3-0.2,4.5,0.7,4.5,2.4l10.5-0.5v-9.8c-1.7,0.1-8.3,0.6-19.7,1.6
		c-2.1-0.2-3.1-0.7-3.1-1.6v-0.5c3.7-1.5,9.2-2.4,16.5-2.7l6.3-0.3v-6.5l-16.1,0.8v-0.4c0-1.6,8.2-3.9,24.7-7
		C415.4,158,415.8,157.5,416.4,157.5z M396.7,189.5l0.7,9.8l8.5-0.4v-10.6h-1L396.7,189.5z M397.4,202.2v9.8l7.8-0.4l0.7-7v-2.9
		L397.4,202.2z M416.2,214v5.9c2.6-0.6,4.8-1,6.5-1.1v-1.1l-1.4,0v-4.7L416.2,214z M416.8,187.1v10.5l5.9-0.3v-0.9
		c0-0.7,0.2-3.9,0.6-9.7L416.8,187.1z M416.8,201.2v9.2l3.6-0.2c1,0,1.6-0.6,1.6-1.7v-7.6L416.8,201.2z"/>
	<path class="st133" d="M552.4,172.2c3.6-0.2,5.4,1.7,5.4,5.9v48.7c0,3.2-2.1,4.9-6.4,5.1v1c2.9,1.3,4.5,6.4,5,15.4
		c0,2.2-1.4,4.1-4.3,5.8c0,1.4-0.4,2.1-1.2,2.1h-0.4c0-2.9-1.2-4.2-3.7-4.1l-6.4-18.3c-0.4,0-0.6-0.1-0.6-0.4v-1.2l4.3-0.9v-0.9
		c0-1.6-0.2-2.4-0.7-2.4l0.7-3.3v-3.9c-15.1,1.7-27.2,2.8-36.4,3.2v4.5c0,1.3-2.5,2.1-7.6,2.4c-1.2,0-3.2-0.3-6.2-1V205
		c0-4.4,0.2-10.7,0.7-18.8c-0.5-0.8-0.9-2.9-1.4-6.2c1.5-0.9,2.8-1.4,4-1.5l2.9-0.2c3.1,0,4.7,0.4,4.7,1.4l1.8-1l37.4-1.8
		C544.1,174,546.9,172.5,552.4,172.2z M517.3,228.4l4.7,0.5c0,5.6-5.2,11.2-15.7,16.8c0,0.7-0.7,1.4-2,2.1l-5.4,0.3v-1
		c7.8-12.1,12.3-18.3,13.4-18.4L517.3,228.4z M508,146.5c4.6,0.5,6.9,1.8,6.9,3.9l18.2-0.9c2-2,3.9-3,5.7-3l3.6-0.2
		c4.1-0.2,6.2,1.3,6.2,4.4v0.5l-1.4,0.1v5.2c0,9.4-2.1,14.2-6.2,14.4l-3.6,0.2c-2.7,0.1-4.1-1-4.1-3.4l-17,0.8
		c0,2.9-2.5,4.4-7.6,4.7c-4.1-0.3-6.2-1-6.2-2.3v-17.9l-0.7-3.4C504.3,147.6,506.3,146.5,508,146.5z M506.9,183.3l0.8,1.6v8.1
		l36.4-3.2V180l-19.6,0.9C517.2,181.3,511.4,182.1,506.9,183.3z M510.6,196.7c0,0.6-0.2,1.4-0.7,2.3v3.4c-1.4,0.1-2.1,1.4-2.1,3.9
		v1.7l9.6-0.5c6.4-0.3,15.3-1.7,26.8-4.2v-9.1l-15.4,0.7C524.7,195.2,518.6,195.8,510.6,196.7z M523.8,211.1l-16,0.8v8.4
		c24.2-2.3,36.4-3.7,36.4-4.2c0-0.6-0.2-0.9-0.7-0.9l0.7-3.3v-2.5l-2.4,0.1c-1,0-2-0.2-2.9-0.6C536.3,210,531.2,210.7,523.8,211.1z
		 M515.6,154.2v0.9c0,0.3,0.2,3.5,0.7,9.6l17-0.8v-6.7l0.8-4L515.6,154.2z"/>
	<path class="st133" d="M288.5,77.1l1.4-0.1c3.2,0.3,4.9,0.9,4.9,1.8v3.4l14.9-0.7c2.1-0.7,3.4-1.1,3.6-1.1c0.4,0,1.8,0.2,4,0.7v0.7
		c-0.2,0.8-1.3,1.3-3.5,1.4l-19,0.9v5.4c6.7-0.6,10.9-1.3,12.6-2c3.2,0.3,4.9,0.9,4.9,1.8v0.9c-0.9,15.5-2,23.3-3.1,23.4l-0.5,0
		c-4.2,0.2-6.2-0.4-6.2-1.8c0.3-3.8,0.5-5.9,0.5-6.2c-1.7,0.1-4.5,0.4-8.2,0.9v10.9l11.7-0.6c3.9,0,5.8,0.5,5.8,1.4
		c0,0.5-0.3,0.8-0.8,0.8l-2.8,0.1c-1.8,0.1-2.9,0.3-3.3,0.6c-1.6-0.2-3-0.3-4.1-0.2l-6.6,0.3v6.3l19-0.9c3.8,0.4,5.8,1,5.8,1.8
		l-0.4,0.8c-6.5,0-11.4,0.1-14.6,0.3l-32.1,1.6c-3.9,0-5.8-0.5-5.8-1.3c0.1-0.5,0.3-0.8,0.7-0.8l22.7-1.1v-0.8
		c-1.6,0.1-2.5-0.3-2.8-1.1v-4.3l-3.4,0.2c-6.6,0.3-11.2,0.1-13.6-0.6v-1.1l17-0.9V107l-5.7,0.8l-3.4,0.2v5l-3.1,0.2
		c-2.1,0.1-3.5-0.3-4-1.1c-0.6-11-1.2-18.3-1.8-21.9c0.3-0.6,0.4-1,0.4-1.3l2.6-0.1c3.3,0.3,4.9,1,4.9,2.1l2.5-0.6l7.5-0.4V85
		L266,86.1c-0.8,0-2.1-0.2-4-0.7v-0.3c0.1-0.5,0.3-0.7,0.7-0.8l21.2-1.1l3.4-0.6v-2.9C287.5,78,287.9,77.1,288.5,77.1z M299.7,66
		l0.8,0c1.5-0.1,3.5,0.6,6.3,1.9v0.8c0,0.6-5.8,3-17.4,7.2c-2.5,1-6.3,1.8-11.4,2.4c-4.2-0.1-6.7-0.1-7.6,0c0-0.2,3.9-1.4,11.8-3.5
		C293.2,70.1,299,67.2,299.7,66z M276.8,93l0.5,1v3.4l10-0.5v-4.9l-9.4,0.5L276.8,93z M277.8,99.3v2l0.5,4.7l1-0.1
		c1.6-0.1,4.3-0.4,8-0.9v-6.3L277.8,99.3z M294.8,91.1v4.7c0.1,0.7,0.5,1.1,1.1,1.1l8.4-0.4v-0.6c0.3-2.7,0.4-4.5,0.4-5.3
		L294.8,91.1z M294.8,98.9v5.8l7.5-0.4c1,0,1.5-1.8,1.5-5.4l-1-0.5L294.8,98.9z"/>
	<path class="st133" d="M373.4,66.9c1.6-0.1,2.6,0.6,3,2c0,1.4-0.3,2.1-1,2.1c2,4.2,5.3,7.4,9.9,9.5c6.7,4.3,10,8,10,11.3
		c-1.2,0.9-3.1,1.4-5.8,1.6c-1.2-0.1-5.5-3.8-12.9-10.9c-0.4,0-1.7-1-3.8-3.1c-1.5,1.1-3.9,4.8-7.1,11.1c-1,0.5-2,1.9-2.9,4.2l0.7,0
		c1.7-0.1,6.7-1.1,15.1-3.1v0.6l1.2-0.6l2.2-0.1l2.1,0.3v2c-9.5,1.9-14.3,3.4-14.3,4.4c-0.2,0-0.6-0.1-1.2-0.4
		c-2.1,0.4-3.8,0.6-5.1,0.7l-0.5,0c-0.2,0-0.9-0.8-2.3-2.3c-1.4,2-3.4,3-5.9,3.2l-2.8,0.1l-1.4-0.6l1.6,2.6c-0.6,2.8-0.9,4.8-0.9,6
		v3.3c0,0.2-0.2,0.3-0.5,0.3c0,0.5,0.1,0.8,0.4,0.8c-0.7,4.9-1.3,7.7-1.8,8.2l0.5,0.9c0,4.8-1.1,7.3-3.2,7.4v0.5
		c-7.2-0.2-10.8-1.8-10.8-4.7c0.6-0.6,2.2-1.5,5.1-2.6c0.3-1.2,0.6-5.2,0.9-11.9l-0.7,0c-4.4,3.3-7.2,5-8.3,5
		c-1.1,0.4-1.7,0.6-1.8,0.6c-2.7-0.6-4-1.2-4-1.9v-0.9c0-0.4,3.7-2.5,11-6.4c2.1-0.9,3.4-1.9,3.8-3v-3.3c0-2-0.1-5.2-0.4-9.4l-0.6,0
		c-5,0.2-8.2-0.6-9.5-2.6v-0.4c0-0.4,0.6-1,1.7-1.8l5-0.2c2.3-0.1,3.4-0.5,3.4-1.2c0-2.2-0.2-6.6-0.5-13.3c2.3-1.1,3.8-1.6,4.3-1.6
		c0,0.4,1.4,0.9,4.2,1.6c0.4,6.2,0.7,9.4,0.9,9.5c-0.3,0.6-0.4,1.1-0.4,1.5c4.9,0.9,7.4,2.5,7.4,4.6c0,1-2,2-6,3
		c0,0.8-0.3,1.6-0.9,2.4L351,95c-0.3,0-0.4,0.2-0.4,0.7c0.6,0.1,0.9,0.4,0.9,1.1c2.4-1.4,4.9-4.6,7.4-9.6c-0.4,0-0.6,0-0.6-0.1
		c1.1-0.1,3.6-3.9,7.4-11.5c0.4-2.6,1.3-5.1,2.8-7.6C368.5,67.5,370.1,67.1,373.4,66.9z M366.9,102.3c2.1,0.6,3.1,1.1,3.1,1.5v0.4
		l-0.5,1.1l1.1,0.5l11.4-3.8v0.5c0.8-0.4,1.3-0.6,1.5-0.7l0.9,0.5l1-0.6c2.3-0.1,3.5,1,3.5,3.3c0,0.3,0.2,1.2,0.5,2.8
		c-0.3,2.4-0.5,4.9-0.5,7.7l-0.5,0c0,0.5,0.2,0.8,0.5,0.8c-0.3,7.5-1,11.3-2.1,11.3L384,128l-2.8-0.3c-0.6,0.3-1.1,0.5-1.3,0.5
		c-1.4-0.3-2.1-0.7-2.1-1.1v-0.8c1.5-0.1,2.3-1.5,2.3-4.2c-7.3,1-11,2.1-11,3.4c-1.2,0.3-1.8,0.6-1.8,1c-3.8,0.2-5.7-1.1-5.7-3.7
		c0-1.1-0.1-1.6-0.4-1.5l0.4-0.8v-1.9c0-0.4-0.1-0.6-0.4-0.6l0.4-0.7v-13.4C361.5,103.3,363.3,102.8,366.9,102.3z M370,109.3v11.4
		c7-0.7,10.5-1.7,10.5-3v-0.5c0-2,0.2-5.1,0.5-9.4c-0.7-0.3-1.2-0.5-1.6-0.5L370,109.3z"/>
	<path class="st133" d="M425.6,43.5l36.2-1.8c6.2,0,9.4,0.8,9.4,2.2v1.2L452.7,46v1.4c3.6-0.2,6.8,1.3,9.6,4.4v0.6
		c-0.8,1.9-2.5,2.9-5.2,3v1.2l14.3-0.7c7-0.4,13.7,1,20.4,4.1v1.8l-5.6,0.3c-6.6-1.1-12-1.6-16.3-1.4l-39.1,1.9
		c-8.5,0.4-19.9,1.7-34.1,3.9c-1.3,0-4.8-0.8-10.8-2.4v-1.8l4.2-0.9c0.7,0,9.9-1,27.6-2.9v-1c-1-2.6-1.5-5.3-1.5-7.9l1.4-0.6
		l3.6-0.2c5.7-0.3,8.6,2.8,8.6,9.1l15.1-0.8c0.6,0,2.2-2.4,4.8-7.2c-1-1.2-1.6-2.5-1.6-3.8L419,47.8c-6.2-0.1-9.4-0.8-9.4-2.2v-0.5
		C416.9,44.2,422.2,43.7,425.6,43.5z M463.3,64.6l3.7-0.2c4.9-0.3,7.8,1.7,8.6,5.9c-1.2,22.6-2.4,33.9-3.5,33.9l-3.7,0.9
		c-5.9,0.3-9.3-1.7-10.1-6.1c-1-0.5-2-0.7-3.2-0.6l-6.2,0.3v11.6c12.2,0.2,19.3,1,21.4,2.4v1.3c0,0.9-0.4,1.3-1.2,1.4l-3,0.2
		l-4.5-0.6l-1.5,0.9c-4.3-0.8-7.8-1.1-10.5-1l-0.8,1.8v7l13.6-0.7c14.1,1.3,21.1,3.3,21.1,6.1c0,0.8-0.4,1.3-1.2,1.3l-5.9,0.3
		c-4.7,0.3-8.8-0.8-12.5-3.1l-3.1,0.2c-10,0.7-15,1.4-15,2.2l-4.9-0.5l-10.3,0.5c-4.2,0.2-8.7,0.2-13.4-0.1c-1.7,0.6-4.2,1-7.4,1.1
		c-6.7-1.8-10.1-3.2-10.1-4.4c0.1-0.8,0.5-1.3,1.2-1.3l1.5-0.1c7.2,0.6,11.2,0.9,11.8,0.9l21-1.1v-8.6l-16.5,0.9
		c-5.2,0.3-7.8-0.3-7.8-1.5V115c0-1.3,5.1-2.3,15.2-2.8l9.1-0.5V99.4l-9.4,0.5v5.1l-4.2,0.9c-1.5,0.1-4.6-0.4-9.3-1.6V75.7
		c0-5.2,1.1-7.9,3.4-8.1l1.5-0.1c5.2,0.7,8.7,1,10.3,0.9l9-0.4c1.2-1,2.2-1.5,2.9-1.6c4.7,0.7,11.9,1.1,21.6,1.1
		C461.6,65.6,462.2,64.6,463.3,64.6z M426.1,73.5v9.2l10.1-0.5l0.8-5.5v-5.5l-9.2,0.5C426.7,71.9,426.1,72.5,426.1,73.5z
		 M426.1,85.8V96l10.2-0.5v-9.4l-1,0.1C434.5,86.2,431.4,86.1,426.1,85.8z M436.7,24.5c10.2,2.3,15.2,5.6,15.2,10V36
		c0,1.5-5,3.1-15,4.9c0-0.5-1.7-2.5-5.1-6.1c0.9-1.8,1.4-3.8,1.4-6v-3.5L436.7,24.5z M448.3,71.4c0,0.4,0.3,3.8,0.8,10.1l1-0.1
		l10.6,0.2v-1c0.5-6.1,0.7-9.4,0.7-9.9L448.3,71.4z M449,85.4v9.4l6.1-0.3l1.8,0.8c0-1,0.1-1.6,0.4-1.6c0.9,0.5,1.8,0.7,2.5,0.6
		v-3.9l0.8-5.5L449,85.4z"/>
	<path class="st133" d="M525.9,63.2l4.9-0.2c1-0.1,2.7,0.3,4.9,1.1V70l0.9,1.3v5.2l2-0.1c7.3-0.2,10.9,0.5,10.9,2c0,0.7-2,1.4-6.1,2
		V80l-1.1,0.6l-1.7,0.1l-1.4-0.8l-2.5,0.1c-0.1,4.6-0.4,7-0.7,7l-0.7,0l0.5,3.6l1.1-0.6l3.7-0.2c3.9-0.2,7.1,0.2,9.5,1.3v0.7
		c-2.7,0.7-4.1,1.1-4.3,1.1v-0.5l-7.4,1.7c0-0.3-0.3-0.4-0.8-0.4v0.8h0.4l-0.4,0.7c0.3,1.9,1.9,4.1,4.7,6.4c1.5,2.9,2.8,4.4,3.8,4.5
		c0.9,1.1,5,5,12.4,11.8v0.4c0,0.5-0.3,0.8-0.8,0.8l-0.9,0c-0.2,0-0.3-0.2-0.3-0.6c-2.3,1.5-3.9,2.2-4.8,2.2l-0.9,0
		c-2.9-1.5-7.9-5.8-15-12.9v1.3c0.6,1,0.9,1.9,0.9,2.7c-0.6,1-0.9,1.8-0.9,2.4c0.3,1.6,0.5,2.5,0.5,2.7l-0.5,2.8l0.4,0.9
		c-0.6,1-0.9,1.8-0.9,2.4c0.3,3,0.5,5.3,0.5,6.8c-0.6,1.1-0.9,1.8-0.9,2.3l-0.7,0c-0.7,0-1.3-0.1-1.8-0.4c-0.6,0.4-1.2,0.5-1.9,0.6
		c-0.2,0-1.2-0.1-2.8-0.3c-0.6,0.4-1.1,0.5-1.6,0.6c-0.3-4.6-0.6-6.9-0.9-6.9l0.4-2.1v-6.1c0-0.2,0.2-0.3,0.6-0.3
		c-0.4-0.7-0.6-1.2-0.6-1.5c0.3-0.6,0.5-1.2,0.5-1.8l-3,2.7c-0.4,0-1.5,1-3.2,3l-0.4,0l-1.1-0.5c0,0.8-0.9,1.7-2.7,3l-3.7,0.2
		l-3,0.6c0-0.9-0.2-1.3-0.7-1.3c-0.6,0.4-0.9,0.5-0.9,0.5c10.7-10.3,16.4-19.1,17.3-26.3l-0.7,0c-0.6,0.3-1,0.5-1.2,0.5v-0.6
		l-1.1,0.6c-0.2,0-0.2-0.2-0.2-0.5l-1.2,0.6l-1.8,0.1l-4.8-0.2c0,0.3,0,0.5-0.1,0.5v-0.9l-1.7,0.1v1.1c0,0.7,0.1,1.4,0.4,1.8
		c-0.9,1.6-1.3,3.2-1.3,4.7v4l-1,0.1l0.6,1c0,0.4-0.4,0.8-1.3,1.2l-0.7,0.1c0-0.6-0.2-0.9-0.7-0.9c-2,0.7-3.4,1.1-4.1,1.1
		c-0.8,0-1.2-0.4-1.2-1.4l-5.5,1.8c0.4,0.5,0.6,1.3,0.6,2.2l-4.7,1.1v-0.4c-0.5,0-0.8,0.2-0.8,0.5c-2.9-0.1-4.3-1.2-4.3-3.3
		l1.8-31.2l-0.5-0.9c0-0.2,0.2-0.3,0.5-0.3l-0.5-3.4v-3.1l1.7,0.4l0.9-0.5l0.9,0.4l1-0.5c0.7,0,2.8,0.5,6.2,1.5v1.3
		c0,1.4-0.4,2.2-1.1,2.2c0.4,0.6,0.6,1.5,0.6,2.6l4.8-0.7c3.8-0.2,6.6,0.4,8.5,1.6c0-1.2,0.1-2,0.4-2.5c0.4,0,0.6,0.1,0.6,0.5
		c3.2-0.5,5.6-0.8,7.1-0.8l5.7-0.3C526,70.4,525.9,65.8,525.9,63.2z M498.3,85.5v2l0.4,2.8c-0.6,1.6-0.9,2.9-0.9,3.8l0.5,1.8
		l-1.8,7.1c0,0.4,0.1,0.7,0.4,0.6l-0.4,2.1v0.7c0.7,0,2.5,0.2,5.4,0.7V100l0.5-2.9l-0.5-0.9c0.3-2.7,0.6-4,0.9-4
		c0-0.5-0.1-0.8-0.4-0.8c0.6-2.8,0.9-5.3,0.9-7.5C500.6,84.9,499,85.5,498.3,85.5z M513.6,81.1l-0.5,1.1v0.9c0,1.1,0.1,1.8,0.4,2.3
		c-0.6,3.2-0.9,5.3-0.9,6.1c0.3,0.6,0.5,1.1,0.5,1.5l8-0.4c3.5-0.2,5.2-1.1,5.2-2.7v-4.2c0-2.2-0.3-4-1-5.3l-1.1,0.6l-5.9,0.3
		c-0.7,0-1.3-0.1-1.8-0.4l-0.9,0.5C515,81.2,514.4,81.1,513.6,81.1z"/>
	<g>
		<path class="st133" d="M211.8,0c0,0.4,0.2,1,0.6,1.8c-1.2,5.8-2.2,21-3.1,45.6l7.3-0.6h2.4v0.6c0,0.9-3.3,2.2-9.8,3.7
			c0,1.8-3.7,3-11,3.6h-6.1c-0.8,0-1.2-0.4-1.2-1.2v-0.6c4.4-1.6,6.8-2.4,7.3-2.4c0.8-24.1,1.6-38.7,2.4-43.8h-4.3V5.5
			c0.4,0,2.8-1.8,7.3-5.5H211.8z"/>
		<path class="st133" d="M246.5,3.6c12.6,1.1,18.9,2.7,18.9,4.9c2,2.1,3,5.6,3,10.3c0,17.3-5.3,29.1-15.8,35.3
			c-4.3,1.2-8,1.8-11,1.8h-1.2c-10,0-15.7-6.1-17-18.2v-1.2c0-14.8,4.3-24.9,12.8-30.4C238.1,5.3,241.5,4.5,246.5,3.6z M242.9,7.9
			c-5.7,7.2-8.5,16.5-8.5,28c0,6.9,3.2,12.3,9.7,16.4h2.4c7.7-7.5,11.5-18.3,11.5-32.3c-0.4-4.4-1.6-7.9-3.6-10.3
			c-2.5,0.8-4.1,1.2-4.9,1.2L242.9,7.9z"/>
		<path class="st133" d="M306.8,4.9h1.2v1.2c-6.8,9.1-14.7,22.1-23.7,38.9c-3.3,1.6-6.8,2.4-10.3,2.4h-1.2
			c2.9-7.7,9.8-19.9,20.7-36.5C295.7,6.9,300.2,4.9,306.8,4.9z"/>
		<path class="st133" d="M345.2,1.8c4.5,0,6.7,2.2,6.7,6.7v1.8c0,2.1-2.4,6.1-7.3,12.2c4.7,0,8.1,2.8,10.3,8.5l0.6,6.1v4.3
			c0,5-4.1,9.5-12.2,13.4c-6.6,2-13.7,3-21.3,3h-6.7l-3.1-0.6v-0.6c0-0.9,0.2-1.7,0.6-2.4c-0.4-0.8-0.6-1.4-0.6-1.8h3.1
			c1,0.8,3.4,1.6,7.3,2.4c11.8,0,17.7-1.8,17.7-5.5c1,0,2.3-2.4,3.6-7.3v-5.5c0-4.2-1.6-7.5-4.9-9.8c-6.9,2-11.6,3.1-14,3.1
			l-3.6-0.6v-0.6c1.6-1.8,6.3-4,14-6.7c4.1-5.3,6.1-9.4,6.1-12.2V9.1c-0.4-2.4-1-3.6-1.8-3.6c-2.6,0-6.4,1.8-11.6,5.5
			c-0.4,0-1,0.2-1.8,0.6c-0.7-0.4-1.7-0.6-3-0.6V9.1C329.1,4.3,336.4,1.8,345.2,1.8z"/>
		<path class="st133" d="M380.5,0c0,0.4,0.2,1,0.6,1.8c-1.2,5.8-2.2,21-3.1,45.6l7.3-0.6h2.4v0.6c0,0.9-3.3,2.2-9.8,3.7
			c0,1.8-3.7,3-11,3.6H361c-0.8,0-1.2-0.4-1.2-1.2v-0.6c4.4-1.6,6.8-2.4,7.3-2.4c0.8-24.1,1.6-38.7,2.4-43.8h-4.3V5.5
			c0.4,0,2.8-1.8,7.3-5.5H380.5z"/>
	</g>
</g>
</svg>
