<?xml version="1.0" encoding="utf-8"?>
<!-- Generator: Adobe Illustrator 21.0.0, SVG Export Plug-In . SVG Version: 6.00 Build 0)  -->
<svg version="1.1" id="圖層_1" xmlns="http://www.w3.org/2000/svg" xmlns:xlink="http://www.w3.org/1999/xlink" x="0px" y="0px"
	 viewBox="0 0 92.4 57.3" style="enable-background:new 0 0 92.4 57.3;" xml:space="preserve">
<style type="text/css">
	.st0{fill:#FFFFFF;}
	.st1{fill:#FCEE21;}
	.st2{fill:#232020;}
	.st3{fill:#FBB03B;}
	.st4{fill:#F2F49D;}
	.st5{fill:#EF846A;}
	.st6{fill:#F5B39D;}
	.st7{fill:#C7B299;}
	.st8{fill:#808080;}
	.st9{fill:none;stroke:#2D2D2D;stroke-width:0.4006;stroke-miterlimit:10;}
	.st10{fill:#E6E6E6;}
	.st11{fill:#333333;}
	.st12{fill:none;stroke:#1D0600;stroke-width:0.4006;stroke-miterlimit:10;}
	.st13{clip-path:url(#SVGID_2_);}
	.st14{clip-path:url(#SVGID_4_);}
</style>
<g>
	<g>
		<path class="st7" d="M74.3,0H45.6c-1.4,0-2.6,0.7-3.3,1.9L28,26.7c-0.7,1.2-0.7,2.7,0,3.8l14.3,24.8c0.7,1.2,2,1.9,3.3,1.9h28.6
			c1.4,0,2.6-0.7,3.3-1.9l14.3-24.8c0.7-1.2,0.7-2.7,0-3.8L77.6,1.9C76.9,0.7,75.6,0,74.3,0z"/>
		<g>
			<defs>
				<path id="SVGID_1_" d="M74.3,0H45.6c-1.4,0-2.6,0.7-3.3,1.9L28,26.7c-0.7,1.2-0.7,2.7,0,3.8l14.3,24.8c0.7,1.2,2,1.9,3.3,1.9
					h28.6c1.4,0,2.6-0.7,3.3-1.9l14.3-24.8c0.7-1.2,0.7-2.7,0-3.8L77.6,1.9C76.9,0.7,75.6,0,74.3,0z"/>
			</defs>
			<clipPath id="SVGID_2_">
				<use xlink:href="#SVGID_1_"  style="overflow:visible;"/>
			</clipPath>
			<g class="st13">
				<g>
					<path class="st10" d="M65.6,38.9c0-0.3,0-0.5,0-0.7c-3.6,0.5-7.3,0.7-10.8,1.6c-0.2,0.5-0.3,1-0.4,1.4
						c3.5-1.3,7.5-1.1,11.1-2.3C65.5,38.9,65.6,38.9,65.6,38.9z"/>
					<path class="st10" d="M65.7,39.4C65.7,39.4,65.6,39.4,65.7,39.4c-3.6,1.3-7.6,1.4-11.3,2.1c0,0.4,0,0.8,0,1.2
						c3.8-0.7,7.6-1.9,11.4-2.9C65.8,39.6,65.7,39.5,65.7,39.4z"/>
					<path class="st10" d="M66,40.2c-1.9,0.7-3.9,1-5.8,1.5c-1.9,0.5-3.8,1-5.7,1.3c0.1,0.4,0.3,0.9,0.5,1.3
						c3.7-1.3,7.5-2.6,11.3-3.6C66.2,40.5,66.1,40.3,66,40.2z"/>
					<path class="st10" d="M66.6,41.1c-3.8,1.1-7.6,2.4-11.4,3.4c0.2,0.4,0.5,0.7,0.7,1c3.6-1.6,7.4-2.6,11.2-3.9
						C66.9,41.5,66.7,41.3,66.6,41.1z"/>
					<path class="st10" d="M67.5,42.1c0,0-0.1,0.1-0.1,0.1c-3.8,1.3-7.6,2.4-11.4,3.6c0.2,0.2,0.5,0.4,0.7,0.6
						c3.7-1.4,7.2-2.9,11-4.1C67.6,42.2,67.6,42.2,67.5,42.1z"/>
					<path class="st10" d="M65.8,35.6c0,0.1,0,0.3-0.2,0.3c-2.6,0.1-5.3,1-7.9,0.5c-0.5,0.3-0.9,0.7-1.4,1.1
						c3.8-0.3,7.5-1.1,11.3-1.2C67,36,66.4,35.8,65.8,35.6z"/>
					<path class="st10" d="M65.8,37.6c0.1-0.3,0.3-0.5,0.6-0.7c-3.4,0.2-6.9,1-10.3,0.8c-0.5,0.5-0.9,1.1-1.2,1.8
						c1.5-0.6,3.1-0.8,4.7-1C61.7,38.3,63.7,37.9,65.8,37.6z"/>
					<path class="st10" d="M68.2,36.6C68.1,36.6,68.1,36.7,68.2,36.6C68.2,36.7,68.2,36.7,68.2,36.6C68.2,36.7,68.2,36.6,68.2,36.6z
						"/>
					<path class="st10" d="M67.1,37.1c-1.8,0.7-0.8,2.8,0.2,3.9c2.1-1.6,4.3-3.4,6.7-4.6c-2.2,0.4-4.4,0.6-6.7,0.6
						C67.3,37,67.2,37.1,67.1,37.1z"/>
					<path class="st10" d="M58,36.2c2.4,0.1,4.8-0.6,7.3-0.7C62.8,34.9,60.1,35.1,58,36.2z"/>
					<path class="st10" d="M68.8,42.9c-0.1-0.1-0.3-0.1-0.4-0.2c-3.8,1.2-7.5,2.8-11.3,4c0.6,0.4,1.2,0.7,1.9,0.9
						c1.6-1,3.4-1.6,5.1-2.4C65.7,44.4,67.3,43.6,68.8,42.9z"/>
					<path class="st10" d="M69.5,43.3c-1.8,0.9-3.6,1.8-5.5,2.6c-1.4,0.6-2.9,1.4-4.4,1.8c3.6,0.6,7.9-1.5,10.1-4.5c0,0-0.1,0-0.1,0
						C69.6,43.2,69.5,43.2,69.5,43.3z"/>
					<path class="st10" d="M126,36.2c0.3-1.9,0.7-3.9,1.2-5.8c-2.6,1.5-5.3,2.7-8.1,3.8c-3.4,1.5-6.9,3-10.3,4.5
						c-3.3,1.5-6.7,3-10,4.6c-2.9,1.4-5.7,3-8.7,4.1c2.7,0.7,5.4,1.3,8.1,1.8c4.2-2.9,9.2-4.3,13.7-6.5
						C116.6,40.6,121.2,37.9,126,36.2z"/>
					<path class="st10" d="M75.1,36.2c0,0.1,0,0.2-0.1,0.3c-2.7,1.3-4.8,3.4-7.5,4.7c1,1,2.5,1.4,3.9,1.6c0.1,0,0.2,0,0.3,0.1
						c4.2-3,8.3-6.1,12.7-8.9C81.3,34.8,78.2,35.7,75.1,36.2z"/>
					<path class="st10" d="M96.4,31.1c-1.5,0.3-3.1,0.7-4.6,1c-2.1,0.5-4.1,1-6.2,1.6c0,0.1,0,0.2-0.1,0.3
						c-4.5,2.9-8.6,6.5-13.2,9.1c2,0.4,4,0.8,6,1.3c3.3-2.4,6.5-4.8,9.7-7.3C90.6,34.9,93.4,32.8,96.4,31.1z"/>
					<path class="st10" d="M109.1,38c3.3-1.5,6.5-3,9.8-4.4c2.9-1.2,5.8-2.4,8.5-4.1c0,0,0,0,0,0c0.2-0.9,0.5-1.8,0.7-2.6
						c-3-0.1-6,0.1-9,0.4c-0.8,0.1-1.6,0.2-2.4,0.3c0,0.1,0,0.2-0.1,0.2c-5.6,3.3-11.3,6.2-17,9.3c-5.1,2.8-10.5,5.5-15.3,8.8
						c1.8,0.5,3.6,0.9,5.4,1.4c0,0,0-0.1,0.1-0.1c3.1-1.5,6.1-3.2,9.2-4.6C102.4,41.1,105.8,39.6,109.1,38z"/>
					<path class="st10" d="M99.4,36.7c5.5-3,10.9-5.8,16.3-9c-6,0.7-12,1.8-17.9,3.1c0,0.1,0,0.2-0.1,0.2c-3.5,2-6.7,4.3-9.8,6.8
						c-3,2.3-6,4.8-9.3,6.7c1.1,0.3,2.2,0.5,3.2,0.8c0.7,0.2,1.5,0.4,2.2,0.6c2.2-1.9,4.8-3.2,7.3-4.6C94,39.8,96.7,38.2,99.4,36.7z
						"/>
				</g>
				<g>
					<path class="st2" d="M131.6,26.6c-8.2-0.8-16.8,0.5-24.9,2c-8.9,1.5-17.6,3.7-26.3,6c-3.9,1-7.8,1.9-11.8,2.1c0,0,0-0.1,0-0.1
						c-5.3-4.2-17-0.8-14.3,7.3c1.1,3.2,4.6,4.7,7.8,4.5c3.2-0.2,6.7-2.2,8.4-5c1.4,0.3,2.8,0.5,4.1,0.7c4.2,0.7,8.3,2.1,12.4,3.2
						c4.4,1.2,8.8,2.1,13.3,3c8.2,1.5,16.4,2.6,24.7,3.2c6.6,0.5,13.8,0.4,19.6-3.1c5.1-3.1,7.3-9.2,4.5-14.6
						C145.6,29.7,137.8,27.2,131.6,26.6z M74,36.4c-2.4,1.2-4.6,3-6.7,4.6c-1-1.1-2-3.2-0.2-3.9c0.1,0,0.1-0.1,0.2-0.2
						C69.5,37,71.8,36.8,74,36.4z M68.2,36.6C68.2,36.6,68.2,36.7,68.2,36.6C68.2,36.7,68.2,36.7,68.2,36.6
						C68.1,36.7,68.1,36.6,68.2,36.6z M65.2,35.5c-2.4,0.2-4.8,0.8-7.3,0.7C60.1,35.1,62.8,34.9,65.2,35.5z M57.6,36.4
						c2.6,0.6,5.3-0.3,7.9-0.5c0.2,0,0.3-0.2,0.2-0.3c0.6,0.2,1.2,0.4,1.8,0.7c-3.8,0-7.5,0.8-11.3,1.2
						C56.7,37.1,57.2,36.7,57.6,36.4z M56.1,37.7c3.4,0.2,6.9-0.6,10.3-0.8c-0.3,0.2-0.5,0.4-0.6,0.7c-2.1,0.3-4.1,0.7-6.2,0.9
						c-1.6,0.2-3.2,0.4-4.7,1C55.2,38.9,55.6,38.3,56.1,37.7z M54.8,39.7c3.5-0.8,7.2-1,10.8-1.6c0,0.2,0,0.5,0,0.7c0,0-0.1,0-0.1,0
						c-3.6,1.2-7.5,1-11.1,2.3C54.5,40.7,54.6,40.2,54.8,39.7z M54.4,41.4c3.7-0.6,7.7-0.7,11.2-2c0,0,0.1,0,0.1,0
						c0,0.1,0.1,0.2,0.1,0.3c-3.8,1-7.5,2.2-11.4,2.9C54.4,42.2,54.3,41.8,54.4,41.4z M54.5,43c1.9-0.3,3.8-0.8,5.7-1.3
						c1.9-0.5,3.9-0.9,5.8-1.5c0.1,0.2,0.2,0.3,0.3,0.5c-3.8,1-7.5,2.4-11.3,3.6C54.8,43.9,54.6,43.4,54.5,43z M55.2,44.6
						c3.8-1,7.6-2.3,11.4-3.4c0.1,0.2,0.3,0.4,0.5,0.5c-3.7,1.2-7.6,2.3-11.2,3.9C55.6,45.3,55.4,44.9,55.2,44.6z M56,45.7
						c3.8-1.2,7.6-2.3,11.4-3.6c0,0,0.1,0,0.1-0.1c0.1,0,0.1,0.1,0.2,0.1c-3.7,1.2-7.3,2.8-11,4.1C56.5,46.2,56.3,46,56,45.7z
						 M57.1,46.7c3.8-1.2,7.5-2.9,11.3-4c0.1,0.1,0.3,0.1,0.4,0.2c-1.5,0.8-3.1,1.5-4.6,2.3c-1.7,0.8-3.6,1.4-5.1,2.4
						C58.4,47.4,57.7,47.1,57.1,46.7z M59.6,47.7c1.5-0.4,3-1.2,4.4-1.8c1.8-0.8,3.7-1.7,5.5-2.6c0.1,0,0.1-0.1,0.1-0.1
						c0,0,0.1,0,0.1,0C67.5,46.2,63.2,48.3,59.6,47.7z M71.4,42.9c-1.4-0.3-2.9-0.6-3.9-1.6c2.6-1.4,4.7-3.5,7.5-4.7
						c0.1-0.1,0.2-0.2,0.1-0.3c3.1-0.6,6.2-1.4,9.3-2.2c-4.3,2.8-8.4,6-12.7,8.9C71.6,42.9,71.5,42.9,71.4,42.9z M72.2,43.1
						c4.7-2.6,8.7-6.2,13.2-9.1c0.1-0.1,0.1-0.2,0.1-0.3c2.1-0.6,4.2-1.1,6.2-1.6c1.5-0.3,3.1-0.7,4.6-1c-3,1.7-5.8,3.8-8.5,6
						c-3.2,2.5-6.4,5-9.7,7.3C76.2,43.9,74.2,43.4,72.2,43.1z M81.8,45.3c-1.1-0.3-2.2-0.6-3.2-0.8c3.3-1.9,6.3-4.4,9.3-6.7
						c3.2-2.4,6.4-4.7,9.8-6.8c0.1-0.1,0.1-0.1,0.1-0.2c5.9-1.3,11.9-2.3,17.9-3.1c-5.4,3.1-10.8,6-16.3,9c-2.7,1.5-5.4,3.1-8.1,4.5
						c-2.5,1.4-5.1,2.7-7.3,4.6C83.2,45.7,82.5,45.5,81.8,45.3z M89.8,47.4c-1.8-0.4-3.6-0.9-5.4-1.4c4.8-3.4,10.1-6,15.3-8.8
						c5.7-3.1,11.4-6,17-9.3c0.1-0.1,0.1-0.2,0.1-0.2c0.8-0.1,1.6-0.2,2.4-0.3c3-0.3,6-0.5,9-0.4c-0.2,0.9-0.5,1.8-0.7,2.6
						c0,0,0,0,0,0c-2.7,1.6-5.6,2.9-8.5,4.1c-3.3,1.4-6.6,2.9-9.8,4.4c-3.4,1.5-6.7,3-10.1,4.6c-3.1,1.5-6.1,3.1-9.2,4.6
						C89.8,47.3,89.8,47.3,89.8,47.4z M90.2,47.5c3-1.1,5.8-2.7,8.7-4.1c3.3-1.6,6.7-3,10-4.6c3.4-1.5,6.8-3.1,10.3-4.5
						c2.7-1.2,5.5-2.3,8.1-3.8c-0.5,1.9-0.9,3.8-1.2,5.8c-4.9,1.7-9.4,4.4-14.1,6.6c-4.5,2.1-9.6,3.6-13.7,6.5
						C95.5,48.7,92.8,48.1,90.2,47.5z M105.6,50.6c-2.3-0.4-4.5-0.8-6.8-1.2c3.9-2.4,8.4-3.8,12.5-5.6c4.9-2.2,9.6-5.1,14.7-6.8
						c-0.2,1.1-0.3,2.2-0.3,3.3c0,0.7-0.1,1.4-0.1,2c0,0,0,0,0,0c-6.4,2.3-12.6,5.4-18.6,8.6C106.5,50.8,106,50.7,105.6,50.6z
						 M116.8,52.2c-3.1-0.4-6.2-0.8-9.3-1.3c6.1-2.6,11.8-5.8,18-8c0,1.3,0.1,2.7,0.2,4c0,0.1,0,0.3,0,0.4
						C122.7,48.9,119.7,50.3,116.8,52.2C116.8,52.2,116.8,52.2,116.8,52.2z M117.3,52.2c2.8-1.5,5.7-2.8,8.5-4.2
						c0.1,1.7,0.4,3.4,0.9,5C123.6,52.8,120.4,52.6,117.3,52.2z M146.2,48.1c-4.7,4.7-12.3,5.1-18.6,4.9c-0.1,0-0.1,0-0.2,0
						c-1.4-3.8-1.3-8.3-1.2-12.3c0-1.4,0.2-2.7,0.4-4.1c0.1-0.1,0.1-0.3,0.1-0.4c0.5-3.1,1.2-6.2,1.9-9.3c4.8,0.1,9.5,1,13.7,3.4
						c3.3,1.9,6.1,4.5,7,8.3C150.2,42.1,148.7,45.6,146.2,48.1z"/>
				</g>
			</g>
		</g>
	</g>
	<polygon class="st7" points="0,36.8 17.3,28.4 0,20.5 	"/>
</g>
</svg>
