<?xml version="1.0" encoding="utf-8"?>
<!-- Generator: Adobe Illustrator 21.0.0, SVG Export Plug-In . SVG Version: 6.00 Build 0)  -->
<svg version="1.1" id="圖層_1" xmlns="http://www.w3.org/2000/svg" xmlns:xlink="http://www.w3.org/1999/xlink" x="0px" y="0px"
	 viewBox="0 0 102.1 60.6" style="enable-background:new 0 0 102.1 60.6;" xml:space="preserve">
<style type="text/css">
	.st0{fill:#FFFFFF;}
	.st1{fill:#FCEE21;}
	.st2{fill:#232020;}
	.st3{fill:#FBB03B;}
	.st4{fill:#F2F49D;}
	.st5{fill:#EF846A;}
	.st6{fill:#F5B39D;}
	.st7{fill:#C7B299;}
	.st8{fill:#808080;}
	.st9{fill:none;stroke:#2D2D2D;stroke-width:0.4006;stroke-miterlimit:10;}
	.st10{fill:#E6E6E6;}
	.st11{fill:#333333;}
	.st12{fill:none;stroke:#1D0600;stroke-width:0.4006;stroke-miterlimit:10;}
	.st13{clip-path:url(#SVGID_2_);}
	.st14{clip-path:url(#SVGID_4_);}
</style>
<g>
	<path class="st7" d="M49.4,0H20.8c-1.4,0-2.6,0.7-3.3,1.9L3.2,26.7c-0.7,1.2-0.7,2.7,0,3.8l14.3,24.8c0.7,1.2,2,1.9,3.3,1.9h28.6
		c1.4,0,2.6-0.7,3.3-1.9l14.3-24.8c0.7-1.2,0.7-2.7,0-3.8L52.8,1.9C52.1,0.7,50.8,0,49.4,0z"/>
	<polygon class="st7" points="102.1,20.5 84.8,28.9 102.1,36.8 	"/>
	<g>
		<g id="XMLID_3_">
			<g>
				<path class="st8" d="M67,30.2C67,30.2,67,30.2,67,30.2l-0.8-0.7c0.5-0.2,1-0.5,1.5-0.8c0.7-0.5,1.6-1.1,2.2-1.8
					c0.2-0.3,0.4-0.6,0.6-0.9c0.8-1.1,1.5-2.3,2.3-3.4c1-1.4,2-2.7,3.1-4c0.9-1,1.8-2,3-2.6c0.4-0.2,0.8-0.3,1.2-0.1
					c0.5,0.2,0.8,0.9,0.5,1.4c-0.4,0.8-1.5,1.2-2.2,1.6c-0.9,0.4-1.6,0.9-2.3,1.6C72.9,23.6,71.9,29.3,67,30.2z"/>
				<path class="st8" d="M52.9,30.2c4.4,1.2,9.2,1.4,13.3-0.6l0.7,0.7c0,0.1,0,0.2,0.1,0.2c2.9,0.7,5.7,0,8.4-1.2c1-0.4,2-0.8,3-1.4
					c0.8-0.5,1.6-1,2.3-1.4c0.8-0.5,1.6-0.9,2.5-1.2c0.3-0.1,0.6-0.1,0.9,0c0.6,0.3,0.4,0.8,0.1,1.3c-0.6,0.7-1.4,1.2-2.2,1.8
					c-1.2,0.9-2.5,1.6-3.8,2.2c-3.7,1.6-7.9,2.1-11.9,2c-2,0-4.1-0.2-6.1-0.4c-2.1-0.2-4.3-0.5-6.4-0.8l0,0c-0.1,0-0.1,0-0.2,0
					c0,0-0.1,0-0.1,0c0,0,0,0,0,0c-0.2,0-0.4-0.1-0.6-0.2c-0.2-0.1-0.3-0.2-0.4-0.4C52.3,30.4,52.6,30.2,52.9,30.2z"/>
				<path class="st8" d="M66.2,29.5c-4.1,2-8.9,1.8-13.3,0.6c-0.3,0-0.6,0.2-0.4,0.5c0.1,0.2,0.2,0.3,0.4,0.4
					c0.2,0.1,0.4,0.1,0.6,0.2c0,0,0,0,0,0c0,0,0.1,0,0.1,0c0.1,0,0.1,0,0.2,0l0,0c2.1,0.3,4.2,0.6,6.4,0.8c2,0.2,4,0.4,6.1,0.4
					c4,0.1,8.2-0.4,11.9-2c1.3-0.6,2.6-1.3,3.8-2.2c0.7-0.5,1.6-1,2.2-1.8c0.3-0.4,0.5-1-0.1-1.3c-0.3-0.2-0.6-0.2-0.9,0
					c-0.9,0.3-1.7,0.7-2.5,1.2c-0.8,0.5-1.6,0.9-2.3,1.4c-0.9,0.6-2,1-3,1.4c-2.7,1.1-5.4,1.8-8.4,1.2c-0.1,0-0.1-0.1-0.1-0.2
					c0,0,0,0,0.1,0c4.9-0.9,5.9-6.6,9.1-9.6c0.7-0.7,1.5-1.2,2.3-1.6c0.7-0.4,1.8-0.8,2.2-1.6c0.3-0.5,0-1.2-0.5-1.4
					c-0.4-0.2-0.8,0-1.2,0.1c-1.2,0.6-2.1,1.6-3,2.6c-1.1,1.3-2.1,2.6-3.1,4c-0.8,1.1-1.6,2.2-2.3,3.4c-0.2,0.3-0.4,0.6-0.6,0.9
					c-0.6,0.7-1.4,1.3-2.2,1.8C67.2,29,66.7,29.3,66.2,29.5z M52.4,30.7c-0.1-0.2-0.1-0.3,0-0.5c0.1-0.1,0.4-0.2,0.6-0.1
					c5.5,1.4,12.3,1.1,16.5-3.2c0.6-0.6,1-1.4,1.5-2.1c0.9-1.3,1.8-2.6,2.7-3.8c1-1.3,1.9-2.5,3.1-3.6c0.7-0.7,1.6-1.6,2.7-1.8
					c0.8-0.1,1.7,0.7,1.5,1.5c-0.2,0.7-0.9,1.2-1.6,1.5c-0.7,0.4-1.5,0.7-2.2,1.2c-2.2,1.7-3.5,4.2-5,6.5c-1.2,1.8-2.6,3.4-4.7,3.9
					c2.4,0.4,4.7-0.1,6.9-0.9c1.1-0.4,2.3-0.9,3.3-1.4c0.5-0.3,1-0.6,1.6-0.9c1.2-0.7,2.5-1.7,4-2c0.5-0.1,0.9,0,1.3,0.4
					c0.4,0.4,0.1,0.9-0.1,1.3c-0.5,0.7-1.2,1.1-1.9,1.6c-1.1,0.8-2.3,1.6-3.6,2.2c-2.5,1.2-5.2,1.9-7.9,2.2c-2.9,0.3-5.7,0.2-8.6,0
					c-2.9-0.3-5.8-0.6-8.7-1c0,0,0,0,0,0c-0.1,0-0.1,0-0.2,0c0,0-0.1,0-0.1,0c0,0,0,0-0.1,0C53,31.4,52.6,31.1,52.4,30.7z"/>
			</g>
			<g>
				<path class="st9" d="M84.6,25.4c-0.4-0.4-0.8-0.5-1.3-0.4c-1.4,0.3-2.7,1.3-4,2c-0.5,0.3-1,0.6-1.6,0.9c-1,0.6-2.2,1-3.3,1.4
					c-2.2,0.9-4.5,1.3-6.9,0.9c2.1-0.6,3.5-2.1,4.7-3.9c1.5-2.3,2.7-4.8,5-6.5c0.7-0.5,1.5-0.8,2.2-1.2c0.6-0.3,1.4-0.8,1.6-1.5
					c0.2-0.8-0.7-1.6-1.5-1.5c-1.1,0.2-2,1.1-2.7,1.8c-1.1,1.1-2.1,2.4-3.1,3.6c-0.9,1.2-1.8,2.5-2.7,3.8c-0.5,0.7-0.9,1.5-1.5,2.1
					c-4.2,4.3-11,4.6-16.5,3.2c-0.2-0.1-0.5,0-0.6,0.1c-0.2,0.2-0.1,0.3,0,0.5c0.2,0.4,0.6,0.6,1,0.7c0,0,0,0,0.1,0c0,0,0.1,0,0.1,0
					c0.1,0,0.1,0,0.2,0c0,0,0,0,0,0c2.9,0.5,5.8,0.8,8.7,1c2.9,0.2,5.7,0.3,8.6,0c2.7-0.3,5.4-1,7.9-2.2c1.3-0.6,2.5-1.3,3.6-2.2
					c0.7-0.5,1.4-0.9,1.9-1.6C84.7,26.3,84.9,25.8,84.6,25.4z"/>
				<path class="st9" d="M66.9,30.3c0,0.1,0,0.2,0.1,0.2c2.9,0.7,5.7,0,8.4-1.2c1-0.4,2-0.8,3-1.4c0.8-0.5,1.6-1,2.3-1.4
					c0.8-0.5,1.6-0.9,2.5-1.2c0.3-0.1,0.6-0.1,0.9,0c0.6,0.3,0.4,0.8,0.1,1.3c-0.6,0.7-1.4,1.2-2.2,1.8c-1.2,0.9-2.5,1.6-3.8,2.2
					c-3.7,1.6-7.9,2.1-11.9,2c-2,0-4.1-0.2-6.1-0.4c-2.1-0.2-4.3-0.5-6.4-0.8l0,0c-0.1,0-0.1,0-0.2,0c0,0-0.1,0-0.1,0c0,0,0,0,0,0
					c-0.2,0-0.4-0.1-0.6-0.2c-0.2-0.1-0.3-0.2-0.4-0.4c-0.2-0.3,0.1-0.5,0.4-0.5c4.4,1.2,9.2,1.4,13.3-0.6c0.5-0.2,1-0.5,1.5-0.8
					c0.7-0.5,1.6-1.1,2.2-1.8c0.2-0.3,0.4-0.6,0.6-0.9c0.8-1.1,1.5-2.3,2.3-3.4c1-1.4,2-2.7,3.1-4c0.9-1,1.8-2,3-2.6
					c0.4-0.2,0.8-0.3,1.2-0.1c0.5,0.2,0.8,0.9,0.5,1.4c-0.4,0.8-1.5,1.2-2.2,1.6c-0.9,0.4-1.6,0.9-2.3,1.6
					C72.9,23.6,71.9,29.3,66.9,30.3C67,30.2,67,30.2,66.9,30.3z"/>
			</g>
		</g>
		<g id="XMLID_2_">
			<g>
				<path class="st8" d="M18.8,31.4c-0.5-0.2-1-0.5-1.5-0.8c-0.7-0.5-1.6-1.1-2.2-1.8c-0.2-0.3-0.4-0.6-0.6-0.9
					c-0.8-1.1-1.5-2.3-2.3-3.4c-1-1.4-2-2.7-3.1-4c-0.9-1-1.8-2-3-2.6c-0.4-0.2-0.8-0.3-1.2-0.1C4.3,18,4,18.7,4.3,19.2
					c0.4,0.8,1.5,1.2,2.2,1.6c0.9,0.4,1.6,0.9,2.3,1.6c3.2,3,4.2,8.7,9.1,9.6c0,0,0,0,0.1,0L18.8,31.4z"/>
				<path class="st8" d="M0.9,27.1c-0.6,0.3-0.4,0.8-0.1,1.3c0.6,0.7,1.4,1.2,2.2,1.8c1.2,0.9,2.5,1.6,3.8,2.2
					c3.7,1.6,7.9,2.1,11.9,2c2,0,4.1-0.2,6.1-0.4c2.1-0.2,4.3-0.5,6.4-0.8c0,0,0,0,0,0c0.1,0,0.1,0,0.2,0c0,0,0.1,0,0.1,0
					c0,0,0,0,0,0c0.2,0,0.4-0.1,0.6-0.2c0.2-0.1,0.3-0.2,0.4-0.4c0.2-0.3-0.1-0.5-0.4-0.5c-4.4,1.2-9.2,1.4-13.3-0.6L18,32.1
					c0,0.1,0,0.2-0.1,0.2c-2.9,0.7-5.7,0-8.4-1.2c-1-0.4-2-0.8-3-1.4c-0.8-0.5-1.6-1-2.3-1.4c-0.8-0.5-1.6-0.9-2.5-1.2
					C1.4,27,1.2,27,0.9,27.1z"/>
				<path class="st8" d="M0.8,28.4c-0.3-0.4-0.5-1,0.1-1.3c0.3-0.2,0.6-0.2,0.9,0c0.9,0.3,1.7,0.7,2.5,1.2c0.8,0.5,1.6,0.9,2.3,1.4
					c0.9,0.6,2,1,3,1.4c2.7,1.1,5.4,1.8,8.4,1.2c0.1,0,0.1-0.1,0.1-0.2c0,0,0,0-0.1,0c-4.9-0.9-5.9-6.6-9.1-9.6
					c-0.7-0.7-1.5-1.2-2.3-1.6c-0.7-0.4-1.8-0.8-2.2-1.6c-0.3-0.5,0-1.2,0.5-1.4c0.4-0.2,0.8,0,1.2,0.1c1.2,0.6,2.1,1.6,3,2.6
					c1.1,1.3,2.1,2.6,3.1,4c0.8,1.1,1.6,2.2,2.3,3.4c0.2,0.3,0.4,0.6,0.6,0.9c0.6,0.7,1.4,1.3,2.2,1.8c0.5,0.3,1,0.6,1.5,0.8
					c4.1,2,8.9,1.8,13.3,0.6c0.3,0,0.6,0.2,0.4,0.5c-0.1,0.2-0.2,0.3-0.4,0.4c-0.2,0.1-0.4,0.1-0.6,0.2c0,0,0,0,0,0c0,0-0.1,0-0.1,0
					c-0.1,0-0.1,0-0.2,0c0,0,0,0,0,0c-2.1,0.3-4.2,0.6-6.4,0.8c-2,0.2-4,0.4-6.1,0.4c-4,0.1-8.2-0.4-11.9-2C5.4,31.7,4.1,31,3,30.2
					C2.2,29.6,1.3,29.1,0.8,28.4z M0.4,27.2c-0.4,0.4-0.1,0.9,0.1,1.3c0.5,0.7,1.2,1.1,1.9,1.6c1.1,0.8,2.3,1.6,3.6,2.2
					c2.5,1.2,5.2,1.9,7.9,2.2c2.9,0.3,5.7,0.2,8.6,0c2.9-0.3,5.8-0.6,8.7-1h0c0.1,0,0.1,0,0.2,0c0,0,0.1,0,0.1,0c0,0,0,0,0.1,0
					c0.4-0.1,0.8-0.3,1-0.7c0.1-0.2,0.1-0.3,0-0.5c-0.1-0.1-0.4-0.2-0.6-0.1c-5.5,1.4-12.3,1.1-16.5-3.2c-0.6-0.6-1-1.4-1.5-2.1
					c-0.9-1.3-1.8-2.6-2.7-3.8c-1-1.3-1.9-2.5-3.1-3.6c-0.7-0.7-1.6-1.6-2.7-1.8C4.7,17.3,3.8,18.1,4,19c0.2,0.7,0.9,1.2,1.6,1.5
					c0.7,0.4,1.5,0.7,2.2,1.2c2.2,1.7,3.5,4.2,5,6.5c1.2,1.8,2.6,3.4,4.7,3.9c-2.4,0.4-4.7-0.1-6.9-0.9c-1.1-0.4-2.3-0.9-3.3-1.4
					c-0.5-0.3-1-0.6-1.6-0.9c-1.2-0.7-2.5-1.7-3.9-2C1.2,26.7,0.8,26.8,0.4,27.2z"/>
			</g>
			<g>
				<path class="st9" d="M0.5,28.5c0.5,0.7,1.2,1.1,1.9,1.6c1.1,0.8,2.3,1.6,3.6,2.2c2.5,1.2,5.2,1.9,7.9,2.2c2.9,0.3,5.7,0.2,8.6,0
					c2.9-0.3,5.8-0.6,8.7-1h0c0.1,0,0.1,0,0.2,0c0,0,0.1,0,0.1,0c0,0,0,0,0.1,0c0.4-0.1,0.8-0.3,1-0.7c0.1-0.2,0.1-0.3,0-0.5
					c-0.1-0.1-0.4-0.2-0.6-0.1c-5.5,1.4-12.3,1.1-16.5-3.2c-0.6-0.6-1-1.4-1.5-2.1c-0.9-1.3-1.8-2.6-2.7-3.8c-1-1.3-1.9-2.5-3.1-3.6
					c-0.7-0.7-1.6-1.6-2.7-1.8C4.7,17.3,3.8,18.1,4,19c0.2,0.7,0.9,1.2,1.6,1.5c0.7,0.4,1.5,0.7,2.2,1.2c2.2,1.7,3.5,4.2,5,6.5
					c1.2,1.8,2.6,3.4,4.7,3.9c-2.4,0.4-4.7-0.1-6.9-0.9c-1.1-0.4-2.3-0.9-3.3-1.4c-0.5-0.3-1-0.6-1.6-0.9c-1.2-0.7-2.5-1.7-3.9-2
					c-0.5-0.1-0.9,0-1.3,0.4C0,27.6,0.2,28.1,0.5,28.5z"/>
				<path class="st9" d="M18.8,31.4c4.1,2,8.9,1.8,13.3,0.6c0.3,0,0.6,0.2,0.4,0.5c-0.1,0.2-0.2,0.3-0.4,0.4
					c-0.2,0.1-0.4,0.1-0.6,0.2c0,0,0,0,0,0c0,0-0.1,0-0.1,0c-0.1,0-0.1,0-0.2,0c0,0,0,0,0,0c-2.1,0.3-4.2,0.6-6.4,0.8
					c-2,0.2-4,0.4-6.1,0.4c-4,0.1-8.2-0.4-11.9-2C5.4,31.7,4.1,31,3,30.2c-0.7-0.5-1.6-1-2.2-1.8c-0.3-0.4-0.5-1,0.1-1.3
					c0.3-0.2,0.6-0.2,0.9,0c0.9,0.3,1.7,0.7,2.5,1.2c0.8,0.5,1.6,0.9,2.3,1.4c0.9,0.6,2,1,3,1.4c2.7,1.1,5.4,1.8,8.4,1.2
					c0.1,0,0.1-0.1,0.1-0.2c0,0,0,0-0.1,0c-4.9-0.9-5.9-6.6-9.1-9.6c-0.7-0.7-1.5-1.2-2.3-1.6c-0.7-0.4-1.8-0.8-2.2-1.6
					c-0.3-0.5,0-1.2,0.5-1.4c0.4-0.2,0.8,0,1.2,0.1c1.2,0.6,2.1,1.6,3,2.6c1.1,1.3,2.1,2.6,3.1,4c0.8,1.1,1.6,2.2,2.3,3.4
					c0.2,0.3,0.4,0.6,0.6,0.9c0.6,0.7,1.4,1.3,2.2,1.8C17.8,30.8,18.3,31.1,18.8,31.4z"/>
			</g>
		</g>
		<g>
			<path class="st10" d="M69.5,31.8c0,11.8-0.8,28.4-26.6,28.4c-23.6,0-26.7-16.6-26.7-28.4s11.9-21.4,26.6-21.4S69.5,20,69.5,31.8z
				"/>
			<path class="st11" d="M69.5,31.8c0,3.5-0.1,6.9-0.6,10.4c-0.5,3.4-1.6,6.8-3.7,9.7c-2,2.9-4.9,5.1-8.2,6.4
				c-3.2,1.4-6.7,2-10.2,2.2c-3.5,0.2-7,0.2-10.4-0.4c-3.4-0.6-6.8-1.7-9.8-3.6c-3-1.8-5.4-4.5-7-7.6c-1.7-3.1-2.6-6.5-3.1-9.9
				c-0.3-1.7-0.4-3.4-0.5-5.2c-0.1-1.7-0.1-3.5,0.2-5.2c0.6-3.5,2.2-6.7,4.5-9.4c2.3-2.7,5.2-4.8,8.3-6.3c3.2-1.5,6.6-2.5,10.1-2.8
				c3.5-0.4,7-0.2,10.4,0.5c3.4,0.7,6.7,2.1,9.7,4c2.9,1.9,5.5,4.3,7.4,7.3C68.5,24.9,69.6,28.4,69.5,31.8z M69.5,31.8
				c0-3.4-1.1-6.9-3-9.7c-1.9-2.9-4.5-5.2-7.4-7c-2.9-1.8-6.2-3-9.5-3.6c-3.3-0.7-6.8-0.8-10.2-0.5c-6.7,0.7-13.4,3.6-18,8.7
				c-2.3,2.5-3.9,5.6-4.6,9c-0.3,1.7-0.3,3.4-0.3,5.1c0,1.7,0.2,3.4,0.4,5.1c0.5,3.4,1.4,6.8,3,9.8c1.6,3,4.1,5.6,7,7.4
				c2.9,1.8,6.3,2.8,9.7,3.3c3.4,0.5,6.9,0.5,10.3,0.3c1.7-0.1,3.4-0.4,5.1-0.7c1.7-0.3,3.3-0.8,4.9-1.4c3.2-1.2,6-3.3,8.1-6
				c2.1-2.7,3.2-6.1,3.9-9.4C69.4,38.7,69.5,35.3,69.5,31.8z"/>
		</g>
		<path class="st2" d="M55.2,25.9C55.2,25.9,55.3,25.9,55.2,25.9c0.1,0,0.1-0.1,0.2-0.1c0.3-0.1,0.4-0.3,0.6-0.5c0,0,0-0.1,0-0.1
			c0.2-0.3,0.3-0.6,0.3-1c0.1-1.9-2.2-2.2-3.4-1.2c-0.2,0.2-0.3,0.4-0.4,0.6c-0.3,0.6-0.2,1.3,0.3,1.8
			C53.4,25.9,54.5,26.2,55.2,25.9z"/>
		<path class="st2" d="M31.1,25.9C31.1,25.9,31.1,25.9,31.1,25.9c0.1,0,0.1-0.1,0.2-0.1c0.3-0.1,0.4-0.3,0.6-0.5c0,0,0-0.1,0-0.1
			c0.2-0.3,0.3-0.6,0.3-1c0.1-1.9-2.2-2.2-3.4-1.2c-0.2,0.2-0.3,0.4-0.4,0.6c-0.3,0.6-0.2,1.3,0.3,1.8
			C29.2,25.9,30.3,26.2,31.1,25.9z"/>
		<path class="st2" d="M26.8,45.5c0,0-0.1,0-0.1,0c-0.1,0-0.2,0-0.3,0c-0.1,0.1-0.2,0.2-0.2,0.3c0,0.1,0,0.2,0.1,0.3
			c0.1,0.1,0.2,0.1,0.4,0.1c0,0,0.1,0,0.1,0C27.1,46.2,27.1,45.5,26.8,45.5z"/>
		<path class="st2" d="M31,48c-0.2,0-0.2,0.2,0,0.2C31.2,48.3,31.2,48,31,48z"/>
		<path class="st2" d="M36.1,47.8c0,0-0.1,0-0.1,0c-0.2,0-0.3,0.2-0.3,0.3c0,0.2,0.1,0.3,0.3,0.3c0,0,0.1,0,0.1,0
			c0.2,0,0.3-0.1,0.3-0.3C36.4,48,36.2,47.9,36.1,47.8z"/>
		<path class="st2" d="M38.1,42.8c-0.4,0-0.4,0.6,0,0.6C38.5,43.4,38.5,42.8,38.1,42.8z"/>
		<path class="st2" d="M31.2,42.1C31.1,42.1,31.1,42.1,31.2,42.1c-0.3,0.2-0.3,0.5-0.1,0.6c0,0,0.1,0,0.1,0c0.2,0.2,0.6-0.1,0.6-0.3
			C31.7,42.1,31.4,41.9,31.2,42.1z"/>
		<path class="st2" d="M26.8,35.7c-0.2,0-0.2,0.3,0,0.3C27,36,27,35.7,26.8,35.7z"/>
		<path class="st2" d="M27.6,40.2c-0.3,0-0.3,0.4,0,0.4C27.9,40.6,27.9,40.2,27.6,40.2z"/>
		<path class="st2" d="M28.2,32.6c-0.2,0-0.2,0.4,0,0.4C28.5,33,28.5,32.6,28.2,32.6z"/>
		<path class="st2" d="M30.6,36.7c0.2,0.1,0.5-0.1,0.5-0.4c0-0.2-0.2-0.5-0.5-0.4c0,0-0.1,0-0.1,0c-0.1,0.1-0.2,0.2-0.2,0.3
			C30.3,36.5,30.4,36.6,30.6,36.7C30.6,36.7,30.6,36.7,30.6,36.7z"/>
		<path class="st2" d="M29.8,38.9c-0.4,0-0.4,0.6,0,0.6C30.2,39.5,30.2,38.9,29.8,38.9z"/>
		<path class="st2" d="M33.9,39.3c0.3,0,0.3-0.5,0-0.5C33.6,38.8,33.6,39.3,33.9,39.3z"/>
		<path class="st2" d="M32.8,44.1c-0.4,0-0.4,0.7,0,0.7C33.3,44.7,33.3,44.1,32.8,44.1z"/>
		<path class="st2" d="M31.1,47c0-0.3-0.3-0.5-0.6-0.3c0,0-0.1,0-0.1,0c-0.2,0.1-0.2,0.5,0,0.6c0,0,0.1,0,0.1,0
			C30.8,47.5,31.1,47.3,31.1,47z"/>
		<path class="st2" d="M28.1,48.4c-0.2,0-0.3,0.1-0.3,0.3c0,0.1,0,0.2,0.1,0.3c0.1,0.2,0.4,0.2,0.5,0c0.1-0.1,0.1-0.2,0.1-0.3
			C28.5,48.5,28.3,48.4,28.1,48.4z"/>
		<path class="st2" d="M39.9,49.7c-0.5,0-0.5,0.8,0,0.8C40.4,50.5,40.4,49.7,39.9,49.7z"/>
		<path class="st2" d="M44,46.1c-0.3,0-0.3,0.4,0,0.4C44.2,46.5,44.2,46.1,44,46.1z"/>
		<path class="st2" d="M45.3,45.5c-0.1,0-0.2-0.1-0.2-0.1c-0.2,0-0.3,0.2-0.3,0.3c0,0.2,0.1,0.3,0.3,0.3c0.1,0,0.2,0,0.2-0.1
			C45.5,45.9,45.5,45.6,45.3,45.5z"/>
		<path class="st2" d="M46.9,47.3c-0.5,0-0.5,0.8,0,0.8C47.4,48.1,47.4,47.3,46.9,47.3z"/>
		<path class="st2" d="M43.4,49.1c-0.5,0-0.5,0.8,0,0.8C43.9,49.9,43.9,49.1,43.4,49.1z"/>
		<path class="st2" d="M39.2,45.8c-0.5,0-0.5,0.8,0,0.8C39.7,46.6,39.7,45.8,39.2,45.8z"/>
		<path class="st2" d="M52.8,48.9c-0.5,0-0.5,0.8,0,0.8C53.2,49.7,53.2,48.9,52.8,48.9z"/>
		<path class="st2" d="M49.4,48.8C49.4,48.8,49.4,48.8,49.4,48.8c0.1-0.3,0-0.6-0.3-0.6s-0.4,0.3-0.3,0.5c0,0,0,0.1,0,0.1
			C48.9,49,49.3,49,49.4,48.8z"/>
		<path class="st2" d="M53.1,44.6c-0.4,0-0.4,0.6,0,0.6C53.5,45.2,53.5,44.6,53.1,44.6z"/>
		<path class="st2" d="M47.3,42.2C47.3,42.2,47.3,42.2,47.3,42.2c-0.1-0.1-0.2-0.1-0.4,0c-0.2,0-0.3,0.2-0.3,0.4
			c0,0.1,0.1,0.2,0.2,0.3c0,0,0,0,0,0.1C46.9,43,47,43,47.1,43c0.3,0.1,0.5-0.1,0.5-0.4c0-0.1,0-0.2-0.1-0.3
			C47.5,42.2,47.4,42.2,47.3,42.2z"/>
		<path class="st2" d="M43.1,39.1C43.1,39.1,43.1,39.1,43.1,39.1c-0.2-0.1-0.4-0.1-0.5,0c-0.1,0.1-0.1,0.2-0.1,0.4
			c0,0,0,0.1,0.1,0.1C42.9,40,43.6,39.4,43.1,39.1z"/>
		<path class="st2" d="M48.3,37.2c-0.3,0-0.3,0.4,0,0.4C48.5,37.6,48.5,37.2,48.3,37.2z"/>
		<path class="st2" d="M52.6,41.2c0,0,0.1-0.1,0.1-0.1c0.2-0.1,0.2-0.4,0.1-0.5c-0.2-0.2-0.4-0.1-0.5,0.1c0,0-0.1,0.1-0.1,0.1
			C52,41,52.4,41.4,52.6,41.2z"/>
		<path class="st2" d="M43.8,41.5c-0.4,0-0.4,0.7,0,0.7C44.2,42.2,44.2,41.5,43.8,41.5z"/>
		<path class="st2" d="M41.1,42c-0.4,0-0.4,0.6,0,0.6C41.4,42.6,41.4,42,41.1,42z"/>
		<path class="st2" d="M39,37.6c0-0.1-0.1-0.3-0.2-0.3c-0.1,0-0.2,0-0.3,0.1c-0.1,0-0.1,0-0.2,0c-0.1,0.1-0.2,0.2-0.2,0.3
			c0,0.2,0.2,0.4,0.4,0.3C38.8,38,39,37.9,39,37.6z"/>
		<path class="st2" d="M56.4,37.4c0.5,0,0.5-0.8,0-0.8C55.9,36.6,55.9,37.4,56.4,37.4z"/>
		<path class="st2" d="M59.8,43.2c-0.5,0-0.5,0.8,0,0.8S60.3,43.2,59.8,43.2z"/>
		<path class="st2" d="M58.5,40.5c0,0-0.1,0-0.1-0.1c-0.3-0.1-0.5,0.1-0.4,0.4c0,0,0,0.1,0.1,0.1c0.1,0.2,0.4,0.2,0.5,0.1
			C58.7,40.8,58.6,40.6,58.5,40.5z"/>
		<path class="st2" d="M56.6,47.1c-0.2,0-0.2,0.4,0,0.4C56.9,47.5,56.9,47.1,56.6,47.1z"/>
		<path class="st2" d="M56.6,44.6c-0.3,0-0.3,0.5,0,0.5S56.9,44.6,56.6,44.6z"/>
		<path class="st2" d="M59.9,45.7c-0.4,0-0.4,0.6,0,0.6C60.2,46.2,60.2,45.7,59.9,45.7z"/>
		<path class="st2" d="M56,50.7c-0.4,0-0.4,0.6,0,0.6C56.4,51.3,56.4,50.7,56,50.7z"/>
		<path class="st2" d="M55.8,32.7c0.1,0,0.1-0.2,0-0.2C55.7,32.5,55.7,32.7,55.8,32.7z"/>
		<path class="st2" d="M48.5,33.3c-0.1,0-0.1,0.2,0,0.2C48.6,33.5,48.6,33.3,48.5,33.3z"/>
		<path class="st2" d="M45.2,33c-0.2,0-0.2,0.3,0,0.3C45.4,33.2,45.4,33,45.2,33z"/>
		<path class="st12" d="M34.1,33c0,0,3.3-2.1,7.9-0.5c4.8-1.5,6.9,0,9,0.9"/>
	</g>
</g>
</svg>
