<?xml version="1.0" encoding="utf-8"?>
<!-- Generator: Adobe Illustrator 21.0.0, SVG Export Plug-In . SVG Version: 6.00 Build 0)  -->
<svg version="1.1" id="圖層_1" xmlns="http://www.w3.org/2000/svg" xmlns:xlink="http://www.w3.org/1999/xlink" x="0px" y="0px"
	 viewBox="0 0 92.4 57.3" style="enable-background:new 0 0 92.4 57.3;" xml:space="preserve">
<style type="text/css">
	.st0{fill:#FFFFFF;}
	.st1{fill:#FCEE21;}
	.st2{fill:#232020;}
	.st3{fill:#FBB03B;}
	.st4{fill:#F2F49D;}
	.st5{fill:#EF846A;}
	.st6{fill:#F5B39D;}
	.st7{fill:#C7B299;}
	.st8{fill:#808080;}
	.st9{fill:none;stroke:#2D2D2D;stroke-width:0.4006;stroke-miterlimit:10;}
	.st10{fill:#E6E6E6;}
	.st11{fill:#333333;}
	.st12{fill:none;stroke:#1D0600;stroke-width:0.4006;stroke-miterlimit:10;}
	.st13{clip-path:url(#SVGID_2_);}
	.st14{clip-path:url(#SVGID_4_);}
</style>
<g>
	<g>
		<path class="st7" d="M74.3,0H45.6c-1.4,0-2.6,0.7-3.3,1.9L28,26.7c-0.7,1.2-0.7,2.7,0,3.8l14.3,24.8c0.7,1.2,2,1.9,3.3,1.9h28.6
			c1.4,0,2.6-0.7,3.3-1.9l14.3-24.8c0.7-1.2,0.7-2.7,0-3.8L77.6,1.9C76.9,0.7,75.6,0,74.3,0z"/>
		<g>
			<defs>
				<path id="SVGID_3_" d="M74.3,0H45.6c-1.4,0-2.6,0.7-3.3,1.9L28,26.7c-0.7,1.2-0.7,2.7,0,3.8l14.3,24.8c0.7,1.2,2,1.9,3.3,1.9
					h28.6c1.4,0,2.6-0.7,3.3-1.9l14.3-24.8c0.7-1.2,0.7-2.7,0-3.8L77.6,1.9C76.9,0.7,75.6,0,74.3,0z"/>
			</defs>
			<clipPath id="SVGID_2_">
				<use xlink:href="#SVGID_3_"  style="overflow:visible;"/>
			</clipPath>
			<g class="st13">
				<g>
					<path class="st10" d="M101.4,30.8c0.7-5.8,0.4-11.8-1.9-17.1c-4.1-1-8.3-1.7-12.5-2.3c-1.2-0.2-2.4-0.3-3.6-0.4
						c0,0.2-0.3,0.1-0.3,0c-0.8-0.1-1.6-0.2-2.5-0.2c-2-0.2-4-0.2-6-0.4c1.1,0.5,2,1.3,2.7,2.3c2.7,3.7,2.9,8.5,2.9,12.9
						c0,2.6,0,5.2-0.3,7.8c-0.3,2.5-0.8,5.1-1.7,7.5c-1.4,4.1-3.6,8.5-8.3,8.9c0,0,0,0,0,0c3.1,1.2,6.6,0.7,9.7,0.2
						c3.5-0.5,6.9-1.1,10.4-1.8c0-0.1,0.2-0.2,0.3-0.1c0,0,0,0,0,0c0.3-0.1,0.7-0.1,1-0.2c2.3-0.5,4.6-1.2,6.9-1.8
						c1.2-2.1,1.5-4.7,1.9-7.1C100.5,36.1,101.1,33.5,101.4,30.8z M96.6,24.3c0.1,0.2-0.2,0.2-0.3,0.1c-0.1-0.2-1.6-0.1-1.9-0.1
						c-1,0-2.1,0-3.1,0c-2.8,0-5.6,0.1-8.4,0.4c-0.1,0-0.1-0.2,0-0.2c3-0.4,6-0.5,9-0.5c1.1,0,2.2,0,3.3,0
						C95.5,24,96.4,23.9,96.6,24.3z M96,21.4c-1.8-0.6-3.9-0.2-5.7-0.1c-1.1,0.1-2.2,0.1-3.3,0.2c-1.3,0.1-2.7,0.2-4,0
						c-0.1,0-0.1-0.1,0-0.1c1.5,0.1,3,0,4.5-0.2c1-0.1,2.1-0.1,3.1-0.2c1.1-0.1,2.2-0.2,3.3-0.2c0.7,0,1.5,0,2.1,0.3
						C96.3,21.2,96.2,21.4,96,21.4z M81.6,16.8c3.9,0.3,7.9,0.3,11.8-0.1c0.2,0,0.2,0.2,0,0.3c-3.9,0.5-7.9,0.4-11.8-0.1
						C81.5,16.9,81.5,16.8,81.6,16.8z M82.5,18.6c2.3,0.1,4.6,0.1,6.8,0c1.9-0.1,3.8-0.5,5.7,0c0.2,0,0.1,0.3-0.1,0.3
						c-2-0.3-4,0-6.1,0c-2.1,0-4.3,0.1-6.4-0.2C82.4,18.7,82.4,18.6,82.5,18.6z M92.3,40.8c-1.6,0.2-3.2,0.3-4.8,0.4
						c-1.6,0.1-3.2,0.2-4.7,0.3c-0.1,0-0.1-0.1,0-0.1c1.6-0.1,3.2-0.3,4.7-0.4c1.6-0.1,3.2-0.4,4.7-0.4
						C92.4,40.5,92.4,40.8,92.3,40.8z M93.8,38.6c-3.7-0.1-7.3,0.1-11,0.4c-0.1,0-0.1-0.2,0-0.2c3.6-0.4,7.3-0.7,11-0.5
						C93.9,38.4,93.9,38.6,93.8,38.6z M83.4,33.2c3.9-0.4,7.8-0.7,11.7-0.6c0.2,0,0.2,0.3,0,0.3c-3.9-0.1-7.8,0.1-11.7,0.5
						C83.2,33.4,83.2,33.2,83.4,33.2z M95.1,35.5c-3.9-0.3-7.7,0.2-11.5,0.8c-0.1,0-0.1-0.2,0-0.2c3.8-0.5,7.7-1.3,11.6-0.8
						C95.3,35.3,95.3,35.6,95.1,35.5z M95.7,30c-4.2,0-8.4,0.2-12.6,0.2c0,0,0-0.1,0-0.1c4.2,0,8.4-0.5,12.6-0.4
						C95.9,29.7,95.9,30,95.7,30z M96.9,26.7c-2.3-0.4-4.6-0.4-6.9-0.1c-2.1,0.2-4.3,0.6-6.4,0.7c-0.1,0-0.1-0.1,0-0.1
						c0.1,0,0.3-0.1,0.4-0.1c0,0,0.1,0.1,0,0.1c-0.5,0.1,0.2,0,0.3-0.1c0.3,0,0.5,0,0.8-0.1c0.7-0.1,1.3-0.2,2-0.3
						c1-0.2,2.1-0.3,3.1-0.4c2.2-0.3,4.6-0.5,6.7,0.1C97.1,26.5,97.1,26.7,96.9,26.7z"/>
					<path class="st10" d="M90.1,48.3c-3.8,0.8-7.7,1.5-11.6,2c-2.8,0.4-6.2,0.9-8.8-0.5c0,0-0.1,0-0.1-0.1c-0.1,0-0.1-0.1-0.2-0.1
						c0,0,0,0,0,0c0,0,0,0-0.1,0c-1.1,0.5-1.2,2.3-1,3.4c0.3,1.7,1.6,2.9,2.9,3.7c3.4,2.2,7.3,2.8,11.2,1.6
						C85.9,57.4,93.7,52.5,90.1,48.3L90.1,48.3z M72.6,54.8c0,0.2-0.3,0.2-0.3,0c0-0.9,0.1-1.8,0.1-2.7c0-0.1,0.2-0.1,0.2,0
						C72.7,53,72.7,53.9,72.6,54.8z M74.4,56c-0.3-1.3-0.1-2.7,0-4c0-0.1,0.2-0.1,0.2,0c0,1.3,0,2.6,0.1,4
						C74.7,56.1,74.4,56.1,74.4,56z M77.2,56.1c-0.3-1.1-0.2-2.3-0.3-3.5c0-0.1,0.2-0.1,0.2,0c0.1,1.1,0.1,2.3,0.4,3.4
						C77.4,56.2,77.2,56.2,77.2,56.1z M79.8,55.7c-0.3-1.1-0.3-2.3-0.5-3.4c0-0.1,0.2-0.2,0.2-0.1c0.3,1.1,0.3,2.3,0.6,3.4
						C80.1,55.8,79.8,55.9,79.8,55.7z M81.7,55c-0.2-1-0.3-1.9-0.5-2.9c0-0.2,0.2-0.2,0.2-0.1c0.2,1,0.3,1.9,0.5,2.9
						C82,55.1,81.7,55.2,81.7,55z M83.9,54.5c-0.4-0.8-0.5-1.7-0.6-2.5c0-0.2,0.2-0.2,0.2-0.1c0.1,0.9,0.3,1.7,0.6,2.5
						C84.2,54.5,83.9,54.6,83.9,54.5z M86.1,53.4c-0.5-0.6-0.7-1.4-0.9-2.1c-0.1-0.2,0.2-0.2,0.3-0.1c0.2,0.7,0.5,1.4,0.9,2
						C86.4,53.4,86.2,53.6,86.1,53.4z M87.8,52.5c-0.1-0.3-0.2-0.6-0.3-0.9c-0.1-0.3-0.2-0.6-0.4-0.9c-0.1-0.2,0.2-0.3,0.3-0.2
						c0.3,0.6,0.6,1.3,0.6,2C88.1,52.6,87.9,52.6,87.8,52.5z"/>
					<path class="st10" d="M83.9,10.7c3,0.3,5.9,0.7,8.9,1.2c0.1-1.7,0.1-3.6-1.6-4.6c-1-0.6-2.2-0.8-3.3-0.8
						c-1.8,0.1-3.8,0.9-4.3,2.6c0,0.4,0,0.9-0.1,1.3c0,0,0,0.1,0,0.1C83.6,10.7,83.7,10.7,83.9,10.7z"/>
					<path class="st10" d="M72.8,9.7c0.5,0.1,1,0.3,1.5,0.5c2.9-0.1,5.8,0.1,8.7,0.4c0.2-1.4,0.3-2.7-0.7-3.9
						c-1-1.1-2.3-1.8-3.8-1.9c-1.3-0.1-2.8,0.1-3.9,1C73.5,6.7,72.3,8.2,72.8,9.7C72.8,9.7,72.8,9.7,72.8,9.7z"/>
					<path class="st10" d="M76.3,27.7c0.3,4.4,0,9-1.3,13.3c-0.9,3.1-2.4,6.2-4.8,8.4c5.2-0.7,7.2-6.6,8.4-11.1
						c0.6-2.4,1-4.9,1.1-7.4c0.2-3.1,0.2-6.2,0-9.2c-0.3-3.5-1-7.7-3.9-10.1c-2.7-2.2-6.1-1.6-9.3-1.5C73.5,12,75.9,21.3,76.3,27.7z
						"/>
					<path class="st10" d="M42.9,32.5c0.9,2.1,2.2,4.1,3.8,5.8c2,2.1,4.5,3.6,7,4.9c5.1,2.5,10.6,3.9,15.7,6.2c0,0,0,0,0,0
						c0.1,0,0.2,0,0.3,0c2.5-2.1,4-5.2,4.9-8.3c1.2-3.9,1.6-8.1,1.4-12.2c-0.2-4.3-1-8.8-3.1-12.7c-1.7-3.2-4.5-6-8.3-6.3
						c-2.3-0.2-4.5,0.4-6.6,1.2c-2.9,1-5.7,2.5-8.2,4.2c-4.7,3.3-9.5,8.6-7.8,14.8"/>
				</g>
				<g>
					<path class="st2" d="M147.6,19.8c-0.4,0.3-0.7,0.6-1,0.9c-0.1-0.7-0.3-1.4-0.5-2c0-0.1-0.1-0.1-0.2-0.1c-0.3,0.4-0.7,0.9-1,1.3
						c0-0.9-0.1-1.8-0.3-2.6c0-0.1-0.1-0.1-0.2-0.1c-0.7,0.7-1.4,1.4-2,2.1c0-0.3,0-0.7,0-1c0-1,0.1-2.1-0.5-3c0-0.1-0.1-0.1-0.2,0
						c-0.9,0.6-1.5,1.5-2.2,2.3c-0.1-0.6-0.2-1.3-0.4-1.9c0-0.1-0.2-0.1-0.2-0.1c-2.7,2.3-5.4,5.3-5.6,9c-0.1,0-0.1,0-0.2-0.1
						c0,0-0.1,0-0.1,0c-3.3-1.4-6.5-2.7-9.8-4l0,0c0-0.1-0.1-0.1-0.1,0c-1.8-0.7-3.7-1.4-5.5-2c0,0,0,0-0.1,0
						c-0.8-0.3-1.7-0.6-2.5-0.9c0,0,0,0-0.1,0c-0.9-0.3-1.8-0.6-2.7-0.9c0,0,0-0.1,0-0.1c0-0.1-0.1,0-0.1,0
						c-0.8-0.3-1.6-0.5-2.4-0.7c0,0,0,0,0,0c0-0.1-0.1-0.1-0.1,0c-1-0.3-2.1-0.6-3.2-0.9c0.6-1.7-0.2-3.2-2-3.7
						c-1.4-0.4-2.9,0.3-3.4,1.6c0-1.1-0.1-2.2-0.8-3c-0.8-1-1.9-1.4-3.1-1.5c-1.6-0.1-3.4,0.9-4,2.4c0-1.4-0.4-2.7-1.6-3.6
						c-1.1-0.8-2.5-1-3.8-0.9c-1.7,0.1-3.5,0.9-4.2,2.3c-0.1-0.7-0.3-1.3-0.8-2c-1-1.3-2.6-2-4.2-2.1c-1.5-0.2-3.2,0.3-4.4,1.3
						c-1.1,0.9-2.1,2.4-1.6,3.9c0,0-0.1,0-0.1,0c-2-0.3-4.2,0-6.2,0.2c0,0-0.1,0-0.1,0.1c-0.4-0.1-0.7-0.2-1.1-0.2
						c-2.1-0.3-4.2,0.3-6.2,0.9c-2.8,0.9-5.5,2.2-8,3.8c-4.5,2.9-9.2,7.4-9.4,13.1c-0.1,2.9,1.2,5.8,2.8,8.2
						c1.5,2.3,3.6,4.2,5.9,5.7c4.8,3.2,10.5,4.7,15.8,6.7c1,0.4,2.1,0.8,3.1,1.3c0.1,0,0.1,0.1,0.2,0.1c-0.8,0.3-1.1,1.2-1.2,2.1
						c-0.2,1.3,0.1,2.5,0.9,3.5c0.9,1.3,2.4,2.1,3.7,2.8c1.7,0.9,3.5,1.3,5.4,1.4c3,0.1,5.7-0.8,8.2-2.3c2-1.3,4.2-3,4.9-5.4
						c0.4-1.2,0-2.4-0.7-3.4c2.5-0.6,5.1-1.2,7.6-2c0.1,0.1,0.2,0.1,0.3,0c0,0,0-0.1,0.1-0.1c1.2-0.4,2.5-0.8,3.7-1.2
						c0.1,0,0.2,0,0.2-0.1c0.6-0.2,1.2-0.4,1.7-0.7c0.1,0,0.2,0,0.2-0.1c0.5-0.2,1-0.4,1.5-0.6c0.1,0.1,0.2,0.1,0.2,0
						c0,0,0-0.1,0-0.1c1.1-0.5,2.2-0.9,3.2-1.4c0.1,0.1,0.3,0,0.3-0.1l0,0c1.3-0.6,2.5-1.2,3.7-1.9c0.2-0.1,0.3-0.2,0.5-0.3
						c0.1,0,0.2,0,0.2-0.1l0,0c0.3-0.2,0.7-0.4,1-0.6c0.1,0,0.2,0,0.2-0.1c0.4-0.3,0.8-0.5,1.3-0.8c0.1,0,0.1,0,0.1-0.1
						c2.4-1.5,4.7-3.1,7-4.8c0.1,0,0.2,0,0.2-0.1c0,0,0-0.1,0-0.1c0.5-0.3,0.9-0.7,1.4-1c0.1-0.1,0.3-0.2,0.4-0.3c0,0,0.1,0,0.1-0.1
						c1.5-1.1,2.9-2.2,4.4-3.3c0,0,0,0,0.1,0c0.1,0.1,0.3,0.1,0.3-0.1c0,0,0-0.1,0-0.1c1.1-0.7,2.2-1.5,2.8-2.7
						c0.4,0.6,0.9,1.1,1.4,1.7c0.6,0.8,1.1,1.7,1.7,2.6c0.9,1.6,1.9,3.1,3.3,4.4c0.1,0.1,0.2,0.1,0.3-0.1c0.2-1.1,0.3-2.2,0.3-3.4
						c0.6,0.7,1.5,1.4,2.4,1.5c0.1,0,0.2,0,0.2-0.2c0-1.1,0-2.3,0-3.4c0.8,0.5,1.6,0.8,2.3,1.3c0.1,0.1,0.2,0,0.2-0.1
						c0-0.9,0-1.7-0.1-2.6c0.4,0.2,0.8,0.4,1.2,0.5c0.1,0,0.2,0,0.2-0.1c0.1-0.5,0.1-1,0.2-1.5c0.4,0.1,0.7,0.3,1.1,0.3
						c0.1,0,0.1-0.1,0.1-0.1c0.7-2,0.5-4.4-0.1-6.4C147.8,19.8,147.7,19.8,147.6,19.8z M104.1,11.6c1.6,0.4,2.4,1.8,1.8,3.4
						c-1.7-0.5-3.3-0.9-5-1.3C101.3,12.1,102.5,11.2,104.1,11.6z M97.1,8.7c1.1,0,2.1,0.5,2.8,1.4c0.7,1,0.8,2.3,0.6,3.5
						c-2.5-0.6-4.9-1.1-7.4-1.6C93.2,9.9,95.1,8.7,97.1,8.7z M83.5,9.2c0.5-1.7,2.5-2.5,4.3-2.6c1.1-0.1,2.3,0.2,3.3,0.8
						c1.6,1,1.7,2.9,1.6,4.6c-2.9-0.5-5.9-0.9-8.9-1.2c-0.2,0-0.3,0-0.5,0c0,0,0-0.1,0-0.1C83.5,10.1,83.5,9.6,83.5,9.2z M74.6,5.8
						c1.1-0.8,2.5-1.1,3.9-1C80,5,81.3,5.7,82.3,6.7c1,1.1,1,2.5,0.7,3.9c-2.9-0.3-5.8-0.5-8.7-0.4c-0.5-0.2-1-0.4-1.5-0.5
						c0,0,0,0,0,0C72.3,8.2,73.5,6.7,74.6,5.8z M75.8,11.5c2.9,2.4,3.7,6.6,3.9,10.1c0.2,3,0.2,6.2,0,9.2c-0.1,2.5-0.5,5-1.1,7.4
						c-1.1,4.5-3.2,10.4-8.4,11.1c2.4-2.2,3.9-5.3,4.8-8.4c1.3-4.3,1.6-8.8,1.3-13.3C75.9,21.3,73.5,12,66.5,10
						C69.7,9.9,73.1,9.3,75.8,11.5z M42.1,30.2c-1.6-6.2,3.2-11.5,7.8-14.8c2.5-1.8,5.3-3.2,8.2-4.2c2.1-0.8,4.4-1.4,6.6-1.2
						c3.8,0.3,6.6,3.1,8.3,6.3c2.1,3.8,2.9,8.3,3.1,12.7c0.2,4.1-0.2,8.3-1.4,12.2c-0.9,3-2.4,6.2-4.9,8.3c-0.1,0-0.2,0-0.3,0
						c0,0,0,0,0,0c-5.1-2.4-10.6-3.8-15.7-6.2c-2.6-1.3-5-2.8-7-4.9c-1.6-1.6-2.9-3.6-3.8-5.8 M82.5,58.4c-3.9,1.2-7.8,0.5-11.2-1.6
						c-1.4-0.9-2.6-2.1-2.9-3.7c-0.2-1.1-0.1-2.8,1-3.4c0,0,0,0,0.1,0c0,0,0,0,0,0c0.1,0,0.1,0.1,0.2,0.1c0,0,0.1,0.1,0.1,0.1
						c2.6,1.3,6,0.9,8.8,0.5c3.9-0.6,7.7-1.2,11.6-2l0,0C93.7,52.5,85.9,57.4,82.5,58.4z M98.1,45.9c-2.3,0.7-4.6,1.3-6.9,1.8
						c-0.3,0.1-0.6,0.1-1,0.2c0,0,0,0,0,0c-0.1-0.1-0.2,0-0.3,0.1c-3.4,0.7-6.9,1.3-10.4,1.8c-3.2,0.5-6.7,1.1-9.7-0.2c0,0,0,0,0,0
						c4.7-0.4,6.9-4.8,8.3-8.9c0.8-2.4,1.4-5,1.7-7.5c0.3-2.6,0.3-5.2,0.3-7.8c0-4.4-0.2-9.2-2.9-12.9c-0.7-1-1.7-1.8-2.7-2.3
						c2,0.1,4,0.2,6,0.4c0.8,0.1,1.6,0.1,2.5,0.2c0,0.2,0.3,0.2,0.3,0c1.2,0.1,2.4,0.3,3.6,0.4c4.2,0.6,8.4,1.3,12.5,2.3
						c2.4,5.4,2.6,11.4,1.9,17.1c-0.3,2.7-1,5.4-1.4,8C99.6,41.2,99.3,43.7,98.1,45.9z M100.3,45.2c-0.6,0.2-1.1,0.4-1.7,0.5
						c1.1-2.1,1.4-4.5,1.8-6.8c0.4-2.7,1.1-5.4,1.4-8.1c0.7-5.8,0.3-11.7-2.1-17.1c0,0,0.1,0,0.1,0c0.5,0.1,1,0.2,1.5,0.4
						c0.6,0.6,0.8,1.6,1,2.3c0.3,0.9,0.5,1.8,0.6,2.8c0.5,2.9,0.5,5.8,0.4,8.7c-0.1,5.8-0.9,11.8-3.1,17.3
						C100.3,45.1,100.3,45.2,100.3,45.2z M102,44.6c-0.5,0.2-0.9,0.3-1.4,0.5c2.3-5.6,3-11.8,3.1-17.8c0-2.8,0-5.7-0.5-8.5
						c-0.2-1.1-0.5-2.1-0.8-3.1c-0.2-0.5-0.5-1.1-0.9-1.5c0.5,0.1,1,0.2,1.4,0.4c1,2,1.2,4.3,1.4,6.5c0.3,2.6,0.6,5.1,0.5,7.8
						c0,2.8-0.4,5.5-0.9,8.3C103.5,39.5,102.9,42.1,102,44.6z M104,43.9c-0.5,0.2-1,0.4-1.6,0.6c0.8-2.4,1.4-4.9,1.8-7.4
						c0.5-2.8,0.9-5.5,0.9-8.3c0-2.7-0.3-5.5-0.6-8.2c-0.2-2-0.4-4.2-1.5-6c0.6,0.1,1.1,0.3,1.7,0.4c1.3,4.5,1.7,9.2,1.5,13.9
						C106,34,104.5,38.8,104,43.9z M105.8,43.2c-0.5,0.2-1,0.4-1.5,0.6c0.5-5,1.9-9.8,2.2-14.9c0.2-4.6-0.1-9.5-1.6-13.9
						c0.3,0.1,0.7,0.2,1,0.3c0,0,0.1,0.1,0.2,0c0.1,0,0.1,0,0.2,0c1.1,4.6,1.4,9.4,1.2,14.1c-0.1,2.4-0.2,4.7-0.5,7.1
						c-0.1,1.3-0.4,2.7-0.6,4C106.3,41.4,106.2,42.4,105.8,43.2z M106.2,43c0.2-0.6,0.3-1.2,0.4-1.8c0.3-1.3,0.5-2.5,0.6-3.8
						c0.3-2.5,0.5-5.1,0.6-7.7c0.1-4.8-0.1-9.7-1.4-14.3c0.5,0.2,1.1,0.3,1.6,0.5c0.8,1.5,0.8,3.4,1,5c0.2,2.3,0.3,4.7,0.3,7
						c-0.1,2.5-0.3,4.9-0.8,7.4c-0.5,2.5-1.1,4.9-1.5,7.4C106.7,42.8,106.5,42.9,106.2,43z M109.3,41.6c-0.6,0.3-1.3,0.6-1.9,0.9
						c0.4-2.4,0.9-4.7,1.4-7.1c0.5-2.5,0.8-5,0.8-7.5c0.1-2.5-0.1-4.9-0.3-7.4c-0.2-1.5-0.3-3.3-1-4.6c0.4,0.1,0.8,0.2,1.3,0.4
						c0.8,4.2,1.5,8.4,1.5,12.7c0,2.2-0.2,4.5-0.6,6.7C109.9,37.7,109.4,39.6,109.3,41.6z M109.6,41.4c0.2-2.1,0.8-4.1,1.2-6.2
						c0.4-2.1,0.5-4.3,0.5-6.5c0-4.2-0.6-8.4-1.6-12.4c0.4,0.1,0.7,0.2,1.1,0.3c0,0-0.1,0.1,0,0.1c0.9,1.5,1.1,3.4,1.3,5.1
						c0.2,2.1,0.3,4.2,0.2,6.3c-0.2,4.3-1.9,8.5-1.6,12.8C110.2,41.1,109.9,41.3,109.6,41.4z M110.8,40.9c-0.1-2.2,0.4-4.4,0.8-6.6
						c0.5-2.2,0.8-4.4,0.9-6.6c0.1-2.1,0-4.3-0.3-6.4c-0.2-1.5-0.4-3.4-1.4-4.6c0.4,0.1,0.9,0.3,1.3,0.4c1.6,3.7,1.6,7.7,1.2,11.7
						c-0.2,1.9-0.5,3.8-0.7,5.7c-0.2,2-0.5,4.1-1.1,6C111.3,40.6,111,40.7,110.8,40.9z M113.6,39.3c-0.6,0.3-1.2,0.7-1.7,1
						c0.6-1.7,0.8-3.5,1-5.3c0.2-2.1,0.5-4.1,0.7-6.2c0.4-3.9,0.4-8.1-1.3-11.6c0.5,0.2,1.1,0.3,1.6,0.5l0,0
						c0.6,1.3,0.5,2.9,0.5,4.3c0.1,1.8,0.3,3.7,0.3,5.5C114.7,31.5,114.3,35.4,113.6,39.3z M114.8,38.6c0,0-0.1,0-0.1,0.1
						c-0.2,0.1-0.5,0.3-0.7,0.4c0.7-3.9,1-7.9,1-11.9c0-1.9-0.2-3.7-0.3-5.6c-0.1-1.2,0-2.7-0.6-3.9c0.3,0.1,0.6,0.2,0.9,0.3
						c0.6,1.3,0.7,2.8,0.8,4.2c0.1,1.7,0.1,3.4,0.2,5.1C115.9,31.1,115.7,34.9,114.8,38.6z M116.2,37.8c-0.3,0.2-0.7,0.4-1,0.6
						c0.9-3.6,1-7.4,1-11.1c0-1.8-0.1-3.7-0.2-5.5c-0.1-1.2-0.3-2.6-0.8-3.7c0.4,0.1,0.8,0.3,1.2,0.4c0.4,1.4,0.5,2.9,0.5,4.3
						c0.1,1.7,0.2,3.4,0.2,5.1c0,1.8-0.2,3.6-0.5,5.3C116.4,34.7,116.1,36.2,116.2,37.8z M116.5,37.6c-0.1-1.6,0.2-3.2,0.5-4.8
						c0.3-1.7,0.4-3.4,0.4-5.2c0-1.8-0.2-3.5-0.3-5.3c-0.1-1.3-0.2-2.6-0.6-3.8c0.3,0.1,0.6,0.2,0.9,0.3c0.2,1.5,0.8,2.9,1,4.5
						c0.2,1.7,0.2,3.4,0.2,5.1c-0.1,2.8,0,5.8-0.9,8.5C117.2,37.1,116.9,37.4,116.5,37.6z M118,36.6c0.8-2.5,0.7-5.3,0.8-7.9
						c0-1.8,0-3.6-0.2-5.3c-0.2-1.5-0.7-2.9-1.1-4.4c0.4,0.1,0.7,0.3,1.1,0.4c0,0,0,0,0,0.1c1.9,5.3,0.9,11.2,0.3,16.6
						C118.6,36.2,118.3,36.4,118,36.6z M119.2,35.8c0.6-5.3,1.6-11.3-0.5-16.4c0.3,0.1,0.7,0.2,1,0.4c2,4.9,0.6,10.3,0.4,15.4
						c0,0,0,0,0,0C119.8,35.4,119.5,35.6,119.2,35.8z M120.5,35c0.3-4.9,1.7-10.5-0.5-15.1c0.6,0.2,1.1,0.4,1.7,0.6
						c1.2,4.2,1.3,9,0.3,13.3c0,0.1,0,0.1,0.1,0.2C121.5,34.2,121,34.6,120.5,35z M123.5,32.8c-0.4,0.3-0.8,0.6-1.2,0.9
						c0.6-2.1,0.7-4.4,0.6-6.6c-0.1-2.2-0.4-4.5-1.1-6.5c0.4,0.2,0.8,0.3,1.2,0.5C124.3,24.7,124.8,29.1,123.5,32.8z M125.3,31.4
						c0,0-0.1,0.1-0.1,0.1c-0.4,0.3-0.9,0.6-1.3,1c1.2-3.7,0.6-7.8-0.7-11.4c0.4,0.2,0.8,0.3,1.2,0.5c0.1,0,0.2,0.1,0.3,0.1
						C126,24.8,125.3,28.1,125.3,31.4z M126.8,30.3c-0.4,0.3-0.7,0.6-1.1,0.8c0-3.1,0.7-6.6-0.7-9.4c0.5,0.2,0.9,0.4,1.4,0.6
						C127,24.9,127.3,27.5,126.8,30.3C126.8,30.3,126.8,30.3,126.8,30.3z M128.4,29C128.4,29.1,128.4,29.1,128.4,29
						c-0.4,0.3-0.9,0.7-1.3,1c0.5-2.6,0.2-5.2-0.6-7.7c0.5,0.2,1,0.4,1.5,0.6c0.1,0.9,0.2,1.8,0.4,2.7
						C128.6,26.8,128.7,27.9,128.4,29z M129.6,28.2c-0.3,0.2-0.5,0.4-0.8,0.5c0.2-0.7,0.1-1.6,0-2.3c-0.2-1.2-0.5-2.3-0.6-3.5
						c0.4,0.2,0.9,0.4,1.3,0.5c0.5,1.4,0.5,2.9,0.6,4.4C129.9,28,129.8,28.1,129.6,28.2z M130.4,27.7c0-1.4-0.1-2.8-0.6-4
						c1,0.4,2.1,0.9,3.1,1.3c0,0,0,0,0.1,0c0,0,0,0,0,0.1c0,0,0,0.1,0.1,0.1C132.5,26.2,131.4,27,130.4,27.7z M139.5,33.7
						c-1.3-1.2-2.2-2.8-3.1-4.3c-0.5-0.8-0.9-1.6-1.4-2.3c-0.5-0.7-1.1-1.3-1.6-2.1c0,0,0-0.1,0-0.1c0,0,0.1-0.1,0.1-0.1
						c0.1-3.6,2.8-6.6,5.4-8.8c0.7,2.9,0.7,6,0.7,9c0,1.7,0.1,3.4,0.2,5c0,0,0,0.1,0,0.1C139.7,31.4,139.7,32.5,139.5,33.7z
						 M142.3,31.8c-0.9-0.2-1.7-0.9-2.3-1.7c0-1.7-0.2-3.4-0.2-5.1c0-2.4,0-4.8-0.4-7.2c0.5-0.5,0.9-1,1.3-1.4
						c0.1-0.1,0.8-0.8,0.9-0.7c0.2,0.4,0.3,0.8,0.3,1.3c0.1,0.9,0.1,1.8,0,2.7c0,0,0,0,0,0c0,0,0,0.1,0,0.1c0,0.6,0,1.1,0,1.7
						c0,2.2,0.2,4.5,0.2,6.7c-0.1,0.1-0.1,0.2,0,0.3l0,0C142.3,29.5,142.3,30.7,142.3,31.8z M142.6,28.2c-0.1-1.8-0.2-3.6-0.2-5.4
						c0-1.1-0.1-2.1-0.1-3.2c0.6-0.7,1.3-1.4,2-2c0.2,0.9,0.2,1.8,0.3,2.7l0,0c0,1,0,2,0,3.1c0,1.1,0.1,2.2,0.1,3.3
						c-0.1,0-0.2,0.2-0.1,0.3c0,0,0.1,0,0.1,0c0,0.8,0.1,1.7,0.1,2.5C144.1,29,143.3,28.7,142.6,28.2z M146.4,25.7
						c-0.1,0.1-0.1,0.1,0,0.2c-0.1,0.5-0.1,0.9-0.2,1.4c-0.4-0.1-0.8-0.3-1.2-0.6c-0.1-1.1-0.2-2.3-0.2-3.4c0-1.1,0-2.1,0-3.2
						c0.4-0.4,0.7-0.8,1.1-1.2c0.2,0.7,0.4,1.3,0.5,2c0,0,0,0,0,0C146.6,22.6,146.6,24.2,146.4,25.7z M147.9,25.1
						c0,0.3-0.1,0.5-0.2,0.8c-0.1,0.4-0.7,0.1-1-0.1c0.2-1.6,0.2-3.3-0.1-4.9c0.3-0.3,0.6-0.5,1-0.8c0.2,1,0.4,2,0.4,3.1
						C148,23.8,148,24.4,147.9,25.1z"/>
					<path class="st2" d="M93.4,17c0.2,0,0.2-0.3,0-0.3c-3.9,0.4-7.9,0.4-11.8,0.1c-0.1,0-0.1,0.1,0,0.1
						C85.5,17.3,89.5,17.5,93.4,17z"/>
					<path class="st2" d="M88.8,18.8c2,0,4-0.4,6.1,0c0.2,0,0.2-0.2,0.1-0.3c-1.8-0.4-3.8-0.1-5.7,0c-2.3,0.1-4.6,0.1-6.8,0
						c-0.1,0-0.1,0.1,0,0.1C84.6,18.9,86.7,18.9,88.8,18.8z"/>
					<path class="st2" d="M90.7,21c-1,0.1-2.1,0.1-3.1,0.2c-1.5,0.1-3,0.3-4.5,0.2c-0.1,0-0.1,0.1,0,0.1c1.3,0.2,2.6,0.1,4,0
						c1.1-0.1,2.2-0.1,3.3-0.2c1.8-0.1,3.9-0.5,5.7,0.1c0.2,0.1,0.2-0.2,0.1-0.3c-0.6-0.4-1.5-0.3-2.1-0.3
						C92.9,20.8,91.8,20.9,90.7,21z"/>
					<path class="st2" d="M95.2,24c-1.1-0.1-2.2,0-3.3,0c-3,0-6,0.1-9,0.5c-0.1,0-0.1,0.2,0,0.2c2.8-0.3,5.6-0.3,8.4-0.4
						c1,0,2.1,0,3.1,0c0.3,0,1.8-0.1,1.9,0.1c0.1,0.1,0.3,0.1,0.3-0.1C96.4,23.9,95.5,24,95.2,24z"/>
					<path class="st2" d="M97,26.4c-2.2-0.6-4.5-0.4-6.7-0.1c-1,0.1-2.1,0.3-3.1,0.4c-0.7,0.1-1.3,0.2-2,0.3c-0.3,0-0.5,0.1-0.8,0.1
						c-0.1,0-0.9,0.2-0.3,0.1c0,0,0-0.1,0-0.1c-0.1,0-0.3,0.1-0.4,0.1c-0.1,0,0,0.1,0,0.1c2.2,0,4.3-0.4,6.4-0.7
						c2.4-0.3,4.6-0.3,6.9,0.1C97.1,26.7,97.1,26.5,97,26.4z"/>
					<path class="st2" d="M95.7,29.7c-4.2-0.1-8.4,0.4-12.6,0.4c0,0,0,0.1,0,0.1c4.2,0,8.4-0.2,12.6-0.2
						C95.9,30,95.9,29.7,95.7,29.7z"/>
					<path class="st2" d="M95,32.9c0.2,0,0.2-0.3,0-0.3c-3.9-0.1-7.8,0.2-11.7,0.6c-0.1,0-0.1,0.2,0,0.2C87.2,33,91.1,32.8,95,32.9z
						"/>
					<path class="st2" d="M95.1,35.3c-3.8-0.5-7.8,0.3-11.6,0.8c-0.1,0-0.1,0.2,0,0.2c3.8-0.5,7.6-1.1,11.5-0.8
						C95.3,35.6,95.3,35.3,95.1,35.3z"/>
					<path class="st2" d="M93.8,38.4c-3.7-0.2-7.3,0.1-11,0.5c-0.1,0-0.1,0.2,0,0.2c3.7-0.3,7.3-0.5,11-0.4
						C93.9,38.6,93.9,38.4,93.8,38.4z"/>
					<path class="st2" d="M92.3,40.5c-1.6,0.1-3.2,0.3-4.7,0.4c-1.6,0.1-3.2,0.3-4.7,0.4c-0.1,0-0.1,0.1,0,0.1
						c1.6,0,3.2-0.1,4.7-0.3c1.6-0.1,3.2-0.2,4.8-0.4C92.4,40.8,92.4,40.5,92.3,40.5z"/>
					<path class="st2" d="M74.4,52c0,1.3-0.3,2.7,0,4c0,0.1,0.2,0.1,0.2,0c-0.1-1.3-0.1-2.6-0.1-4C74.5,51.9,74.4,51.9,74.4,52z"/>
					<path class="st2" d="M76.8,52.6c0.1,1.2,0,2.4,0.3,3.5c0,0.2,0.3,0.1,0.3-0.1c-0.2-1.1-0.2-2.3-0.4-3.4
						C77,52.4,76.8,52.4,76.8,52.6z"/>
					<path class="st2" d="M79.2,52.3c0.2,1.1,0.2,2.3,0.5,3.4c0,0.2,0.3,0.1,0.3-0.1c-0.2-1.1-0.3-2.3-0.6-3.4
						C79.4,52.1,79.2,52.2,79.2,52.3z"/>
					<path class="st2" d="M81.2,52.1c0.2,1,0.3,1.9,0.5,2.9c0,0.2,0.3,0.1,0.3-0.1c-0.2-1-0.3-1.9-0.5-2.9
						C81.4,51.9,81.1,51.9,81.2,52.1z"/>
					<path class="st2" d="M83.2,52c0.1,0.8,0.3,1.7,0.6,2.5c0.1,0.1,0.3,0,0.3-0.1c-0.3-0.8-0.5-1.6-0.6-2.5
						C83.4,51.7,83.2,51.8,83.2,52z"/>
					<path class="st2" d="M85.4,51.3c-0.1-0.2-0.3-0.1-0.3,0.1c0.2,0.7,0.5,1.5,0.9,2.1c0.1,0.1,0.3,0,0.2-0.2
						C85.9,52.6,85.6,52,85.4,51.3z"/>
					<path class="st2" d="M87.2,50.6c0.1,0.3,0.2,0.6,0.4,0.9c0.1,0.3,0.2,0.6,0.3,0.9c0.1,0.1,0.3,0.1,0.3,0c0-0.7-0.4-1.4-0.6-2
						C87.4,50.3,87.1,50.4,87.2,50.6z"/>
					<path class="st2" d="M72.4,52.1c0,0.9-0.1,1.8-0.1,2.7c0,0.2,0.3,0.2,0.3,0c0.1-0.9,0.1-1.8,0-2.7
						C72.6,51.9,72.4,51.9,72.4,52.1z"/>
					<path class="st2" d="M52.3,20.2C52.3,20.2,52.3,20.2,52.3,20.2c-0.4,0.5-0.6,1.1-0.5,1.8c0.1,1.2,1.3,2,2.5,2
						c0.5,0,1-0.1,1.4-0.4c0.5-0.2,0.9-0.4,1.2-0.8C58.8,20.7,53.7,17.3,52.3,20.2z"/>
				</g>
			</g>
		</g>
	</g>
	<polygon class="st7" points="0,36.8 17.3,28.4 0,20.5 	"/>
</g>
</svg>
