<?xml version="1.0" encoding="utf-8"?>
<!-- Generator: Adobe Illustrator 21.0.0, SVG Export Plug-In . SVG Version: 6.00 Build 0)  -->
<svg version="1.1" id="圖層_1" xmlns="http://www.w3.org/2000/svg" xmlns:xlink="http://www.w3.org/1999/xlink" x="0px" y="0px"
	 viewBox="0 0 247.3 157.3" style="enable-background:new 0 0 247.3 157.3;" xml:space="preserve">
<style type="text/css">
	.st0{fill:#FFFFFF;}
	.st1{fill:#FCEE21;}
	.st2{fill:#232020;}
	.st3{fill:#FBB03B;}
	.st4{fill:#F2F49D;}
	.st5{fill:#EF846A;}
	.st6{fill:#F5B39D;}
</style>
<g>
	<g>
		<path class="st0" d="M225.7,95.8c-3.3-0.9-6.7-1-10.1-1.2c-1.1-0.1-2.1-0.2-3.2-0.3c3.4,0.4,6.8,1,10.1,1.9
			c3.5,0.9,7.1,1.6,10.5,2.9c0.9,0.4,1.8,0.7,2.8,1c0.5,0.1,1,0.3,1.5,0.3c0.2,0,0.5,0,0.7,0c0.6,0,0.5-0.3,0.2-0.5
			c-1.3-0.7-2.9-0.6-4.3-0.7C230.9,98.9,228.6,96.6,225.7,95.8z"/>
		<path class="st0" d="M227.2,92.9c-1.8,0-3.5-0.3-5.3-0.3c-1.8,0-3.6,0.1-5.4,0c-3.7-0.2-7.4-0.3-11.1-0.3c-3.4,0-6.8,0-10.1-0.7
			c0,0.1,0,0.3,0,0.4c0,0.1,0,0.2,0,0.4c1.2,0,2.3,0.5,3.6,0.5c1.8,0,3.6-0.1,5.4-0.1c3.8-0.1,7.5-0.2,11.3,0.1
			c1.8,0.1,3.6,0.3,5.4,0.6c1.9,0.3,3.8,0.6,5.7,0.5c2-0.1,3.9-0.4,5.9-0.7c0.7-0.1,1.4-0.2,2-0.4c0.1,0,0.9-0.4,0.9-0.3
			c-0.3-0.1-0.5-0.1-0.8-0.2C232.2,92.3,229.7,92.9,227.2,92.9z"/>
		<path class="st0" d="M194.7,86.2c0-0.1,0.1-0.1,0.2-0.1c1.3-1,3.2-1.4,4.8-1.8c1.4-0.3,2.7-0.7,4-1.1c1.3-0.5,2.7-1,4.1-1.2
			c0.6-0.1,1.7-0.3,2.1,0.3c0.8,1.3-4.1,2.5-4.7,2.7c-3.3,1-6.7,1.5-10,2.5c0.1,0.2,0.1,0.5,0.1,0.7c3.3-0.5,6.4-1.4,9.5-2.6
			c2.8-1.1,5.7-2.9,8.7-3.4c3.1-0.5,6.4,0.4,9.5,0.7c1.6,0.1,3.5,0.6,5.1,0.3c0.6-0.1-0.4-0.4-0.6-0.4c-0.5-0.1-1-0.1-1.5-0.2
			c-1-0.1-2-0.2-3-0.3c-3.3-0.3-6.5-0.6-9.8-0.7c-3.4-0.1-6.7,0-9.9,0.9c-3,0.8-6,1.7-8.8,3c0,0,0,0-0.1,0
			C194.5,85.9,194.6,86.1,194.7,86.2C194.7,86.2,194.7,86.2,194.7,86.2z"/>
		<path class="st0" d="M210,98.5c2.4,0.6,4.9,1.2,7.3,1.9c2.3,0.7,4.5,1.7,6.8,2.4c0.6,0.2,1.5-0.7,0.8-0.9c-0.2,0-0.3-0.1-0.5-0.1
			c-0.7-0.2-1.3-0.4-2-0.6c-1.3-0.4-2.6-0.8-3.9-1.2c-2.6-0.8-5.3-1.6-7.9-2.3c-2.6-0.7-5.1-1.3-7.8-1.8c-1.3-0.2-2.5-0.5-3.8-0.8
			c-1.3-0.4-2.5-0.8-3.9-0.9c0,0,0,0.1,0,0.1c0,0,0,0,0.1,0C200.1,96,205,97.3,210,98.5z"/>
		<path class="st0" d="M211.3,90.7c1.8,0,3.5,0.2,5.3,0.4c0.2,0,1.9,0,1.2-0.3c-0.4-0.2-0.9-0.3-1.4-0.4c-2.6-0.4-5.3-0.5-7.9-0.5
			c-1.8,0-3.6-0.1-5.4,0c-2.5,0.1-5.1,0.5-7.6,0.5c0,0.1,0,0.2,0,0.4c2.6-0.2,5.3,0,7.9,0C205.9,90.6,208.6,90.6,211.3,90.7z"/>
		<path class="st0" d="M230.6,97c-0.7-0.7-1-1.9-0.1-2.6c0.4-0.3,1-0.5,1.5-0.7c-0.1,0-0.1,0-0.2,0c-1.7,0.3-3.4,0.5-5.1,0.6
			c-3.5,0.2-7.1-0.8-10.6-1.1c-3.8-0.3-7.5-0.3-11.3-0.1c0,0-0.1,0-0.1,0c1,0,2,0.1,2.9,0.2c3.5,0.3,6.9,0.7,10.4,0.9
			c3.1,0.2,6.4,0.4,9.3,1.6c1.4,0.6,2.7,1.4,4.1,2.1c1.5,0.7,2.9,0.8,4.6,0.9c0.3,0,0.5,0.1,0.8,0.1c-0.4-0.1-0.9-0.1-1.3-0.2
			C233.9,98.5,231.7,98.3,230.6,97z"/>
		<path class="st4" d="M98.5,44.3c-0.7-0.4-1.3-0.3-2.1-0.1c-2,0.6-3.8,1.7-5.6,2.7c-1.8,1-3.5,2.1-5.2,3.2
			c-2.1,1.2-4.4,2.1-6.6,3.1c-6,2.5-12.2,4.1-18.7,2.6c-0.2-0.1-0.3-0.5,0-0.5c10.9-2.1,13.2-14.8,20.3-21.6
			c1.6-1.5,3.3-2.7,5.3-3.7c1.7-0.8,4.1-1.8,5-3.5c0.6-1.1,0-2.7-1.2-3.2c-0.9-0.4-1.9-0.1-2.7,0.3c-2.6,1.3-4.8,3.7-6.7,5.9
			c-2.5,2.8-4.8,5.9-7,8.9c-1.8,2.5-3.5,5-5.2,7.5c-0.5,0.7-0.9,1.4-1.4,2c-1.2,1.6-3.1,2.9-4.8,4c-9.9,6.4-22,6.3-33,3.2
			c-0.7,0-1.3,0.4-0.9,1.2c0.2,0.4,0.5,0.7,0.9,0.9c0.4,0.2,0.8,0.3,1.3,0.4c0,0,0,0,0,0c0.1,0,0.2,0,0.3,0c0.2,0,0.3,0,0.5,0.1
			c0,0,0,0,0,0c4.7,0.8,9.5,1.3,14.3,1.8c4.5,0.5,9,0.9,13.6,1c9.1,0.1,18.3-0.9,26.7-4.5c3-1.3,5.9-2.9,8.6-4.8
			c1.7-1.2,3.6-2.3,4.9-3.9C99.4,46.2,99.8,45,98.5,44.3z"/>
		<path class="st0" d="M206.8,87.4c0.9-0.6,0-1-0.7-0.7c-0.5,0.1-0.9,0.3-1.4,0.5c-0.8,0.3-1.6,0.6-2.4,0.8
			c-2.3,0.5-4.7,0.7-6.9,1.3c0,0,0,0.1,0,0.1c2.2-0.6,4.5-0.6,6.8-0.8C203.7,88.5,205.4,88.3,206.8,87.4z"/>
		<path class="st0" d="M178.4,106c-2.1-0.6-4.2-1.1-6.2-1.8c-1.4-0.5-2.9-1.2-4-2.4c-0.2,0.1-0.5,0.2-0.7,0.4
			c0.8,0.5,1.6,1.1,2.5,1.6c1.1,0.6,2.2,1,3.3,1.5c2.1,0.8,4.2,1.4,6.4,1.9c1.5,0.3,3.7,0.7,4.6,2.1c0.7,1.1,0.7,2.3-0.4,3.2
			c-1.1,0.9-2.9,1.3-4.2,1.4c-2.2,0.2-4.4-0.1-6.5-0.9c-4.2-1.5-8-4.4-12.4-5.1c-0.1,0.1-0.2,0.2-0.2,0.3c0,0,0.1,0,0.1,0
			c5.5,0.4,9.4,5.4,15,6c1.6,0.2,3.2,0.2,4.8,0.1c1.6-0.1,4.2-0.4,5.1-1.9C188,108.4,180.8,106.6,178.4,106z"/>
		<path class="st0" d="M193.5,84.5c3-1.2,6.1-2.6,9.3-3.4c3.5-0.8,7.1-0.9,10.6-0.8c3.1,0.1,6.2,0.7,9.3,1c1.6,0.1,3.2,0.2,4.9,0.4
			c1.1,0.1,3.1,0.2,3.9,1.2c0.7,0.9-0.4,1.4-1.2,1.5c-2,0.2-4.1-0.1-6.1-0.2c-2.8-0.1-5.6-0.7-8.3-0.5c-1.7,0.1-3.5,0.3-5.1,0.8
			c-0.7,0.2-1.7,0.5-2,1.2c-0.5,1.1,1,1.7,1.7,1.8c3.3,0.8,6.5,1.7,9.9,2.4c3.4,0.7,7.1,1.6,10.6,1.5c1.9-0.1,4.1-0.4,6,0.2
			c0.6,0.2,1.6,1.1,0.8,1.7c-0.9,0.6-2.3,0.5-3.3,0.6c-0.8,0.1-3,0.1-3.6,0.9c0,0,0,0,0.1,0c1.7-0.5,3.4-0.4,5.2-0.5
			c1.7,0,3.7,0,5.1-1.2c-1.6-1.6-4.2-2.1-6.4-2.5c-2.2-0.4-4.5-0.7-6.8-1.1c-6.1-1-12.4-0.9-18.3-3.1c-0.2-0.1-0.3-0.3-0.1-0.5
			c2-1.7,4.8-1.8,7.2-1.7c4.5,0.2,8.8,1.2,13.2,0.2c0.7-0.1,2.5-0.4,2.7-1.3c0.2-1-1.1-1.4-1.8-1.6c-1.8-0.5-3.7-0.6-5.6-0.8
			c-5.4-0.6-10.9-1-16.3-0.8c-5.5,0.2-11.2,1.1-15.9,4.2c0.2,0.1,0.4,0.2,0.6,0.4C193.4,84.6,193.5,84.5,193.5,84.5z"/>
		<path class="st0" d="M233.2,93.6c0.3,0,0.5,0,0.8-0.1c0.3,0,3.6-0.3,3.3-0.8c-0.4-0.7-1.6-0.8-2.4-0.9c0.5,0.1,1,0.3,1.2,0.6
			c0.1,0.1,0,0.2-0.1,0.3C235.1,93.3,234.2,93.4,233.2,93.6z"/>
		<path class="st0" d="M207,83.9c0.2-0.1,2.9-1.3,2.3-1.5c-0.9-0.4-2.4,0.2-3.3,0.5c-1,0.3-2,0.6-3,1c-2.8,1-5.6,1.2-8.1,2.8
			c0.1,0.2,0.1,0.3,0.2,0.5c2.9-0.9,5.9-1.3,8.8-2.2C204.9,84.7,206,84.3,207,83.9z"/>
		<path class="st0" d="M179.2,110.6c-3.2-0.8-6.4-1.6-9.5-2.7c-1.3-0.5-2.6-1-3.9-1.6c-0.8-0.4-1.5-0.7-1.9-1.5
			c-0.5,0.4-0.9,0.8-1.4,1.3c1.6,0.1,3.1,0.9,4.6,1.6c2.2,0.9,4.3,2,6.6,2.9c1.8,0.6,3.7,1.1,5.6,1c1.3-0.1,2.8-1.1,1.1-1.9
			c-1.9-0.9-4.1-1.1-6.2-1.4c-1.5-0.2-2.9-0.7-4.3-1.2c-0.9-0.3-1.8-0.7-2.6-1.2c-0.9-0.5-1.7-1.3-2.7-1.7c-0.2,0.2-0.4,0.4-0.7,0.5
			c0.6,1,2.2,1.4,3.2,1.8c1.3,0.5,2.5,0.9,3.8,1.3c2.7,0.9,5.5,1.6,8.2,2.2C179.7,110.1,179.5,110.7,179.2,110.6z"/>
		<path class="st0" d="M203.2,94.9c2.8,0.6,5.7,1,8.5,1.5c2.7,0.5,5.5,1.1,8.1,2c1.8,0.7,4,1.7,6,1.7c1.1,0-0.3-0.9-0.6-1
			c-0.4-0.1-0.7-0.2-1.1-0.3c-1.3-0.4-2.5-0.7-3.8-1.1c-2.7-0.7-5.4-1.5-8.2-2.1c-3-0.6-5.9-0.8-8.9-0.9c-0.4,0-0.8,0-1.2-0.1
			C202.3,94.7,202.7,94.8,203.2,94.9z"/>
		<path class="st0" d="M204.9,93.7c-0.7,0-1.4,0-2.1,0c2.1,0.1,4.3,0.2,6.4,0.3C207.8,93.9,206.4,93.8,204.9,93.7z"/>
		<path class="st0" d="M200.4,97.3c2.2,0.8,4.5,1.6,6.7,2.4c2.2,0.8,4.4,1.4,6.5,2.2c0.9,0.3,1.8,0.7,2.6,1.1
			c0.8,0.4,2.3,1.5,3.3,1.1c0.6-0.2-1.2-1.1-1.2-1.1c-0.4-0.1-0.8-0.2-1.2-0.3c-0.9-0.2-1.7-0.4-2.6-0.7c-2.3-0.7-4.5-1.4-6.8-2.1
			c-2.2-0.8-4.5-1.6-6.7-2.5c-2-0.8-3.9-1.7-6.1-1.9c0,0.1,0,0.2-0.1,0.3C196.8,95.8,198.6,96.7,200.4,97.3z"/>
		<path class="st0" d="M210.8,84.1c1.6-0.4,3.2-0.7,4.9-0.8c2.7-0.1,5.4,0.4,8,0.5c2.1,0.1,4.3,0.4,6.3,0.2c0.2,0,1.4-0.1,1.1-0.6
			c-0.2-0.3-0.5-0.4-0.7-0.5c-0.7-0.3-1.5-0.4-2.3-0.6c-1.7-0.3-3.5-0.4-5.2-0.5c-2.9-0.2-5.7-0.8-8.6-1c-3.8-0.2-7.7-0.2-11.4,0.7
			c-3.2,0.8-6.2,2.1-9.3,3.2c0,0,0,0,0,0c0.3,0.2,0.5,0.5,0.7,0.7c0,0,0,0,0-0.1c0.5-0.3,1-0.5,1.5-0.7c3.1-1.3,6.4-2.4,9.7-3
			c3.4-0.6,6.9-0.5,10.4-0.3c3.3,0.2,6.5,0.7,9.8,0.9c0.5,0,3.4,0,3.1,1c-0.3,1-3.2,0.3-3.9,0.3c-1.4-0.2-2.8-0.2-4.1-0.4
			c-1.7-0.2-3.5-0.6-5.3-0.6c-3.5-0.1-6.6,1.9-9.8,3.2c-3.3,1.3-6.8,2.4-10.4,2.9c0,0,0,0.1,0,0.1c3-0.8,6.2-0.8,9.1-2
			c0.6-0.2,3.5-1.5,3.4,0.2c-0.1,1-2.2,1.6-2.9,1.8c-3.1,0.7-6.4,0.3-9.5,0.8c0,0.1,0,0.1,0,0.2c3,0,6-0.5,9-0.5c1.7,0,3.3,0,5,0.1
			c1.6,0,3.2,0.1,4.8,0.3c1.2,0.1,2.5,0.1,3.6,0.6c0.5,0.2,0.9,0.9,0.1,1.2c-1.4,0.4-3.1-0.2-4.5-0.2c-6-0.3-12.1,0.2-18.1-0.3
			c0,0.2,0,0.3,0,0.5c4.1,0.7,8.2,0.6,12.3,0.6c4,0,8,0.4,12,0.3c3.9-0.1,7.7,0.5,11.6,0c0.5-0.1,1.5-0.3,2.4-0.4
			c-0.8,0-1.6,0.1-2.5,0.1c-3.1,0.1-6.3-0.5-9.3-1.1c-3.6-0.7-7-1.8-10.6-2.5c-1.2-0.3-3.4-0.6-3.2-2.3
			C208.2,84.9,209.9,84.4,210.8,84.1z"/>
		<path class="st0" d="M161,107.7c3.7,0.3,6.8,2.6,10.1,4c3.6,1.5,7.6,2.5,11.4,1c1-0.4,2.3-1.1,1.9-2.5c-0.4-1.2-1.4-1.8-2.5-2.1
			c-1.7-0.5-3.4-0.7-5.1-1.2c-1.7-0.5-3.4-1.1-5-1.8c-1.7-0.7-3.1-1.7-4.6-2.6c-0.2,0.1-0.3,0.2-0.5,0.3c2.7,2.9,7.2,3.8,11,4.6
			c1.4,0.3,2.8,0.6,4.2,1.1c0.8,0.3,1.9,0.8,2.2,1.7c0.4,1.1-0.7,2.1-1.6,2.5c-1.5,0.7-3.6,0.6-5.2,0.3c-2.7-0.5-5.3-1.5-7.8-2.7
			c-2.5-1.2-5-2.9-7.9-3C161.3,107.4,161.2,107.6,161,107.7z"/>
		<path class="st0" d="M161.8,106.8c2.1,0.2,3.9,1.2,5.8,2.1c2.3,1.1,4.6,2.2,7,2.9c2.2,0.7,4.7,1.2,6.9,0.5c1.5-0.5,2.7-1.9,1-2.9
			c-2-1.2-4.3-1.4-6.5-2c-3.4-1-7.3-1.7-9.7-4.6c0,0,0,0,0,0c-0.4,0.3-0.8,0.6-1.2,0.9c0.9,0.4,1.6,1.1,2.5,1.6
			c1.1,0.6,2.3,1.1,3.6,1.5c1.4,0.4,2.7,0.8,4.1,1c1.3,0.2,2.6,0.4,3.9,0.8c0.8,0.2,2,0.5,2.5,1.3c0.4,0.8-0.2,1.5-0.8,1.8
			c-1.3,0.7-3.5,0.3-4.9,0c-2.5-0.6-4.8-1.7-7.1-2.8c-2.1-0.9-4.3-2.2-6.5-2.6C162.2,106.4,162,106.6,161.8,106.8z"/>
		<path class="st0" d="M244.8,102.1c-1.8-2-4.6-2.9-7.1-3.7c-2.5-0.8-5.1-1.5-7.2-3.1c-0.1-0.1-0.1-0.1-0.1-0.2c0,0,0,0.1,0,0.1
			c-0.4,2.1,3.3,2.6,4.6,2.9c1.9,0.3,4.1,0.4,5.7,1.6c1.7,1.3,0,2-1.3,2.1C241.1,102.1,243,102.3,244.8,102.1z"/>
		<path class="st0" d="M227.3,100.3c1.2-1,3.2-0.8,4.7-0.6c1.3,0.2,2.6,0.6,3.8,1c1.3,0.3,2.9,0.9,4.2,0.5c1.9-0.6-0.8-1.7-1.6-1.9
			c-0.4-0.1-0.8-0.2-1.2-0.3c0.7,0.1,1.3,0.4,1.7,0.9c0.3,0.4,0,0.8-0.4,0.9c-1.4,0.3-2.9-0.2-4.2-0.7c-1.6-0.6-3.2-1.2-4.8-1.6
			c-3.5-0.9-7-2-10.6-2.6c-3.7-0.7-7.5-1.3-11.2-1.5c-0.3,0-0.5,0-0.8,0c2.4,0.2,4.8,0.7,7.2,1.3c3.1,0.8,6.3,1.5,9.4,2.5
			c0.6,0.2,3.6,0.8,3,2c-0.5,0.9-2.7,0.2-3.4,0c-3.1-0.9-6-2.1-9.2-2.8c-3.2-0.7-6.5-1.2-9.7-1.8c-3.1-0.6-6.1-1.5-9.1-2.1
			c0,0.1,0,0.2,0,0.3c1.4,0.1,2.6,0.5,4,0.9c1.5,0.4,3.1,0.7,4.6,1c3.1,0.6,6.1,1.4,9.1,2.3c3.2,0.9,6.4,1.9,9.7,2.9
			c0.5,0.1,4.2,0.7,3.4,1.9c-0.4,0.7-1,0.9-1.7,0.7c-1.3-0.4-2.6-1-3.9-1.5c-2.8-0.9-5.6-1.7-8.4-2.4c-5.6-1.4-11.5-2.5-16.8-5
			c0,0.2-0.1,0.4-0.1,0.6c2.3,0.2,4.3,1.2,6.5,2c2.6,1,5.3,2,8,2.9c2.4,0.8,4.9,1.7,7.4,2.2c0.9,0.2,3.3,0.6,3.3,1.9
			c0,1.4-2.8,0.2-3.3-0.1c-2.3-1.2-4.6-2-7.1-2.8c-2.7-0.9-5.3-2-7.9-2.9c-2.3-0.8-4.6-2.1-7-2.3c0,0,0,0,0,0
			c-0.1,0.2-0.1,0.4-0.2,0.6c3,0.8,6,1.8,8.9,3c1.1,0.5,2.2,1,3.2,1.7c0.3,0.2,1.2,0.7,1,1.2c-0.5,1.7-4.2-0.6-4.9-0.9
			c-2.9-1.4-5.6-3.1-8.6-4.2c-0.2,0.2-0.3,0.4-0.5,0.6c2.9,0.8,5.5,2.6,8.1,3.8c1.3,0.6,2.5,1.2,3.7,2c0.5,0.4,1.4,1,1.5,1.7
			c0.2,2.1-3.7-0.6-4.2-0.9c-1.3-0.8-2.5-1.7-3.7-2.6c-2-1.5-4.2-2.4-6.5-3.2c-0.4,0.3-0.9,0.5-1.3,0.7c5.4,2.1,10.4,5.1,15.3,8.2
			c2.6,1.6,5.1,3.3,7.8,4.7c1.4,0.8,2.9,1.5,4.4,2.2c1.3,0.6,2.7,1.1,3.9,1.8c0.5,0.3,1,0.6,1.5,0.9c0.2,0.1,0.5,0.3,0.7,0.4
			c1,0.2,0.1-0.8,0.1-0.8c-0.7-0.6-1.5-1.1-2.2-1.5c-2.9-1.6-5.9-3.1-9-4.4c-2.1-0.9-4.7-2.1-5.9-4.2c-0.8-1.4-1.3-3.6,0.8-4.1
			c2.2-0.5,4.9,0.3,6.9,1.3c2.5,1.1,4.5,2.8,6.6,4.6c2.6,2.3,5.4,4.2,8.5,5.7c1.2,0.6,2.3,1.1,3.4,1.8c0.8,0.5,1.7,1.2,2.7,1.3
			c-1.2-1.9-3.5-2.8-5.3-3.8c-2.3-1.3-4.2-3.2-6.5-4.4c-1.4-0.7-3.8-1.5-4.3-3.2c-0.3-0.9-0.2-1.7,0.7-2.1c1-0.5,2.4-0.3,3.5-0.1
			c1.6,0.3,3.1,0.7,4.6,1.1c4.3,1.3,8.6,2.8,13.1,2.6c-0.6-1.2-3.2-1.6-4.3-1.8c-1.7-0.4-3.5-0.5-5.3-0.8c-1.6-0.2-3.6-0.5-4.9-1.4
			C226.9,103,226.1,101.3,227.3,100.3z"/>
		<path class="st0" d="M236.7,115.3c-2.4-1.2-4.7-2.5-7.1-3.7c-1.1-0.6-2.3-1.2-3.4-1.9c0.4,0.3,0.8,0.5,1.1,0.8
			c1.9,1.4,3.7,2.6,5.8,3.7c1.6,0.9,3.3,1.8,4.1,3.5c0.1,0.2,0,0.4-0.2,0.4c-1.9,0.1-3.6-1.7-5.2-2.5c-2.7-1.3-5.4-2.6-7.8-4.4
			c-4.3-3.3-8.3-7.9-14.3-7.9c-0.6,0-1.5,0-2,0.5c-0.6,0.7-0.4,1.7,0,2.4c0.6,1.2,1.7,2.2,2.9,2.9c2.5,1.5,5.3,2.4,7.9,3.8
			c1.1,0.6,2.2,1.1,3.3,1.7c-1.5-0.9-3.1-1.9-4.6-2.7c-2-1.1-4.1-2.1-6.1-3.4c-1.3-0.9-3.1-2.1-3.3-3.8c0-0.1,0-0.3,0.2-0.3
			c1-0.1,2-0.1,2.9,0.1c4.7,1.2,8.8,4.6,12.8,7.2c4,2.7,8.3,5.7,13,7c1.1,0.3,2.2,0.5,3.3,0.3c0.6-0.1,2-0.3,1.1-1.1
			C240,116.7,238.2,116,236.7,115.3z"/>
		<path class="st0" d="M204.6,105.2c0.3,0.2,2.5,1.2,1.7,0c-1.1-1.7-3.7-2.6-5.5-3.3c-2.5-1.1-4.8-2.8-7.5-3.5
			c-0.2,0.2-0.4,0.3-0.5,0.4c1.8,0.5,3.6,1.1,5.1,2c1.4,0.8,2.6,1.9,3.9,2.8C202.7,104.1,203.6,104.7,204.6,105.2z"/>
		<path class="st0" d="M246.7,108.1c-0.1-0.3-0.6-0.6-0.9-0.7c-3.1-1.5-6.8-2-10.1-2.9c-1.7-0.4-3.4-0.8-5-1.4
			c-0.8-0.3-1.9-0.6-2.4-1.4c-0.1-0.1,0-0.3,0.2-0.4c2.3-0.7,4.5-0.5,6.8-0.2c-1.4-0.4-2.8-0.8-4.2-0.9c-1-0.1-2.6-0.3-3.4,0.5
			c-1.2,1.2,0.2,2.5,1.3,2.9c1.6,0.6,3.4,0.9,5.1,1.1c1.9,0.2,3.9,0.5,5.8,1.1c1.1,0.3,2.9,0.8,3.1,2.1c0,0.2-0.1,0.3-0.2,0.3
			c-4.4,0.2-8.5-1-12.6-2.3c-2.4-0.8-5.4-1.9-8-1.6c-1.7,0.2-1.6,1.8-0.4,2.8c0.8,0.7,1.8,1.1,2.7,1.6c0.2,0.1,0.3,0.2,0.5,0.3
			c-1.2-0.8-2.4-1.6-3.6-2.5c-0.1-0.1-0.1-0.3,0.1-0.4c1.3-0.6,2.7-0.9,4.1-0.7c2.9,0.3,5.6,1.4,8.4,2c1.6,0.3,3.2,0.7,4.9,1
			c2,0.3,4.2,0.7,6.3,0.5C245.4,108.7,246.9,108.6,246.7,108.1z"/>
		<path class="st0" d="M227.5,118.2c-1-0.9-2.2-1.6-3.3-2.3c0.3,0.2,0.7,0.5,0.9,0.8c0.4,0.4,0.8,0.8,0.5,1.3
			c-0.3,0.4-0.8,0.4-1.2,0.2c-1-0.4-1.8-1.1-2.8-1.6c-1.6-0.7-3.2-1.4-4.8-2.2c-3-1.5-5.8-3.2-8.6-4.9c-5.7-3.6-11.4-7.4-17.8-9.7
			c0,0,0,0,0,0c-0.4,0.1-0.9,0.2-1.4,0.3c1.1,0.6,2.2,1.3,3.3,1.9c6.3,3.7,12.6,7.2,19,10.6c2.5,1.3,5,2.8,7.5,4
			c2.6,1.3,5.5,2.6,8.5,2.9c0.4,0,0.8,0.1,1.2,0c0.1,0,0.2,0,0.3,0C228.5,119.1,228,118.6,227.5,118.2z"/>
		<path class="st0" d="M205.2,102.1c0.3,0.1,0.5,0.2,0.8,0.3c0.4,0.2,0.7,0.1,1-0.4c-1.6-1.5-3.8-2.2-5.8-2.9
			c-2.3-0.8-4.5-1.5-6.8-2.2l0,0c0,0.1-0.1,0.1-0.1,0.2c2.1,0.5,4.1,1.6,6.1,2.6c1.1,0.6,2.3,1.2,3.5,1.7
			C204.2,101.7,204.7,101.9,205.2,102.1z"/>
		<path class="st0" d="M194.3,95.8c0-0.1,0.1-0.3,0.1-0.4c0-0.1,0-0.2,0.1-0.3c0.1-0.7,0.2-1.5,0.3-2.2c-0.2-0.1-0.2-0.4,0-0.4l0,0
			c0-0.9,0-1.7,0-2.5c0-0.2,0-0.4,0-0.6c0-0.1-0.1-0.2,0-0.2c-0.1-1.7-0.6-3.8-2.4-4.4c-0.9-0.3-1.9-0.3-2.8-0.4
			c-1.1-0.1-2.2-0.3-3.3-0.7c-5.9-1.8-11.2-5-17.2-6.4c0,0-0.1,0-0.1,0c-0.3-0.1-0.6-0.1-0.8-0.2c-0.2,0-0.5-0.1-0.7-0.1
			c-0.1,0-0.2-0.1-0.2-0.2c-6.5-2.6-8.8-11.2-10.1-17.4c-1.2-5.7-2.8-11.1-4.6-16.7c-0.9-2.9-1.6-5.8-2.7-8.6
			c-1-2.7-2.5-4.6-3.3-7.3c-1.3-3.4-4.3-6-7-8.2c-2.2-1.8-4.4-3.7-6.7-5.4c-2.6-1.8-5.3-3.3-8.2-4.6c-5.9-2.6-12.1-4.3-18.3-5.8
			c-12.8-3-26.2-2.9-38.9,0.5c-6.3,1.7-12.3,4.1-18,7.2c-2.8,1.6-5.6,3.3-8.2,5.1c-2.7,1.9-5.3,4-8,5.8c-2.8,1.9-6,3.7-8.2,6.4
			c-1.2,1.4-2.7,4.7-5,4.2c-1.1-0.2-1.9-0.4-3-0.3c-0.8,0.1-1.9,1-2.4,1.7c-1.7,2.7-2.4,6.7-1,9.7c0,0.1,0,0.1,0,0.2
			c0.2,0,0.4,0,0.6,0c2.5,0,4.5,1.1,6.4,2.7c0.1,0.1,0,0.3-0.2,0.2c-2.2-1.6-4.8-2.9-7.5-2.2c-2.1,0.5-4,1.5-5.6,2.8
			c-1.8,1.3-3.5,2.8-4.8,4.7c-1.1,1.5-2.2,3.5-1.8,5.4c0.4,2.1,2.3,3.1,3.1,5c0.4,1.2,0.5,2.4,0.7,3.7c0.1,1.4,0.3,2.8,0.3,4.1
			C4.8,75.3,3.8,81.4,5.3,87c0,0,0,0,0,0.1c0,0.1,0,0.1,0,0.2c0,0.1,0.1,0.2,0.1,0.4c0,0.1,0,0.2,0,0.2c0,0.2,0.1,0.5,0.1,0.7
			c0.2,1,0.4,1.9,0.5,2.9c0.8,4.2,2,8.4,3.4,12.4c1,2.7,2,5.4,3.2,8c0,0,0,0,0,0c0.6,1.3,1.2,2.5,1.9,3.7
			c5.6,10.7,13.4,20.3,23.1,27.5c4.8,3.6,10,6.6,15.6,8.8c5.9,2.3,12,3.4,18.2,4.1c12.4,1.5,25.1,0.9,37.1-2.4
			c6-1.7,11.9-4,17.4-6.9c2.9-1.5,5.7-3.1,8.4-4.8c2.4-1.6,5-3.2,7.1-5.1c6.8-6.3,10-15.3,14.7-23.1c2.1-3.5,4.8-7.1,8.1-9.9
			c0-0.1,0.1-0.2,0.2-0.2c3.2-2.6,7-4.4,11.4-4.4c4.5,0,9.2,1.4,13.7,0.4C191.6,99.1,193.7,97.9,194.3,95.8z M16.9,98.2
			c-0.3-0.1-0.6-0.3-0.6-0.6c0-0.4,0.3-0.6,0.6-0.6c0.4-0.1,0.8,0.2,0.8,0.6C17.7,98,17.3,98.3,16.9,98.2z M20.9,92.6
			c0.1-0.1,0.2-0.1,0.3-0.2c0.4-0.3,0.8,0.1,0.5,0.5c-0.1,0.1-0.1,0.2-0.2,0.3C21.2,93.6,20.5,92.9,20.9,92.6z M21.2,106.4
			c-0.6,0-0.6-0.9,0-0.9C21.8,105.5,21.8,106.4,21.2,106.4z M21.4,98.5c0-0.3,0.1-0.5,0.4-0.6c0.1,0,0.1,0,0.2,0
			c1.1-0.3,1.1,1.5,0,1.3c-0.1,0-0.1,0-0.2,0C21.5,99,21.4,98.8,21.4,98.5z M22.4,112.9c-0.8,0-0.8-1.2,0-1.2
			C23.2,111.7,23.2,112.9,22.4,112.9z M44.5,31.6c0.2-0.5,0.5-1,0.9-1.4c2.7-2.2,7.9-1.6,7.6,2.7c-0.1,0.8-0.3,1.6-0.7,2.2
			c0.1,0.1,0.1,0.2,0,0.3c-0.4,0.4-0.8,0.9-1.4,1.1c-0.1,0-0.2,0.1-0.3,0.1c0,0,0,0-0.1,0c-1.7,0.8-4.2,0.2-5.4-1.3
			C44.2,34.4,43.9,32.9,44.5,31.6z M25.9,122.7c-0.5,0-0.5-0.8,0-0.8C26.4,121.9,26.4,122.7,25.9,122.7z M29.6,101.9
			c-0.1,0-0.2,0-0.2,0c-0.4,0-0.4-0.7,0-0.7c0.1,0,0.2,0,0.2,0C30.1,101.2,30.1,101.8,29.6,101.9z M32.9,109.9c-0.8,0-0.8-1.2,0-1.2
			C33.7,108.6,33.7,109.9,32.9,109.9z M34.2,115.9c0-0.1-0.1-0.2-0.1-0.2c0,0,0,0,0,0c0,0,0,0,0.1,0.1c-0.5-0.5,0.3-1.3,0.8-0.8
			c0,0-0.1-0.1-0.1-0.1c0,0,0,0,0,0c0.1,0,0.2,0.1,0.2,0.1c0.4,0.2,0.4,0.7,0.1,1C35,116.3,34.4,116.2,34.2,115.9z M36.1,123.2
			c-0.1,0-0.2,0.1-0.3,0.1c-0.6,0.3-1.2-0.3-0.9-0.9c0-0.1,0.1-0.2,0.1-0.3c0.2-0.4,0.9-0.5,1.2-0.2C36.6,122.4,36.5,123,36.1,123.2
			z M37.1,94.4c-0.7,0-0.7-1.1,0-1.1C37.8,93.3,37.8,94.4,37.1,94.4z M38.1,105.6c-0.4,0-0.4-0.6,0-0.6
			C38.4,105,38.4,105.6,38.1,105.6z M42.7,131.3c-0.1,0-0.1,0-0.2,0c-0.3,0.1-0.6,0-0.9-0.2c-0.2-0.2-0.3-0.4-0.3-0.6
			c0-0.3,0.2-0.6,0.4-0.8c0.2-0.1,0.4-0.1,0.7-0.1c0.1,0,0.1,0,0.2,0C43.5,129.8,43.5,131.2,42.7,131.3z M42.7,107.7
			c0.5,0,0.5,0.7,0,0.7C42.3,108.4,42.3,107.7,42.7,107.7z M44.6,118.8c-0.6,0-0.6-0.9,0-0.9C45.2,117.9,45.2,118.8,44.6,118.8z
			 M46.3,137.6c-0.2,0.4-0.8,0.4-1,0c-0.2-0.2-0.2-0.5-0.2-0.8c0-0.4,0.4-0.7,0.7-0.7c0.4,0,0.8,0.3,0.7,0.7
			C46.5,137.1,46.4,137.3,46.3,137.6z M46,100.9c0.5,0,0.5,0.8,0,0.8C45.5,101.7,45.5,100.9,46,100.9z M48.8,144
			c-0.5,0-0.5-0.8,0-0.8C49.3,143.2,49.3,144,48.8,144z M49.5,116.2c-0.8,0-0.8-1.3,0-1.3C50.3,114.9,50.3,116.2,49.5,116.2z
			 M51.2,133.8c-0.1,0-0.1-0.1-0.2-0.1c-0.5-0.3-0.5-1,0-1.3c0.1,0,0.1-0.1,0.2-0.1c0.6-0.3,1.3,0.1,1.3,0.8
			C52.5,133.7,51.7,134.2,51.2,133.8z M50.6,109.2c0-0.4,0.2-0.6,0.5-0.7c0.1,0,0.1-0.1,0.2-0.1c0.5-0.2,1.1,0.3,1.1,0.8
			c0,0.5-0.5,1-1.1,0.8c-0.1,0-0.1-0.1-0.2-0.1C50.9,109.8,50.6,109.6,50.6,109.2z M52.3,135.9c-0.3,0-0.3-0.5,0-0.5
			C52.6,135.4,52.6,135.9,52.3,135.9z M52.6,123.5c-0.1,0-0.1-0.1-0.2-0.1c-0.5-0.3-0.5-1,0-1.3c0.1,0,0.1-0.1,0.2-0.1
			c0.6-0.4,1.3,0.1,1.3,0.7C53.9,123.4,53.1,123.9,52.6,123.5z M56.3,128c-1,0-1-1.5,0-1.5C57.2,126.5,57.2,128,56.3,128z
			 M58.6,146.5c-0.7,0-0.7-1.1,0-1.1C59.3,145.4,59.3,146.5,58.6,146.5z M58.6,114.8c0.7,0,0.7,1,0,1
			C57.9,115.8,57.9,114.8,58.6,114.8z M63.5,136.3c-0.1,0-0.2,0-0.2,0c-0.4,0-0.7-0.4-0.7-0.7s0.3-0.8,0.7-0.7c0.1,0,0.2,0,0.2,0
			c0.4,0,0.7,0.3,0.7,0.7C64.2,136.1,63.9,136.3,63.5,136.3z M67.3,150.4c-0.9,0-0.9-1.4,0-1.4C68.2,149,68.2,150.4,67.3,150.4z
			 M68.2,125.1c-0.9,0-0.9-1.4,0-1.4C69.1,123.8,69.1,125.1,68.2,125.1z M68.1,112.3c0-0.3,0.1-0.5,0.4-0.7c0.1-0.1,0.3-0.1,0.4-0.1
			c0.2-0.1,0.4-0.2,0.6-0.1c0.3,0.1,0.5,0.4,0.5,0.7c0,0.6-0.4,0.9-1,1C68.6,113.1,68.1,112.8,68.1,112.3z M70.5,132.1
			c-1.2,0-1.2-1.8,0-1.8C71.7,130.3,71.7,132.1,70.5,132.1z M72.2,141c-1.2,0-1.2-1.8,0-1.8C73.3,139.2,73.3,141,72.2,141z
			 M74.7,123.2c-0.8,0-0.8-1.3,0-1.3C75.6,121.9,75.6,123.2,74.7,123.2z M78.3,116.4c0-0.1-0.1-0.1-0.1-0.2
			c-0.2-0.3-0.1-0.6,0.1-0.8c0.2-0.2,0.5-0.3,0.8-0.1c0.1,0,0.1,0.1,0.2,0.1C80.4,116,78.9,117.5,78.3,116.4z M79.6,148.9
			c-0.9,0-0.9-1.4,0-1.4C80.5,147.6,80.5,148.9,79.6,148.9z M79.9,139.6c-1.2,0-1.2-1.9,0-1.9C81.1,137.7,81.1,139.6,79.9,139.6z
			 M80.8,120.9c1,0,1,1.6,0,1.6C79.8,122.4,79.8,120.9,80.8,120.9z M81.3,131.9c-0.6,0-0.6-0.9,0-0.9S81.8,131.9,81.3,131.9z
			 M84.2,130.8c-0.2,0.1-0.4,0.1-0.6,0.1c-0.4,0-0.7-0.4-0.7-0.7c0-0.3,0.3-0.7,0.7-0.7c0.2,0,0.4,0,0.6,0.1
			C84.6,130,84.6,130.6,84.2,130.8z M84.1,101.7c0.4,0,0.4,0.6,0,0.6C83.7,102.3,83.7,101.7,84.1,101.7z M85.7,144.7
			c-0.9,0-0.9-1.4,0-1.4C86.6,143.4,86.6,144.7,85.7,144.7z M87.8,135.6c-1.2,0-1.2-1.8,0-1.8C89,133.8,89,135.6,87.8,135.6z
			 M88.3,124.2c-0.2-0.1-0.4-0.2-0.6-0.4c0,0-0.1-0.1-0.1-0.1c-0.2-0.2-0.4-0.4-0.4-0.7c0-0.3,0.3-0.7,0.6-0.8c0.3,0,0.5,0,0.8,0.1
			c0,0,0,0,0,0c0.2,0,0.4,0.1,0.5,0.3c0.2,0.2,0.3,0.4,0.3,0.7C89.5,123.9,88.9,124.4,88.3,124.2z M90.6,155.3c-0.6,0-0.6-1,0-1
			C91.3,154.3,91.3,155.3,90.6,155.3z M90.8,112c-0.6,0-0.6-0.9,0-0.9C91.4,111.1,91.4,112,90.8,112z M91.3,102.9
			c-0.3,0-0.3-0.4,0-0.4S91.6,102.9,91.3,102.9z M92.1,137.2c0-0.1-0.1-0.1-0.1-0.2c-0.2-0.5,0-1.2,0.7-1.2s0.9,0.7,0.7,1.2
			c0,0.1-0.1,0.1-0.1,0.2C93.1,137.6,92.3,137.6,92.1,137.2z M93.9,146.9c-1,0-1-1.5,0-1.5C94.9,145.4,94.9,146.9,93.9,146.9z
			 M97.3,148.3c-0.1,0.1-0.2,0.2-0.4,0.2c0,0,0,0-0.1,0c-1.2,0.4-1.2-1.8,0-1.4c0,0,0,0,0.1,0c0.2,0,0.3,0.1,0.4,0.2
			c0.1,0.1,0.2,0.3,0.2,0.5C97.5,148,97.5,148.2,97.3,148.3z M95,50.9c-2.6,1.9-5.2,3.5-8.1,4.9c-5.6,2.6-11.5,4.2-17.6,4.8
			c-6.4,0.7-12.8,0.5-19.2,0c-6.5-0.6-13-1.3-19.5-2.3c0,0,0,0,0,0c-0.1,0-0.3,0-0.4-0.1c-0.1,0-0.2,0-0.3,0c-0.1,0-0.1,0-0.1-0.1
			c-0.9-0.2-1.8-0.7-2.2-1.6c-0.2-0.5-0.3-0.7,0.1-1.1c0.3-0.3,0.9-0.5,1.4-0.3c12.4,3.2,27.5,2.6,37-7.1c1.3-1.3,2.2-3.1,3.3-4.6
			c2-2.9,4-5.7,6.1-8.5c2.1-2.8,4.4-5.6,6.9-8.1c1.6-1.6,3.7-3.6,6-3.9c1.8-0.3,3.8,1.5,3.3,3.4c-0.4,1.6-2.1,2.7-3.5,3.4
			c-1.6,0.9-3.4,1.5-4.9,2.7c-5,3.8-7.7,9.3-11.1,14.5c-2.6,4.1-5.8,7.5-10.5,8.8c5.3,0.9,10.4-0.1,15.4-2.1c2.4-1,5.1-1.9,7.4-3.2
			c1.2-0.7,2.3-1.4,3.5-2.1c2.7-1.7,5.7-3.8,8.8-4.5c1.1-0.3,2.1,0,3,0.8c0.8,0.9,0.3,2-0.3,2.8C98.1,48.8,96.5,49.8,95,50.9z
			 M99.6,119.2c0.1-0.1,0.1-0.2,0.2-0.3c0.3-0.4,0.8-0.5,1.1-0.1c0.3,0.3,0.2,0.9-0.1,1.1c-0.1,0.1-0.2,0.1-0.3,0.2
			C100,120.5,99.3,119.7,99.6,119.2z M100.9,139.1c-1.1,0-1.1-1.7,0-1.7C102,137.4,102,139.1,100.9,139.1z M101.6,129.1
			c-0.8,0-0.8-1.3,0-1.3C102.4,127.7,102.4,129.1,101.6,129.1z M105.7,146.6c0,0.1,0,0.1,0,0.2c-0.1,0.4-0.3,0.5-0.6,0.4
			c-0.3,0-0.5-0.1-0.6-0.4c0-0.1,0-0.1,0-0.2C104.3,145.5,105.9,145.5,105.7,146.6z M119.8,97c0.4,0,0.4,0.6,0,0.6
			C119.4,97.7,119.4,97,119.8,97z M109.1,109.8c1.1,0,1.1,1.8,0,1.8C107.9,111.5,107.9,109.8,109.1,109.8z M107.7,100.6
			c0.3,0,0.3,0.4,0,0.4C107.4,101.1,107.4,100.6,107.7,100.6z M108.1,142.7c-0.9,0-0.9-1.4,0-1.4C109,141.3,109,142.7,108.1,142.7z
			 M109.5,134.2c-0.5,0-0.5-0.8,0-0.8S110.1,134.2,109.5,134.2z M109.5,128.7c-0.7,0-0.7-1.1,0-1.1S110.2,128.7,109.5,128.7z
			 M113.8,119.6c-0.3,0.3-0.9,0.3-1.1-0.1c-0.1-0.1-0.1-0.2-0.2-0.3c-0.3-0.6,0.3-1.2,0.9-0.9c0.1,0.1,0.2,0.1,0.3,0.2
			C114,118.7,114.1,119.2,113.8,119.6z M114.9,147.6c-1,0-1-1.6,0-1.6C115.9,146.1,115.9,147.6,114.9,147.6z M116.8,131.4
			c-0.8,0-0.8-1.2,0-1.2C117.6,130.1,117.6,131.4,116.8,131.4z M116.5,126.5c-1.2,0-1.2-1.9,0-1.9
			C117.7,124.7,117.7,126.5,116.5,126.5z M120.3,137.9c-1.1,0-1.1-1.7,0-1.7C121.4,136.2,121.4,137.9,120.3,137.9z M122.6,115.2
			c-1,0-1-1.6,0-1.6C123.6,113.6,123.6,115.2,122.6,115.2z M123.8,112.8c0.8,0,0.8,1.3,0,1.3S123,112.8,123.8,112.8z M124.7,121.5
			c-0.7,0-0.7-1.1,0-1.1S125.5,121.5,124.7,121.5z M126.8,101.7c1,0,1,1.6,0,1.6C125.8,103.3,125.8,101.7,126.8,101.7z M128,139.1
			c-1.2,0-1.2-1.8,0-1.8S129.2,139.1,128,139.1z M129.6,129.7c-0.7,0-0.7-1.1,0-1.1S130.3,129.7,129.6,129.7z M131.7,111
			c-0.8,0-0.8-1.2,0-1.2C132.5,109.8,132.5,111,131.7,111z M135.5,123.1c-0.9,0-0.9-1.4,0-1.4S136.4,123.1,135.5,123.1z
			 M135.5,115.1c-1,0-1-1.5,0-1.5S136.4,115.1,135.5,115.1z M140.6,129.8c-0.3,0-0.3-0.5,0-0.5C140.9,129.3,140.9,129.8,140.6,129.8
			z M140.6,101.8c-0.1,0-0.2,0-0.2,0c-0.4,0-0.7-0.3-0.7-0.7c0-0.4,0.3-0.7,0.7-0.7c0.1,0,0.2,0,0.2,0c0.4,0,0.7,0.4,0.7,0.7
			C141.4,101.5,141,101.8,140.6,101.8z M142.9,96.2c0.6,0,0.6,0.9,0,0.9C142.3,97.1,142.3,96.2,142.9,96.2z M142.9,105.3
			c-0.4,0-0.4-0.6,0-0.6C143.3,104.7,143.3,105.3,142.9,105.3z M143.2,109.2c-1.1,0-1.1-1.7,0-1.7
			C144.3,107.5,144.3,109.2,143.2,109.2z M147.2,99.2c-0.4,0-0.9-0.5-0.7-0.9c0-0.1,0.1-0.1,0.1-0.2c0.3-0.6,1-0.6,1.2,0
			c0,0.1,0.1,0.1,0.1,0.2C148,98.8,147.6,99.2,147.2,99.2z M149.9,117c0,0.1-0.1,0.1-0.1,0.2c-0.4,0.5-1.1,0.5-1.5,0
			c0-0.1-0.1-0.1-0.1-0.2c-0.5-0.6,0.2-1.5,0.9-1.5C149.7,115.5,150.3,116.4,149.9,117z M150.4,103.4c-0.6,0-0.6-1,0-1
			C151,102.5,151,103.4,150.4,103.4z M152.5,110.4c-0.8,0-0.8-1.3,0-1.3C153.3,109.1,153.3,110.4,152.5,110.4z M156.3,101.6
			c0.6,0,0.6,0.9,0,0.9C155.7,102.4,155.7,101.6,156.3,101.6z M157.3,107.7c-0.1,0.1-0.3,0.2-0.5,0.2c-0.5,0-0.8-0.4-0.8-0.8
			c0-0.3,0-0.6,0.3-0.8c0.2-0.2,0.5-0.3,0.8-0.3c0.5-0.1,0.9,0.4,0.9,0.9C157.8,107.2,157.6,107.6,157.3,107.7z M159.8,94.4
			c-0.1,0-0.2,0-0.2,0c-0.4,0-0.8-0.4-0.8-0.8s0.4-0.8,0.8-0.8c0.1,0,0.2,0,0.2,0c0.4,0,0.8,0.4,0.8,0.8S160.2,94.4,159.8,94.4z
			 M162.3,101c-0.5,0-0.5-0.8,0-0.8C162.9,100.2,162.9,101,162.3,101z M166.8,92.6c-0.8,0-0.8-1.2,0-1.2
			C167.6,91.3,167.6,92.6,166.8,92.6z M169.3,95.1c-0.8,0-0.8-1.2,0-1.2C170.1,93.9,170.1,95.1,169.3,95.1z M174.7,93.7
			c-0.7,0-0.7-1.1,0-1.1C175.4,92.6,175.4,93.7,174.7,93.7z M179.2,96.1c-0.2,0-0.2-0.4,0-0.4C179.4,95.7,179.4,96.1,179.2,96.1z
			 M184.3,97c-0.8,0-0.8-1.2,0-1.2C185.1,95.8,185.1,97,184.3,97z M186.2,94c-0.5,0-0.5-0.8,0-0.8S186.7,94,186.2,94z"/>
	</g>
	<g>
		<path class="st2" d="M243,105.8c-3.6-1.1-7.3-1.7-10.9-2.8c-0.9-0.3-2.4-0.6-3.1-1.3c5.4-1.4,10.9,1.7,16.4,0.9
			c0.2,0,0.2-0.3,0.1-0.4c-3.4-4.3-9.8-4.1-14.2-6.9c3.3-0.7,7.5,0.7,10.1-1.8c0.1-0.1,0.1-0.3,0-0.4c-1.4-1.6-3.6-2.2-5.6-2.6
			c-2.3-0.5-4.7-0.7-7-1.2c-6.2-1.3-12.7-1-18.7-3.2c1.9-1.4,4.6-1.3,6.8-1.2c2.6,0.1,5.1,0.5,7.6,0.7c1.7,0.1,3.5-0.1,5.2-0.5
			c1.1-0.2,3.2-0.6,3.3-2c0.1-1.4-2.2-1.9-3.1-2.1c-1.7-0.4-3.5-0.5-5.2-0.7c-5.5-0.5-11.1-1-16.6-0.7c-5.4,0.3-11.2,1.2-15.8,4.4
			c0,0,0,0,0,0c-0.3-0.1-0.6-0.2-0.9-0.2c-1-0.1-2-0.1-3-0.3c-1.6-0.3-3.1-0.9-4.6-1.4c-5.2-1.9-10-4.6-15.5-5.7
			c-7.4-2.2-9.5-11.8-10.8-18.4c-1.1-5.5-2.8-10.7-4.5-16c-0.9-2.7-1.6-5.5-2.6-8.2c-0.9-2.3-2-4.5-3-6.8
			c-1.7-5.1-6.6-8.4-10.5-11.6c-2.2-1.8-4.4-3.5-6.9-5c-2.6-1.6-5.5-2.8-8.3-3.9C109.8,2.1,97-0.5,84.3,0.1
			C71.7,0.6,59.4,4.2,48.4,10.3c-5.8,3.2-10.8,7.4-16.2,11.1c-2.7,1.8-5.3,3.7-7.6,6c-0.9,0.9-1.5,2.2-2.4,3.1
			c-0.6,0.6-1.4,1.1-2.3,0.9c-0.5-0.1-1.7-0.5-2.2-0.4c-2,0.5-2.8,0.7-3.8,2.7c-1.5,2.8-2.1,6.5-0.5,9.4c0,0,0,0,0,0
			c-1.9,0.2-3.7,1.2-5.3,2.2c-3.3,2.1-7,5.3-7.9,9.3c-0.4,1.8,0.2,3.4,1.3,4.7c0.9,1,1.7,2,2,3.4c0.3,1.6,0.5,3.3,0.6,4.9
			c0.5,6.4-0.9,13.1,0.7,19.4c0,0,0,0,0,0.1c0.2,1,0.5,2,0.7,3c0.6,4.7,2,9.3,3.5,13.7c1.8,5.2,3.7,10.9,7.1,15.2c0,0,0,0,0,0
			c4.4,7.8,10.1,14.8,16.8,20.7c8.6,7.7,19.2,13.4,30.6,15.5c12.3,2.2,24.8,2.7,37.2,0.6c12.2-2.1,23.7-7,34.1-13.6
			c4.3-2.7,8.1-5.6,11.2-9.7c2.8-3.6,4.9-7.8,7-11.8c2.2-4.3,4.6-8.7,7.6-12.5c5.5,0.6,9.4,5.5,14.8,6.3c3,0.5,6.9,0.6,9.6-1
			c1.3-0.7,1.8-2,1.5-3.4c-0.2-1.4-1.5-2.3-2.7-3c-3.6-1.9-7.9-2.4-11.7-3.8c-1.2-0.5-2.5-1.1-3.4-2c0.6-0.3,1.1-0.5,1.7-0.8
			c4.4-1.7,8.9-0.9,13.5-0.5c1.5,0.1,3.2,0.2,4.8,0c0,0,0,0.1,0.1,0.1c7.5,4.5,15,8.8,22.7,12.9c3.1,1.6,6,3.4,9.2,4.8
			c2.6,1.2,5.8,2.5,8.7,2c0.1,0,0.2-0.1,0.2-0.2c0.1-0.7-1.2-1.5-1.7-1.8c-1-0.8-2.1-1.5-3.2-2.2c-2.2-1.4-4.4-2.6-6.6-4
			c-1.7-1.1-3.6-1.9-5.4-3c-1.5-0.9-3.8-2.1-4.3-4c2.8-0.3,5.5,1.2,7.8,2.5c2.2,1.3,4.2,2.7,6.3,4.1c3.9,2.6,7.8,5.3,12.1,7.1
			c1.8,0.7,3.7,1.4,5.6,1.1c0.9-0.1,2.4-0.6,1.6-1.7c-0.9-1.2-2.7-1.8-3.9-2.5c-2.1-1-4.1-2.2-6.2-3.2c-3.3-1.7-6.6-3.5-9.5-5.8
			c2.9-1.2,6.2-0.1,9.1,0.8c1.9,0.5,3.8,1,5.6,1.3c2,0.4,4,0.7,6.1,0.8c1.2,0.1,3,0.3,4-0.6C248.6,107.3,243.5,105.9,243,105.8z
			 M237.8,98.4c2.5,0.8,5.2,1.7,7.1,3.7c-1.9,0.2-3.7,0-5.5-0.3c1.4-0.1,3-0.8,1.3-2.1c-1.6-1.2-3.8-1.3-5.7-1.6
			c-1.3-0.2-5-0.8-4.6-2.9c0,0,0-0.1,0-0.1c0,0.1,0,0.2,0.1,0.2C232.7,96.9,235.3,97.6,237.8,98.4z M235.9,98.9
			c-1.6-0.2-3-0.2-4.6-0.9c-1.4-0.7-2.6-1.5-4.1-2.1c-2.9-1.2-6.2-1.4-9.3-1.6c-3.5-0.2-6.9-0.6-10.4-0.9c-1-0.1-2-0.1-2.9-0.2
			c0,0,0.1,0,0.1,0c3.8-0.1,7.5-0.2,11.3,0.1c3.5,0.3,7.1,1.2,10.6,1.1c1.7-0.1,3.4-0.3,5.1-0.6c0.1,0,0.1,0,0.2,0
			c-0.6,0.1-1.1,0.3-1.5,0.7c-0.9,0.7-0.6,1.8,0.1,2.6c1.1,1.2,3.3,1.5,4.8,1.7c0.4,0.1,0.9,0.1,1.3,0.2
			C236.4,98.9,236.2,98.9,235.9,98.9z M238.2,100c0.3,0.2,0.4,0.5-0.2,0.5c-0.2,0-0.5,0-0.7,0c-0.5,0-1-0.2-1.5-0.3
			c-0.9-0.3-1.9-0.6-2.8-1c-3.4-1.3-7-2-10.5-2.9c-3.3-0.9-6.7-1.4-10.1-1.9c1.1,0.1,2.1,0.2,3.2,0.3c3.4,0.2,6.8,0.3,10.1,1.2
			c2.9,0.8,5.2,3.1,8.2,3.4C235.3,99.4,236.9,99.3,238.2,100z M195.3,92.4c0-0.1,0-0.2,0-0.4c0-0.1,0-0.3,0-0.4
			c3.3,0.7,6.7,0.7,10.1,0.7c3.7,0,7.4,0.1,11.1,0.3c1.8,0.1,3.6,0,5.4,0c1.8,0,3.5,0.3,5.3,0.3c2.5,0,5-0.6,7.4-0.5
			c0.3,0,0.6,0.1,0.8,0.2c0,0-0.8,0.3-0.9,0.3c-0.7,0.2-1.4,0.2-2,0.4c-1.9,0.3-3.9,0.6-5.9,0.7c-1.9,0.1-3.8-0.2-5.7-0.5
			c-1.8-0.3-3.6-0.4-5.4-0.6c-3.8-0.3-7.5-0.2-11.3-0.1c-1.8,0.1-3.6,0.1-5.4,0.1C197.6,92.9,196.5,92.4,195.3,92.4z M198,93.2
			c-0.9,0-1.7-0.2-2.6-0.4C196.3,92.8,197.1,93,198,93.2z M195.1,87.5c3.3-1,6.7-1.5,10-2.5c0.6-0.2,5.4-1.4,4.7-2.7
			c-0.4-0.7-1.4-0.4-2.1-0.3c-1.4,0.2-2.8,0.7-4.1,1.2c-1.3,0.5-2.6,0.8-4,1.1c-1.6,0.4-3.4,0.8-4.8,1.8c-0.1,0-0.1,0-0.2,0.1
			c0,0,0,0.1-0.1,0.1c-0.1-0.2-0.2-0.4-0.3-0.6c0,0,0,0,0.1,0c2.8-1.3,5.9-2.2,8.8-3c3.3-0.9,6.6-1,9.9-0.9c3.3,0.1,6.5,0.4,9.8,0.7
			c1,0.1,2,0.2,3,0.3c0.5,0,1,0.1,1.5,0.2c0.2,0,1.2,0.3,0.6,0.4c-1.5,0.3-3.5-0.2-5.1-0.3c-3.1-0.2-6.4-1.2-9.5-0.7
			c-3,0.4-5.9,2.3-8.7,3.4c-3.1,1.2-6.2,2.1-9.5,2.6C195.2,88,195.2,87.8,195.1,87.5z M195.2,94.2c1.3,0.1,2.6,0.5,3.9,0.9
			c1.2,0.3,2.5,0.6,3.8,0.8c2.6,0.5,5.2,1.1,7.8,1.8c2.7,0.7,5.3,1.5,7.9,2.3c1.3,0.4,2.6,0.8,3.9,1.2c0.7,0.2,1.3,0.4,2,0.6
			c0.2,0,0.3,0.1,0.5,0.1c0.8,0.2-0.2,1.1-0.8,0.9c-2.3-0.7-4.5-1.7-6.8-2.4c-2.4-0.7-4.9-1.3-7.3-1.9C205,97.3,200.1,96,195.2,94.2
			C195.2,94.3,195.2,94.3,195.2,94.2C195.2,94.2,195.2,94.2,195.2,94.2z M194.8,86.6c2.5-1.6,5.4-1.8,8.1-2.8c1-0.4,2-0.7,3-1
			c0.9-0.3,2.4-0.9,3.3-0.5c0.6,0.3-2.1,1.5-2.3,1.5c-1,0.4-2.1,0.7-3.2,1c-2.9,0.8-5.9,1.3-8.8,2.2C195,86.9,194.9,86.8,194.8,86.6
			z M201,97.4c2.2,0.9,4.4,1.7,6.7,2.5c2.2,0.8,4.5,1.4,6.8,2.1c0.9,0.3,1.7,0.5,2.6,0.7c0.4,0.1,0.8,0.2,1.2,0.3
			c0.1,0,1.8,0.9,1.2,1.1c-0.9,0.4-2.5-0.7-3.3-1.1c-0.8-0.4-1.7-0.8-2.6-1.1c-2.2-0.8-4.4-1.4-6.5-2.2c-2.2-0.8-4.5-1.6-6.7-2.4
			c-1.8-0.7-3.5-1.5-5.5-1.5c0-0.1,0-0.2,0.1-0.3C197.1,95.7,199,96.6,201,97.4z M211.3,88.3c3.5,0.8,7,1.8,10.6,2.5
			c3,0.6,6.2,1.3,9.3,1.1c0.8,0,1.6-0.1,2.5-0.1c-0.9,0.1-1.9,0.3-2.4,0.4c-3.9,0.5-7.7-0.1-11.6,0c-4,0.1-8-0.3-12-0.3
			c-4.1,0-8.2,0.1-12.3-0.6c0-0.2,0-0.3,0-0.5c6,0.6,12.1,0,18.1,0.3c1.4,0.1,3.1,0.6,4.5,0.2c0.8-0.2,0.4-0.9-0.1-1.2
			c-1.1-0.5-2.5-0.5-3.6-0.6c-1.6-0.1-3.2-0.2-4.8-0.3c-1.7,0-3.3-0.1-5-0.1c-3,0-6,0.5-9,0.5c0-0.1,0-0.1,0-0.2
			c3.1-0.6,6.4-0.2,9.5-0.8c0.8-0.2,2.8-0.8,2.9-1.8c0.2-1.6-2.8-0.4-3.4-0.2c-2.9,1.3-6.1,1.3-9.1,2c0,0,0-0.1,0-0.1
			c3.6-0.5,7-1.6,10.4-2.9c3.2-1.3,6.2-3.2,9.8-3.2c1.8,0,3.5,0.4,5.3,0.6c1.4,0.2,2.8,0.2,4.1,0.4c0.7,0.1,3.6,0.7,3.9-0.3
			c0.3-1.1-2.6-1-3.1-1c-3.3-0.2-6.5-0.6-9.8-0.9c-3.5-0.2-7-0.3-10.4,0.3c-3.3,0.6-6.6,1.7-9.7,3c-0.5,0.2-1,0.5-1.5,0.7
			c0,0,0,0,0,0.1c-0.2-0.3-0.4-0.5-0.7-0.7c0,0,0,0,0,0c3.1-1.1,6.1-2.4,9.3-3.2c3.7-0.9,7.6-0.9,11.4-0.7c2.9,0.2,5.8,0.7,8.6,1
			c1.7,0.1,3.5,0.2,5.2,0.5c0.8,0.1,1.5,0.3,2.3,0.6c0.3,0.1,0.6,0.3,0.7,0.5c0.3,0.5-0.9,0.6-1.1,0.6c-2.1,0.2-4.3-0.1-6.3-0.2
			c-2.7-0.1-5.4-0.6-8-0.5c-1.6,0.1-3.3,0.3-4.9,0.8c-0.9,0.3-2.5,0.8-2.7,1.9C207.9,87.7,210.1,88.1,211.3,88.3z M195.4,89.3
			c2.3-0.6,4.6-0.8,6.9-1.3c0.8-0.2,1.6-0.4,2.4-0.8c0.5-0.2,0.9-0.4,1.4-0.5c0.7-0.2,1.6,0.2,0.7,0.7c-1.4,0.9-3,1.1-4.6,1.2
			C199.9,88.8,197.6,88.8,195.4,89.3C195.4,89.4,195.4,89.3,195.4,89.3z M195.4,90.6c0-0.1,0-0.2,0-0.4c2.5,0,5.1-0.4,7.6-0.5
			c1.8,0,3.6,0,5.4,0c2.6,0,5.3,0.1,7.9,0.5c0.5,0.1,1,0.2,1.4,0.4c0.7,0.3-1,0.4-1.2,0.3c-1.8-0.1-3.5-0.3-5.3-0.4
			c-2.7-0.1-5.4,0-8,0C200.6,90.6,198,90.5,195.4,90.6z M236,92.5c-0.2-0.4-0.7-0.6-1.2-0.6c0.9,0,2,0.1,2.4,0.9
			c0.3,0.5-3,0.8-3.3,0.8c-0.2,0-0.5,0-0.8,0.1c0.9-0.1,1.9-0.3,2.7-0.8C236.1,92.8,236.1,92.6,236,92.5z M203,94.6
			c3,0.1,5.9,0.3,8.9,0.9c2.8,0.6,5.5,1.4,8.2,2.1c1.3,0.3,2.6,0.7,3.8,1.1c0.4,0.1,0.7,0.2,1.1,0.3c0.3,0.1,1.8,1,0.6,1
			c-2,0.1-4.1-1-6-1.7c-2.6-0.9-5.4-1.5-8.1-2c-2.8-0.5-5.7-0.9-8.5-1.5c-0.5-0.1-0.9-0.2-1.3-0.3C202.2,94.6,202.6,94.6,203,94.6z
			 M202.8,93.7c0.7,0,1.4,0,2.1,0c1.4,0.1,2.9,0.2,4.3,0.3C207.1,93.9,205,93.8,202.8,93.7z M208.7,80.1c5.4-0.2,10.9,0.2,16.3,0.8
			c1.9,0.2,3.8,0.3,5.6,0.8c0.7,0.2,2,0.6,1.8,1.6c-0.2,0.9-2,1.1-2.7,1.3c-4.4,0.9-8.8,0-13.2-0.2c-2.5-0.1-5.3,0-7.2,1.7
			c-0.2,0.1-0.1,0.4,0.1,0.5c5.8,2.2,12.2,2.2,18.3,3.1c2.3,0.4,4.5,0.7,6.8,1.1c2.2,0.4,4.8,0.9,6.4,2.5c-1.4,1.1-3.4,1.1-5.1,1.2
			c-1.7,0-3.5-0.1-5.2,0.5c0,0,0,0-0.1,0c0.7-0.8,2.8-0.9,3.6-0.9c1-0.1,2.4,0,3.3-0.6c0.8-0.6-0.2-1.5-0.8-1.7
			c-1.9-0.6-4-0.3-6-0.2c-3.5,0.1-7.2-0.8-10.6-1.5c-3.3-0.7-6.6-1.6-9.9-2.4c-0.8-0.2-2.2-0.8-1.7-1.8c0.3-0.7,1.4-1,2-1.2
			c1.6-0.5,3.4-0.7,5.1-0.8c2.8-0.2,5.6,0.4,8.3,0.5c2,0.1,4.1,0.4,6.1,0.2c0.8-0.1,1.9-0.6,1.2-1.5c-0.8-0.9-2.8-1-3.9-1.2
			c-1.6-0.2-3.2-0.3-4.9-0.4c-3.1-0.2-6.2-0.8-9.3-1c-3.5-0.2-7.1,0-10.6,0.8c-3.2,0.7-6.2,2.2-9.3,3.4c-0.1,0-0.1,0.1-0.1,0.2
			c-0.2-0.1-0.4-0.3-0.6-0.4C197.5,81.2,203.2,80.4,208.7,80.1z M172.2,104.1c2,0.8,4.1,1.3,6.2,1.8c2.4,0.7,9.6,2.4,7.2,6.4
			c-1,1.6-3.5,1.8-5.1,1.9c-1.6,0.1-3.2,0.1-4.8-0.1c-5.5-0.6-9.4-5.6-15-6c0,0-0.1,0-0.1,0c0.1-0.1,0.2-0.2,0.2-0.3
			c4.5,0.7,8.2,3.6,12.4,5.1c2.1,0.7,4.3,1.1,6.5,0.9c1.3-0.1,3.2-0.5,4.2-1.4c1-0.9,1.1-2.1,0.4-3.2c-0.9-1.4-3.1-1.8-4.6-2.1
			c-2.2-0.5-4.3-1.1-6.4-1.9c-1.1-0.4-2.2-0.9-3.3-1.5c-0.9-0.5-1.7-1.1-2.5-1.6c0.2-0.1,0.4-0.3,0.7-0.4
			C169.2,102.9,170.7,103.6,172.2,104.1z M179.3,110c-2.8-0.7-5.5-1.3-8.2-2.2c-1.3-0.4-2.6-0.9-3.8-1.3c-1.1-0.4-2.6-0.8-3.2-1.8
			c0.2-0.2,0.4-0.4,0.7-0.5c1,0.4,1.8,1.1,2.7,1.7c0.8,0.5,1.7,0.8,2.6,1.2c1.4,0.5,2.9,1,4.3,1.2c2,0.3,4.3,0.5,6.2,1.4
			c1.7,0.8,0.2,1.9-1.1,1.9c-1.9,0.1-3.9-0.3-5.6-1c-2.2-0.8-4.4-1.9-6.6-2.9c-1.5-0.6-3-1.4-4.6-1.6c0.4-0.4,0.9-0.9,1.4-1.3
			c0.4,0.8,1.1,1.1,1.9,1.5c1.3,0.6,2.5,1.1,3.9,1.6c3.1,1.1,6.3,1.9,9.5,2.7C179.5,110.7,179.7,110.1,179.3,110z M168.9,108.9
			c2.3,1.1,4.6,2.2,7.1,2.8c1.4,0.3,3.5,0.7,4.9,0c0.7-0.4,1.3-1.1,0.8-1.8c-0.4-0.8-1.7-1.1-2.5-1.3c-1.3-0.4-2.6-0.6-3.9-0.8
			c-1.4-0.2-2.7-0.6-4.1-1c-1.2-0.4-2.4-0.9-3.6-1.5c-0.9-0.5-1.6-1.1-2.5-1.6c0.4-0.3,0.8-0.6,1.2-0.9c0,0,0,0,0,0
			c2.4,3,6.2,3.6,9.7,4.6c2.2,0.6,4.5,0.8,6.5,2c1.7,1,0.5,2.4-1,2.9c-2.2,0.7-4.8,0.2-6.9-0.5c-2.4-0.7-4.7-1.8-7-2.9
			c-1.9-0.9-3.7-2-5.8-2.1c0.2-0.2,0.4-0.4,0.5-0.6C164.6,106.6,166.8,107.9,168.9,108.9z M169.3,110.3c2.5,1.2,5.1,2.2,7.8,2.7
			c1.6,0.3,3.7,0.4,5.2-0.3c0.9-0.4,2-1.3,1.6-2.5c-0.3-0.9-1.4-1.4-2.2-1.7c-1.3-0.6-2.8-0.8-4.2-1.1c-3.8-0.8-8.2-1.7-11-4.6
			c0.2-0.1,0.3-0.2,0.5-0.3c1.5,0.9,3,1.9,4.6,2.6c1.6,0.7,3.3,1.3,5,1.8c1.7,0.5,3.4,0.7,5.1,1.2c1.1,0.4,2.2,0.9,2.5,2.1
			c0.4,1.3-0.9,2.1-1.9,2.5c-3.8,1.5-7.8,0.5-11.4-1c-3.3-1.4-6.4-3.7-10.1-4c0.1-0.1,0.2-0.3,0.4-0.4
			C164.2,107.4,166.7,109.1,169.3,110.3z M175.9,99.1c-4.3,0-8.1,1.8-11.4,4.4c-0.1,0-0.2,0.1-0.2,0.2c-3.3,2.7-6,6.4-8.1,9.9
			c-4.7,7.8-7.9,16.8-14.7,23.1c-2.1,2-4.7,3.6-7.1,5.1c-2.7,1.7-5.5,3.4-8.4,4.8c-5.6,2.9-11.4,5.2-17.4,6.9
			c-12.1,3.4-24.7,3.9-37.1,2.4c-6.2-0.7-12.4-1.9-18.2-4.1c-5.6-2.2-10.8-5.2-15.6-8.8c-9.7-7.3-17.5-16.9-23.1-27.5
			c-0.6-1.2-1.3-2.5-1.9-3.7c0,0,0,0,0,0c-1.2-2.6-2.2-5.3-3.2-8C8,99.8,6.8,95.6,6,91.4c-0.1-1-0.2-1.9-0.5-2.9
			c0-0.2-0.1-0.5-0.1-0.7c0-0.1,0-0.1,0-0.2c0-0.1-0.1-0.2-0.1-0.4c0-0.1,0-0.1,0-0.2c0,0,0,0,0-0.1c-1.5-5.6-0.5-11.7-0.6-17.5
			c0-1.4-0.2-2.8-0.3-4.1c-0.1-1.2-0.2-2.5-0.7-3.7c-0.7-1.9-2.7-3-3.1-5c-0.4-1.9,0.7-3.9,1.8-5.4c1.3-1.8,3-3.3,4.8-4.7
			c1.7-1.2,3.6-2.3,5.6-2.8c2.8-0.6,5.4,0.6,7.5,2.2c0.1,0.1,0.3-0.1,0.2-0.2c-1.9-1.5-3.9-2.7-6.4-2.7c-0.2,0-0.4,0-0.6,0
			c0,0,0-0.1,0-0.2c-1.4-3-0.7-6.9,1-9.7c0.5-0.7,1.6-1.6,2.4-1.7c1.1-0.2,1.9,0,3,0.3c2.3,0.5,3.9-2.8,5-4.2
			c2.2-2.6,5.4-4.5,8.2-6.4c2.7-1.9,5.3-3.9,8-5.8c2.6-1.9,5.4-3.6,8.2-5.1c5.7-3.1,11.8-5.5,18-7.2c12.7-3.4,26.1-3.5,38.9-0.5
			c6.2,1.4,12.4,3.2,18.3,5.8c2.9,1.3,5.6,2.8,8.2,4.6c2.3,1.6,4.5,3.6,6.7,5.4c2.8,2.3,5.7,4.9,7,8.2c0.8,2.8,2.3,4.7,3.3,7.3
			c1.1,2.8,1.8,5.7,2.7,8.6c1.7,5.5,3.4,11,4.6,16.7c1.3,6.3,3.6,14.8,10.1,17.4c0,0.1,0.1,0.2,0.2,0.2c0.2,0,0.5,0.1,0.7,0.1
			c0.3,0.1,0.5,0.2,0.8,0.2c0.1,0,0.1,0,0.1,0c6,1.4,11.3,4.6,17.2,6.4c1.1,0.3,2.2,0.6,3.3,0.7c0.9,0.1,1.9,0.1,2.8,0.4
			c1.8,0.6,2.2,2.7,2.4,4.4c0,0.1,0,0.2,0,0.2c0,0.2,0,0.4,0,0.6c0,0.8,0,1.7,0,2.5l0,0c-0.2,0-0.2,0.3,0,0.4c0,0.8-0.1,1.5-0.3,2.2
			c-0.1,0.1-0.1,0.2-0.1,0.3c0,0.1-0.1,0.3-0.1,0.4c-0.6,2.1-2.7,3.3-4.7,3.7C185.2,100.5,180.4,99.1,175.9,99.1z M201.2,99.2
			c2,0.7,4.2,1.4,5.8,2.9c-0.3,0.5-0.6,0.6-1,0.4c-0.3-0.1-0.5-0.2-0.8-0.3c-0.5-0.2-1-0.4-1.4-0.6c-1.2-0.5-2.3-1.1-3.5-1.7
			c-1.9-1-3.9-2.1-6.1-2.6c0-0.1,0.1-0.1,0.1-0.2l0,0C196.7,97.6,198.9,98.4,201.2,99.2z M193.2,98.3c2.7,0.7,5,2.4,7.5,3.5
			c1.7,0.8,4.4,1.7,5.5,3.3c0.8,1.2-1.3,0.2-1.7,0c-1-0.5-1.9-1.1-2.8-1.6c-1.4-0.8-2.6-1.9-3.9-2.8c-1.6-1-3.4-1.5-5.1-2
			C192.9,98.6,193.1,98.5,193.2,98.3z M227.5,118.2c0.5,0.4,0.9,0.9,1.4,1.3c-0.1,0-0.2,0-0.3,0c-0.4,0-0.8,0-1.2,0
			c-3-0.2-5.8-1.6-8.5-2.9c-2.5-1.3-5-2.7-7.5-4c-6.4-3.4-12.8-6.9-19-10.6c-1.1-0.6-2.2-1.3-3.3-1.9c0.5-0.1,0.9-0.2,1.4-0.3
			c0,0,0,0,0,0c6.4,2.3,12,6.1,17.8,9.7c2.8,1.8,5.6,3.5,8.6,4.9c1.6,0.8,3.2,1.5,4.8,2.2c1,0.4,1.8,1.1,2.8,1.6
			c0.4,0.2,1,0.2,1.2-0.2c0.3-0.5-0.1-1-0.5-1.3c-0.3-0.3-0.6-0.5-0.9-0.8C225.4,116.6,226.5,117.3,227.5,118.2z M224.8,117
			c0.1,0,0.9,1.1-0.1,0.8c-0.3-0.1-0.5-0.2-0.7-0.4c-0.5-0.3-1-0.6-1.5-0.9c-1.2-0.7-2.6-1.2-3.9-1.8c-1.5-0.7-2.9-1.5-4.4-2.2
			c-2.7-1.5-5.2-3.1-7.8-4.7c-4.9-3.1-9.8-6.2-15.3-8.2c0.5-0.2,0.9-0.4,1.3-0.7c2.3,0.8,4.5,1.7,6.5,3.2c1.2,0.9,2.4,1.8,3.7,2.6
			c0.5,0.3,4.4,3,4.2,0.9c-0.1-0.7-0.9-1.3-1.5-1.7c-1.1-0.8-2.4-1.4-3.7-2c-2.7-1.3-5.3-3-8.1-3.8c0.2-0.2,0.3-0.4,0.5-0.6
			c3,1.1,5.7,2.8,8.6,4.2c0.7,0.3,4.4,2.6,4.9,0.9c0.1-0.5-0.7-1-1-1.2c-1-0.7-2-1.2-3.2-1.7c-2.9-1.2-5.9-2.2-8.9-3
			c0.1-0.2,0.2-0.4,0.2-0.6c0,0,0,0,0,0c2.4,0.2,4.8,1.5,7,2.3c2.7,0.9,5.3,2.1,7.9,2.9c2.5,0.8,4.8,1.6,7.1,2.8
			c0.5,0.2,3.3,1.4,3.3,0.1c0-1.3-2.4-1.7-3.3-1.9c-2.5-0.5-4.9-1.5-7.4-2.2c-2.7-0.8-5.3-1.9-8-2.9c-2.1-0.8-4.2-1.8-6.5-2
			c0-0.2,0.1-0.4,0.1-0.6c5.3,2.5,11.2,3.6,16.8,5c2.8,0.7,5.7,1.5,8.4,2.4c1.3,0.5,2.6,1.1,3.9,1.5c0.7,0.2,1.4,0,1.7-0.7
			c0.7-1.3-2.9-1.8-3.4-1.9c-3.2-1-6.4-1.9-9.7-2.9c-3-0.9-6-1.7-9.1-2.3c-1.5-0.3-3.1-0.6-4.6-1c-1.3-0.3-2.6-0.7-4-0.9
			c0-0.1,0-0.2,0-0.3c3.1,0.6,6.1,1.5,9.1,2.1c3.2,0.6,6.5,1.1,9.7,1.8c3.2,0.7,6.1,1.9,9.2,2.8c0.7,0.2,2.9,1,3.4,0
			c0.6-1.2-2.4-1.8-3-2c-3.1-1-6.3-1.7-9.4-2.5c-2.4-0.6-4.7-1.1-7.2-1.3c0.3,0,0.5,0,0.8,0c3.8,0.2,7.5,0.8,11.2,1.5
			c3.6,0.7,7.1,1.7,10.6,2.6c1.6,0.4,3.2,1,4.8,1.6c1.3,0.5,2.8,1,4.2,0.7c0.4-0.1,0.7-0.6,0.4-0.9c-0.5-0.5-1.1-0.8-1.7-0.9
			c0.4,0.1,0.8,0.2,1.2,0.3c0.8,0.2,3.5,1.3,1.6,1.9c-1.3,0.4-3-0.2-4.2-0.5c-1.3-0.3-2.5-0.8-3.8-1c-1.5-0.2-3.4-0.4-4.7,0.6
			c-1.2,1-0.4,2.6,0.6,3.3c1.4,0.9,3.3,1.2,4.9,1.4c1.8,0.2,3.5,0.4,5.3,0.8c1.1,0.2,3.7,0.6,4.3,1.8c-4.5,0.1-8.8-1.3-13.1-2.6
			c-1.5-0.5-3-0.9-4.6-1.1c-1.1-0.2-2.4-0.4-3.5,0.1c-0.9,0.4-1,1.3-0.7,2.1c0.5,1.7,2.9,2.5,4.3,3.2c2.3,1.2,4.2,3.1,6.5,4.4
			c1.8,1,4.1,2,5.3,3.8c-1-0.1-1.9-0.8-2.7-1.3c-1.1-0.7-2.2-1.2-3.4-1.8c-3.1-1.5-5.9-3.4-8.5-5.7c-2-1.8-4.1-3.5-6.6-4.6
			c-2-0.9-4.6-1.7-6.9-1.3c-2.1,0.4-1.6,2.7-0.8,4.1c1.2,2.1,3.8,3.2,5.9,4.2c3.1,1.4,6.1,2.8,9,4.4
			C223.4,115.9,224.1,116.4,224.8,117z M229.6,111.5c2.3,1.3,4.7,2.6,7.1,3.7c1.5,0.7,3.3,1.4,4.5,2.6c0.8,0.8-0.5,1-1.1,1.1
			c-1.1,0.2-2.2,0-3.3-0.3c-4.7-1.4-9-4.4-13-7c-4-2.6-8.1-6-12.8-7.2c-1-0.2-2-0.3-2.9-0.1c-0.1,0-0.2,0.2-0.2,0.3
			c0.2,1.7,2,2.9,3.3,3.8c1.9,1.3,4,2.3,6.1,3.4c1.5,0.9,3.1,1.8,4.6,2.7c-1.1-0.6-2.2-1.2-3.3-1.7c-2.6-1.3-5.4-2.2-7.9-3.8
			c-1.2-0.7-2.2-1.7-2.9-2.9c-0.4-0.7-0.6-1.8,0-2.4c0.5-0.5,1.4-0.5,2-0.5c5.9,0,9.9,4.6,14.3,7.9c2.4,1.8,5,3.2,7.8,4.4
			c1.6,0.7,3.3,2.5,5.2,2.5c0.2,0,0.3-0.2,0.2-0.4c-0.8-1.7-2.5-2.6-4.1-3.5c-2-1.1-3.9-2.3-5.8-3.7c-0.4-0.3-0.7-0.5-1.1-0.8
			C227.4,110.3,228.5,110.9,229.6,111.5z M245.2,108.7c-2.1,0.2-4.2-0.2-6.3-0.5c-1.6-0.3-3.3-0.6-4.9-1c-2.8-0.6-5.5-1.7-8.4-2
			c-1.4-0.1-2.8,0.1-4.1,0.7c-0.1,0.1-0.2,0.3-0.1,0.4c1.1,0.9,2.3,1.7,3.6,2.5c-0.2-0.1-0.3-0.2-0.5-0.3c-0.9-0.5-1.9-0.9-2.7-1.6
			c-1.2-1-1.4-2.6,0.4-2.8c2.6-0.3,5.5,0.8,8,1.6c4.1,1.3,8.3,2.5,12.6,2.3c0.2,0,0.3-0.2,0.2-0.3c-0.2-1.3-2-1.8-3.1-2.1
			c-1.9-0.6-3.9-0.8-5.8-1.1c-1.7-0.2-3.5-0.5-5.1-1.1c-1.2-0.4-2.5-1.7-1.3-2.9c0.8-0.8,2.4-0.6,3.4-0.5c1.5,0.1,2.8,0.5,4.2,0.9
			c-2.3-0.4-4.5-0.5-6.8,0.2c-0.2,0-0.3,0.2-0.2,0.4c0.5,0.8,1.6,1.1,2.4,1.4c1.6,0.6,3.3,1,5,1.4c3.3,0.8,7,1.3,10.1,2.9
			c0.3,0.1,0.8,0.4,0.9,0.7C246.9,108.6,245.4,108.7,245.2,108.7z"/>
		<path class="st2" d="M50.6,36.8C50.6,36.8,50.6,36.8,50.6,36.8c0.2-0.1,0.3-0.1,0.4-0.2c0.6-0.3,1-0.7,1.4-1.1
			c0.1-0.1,0.1-0.2,0-0.3c0.4-0.7,0.6-1.4,0.7-2.2c0.3-4.3-4.9-5-7.6-2.7c-0.5,0.4-0.8,0.9-0.9,1.4c-0.6,1.3-0.3,2.8,0.7,3.9
			C46.4,37,48.8,37.6,50.6,36.8z"/>
		<path class="st2" d="M99.5,44.5c-0.8-0.9-1.8-1.1-3-0.8c-3.1,0.7-6.1,2.8-8.8,4.5c-1.2,0.7-2.3,1.4-3.5,2.1
			c-2.3,1.3-4.9,2.2-7.4,3.2c-5,2-10.1,3-15.4,2.1c4.7-1.3,7.9-4.7,10.5-8.8c3.4-5.2,6.1-10.7,11.1-14.5c1.5-1.1,3.2-1.8,4.9-2.7
			c1.4-0.8,3.1-1.8,3.5-3.4c0.5-1.9-1.5-3.6-3.3-3.4c-2.4,0.3-4.4,2.4-6,3.9c-2.5,2.5-4.8,5.3-6.9,8.1c-2.1,2.8-4.1,5.6-6.1,8.5
			c-1,1.5-2,3.3-3.3,4.6c-9.4,9.7-24.6,10.4-37,7.1c-0.4-0.2-1.1,0-1.4,0.3c-0.3,0.4-0.2,0.6-0.1,1.1c0.4,0.9,1.3,1.4,2.2,1.6
			c0,0,0.1,0,0.1,0.1c0.1,0,0.2,0,0.3,0c0.1,0,0.3,0.1,0.4,0.1c0,0,0,0,0,0c6.4,1,13,1.8,19.5,2.3c6.4,0.5,12.8,0.7,19.2,0
			c6.1-0.7,12.1-2.2,17.6-4.8c2.9-1.3,5.6-3,8.1-4.9c1.5-1.1,3.1-2.1,4.2-3.6C99.8,46.5,100.3,45.3,99.5,44.5z M98.7,47.2
			c-1.3,1.6-3.2,2.8-4.9,3.9c-2.7,1.9-5.6,3.5-8.6,4.8c-8.4,3.7-17.6,4.7-26.7,4.5c-4.5-0.1-9.1-0.5-13.6-1c-4.8-0.5-9.5-1-14.3-1.8
			c0,0,0,0,0,0c-0.1,0-0.3,0-0.5-0.1c-0.1,0-0.2,0-0.3,0c0,0,0,0,0,0c-0.4-0.1-0.9-0.2-1.3-0.4c-0.4-0.2-0.7-0.5-0.9-0.9
			c-0.4-0.7,0.2-1.2,0.9-1.2c11,3,23.2,3.1,33-3.2c1.7-1.1,3.6-2.4,4.8-4c0.5-0.6,1-1.3,1.4-2c1.7-2.5,3.4-5.1,5.2-7.5
			c2.2-3.1,4.5-6.1,7-8.9c1.9-2.2,4-4.6,6.7-5.9c0.8-0.4,1.8-0.7,2.7-0.3c1.2,0.5,1.8,2.1,1.2,3.2c-0.9,1.7-3.3,2.7-5,3.5
			c-2,1-3.6,2.1-5.3,3.7c-7.2,6.8-9.4,19.5-20.3,21.6c-0.3,0-0.2,0.5,0,0.5c6.5,1.5,12.7-0.1,18.7-2.6c2.2-0.9,4.5-1.8,6.6-3.1
			c1.8-1,3.5-2.1,5.2-3.2c1.8-1,3.6-2.1,5.6-2.7c0.8-0.2,1.4-0.3,2.1,0.1C99.8,45,99.4,46.2,98.7,47.2z"/>
		<path class="st2" d="M42.7,129.7c-0.1,0-0.1,0-0.2,0c-0.2,0-0.5,0-0.7,0.1c-0.3,0.2-0.4,0.5-0.4,0.8c0,0.2,0.1,0.5,0.3,0.6
			c0.2,0.2,0.5,0.3,0.9,0.2c0.1,0,0.1,0,0.2,0C43.5,131.2,43.5,129.8,42.7,129.7z"/>
		<path class="st2" d="M52.3,135.4c-0.3,0-0.3,0.5,0,0.5C52.6,135.9,52.6,135.4,52.3,135.4z"/>
		<path class="st2" d="M63.5,135c-0.1,0-0.2,0-0.2,0c-0.4,0-0.7,0.4-0.7,0.7s0.3,0.8,0.7,0.7c0.1,0,0.2,0,0.2,0
			c0.4,0,0.7-0.3,0.7-0.7C64.2,135.2,63.9,135,63.5,135z"/>
		<path class="st2" d="M68.2,123.8c-0.9,0-0.9,1.4,0,1.4C69.1,125.1,69.1,123.8,68.2,123.8z"/>
		<path class="st2" d="M52.6,122.1c-0.1,0-0.1,0.1-0.2,0.1c-0.5,0.3-0.5,1,0,1.3c0.1,0,0.1,0.1,0.2,0.1c0.6,0.4,1.3-0.1,1.3-0.7
			C53.9,122.2,53.1,121.7,52.6,122.1z"/>
		<path class="st2" d="M35.1,115c-0.1,0-0.2-0.1-0.2-0.1c0,0,0,0,0,0c0,0,0,0,0.1,0.1c-0.5-0.5-1.3,0.3-0.8,0.8c0,0-0.1-0.1-0.1-0.1
			c0,0,0,0,0,0c0,0.1,0.1,0.2,0.1,0.2c0.2,0.4,0.7,0.4,1,0.1C35.5,115.7,35.5,115.2,35.1,115z"/>
		<path class="st2" d="M42.7,107.7c-0.5,0-0.5,0.7,0,0.7C43.2,108.4,43.2,107.7,42.7,107.7z"/>
		<path class="st2" d="M44.6,117.9c-0.6,0-0.6,0.9,0,0.9C45.2,118.8,45.2,117.9,44.6,117.9z"/>
		<path class="st2" d="M35.1,122.2c0,0.1-0.1,0.2-0.1,0.3c-0.3,0.6,0.3,1.2,0.9,0.9c0.1,0,0.2-0.1,0.3-0.1c0.4-0.2,0.5-0.9,0.2-1.2
			C35.9,121.7,35.3,121.7,35.1,122.2z"/>
		<path class="st2" d="M25.9,121.9c-0.5,0-0.5,0.8,0,0.8C26.4,122.7,26.4,121.9,25.9,121.9z"/>
		<path class="st2" d="M22.4,111.7c-0.8,0-0.8,1.2,0,1.2C23.2,112.9,23.2,111.7,22.4,111.7z"/>
		<path class="st2" d="M21.2,105.5c-0.6,0-0.6,0.9,0,0.9C21.8,106.4,21.8,105.5,21.2,105.5z"/>
		<path class="st2" d="M29.6,101.2c-0.1,0-0.2,0-0.2,0c-0.4,0-0.4,0.7,0,0.7c0.1,0,0.2,0,0.2,0C30.1,101.8,30.1,101.2,29.6,101.2z"
			/>
		<path class="st2" d="M38.1,105c-0.4,0-0.4,0.6,0,0.6C38.4,105.6,38.4,105,38.1,105z"/>
		<path class="st2" d="M32.9,108.6c-0.8,0-0.8,1.2,0,1.2C33.7,109.9,33.7,108.6,32.9,108.6z"/>
		<path class="st2" d="M22,97.9c-0.1,0-0.1,0-0.2,0c-0.3,0.1-0.5,0.3-0.4,0.6c0,0.3,0.1,0.5,0.4,0.6c0.1,0,0.1,0,0.2,0
			C23.1,99.4,23.1,97.6,22,97.9z"/>
		<path class="st2" d="M16.9,96.9c-0.3,0.1-0.6,0.3-0.6,0.6c0,0.4,0.3,0.6,0.6,0.6c0.4,0.1,0.8-0.2,0.8-0.6
			C17.7,97.1,17.3,96.8,16.9,96.9z"/>
		<path class="st2" d="M21.5,93.2c0.1-0.1,0.1-0.2,0.2-0.3c0.3-0.4-0.1-0.8-0.5-0.5c-0.1,0.1-0.2,0.1-0.3,0.2
			C20.5,92.9,21.2,93.6,21.5,93.2z"/>
		<path class="st2" d="M37.1,93.3c-0.7,0-0.7,1.1,0,1.1C37.8,94.4,37.8,93.3,37.1,93.3z"/>
		<path class="st2" d="M46,100.9c-0.5,0-0.5,0.8,0,0.8C46.5,101.7,46.5,100.9,46,100.9z"/>
		<path class="st2" d="M51.4,110.1c0.5,0.2,1.1-0.3,1.1-0.8c0-0.5-0.5-1-1.1-0.8c-0.1,0-0.1,0.1-0.2,0.1c-0.3,0.1-0.5,0.4-0.5,0.7
			c0,0.4,0.2,0.6,0.5,0.7C51.2,110,51.3,110,51.4,110.1z"/>
		<path class="st2" d="M49.5,114.9c-0.8,0-0.8,1.3,0,1.3C50.3,116.2,50.3,114.9,49.5,114.9z"/>
		<path class="st2" d="M58.6,115.8c0.7,0,0.7-1,0-1C57.9,114.8,57.9,115.8,58.6,115.8z"/>
		<path class="st2" d="M56.3,126.5c-1,0-1,1.5,0,1.5C57.2,128,57.2,126.5,56.3,126.5z"/>
		<path class="st2" d="M52.5,133.1c0-0.7-0.7-1.1-1.3-0.8c-0.1,0-0.1,0.1-0.2,0.1c-0.5,0.3-0.5,1,0,1.3c0.1,0,0.1,0.1,0.2,0.1
			C51.7,134.2,52.5,133.7,52.5,133.1z"/>
		<path class="st2" d="M45.8,136.1c-0.4,0-0.8,0.3-0.7,0.7c0,0.3,0,0.5,0.2,0.8c0.2,0.4,0.8,0.4,1,0c0.2-0.2,0.2-0.5,0.2-0.8
			C46.5,136.4,46.1,136.1,45.8,136.1z"/>
		<path class="st2" d="M48.8,143.2c-0.5,0-0.5,0.8,0,0.8C49.3,144,49.3,143.2,48.8,143.2z"/>
		<path class="st2" d="M58.6,145.4c-0.7,0-0.7,1.1,0,1.1C59.3,146.5,59.3,145.4,58.6,145.4z"/>
		<path class="st2" d="M72.2,139.2c-1.2,0-1.2,1.8,0,1.8C73.3,141,73.3,139.2,72.2,139.2z"/>
		<path class="st2" d="M81.3,131c-0.6,0-0.6,0.9,0,0.9S81.8,131,81.3,131z"/>
		<path class="st2" d="M84.2,129.7c-0.2-0.1-0.4-0.1-0.6-0.1c-0.4,0-0.7,0.4-0.7,0.7c0,0.3,0.3,0.7,0.7,0.7c0.2,0,0.4,0,0.6-0.1
			C84.6,130.6,84.6,130,84.2,129.7z"/>
		<path class="st2" d="M87.8,133.8c-1.2,0-1.2,1.8,0,1.8C89,135.6,89,133.8,87.8,133.8z"/>
		<path class="st2" d="M85.7,143.4c-0.9,0-0.9,1.4,0,1.4C86.6,144.7,86.6,143.4,85.7,143.4z"/>
		<path class="st2" d="M79.6,147.6c-0.9,0-0.9,1.4,0,1.4C80.5,148.9,80.5,147.6,79.6,147.6z"/>
		<path class="st2" d="M79.9,137.7c-1.2,0-1.2,1.9,0,1.9C81.1,139.6,81.1,137.7,79.9,137.7z"/>
		<path class="st2" d="M70.5,130.3c-1.2,0-1.2,1.8,0,1.8C71.7,132.1,71.7,130.3,70.5,130.3z"/>
		<path class="st2" d="M67.3,149c-0.9,0-0.9,1.4,0,1.4C68.2,150.4,68.2,149,67.3,149z"/>
		<path class="st2" d="M97,147.1C96.9,147.1,96.9,147.1,97,147.1c-1.3-0.4-1.3,1.8-0.1,1.4c0,0,0,0,0.1,0c0.2,0,0.3-0.1,0.4-0.2
			c0.1-0.1,0.2-0.3,0.2-0.5c0-0.2-0.1-0.4-0.2-0.5C97.2,147.2,97.1,147.1,97,147.1z"/>
		<path class="st2" d="M100.9,137.4c-1.1,0-1.1,1.7,0,1.7C102,139.1,102,137.4,100.9,137.4z"/>
		<path class="st2" d="M93.3,137.2c0-0.1,0.1-0.1,0.1-0.2c0.2-0.5,0-1.2-0.7-1.2s-0.9,0.7-0.7,1.2c0,0.1,0.1,0.1,0.1,0.2
			C92.3,137.6,93.1,137.6,93.3,137.2z"/>
		<path class="st2" d="M93.9,145.4c-1,0-1,1.5,0,1.5C94.9,146.9,94.9,145.4,93.9,145.4z"/>
		<path class="st2" d="M90.6,154.3c-0.6,0-0.6,1,0,1C91.3,155.3,91.3,154.3,90.6,154.3z"/>
		<path class="st2" d="M101.6,127.7c-0.8,0-0.8,1.3,0,1.3C102.4,129.1,102.4,127.7,101.6,127.7z"/>
		<path class="st2" d="M88.7,122.3C88.6,122.3,88.6,122.3,88.7,122.3c-0.3-0.1-0.5-0.1-0.8-0.1c-0.4,0.1-0.6,0.5-0.6,0.8
			c0,0.3,0.1,0.5,0.4,0.7c0,0,0.1,0.1,0.1,0.1c0.1,0.2,0.4,0.3,0.6,0.4c0.6,0.2,1.2-0.3,1.2-0.9c0-0.3-0.1-0.5-0.3-0.7
			C89,122.4,88.8,122.4,88.7,122.3z"/>
		<path class="st2" d="M79.3,115.4c-0.1,0-0.1-0.1-0.2-0.1c-0.3-0.2-0.6-0.1-0.8,0.1c-0.2,0.2-0.3,0.5-0.1,0.8
			c0,0.1,0.1,0.1,0.1,0.2C78.9,117.5,80.4,116,79.3,115.4z"/>
		<path class="st2" d="M90.8,111.1c-0.6,0-0.6,0.9,0,0.9C91.4,112,91.4,111.1,90.8,111.1z"/>
		<path class="st2" d="M100.5,120.1c0.1-0.1,0.2-0.1,0.3-0.2c0.4-0.3,0.5-0.8,0.1-1.1c-0.3-0.3-0.9-0.2-1.1,0.1
			c-0.1,0.1-0.1,0.2-0.2,0.3C99.3,119.7,100,120.5,100.5,120.1z"/>
		<path class="st2" d="M80.8,120.9c-1,0-1,1.6,0,1.6C81.8,122.4,81.8,120.9,80.8,120.9z"/>
		<path class="st2" d="M74.7,121.9c-0.8,0-0.8,1.3,0,1.3C75.6,123.2,75.6,121.9,74.7,121.9z"/>
		<path class="st2" d="M70.1,112.1c0-0.3-0.2-0.6-0.5-0.7c-0.2-0.1-0.5,0-0.6,0.1c-0.1,0-0.3,0-0.4,0.1c-0.2,0.1-0.4,0.4-0.4,0.7
			c0,0.6,0.5,0.8,1,0.7C69.6,113,70.1,112.6,70.1,112.1z"/>
		<path class="st2" d="M109.1,111.5c1.1,0,1.1-1.8,0-1.8C107.9,109.8,107.9,111.5,109.1,111.5z"/>
		<path class="st2" d="M122.6,113.6c-1,0-1,1.6,0,1.6C123.6,115.2,123.6,113.6,122.6,113.6z"/>
		<path class="st2" d="M124.7,120.4c-0.7,0-0.7,1.1,0,1.1S125.5,120.4,124.7,120.4z"/>
		<path class="st2" d="M116.5,124.7c-1.2,0-1.2,1.9,0,1.9C117.7,126.5,117.7,124.7,116.5,124.7z"/>
		<path class="st2" d="M113.6,118.4c-0.1-0.1-0.2-0.1-0.3-0.2c-0.6-0.3-1.2,0.3-0.9,0.9c0.1,0.1,0.1,0.2,0.2,0.3
			c0.2,0.4,0.8,0.5,1.1,0.1C114.1,119.2,114,118.7,113.6,118.4z"/>
		<path class="st2" d="M123.8,112.8c-0.8,0-0.8,1.3,0,1.3S124.6,112.8,123.8,112.8z"/>
		<path class="st2" d="M131.7,109.8c-0.8,0-0.8,1.2,0,1.2C132.5,111,132.5,109.8,131.7,109.8z"/>
		<path class="st2" d="M135.5,113.7c-1,0-1,1.5,0,1.5S136.4,113.7,135.5,113.7z"/>
		<path class="st2" d="M135.5,121.6c-0.9,0-0.9,1.4,0,1.4S136.4,121.6,135.5,121.6z"/>
		<path class="st2" d="M129.6,128.6c-0.7,0-0.7,1.1,0,1.1S130.3,128.6,129.6,128.6z"/>
		<path class="st2" d="M120.3,136.2c-1.1,0-1.1,1.7,0,1.7C121.4,137.9,121.4,136.2,120.3,136.2z"/>
		<path class="st2" d="M109.5,133.4c-0.5,0-0.5,0.8,0,0.8S110.1,133.4,109.5,133.4z"/>
		<path class="st2" d="M109.5,127.6c-0.7,0-0.7,1.1,0,1.1S110.2,127.6,109.5,127.6z"/>
		<path class="st2" d="M116.8,130.1c-0.8,0-0.8,1.2,0,1.2C117.6,131.4,117.6,130.1,116.8,130.1z"/>
		<path class="st2" d="M108.1,141.3c-0.9,0-0.9,1.4,0,1.4C109,142.7,109,141.3,108.1,141.3z"/>
		<path class="st2" d="M104.5,146.6c0,0.1,0,0.1,0,0.2c0.1,0.4,0.3,0.5,0.6,0.4c0.3,0,0.5-0.1,0.6-0.4c0-0.1,0-0.1,0-0.2
			C105.9,145.5,104.3,145.5,104.5,146.6z"/>
		<path class="st2" d="M114.9,146.1c-1,0-1,1.6,0,1.6C115.9,147.6,115.9,146.1,114.9,146.1z"/>
		<path class="st2" d="M128,137.3c-1.2,0-1.2,1.8,0,1.8S129.2,137.3,128,137.3z"/>
		<path class="st2" d="M140.6,129.3c-0.3,0-0.3,0.5,0,0.5C140.9,129.8,140.9,129.3,140.6,129.3z"/>
		<path class="st2" d="M149,115.5c-0.7,0-1.3,0.9-0.9,1.5c0,0.1,0.1,0.1,0.1,0.2c0.4,0.5,1.1,0.5,1.5,0c0-0.1,0.1-0.1,0.1-0.2
			C150.3,116.4,149.7,115.5,149,115.5z"/>
		<path class="st2" d="M143.2,107.5c-1.1,0-1.1,1.7,0,1.7C144.3,109.2,144.3,107.5,143.2,107.5z"/>
		<path class="st2" d="M142.9,105.3c0.4,0,0.4-0.6,0-0.6C142.6,104.7,142.6,105.3,142.9,105.3z"/>
		<path class="st2" d="M150.4,102.5c-0.6,0-0.6,1,0,1C151,103.4,151,102.5,150.4,102.5z"/>
		<path class="st2" d="M156.3,102.4c0.6,0,0.6-0.9,0-0.9C155.7,101.6,155.7,102.4,156.3,102.4z"/>
		<path class="st2" d="M157,106c-0.3,0-0.6,0.1-0.8,0.3c-0.2,0.2-0.3,0.5-0.3,0.8c0.1,0.4,0.3,0.8,0.8,0.8c0.2,0,0.4-0.1,0.5-0.2
			c0.3-0.1,0.6-0.5,0.6-0.8C157.8,106.5,157.4,106,157,106z"/>
		<path class="st2" d="M152.5,109.1c-0.8,0-0.8,1.3,0,1.3C153.3,110.4,153.3,109.1,152.5,109.1z"/>
		<path class="st2" d="M147.8,98.1c-0.3-0.6-1-0.6-1.2,0c0,0.1-0.1,0.1-0.1,0.2c-0.2,0.4,0.3,0.9,0.7,0.9c0.4,0,0.9-0.5,0.7-0.9
			C147.8,98.2,147.8,98.2,147.8,98.1z"/>
		<path class="st2" d="M142.9,97.1c0.6,0,0.6-0.9,0-0.9C142.3,96.2,142.3,97.1,142.9,97.1z"/>
		<path class="st2" d="M126.8,101.7c-1,0-1,1.6,0,1.6C127.8,103.3,127.8,101.7,126.8,101.7z"/>
		<path class="st2" d="M119.8,97.7c0.4,0,0.4-0.6,0-0.6C119.4,97,119.4,97.7,119.8,97.7z"/>
		<path class="st2" d="M107.7,101.1c0.3,0,0.3-0.4,0-0.4C107.4,100.6,107.4,101.1,107.7,101.1z"/>
		<path class="st2" d="M91.3,102.5c-0.3,0-0.3,0.4,0,0.4S91.6,102.5,91.3,102.5z"/>
		<path class="st2" d="M84.1,101.7c-0.4,0-0.4,0.6,0,0.6C84.4,102.3,84.4,101.7,84.1,101.7z"/>
		<path class="st2" d="M140.6,100.3c-0.1,0-0.2,0-0.2,0c-0.4,0-0.7,0.3-0.7,0.7c0,0.4,0.3,0.7,0.7,0.7c0.1,0,0.2,0,0.2,0
			c0.4,0,0.7-0.4,0.7-0.7C141.4,100.7,141,100.3,140.6,100.3z"/>
		<path class="st2" d="M159.8,92.8c-0.1,0-0.2,0-0.2,0c-0.4,0-0.8,0.4-0.8,0.8s0.4,0.8,0.8,0.8c0.1,0,0.2,0,0.2,0
			c0.4,0,0.8-0.4,0.8-0.8S160.2,92.8,159.8,92.8z"/>
		<path class="st2" d="M169.3,93.9c-0.8,0-0.8,1.2,0,1.2C170.1,95.1,170.1,93.9,169.3,93.9z"/>
		<path class="st2" d="M162.3,100.2c-0.5,0-0.5,0.8,0,0.8C162.9,101,162.9,100.2,162.3,100.2z"/>
		<path class="st2" d="M166.8,91.3c-0.8,0-0.8,1.2,0,1.2C167.6,92.6,167.6,91.3,166.8,91.3z"/>
		<path class="st2" d="M174.7,92.6c-0.7,0-0.7,1.1,0,1.1C175.4,93.7,175.4,92.6,174.7,92.6z"/>
		<path class="st2" d="M179.2,95.7c-0.2,0-0.2,0.4,0,0.4C179.4,96.1,179.4,95.7,179.2,95.7z"/>
		<path class="st2" d="M184.3,95.8c-0.8,0-0.8,1.2,0,1.2C185.1,97,185.1,95.8,184.3,95.8z"/>
		<path class="st2" d="M186.2,93.2c-0.5,0-0.5,0.8,0,0.8S186.7,93.2,186.2,93.2z"/>
	</g>
</g>
</svg>
