<?xml version="1.0" encoding="utf-8"?>
<!-- Generator: Adobe Illustrator 21.0.0, SVG Export Plug-In . SVG Version: 6.00 Build 0)  -->
<svg version="1.1" id="圖層_1" xmlns="http://www.w3.org/2000/svg" xmlns:xlink="http://www.w3.org/1999/xlink" x="0px" y="0px"
	 viewBox="0 0 196.8 103.2" style="enable-background:new 0 0 196.8 103.2;" xml:space="preserve">
<style type="text/css">
	.st0{fill:#FFFFFF;}
	.st1{fill:#FCEE21;}
	.st2{fill:#232020;}
	.st3{fill:#FBB03B;}
	.st4{fill:#F2F49D;}
	.st5{fill:#EF846A;}
	.st6{fill:#F5B39D;}
</style>
<g>
	<g>
		<path class="st0" d="M67.1,67.9c-0.3,0-0.9,0.4-1,0.6c0.3-0.1,0.7-0.2,1-0.3C67.5,68.2,67.9,68,67.1,67.9z"/>
		<path class="st0" d="M67.8,67.4c-0.8-0.2-1.7-0.1-2.5,0.1c-0.4,0.1-0.7,0.2-1,0.4c-0.7,0.5,0.5,0.7,0.8,0.7c0.2,0,0.4,0,0.6,0
			c0-0.7,1.5-1.7,2.3-0.7c0.1,0.1,0.1,0.2,0,0.3c-0.3,0.3-0.6,0.5-1.1,0.6c0.2,0,0.4-0.1,0.6-0.2C68.4,68.5,69,67.8,67.8,67.4z"/>
		<path class="st0" d="M46.2,64.7c-0.2,0.2-0.3,0.3-0.3,0.4c0.7-1,2.4-1.3,3.5-1.4c0.5-0.1,2.5,0,1.9,1.1c-0.1,0.1-0.2,0.3-0.3,0.4
			c0.3-0.1,0.5-0.1,0.7-0.2c0,0,0.1,0,0.1-0.1c0.7-0.6-0.6-1.2-0.9-1.3c-0.3-0.1-0.6-0.2-0.9-0.3c-0.7,0.1-1.3,0.3-1.8,0.4
			C47.5,64,46.8,64.2,46.2,64.7z"/>
		<path class="st0" d="M70.7,53.8c0,0.1,0,0.2-0.1,0.3c-0.5,1.4-2.6,2.1-3.9,2.5c-1.1,0.3-2.5,0.6-3.8,0.6c-0.3,0.1-0.6,0.1-0.9,0.1
			c-1.1,0.1-3,0.6-3.7-0.6c-0.1-0.1-0.1-0.3-0.1-0.4c-0.3-0.2-0.5-0.4-0.6-0.7c-0.7-1.4,1.5-2.7,2.4-3.1c2.4-1.2,5.5-1.9,8.1-1.9
			c0.5,0,1.1,0,1.6,0.2c-2.1-0.8-4.7-0.4-6.8,0.2c-1.2,0.4-2.3,0.8-3.4,1.4c-1,0.5-2.3,1.2-2.8,2.3c-0.6,1.5,1.5,2.4,2.6,2.8
			c1,0.4,2,0.5,3,0.5c1.3,0.1,2.6,0,3.8-0.3c0.9-0.3,1.8-0.7,2.7-1.1c0.3-0.1,0.5-0.3,0.8-0.4c0.6-0.5,1.1-1.1,1.3-1.9
			c0.1-0.4,0.1-0.8,0-1C70.9,53.5,70.8,53.6,70.7,53.8z"/>
		<path class="st0" d="M69.6,52.7c-0.1,0-0.1-0.1-0.2-0.1c-0.8-0.4-1.8-0.5-2.7-0.5c1.1,0.5,1.9,1.5,1,2.7c-0.4,0.5-0.8,0.9-1.4,1.2
			c0.8-0.3,1.6-0.6,2.2-1.1C69.4,54.4,69.9,53.5,69.6,52.7z"/>
		<path class="st0" d="M114.3,48.9c-1,0.7-2.4,0.9-3.6,0.7c-0.1,0-0.2,0-0.3-0.1c-0.2,0-0.5,0.1-0.7,0.1c1.3,0.2,2.6,0.2,3.9-0.1
			c0.6-0.2,2.2-0.9,2.2-1.7C115.4,48.2,114.8,48.6,114.3,48.9z"/>
		<path class="st0" d="M112,47.9c-0.6-0.3-1.8-0.1-2,0.4C110.7,48.3,111.5,48.3,112,47.9z"/>
		<path class="st0" d="M109.2,46.7c-0.1,0-0.2,0-0.2,0c-0.6,0.1-1.1,0.3-1.6,0.6c-0.4,0.2-0.5,0.5-0.2,1.1c0.2,0.1,0.4,0.2,0.6,0.2
			c0,0,0-0.1,0-0.1c0-0.3,0.1-0.6,0.4-0.9C108.3,47.2,108.7,46.9,109.2,46.7z"/>
		<path class="st0" d="M112.5,47.7c0.1,0.1,0.1,0.2,0,0.3c-0.5,0.6-1.5,0.8-2.5,0.7l0,0c0.5,0.1,1.1,0.1,1.6,0.1h0
			c0.5-0.1,0.9-0.3,1.4-0.5c0.1,0,0.1-0.1,0.2-0.1c0.1-0.2,0.1-0.4-0.2-0.6c-0.9-0.6-2.4-0.6-3.3-0.3c-0.2,0.1-0.5,0.2-0.6,0.4
			c-0.3,0.4,0.3,0.4,0.6,0.5c0-0.1,0.1-0.3,0.3-0.4C110.4,47.1,111.9,47.1,112.5,47.7z"/>
		<path class="st0" d="M108.2,48.3C108.2,48.4,108.2,48.4,108.2,48.3c-0.1,0.1-0.1,0.2,0,0.3c0,0,0,0,0,0c0.1,0,0.3,0,0.4,0
			C108.4,48.6,108.3,48.5,108.2,48.3C108.2,48.4,108.2,48.4,108.2,48.3z"/>
		<path class="st0" d="M67.5,64.8c-1.9-0.2-4.1,0.3-5.7,1.2c-1.2,0.6-1.9,1.6-1.2,2.9c0.7,1.5,2.7,2.2,4.2,2.2
			c0.1,0,0.2,0.1,0.2,0.2c2.7,0.1,5.7-0.3,7.2-2.7C73.5,66.3,69,65,67.5,64.8z M66.2,70.7c-0.1,0-0.1-0.1,0-0.1
			c1.2-0.2,3.8-0.5,4.3-1.8c0,0,0,0.1-0.1,0.1c-0.6,0.8-1.9,1-2.8,1.2c-1,0.2-2,0.3-3.1,0.1c-0.9-0.1-2.5-0.5-2.7-1.6
			c-0.2-1,1.4-1.7,2.1-1.9c1.8-0.6,5.5-1.3,6.7,0.7C72.2,69.8,67.6,70.5,66.2,70.7z"/>
		<path class="st0" d="M67.7,66.4c0.2,0,0.5,0.1,0.7,0.1c0.6,0.1,1.8,0.7,2.2,1.5c0-0.1,0-0.1,0-0.2C70.2,66.7,69,66.4,67.7,66.4z"
			/>
		<path class="st0" d="M126.1,55.6c-0.7-0.4-1.7-0.5-2.6-0.5c0.2,0,0.4,0.1,0.5,0.1c1,0.3,1.3,1.4,0.5,2.1c-0.2,0.3-0.7,0.5-0.9,0.6
			c-0.6,0.2-1.2,0.3-1.8,0.3c-0.5,0.1-1,0.1-1.5,0.1c-0.9,0.1-2.8,0.2-3.7-0.6c-0.4-0.2-0.8-0.6-0.7-1.1c0.2-0.8,1.2-1.2,2.1-1.4
			c0.1,0,0.2-0.1,0.4-0.1c1.3-0.4,2.7-0.5,4.1-0.6c0.8,0,1.7,0,2.5,0.2c-0.7-0.3-1.5-0.4-2.2-0.5c-1.2-0.1-2.4-0.1-3.5,0
			c-1.5,0.2-3.6,0.6-4.5,1.9c-0.7,1,1,1.8,1.7,2.1c0.6,0.2,1.3,0.3,1.9,0.4c1.2,0.1,2.5,0,3.7-0.1c0.4,0,1.4-0.1,2.4-0.4
			c0.3-0.1,0.5-0.2,0.8-0.4C126.2,57.5,126.7,56.5,126.1,55.6z"/>
		<path class="st0" d="M114.3,44.4c-1.4-0.5-2.9-0.5-4.3-0.4c-2,0.2-5,0.9-6.2,2.7c-0.8,1.4,0.6,2.6,1.7,3.1c1,0.4,2.2,0.6,3.3,0.6
			c0.2,0,0.3,0.3,0.1,0.4c2.7,0.3,5.9,0.2,8-1.7C118.9,47.3,116,45.1,114.3,44.4z M111.6,50.1c-1.6,0-4.4-0.2-5.5-1.6
			c-0.8-0.9,0.1-1.9,0.9-2.3c1.3-0.7,3-0.8,4.4-0.9c1.3-0.1,2.8,0,3.9,0.8c0.4,0.3,0.6,0.6,0.6,1c0.1,0.1,0.1,0.2,0.1,0.3
			C116.7,49.5,113,50.1,111.6,50.1z"/>
		<path class="st0" d="M69.8,54.2c0.2-0.2,0.3-0.4,0.4-0.6c0-0.2,0-0.3-0.1-0.5C70.1,53.5,70,53.9,69.8,54.2
			C69.8,54.2,69.8,54.2,69.8,54.2z"/>
		<path class="st0" d="M98.5,55.9c-1.2,0.3-2.4,0.8-3.4,1.5c-0.8,0.7-1.7,2.1-0.9,3.1c1.1,1.3,3.7,1.2,5.3,1.2
			c0.1,0,0.2,0.1,0.2,0.2c1.1-0.1,2.3-0.3,3.4-0.7c1.5-0.6,4.4-2.2,2.8-4.1C104.2,55.1,100.7,55.4,98.5,55.9z M105.4,58.3
			c-0.2,0.6-0.7,0.9-1.2,1.2c-1.2,0.8-2.6,1-3.9,1.2C98.9,60.8,97.1,61,96,60c-1.1-0.9-0.1-2.3,0.9-2.7c1.6-0.6,3.5-0.7,5.1-0.5
			C102.8,56.9,105.7,57,105.4,58.3z"/>
		<path class="st0" d="M112,46.1c0,0,0.1,0,0.1,0c1-0.1,2.2-0.2,3.1,0.2c-0.1-0.1-0.2-0.1-0.3-0.2c-0.7-0.4-1.7-0.5-2.5-0.5
			c-1.6,0-3.2,0.2-4.7,0.8c-0.6,0.2-1.6,0.7-1.4,1.5c0,0,0,0.1,0,0.1c0-1,1.4-1.4,2.2-1.6C109.7,46.1,110.9,46,112,46.1z"/>
		<path class="st0" d="M104.8,57.8c0.2,0.2,0.2,0.5,0.1,0.8C105.2,58.3,105.1,58,104.8,57.8z"/>
		<path class="st0" d="M104.3,57.9c0.2,0.4-0.1,0.9-0.7,1.2c-0.7,0.4-1.5,0.6-2.3,0.6c0,0,0.1,0.1,0.1,0.2c0.5-0.1,1.1-0.2,1.6-0.3
			c0,0,0.1,0,0.1,0c0.4-0.2,0.8-0.4,1.2-0.8C104.7,58.4,104.6,58.1,104.3,57.9z"/>
		<path class="st0" d="M121.3,55.7c0.8,0,2.7,0.1,3.3,0.8c0-0.2,0-0.5-0.4-0.7c-0.5-0.3-1.1-0.3-1.7-0.4c-1.1-0.1-2.3,0-3.4,0.2
			c-0.4,0.1-0.7,0.1-1,0.2c-0.1,0-0.2,0.1-0.3,0.1c-0.2,0.1-0.3,0.2-0.5,0.3c-1,0.6-0.4,1.1,0.3,1.4c0.7,0.2,1.5,0.1,2.3,0.1
			c0.7,0,1.3,0,1.9,0c0.7-0.1,1.3-0.3,1.9-0.5c0.4-0.2,0.5-0.5-0.1-0.8c-0.6-0.2-1.2-0.3-1.7-0.3c-1.1-0.1-2.5-0.2-3.6,0.3
			c-0.5,0.3-0.3,0.3,0.1,0.5c0.1,0,0.1,0,0.2,0c-0.1-0.1-0.1-0.2,0-0.3c0.9-0.7,2.7-0.8,3.6-0.1c0.1,0.1,0.2,0.2,0,0.4
			c-1.1,1.1-3.5,0.8-4.7,0.1c-0.1-0.1-0.1-0.2-0.1-0.3C117.9,55.5,120.1,55.6,121.3,55.7z"/>
		<path class="st0" d="M61.6,52.4C61.6,52.4,61.6,52.4,61.6,52.4c0.4-0.1,0.9-0.1,1.4-0.1c0.4-0.1,0.7-0.2,1-0.2
			C63.2,52,62.4,52.1,61.6,52.4z"/>
		<path class="st0" d="M111.7,49.2c0,0-0.1,0-0.1,0c0.5,0,1-0.1,1.3-0.2c0.8-0.2,1.8-0.6,1.8-1.5c0-0.6-0.9-0.8-1.4-0.9
			c0.3,0.2,0.5,0.4,0.6,0.8c0.2,0.4,0,0.8-0.3,1.1C113.2,49,112.2,49.2,111.7,49.2C111.7,49.2,111.7,49.2,111.7,49.2z"/>
		<path class="st0" d="M114.3,46.5c0.2,0.1,0.4,0.2,0.5,0.4c0.4,0.4,0.3,0.9,0.1,1.3c0.4-0.3,0.7-0.6,0.8-0.9
			c-0.1-0.1-0.2-0.3-0.4-0.5C115,46.7,114.6,46.6,114.3,46.5z"/>
		<path class="st0" d="M69.4,51.2C69,51.1,68.6,51,68.2,51c0.5,0.1,0.9,0.3,1.3,0.6c0.4,0.1,0.8,0.3,1.1,0.5
			C70.4,51.7,70,51.3,69.4,51.2z"/>
		<path class="st0" d="M54.6,62.3c-1.5-0.6-3.4-0.4-5-0.3c-1.2,0.1-2.5,0.3-3.7,0.6c-1.1,0.3-2.3,0.6-3.3,1.2
			c0.2-0.1,0.5-0.2,0.7-0.2c1.3-0.4,2.7-0.6,4-0.8c0.9-0.2,1.8-0.3,2.6-0.4c1.6-0.1,3.5,0,4.8,1c1.5,1.2,0,2.6-1.2,3.2
			c0.3-0.1,0.6-0.2,0.9-0.4C56.2,65.2,56.7,63.1,54.6,62.3z"/>
		<path class="st0" d="M128.3,24.7c-0.6,0.4-1,1-0.9,1.8C127.4,25.9,127.7,25.2,128.3,24.7C128.3,24.7,128.3,24.7,128.3,24.7z"/>
		<path class="st0" d="M127.3,24.6c-1.1,0.5-1.9,1.2-1.1,2.5c0.4,0.6,1,1.1,1.8,1.4c-0.2-0.2-0.4-0.3-0.5-0.5c-0.6-0.5-1-1.1-0.9-2
			C126.7,25.4,127,25,127.3,24.6z"/>
		<path class="st0" d="M121,57.1c0-0.1,0.1-0.2,0.2-0.2c0.1,0,0.2,0,0.3,0c-0.7-0.2-1.7-0.2-2.3,0.1C119.7,57.2,120.3,57.2,121,57.1
			z"/>
		<path class="st0" d="M130.9,28.6C130.9,28.6,130.9,28.6,130.9,28.6c-0.5-0.1-0.9-0.3-1.2-0.6c-0.4-0.2-0.8-0.4-1.2-0.7
			c-0.5-0.4-0.7-0.9-0.6-1.4c-0.2,0.5-0.2,1,0.1,1.6c0.1,0.2,0.2,0.5,0.4,0.6C129.1,28.4,130,28.6,130.9,28.6z"/>
		<path class="st0" d="M131.4,35.3c-2.8-0.5-6,0.1-8.4,1.7c0,0.1,0,0.2-0.1,0.2c-2.1,0.7-2.7,2.7-1.1,4.3c1,1,2.4,1.3,3.7,1.5
			c2.5,0.3,5.2-0.2,7.5-1c1.7-0.6,3.2-1.9,2.6-3.9C135.1,36.4,133.1,35.6,131.4,35.3z M134.2,39.2c-0.4,1.7-3.4,2.6-4.9,2.7
			c-0.1,0-0.1-0.1,0-0.1c1.3-0.2,5.5-1.5,4.6-3.5c-0.6-1.3-2.7-1.6-4-1.7c-1.3-0.1-2.7,0.2-4,0.6c-1,0.3-2.1,0.9-2.8,1.7
			c-1.1,1.5,1,2.2,2,2.3c2,0.3,4.2-0.1,6-0.9c0.8-0.3,2.8-1.8,1.5-2.6c-0.5-0.4-1.3-0.4-2-0.5c0.2,0.1,0.4,0.2,0.6,0.4
			c2.3,2-1.8,3.2-3.2,3.4c-1.1,0.1-2.5,0.1-3.6-0.5c-0.8-0.5-0.8-1.4-0.2-2.1c0.6-0.7,1.6-1,2.6-1.3c0.7-0.2,1.5-0.3,2.3-0.3
			c1.2-0.1,3-0.3,3.9,0.6c1.3,1.1-0.5,2.6-1.5,3.1c-1.6,0.8-3.5,1.1-5.3,1.1c-1.3,0-4.7-0.5-3.7-2.6c1-2.1,4.2-2.7,6.2-2.8
			C130.5,36.1,134.9,36.7,134.2,39.2z"/>
		<path class="st0" d="M139.5,24.4c-0.3-0.2-0.6-0.4-0.9-0.5c-0.2-0.1-0.4-0.1-0.6-0.2c-0.4-0.1-0.8-0.2-1.3-0.3
			c0.2,0.1,0.3,0.2,0.4,0.3c0.2,0,0.4,0.1,0.6,0.1C138.3,23.9,138.9,24.1,139.5,24.4z"/>
		<path class="st0" d="M135.9,24.4c0.8,0.7,1.2,1.7,0.1,2.6c-0.6,0.5-1.7,0.7-2.6,0.5c-1,0.1-2,0.1-2.8,0c-0.2,0-0.5,0-0.8-0.1
			c0.1,0.1,0.3,0.2,0.4,0.3c0,0,0.1,0,0.1,0c1.7,0.5,3.9,0.5,5.6,0.1c0.2,0,0.5-0.1,0.7-0.2c0.2-0.1,0.5-0.3,0.7-0.4
			c0.8-0.7,0.8-1.6,0.4-2.4c-0.4-0.2-0.8-0.3-1.1-0.4C136.3,24.4,136.1,24.4,135.9,24.4z"/>
		<path class="st0" d="M47.3,60.6c-1.5,0.2-2.9,0.6-4.3,1c-1.3,0.4-2.8,1.1-3.5,2.3c-0.9,1.8,1.3,3.3,2.7,3.9
			c1.6,0.6,3.4,0.8,5.1,0.8c0.1,0,0.2,0.1,0.2,0.2c1.8-0.3,3.7-0.3,5.5-0.6c2.6-0.5,6.1-2.4,4.5-5.5C55.6,59.2,50.5,60.1,47.3,60.6z
			 M56.3,64.6c-0.5,1.9-3,2.5-5.2,2.7c-1.7,0.3-3.5,0.3-5.2,0.2c-1.3-0.1-3.1-0.2-4.3-1.1c-0.7-0.2-1.1-0.7-1-1.3
			c0-0.2,0.1-0.4,0.2-0.5c0.3-0.7,1.2-1.2,1.8-1.5C45.1,62,57.7,59.3,56.3,64.6z"/>
		<path class="st0" d="M128.1,54.4c-1.6-0.9-3.5-1.2-5.2-1.4c-2.2-0.2-4.3,0.1-6.4,0.7c-1.7,0.5-3.7,1.4-4.3,3.2
			c-0.7,2.2,2.1,3.1,4.3,3.3l0,0c0,0,0,0,0,0c0.7,0.1,1.3,0.1,1.7,0.1c0.1,0,0.2,0.1,0.2,0.2c1.5,0.1,2.9,0.1,4.4-0.1
			c1.9-0.2,4-0.6,5.7-1.6c1-0.6,1.6-1.5,1.3-2.7C129.7,55.3,128.8,54.8,128.1,54.4z M125.9,58.4c-1.5,0.7-3.5,0.8-5.1,0.9
			c-2,0.1-4.7,0.1-6.2-1.5c-1.6-1.7,1.6-3,2.8-3.3c1.9-0.6,4.1-0.6,6.1-0.3c0.8,0.1,2.2,0.4,2.9,1.2c0.2,0.1,0.3,0.2,0.5,0.3
			C128,56.6,126.9,57.9,125.9,58.4z"/>
		<path class="st0" d="M126.7,56.2c0.1,0.7-0.2,1.2-0.5,1.6C126.7,57.4,127.1,56.9,126.7,56.2C126.7,56.2,126.7,56.2,126.7,56.2z"/>
		<path class="st0" d="M127.5,37.5c-0.5,0.1-1,0.3-1.5,0.5c-0.4,0.2-0.7,0.5-0.9,0.8c-0.6,0.9,0.9,1.2,1.4,1.2c0.5,0,1,0,1.4-0.1
			c-0.4,0-0.8,0-1.1-0.1c-0.7-0.1-1.2-0.8-0.4-1.3c1-0.7,2.7-1.2,3.9-1c0.5,0.1,0.7,0.5,0.7,0.9c0,0.6-0.7,1-1.2,1.2
			c-1.3,0.6-3.3,1-4.6,0.3c-0.8-0.4-0.7-1-0.2-1.6c-0.1,0.1-0.2,0.2-0.3,0.2c-1.5,1.4,1.5,1.9,2.3,1.9c1.4,0,3-0.2,4.1-1
			c0.7-0.5,0.7-1.1,0.2-1.7C130.4,37.1,128.6,37.3,127.5,37.5z"/>
		<path class="st0" d="M66.1,66.8c-0.9,0.1-2,0.3-2.8,0.9c-0.7,0.5-0.1,0.9,0.5,1.1c-0.5-0.4,0-1.2,0.6-1.5c1.1-0.5,2.8-0.7,3.9-0.1
			c1,0.5,0.5,1.3-0.3,1.7c-1.2,0.6-2.9,0.6-4.2,0.4c-1-0.2-1.6-1.1-0.7-1.9c0,0,0.1,0,0.1-0.1c0,0,0,0-0.1,0
			c-0.5,0.3-1.4,0.9-0.9,1.5c0.4,0.4,1,0.6,1.6,0.7c1.5,0.4,3.1,0.2,4.7-0.2c0.5-0.1,1.9-0.6,1.5-1.3C69.6,66.6,67.4,66.7,66.1,66.8
			z"/>
		<path class="st0" d="M129.3,39.1c0.4-0.3-0.1-0.3-0.4-0.4c-0.4-0.1-0.5,0-0.6,0.3c0.2,0,0.5,0,0.7-0.1
			C129.2,38.9,129.3,39.1,129.3,39.1C129.2,39.2,129.3,39.2,129.3,39.1z"/>
		<path class="st0" d="M129.8,26.9c0.4,0.1,0.7,0.1,1.1,0.1c-0.6-0.1-1.1-0.5-1.3-1c-0.2,0.2-0.3,0.5-0.3,0.7
			C129.6,26.9,129.7,26.9,129.8,26.9z"/>
		<path class="st0" d="M129.5,39.5c0,0,0.1,0,0.1,0c0.5-0.2,1.6-1.1,0.6-1.4c-0.5-0.2-1.1,0-1.6,0.1c-0.3,0.1-2.5,0.7-2.2,1.1
			c0.2,0.5,1.6,0.3,2,0.3c0,0,0.1,0,0.1,0c-0.3,0-0.6-0.1-0.9-0.3c-0.1-0.1-0.2-0.2,0-0.3c0.5-0.4,1.4-0.7,2-0.4
			c0.4,0.2,0.5,0.5,0.1,0.9C129.6,39.4,129.6,39.5,129.5,39.5z"/>
		<path class="st0" d="M77.3,62.6c1.6,0.6,3.4,0.7,5.1,0.7c1.4-0.1,3.5-0.3,4.2-1.6c0.3-0.5,0.3-0.9,0.1-1.3c0,0.2,0,0.4-0.2,0.7
			c-0.5,0.9-1.9,1.3-2.9,1.5c-1.1,0.3-2.4,0.5-3.6,0.4c0,0-0.1,0,0-0.1c-1.1,0-2.3-0.2-3-0.9c-0.6-0.6-0.5-1.2,0-1.6
			c0-0.1,0-0.2,0.1-0.3c0.4-1.2,2.5-1.3,3.5-1.4c0.2,0,0.3,0,0.5,0c1.2-0.2,2.5-0.2,3.7,0.1c0,0-0.1,0-0.1,0c-2-0.8-4.7-0.4-6.7,0.4
			c-0.8,0.3-2.3,0.9-2.3,2C75.5,61.9,76.6,62.4,77.3,62.6z"/>
		<path class="st0" d="M79.6,59.6c0.7-0.3,1.4-0.4,2.2-0.5c-0.2,0-0.3,0-0.5,0c-0.9,0.1-1.9,0.4-2.8,0.7c-0.3,0.1-0.8,0.3-1.1,0.6
			c0,0.3,0.1,0.5,0.5,0.8c1.1,0.7,3,0.5,4.2,0.3c0.5-0.1,1.1-0.2,1.6-0.4c0.4-0.1,0.6-0.5,0.5-1c-0.2-0.2-0.5-0.2-0.8-0.3
			c-0.4-0.1-0.8-0.2-1.2-0.2c-0.5,0-1,0.1-1.5,0.2c-0.3,0.1-2,0.4-1.4,0.9c0.5,0.4,1.4,0.2,2,0.1c0.1,0,0.3,0,0.4-0.1
			c0.1,0,0.1,0,0.2-0.1c0.4-0.1,0.4-0.2,0-0.6c-0.2,0-0.3,0-0.5,0.1c0,0,0.1,0,0.1,0c0.2,0,0.2,0.3,0.1,0.4
			c-0.2,0.1-0.3,0.1-0.5,0.1c-0.1,0.1-0.2,0-0.2,0c-0.1,0-0.2-0.1-0.4-0.2c-0.1-0.1-0.1-0.3,0-0.4c0.5-0.6,2.7-0.9,2.3,0.4
			c-0.3,1-2.6,0.8-3.3,0.6C78.2,60.8,78.8,59.9,79.6,59.6z"/>
		<path class="st0" d="M77,60.9L77,60.9c-0.3,1,1.6,1.4,2.2,1.5c1,0.1,1.9,0,2.9-0.2c0.3-0.1,0.8-0.2,1.4-0.5
			c-1.3,0.4-3,0.5-4.3,0.3C78.4,61.8,77.4,61.6,77,60.9z"/>
		<path class="st0" d="M102.1,58.4C102.1,58.4,102.1,58.4,102.1,58.4c0-0.1-0.1-0.1-0.1-0.1c-0.3-0.1-0.6-0.1-0.8-0.1
			c-0.4,0-0.9,0.1-1.3,0.2c-0.4,0.1-0.5,0.3-0.4,0.5c0.5,0,1,0,1.4-0.1c0.4-0.1,0.7-0.2,1.1-0.3C102,58.5,102.1,58.5,102.1,58.4z"/>
		<path class="st0" d="M64,54.5c0.3,0,0.6-0.1,0.9-0.2c-0.2-0.2-0.5-0.2-0.8-0.2C64.1,54.3,64,54.4,64,54.5z"/>
		<path class="st0" d="M86.6,49.5c0-0.1,0.1-0.1,0.2-0.2c-0.3-0.2-0.4-0.6-0.4-1c0-0.2,0.1-0.3,0.1-0.4c-0.6,0.4-1,1-0.1,1.5
			C86.5,49.4,86.5,49.4,86.6,49.5z"/>
		<path class="st0" d="M61.5,56.2c0.2,0.1,0.5,0.2,0.7,0.3c0.1,0,0.1,0,0.2,0c0,0,0.1,0,0.1,0c1.3-0.1,2.7-0.4,3.8-1.1
			c0.5-0.3,0.9-1,0.6-1.6c-0.3-0.6-1.2-0.8-1.8-1c-0.4-0.1-0.9-0.2-1.3-0.2c-1.3,0.5-2.5,1.2-3.6,1.8c0,0-0.1,0.1-0.1,0.1
			c0,0.1-0.1,0.2-0.1,0.3c0,0,0.1,0,0.1,0.1c0.2,0.1,0.3,0.2,0.5,0.2c0.3-0.8,1.4-1.1,2.1-1.3c0.1,0,0.3-0.1,0.5-0.1
			c0.1-0.1,0.3-0.1,0.4-0.1c1-0.4,2.2-0.5,3,0c0.1,0.1,0.1,0.2,0.1,0.3c-0.4,1.1-1.9,1.4-2.9,1.7c-0.8,0.2-1.8,0.3-2.7,0.2
			C61.1,55.8,61.2,56,61.5,56.2z"/>
		<path class="st0" d="M85.6,50.5c-0.5-0.3-0.7-0.8-0.8-1.3c-0.1-0.1-0.2-0.3-0.2-0.4c-0.3-0.9,0.4-1.6,1.2-2.1
			c0.5-0.4,1.2-0.7,1.8-0.8c1.3-0.3,3.4-0.2,4.3,0.7c0.5,0.3,1,0.6,1.2,1.1c0-0.4-0.1-0.8-0.4-1.2C91.8,45.2,90,45,88.8,45
			c-1.4,0-3,0.3-4.2,1.1c-0.1,0.1-0.2,0.1-0.2,0.2c-0.4,0.4-0.8,0.8-1,1.4c-0.1,0.6,0,1.2,0.5,1.7C84.3,49.9,84.9,50.3,85.6,50.5z"
			/>
		<path class="st0" d="M67.5,54.4c0.6-0.8-0.2-1.5-0.8-1.8c-0.3-0.2-0.7-0.3-1-0.4c-0.3,0-0.6,0.1-0.9,0.1c0.9,0.1,1.7,0.4,2.3,1
			c0.4,0.4,0.4,0.9,0.2,1.4C67.4,54.6,67.5,54.5,67.5,54.4z"/>
		<path class="st0" d="M67.8,51.4c-0.7-0.1-1.5-0.1-2.1-0.1c-0.1,0-0.1,0-0.2,0c0,0-0.1,0-0.1,0c-0.4,0.1-0.9,0.2-1.3,0.3
			c0.4,0,0.8,0,1.2,0.1c0.7-0.2,1.5-0.3,2.3-0.4C67.7,51.3,67.7,51.3,67.8,51.4z"/>
		<path class="st0" d="M86.2,50.3c0.1,0,0.1,0.1,0.2,0.1c0-0.1,0-0.2,0-0.3c-0.3-0.1-0.6-0.1-0.8-0.3C85.7,50,85.9,50.2,86.2,50.3z"
			/>
		<path class="st0" d="M70.6,51.3c0,0-0.1-0.1-0.1-0.1c0.1,0.1,0.3,0.2,0.4,0.4c0.2,0.4,0.3,0.8,0.2,1.2c0.3,0.4,0.4,0.9,0.3,1.5
			c-0.1,0.4-0.2,0.7-0.3,1c0.1-0.1,0.3-0.2,0.4-0.4C72.7,53.5,72,52.2,70.6,51.3z"/>
		<path class="st0" d="M58.6,53.9c-0.8,0.6-0.7,1.3-0.3,1.7c0-0.1,0.1-0.1,0.1-0.2c-0.2-0.6,0.1-1.2,0.5-1.8
			C58.7,53.8,58.6,53.9,58.6,53.9z"/>
		<path class="st0" d="M59.4,57c0.5,0.1,1,0.1,1.5,0.1c0,0-0.1,0-0.1,0c-0.7,0-1.3-0.1-1.9-0.3C59,56.8,59.2,56.9,59.4,57z"/>
		<path class="st0" d="M72.1,50.6c-1.8-1.3-4.2-1.4-6.4-1.2c-1.9,0.2-3.7,0.7-5.5,1.3c-1.6,0.5-3.3,1.2-4.6,2.5
			c-2,2,0.7,4.5,2.5,5.4c1.8,0.9,3.9,1.2,5.9,0.8c0.1,0,0.2,0,0.2,0.1c3-1,6.4-1,8.8-3.3C74.8,54.3,74,52,72.1,50.6z M70.4,56.1
			c-1.2,1.3-3.2,2-5.2,2.2c-1.6,0.4-3.4,0.6-5,0.4c-0.1,0-0.1-0.2,0-0.2c0.9,0.1,1.9,0,2.8-0.1c-0.4,0-0.8,0-1.2,0
			c-1.8-0.1-3.7-0.6-5-1.9c-1.4-1.4,0-3,1.3-3.8c2.2-1.4,4.8-2.4,7.4-2.7c2.4-0.3,5.5,0.1,6.8,2.4C73.2,53.9,71.7,55.2,70.4,56.1z"
			/>
		<path class="st0" d="M84.7,59.9c1.2,1.4-1.7,2.4-2.6,2.7c-0.6,0.1-1.2,0.3-1.9,0.3c1.3,0.1,2.8-0.3,4-0.7c0.7-0.2,1.5-0.6,1.9-1.2
			c0.2-0.3,0.2-0.6,0-0.9c-0.7-0.5-1.8-0.8-2.7-0.9C84,59.3,84.4,59.5,84.7,59.9z"/>
		<path class="st0" d="M95.4,44.9c-1.1-1-2.7-1.2-4.1-1.4c-0.5-0.1-1.1-0.1-1.6-0.1c0,0-0.1,0-0.1,0c-2.5,0-4.9,0.4-7,2
			c-1.9,1.5-1.9,3.9-0.4,5.6c2.5,2.9,7,2.8,10.3,1.4C95,51.4,98.3,47.4,95.4,44.9z M93.4,50.2c-0.6,0.5-1.2,0.9-2,1.1
			c-1.7,1.3-4.3,1.2-6.3,0.2c-1.1-0.5-2.1-1.4-2.4-2.7c-0.1-0.4,0-0.8,0.1-1.2c0-0.2,0.1-0.4,0.1-0.5c0.3-0.6,0.8-1.1,1.3-1.4
			c0.1,0,0.1-0.1,0.2-0.1c2.5-1.7,7.2-2.3,9.4,0.1C95.2,47.2,94.8,49,93.4,50.2z"/>
		<path class="st0" d="M62.6,54.4C62.6,54.4,62.6,54.4,62.6,54.4c-0.4,0-0.7,0.1-0.9,0.2c-0.3,0.1-0.5,0.3-0.6,0.6
			c0.4,0.1,0.9,0,1.2,0c0.6,0,1.3-0.1,1.9-0.3c-0.2,0-0.4,0-0.6,0c-0.3,0.1-0.6,0.2-0.9,0.1c-0.1,0-0.2-0.2-0.2-0.3
			C62.5,54.6,62.5,54.5,62.6,54.4z"/>
		<path class="st0" d="M102.4,58.8c-0.1,0.1-0.3,0.2-0.4,0.3c-0.1,0-0.2,0.1-0.3,0.1c0.4-0.1,0.8-0.2,1.2-0.3c0.4-0.1,1-0.3,1.2-0.7
			c0.1-0.3-0.3-0.5-0.8-0.6c-0.3,0-0.6,0-0.7,0c0,0-0.1,0-0.1,0c0.2,0.2,0.3,0.4,0.2,0.6c0,0,0,0,0,0.1
			C102.6,58.5,102.5,58.7,102.4,58.8z"/>
		<path class="st0" d="M65.7,54.3c0.2-0.1,0.3-0.3,0.5-0.4c0,0-0.8-0.1-1-0.1c-0.1,0-0.2,0-0.3,0c0.3,0.1,0.5,0.2,0.6,0.5
			c0,0.1,0,0.1,0,0.2C65.5,54.4,65.6,54.4,65.7,54.3z"/>
		<path class="st0" d="M91.6,44.8c-0.6-0.2-1.3-0.3-2-0.3c1.2,0.1,2.3,0.5,3.1,1.3c0.8,0.7,1.1,2,0.6,3c0,0.1-0.1,0.2-0.2,0.3
			c0,0.2-0.1,0.3-0.2,0.5c-0.2,0.4-0.5,0.8-0.7,1.1c0.5-0.3,1-0.6,1.4-1C95.5,47.8,93.7,45.4,91.6,44.8z"/>
		<path class="st0" d="M98.3,59.4c-0.1-0.1-0.2-0.2-0.2-0.3c-0.2-0.1-0.4-0.3-0.5-0.5c-0.1-0.1,0-0.2,0-0.3c0.1-0.1,0.2-0.2,0.4-0.3
			c-0.9,0.3-1.5,0.7-1.4,1.4c0.1,0.9,3.1,0.5,4.2,0.3c-0.3,0-0.6,0-0.8-0.1C99.3,59.8,98.7,59.7,98.3,59.4z"/>
		<path class="st0" d="M98.7,58.8c0.1,0,0.2,0.1,0.3,0.1c0-0.1,0-0.2,0-0.3C98.8,58.7,98.7,58.7,98.7,58.8z"/>
		<path class="st0" d="M100.6,57.1c-0.5,0-1.1,0.1-1.6,0.1c-0.9,0.1-1.9,0.3-2.6,0.9c-0.6,0.4-0.5,1-0.2,1.4c0-0.1,0-0.2,0-0.4
			c0.3-1.4,2.5-1.7,3.6-1.9C100.1,57.2,100.3,57.2,100.6,57.1z"/>
		<path class="st0" d="M89.4,46.7c0.9,0,2.8,0.4,2.4,1.7c0,0.1,0,0.1-0.1,0.2c0.3-0.5,0.3-1.1-0.1-1.6c-0.8-0.4-1.8-0.7-2.7-0.7
			c-0.6,0-2.1,0.3-3.1,0.8c-0.3,0.3-0.5,0.6-0.6,1c-0.1,0.3-0.1,0.6,0,0.8c0,0,0.1,0.1,0.1,0.1c0.2,0.2,0.4,0.3,0.6,0.4
			c-0.5-0.5-0.5-1.5,0.2-2c0.8-0.6,1.8-0.8,2.9-0.8C89.1,46.7,89.3,46.7,89.4,46.7z"/>
		<path class="st0" d="M87.1,51.2c-1.3-0.1-2.5-0.4-3.2-1.1c0,0-0.1-0.1-0.1-0.1c0.9,1.1,2.5,1.7,3.9,1.8c0.2,0,0.3,0,0.5,0
			c0,0,0,0,0,0c0.7,0,1.4-0.1,2.2-0.3c0.5-0.2,1-0.6,1.5-1c-0.8,0.5-1.7,0.9-2.6,1C88.6,51.6,87.8,51.5,87.1,51.2z"/>
		<path class="st0" d="M88.9,48.9C89,48.9,89,48.9,88.9,48.9c0.1-0.1,0.1-0.1,0.1-0.1c-0.3,0-0.6,0-0.9,0.1c0.1,0,0.2,0.1,0.3,0.1
			C88.6,49,88.8,49,88.9,48.9z"/>
		<path class="st0" d="M87.5,49.2c0.2,0.1,0.4,0.1,0.6,0.2c0,0,0,0,0,0c0,0,0.1,0,0.1,0c-0.2,0-0.4-0.1-0.6-0.2
			C87.6,49.1,87.5,49.2,87.5,49.2z"/>
		<path class="st0" d="M87,49c0.1-0.1,0.2-0.1,0.3-0.2c0,0,0-0.1,0-0.1c0-0.1,0.1-0.2,0.2-0.3c0-0.1,0-0.1,0.1-0.1
			c0,0,0.1,0,0.1-0.1c0.7-0.6,1.9-1.1,2.5-0.4c0.5,0.5,0.4,1,0.1,1.4c0.2-0.1,0.4-0.2,0.6-0.4c0.1-0.3,0.2-0.6-0.1-1
			c-0.4-0.6-1.2-0.7-1.9-0.7c-0.2,0-0.3,0-0.5,0.1c-0.6,0.1-1.6,0.4-1.7,1.2C86.7,48.6,86.8,48.8,87,49z"/>
		<path class="st0" d="M88,48.6c0.4-0.1,0.9-0.2,1.3-0.1C89.2,48.2,88.4,48.3,88,48.6z"/>
		<path class="st0" d="M92.7,48.9c0.1-0.5,0-1-0.3-1.3c0,0.3,0,0.7-0.2,1.2c-0.5,1.3-1.9,2.1-3.4,2.3c0.5,0,0.9-0.2,1.4-0.3
			C91.1,50.5,92.1,49.8,92.7,48.9z"/>
		<path class="st0" d="M89.4,47.9c0,0-0.1,0-0.1,0c0.1,0,0.2,0.1,0.4,0.2c0.1,0,0.1,0.1,0.1,0.2c0,0.1,0,0.1-0.1,0.2
			c0.1,0.1,0.2,0.2,0.1,0.3c-0.1,0.1-0.3,0.2-0.5,0.3c-0.1,0.1-0.2,0.2-0.4,0.3c0.4,0,0.7-0.1,1-0.3C90.5,48.6,90,48,89.4,47.9z"/>
		<path class="st0" d="M89.7,49.9c-0.5,0.1-1,0.2-1.4,0.2c-0.5,0.1-1,0.1-1.6,0c0,0.1,0,0.2,0.1,0.3C87.8,50.6,88.9,50.4,89.7,49.9z
			"/>
		<path class="st0" d="M112,46.6c-0.1,0-0.1,0-0.2,0c-0.1,0-0.2,0-0.3,0.1c0.9,0.1,1.7,0.4,2.1,0.9C113.4,47.1,112.5,46.6,112,46.6z
			"/>
		<path class="st0" d="M105.7,29.8c0.3-0.6,1.1-1.2,1.6-1.5c1.5-0.8,3.3-1.2,5-1.4c-1.3,0-2.6,0.2-3.9,0.5c-0.8,0.3-1.6,0.7-2.2,1.4
			C105.9,29.1,105.8,29.4,105.7,29.8z"/>
		<path class="st0" d="M106.5,26.8c-0.6,0.3-1.1,0.6-1.6,1.1c0.2-0.1,0.5-0.3,0.8-0.4C105.9,27.2,106.2,27,106.5,26.8z"/>
		<path class="st0" d="M106.5,33.7c0.3,0.2,0.7,0.3,1.1,0.4c1.5,0.2,3,0.1,3.8,0c1.6-0.1,3.1-0.6,4.6-1.4c0.2-0.2,0.3-0.5,0.5-0.7
			c0-0.1,0.1-0.2,0.1-0.2c-1.1,1-2.7,1.6-4.1,2c-2,0.5-4.1,0.4-5.8-0.9c-1.5-1.1-1.9-3.1-0.6-4.6c0.1-0.1,0.1-0.1,0.2-0.2
			c-0.3,0.1-0.6,0.2-0.8,0.4c-0.7,1.1-0.6,2.6,0.1,3.9C105.7,32.9,106.1,33.3,106.5,33.7z"/>
		<path class="st0" d="M113.1,25.9c1-0.1,2.1,0,2.9,0.5c0.1,0,0.1,0.1,0.2,0.1c0.1,0,0.2,0.1,0.3,0.1c-1.1-0.7-2.7-0.9-3.8-0.9l0,0
			c-0.4,0-0.8,0.1-1.2,0.1c-0.5,0.1-0.9,0.1-1.4,0.2C111.1,25.9,112.1,25.8,113.1,25.9z"/>
		<path class="st0" d="M117.5,27.7c-0.1,0-0.2-0.1-0.2-0.1c0,0.1,0.1,0.2,0.1,0.3c0.1,0.1,0.2,0.1,0.2,0.2
			C117.6,27.9,117.6,27.8,117.5,27.7z"/>
		<path class="st0" d="M107.6,33c2.2,1.2,5.2,0.5,7.2-0.6c0.8-0.4,1.6-1.1,2.2-1.9c0.2-0.8,0.2-1.6-0.1-2.3
			c-0.2-0.1-0.4-0.2-0.6-0.3c0.2,0.2,0.4,0.5,0.5,0.8c1,2.1-1.4,3.5-3.1,4c-1.9,0.6-4.9,1-6.7-0.2c-0.4-0.2-0.6-0.5-0.7-0.8
			c-0.2,0-0.4-0.1-0.6-0.2C106.3,32,106.9,32.6,107.6,33z"/>
		<path class="st0" d="M105.7,33.8c-0.6-0.4-1.1-1-1.4-1.7c-0.5-1.1-0.4-2.1,0-3c0,0-0.1,0-0.1,0c-0.2,0.1-0.3,0.2-0.5,0.3
			c-0.1,0.1-0.1,0.1-0.1,0.2c-0.1,0.3-0.2,0.6-0.2,0.9c-0.1,0.8,0.1,1.7,0.5,2.4C104.4,33.3,105,33.6,105.7,33.8z"/>
		<path class="st0" d="M116.6,26.1c0,0-0.1,0-0.1,0c0.5,0.2,0.9,0.6,1.2,1c0,0,0.1,0.1,0.1,0.1c0.2,0.1,0.3,0.2,0.5,0.3
			c0.1,0.1,0.3,0.2,0.4,0.3C118.2,27,117.4,26.5,116.6,26.1z"/>
		<path class="st0" d="M71.7,42.8c0.3,0,0.6-0.1,0.8-0.2C72.2,42.5,71.9,42.6,71.7,42.8z"/>
		<path class="st0" d="M85.3,38.7c0.2,0,0.2,0.1,0.2,0.3c3.1,0.4,6.7,0.3,9.4-1.3c0.8-0.5,1.5-1.1,1.8-2c0.4-1-0.3-2.2-0.9-2.9
			c-1-1.2-2.7-1.8-4.1-2.2c-2.4-0.6-5.3-0.3-7.4,1c-1.2,0.8-1.9,2.1-2.1,3.5C81.9,37,83.2,38.8,85.3,38.7z M83.8,33.8
			c1.5-2.6,5.7-2.7,8.2-2.1c1.2,0.3,2.5,0.9,2.9,2.2c0.4,1.1-0.4,2.1-1.2,2.8c-1.8,1.4-5.1,2.2-7.3,1.4c0,0,0,0,0,0
			c-0.2,0-0.3,0-0.5-0.1c-0.9-0.1-1.9-0.4-2.5-1.2C82.9,35.9,83.3,34.6,83.8,33.8z"/>
		<path class="st0" d="M112.7,36.6c2.5-0.4,5.1-1.6,6.5-3.8c0.7-1.1,0.7-2.2,0.3-3.2c-0.5,2.1-2.5,4.3-4,5.2c-2.6,1.6-6.4,2-9.2,0.8
			c-1.2-0.5-2.1-1.4-2.7-2.5c-0.6-0.5-0.9-1.3-0.9-2.2c0-0.1,0-0.1,0-0.2c-0.2,0.4-0.4,0.9-0.4,1.5c-0.1,1.5,1.1,2.6,2.3,3.2
			C107,36.8,110,37,112.7,36.6z"/>
		<path class="st0" d="M69.5,45c-0.3-0.1-0.5-0.3-0.7-0.5c-0.5-0.2-0.8-0.4-0.9-1c0-0.1,0-0.2,0-0.3c-0.3,0.4-0.4,0.9-0.1,1.5
			c0.2,0.4,0.5,0.7,0.9,0.8c0.6,0.1,1.3,0.2,1.9,0.2c0.3,0,0.6,0,0.8,0c0.7-0.1,1.4-0.3,2.1-0.6C72.1,45.5,70.5,45.5,69.5,45z"/>
		<path class="st0" d="M70.5,42.9c0,0-0.1,0.1-0.1,0.1c-0.4,1,2.1,0.4,2.4,0.2c0.4-0.2,0.4-0.4,0.3-0.6
			C72.4,43.3,71.2,43.5,70.5,42.9z"/>
		<path class="st0" d="M85.7,35.9c0.4,0.5,1.3,0.5,2.2,0.4c-0.8-0.1-1.5-0.5-1.2-1.4c0.1-0.4,0.3-0.7,0.6-0.9
			C86.2,34.5,85.1,35.1,85.7,35.9z"/>
		<path class="st0" d="M111.3,38.2c3.9-0.3,8-2,9.8-5.7c0.8-1.8,0.9-3.9-0.1-5.7c-0.7-1.3-1.9-2-3.3-2.3c0.1,0.2,0,0.4-0.2,0.4
			c-5.2-1.5-17.3,0.3-15.6,8C102.8,37.4,107.3,38.5,111.3,38.2z M102.2,30.7c0.3-0.5,0.6-1,1.1-1.4c0,0,0,0,0.1-0.1
			c0.2-0.4,0.4-0.7,0.6-1.1c1-1.3,2.6-2.1,4.3-2.6c1.5-0.7,3.2-0.9,4.8-1c2-0.1,4.3,0.3,5.6,1.8c0.6,0.7,0.9,1.5,0.8,2.4
			c0.6,0.9,0.8,1.9,0.5,3.1c-0.5,1.9-2.4,3.3-4.1,4.2c-3,1.5-6.8,1.5-10,0.5C103.6,35.7,100.8,33.5,102.2,30.7z"/>
		<path class="st0" d="M90.4,35.8c0.8-0.3,1.5-0.7,1.1-1.3c-0.6-1.1-2.7-0.6-3.6-0.2c-0.5,0.2-1.3,0.9-0.6,1.5
			c0.5,0.4,1.5,0.2,2.1,0c0.3-0.1,0.6-0.2,0.9-0.4c0.5-0.4,0.2-0.9-0.4-0.9c-0.3,0-0.6,0.1-1,0.2c0.2,0,0.4,0.1,0.6,0.2
			c0.1,0.1,0.1,0.3,0,0.4c-0.5,0.5-1.2,0.5-1.9,0.2c-0.1-0.1-0.1-0.2-0.1-0.3c0.4-0.8,2.4-1.6,3.1-0.8C91.5,34.8,91,35.4,90.4,35.8z
			"/>
		<path class="st0" d="M88.2,37.6c1.6-0.1,3.1-0.5,4.4-1.4c0.6-0.4,1.2-0.9,1-1.7c-0.1-0.6-0.7-1-1.1-1.2c-1-0.5-2.3-0.5-3.4-0.5
			c-1,0.1-2,0.3-2.9,0.7c-0.6,0.3-1.4,1-1.1,1.8c0-1.2,2.3-1.9,3.1-2.1c1.2-0.3,2.8-0.4,3.9,0.3c1.3,0.9-0.3,2.4-1.2,2.9
			c-1.6,0.9-4,0.8-5.6-0.2c-1.8-1.1-0.3-2.8,1.1-3.4c1.6-0.7,3.5-0.7,5.2-0.4c1.2,0.2,3.2,1.4,2.4,2.9c-1.2,2.3-4.9,2.9-7.3,2.7
			c1.6,0.4,3.6-0.1,5.1-0.6c1.7-0.7,4.1-2.6,2.2-4.4c-1.5-1.4-4.4-1.4-6.3-1c-1.8,0.4-5,2.1-3.8,4.4C84.5,37.8,86.9,37.7,88.2,37.6z
			"/>
		<path class="st0" d="M118.1,28.2c0,0.1,0,0.3,0,0.4c0,0,0,0,0,0.1c0,0.7-0.3,1.3-0.7,1.9c0,0,0,0,0,0.1c-0.1,0.6-0.4,1.1-0.6,1.6
			c0.1,0,0.1-0.1,0.2-0.1c0.2-0.2,0.3-0.3,0.5-0.5C118.3,30.7,119,29.1,118.1,28.2z"/>
		<path class="st1" d="M191,7.8c-1-1.6-3.1-1.9-4.8-1.4c-2.3,0.7-2.7,2.9-3.1,5c0,0.1-0.2,0.2-0.3,0.2c-5.3-1.6-11.2-1.2-16.3,0.8
			c-5.2,2-8.3,6.6-10.9,11.3c0.2,0.1,0.5,0.2,0.7,0.4c0-0.2,0-0.3,0.1-0.5c0-0.1,0.2-0.1,0.2,0.1c0,0.1,0,0.3,0,0.4c0,0,0,0.1,0,0.1
			c0.4,0.2,0.8,0.4,1.1,0.6c0.1-0.3,0.1-0.6,0.2-0.8c-0.1-0.7-0.2-1.3-0.4-2c0-0.2,0.2-0.2,0.2-0.1c0.1,0.4,0.3,0.9,0.4,1.3
			c0-0.1,0.1-0.3,0.1-0.4c-0.1-0.4-0.1-0.7-0.2-1.1c0-0.2,0.2-0.2,0.2-0.1c0.1,0.2,0.1,0.4,0.1,0.6c0-0.1,0.1-0.2,0.1-0.3
			c0-0.4,0-0.7,0-1c0-0.1,0.2-0.1,0.2,0c0,0.2,0.1,0.4,0.1,0.6c0-0.1,0.1-0.1,0.1-0.2c0-0.3,0-0.6-0.1-0.9c0-0.1,0.2-0.2,0.2-0.1
			c0,0.2,0,0.4,0.1,0.5c0-0.1,0.1-0.1,0.1-0.2c0-0.3,0-0.6,0-0.9c0-0.2,0.2-0.2,0.2,0c0,0.2,0,0.3,0,0.5c1.4-2.3,3.5-4.1,5.9-5.4
			c-0.1-0.1-0.2-0.1-0.3-0.2c-0.1-0.1,0-0.3,0.1-0.2c0.1,0.1,0.3,0.2,0.4,0.3c1.6-0.9,3.4-1.5,5.2-2c-0.1-0.1-0.3-0.3-0.5-0.4
			c-0.1-0.1,0-0.2,0.1-0.1c0.2,0.2,0.4,0.3,0.6,0.4l0,0c0.4-0.1,0.9-0.2,1.3-0.3c-0.1-0.1-0.3-0.3-0.4-0.4c0,0,0-0.1,0.1-0.1
			c0.2,0.1,0.4,0.3,0.5,0.4c0,0,0,0,0,0c0.2,0,0.4-0.1,0.6-0.1c-0.2-0.3-0.5-0.4-0.7-0.7c-0.1-0.1,0-0.1,0.1-0.1
			c0.3,0.1,0.7,0.4,0.9,0.7c0,0,0,0,0,0.1c0.2,0,0.3-0.1,0.5-0.1c-0.2-0.2-0.4-0.3-0.6-0.4c-0.1-0.1,0-0.3,0.1-0.2
			c0.3,0.2,0.6,0.4,0.8,0.6c0,0,0,0,0,0c0.2,0,0.3,0,0.5,0c-0.2-0.2-0.4-0.3-0.7-0.5c-0.1-0.1,0-0.2,0.1-0.2
			c0.3,0.1,0.5,0.3,0.7,0.5c0.1,0,0.1,0.1,0,0.2c0.1,0,0.3,0,0.4,0l0,0c-0.2-0.2-0.4-0.4-0.7-0.6c-0.1-0.1,0-0.3,0.2-0.2
			c0.2,0.2,0.5,0.4,0.7,0.6c0.1,0.1,0,0.1,0,0.2c0.2,0,0.4,0,0.6,0c0,0,0,0,0,0c-0.2-0.2-0.4-0.3-0.6-0.5c-0.1-0.1,0-0.2,0.1-0.1
			c0.2,0.1,0.4,0.3,0.6,0.4c0.1,0.1,0.1,0.1,0,0.2c0.4,0,0.9,0,1.3,0c-0.2-0.1-0.3-0.3-0.5-0.4c-0.1-0.1,0-0.3,0.1-0.2
			c0.2,0.2,0.5,0.3,0.7,0.5c0,0,0,0.1,0,0.1c0.2,0,0.4,0,0.6,0c-0.2-0.1-0.3-0.3-0.5-0.4c-0.1-0.1,0.1-0.3,0.2-0.2
			c0.2,0.2,0.4,0.4,0.6,0.6c0,0,0,0.1,0,0.1c0.2,0,0.4,0,0.6,0.1c0,0,0,0,0,0c-0.2-0.2-0.4-0.4-0.7-0.6c-0.1-0.1,0-0.2,0.1-0.2
			c0.3,0.2,0.5,0.4,0.8,0.6c0.1,0.1,0,0.2-0.1,0.2c0.5,0.1,1,0.1,1.5,0.2c-0.1-0.1-0.2-0.2-0.2-0.3c-0.2-0.2-0.3-0.3-0.5-0.5
			c-0.1-0.1,0-0.2,0.1-0.2c0.4,0.3,0.8,0.6,1,1c0,0,0,0,0,0c0.4,0.1,0.8,0.2,1.3,0.3c0.1,0,0.2,0.2,0.2,0.3c-0.4,1.9,0,4,2.3,4
			c2,0,3.9-1.3,5.1-2.7C191.8,12.3,192.2,9.8,191,7.8z M156.7,24c0-0.3,0-0.6-0.1-0.9c0-0.1,0.2-0.1,0.2,0c0,0.3,0.1,0.6,0.1,0.9
			C157,24.2,156.7,24.2,156.7,24z M157.6,24.1c0,0.2-0.3,0.2-0.3,0c0-0.3-0.1-0.7-0.1-1c0-0.2,0.2-0.2,0.3,0
			C157.5,23.4,157.5,23.7,157.6,24.1z M165.7,14.4c-0.1-0.1-0.1-0.1-0.2-0.2c-0.1-0.1,0-0.2,0.1-0.1c0.1,0.1,0.2,0.1,0.3,0.2
			C165.9,14.4,165.8,14.5,165.7,14.4z M166.4,14.1c-0.2-0.1-0.4-0.2-0.6-0.3c-0.1-0.1,0-0.3,0.1-0.2c0.2,0.1,0.4,0.2,0.5,0.3
			C166.6,14,166.5,14.2,166.4,14.1z M166.6,13.8c-0.1-0.1-0.3-0.2-0.4-0.3c-0.1-0.1,0-0.3,0.1-0.2c0.2,0.1,0.3,0.2,0.5,0.3
			C166.9,13.7,166.7,13.9,166.6,13.8z M167.3,13.6c-0.2-0.1-0.4-0.3-0.6-0.4c-0.1-0.1,0-0.2,0.1-0.2c0.2,0.1,0.4,0.2,0.6,0.4
			C167.5,13.5,167.4,13.6,167.3,13.6z M167.8,13.4c-0.1-0.1-0.2-0.2-0.3-0.3c-0.1-0.1,0-0.3,0.1-0.2c0.1,0.1,0.3,0.2,0.4,0.3
			C168.1,13.3,167.9,13.5,167.8,13.4z M168.3,13.2c-0.2-0.1-0.3-0.3-0.5-0.4c-0.1,0,0-0.1,0.1-0.1c0.2,0.1,0.4,0.2,0.5,0.4
			C168.4,13.1,168.3,13.2,168.3,13.2z M169,13.1c-0.2-0.1-0.4-0.2-0.5-0.4c-0.1-0.1,0-0.3,0.1-0.2c0.2,0.1,0.4,0.2,0.5,0.4
			C169.2,13,169.1,13.1,169,13.1z M169.5,12.9c-0.1-0.2-0.3-0.3-0.5-0.5c0,0,0-0.1,0,0c0.2,0.1,0.4,0.2,0.6,0.4
			C169.7,12.9,169.6,13,169.5,12.9z M169.9,12.6c-0.1-0.1-0.2-0.2-0.3-0.2c-0.1-0.1,0-0.2,0.1-0.2c0.1,0.1,0.2,0.2,0.3,0.2
			C170.2,12.5,170.1,12.7,169.9,12.6z M171.4,12.4c-0.2-0.2-0.3-0.4-0.5-0.5c-0.1-0.1,0-0.2,0.1-0.1c0.2,0.2,0.4,0.3,0.6,0.5
			C171.6,12.3,171.4,12.4,171.4,12.4z M176.8,11.7c-0.1-0.1-0.2-0.3-0.4-0.4c-0.1-0.1,0-0.2,0.1-0.2c0.1,0.1,0.3,0.2,0.4,0.4
			C176.9,11.6,176.8,11.7,176.8,11.7z M183.7,11.2c0.2,0,0.2,0.2,0,0.2C183.5,11.4,183.5,11.2,183.7,11.2z M183.3,13.8
			C183.3,13.8,183.3,13.8,183.3,13.8C183.3,13.8,183.2,13.8,183.3,13.8C183.2,13.8,183.2,13.8,183.3,13.8
			C183.2,13.8,183.2,13.9,183.3,13.8c-0.1,0.2-0.2,0.1-0.2,0c0,0,0,0,0,0c0-0.1,0-0.1,0.1-0.1C183.2,13.6,183.3,13.7,183.3,13.8
			L183.3,13.8z M183.7,14.8c-0.2,0-0.2-0.3,0-0.3C183.9,14.6,183.9,14.8,183.7,14.8z M183.8,13.2c0,0.1-0.1,0.1-0.1,0.1
			c-0.1,0.1-0.2,0-0.2-0.1c0,0,0-0.1,0-0.1C183.7,12.9,183.9,13,183.8,13.2z M183.8,10.3C183.8,10.3,183.8,10.2,183.8,10.3
			c0.1-0.2,0.3-0.2,0.3,0l0,0C184.2,10.5,183.8,10.5,183.8,10.3z M184.2,14C184.2,14,184.2,14,184.2,14C184.2,14,184.2,14,184.2,14
			c0,0.1,0,0.1,0,0.1l0,0c-0.1,0.1-0.2,0.1-0.2-0.1c0-0.1,0-0.1,0.1-0.2C184.1,13.7,184.3,13.8,184.2,14z M184.2,12.1
			C184.2,12.1,184.2,12,184.2,12.1c-0.1-0.1,0.1-0.2,0.1-0.1c0,0,0,0.1,0,0.1C184.3,12.2,184.2,12.2,184.2,12.1z M184.4,15.8
			c-0.2,0-0.2-0.2,0-0.2S184.6,15.8,184.4,15.8z M184.8,11.9C184.8,11.9,184.8,11.9,184.8,11.9c0-0.1,0.1-0.2,0.1-0.1
			c0,0.1,0,0.1,0,0.2C184.9,12.1,184.8,12,184.8,11.9z M184.8,13.9c0-0.1,0-0.3,0-0.4c0-0.1,0.1-0.1,0.1,0c0,0.1,0,0.3,0,0.4
			C185,14,184.8,14,184.8,13.9z M185.7,13.4c0-0.1,0.2-0.2,0.2-0.1c0.1,0.2,0,0.3-0.1,0.4c-0.1,0.1-0.2-0.1-0.1-0.1
			C185.7,13.5,185.8,13.5,185.7,13.4z M185.5,13c0.1,0.1,0.1,0.2,0.2,0.2c0.1,0.1-0.1,0.3-0.2,0.2c-0.1-0.1-0.1-0.2-0.2-0.3
			C185.1,13,185.4,12.8,185.5,13z M185.6,14.9c0,0.1-0.2,0.1-0.2,0c0-0.1,0-0.1-0.1-0.2c0-0.2,0.3-0.3,0.3-0.1
			C185.6,14.8,185.6,14.8,185.6,14.9z M185.8,16.5c-0.1-0.1-0.1-0.3-0.2-0.4c-0.1-0.2,0.2-0.3,0.3-0.1c0.1,0.1,0.1,0.3,0.2,0.4
			C186.1,16.6,185.9,16.6,185.8,16.5z M186.1,12.2c-0.1,0.1-0.2,0-0.2-0.1c0,0,0,0,0,0c0,0,0-0.1,0.1-0.1
			C186.2,11.9,186.3,12.1,186.1,12.2C186.2,12.2,186.2,12.2,186.1,12.2z M186.4,13.6c0.2,0,0.2,0.3,0,0.3
			C186.2,13.9,186.2,13.6,186.4,13.6z M186.3,15.3C186.3,15.3,186.3,15.2,186.3,15.3c-0.1-0.3,0.2-0.3,0.3-0.2c0,0,0,0.1,0,0.1
			C186.6,15.4,186.4,15.5,186.3,15.3z M186.8,13.7c0.1,0,0.1,0.1,0,0.1S186.7,13.7,186.8,13.7z M186.9,15
			C186.9,15,186.8,15,186.9,15c-0.2-0.3,0.2-0.5,0.2-0.2c0,0,0,0,0,0.1C187.1,15,187,15.1,186.9,15z M187,13c0-0.1,0-0.1,0.1-0.2
			c0.1-0.2,0.3,0,0.2,0.1c0,0.1-0.1,0.1-0.1,0.2C187.2,13.2,187,13.2,187,13z M187.4,15.9c-0.2,0-0.2-0.3,0-0.3
			S187.6,15.9,187.4,15.9z M187.5,14.7c0,0,0-0.1,0-0.1c0-0.2,0.3-0.2,0.3,0l0,0C187.9,14.7,187.6,14.9,187.5,14.7z M188.2,12.3
			c0,0,0-0.1,0-0.1c0-0.2,0.3-0.1,0.2,0.1c0,0.1,0,0.1-0.1,0.2C188.3,12.5,188.2,12.4,188.2,12.3z M188.4,13.9
			C188.4,13.8,188.4,13.8,188.4,13.9c-0.2-0.1-0.1-0.4,0.1-0.4c0.2,0,0.2,0.2,0.2,0.3C188.7,14,188.5,14.1,188.4,13.9z M189,14.1
			c0,0-0.1-0.1-0.1-0.1c-0.1-0.2,0.2-0.3,0.3-0.1c0,0,0,0.1,0,0.1C189.3,14.1,189.1,14.2,189,14.1z M189.3,11.8
			C189.3,11.7,189.3,11.7,189.3,11.8c-0.1-0.3,0.2-0.4,0.3-0.2c0,0.1,0,0.1,0,0.2C189.7,12,189.3,12,189.3,11.8z M189.8,12.9
			c-0.2,0-0.2-0.3,0-0.3C190,12.6,190,12.9,189.8,12.9z M190.2,12.4C190.2,12.3,190.2,12.3,190.2,12.4c-0.1,0-0.1-0.1,0-0.2
			c0,0,0,0,0,0C190.4,12.1,190.4,12.5,190.2,12.4z M190.7,12.6c0,0.1-0.1,0.1-0.1,0.2c0,0.1-0.2,0-0.2-0.1c0-0.1,0.1-0.2,0.1-0.2
			C190.6,12.4,190.7,12.5,190.7,12.6z M191.2,11.5C191.2,11.5,191.2,11.4,191.2,11.5C191.3,11.4,191.3,11.5,191.2,11.5z"/>
		<path class="st0" d="M111.7,34.7c-1.1,0.1-2.3,0.2-3.5,0c0.9,0.4,1.9,0.5,2.9,0.5c1.4,0,2.7-0.5,3.7-1.3
			C113.8,34.3,112.7,34.6,111.7,34.7z"/>
		<path class="st0" d="M117.3,32.6c0.1-0.1,0.2-0.2,0.3-0.3c-0.3,0.3-0.7,0.5-1.1,0.8c-0.1,0.1-0.2,0.2-0.3,0.2
			c-0.9,1.1-2.2,1.8-3.6,2.2c0.4-0.1,0.8-0.2,1.2-0.4C115.2,34.6,116.3,33.8,117.3,32.6z"/>
		<path class="st0" d="M109.1,35.5c-0.8-0.2-1.6-0.5-2.3-1c-0.8-0.1-1.7-0.4-2.4-0.7c0.2,0.3,0.5,0.5,0.8,0.8c2,1.5,4.8,1.5,7.2,1
			C111.4,35.7,110.2,35.7,109.1,35.5z"/>
		<path class="st0" d="M112.8,25.2c0.3,0,0.5,0,0.8,0c1.6,0,3.4,0.3,4.7,1.4c0.3,0.2,0.5,0.5,0.6,0.7c-0.9-2-3.8-2.3-5.7-2.3
			c-0.9,0-1.9,0.1-2.9,0.3C111.1,25.1,112,25.1,112.8,25.2z"/>
		<path class="st0" d="M60.5,55.6c-0.2-0.1-0.4-0.1-0.6-0.2c0,0.2,0.1,0.4,0.3,0.6c0.2,0.2,0.5,0.4,0.8,0.5
			C60.7,56.2,60.5,55.9,60.5,55.6z"/>
		<path class="st0" d="M108.3,32.4c0.1,0,0.2,0.1,0.4,0.1c-0.5-0.1-1-0.5-1.2-1c-0.1,0-0.3,0-0.4,0.1
			C107.3,31.9,107.8,32.2,108.3,32.4z"/>
		<path class="st0" d="M59.8,56.2c0,0-0.1-0.1-0.1-0.1c-0.2-0.4-0.3-0.7-0.3-1c-0.1,0.1-0.2,0.2-0.3,0.4c0.1,0.3,0.2,0.5,0.4,0.6
			C59.6,56.1,59.7,56.1,59.8,56.2z"/>
		<path class="st0" d="M112.8,30.2c0,0,0.7-0.5,0.6-0.6c-0.1,0-0.1-0.1-0.2-0.1c0,0.1,0,0.1-0.1,0.2c-0.5,0.5-1.2,0.8-2,0.9
			C111.7,30.6,112.3,30.5,112.8,30.2z"/>
		<path class="st0" d="M105.9,30.6c0,0.3,0.2,0.4,0.5,0.4c0-1.1,1.4-2.4,2.3-2.8c1.1-0.5,2.4-0.8,3.6-0.9c0.4-0.1,0.9-0.1,1.3,0
			c0.9,0.1,2,0.4,2.1,1.4c0.2,1.3-1,2-2,2.5c-1.4,0.7-3.1,1.3-4.7,1.1c-0.1,0-0.1,0-0.2,0c2.2,0.4,5,0,6.8-1.3
			c1.1-0.7,1.3-1.9,0.4-3c-0.4-0.5-0.8-0.8-1.4-1c-0.2,0-0.5,0-0.7,0c-1.6,0-3.1,0.3-4.6,0.7C108.3,28.3,105.7,29.1,105.9,30.6z"/>
		<path class="st0" d="M114.9,29.6c0.5-0.7-0.1-1.5-0.8-1.7c-0.8-0.3-1.7-0.1-2.5,0.1c-1,0.2-2.5,0.8-3.2,1.7c0.7-0.6,1.8-0.9,2.9-1
			c0.5-0.1,1.1-0.1,1.5,0.2c0.4,0.1,0.8,0.3,1.1,0.5c0.1,0.1,0.1,0.2,0.1,0.3c-0.6,1.6-3.2,1.8-4.5,1c-0.2,0.1-0.5,0.2-0.7,0.3
			c0.6,0.1,1.3,0.2,1.4,0.2C111.6,31.3,114,31,114.9,29.6z"/>
		<path class="st0" d="M107.1,30.4c-0.1,0.2-0.2,0.4-0.2,0.6c0.1,0,0.3-0.1,0.5-0.1c0-0.1,0-0.2,0-0.4c0.2-0.7,0.6-1.3,1.2-1.7
			C108,29.2,107.4,29.7,107.1,30.4z"/>
		<path class="st0" d="M111.3,29.9c-0.3,0.1-0.6,0.2-0.9,0.3c0.2,0,0.3,0,0.5,0c0.2,0,2-0.4,1.6-0.8c0,0,0,0,0,0
			c-0.5-0.1-1-0.1-1.4-0.1c0,0,0,0-0.1,0c0.1,0,0.2,0.1,0.4,0.2C111.6,29.6,111.6,29.8,111.3,29.9z"/>
		<path class="st0" d="M115.1,26.8c0.1,0,0.3,0,0.4,0c0.2,0,0.3,0,0.5,0c-0.1,0-0.1-0.1-0.2-0.1c-0.7-0.2-1.4-0.3-2.1-0.4
			C114.1,26.4,114.6,26.6,115.1,26.8C115.1,26.8,115.1,26.8,115.1,26.8z"/>
		<path class="st0" d="M112.2,31.6c0.2-0.1,0.4-0.1,0.6-0.2c-0.4,0.1-0.9,0.2-1.3,0.2c-1,0.1-2.5,0.2-3.5-0.3
			c-0.1,0-0.1,0.1-0.2,0.1C108.3,32.7,111.4,31.9,112.2,31.6z"/>
		<path class="st0" d="M108.1,30.7C108.1,30.7,108.1,30.7,108.1,30.7c0.4-0.1,0.8-0.3,1.2-0.4c-0.1-0.1-0.2-0.1-0.3-0.2
			c-0.1-0.1-0.1-0.2,0-0.2C108.6,30.1,108.3,30.3,108.1,30.7z"/>
		<path class="st0" d="M130.9,23.8c-0.9,0.3-1.7,0.6-2.3,1.2c-0.1,0.2-0.2,0.5-0.2,0.7c0,0,0,0,0,0c0.4-0.8,1.7-1.2,2.9-1.4
			c0.6-0.3,1.4-0.4,2-0.4C132.4,23.7,131.6,23.7,130.9,23.8z"/>
		<path class="st0" d="M136.7,22c0.4,0.1,0.9,0.2,1.5,0.3c-0.6-0.2-1.1-0.3-1.6-0.5c-1.6-0.4-3.3-0.5-4.9-0.4
			c-1.8,0.1-3.8,0.6-5.3,1.7c1.1-0.6,2.5-1,3.5-1.2C132.1,21.5,134.4,21.7,136.7,22z"/>
		<path class="st0" d="M140.4,26.2c0-0.1-0.1-0.3-0.1-0.4c-0.3-0.6-1-1-1.7-1.2c-0.3-0.1-0.5-0.2-0.8-0.2c0.9,0.6,1.6,1.6,1.5,2.7
			c0,0.1,0,0.2,0,0.3c0.3-0.2,0.6-0.4,0.8-0.7C140.2,26.4,140.3,26.3,140.4,26.2z"/>
		<path class="st0" d="M125.8,27.3c-1.3-1.7,0.6-3,2-3.4c0.1,0,0.3-0.1,0.4-0.1c1.1-0.7,2.6-1.1,3.6-1.3c1.6-0.2,4.5-0.1,6.6,0.8
			c0.6,0.2,1.3,0.5,1.8,0.8c-0.3-0.4-0.6-0.7-1-0.9c-0.9-0.5-2.1-0.7-3.1-0.9c-2.7-0.4-5.5-0.4-8,0.5c-1.3,0.4-3,1.3-3.3,2.8
			c0,0.4,0,0.8,0.1,1.2c0.3,0.7,1.1,1.1,1.9,1.4C126.5,28,126.1,27.7,125.8,27.3z"/>
		<path class="st0" d="M140.4,23.5c0.3,0.3,0.5,0.6,0.6,0.9c0,0.1,0.1,0.2,0.1,0.4c0.4,0.4,0.7,0.8,0.8,1.1
			c-0.1-0.4-0.2-0.9-0.5-1.3C141.2,24.1,140.8,23.8,140.4,23.5z"/>
		<path class="st0" d="M140.1,27.2c-0.4,0.3-0.8,0.6-1.2,0.8c0,0.1-0.1,0.1-0.1,0.2c0.2-0.1,0.5-0.3,0.7-0.4
			C139.7,27.6,139.9,27.4,140.1,27.2z"/>
		<path class="st0" d="M141.1,25.6c0.2,0.4,0.3,0.9,0.2,1.5c0,0,0-0.1,0.1-0.1c0.4-0.6,0.2-1.2-0.3-1.7
			C141.1,25.5,141.1,25.5,141.1,25.6z"/>
		<path class="st0" d="M138.2,29.6c-1.9,0.7-4.1,0.7-6.1,0.4c-0.5,0-1-0.1-1.5-0.2c-0.4-0.1-0.7-0.2-1.1-0.3c-0.7-0.1-1.3-0.3-2-0.4
			c-0.7-0.2-1.3-0.5-1.9-0.8c0.2,0.3,0.5,0.5,0.8,0.8c1.6,1.2,3.9,1.4,5.9,1.5c1.6,0.1,3.3-0.1,4.9-0.5c0.8-0.2,1.6-0.5,2.3-0.9
			c-0.4,0.2-0.8,0.3-1.2,0.4C138.3,29.5,138.3,29.5,138.2,29.6z"/>
		<path class="st0" d="M138,29c0.9-0.2,1.8-0.6,2.6-1.1c0.2-0.3,0.3-0.7,0.3-1.2c0,0,0,0.1,0,0.1C140.6,27.9,139.2,28.6,138,29z"/>
		<path class="st0" d="M138.8,26.3c-0.1,0.4-0.4,0.9-0.8,1.2c-0.4,0.3-0.9,0.5-1.5,0.7c0,0,0,0-0.1,0c-0.3,0.1-0.7,0.2-1,0.3
			c1.1-0.1,2.1-0.4,3-0.8C138.8,27.3,138.9,26.8,138.8,26.3z"/>
		<path class="st0" d="M132.1,25.3c0.1-0.1,0.3-0.2,0.5-0.2c-0.1,0-0.3,0-0.4,0C132.1,25.1,132.1,25.2,132.1,25.3z"/>
		<path class="st0" d="M132.2,25.7c0,0,0.1,0.1,0.1,0.1c0.1-0.1,0.2-0.3,0.3-0.4c-0.1,0-0.2,0.1-0.3,0.1
			C132.3,25.6,132.3,25.6,132.2,25.7z"/>
		<path class="st0" d="M135.7,26.1c0.1-0.3,0-0.5-0.3-0.6c0,0,0,0.1,0,0.1c0.2,0.2,0.2,0.5,0,0.9C135.5,26.4,135.6,26.3,135.7,26.1z
			"/>
		<path class="st0" d="M131.6,25.1c-0.5,0.1-1,0.3-1.4,0.5c0,0-0.1,0-0.1,0.1c0,0.2,0.1,0.5,0.5,0.7c0.5,0.3,1.1,0.3,1.8,0.2
			c0-0.1-0.1-0.2-0.1-0.2c0,0-0.1,0-0.1-0.1c-0.2-0.1-0.3-0.2-0.3-0.4C131.6,25.8,131.5,25.5,131.6,25.1
			C131.6,25.2,131.6,25.2,131.6,25.1z"/>
		<path class="st0" d="M135.9,29.1c0.3-0.1,0.6-0.2,0.9-0.3c-1.3,0.3-2.8,0.4-4.1,0.2c-0.7,0-1.4,0-2.1,0c-0.4,0-0.8-0.1-1.3-0.2
			c0.9,0.4,2,0.5,2.8,0.5C133.4,29.4,134.7,29.3,135.9,29.1z"/>
		<path class="st0" d="M129.9,25.1c-0.4,0.1-0.7,0.3-1,0.6c-0.5,0.4-0.2,0.7,0.1,1c0-0.3,0.2-0.7,0.5-1c0-0.1,0.1-0.1,0.2-0.2
			C129.7,25.3,129.8,25.2,129.9,25.1z"/>
		<path class="st0" d="M132.8,26c0,0,0.1,0,0.1,0c0.3,0,0.7,0,1-0.1c0.7-0.2,0.3-0.5-0.1-0.7c-0.1,0-0.1,0-0.2,0c0,0-0.1,0-0.1,0
			C133.3,25.4,133,25.7,132.8,26z"/>
		<path class="st0" d="M135.2,24.4c-0.1-0.1-0.2-0.1-0.3-0.2c-0.3,0-0.6,0-0.9,0c-0.2,0-0.3,0-0.5,0.1c0.6,0.1,1.3,0.3,1.6,0.6
			c0.6,0.3,1.2,0.8,0.9,1.4C136.6,25.7,135.7,24.7,135.2,24.4z"/>
		<path class="st0" d="M45.6,64.7c0.4-0.7,1.6-1,2.2-1.2c-0.5,0.1-0.9,0.2-1.3,0.4C46.2,64,45.6,64.3,45.6,64.7z"/>
		<path class="st0" d="M67.5,45.2c-0.2-0.2-0.3-0.5-0.4-0.8c-0.3-1.2,0.9-2.2,1.9-2.8c0.5-0.4,1.1-0.7,1.7-0.9
			c0.9-0.4,1.9-0.7,2.9-0.7c0.8,0,2,0,2.9,0.3c-0.4-0.3-1-0.6-1.4-0.8c-1.4-0.5-3.1-0.4-4.5,0c-1.7,0.4-6.1,2.8-4,5.1
			C66.8,44.9,67.1,45,67.5,45.2z"/>
		<path class="st0" d="M44.9,66.2c-0.7-0.3-1.2-0.7-0.7-1.5c0.3-0.6,0.8-1,1.3-1.3c-0.2,0-0.4,0.1-0.5,0.1c-1.2,0.2-2.5,0.5-3.5,1.3
			c-0.1,0-0.1,0.1-0.1,0.1c-0.1,0.4,0.1,0.7,0.5,1c0.7,0.2,1.7,0.3,2,0.3C44.2,66.2,44.5,66.2,44.9,66.2z"/>
		<path class="st0" d="M68.8,47c0.2,0,0.2,0.2,0.2,0.3c3.3,0.1,6.8-0.1,9.3-2.4c2.8-2.6-1.2-5.1-3.4-5.9c-2.5-0.9-5.2-0.2-7.5,1
			c-1.4,0.7-2.5,1.8-2.6,3.5C64.8,45.5,66.9,46.9,68.8,47z M66.3,41.6c1.2-1.7,3.5-2.5,5.4-2.7c1.9-0.2,5.9,0.4,6.1,2.7
			c0,0.1,0.1,0.2,0.1,0.4c0.2,1.6-1.2,2.7-2.7,3.4c-0.2,0.1-0.4,0.3-0.6,0.4c-1.6,0.9-3.5,1.3-5.3,1.2c-0.1,0-0.1-0.2,0-0.2
			c1.3,0,2.8-0.2,4.1-0.7c-0.7,0.2-1.5,0.3-2.3,0.3c-0.3,0-0.6,0.1-0.8,0.1c-0.7,0-1.3-0.1-1.9-0.4c-0.5-0.1-1-0.3-1.4-0.5
			C65.3,44.6,65.3,42.9,66.3,41.6z"/>
		<path class="st0" d="M52.1,65.4c-0.4,0.4-1.1,0.6-1.7,0.8c1.1-0.1,2.3-0.3,3.3-0.7c1-0.5,1.4-1.5,0.3-2.1
			c-0.1-0.1-0.2-0.1-0.3-0.1c0.3,0.2,0.3,0.6,0,1.1C53.3,64.9,52.7,65.2,52.1,65.4z"/>
		<path class="st0" d="M50.4,64.2c-0.8-0.2-1.8,0.1-2.6,0.3c-0.3,0.1-1.1,0.4-1.5,0.8c0.3,0.1,0.5,0.1,0.8,0.1c0.3,0,0.6,0,0.8,0
			c0.6-0.1,1.1-0.2,1.6-0.3C50.1,65,51.7,64.4,50.4,64.2z"/>
		<path class="st0" d="M68.6,43.5c0,0.2,0.1,0.4,0.2,0.5c0.4,0.2,0.9,0.2,1.1,0.2c1.2,0,4.7-0.3,4.9-1.9c0-0.2,0-0.3-0.2-0.4
			c-0.3-0.1-0.6-0.2-0.9-0.2c-0.3,0-0.7,0.1-1.1,0.2c0.4,0,0.7,0.2,0.9,0.4c0.7,1.2-1.2,1.7-2,1.8c-1,0.1-2.1-0.5-1.3-1.6
			c0.1-0.1,0.2-0.2,0.3-0.3c-0.1,0-0.1,0-0.2,0c-0.6,0.2-1.3,0.3-1.8,0.7C68.5,43.2,68.5,43.3,68.6,43.5z"/>
		<path class="st0" d="M75.3,42.4c0,0.2-0.1,0.4-0.3,0.7c-1,1.1-2.8,1.4-4.2,1.6c-0.2,0-0.5,0-0.8,0c0.6,0.2,1.3,0.2,1.8,0.2
			c0.7,0,1.3-0.2,1.9-0.4C74.4,44.2,75.8,43.3,75.3,42.4z"/>
		<path class="st0" d="M76.5,41.5c0.7,1.2-0.3,2.4-1.2,3.1c-0.2,0.1-0.3,0.2-0.5,0.4c0.4-0.2,0.9-0.5,1.4-0.8c0.4-0.4,0.7-0.8,1-1.2
			c0.2-0.4,0.3-0.7,0.3-1c-0.1-0.3-0.2-0.6-0.5-0.9c-0.6-0.6-1.6-0.7-2.5-0.7C75.3,40.5,76.1,40.8,76.5,41.5z"/>
		<path class="st0" d="M46.3,65.9c0,0.1,0.1,0.1,0.2,0.2c0.1,0,0.2,0.1,0.2,0.1c0.6-0.1,1.1-0.1,1.7-0.2c-0.3,0-0.6,0-0.9,0
			C47.1,65.9,46.6,65.9,46.3,65.9z"/>
		<path class="st0" d="M74,41.3c0.2,0,0.4,0.1,0.5,0.1c1.3,0.3,1.5,1.5,0.8,2.5c0.1-0.1,0.2-0.2,0.3-0.3c0.6-0.6,0.7-1.7,0.1-2.3
			c-0.6-0.6-1.7-0.6-2.5-0.6c-0.6,0-1.7,0.1-2.6,0.4c-0.6,0.3-1.2,0.6-1.7,1c0,0,0,0.1-0.1,0.1c0.4-0.2,0.9-0.3,1.2-0.4
			c0.8-0.2,1.7-0.4,2.6-0.5C73.1,41.3,73.6,41.2,74,41.3z"/>
		<path class="st0" d="M140.7,22c-3.9-2.2-8.9-1.8-13-0.4c-2.3,0.8-5.2,2.4-4.5,5.4c0.6,2.4,3.1,3.9,5.4,4.4
			c1.9,0.4,3.9,0.5,5.9,0.6c1.6,0.1,4.1,0.2,5.4-1c0.1-0.1,0.2,0,0.1,0.1c-0.1,0.1-0.1,0.1-0.2,0.1c1.8-0.7,3.3-2,3.7-3.9
			C144.1,25,142.5,23,140.7,22z M142,27.8c-1.1,3.1-5.7,3.5-8.5,3.4c-0.1,0-0.1-0.1,0-0.1c2.1,0,4.3-0.3,6.1-1.3
			c1.2-0.7,2.1-1.8,2.3-3c-0.1,0.4-0.4,0.8-0.8,1.2c-1,2.4-5.2,2.8-7.3,2.9c-3,0.2-7.6-0.2-9.1-3.3c-1.6-3.2,1.5-5.4,4.2-6.2
			c2.9-0.8,6.1-0.6,9,0.4C140.5,22.7,143.1,24.7,142,27.8z"/>
		<path class="st0" d="M52.1,66.4c-1.5,0.3-3,0.4-4.5,0.3c-0.2,0-0.4,0-0.7-0.1c-0.1,0-0.2,0-0.2,0c-1.1,0.1-2.2,0.2-3.3,0.2
			c1.1,0.3,2.4,0.3,3.6,0.4c1.5,0.1,3,0,4.4-0.4c0.5-0.1,1.4-0.4,2.2-0.8C53.1,66.2,52.5,66.3,52.1,66.4z"/>
		<path class="st0" d="M45,64.6c0.1-0.2,0.2-0.4,0.3-0.5c-0.1,0.1-0.2,0.1-0.3,0.2c-1.2,1-0.1,1.5,0.8,1.7c-0.1-0.1-0.1-0.3-0.1-0.4
			C45.3,65.4,44.9,65,45,64.6z"/>
		<path class="st0" d="M166.7,33.2c-2.4-3.3-5.5-6-9-8c0,0-0.1,0-0.1-0.1c-0.5-0.3-1.1-0.6-1.6-0.9c-0.2-0.1-0.4-0.2-0.6-0.3
			c0,0,0,0,0,0c0,0,0,0,0,0c0.2,0.4,0.4,0.6,0.8,0.9c0.4,0.3,0.9,0.4,1.4,0.4c0.1,0,0.1,0.2,0,0.2c-0.8,0.1-2.2-0.3-2.5-1.2
			c-0.2,0-0.3-0.2-0.2-0.4c0-0.1,0.1-0.1,0.1-0.2c-8.8-4.2-19.1-4.9-28.7-4.7c-11.8,0.3-23.5,2.7-34.6,6.9
			c-11.2,4.2-21.7,10.3-31.1,17.7C54,48.8,48.4,55.4,40.6,58.6c-3.3,1.4-7.4,2.1-10.3-0.5c-1.5-1.3-2.3-3.2-3-5
			c-0.9-1.9-1.8-3.8-3.3-5.3c-5.6-5.7-17.6-7.7-22,0.4C0,52.2,0,56.5,2.3,60.2c2.1,3.4,5.7,5.8,9.2,7.5c0.1,0.1,0.2,0.3,0.1,0.4
			c-2.9,2.7-6.5,5.3-6.7,9.5c-0.1,2.5,0.7,5.3,1.9,7.5c1.1,2.2,2.9,4.1,5,5.4c4.5,2.8,9.9,2.6,14.4,0.1c1.8-1,3.4-2.3,5.4-3
			c2.4-0.9,5.1-0.7,7.7-0.5c12.2,1.3,23.4,7.1,35,10.8c12.3,3.9,25.7,4.8,38.6,4.7c6.6-0.1,13.1-0.5,19.7-1.1
			c3.2-0.3,6.5-0.7,9.7-1.1c3-0.4,6-0.7,8.8-1.8c8.1-3.2,14.7-11.2,16.4-19.7c0.2-1.1,0.5-3-0.8-3.7c-0.1,0-0.1-0.1-0.1-0.2
			c-0.3,0.4-0.6,0.9-0.9,1.3c-0.1,0.1-0.3,0-0.2-0.1c0,0,0.1-0.1,0.1-0.1c-3.5,2.4-7.9,2.9-12,3.1c-4.7,0.2-9.4-0.4-14.2-0.4
			c-0.3,0-0.3-0.5,0-0.5c4.4,0,8.8,0.5,13.2,0.5c4.5,0,9.5-0.5,13.3-3.3c0,0,0,0,0,0c2.7-3.9,4.4-8.5,5.4-13.1
			c1.2-5.1,1.5-10.5,0.7-15.7C171.4,41.9,169.5,37.2,166.7,33.2z M153.8,23.9c0.2,1.8,3,2.3,4.4,2.1c0.1,0,0.1,0.1,0,0.2
			c-1.6,0.4-4.7-0.3-4.8-2.3C153.4,23.6,153.7,23.6,153.8,23.9z M152.5,23.3c0.5,2.6,3.9,4.7,6.4,3.9c0.1,0,0.2,0.1,0.1,0.2
			c-1.4,0.6-2.9,0.1-4.2-0.6c-1.4-0.7-2.4-1.8-2.7-3.4C152,23.2,152.4,23.1,152.5,23.3z M151.3,23.3c0.9,1.7,1.7,3.3,3.4,4.3
			c1.5,0.9,3.5,1.2,5.1,0.2c0.1-0.1,0.3,0.1,0.2,0.2c-1.4,1.1-3.4,0.8-4.9,0.2c-2.1-0.9-3.2-2.8-4.2-4.7
			C150.7,23.3,151.1,23.1,151.3,23.3z M101.3,30.8c0.3-3.2,3.5-5.1,6.3-6c2.6-0.9,5.7-1.2,8.5-0.7c3,0,5.5,1.7,5.9,4.9
			c0.4,3.4-2,6.4-4.9,8c-3.2,1.7-7.3,2.2-10.7,1.2C103.1,37.3,100.9,34.3,101.3,30.8z M82.7,32.5c1.9-2.5,5.6-3,8.5-2.4
			c1.8,0.3,3.6,1.1,4.8,2.4c1.1,1.2,1.6,3.1,0.5,4.4c-2.7,3-7.7,2.8-11.4,2.3C81.7,39.1,80.8,34.9,82.7,32.5z M65.6,40.7
			c2.1-2.2,6.2-3.1,9-2.3c2.1,0.6,6.2,2.8,4.8,5.5c-0.8,1.7-2.8,2.7-4.6,3.2c-2.3,0.6-4.7,0.3-7.1,0.3c-0.1,0-0.1-0.2,0-0.2
			c0,0,0.1,0,0.1,0C64.9,46.6,63.2,43.2,65.6,40.7z M22.7,89.3c-3.9,0.8-7.9-0.2-10.6-3.2c-2.8-3-3.5-7.8-1.8-11.5
			c2.2-4.9,7.8-5.7,12.3-6.9c0.3-0.1,0.4,0.4,0.1,0.5c-4.3,1.1-9.1,1.8-11.7,5.9c-2.1,3.5-1.4,8.4,1.2,11.5c2.5,3,6.4,4,10.1,3.4
			c3.2-0.6,7.2-2.2,8.3-5.6c0.1-0.2,0.3-0.1,0.3,0.1C29.8,86.9,25.9,88.6,22.7,89.3z M12.7,81c0.9,3.5,4.9,5,8.1,5.1
			c3.7,0.1,7.9-2.2,9.8-5.3c0.1-0.1,0.3,0,0.2,0.1c-1.9,3.3-5.9,5.6-9.7,5.7c-3.4,0.1-7.1-1.4-8.6-4.6c-1.4-3.1,0.2-6.4,2.6-8.4
			c2.6-2.2,6.1-3.5,9.5-4c0.3,0,0.4,0.4,0.1,0.5C19.5,70.8,11,74.3,12.7,81z M24.5,82.3c-2.4,0.8-5.4,0.2-7.2-1.7
			c-2-2.1-1.5-5.3,0.4-7.2c1-1,2.4-1.7,3.8-2.1c1.5-0.4,3.2-0.8,4.6-0.2c0.3,0.1,0,0.6-0.2,0.4c-1.4-0.6-2.9-0.2-4.3,0.2
			c-1.2,0.4-2.4,0.9-3.3,1.8c-2.1,1.8-2.4,4.9-0.5,6.8c1.6,1.6,4.3,2,6.4,1.5c2.3-0.6,5.2-2.6,5.2-5.1c0-0.2,0.2-0.2,0.2,0
			C29.7,79.5,26.8,81.5,24.5,82.3z M21.8,78.5c2.1,0.7,4.8-1,4.7-3.3c0-0.2,0.3-0.2,0.3,0c0.1,2.8-3.2,4.5-5.6,3.5
			c-1.3-0.6-1.7-2.3-1.3-3.5c0.5-1.6,2.7-1.8,4.1-1.9c0.3,0,0.3,0.5,0,0.5c-1.2,0.1-2.9,0.2-3.6,1.4C19.5,76.5,20.5,78.1,21.8,78.5z
			 M28.5,60.8c-3.9-1.4-5.7-5.1-8-8.2c-2.2-3-5.9-5.6-9.8-5.3c-5,0.4-5,6.8-3.5,10.3c1,2.1,2.7,3.8,4.9,4.6c2.8,1,6,0.4,8.8-0.1
			c0.3,0,0.4,0.4,0.1,0.5c-2.8,0.5-5.6,1-8.4,0.3c-2.1-0.5-3.8-1.9-5-3.6C5.5,56,4.8,50.8,7.8,48c2.7-2.5,7.2-0.7,9.7,1.1
			c3.7,2.6,5,7.2,8.4,10c0.8,0.7,1.7,1.2,2.7,1.5C28.7,60.7,28.6,60.8,28.5,60.8z M12.8,57.2c1.5,0.7,3.2,0.9,4.8,1.2
			c0.3,0.1,0.2,0.5-0.1,0.4c-1.9-0.4-3.9-0.7-5.7-1.7c-1.5-0.9-2.6-2.8-1.8-4.5c0.7-1.6,2.7-1.1,4-0.5c2.7,1.2,3.8,3.7,5.6,5.7
			c0.1,0.1,0,0.2-0.1,0.1c-1.6-1.6-2.6-3.8-4.6-5c-1.2-0.7-3.9-1.9-4.5,0C9.7,55,11.2,56.5,12.8,57.2z M17.8,53.1
			c-1.1-1.5-2.6-2.7-4.4-3.1c-1.8-0.4-3.8,0.2-4.8,1.8c-0.9,1.5-0.8,3.7,0,5.2c0.7,1.4,2.1,2.3,3.5,2.8c2.7,1,5.9,1,8.8,0.7
			c0.3,0,0.3,0.4,0,0.5c-3.1,0.3-6.6,0.4-9.6-0.9c-3-1.4-4.7-4.5-3.5-7.7c1.2-3.4,5.6-3.3,8.1-1.5c3.5,2.6,4.6,7.6,8.9,9.3
			c0.1,0,0.1,0.2-0.1,0.2C21.4,59,19.9,55.7,17.8,53.1z M31.7,60.8c-3.9-0.8-5.9-4.5-7.7-7.7c-1-1.8-2.1-3.6-3.6-5
			c-1.5-1.5-3.7-2.3-5.7-2.7c-4.4-0.9-9,1-10.4,5.5C2.8,55.4,4.9,61,9,63.6c3.8,2.4,8.6,1.5,12.7,0.8c0.3-0.1,0.4,0.4,0.1,0.5
			c-5.3,0.8-11.1,1.7-15.2-2.6c-2.9-3.1-4-7.9-2.7-11.9c1.2-3.7,4.7-5.7,8.4-5.7c3.8,0,7.5,1.7,9.7,4.7c2.9,3.8,4.4,10.1,9.7,11.3
			C31.8,60.7,31.8,60.8,31.7,60.8z M36.9,84.5c-1.7-0.3-3.3-1.8-4-3.4c-0.7-1.4,0.2-2.2,1.4-2.3c-1.7-1.5-1.8-4,0.4-5.1
			c-2.1-1.7-3.1-4.9-0.5-6.6c-1.7-1.5-2.2-4.6,0.1-5.7c0.1-0.1,0.2,0.1,0.1,0.2c-2,1.3-1.5,4.1,0.3,5.4c0.1,0.1,0.1,0.3,0,0.4
			c-2.7,1.6-1.5,4.8,0.6,6.2c0.2,0.1,0.1,0.3-0.1,0.4c-2.4,0.9-2.1,3.6,0,4.8c0.2,0.1,0.1,0.5-0.1,0.4c-0.6,0-1.6-0.1-1.8,0.6
			c-0.2,0.5,0.2,1.2,0.5,1.7c0.7,1.2,2,2.3,3.4,2.5C37.3,84.1,37.2,84.5,36.9,84.5z M58.1,65.3c-0.9,2.2-3.5,3-5.6,3.3
			c-1.9,0.3-3.8,0.3-5.7,0.5c-0.1,0-0.1-0.1-0.1-0.2c-2.8-0.1-7.5-0.8-7.7-4.1c-0.2-3,4.4-3.9,6.5-4.4c3.2-0.7,7.1-1.4,10.2-0.1
			C57.2,61.2,58.9,63.4,58.1,65.3z M72.7,68.3c-0.3,1.5-2.2,2.5-3.5,3c-1.9,0.6-4,0.5-5.9,0.2c-0.1,0-0.1-0.1-0.1-0.1
			c-1-0.3-2-0.9-2.7-1.7c-0.7-0.9-1-2.1-0.2-3c1.6-1.8,4.9-2.4,7.2-2.2C69.4,64.6,73.1,65.7,72.7,68.3z M74.3,54.5
			c-0.4,1.9-2.5,3.1-4.1,3.7c-2,0.7-4.1,0.9-6,1.5c0,0-0.1,0.1-0.1,0.1c-0.1,0-0.2,0-0.3,0c-0.1,0-0.1,0-0.2,0.1c0,0-0.1,0-0.1,0
			c-1.8,0.2-3.7-0.1-5.4-0.8c-1.8-0.8-3.7-2.5-3.7-4.5c0-1.9,2.6-3.1,4-3.7c2.1-0.9,4.4-1.5,6.6-1.8c2.4-0.3,4.9-0.2,7,1
			C73.6,51,74.7,52.7,74.3,54.5z M89.2,61.5c-0.3,1.6-2.6,2.5-4,2.9c-2.7,0.8-6.5,1-8.9-0.7c-1-0.7-1.5-1.9-1.4-3.1
			c0.2-1.7,1.6-2.7,3.3-2.7c0.3,0,0.3,0.4,0,0.4c-1.3,0-2.3,0.7-2.7,1.8c1.1-1.1,3.7-1.8,4.6-2c1.8-0.2,3.9-0.3,5.5,0.7
			c0.2,0.1,0.5,0.3,0.7,0.6c0,0,0.1,0.1,0.2,0.1c0.9,0.6,1.1,2,0.3,2.8c-0.9,1-2.3,1.3-3.5,1.4c-2.3,0.3-5.7,0.2-7.5-1.4
			c-0.1-0.1-0.2-0.2-0.3-0.3c0.3,1,1.3,1.7,2.3,2.1c2.2,0.8,4.8,0.6,7,0.1c1.5-0.3,3.5-1.2,4.1-2.7c0.7-1.9-1.8-3.3-3.2-3.8
			c-2.8-1-6.3-0.7-9,0.6c-0.1,0-0.2-0.1-0.1-0.2c3.2-1.5,7.3-1.8,10.5-0.2C88.3,58.5,89.5,59.9,89.2,61.5z M81.8,51.1
			c-1.2-1.4-1.4-3.3-0.4-4.9c1.3-2.1,4-2.9,6.2-3.2c0.7-0.1,1.4-0.1,2.1-0.1c0.1,0,0.2,0.1,0.2,0.2c2.3,0,4.9,0.2,6.3,2
			c0.9,1.1,0.8,2.9,0.3,4.1c-0.7,1.7-2.2,2.9-4,3.7C89,54.5,84.3,54.2,81.8,51.1z M104.1,61.1c-1.4,0.7-2.9,1.1-4.5,1
			c0,0-0.1,0.1-0.2,0.1c-1.8,0.1-5.2,0.1-5.9-2c-0.4-1.1,0.5-2.3,1.3-3c1.1-1,2.6-1.5,4.1-1.8c2.4-0.5,6.6-0.6,7.8,2.2
			C107.3,59.2,105.2,60.5,104.1,61.1z M108.2,50.9L108.2,50.9c-2.2-0.2-5.5-1.1-5-3.8c0.3-1.2,1.7-2,2.7-2.4c1.3-0.5,2.6-0.9,4-1
			c1.8-0.2,3.7,0,5.3,0.8c1.5,0.7,2.9,2.2,2.5,3.9c-0.3,1.6-2.6,2.4-4,2.7C112,51.4,110,51.3,108.2,50.9z M129.9,58.2
			c-1.1,1.6-3.8,2-5.5,2.3c-2,0.3-4,0.5-6,0.3c0,0,0,0,0,0c-2.2,0.1-6.8-0.4-6.6-3.5c0.1-1.8,1.9-2.9,3.4-3.5c2.5-1,5.1-1.4,7.8-1.2
			C125.2,52.8,132.6,54.4,129.9,58.2z M133.5,42.2c-2.9,1.3-6.7,1.8-9.7,0.8c-1.4-0.4-2.8-1.5-3.2-3c-0.4-1.6,1-2.8,2.3-3.2
			c0.1,0,0.1,0,0.1,0c2.7-2,6.8-2.5,10-1.5c1.5,0.5,3.1,1.6,3.3,3.3C136.4,40.4,134.9,41.5,133.5,42.2z M139.7,49.2
			c-0.5,0-0.8-0.4-0.8-0.8c0-0.5,0.4-0.8,0.8-0.8c0.5,0,0.8,0.4,0.8,0.8C140.6,48.8,140.2,49.2,139.7,49.2z M142.2,30.4
			c-0.8,0.7-1.8,1.2-2.9,1.5c-0.1,0-0.2,0-0.3-0.1c-1.2,0.6-2.9,0.5-4.1,0.5c-2.2,0-4.5-0.2-6.7-0.7c-2.1-0.5-4.3-1.9-5.1-3.9
			c-0.9-2.2,0.2-4.1,2-5.3c2.2-1.5,5.4-2,8-2.2c2.2-0.2,4.6,0.2,6.7,1.1c1.9,0.7,3.4,2,4,4C144.5,27.1,143.7,29.1,142.2,30.4z
			 M160.9,29.2c-2.5,0.5-5.1,0.6-7.3-0.9c-1.8-1.2-2.7-3.1-3.3-5.1c0-0.1,0.1-0.1,0.1,0c0.7,1.9,1.8,3.6,3.4,4.8
			c2.1,1.5,4.6,1.2,7,0.8C161,28.8,161.1,29.1,160.9,29.2z"/>
		<path class="st0" d="M49.5,62.8c0.2,0,0.5,0,0.7,0.1c0,0,0.1,0,0.1,0c0.4,0,0.9-0.1,1.3-0.1c-0.1,0-0.2,0-0.2,0
			C50.7,62.8,50.1,62.8,49.5,62.8z"/>
		<path class="st0" d="M53,63.5c-0.5-0.3-1.2-0.4-1.9-0.3c0.6,0.2,1.2,0.5,1.4,1.1c0,0.1,0,0.3,0,0.4C53,64.4,53.7,63.9,53,63.5z"/>
	</g>
	<g>
		<path class="st2" d="M190.4,6.6c-1.4-1-3.3-1.2-4.9-0.4c-0.8,0.4-1.7,1.1-2.1,1.9C183,9,182.9,10,182.7,11
			c-5.5-1.6-11.7-1.1-16.9,1.1c-5.1,2.1-8.1,6.7-10.6,11.3c-8.9-4.1-19.2-5-28.9-4.7c-23.4,0.6-46.1,9.4-64.6,23.6
			c-6.8,5.2-12.6,12-20.5,15.6c-3.7,1.7-8.8,2.7-11.5-1.3c-1.2-1.7-1.8-3.7-2.8-5.5c-0.9-1.7-2-3.2-3.5-4.5
			C17.8,42.1,7.7,40,2.7,46.4C-0.1,49.9-0.9,55,1.1,59c2,4.1,5.9,6.9,9.8,8.9c-1.7,1.6-3.6,3.1-5,5c-1.3,1.8-1.8,3.9-1.5,6.1
			c0.5,4.6,2.7,9,6.6,11.6c3.8,2.5,8.6,3.2,12.8,1.6c2.1-0.8,3.9-2.1,5.9-3.2c2.3-1.3,4.7-1.7,7.3-1.5c6.2,0.4,12.3,2.1,18.2,4.1
			c5.9,2.1,11.6,4.5,17.5,6.4c5.9,1.9,12,3.2,18.1,3.9c13,1.6,26.2,1.4,39.3,0.3c3.3-0.3,6.5-0.6,9.7-1c2.9-0.3,6-0.5,8.8-1.3
			c5.1-1.4,9.5-4.5,13-8.5c2.3-2.7,4-5.7,5.2-9c0.7-1.8,2.5-6.4,0-7.6c-0.1,0-0.2,0-0.2,0c2.7-4.2,4.5-9.2,5.4-14.1
			c1-5.5,1.2-11.4-0.1-16.9c-2-8.2-7-14.9-14.1-19c0.1-0.2,0.1-0.5,0.2-0.7c0.1,0,0.1-0.1,0.1-0.1c0-0.1,0-0.1,0-0.2
			c3-9.3,15.3-13.2,24.2-10.8c-0.3,2,0.2,4.4,2.7,4.4c2.3,0,4.6-1.5,5.9-3.3C192.5,11.8,192.8,8.3,190.4,6.6z M166.7,33.2
			c2.8,4,4.7,8.7,5.4,13.5c0.7,5.2,0.4,10.6-0.7,15.7c-1,4.6-2.7,9.2-5.4,13.1c0,0,0,0,0,0c-3.8,2.7-8.8,3.2-13.3,3.3
			c-4.4,0-8.8-0.4-13.2-0.5c-0.3,0-0.3,0.5,0,0.5c4.7,0,9.4,0.5,14.2,0.4c4.2-0.1,8.5-0.7,12-3.1c0,0-0.1,0.1-0.1,0.1
			c-0.1,0.1,0.1,0.3,0.2,0.1c0.3-0.4,0.6-0.9,0.9-1.3c0,0.1,0,0.2,0.1,0.2c1.3,0.6,1,2.5,0.8,3.7c-1.7,8.6-8.3,16.6-16.4,19.7
			c-2.9,1.1-5.8,1.5-8.8,1.8c-3.2,0.4-6.5,0.8-9.7,1.1c-6.5,0.6-13.1,1-19.7,1.1c-12.9,0.1-26.2-0.7-38.6-4.7
			c-11.6-3.7-22.8-9.5-35-10.8c-2.5-0.3-5.2-0.5-7.7,0.5c-1.9,0.7-3.6,2-5.4,3c-4.5,2.5-9.9,2.8-14.4-0.1c-2.1-1.3-3.9-3.2-5-5.4
			c-1.2-2.2-2-5-1.9-7.5c0.2-4.3,3.8-6.9,6.7-9.5c0.1-0.1,0.1-0.3-0.1-0.4c-3.5-1.7-7.1-4.1-9.2-7.5C0,56.5,0,52.2,2,48.3
			c4.4-8.1,16.3-6.1,22-0.4c1.5,1.5,2.4,3.3,3.3,5.3c0.8,1.7,1.6,3.7,3,5c2.9,2.6,7,1.9,10.3,0.5c7.8-3.3,13.4-9.8,19.9-14.9
			c9.4-7.4,19.9-13.5,31.1-17.7c11-4.2,22.8-6.6,34.6-6.9c9.6-0.2,19.9,0.5,28.7,4.7c0,0.1-0.1,0.1-0.1,0.2
			c-0.1,0.2,0.1,0.4,0.2,0.4c0.3,0.9,1.7,1.3,2.5,1.2c0.1,0,0.1-0.2,0-0.2c-0.5,0-1-0.2-1.4-0.4c-0.4-0.2-0.6-0.5-0.8-0.9
			c0,0,0,0,0,0c0,0,0,0,0,0c0.2,0.1,0.4,0.2,0.6,0.3c0.5,0.3,1.1,0.6,1.6,0.9c0,0,0.1,0,0.1,0.1C161.2,27.2,164.3,29.9,166.7,33.2z
			 M190.3,14.1c-1.2,1.4-3.2,2.7-5.1,2.7c-2.3,0-2.7-2.1-2.3-4c0-0.1,0-0.2-0.2-0.3c-0.4-0.1-0.8-0.2-1.3-0.3c0,0,0,0,0,0
			c-0.2-0.4-0.7-0.7-1-1c-0.1-0.1-0.2,0.1-0.1,0.2c0.2,0.2,0.4,0.3,0.5,0.5c0.1,0.1,0.2,0.2,0.2,0.3c-0.5-0.1-1-0.2-1.5-0.2
			c0.1,0,0.1-0.1,0.1-0.2c-0.2-0.2-0.5-0.4-0.8-0.6c-0.1-0.1-0.2,0.1-0.1,0.2c0.2,0.2,0.5,0.4,0.7,0.6c0,0,0,0,0,0
			c-0.2,0-0.4,0-0.6-0.1c0,0,0-0.1,0-0.1c-0.2-0.2-0.4-0.4-0.6-0.6c-0.1-0.1-0.3,0.1-0.2,0.2c0.2,0.1,0.3,0.3,0.5,0.4
			c-0.2,0-0.4,0-0.6,0c0,0,0-0.1,0-0.1c-0.2-0.2-0.4-0.4-0.7-0.5c-0.1-0.1-0.2,0.1-0.1,0.2c0.2,0.1,0.3,0.3,0.5,0.4
			c-0.4,0-0.9,0-1.3,0c0.1,0,0.1-0.1,0-0.2c-0.2-0.2-0.4-0.3-0.6-0.4c-0.1-0.1-0.2,0.1-0.1,0.1c0.2,0.2,0.4,0.3,0.6,0.5c0,0,0,0,0,0
			c-0.2,0-0.4,0-0.6,0c0,0,0.1-0.1,0-0.2c-0.2-0.2-0.5-0.4-0.7-0.6c-0.1-0.1-0.3,0.1-0.2,0.2c0.2,0.2,0.4,0.4,0.7,0.6l0,0
			c-0.1,0-0.3,0-0.4,0c0-0.1,0-0.1,0-0.2c-0.2-0.2-0.5-0.3-0.7-0.5c-0.1-0.1-0.2,0.1-0.1,0.2c0.2,0.1,0.5,0.3,0.7,0.5
			c-0.2,0-0.3,0-0.5,0c0,0,0,0,0,0c-0.2-0.2-0.6-0.4-0.8-0.6c-0.2-0.1-0.3,0.1-0.1,0.2c0.2,0.1,0.4,0.3,0.6,0.4
			c-0.2,0-0.3,0-0.5,0.1c0,0,0,0,0-0.1c-0.3-0.3-0.6-0.5-0.9-0.7c-0.1,0-0.1,0-0.1,0.1c0.2,0.2,0.5,0.4,0.7,0.7
			c-0.2,0-0.4,0.1-0.6,0.1c0,0,0,0,0,0c-0.2-0.1-0.3-0.3-0.5-0.4c-0.1,0-0.1,0-0.1,0.1c0.2,0.1,0.3,0.3,0.4,0.4
			c-0.4,0.1-0.9,0.2-1.3,0.3l0,0c-0.2-0.2-0.4-0.3-0.6-0.4c-0.1-0.1-0.2,0.1-0.1,0.1c0.2,0.1,0.3,0.3,0.5,0.4
			c-1.8,0.5-3.5,1.1-5.2,2c-0.1-0.1-0.2-0.2-0.4-0.3c-0.1-0.1-0.3,0.1-0.1,0.2c0.1,0.1,0.2,0.1,0.3,0.2c-2.4,1.4-4.5,3.2-5.9,5.4
			c0-0.2,0-0.3,0-0.5c0-0.2-0.2-0.2-0.2,0c0,0.3,0,0.6,0,0.9c0,0.1-0.1,0.1-0.1,0.2c0-0.2,0-0.4-0.1-0.5c0-0.1-0.2-0.1-0.2,0.1
			c0,0.3,0.1,0.6,0.1,0.9c0,0.1-0.1,0.1-0.1,0.2c0-0.2-0.1-0.4-0.1-0.6c0-0.1-0.2-0.1-0.2,0c0,0.4,0.1,0.7,0,1
			c0,0.1-0.1,0.2-0.1,0.3c0-0.2-0.1-0.4-0.1-0.6c0-0.2-0.3-0.1-0.2,0.1c0.1,0.4,0.1,0.7,0.2,1.1c0,0.1-0.1,0.3-0.1,0.4
			c-0.1-0.4-0.3-0.9-0.4-1.3c0-0.1-0.3-0.1-0.2,0.1c0.2,0.7,0.3,1.3,0.4,2c-0.1,0.3-0.1,0.6-0.2,0.8c-0.4-0.2-0.8-0.4-1.1-0.6
			c0,0,0,0,0-0.1c0-0.1,0-0.3,0-0.4c0-0.1-0.2-0.2-0.2-0.1c0,0.2-0.1,0.3-0.1,0.5c-0.2-0.1-0.5-0.2-0.7-0.4
			c2.6-4.8,5.6-9.3,10.9-11.3c5.1-2,11-2.4,16.3-0.8c0.1,0,0.3,0,0.3-0.2c0.4-2.1,0.8-4.2,3.1-5c1.7-0.5,3.8-0.2,4.8,1.4
			C192.2,9.8,191.8,12.3,190.3,14.1z"/>
		<circle class="st2" cx="139.7" cy="48.4" r="0.8"/>
		<path class="st2" d="M106.4,38.2c3.4,1,7.6,0.5,10.7-1.2c2.9-1.5,5.3-4.5,4.9-8c-0.4-3.2-2.9-4.9-5.9-4.9
			c-2.8-0.5-5.9-0.1-8.5,0.7c-2.8,0.9-6,2.7-6.3,6C100.9,34.3,103.1,37.3,106.4,38.2z M117.4,24.9c0.2,0.1,0.4-0.2,0.2-0.4
			c1.4,0.3,2.6,1,3.3,2.3c1,1.7,0.9,3.9,0.1,5.7c-1.7,3.7-5.9,5.4-9.8,5.7c-4,0.3-8.4-0.8-9.4-5.2C100.1,25.2,112.2,23.4,117.4,24.9
			z"/>
		<path class="st2" d="M84.5,45.6c-0.1,0-0.1,0.1-0.2,0.1c-0.6,0.4-1.1,0.8-1.3,1.4c-0.1,0.2-0.1,0.4-0.1,0.5
			c-0.1,0.4-0.1,0.8-0.1,1.2c0.3,1.2,1.3,2.2,2.4,2.7c2,0.9,4.5,1,6.3-0.2c0.7-0.3,1.4-0.7,2-1.1c1.3-1.1,1.7-3,0.5-4.4
			C91.7,43.3,86.9,43.9,84.5,45.6z M83.3,47.6c0.2-0.5,0.5-1,1-1.4c0.1-0.1,0.2-0.1,0.2-0.2c1.2-0.8,2.8-1.1,4.2-1.1
			c1.3,0,3,0.2,3.8,1.4c0.3,0.4,0.4,0.8,0.4,1.2c-0.2-0.4-0.7-0.8-1.2-1.1c-1-0.9-3-1.1-4.3-0.7c-0.6,0.2-1.3,0.4-1.8,0.8
			c-0.8,0.5-1.5,1.2-1.2,2.1c0.1,0.2,0.1,0.3,0.2,0.4c0.1,0.5,0.3,1,0.8,1.3c-0.7-0.2-1.3-0.5-1.8-1.1
			C83.3,48.8,83.2,48.2,83.3,47.6z M86.5,47.8c-0.1,0.1-0.1,0.3-0.1,0.4c0,0.4,0.1,0.8,0.4,1c-0.1,0.1-0.1,0.1-0.2,0.2
			c-0.1,0-0.1-0.1-0.2-0.1C85.5,48.8,85.8,48.2,86.5,47.8z M86.4,50.4c-0.1,0-0.1,0-0.2-0.1c-0.3-0.1-0.5-0.3-0.6-0.5
			c0.3,0.1,0.5,0.2,0.8,0.3C86.4,50.2,86.4,50.3,86.4,50.4z M86,47.5c-0.7,0.5-0.7,1.4-0.2,2c-0.2-0.1-0.4-0.2-0.6-0.4
			c0,0-0.1-0.1-0.1-0.1c0-0.3,0-0.6,0-0.8c0.1-0.4,0.3-0.8,0.6-1c1-0.5,2.5-0.8,3.1-0.8c0.8,0,1.9,0.3,2.7,0.7
			c0.4,0.5,0.4,1.1,0.1,1.6c0-0.1,0-0.1,0.1-0.2c0.4-1.3-1.5-1.7-2.4-1.7c-0.2,0-0.3,0-0.5,0C87.9,46.7,86.8,47,86,47.5z M88.5,47.2
			c0.1,0,0.3,0,0.5-0.1c0.7,0,1.5,0.1,1.9,0.7c0.2,0.3,0.2,0.7,0.1,1c-0.2,0.1-0.4,0.3-0.6,0.4c0.3-0.4,0.4-0.9-0.1-1.4
			c-0.6-0.7-1.9-0.2-2.5,0.4c0,0-0.1,0-0.1,0.1c-0.1,0-0.1,0.1-0.1,0.1c-0.1,0.1-0.1,0.2-0.2,0.3c0,0,0,0.1,0,0.1
			c-0.1,0.1-0.2,0.1-0.3,0.2c-0.2-0.1-0.3-0.3-0.3-0.6C86.8,47.6,87.8,47.3,88.5,47.2z M88.2,48.9c0.3-0.1,0.6-0.1,0.9-0.1
			c0,0,0,0,0,0c0,0-0.1,0-0.1,0.1C88.8,49,88.6,49,88.4,49C88.4,49,88.3,48.9,88.2,48.9z M88.2,49.3C88.2,49.3,88.1,49.4,88.2,49.3
			c-0.1,0-0.1,0-0.1,0c-0.2,0-0.4-0.1-0.6-0.2c0.1,0,0.1-0.1,0.2-0.1C87.8,49.2,88,49.3,88.2,49.3z M88,48.6
			c0.5-0.2,1.3-0.4,1.3-0.1C88.9,48.4,88.4,48.4,88,48.6z M89.3,49.1c0.2-0.1,0.3-0.2,0.5-0.3c0.1-0.1,0.1-0.3-0.1-0.3
			c0-0.1,0-0.1,0.1-0.2c0-0.1,0-0.2-0.1-0.2c-0.1-0.1-0.3-0.1-0.4-0.2c0,0,0.1,0,0.1,0c0.5,0,1.1,0.7,0.5,1.2
			c-0.3,0.2-0.7,0.3-1,0.3C89.1,49.3,89.2,49.2,89.3,49.1z M86.8,50.1c0.6,0.1,1.1,0,1.6,0c0.4,0,0.9-0.1,1.4-0.2
			c-0.9,0.5-2,0.7-2.9,0.6C86.8,50.4,86.7,50.3,86.8,50.1z M92.2,48.8c0.2-0.4,0.2-0.8,0.2-1.2c0.3,0.4,0.4,0.8,0.3,1.3
			c-0.5,0.9-1.5,1.6-2.5,1.9c-0.4,0.1-0.9,0.3-1.4,0.3C90.3,50.8,91.7,50.1,92.2,48.8z M90.3,51.5c-0.7,0.2-1.5,0.3-2.2,0.3
			c0,0,0,0,0,0c-0.2,0-0.3,0-0.5,0c-1.4-0.2-3-0.7-3.9-1.8c0,0,0.1,0.1,0.1,0.1c0.8,0.7,2,1,3.2,1.1c0.6,0.3,1.4,0.4,2,0.3
			c0.9-0.1,1.8-0.5,2.6-1C91.3,50.9,90.8,51.2,90.3,51.5z M93.5,49.7c-0.4,0.4-0.9,0.7-1.4,1c0.3-0.3,0.5-0.7,0.7-1.1
			c0.1-0.2,0.1-0.3,0.2-0.5c0.1-0.1,0.1-0.2,0.2-0.3c0.5-1,0.2-2.3-0.6-3c-0.8-0.8-1.9-1.1-3.1-1.3c0.7,0,1.4,0.1,2,0.3
			C93.7,45.4,95.5,47.8,93.5,49.7z"/>
		<path class="st2" d="M96.4,49.3c0.5-1.3,0.7-3-0.3-4.1c-1.4-1.7-4-2-6.3-2c0-0.1-0.1-0.2-0.2-0.2c-0.7,0-1.4,0-2.1,0.1
			c-2.3,0.3-5,1.1-6.2,3.2c-1,1.6-0.7,3.4,0.4,4.9c2.6,3.1,7.2,3.4,10.7,1.8C94.2,52.2,95.7,51,96.4,49.3z M92.5,52.5
			c-3.2,1.4-7.8,1.5-10.3-1.4c-1.5-1.8-1.5-4.1,0.4-5.6c2-1.6,4.5-1.9,7-2c0,0,0.1,0,0.1,0c0.5,0,1.1,0.1,1.6,0.1
			c1.4,0.2,3,0.4,4.1,1.4C98.3,47.4,95,51.4,92.5,52.5z"/>
		<path class="st2" d="M116,36.1c1.7-0.9,3.6-2.3,4.1-4.2c0.3-1.1,0.1-2.2-0.5-3.1c0-0.8-0.2-1.7-0.8-2.4c-1.4-1.5-3.7-1.9-5.6-1.8
			c-1.6,0-3.3,0.3-4.8,1c-1.7,0.4-3.3,1.2-4.3,2.6c-0.3,0.4-0.5,0.7-0.6,1.1c0,0,0,0-0.1,0.1c-0.4,0.4-0.8,0.9-1.1,1.4
			c-1.4,2.8,1.4,5,3.8,5.8C109.1,37.5,113,37.6,116,36.1z M113.1,24.9c1.9,0,4.8,0.3,5.7,2.3c-0.2-0.3-0.4-0.5-0.6-0.7
			c-1.3-1.1-3.1-1.4-4.7-1.4c-0.2,0-0.5,0-0.8,0c-0.8-0.1-1.7-0.1-2.5,0C111.2,25,112.2,24.9,113.1,24.9z M111.1,35.2
			c-1,0-2-0.2-2.9-0.5c1.2,0.2,2.4,0.2,3.5,0c1-0.1,2.1-0.4,3.1-0.8C113.7,34.7,112.5,35.2,111.1,35.2z M112.4,35.5
			c-2.4,0.6-5.2,0.5-7.2-1c-0.3-0.2-0.5-0.5-0.8-0.8c0.7,0.4,1.5,0.6,2.4,0.7c0.7,0.5,1.5,0.9,2.3,1
			C110.2,35.7,111.4,35.7,112.4,35.5z M116.1,33.3c0.1-0.1,0.2-0.1,0.3-0.2c0.4-0.2,0.7-0.5,1.1-0.8c-0.1,0.1-0.2,0.2-0.3,0.3
			c-1,1.2-2.2,2-3.6,2.5c-0.4,0.1-0.8,0.2-1.2,0.4C113.9,35.1,115.2,34.4,116.1,33.3z M114.1,27.2c0.2,0,0.5,0,0.7,0
			c0.5,0.2,1,0.5,1.4,1c0.8,1,0.6,2.2-0.4,3c-1.8,1.3-4.6,1.7-6.8,1.3c0.1,0,0.1,0,0.2,0c1.6,0.1,3.3-0.4,4.7-1.1
			c1-0.5,2.1-1.2,2-2.5c-0.1-1-1.2-1.3-2.1-1.4c-0.4-0.1-0.9,0-1.3,0c-1.2,0.1-2.5,0.4-3.6,0.9c-1,0.4-2.3,1.6-2.3,2.8
			c-0.3,0-0.5-0.2-0.5-0.4c-0.2-1.6,2.4-2.4,3.5-2.7C110.9,27.5,112.5,27.3,114.1,27.2z M113.6,26.4c0.7,0.1,1.5,0.2,2.1,0.4
			c0.1,0,0.1,0.1,0.2,0.1c-0.2,0-0.3,0-0.5,0c-0.1,0-0.3,0-0.4,0c0,0,0,0,0,0C114.6,26.6,114.1,26.4,113.6,26.4z M109,30.1
			c0.1,0.1,0.2,0.1,0.3,0.2c-0.4,0.2-0.8,0.3-1.2,0.5c0,0,0,0,0,0c0.2-0.4,0.5-0.6,0.8-0.9C108.9,29.9,108.9,30,109,30.1z
			 M108.1,31.3c1,0.6,2.5,0.5,3.5,0.3c0.4,0,0.8-0.1,1.3-0.2c-0.2,0.1-0.4,0.2-0.6,0.2c-0.9,0.3-4,1.2-4.4-0.2
			C107.9,31.3,108,31.3,108.1,31.3z M110.1,31.2c-0.1,0-0.9-0.1-1.4-0.2c0.2-0.1,0.5-0.2,0.7-0.3c1.3,0.8,3.8,0.6,4.5-1
			c0-0.1,0-0.2-0.1-0.3c-0.3-0.2-0.7-0.4-1.1-0.5c-0.4-0.3-1-0.3-1.5-0.2c-1.1,0-2.1,0.3-2.9,1c0.8-0.9,2.3-1.4,3.2-1.7
			c0.8-0.2,1.7-0.3,2.5-0.1c0.7,0.2,1.3,1,0.8,1.7C114,31,111.6,31.3,110.1,31.2z M111.4,29.5c-0.1-0.1-0.2-0.1-0.4-0.2
			c0,0,0,0,0.1,0c0.5,0,1,0,1.4,0.1c0,0,0,0,0,0c0.3,0.4-1.4,0.8-1.6,0.8c-0.2,0-0.3,0-0.5,0c0.3-0.1,0.6-0.2,0.9-0.3
			C111.6,29.8,111.6,29.6,111.4,29.5z M113.1,29.7c0,0,0.1-0.1,0.1-0.2c0.1,0,0.1,0.1,0.2,0.1c0.1,0.1-0.6,0.6-0.6,0.6
			c-0.5,0.3-1.1,0.4-1.6,0.4C111.9,30.6,112.6,30.2,113.1,29.7z M107.4,30.6c0,0.1,0,0.3,0,0.4c-0.2,0-0.3,0.1-0.5,0.1
			c0-0.2,0-0.4,0.2-0.6c0.4-0.7,0.9-1.2,1.6-1.6C108,29.3,107.6,29.9,107.4,30.6z M107.5,31.5c0.2,0.5,0.7,0.8,1.2,1
			c-0.1,0-0.2,0-0.4-0.1c-0.5-0.2-1.1-0.4-1.3-0.8C107.2,31.5,107.3,31.5,107.5,31.5z M106.5,31.5c0.1,0.3,0.3,0.6,0.7,0.8
			c1.8,1.2,4.7,0.8,6.7,0.2c1.7-0.5,4.1-1.9,3.1-4c-0.1-0.3-0.3-0.5-0.5-0.8c0.2,0.1,0.4,0.2,0.6,0.3c0.3,0.7,0.3,1.5,0.1,2.3
			c-0.6,0.8-1.5,1.6-2.2,1.9c-2.1,1-5.1,1.7-7.2,0.6c-0.7-0.4-1.3-1-1.7-1.7C106.1,31.4,106.3,31.5,106.5,31.5z M117.5,31.6
			c-0.2,0.2-0.3,0.3-0.5,0.5c-0.1,0-0.1,0.1-0.2,0.1c0.3-0.5,0.5-1,0.6-1.6c0,0,0,0,0-0.1c0.3-0.6,0.6-1.3,0.7-1.9c0,0,0,0,0-0.1
			c0-0.1,0-0.3,0-0.4C119,29.1,118.3,30.7,117.5,31.6z M117.3,27.6c0.1,0,0.2,0.1,0.2,0.1c0,0.1,0.1,0.2,0.1,0.3
			c-0.1-0.1-0.2-0.1-0.2-0.2C117.4,27.8,117.3,27.7,117.3,27.6z M118.3,27.5c-0.2-0.1-0.3-0.2-0.5-0.3c0,0-0.1-0.1-0.1-0.1
			c-0.3-0.4-0.7-0.7-1.2-1c0,0,0.1,0,0.1,0c0.8,0.3,1.7,0.9,2.1,1.7C118.6,27.7,118.4,27.6,118.3,27.5z M111.5,25.8
			c0.4,0,0.8-0.1,1.2-0.1l0,0c1.1,0.1,2.7,0.3,3.8,0.9c-0.1,0-0.2-0.1-0.3-0.1c-0.1,0-0.1-0.1-0.2-0.1c-0.9-0.4-1.9-0.5-2.9-0.5
			c-1-0.1-2,0-3,0.1C110.6,25.9,111,25.8,111.5,25.8z M108.4,27.4c1.3-0.3,2.6-0.5,3.9-0.5c-1.8,0.2-3.6,0.6-5,1.4
			c-0.5,0.3-1.3,0.8-1.6,1.5c0.1-0.3,0.3-0.7,0.6-1C106.8,28.2,107.6,27.8,108.4,27.4z M106.5,26.8c-0.3,0.2-0.6,0.4-0.8,0.7
			c-0.3,0.1-0.5,0.3-0.8,0.4C105.4,27.4,105.9,27.1,106.5,26.8z M105.4,28.5c0.3-0.1,0.6-0.3,0.8-0.4c-0.1,0.1-0.1,0.1-0.2,0.2
			c-1.4,1.4-1,3.5,0.6,4.6c1.7,1.2,3.8,1.3,5.8,0.9c1.4-0.3,3-0.9,4.1-2c0,0.1-0.1,0.2-0.1,0.2c-0.2,0.3-0.3,0.5-0.5,0.7
			c-1.4,0.7-3,1.2-4.6,1.4c-0.8,0.1-2.3,0.1-3.8,0c-0.4-0.1-0.7-0.2-1.1-0.4c-0.4-0.3-0.7-0.8-1-1.2
			C104.7,31.1,104.6,29.7,105.4,28.5z M103.5,30.5c0-0.3,0.1-0.6,0.2-0.9c0-0.1,0.1-0.1,0.1-0.2c0.1-0.1,0.3-0.2,0.5-0.3
			c0,0,0.1,0,0.1,0c-0.4,0.8-0.5,1.8,0,3c0.3,0.8,0.8,1.3,1.4,1.7c-0.7-0.2-1.3-0.5-1.8-0.9C103.6,32.2,103.4,31.3,103.5,30.5z
			 M102.3,32.2c0-0.5,0.2-1,0.4-1.5c0,0.1,0,0.1,0,0.2c-0.1,1,0.3,1.7,0.9,2.2c0.6,1.1,1.5,2,2.7,2.5c2.8,1.2,6.6,0.7,9.2-0.8
			c1.5-0.9,3.5-3.1,4-5.2c0.5,1,0.5,2.1-0.3,3.2c-1.4,2.2-4,3.4-6.5,3.8c-2.7,0.4-5.7,0.2-8.1-1.2C103.4,34.7,102.3,33.6,102.3,32.2
			z"/>
		<path class="st2" d="M184.7,20.5c-0.1-0.6-0.2-1.2-0.5-1.7c0-0.1-0.1-0.1-0.1,0c0,0.6,0.2,1.2,0.3,1.8c0.1,0.5,0.2,1.2,0.4,1.7
			c0.1,0.2,0.4,0.1,0.3-0.1C185,21.6,184.9,21,184.7,20.5z"/>
		<path class="st2" d="M188,18.7c-0.1-0.1-0.3,0-0.2,0.1c0.5,1.1,1.1,2.3,2,3.2c0.2,0.2,0.5-0.1,0.3-0.3
			C189.1,20.8,188.5,19.7,188,18.7z"/>
		<path class="st2" d="M196,18.6c-0.7-0.3-1.5-0.4-2.2-0.7c-0.7-0.3-1.3-0.7-1.9-1.1c-0.2-0.1-0.3,0.1-0.2,0.3
			c0.7,0.5,1.5,1,2.3,1.4c0.6,0.3,1.3,0.6,1.9,0.6C196.2,19,196.2,18.7,196,18.6z"/>
		<path class="st2" d="M196.7,13.4c-1.2,0-2.4,0-3.6-0.2c-0.3,0-0.3,0.4,0,0.4c1.2,0.1,2.4,0.2,3.6,0
			C196.9,13.7,196.9,13.4,196.7,13.4z"/>
		<path class="st2" d="M193.7,9.2c1-0.1,2-0.7,2.7-1.2c0.1-0.1,0-0.3-0.1-0.2c-0.9,0.5-1.8,0.8-2.7,1.1
			C193.3,8.9,193.4,9.2,193.7,9.2z"/>
		<path class="st2" d="M192.4,5.2c0.7-0.6,1.3-1.3,1.8-2.1c0.1-0.2-0.1-0.3-0.3-0.2c-0.5,0.7-1.1,1.3-1.8,1.9
			C191.9,5.1,192.2,5.4,192.4,5.2z"/>
		<path class="st2" d="M189.3,4.1c0.6-1.1,0.9-2.4,1.2-3.6c0-0.2-0.2-0.3-0.3-0.1c-0.3,1.2-0.8,2.4-1.3,3.5
			C188.9,4.2,189.2,4.4,189.3,4.1z"/>
		<path class="st2" d="M185.6,3.8c0.3-1.2,0.1-2.4,0.1-3.6c0-0.2-0.3-0.2-0.3,0c0,1.2,0,2.4-0.1,3.6C185.2,3.9,185.6,4,185.6,3.8z"
			/>
		<path class="st2" d="M183.1,3.8c0-0.7,0-1.5,0-2.2c0-0.2-0.3-0.2-0.3,0c0,0.7,0,1.5,0,2.2C182.7,4.1,183.2,4.1,183.1,3.8z"/>
		<path class="st2" d="M184.4,15.6c-0.2,0-0.2,0.2,0,0.2S184.6,15.6,184.4,15.6z"/>
		<path class="st2" d="M183.7,14.6c-0.2,0-0.2,0.3,0,0.3C183.9,14.8,183.9,14.6,183.7,14.6z"/>
		<path class="st2" d="M185.3,14.8c0,0.1,0,0.1,0.1,0.2c0,0.1,0.2,0.1,0.2,0c0-0.1,0-0.1,0-0.2C185.5,14.5,185.2,14.6,185.3,14.8z"
			/>
		<path class="st2" d="M186.3,15.2C186.3,15.2,186.3,15.3,186.3,15.2c0.1,0.3,0.4,0.2,0.3,0c0,0,0-0.1,0-0.1
			C186.5,14.9,186.2,15,186.3,15.2z"/>
		<path class="st2" d="M187.8,14.6c-0.1-0.2-0.4-0.2-0.3,0c0,0.1,0,0.1,0,0.1C187.6,14.9,187.9,14.7,187.8,14.6L187.8,14.6z"/>
		<path class="st2" d="M188.5,13.5c-0.2,0-0.3,0.2-0.1,0.3c0,0,0,0,0,0c0,0.2,0.3,0.1,0.3,0C188.7,13.7,188.7,13.6,188.5,13.5z"/>
		<path class="st2" d="M186.4,13.6c-0.2,0-0.2,0.3,0,0.3C186.6,13.9,186.6,13.6,186.4,13.6z"/>
		<path class="st2" d="M186.8,15C186.8,15,186.9,15,186.8,15c0.2,0.2,0.3,0,0.3-0.1c0,0,0,0,0-0.1C187.1,14.5,186.6,14.7,186.8,15z"
			/>
		<path class="st2" d="M187.4,15.6c-0.2,0-0.2,0.3,0,0.3S187.6,15.6,187.4,15.6z"/>
		<path class="st2" d="M188.9,14c0,0.1,0,0.1,0.1,0.1c0.1,0.1,0.2,0,0.2-0.1c0-0.1,0-0.1,0-0.1C189.2,13.7,188.8,13.8,188.9,14z"/>
		<path class="st2" d="M189.8,12.6c-0.2,0-0.2,0.3,0,0.3C190,12.9,190,12.6,189.8,12.6z"/>
		<path class="st2" d="M190.2,12.2C190.2,12.2,190.2,12.2,190.2,12.2c-0.1,0-0.1,0.1,0,0.2c0,0,0,0,0,0
			C190.4,12.5,190.4,12.1,190.2,12.2z"/>
		<path class="st2" d="M190.5,12.5c0,0.1-0.1,0.2-0.1,0.2c0,0.1,0.1,0.2,0.2,0.1c0-0.1,0.1-0.1,0.1-0.2
			C190.7,12.5,190.6,12.4,190.5,12.5z"/>
		<path class="st2" d="M188.4,12.4c0.1-0.1,0.1-0.1,0.1-0.2c0-0.2-0.2-0.2-0.2-0.1c0,0,0,0.1,0,0.1
			C188.2,12.4,188.3,12.5,188.4,12.4z"/>
		<path class="st2" d="M187.1,12.8c0,0.1-0.1,0.1-0.1,0.2c0,0.1,0.1,0.2,0.2,0.1c0-0.1,0.1-0.1,0.1-0.2
			C187.4,12.8,187.2,12.7,187.1,12.8z"/>
		<path class="st2" d="M186.8,13.7c-0.1,0-0.1,0.1,0,0.1S186.9,13.7,186.8,13.7z"/>
		<path class="st2" d="M189.3,11.7C189.3,11.7,189.3,11.7,189.3,11.7c0,0.3,0.3,0.3,0.3,0.1c0-0.1,0-0.1,0-0.2
			C189.6,11.4,189.2,11.5,189.3,11.7z"/>
		<path class="st2" d="M191.2,11.4C191.2,11.4,191.2,11.5,191.2,11.4C191.3,11.5,191.3,11.4,191.2,11.4z"/>
		<path class="st2" d="M186,12C186,12,186,12,186,12C186,12,186,12,186,12c-0.1,0.2,0,0.3,0.1,0.2c0,0,0,0,0,0
			C186.3,12.1,186.2,11.9,186,12z"/>
		<path class="st2" d="M185,12c0-0.1,0-0.1,0-0.2c0-0.1-0.1,0-0.1,0c0,0,0,0.1,0,0.1C184.8,12,184.9,12.1,185,12z"/>
		<path class="st2" d="M184.3,11.9c0-0.1-0.2,0-0.1,0.1c0,0,0,0,0,0.1c0,0.1,0.1,0.1,0.1,0C184.3,12,184.3,12,184.3,11.9z"/>
		<path class="st2" d="M185.7,13.2c0-0.1-0.1-0.2-0.2-0.2c-0.1-0.2-0.4,0-0.3,0.2c0.1,0.1,0.1,0.2,0.2,0.3
			C185.5,13.6,185.7,13.4,185.7,13.2z"/>
		<path class="st2" d="M185.8,13.8c0.1-0.1,0.2-0.3,0.1-0.4c0-0.1-0.3-0.1-0.2,0.1c0,0.1,0,0.1-0.1,0.2
			C185.6,13.7,185.7,13.8,185.8,13.8z"/>
		<path class="st2" d="M184.8,13.5c0,0.1-0.1,0.3,0,0.4c0,0.1,0.2,0.1,0.2,0c0-0.1,0-0.3,0-0.4C185,13.4,184.9,13.4,184.8,13.5z"/>
		<path class="st2" d="M185.6,16.1c0.1,0.1,0.1,0.3,0.2,0.4c0.1,0.1,0.3,0,0.3-0.1c0-0.1-0.1-0.3-0.2-0.4
			C185.8,15.8,185.5,15.9,185.6,16.1z"/>
		<path class="st2" d="M184,13.8c0,0-0.1,0.1-0.1,0.2c0,0.1,0.2,0.2,0.2,0.1l0,0c0,0,0,0,0,0c0,0,0,0,0,0c0,0,0-0.1,0-0.1
			C184.3,13.8,184.1,13.7,184,13.8z"/>
		<path class="st2" d="M183.6,13.1c0,0,0,0.1,0,0.1c0,0.1,0.1,0.2,0.2,0.1c0.1,0,0.1-0.1,0.1-0.1C183.9,13,183.7,12.9,183.6,13.1z"
			/>
		<path class="st2" d="M183.7,11.4c0.2,0,0.2-0.2,0-0.2C183.5,11.2,183.5,11.4,183.7,11.4z"/>
		<path class="st2" d="M184.1,10.3L184.1,10.3c0-0.2-0.2-0.2-0.3-0.1c0,0,0,0,0,0C183.8,10.5,184.2,10.5,184.1,10.3z"/>
		<path class="st2" d="M183.1,13.7C183.1,13.7,183.1,13.7,183.1,13.7C183,13.8,183,13.8,183.1,13.7c-0.1,0.2,0,0.3,0.1,0.2
			c0,0,0,0,0,0c0,0,0,0,0,0c0,0,0,0,0,0c0,0,0,0,0,0l0,0C183.3,13.7,183.2,13.6,183.1,13.7z"/>
		<path class="st2" d="M176.5,11.2c-0.1-0.1-0.2,0.1-0.1,0.2c0.1,0.1,0.2,0.3,0.4,0.4c0.1,0.1,0.2,0,0.1-0.1
			C176.8,11.4,176.6,11.3,176.5,11.2z"/>
		<path class="st2" d="M170.9,11.7c-0.1-0.1-0.2,0.1-0.1,0.1c0.2,0.2,0.4,0.3,0.5,0.5c0.1,0.1,0.2,0,0.1-0.1
			C171.3,12.1,171.1,11.9,170.9,11.7z"/>
		<path class="st2" d="M169.7,12.2c-0.1-0.1-0.2,0.1-0.1,0.2c0.1,0.1,0.2,0.1,0.3,0.2c0.1,0.1,0.3-0.1,0.1-0.2
			C170,12.4,169.8,12.3,169.7,12.2z"/>
		<path class="st2" d="M169.1,12.4C169.1,12.4,169,12.4,169.1,12.4c0.1,0.2,0.3,0.3,0.4,0.5c0.1,0.1,0.2,0,0.1-0.1
			C169.5,12.6,169.3,12.5,169.1,12.4z"/>
		<path class="st2" d="M168.6,12.5c-0.1-0.1-0.2,0.1-0.1,0.2c0.2,0.1,0.3,0.3,0.5,0.4c0.1,0.1,0.2-0.1,0.1-0.2
			C168.9,12.7,168.7,12.6,168.6,12.5z"/>
		<path class="st2" d="M167.9,12.7c-0.1,0-0.1,0.1-0.1,0.1c0.2,0.1,0.3,0.3,0.5,0.4c0.1,0,0.2,0,0.1-0.1
			C168.3,12.9,168.1,12.8,167.9,12.7z"/>
		<path class="st2" d="M167.6,12.9c-0.1-0.1-0.2,0.1-0.1,0.2c0.1,0.1,0.2,0.2,0.3,0.3c0.1,0.1,0.3-0.1,0.2-0.2
			C167.8,13.1,167.7,13,167.6,12.9z"/>
		<path class="st2" d="M166.8,13c-0.1-0.1-0.2,0.1-0.1,0.2c0.2,0.1,0.4,0.2,0.6,0.4c0.1,0.1,0.2-0.1,0.1-0.2
			C167.2,13.2,167,13.1,166.8,13z"/>
		<path class="st2" d="M166.3,13.3c-0.1-0.1-0.3,0.1-0.1,0.2c0.2,0.1,0.3,0.2,0.4,0.3c0.1,0.1,0.3-0.1,0.2-0.2
			C166.6,13.5,166.5,13.4,166.3,13.3z"/>
		<path class="st2" d="M166,13.6c-0.1-0.1-0.2,0.1-0.1,0.2c0.2,0.1,0.4,0.2,0.6,0.3c0.1,0.1,0.2-0.1,0.1-0.2
			C166.4,13.8,166.2,13.7,166,13.6z"/>
		<path class="st2" d="M165.6,14.1c-0.1-0.1-0.2,0.1-0.1,0.1c0.1,0.1,0.1,0.1,0.2,0.2c0.1,0.1,0.2-0.1,0.1-0.1
			C165.8,14.2,165.7,14.2,165.6,14.1z"/>
		<path class="st2" d="M157.2,23.1c0,0.3,0.1,0.7,0.1,1c0,0.2,0.3,0.2,0.3,0c0-0.3-0.1-0.7-0.1-1C157.4,22.9,157.2,22.9,157.2,23.1z
			"/>
		<path class="st2" d="M156.7,23.1c0,0.3,0.1,0.6,0.1,0.9c0,0.2,0.3,0.2,0.3,0c0-0.3-0.1-0.6-0.1-0.9C156.8,23,156.6,23,156.7,23.1z
			"/>
		<path class="st2" d="M153.8,23.9c0-0.2-0.4-0.3-0.4,0c0.1,2,3.3,2.8,4.8,2.3c0.1,0,0.1-0.2,0-0.2C156.8,26.1,154,25.6,153.8,23.9z
			"/>
		<path class="st2" d="M152.5,23.3c-0.1-0.3-0.5-0.2-0.4,0.1c0.3,1.5,1.3,2.7,2.7,3.4c1.3,0.6,2.8,1.2,4.2,0.6c0.1,0,0-0.2-0.1-0.2
			C156.4,28,153,25.9,152.5,23.3z"/>
		<path class="st2" d="M154.7,27.6c-1.7-1-2.5-2.6-3.4-4.3c-0.1-0.3-0.5,0-0.4,0.2c1,1.9,2.1,3.8,4.2,4.7c1.5,0.6,3.5,1,4.9-0.2
			c0.1-0.1,0-0.3-0.2-0.2C158.2,28.8,156.2,28.5,154.7,27.6z"/>
		<path class="st2" d="M153.7,28c-1.6-1.2-2.7-2.9-3.4-4.8c0-0.1-0.2,0-0.1,0c0.7,1.9,1.6,3.9,3.3,5.1c2.2,1.5,4.8,1.4,7.3,0.9
			c0.3-0.1,0.1-0.4-0.1-0.4C158.3,29.1,155.8,29.5,153.7,28z"/>
		<path class="st2" d="M37,84c-1.4-0.2-2.7-1.3-3.4-2.5c-0.3-0.4-0.7-1.1-0.5-1.7c0.3-0.7,1.2-0.6,1.8-0.6c0.2,0,0.3-0.3,0.1-0.4
			c-2-1.2-2.4-3.9,0-4.8c0.2-0.1,0.2-0.3,0.1-0.4c-2.2-1.4-3.3-4.6-0.6-6.2c0.1-0.1,0.1-0.3,0-0.4c-1.8-1.3-2.3-4.1-0.3-5.4
			c0.1-0.1,0-0.3-0.1-0.2c-2.3,1.2-1.8,4.2-0.1,5.7c-2.5,1.7-1.6,4.9,0.5,6.6c-2.2,1.1-2.1,3.6-0.4,5.1c-1.2,0.1-2.1,0.9-1.4,2.3
			c0.7,1.6,2.3,3,4,3.4C37.2,84.5,37.3,84.1,37,84z"/>
		<path class="st2" d="M31.7,60.6c-5.3-1.3-6.7-7.5-9.7-11.3c-2.3-3-6-4.7-9.7-4.7c-3.7,0-7.3,2-8.4,5.7c-1.3,4-0.2,8.8,2.7,11.9
			c4.1,4.2,10,3.4,15.2,2.6c0.3-0.1,0.2-0.5-0.1-0.5C17.6,65,12.8,65.9,9,63.6C4.9,61,2.8,55.4,4.3,50.7c1.4-4.5,6-6.4,10.4-5.5
			c2,0.4,4.2,1.3,5.7,2.7c1.5,1.4,2.5,3.2,3.6,5c1.8,3.2,3.8,7,7.7,7.7C31.8,60.8,31.8,60.7,31.7,60.6z"/>
		<path class="st2" d="M28.6,60.6c-1-0.4-1.9-0.9-2.7-1.5c-3.4-2.9-4.7-7.5-8.4-10c-2.6-1.8-7-3.6-9.7-1.1c-3,2.8-2.3,8-0.2,11.1
			c1.2,1.8,2.9,3.1,5,3.6c2.8,0.7,5.6,0.2,8.4-0.3c0.3-0.1,0.2-0.5-0.1-0.5c-2.9,0.5-6,1.2-8.8,0.1c-2.2-0.8-3.9-2.5-4.9-4.6
			c-1.5-3.4-1.5-9.9,3.5-10.3c3.9-0.3,7.6,2.3,9.8,5.3c2.3,3.2,4.1,6.9,8,8.2C28.6,60.8,28.7,60.7,28.6,60.6z"/>
		<path class="st2" d="M24.8,60.2c0.1,0,0.2-0.1,0.1-0.2c-4.4-1.6-5.4-6.7-8.9-9.3c-2.5-1.8-6.9-1.9-8.1,1.5
			c-1.1,3.2,0.5,6.4,3.5,7.7c2.9,1.3,6.4,1.3,9.6,0.9c0.3,0,0.3-0.5,0-0.5c-2.9,0.3-6,0.3-8.8-0.7c-1.4-0.5-2.8-1.4-3.5-2.8
			c-0.8-1.5-0.9-3.7,0-5.2c1-1.6,3-2.2,4.8-1.8c1.8,0.4,3.2,1.6,4.4,3.1C19.9,55.7,21.4,59,24.8,60.2z"/>
		<path class="st2" d="M14.8,53c2,1.2,3,3.4,4.6,5c0.1,0.1,0.2,0,0.1-0.1c-1.8-2.1-2.9-4.5-5.6-5.7c-1.2-0.6-3.3-1.1-4,0.5
			c-0.8,1.7,0.4,3.7,1.8,4.5c1.7,1,3.7,1.3,5.7,1.7c0.3,0.1,0.4-0.4,0.1-0.4c-1.6-0.3-3.3-0.5-4.8-1.2c-1.6-0.7-3.1-2.3-2.5-4.2
			C10.9,51.1,13.7,52.3,14.8,53z"/>
		<path class="st2" d="M30.6,83.4c-1.1,3.4-5,5-8.3,5.6c-3.7,0.6-7.6-0.3-10.1-3.4c-2.5-3.1-3.3-8-1.2-11.5
			c2.5-4.2,7.3-4.8,11.7-5.9c0.3-0.1,0.2-0.6-0.1-0.5c-4.6,1.2-10.2,2-12.3,6.9c-1.7,3.7-0.9,8.5,1.8,11.5c2.7,3,6.7,4,10.6,3.2
			c3.3-0.7,7.2-2.4,8.2-5.9C30.9,83.3,30.6,83.2,30.6,83.4z"/>
		<path class="st2" d="M24.7,70c0.3,0,0.2-0.5-0.1-0.5c-3.3,0.5-6.9,1.8-9.5,4c-2.5,2-4,5.3-2.6,8.4c1.4,3.2,5.2,4.7,8.6,4.6
			c3.8-0.1,7.8-2.4,9.7-5.7c0.1-0.1-0.1-0.2-0.2-0.1c-1.9,3.1-6.1,5.5-9.8,5.3c-3.2-0.1-7.2-1.6-8.1-5.1C11,74.3,19.5,70.8,24.7,70z
			"/>
		<path class="st2" d="M29.4,76.8c0,2.6-3,4.6-5.2,5.1c-2.1,0.5-4.8,0.1-6.4-1.5c-1.9-2-1.6-5.1,0.5-6.8c1-0.8,2.1-1.4,3.3-1.8
			c1.3-0.4,2.9-0.8,4.3-0.2c0.3,0.1,0.5-0.3,0.2-0.4c-1.5-0.6-3.2-0.3-4.6,0.2c-1.4,0.4-2.7,1-3.8,2.1c-1.9,1.9-2.4,5.1-0.4,7.2
			c1.8,1.8,4.8,2.5,7.2,1.7c2.3-0.8,5.2-2.7,5.1-5.5C29.6,76.6,29.4,76.6,29.4,76.8z"/>
		<path class="st2" d="M23.9,73.9c0.3,0,0.3-0.5,0-0.5c-1.4,0.1-3.6,0.3-4.1,1.9c-0.4,1.3,0.1,2.9,1.3,3.5c2.4,1.1,5.8-0.7,5.6-3.5
			c0-0.2-0.3-0.2-0.3,0c0.1,2.2-2.6,3.9-4.7,3.3c-1.2-0.4-2.2-2.1-1.5-3.3C21,74,22.6,73.9,23.9,73.9z"/>
		<path class="st2" d="M86,38c0.1,0,0.3,0,0.5,0.1c0,0,0,0,0,0c2.2,0.7,5.5,0,7.3-1.4c0.8-0.6,1.6-1.7,1.2-2.8
			c-0.4-1.3-1.7-1.9-2.9-2.2c-2.5-0.6-6.7-0.5-8.2,2.1c-0.5,0.8-0.9,2.1-0.2,3C84.1,37.6,85.1,37.9,86,38z M87.7,32
			c1.9-0.4,4.8-0.4,6.3,1c2,1.9-0.4,3.8-2.2,4.4c-1.5,0.6-3.5,1.1-5.1,0.6c2.5,0.2,6.2-0.4,7.3-2.7c0.8-1.5-1.2-2.7-2.4-2.9
			c-1.6-0.3-3.6-0.3-5.2,0.4c-1.3,0.6-2.9,2.3-1.1,3.4c1.6,1,3.9,1.1,5.6,0.2c0.8-0.5,2.5-2,1.2-2.9c-1-0.7-2.7-0.6-3.9-0.3
			c-0.8,0.2-3.1,0.9-3.1,2.1c-0.4-0.8,0.4-1.5,1.1-1.8c0.9-0.5,1.9-0.7,2.9-0.7c1.1-0.1,2.4-0.1,3.4,0.5c0.5,0.3,1.1,0.7,1.1,1.2
			c0.1,0.8-0.5,1.3-1,1.7c-1.3,0.9-2.8,1.3-4.4,1.4c-1.3,0.1-3.6,0.2-4.3-1.2C82.7,34.1,85.9,32.4,87.7,32z M90.9,34.1
			c-0.7-0.8-2.7,0-3.1,0.8c-0.1,0.1,0,0.3,0.1,0.3c0.6,0.3,1.3,0.3,1.9-0.2c0.1-0.1,0.1-0.3,0-0.4c-0.2-0.1-0.4-0.2-0.6-0.2
			c0.3-0.1,0.7-0.2,1-0.2c0.6,0,0.9,0.5,0.4,0.9c-0.3,0.2-0.6,0.4-0.9,0.4c-0.6,0.2-1.5,0.3-2.1,0c-0.7-0.5,0-1.2,0.6-1.5
			c0.9-0.4,3-0.9,3.6,0.2c0.3,0.6-0.4,1.1-1.1,1.3C91,35.4,91.5,34.8,90.9,34.1z M86.7,34.9c-0.2,0.9,0.5,1.2,1.2,1.4
			c-0.8,0.1-1.8,0.1-2.2-0.4c-0.6-0.8,0.4-1.4,1.5-1.8C87,34.3,86.8,34.6,86.7,34.9z"/>
		<path class="st2" d="M85.1,39.1c3.7,0.5,8.7,0.7,11.4-2.3c1.2-1.3,0.7-3.2-0.5-4.4c-1.3-1.3-3-2.1-4.8-2.4
			c-2.9-0.5-6.6-0.1-8.5,2.4C80.8,34.9,81.7,39.1,85.1,39.1z M82.2,35.1c0.2-1.4,0.9-2.7,2.1-3.5c2.1-1.4,5-1.7,7.4-1
			c1.5,0.4,3.1,1,4.1,2.2c0.7,0.8,1.3,1.9,0.9,2.9c-0.3,0.9-1,1.5-1.8,2c-2.7,1.6-6.3,1.7-9.4,1.3c0-0.1,0-0.3-0.2-0.3
			C83.2,38.8,81.9,37,82.2,35.1z"/>
		<path class="st2" d="M116,47c0-0.3-0.2-0.7-0.6-1c-1.1-0.8-2.6-0.8-3.9-0.8c-1.5,0.1-3.1,0.2-4.4,0.9c-0.8,0.4-1.7,1.4-0.9,2.3
			c1.1,1.4,3.9,1.7,5.5,1.6c1.4,0,5.1-0.7,4.5-2.8C116.1,47.2,116,47.1,116,47z M115.6,47.3c-0.1,0.3-0.4,0.6-0.8,0.9
			c0.2-0.4,0.3-0.9-0.1-1.3c-0.1-0.2-0.3-0.3-0.5-0.4c0.3,0.1,0.7,0.2,0.9,0.4C115.4,47,115.6,47.2,115.6,47.3z M113.6,48.5
			c0.3-0.3,0.5-0.6,0.3-1.1c-0.1-0.3-0.4-0.6-0.6-0.8c0.5,0.1,1.4,0.3,1.4,0.9c0,0.9-1,1.3-1.8,1.5c-0.3,0.1-0.8,0.2-1.3,0.2
			c0,0,0.1,0,0.1,0c0,0,0,0,0,0C112.2,49.2,113.2,49,113.6,48.5z M111.5,46.6c0.1,0,0.2,0,0.3-0.1c0.1,0,0.1,0,0.2,0
			c0.5,0.1,1.5,0.5,1.6,1C113.2,47,112.4,46.7,111.5,46.6z M106.3,48C106.3,47.9,106.3,47.9,106.3,48c-0.2-0.9,0.8-1.4,1.4-1.6
			c1.5-0.5,3.1-0.8,4.7-0.8c0.8,0,1.8,0.1,2.5,0.5c0.1,0.1,0.2,0.1,0.3,0.2c-0.8-0.4-2.1-0.4-3.1-0.2c0,0-0.1,0-0.1,0
			c-1.2,0-2.4,0.1-3.5,0.3C107.8,46.6,106.3,47,106.3,48z M107.7,48.6c-0.2,0-0.5-0.1-0.6-0.2c-0.3-0.6-0.2-0.9,0.2-1.1
			c0.5-0.3,1-0.5,1.6-0.6c0.1,0,0.2,0,0.2,0c-0.4,0.2-0.9,0.6-1.1,0.9c-0.2,0.2-0.4,0.5-0.4,0.9C107.7,48.5,107.7,48.6,107.7,48.6z
			 M108.2,48.7C108.2,48.6,108.1,48.6,108.2,48.7c0-0.1,0-0.2,0-0.3c0,0,0,0,0,0c0,0,0,0,0,0.1c0.1,0.1,0.2,0.2,0.3,0.3
			C108.4,48.7,108.3,48.7,108.2,48.7z M109,47.7c0.2-0.2,0.4-0.3,0.6-0.4c1-0.3,2.5-0.3,3.3,0.3c0.4,0.2,0.4,0.5,0.2,0.6
			c0,0-0.1,0.1-0.2,0.1c-0.4,0.2-0.9,0.4-1.4,0.5h0c-0.5,0-1.1,0-1.6-0.1l0,0c0.9,0.1,2-0.1,2.5-0.7c0.1-0.1,0.1-0.2,0-0.3
			c-0.6-0.6-2.1-0.6-2.7,0.1c-0.1,0.1-0.2,0.3-0.3,0.4C109.3,48.1,108.7,48.1,109,47.7z M110,48.3c0.2-0.5,1.4-0.7,2-0.4
			C111.5,48.3,110.7,48.3,110,48.3z M113.6,49.4c-1.3,0.3-2.6,0.3-3.9,0.1c0.3,0,0.5,0,0.7-0.1c0.1,0,0.2,0.1,0.3,0.1
			c1.2,0.2,2.6,0,3.6-0.7c0.5-0.2,1.1-0.7,1.4-1.2C115.8,48.6,114.2,49.3,113.6,49.4z"/>
		<path class="st2" d="M117.8,48.4c0.4-1.7-1.1-3.2-2.5-3.9c-1.6-0.8-3.5-1-5.3-0.8c-1.4,0.2-2.7,0.5-4,1c-1,0.4-2.5,1.2-2.7,2.4
			c-0.5,2.7,2.7,3.7,5,3.8l0,0c1.8,0.4,3.8,0.5,5.7,0.1C115.2,50.7,117.5,50,117.8,48.4z M108.9,50.9c0.2-0.1,0.1-0.4-0.1-0.4
			c-1.1-0.1-2.2-0.2-3.3-0.6c-1.2-0.5-2.6-1.7-1.7-3.1c1.1-1.9,4.1-2.5,6.2-2.7c1.4-0.1,3-0.1,4.3,0.4c1.7,0.6,4.7,2.9,2.6,4.8
			C114.8,51.1,111.6,51.2,108.9,50.9z"/>
		<path class="st2" d="M129,36.2c-2,0.1-5.3,0.8-6.2,2.8c-1,2.1,2.4,2.6,3.7,2.6c1.8,0,3.7-0.3,5.3-1.1c1-0.5,2.7-2,1.5-3.1
			c-0.9-0.8-2.8-0.7-3.9-0.6c-0.8,0-1.6,0.1-2.3,0.3c-1,0.2-2,0.6-2.6,1.3c-0.6,0.7-0.6,1.6,0.2,2.1c1,0.6,2.4,0.6,3.6,0.5
			c1.4-0.2,5.5-1.4,3.2-3.4c-0.2-0.2-0.4-0.3-0.6-0.4c0.7,0,1.5,0.1,2,0.5c1.3,0.9-0.7,2.3-1.5,2.6c-1.8,0.8-4,1.1-6,0.9
			c-1.1-0.1-3.1-0.9-2-2.3c0.6-0.9,1.8-1.4,2.8-1.7c1.3-0.4,2.6-0.7,4-0.6c1.2,0.1,3.3,0.4,4,1.7c1,2-3.2,3.4-4.6,3.5
			c-0.1,0-0.1,0.1,0,0.1c1.5-0.1,4.4-1,4.9-2.7C134.9,36.7,130.5,36.1,129,36.2z M131.3,38c0.5,0.6,0.5,1.3-0.2,1.7
			c-1.2,0.8-2.8,1-4.1,1c-0.8,0-3.7-0.5-2.3-1.9c0.1-0.1,0.2-0.2,0.3-0.2c-0.5,0.5-0.6,1.2,0.2,1.6c1.3,0.7,3.3,0.3,4.6-0.3
			c0.5-0.2,1.1-0.6,1.2-1.2c0-0.4-0.2-0.8-0.7-0.9c-1.3-0.3-2.9,0.2-3.9,1c-0.7,0.5-0.3,1.1,0.4,1.3c0.3,0.1,0.7,0.1,1.1,0.1
			c-0.5,0.1-1,0.1-1.4,0.1c-0.4,0-1.9-0.3-1.4-1.2c0.2-0.3,0.5-0.6,0.9-0.8c0.5-0.3,1-0.4,1.5-0.5C128.6,37.3,130.4,37.1,131.3,38z
			 M129.5,38.5c-0.6-0.3-1.5-0.1-2,0.4c-0.1,0.1-0.1,0.3,0,0.3c0.3,0.2,0.6,0.3,0.9,0.3c0,0-0.1,0-0.1,0c-0.4,0.1-1.8,0.2-2-0.3
			c-0.2-0.5,1.9-1.1,2.2-1.1c0.5-0.1,1.1-0.2,1.6-0.1c1,0.3-0.1,1.2-0.6,1.4c0,0-0.1,0-0.1,0c0.1,0,0.1-0.1,0.2-0.1
			C130,39,129.9,38.7,129.5,38.5z M129,38.9c-0.2,0.1-0.4,0.2-0.7,0.1c0-0.3,0.2-0.4,0.6-0.3c0.3,0,0.8,0.1,0.4,0.4
			c0,0-0.1,0-0.1,0.1C129.3,39.1,129.2,38.9,129,38.9z"/>
		<path class="st2" d="M132.9,35.3c-3.2-1-7.2-0.5-10,1.5c0,0-0.1,0-0.1,0c-1.3,0.4-2.7,1.6-2.3,3.2c0.4,1.5,1.8,2.5,3.2,3
			c3,0.9,6.9,0.5,9.7-0.8c1.5-0.7,2.9-1.8,2.7-3.6C136,36.9,134.4,35.8,132.9,35.3z M133,41.9c-2.3,0.9-5,1.4-7.5,1
			c-1.3-0.2-2.7-0.5-3.7-1.5c-1.6-1.6-1-3.6,1.1-4.3c0.1,0,0.1-0.1,0.1-0.2c2.4-1.6,5.6-2.1,8.4-1.7c1.6,0.3,3.7,1,4.2,2.7
			C136.3,40,134.7,41.3,133,41.9z"/>
		<path class="st2" d="M137.9,21.8c-2.9-0.9-6.1-1.2-9-0.4c-2.7,0.8-5.8,3-4.2,6.2c1.5,3.1,6.1,3.5,9.1,3.3c2.1-0.1,6.3-0.6,7.3-2.9
			c0.4-0.4,0.7-0.8,0.8-1.2c-0.2,1.3-1.1,2.4-2.3,3c-1.8,1-4,1.3-6.1,1.3c-0.1,0-0.1,0.1,0,0.1c2.8,0.1,7.3-0.4,8.5-3.4
			C143.1,24.7,140.5,22.7,137.9,21.8z M127.5,28c0.2,0.2,0.3,0.4,0.5,0.5c-0.8-0.3-1.4-0.8-1.8-1.4c-0.8-1.3,0-2.1,1.1-2.5
			c-0.3,0.4-0.6,0.9-0.7,1.4C126.5,26.9,126.9,27.5,127.5,28z M128.3,24.7C128.3,24.7,128.3,24.7,128.3,24.7
			c-0.5,0.6-0.8,1.2-0.9,1.8C127.3,25.7,127.7,25.1,128.3,24.7z M128,27.5c-0.3-0.6-0.3-1.1-0.1-1.6c0,0.5,0.2,1,0.6,1.4
			c0.4,0.3,0.8,0.5,1.2,0.7c0.3,0.2,0.7,0.4,1.2,0.6c0,0,0,0,0,0c-0.9,0-1.8-0.1-2.5-0.5C128.2,27.9,128.1,27.7,128,27.5z
			 M137.6,24.9c0.5,0.8,0.5,1.7-0.4,2.4c-0.2,0.2-0.4,0.3-0.7,0.4c-0.2,0.1-0.5,0.1-0.7,0.2c-1.7,0.3-3.9,0.4-5.6-0.1
			c0,0-0.1,0-0.1,0c-0.2-0.1-0.3-0.2-0.4-0.3c0.3,0.1,0.6,0.1,0.8,0.1c0.8,0,1.9,0.1,2.8,0c0.9,0.2,2,0,2.6-0.5
			c1.2-0.9,0.8-1.9-0.1-2.6c0.2,0,0.4,0.1,0.6,0.1C136.8,24.6,137.2,24.7,137.6,24.9z M136.7,23.5c0.4,0.1,0.8,0.2,1.3,0.3
			c0.1,0,0.3,0.1,0.6,0.2c0.3,0.1,0.6,0.3,0.9,0.5c-0.5-0.3-1.2-0.5-1.7-0.6c-0.2,0-0.4-0.1-0.6-0.1C137,23.6,136.9,23.5,136.7,23.5
			z M129.7,26.1c0.2,0.5,0.7,0.8,1.3,1c-0.4,0-0.8-0.1-1.1-0.1c-0.1,0-0.2-0.1-0.4-0.1C129.4,26.6,129.5,26.3,129.7,26.1z M129,26.6
			c-0.4-0.2-0.6-0.6-0.1-1c0.3-0.3,0.6-0.4,1-0.6c-0.1,0.1-0.2,0.2-0.2,0.4c-0.1,0.1-0.1,0.1-0.2,0.2C129.2,26,129.1,26.3,129,26.6z
			 M131.8,26c0.1,0.1,0.2,0.2,0.3,0.4c0,0,0.1,0,0.1,0.1c0,0.1,0,0.2,0.1,0.2c-0.6,0.1-1.3,0.1-1.8-0.2c-0.4-0.2-0.5-0.5-0.5-0.7
			c0,0,0.1,0,0.1-0.1c0.4-0.2,0.9-0.4,1.4-0.5c0,0,0,0,0,0C131.5,25.5,131.6,25.8,131.8,26z M132.1,25.3c0-0.1,0-0.2,0.1-0.2
			c0.1,0,0.3,0,0.4,0C132.4,25.1,132.2,25.2,132.1,25.3z M132.7,25.4c-0.1,0.1-0.2,0.2-0.3,0.4c-0.1,0-0.1-0.1-0.1-0.1
			c0,0,0.1-0.1,0.1-0.1C132.5,25.5,132.6,25.5,132.7,25.4z M135.4,25.6c0,0,0-0.1,0-0.1c0.2,0.1,0.4,0.3,0.3,0.6
			c-0.1,0.2-0.2,0.3-0.3,0.4C135.6,26.1,135.6,25.9,135.4,25.6z M136.1,26.3c0.3-0.6-0.3-1.1-0.9-1.4c-0.4-0.3-1-0.6-1.6-0.6
			c0.2,0,0.3,0,0.5-0.1c0.3,0,0.6,0,0.9,0c0.1,0.1,0.2,0.1,0.3,0.2C135.7,24.7,136.6,25.7,136.1,26.3z M133.6,25.3
			C133.6,25.3,133.6,25.3,133.6,25.3c0.1,0,0.2,0,0.3,0c0.4,0.2,0.8,0.5,0.1,0.7c-0.3,0.1-0.7,0.2-1,0.1c0,0-0.1,0-0.1,0
			C133,25.7,133.3,25.4,133.6,25.3z M131.2,24.2c-1.1,0.2-2.4,0.6-2.9,1.4c0,0,0,0,0,0c0-0.2,0.1-0.4,0.2-0.7
			c0.6-0.5,1.5-0.9,2.3-1.2c0.8-0.1,1.6-0.1,2.3,0C132.6,23.8,131.8,23.9,131.2,24.2z M130.6,29c0.7,0,1.4,0,2.1,0
			c1.4,0.2,2.8,0.1,4.1-0.2c-0.3,0.1-0.6,0.2-0.9,0.3c-1.2,0.2-2.5,0.3-3.8,0.2c-0.8-0.1-1.9-0.2-2.8-0.5
			C129.8,28.9,130.3,29,130.6,29z M135.5,28.6c0.3-0.1,0.7-0.2,1-0.3c0,0,0,0,0.1,0c0.5-0.2,1-0.4,1.5-0.7c0.4-0.3,0.7-0.7,0.8-1.2
			c0.1,0.5,0,1-0.3,1.4C137.6,28.2,136.5,28.5,135.5,28.6z M138.9,28c0.4-0.2,0.8-0.5,1.2-0.8c-0.2,0.2-0.4,0.4-0.6,0.5
			c-0.2,0.2-0.5,0.3-0.7,0.4C138.8,28.1,138.9,28.1,138.9,28z M139.3,27.3c0-0.1,0-0.2,0-0.3c0.1-1.1-0.6-2.1-1.5-2.7
			c0.3,0.1,0.6,0.1,0.8,0.2c0.6,0.2,1.3,0.6,1.7,1.2c0.1,0.1,0.1,0.3,0.1,0.4c-0.1,0.1-0.2,0.3-0.3,0.4
			C139.9,26.8,139.6,27.1,139.3,27.3z M131.6,21.4c1.6-0.1,3.3,0,4.9,0.4c0.5,0.1,1.1,0.3,1.6,0.5c-0.5-0.1-1-0.2-1.5-0.3
			c-2.3-0.4-4.6-0.5-6.9-0.1c-1,0.2-2.4,0.5-3.5,1.2C127.8,22,129.8,21.6,131.6,21.4z M125,26.9c-0.1-0.4-0.2-0.8-0.1-1.2
			c0.3-1.5,1.9-2.4,3.3-2.8c2.6-0.9,5.4-0.9,8-0.5c1.1,0.2,2.2,0.3,3.1,0.9c0.4,0.2,0.8,0.5,1,0.9c-0.6-0.4-1.2-0.6-1.8-0.8
			c-2.2-0.9-5-1-6.6-0.8c-1,0.1-2.5,0.5-3.6,1.3c-0.1,0-0.3,0.1-0.4,0.1c-1.4,0.4-3.3,1.8-2,3.4c0.3,0.4,0.6,0.7,1,1
			C126.1,28,125.3,27.6,125,26.9z M137.2,29.9c-1.6,0.4-3.2,0.6-4.9,0.5c-2-0.1-4.2-0.3-5.9-1.5c-0.3-0.2-0.6-0.5-0.8-0.8
			c0.6,0.4,1.2,0.7,1.9,0.8c0.7,0.2,1.3,0.3,2,0.4c0.4,0.1,0.7,0.2,1.1,0.3c0.5,0.1,1,0.2,1.5,0.2c2,0.3,4.2,0.3,6.1-0.4
			c0.1,0,0.1-0.1,0.1-0.1c0.4-0.1,0.8-0.3,1.2-0.4C138.8,29.5,138,29.7,137.2,29.9z M140.6,27.9c-0.7,0.6-1.6,0.9-2.6,1.1
			c1.2-0.4,2.6-1.1,2.8-2.2c0,0,0-0.1,0-0.1C140.9,27.2,140.8,27.5,140.6,27.9z M141.4,27C141.4,27.1,141.3,27.1,141.4,27
			c0-0.5-0.1-1-0.3-1.4c0-0.1,0-0.2,0-0.2C141.6,25.9,141.8,26.4,141.4,27z M141.9,25.9c-0.1-0.4-0.4-0.8-0.8-1.1
			c0-0.1-0.1-0.2-0.1-0.4c-0.1-0.4-0.3-0.6-0.6-0.9c0.4,0.3,0.7,0.6,1,1.1C141.7,25,141.8,25.5,141.9,25.9z"/>
		<path class="st2" d="M139.8,21.2c-2.1-0.8-4.4-1.2-6.7-1.1c-2.6,0.2-5.8,0.7-8,2.2c-1.8,1.2-2.9,3.1-2,5.3c0.9,2.1,3,3.5,5.1,3.9
			c2.2,0.5,4.5,0.7,6.7,0.7c1.2,0,2.9,0,4.1-0.5c0,0.1,0.1,0.2,0.3,0.1c1-0.3,2-0.8,2.9-1.5c1.5-1.3,2.3-3.3,1.6-5.3
			C143.2,23.1,141.7,21.9,139.8,21.2z M143.6,27.3c-0.4,2-1.9,3.3-3.7,3.9c0.1,0,0.1-0.1,0.2-0.1c0.1-0.1,0-0.2-0.1-0.1
			c-1.3,1.2-3.8,1.1-5.4,1c-1.9-0.1-4-0.2-5.9-0.6c-2.2-0.5-4.8-1.9-5.4-4.4c-0.7-2.9,2.1-4.6,4.5-5.4c4.1-1.3,9-1.8,13,0.4
			C142.5,23,144.1,25,143.6,27.3z"/>
		<path class="st2" d="M65.5,50c-2.6,0.3-5.2,1.3-7.4,2.7c-1.3,0.8-2.7,2.4-1.3,3.8c1.3,1.3,3.3,1.8,5,1.9c0.4,0,0.8,0,1.2,0
			c-0.9,0.1-1.9,0.2-2.8,0.1c-0.1,0-0.1,0.2,0,0.2c1.7,0.2,3.4,0,5-0.4c2-0.3,4-0.9,5.2-2.2c1.3-0.9,2.8-2.2,1.9-3.7
			C70.9,50.1,67.9,49.6,65.5,50z M69.4,51.6c-0.4-0.3-0.8-0.5-1.3-0.6c0.4,0,0.8,0,1.2,0.1c0.7,0.2,1,0.6,1.1,1
			C70.2,51.9,69.8,51.8,69.4,51.6z M70.3,53.6c-0.1,0.2-0.3,0.4-0.4,0.6c0,0,0,0-0.1,0.1c0.2-0.3,0.4-0.7,0.4-1.1
			C70.3,53.3,70.3,53.5,70.3,53.6z M62.6,55c0.3,0.1,0.7,0.1,0.9-0.1c0.2,0,0.4,0.1,0.6,0c-0.6,0.2-1.3,0.3-1.9,0.3
			c-0.4,0-0.8,0-1.2,0c0.1-0.2,0.3-0.4,0.6-0.6c0.2-0.1,0.5-0.2,0.9-0.3c0,0,0,0.1,0,0.1c-0.1,0.1-0.1,0.2-0.1,0.3
			C62.4,54.8,62.5,54.9,62.6,55z M65.4,54.3c-0.1-0.2-0.4-0.4-0.6-0.5c0.1,0,0.2,0,0.3,0c0.2,0,1,0.1,1,0.1
			c-0.1,0.2-0.3,0.3-0.5,0.4c-0.1,0-0.2,0.1-0.2,0.1C65.5,54.4,65.4,54.3,65.4,54.3z M64.9,54.3c-0.3,0.1-0.6,0.2-0.9,0.2
			c0.1-0.1,0.1-0.3,0.1-0.4C64.4,54.1,64.7,54.2,64.9,54.3z M63.7,55.5c1-0.2,2.5-0.6,2.9-1.7c0-0.1,0-0.2-0.1-0.3
			c-0.7-0.5-2-0.4-3,0c-0.1,0-0.3,0.1-0.4,0.1c-0.2,0-0.4,0.1-0.5,0.1c-0.7,0.2-1.8,0.5-2.1,1.3c-0.2-0.1-0.4-0.1-0.5-0.2
			c0,0-0.1,0-0.1-0.1c0-0.1,0-0.2,0.1-0.3c0,0,0.1-0.1,0.1-0.1c1.1-0.7,2.3-1.3,3.6-1.8c0.5,0,0.9,0.1,1.3,0.2
			c0.6,0.1,1.5,0.4,1.8,1c0.3,0.6-0.1,1.2-0.6,1.6c-1.1,0.7-2.5,1-3.8,1.1c0,0-0.1,0-0.1,0c-0.1,0-0.1,0-0.2,0
			c-0.3-0.1-0.5-0.1-0.7-0.3c-0.3-0.2-0.4-0.3-0.5-0.5C61.9,55.8,62.9,55.7,63.7,55.5z M60.8,57C60.9,57,60.9,57,60.8,57
			c-0.4,0.1-0.9,0.1-1.4,0c-0.2-0.1-0.4-0.1-0.5-0.2C59.5,56.9,60.2,57,60.8,57z M59.1,55.4c0.1-0.1,0.2-0.3,0.3-0.4
			c0,0.3,0.1,0.7,0.3,1c0,0,0.1,0.1,0.1,0.1c-0.1,0-0.2-0.1-0.3-0.2C59.3,55.8,59.1,55.6,59.1,55.4z M60.2,55.9
			c-0.1-0.2-0.2-0.4-0.3-0.6c0.2,0.1,0.4,0.2,0.6,0.2c0,0.4,0.2,0.7,0.5,0.9C60.7,56.3,60.4,56.2,60.2,55.9z M61.6,52.4
			C61.6,52.4,61.6,52.4,61.6,52.4c0.8-0.3,1.6-0.4,2.5-0.4c-0.3,0.1-0.6,0.1-1,0.2C62.6,52.2,62.1,52.3,61.6,52.4z M67.1,53.3
			c-0.6-0.6-1.4-0.9-2.3-1c0.3,0,0.6-0.1,0.9-0.1c0.4,0.1,0.7,0.2,1,0.4c0.7,0.4,1.4,1,0.8,1.8c-0.1,0.1-0.2,0.2-0.2,0.3
			C67.5,54.2,67.5,53.7,67.1,53.3z M65.3,51.7c-0.4-0.1-0.8-0.1-1.2-0.1c0.4-0.1,0.9-0.2,1.3-0.3c0,0,0.1,0,0.1,0c0.1,0,0.1,0,0.2,0
			c0.7,0,1.4-0.1,2.1,0.1c-0.1,0-0.2,0-0.3,0C66.8,51.4,66.1,51.5,65.3,51.7z M67.7,54.9c0.9-1.2,0.1-2.2-1-2.7c1,0,2,0.1,2.7,0.5
			c0.1,0,0.1,0.1,0.2,0.1c0.3,0.8-0.2,1.7-1,2.3c-0.7,0.5-1.4,0.8-2.2,1.1C66.9,55.7,67.4,55.3,67.7,54.9z M70.9,54.3
			c-0.3,0.8-0.7,1.4-1.3,1.9c-0.3,0.1-0.5,0.3-0.8,0.4c-0.9,0.4-1.8,0.8-2.7,1.1c-1.3,0.3-2.6,0.4-3.8,0.3c-1-0.1-2-0.2-3-0.5
			c-1.1-0.4-3.2-1.3-2.6-2.8c0.4-1.1,1.7-1.8,2.8-2.3c1.1-0.6,2.2-1.1,3.4-1.4c2.1-0.6,4.7-1.1,6.8-0.2c-0.5-0.1-1.1-0.2-1.6-0.2
			c-2.6,0-5.7,0.7-8.1,1.9c-0.9,0.5-3.2,1.7-2.4,3.1c0.2,0.3,0.4,0.5,0.6,0.7c0,0.1,0.1,0.2,0.1,0.4c0.7,1.2,2.6,0.7,3.7,0.6
			c0.3,0,0.6-0.1,0.9-0.1c1.3,0,2.7-0.3,3.8-0.6c1.3-0.4,3.4-1.1,3.9-2.5c0-0.1,0.1-0.2,0.1-0.3c0.1-0.2,0.2-0.4,0.3-0.5
			C71,53.6,71.1,53.9,70.9,54.3z M58.3,55.5c0,0.1-0.1,0.1-0.1,0.2c-0.4-0.5-0.4-1.1,0.3-1.7c0.1-0.1,0.2-0.1,0.3-0.2
			C58.4,54.3,58.2,54.9,58.3,55.5z M71.5,54.8c-0.1,0.1-0.3,0.2-0.4,0.4c0.1-0.3,0.3-0.6,0.3-1c0.1-0.6,0-1.1-0.3-1.5
			c0.1-0.4,0-0.8-0.2-1.2c-0.1-0.1-0.2-0.3-0.4-0.4c0,0,0.1,0.1,0.1,0.1C72,52.2,72.7,53.5,71.5,54.8z"/>
		<path class="st2" d="M72,50.1c-2.1-1.2-4.6-1.3-7-1c-2.2,0.3-4.5,0.9-6.6,1.8c-1.4,0.6-4,1.8-4,3.7c0,2,1.9,3.8,3.7,4.5
			c1.7,0.7,3.6,1,5.4,0.8c0,0,0.1,0,0.1,0c0.1,0,0.1,0,0.2-0.1c0.1,0,0.2,0,0.3,0c0.1,0,0.1-0.1,0.1-0.1c2-0.6,4.1-0.8,6-1.5
			c1.6-0.6,3.7-1.8,4.1-3.7C74.7,52.7,73.6,51,72,50.1z M72.9,56.2c-2.4,2.3-5.8,2.3-8.8,3.3c0-0.1-0.1-0.1-0.2-0.1
			c-1.9,0.4-4.1,0.1-5.9-0.8c-1.8-0.9-4.5-3.4-2.5-5.4c1.2-1.2,2.9-1.9,4.6-2.5c1.8-0.6,3.7-1.1,5.5-1.3c2.1-0.2,4.6-0.1,6.4,1.2
			C74,52,74.8,54.3,72.9,56.2z"/>
		<path class="st2" d="M66.9,45.4c0.4,0.2,0.9,0.4,1.4,0.5c0.6,0.3,1.2,0.4,1.9,0.4c0.3,0,0.6,0,0.8-0.1c0.8,0,1.6-0.2,2.3-0.3
			c-1.3,0.5-2.8,0.8-4.1,0.7c-0.1,0-0.1,0.1,0,0.2c1.8,0.1,3.7-0.3,5.3-1.2c0.2-0.1,0.4-0.2,0.6-0.4c1.5-0.7,2.9-1.7,2.7-3.4
			c0-0.1,0-0.2-0.1-0.4c-0.3-2.3-4.3-2.9-6.1-2.7c-1.9,0.2-4.3,1.1-5.4,2.7C65.3,42.9,65.3,44.6,66.9,45.4z M71.3,45.7
			c-0.3,0-0.6,0-0.8,0c-0.6,0-1.2-0.1-1.9-0.2c-0.4-0.2-0.7-0.4-0.9-0.8c-0.2-0.5-0.1-1,0.1-1.5c0,0.1,0,0.2,0,0.3
			c0.1,0.5,0.5,0.8,0.9,1c0.2,0.2,0.5,0.4,0.7,0.5c1,0.5,2.6,0.5,3.9,0.1C72.7,45.4,72,45.6,71.3,45.7z M73.1,42.7
			c0.1,0.2,0.1,0.4-0.3,0.6c-0.3,0.2-2.8,0.8-2.4-0.2c0,0,0.1-0.1,0.1-0.1C71.2,43.5,72.4,43.3,73.1,42.7z M71.7,42.8
			c0.2-0.2,0.5-0.3,0.8-0.2C72.3,42.7,72,42.8,71.7,42.8z M70,41.9c-0.3,0.1-0.7,0.2-1.2,0.4c0,0,0-0.1,0.1-0.1
			c0.5-0.4,1.1-0.7,1.7-1c0.9-0.3,2-0.4,2.6-0.4c0.8,0,1.9,0,2.5,0.6c0.7,0.6,0.5,1.7-0.1,2.3c-0.1,0.1-0.2,0.2-0.3,0.3
			c0.8-1,0.5-2.2-0.8-2.5c-0.2-0.1-0.3-0.1-0.5-0.1c-0.4,0-1,0-1.5,0.1C71.7,41.5,70.8,41.6,70,41.9z M70.3,42.3c0.1,0,0.1,0,0.2,0
			c-0.1,0.1-0.2,0.2-0.3,0.3c-0.8,1,0.4,1.7,1.3,1.6c0.8-0.1,2.7-0.6,2-1.8c-0.2-0.3-0.5-0.4-0.9-0.4c0.4-0.1,0.7-0.1,1.1-0.2
			c0.3,0,0.7,0.1,0.9,0.2c0.1,0.1,0.2,0.2,0.2,0.4c-0.2,1.6-3.7,2-4.9,1.9c-0.2,0-0.7-0.1-1.1-0.2c-0.1-0.1-0.2-0.3-0.2-0.5
			c0-0.2,0-0.3,0-0.5C69,42.6,69.7,42.4,70.3,42.3z M73.6,44.5c-0.6,0.2-1.3,0.4-1.9,0.4c-0.5,0-1.2,0-1.8-0.2c0.3,0,0.6,0,0.8,0
			c1.4-0.1,3.2-0.4,4.2-1.6c0.2-0.2,0.3-0.5,0.3-0.7C75.8,43.3,74.4,44.2,73.6,44.5z M77.5,41.9c0,0.3-0.1,0.6-0.3,1
			c-0.3,0.4-0.6,0.9-1,1.2c-0.5,0.3-1,0.6-1.4,0.8c0.2-0.1,0.3-0.2,0.5-0.4c0.9-0.7,1.9-1.9,1.2-3.1c-0.4-0.7-1.1-1-1.9-1.1
			c0.9,0,1.9,0.1,2.5,0.7C77.3,41.4,77.4,41.7,77.5,41.9z M70.5,39.5c1.5-0.4,3.1-0.5,4.5,0c0.5,0.2,1,0.4,1.4,0.8
			c-0.9-0.4-2.1-0.4-2.9-0.3c-1,0.1-2,0.3-2.9,0.7c-0.6,0.2-1.3,0.5-1.7,0.9c-1,0.6-2.1,1.6-1.9,2.8c0.1,0.3,0.2,0.6,0.4,0.8
			c-0.3-0.2-0.7-0.4-0.9-0.6C64.4,42.3,68.8,39.9,70.5,39.5z"/>
		<path class="st2" d="M67.9,47.3C67.8,47.3,67.8,47.3,67.9,47.3c-0.2,0-0.2,0.2-0.1,0.2c2.4,0,4.8,0.3,7.1-0.3
			c1.8-0.5,3.8-1.4,4.6-3.2c1.3-2.8-2.8-5-4.8-5.5c-2.9-0.8-6.9,0.1-9,2.3C63.2,43.2,64.9,46.6,67.9,47.3z M67.4,39.9
			c2.3-1.2,5-1.8,7.5-1c2.2,0.8,6.2,3.4,3.4,5.9c-2.5,2.3-6,2.5-9.3,2.4c0.1-0.1,0-0.3-0.2-0.3c-1.9-0.1-4-1.5-4-3.6
			C64.9,41.7,66,40.6,67.4,39.9z"/>
		<path class="st2" d="M87,57.8c-3.2-1.6-7.3-1.4-10.5,0.2c-0.1,0.1,0,0.2,0.1,0.2c2.7-1.2,6.2-1.5,9-0.6c1.4,0.5,3.9,1.9,3.2,3.8
			c-0.6,1.6-2.5,2.4-4.1,2.7c-2.2,0.5-4.8,0.8-7-0.1c-1-0.4-2-1.1-2.3-2.1c0.1,0.1,0.2,0.2,0.3,0.3c1.8,1.6,5.2,1.7,7.5,1.4
			c1.2-0.1,2.7-0.4,3.5-1.4c0.7-0.8,0.6-2.1-0.3-2.8c0,0-0.1-0.1-0.2-0.1c-0.2-0.2-0.4-0.4-0.7-0.6c-1.6-1-3.7-1-5.5-0.7
			c-0.9,0.1-3.6,0.9-4.6,2c0.4-1.1,1.4-1.8,2.7-1.8c0.3,0,0.3-0.4,0-0.4c-1.6,0-3,1.1-3.3,2.7c-0.2,1.2,0.4,2.4,1.4,3.1
			c2.4,1.7,6.2,1.5,8.9,0.7c1.4-0.4,3.7-1.3,4-2.9C89.5,59.9,88.3,58.5,87,57.8z M86.3,60c0.2,0.3,0.2,0.6,0,0.9
			c-0.4,0.6-1.2,1-1.9,1.2c-1.2,0.4-2.7,0.8-4,0.7c0.7,0,1.3-0.2,1.9-0.3c0.9-0.2,3.8-1.3,2.6-2.7c-0.3-0.4-0.7-0.6-1.1-0.8
			C84.5,59.2,85.6,59.4,86.3,60z M79.4,61.2c0.7,0.2,3,0.3,3.3-0.6c0.4-1.3-1.8-1-2.3-0.4c-0.1,0.1-0.1,0.3,0,0.4
			c0.1,0.1,0.2,0.1,0.4,0.2c0.1,0.1,0.1,0.1,0.2,0c0.2,0,0.3,0,0.5-0.1c0.2-0.1,0.1-0.4-0.1-0.4c0,0-0.1,0-0.1,0
			c0.2,0,0.3-0.1,0.5-0.1c0.3,0.3,0.3,0.5,0,0.6c-0.1,0-0.1,0-0.2,0.1c-0.1,0-0.3,0.1-0.4,0.1c-0.5,0.1-1.5,0.2-2-0.1
			c-0.6-0.4,1.2-0.8,1.4-0.9c0.5-0.1,1-0.2,1.5-0.2c0.4,0,0.8,0.1,1.2,0.2c0.3,0.1,0.5,0.2,0.8,0.3c0.1,0.5,0,0.9-0.5,1
			c-0.5,0.2-1,0.3-1.6,0.4c-1.3,0.2-3.1,0.4-4.2-0.3c-0.3-0.2-0.5-0.5-0.5-0.8c0.3-0.3,0.8-0.5,1.1-0.6c0.9-0.4,1.8-0.6,2.8-0.7
			c0.2,0,0.3,0,0.5,0c-0.8,0-1.5,0.2-2.2,0.5C78.8,59.9,78.2,60.8,79.4,61.2z M79.1,61.9c1.3,0.2,3,0.1,4.3-0.3
			c-0.5,0.2-1.1,0.4-1.4,0.5c-0.9,0.2-1.9,0.4-2.9,0.2c-0.6-0.1-2.5-0.5-2.2-1.4l0,0C77.4,61.6,78.4,61.8,79.1,61.9z M77.8,59.1
			c2-0.7,4.7-1.1,6.7-0.4c0,0,0.1,0,0.1,0c-1.2-0.3-2.4-0.3-3.7-0.1c-0.2,0-0.3,0-0.5,0c-1,0.1-3.1,0.2-3.5,1.4c0,0.1,0,0.2-0.1,0.3
			c-0.4,0.5-0.6,1,0,1.6c0.8,0.8,1.9,1,3,0.9c0,0,0,0.1,0,0.1c1.2,0.1,2.5-0.1,3.6-0.4c0.9-0.2,2.3-0.6,2.9-1.5
			c0.1-0.2,0.2-0.4,0.2-0.7c0.2,0.3,0.2,0.8-0.1,1.3c-0.8,1.4-2.8,1.6-4.2,1.6c-1.7,0.1-3.5-0.1-5.1-0.7c-0.7-0.2-1.8-0.7-1.8-1.6
			C75.6,59.9,77,59.4,77.8,59.1z"/>
		<path class="st2" d="M42.7,63.1c-0.6,0.3-1.5,0.8-1.8,1.5c-0.1,0.2-0.2,0.3-0.2,0.5c-0.1,0.7,0.3,1.1,1,1.3c1.1,0.9,3,1,4.3,1.1
			c1.7,0.1,3.5,0.1,5.2-0.2c2.2-0.2,4.6-0.8,5.2-2.7C57.7,59.3,45.1,62,42.7,63.1z M41.3,64.9c0,0,0.1-0.1,0.1-0.1
			c0.9-0.8,2.3-1,3.5-1.3c0.2,0,0.4-0.1,0.5-0.1c-0.5,0.3-1,0.8-1.3,1.3c-0.4,0.8,0,1.2,0.7,1.5c-0.4,0-0.7,0-1.1,0
			c-0.3,0-1.3-0.1-2-0.3C41.5,65.6,41.2,65.3,41.3,64.9z M53.6,63.3c0.1,0,0.2,0.1,0.3,0.1c1.1,0.6,0.7,1.6-0.3,2.1
			c-1,0.5-2.2,0.6-3.3,0.7c0.7-0.2,1.3-0.4,1.7-0.8c0.7-0.2,1.3-0.5,1.6-1C53.9,63.8,53.9,63.5,53.6,63.3z M48,65.4
			c-0.3,0-0.6,0-0.8,0c-0.3,0-0.5,0-0.8-0.1c0.4-0.4,1.2-0.7,1.5-0.8c0.8-0.3,1.8-0.5,2.6-0.3c1.3,0.3-0.4,0.9-0.8,1
			C49.1,65.3,48.5,65.4,48,65.4z M48.4,65.9c-0.6,0.1-1.1,0.2-1.7,0.2c-0.1,0-0.2-0.1-0.2-0.1c-0.1-0.1-0.2-0.1-0.2-0.2
			c0.4,0.1,0.8,0.1,1.2,0.1C47.8,65.9,48.1,65.9,48.4,65.9z M52.5,64.7c0-0.1,0-0.3,0-0.4c-0.2-0.6-0.8-0.9-1.4-1.1
			c0.7-0.1,1.4,0,1.9,0.3C53.7,63.9,53,64.4,52.5,64.7z M50.3,63c0,0-0.1,0-0.1,0c-0.2,0-0.5-0.1-0.7-0.1c0.6,0,1.3,0,1.9,0
			c0.1,0,0.2,0,0.2,0C51.2,62.9,50.8,62.9,50.3,63z M50,63.3c0.3,0,0.6,0.1,0.9,0.3c0.3,0.1,1.6,0.7,0.9,1.3c0,0-0.1,0-0.1,0.1
			c-0.2,0.1-0.5,0.1-0.7,0.2c0.1-0.1,0.2-0.2,0.3-0.4c0.6-1-1.4-1.1-1.9-1.1c-1,0.1-2.8,0.4-3.5,1.4c0-0.1,0-0.2,0.3-0.4
			c0.6-0.5,1.3-0.7,2-0.9C48.7,63.6,49.3,63.5,50,63.3z M45.6,64.7c0-0.4,0.7-0.7,0.9-0.8c0.4-0.2,0.8-0.3,1.3-0.4
			C47.1,63.6,45.9,64,45.6,64.7z M45.7,65.6c0,0.2,0,0.3,0.1,0.4c-0.9-0.2-2-0.7-0.8-1.7c0.1-0.1,0.2-0.1,0.3-0.2
			c-0.1,0.1-0.2,0.3-0.3,0.5C44.9,65,45.3,65.4,45.7,65.6z M47,67.1c-1.2-0.1-2.4-0.1-3.6-0.4c1,0,2.2,0,3.3-0.2c0.1,0,0.2,0,0.2,0
			c0.3,0.1,0.5,0.1,0.7,0.1c1.5,0.1,3-0.1,4.5-0.3c0.4-0.1,1-0.2,1.6-0.5c-0.8,0.4-1.7,0.7-2.2,0.8C50,67.1,48.5,67.2,47,67.1z
			 M54.4,66.1c-0.3,0.1-0.6,0.3-0.9,0.4c1.2-0.6,2.7-2.1,1.2-3.2c-1.3-1-3.3-1.1-4.8-1c-0.8,0-1.7,0.1-2.6,0.4
			c-1.4,0.2-2.7,0.4-4,0.8c-0.2,0.1-0.4,0.1-0.7,0.2c1-0.6,2.3-0.9,3.3-1.2c1.2-0.3,2.5-0.5,3.7-0.6c1.6-0.1,3.5-0.3,5,0.3
			C56.7,63.1,56.2,65.2,54.4,66.1z"/>
		<path class="st2" d="M55.5,60.5c-3-1.3-7-0.6-10.2,0.1c-2.1,0.5-6.7,1.4-6.5,4.4c0.3,3.3,4.9,4,7.7,4.1c0,0.1,0,0.2,0.1,0.2
			c1.9-0.2,3.8-0.2,5.7-0.5c2.1-0.4,4.7-1.2,5.6-3.3C58.9,63.4,57.2,61.2,55.5,60.5z M52.9,68.2c-1.8,0.4-3.7,0.4-5.5,0.6
			c0-0.1-0.1-0.2-0.2-0.2c-1.7,0-3.5-0.2-5.1-0.8c-1.4-0.5-3.6-2.1-2.7-3.9c0.7-1.3,2.2-1.9,3.5-2.3c1.4-0.5,2.8-0.8,4.3-1
			c3.2-0.5,8.4-1.4,10.2,2.1C59.1,65.8,55.5,67.7,52.9,68.2z"/>
		<path class="st2" d="M63.9,66.6c-0.7,0.3-2.3,0.9-2.1,1.9c0.2,1.1,1.8,1.4,2.7,1.6c1,0.2,2,0.1,3.1-0.1c0.9-0.2,2.2-0.4,2.8-1.2
			c0,0,0-0.1,0.1-0.1c-0.5,1.3-3.1,1.7-4.3,1.8c-0.1,0-0.1,0.2,0,0.1c1.4-0.2,6-0.9,4.5-3.4C69.4,65.3,65.8,66,63.9,66.6z
			 M68.6,69.4c-1.5,0.4-3.1,0.6-4.7,0.2c-0.5-0.1-1.2-0.3-1.6-0.7c-0.6-0.6,0.3-1.3,0.9-1.5c0,0,0,0,0.1,0c0,0-0.1,0-0.1,0.1
			c-1,0.8-0.4,1.7,0.7,1.9c1.3,0.3,3,0.2,4.2-0.4c0.8-0.4,1.2-1.2,0.3-1.7c-1.1-0.5-2.8-0.3-3.9,0.1c-0.6,0.3-1.1,1.1-0.6,1.5
			c-0.6-0.2-1.2-0.5-0.5-1.1c0.7-0.6,1.8-0.8,2.8-0.9c1.2-0.1,3.4-0.2,4,1.2C70.5,68.8,69.2,69.2,68.6,69.4z M68,68.2
			C68,68.2,68,68,68,68c-0.8-1-2.3,0-2.3,0.7c-0.2,0-0.4,0-0.6,0c-0.3,0-1.5-0.2-0.8-0.7c0.3-0.2,0.7-0.4,1-0.4
			c0.8-0.2,1.7-0.3,2.5-0.1c1.2,0.3,0.6,1-0.3,1.3c-0.2,0.1-0.4,0.1-0.6,0.2C67.3,68.7,67.7,68.5,68,68.2z M66.1,68.6
			c0.1-0.2,0.8-0.7,1-0.6c0.8,0.1,0.4,0.2,0,0.4C66.8,68.4,66.5,68.5,66.1,68.6z M68.4,66.5c-0.2,0-0.4-0.1-0.7-0.1
			c1.2,0,2.5,0.3,2.8,1.4c0,0.1,0,0.1,0,0.2C70.3,67.2,69,66.6,68.4,66.5z"/>
		<path class="st2" d="M67.5,64.4c-2.3-0.2-5.6,0.4-7.2,2.2c-0.8,0.9-0.5,2.2,0.2,3c0.7,0.8,1.7,1.4,2.7,1.7c0,0.1,0,0.1,0.1,0.1
			c1.9,0.3,4,0.5,5.9-0.2c1.3-0.4,3.2-1.4,3.5-3C73.1,65.7,69.4,64.6,67.5,64.4z M72.1,68.7c-1.4,2.4-4.5,2.8-7.2,2.7
			c0-0.1,0-0.2-0.2-0.2c-1.6-0.1-3.5-0.7-4.2-2.2c-0.7-1.3,0-2.3,1.2-2.9c1.6-0.9,3.8-1.4,5.7-1.2C69,65,73.5,66.3,72.1,68.7z"/>
		<path class="st2" d="M102.1,56.8c-1.7-0.2-3.6-0.1-5.1,0.5c-1,0.4-2.1,1.8-0.9,2.7c1.1,0.9,2.9,0.8,4.2,0.6
			c1.4-0.2,2.8-0.4,3.9-1.2c0.6-0.2,1.1-0.5,1.2-1.2C105.7,57,102.8,56.9,102.1,56.8z M102.4,57.7c0,0,0.1,0,0.1,0
			c0.2,0,0.4,0,0.7,0c0.5,0.1,0.9,0.3,0.8,0.6c-0.2,0.4-0.8,0.6-1.2,0.7c-0.4,0.1-0.8,0.2-1.2,0.3c0.1,0,0.2-0.1,0.3-0.1
			c0.2-0.1,0.3-0.2,0.4-0.3c0.1-0.1,0.2-0.3,0.2-0.5c0,0,0,0,0-0.1C102.6,58.1,102.5,57.8,102.4,57.7z M96.2,59.1c0,0.1,0,0.3,0,0.4
			c-0.3-0.4-0.4-1,0.2-1.4c0.7-0.6,1.7-0.8,2.6-0.9c0.5-0.1,1.1-0.1,1.6-0.1c-0.3,0-0.5,0.1-0.8,0.1C98.7,57.4,96.5,57.7,96.2,59.1z
			 M98.9,58.9c-0.1,0-0.2,0-0.3-0.1c0.1-0.1,0.2-0.2,0.3-0.2C98.9,58.7,98.9,58.8,98.9,58.9z M96.6,59.5c-0.1-0.7,0.5-1.1,1.4-1.4
			c-0.1,0.1-0.3,0.2-0.4,0.3c-0.1,0.1-0.1,0.2,0,0.3c0.1,0.2,0.3,0.3,0.5,0.5c0,0.1,0.1,0.2,0.2,0.3c0.4,0.3,1,0.4,1.6,0.3
			c0.3,0,0.5,0.1,0.8,0.1C99.7,60,96.7,60.4,96.6,59.5z M99.5,59c-0.1-0.2,0-0.3,0.4-0.5c0.4-0.1,0.8-0.2,1.3-0.2
			c0.3,0,0.6,0,0.8,0.1c0.1,0,0.1,0,0.2,0c0,0,0,0,0,0.1c0,0-0.1,0.1-0.1,0.1c-0.3,0.2-0.7,0.3-1.1,0.3C100.5,58.9,100,59,99.5,59z
			 M104.3,58.8c-0.3,0.3-0.7,0.6-1.2,0.8c0,0-0.1,0-0.1,0c-0.5,0.2-1.1,0.3-1.6,0.3c0-0.1,0-0.1-0.1-0.2c0.8,0,1.7-0.2,2.3-0.6
			c0.6-0.3,0.8-0.8,0.7-1.2C104.6,58.1,104.7,58.4,104.3,58.8z M104.9,58.6c0.1-0.3,0.1-0.6-0.1-0.8C105.1,58,105.2,58.3,104.9,58.6
			z"/>
		<path class="st2" d="M98.9,55.4c-1.4,0.3-2.9,0.8-4.1,1.8c-0.8,0.7-1.7,1.9-1.3,3c0.8,2.1,4.1,2.1,5.9,2c0.1,0,0.1,0,0.2-0.1
			c1.6,0,3.1-0.3,4.5-1c1.1-0.6,3.2-1.9,2.5-3.4C105.5,54.8,101.3,54.9,98.9,55.4z M103.1,61.2c-1.1,0.4-2.2,0.6-3.4,0.7
			c0-0.1-0.1-0.2-0.2-0.2c-1.5,0-4.2,0.1-5.3-1.2c-0.8-1,0.1-2.4,0.9-3.1c1-0.8,2.2-1.3,3.4-1.5c2.2-0.5,5.7-0.8,7.4,1.1
			C107.4,58.9,104.6,60.6,103.1,61.2z"/>
		<path class="st2" d="M126.8,55.7c-0.2-0.1-0.3-0.2-0.5-0.3c-0.7-0.7-2.1-1-2.9-1.2c-2-0.3-4.1-0.3-6.1,0.3
			c-1.1,0.3-4.3,1.7-2.8,3.3c1.5,1.6,4.1,1.6,6.2,1.5c1.7-0.1,3.6-0.2,5.1-0.9C126.9,57.9,128,56.6,126.8,55.7z M125.3,58
			c-0.3,0.1-0.5,0.3-0.8,0.4c-1,0.2-2,0.3-2.4,0.4c-1.2,0.1-2.5,0.2-3.7,0.1c-0.6-0.1-1.3-0.1-1.9-0.4c-0.7-0.2-2.4-1-1.7-2.1
			c0.9-1.3,3-1.8,4.5-1.9c1.2-0.1,2.4-0.2,3.5,0c0.7,0.1,1.5,0.2,2.2,0.5c-0.8-0.2-1.7-0.2-2.5-0.2c-1.4,0-2.8,0.2-4.1,0.6
			c-0.1,0-0.2,0.1-0.4,0.1c-0.9,0.2-1.9,0.6-2.1,1.4c-0.1,0.4,0.3,0.8,0.7,1.1c0.8,0.8,2.8,0.6,3.7,0.6c0.5,0,1-0.1,1.5-0.1
			c0.6,0,1.2-0.1,1.8-0.3c0.3-0.1,0.7-0.3,0.9-0.6c0.8-0.7,0.5-1.7-0.5-2.1c-0.2-0.1-0.3-0.1-0.5-0.1c0.9,0,1.9,0.1,2.6,0.5
			C126.7,56.5,126.2,57.5,125.3,58z M117.5,57.1c1.2,0.8,3.6,1,4.7-0.1c0.1-0.1,0.1-0.3,0-0.4c-0.9-0.7-2.8-0.7-3.6,0.1
			c-0.1,0.1-0.1,0.2,0,0.3c-0.1,0-0.1,0-0.2,0c-0.4-0.1-0.7-0.2-0.1-0.5c1-0.5,2.5-0.4,3.6-0.3c0.6,0.1,1.2,0.1,1.7,0.3
			c0.7,0.2,0.5,0.5,0.1,0.8c-0.6,0.3-1.3,0.4-1.9,0.5c-0.6,0-1.3,0-1.9,0c-0.7,0-1.5,0.1-2.3-0.1c-0.7-0.3-1.3-0.8-0.3-1.4
			c0.2-0.1,0.3-0.2,0.5-0.3c0.1,0,0.2-0.1,0.3-0.1c0.3-0.1,0.7-0.2,1-0.2c1.1-0.2,2.3-0.3,3.4-0.2c0.5,0,1.2,0.1,1.7,0.4
			c0.3,0.2,0.4,0.4,0.4,0.7c-0.6-0.8-2.5-0.8-3.3-0.8c-1.2-0.1-3.4-0.2-3.9,1.1C117.4,57,117.4,57.1,117.5,57.1z M119.1,56.9
			c0.6-0.3,1.6-0.3,2.3-0.1c-0.1,0-0.2,0-0.3,0c-0.1,0-0.2,0.1-0.2,0.2C120.3,57.2,119.7,57.2,119.1,56.9z M126.1,57.8
			c0.4-0.4,0.6-0.9,0.5-1.6c0,0,0,0.1,0.1,0.1C127.1,56.9,126.7,57.4,126.1,57.8z"/>
		<path class="st2" d="M122.9,52.6c-2.7-0.2-5.3,0.2-7.8,1.2c-1.5,0.6-3.3,1.7-3.4,3.5c-0.2,3,4.4,3.6,6.6,3.5c0,0,0,0,0,0
			c2,0.2,4,0.1,6-0.3c1.8-0.3,4.4-0.7,5.5-2.3C132.6,54.4,125.2,52.8,122.9,52.6z M128.6,58.8c-1.7,1-3.8,1.4-5.7,1.6
			c-1.5,0.2-2.9,0.2-4.4,0.1c0-0.1-0.1-0.2-0.2-0.2c-0.4,0-1.1,0-1.7-0.1c0,0,0,0,0,0l0,0c-2.2-0.2-5-1.1-4.3-3.3
			c0.5-1.8,2.6-2.7,4.3-3.2c2.1-0.7,4.2-1,6.4-0.7c1.8,0.2,3.7,0.5,5.2,1.4c0.7,0.4,1.6,1,1.8,1.8C130.2,57.3,129.6,58.3,128.6,58.8
			z"/>
	</g>
</g>
</svg>
