<?xml version="1.0" encoding="utf-8"?>
<!-- Generator: Adobe Illustrator 21.0.0, SVG Export Plug-In . SVG Version: 6.00 Build 0)  -->
<svg version="1.1" id="圖層_1" xmlns="http://www.w3.org/2000/svg" xmlns:xlink="http://www.w3.org/1999/xlink" x="0px" y="0px"
	 viewBox="0 0 38.2 38.3" style="enable-background:new 0 0 38.2 38.3;" xml:space="preserve">
<style type="text/css">
	.st0{fill:#FFFFFF;}
	.st1{fill:#FCEE21;}
	.st2{fill:#232020;}
	.st3{fill:#FBB03B;}
	.st4{fill:#F2F49D;}
	.st5{fill:#EF846A;}
	.st6{fill:#F5B39D;}
</style>
<g>
	<path class="st0" d="M33.5,20.9c0.4,0,0.8-0.1,1.2-0.1c0-1,0-2-0.2-3c-0.7,0.2-1.4,0.5-2.1,0.7c-0.3,0.1-0.4-0.3-0.1-0.4
		c0.7-0.2,1.4-0.5,2.1-0.7c-0.1-0.9-0.4-1.8-0.7-2.7c-0.3,0.2-0.7,0.3-1.1,0.4c-0.3,0.1-0.4-0.4-0.1-0.5c0.4-0.1,0.7-0.3,1-0.5
		c-0.2-0.6-0.5-1.1-0.7-1.7c-0.2,0.2-0.5,0.3-0.7,0.4c-0.3,0.1-0.5-0.3-0.2-0.4c0.2-0.1,0.5-0.3,0.7-0.5c-0.2-0.5-0.5-0.9-0.8-1.3
		c-0.2,0.2-0.4,0.4-0.6,0.6c-0.2,0.3-0.6-0.1-0.4-0.4c0.2-0.2,0.4-0.4,0.6-0.7c0-0.1-0.1-0.1-0.1-0.2c-0.6-0.9-1.4-1.7-2.1-2.4
		c-0.2,0.2-0.5,0-0.4-0.3c0,0,0,0,0,0c-0.5-0.4-1.1-0.9-1.7-1.2c-0.1,0.1-0.1,0.2-0.2,0.4c-0.1,0.3-0.7,0.1-0.6-0.2
		c0.1-0.1,0.1-0.3,0.2-0.4c-0.7-0.4-1.5-0.8-2.3-1.1c0,0.2-0.1,0.4-0.1,0.7c0,0.3-0.5,0.2-0.5-0.1c0-0.3,0.1-0.5,0.1-0.8
		c-0.9-0.3-1.7-0.5-2.6-0.6c0,0.2,0,0.3,0,0.5c0,0.3-0.5,0.3-0.5,0c0-0.2,0-0.4,0-0.6c-0.4,0-0.8-0.1-1.2-0.1c0,0.1,0,0.2,0,0.4
		c0,0.2-0.3,0.3-0.4,0.1c-0.1-0.2-0.1-0.3-0.1-0.5c-0.7,0-1.3,0.1-2,0.2c0,0,0,0,0,0c-0.2,0-0.4,0.1-0.6,0.1
		c-0.5,0.1-0.9,0.2-1.3,0.4c0.1,0.3-0.3,0.5-0.5,0.2l0,0c-1.2,0.4-2.3,1-3.3,1.7c0.2,0.4,0.4,0.7,0.5,1.1c0.1,0.3-0.3,0.6-0.4,0.3
		c-0.2-0.3-0.4-0.7-0.6-1C10,7.2,9.2,7.9,8.5,8.7c0.1,0.1,0.2,0.3,0.4,0.4c0.3,0.3-0.2,0.7-0.4,0.4C8.4,9.3,8.3,9.2,8.2,9.1
		C7.6,9.7,7,10.5,6.5,11.3c0.4,0.1,0.7,0.3,1.1,0.5c0.3,0.2,0,0.6-0.3,0.4c-0.4-0.2-0.8-0.3-1.1-0.5c-0.4,0.6-0.7,1.2-1,1.9
		c0.3,0.1,0.7,0.2,0.9,0.5c0.3,0.2-0.1,0.6-0.3,0.4c-0.3-0.1-0.6-0.2-0.8-0.3c-0.3,0.8-0.6,1.6-0.8,2.4c0.5-0.1,1-0.2,1.5-0.3
		c0.3,0,0.4,0.5,0.1,0.5c-0.6,0.1-1.2,0.2-1.8,0.4c-0.1,0.5-0.2,1-0.3,1.5c0,0.2-0.1,0.5-0.1,0.7c0.4-0.1,0.7-0.3,1.1-0.4
		C5,19,5.1,19.5,4.8,19.6c-0.4,0.1-0.9,0.3-1.3,0.4c0,0.8,0,1.5,0,2.3c0.4-0.1,0.7-0.2,1.1-0.3C5,22,5.1,22.4,4.8,22.5
		c-0.4,0.1-0.8,0.3-1.2,0.4c0.1,0.9,0.3,1.7,0.5,2.5c0.4-0.1,0.9-0.1,1.3-0.2c0.3,0,0.4,0.5,0.1,0.6C5,25.9,4.6,26,4.2,26
		c0.3,1,0.7,2,1.1,2.9c0.4-0.4,0.8-0.8,1.3-1.2c0.2-0.2,0.6,0.1,0.4,0.3c-0.4,0.5-0.9,1-1.4,1.4c0.6,1,1.2,1.9,2,2.7
		c0.5-0.5,1.1-1,1.7-1.5c0.3-0.2,0.7,0.2,0.4,0.4c-0.6,0.5-1.1,1-1.7,1.5c0.9,0.9,1.9,1.6,3.1,2.1c0.6-0.8,1.2-1.7,1.9-2.5
		c0.2-0.2,0.5,0.1,0.4,0.3c-0.4,0.9-1,1.6-1.6,2.4c0.3,0.1,0.5,0.2,0.8,0.2c0.1-0.1,0.2-0.2,0.4-0.2c0.3,0.1,0.6,0.2,0.8,0.3
		c0.5-0.9,1.2-1.7,2-2.4c0.2-0.2,0.5,0.1,0.3,0.3c-0.8,0.6-1.2,1.4-1.7,2.2c0,0,0.1,0,0.1,0c0.2,0,0.3,0,0.5,0c0.1,0,0.1,0,0.1,0.1
		c0.4,0.1,0.8,0.1,1.2,0.1c0.1-0.4,0.2-0.8,0.3-1.1c0.1-0.3,0.6-0.2,0.5,0.1c-0.1,0.3-0.2,0.7-0.3,1c1.1,0,2.1-0.1,3.1-0.3
		c0.2,0,0.4-0.1,0.6-0.1c0-0.5,0-0.9,0-1.4c0-0.3,0.5-0.3,0.5,0c0,0.4,0,0.9,0,1.3c0.5-0.1,1-0.2,1.6-0.3c-0.3-0.9-0.5-1.8-0.6-2.8
		c0-0.3,0.5-0.4,0.5-0.1c0.2,0.9,0.4,1.8,0.7,2.7c0.7-0.2,1.4-0.3,2-0.6c0.7-0.2,1.3-0.5,1.9-0.9c-0.3-0.6-0.6-1.2-0.9-1.8
		c-0.1-0.2,0.3-0.4,0.4-0.2c0.3,0.6,0.6,1.2,0.9,1.8c1.3-0.7,2.4-1.6,3.4-2.7c-0.5-0.3-1-0.6-1.5-1c-0.2-0.2,0-0.5,0.2-0.4
		c0.5,0.3,1.1,0.6,1.6,0.9c0.6-0.7,1.2-1.5,1.6-2.4c0.2-0.4,0.4-0.9,0.6-1.3c-0.6-0.2-1.1-0.5-1.7-0.8c-0.3-0.1-0.1-0.6,0.2-0.5
		c0.6,0.2,1.1,0.5,1.7,0.7c0.2-0.7,0.4-1.4,0.6-2.1c-0.8-0.2-1.6-0.4-2.4-0.8c-0.3-0.1-0.2-0.6,0.1-0.5c0.7,0.3,1.6,0.4,2.4,0.6
		c0.1-0.6,0.2-1.2,0.2-1.8c-0.4,0-0.8,0.1-1.2,0.1C33.2,21.3,33.2,20.9,33.5,20.9z M29.1,16.1c0.5-0.4,1-0.8,1.5-1.2
		c0.3-0.2,0.7,0.2,0.4,0.4c-0.5,0.4-1.1,0.8-1.6,1.2C29.1,16.7,28.8,16.3,29.1,16.1z M26.4,9.9c0.4-0.8,1-1.5,1.5-2.1
		c0.2-0.3,0.6,0.1,0.4,0.4c-0.5,0.6-1.1,1.3-1.5,2C26.6,10.4,26.3,10.1,26.4,9.9z M24.7,13.2c0.7-0.9,1.4-1.9,2.4-2.5
		c0.3-0.2,0.6,0.3,0.4,0.5c-0.9,0.7-1.6,1.5-2.2,2.4C25,13.7,24.5,13.5,24.7,13.2z M25.6,16.6c-0.2,0.2-0.6-0.1-0.4-0.3
		c0.7-1.1,1.3-2.2,1.8-3.5c0.1-0.3,0.6-0.2,0.5,0.1C27,14.2,26.5,15.6,25.6,16.6z M26.3,20.5c-0.1-0.3-0.2-0.7-0.4-1
		c-0.1-0.3,0.4-0.4,0.5-0.1c0.1,0.3,0.2,0.7,0.4,1C26.9,20.7,26.4,20.8,26.3,20.5z M24.1,6.6c0.3-0.2,0.5,0.3,0.3,0.5
		c-0.6,0.4-0.7,1.4-1,2c-0.1,0.1-0.2,0.1-0.3-0.1C23.1,8.3,23.4,7,24.1,6.6z M20.6,9.1c0.4,1.2,0.9,2.3,1.5,3.5
		c0.1,0.3-0.2,0.5-0.4,0.2c-0.7-1.1-1.2-2.3-1.6-3.6C20.1,8.9,20.5,8.8,20.6,9.1z M20.3,18.4c0.1,0.5,0.2,0.9,0.4,1.3
		c0.1,0.3-0.3,0.4-0.4,0.1c-0.1-0.4-0.3-0.9-0.4-1.3C19.9,18.2,20.3,18.1,20.3,18.4z M18.2,5.6c0.1-0.3,0.5-0.2,0.4,0.1
		c-0.1,0.8-0.2,1.5-0.4,2.3c-0.1,0.3-0.5,0.2-0.5-0.1C18,7.1,18.1,6.4,18.2,5.6z M17.7,20.3c-0.3-0.5-0.6-1-0.8-1.6
		c-0.1-0.3,0.3-0.4,0.4-0.1c0.2,0.5,0.5,1,0.8,1.5C18.3,20.3,17.8,20.5,17.7,20.3z M15.4,8.2c0.2,0.8,0.4,1.7,0.7,2.5
		c0.1,0.3-0.3,0.3-0.4,0.1C15.4,10,15.2,9.1,15,8.3C15,8,15.4,7.9,15.4,8.2z M13,8.9c0.5-1.2,1.1-2.3,1.7-3.4c0.1-0.3,0.5,0,0.4,0.2
		c-0.6,1.1-1.2,2.2-1.7,3.4C13.3,9.4,12.8,9.1,13,8.9z M14.3,14.7c0,0.3-0.5,0.4-0.5,0c-0.1-0.9-0.1-1.9-0.2-2.8
		c0-0.2,0.4-0.3,0.4-0.1C14.1,12.8,14.2,13.7,14.3,14.7z M11.1,8.9c0.5,1.1,0.8,2.3,1.4,3.3c0.2,0.3-0.3,0.6-0.5,0.3
		c-0.5-1.1-0.9-2.3-1.3-3.5C10.6,8.8,11,8.7,11.1,8.9z M10.6,17.6C11.2,17,12,16.2,13,16c0.3-0.1,0.5,0.3,0.2,0.5
		c-0.4,0.2-0.8,0.4-1.2,0.6c-0.4,0.3-0.7,0.6-1.1,0.9C10.7,18.2,10.3,17.8,10.6,17.6z M9.2,12.2c0,0.6,0,1.3,0.1,1.9
		c0.1,0.3-0.4,0.4-0.4,0.1c-0.1-0.7-0.1-1.4-0.1-2C8.8,11.9,9.2,11.9,9.2,12.2z M6.2,17.2c1,0.6,2.1,1.2,3,1.9
		c0.3,0.2,0,0.7-0.3,0.5c-1-0.6-2-1.3-3-2C5.7,17.4,5.9,17,6.2,17.2z M6.8,22.6c-0.3,0.1-0.4-0.4-0.1-0.5c0.8-0.2,1.6-0.4,2.3-0.5
		c0.3,0,0.5,0.5,0.1,0.5C8.4,22.3,7.6,22.5,6.8,22.6z M7.1,25.4C6.9,25.5,6.7,25,7,25c1.1-0.2,2.4-0.6,3.5-0.5
		c0.3,0,0.3,0.4,0.1,0.5C9.5,25.2,8.3,25.2,7.1,25.4z M11.3,27.1c-0.5,0.5-1.1,0.9-1.7,1.3c-0.2,0.2-0.5-0.2-0.2-0.4
		c0.5-0.4,1-0.9,1.6-1.3C11.2,26.5,11.5,26.9,11.3,27.1z M12,21.9c0.8-1,1.7-2.2,2.8-2.8c0.2-0.1,0.5,0.2,0.3,0.4
		c-0.5,0.5-1.1,0.8-1.6,1.3c-0.4,0.4-0.8,0.9-1.2,1.4C12.2,22.5,11.8,22.2,12,21.9z M14.3,28.4C14,29.2,14,30.1,14,31
		c0,0.4-0.6,0.4-0.6,0c-0.1-0.9,0.1-1.9,0.4-2.8C13.9,27.9,14.4,28,14.3,28.4z M13.8,27.3c-0.3-0.5-0.7-1-1.1-1.4
		c-0.2-0.2,0.1-0.6,0.4-0.4c0.4,0.5,0.9,1,1.2,1.5C14.5,27.3,14,27.6,13.8,27.3z M16.4,23.4c-0.5,0.4-1,0.8-1.5,1.3
		c-0.2,0.2-0.5-0.1-0.3-0.3c0.5-0.5,1-1,1.6-1.4C16.4,22.8,16.6,23.2,16.4,23.4z M16.3,15.1c0.2-0.9,0.5-1.8,0.7-2.6
		c0.1-0.3,0.6-0.2,0.5,0.1c-0.2,0.9-0.5,1.8-0.7,2.6C16.7,15.6,16.2,15.5,16.3,15.1z M18.3,25c-0.3,1.2-0.7,2.4-1.1,3.6
		c-0.1,0.3-0.7,0.2-0.6-0.2c0.4-1.2,0.9-2.4,1.2-3.6C17.9,24.5,18.4,24.7,18.3,25z M20.4,29.7c-0.5,0.9-1,1.8-1.4,2.8
		c-0.1,0.3-0.5,0-0.4-0.2c0.4-0.9,0.9-1.9,1.4-2.8C20.2,29.1,20.6,29.4,20.4,29.7z M20.8,26.2c-0.1,0.3-0.6,0.2-0.5-0.1
		c0.1-0.9,0.2-1.9,0.4-2.8c0.1-0.3,0.5-0.2,0.5,0.1C21,24.4,21,25.3,20.8,26.2z M22.1,17.2c-0.6-0.7-1.3-1.3-1.7-2.1
		c-0.1-0.3,0.3-0.5,0.4-0.3c0.4,0.8,1,1.4,1.7,2C22.8,17,22.3,17.5,22.1,17.2z M22.9,20.2c0.1-0.4,0.4-0.6,0.6-0.8
		c0.4-0.3,0.7-0.5,1.1-0.7c0.3-0.2,0.7,0.3,0.3,0.5c-0.6,0.3-1.3,0.6-1.7,1.2C23.2,20.6,22.9,20.5,22.9,20.2z M25.3,27.3
		c-0.2,0.7-0.5,1.3-0.9,1.9c-0.2,0.3-0.6,0-0.4-0.3c0.3-0.6,0.6-1.1,0.9-1.8C24.9,26.8,25.4,26.9,25.3,27.3z M25.6,25.2
		c-0.9-0.6-1.7-1.4-2.3-2.3c-0.2-0.3,0.2-0.5,0.4-0.3c0.6,0.8,1.4,1.5,2.2,2.1C26.2,24.9,25.9,25.4,25.6,25.2z M26.7,26.8
		c-0.2-0.9-0.4-1.8-0.7-2.7c-0.1-0.3,0.3-0.4,0.4-0.1c0.3,0.9,0.6,1.7,0.8,2.6C27.4,27,26.8,27.2,26.7,26.8z M27.6,31.9
		c-0.3-0.8-0.5-1.6-0.8-2.4c-0.1-0.3,0.4-0.5,0.5-0.2c0.3,0.7,0.6,1.5,0.8,2.3C28.3,32,27.7,32.2,27.6,31.9z M30,26.1
		c-0.7-0.4-1.2-1-1.8-1.5c-0.3-0.2,0.1-0.6,0.4-0.4c0.6,0.5,1.2,0.9,1.8,1.4C30.6,25.9,30.3,26.3,30,26.1z M31.5,20.1
		c-0.8-0.2-1.5-0.3-2.3-0.5c-0.3-0.1-0.2-0.5,0.1-0.5c0.8,0.1,1.5,0.2,2.3,0.4C32.1,19.6,31.9,20.2,31.5,20.1z"/>
	<g>
		<path class="st2" d="M37.9,20.2c-0.9,0.1-1.7,0.3-2.6,0.4c0-1,0-2-0.2-3c0-0.1,0-0.1,0-0.2c0.5-0.2,1-0.3,1.5-0.5
			c0.3-0.1,0.2-0.6-0.1-0.5c-0.5,0.2-1,0.3-1.4,0.5c-0.2-0.9-0.4-1.9-0.7-2.8c0.8-0.5,1.6-1.1,2.4-1.6c0.2-0.2,0-0.6-0.2-0.4
			c-0.8,0.5-1.5,1-2.3,1.5c-0.2-0.6-0.5-1.2-0.8-1.8c0.8-0.6,1.5-1.3,2.3-1.8c0.2-0.1,0-0.4-0.2-0.3c-0.8,0.5-1.6,1.1-2.3,1.6
			c-0.3-0.5-0.5-1-0.8-1.4c0.8-0.8,1.7-1.6,2.4-2.5c0.2-0.2-0.1-0.6-0.3-0.3c-0.7,0.9-1.6,1.6-2.4,2.4c-0.1-0.2-0.3-0.4-0.4-0.6
			c0.5-0.4,0.8-0.9,1.2-1.4c0.2-0.3-0.3-0.6-0.5-0.3c-0.3,0.4-0.6,0.9-1,1.3c-0.5-0.6-1-1.1-1.6-1.7c0.4-0.5,0.7-1.1,1-1.7
			C30.8,5,30.5,4.8,30.3,5c-0.3,0.5-0.7,1-1,1.6c-0.5-0.5-1.1-0.9-1.7-1.3c0.3-0.7,0.7-1.5,1-2.2c0.1-0.3-0.4-0.5-0.5-0.2
			c-0.3,0.7-0.7,1.4-1,2.1c-0.2-0.1-0.3-0.2-0.5-0.3c-0.7-0.4-1.4-0.7-2.1-0.9c0.1-0.8,0.2-1.5,0.3-2.3c0-0.2-0.3-0.2-0.4,0
			c-0.1,0.7-0.3,1.5-0.4,2.2c-0.9-0.3-1.8-0.5-2.7-0.6c0.1-0.5,0.2-1,0.2-1.5c0-0.3-0.4-0.5-0.5-0.1c-0.1,0.5-0.2,1.1-0.3,1.6
			C20.4,3,20,3,19.6,3c0-0.5-0.1-1-0.1-1.5c0-0.3-0.5-0.3-0.5,0C19,2,19,2.5,19,3c-0.5,0-1.1,0.1-1.6,0.2c0.2-0.7,0.4-1.3,0.6-1.9
			c0.1-0.4-0.5-0.5-0.6-0.2c-0.2,0.7-0.4,1.5-0.6,2.2c-0.7,0.1-1.3,0.3-1.9,0.5c-0.5-1.2-0.7-2.4-0.9-3.6c-0.1-0.3-0.5-0.2-0.5,0.1
			c0.2,1.2,0.4,2.5,0.8,3.7c-0.7,0.3-1.5,0.6-2.2,1c-0.4,0.2-0.8,0.5-1.2,0.7c-0.3-0.6-0.7-1.2-0.9-1.8c-0.1-0.3-0.5,0-0.4,0.2
			c0.3,0.6,0.6,1.2,0.9,1.9C9.7,6.7,8.8,7.4,8.1,8.2c-0.6-0.7-1-1.5-1.5-2.3c-0.1-0.2-0.5,0-0.3,0.2c0.5,0.8,1,1.7,1.5,2.5
			c-0.7,0.8-1.3,1.6-1.9,2.5c-1-0.3-2-0.5-3-0.8c-0.2-0.1-0.3,0.3-0.1,0.4c0.9,0.3,1.9,0.6,2.8,0.9c-0.4,0.6-0.7,1.3-1,2
			c-1.1-0.1-2.4,0.2-3.4,0.4c-0.3,0-0.2,0.5,0.1,0.5c1-0.1,2.1-0.3,3.1-0.3C4,15,3.7,15.9,3.5,16.8c-0.9,0.3-1.8,0.7-2.7,1
			c-0.3,0.1-0.2,0.6,0.1,0.5c0.8-0.3,1.6-0.6,2.4-0.8C3.2,18.2,3,18.9,3,19.7c-0.8,0.3-1.6,0.7-2.4,1.2c-0.2,0.1,0,0.5,0.2,0.4
			c0.7-0.4,1.4-0.7,2.1-1c0,0.7-0.1,1.5,0,2.2c0,0,0,0.1,0,0.1c-1,0.4-1.9,0.9-2.8,1.4c-0.3,0.1,0,0.6,0.2,0.4
			c0.9-0.4,1.7-0.8,2.6-1.2c0.1,0.8,0.2,1.6,0.5,2.4c-0.7,0.2-1.3,0.4-1.9,0.6c-0.3,0.1-0.2,0.6,0.1,0.5c0.7-0.2,1.3-0.4,2-0.5
			c0.3,1.1,0.8,2.1,1.3,3.2c-0.5,0.4-0.9,0.8-1.4,1.2c-0.2,0.2,0.1,0.5,0.3,0.4c0.5-0.3,0.9-0.7,1.4-1.1c0.6,1,1.3,1.9,2.1,2.7
			c-0.6,0.6-1.3,1.3-1.8,1.9c-0.1,0.2,0.1,0.4,0.2,0.2c0.7-0.6,1.3-1.2,2-1.8c1,0.9,2,1.6,3.2,2.1c-0.4,0.6-0.8,1.1-1.1,1.7
			c-0.2,0.2,0.2,0.5,0.4,0.2c0.4-0.6,0.8-1.1,1.3-1.7c0.3,0.1,0.7,0.2,1,0.3c0,0.1,0.1,0.1,0.2,0.2c0.2,0.1,0.4,0.2,0.7,0.2
			c0,0,0,0,0,0c-0.2,0.3,0.3,0.6,0.5,0.3c0,0,0.1-0.1,0.1-0.1c0.7,0.2,1.4,0.3,2.1,0.3c-0.1,0.5-0.3,1-0.4,1.5
			c-0.1,0.3,0.4,0.4,0.5,0.1c0.1-0.5,0.3-1.1,0.5-1.6c1.3,0,2.7-0.1,4-0.4c0,0.8,0,1.5,0.2,2.2c0,0.1,0.2,0.1,0.2,0
			c0.2-0.7,0.2-1.5,0.2-2.3c0.5-0.1,0.9-0.2,1.4-0.3c0.1,0,0.2-0.1,0.4-0.1c0.3,0.8,0.7,1.6,1,2.4c0.1,0.3,0.6,0,0.4-0.3
			c-0.4-0.7-0.7-1.5-0.9-2.3c1.4-0.4,2.8-0.9,4.1-1.5c0.2,0.4,0.5,0.8,0.8,1.2c0.1,0.2,0.4,0,0.3-0.2c-0.2-0.4-0.4-0.8-0.6-1.3
			c0.7-0.4,1.5-0.9,2.1-1.4c0.6-0.5,1.1-1,1.6-1.5c0.7,0.4,1.4,0.8,2.1,1.2c0.3,0.2,0.6-0.3,0.3-0.5c-0.7-0.4-1.3-0.8-2-1.1
			c0.9-1.1,1.7-2.4,2.2-3.8c0.4,0.2,0.9,0.4,1.3,0.5c0.4,0.1,0.5-0.5,0.2-0.6c-0.4-0.2-0.9-0.3-1.3-0.5c0.2-0.7,0.4-1.4,0.6-2.1
			c0.1,0,0.1,0,0.2,0.1c0.3,0.1,0.5-0.4,0.2-0.5c-0.1-0.1-0.2-0.1-0.3-0.2c0.1-0.7,0.2-1.4,0.2-2.1c0.9-0.1,1.8-0.2,2.7-0.4
			C38.3,20.7,38.2,20.2,37.9,20.2z M33.5,21.3c0.4,0,0.8-0.1,1.2-0.1c0,0.6-0.1,1.2-0.2,1.8c-0.8-0.2-1.7-0.3-2.4-0.6
			c-0.3-0.1-0.4,0.4-0.1,0.5c0.8,0.3,1.6,0.5,2.4,0.8c-0.1,0.7-0.3,1.4-0.6,2.1c-0.6-0.2-1.1-0.5-1.7-0.7c-0.3-0.1-0.5,0.4-0.2,0.5
			c0.6,0.3,1.1,0.5,1.7,0.8c-0.2,0.4-0.4,0.9-0.6,1.3c-0.4,0.9-1,1.6-1.6,2.4c-0.5-0.3-1.1-0.6-1.6-0.9c-0.2-0.1-0.5,0.2-0.2,0.4
			c0.5,0.3,1,0.6,1.5,1c-1,1.1-2.1,2-3.4,2.7c-0.3-0.6-0.6-1.2-0.9-1.8c-0.1-0.2-0.5-0.1-0.4,0.2c0.2,0.6,0.5,1.2,0.9,1.8
			c-0.6,0.3-1.3,0.6-1.9,0.9c-0.7,0.2-1.3,0.4-2,0.6c-0.3-0.9-0.5-1.8-0.7-2.7c-0.1-0.3-0.6-0.2-0.5,0.1c0.1,0.9,0.3,1.9,0.6,2.8
			c-0.5,0.1-1,0.2-1.6,0.3c0-0.4,0-0.9,0-1.3c0-0.3-0.5-0.3-0.5,0c0,0.4,0,0.9,0,1.4c-0.2,0-0.4,0.1-0.6,0.1c-1,0.2-2.1,0.3-3.1,0.3
			c0.1-0.3,0.2-0.7,0.3-1c0.1-0.3-0.4-0.5-0.5-0.1c-0.1,0.4-0.2,0.8-0.3,1.1c-0.4,0-0.8-0.1-1.2-0.1c0,0,0-0.1-0.1-0.1
			c-0.2,0-0.3,0-0.5,0c0,0-0.1,0-0.1,0c0.5-0.8,0.9-1.6,1.7-2.2c0.2-0.2-0.1-0.5-0.3-0.3c-0.8,0.6-1.5,1.5-2,2.4
			c-0.3-0.1-0.6-0.2-0.8-0.3c-0.2-0.1-0.3,0-0.4,0.2c-0.3-0.1-0.5-0.2-0.8-0.2c0.6-0.8,1.2-1.5,1.6-2.4c0.1-0.2-0.2-0.5-0.4-0.3
			c-0.6,0.8-1.3,1.6-1.9,2.5C10,34.2,8.9,33.5,8,32.6c0.6-0.5,1.1-1,1.7-1.5c0.3-0.2-0.1-0.6-0.4-0.4c-0.6,0.5-1.1,1-1.7,1.5
			c-0.8-0.8-1.4-1.7-2-2.7c0.5-0.4,1-0.9,1.4-1.4c0.2-0.3-0.2-0.5-0.4-0.3c-0.4,0.4-0.9,0.8-1.3,1.2C4.9,28,4.5,27,4.2,26
			C4.6,26,5,25.9,5.5,25.8c0.3,0,0.2-0.6-0.1-0.6c-0.4,0-0.9,0.1-1.3,0.2c-0.2-0.8-0.4-1.7-0.5-2.5c0.4-0.1,0.8-0.3,1.2-0.4
			C5.1,22.4,5,22,4.7,22c-0.4,0.1-0.7,0.2-1.1,0.3c-0.1-0.8-0.1-1.5,0-2.3c0.4-0.2,0.9-0.3,1.3-0.4C5.1,19.5,5,19,4.7,19.1
			c-0.4,0.1-0.7,0.2-1.1,0.4c0-0.2,0-0.5,0.1-0.7c0.1-0.5,0.2-1,0.3-1.5c0.6-0.2,1.2-0.3,1.8-0.4c0.3,0,0.2-0.5-0.1-0.5
			c-0.5,0-1,0.1-1.5,0.3c0.2-0.8,0.5-1.6,0.8-2.4c0.3,0.1,0.6,0.2,0.8,0.3c0.3,0.2,0.6-0.2,0.3-0.4c-0.3-0.2-0.6-0.4-0.9-0.5
			c0.3-0.6,0.6-1.3,1-1.9c0.4,0.1,0.8,0.3,1.1,0.5c0.3,0.1,0.6-0.3,0.3-0.4c-0.4-0.2-0.7-0.4-1.1-0.5C7,10.5,7.6,9.7,8.2,9.1
			c0.1,0.1,0.2,0.3,0.3,0.4c0.2,0.3,0.7-0.1,0.4-0.4C8.8,8.9,8.6,8.8,8.5,8.7c0.7-0.8,1.5-1.4,2.3-2.1c0.2,0.3,0.4,0.7,0.6,1
			c0.2,0.3,0.6,0,0.4-0.3c-0.2-0.4-0.3-0.7-0.5-1.1c1-0.7,2.1-1.3,3.3-1.7l0,0c0.1,0.3,0.5,0.1,0.5-0.2C15.5,4.2,16,4.1,16.4,4
			c0.2,0,0.4-0.1,0.6-0.1c0,0,0,0,0,0c0.7-0.1,1.3-0.2,2-0.2c0,0.2,0.1,0.3,0.1,0.5c0.1,0.2,0.5,0.1,0.4-0.1c0-0.1,0-0.2,0-0.4
			c0.4,0,0.8,0,1.2,0.1c0,0.2,0,0.4,0,0.6c0,0.3,0.5,0.3,0.5,0c0-0.2,0-0.3,0-0.5c0.9,0.1,1.8,0.3,2.6,0.6c0,0.3-0.1,0.5-0.1,0.8
			c0,0.3,0.5,0.3,0.5,0.1c0-0.2,0.1-0.4,0.1-0.7c0.8,0.3,1.6,0.7,2.3,1.1c-0.1,0.1-0.1,0.3-0.2,0.4c-0.1,0.3,0.4,0.5,0.6,0.2
			c0.1-0.1,0.1-0.2,0.2-0.4c0.6,0.4,1.1,0.8,1.7,1.2c0,0,0,0,0,0c-0.1,0.3,0.2,0.4,0.4,0.3c0.8,0.7,1.5,1.5,2.1,2.4
			c0,0.1,0.1,0.1,0.1,0.2c-0.2,0.2-0.4,0.4-0.6,0.7c-0.2,0.3,0.1,0.7,0.4,0.4c0.2-0.2,0.4-0.4,0.6-0.6c0.3,0.4,0.5,0.9,0.8,1.3
			c-0.2,0.2-0.5,0.3-0.7,0.5c-0.3,0.2,0,0.6,0.2,0.4c0.2-0.1,0.5-0.3,0.7-0.4c0.3,0.6,0.5,1.1,0.7,1.7c-0.3,0.2-0.7,0.3-1,0.5
			c-0.3,0.1-0.2,0.6,0.1,0.5c0.4-0.1,0.7-0.2,1.1-0.4c0.3,0.9,0.5,1.8,0.7,2.7c-0.7,0.3-1.4,0.5-2.1,0.7c-0.3,0.1-0.1,0.5,0.1,0.4
			c0.7-0.2,1.4-0.4,2.1-0.7c0.1,1,0.2,2,0.2,3c-0.4,0.1-0.8,0.1-1.2,0.1C33.2,20.9,33.2,21.3,33.5,21.3z"/>
		<path class="st2" d="M21.7,12.8c0.2,0.3,0.6,0,0.4-0.2c-0.6-1.1-1.1-2.2-1.5-3.5c-0.1-0.3-0.5-0.2-0.4,0.1
			C20.5,10.4,21,11.7,21.7,12.8z"/>
		<path class="st2" d="M10.9,18c0.3-0.3,0.7-0.6,1.1-0.9c0.4-0.3,0.8-0.4,1.2-0.6c0.3-0.1,0.1-0.5-0.2-0.5c-0.9,0.2-1.7,1-2.4,1.6
			C10.3,17.8,10.7,18.2,10.9,18z"/>
		<path class="st2" d="M15.2,19.6c0.2-0.2-0.1-0.5-0.3-0.4c-1.2,0.6-2.1,1.8-2.8,2.8c-0.2,0.2,0.1,0.6,0.4,0.4
			c0.4-0.5,0.8-0.9,1.2-1.4C14.1,20.4,14.7,20,15.2,19.6z"/>
		<path class="st2" d="M16.1,23c-0.6,0.4-1.1,0.9-1.6,1.4c-0.2,0.2,0.1,0.5,0.3,0.3c0.5-0.5,1-0.9,1.5-1.3
			C16.6,23.2,16.4,22.8,16.1,23z"/>
		<path class="st2" d="M26.9,12.8c-0.4,1.3-1,2.3-1.8,3.5c-0.2,0.3,0.2,0.6,0.4,0.3c0.9-1,1.4-2.4,1.8-3.7
			C27.5,12.6,27,12.5,26.9,12.8z"/>
		<path class="st2" d="M13.5,11.9c0.1,0.9,0.2,1.9,0.2,2.8c0,0.4,0.6,0.3,0.5,0c-0.1-1-0.2-1.9-0.4-2.8
			C13.9,11.6,13.5,11.7,13.5,11.9z"/>
		<path class="st2" d="M15,8.3c0.1,0.8,0.3,1.7,0.7,2.5c0.1,0.2,0.5,0.2,0.4-0.1c-0.2-0.8-0.5-1.6-0.7-2.5C15.4,7.9,15,8,15,8.3z"/>
		<path class="st2" d="M9.2,19c-0.9-0.7-2-1.3-3-1.9c-0.3-0.1-0.5,0.2-0.2,0.4c1,0.7,2,1.4,3,2C9.2,19.7,9.5,19.2,9.2,19z"/>
		<path class="st2" d="M9.1,21.6c-0.8,0.1-1.6,0.3-2.3,0.5c-0.3,0.1-0.2,0.5,0.1,0.5c0.8-0.2,1.6-0.3,2.4-0.5
			C9.6,22.1,9.4,21.6,9.1,21.6z"/>
		<path class="st2" d="M10.9,26.7c-0.5,0.4-1,0.9-1.6,1.3c-0.2,0.2,0,0.6,0.2,0.4c0.6-0.4,1.1-0.9,1.7-1.3
			C11.5,26.9,11.2,26.5,10.9,26.7z"/>
		<path class="st2" d="M20.7,19.7c-0.1-0.4-0.3-0.9-0.4-1.3c0-0.3-0.4-0.2-0.4,0.1c0.1,0.5,0.2,0.9,0.4,1.3
			C20.4,20.1,20.8,20,20.7,19.7z"/>
		<path class="st2" d="M9.3,14.1c-0.1-0.6-0.1-1.3-0.1-1.9c0-0.3-0.4-0.3-0.4,0c0,0.7,0,1.4,0.1,2C9,14.5,9.4,14.4,9.3,14.1z"/>
		<path class="st2" d="M13.4,9.1c0.5-1.2,1.1-2.3,1.7-3.4c0.1-0.3-0.3-0.5-0.4-0.2c-0.6,1.1-1.2,2.2-1.7,3.4
			C12.8,9.1,13.3,9.4,13.4,9.1z"/>
		<path class="st2" d="M18.3,8c0.2-0.8,0.2-1.5,0.4-2.3c0.1-0.3-0.4-0.4-0.4-0.1c-0.1,0.8-0.2,1.5-0.4,2.3C17.8,8.2,18.3,8.3,18.3,8
			z"/>
		<path class="st2" d="M16.8,15.3c0.3-0.9,0.5-1.8,0.7-2.6c0.1-0.3-0.4-0.5-0.5-0.1c-0.2,0.9-0.5,1.8-0.7,2.6
			C16.2,15.5,16.7,15.6,16.8,15.3z"/>
		<path class="st2" d="M20.8,14.8c-0.1-0.3-0.6,0-0.4,0.3c0.4,0.8,1.1,1.5,1.7,2.1c0.3,0.3,0.7-0.2,0.4-0.4
			C21.8,16.2,21.2,15.6,20.8,14.8z"/>
		<path class="st2" d="M25.9,19.5c0.1,0.3,0.2,0.7,0.4,1c0.1,0.3,0.6,0.2,0.5-0.1c-0.1-0.3-0.2-0.7-0.4-1
			C26.3,19,25.8,19.2,25.9,19.5z"/>
		<path class="st2" d="M20.6,23.4c-0.2,0.9-0.3,1.9-0.4,2.8c0,0.3,0.5,0.4,0.5,0.1c0.2-0.9,0.2-1.8,0.4-2.7
			C21.2,23.2,20.7,23,20.6,23.4z"/>
		<path class="st2" d="M17.8,24.8c-0.3,1.2-0.8,2.4-1.2,3.6c-0.1,0.4,0.4,0.5,0.6,0.2c0.5-1.2,0.9-2.4,1.1-3.6
			C18.4,24.7,17.9,24.5,17.8,24.8z"/>
		<path class="st2" d="M13.8,28.2c-0.3,0.9-0.5,1.8-0.4,2.8c0,0.4,0.6,0.4,0.6,0c0-0.9,0-1.8,0.3-2.7C14.4,28,13.9,27.9,13.8,28.2z"
			/>
		<path class="st2" d="M20,29.4c-0.5,0.9-1,1.9-1.4,2.8c-0.1,0.3,0.3,0.5,0.4,0.2c0.4-0.9,0.9-1.9,1.4-2.8
			C20.6,29.4,20.2,29.1,20,29.4z"/>
		<path class="st2" d="M24.8,27.1c-0.2,0.6-0.5,1.2-0.9,1.8c-0.2,0.3,0.3,0.5,0.4,0.3c0.4-0.6,0.7-1.2,0.9-1.9
			C25.4,26.9,24.9,26.8,24.8,27.1z"/>
		<path class="st2" d="M23.7,22.6c-0.2-0.3-0.6,0-0.4,0.3c0.6,0.9,1.4,1.7,2.3,2.3c0.3,0.2,0.6-0.3,0.3-0.5
			C25.1,24.1,24.3,23.4,23.7,22.6z"/>
		<path class="st2" d="M28.6,24.2c-0.3-0.2-0.6,0.1-0.4,0.4c0.6,0.5,1.1,1.1,1.8,1.5c0.3,0.2,0.6-0.2,0.4-0.5
			C29.8,25.2,29.1,24.7,28.6,24.2z"/>
		<path class="st2" d="M16.8,18.7c0.2,0.6,0.5,1.1,0.8,1.6c0.2,0.3,0.6,0,0.4-0.3c-0.3-0.5-0.6-0.9-0.8-1.5
			C17.2,18.3,16.7,18.4,16.8,18.7z"/>
		<path class="st2" d="M23.3,20.4c0.3-0.6,1.1-0.8,1.7-1.2c0.3-0.2,0-0.7-0.3-0.5c-0.4,0.2-0.8,0.4-1.1,0.7
			c-0.3,0.2-0.6,0.5-0.6,0.8C22.9,20.5,23.2,20.6,23.3,20.4z"/>
		<path class="st2" d="M29.3,16.5c0.6-0.4,1.1-0.8,1.6-1.2c0.3-0.2-0.1-0.6-0.4-0.4c-0.5,0.4-1,0.8-1.5,1.2
			C28.8,16.3,29.1,16.7,29.3,16.5z"/>
		<path class="st2" d="M31.7,19.6c-0.8-0.1-1.5-0.2-2.3-0.4c-0.3,0-0.4,0.4-0.1,0.5c0.8,0.2,1.5,0.3,2.3,0.5
			C31.9,20.2,32.1,19.6,31.7,19.6z"/>
		<path class="st2" d="M26.8,10.1c0.5-0.7,1-1.3,1.5-2c0.2-0.3-0.1-0.7-0.4-0.4c-0.6,0.6-1.1,1.4-1.5,2.1
			C26.3,10.1,26.6,10.4,26.8,10.1z"/>
		<path class="st2" d="M23.4,9.1c0.3-0.6,0.3-1.6,1-2c0.3-0.2,0-0.6-0.3-0.5c-0.7,0.4-1,1.7-1,2.4C23.2,9.2,23.4,9.2,23.4,9.1z"/>
		<path class="st2" d="M27.3,26.7c-0.2-0.9-0.5-1.8-0.8-2.6c-0.1-0.3-0.5-0.2-0.4,0.1c0.3,0.9,0.5,1.8,0.7,2.7
			C26.8,27.2,27.4,27,27.3,26.7z"/>
		<path class="st2" d="M27.3,29.4c-0.1-0.3-0.7-0.2-0.5,0.2c0.3,0.8,0.5,1.6,0.8,2.4c0.1,0.3,0.7,0.1,0.6-0.2
			C27.9,30.9,27.6,30.1,27.3,29.4z"/>
		<path class="st2" d="M10.5,24.4c-1.2,0-2.4,0.3-3.5,0.5c-0.3,0.1-0.2,0.5,0.1,0.4c1.1-0.2,2.4-0.2,3.5-0.5
			C10.9,24.9,10.8,24.4,10.5,24.4z"/>
		<path class="st2" d="M13.1,25.5c-0.2-0.2-0.5,0.1-0.4,0.4c0.4,0.5,0.8,0.9,1.1,1.4c0.2,0.3,0.7,0,0.5-0.3
			C13.9,26.5,13.5,26,13.1,25.5z"/>
		<path class="st2" d="M12,12.5c0.2,0.3,0.6,0,0.5-0.3c-0.6-1.1-0.9-2.2-1.4-3.3C11,8.7,10.6,8.8,10.7,9
			C11.1,10.2,11.4,11.4,12,12.5z"/>
		<path class="st2" d="M25.2,13.5c0.7-0.9,1.4-1.6,2.2-2.4c0.3-0.2-0.1-0.7-0.4-0.5c-0.9,0.7-1.7,1.6-2.4,2.5
			C24.5,13.5,25,13.7,25.2,13.5z"/>
	</g>
</g>
</svg>
