<?xml version="1.0" encoding="utf-8"?>
<!-- Generator: Adobe Illustrator 21.0.0, SVG Export Plug-In . SVG Version: 6.00 Build 0)  -->
<svg version="1.1" id="圖層_1" xmlns="http://www.w3.org/2000/svg" xmlns:xlink="http://www.w3.org/1999/xlink" x="0px" y="0px"
	 viewBox="0 0 152.1 47.6" style="enable-background:new 0 0 152.1 47.6;" xml:space="preserve">
<style type="text/css">
	.st0{fill:#FFFFFF;}
	.st1{fill:#FCEE21;}
	.st2{fill:#232020;}
	.st3{fill:#FBB03B;}
	.st4{fill:#F2F49D;}
	.st5{fill:#EF846A;}
	.st6{fill:#F5B39D;}
</style>
<g>
	<g>
		<path class="st6" d="M19.6,42c0,0.4,0,0.8-0.1,1.1c-0.5,1.3-1.5,2-2.3,3c-0.2,0.3-0.5,0.6-0.8,0.8c2.1,0,4.3-0.3,6.4-0.8
			c0.1-0.4,0.4-1.9,0.3-2C22.9,42.3,21.3,42,19.6,42z"/>
		<path class="st0" d="M18.6,43.7c0.6-1.2,0.7-3.3-1.3-2.9c-0.3,0.1-0.5-0.4-0.2-0.5c1.1-0.5,2.4-1.2,2.3-2.7c-0.1-1.8-1.7-2-3.2-2
			c-0.3,0-0.4-0.4-0.1-0.6c1.7-0.7,4.1-1.9,3.4-4.1c-0.6-2-1.9-1.8-3.5-2.1c-0.3-0.1-0.2-0.5,0-0.6c2.4-1,4.3-2.8,3.5-5.6
			c-0.3-1-0.8-2.1-1.8-2.6c-0.9-0.5-1.5-0.4-2.4-0.6c-0.2,0-0.2-0.3-0.2-0.4c0.2-0.4,0.7-0.6,1-0.9c0.9-1,1-2.4,0.8-3.7
			c-0.2-0.8-0.5-1.8-1-2.5c-0.8-1.2-2.1-1-3.2-0.9c0,0,0,0,0,0c-3.5,1.3-6.8,3.5-8.9,6.7c-2.5,3.7-3.3,8.3-2.9,12.6
			c0.4,4,2.1,8.6,4.7,11.8c2.6,3.1,6.1,4.4,9.8,4.6c-0.1-0.2,0.1-0.6,0.4-0.5C16.1,46.6,18.4,44,18.6,43.7z M7.9,21.2
			c-0.4,0.1-0.7-0.3-0.5-0.7c0-0.1,0-0.2,0.1-0.3c0.1-0.2,0.4-0.1,0.5,0C8.4,20.4,8.3,21.1,7.9,21.2z"/>
		<path class="st6" d="M22.8,16.7c-0.4-1.3-1.3-2.4-2.6-2.9c-0.6-0.2-2.5-0.6-2.9,0.2c0,0-0.1,0.1-0.1,0.1c0.2,0.9,0.4,1.9,0.1,2.8
			c-0.2,0.4-0.3,1-0.6,1.3c-0.2,0.3-0.6,0.5-0.9,0.8c1.2,0.2,2.1,0.3,3.1,1.4c0.7,0.7,1,1.8,1.1,2.7C22.7,22.4,23.5,19.1,22.8,16.7z
			"/>
		<path class="st6" d="M24.3,27.8c-0.2-1.9-1.5-4-3.4-4.2c-0.2,0.1-0.5,0.2-0.7,0.3c0,0,0,0-0.1,0c-0.1,2.1-1.2,3.5-3,4.4
			c0.6,0,1.3,0.1,1.8,0.6c0.6,0.6,1.2,1.4,1.2,2.3c0,0.2,0,0.4,0,0.6c0.4-0.1,0.8-0.1,1.1-0.1C22.9,31.2,24.5,29.6,24.3,27.8z"/>
		<path class="st6" d="M17,13.3c0.8-0.1,1.5-0.3,2-1c0.5-0.7,0.7-1.4,0.5-2.2c-1.9,0-3.7,0.1-5.5,0.6c0.6,0,1.2,0.2,1.6,0.4
			C16.2,11.5,16.7,12.6,17,13.3z"/>
		<path class="st6" d="M18.5,40.2c0.3,0.1,0.6,0.2,0.7,0.5c0.1,0.2,0.2,0.5,0.2,0.7c0,0,0,0,0.1,0c2.7-0.2,5.1-2.2,5.1-4.9
			c0-2-1.2-3.9-3.1-4c-0.4,0.1-0.9,0.2-1.4,0.1c-0.1,0-0.1,0-0.2,0c-0.3,1.2-1.4,2-2.6,2.6c1.2,0.2,2.5,0.7,2.5,2.1
			C20,38.6,19.4,39.5,18.5,40.2z"/>
		<g>
			<path class="st0" d="M57.8,20.6C57.8,20.6,57.8,20.6,57.8,20.6C57.7,20.6,57.7,20.6,57.8,20.6c-0.1,0.1-0.2,0.1-0.3,0.1
				c-3.5,1-7,3.7-9.3,6.4c0,0,0,0,0.1,0c0,0,0,0,0,0c2.1-0.9,4.3-1.2,6.5-2c0,0,0,0,0,0c0.5-1.1,1.4-1.8,2.2-2.8
				C57.2,22,57.7,21.2,57.8,20.6z"/>
			<path class="st0" d="M54.6,25.8c-2,0.7-4.1,0.9-6.1,1.6c0.4,0.3,1.1,0.6,1.5,0.8c0.8,0.4,1.7,0.8,2.6,1.1c1.5,0.4,3,0.8,4.5,0.9
				c-0.3-1.1-1.1-2-1.8-2.9C54.9,26.9,54.6,26.4,54.6,25.8z"/>
			<path class="st0" d="M52,23c1.6-1.2,3.5-2.3,5.4-2.9c0.1,0,0.2,0,0.3,0.1c-0.1-0.3-0.3-0.5-0.8-0.5c-0.6,0-1.1,0.1-1.6,0.2
				c-3.5,1.1-6.5,3.3-7.2,6.9C49,25.3,50.6,24,52,23z"/>
			<path class="st0" d="M48.2,27.6c0,0-0.1,0-0.1,0.1c0,0,0,0,0,0c0,0.1,0,0.2,0,0.3c0,0.1-0.1,0.1-0.1,0.2c0.8,1.4,1.8,2.3,3.3,3.1
				c0.8,0.4,1.7,0.8,2.6,1c0.9,0.1,3.4,0.3,3.4-1.2c0,0,0,0-0.1,0c-1.9-0.2-3.9-0.6-5.6-1.4C50.7,29.2,48.8,28.5,48.2,27.6z"/>
			<path class="st0" d="M45.3,24.7c-0.8-0.8-1.6-1.5-2.5-2.2c-1.8-1.5-3.7-2.7-5.5-4.2c-1.3-1-2.6-2.1-3.9-3.1
				c-0.2,0.1-0.5-0.1-0.4-0.3c-0.6-0.4-1.2-0.8-1.8-1.2c-0.1,0-0.2-0.1-0.2-0.1c-0.4-0.3-0.8-0.5-1.2-0.7c-0.2,0.1-0.4,0-0.4-0.2
				c-1.2-0.7-2.5-1.2-3.9-1.6c-1.8-0.5-3.6-0.8-5.4-0.9c0.2,1.2-0.3,2.4-1.2,3c0.4,0,0.9,0,1.1,0.1c1.6,0.4,2.7,1.3,3.3,2.8
				c1,2.4,0.3,5.7-1.8,7.3c1.9,0.4,3.5,2.5,3.5,4.5c0,1.7-1,3.3-2.4,4.1c1.6,0.6,2.8,2.1,2.8,4c0,1.5-0.1,2.9-1.2,4.1
				c-0.6,0.7-1.4,1.2-2.2,1.6c1.1,0.3,2,1.1,1.9,2.7c0,0.3-0.1,1.1-0.2,1.7c1.9-0.5,3.7-1.2,5.3-2c3.7-1.7,7.3-3.7,10.6-6.2
				c3.4-2.6,5.9-5.9,7.7-9.8c0,0,0-0.1,0-0.1c0.1-0.1,0.1-0.3,0.2-0.4c0.1-0.1,0.2-0.2,0.3-0.2C47.2,26.4,46,25.4,45.3,24.7z"/>
			<g>
				<path class="st2" d="M56.8,23.4c0.8-0.8,2.1-2.3,1.5-3.6c-0.5-1.2-2-0.9-3-0.7c-3.5,0.8-7.5,3.7-7.7,7.5c-0.6-1-1.7-2-2.4-2.7
					c-1.5-1.6-3.2-3-5-4.3c-2.2-1.7-4.3-3.5-6.5-5.1c0.1-0.2,0.2-0.3,0.3-0.5c0.1-0.1,0.2-0.3,0.3-0.4c0.1-0.1,0.1-0.2,0.2-0.3
					c0.3-0.2,0-0.6-0.2-0.4c-0.2,0.1-0.3,0.4-0.5,0.5c-0.2,0.2-0.3,0.5-0.5,0.7c-0.5-0.4-1.1-0.8-1.6-1.1c0.1-0.2,0.2-0.5,0.3-0.7
					c0.2-0.3,0.3-0.6,0.2-0.9c0-0.2-0.4-0.2-0.4,0.1c0,0.3-0.2,0.6-0.4,0.8c-0.1,0.1-0.2,0.3-0.2,0.4c-0.3-0.2-0.7-0.4-1-0.6
					c0.3-0.6,0.6-1.3,0.6-1.9c0-0.2-0.3-0.3-0.3,0c-0.1,0.4-0.2,0.7-0.4,1.1c-0.1,0.2-0.2,0.4-0.4,0.6l0,0c-0.8-0.4-1.6-0.8-2.4-1.1
					c0-0.2,0.1-0.5,0.2-0.7c0.2-0.4,0.3-0.8,0.2-1.3c0-0.2-0.4-0.2-0.4,0.1c0,0.5-0.2,0.9-0.4,1.3c-0.1,0.1-0.1,0.3-0.2,0.4
					c-0.6-0.2-1.2-0.4-1.8-0.6c0,0,0,0,0,0c0-0.4,0.1-0.8,0.1-1.2c0-0.3,0.1-0.6-0.1-0.8c-0.1-0.1-0.3,0-0.3,0.1
					c0.1,0.2,0,0.5-0.1,0.8c-0.1,0.3-0.2,0.7-0.3,1c-0.8-0.2-1.6-0.3-2.3-0.4c0-0.5,0-1-0.1-1.5c0-0.2,0.1-0.8-0.2-1
					c-0.2-0.1-0.4,0.1-0.2,0.2c0,0,0,0.4,0,0.4c0,0.2,0,0.5,0,0.7c0,0.4-0.1,0.7-0.1,1.1c-0.8-0.1-1.7-0.1-2.5-0.1
					c0-0.9,0-1.7-0.1-2.6c0-0.2-0.3-0.2-0.3,0c-0.1,0.9-0.1,1.7-0.1,2.6c-0.7,0-1.4,0.1-2.1,0.2c0.1-0.1,0.1-0.2,0-0.3
					c-0.5-0.9-0.6-2-0.7-3c0-0.2-0.3-0.2-0.3,0c0,1.1,0.1,2.2,0.5,3.3c0,0.1,0.1,0.1,0.1,0.1c-0.7,0.1-1.4,0.3-2.2,0.5
					c0-0.3-0.1-0.7-0.2-1c-0.2-0.7-0.5-1.3-0.8-2c-0.1-0.2-0.3-0.1-0.3,0.1c0.2,0.6,0.3,1.2,0.5,1.8C13,9.5,13,10,13.2,10.4
					c-1.7,0.5-3.3,1.2-4.8,2.1c-6.6,4.1-9.1,11.6-8.2,19c0.4,3.5,2,7.2,3.9,10.1c1,1.5,2.1,2.7,3.5,3.6l0.2,0.1
					c0.9,0.6,1.8,1.1,2.9,1.4l0.7,0.2c0.2,0.1,0.4,0.1,0.6,0.2c3.5,0.8,7.1,0.6,10.6-0.3c0.1,0,0.3,0,0.4-0.1
					c3.2-0.8,6.4-2.2,9.2-3.8c1.6-0.9,3.1-1.6,4.6-2.6c1.6-1,3.2-2,4.5-3.3c1.3-1.3,2.8-2.5,3.8-4c0.9-1.3,1.7-2.7,2.3-4.2
					c1,1.4,2.1,2.3,3.8,3.1c1.8,0.9,3.8,1.2,5.7,0.4c1.2-0.5,0.8-2.2,0.4-3.2c-0.3-0.7-0.7-1.3-1.2-1.8c-0.6-0.8-1.2-1.6-0.7-2.7
					C55.9,24.3,56.4,23.8,56.8,23.4z M19.5,10.1c0.2,0.8,0.1,1.5-0.5,2.2c-0.5,0.6-1.3,0.9-2,1c-0.3-0.7-0.8-1.8-1.4-2.2
					c-0.4-0.2-1-0.4-1.6-0.4C15.8,10.3,17.6,10.1,19.5,10.1z M17.4,35.1c1.2-0.6,2.2-1.4,2.6-2.6c0,0,0.1,0,0.2,0
					c0.5,0,0.9,0,1.4-0.1c1.9,0.2,3.1,2.1,3.1,4c0,2.7-2.4,4.7-5.1,4.9c0,0,0,0-0.1,0c-0.1-0.2-0.1-0.5-0.2-0.7
					c-0.1-0.3-0.4-0.4-0.7-0.5c1-0.7,1.5-1.5,1.5-3C19.9,35.8,18.6,35.2,17.4,35.1z M21.3,31.7c-0.4,0-0.8,0-1.1,0.1
					c0-0.2,0-0.4,0-0.6c-0.1-0.9-0.6-1.7-1.2-2.3c-0.5-0.5-1.2-0.6-1.8-0.6c1.8-0.9,2.9-2.3,3-4.4c0,0,0,0,0.1,0
					c0.3-0.1,0.5-0.2,0.7-0.3c2,0.2,3.3,2.3,3.4,4.2C24.5,29.6,22.9,31.2,21.3,31.7z M20.1,23.2c-0.1-1-0.5-2-1.1-2.7
					c-1-1.1-1.9-1.2-3.1-1.4c0.3-0.3,0.7-0.5,0.9-0.8c0.3-0.4,0.4-0.9,0.6-1.3c0.3-0.9,0.1-1.9-0.1-2.8c0,0,0.1,0,0.1-0.1
					c0.5-0.8,2.3-0.4,2.9-0.2c1.3,0.4,2.2,1.6,2.6,2.9C23.5,19.1,22.7,22.4,20.1,23.2z M15.7,46.4c-0.3-0.1-0.5,0.2-0.4,0.5
					c-3.8-0.2-7.3-1.5-9.8-4.6c-2.6-3.1-4.3-7.7-4.7-11.8c-0.4-4.4,0.4-9,2.9-12.6c2.1-3.1,5.4-5.4,8.9-6.7c0,0,0,0,0,0
					c1.1-0.1,2.4-0.3,3.2,0.9c0.5,0.7,0.8,1.6,1,2.5c0.3,1.3,0.1,2.7-0.8,3.7c-0.3,0.4-0.7,0.5-1,0.9c-0.1,0.1,0,0.4,0.2,0.4
					c0.9,0.2,1.5,0.1,2.4,0.6c0.9,0.5,1.5,1.6,1.8,2.6c0.8,2.8-1.1,4.6-3.5,5.6c-0.2,0.1-0.3,0.5,0,0.6c1.6,0.3,2.9,0.2,3.5,2.1
					c0.7,2.3-1.7,3.4-3.4,4.1c-0.3,0.1-0.1,0.6,0.1,0.6c1.5,0,3.1,0.2,3.2,2c0.1,1.5-1.2,2.2-2.3,2.7c-0.3,0.1-0.1,0.6,0.2,0.5
					c1.9-0.5,1.9,1.7,1.3,2.9C18.4,44,16.1,46.6,15.7,46.4z M22.7,46.1c-2.1,0.5-4.3,0.8-6.4,0.8c0.3-0.2,0.6-0.5,0.8-0.8
					c0.8-1,1.8-1.7,2.3-3c0.1-0.4,0.2-0.7,0.1-1.1c1.7,0,3.3,0.3,3.5,2.2C23.1,44.2,22.8,45.8,22.7,46.1z M47.3,27.6
					c-0.1,0.1-0.1,0.3-0.2,0.4c0,0,0,0,0,0.1c-1.8,3.9-4.3,7.1-7.7,9.8c-3.2,2.5-6.9,4.4-10.6,6.2c-1.6,0.8-3.5,1.4-5.3,2
					c0.2-0.6,0.2-1.4,0.2-1.7c0.1-1.6-0.8-2.3-1.9-2.7c0.8-0.3,1.6-0.9,2.2-1.6c1.1-1.2,1.2-2.5,1.2-4.1c0-1.8-1.2-3.4-2.8-4
					c1.4-0.8,2.4-2.4,2.4-4.1c0-2-1.6-4.1-3.5-4.5c2.2-1.5,2.9-4.8,1.8-7.3c-0.6-1.5-1.7-2.4-3.3-2.8c-0.3-0.1-0.7-0.1-1.1-0.1
					c0.9-0.6,1.4-1.8,1.2-3c1.8,0.1,3.7,0.4,5.4,0.9c1.4,0.4,2.7,0.9,3.9,1.6c0,0.2,0.3,0.4,0.4,0.2c0.4,0.2,0.8,0.5,1.2,0.7
					c0,0.1,0.1,0.1,0.2,0.1c0.6,0.4,1.2,0.8,1.8,1.2c0,0.2,0.2,0.4,0.4,0.3c1.3,1,2.6,2.1,3.9,3.1c1.8,1.4,3.7,2.7,5.5,4.2
					c0.8,0.7,1.7,1.5,2.5,2.2c0.7,0.7,1.9,1.7,2.3,2.6C47.5,27.4,47.4,27.4,47.3,27.6z M55.3,19.9c0.5-0.2,1.1-0.2,1.6-0.2
					c0.5,0,0.7,0.2,0.8,0.5c-0.1-0.1-0.2-0.1-0.3-0.1c-2,0.6-3.8,1.7-5.4,2.9c-1.4,1-3,2.3-3.9,3.9C48.8,23.2,51.8,21,55.3,19.9z
					 M57.2,30.9c0,1.5-2.5,1.3-3.4,1.2c-0.9-0.1-1.8-0.5-2.6-1c-1.5-0.8-2.5-1.7-3.3-3.1c0-0.1,0.1-0.1,0.1-0.2c0-0.1,0-0.2,0-0.3
					c0,0,0,0,0,0c0,0,0.1,0,0.1-0.1c0.6,0.9,2.5,1.6,3.3,1.9C53.3,30.3,55.2,30.7,57.2,30.9C57.1,31,57.2,30.9,57.2,30.9z
					 M57.1,30.3c-1.5-0.1-3-0.5-4.5-0.9c-0.9-0.3-1.8-0.7-2.6-1.1c-0.4-0.2-1-0.5-1.5-0.8c2-0.7,4.1-0.9,6.1-1.6
					c0,0.6,0.3,1.1,0.7,1.5C56,28.2,56.8,29.1,57.1,30.3z M54.7,25.1C54.7,25.1,54.7,25.2,54.7,25.1c-2.1,0.8-4.4,1.1-6.5,2
					c0,0,0,0,0,0c0,0,0,0-0.1,0c2.4-2.7,5.8-5.3,9.3-6.4c0.1,0,0.2,0,0.2-0.1c0,0,0,0,0,0c0,0,0,0,0,0c-0.1,0.6-0.6,1.5-0.9,1.8
					C56.1,23.3,55.2,24,54.7,25.1z"/>
				<path class="st2" d="M7.5,20.2c-0.1,0.1-0.1,0.2-0.1,0.3c-0.2,0.3,0.2,0.8,0.5,0.7c0.4-0.1,0.4-0.7,0.1-1
					C7.9,20.1,7.6,20,7.5,20.2z"/>
			</g>
		</g>
	</g>
	<g>
		<path class="st0" d="M140.5,4.3c-1.4-0.4-2.7-0.5-4,0.2c-0.7,0.4-1.3,0.8-2.1,1.1c-1.3,0.4-2.7,0.6-4,0.1
			c-1.6-0.6-2.8-1.6-4.3-2.4c-1.1-0.6-2.4-1.1-3.7-1c-1.2,0.1-1.9,0.7-2.8,1.4c-2.7,1.8-5.5,2.7-8.7,1.8c-1.6-0.5-3.2-1.2-4.6-2.1
			c-1.6-1-3.2-2.7-5.2-2.6c-3.9,0.2-7.1,3.5-9.9,5.8c-2.6,2.1-5.2,1.6-8.2,0.7c-2.1-0.7-4.6-1.5-6.8-0.9C75.2,6.6,74.6,7,74,7.5
			c1.4-0.5,3-0.7,4.2-0.5c1.8,0.2,3.4,1.3,5.1,1.7c2.2,0.5,4.3,0.8,6.5,0c2-0.7,3.6-2.1,5.5-3.1c1.4-0.7,3.2-0.7,4.8-0.9
			c1.7-0.2,3.7,0,5.3,0.5c1.8,0.6,3.5,1.7,5.4,2.2c2.4,0.7,4.8,1,7.1-0.4c1.3-0.8,2.7-1.7,4.2-2c1.5-0.3,3-0.3,4.4,0.2
			c1.5,0.5,2.7,1.8,4,2.5c0.8,0.5,2.3,1.3,3.2,0.2c0.3-0.4,0.6-0.7,0.9-1.1c0.3-0.4,0.7-0.8,1.2-1c1.4-0.6,3-0.6,4.4-0.1
			c1.8,0.6,3.4,1.4,5.2,1.9c1.5,0.4,4.5,0.9,5.7-0.5c-1.7-0.2-3.2-0.1-4.9-0.6C144.2,5.9,142.4,4.8,140.5,4.3z"/>
		<g>
			<path class="st2" d="M151.8,6.5c-0.7-0.1-1.4,0-2.2,0c-1.1,0.1-2.3-0.4-3.3-0.7c-1.9-0.6-3.7-1.6-5.6-2.2
				c-1.4-0.5-2.8-0.5-4.1,0.1c-1,0.5-1.9,1.1-2.9,1.4c-1.5,0.5-3.1,0.1-4.4-0.7c-2.8-1.4-5.4-3.9-8.7-2.4c-0.9,0.4-1.6,1.1-2.5,1.7
				c-0.9,0.6-2,1-3,1.2c-2.4,0.5-4.9-0.4-7.1-1.4c-2.9-1.4-4.8-3.9-8.2-3.4c-1.7,0.2-3.1,1.2-4.4,2.1c-1.6,1.1-3.1,2.2-4.5,3.5
				c-2.1,1.8-3.9,1.8-6.6,1.1c-1.9-0.5-3.6-1.2-5.6-1.4c-3.5-0.4-5.7,1.3-7.5,4.2c-0.1,0.1-0.1,0.2,0,0.3c0,0.1-0.1,0.1-0.1,0.2
				c0,0.2,0.2,0.2,0.2,0.1c0,0,0,0,0-0.1c0.2,0.1,0.4,0.1,0.5-0.1c0.4-0.7,0.9-1.3,1.3-1.8c1.5-0.8,3.5-0.9,4.9-0.7
				c1.9,0.3,3.7,1.4,5.6,1.8c3.3,0.7,6.2,0.3,9.1-1.5c2-1.3,3.6-2.1,6-2.3c2.2-0.2,4.2-0.1,6.3,0.5c1.9,0.5,3.5,1.7,5.4,2.3
				c1.6,0.5,3.6,0.8,5.3,0.6c1.5-0.2,2.8-1.3,4.1-2c2.1-1.2,4.5-1.5,6.7-0.5c1.5,0.7,5.4,4.8,7.3,2.7c0.5-0.6,1-1.2,1.5-1.7
				c1-1.1,2.7-0.9,4-0.7c1.8,0.4,3.5,1.3,5.3,1.8c2.1,0.6,6.2,1.4,7.4-1.2C152.1,6.8,152.1,6.5,151.8,6.5z M145.3,7.7
				c-1.8-0.5-3.4-1.3-5.2-1.9c-1.5-0.5-3-0.5-4.4,0.1c-0.5,0.2-0.8,0.6-1.2,1c-0.3,0.3-0.6,0.7-0.9,1.1c-0.9,1.1-2.3,0.3-3.2-0.2
				c-1.4-0.8-2.5-2-4-2.5C125,4.7,123.5,4.7,122,5c-1.5,0.3-2.9,1.2-4.2,2c-2.3,1.3-4.7,1-7.1,0.4c-1.9-0.5-3.6-1.6-5.4-2.2
				c-1.6-0.6-3.6-0.7-5.3-0.5c-1.6,0.2-3.3,0.2-4.8,0.9c-1.9,1-3.5,2.3-5.5,3.1c-2.1,0.8-4.3,0.5-6.5,0c-1.7-0.4-3.3-1.5-5.1-1.7
				c-1.2-0.2-2.8,0-4.2,0.5C74.6,7,75.2,6.6,76,6.3c2.3-0.6,4.7,0.3,6.8,0.9c3,0.9,5.6,1.4,8.2-0.7c2.8-2.3,6.1-5.6,9.9-5.8
				c2-0.1,3.7,1.6,5.2,2.6c1.4,0.9,3,1.6,4.6,2.1c3.2,0.9,6,0,8.7-1.8c0.9-0.6,1.6-1.3,2.8-1.4c1.3-0.1,2.6,0.4,3.7,1
				c1.5,0.8,2.7,1.8,4.3,2.4c1.3,0.5,2.7,0.3,4-0.1c0.7-0.3,1.4-0.7,2.1-1.1c1.3-0.7,2.6-0.6,4-0.2c1.9,0.5,3.7,1.6,5.6,2.2
				c1.7,0.6,3.3,0.5,4.9,0.6C149.8,8.6,146.8,8,145.3,7.7z"/>
		</g>
	</g>
</g>
</svg>
