<?xml version="1.0" encoding="utf-8"?>
<!-- Generator: Adobe Illustrator 21.0.0, SVG Export Plug-In . SVG Version: 6.00 Build 0)  -->
<svg version="1.1" id="圖層_1" xmlns="http://www.w3.org/2000/svg" xmlns:xlink="http://www.w3.org/1999/xlink" x="0px" y="0px"
	 viewBox="0 0 105.3 54" style="enable-background:new 0 0 105.3 54;" xml:space="preserve">
<style type="text/css">
	.st0{fill:#FFFFFF;}
	.st1{fill:#FCEE21;}
	.st2{fill:#232020;}
	.st3{fill:#FBB03B;}
	.st4{fill:#F2F49D;}
	.st5{fill:#EF846A;}
	.st6{fill:#F5B39D;}
</style>
<g>
	<g>
		<path class="st0" d="M62.3,10.3c-0.5-0.1-1.1-0.3-1.6-0.4c1,1.8,1.2,3.9,1.4,5.9c0.3,2.7,0.6,5.4,0.6,8.1c0,2.8-0.4,5.5-0.9,8.2
			c-0.4,2.5-1,4.9-1.8,7.3c0.5-0.2,1-0.4,1.5-0.6c0.5-5,2-9.8,2.2-14.8C64,19.4,63.6,14.7,62.3,10.3z"/>
		<path class="st0" d="M64.6,31.6c0.3-2.3,0.4-4.7,0.5-7c0.1-4.7-0.1-9.4-1.2-13.9c-0.1,0-0.1,0-0.2,0c-0.1,0-0.1,0-0.2,0
			c-0.3-0.1-0.7-0.2-1-0.3c1.5,4.3,1.8,9.1,1.6,13.7c-0.3,5-1.7,9.7-2.2,14.7c0.5-0.2,1-0.4,1.4-0.6c0.4-0.8,0.5-1.7,0.6-2.6
			C64.2,34.2,64.4,32.9,64.6,31.6z"/>
		<path class="st0" d="M70.8,23.9c0.4-3.9,0.4-7.9-1.2-11.5c-0.4-0.1-0.9-0.3-1.3-0.4c1,1.2,1.2,3,1.4,4.5c0.2,2.1,0.4,4.2,0.3,6.3
			c-0.1,2.2-0.4,4.4-0.9,6.5c-0.4,2.1-0.9,4.3-0.8,6.5c0.2-0.1,0.5-0.2,0.7-0.4c0.7-1.9,0.9-3.9,1.1-5.9
			C70.3,27.7,70.6,25.8,70.8,23.9z"/>
		<path class="st0" d="M60.6,14.4c-0.2-0.9-0.3-1.8-0.6-2.7c-0.2-0.7-0.5-1.7-1-2.3c-0.5-0.1-1-0.2-1.5-0.4c0,0-0.1,0-0.1,0
			c2.4,5.3,2.7,11.2,2,16.9c-0.3,2.7-0.9,5.3-1.4,8c-0.4,2.3-0.7,4.7-1.7,6.7c0.6-0.2,1.1-0.4,1.7-0.5c0,0,0-0.1,0-0.1
			c2.2-5.4,2.9-11.3,3.1-17C61.1,20.1,61.1,17.2,60.6,14.4z"/>
		<path class="st0" d="M59.1,25.9c0.7-5.7,0.4-11.6-1.9-16.9C53.1,8,49,7.3,44.8,6.7c-1.2-0.2-2.4-0.3-3.6-0.4c0,0.2-0.3,0.1-0.3,0
			c-0.8-0.1-1.6-0.2-2.4-0.2c-2-0.2-4-0.2-5.9-0.3c1.1,0.5,2,1.3,2.7,2.2c2.7,3.6,2.9,8.4,2.8,12.7c0,2.6,0,5.1-0.3,7.7
			c-0.3,2.5-0.8,5-1.6,7.4c-1.4,4-3.5,8.4-8.2,8.8c0,0,0,0,0,0c3,1.2,6.5,0.6,9.6,0.2c3.4-0.5,6.8-1.1,10.2-1.8
			c0-0.1,0.2-0.2,0.3-0.1c0,0,0,0,0,0c0.3-0.1,0.6-0.1,1-0.2c2.3-0.5,4.6-1.1,6.8-1.8c1.2-2.1,1.5-4.6,1.9-7
			C58.1,31.1,58.8,28.5,59.1,25.9z M54.3,19.5c0.1,0.2-0.2,0.2-0.3,0.1c-0.1-0.2-1.6-0.1-1.9-0.1c-1,0-2,0-3,0
			c-2.8,0-5.5,0.1-8.3,0.4c-0.1,0-0.1-0.2,0-0.2c2.9-0.4,5.9-0.5,8.9-0.5c1.1,0,2.2,0,3.3,0C53.2,19.2,54.1,19.1,54.3,19.5z
			 M53.7,16.6c-1.7-0.6-3.8-0.2-5.6-0.1c-1.1,0.1-2.2,0.1-3.3,0.2c-1.3,0.1-2.6,0.2-3.9,0c-0.1,0-0.1-0.1,0-0.1
			c1.5,0.1,2.9,0,4.4-0.2c1-0.1,2.1-0.1,3.1-0.2c1.1-0.1,2.2-0.2,3.3-0.2c0.7,0,1.5,0,2.1,0.3C54,16.4,53.9,16.6,53.7,16.6z
			 M39.5,12.1c3.9,0.3,7.8,0.3,11.6-0.1c0.2,0,0.2,0.2,0,0.3c-3.8,0.5-7.8,0.3-11.6-0.1C39.4,12.2,39.4,12.1,39.5,12.1z M40.4,13.8
			c2.2,0.1,4.5,0.1,6.7,0c1.8-0.1,3.8-0.5,5.6,0c0.2,0,0.1,0.3-0.1,0.3c-2-0.3-4,0-6,0c-2.1,0-4.2,0.1-6.3-0.1
			C40.3,14,40.3,13.8,40.4,13.8z M50.1,35.8c-1.5,0.2-3.1,0.3-4.7,0.4c-1.6,0.1-3.1,0.2-4.7,0.2c-0.1,0-0.1-0.1,0-0.1
			c1.6-0.1,3.1-0.2,4.7-0.4c1.5-0.1,3.1-0.4,4.7-0.4C50.2,35.5,50.2,35.7,50.1,35.8z M51.5,33.6c-3.6-0.1-7.2,0.1-10.8,0.4
			c-0.1,0-0.1-0.2,0-0.2c3.6-0.4,7.2-0.7,10.8-0.5C51.7,33.4,51.7,33.6,51.5,33.6z M41.2,28.2c3.8-0.4,7.7-0.7,11.5-0.6
			c0.2,0,0.2,0.3,0,0.3c-3.8-0.1-7.7,0.1-11.5,0.5C41.1,28.4,41.1,28.3,41.2,28.2z M52.9,30.6c-3.8-0.3-7.6,0.2-11.4,0.7
			c-0.1,0-0.1-0.2,0-0.2c3.7-0.5,7.6-1.3,11.4-0.8C53,30.3,53,30.6,52.9,30.6z M53.5,25.1c-4.1,0-8.3,0.2-12.4,0.2c0,0,0-0.1,0-0.1
			c4.1,0,8.3-0.5,12.4-0.4C53.6,24.8,53.6,25.1,53.5,25.1z M54.6,21.8c-2.3-0.4-4.5-0.4-6.8-0.1c-2.1,0.2-4.2,0.6-6.3,0.7
			c-0.1,0-0.1-0.1,0-0.1c0.1,0,0.3-0.1,0.4-0.1c0,0,0.1,0.1,0,0.1c-0.5,0.1,0.2,0,0.3-0.1c0.2,0,0.5,0,0.7-0.1
			c0.7-0.1,1.3-0.2,2-0.3c1-0.1,2.1-0.3,3.1-0.4c2.2-0.3,4.5-0.5,6.6,0.1C54.8,21.6,54.7,21.9,54.6,21.8z"/>
		<path class="st0" d="M69.7,23.4c0.1-2.1,0-4.2-0.2-6.2c-0.2-1.7-0.4-3.5-1.3-5c0,0,0-0.1,0-0.1c-0.4-0.1-0.7-0.2-1.1-0.3
			c1,4,1.6,8.1,1.6,12.2c0,2.1-0.1,4.3-0.5,6.4c-0.4,2-0.9,4-1.1,6.1c0.3-0.1,0.6-0.3,0.9-0.5C67.8,31.7,69.4,27.6,69.7,23.4z"/>
		<path class="st0" d="M68.5,24.1c0-4.2-0.6-8.4-1.5-12.5c-0.4-0.1-0.8-0.2-1.2-0.4c0.8,1.3,0.9,3.1,1,4.5c0.2,2.4,0.4,4.8,0.3,7.3
			c-0.1,2.5-0.3,4.9-0.8,7.4c-0.5,2.3-1,4.7-1.4,7c0.6-0.3,1.3-0.6,1.9-0.9c0.2-2,0.7-3.9,1.1-5.8C68.3,28.6,68.4,26.4,68.5,24.1z"
			/>
		<path class="st0" d="M66.8,23c0.1-2.3-0.1-4.6-0.3-6.9c-0.1-1.6-0.2-3.5-0.9-4.9c-0.5-0.2-1-0.3-1.6-0.5c1.3,4.6,1.5,9.4,1.4,14.1
			c-0.1,2.5-0.2,5-0.6,7.5c-0.2,1.3-0.4,2.5-0.6,3.7c-0.1,0.6-0.2,1.2-0.4,1.8c0.3-0.1,0.5-0.2,0.8-0.3c0.4-2.4,1-4.8,1.4-7.3
			C66.4,27.9,66.7,25.5,66.8,23z"/>
		<path class="st0" d="M62.4,23.8c0-2.6-0.3-5.1-0.5-7.6c-0.2-2.2-0.4-4.4-1.4-6.4c-0.5-0.1-0.9-0.2-1.4-0.4c0.4,0.4,0.7,1,0.9,1.5
			c0.4,1,0.6,2,0.8,3.1c0.5,2.8,0.6,5.6,0.5,8.4c-0.1,5.9-0.8,12-3,17.5c0.5-0.2,0.9-0.3,1.4-0.5c0.9-2.5,1.4-5,1.9-7.5
			C62,29.3,62.4,26.5,62.4,23.8z"/>
		<path class="st0" d="M47.9,43.1c-3.8,0.8-7.6,1.4-11.4,2c-2.8,0.4-6.1,0.9-8.7-0.5c0,0-0.1,0-0.1-0.1c-0.1,0-0.1,0-0.2-0.1
			c0,0,0,0,0,0c0,0,0,0-0.1,0c-1.1,0.5-1.1,2.3-1,3.3c0.3,1.6,1.5,2.8,2.9,3.7c3.3,2.1,7.2,2.8,11,1.6
			C43.8,52.1,51.4,47.3,47.9,43.1L47.9,43.1z M30.7,49.5c0,0.2-0.3,0.2-0.3,0c0-0.9,0.1-1.8,0.1-2.6c0-0.1,0.2-0.1,0.2,0
			C30.7,47.7,30.8,48.6,30.7,49.5z M32.4,50.7c-0.3-1.3-0.1-2.7,0-3.9c0-0.1,0.2-0.1,0.2,0c0,1.3,0,2.6,0.1,3.9
			C32.7,50.8,32.5,50.8,32.4,50.7z M35.1,50.8c-0.3-1.1-0.2-2.3-0.3-3.4c0-0.1,0.2-0.1,0.2,0c0.1,1.1,0.1,2.3,0.4,3.4
			C35.4,50.9,35.2,51,35.1,50.8z M37.7,50.4c-0.3-1.1-0.3-2.2-0.5-3.3c0-0.1,0.2-0.2,0.2-0.1c0.3,1.1,0.3,2.2,0.6,3.3
			C38,50.5,37.8,50.6,37.7,50.4z M39.6,49.8c-0.2-0.9-0.3-1.9-0.5-2.9c0-0.2,0.2-0.2,0.2-0.1c0.2,0.9,0.3,1.9,0.5,2.9
			C39.9,49.8,39.6,49.9,39.6,49.8z M41.8,49.2c-0.4-0.8-0.5-1.6-0.6-2.5c0-0.2,0.2-0.2,0.2-0.1c0.1,0.8,0.3,1.6,0.6,2.4
			C42.1,49.3,41.8,49.4,41.8,49.2z M43.9,48.2c-0.5-0.6-0.7-1.4-0.9-2.1c-0.1-0.2,0.2-0.2,0.3-0.1c0.2,0.7,0.5,1.4,0.9,2
			C44.3,48.2,44,48.4,43.9,48.2z M45.6,47.2c-0.1-0.3-0.2-0.6-0.3-0.9c-0.1-0.3-0.2-0.6-0.3-0.9c-0.1-0.2,0.2-0.3,0.3-0.2
			c0.3,0.6,0.6,1.3,0.6,2C45.9,47.4,45.7,47.4,45.6,47.2z"/>
		<path class="st3" d="M41.8,6.1c2.9,0.3,5.8,0.7,8.7,1.2c0.1-1.7,0.1-3.6-1.6-4.5C48,2.2,46.8,2,45.7,2c-1.8,0.1-3.7,0.9-4.3,2.6
			c0,0.4,0,0.9-0.1,1.3c0,0,0,0.1,0,0.1C41.5,6.1,41.6,6.1,41.8,6.1z"/>
		<path class="st3" d="M57.6,5.5c-0.7-0.9-1.7-1.3-2.8-1.4c-2,0-3.9,1.1-3.9,3.3c2.4,0.4,4.9,1,7.3,1.5C58.3,7.8,58.3,6.4,57.6,5.5z
			"/>
		<path class="st3" d="M61.7,7c-1.6-0.4-2.8,0.5-3.1,2c1.7,0.4,3.3,0.8,4.9,1.3C64.1,8.8,63.3,7.3,61.7,7z"/>
		<path class="st3" d="M30.9,5.1c0.5,0.1,1,0.3,1.5,0.5c2.8-0.1,5.7,0.1,8.6,0.4c0.2-1.4,0.3-2.7-0.7-3.8c-1-1-2.3-1.7-3.7-1.8
			c-1.3-0.1-2.7,0.1-3.8,0.9C31.5,2.1,30.4,3.6,30.9,5.1C30.9,5.1,30.9,5.1,30.9,5.1z"/>
		<path class="st0" d="M34.3,22.8c0.3,4.4,0,8.9-1.3,13.1c-0.9,3-2.3,6.1-4.7,8.2c5.1-0.7,7.1-6.5,8.3-11c0.6-2.4,1-4.8,1.1-7.3
			c0.2-3,0.2-6.1,0-9.1c-0.3-3.5-1-7.6-3.9-10c-2.6-2.2-6-1.6-9.2-1.4C31.5,7.4,33.9,16.5,34.3,22.8z"/>
		<path class="st0" d="M27.5,44.2c0.1,0,0.2,0,0.3,0c2.5-2,3.9-5.1,4.9-8.1c1.2-3.9,1.6-8,1.4-12c-0.2-4.3-1-8.7-3-12.5
			c-1.7-3.1-4.4-5.9-8.2-6.2c-2.2-0.2-4.4,0.4-6.5,1.2c-2.8,1-5.6,2.4-8.1,4.2C3.7,14-1,19.2,0.6,25.3C0.8,26,1,26.7,1.3,27.4
			l0.1-0.1c0,0,0,0,0,0c0,0,0.8,0.1,0.9,0.1c0.3,0,0.5,0,0.8,0.1c0.6,0,1.3,0.1,1.9,0.1c1.3,0.1,2.5,0.1,3.8,0.1c2.4,0,4.9,0,7.3,0
			c0.2,0,0.2,0.3,0,0.3c-2.5,0-5.1,0-7.6,0C7.3,28,6,28,4.8,27.9c-1.1-0.1-2.3-0.1-3.4-0.3c0.9,2.1,2.1,4.1,3.7,5.7
			c2,2,4.4,3.6,6.9,4.8C17,40.5,22.5,41.9,27.5,44.2C27.5,44.2,27.5,44.2,27.5,44.2z M16.5,16.8c-0.3,0.3-0.6,0.5-1,0.7
			c-0.3,0.2-0.8,0.3-1.2,0.3c-1,0-1.9-0.7-2.1-1.7c-0.1-0.5,0.1-1.1,0.4-1.4c0,0,0,0,0,0C13.9,12.2,18,15.1,16.5,16.8z"/>
		<path class="st0" d="M15.4,14.7c-0.4-0.2-0.9-0.4-1.4-0.4c0,0,0,0-0.1,0c-0.1,0-0.1,0-0.2,0c-0.1,0-0.2,0-0.3,0.1c0,0,0,0-0.1,0
			c-0.6,0.4-1,1-0.7,1.7c0.1,0.2,0.2,0.5,0.4,0.6c0.4,0.4,1,0.5,1.6,0.5c0.5-0.1,1.1-0.3,1.4-0.8c0.1-0.2,0.2-0.4,0.2-0.6
			C16.2,15.4,15.9,14.9,15.4,14.7z M14.4,15.8C14.4,15.8,14.4,15.9,14.4,15.8C14.4,15.9,14.3,15.9,14.4,15.8
			c-0.1,0.1-0.1,0.1-0.2,0.1c-0.1,0-0.1-0.1-0.1-0.1c0,0,0-0.1,0-0.2c0-0.1,0.1-0.1,0.1,0c0.1,0,0.1,0,0.1,0c0,0,0,0.1,0,0.1
			C14.5,15.8,14.4,15.8,14.4,15.8z"/>
		<path class="st0" d="M101.6,22.1c-0.1-0.1-0.1-0.3,0.1-0.3c-0.1-1.1-0.1-2.1-0.1-3.2c0-1,0-2,0-3l0,0c0-0.9-0.1-1.8-0.2-2.7
			c-0.7,0.6-1.4,1.3-2,2c0,1.1,0,2.1,0.1,3.2c0,1.8,0.2,3.6,0.2,5.3c0.7,0.5,1.5,0.8,2.2,1.2C101.8,23.8,101.8,22.9,101.6,22.1
			C101.7,22.1,101.7,22.1,101.6,22.1z"/>
		<path class="st0" d="M90.1,20.1C90.1,20.1,90.1,20.1,90.1,20.1C89,19.7,88,19.3,87,18.9c0.5,1.2,0.6,2.7,0.6,4
			c1-0.7,2-1.5,2.6-2.5C90.2,20.3,90.1,20.2,90.1,20.1C90.1,20.2,90.1,20.2,90.1,20.1z"/>
		<path class="st0" d="M103.3,16.2c-0.1-0.7-0.3-1.4-0.5-2c-0.3,0.4-0.7,0.8-1,1.2c0,1.1,0,2.1,0,3.2c0,1.1,0.1,2.2,0.2,3.4
			c0.4,0.2,0.7,0.4,1.1,0.6c0.1-0.5,0.1-0.9,0.2-1.4c0-0.1,0-0.1,0-0.2C103.5,19.4,103.6,17.8,103.3,16.2
			C103.3,16.2,103.3,16.2,103.3,16.2z"/>
		<path class="st0" d="M85.3,18.1c-0.5-0.2-1-0.4-1.4-0.6c0.8,2.5,1,5,0.6,7.6c0.4-0.3,0.9-0.6,1.3-1c0,0,0,0,0,0
			c0.2-1.2,0.2-2.2,0-3.4C85.5,19.9,85.3,19,85.3,18.1z"/>
		<path class="st0" d="M71.9,17.2c-0.1-1.4,0-2.9-0.5-4.2c0,0,0,0,0,0c-0.5-0.2-1-0.3-1.6-0.5c1.7,3.5,1.7,7.6,1.3,11.5
			c-0.2,2-0.5,4-0.7,6.1c-0.2,1.8-0.4,3.5-1,5.2c0.6-0.3,1.1-0.6,1.7-0.9c0.6-3.9,1.1-7.7,1-11.6C72.1,20.8,72,19,71.9,17.2z"/>
		<path class="st0" d="M104.6,15.4c-0.3,0.2-0.7,0.5-0.9,0.7c0.3,1.6,0.2,3.2,0.1,4.8c0.3,0.2,0.9,0.5,1,0.1
			c0.1-0.2,0.1-0.5,0.2-0.8c0.1-0.6,0.1-1.2,0.1-1.9C104.9,17.4,104.8,16.4,104.6,15.4z"/>
		<path class="st0" d="M83.6,17.5c-0.5-0.2-0.9-0.4-1.4-0.5c1.4,2.8,0.7,6.3,0.7,9.3c0.4-0.3,0.7-0.5,1.1-0.8c0,0,0-0.1,0-0.1
			C84.5,22.7,84.3,20.1,83.6,17.5z"/>
		<path class="st0" d="M85.5,18.2c0.2,1.1,0.5,2.3,0.6,3.4c0.1,0.7,0.2,1.6,0,2.3c0.3-0.2,0.5-0.4,0.8-0.5c0.2-0.1,0.3-0.2,0.5-0.3
			c0-1.5-0.1-2.9-0.5-4.3C86.3,18.6,85.9,18.4,85.5,18.2z"/>
		<path class="st0" d="M99.3,23.5c-0.1-0.1-0.1-0.2,0-0.3c-0.1-2.2-0.2-4.4-0.2-6.6c0-0.5,0-1.1,0-1.7c0,0,0-0.1,0-0.1c0,0,0,0,0,0
			c0-0.9,0.1-1.8,0-2.7c0-0.4-0.1-0.9-0.3-1.2c-0.1-0.1-0.8,0.7-0.9,0.7c-0.4,0.5-0.8,1-1.3,1.4c0.3,2.3,0.4,4.7,0.4,7.1
			c0,1.7,0.1,3.3,0.2,5c0.5,0.8,1.3,1.5,2.2,1.7C99.3,25.8,99.3,24.6,99.3,23.5L99.3,23.5z"/>
		<path class="st0" d="M96.8,25.2c0-1.7-0.2-3.3-0.1-5c0-3,0-6-0.7-8.9c-2.6,2.2-5.2,5.1-5.3,8.7c0,0,0,0.1-0.1,0.1c0,0,0,0.1,0,0.1
			c0.5,0.7,1.1,1.3,1.6,2c0.5,0.7,1,1.5,1.4,2.3c0.9,1.5,1.8,3,3.1,4.2c0.2-1.1,0.2-2.3,0.2-3.4C96.7,25.3,96.7,25.2,96.8,25.2z"/>
		<path class="st0" d="M79,15.7c-0.6-0.2-1.1-0.4-1.7-0.6c2.2,4.6,0.8,10.1,0.5,14.9c0.5-0.3,1-0.7,1.5-1.1c-0.1,0-0.1-0.1-0.1-0.2
			C80.3,24.6,80.2,19.8,79,15.7z"/>
		<path class="st0" d="M74,28.3c0.3-1.7,0.5-3.5,0.5-5.3c0-1.7-0.2-3.3-0.2-5c-0.1-1.4-0.1-2.9-0.5-4.2c-0.4-0.1-0.8-0.3-1.1-0.4
			c0.6,1.1,0.7,2.4,0.8,3.7c0.2,1.8,0.2,3.6,0.2,5.4c0,3.7-0.1,7.3-1,10.9c0.3-0.2,0.7-0.4,1-0.6C73.5,31.3,73.8,29.8,74,28.3z"/>
		<path class="st0" d="M77.1,15c-0.3-0.1-0.7-0.2-1-0.4c2.1,5.1,1.1,10.9,0.5,16.2c0.3-0.2,0.6-0.4,0.9-0.6c0,0,0,0,0,0
			C77.7,25.2,79.1,19.8,77.1,15z"/>
		<path class="st0" d="M75.7,18.6c-0.2-1.5-0.8-2.9-0.9-4.4c-0.3-0.1-0.6-0.2-0.9-0.3c0.5,1.2,0.6,2.5,0.6,3.8
			c0.1,1.7,0.3,3.5,0.3,5.2c0,1.7-0.1,3.4-0.4,5.1c-0.3,1.6-0.5,3.1-0.5,4.7c0.4-0.2,0.7-0.5,1.1-0.7c0.9-2.6,0.8-5.6,0.9-8.4
			C75.9,21.9,75.9,20.2,75.7,18.6z"/>
		<path class="st0" d="M76,14.7C76,14.6,76,14.6,76,14.7c-0.3-0.2-0.7-0.3-1-0.4c0.3,1.5,0.9,2.8,1,4.3c0.2,1.7,0.2,3.5,0.2,5.3
			c-0.1,2.5,0,5.3-0.8,7.8c0.3-0.2,0.6-0.4,0.9-0.6C76.9,25.7,77.9,19.9,76,14.7z"/>
		<path class="st0" d="M73.3,22.5c0-1.7,0-3.3-0.2-5c-0.1-1.4-0.2-2.8-0.8-4.1c-0.3-0.1-0.6-0.2-0.9-0.3c0.6,1.1,0.5,2.6,0.6,3.8
			c0.1,1.9,0.3,3.7,0.3,5.5c0,4-0.3,7.8-1,11.7c0.2-0.1,0.5-0.3,0.7-0.4c0,0,0.1,0,0.1-0.1C73.1,30,73.3,26.2,73.3,22.5z"/>
		<path class="st0" d="M80.3,16.2c-0.4-0.2-0.8-0.3-1.2-0.4c0.7,2.1,1,4.3,1.1,6.5c0.1,2.2-0.1,4.4-0.6,6.5c0.4-0.3,0.8-0.6,1.2-0.9
			C82.1,24.2,81.6,19.9,80.3,16.2z"/>
		<path class="st0" d="M81.7,16.7c-0.4-0.2-0.8-0.3-1.2-0.5c1.3,3.5,1.8,7.6,0.7,11.2c0.4-0.3,0.8-0.6,1.3-0.9c0,0,0.1-0.1,0.1-0.1
			c0-3.2,0.6-6.5-0.6-9.6C81.9,16.8,81.8,16.8,81.7,16.7z"/>
	</g>
	<g>
		<path class="st2" d="M104.6,15.1c-0.4,0.3-0.7,0.5-1,0.9c-0.1-0.7-0.3-1.4-0.5-2c0-0.1-0.1-0.1-0.2-0.1c-0.3,0.4-0.7,0.9-1,1.3
			c0-0.9-0.1-1.7-0.3-2.6c0-0.1-0.1-0.1-0.2-0.1c-0.7,0.7-1.4,1.4-2,2.1c0-0.3,0-0.6,0-1c0-1,0.1-2.1-0.5-3c0,0-0.1-0.1-0.2,0
			c-0.8,0.6-1.4,1.5-2.1,2.3c-0.1-0.6-0.2-1.2-0.4-1.9c0-0.1-0.2-0.1-0.2-0.1c-2.6,2.3-5.4,5.2-5.5,8.9c-0.1,0-0.1,0-0.2-0.1
			c0,0-0.1,0-0.1,0c-3.2-1.4-6.4-2.7-9.7-3.9l0,0c0-0.1-0.1-0.1-0.1,0c-1.8-0.7-3.6-1.3-5.4-2c0,0,0,0-0.1,0
			c-0.8-0.3-1.6-0.6-2.5-0.8c0,0,0,0-0.1,0c-0.9-0.3-1.8-0.6-2.7-0.9c0,0,0-0.1,0-0.1c0-0.1-0.1,0-0.1,0c-0.8-0.3-1.6-0.5-2.4-0.7
			c0,0,0,0,0,0c0-0.1-0.1-0.1-0.1,0c-1-0.3-2.1-0.6-3.1-0.9c0.6-1.6-0.2-3.2-1.9-3.7c-1.4-0.4-2.8,0.3-3.3,1.5c0-1-0.1-2.1-0.8-3
			c-0.7-1-1.8-1.4-3-1.5c-1.6-0.1-3.4,0.8-3.9,2.3c0-1.4-0.4-2.6-1.6-3.5c-1.1-0.8-2.5-1-3.8-0.9c-1.6,0.1-3.5,0.9-4.2,2.3
			c-0.1-0.7-0.3-1.3-0.8-1.9c-1-1.3-2.5-1.9-4.1-2.1c-1.5-0.2-3.1,0.3-4.3,1.2c-1.1,0.9-2,2.4-1.6,3.8c0,0-0.1,0-0.1,0
			c-2-0.3-4.1,0-6.1,0.2c0,0-0.1,0-0.1,0.1c-0.4-0.1-0.7-0.2-1.1-0.2c-2.1-0.3-4.2,0.3-6.1,0.9c-2.8,0.9-5.4,2.2-7.8,3.7
			C4.8,12.6,0.2,17.1,0,22.7c-0.1,2.8,1.2,5.7,2.7,8.1c1.5,2.3,3.5,4.1,5.8,5.6c4.7,3.1,10.4,4.6,15.6,6.6c1,0.4,2,0.8,3,1.2
			c0.1,0,0.1,0.1,0.2,0.1c-0.8,0.3-1,1.2-1.1,2c-0.1,1.2,0.1,2.4,0.9,3.4c0.9,1.2,2.3,2.1,3.7,2.8c1.7,0.9,3.4,1.3,5.3,1.4
			c2.9,0.1,5.6-0.8,8.1-2.3c2-1.2,4.2-3,4.8-5.3c0.4-1.2,0-2.4-0.7-3.3c2.5-0.6,5-1.2,7.5-1.9c0.1,0.1,0.2,0.1,0.3,0
			c0,0,0-0.1,0.1-0.1c1.2-0.4,2.4-0.8,3.6-1.2c0.1,0,0.2,0,0.2-0.1c0.6-0.2,1.2-0.4,1.7-0.6c0.1,0,0.2,0,0.2-0.1
			c0.5-0.2,1-0.4,1.5-0.6c0.1,0.1,0.2,0.1,0.2,0c0,0,0,0,0-0.1c1.1-0.4,2.1-0.9,3.2-1.4c0.1,0.1,0.3,0,0.3-0.1l0,0
			c1.2-0.6,2.5-1.2,3.7-1.9c0.2-0.1,0.3-0.2,0.4-0.3c0.1,0,0.2,0,0.2-0.1l0,0c0.3-0.2,0.7-0.4,1-0.6c0.1,0,0.2,0,0.2-0.1
			c0.4-0.2,0.8-0.5,1.2-0.8c0.1,0,0.1,0,0.1-0.1c2.4-1.5,4.7-3.1,6.9-4.7c0.1,0,0.2,0,0.2-0.1c0,0,0-0.1,0-0.1
			c0.5-0.3,0.9-0.7,1.4-1c0.1-0.1,0.3-0.2,0.4-0.3c0,0,0.1,0,0.1-0.1c1.4-1.1,2.9-2.2,4.4-3.2c0,0,0,0,0.1,0
			c0.1,0.1,0.3,0.1,0.3-0.1c0,0,0-0.1,0-0.1c1-0.7,2.2-1.5,2.7-2.6c0.4,0.6,0.9,1.1,1.3,1.7c0.6,0.8,1.1,1.7,1.6,2.6
			c0.9,1.5,1.9,3.1,3.2,4.3c0.1,0.1,0.2,0,0.2-0.1c0.2-1.1,0.3-2.2,0.3-3.3c0.6,0.7,1.4,1.3,2.3,1.5c0.1,0,0.2,0,0.2-0.2
			c0-1.1,0-2.2,0-3.4c0.7,0.5,1.5,0.8,2.3,1.3c0.1,0.1,0.2,0,0.2-0.1c0-0.9,0-1.7-0.1-2.6c0.4,0.2,0.8,0.4,1.2,0.5
			c0.1,0,0.2,0,0.2-0.1c0.1-0.5,0.1-1,0.2-1.5c0.4,0.1,0.7,0.3,1.1,0.3c0.1,0,0.1,0,0.1-0.1c0.7-1.9,0.4-4.3-0.1-6.3
			C104.7,15.1,104.7,15,104.6,15.1z M61.7,7c1.6,0.4,2.4,1.8,1.8,3.3c-1.6-0.5-3.3-0.9-4.9-1.3C58.9,7.5,60.1,6.6,61.7,7z M54.8,4.1
			c1.1,0,2.1,0.5,2.8,1.4c0.7,1,0.8,2.3,0.6,3.4c-2.4-0.6-4.8-1.1-7.3-1.5C50.9,5.3,52.8,4.1,54.8,4.1z M41.4,4.6
			C41.9,3,43.9,2.1,45.7,2C46.8,2,48,2.2,49,2.8c1.6,1,1.7,2.8,1.6,4.5c-2.9-0.5-5.8-0.9-8.7-1.2c-0.2,0-0.3,0-0.5,0
			c0,0,0-0.1,0-0.1C41.4,5.5,41.4,5,41.4,4.6z M32.7,1.3c1.1-0.8,2.5-1.1,3.8-0.9c1.5,0.1,2.7,0.8,3.7,1.8c1,1.1,1,2.4,0.7,3.8
			c-2.8-0.3-5.7-0.5-8.6-0.4c-0.5-0.2-1-0.4-1.5-0.5c0,0,0,0,0,0C30.4,3.6,31.5,2.1,32.7,1.3z M33.8,6.9c2.8,2.4,3.6,6.5,3.9,10
			c0.2,3,0.2,6.1,0,9.1c-0.1,2.4-0.5,4.9-1.1,7.3c-1.1,4.5-3.1,10.3-8.3,11c2.4-2.1,3.8-5.2,4.7-8.2c1.3-4.2,1.6-8.7,1.3-13.1
			c-0.5-6.3-2.8-15.4-9.7-17.4C27.8,5.3,31.2,4.7,33.8,6.9z M12,38.1c-2.5-1.2-4.9-2.8-6.9-4.8c-1.6-1.6-2.8-3.6-3.7-5.7
			c1.1,0.3,2.3,0.3,3.4,0.3C6,28,7.3,28,8.6,28c2.5,0,5.1,0,7.6,0c0.2,0,0.2-0.3,0-0.3c-2.4,0-4.9,0-7.3,0c-1.3,0-2.5,0-3.8-0.1
			c-0.6,0-1.3-0.1-1.9-0.1c-0.3,0-0.5,0-0.8-0.1c-0.1,0-0.9-0.1-0.9-0.1c0,0,0,0,0,0l-0.1,0.1C1,26.7,0.8,26,0.6,25.3
			C-1,19.2,3.7,14,8.3,10.7c2.5-1.7,5.2-3.1,8.1-4.2c2.1-0.8,4.3-1.4,6.5-1.2c3.7,0.3,6.5,3,8.2,6.2c2,3.8,2.8,8.2,3,12.5
			c0.2,4-0.2,8.2-1.4,12c-0.9,3-2.4,6.1-4.9,8.1c-0.1,0-0.2,0-0.3,0c0,0,0,0,0,0C22.5,41.9,17,40.5,12,38.1z M40.4,53.1
			c-3.8,1.2-7.7,0.5-11-1.6c-1.3-0.9-2.6-2-2.9-3.7c-0.2-1.1-0.1-2.8,1-3.3c0,0,0,0,0.1,0c0,0,0,0,0,0c0.1,0,0.1,0.1,0.2,0.1
			c0,0,0.1,0.1,0.1,0.1c2.6,1.3,5.9,0.9,8.7,0.5c3.8-0.6,7.6-1.2,11.4-2l0,0C51.4,47.3,43.8,52.1,40.4,53.1z M55.8,40.8
			c-2.2,0.7-4.5,1.3-6.8,1.8c-0.3,0.1-0.6,0.1-1,0.2c0,0,0,0,0,0c-0.1-0.1-0.2,0-0.3,0.1c-3.4,0.7-6.8,1.3-10.2,1.8
			c-3.1,0.5-6.6,1.1-9.6-0.2c0,0,0,0,0,0c4.7-0.4,6.8-4.8,8.2-8.8c0.8-2.4,1.3-4.9,1.6-7.4c0.3-2.5,0.3-5.1,0.3-7.7
			c0-4.3-0.2-9.1-2.8-12.7c-0.7-1-1.6-1.7-2.7-2.2c2,0.1,4,0.2,5.9,0.3c0.8,0.1,1.6,0.1,2.4,0.2c0,0.2,0.3,0.2,0.3,0
			c1.2,0.1,2.4,0.3,3.6,0.4C49,7.3,53.1,8,57.2,9c2.3,5.3,2.6,11.2,1.9,16.9c-0.3,2.7-0.9,5.3-1.4,7.9C57.3,36.1,57,38.7,55.8,40.8z
			 M57.9,40.1c-0.6,0.2-1.1,0.4-1.7,0.5c1.1-2.1,1.4-4.5,1.7-6.7c0.4-2.7,1.1-5.3,1.4-8c0.7-5.7,0.3-11.6-2-16.9c0,0,0.1,0,0.1,0
			c0.5,0.1,1,0.2,1.5,0.4c0.5,0.6,0.8,1.5,1,2.3c0.3,0.9,0.5,1.8,0.6,2.7c0.5,2.8,0.5,5.8,0.4,8.6c-0.1,5.8-0.9,11.7-3.1,17
			C57.9,40,57.9,40.1,57.9,40.1z M59.7,39.5c-0.5,0.2-0.9,0.3-1.4,0.5c2.2-5.5,3-11.6,3-17.5c0-2.8,0-5.7-0.5-8.4
			c-0.2-1-0.5-2.1-0.8-3.1c-0.2-0.5-0.5-1.1-0.9-1.5c0.5,0.1,0.9,0.2,1.4,0.4c1,1.9,1.2,4.2,1.4,6.4c0.2,2.6,0.5,5.1,0.5,7.6
			c0,2.7-0.4,5.5-0.9,8.1C61.1,34.5,60.5,37,59.7,39.5z M61.6,38.8c-0.5,0.2-1,0.4-1.5,0.6c0.8-2.4,1.4-4.8,1.8-7.3
			c0.5-2.7,0.9-5.5,0.9-8.2c0-2.7-0.3-5.4-0.6-8.1c-0.2-2-0.4-4.1-1.4-5.9c0.5,0.1,1.1,0.3,1.6,0.4c1.3,4.5,1.7,9.1,1.4,13.7
			C63.5,29,62.1,33.8,61.6,38.8z M63.3,38.1c-0.5,0.2-1,0.4-1.4,0.6c0.5-4.9,1.9-9.7,2.2-14.7c0.2-4.5-0.1-9.3-1.6-13.7
			c0.3,0.1,0.7,0.2,1,0.3c0,0,0.1,0.1,0.2,0c0.1,0,0.1,0,0.2,0c1.1,4.5,1.3,9.3,1.2,13.9c-0.1,2.3-0.2,4.7-0.5,7
			c-0.1,1.3-0.4,2.6-0.6,3.9C63.8,36.3,63.7,37.3,63.3,38.1z M63.8,37.9c0.2-0.6,0.3-1.2,0.4-1.8c0.3-1.2,0.5-2.5,0.6-3.7
			c0.3-2.5,0.5-5,0.6-7.5c0.1-4.7-0.1-9.5-1.4-14.1c0.5,0.1,1,0.3,1.6,0.5c0.7,1.5,0.8,3.3,0.9,4.9c0.2,2.3,0.3,4.6,0.3,6.9
			c-0.1,2.5-0.3,4.9-0.8,7.3c-0.5,2.4-1.1,4.8-1.4,7.3C64.3,37.7,64,37.8,63.8,37.9z M66.8,36.6c-0.6,0.3-1.3,0.6-1.9,0.9
			c0.4-2.4,0.9-4.7,1.4-7c0.5-2.4,0.8-4.9,0.8-7.4c0.1-2.4-0.1-4.8-0.3-7.3c-0.1-1.5-0.3-3.2-1-4.5c0.4,0.1,0.8,0.2,1.2,0.4
			c0.8,4.1,1.5,8.3,1.5,12.5c0,2.2-0.2,4.4-0.6,6.6C67.5,32.7,67,34.6,66.8,36.6z M67.1,36.4c0.2-2.1,0.8-4.1,1.1-6.1
			c0.4-2.1,0.5-4.3,0.5-6.4c0-4.1-0.6-8.2-1.6-12.2c0.4,0.1,0.7,0.2,1.1,0.3c0,0-0.1,0.1,0,0.1c0.9,1.5,1.1,3.3,1.3,5
			c0.2,2.1,0.3,4.2,0.2,6.2c-0.2,4.2-1.9,8.3-1.6,12.6C67.7,36.1,67.4,36.2,67.1,36.4z M68.3,35.8c-0.1-2.2,0.4-4.3,0.8-6.5
			c0.4-2.2,0.8-4.3,0.9-6.5c0.1-2.1,0-4.2-0.3-6.3c-0.2-1.5-0.4-3.3-1.4-4.5c0.4,0.1,0.9,0.3,1.3,0.4c1.6,3.6,1.6,7.6,1.2,11.5
			c-0.2,1.9-0.5,3.7-0.7,5.6c-0.2,2-0.5,4-1.1,5.9C68.8,35.6,68.5,35.7,68.3,35.8z M71.1,34.3c-0.6,0.3-1.1,0.6-1.7,0.9
			c0.6-1.7,0.8-3.5,1-5.2c0.2-2,0.5-4,0.7-6.1c0.4-3.8,0.4-7.9-1.3-11.5c0.5,0.2,1.1,0.3,1.6,0.5c0,0,0,0,0,0
			c0.6,1.3,0.4,2.8,0.5,4.2c0.1,1.8,0.3,3.6,0.3,5.4C72.2,26.6,71.7,30.4,71.1,34.3z M72.3,33.6c0,0-0.1,0-0.1,0.1
			c-0.2,0.1-0.5,0.3-0.7,0.4c0.7-3.9,1-7.8,1-11.7c0-1.9-0.2-3.7-0.3-5.5c-0.1-1.2,0-2.7-0.6-3.8c0.3,0.1,0.6,0.2,0.9,0.3
			c0.6,1.3,0.7,2.7,0.8,4.1c0.1,1.7,0.1,3.3,0.2,5C73.3,26.2,73.1,30,72.3,33.6z M73.6,32.8c-0.3,0.2-0.7,0.4-1,0.6
			c0.8-3.6,1-7.3,1-10.9c0-1.8-0.1-3.6-0.2-5.4c-0.1-1.2-0.3-2.5-0.8-3.7c0.4,0.1,0.8,0.3,1.1,0.4c0.4,1.4,0.5,2.8,0.5,4.2
			c0.1,1.7,0.2,3.3,0.2,5c0,1.8-0.2,3.5-0.5,5.3C73.8,29.8,73.5,31.3,73.6,32.8z M73.9,32.6c-0.1-1.6,0.2-3.2,0.5-4.7
			c0.3-1.7,0.4-3.4,0.4-5.1c0-1.7-0.2-3.5-0.3-5.2c-0.1-1.3-0.2-2.6-0.6-3.8c0.3,0.1,0.6,0.2,0.9,0.3c0.1,1.5,0.8,2.9,0.9,4.4
			c0.2,1.7,0.2,3.3,0.2,5c-0.1,2.7,0,5.7-0.9,8.4C74.6,32.1,74.3,32.4,73.9,32.6z M75.4,31.6c0.8-2.5,0.7-5.3,0.8-7.8
			c0-1.8,0-3.5-0.2-5.3c-0.2-1.5-0.7-2.9-1-4.3c0.4,0.1,0.7,0.3,1.1,0.4c0,0,0,0,0,0.1c1.9,5.2,0.9,11,0.3,16.4
			C76,31.2,75.7,31.4,75.4,31.6z M76.6,30.8c0.6-5.3,1.6-11.1-0.5-16.2c0.3,0.1,0.7,0.2,1,0.4c2,4.8,0.5,10.2,0.3,15.2c0,0,0,0,0,0
			C77.2,30.4,76.9,30.6,76.6,30.8z M77.8,30c0.3-4.9,1.7-10.3-0.5-14.9c0.6,0.2,1.1,0.4,1.7,0.6c1.2,4.1,1.3,8.9,0.3,13.1
			c0,0.1,0,0.1,0.1,0.2C78.8,29.3,78.3,29.6,77.8,30z M80.8,27.9c-0.4,0.3-0.8,0.6-1.2,0.9c0.6-2.1,0.7-4.3,0.6-6.5
			c-0.1-2.2-0.3-4.4-1.1-6.5c0.4,0.1,0.8,0.3,1.2,0.4C81.6,19.9,82.1,24.2,80.8,27.9z M82.6,26.5c0,0-0.1,0.1-0.1,0.1
			c-0.4,0.3-0.8,0.6-1.3,0.9c1.1-3.6,0.6-7.7-0.7-11.2c0.4,0.2,0.8,0.3,1.2,0.5c0.1,0,0.2,0.1,0.3,0.1C83.2,20,82.6,23.3,82.6,26.5z
			 M84,25.4c-0.4,0.3-0.7,0.5-1.1,0.8c0-3,0.7-6.5-0.7-9.3c0.5,0.2,0.9,0.4,1.4,0.5C84.3,20.1,84.5,22.7,84,25.4
			C84,25.4,84,25.4,84,25.4z M85.7,24.2C85.7,24.2,85.7,24.2,85.7,24.2c-0.4,0.3-0.9,0.7-1.3,1c0.5-2.5,0.2-5.1-0.6-7.6
			c0.5,0.2,1,0.4,1.4,0.6c0.1,0.9,0.2,1.8,0.4,2.7C85.9,22,85.9,23,85.7,24.2z M86.8,23.4c-0.3,0.2-0.5,0.4-0.8,0.5
			c0.2-0.7,0.1-1.5,0-2.3c-0.2-1.1-0.5-2.3-0.6-3.4c0.4,0.2,0.9,0.4,1.3,0.5c0.4,1.4,0.5,2.8,0.5,4.3C87.1,23.2,87,23.3,86.8,23.4z
			 M87.6,22.8c0-1.3-0.1-2.8-0.6-4c1,0.4,2,0.8,3,1.3c0,0,0,0,0.1,0c0,0,0,0,0,0.1c0,0,0,0.1,0.1,0.1C89.7,21.4,88.6,22.2,87.6,22.8
			z M96.6,28.7c-1.2-1.2-2.2-2.7-3.1-4.2c-0.5-0.8-0.9-1.5-1.4-2.3c-0.5-0.7-1.1-1.3-1.6-2c0,0,0-0.1,0-0.1c0,0,0.1-0.1,0.1-0.1
			c0.1-3.6,2.8-6.5,5.3-8.7c0.7,2.9,0.7,5.9,0.7,8.9c0,1.6,0.1,3.3,0.1,5c0,0,0,0.1,0,0.1C96.8,26.5,96.7,27.6,96.6,28.7z
			 M99.3,26.9c-0.9-0.2-1.7-0.9-2.2-1.7c0-1.7-0.2-3.4-0.2-5c0-2.4,0-4.7-0.4-7.1c0.4-0.5,0.9-1,1.3-1.4c0.1-0.1,0.8-0.8,0.9-0.7
			c0.2,0.4,0.3,0.8,0.3,1.2c0.1,0.9,0.1,1.8,0,2.7c0,0,0,0,0,0c0,0,0,0.1,0,0.1c0,0.6,0,1.1,0,1.7c0,2.2,0.2,4.4,0.2,6.6
			c-0.1,0.1-0.1,0.2,0,0.3l0,0C99.3,24.6,99.3,25.8,99.3,26.9z M99.6,23.3c-0.1-1.8-0.2-3.6-0.2-5.3c0-1.1-0.1-2.1-0.1-3.2
			c0.6-0.7,1.3-1.4,2-2c0.2,0.9,0.2,1.8,0.2,2.7l0,0c0,1,0,2,0,3c0,1.1,0.1,2.2,0.1,3.2c-0.1,0-0.2,0.2-0.1,0.3c0,0,0.1,0,0.1,0
			c0,0.8,0.1,1.6,0.1,2.5C101.1,24.1,100.3,23.8,99.6,23.3z M103.4,20.9c-0.1,0.1-0.1,0.1,0,0.2c-0.1,0.5-0.1,0.9-0.2,1.4
			c-0.4-0.1-0.8-0.3-1.1-0.6c-0.1-1.1-0.2-2.2-0.2-3.4c0-1,0-2.1,0-3.2c0.4-0.4,0.7-0.8,1-1.2c0.2,0.7,0.4,1.3,0.5,2c0,0,0,0,0,0
			C103.6,17.8,103.5,19.4,103.4,20.9z M104.9,20.2c0,0.3-0.1,0.5-0.2,0.8c-0.1,0.4-0.7,0.1-1-0.1c0.2-1.6,0.2-3.3-0.1-4.8
			c0.3-0.3,0.6-0.5,0.9-0.7c0.2,1,0.4,2,0.4,3C105,19,105,19.6,104.9,20.2z"/>
		<path class="st2" d="M51.2,12.3c0.2,0,0.2-0.3,0-0.3c-3.9,0.4-7.8,0.4-11.6,0.1c-0.1,0-0.1,0.1,0,0.1
			C43.4,12.6,47.3,12.8,51.2,12.3z"/>
		<path class="st2" d="M46.6,14.1c2,0,4-0.3,6,0c0.2,0,0.2-0.2,0.1-0.3c-1.8-0.4-3.8-0.1-5.6,0c-2.2,0.1-4.5,0.1-6.7,0
			c-0.1,0-0.1,0.1,0,0.1C42.4,14.2,44.6,14.2,46.6,14.1z"/>
		<path class="st2" d="M48.5,16.2c-1,0.1-2.1,0.1-3.1,0.2c-1.5,0.1-2.9,0.3-4.4,0.2c-0.1,0-0.1,0.1,0,0.1c1.3,0.2,2.6,0.1,3.9,0
			c1.1-0.1,2.2-0.1,3.3-0.2c1.8-0.1,3.9-0.5,5.6,0.1c0.2,0.1,0.2-0.2,0.1-0.3C53.3,16,52.4,16,51.7,16C50.6,16,49.5,16.1,48.5,16.2z
			"/>
		<path class="st2" d="M52.9,19.2c-1.1,0-2.2,0-3.3,0c-3,0-5.9,0.1-8.9,0.5c-0.1,0-0.1,0.2,0,0.2c2.8-0.3,5.5-0.3,8.3-0.4
			c1,0,2,0,3,0c0.3,0,1.8-0.1,1.9,0.1c0.1,0.1,0.3,0.1,0.3-0.1C54.1,19.1,53.2,19.2,52.9,19.2z"/>
		<path class="st2" d="M54.7,21.6c-2.1-0.6-4.5-0.4-6.6-0.1c-1,0.1-2.1,0.3-3.1,0.4c-0.7,0.1-1.3,0.2-2,0.3c-0.2,0-0.5,0.1-0.7,0.1
			c-0.1,0-0.8,0.2-0.3,0.1c0,0,0-0.1,0-0.1c-0.1,0-0.3,0.1-0.4,0.1c-0.1,0,0,0.1,0,0.1c2.1,0,4.2-0.4,6.3-0.7
			c2.3-0.3,4.5-0.3,6.8,0.1C54.7,21.9,54.8,21.6,54.7,21.6z"/>
		<path class="st2" d="M53.5,24.8c-4.2-0.1-8.3,0.4-12.4,0.4c0,0,0,0.1,0,0.1c4.1,0,8.3-0.2,12.4-0.2C53.6,25.1,53.6,24.8,53.5,24.8
			z"/>
		<path class="st2" d="M52.8,27.9c0.2,0,0.2-0.3,0-0.3c-3.8-0.1-7.7,0.2-11.5,0.6c-0.1,0-0.1,0.2,0,0.2C45.1,28,48.9,27.9,52.8,27.9
			z"/>
		<path class="st2" d="M52.9,30.3c-3.8-0.5-7.7,0.3-11.4,0.8c-0.1,0-0.1,0.2,0,0.2c3.8-0.5,7.5-1.1,11.4-0.7
			C53,30.6,53,30.3,52.9,30.3z"/>
		<path class="st2" d="M51.5,33.4c-3.6-0.2-7.2,0.1-10.8,0.5c-0.1,0-0.1,0.2,0,0.2c3.6-0.3,7.2-0.5,10.8-0.4
			C51.7,33.6,51.7,33.4,51.5,33.4z"/>
		<path class="st2" d="M50,35.5c-1.6,0.1-3.1,0.3-4.7,0.4c-1.6,0.1-3.1,0.3-4.7,0.4c-0.1,0-0.1,0.1,0,0.1c1.6,0,3.1-0.1,4.7-0.2
			c1.6-0.1,3.2-0.2,4.7-0.4C50.2,35.7,50.2,35.5,50,35.5z"/>
		<path class="st2" d="M32.4,46.8c0,1.3-0.3,2.7,0,3.9c0,0.1,0.2,0.1,0.2,0c-0.1-1.3-0.1-2.6-0.1-3.9C32.6,46.7,32.4,46.7,32.4,46.8
			z"/>
		<path class="st2" d="M34.8,47.3c0.1,1.1,0,2.3,0.3,3.4c0,0.2,0.3,0.1,0.2-0.1c-0.2-1.1-0.2-2.2-0.4-3.4
			C35,47.2,34.8,47.2,34.8,47.3z"/>
		<path class="st2" d="M37.2,47.1c0.2,1.1,0.2,2.3,0.5,3.3c0,0.2,0.3,0.1,0.3-0.1c-0.2-1.1-0.3-2.2-0.6-3.3
			C37.3,46.9,37.2,47,37.2,47.1z"/>
		<path class="st2" d="M39.1,46.9c0.2,0.9,0.3,1.9,0.5,2.9c0,0.2,0.3,0.1,0.3-0.1c-0.2-0.9-0.3-1.9-0.5-2.9
			C39.3,46.7,39.1,46.7,39.1,46.9z"/>
		<path class="st2" d="M41.1,46.8c0.1,0.8,0.3,1.7,0.6,2.5c0.1,0.1,0.3,0,0.2-0.1c-0.3-0.8-0.5-1.6-0.6-2.4
			C41.3,46.5,41.1,46.6,41.1,46.8z"/>
		<path class="st2" d="M43.3,46.1c-0.1-0.2-0.3-0.1-0.3,0.1c0.2,0.7,0.5,1.5,0.9,2.1c0.1,0.1,0.3,0,0.2-0.2
			C43.8,47.4,43.5,46.8,43.3,46.1z"/>
		<path class="st2" d="M45,45.4c0.1,0.3,0.2,0.6,0.3,0.9c0.1,0.3,0.2,0.6,0.3,0.9c0.1,0.1,0.3,0.1,0.3,0c0-0.7-0.4-1.4-0.6-2
			C45.2,45.1,44.9,45.2,45,45.4z"/>
		<path class="st2" d="M30.5,46.9c0,0.9-0.1,1.8-0.1,2.6c0,0.2,0.2,0.2,0.3,0c0.1-0.9,0.1-1.8,0-2.6C30.7,46.7,30.5,46.7,30.5,46.9z
			"/>
		<path class="st2" d="M12.7,14.6C12.7,14.6,12.7,14.6,12.7,14.6c-0.3,0.4-0.5,0.9-0.4,1.5c0.1,1,1.1,1.6,2.1,1.7
			c0.4,0,0.8-0.1,1.2-0.3c0.4-0.1,0.8-0.4,1-0.7C18,15.1,13.9,12.2,12.7,14.6z M16,16.5c-0.3,0.4-0.8,0.7-1.4,0.8
			c-0.6,0-1.2-0.2-1.6-0.5c-0.1-0.2-0.3-0.4-0.4-0.6c-0.2-0.7,0.2-1.4,0.7-1.7c0,0,0,0,0.1,0c0.1,0,0.2-0.1,0.3-0.1
			c0.1,0,0.1,0,0.2,0c0,0,0,0,0.1,0c0.5,0,1,0.1,1.4,0.4c0.5,0.3,0.8,0.7,0.8,1.2C16.2,16.1,16.1,16.4,16,16.5z"/>
		<path class="st2" d="M14.3,15.6c0,0-0.1,0-0.1,0c0,0.1,0,0.1,0,0.2c0,0,0,0.1,0.1,0.1c0,0,0.1,0,0.1,0c0,0,0,0,0,0c0,0,0,0,0-0.1
			c0,0,0-0.1,0-0.1c0,0,0-0.1,0-0.1C14.4,15.6,14.3,15.5,14.3,15.6z"/>
	</g>
</g>
</svg>
