<?xml version="1.0" encoding="utf-8"?>
<!-- Generator: Adobe Illustrator 21.0.0, SVG Export Plug-In . SVG Version: 6.00 Build 0)  -->
<svg version="1.1" id="圖層_1" xmlns="http://www.w3.org/2000/svg" xmlns:xlink="http://www.w3.org/1999/xlink" x="0px" y="0px"
	 viewBox="0 0 102.1 35.4" style="enable-background:new 0 0 102.1 35.4;" xml:space="preserve">
<style type="text/css">
	.st0{fill:#FFFFFF;}
	.st1{fill:#FCEE21;}
	.st2{fill:#232020;}
	.st3{fill:#FBB03B;}
	.st4{fill:#F2F49D;}
	.st5{fill:#EF846A;}
	.st6{fill:#F5B39D;}
</style>
<g>
	<g>
		<path class="st0" d="M26.5,29.4c0.5-0.4,1-0.8,1.5-1.2c-1,0.7-2.1,1.3-3,2c0.2,0.1,0.3,0.2,0.5,0.2C25.7,30,26.2,29.7,26.5,29.4z"
			/>
		<path class="st0" d="M31.5,25.2c-2.4,1.5-4.9,3-7.4,4.6c0.2,0.1,0.4,0.2,0.6,0.3c1.1-1.1,2.5-1.8,3.7-2.7
			C29.5,26.6,30.5,25.9,31.5,25.2z"/>
		<path class="st0" d="M34.3,23.4c-0.5,0.3-0.9,0.6-1.4,0.9c0,0,0,0,0.1,0.1c0.5-0.3,1-0.7,1.4-1C34.4,23.3,34.4,23.3,34.3,23.4
			C34.3,23.4,34.3,23.4,34.3,23.4z"/>
		<path class="st0" d="M23.9,29.7c2.9-2.3,6.2-4.2,9.3-6.1c-3.4,1.8-6.4,4.3-10,5.7C23.5,29.4,23.7,29.6,23.9,29.7z"/>
		<path class="st0" d="M26.5,31c0.2,0.1,0.4,0.2,0.6,0.3c0.5-0.8,1.2-1.3,1.9-1.9c1-0.8,1.9-1.6,2.9-2.4c1.5-1.2,3.1-2.4,4.7-3.4
			c-0.2,0-0.3,0-0.5,0C32.9,26,29.6,28.3,26.5,31z"/>
		<path class="st0" d="M32.8,27.8c-1.7,1.2-3.2,2.6-4.8,3.8c0.1,0,0.2,0.1,0.3,0.1c0.9-0.7,1.7-1.5,2.6-2.2c1-0.7,2-1.4,3.1-2.2
			c1.8-1.3,3.5-2.5,5.4-3.6c-0.3,0-0.5,0-0.8,0C36.8,25.1,34.7,26.4,32.8,27.8z"/>
		<path class="st0" d="M37.1,23.7c-1.9,1.1-3.6,2.5-5.4,3.8c-1.5,1.2-3.3,2.3-4.5,3.8c0.2,0.1,0.3,0.1,0.5,0.2
			c0.7-0.7,1.4-1.4,2.2-2.1c0.9-0.7,1.7-1.3,2.6-2c1.8-1.3,3.6-2.5,5.4-3.8C37.7,23.7,37.5,23.6,37.1,23.7
			C37.2,23.7,37.2,23.7,37.1,23.7z"/>
		<path class="st0" d="M28.6,34.3c2.2,0.8,4.4,0.7,6.6,0.1c-4.2-0.9-8.3-2.4-12.1-4.5C24.7,31.7,26.4,33.4,28.6,34.3z"/>
		<path class="st0" d="M35,23.5c-1.9,1.3-3.6,2.6-5.4,4c-0.8,0.6-1.6,1.3-2.4,1.9c-0.4,0.3-1.1,0.7-1.5,1.2c0.2,0.1,0.4,0.2,0.6,0.3
			c2.8-2.8,6-5,9.2-7.4C35.3,23.5,35.2,23.4,35,23.5C35,23.4,35,23.5,35,23.5z"/>
		<path class="st0" d="M37.6,25.3c0.2-0.1,0.3-0.2,0.5-0.4c-1.4,0.9-2.8,1.9-4.3,2.9c-1.1,0.8-2.3,1.5-3.4,2.3
			c-0.7,0.5-1.3,1.1-2,1.6c0.1,0,0.1,0,0.2,0.1c1.4-1.6,3.5-2.6,5.2-3.8C35.1,27.2,36.4,26.3,37.6,25.3z"/>
		<path class="st0" d="M47.7,28.4c1.1-1.1,2.2-2.3,3.2-3.4c0.7-0.8,1.4-1.6,2.3-2.3c-0.1,0-0.1,0-0.2,0c-2.6,2-4.7,4.6-7.1,6.8
			c-1.3,1.2-2.8,2.4-3.9,3.8c-0.3,0.3-0.6,1-1,1.3c0.3,0,0.5,0,0.8,0C43.4,32.3,45.7,30.4,47.7,28.4z"/>
		<path class="st0" d="M42.4,31.8c1.1-1.1,2.2-2.1,3.2-3.2c1.1-1,2.1-2.1,3.1-3.2c0.8-0.8,1.7-1.6,2.5-2.5c-0.2,0-0.4,0.1-0.7,0.1
			c0,0,0,0,0,0.1c-1.9,2.2-3.8,4.4-5.9,6.4c-1,1-2.1,1.9-3.2,2.8c-0.8,0.7-1.7,1.3-2.3,2.2c0.3,0,0.6,0.1,0.9,0.1
			C40.6,33.5,41.6,32.7,42.4,31.8z"/>
		<path class="st0" d="M42.8,32.2c1.1-1.2,2.3-2.3,3.5-3.5c2-2,3.9-4.1,6.1-5.9c-0.2,0-0.4,0.1-0.7,0.1c0,0,0,0,0,0
			c-0.7,0.9-1.6,1.7-2.4,2.5c-1,1.1-2,2.2-3.1,3.2c-1.1,1.1-2.2,2.1-3.2,3.1c-0.9,0.9-2,1.8-2.8,2.8c0.2,0,0.4,0,0.6,0
			c0.4-0.3,0.7-0.9,1-1.3C42.1,32.9,42.4,32.6,42.8,32.2z"/>
		<path class="st0" d="M54.2,22.5c-0.1,0-0.1,0-0.2,0c0,0,0,0.1-0.1,0.1c-0.8,0.6-1.6,1.4-2.3,2.2C52.5,24,53.4,23.3,54.2,22.5z"/>
		<path class="st0" d="M48.4,23.3c0,0.1,0,0.1-0.1,0.2c-1.1,1.1-2.3,2.1-3.4,3.1c1.3-1.1,2.5-2.1,3.7-3.3
			C48.5,23.3,48.4,23.3,48.4,23.3z"/>
		<path class="st0" d="M41,32.2c1.1-0.9,2.1-1.8,3.1-2.8c2.1-2,4-4.2,5.9-6.4c-0.2,0-0.5,0.1-0.7,0.1c0,0,0,0.1,0,0.1
			c-0.9,1.1-2,2-3,3.1c-0.9,0.9-1.7,1.9-2.6,2.9c-1,1.1-2,2.1-3.1,3c-0.8,0.7-1.8,1.3-2.6,2c0.3,0,0.6,0.1,0.9,0.1
			C39.3,33.5,40.2,32.9,41,32.2z"/>
		<path class="st0" d="M38.4,31.4c1.1-0.9,2.1-1.8,3.2-2.7c2.2-1.7,4.2-3.5,6.2-5.3c-0.1,0-0.1,0-0.2,0c0,0,0,0-0.1,0.1
			C43.4,27,39,30.1,35,33.8c0.2,0,0.4,0.1,0.7,0.1C36.4,32.9,37.4,32.2,38.4,31.4z"/>
		<path class="st0" d="M43.4,29c0.8-0.9,1.6-1.8,2.5-2.7c-3,2.6-6.2,5-8.9,7.8c0.2,0,0.5,0.1,0.7,0.1c0.9-0.9,2.1-1.6,3-2.5
			C41.6,30.9,42.6,30,43.4,29z"/>
		<path class="st0" d="M24.6,6.7c-8-0.4-16.1-0.7-24.1-0.9C5,13.6,11,20.9,18.4,26.2C24.5,22.2,26.3,13.4,24.6,6.7z M12.4,9.5
			c-0.5,0.9-1.9,0.5-2-0.4c-0.2-0.5,0-1.2,0.7-1.3C12.2,7.6,12.8,8.6,12.4,9.5z"/>
		<path class="st0" d="M27.4,21.9L27.4,21.9c-2.7,1.7-5.5,3.1-8.1,5c0.1,0.1,0.2,0.1,0.3,0.2c2.4-2.1,5.3-3.6,8-5.1
			C27.6,21.9,27.5,21.9,27.4,21.9z"/>
		<path class="st0" d="M28.6,22.2c-0.2,0-0.3-0.1-0.5-0.1c0,0,0,0,0,0c-2.8,1.6-5.6,3.2-8.3,5.1c0.1,0.1,0.2,0.2,0.3,0.2
			c1.1-1.1,2.8-1.8,4.1-2.6C25.7,23.9,27.2,23.1,28.6,22.2z"/>
		<path class="st0" d="M26.5,21.6c-2,1.2-4.2,2.2-6.1,3.7c0,0,0,0,0,0c-0.5,0.5-1,0.9-1.5,1.3c0.1,0.1,0.1,0.1,0.2,0.2
			c2.3-2,5.1-3.5,7.8-5C26.8,21.7,26.7,21.6,26.5,21.6z"/>
		<path class="st0" d="M29.4,22.4c-0.1,0-0.2-0.1-0.3-0.1c-1.6,0.9-3.2,1.9-4.7,2.7c-1.3,0.7-2.9,1.4-4.1,2.4
			c0.1,0.1,0.2,0.1,0.3,0.2c1.4-1,2.8-1.8,4.4-2.6C26.3,24.3,28.3,23.6,29.4,22.4z"/>
		<path class="st0" d="M21.4,24.2c0.5-0.4,1-0.7,1.5-1c1-0.7,2.1-1.2,3.2-1.8c-0.2-0.1-0.3-0.1-0.5-0.2c-1.1,0.7-2.3,1.3-3.4,2
			C21.9,23.6,21.7,23.9,21.4,24.2z"/>
		<path class="st0" d="M23.6,20.7c0.1,0,0.1-0.1,0.2-0.1c0.2-0.1,0.3,0.2,0.1,0.2c-0.1,0-0.3,0.1-0.4,0.2c0,0.1-0.1,0.2-0.1,0.3
			c0.3-0.2,0.6-0.4,0.9-0.6c-0.2-0.1-0.4-0.1-0.5-0.2C23.7,20.6,23.7,20.7,23.6,20.7z"/>
		<path class="st0" d="M48.5,28.2c-0.2,0.2-0.3,0.3-0.5,0.5c-2,2-4.1,3.8-5.9,6c0.3,0,0.5,0,0.8,0c1.3-2.4,3.5-4.1,5.2-6.1
			C48.3,28.5,48.4,28.3,48.5,28.2z"/>
		<path class="st0" d="M40.5,23.9c-1.2,0.5-2.2,1.5-3.3,2.3c-0.9,0.7-1.9,1.4-2.8,2c-1,0.7-2,1.4-3,2c-0.9,0.5-1.7,1.1-2.5,1.7
			c0,0,0.1,0,0.1,0c1.8-1.5,4-2.4,5.9-3.6c2.3-1.4,4.4-3,6.6-4.6c-0.3,0-0.6,0-0.8,0C40.6,23.8,40.5,23.8,40.5,23.9z"/>
		<path class="st0" d="M29.9,22.5c-1,1.2-2.8,1.8-4.1,2.5c-1.7,0.9-3.4,1.6-5,2.7c0.1,0.1,0.2,0.2,0.4,0.2c3.2-1.9,6.5-3.6,9.8-5.3
			C30.6,22.7,30.2,22.6,29.9,22.5z"/>
		<path class="st0" d="M23.1,21.7c-0.2,0.4-0.4,0.8-0.7,1.1c0.9-0.6,1.8-1.2,2.7-1.8c-0.2-0.1-0.5-0.2-0.7-0.3c0,0.1,0,0.1,0,0.2
			C24,21.3,23.6,21.5,23.1,21.7z"/>
		<path class="st0" d="M26.7,25.8c1.7-0.9,3.3-2.1,5.1-2.8c-0.1,0-0.2,0-0.2,0c-3.4,1.7-6.8,3.6-10.2,5.3c0.2,0.1,0.4,0.2,0.5,0.3
			c0.6-0.6,1.3-0.9,2-1.3C24.8,26.7,25.8,26.2,26.7,25.8z"/>
		<path class="st0" d="M36.4,28.4c-1.1,0.7-2.2,1.5-3.3,2.1c-1,0.6-2,1.1-2.8,1.9c0.1,0,0.3,0.1,0.4,0.1c0.1,0,0.2,0.1,0.3,0.1
			c1.8-1.8,4-3.2,6-4.7c2-1.4,4-2.9,5.9-4.3c0,0-0.1,0-0.1,0C40.7,25.2,38.7,27,36.4,28.4z"/>
		<path class="st0" d="M35.7,28.3c-2.1,1.3-4.6,2.3-6.5,3.8c0.3,0.1,0.6,0.2,0.9,0.3c0.6-0.8,1.4-1.3,2.3-1.8
			C33.6,29.9,34.7,29.1,35.7,28.3c1.4-0.8,2.7-1.6,4-2.6c0.9-0.7,1.7-1.3,2.6-2c-0.1,0-0.1,0-0.2,0C40,25.3,38,26.9,35.7,28.3z"/>
		<path class="st0" d="M44,23.8c-0.9,0.8-1.8,1.4-2.7,2.1c-1,0.9-2.1,1.8-3.2,2.6c-1.9,1.5-4.2,2.8-5.9,4.5c0.3,0.1,0.5,0.1,0.8,0.2
			c0.3-0.6,0.9-1.1,1.5-1.4c1.2-0.8,2.4-1.8,3.5-2.8c2.2-1.8,4.4-3.7,6.7-5.5c-0.2,0-0.4,0-0.7,0C44,23.7,44,23.7,44,23.8z"/>
		<path class="st0" d="M40.1,26.4c-1,0.7-2,1.4-3,2.2c-1.9,1.4-3.9,2.7-5.7,4.2c0.2,0.1,0.4,0.1,0.7,0.2c1.6-1.9,3.9-3.2,5.9-4.8
			C38.6,27.7,39.3,27,40.1,26.4z"/>
		<path class="st0" d="M32.4,23.1c-0.1,0-0.2,0-0.3-0.1c0,0.1,0,0.2-0.1,0.2c-1.7,0.8-3.2,1.9-4.9,2.7c-1.7,0.9-3.5,1.6-5.1,2.7
			c0.1,0.1,0.3,0.2,0.4,0.3c1.5-1.2,3.3-2.1,4.9-3C29.1,24.9,30.7,23.9,32.4,23.1z"/>
		<path class="st0" d="M33.2,23.2c-0.1,0-0.2,0-0.3,0c0,0.1,0,0.1-0.1,0.1c-1.8,0.9-3.5,1.9-5.3,2.9c-1.6,0.9-3.3,1.8-4.9,2.8
			c0.1,0.1,0.2,0.1,0.3,0.2c1.8-1,3.5-2,5.2-3C30,25.2,31.5,24.1,33.2,23.2z"/>
		<path class="st0" d="M45.3,23.7c-2.2,1.8-4.5,3.7-6.7,5.5c-1.1,0.9-2.2,1.8-3.3,2.6c-0.7,0.5-1.5,0.9-2.1,1.6
			c0.2,0,0.3,0.1,0.5,0.1c1.6-2,3.9-3.5,6-5c1.2-0.9,2.4-1.9,3.6-2.8c0.8-0.6,1.6-1.5,2.4-2.1C45.6,23.6,45.5,23.6,45.3,23.7
			C45.3,23.6,45.3,23.6,45.3,23.7z"/>
		<path class="st0" d="M34,33.6c0.3,0.1,0.7,0.2,1,0.2c1.5-2,3.6-3.7,5.6-5.2c2.1-1.7,4.2-3.3,6.3-5.1c-0.2,0-0.4,0-0.6,0
			c0,0,0,0.1-0.1,0.1c-2.1,1.8-4.1,3.5-6.3,5.1C37.9,30.2,35.6,31.7,34,33.6z"/>
		<path class="st0" d="M42.9,28.2c-0.3,0.3-0.7,0.5-1,0.8c-2,1.5-4.1,3.1-5.9,4.9c0.1,0,0.2,0,0.3,0.1c0.1,0,0.1,0,0.2-0.1
			c0.1,0,0.2,0,0.2,0.1C38.5,31.9,40.7,30,42.9,28.2z"/>
		<path class="st0" d="M76.3,14.6c-0.1,0.1-0.2,0.1-0.4,0.2c-0.8,1.3-1.3,2.9-2,4.2c-0.7,1.3-1.4,2.6-2.1,3.9c0.5-0.4,1-0.8,1.4-1.3
			c0.6-1.5,1.3-2.8,1.9-4.3C75.5,16.4,75.8,15.4,76.3,14.6z"/>
		<path class="st0" d="M77.1,14.1C77.1,14.1,77.1,14.2,77.1,14.1c-0.9,1.2-1.3,2.7-1.9,4c-0.5,1-1.1,2.1-1.6,3.1
			c0.4-0.4,0.8-0.7,1.2-1.1c0.8-2.1,1.5-4.3,2.7-6.3C77.3,14,77.2,14.1,77.1,14.1z"/>
		<path class="st0" d="M66.2,24c1.1-2.1,2.4-4.1,3.7-6.1c-0.3,0.1-0.5,0.2-0.8,0.4c0,0,0,0.1,0,0.1c-0.9,2.1-2.2,4-3.4,6
			c-1.1,1.9-2.3,3.7-3.6,5.5c0.4-0.2,0.8-0.4,1.1-0.7c0.2-0.1,0.3-0.2,0.4-0.3c0.2-0.6,0.5-1.2,0.8-1.7C65.1,26.1,65.6,25.1,66.2,24
			z"/>
		<path class="st0" d="M79.3,12.9c-0.8,1.8-1.8,3.6-2.6,5.4c0.3-0.3,0.6-0.6,0.9-0.9c0.7-1.6,1.3-3.2,2.1-4.8
			C79.5,12.7,79.4,12.8,79.3,12.9z"/>
		<path class="st0" d="M75.2,15.2c0,0-0.1,0-0.1,0.1c0,0,0,0.1,0,0.2c-0.6,1.4-1.6,2.7-2.4,4.1c-0.8,1.5-1.4,3-2.1,4.5
			c0.3-0.3,0.7-0.5,1-0.8c0.7-1.6,1.5-3.1,2.3-4.7C74.3,17.4,74.6,16.2,75.2,15.2z"/>
		<path class="st0" d="M78.2,13.5C78.2,13.5,78.2,13.6,78.2,13.5c-1.2,2.1-2.1,4.1-3,6.2c0.4-0.3,0.7-0.7,1.1-1
			c0.5-1.9,1.5-3.7,2.3-5.5C78.5,13.3,78.3,13.4,78.2,13.5z"/>
		<path class="st0" d="M74.5,15.5c-0.1,0-0.1,0.1-0.2,0.1c0,0.1,0,0.1,0,0.2c-1.2,1.7-2.2,3.5-3.2,5.4c-0.8,1.5-1.7,3-2.7,4.5
			c0.6-0.4,1.2-0.9,1.7-1.4c0.7-1.6,1.3-3.1,2.1-4.7C72.8,18.2,73.8,17,74.5,15.5z"/>
		<path class="st0" d="M69.2,22c1-1.7,1.8-3.4,2.9-5.1c-0.7,0.6-1.1,1.5-1.5,2.3c-0.5,0.9-1,1.8-1.6,2.7c-0.7,1.1-1.3,2.1-2,3.2
			c-0.6,0.9-1.2,1.8-1.7,2.8c0.2-0.1,0.4-0.3,0.6-0.4c0.3-0.8,0.8-1.5,1.3-2.3C67.9,24.1,68.6,23.1,69.2,22z"/>
		<path class="st0" d="M70.3,18.7c0.2-0.5,0.5-1,0.8-1.4c-0.2,0.1-0.4,0.2-0.6,0.3c0,0,0,0.1,0,0.1c-1.2,2.1-2.5,4.1-3.7,6.2
			c-0.5,0.9-1,1.9-1.6,2.8c-0.4,0.6-0.9,1.3-1.3,2.1c0.4-0.2,0.8-0.5,1.1-0.7c1-2.2,2.4-4.3,3.6-6.4C69.3,20.7,69.8,19.7,70.3,18.7z
			"/>
		<path class="st0" d="M73.6,16c-0.2,0.1-0.5,0.2-0.7,0.4c0,0,0,0.1,0,0.1c-1.2,1.8-2.1,3.8-3.3,5.7c-0.6,0.9-1.1,1.9-1.7,2.7
			c-0.5,0.7-1,1.4-1.5,2.1c0.5-0.3,1-0.7,1.5-1.1c0.7-1.8,2-3.4,2.9-5.1C71.6,19.3,72.5,17.6,73.6,16z"/>
		<path class="st0" d="M80.4,12.2c-0.1,0-0.1,0.1-0.2,0.1c0,0,0,0.1,0,0.2c-0.7,1.5-1.4,3-2.1,4.4c0.4-0.4,0.8-0.8,1.2-1.2
			c0.4-1.3,1.2-2.5,1.6-3.8C80.8,11.9,80.6,12,80.4,12.2z"/>
		<path class="st0" d="M81.7,11.4c-0.4,1.3-1.2,2.5-1.8,3.7c0.4-0.4,0.8-0.8,1.2-1.2c0.4-0.9,0.7-1.9,1.2-2.9
			C82,11.2,81.8,11.3,81.7,11.4z"/>
		<path class="st5" d="M101.1,2.2c-1.5-1.9-4.4-2.1-6.6-1.4c-2.8,0.9-5.5,2.7-5.9,5.8c2.5,0.8,5.3,1.5,8,1.1
			C98.5,7.3,103.2,4.8,101.1,2.2z"/>
		<path class="st0" d="M52.1,25.1c0.9-1,2-1.8,2.9-2.8c-0.1,0-0.1,0-0.2,0c0,0,0,0,0,0c-1,1.1-2.2,2-3.2,3c-1,1-2,2.1-2.9,3.2
			c-1.8,2.1-3.9,3.8-5.5,6.1c0.2,0,0.3,0,0.5,0c1.6-2.2,3.6-4.2,5.4-6.2C50,27.3,51,26.2,52.1,25.1z"/>
		<path class="st5" d="M94.6,9c-2-0.8-4.2-1.2-6.2-1.9c0,2.2,0.7,4.5,1.9,6.2c1.5,2.1,4.6,4.1,6.9,1.8C99.7,12.7,97,10,94.6,9z"/>
		<path class="st0" d="M84.3,9.7c-0.4,0.6-0.7,1.3-1.1,1.9c0.3-0.3,0.5-0.5,0.8-0.8c0.2-0.5,0.5-1.1,0.8-1.6
			c-0.1,0.1-0.3,0.2-0.4,0.3C84.3,9.7,84.3,9.7,84.3,9.7z"/>
		<path class="st0" d="M82.9,10.6c0,0.1,0,0.1,0,0.2c-0.5,0.8-0.9,1.7-1.3,2.6c0.3-0.3,0.6-0.6,0.9-0.9c0.2-0.4,0.4-0.8,0.6-1.2
			c0.2-0.3,0.3-0.7,0.5-1C83.4,10.3,83.1,10.4,82.9,10.6z"/>
		<path class="st0" d="M85.5,8.7c-0.2,0.4-0.4,0.9-0.7,1.3c0.2-0.2,0.5-0.5,0.7-0.7C85.8,8.8,86,8.4,86.3,8
			C86,8.2,85.8,8.4,85.5,8.7C85.5,8.6,85.5,8.6,85.5,8.7z"/>
		<path class="st0" d="M24.8,6.7c1.4,3.4,1,7.6,0,11.1c-0.3,0.8-0.6,1.7-0.9,2.5c0.9,0.3,1.8,0.6,2.7,0.9c0.1-0.1,0.2,0,0.3,0.1
			c4.7,1.4,9.6,2.1,14.5,2c5.4-0.2,10.8-0.7,16.1-1.8c5.5-1.1,10.6-3,15.6-5.6c2.7-1.4,5.4-2.9,8-4.5c1.3-0.8,2.7-1.7,3.9-2.7
			c0.5-0.4,1-0.8,1.5-1.2c-0.2,0-0.3,0-0.5,0C65.4,8.6,45.1,7.6,24.8,6.7z"/>
		<path class="st0" d="M86.8,7.8c-0.1,0.1-0.1,0.2-0.2,0.3c0.2-0.2,0.3-0.3,0.5-0.5c0-0.1,0.1-0.2,0.1-0.4c-0.2,0.1-0.3,0.2-0.5,0.3
			C86.8,7.6,86.9,7.7,86.8,7.8z"/>
		<path class="st0" d="M54.9,27.6c1-1.4,2-2.8,3-4.2c-0.4,0.5-0.9,1-1.2,1.5c-0.9,1.2-1.7,2.4-2.6,3.6c-1.6,2.1-3.4,3.8-5,5.9
			c0.1,0,0.3,0,0.4-0.1c0.7-1.1,1.6-2,2.4-2.9C53,30.1,54,28.8,54.9,27.6z"/>
		<path class="st0" d="M60.1,21.3C60,21.3,60,21.3,60.1,21.3c-0.1,0-0.1,0.1-0.1,0.1c-1.9,2.2-3.4,4.8-5.2,7.1c-1.5,2-3.3,3.8-5,5.7
			c0.2,0,0.4-0.1,0.7-0.1c1.9-2.1,3.8-4.2,5.4-6.5C57.3,25.5,58.6,23.3,60.1,21.3z"/>
		<path class="st0" d="M56.3,24.6c0.7-1,1.7-1.9,2.3-3c0,0,0,0-0.1,0c0,0,0,0,0,0c-1,0.8-1.7,2-2.6,2.9c-1,1.2-2.1,2.4-3.2,3.6
			c-0.9,1.1-1.8,2.3-2.7,3.4c-0.8,0.9-1.6,1.9-2.3,2.9c0.3,0,0.6-0.1,0.9-0.1c1.4-2.3,3.4-4,5-6.2C54.7,27,55.5,25.8,56.3,24.6z"/>
		<path class="st0" d="M59.2,21.6c-0.1,0.1-0.1,0.2-0.2,0.3c0.1-0.1,0.2-0.3,0.4-0.4c-0.1,0-0.1,0-0.2,0
			C59.2,21.5,59.2,21.6,59.2,21.6z"/>
		<path class="st0" d="M56,24c0.6-0.7,1.2-1.5,1.9-2.2c-0.1,0-0.2,0.1-0.3,0.1c0,0,0,0.1-0.1,0.1c-2.1,2.1-4,4.4-5.8,6.8
			c-0.9,1.1-1.7,2.2-2.6,3.3c-0.7,0.8-1.5,1.6-1.9,2.5c0.2,0,0.4,0,0.6-0.1c1.5-2.5,3.4-4.9,5.3-7.1C54,26.2,55.1,25.2,56,24z"/>
		<path class="st0" d="M50.3,28.1c1.1-1.3,2.1-2.6,3.1-3.8c-0.3,0.3-0.6,0.5-0.8,0.8c-1.1,1.1-2.1,2.2-3.1,3.3
			c-1.8,2-3.9,4.1-5.5,6.3c0.3,0,0.6,0,0.9,0c0.8-1,1.5-2,2.3-3C48.1,30.5,49.2,29.4,50.3,28.1z"/>
		<path class="st0" d="M68.5,18.5c-0.4,0.2-0.8,0.3-1.1,0.5c0.1,0,0.1,0.1,0,0.2c-0.8,1.9-2,3.7-3,5.4c-1.1,1.9-2.3,3.8-3.2,5.8
			c0.2-0.1,0.5-0.3,0.7-0.4c1.1-2,2.4-3.9,3.5-5.9C66.4,22.3,67.6,20.4,68.5,18.5z"/>
		<path class="st0" d="M55.9,22.2C55.9,22.2,55.9,22.2,55.9,22.2c-2.2,2.1-4,4.5-5.9,6.8c-1.6,1.9-3.3,3.7-4.9,5.7
			c0.2,0,0.4,0,0.7,0c1.3-2.5,3.3-4.5,5.1-6.6C52.5,26,54.1,24,55.9,22.2z"/>
		<path class="st0" d="M57,27c0.9-1.2,1.7-2.6,2.6-3.8c0.5-0.7,1-1.6,1.6-2.2c-0.2,0-0.3,0.1-0.5,0.1c-1.8,2.3-3.2,4.9-5,7.3
			c-1.5,1.9-3.2,3.8-4.8,5.6c0.3-0.1,0.5-0.1,0.8-0.2c0.6-1.1,1.4-1.9,2.2-2.8C55,29.7,56,28.4,57,27z"/>
		<path class="st0" d="M51.6,28.2c1.7-2.1,3.4-4.3,5.3-6.2c-0.1,0-0.2,0-0.3,0.1c-2.2,2.1-4,4.5-5.9,6.7c-1.6,1.9-3.3,3.7-4.6,5.8
			c0.3,0,0.5,0,0.8-0.1c0.4-1,1.2-1.8,1.9-2.7C49.8,30.7,50.7,29.4,51.6,28.2z"/>
		<path class="st0" d="M65.4,21c-0.4,0.5-0.7,1-1.1,1.5c-0.7,1.1-1.5,2.1-2.2,3.2c-1.4,2-2.7,4.2-4.1,6.2c0.4-0.2,0.8-0.3,1.1-0.5
			c1.2-2.3,2.7-4.3,4-6.5C63.9,23.6,64.6,22.3,65.4,21z"/>
		<path class="st0" d="M66.5,19.3C66.5,19.3,66.5,19.3,66.5,19.3C66.5,19.4,66.5,19.4,66.5,19.3C66.5,19.4,66.5,19.3,66.5,19.3
			C66.5,19.3,66.5,19.3,66.5,19.3z"/>
		<path class="st0" d="M57.5,27.4c0.8-1.1,1.6-2.3,2.4-3.4c0.7-1,1.6-2.1,2.2-3.2c0,0-0.1,0-0.1,0c0,0,0,0.1-0.1,0.1
			c-1,0.8-1.7,2.2-2.5,3.2c-0.8,1.2-1.5,2.4-2.4,3.5c-0.9,1.2-1.7,2.4-2.7,3.4c-0.8,0.9-1.6,1.7-2.3,2.7c0.1,0,0.2-0.1,0.4-0.1
			c0.6-1,1.5-1.9,2.3-2.7C55.7,29.8,56.6,28.6,57.5,27.4z"/>
		<path class="st0" d="M66.5,20c-1.2,1.7-2.1,3.6-3.3,5.4c-1.2,1.9-2.6,3.8-3.8,5.8c0.4-0.2,0.9-0.4,1.3-0.6
			c0.7-1.9,1.8-3.7,2.8-5.5C64.6,23.4,65.6,21.8,66.5,20z"/>
		<path class="st0" d="M65.9,19.5c-0.1,0-0.3,0.1-0.4,0.1c0,0,0,0.1,0,0.2c-1.7,2.1-3,4.4-4.6,6.6c-1.4,2-2.8,3.9-4.1,5.9
			c0.4-0.1,0.7-0.3,1.1-0.4c0.9-2.3,2.5-4.5,4-6.5C63.1,23.5,64.6,21.5,65.9,19.5z"/>
		<path class="st0" d="M55.2,30.9c-0.8,0.9-1.8,1.7-2.5,2.7c0.4-0.1,0.9-0.2,1.3-0.4c0.4-1,1-2,1.6-2.8
			C55.5,30.5,55.4,30.7,55.2,30.9z"/>
		<path class="st0" d="M64.8,19.9c-0.2,0.1-0.4,0.1-0.6,0.2c-1.3,2.3-2.9,4.5-4.4,6.7c-1.3,2-3,3.8-4.2,5.9c0.2-0.1,0.5-0.2,0.7-0.2
			c1.3-2.3,2.9-4.4,4.4-6.6C62.1,23.9,63.3,21.8,64.8,19.9z"/>
		<path class="st0" d="M63.5,20.3c-0.1,0-0.2,0.1-0.4,0.1c0,0,0,0,0,0c-0.8,1-1.4,2.2-2.1,3.4c-0.7,1.1-1.3,2.2-2.2,3.2
			c-1.6,1.9-3.4,3.8-4.5,6.1c0.3-0.1,0.7-0.2,1-0.3c1-2.2,2.7-4.2,4-6.2C60.8,24.5,62.2,22.4,63.5,20.3z"/>
		<path class="st0" d="M57.7,27.8c0.2-0.2,0.4-0.4,0.6-0.7c0.8-1,1.5-2.1,2.2-3.2c-0.9,1.2-1.8,2.5-2.7,3.7
			C57.8,27.7,57.7,27.7,57.7,27.8z"/>
	</g>
	<g>
		<path class="st2" d="M94.4,0.4c-2.9,0.9-5.8,3-6.1,6.2c0,0,0,0-0.1,0c-0.2-0.1-0.3,0.1-0.3,0.2c0,0,0,0,0,0
			c0.1-0.2-0.1-0.6-0.3-0.4c-0.2,0.2-0.5,0.3-0.7,0.5c-28,2.1-56-0.8-84-1.3c-0.8,0-1.7,0-2.5,0c0,0,0-0.1-0.1-0.1
			C0.2,5.2-0.1,5.3,0,5.5c4.4,8.2,10.6,15.7,18.2,21.1c0,0.1,0.1,0.2,0.3,0.2c1.1,0.8,2.2,1.5,3.3,2.2c0.3,0.2,0.7,0.4,1,0.6
			c1.3,2.1,3.2,4,5.5,5c2.6,1.2,5.5,0.8,8.1,0c5.3,1,10.8,0.9,16.2-0.3c15-3.4,25.3-16.5,35.5-26.9c-0.1,2.5,0.8,5,2.2,7
			c1.7,2.2,4.6,3.2,6.9,1.5c2.3-1.7,1.4-4.7-0.6-6.2C96,9,95.2,8.6,94.3,8.3c1.3,0,2.5-0.1,3.8-0.5c2-0.7,5.2-3.4,3.5-5.7
			C100-0.1,96.8-0.3,94.4,0.4z M18.4,26.2C11,20.9,5,13.6,0.5,5.7c8,0.2,16.1,0.6,24.1,0.9C26.3,13.4,24.5,22.2,18.4,26.2z
			 M24.5,20.8c0.2,0.1,0.4,0.2,0.7,0.3c-0.9,0.6-1.8,1.2-2.7,1.8c0.2-0.4,0.5-0.7,0.7-1.1c0.5-0.2,0.9-0.4,1.4-0.8
			C24.5,20.9,24.5,20.9,24.5,20.8z M25.5,21.2c0.2,0.1,0.3,0.1,0.5,0.2c-1,0.6-2.1,1.2-3.2,1.8c-0.5,0.3-1,0.6-1.5,1
			c0.3-0.3,0.5-0.6,0.8-1C23.3,22.6,24.4,21.9,25.5,21.2z M23.3,21.3c0-0.1,0.1-0.2,0.1-0.3c0.1-0.1,0.3-0.1,0.4-0.2
			c0.2-0.1,0.1-0.3-0.1-0.2c-0.1,0-0.1,0.1-0.2,0.1c0-0.1,0.1-0.2,0.1-0.2c0.2,0.1,0.4,0.1,0.5,0.2C23.9,20.9,23.6,21.1,23.3,21.3z
			 M18.9,26.6c0.5-0.4,1-0.8,1.5-1.3c0,0,0,0,0,0c1.9-1.5,4.1-2.5,6.1-3.7c0.1,0,0.3,0.1,0.4,0.1c-2.7,1.5-5.5,3-7.8,5
			C19,26.7,19,26.6,18.9,26.6z M19.3,26.9c2.6-1.9,5.4-3.3,8.1-5l0,0c0.1,0,0.1,0,0.2,0.1c-2.7,1.5-5.6,3-8,5.1
			C19.5,27,19.4,26.9,19.3,26.9z M19.8,27.2c2.7-1.8,5.5-3.5,8.3-5.1c0,0,0,0,0,0c0.2,0,0.3,0.1,0.5,0.1c-1.4,0.9-2.9,1.7-4.4,2.6
			c-1.4,0.8-3,1.5-4.1,2.6C20,27.3,19.9,27.2,19.8,27.2z M20.3,27.5c1.2-1,2.8-1.7,4.1-2.4c1.6-0.9,3.2-1.8,4.7-2.7
			c0.1,0,0.2,0.1,0.3,0.1c-1.2,1.2-3.1,1.9-4.5,2.6c-1.5,0.8-3,1.6-4.4,2.6C20.5,27.6,20.4,27.6,20.3,27.5z M20.8,27.8
			c1.6-1.1,3.3-1.9,5-2.7c1.4-0.7,3.1-1.4,4.1-2.5c0.3,0.1,0.7,0.2,1.1,0.2c-3.3,1.7-6.6,3.4-9.8,5.3C21,28,20.9,27.9,20.8,27.8z
			 M21.4,28.2c3.4-1.7,6.8-3.6,10.2-5.3c0.1,0,0.2,0,0.2,0c-1.8,0.8-3.4,1.9-5.1,2.8c-0.9,0.5-1.9,1-2.8,1.5c-0.7,0.4-1.4,0.7-2,1.3
			C21.7,28.4,21.5,28.3,21.4,28.2z M22.1,28.6c1.6-1.1,3.4-1.9,5.1-2.7c1.7-0.8,3.2-1.9,4.9-2.7c0.1,0,0.1-0.1,0.1-0.2
			c0.1,0,0.2,0,0.3,0.1c-1.7,0.9-3.4,1.8-5,2.8c-1.6,0.9-3.5,1.8-4.9,3C22.4,28.8,22.2,28.7,22.1,28.6z M22.7,29
			c1.5-1.1,3.2-1.9,4.9-2.8c1.7-1,3.5-2,5.3-2.9c0.1,0,0.1-0.1,0.1-0.1c0.1,0,0.2,0,0.3,0c-1.7,0.9-3.3,2-4.9,3
			c-1.7,1-3.5,2.1-5.2,3C23,29.1,22.8,29.1,22.7,29z M43.3,25.7c-1.2,1-2.4,1.9-3.6,2.8c-2,1.5-4.4,3-6,5c-0.2,0-0.3-0.1-0.5-0.1
			c0.6-0.7,1.4-1.1,2.1-1.6c1.1-0.9,2.2-1.7,3.3-2.6c2.2-1.8,4.5-3.7,6.7-5.5c0,0,0,0,0.1-0.1c0.1,0,0.3,0,0.4,0
			C44.9,24.2,44.1,25,43.3,25.7z M46.2,23.6c0,0,0.1-0.1,0.1-0.1c0.2,0,0.4,0,0.6,0c-2.1,1.7-4.1,3.4-6.3,5.1
			c-2,1.6-4.1,3.2-5.6,5.2c-0.3-0.1-0.7-0.1-1-0.2c1.7-1.9,4-3.3,6-4.8C42.1,27.1,44.2,25.4,46.2,23.6z M38,29.1
			c-1.2,0.9-2.3,1.9-3.5,2.8c-0.6,0.4-1.2,0.8-1.5,1.4c-0.3-0.1-0.5-0.1-0.8-0.2c1.7-1.7,4-3,5.9-4.5c1.1-0.8,2.1-1.7,3.2-2.6
			c0.9-0.8,1.8-1.4,2.7-2.1c0,0,0.1-0.1,0.1-0.1c0.2,0,0.4,0,0.7,0C42.4,25.4,40.2,27.3,38,29.1z M32,33c-0.2-0.1-0.4-0.1-0.7-0.2
			c1.8-1.5,3.8-2.8,5.7-4.2c1-0.7,2-1.4,3-2.2c-0.7,0.6-1.5,1.2-2.2,1.8C35.9,29.8,33.6,31.1,32,33z M37.1,28c-2,1.5-4.2,2.9-6,4.7
			c-0.1,0-0.2-0.1-0.3-0.1c-0.1,0-0.3-0.1-0.4-0.1c0.8-0.8,1.8-1.4,2.8-1.9c1.1-0.7,2.2-1.4,3.3-2.1c2.3-1.5,4.3-3.2,6.6-4.7
			c0,0,0.1,0,0.1,0C41.1,25.2,39.1,26.6,37.1,28z M39.7,25.7c-1.2,1-2.5,1.8-3.9,2.6c-1.2,0.7-2.3,1.5-3.4,2.2
			c-0.9,0.5-1.7,1-2.3,1.8c-0.3-0.1-0.6-0.2-0.9-0.3c2-1.5,4.4-2.5,6.5-3.8c2.2-1.4,4.3-3,6.4-4.5c0.1,0,0.1,0,0.2,0
			C41.4,24.3,40.6,25,39.7,25.7z M34.9,28.4c-2,1.2-4.2,2.1-5.9,3.6c0,0-0.1,0-0.1,0c0.8-0.7,1.6-1.2,2.5-1.7c1-0.6,2-1.3,3-2
			c1-0.7,1.9-1.3,2.8-2c1.1-0.8,2.1-1.7,3.3-2.3c0.1,0,0.1-0.1,0.1-0.1c0.3,0,0.6,0,0.8,0C39.3,25.3,37.2,27,34.9,28.4z M28.6,31.8
			c-0.1,0-0.1,0-0.2-0.1c0.7-0.5,1.3-1.1,2-1.6c1.1-0.8,2.3-1.5,3.4-2.3c1.4-1,2.8-2,4.3-2.9c-0.2,0.1-0.3,0.2-0.5,0.4
			c-1.3,0.9-2.5,1.8-3.8,2.7C32.1,29.2,30,30.3,28.6,31.8z M34,27.4c-1,0.7-2,1.4-3.1,2.2c-0.9,0.7-1.7,1.5-2.6,2.2
			c-0.1,0-0.2-0.1-0.3-0.1c1.6-1.3,3.2-2.6,4.8-3.8c1.9-1.4,3.9-2.6,5.8-4.1c0.3,0,0.5,0,0.8,0C37.5,24.8,35.8,26.1,34,27.4z
			 M32.5,27.4c-0.9,0.6-1.7,1.3-2.6,2c-0.8,0.6-1.5,1.4-2.2,2.1c-0.2-0.1-0.3-0.1-0.5-0.2c1.3-1.4,3-2.6,4.5-3.8
			c1.7-1.3,3.5-2.7,5.4-3.8c0,0,0.1,0,0.1-0.1c0.2,0,0.5,0,0.7,0C36.1,24.9,34.3,26.1,32.5,27.4z M31.9,27c-1,0.8-2,1.5-2.9,2.4
			c-0.7,0.6-1.4,1.1-1.9,1.9c-0.2-0.1-0.4-0.2-0.6-0.3c3.1-2.6,6.4-4.9,9.6-7.4c0.2,0,0.3,0,0.5,0C34.9,24.6,33.4,25.8,31.9,27z
			 M26.3,30.9c-0.2-0.1-0.4-0.2-0.6-0.3c0.3-0.5,1-0.8,1.5-1.2c0.8-0.6,1.6-1.3,2.4-1.9c1.8-1.4,3.6-2.7,5.4-4c0,0,0,0,0.1-0.1
			c0.2,0,0.3,0,0.5,0.1C32.3,25.8,29.1,28,26.3,30.9z M28,28.2c-0.5,0.4-1,0.8-1.5,1.2c-0.4,0.3-0.8,0.6-1,1
			c-0.2-0.1-0.3-0.2-0.5-0.2C25.9,29.5,27,28.9,28,28.2z M24.8,30.1c-0.2-0.1-0.4-0.2-0.6-0.3c2.4-1.6,4.9-3,7.4-4.6
			c-1,0.7-2,1.4-3,2.1C27.3,28.3,25.8,29,24.8,30.1z M33,24.4C33,24.4,32.9,24.3,33,24.4c0.4-0.3,0.9-0.6,1.3-0.9
			c0,0,0.1-0.1,0.1-0.1c0,0,0,0,0.1,0C33.9,23.7,33.4,24,33,24.4z M23.9,29.7c-0.2-0.1-0.4-0.2-0.6-0.3c3.5-1.5,6.6-4,10-5.7
			C30.1,25.5,26.8,27.4,23.9,29.7z M28.6,34.3c-2.3-0.8-4-2.6-5.5-4.4c3.8,2.1,7.9,3.7,12.1,4.5C33.1,35,30.8,35.1,28.6,34.3z
			 M35,33.8c3.9-3.7,8.4-6.8,12.5-10.3c0,0,0,0,0.1-0.1c0.1,0,0.1,0,0.2,0c-2,1.9-4.1,3.7-6.2,5.3c-1.1,0.8-2.1,1.8-3.2,2.7
			c-0.9,0.8-1.9,1.5-2.7,2.5C35.5,33.9,35.3,33.9,35,33.8z M48.3,23.5c0,0,0.1-0.1,0.1-0.2c0.1,0,0.1,0,0.2,0
			c-1.2,1.1-2.4,2.2-3.7,3.3C46.1,25.6,47.2,24.5,48.3,23.5z M36.5,34c-0.1,0-0.1,0-0.2,0.1c-0.1,0-0.2,0-0.3-0.1
			c1.8-1.8,3.9-3.4,5.9-4.9c0.3-0.3,0.7-0.5,1-0.8c-2.2,1.8-4.3,3.7-6.1,5.8C36.7,34,36.6,34,36.5,34z M37,34.2
			c2.8-2.9,6-5.2,8.9-7.8c-0.8,0.9-1.7,1.8-2.5,2.7c-0.9,1-1.8,1.9-2.7,2.8c-1,0.9-2.1,1.6-3,2.5C37.4,34.3,37.2,34.2,37,34.2z
			 M38,34.3c0.8-0.7,1.8-1.3,2.6-2c1.1-0.9,2.1-2,3.1-3c0.9-1,1.7-2,2.6-2.9c1-1,2.1-2,3-3.1c0,0,0-0.1,0-0.1c0.2,0,0.5-0.1,0.7-0.1
			c-1.9,2.2-3.9,4.3-5.9,6.4c-1,1-2.1,1.9-3.1,2.8c-0.8,0.6-1.6,1.3-2.1,2.2C38.6,34.4,38.3,34.4,38,34.3z M39.1,34.5
			c0.7-0.8,1.5-1.5,2.3-2.2c1.1-0.9,2.2-1.8,3.2-2.8c2.1-2,4-4.2,5.9-6.4c0,0,0,0,0-0.1c0.2,0,0.4-0.1,0.7-0.1
			c-0.7,0.9-1.7,1.7-2.5,2.5c-1,1.1-2,2.2-3.1,3.2c-1.1,1.1-2.2,2.1-3.2,3.2c-0.8,0.9-1.8,1.7-2.5,2.7
			C39.6,34.5,39.4,34.5,39.1,34.5z M40.8,34.6c-0.2,0-0.4,0-0.6,0c0.8-1,1.9-1.9,2.8-2.8c1.1-1.1,2.2-2.1,3.2-3.1
			c1.1-1,2.1-2.1,3.1-3.2c0.8-0.8,1.7-1.6,2.4-2.5c0,0,0,0,0,0c0.2,0,0.4-0.1,0.7-0.1c-2.2,1.8-4,3.9-6.1,5.9
			c-1.2,1.2-2.4,2.3-3.5,3.5c-0.4,0.4-0.7,0.7-1,1.2C41.5,33.7,41.2,34.4,40.8,34.6z M41,34.6c0.4-0.3,0.8-0.9,1-1.3
			c1.1-1.4,2.6-2.6,3.9-3.8c2.4-2.3,4.5-4.8,7.1-6.8c0.1,0,0.1,0,0.2,0c-0.8,0.7-1.5,1.5-2.3,2.3c-1.1,1.1-2.1,2.3-3.2,3.4
			c-2.1,2-4.3,3.9-5.9,6.3C41.5,34.7,41.3,34.7,41,34.6z M54,22.6C54,22.6,54,22.6,54,22.6c0.1-0.1,0.2-0.1,0.2-0.1
			c-0.8,0.8-1.7,1.5-2.5,2.3C52.4,24,53.1,23.2,54,22.6z M42.1,34.7c1.8-2.2,3.9-4.1,5.9-6c0.2-0.2,0.3-0.3,0.5-0.5
			c-0.1,0.1-0.3,0.3-0.4,0.4c-1.8,2-4,3.7-5.2,6.1C42.6,34.7,42.4,34.7,42.1,34.7z M43.1,34.7c1.6-2.2,3.7-4,5.5-6.1
			c1-1.1,1.9-2.2,2.9-3.2c1-1.1,2.2-2,3.2-3c0,0,0,0,0,0c0.1,0,0.1,0,0.2,0c-0.9,1-1.9,1.8-2.9,2.8C51,26.2,50,27.3,49,28.5
			c-1.8,2-3.8,4-5.4,6.2C43.4,34.7,43.3,34.7,43.1,34.7z M43.9,34.7c1.6-2.2,3.7-4.3,5.5-6.3c1-1.1,2.1-2.2,3.1-3.3
			c0.3-0.3,0.5-0.5,0.8-0.8c-1.1,1.3-2.1,2.6-3.1,3.8c-1,1.2-2.1,2.4-3.2,3.6c-0.8,0.9-1.5,2-2.3,3C44.5,34.7,44.2,34.7,43.9,34.7z
			 M45.2,34.7c1.6-2,3.3-3.8,4.9-5.7c1.9-2.3,3.7-4.7,5.8-6.8c0,0,0,0,0.1,0C54.1,24,52.5,26,50.9,28c-1.8,2.1-3.8,4.1-5.1,6.6
			C45.6,34.6,45.4,34.7,45.2,34.7z M46.1,34.6c1.3-2.1,3-3.9,4.6-5.8c2-2.3,3.7-4.7,5.9-6.7c0.1,0,0.2,0,0.3-0.1
			c-1.9,2-3.6,4.1-5.3,6.2c-0.9,1.2-1.9,2.4-2.8,3.6c-0.7,0.9-1.5,1.7-1.9,2.7C46.6,34.6,46.4,34.6,46.1,34.6z M47.1,34.5
			c0.5-1,1.2-1.7,1.9-2.5c0.9-1.1,1.7-2.2,2.6-3.3c1.8-2.3,3.8-4.6,5.8-6.8c0,0,0-0.1,0.1-0.1c0.1,0,0.2,0,0.3-0.1
			c-0.7,0.7-1.2,1.5-1.9,2.2c-1,1.1-2,2.2-2.9,3.3c-1.9,2.2-3.8,4.6-5.3,7.1C47.5,34.5,47.3,34.5,47.1,34.5z M47.9,34.4
			c0.7-1,1.5-1.9,2.3-2.9c0.9-1.1,1.8-2.3,2.7-3.4c1-1.2,2.1-2.4,3.2-3.6c0.8-1,1.6-2.1,2.6-2.9c0,0,0,0,0,0c0,0,0,0,0.1,0
			c-0.7,1-1.6,2-2.3,3c-0.9,1.2-1.7,2.4-2.5,3.6c-1.6,2.1-3.6,3.9-5,6.2C48.5,34.4,48.2,34.4,47.9,34.4z M49.1,34.3
			c1.6-2.1,3.4-3.8,5-5.9c0.9-1.2,1.7-2.4,2.6-3.6c0.4-0.5,0.8-1,1.2-1.5c-1,1.4-2,2.9-3,4.2c-1,1.3-1.9,2.6-3,3.8
			c-0.8,0.9-1.7,1.8-2.4,2.9C49.4,34.2,49.3,34.3,49.1,34.3z M49.8,34.2c1.7-1.9,3.4-3.7,5-5.7c1.8-2.3,3.3-4.8,5.2-7.1
			c0,0,0,0,0-0.1c0,0,0.1,0,0.1,0c-1.5,2-2.7,4.2-4.2,6.3c-1.6,2.3-3.6,4.4-5.4,6.5C50.2,34.1,50,34.1,49.8,34.2z M59,21.9
			c0.1-0.1,0.1-0.2,0.2-0.3c0,0,0-0.1,0-0.1c0.1,0,0.1,0,0.2,0C59.3,21.6,59.1,21.8,59,21.9z M50.9,34c1.7-1.8,3.4-3.6,4.8-5.6
			c1.8-2.3,3.1-5,5-7.3c0.2,0,0.3-0.1,0.5-0.1c-0.6,0.7-1.1,1.5-1.6,2.2c-0.9,1.2-1.7,2.6-2.6,3.8c-1,1.3-2,2.7-3.1,3.9
			c-0.8,0.9-1.6,1.8-2.2,2.8C51.4,33.9,51.2,33.9,50.9,34z M52.4,33.7c-0.1,0-0.2,0.1-0.4,0.1c0.7-1,1.5-1.8,2.3-2.7
			c1-1.1,1.8-2.3,2.7-3.4c0.9-1.1,1.6-2.3,2.4-3.5c0.7-1.1,1.4-2.4,2.5-3.2c0,0,0,0,0.1-0.1c0,0,0.1,0,0.1,0
			c-0.6,1.2-1.5,2.2-2.2,3.2c-0.8,1.1-1.6,2.3-2.4,3.4c-0.9,1.2-1.8,2.4-2.8,3.5C53.9,31.8,53,32.6,52.4,33.7z M60.5,23.9
			c-0.7,1.1-1.4,2.2-2.2,3.2c-0.2,0.2-0.4,0.4-0.6,0.7c0-0.1,0.1-0.1,0.1-0.2C58.7,26.4,59.6,25.1,60.5,23.9z M52.7,33.6
			c0.7-1,1.7-1.9,2.5-2.7c0.1-0.2,0.3-0.3,0.4-0.5c-0.6,0.9-1.2,1.8-1.6,2.8C53.6,33.3,53.2,33.5,52.7,33.6z M54.4,33.1
			c1.1-2.3,2.9-4.1,4.5-6.1c0.8-1,1.5-2.1,2.2-3.2c0.7-1.1,1.3-2.3,2.1-3.4c0,0,0,0,0,0c0.1,0,0.2-0.1,0.4-0.1
			c-1.3,2.1-2.7,4.2-4,6.3c-1.3,2-3.1,4-4,6.2C55.1,32.9,54.7,33,54.4,33.1z M55.6,32.7c1.2-2.1,2.8-3.9,4.2-5.9
			c1.5-2.2,3-4.4,4.4-6.7c0.2-0.1,0.4-0.1,0.6-0.2c-1.5,1.9-2.7,4-4,5.9c-1.5,2.2-3.1,4.3-4.4,6.6C56.1,32.6,55.9,32.7,55.6,32.7z
			 M56.7,32.4c1.3-2,2.8-3.9,4.1-5.9c1.5-2.2,2.9-4.5,4.6-6.6c0-0.1,0.1-0.1,0-0.2c0.1,0,0.3-0.1,0.4-0.1c-1.2,2-2.7,3.9-4.1,5.9
			c-1.4,2-3,4.2-4,6.5C57.4,32.1,57.1,32.2,56.7,32.4z M58,31.9c1.4-2,2.7-4.2,4.1-6.2c0.7-1.1,1.5-2.1,2.2-3.2
			c0.3-0.5,0.7-1,1.1-1.5c-0.8,1.3-1.5,2.6-2.3,3.9c-1.3,2.2-2.8,4.3-4,6.5C58.8,31.5,58.4,31.7,58,31.9z M59.4,31.2
			c1.2-2,2.6-3.9,3.8-5.8c1.1-1.8,2.1-3.6,3.3-5.4c-0.9,1.7-2,3.4-2.9,5c-1.1,1.8-2.1,3.6-2.8,5.5C60.3,30.8,59.9,31,59.4,31.2z
			 M66.4,19.4C66.5,19.4,66.5,19.4,66.4,19.4C66.5,19.3,66.5,19.3,66.4,19.4c0-0.1,0.1-0.1,0.1-0.1C66.5,19.3,66.5,19.4,66.4,19.4z
			 M61.1,30.4c0.9-2,2.1-3.9,3.2-5.8c1-1.8,2.2-3.5,3-5.4c0-0.1,0-0.2,0-0.2c0.4-0.2,0.8-0.3,1.1-0.5c-0.9,1.9-2.1,3.8-3.1,5.6
			c-1.1,2-2.4,3.9-3.5,5.9C61.6,30.1,61.4,30.3,61.1,30.4z M63.2,29.2c-0.4,0.2-0.7,0.4-1.1,0.7c1.2-1.8,2.4-3.6,3.6-5.5
			c1.2-1.9,2.4-3.9,3.4-6c0,0,0-0.1,0-0.1c0.3-0.1,0.5-0.2,0.8-0.4c-1.3,2-2.5,4.1-3.7,6.1c-0.6,1-1.1,2.1-1.7,3.1
			c-0.3,0.5-0.6,1.1-0.8,1.7C63.5,29,63.4,29.1,63.2,29.2z M63.9,28.8c0.4-0.7,0.9-1.4,1.3-2.1c0.5-0.9,1-1.9,1.6-2.8
			c1.2-2.1,2.5-4.1,3.7-6.2c0,0,0-0.1,0-0.1c0.2-0.1,0.4-0.2,0.6-0.3c-0.3,0.4-0.6,0.9-0.8,1.4c-0.5,1-1.1,2-1.6,3
			c-1.3,2.1-2.7,4.2-3.6,6.4C64.7,28.3,64.3,28.5,63.9,28.8z M65.3,27.9c0.5-1,1.1-1.8,1.7-2.8c0.7-1.1,1.3-2.1,2-3.2
			c0.5-0.9,1.1-1.7,1.6-2.7c0.4-0.8,0.8-1.7,1.5-2.3c-1,1.7-1.8,3.4-2.9,5.1c-0.6,1-1.2,2.1-1.9,3.1c-0.5,0.7-1,1.5-1.3,2.3
			C65.8,27.6,65.5,27.7,65.3,27.9z M66.4,27.1c0.4-0.7,1-1.4,1.5-2.1c0.6-0.9,1.2-1.8,1.7-2.7c1.1-1.9,2.1-3.9,3.3-5.7
			c0,0,0-0.1,0-0.1c0.2-0.1,0.5-0.2,0.7-0.4c-1.1,1.6-2,3.3-2.9,4.9c-0.9,1.7-2.1,3.3-2.9,5.1C67.3,26.4,66.9,26.8,66.4,27.1z
			 M68.4,25.7c1-1.5,1.9-2.9,2.7-4.5c1-1.8,2-3.7,3.2-5.4c0-0.1,0-0.1,0-0.2c0.1,0,0.1-0.1,0.2-0.1c-0.7,1.4-1.7,2.7-2.4,4.1
			c-0.7,1.5-1.4,3.1-2.1,4.7C69.5,24.8,68.9,25.2,68.4,25.7z M70.5,23.9c0.7-1.5,1.4-3,2.1-4.5c0.7-1.4,1.8-2.6,2.4-4.1
			c0-0.1,0-0.1,0-0.2c0,0,0.1,0,0.1-0.1c-0.5,1.1-0.9,2.2-1.4,3.3c-0.7,1.6-1.5,3.1-2.3,4.7C71.2,23.4,70.9,23.7,70.5,23.9z
			 M71.8,22.9c0.8-1.3,1.4-2.6,2.1-3.9c0.7-1.3,1.2-3,2-4.2c0.1-0.1,0.2-0.1,0.4-0.2c-0.5,0.9-0.8,1.8-1.2,2.7
			c-0.6,1.5-1.3,2.8-1.9,4.3C72.7,22,72.3,22.5,71.8,22.9z M73.6,21.3c0.5-1,1.1-2.1,1.6-3.1c0.6-1.3,1-2.8,1.9-4c0,0,0,0,0-0.1
			c0.1-0.1,0.2-0.1,0.3-0.2c-1.1,2-1.8,4.1-2.7,6.3C74.4,20.5,74,20.9,73.6,21.3z M75.2,19.7c0.9-2.1,1.8-4.2,2.9-6.1
			c0,0,0-0.1,0-0.1c0.1-0.1,0.3-0.2,0.4-0.2c-0.8,1.8-1.8,3.5-2.3,5.5C75.9,19.1,75.6,19.4,75.2,19.7z M76.7,18.3
			c0.7-1.9,1.7-3.6,2.6-5.4c0.1-0.1,0.3-0.2,0.4-0.2c-0.7,1.6-1.4,3.2-2.1,4.8C77.3,17.7,77,18,76.7,18.3z M78.2,16.9
			c0.7-1.5,1.4-2.9,2.1-4.4c0-0.1,0-0.1,0-0.2c0.1,0,0.1-0.1,0.2-0.1c0.2-0.1,0.4-0.3,0.6-0.4c-0.5,1.3-1.2,2.5-1.6,3.8
			C79,16,78.6,16.4,78.2,16.9z M79.8,15.1c0.6-1.2,1.4-2.4,1.8-3.7c0.2-0.1,0.3-0.2,0.5-0.3C81.7,12,81.4,13,81,13.9
			C80.6,14.3,80.2,14.7,79.8,15.1z M82.5,12.4c-0.3,0.3-0.6,0.6-0.9,0.9c0.4-0.9,0.8-1.8,1.3-2.6c0-0.1,0-0.1,0-0.2
			c0.2-0.1,0.4-0.3,0.7-0.4c-0.2,0.3-0.3,0.7-0.5,1C82.9,11.6,82.6,12,82.5,12.4z M84,10.8c-0.3,0.3-0.5,0.5-0.8,0.8
			c0.4-0.6,0.7-1.3,1.1-1.9c0,0,0-0.1,0-0.1c0.1-0.1,0.3-0.2,0.4-0.3C84.4,9.8,84.2,10.3,84,10.8z M85.5,9.2
			c-0.2,0.2-0.5,0.5-0.7,0.7c0.3-0.4,0.5-0.9,0.7-1.3c0,0,0,0,0,0C85.8,8.4,86,8.2,86.3,8C86,8.4,85.8,8.8,85.5,9.2z M84.8,8.5
			c-1.2,1-2.6,1.9-3.9,2.7c-2.6,1.6-5.3,3.1-8,4.5c-5,2.6-10.1,4.5-15.6,5.6c-5.3,1.1-10.7,1.7-16.1,1.8c-5,0.1-9.8-0.6-14.5-2
			c0-0.1-0.1-0.1-0.3-0.1c-0.9-0.3-1.8-0.6-2.7-0.9c0.4-0.8,0.7-1.6,0.9-2.5c1.1-3.4,1.4-7.7,0-11.1c20.3,0.9,40.6,2,61,0.6
			c0.2,0,0.3,0,0.5,0C85.8,7.7,85.3,8.1,84.8,8.5z M87.1,7.6c-0.2,0.2-0.3,0.3-0.5,0.5c0.1-0.1,0.1-0.2,0.2-0.3c0-0.1,0-0.2,0-0.2
			c0.1-0.1,0.3-0.2,0.5-0.3C87.2,7.3,87.2,7.4,87.1,7.6z M94.6,9c2.5,1,5.1,3.7,2.6,6.2c-2.3,2.3-5.5,0.3-6.9-1.8
			c-1.2-1.8-1.9-4.1-1.9-6.2C90.4,7.9,92.5,8.2,94.6,9z M96.5,7.6c-2.6,0.5-5.5-0.2-8-1.1c0.5-3.1,3.1-4.9,5.9-5.8
			c2.2-0.7,5-0.4,6.6,1.4C103.2,4.8,98.5,7.3,96.5,7.6z"/>
		<path class="st2" d="M11.2,7.8c-0.7,0.1-0.9,0.7-0.7,1.3c0.1,0.9,1.5,1.4,2,0.4C12.8,8.6,12.2,7.6,11.2,7.8z"/>
	</g>
</g>
</svg>
