<?xml version="1.0" encoding="utf-8"?>
<!-- Generator: Adobe Illustrator 21.0.0, SVG Export Plug-In . SVG Version: 6.00 Build 0)  -->
<svg version="1.1" id="圖層_1" xmlns="http://www.w3.org/2000/svg" xmlns:xlink="http://www.w3.org/1999/xlink" x="0px" y="0px"
	 viewBox="0 0 107.9 83.2" style="enable-background:new 0 0 107.9 83.2;" xml:space="preserve">
<style type="text/css">
	.st0{fill:#333333;}
	.st1{fill:#0071BC;}
	.st2{clip-path:url(#SVGID_2_);}
	.st3{fill:#FFFFFF;}
	.st4{fill:#232020;}
	.st5{clip-path:url(#SVGID_4_);}
	.st6{clip-path:url(#SVGID_6_);}
</style>
<g>
	<path class="st0" d="M91.5,16.6c-14.1-1.2-28.3-1.9-42.5-2.2c-6.8-0.1-13.6-0.1-20.4,0c-2.1,0-4.2,0.1-6.3,0.2
		c-0.2-1.2-0.5-2.5-0.8-3.7C18.8,1.9,3.5-6.3,0.8,6.9c-1.2,2.2-1.1,4.7,0.7,7.1c3.7,5,12.2,3.7,17.5,3.6c0.3,2.7,0.2,5.5,0.3,8.2
		c0.1,6.3,0.2,12.5,0.3,18.8c0.2,12.5,0.4,25,1.1,37.5c0.1,1.4,2.2,1.5,2.2,0c0.4-12.5,0.2-25,0-37.5c-0.1-8.5,0.9-18.2-0.2-27
		c23-0.3,45.9,0.5,68.8,2.4C93.6,20.1,93.6,16.8,91.5,16.6z M13.8,14.9c-4.7,0.7-8.1-1.7-10.2-7.4C11.8,4,16.5,5.2,17.7,11
		c0.6,1.2,0.9,2.5,1.1,3.8c-0.4,0-0.8,0-1.2,0C16.3,14.8,15.1,14.9,13.8,14.9z"/>
</g>
<g>
	<path class="st1" d="M62.6,35.9h1c3.8,0,5.7,2.5,5.7,7.4V45c0,5.1-3.4,11.6-10.1,19.6v0.3c0.7-0.2,3.4-0.5,8.1-0.7
		c0-1.1,1.8-1.7,5.4-2h0.7c0.5,0.1,0.7,0.3,0.7,0.7c0,2-1,3.2-3,3.7c0,0.2-1.1,0.3-3.4,0.3c0-0.5-0.2-0.7-0.7-0.7h-0.7
		c-3.9,0-8.9,0.6-14.8,1.7c-0.4-0.2-0.8-0.3-1-0.3C55.8,63.9,60,57.3,63.2,48c0.2-1.2,0.3-2.3,0.3-3.4v-2c0-2.1-0.9-3.8-2.7-5.1
		c-1.9,0-4.3,2.7-7.1,8.1c-1.1,0.7-2,1-2.7,1h-1c-0.4,0-0.7-0.2-0.7-0.7v-0.7C52.2,39,56.6,35.9,62.6,35.9z"/>
	<path class="st1" d="M82.1,38.2c2.3,0,4.1,0.5,5.4,1.4l8.1-1.4c0.6,0,2.2,0.3,4.7,1c0,0.3-0.9,1.2-2.7,2.7c-0.5,0-2.2-0.2-5.1-0.7
		c-0.6,0-1.4,0.3-2.4,1L86.8,42c0,0.9-0.2,3.7-0.7,8.4l9.8-0.7c0-0.7,0.1-1,0.3-1c2.3,0,4.5,0.5,6.7,1.4v0.7
		c-1.8,0.6-7.1,1.3-15.8,2c-0.9,0.5-1.4,0.8-1.4,1c-0.4,6.1-0.7,10.3-0.7,12.5c0,1.1-0.2,1.7-0.7,1.7c-1.7,0-3.5-0.3-5.4-1
		c1.1-14.5,2-24.1,2.7-28.7H82.1z"/>
</g>
<g>
	<defs>
		<rect id="SVGID_3_" x="22.9" y="32.1" width="38.3" height="37.4"/>
	</defs>
	<clipPath id="SVGID_2_">
		<use xlink:href="#SVGID_3_"  style="overflow:visible;"/>
	</clipPath>
	<g class="st2">
		<g>
			<path class="st3" d="M7.1,48.8c-1.8,1.2-3.5,2.4-5.3,3.6c0.4,0.7,0.9,1.5,1.3,2.2c0.2,0.3,0.4,0.6,0.5,1c1.7-1.3,3.4-2.5,5.1-3.7
				c-0.3-0.6-0.6-1.2-0.9-1.7C7.6,49.7,7.4,49.3,7.1,48.8z"/>
			<path class="st3" d="M9.3,52.1c0.4,0.8,0.8,1.7,1.1,2.5c0.2,0.6,0.4,1.1,0.6,1.7c1.4-1.2,2.7-2.5,4.2-3.6
				c-0.4-1.2-0.8-2.5-1.1-3.7C12.5,50,10.9,51,9.3,52.1z"/>
			<path class="st3" d="M10.1,55c-0.4-0.9-0.7-1.8-1.2-2.7c-1.7,1.2-3.4,2.4-5.1,3.6c0.2,0.4,0.4,0.9,0.6,1.3c0.4,1,0.7,2,1.3,2.8
				c0,0,0,0.1,0,0.1c0.1,0,0.2,0.1,0.3,0.1c1.6-1.1,3.1-2.3,4.5-3.6C10.5,56.1,10.3,55.6,10.1,55z"/>
			<path class="st3" d="M2.6,54.5c-0.4-0.6-0.7-1.3-1.1-1.9c-1.7,1.1-3.4,2.3-5,3.5c1.3,0.8,2.6,1.4,4,2c0.9-0.7,1.9-1.5,2.8-2.2
				C3.1,55.4,2.9,55,2.6,54.5z"/>
			<path class="st3" d="M3.5,56.1c-0.9,0.7-1.8,1.3-2.7,2c0.9,0.4,1.8,0.7,2.7,1c0.6,0.2,1.1,0.4,1.7,0.7c-0.4-0.7-0.6-1.5-0.9-2.2
				C3.9,57.1,3.7,56.6,3.5,56.1z"/>
			<path class="st3" d="M-0.2,48.8c0-0.1,0.2-0.2,0.2-0.1C0.5,49.9,1,51,1.6,52c1.8-1.2,3.5-2.4,5.3-3.6c-0.3-0.7-0.6-1.4-0.7-2.2
				c0-0.2,0.2-0.2,0.2-0.1c0.1,0.7,0.4,1.4,0.7,2.1c1.1-0.7,2.1-1.5,3.1-2.2c0.2-0.2,0.5,0.2,0.2,0.4c-1.1,0.7-2.1,1.5-3.2,2.2
				c0.3,0.7,0.7,1.3,1.1,2C8.8,51,9,51.3,9.2,51.7c1.6-1.1,3.2-2.2,4.9-3.2c-0.1-0.5-0.2-1.1-0.4-1.6c0-0.1,0.2-0.2,0.2-0.1
				c0.1,0.5,0.2,1,0.4,1.5c0.9-0.6,1.8-1.1,2.7-1.7c0.3-0.2,0.5,0.3,0.2,0.4c-0.9,0.6-1.9,1.2-2.8,1.7c0.3,1.2,0.7,2.4,1.2,3.6
				c1.1-0.9,2.3-1.7,3.6-2.3c0.3-0.1,0.5,0.3,0.2,0.4c-1.3,0.7-2.5,1.5-3.6,2.4c0.5,1.4,1.1,2.8,1.7,4.2c0,0,0,0.1,0,0.1
				c1.1-0.8,2.2-1.6,3.3-2.3c-0.2-3.2,0.2-6.5,1-9.7c0.5-2,0.9-5,2.8-6.3c-1,0-2,0.1-3,0.3C11.2,40.7,1.1,45.9-7,52.5
				c0.8,1.5,2,2.6,3.4,3.5c1.6-1.3,3.3-2.6,5-3.8C0.8,51.1,0.2,50-0.2,48.8z"/>
			<path class="st3" d="M17.1,57.6c-0.1-0.2-0.2-0.4-0.2-0.5c-0.5-1.3-1-2.5-1.5-3.8c-1.4,1.1-2.8,2.4-4.2,3.6
				c0.5,1.4,1.1,2.9,1.8,4.2C14.4,59.9,15.7,58.7,17.1,57.6z"/>
			<path class="st3" d="M19.5,61.7c0.2,0.3,0.3,0.7,0.4,1.1c0.7-0.5,1.3-1,1.9-1.5c-0.4-1.7-0.8-3.5-1-5.2c0-0.2,0-0.3,0-0.5
				c-1.1,0.7-2.1,1.5-3.1,2.2C18.3,59.1,18.9,60.4,19.5,61.7z"/>
			<path class="st3" d="M18.9,61.7c-0.6-1.2-1.1-2.4-1.6-3.6c-1.4,1.1-2.7,2.2-4.1,3.3c0.4,0.7,0.8,1.5,1.3,2.1c0,0,0,0.1,0,0.1
				c0.8,0.3,1.7,0.6,2.5,0.8c0.1,0,0.2,0.1,0.4,0.1c0.7-0.5,1.3-1,2-1.5C19.3,62.6,19.2,62.2,18.9,61.7z"/>
			<path class="st3" d="M36.1,42c-3.4-2.3-7.3-3-11.2-2.9c-1.9,1.8-2.3,4.3-2.8,6.8c-0.6,3.2-1,6.6-0.7,9.9c0.2,1.8,0.5,3.5,1,5.3
				c0.2,0,0.4,0.2,0.2,0.4c0,0,0,0-0.1,0.1c0.2,0.9,0.5,1.7,0.8,2.6c0.2,0.5,0.5,1.4,1.1,1.7c0.1,0.1,0.2,0.2,0.2,0.3
				c2.8,0.2,5.6-0.1,8.2-1c2.3-0.9,4.5-2.1,6-4c1.3-1.7,2.2-3.7,2.6-5.9C42.1,50.1,40.4,44.9,36.1,42z M33.5,46.7
				c-0.8,1.4-2.6,1.8-4,1.2c-0.1,0-0.1,0-0.2,0c0,0-0.1,0-0.1-0.1c-0.5-0.3-1-0.7-1.3-1.2c0,0,0-0.1-0.1-0.1
				c-0.4-0.5-0.5-1.1-0.3-1.8c0.3-1.2,1.1-2.1,2.4-2.3C32.1,42,34.6,44.6,33.5,46.7z"/>
			<path class="st3" d="M29.8,42.9c0,0-0.1,0-0.1,0c-0.9,0.3-1.5,1.1-1.8,1.9c0,0.2,0,0.4,0,0.6c0.1,0.9,0.7,1.4,1.3,2
				c1.4,0.7,3.5,0.8,4-1C33.7,44.4,31.8,42.3,29.8,42.9z M30.3,45.4c-0.1-0.1-0.2-0.3-0.1-0.5c0.1-0.2,0.3-0.2,0.5-0.1
				c0.2,0,0.5,0.1,0.5,0.3C31.2,45.6,30.6,45.8,30.3,45.4z"/>
			<path class="st3" d="M10.9,57.1c-1.4,1.2-2.9,2.3-4.5,3.2c1.7,0.7,3.4,1.4,5.1,2.1c0.4-0.4,0.8-0.7,1.2-1.1
				C12,60,11.4,58.6,10.9,57.1z"/>
			<path class="st3" d="M11.7,62.6c0.7,0.3,1.4,0.6,2.1,0.8c-0.4-0.5-0.7-1.1-1-1.7C12.5,62,12.1,62.3,11.7,62.6z"/>
			<path class="st3" d="M17.8,64.7c0.9,0.3,1.8,0.5,2.7,0.7c-0.4-0.6-0.7-1.2-0.9-1.9C19,63.9,18.4,64.3,17.8,64.7z"/>
			<path class="st3" d="M22.1,62.1c0-0.1-0.1-0.2-0.1-0.3c-0.6,0.5-1.3,1-1.9,1.4c0.3,0.8,0.7,1.6,1.2,2.3c0,0,0,0,0,0
				c0.8,0.2,1.6,0.3,2.5,0.4C22.8,65.1,22.3,63,22.1,62.1z"/>
		</g>
		<g>
			<path class="st4" d="M27.3,38.6c-5.1-0.3-10.2,0.9-14.9,2.5c-5,1.7-9.7,4.1-14.1,7c-1.9,1.3-3.8,2.6-5.5,4.1
				c-0.2-1.8-0.9-3.6-2.4-4.7c-1.5-1.1-3.7-1.5-5.3-0.6c-1.2,0.7-1.8,2.1-1.6,3.5c0.2,1.1,1,1.9,1.9,2.3c-1.8,0.4-3.8,1.6-3.5,3.6
				c0.2,1.4,2.1,2.3,3.6,2.2c-0.2,0.4-0.3,0.9-0.2,1.4c0.2,1.3,1.2,2.3,2.5,2.3c1.9,0.1,3.6-1.5,4.5-3c1.2-2,0.4-4.1,0.3-6.2
				c2.1,3.3,6.4,4.8,9.8,6.2c2.9,1.1,5.7,2.4,8.5,3.5c0,0,0.1,0.1,0.1,0.1c1.9,0.8,3.8,1.5,5.8,2.1c0.1,0,0.1,0,0.2,0.1c0,0,0,0,0,0
				c5,1.5,10.3,2.1,15.3,0.4c4.4-1.5,7.7-4.5,9-9c1.1-4,0.4-8.9-2.2-12.2C36.4,40.7,31.9,38.9,27.3,38.6z M-7.4,57.2
				c-0.1,1.7-1.3,3.2-2.7,4c-1.2,0.8-2.9,0.9-3.7-0.5c-0.4-0.8-0.4-1.7,0.1-2.3c0.4-0.1,0.8-0.3,1-0.6c0.2-0.2,0-0.4-0.2-0.4
				c-0.5,0.1-0.8,0.3-1.1,0.6c-1.5,0.3-3.4-0.7-3.6-2.2c-0.1-1.9,2.8-2.8,4.3-2.8c0.3,0,0.3-0.4,0-0.5c-1.4-0.2-2.6-1-2.7-2.5
				c-0.1-1.3,0.7-2.4,1.8-2.9c1.6-0.6,3.5,0,4.7,1.1c1.1,1,1.7,2.5,2,4c-0.1,0-0.2,0.1-0.2,0.2C-7.8,54.1-7.3,55.6-7.4,57.2z
				 M-7,52.5c8.1-6.6,18.2-11.8,28.7-13.1c1-0.1,2-0.2,3-0.3c-1.9,1.3-2.4,4.3-2.8,6.3c-0.7,3.2-1.1,6.4-1,9.7
				c-1.1,0.7-2.3,1.5-3.3,2.3c0,0,0-0.1,0-0.1c-0.6-1.4-1.2-2.8-1.7-4.2c1.1-0.9,2.3-1.7,3.6-2.4c0.3-0.1,0-0.6-0.2-0.4
				c-1.3,0.7-2.5,1.4-3.6,2.3c-0.4-1.2-0.8-2.4-1.2-3.6c0.9-0.6,1.9-1.2,2.8-1.7c0.3-0.2,0-0.6-0.2-0.4c-0.9,0.6-1.8,1.1-2.7,1.7
				c-0.1-0.5-0.3-1-0.4-1.5c0-0.1-0.2-0.1-0.2,0.1c0.1,0.5,0.2,1.1,0.4,1.6c-1.6,1-3.3,2.1-4.9,3.2C9,51.3,8.8,51,8.6,50.6
				c-0.4-0.7-0.8-1.3-1.1-2c1.1-0.7,2.1-1.5,3.2-2.2c0.2-0.2,0-0.6-0.2-0.4c-1,0.7-2.1,1.5-3.1,2.2c-0.3-0.7-0.6-1.4-0.7-2.1
				c0-0.2-0.3-0.1-0.2,0.1c0.1,0.8,0.4,1.5,0.7,2.2c-1.8,1.2-3.6,2.4-5.3,3.6c-0.6-1-1.1-2.1-1.6-3.2c0-0.1-0.2-0.1-0.2,0.1
				c0.4,1.2,0.9,2.3,1.5,3.4c-1.7,1.2-3.4,2.4-5,3.8C-5,55-6.3,53.9-7,52.5z M20.9,56.1c0.1,1.7,0.5,3.5,1,5.2
				c-0.6,0.5-1.3,1-1.9,1.5c-0.1-0.4-0.3-0.7-0.4-1.1c-0.6-1.3-1.2-2.6-1.8-3.9c1-0.8,2-1.5,3.1-2.2C20.9,55.7,20.9,55.9,20.9,56.1z
				 M15.4,53.3c0.4,1.3,0.9,2.6,1.5,3.8c0.1,0.2,0.2,0.4,0.2,0.5c-1.4,1.1-2.7,2.3-4.1,3.4c-0.7-1.4-1.3-2.8-1.8-4.2
				C12.7,55.6,14,54.4,15.4,53.3z M11.1,56.3c-0.2-0.6-0.4-1.2-0.6-1.7c-0.3-0.9-0.7-1.7-1.1-2.5c1.6-1.1,3.2-2.1,4.8-3.1
				c0.3,1.3,0.7,2.5,1.1,3.7C13.8,53.8,12.4,55.1,11.1,56.3z M8.8,51.9c-1.7,1.2-3.4,2.4-5.1,3.7c-0.2-0.3-0.3-0.6-0.5-1
				c-0.4-0.8-0.9-1.5-1.3-2.2c1.8-1.2,3.5-2.4,5.3-3.6c0.2,0.5,0.5,0.9,0.7,1.4C8.2,50.8,8.5,51.3,8.8,51.9z M-3.5,56.1
				c1.7-1.2,3.4-2.3,5-3.5c0.4,0.6,0.7,1.3,1.1,1.9c0.2,0.4,0.5,0.9,0.7,1.3c-0.9,0.7-1.9,1.4-2.8,2.2C-0.8,57.5-2.2,56.8-3.5,56.1z
				 M3.4,59.1c-0.8-0.3-1.7-0.7-2.7-1c0.9-0.7,1.8-1.3,2.7-2c0.2,0.5,0.5,1,0.7,1.5c0.3,0.8,0.5,1.5,0.9,2.2
				C4.5,59.6,4,59.3,3.4,59.1z M5.8,60.1c0,0,0-0.1,0-0.1c-0.6-0.9-0.9-1.8-1.3-2.8c-0.2-0.4-0.4-0.9-0.6-1.3
				c1.7-1.2,3.4-2.4,5.1-3.6c0.4,0.9,0.8,1.8,1.2,2.7c0.2,0.5,0.4,1.1,0.6,1.6c-1.4,1.3-2.9,2.6-4.5,3.6C6.1,60.2,5.9,60.2,5.8,60.1
				z M6.4,60.3c1.6-0.9,3.1-2,4.5-3.2c0.5,1.4,1.1,2.9,1.8,4.2c-0.4,0.4-0.8,0.7-1.2,1.1C9.7,61.8,8.1,61.1,6.4,60.3z M11.7,62.6
				c0.4-0.3,0.8-0.6,1.1-0.8c0.3,0.6,0.6,1.1,1,1.7C13.1,63.1,12.4,62.9,11.7,62.6z M17.1,64.5c-0.8-0.2-1.7-0.5-2.5-0.8
				c0,0,0-0.1,0-0.1c-0.5-0.7-0.9-1.4-1.3-2.1c1.4-1.1,2.7-2.2,4.1-3.3c0.5,1.2,1,2.4,1.6,3.6c0.2,0.5,0.4,0.9,0.6,1.4
				c-0.7,0.5-1.3,1-2,1.5C17.4,64.6,17.3,64.5,17.1,64.5z M17.8,64.7c0.6-0.4,1.2-0.8,1.8-1.2c0.3,0.7,0.5,1.3,0.9,1.9
				C19.6,65.2,18.7,65,17.8,64.7z M21.3,65.5C21.3,65.5,21.3,65.5,21.3,65.5c-0.6-0.7-0.9-1.5-1.2-2.4c0.6-0.5,1.3-0.9,1.9-1.4
				c0,0.1,0.1,0.2,0.1,0.3c0.3,0.9,0.7,3.1,1.7,3.8C23,65.8,22.1,65.7,21.3,65.5z M41.3,55c-0.3,2.1-1.2,4.2-2.6,5.9
				c-1.5,1.9-3.8,3.2-6,4c-2.6,1-5.4,1.2-8.2,1c0-0.1,0-0.2-0.2-0.3c-0.6-0.2-0.9-1.1-1.1-1.7c-0.3-0.8-0.6-1.7-0.8-2.6
				c0,0,0,0,0.1-0.1c0.2-0.2,0-0.4-0.2-0.4c-0.4-1.7-0.8-3.5-1-5.3c-0.3-3.3,0.1-6.6,0.7-9.9c0.5-2.4,1-5,2.8-6.8
				c4-0.1,7.9,0.6,11.2,2.9C40.4,44.9,42.1,50.1,41.3,55z"/>
			<path class="st4" d="M29.9,42.4c-1.3,0.2-2,1.1-2.4,2.3c-0.2,0.7,0,1.3,0.3,1.8c0,0,0,0.1,0.1,0.1c0.3,0.5,0.7,0.9,1.3,1.2
				c0,0,0.1,0,0.1,0.1c0,0,0.1,0.1,0.2,0c1.4,0.6,3.3,0.2,4-1.2C34.6,44.6,32.1,42,29.9,42.4z M33.2,46.3c-0.5,1.7-2.6,1.7-4,1
				c-0.6-0.5-1.2-1.1-1.3-2c0-0.2,0-0.4,0-0.6c0.2-0.8,0.9-1.5,1.8-1.9c0,0,0.1,0,0.1,0C31.8,42.3,33.7,44.4,33.2,46.3z"/>
			<path class="st4" d="M30.7,44.8c-0.2-0.1-0.4-0.1-0.5,0.1c-0.1,0.2,0,0.4,0.1,0.5c0.3,0.3,0.9,0.1,0.9-0.3
				C31.2,44.9,30.9,44.8,30.7,44.8z"/>
		</g>
	</g>
</g>
</svg>
