<?xml version="1.0" encoding="utf-8"?>
<!-- Generator: Adobe Illustrator 21.0.0, SVG Export Plug-In . SVG Version: 6.00 Build 0)  -->
<svg version="1.1" id="圖層_1" xmlns="http://www.w3.org/2000/svg" xmlns:xlink="http://www.w3.org/1999/xlink" x="0px" y="0px"
	 viewBox="0 0 107.9 83.2" style="enable-background:new 0 0 107.9 83.2;" xml:space="preserve">
<style type="text/css">
	.st0{fill:#333333;}
	.st1{fill:#0071BC;}
	.st2{clip-path:url(#SVGID_2_);}
	.st3{fill:#FFFFFF;}
	.st4{fill:#232020;}
	.st5{clip-path:url(#SVGID_4_);}
	.st6{clip-path:url(#SVGID_6_);}
</style>
<g>
	<path class="st0" d="M91.5,16.6c-14.1-1.2-28.3-1.9-42.5-2.2c-6.8-0.1-13.6-0.1-20.4,0c-2.1,0-4.2,0.1-6.3,0.2
		c-0.2-1.2-0.5-2.5-0.8-3.7C18.8,1.9,3.5-6.3,0.8,6.9c-1.2,2.2-1.1,4.7,0.7,7.1c3.7,5,12.2,3.7,17.5,3.6c0.3,2.7,0.2,5.5,0.3,8.2
		c0.1,6.3,0.2,12.5,0.3,18.8c0.2,12.5,0.4,25,1.1,37.5c0.1,1.4,2.2,1.5,2.2,0c0.4-12.5,0.2-25,0-37.5c-0.1-8.5,0.9-18.2-0.2-27
		c23-0.3,45.9,0.5,68.8,2.4C93.6,20.1,93.6,16.8,91.5,16.6z M13.8,14.9c-4.7,0.7-8.1-1.7-10.2-7.4C11.8,4,16.5,5.2,17.7,11
		c0.6,1.2,0.9,2.5,1.1,3.8c-0.4,0-0.8,0-1.2,0C16.3,14.8,15.1,14.9,13.8,14.9z"/>
</g>
<g>
	<path class="st0" d="M62.6,35.9h1c3.8,0,5.7,2.5,5.7,7.4V45c0,5.1-3.4,11.6-10.1,19.6v0.3c0.7-0.2,3.4-0.5,8.1-0.7
		c0-1.1,1.8-1.7,5.4-2h0.7c0.5,0.1,0.7,0.3,0.7,0.7c0,2-1,3.2-3,3.7c0,0.2-1.1,0.3-3.4,0.3c0-0.5-0.2-0.7-0.7-0.7h-0.7
		c-3.9,0-8.9,0.6-14.8,1.7c-0.4-0.2-0.8-0.3-1-0.3C55.8,63.9,60,57.3,63.2,48c0.2-1.2,0.3-2.3,0.3-3.4v-2c0-2.1-0.9-3.8-2.7-5.1
		c-1.9,0-4.3,2.7-7.1,8.1c-1.1,0.7-2,1-2.7,1h-1c-0.4,0-0.7-0.2-0.7-0.7v-0.7C52.2,39,56.6,35.9,62.6,35.9z"/>
	<path class="st0" d="M82.1,38.2c2.3,0,4.1,0.5,5.4,1.4l8.1-1.4c0.6,0,2.2,0.3,4.7,1c0,0.3-0.9,1.2-2.7,2.7c-0.5,0-2.2-0.2-5.1-0.7
		c-0.6,0-1.4,0.3-2.4,1L86.8,42c0,0.9-0.2,3.7-0.7,8.4l9.8-0.7c0-0.7,0.1-1,0.3-1c2.3,0,4.5,0.5,6.7,1.4v0.7
		c-1.8,0.6-7.1,1.3-15.8,2c-0.9,0.5-1.4,0.8-1.4,1c-0.4,6.1-0.7,10.3-0.7,12.5c0,1.1-0.2,1.7-0.7,1.7c-1.7,0-3.5-0.3-5.4-1
		c1.1-14.5,2-24.1,2.7-28.7H82.1z"/>
</g>
</svg>
