<?xml version="1.0" encoding="utf-8"?>
<!-- Generator: Adobe Illustrator 21.0.0, SVG Export Plug-In . SVG Version: 6.00 Build 0)  -->
<svg version="1.1" id="圖層_1" xmlns="http://www.w3.org/2000/svg" xmlns:xlink="http://www.w3.org/1999/xlink" x="0px" y="0px"
	 viewBox="0 0 107.9 83.2" style="enable-background:new 0 0 107.9 83.2;" xml:space="preserve">
<style type="text/css">
	.st0{fill:#333333;}
	.st1{fill:#0071BC;}
	.st2{clip-path:url(#SVGID_2_);}
	.st3{fill:#FFFFFF;}
	.st4{fill:#232020;}
	.st5{clip-path:url(#SVGID_4_);}
	.st6{clip-path:url(#SVGID_6_);}
</style>
<g>
	<path class="st0" d="M91.5,16.6c-14.1-1.2-28.3-1.9-42.5-2.2c-6.8-0.1-13.6-0.1-20.4,0c-2.1,0-4.2,0.1-6.3,0.2
		c-0.2-1.2-0.5-2.5-0.8-3.7C18.8,1.9,3.5-6.3,0.8,6.9c-1.2,2.2-1.1,4.7,0.7,7.1c3.7,5,12.2,3.7,17.5,3.6c0.3,2.7,0.2,5.5,0.3,8.2
		c0.1,6.3,0.2,12.5,0.3,18.8c0.2,12.5,0.4,25,1.1,37.5c0.1,1.4,2.2,1.5,2.2,0c0.4-12.5,0.2-25,0-37.5c-0.1-8.5,0.9-18.2-0.2-27
		c23-0.3,45.9,0.5,68.8,2.4C93.6,20.1,93.6,16.8,91.5,16.6z M13.8,14.9c-4.7,0.7-8.1-1.7-10.2-7.4C11.8,4,16.5,5.2,17.7,11
		c0.6,1.2,0.9,2.5,1.1,3.8c-0.4,0-0.8,0-1.2,0C16.3,14.8,15.1,14.9,13.8,14.9z"/>
</g>
<g>
	<path class="st1" d="M66,36.7c0,0.2,0.1,0.6,0.3,1c-0.7,3.2-1.2,11.7-1.7,25.3l4.1-0.3H70v0.3c0,0.5-1.8,1.2-5.4,2c0,1-2,1.7-6.1,2
		h-3.4c-0.4,0-0.7-0.2-0.7-0.7V66c2.4-0.9,3.8-1.4,4-1.4c0.5-13.4,0.9-21.4,1.4-24.3h-2.4v-0.7c0.2,0,1.6-1,4.1-3H66z"/>
	<path class="st1" d="M82.5,39.4c2.3,0,4.1,0.5,5.4,1.4l8.1-1.4c0.6,0,2.2,0.3,4.7,1c0,0.3-0.9,1.2-2.7,2.7c-0.5,0-2.2-0.2-5.1-0.7
		c-0.6,0-1.4,0.3-2.4,1l-3.4-0.3c0,0.9-0.2,3.7-0.7,8.4l9.8-0.7c0-0.7,0.1-1,0.3-1c2.3,0,4.5,0.5,6.7,1.4v0.7
		c-1.8,0.6-7.1,1.3-15.8,2c-0.9,0.5-1.4,0.8-1.4,1c-0.4,6.1-0.7,10.3-0.7,12.5c0,1.1-0.2,1.7-0.7,1.7c-1.7,0-3.5-0.3-5.4-1
		c1.1-14.5,2-24.1,2.7-28.7H82.5z"/>
</g>
<g>
	<defs>
		<rect id="SVGID_1_" x="22.9" y="32.3" width="38.3" height="37.4"/>
	</defs>
	<clipPath id="SVGID_2_">
		<use xlink:href="#SVGID_1_"  style="overflow:visible;"/>
	</clipPath>
	<g class="st2">
		<g>
			<path class="st3" d="M18.3,49c-1.8,1.2-3.5,2.4-5.3,3.6c0.4,0.7,0.9,1.5,1.3,2.2c0.2,0.3,0.4,0.6,0.5,1c1.7-1.3,3.4-2.5,5.1-3.7
				c-0.3-0.6-0.6-1.2-0.9-1.7C18.8,50,18.5,49.5,18.3,49z"/>
			<path class="st3" d="M20.5,52.3c0.4,0.8,0.8,1.7,1.1,2.5c0.2,0.6,0.4,1.1,0.6,1.7c1.4-1.2,2.7-2.5,4.2-3.6
				c-0.4-1.2-0.8-2.5-1.1-3.7C23.7,50.2,22.1,51.2,20.5,52.3z"/>
			<path class="st3" d="M21.3,55.3c-0.4-0.9-0.7-1.8-1.2-2.7c-1.7,1.2-3.4,2.4-5.1,3.6c0.2,0.4,0.4,0.9,0.6,1.3c0.4,1,0.7,2,1.3,2.8
				c0,0,0,0.1,0,0.1c0.1,0,0.2,0.1,0.3,0.1c1.6-1.1,3.1-2.3,4.5-3.6C21.7,56.3,21.5,55.8,21.3,55.3z"/>
			<path class="st3" d="M13.8,54.8c-0.4-0.6-0.7-1.3-1.1-1.9c-1.7,1.1-3.4,2.3-5,3.5c1.3,0.8,2.6,1.4,4,2c0.9-0.7,1.9-1.5,2.8-2.2
				C14.3,55.6,14.1,55.2,13.8,54.8z"/>
			<path class="st3" d="M14.7,56.4c-0.9,0.7-1.8,1.3-2.7,2c0.9,0.4,1.8,0.7,2.7,1c0.6,0.2,1.1,0.4,1.7,0.7c-0.4-0.7-0.6-1.5-0.9-2.2
				C15.1,57.3,14.9,56.8,14.7,56.4z"/>
			<path class="st3" d="M3.7,52.5c-0.3-1.5-0.9-3-2-4c-1.2-1.1-3.2-1.7-4.7-1.1c-1.2,0.5-2,1.6-1.8,2.9c0.1,1.5,1.3,2.4,2.7,2.5
				c0.3,0,0.3,0.5,0,0.5c-1.4,0-4.4,1-4.3,2.8c0.1,1.5,2.1,2.4,3.6,2.2c0.3-0.3,0.6-0.5,1.1-0.6c0.2,0,0.4,0.2,0.2,0.4
				c-0.3,0.3-0.6,0.4-1,0.6c-0.5,0.6-0.6,1.5-0.1,2.3c0.8,1.4,2.5,1.3,3.7,0.5c1.4-0.9,2.6-2.4,2.7-4c0.1-1.6-0.4-3.1-0.4-4.7
				C3.4,52.6,3.6,52.5,3.7,52.5z"/>
			<path class="st3" d="M11,49.1c0-0.1,0.2-0.2,0.2-0.1c0.4,1.1,1,2.2,1.6,3.2c1.8-1.2,3.5-2.4,5.3-3.6c-0.3-0.7-0.6-1.4-0.7-2.2
				c0-0.2,0.2-0.2,0.2-0.1c0.1,0.7,0.4,1.4,0.7,2.1c1.1-0.7,2.1-1.5,3.1-2.2c0.2-0.2,0.5,0.2,0.2,0.4c-1.1,0.7-2.1,1.5-3.2,2.2
				c0.3,0.7,0.7,1.3,1.1,2c0.2,0.4,0.4,0.7,0.6,1.1c1.6-1.1,3.2-2.2,4.9-3.2c-0.1-0.5-0.2-1.1-0.4-1.6c0-0.1,0.2-0.2,0.2-0.1
				c0.1,0.5,0.2,1,0.4,1.5c0.9-0.6,1.8-1.1,2.7-1.7c0.3-0.2,0.5,0.3,0.2,0.4c-0.9,0.6-1.9,1.2-2.8,1.7c0.3,1.2,0.7,2.4,1.2,3.6
				c1.1-0.9,2.3-1.7,3.6-2.3c0.3-0.1,0.5,0.3,0.2,0.4c-1.3,0.7-2.5,1.5-3.6,2.4c0.5,1.4,1.1,2.8,1.7,4.2c0,0,0,0.1,0,0.1
				c1.1-0.8,2.2-1.6,3.3-2.3c-0.2-3.2,0.2-6.5,1-9.7c0.5-2,0.9-5,2.8-6.3c-1,0-2,0.1-3,0.3C22.4,41,12.3,46.1,4.1,52.7
				c0.8,1.5,2,2.6,3.4,3.5c1.6-1.3,3.3-2.6,5-3.8C11.9,51.3,11.4,50.2,11,49.1z"/>
			<path class="st3" d="M28.3,57.8c-0.1-0.2-0.2-0.4-0.2-0.5c-0.5-1.3-1-2.5-1.5-3.8c-1.4,1.1-2.8,2.4-4.2,3.6
				c0.5,1.4,1.1,2.9,1.8,4.2C25.6,60.1,26.9,58.9,28.3,57.8z"/>
			<path class="st3" d="M30.7,62c0.2,0.3,0.3,0.7,0.4,1.1c0.7-0.5,1.3-1,1.9-1.5c-0.4-1.7-0.8-3.5-1-5.2c0-0.2,0-0.3,0-0.5
				c-1.1,0.7-2.1,1.5-3.1,2.2C29.5,59.4,30.1,60.6,30.7,62z"/>
			<path class="st3" d="M30.1,62c-0.6-1.2-1.1-2.4-1.6-3.6c-1.4,1.1-2.7,2.2-4.1,3.3c0.4,0.7,0.8,1.5,1.3,2.1c0,0,0,0.1,0,0.1
				c0.8,0.3,1.7,0.6,2.5,0.8c0.1,0,0.2,0.1,0.4,0.1c0.7-0.5,1.3-1,2-1.5C30.5,62.9,30.3,62.4,30.1,62z"/>
			<path class="st3" d="M47.3,42.2c-3.4-2.3-7.3-3-11.2-2.9c-1.9,1.8-2.3,4.3-2.8,6.8c-0.6,3.2-1,6.6-0.7,9.9c0.2,1.8,0.5,3.5,1,5.3
				c0.2,0,0.4,0.2,0.2,0.4c0,0,0,0-0.1,0.1c0.2,0.9,0.5,1.7,0.8,2.6c0.2,0.5,0.5,1.4,1.1,1.7c0.1,0.1,0.2,0.2,0.2,0.3
				c2.8,0.2,5.6-0.1,8.2-1c2.3-0.9,4.5-2.1,6-4c1.3-1.7,2.2-3.7,2.6-5.9C53.3,50.3,51.6,45.1,47.3,42.2z M44.7,47
				c-0.8,1.4-2.6,1.8-4,1.2c-0.1,0-0.1,0-0.2,0c0,0-0.1,0-0.1-0.1c-0.5-0.3-1-0.7-1.3-1.2c0,0,0-0.1-0.1-0.1
				c-0.4-0.5-0.5-1.1-0.3-1.8c0.3-1.2,1.1-2.1,2.4-2.3C43.3,42.2,45.8,44.8,44.7,47z"/>
			<path class="st3" d="M41,43.1c0,0-0.1,0-0.1,0c-0.9,0.3-1.5,1.1-1.8,1.9c0,0.2,0,0.4,0,0.6c0.1,0.9,0.7,1.4,1.3,2
				c1.4,0.7,3.5,0.8,4-1C44.9,44.7,43,42.5,41,43.1z M41.5,45.7c-0.1-0.1-0.2-0.3-0.1-0.5c0.1-0.2,0.3-0.2,0.5-0.1
				c0.2,0,0.5,0.1,0.5,0.3C42.3,45.8,41.8,46,41.5,45.7z"/>
			<path class="st3" d="M22.1,57.4c-1.4,1.2-2.9,2.3-4.5,3.2c1.7,0.7,3.4,1.4,5.1,2.1c0.4-0.4,0.8-0.7,1.2-1.1
				C23.1,60.3,22.6,58.8,22.1,57.4z"/>
			<path class="st3" d="M22.9,62.8c0.7,0.3,1.4,0.6,2.1,0.8c-0.4-0.5-0.7-1.1-1-1.7C23.6,62.3,23.3,62.5,22.9,62.8z"/>
			<path class="st3" d="M29,64.9c0.9,0.3,1.8,0.5,2.7,0.7c-0.4-0.6-0.7-1.2-0.9-1.9C30.2,64.1,29.6,64.5,29,64.9z"/>
			<path class="st3" d="M33.3,62.3c0-0.1-0.1-0.2-0.1-0.3c-0.6,0.5-1.3,1-1.9,1.4c0.3,0.8,0.7,1.6,1.2,2.3c0,0,0,0,0,0
				c0.8,0.2,1.6,0.3,2.5,0.4C33.9,65.4,33.5,63.2,33.3,62.3z"/>
		</g>
		<g>
			<path class="st4" d="M38.5,38.9c-5.1-0.3-10.2,0.9-14.9,2.5c-5,1.7-9.7,4.1-14.1,7C7.6,49.7,5.7,51,4,52.5
				c-0.2-1.8-0.9-3.6-2.4-4.7c-1.5-1.1-3.7-1.5-5.3-0.6c-1.2,0.7-1.8,2.1-1.6,3.5c0.2,1.1,1,1.9,1.9,2.3c-1.8,0.4-3.8,1.6-3.5,3.6
				c0.2,1.4,2.1,2.3,3.6,2.2c-0.2,0.4-0.3,0.9-0.2,1.4c0.2,1.3,1.2,2.3,2.5,2.3c1.9,0.1,3.6-1.5,4.5-3c1.2-2,0.4-4.1,0.3-6.2
				c2.1,3.3,6.4,4.8,9.8,6.2c2.9,1.1,5.7,2.4,8.5,3.5c0,0,0.1,0.1,0.1,0.1c1.9,0.8,3.8,1.5,5.8,2.1c0.1,0,0.1,0,0.2,0.1c0,0,0,0,0,0
				c5,1.5,10.3,2.1,15.3,0.4c4.4-1.5,7.7-4.5,9-9c1.1-4,0.4-8.9-2.2-12.2C47.6,40.9,43.1,39.1,38.5,38.9z M3.8,57.4
				c-0.1,1.7-1.3,3.2-2.7,4c-1.2,0.8-2.9,0.9-3.7-0.5c-0.4-0.8-0.4-1.7,0.1-2.3c0.4-0.1,0.8-0.3,1-0.6c0.2-0.2,0-0.4-0.2-0.4
				c-0.5,0.1-0.8,0.3-1.1,0.6c-1.5,0.3-3.4-0.7-3.6-2.2c-0.1-1.9,2.8-2.8,4.3-2.8c0.3,0,0.3-0.4,0-0.5c-1.4-0.2-2.6-1-2.7-2.5
				C-5,49-4.2,47.9-3,47.4c1.6-0.6,3.5,0,4.7,1.1c1.1,1,1.7,2.5,2,4c-0.1,0-0.2,0.1-0.2,0.2C3.4,54.3,3.9,55.8,3.8,57.4z M4.1,52.7
				c8.1-6.6,18.2-11.8,28.7-13.1c1-0.1,2-0.2,3-0.3c-1.9,1.3-2.4,4.3-2.8,6.3c-0.7,3.2-1.1,6.4-1,9.7c-1.1,0.7-2.3,1.5-3.3,2.3
				c0,0,0-0.1,0-0.1c-0.6-1.4-1.2-2.8-1.7-4.2c1.1-0.9,2.3-1.7,3.6-2.4c0.3-0.1,0-0.6-0.2-0.4c-1.3,0.7-2.5,1.4-3.6,2.3
				c-0.4-1.2-0.8-2.4-1.2-3.6c0.9-0.6,1.9-1.2,2.8-1.7c0.3-0.2,0-0.6-0.2-0.4c-0.9,0.6-1.8,1.1-2.7,1.7c-0.1-0.5-0.3-1-0.4-1.5
				c0-0.1-0.2-0.1-0.2,0.1c0.1,0.5,0.2,1.1,0.4,1.6c-1.6,1-3.3,2.1-4.9,3.2c-0.2-0.4-0.4-0.7-0.6-1.1c-0.4-0.7-0.8-1.3-1.1-2
				c1.1-0.7,2.1-1.5,3.2-2.2c0.2-0.2,0-0.6-0.2-0.4c-1,0.7-2.1,1.5-3.1,2.2c-0.3-0.7-0.6-1.4-0.7-2.1c0-0.2-0.3-0.1-0.2,0.1
				c0.1,0.8,0.4,1.5,0.7,2.2c-1.8,1.2-3.6,2.4-5.3,3.6c-0.6-1-1.1-2.1-1.6-3.2c0-0.1-0.2-0.1-0.2,0.1c0.4,1.2,0.9,2.3,1.5,3.4
				c-1.7,1.2-3.4,2.4-5,3.8C6.1,55.3,4.9,54.2,4.1,52.7z M32.1,56.3c0.1,1.7,0.5,3.5,1,5.2c-0.6,0.5-1.3,1-1.9,1.5
				c-0.1-0.4-0.3-0.7-0.4-1.1c-0.6-1.3-1.2-2.6-1.8-3.9c1-0.8,2-1.5,3.1-2.2C32.1,56,32.1,56.1,32.1,56.3z M26.6,53.5
				c0.4,1.3,0.9,2.6,1.5,3.8c0.1,0.2,0.2,0.4,0.2,0.5c-1.4,1.1-2.7,2.3-4.1,3.4c-0.7-1.4-1.3-2.8-1.8-4.2
				C23.8,55.9,25.2,54.6,26.6,53.5z M22.3,56.5c-0.2-0.6-0.4-1.2-0.6-1.7c-0.3-0.9-0.7-1.7-1.1-2.5c1.6-1.1,3.2-2.1,4.8-3.1
				c0.3,1.3,0.7,2.5,1.1,3.7C25,54,23.6,55.3,22.3,56.5z M20,52.2c-1.7,1.2-3.4,2.4-5.1,3.7c-0.2-0.3-0.3-0.6-0.5-1
				c-0.4-0.8-0.9-1.5-1.3-2.2c1.8-1.2,3.5-2.4,5.3-3.6c0.2,0.5,0.5,0.9,0.7,1.4C19.4,51,19.7,51.6,20,52.2z M7.7,56.3
				c1.7-1.2,3.4-2.3,5-3.5c0.4,0.6,0.7,1.3,1.1,1.9c0.2,0.4,0.5,0.9,0.7,1.3c-0.9,0.7-1.9,1.4-2.8,2.2C10.3,57.7,9,57.1,7.7,56.3z
				 M14.6,59.4c-0.8-0.3-1.7-0.7-2.7-1c0.9-0.7,1.8-1.3,2.7-2c0.2,0.5,0.5,1,0.7,1.5c0.3,0.8,0.5,1.5,0.9,2.2
				C15.7,59.8,15.1,59.6,14.6,59.4z M17,60.3c0,0,0-0.1,0-0.1c-0.6-0.9-0.9-1.8-1.3-2.8c-0.2-0.4-0.4-0.9-0.6-1.3
				c1.7-1.2,3.4-2.4,5.1-3.6c0.4,0.9,0.8,1.8,1.2,2.7c0.2,0.5,0.4,1.1,0.6,1.6c-1.4,1.3-2.9,2.6-4.5,3.6
				C17.2,60.4,17.1,60.4,17,60.3z M17.5,60.6c1.6-0.9,3.1-2,4.5-3.2c0.5,1.4,1.1,2.9,1.8,4.2c-0.4,0.4-0.8,0.7-1.2,1.1
				C20.9,62,19.2,61.3,17.5,60.6z M22.9,62.8c0.4-0.3,0.8-0.6,1.1-0.8c0.3,0.6,0.6,1.1,1,1.7C24.3,63.4,23.6,63.1,22.9,62.8z
				 M28.3,64.7c-0.8-0.2-1.7-0.5-2.5-0.8c0,0,0-0.1,0-0.1c-0.5-0.7-0.9-1.4-1.3-2.1c1.4-1.1,2.7-2.2,4.1-3.3c0.5,1.2,1,2.4,1.6,3.6
				c0.2,0.5,0.4,0.9,0.6,1.4c-0.7,0.5-1.3,1-2,1.5C28.6,64.8,28.4,64.8,28.3,64.7z M29,64.9c0.6-0.4,1.2-0.8,1.8-1.2
				c0.3,0.7,0.5,1.3,0.9,1.9C30.8,65.4,29.9,65.2,29,64.9z M32.5,65.8C32.5,65.7,32.5,65.7,32.5,65.8c-0.6-0.7-0.9-1.5-1.2-2.4
				c0.6-0.5,1.3-0.9,1.9-1.4c0,0.1,0.1,0.2,0.1,0.3c0.3,0.9,0.7,3.1,1.7,3.8C34.1,66,33.3,65.9,32.5,65.8z M52.5,55.3
				c-0.3,2.1-1.2,4.2-2.6,5.9c-1.5,1.9-3.8,3.2-6,4c-2.6,1-5.4,1.2-8.2,1c0-0.1,0-0.2-0.2-0.3c-0.6-0.2-0.9-1.1-1.1-1.7
				c-0.3-0.8-0.6-1.7-0.8-2.6c0,0,0,0,0.1-0.1c0.2-0.2,0-0.4-0.2-0.4c-0.4-1.7-0.8-3.5-1-5.3c-0.3-3.3,0.1-6.6,0.7-9.9
				c0.5-2.4,1-5,2.8-6.8c4-0.1,7.9,0.6,11.2,2.9C51.6,45.1,53.3,50.3,52.5,55.3z"/>
			<path class="st4" d="M41.1,42.6c-1.3,0.2-2,1.1-2.4,2.3c-0.2,0.7,0,1.3,0.3,1.8c0,0,0,0.1,0.1,0.1c0.3,0.5,0.7,0.9,1.3,1.2
				c0,0,0.1,0,0.1,0.1c0,0,0.1,0.1,0.2,0c1.4,0.6,3.3,0.2,4-1.2C45.8,44.8,43.3,42.2,41.1,42.6z M44.4,46.6c-0.5,1.7-2.6,1.7-4,1
				c-0.6-0.5-1.2-1.1-1.3-2c0-0.2,0-0.4,0-0.6c0.2-0.8,0.9-1.5,1.8-1.9c0,0,0.1,0,0.1,0C43,42.5,44.9,44.7,44.4,46.6z"/>
			<path class="st4" d="M41.9,45c-0.2-0.1-0.4-0.1-0.5,0.1c-0.1,0.2,0,0.4,0.1,0.5c0.3,0.3,0.9,0.1,0.9-0.3
				C42.4,45.1,42.1,45,41.9,45z"/>
		</g>
	</g>
</g>
</svg>
