<?xml version="1.0" encoding="utf-8"?>
<!-- Generator: Adobe Illustrator 21.0.0, SVG Export Plug-In . SVG Version: 6.00 Build 0)  -->
<svg version="1.1" id="圖層_1" xmlns="http://www.w3.org/2000/svg" xmlns:xlink="http://www.w3.org/1999/xlink" x="0px" y="0px"
	 viewBox="0 0 107.9 83.2" style="enable-background:new 0 0 107.9 83.2;" xml:space="preserve">
<style type="text/css">
	.st0{fill:#333333;}
	.st1{fill:#0071BC;}
	.st2{clip-path:url(#SVGID_2_);}
	.st3{fill:#FFFFFF;}
	.st4{fill:#232020;}
	.st5{clip-path:url(#SVGID_4_);}
	.st6{clip-path:url(#SVGID_6_);}
</style>
<g>
	<path class="st0" d="M91.5,16.6c-14.1-1.2-28.3-1.9-42.5-2.2c-6.8-0.1-13.6-0.1-20.4,0c-2.1,0-4.2,0.1-6.3,0.2
		c-0.2-1.2-0.5-2.5-0.8-3.7C18.8,1.9,3.5-6.3,0.8,6.9c-1.2,2.2-1.1,4.7,0.7,7.1c3.7,5,12.2,3.7,17.5,3.6c0.3,2.7,0.2,5.5,0.3,8.2
		c0.1,6.3,0.2,12.5,0.3,18.8c0.2,12.5,0.4,25,1.1,37.5c0.1,1.4,2.2,1.5,2.2,0c0.4-12.5,0.2-25,0-37.5c-0.1-8.5,0.9-18.2-0.2-27
		c23-0.3,45.9,0.5,68.8,2.4C93.6,20.1,93.6,16.8,91.5,16.6z M13.8,14.9c-4.7,0.7-8.1-1.7-10.2-7.4C11.8,4,16.5,5.2,17.7,11
		c0.6,1.2,0.9,2.5,1.1,3.8c-0.4,0-0.8,0-1.2,0C16.3,14.8,15.1,14.9,13.8,14.9z"/>
</g>
<g>
	<path class="st1" d="M68.7,35.6c2.5,0,3.7,1.2,3.7,3.7v1c0,1.2-1.4,3.4-4.1,6.7c2.6,0,4.5,1.6,5.7,4.7l0.3,3.4v2.4
		c0,2.8-2.2,5.2-6.7,7.4c-3.7,1.1-7.6,1.7-11.8,1.7h-3.7l-1.7-0.3V66c0-0.5,0.1-1,0.3-1.4c-0.2-0.4-0.3-0.8-0.3-1h1.7
		c0.6,0.4,1.9,0.9,4,1.4c6.5,0,9.8-1,9.8-3c0.6,0,1.3-1.3,2-4v-3c0-2.3-0.9-4.1-2.7-5.4c-3.8,1.1-6.4,1.7-7.7,1.7l-2-0.3v-0.3
		c0.9-1,3.5-2.2,7.7-3.7c2.2-3,3.4-5.2,3.4-6.8v-0.3c-0.2-1.3-0.6-2-1-2c-1.4,0-3.6,1-6.4,3c-0.2,0-0.6,0.1-1,0.3
		c-0.4-0.2-0.9-0.3-1.7-0.3v-1C59.8,37,63.8,35.6,68.7,35.6z"/>
	<path class="st1" d="M82.5,37.3c2.3,0,4.1,0.5,5.4,1.4l8.1-1.4c0.6,0,2.2,0.3,4.7,1c0,0.3-0.9,1.2-2.7,2.7c-0.5,0-2.2-0.2-5.1-0.7
		c-0.6,0-1.4,0.3-2.4,1L87.2,41c0,0.9-0.2,3.7-0.7,8.4l9.8-0.7c0-0.7,0.1-1,0.3-1c2.3,0,4.5,0.5,6.7,1.4v0.7
		c-1.8,0.6-7.1,1.3-15.8,2c-0.9,0.5-1.4,0.8-1.4,1c-0.4,6.1-0.7,10.3-0.7,12.5c0,1.1-0.2,1.7-0.7,1.7c-1.7,0-3.5-0.3-5.4-1
		c1.1-14.5,2-24.1,2.7-28.7H82.5z"/>
</g>
<g>
	<defs>
		<rect id="SVGID_5_" x="23" y="32" width="37" height="37.4"/>
	</defs>
	<clipPath id="SVGID_2_">
		<use xlink:href="#SVGID_5_"  style="overflow:visible;"/>
	</clipPath>
	<g class="st2">
		<g>
			<path class="st3" d="M19.7,48.7c1.8,1.2,3.5,2.4,5.3,3.6c-0.4,0.7-0.9,1.5-1.3,2.2c-0.2,0.3-0.4,0.6-0.5,1
				c-1.7-1.3-3.4-2.5-5.1-3.7c0.3-0.6,0.6-1.2,0.9-1.7C19.2,49.7,19.5,49.2,19.7,48.7z"/>
			<path class="st3" d="M17.5,52c-0.4,0.8-0.8,1.7-1.1,2.5c-0.2,0.6-0.4,1.1-0.6,1.7c-1.4-1.2-2.7-2.5-4.2-3.6
				c0.4-1.2,0.8-2.5,1.1-3.7C14.3,49.9,15.9,50.9,17.5,52z"/>
			<path class="st3" d="M16.7,55c0.4-0.9,0.7-1.8,1.2-2.7c1.7,1.2,3.4,2.4,5.1,3.6c-0.2,0.4-0.4,0.9-0.6,1.3c-0.4,1-0.7,2-1.3,2.8
				c0,0,0,0.1,0,0.1c-0.1,0-0.2,0.1-0.3,0.1c-1.6-1.1-3.1-2.3-4.5-3.6C16.3,56,16.5,55.5,16.7,55z"/>
			<path class="st3" d="M24.2,54.5c0.4-0.6,0.7-1.3,1.1-1.9c1.7,1.1,3.4,2.3,5,3.5c-1.3,0.8-2.6,1.4-4,2c-0.9-0.7-1.9-1.5-2.8-2.2
				C23.7,55.3,23.9,54.9,24.2,54.5z"/>
			<path class="st3" d="M23.3,56c0.9,0.7,1.8,1.3,2.7,2c-0.9,0.4-1.8,0.7-2.7,1c-0.6,0.2-1.1,0.4-1.7,0.7c0.4-0.7,0.6-1.5,0.9-2.2
				C22.9,57,23.1,56.5,23.3,56z"/>
			<path class="st3" d="M34.3,52.2c0.3-1.5,0.9-3,2-4c1.2-1.1,3.2-1.7,4.7-1.1c1.2,0.5,2,1.6,1.8,2.9c-0.1,1.5-1.3,2.4-2.7,2.5
				c-0.3,0-0.3,0.5,0,0.5c1.4,0,4.4,1,4.3,2.8c-0.1,1.5-2.1,2.4-3.6,2.2c-0.3-0.3-0.6-0.5-1.1-0.6c-0.2,0-0.4,0.2-0.2,0.4
				c0.3,0.3,0.6,0.4,1,0.6c0.5,0.6,0.6,1.5,0.1,2.3c-0.8,1.4-2.5,1.3-3.7,0.5c-1.4-0.9-2.6-2.4-2.7-4c-0.1-1.6,0.4-3.1,0.4-4.7
				C34.6,52.3,34.4,52.2,34.3,52.2z"/>
			<path class="st3" d="M27,48.8c0-0.1-0.2-0.2-0.2-0.1c-0.4,1.1-1,2.2-1.6,3.2c-1.8-1.2-3.5-2.4-5.3-3.6c0.3-0.7,0.6-1.4,0.7-2.2
				c0-0.2-0.2-0.2-0.2-0.1c-0.1,0.7-0.4,1.4-0.7,2.1c-1.1-0.7-2.1-1.5-3.1-2.2c-0.2-0.2-0.5,0.2-0.2,0.4c1.1,0.7,2.1,1.5,3.2,2.2
				c-0.3,0.7-0.7,1.3-1.1,2c-0.2,0.4-0.4,0.7-0.6,1.1c-1.6-1.1-3.2-2.2-4.9-3.2c0.1-0.5,0.2-1.1,0.4-1.6c0-0.1-0.2-0.2-0.2-0.1
				c-0.1,0.5-0.2,1-0.4,1.5c-0.9-0.6-1.8-1.1-2.7-1.7c-0.3-0.2-0.5,0.3-0.2,0.4c0.9,0.6,1.9,1.2,2.8,1.7c-0.3,1.2-0.7,2.4-1.2,3.6
				c-1.1-0.9-2.3-1.7-3.6-2.3c-0.3-0.1-0.5,0.3-0.2,0.4c1.3,0.7,2.5,1.5,3.6,2.4c-0.5,1.4-1.1,2.8-1.7,4.2c0,0,0,0.1,0,0.1
				C8.2,56.4,7.1,55.6,6,55c0.2-3.2-0.2-6.5-1-9.7c-0.5-2-0.9-5-2.8-6.3c1,0,2,0.1,3,0.3c10.5,1.4,20.6,6.5,28.7,13.1
				c-0.8,1.5-2,2.6-3.4,3.5c-1.6-1.3-3.3-2.6-5-3.8C26,51,26.6,49.9,27,48.8z"/>
			<path class="st3" d="M9.7,57.5c0.1-0.2,0.2-0.4,0.2-0.5c0.5-1.3,1-2.5,1.5-3.8c1.4,1.1,2.8,2.4,4.2,3.6c-0.5,1.4-1.1,2.9-1.8,4.2
				C12.4,59.8,11.1,58.6,9.7,57.5z"/>
			<path class="st3" d="M7.3,61.7C7.2,62,7,62.4,6.9,62.7c-0.7-0.5-1.3-1-1.9-1.5c0.4-1.7,0.8-3.5,1-5.2c0-0.2,0-0.3,0-0.5
				C7,56.2,8.1,57,9.1,57.7C8.5,59,7.9,60.3,7.3,61.7z"/>
			<path class="st3" d="M7.9,61.6c0.6-1.2,1.1-2.4,1.6-3.6c1.4,1.1,2.7,2.2,4.1,3.3c-0.4,0.7-0.8,1.5-1.3,2.1c0,0,0,0.1,0,0.1
				c-0.8,0.3-1.7,0.6-2.5,0.8c-0.1,0-0.2,0.1-0.4,0.1c-0.7-0.5-1.3-1-2-1.5C7.5,62.6,7.7,62.1,7.9,61.6z"/>
			<path class="st3" d="M-14.5,55c0.3,2.1,1.2,4.2,2.6,5.9c1.5,1.9,3.8,3.2,6,4c2.6,1,5.4,1.2,8.2,1c0-0.1,0-0.2,0.2-0.3
				c0.6-0.2,0.9-1.1,1.1-1.7c0.3-0.8,0.6-1.7,0.8-2.6c0,0,0,0-0.1-0.1c-0.2-0.2,0-0.4,0.2-0.4c0.4-1.7,0.8-3.5,1-5.3
				c0.3-3.3-0.1-6.6-0.7-9.9c-0.5-2.4-1-5-2.8-6.8c-4-0.1-7.9,0.6-11.2,2.9C-13.6,44.8-15.3,50-14.5,55z M-3.1,42.3
				c1.3,0.2,2,1.1,2.4,2.3c0.2,0.7,0,1.3-0.3,1.8c0,0,0,0.1-0.1,0.1c-0.3,0.5-0.7,0.9-1.3,1.2c0,0-0.1,0-0.1,0.1c0,0-0.1,0.1-0.2,0
				c-1.4,0.6-3.3,0.2-4-1.2C-7.8,44.5-5.3,41.9-3.1,42.3z"/>
			<path class="st3" d="M15.9,57.1c1.4,1.2,2.9,2.3,4.5,3.2c-1.7,0.7-3.4,1.4-5.1,2.1c-0.4-0.4-0.8-0.7-1.2-1.1
				C14.8,59.9,15.4,58.5,15.9,57.1z"/>
			<path class="st3" d="M15.1,62.5c-0.7,0.3-1.4,0.6-2.1,0.8c0.4-0.5,0.7-1.1,1-1.7C14.3,62,14.7,62.2,15.1,62.5z"/>
			<path class="st3" d="M9,64.6c-0.9,0.3-1.8,0.5-2.7,0.7c0.4-0.6,0.7-1.2,0.9-1.9C7.8,63.8,8.4,64.2,9,64.6z"/>
			<path class="st3" d="M4.7,62c0-0.1,0.1-0.2,0.1-0.3c0.6,0.5,1.3,1,1.9,1.4c-0.3,0.8-0.7,1.6-1.2,2.3c0,0,0,0,0,0
				c-0.8,0.2-1.6,0.3-2.5,0.4C4.1,65.1,4.5,62.9,4.7,62z"/>
		</g>
		<g>
			<path class="st4" d="M-12.5,44.2c-2.6,3.3-3.3,8.2-2.2,12.2c1.2,4.5,4.6,7.6,9,9c5,1.7,10.4,1,15.3-0.4c0,0,0,0,0,0
				c0.1,0,0.1,0,0.2-0.1c2-0.6,3.9-1.3,5.8-2.1c0,0,0.1,0,0.1-0.1c2.8-1.2,5.7-2.4,8.5-3.5c3.5-1.4,7.8-2.9,9.8-6.2
				c-0.1,2.1-0.9,4.2,0.3,6.2c0.9,1.5,2.6,3.1,4.5,3c1.3-0.1,2.3-1,2.5-2.3c0.1-0.5,0-1-0.2-1.4c1.6,0.1,3.4-0.7,3.6-2.2
				c0.3-2-1.6-3.2-3.5-3.6c1-0.4,1.7-1.2,1.9-2.3c0.2-1.3-0.3-2.8-1.6-3.5c-1.7-0.9-3.9-0.5-5.3,0.6c-1.5,1.1-2.1,2.9-2.4,4.7
				c-1.7-1.5-3.6-2.9-5.5-4.1c-4.4-2.9-9.1-5.3-14.1-7c-4.8-1.7-9.9-2.8-14.9-2.5C-5.1,38.8-9.6,40.6-12.5,44.2z M34.6,52.4
				c0-0.2-0.1-0.2-0.2-0.2c0.3-1.5,0.9-3,2-4c1.2-1.1,3.2-1.7,4.7-1.1c1.2,0.5,2,1.6,1.8,2.9c-0.1,1.5-1.3,2.4-2.7,2.5
				c-0.3,0-0.3,0.5,0,0.5c1.4,0,4.4,1,4.3,2.8c-0.1,1.5-2.1,2.4-3.6,2.2c-0.3-0.3-0.6-0.5-1.1-0.6c-0.2,0-0.4,0.2-0.2,0.4
				c0.3,0.3,0.6,0.4,1,0.6c0.5,0.6,0.6,1.5,0.1,2.3c-0.8,1.4-2.5,1.3-3.7,0.5c-1.4-0.9-2.6-2.4-2.7-4C34.1,55.5,34.6,54,34.6,52.4z
				 M30.5,55.9c-1.6-1.3-3.3-2.6-5-3.8c0.6-1.1,1.1-2.2,1.5-3.4c0-0.1-0.2-0.2-0.2-0.1c-0.4,1.1-1,2.2-1.6,3.2
				c-1.8-1.2-3.5-2.4-5.3-3.6c0.3-0.7,0.6-1.4,0.7-2.2c0-0.2-0.2-0.2-0.2-0.1c-0.1,0.7-0.4,1.4-0.7,2.1c-1.1-0.7-2.1-1.5-3.1-2.2
				c-0.2-0.2-0.5,0.2-0.2,0.4c1.1,0.7,2.1,1.5,3.2,2.2c-0.3,0.7-0.7,1.3-1.1,2c-0.2,0.4-0.4,0.7-0.6,1.1c-1.6-1.1-3.2-2.2-4.9-3.2
				c0.1-0.5,0.2-1.1,0.4-1.6c0-0.1-0.2-0.2-0.2-0.1c-0.1,0.5-0.2,1-0.4,1.5c-0.9-0.6-1.8-1.1-2.7-1.7c-0.3-0.2-0.5,0.3-0.2,0.4
				c0.9,0.6,1.9,1.2,2.8,1.7c-0.3,1.2-0.7,2.4-1.2,3.6c-1.1-0.9-2.3-1.7-3.6-2.3c-0.3-0.1-0.5,0.3-0.2,0.4c1.3,0.7,2.5,1.5,3.6,2.4
				c-0.5,1.4-1.1,2.8-1.7,4.2c0,0,0,0.1,0,0.1C8.2,56.4,7.1,55.6,6,55c0.2-3.2-0.2-6.5-1-9.7c-0.5-2-0.9-5-2.8-6.3c1,0,2,0.1,3,0.3
				c10.5,1.4,20.6,6.5,28.7,13.1C33.1,53.9,31.9,55,30.5,55.9z M6,55.5C7,56.2,8.1,57,9.1,57.7c-0.6,1.3-1.2,2.6-1.8,3.9
				C7.2,62,7,62.4,6.9,62.7c-0.7-0.5-1.3-1-1.9-1.5c0.4-1.7,0.8-3.5,1-5.2C5.9,55.8,5.9,55.7,6,55.5z M15.6,56.7
				c-0.5,1.4-1.1,2.9-1.8,4.2c-1.3-1.2-2.7-2.3-4.1-3.4c0.1-0.2,0.2-0.4,0.2-0.5c0.5-1.3,1-2.5,1.5-3.8
				C12.8,54.3,14.2,55.6,15.6,56.7z M11.6,52.6c0.4-1.2,0.8-2.5,1.1-3.7c1.6,1,3.2,2.1,4.8,3.1c-0.4,0.8-0.8,1.7-1.1,2.5
				c-0.2,0.6-0.4,1.1-0.6,1.7C14.4,55,13,53.7,11.6,52.6z M18.9,50.1c0.3-0.5,0.5-0.9,0.7-1.4c1.8,1.2,3.5,2.4,5.3,3.6
				c-0.4,0.7-0.9,1.5-1.3,2.2c-0.2,0.3-0.4,0.6-0.5,1c-1.7-1.3-3.4-2.5-5.1-3.7C18.3,51.3,18.6,50.7,18.9,50.1z M26.3,57.9
				c-0.9-0.7-1.9-1.5-2.8-2.2c0.2-0.4,0.5-0.9,0.7-1.3c0.4-0.6,0.7-1.3,1.1-1.9c1.7,1.1,3.4,2.3,5,3.5C29,56.8,27.7,57.4,26.3,57.9z
				 M21.8,59.7c0.4-0.7,0.6-1.5,0.9-2.2c0.2-0.5,0.4-1,0.7-1.5c0.9,0.7,1.8,1.3,2.7,2c-0.9,0.4-1.8,0.7-2.7,1
				C22.9,59.3,22.3,59.5,21.8,59.7z M20.7,60.2c-1.6-1.1-3.1-2.3-4.5-3.6c0.2-0.5,0.4-1.1,0.6-1.6c0.4-0.9,0.7-1.8,1.2-2.7
				c1.7,1.2,3.4,2.4,5.1,3.6c-0.2,0.4-0.4,0.9-0.6,1.3c-0.4,1-0.7,2-1.3,2.8c0,0,0,0.1,0,0.1C20.9,60.1,20.8,60.1,20.7,60.2z
				 M15.4,62.4c-0.4-0.4-0.8-0.7-1.2-1.1c0.7-1.4,1.2-2.8,1.8-4.2c1.4,1.2,2.9,2.3,4.5,3.2C18.8,61,17.1,61.7,15.4,62.4z M13,63.3
				c0.4-0.5,0.7-1.1,1-1.7c0.4,0.3,0.7,0.6,1.1,0.8C14.4,62.8,13.7,63.1,13,63.3z M9.3,64.5c-0.7-0.5-1.3-1-2-1.5
				c0.2-0.5,0.4-0.9,0.6-1.4c0.6-1.2,1.1-2.4,1.6-3.6c1.4,1.1,2.7,2.2,4.1,3.3c-0.4,0.7-0.8,1.5-1.3,2.1c0,0,0,0.1,0,0.1
				c-0.8,0.3-1.7,0.6-2.5,0.8C9.6,64.5,9.4,64.5,9.3,64.5z M6.3,65.3c0.4-0.6,0.7-1.2,0.9-1.9c0.6,0.4,1.2,0.8,1.8,1.2
				C8.1,64.9,7.2,65.1,6.3,65.3z M3,65.8c1-0.7,1.4-2.9,1.7-3.8c0-0.1,0.1-0.2,0.1-0.3c0.6,0.5,1.3,1,1.9,1.4
				c-0.3,0.8-0.7,1.6-1.2,2.3c0,0,0,0,0,0C4.7,65.6,3.9,65.7,3,65.8z M-9.3,41.9C-6,39.6-2,38.9,1.9,39c1.9,1.8,2.3,4.3,2.8,6.8
				c0.6,3.2,1,6.6,0.7,9.9c-0.2,1.8-0.5,3.5-1,5.3c-0.2,0-0.4,0.2-0.2,0.4c0,0,0,0,0.1,0.1c-0.2,0.9-0.5,1.7-0.8,2.6
				c-0.2,0.5-0.5,1.4-1.1,1.7c-0.1,0.1-0.2,0.2-0.2,0.3c-2.8,0.2-5.6-0.1-8.2-1c-2.3-0.9-4.5-2.1-6-4c-1.3-1.7-2.2-3.7-2.6-5.9
				C-15.3,50-13.6,44.8-9.3,41.9z"/>
		</g>
	</g>
</g>
</svg>
