<?xml version="1.0" encoding="utf-8"?>
<!-- Generator: Adobe Illustrator 21.0.0, SVG Export Plug-In . SVG Version: 6.00 Build 0)  -->
<svg version="1.1" id="圖層_1" xmlns="http://www.w3.org/2000/svg" xmlns:xlink="http://www.w3.org/1999/xlink" x="0px" y="0px"
	 viewBox="0 0 107.9 83.2" style="enable-background:new 0 0 107.9 83.2;" xml:space="preserve">
<style type="text/css">
	.st0{fill:#333333;}
	.st1{fill:#0071BC;}
	.st2{clip-path:url(#SVGID_2_);}
	.st3{fill:#FFFFFF;}
	.st4{fill:#232020;}
	.st5{clip-path:url(#SVGID_4_);}
	.st6{clip-path:url(#SVGID_6_);}
</style>
<g>
	<path class="st0" d="M91.5,16.6c-14.1-1.2-28.3-1.9-42.5-2.2c-6.8-0.1-13.6-0.1-20.4,0c-2.1,0-4.2,0.1-6.3,0.2
		c-0.2-1.2-0.5-2.5-0.8-3.7C18.8,1.9,3.5-6.3,0.8,6.9c-1.2,2.2-1.1,4.7,0.7,7.1c3.7,5,12.2,3.7,17.5,3.6c0.3,2.7,0.2,5.5,0.3,8.2
		c0.1,6.3,0.2,12.5,0.3,18.8c0.2,12.5,0.4,25,1.1,37.5c0.1,1.4,2.2,1.5,2.2,0c0.4-12.5,0.2-25,0-37.5c-0.1-8.5,0.9-18.2-0.2-27
		c23-0.3,45.9,0.5,68.8,2.4C93.6,20.1,93.6,16.8,91.5,16.6z M13.8,14.9c-4.7,0.7-8.1-1.7-10.2-7.4C11.8,4,16.5,5.2,17.7,11
		c0.6,1.2,0.9,2.5,1.1,3.8c-0.4,0-0.8,0-1.2,0C16.3,14.8,15.1,14.9,13.8,14.9z"/>
</g>
<g>
	<path class="st0" d="M68.7,35.6c2.5,0,3.7,1.2,3.7,3.7v1c0,1.2-1.4,3.4-4.1,6.7c2.6,0,4.5,1.6,5.7,4.7l0.3,3.4v2.4
		c0,2.8-2.2,5.2-6.7,7.4c-3.7,1.1-7.6,1.7-11.8,1.7h-3.7l-1.7-0.3V66c0-0.5,0.1-1,0.3-1.4c-0.2-0.4-0.3-0.8-0.3-1h1.7
		c0.6,0.4,1.9,0.9,4,1.4c6.5,0,9.8-1,9.8-3c0.6,0,1.3-1.3,2-4v-3c0-2.3-0.9-4.1-2.7-5.4c-3.8,1.1-6.4,1.7-7.7,1.7l-2-0.3v-0.3
		c0.9-1,3.5-2.2,7.7-3.7c2.2-3,3.4-5.2,3.4-6.8v-0.3c-0.2-1.3-0.6-2-1-2c-1.4,0-3.6,1-6.4,3c-0.2,0-0.6,0.1-1,0.3
		c-0.4-0.2-0.9-0.3-1.7-0.3v-1C59.8,37,63.8,35.6,68.7,35.6z"/>
	<path class="st0" d="M82.5,37.3c2.3,0,4.1,0.5,5.4,1.4l8.1-1.4c0.6,0,2.2,0.3,4.7,1c0,0.3-0.9,1.2-2.7,2.7c-0.5,0-2.2-0.2-5.1-0.7
		c-0.6,0-1.4,0.3-2.4,1L87.2,41c0,0.9-0.2,3.7-0.7,8.4l9.8-0.7c0-0.7,0.1-1,0.3-1c2.3,0,4.5,0.5,6.7,1.4v0.7
		c-1.8,0.6-7.1,1.3-15.8,2c-0.9,0.5-1.4,0.8-1.4,1c-0.4,6.1-0.7,10.3-0.7,12.5c0,1.1-0.2,1.7-0.7,1.7c-1.7,0-3.5-0.3-5.4-1
		c1.1-14.5,2-24.1,2.7-28.7H82.5z"/>
</g>
</svg>
